<svg xmlns:xlink="http://www.w3.org/1999/xlink" xmlns="http://www.w3.org/2000/svg" baseProfile="basic" width="695" height="389" viewBox="0 0 695 389" preserveAspectRatio="xMinYMin meet"><defs><symbol id="a" overflow="visible"><path fill="#1A344F" d="M31-11.9q-.35-.35-.85-.35t-.8.35q-.35.3-.35.8V1.2q0 .5.35.85.3.3.8.3t.85-.3q.3-.35.3-.85v-12.3q0-.5-.3-.8M-29.35-11.9q-.35-.35-.85-.35t-.8.35q-.35.3-.35.8V1.2q0 .5.35.85.3.3.8.3t.85-.3q.3-.35.3-.85v-12.3q0-.5-.3-.8"/></symbol></defs><g overflow="visible"><path fill="#C1C8D5" d="M795.3 388.95v-31H0v31h795.3"/><path fill="#E7E4DE" d="M793.35 357.95V0H.3v357.95h793.05"/><path fill="none" stroke="#1A344F" stroke-width="2.5" stroke-linecap="round" stroke-linejoin="round" d="M.051 357.95h50.5M66.751 357.95h29.45M620.551 357.95h172.85"/><path fill="#19344F" fill-opacity=".29" d="M701.1 308.2v7.25q0 2.8-1.95 4.75-2 2-4.8 2h-2.15v2q0 1.05-.7 1.8l-.05.05q-.8.8-1.9.8h-3.9q0 .5.05 1 .15 1.4.5 3.05.15.65.3 1.25l-1.25.3h4.3q1.1 0 1.9.8l.05.05q.7.75.7 1.85v2.3h2.15q2.8 0 4.8 2 1.95 2 1.95 4.8v7.2q0 2.8-1.95 4.8-2 2-4.8 2H629.3q-.75 0-1.3-.35-.3-.2-.55-.45-.8-.75-.8-1.85v-2.3q0-1.1.8-1.85.25-.25.55-.45.55-.35 1.3-.35h64.2v-5.6h-64.2q-.7 0-1.3-.35-.3-.2-.55-.45-.8-.8-.8-1.85v-2.3h-2.1q-2.8 0-4.8-2t-2-4.8v-7.25q0-2.8 2-4.8t4.8-2h2.1v-1.95q0-1.1.8-1.9.25-.25.55-.45.55-.35 1.3-.35h64.2V309h-64.2q-.75 0-1.3-.3-.3-.2-.55-.45-.8-.8-.8-1.9v-2.3q0-1.1.8-1.85.25-.25.55-.45.55-.35 1.3-.35h65.05q2.8 0 4.8 2 1.95 2 1.95 4.8m-6.75-1.85H629.3v-2.3h65.05q1.7 0 2.9 1.2 1.2 1.25 1.2 2.95v7.25q0 1.7-1.2 2.9t-2.9 1.2h-3.55q-.6-.3-1.25-.3H629.3v-1.95h65.05q.75 0 1.3-.55t.55-1.3v-7.25q0-.8-.55-1.3-.55-.55-1.3-.55m-4.8 17.85h-65q-.8 0-1.3.55-.55.55-.55 1.3v7.25q0 .75.55 1.3.5.55 1.3.55h65v2.25h-65q-1.7 0-2.95-1.2-1.2-1.2-1.2-2.9v-7.25q0-1.7 1.2-2.9 1.25-1.2 2.95-1.2h65v2.25m6.1 18.7q-.55-.55-1.3-.55l-65.05.05v-2.3h65.05q1.7 0 2.9 1.2 1.2 1.25 1.2 2.95v7.2q0 1.7-1.2 2.95-1.2 1.2-2.9 1.2H629.3v-2.3h65.05q.75 0 1.3-.55.55-.5.55-1.3v-7.2q0-.8-.55-1.35"/><path fill="#CCE8ED" fill-opacity=".29" d="M694.35 306.35H629.3v-2.3h65.05q1.7 0 2.9 1.2 1.2 1.25 1.2 2.95v7.25q0 1.7-1.2 2.9t-2.9 1.2h-3.55q-.6-.3-1.25-.3H629.3v-1.95h65.05q.75 0 1.3-.55t.55-1.3v-7.25q0-.8-.55-1.3-.55-.55-1.3-.55"/><path fill="#F1E8C3" fill-opacity=".29" d="M689.55 324.2h-65q-.8 0-1.3.55-.55.55-.55 1.3v7.25q0 .75.55 1.3.5.55 1.3.55h65v2.25h-65q-1.7 0-2.95-1.2-1.2-1.2-1.2-2.9v-7.25q0-1.7 1.2-2.9 1.25-1.2 2.95-1.2h65v2.25"/><path fill="#E6DDD8" fill-opacity=".29" d="M695.65 342.9q-.55-.55-1.3-.55l-65.05.05v-2.3h65.05q1.7 0 2.9 1.2 1.2 1.25 1.2 2.95v7.2q0 1.7-1.2 2.95-1.2 1.2-2.9 1.2H629.3v-2.3h65.05q.75 0 1.3-.55.55-.5.55-1.3v-7.2q0-.8-.55-1.35"/><path fill="#ECECEC" d="M683.2 328.1q-.05-.65-.05-1.25h-57.8v5.65l58.6-.05q-.1-.5-.2-1.05-.4-1.75-.55-3.3M693.5 314.6V309h-59.8q.15.55.25 1.1.5 2.4.6 4.5h58.95M693.5 350.65v-5.6h-59.4l.35 1q.45 2.3.05 4.2v.4h59"/><path fill="#ECECEC" d="M634.1 345.05h-.1q.55 2.8.5 5.2.4-1.9-.05-4.2l-.35-1"/><path fill="none" stroke="#1A344F" stroke-opacity=".29" stroke-width="2.5" stroke-linecap="round" stroke-linejoin="round" d="M633.95 310.1q-.1-.55-.25-1.1m.85 5.6q-.1-2.1-.6-4.5m.55 40.15q.05-2.4-.5-5.2"/><path fill="none" stroke="#1A344F" stroke-opacity=".29" stroke-width="2.5" stroke-linecap="round" stroke-linejoin="round" d="M634.1 345.05l.35 1q.45 2.3.05 4.2"/><path fill="#E6DDD8" stroke="#ADB4BB" stroke-width="2.5" stroke-linecap="round" stroke-linejoin="round" d="M626.851 52.45Q609.451 35 584.751 35q-24.7 0-42.15 17.45t-17.45 42.15q0 24.7 17.45 42.1 17.45 17.45 42.15 17.45t42.1-17.45q17.45-17.4 17.45-42.1 0-24.7-17.45-42.15"/><path fill="#E6DDD8" stroke="#ADB4BB" stroke-width="2.5" stroke-linecap="round" stroke-linejoin="round" d="M616.901 62.45q-13.3-13.3-32.15-13.3-18.8 0-32.15 13.3-13.3 13.35-13.3 32.15 0 18.8 13.3 32.1t32.15 13.3q18.85 0 32.15-13.3 13.3-13.3 13.3-32.1t-13.3-32.15"/><path fill="none" stroke="#ADB4BB" stroke-width="2.5" stroke-linecap="round" stroke-linejoin="round" d="M584.751 94.6l16.95 16.95m-16.95-16.95V63.3"/><path fill="#E6DDD8" fill-opacity=".478" d="M233.9 65.55H30.6V53.7h209.2v11.85h-5.9"/><path fill="#ECECEC" fill-opacity=".478" d="M233.9 267.05H36.5V65.55h197.4v201.5M221 82.7v21.75h-56.6V82.7H221m-41.55 95.2L154.1 165l-30.05 12L109 154.15l-20.7 20.4L70.85 165 55.1 184.15 70.85 165l17.45 9.55 20.7-20.4L124.05 177l30.05-12 25.35 12.9L221 150.3l-41.55 27.6m-70-80.05h44.65-44.65m0-6.55h44.65-44.65m0-6.6h44.65-44.65m-54.5 39.55H77.3 54.95m54.5 0h22.3-22.3m0-6.6h44.65-44.65m0-6.6h44.65-44.65m0-6.6h44.65-44.65m-54.5 13.2h44.7-44.7m0-6.6h44.7-44.7m0-6.6h44.7-44.7m0-6.6h44.7-44.7m0-6.55h44.7-44.7m0-6.6h44.7-44.7M91 241.1H54.95v-25.95H91v25.95m8.15-3.85h35.8-35.8m0-7.4h71.65-71.65m0-7.35h71.65-71.65m0-7.35h71.65-71.65m-44.2-19.65H221 54.95"/><path fill="#ECECEC" fill-opacity=".478" d="M221 82.7v21.75h-56.6V82.7H221M179.45 177.9L154.1 165l-30.05 12L109 154.15l-20.7 20.4L70.85 165 55.1 184.15 70.85 165l17.45 9.55 20.7-20.4L124.05 177l30.05-12 25.35 12.9L221 150.3l-41.55 27.6M109.45 97.85h44.65-44.65M109.45 91.3h44.65-44.65M109.45 84.7h44.65-44.65M54.95 124.25H77.3 54.95M109.45 124.25h22.3-22.3M109.45 117.65h44.65-44.65M109.45 111.05h44.65-44.65M109.45 104.45h44.65-44.65M54.95 117.65h44.7-44.7M54.95 111.05h44.7-44.7M54.95 104.45h44.7-44.7M54.95 97.85h44.7-44.7M54.95 91.3h44.7-44.7M54.95 84.7h44.7-44.7M91 241.1H54.95v-25.95H91v25.95M99.15 237.25h35.8-35.8M99.15 229.85h71.65-71.65M99.15 222.5h71.65-71.65M99.15 215.15h71.65-71.65M54.95 195.5H221 54.95"/><path fill="none" stroke="#ADB4BB" stroke-opacity=".478" stroke-width="2.5" stroke-linecap="round" stroke-linejoin="round" d="M239.8 65.55V53.7H30.6v11.85h5.9v201.5h197.4V65.55h5.9M36.5 65.55h197.4"/><path fill="none" stroke="#ADB4BB" stroke-opacity=".478" stroke-width="2.5" stroke-linecap="round" stroke-linejoin="round" d="M221 82.7v21.75h-56.6V82.7H221M70.85 165L55.1 184.15m33.2-9.6L70.85 165M109 154.15l-20.7 20.4m35.75 2.45L109 154.15M154.1 165l-30.05 12m55.4.9L154.1 165m25.35 12.9L221 150.3M109.45 97.85h44.65M109.45 91.3h44.65M109.45 84.7h44.65M54.95 124.25H77.3M109.45 124.25h22.3M109.45 117.65h44.65M109.45 111.05h44.65M109.45 104.45h44.65M54.95 117.65h44.7M54.95 111.05h44.7M54.95 104.45h44.7M54.95 97.85h44.7M54.95 91.3h44.7M54.95 84.7h44.7M91 241.1H54.95v-25.95H91v25.95M99.15 237.25h35.8M99.15 229.85h71.65M99.15 222.5h71.65M99.15 215.15h71.65M54.95 195.5H221"/><path fill="#F8D68F" d="M548.4 151.85q-29.05-2.65-50.8 11.75-25.85 17.1-34.35 54.9-8.95 39.9 1.2 60.85 9.7 20.05 35.45 20.05l75-1.75 3.35.85q4.25.75 8.65 0 1.35-.2 2.65-.55 12.4-3.2 21.65-17.4 10.45-15.95 4.45-50.25-2.85-16.2-10.75-40.1-2.4-7.2-7.9-8.5-1.7-.4-3.55-.15l-1.45.3-2-4.25q-2.85-5.15-7-9.55-.5-.55-1.05-1.1-13.05-13.25-33.55-15.1"/><path fill="#F8D68F" d="M535.55 259.8q-3.95.35-7-2.2-3-2.55-3.4-6.5.4 3.95 3.4 6.5 3.05 2.55 7 2.2 4-.35 6.55-3.4t2.15-7q.4 3.95-2.15 7t-6.55 3.4"/><path fill="none" stroke="#19344F" stroke-width="2.5" stroke-linecap="round" stroke-linejoin="round" d="M548.4 151.85q-29.05-2.65-50.8 11.75-25.85 17.1-34.35 54.9-8.95 39.9 1.2 60.85 9.7 20.05 35.45 20.05m75-1.75l3.35.85q4.25.75 8.65 0 1.35-.2 2.65-.55 12.4-3.2 21.65-17.4 10.45-15.95 4.45-50.25-2.85-16.2-10.75-40.1-2.4-7.2-7.9-8.5-1.7-.4-3.55-.15l-1.45.3-2-4.25q-2.85-5.15-7-9.55-.5-.55-1.05-1.1-13.05-13.25-33.55-15.1M535.55 259.8q-3.95.35-7-2.2-3-2.55-3.4-6.5m10.4 8.7q4-.35 6.55-3.4t2.15-7"/><path fill="#6BAEDB" d="M612.651 368.55q0-22.35-16.7-38.4-16.55-15.9-39.2-15.9h-36.85q-22.5 0-38.4 15.9-15.95 15.9-15.95 38.4v24.2h147.1v-24.2"/><path fill="none" stroke="#19344F" stroke-width="2.5" stroke-linecap="round" stroke-linejoin="round" d="M595.951 330.15q16.7 16.05 16.7 38.4v24.2h-147.1v-24.2q0-22.5 15.95-38.4 15.9-15.9 38.4-15.9m76.05 15.9q-16.55-15.9-39.2-15.9"/><path fill="#EAB091" stroke="#19344F" stroke-width="2.5" stroke-linecap="round" stroke-linejoin="round" d="M529.401 341.75l8.65 20.8 20.55-60.85-42.9.45 13.7 39.6"/><path fill="#FFF" stroke="#19344F" stroke-width="2.5" stroke-linecap="round" stroke-linejoin="round" d="M538.051 362.55l9.85-28.65q-10.35 5.6-16.85 3.35-2-.7-3.4-2.1-.7-.7-1-1.25l11.4 28.65"/><path fill="none" stroke="#19344F" stroke-width="2.5" stroke-linecap="round" stroke-linejoin="round" d="M538.051 387.75v-25.2"/><path fill="#EAB091" stroke="#19344F" stroke-width="2.5" stroke-linecap="round" stroke-linejoin="round" d="M501.701 264.65q-.6-6.7-5.75-11.05-5.2-4.3-11.9-3.7-6.7.6-11.05 5.75-4.35 5.2-3.75 11.9.6 6.7 5.8 11.05 5.2 4.35 11.9 3.75 6.7-.6 11.05-5.8 4.3-5.2 3.7-11.9M586.751 249.4q-6.7.6-11.05 5.75-4.3 5.2-3.7 11.9.6 6.75 5.75 11.1 5.2 4.3 11.9 3.7 6.7-.6 11.05-5.75 4.35-5.2 3.75-11.9-.6-6.75-5.8-11.05-5.2-4.35-11.9-3.75"/><path fill="#D39779" d="M556.8 302.25l-39 1.75 6.9 20.75 27-6.4 5.1-16.1"/><path fill="#EAB091" stroke="#19344F" stroke-width="2.5" stroke-linecap="round" stroke-linejoin="round" d="M553.251 185.4q-.05 0-7.7-.7-4.7-.4-8.05-.1l-13.4-.4q-20.7-2.8-34.45 11.9-13.45 14.4-11.55 35.7l5.35 32.2q1.9 20.95 18 34.45 16.15 13.5 37.05 11.6l6.95-.65q20.95-1.85 34.45-18 13.5-16.1 11.6-37.05l-.45-32.65q-1.45-16.4-12-26.1-10.1-9.35-25.8-10.2"/><path fill="#DCA182" d="M578.1 196.3l-10.4-6.3q-8.25 1.95-19.45 10.3-8.55 6.45-25.2 21.8-12.2 11.35-28.65 14.75-8.2 1.7-13.95 1.15l.9 6.8q23.15 9.3 62.25-18.65 19.55-14 34.5-29.85"/><path fill="#EAB091" d="M553.251 282.4h-31.75l2.65 1q3.35 1.1 7 1.65 11.75 1.8 22.1-2.65"/><path fill="none" stroke="#19344F" stroke-width="2.5" stroke-linecap="round" stroke-linejoin="round" d="M531.151 285.05q11.75 1.8 22.1-2.65m-22.1 2.65q-3.65-.55-7-1.65l-2.65-1"/><path fill="#99C977" d="M213.151 320.5h-37.05q-21.7 0-37.05 15.35-15.35 15.4-15.35 37.1v18.5h141.85v-18.5q0-21.7-15.35-37.1-15.35-15.35-37.05-15.35"/><path fill="none" stroke="#1A344F" stroke-width="2.5" stroke-linecap="round" stroke-linejoin="round" d="M265.551 372.95v18.5h-141.85v-18.5q0-21.7 15.35-37.1 15.35-15.35 37.05-15.35m89.45 52.45q0-21.7-15.35-37.1-15.35-15.35-37.05-15.35"/><path fill="#85AF61" d="M236.75 327.4q-11.05 13.8-27.55 18.5-13.95 3.95-29.25.95-11.65-2.25-20.45-8.5-2.95-2.1-10.2-9.1-9.7 5.65-16.75 17.25-3.55 5.8-5.15 10.45 53.65 19.4 86.85-3.15 10.4-7.05 17.5-17.4 3.55-5.2 5-9"/><path fill="#EAB091" stroke="#1A344F" stroke-width="2.5" stroke-linecap="round" stroke-linejoin="round" d="M213.401 308.4l-39.7 2 7 35.15 21.3 2.75 11.4-39.9"/><path fill="#99C977" stroke="#1A344F" stroke-width="2.5" stroke-linecap="round" stroke-linejoin="round" d="M177.501 315.75q-.95-.65-2.1-.4l-8.55 1.95q-1.05.25-1.65 1.15-.55.85-.45 1.85l-9.8 31q.15 1.25 1.2 1.9 1.05.7 2.25.35l22.3-8q.95-.3 1.5-1.15.55-.85.4-1.85l-3.95-25q-.2-1.15-1.15-1.8M231.051 354.55q1.05-.65 1.2-1.9l-9.8-32.35q.15-1-.45-1.85-.6-.9-1.65-1.15l-8.5-1.95q-1.15-.25-2.15.4-.95.65-1.15 1.8l-3.95 25q-.15 1 .4 1.85.55.85 1.5 1.15l22.3 9.3q1.2.4 2.25-.3"/><path fill="#FFF" stroke="#1A344F" stroke-width="2.5" stroke-linecap="round" stroke-linejoin="round" d="M183.801 343.75q-.8-.65-1.2-1.2l11 24.55 11-24.55q-9.95 5.4-17 3.25-2.15-.7-3.8-2.05"/><path fill="none" stroke="#1A344F" stroke-width="2.5" stroke-linecap="round" stroke-linejoin="round" d="M193.601 391.45V367.1"/><path fill="#B69A8B" d="M225.801 170.55q-14.25-6.95-27.4-8.55-30.7-6.05-47.55 9.85-5.3 5-8.55 11.55l-2.2 5.6h-15.35l10.75 8.85q-11.85 17.3-6.5 36.95 1.65 6.2 4.85 11.85l2.85 4.4 108.5-3.85q5.3-10.7 6.55-16.45 2.7-12.05-2.75-23.1l10.75 3.75q-5.45-26.95-33.95-40.85"/><path fill="none" stroke="#1A344F" stroke-width="2.5" stroke-linecap="round" stroke-linejoin="round" d="M198.401 162q13.15 1.6 27.4 8.55 28.5 13.9 33.95 40.85l-10.75-3.75q5.45 11.05 2.75 23.1-1.25 5.75-6.55 16.45m-46.8-85.2q-30.7-6.05-47.55 9.85-5.3 5-8.55 11.55l-2.2 5.6h-15.35l10.75 8.85q-11.85 17.3-6.5 36.95 1.65 6.2 4.85 11.85l2.85 4.4"/><path fill="#EAB091" stroke="#1A344F" stroke-width="2.5" stroke-linecap="round" stroke-linejoin="round" d="M154.951 284.2q4.2-5 3.6-11.5-.55-6.5-5.55-10.65t-11.5-3.6q-6.5.6-10.65 5.6-4.15 4.95-3.6 11.45.6 6.5 5.6 10.65 4.95 4.2 11.45 3.6 6.5-.55 10.65-5.55M252.051 261.6q-5-4.2-11.5-3.6-6.45.55-10.65 5.55-4.15 5-3.6 11.5.6 6.5 5.6 10.65 4.95 4.15 11.45 3.6 6.5-.55 10.65-5.55 4.2-5 3.6-11.5-.55-6.5-5.55-10.65"/><path fill="#EAB091" stroke="#1A344F" stroke-width="2.5" stroke-linecap="round" stroke-linejoin="round" d="M228.001 205.25q-12.65-6-35.15-4l-12.7-6.15q-19.95-2.7-33.25 11.5-13 13.85-11.15 34.4l5.2 31.1q1.8 20.2 17.35 33.2 15.55 13 35.7 11.2l6.75-.6q20.2-1.8 33.2-17.35 13-15.55 11.2-35.75l-.4-31.5q-1.7-18.85-16.75-26.05"/><path fill="#937A6E" d="M223.7 202.1l5.25 2.4q4.25-1.25 9.05-3.4 9.65-4.25 12.6-8.5l-2.4-3.05q-3.75 2.75-8.7 5.7-9.85 5.9-15.8 6.85"/><path fill="#DEC6BB" stroke="#1A344F" stroke-width="2.5" stroke-linecap="round" stroke-linejoin="round" d="M216.101 155.9q-7.1.05-14.05 2l-5.5 1.95 5.1-8.05q-24.45 6.65-28.65 25.4-1.3 5.9-.4 12.25l1.15 5.2q31.3 15.2 58.5 3.35 13.65-5.9 21-14.85l-5.75-2.15 7.05-6.3q-15.8-18.95-38.45-18.8"/><path fill="none" stroke="#1A344F" stroke-width="2.5" stroke-linecap="round" stroke-linejoin="round" d="M184.501 265.9q-2.95-2.5-3.3-6.3m3.3 6.3q2.9 2.45 6.75 2.1 3.8-.35 6.3-3.3 2.45-2.9 2.1-6.75"/><path fill="#19344F" d="M188.351 368.85q0-1.15-.8-2-.85-.85-2.05-.85-1.2 0-2 .85-.85.85-.85 2 0 1.2.85 2.05.8.85 2 .85t2.05-.85q.8-.85.8-2.05"/><path fill="#DCA183" d="M134.95 262.1q-2.8 1.8-3.2 2.9-1.1 3.1 1.6 12.8 1.4 4.85 2.95 9.05l.6-15.15 1.6-10.1-.8-1.1q-1.35.7-2.75 1.6"/><path fill="#C8A896" d="M245.001 263.125q.128-.287.25-.575.05-.15-.1-.1-.15 0-.15.2.003.228 0 .475M241.001 272.5q-3.05 7.1-3.6 10.05-30.3-8.3-62.75-5-10.15 1.05-19.3 3.15l-7.1 1.85q-.55-2.85-4.1-10.05-4.25-8.7-4.75-9.95-.05-.15-.4-.1-.35 0-.35.2l-.75 17.3q-.45 10.35.15 17.3.65 7.7 3.4 15.2 2.8 7.6 7.35 13.7 8.15 10.95 20.95 16.4 12.1 5.2 25.7 4.45 13.8-.8 25.35-7.45 12.3-7.05 19.05-19.15 3.55-6.25 5.6-13.2 2.15-7.25 2.45-14.3.2-5.45-1.25-15.1-1.521-10.028-1.65-14.675-2.427 5.753-4 9.375"/><path fill="none" stroke="#1A344F" stroke-width="2.5" stroke-linecap="round" stroke-linejoin="round" d="M245.251 262.55q.05-.15-.1-.1-.15 0-.15.2.003.228 0 .475-2.427 5.753-4 9.375-3.05 7.1-3.6 10.05-30.3-8.3-62.75-5-10.15 1.05-19.3 3.15l-7.1 1.85q-.55-2.85-4.1-10.05-4.25-8.7-4.75-9.95-.05-.15-.4-.1-.35 0-.35.2l-.75 17.3q-.45 10.35.15 17.3.65 7.7 3.4 15.2 2.8 7.6 7.35 13.7 8.15 10.95 20.95 16.4 12.1 5.2 25.7 4.45 13.8-.8 25.35-7.45 12.3-7.05 19.05-19.15 3.55-6.25 5.6-13.2 2.15-7.25 2.45-14.3.2-5.45-1.25-15.1-1.521-10.028-1.65-14.675.128-.287.25-.575"/><path fill="#AD9183" d="M139.75 266.8q-.6 6.55-1 13.9-.75 14.8.3 19.15.5 2 1 5.1.75 3.55 3.15 10.05 12.95 28.15 41.85 31.2 14.4 1.5 26.25-2.6-27.55-5.85-42.1-35.5-7.25-14.8-9.05-28.45l-8.55 1.9q-2.1.55-3.25.35-1.5-.25-2.2-1.8l-6.4-13.3"/><path fill="none" stroke="#1A344F" stroke-width="2.5" stroke-linecap="round" stroke-linejoin="round" d="M180.201 290.75q3.2 1.1 6.75 1.65 11.35 1.7 21.3-2.6m-28.05.95l-2.55-.95"/><path fill="none" stroke="#1A344F" stroke-width="2.5" stroke-linecap="round" stroke-linejoin="round" d="M245.251 262.55q.05-.15-.1-.1-.15 0-.15.2.003.228 0 .475-2.427 5.753-4 9.375-3.05 7.1-3.6 10.05-30.3-8.3-62.75-5-10.15 1.05-19.3 3.15l-7.1 1.85q-.55-2.85-4.1-10.05-4.25-8.7-4.75-9.95-.05-.15-.4-.1-.35 0-.35.2l-.75 17.3q-.45 10.35.15 17.3.65 7.7 3.4 15.2 2.8 7.6 7.35 13.7 8.15 10.95 20.95 16.4 12.1 5.2 25.7 4.45 13.8-.8 25.35-7.45 12.3-7.05 19.05-19.15 3.55-6.25 5.6-13.2 2.15-7.25 2.45-14.3.2-5.45-1.25-15.1-1.521-10.028-1.65-14.675.128-.287.25-.575"/><path fill="#43566B" d="M276.101 319.5q-19.55 19.5-19.55 47.15v23.55h187.25v-23.55q0-13.45-6.3-25.95-5.95-11.85-16.6-21.2-10.45-9.2-23.55-14.3-13.35-5.25-27-5.25h-47.15q-27.6 0-47.1 19.55"/><path fill="none" stroke="#1A344F" stroke-width="2.5" stroke-linecap="round" stroke-linejoin="round" d="M256.551 366.65q0-27.65 19.55-47.15 19.5-19.55 47.1-19.55m-66.65 66.7v23.55h187.25v-23.55q0-13.45-6.3-25.95-5.95-11.85-16.6-21.2-10.45-9.2-23.55-14.3-13.35-5.25-27-5.25"/><path fill="#FFF" stroke="#1A344F" stroke-width="2.5" stroke-linecap="round" stroke-linejoin="round" d="M349.351 318.65q-2.25-2.5-3.6-2.65-4.3-.45-11.95 5.7l-6.85 6.25 19.85 92.9 17.3-92.9q-4.65 2.5-10.5-4.2-1.55-1.75-4.25-5.1"/><path fill="#EAB091" stroke="#1A344F" stroke-width="2.5" stroke-linecap="round" stroke-linejoin="round" d="M370.701 284.55l-50.55 2.55 8.95 34.05 31.3-.55 10.3-36.05"/><path fill="#EAB091" stroke="#19344F" stroke-width="2.5" stroke-linecap="round" stroke-linejoin="round" d="M294.951 213.6q-6.25-5.25-14.4-4.55-8.15.75-13.35 7-5.25 6.25-4.5 14.4.7 8.15 7 13.35 6.25 5.25 14.35 4.5 8.15-.7 13.4-6.95 5.2-6.25 4.5-14.4-.75-8.15-7-13.35M391.401 214q-5.25 6.25-4.55 14.35.75 8.15 7 13.4 6.25 5.2 14.4 4.5 8.1-.75 13.35-7 5.2-6.25 4.5-14.4-.7-8.1-7-13.35-6.25-5.2-14.35-4.5-8.15.7-13.35 7"/><path fill="#EAB091" stroke="#19344F" stroke-width="2.5" stroke-linecap="round" stroke-linejoin="round" d="M392.051 145.5q-9.15-9-20.55-13.6-12.1-4.85-24.4-3.75l-39.9 4.85q-40.35-5.45-33.85 67.7l6.5 38.95q2.25 25.3 21.75 41.6t44.8 14.05l8.4-.75q25.3-2.25 41.6-21.75t14.05-44.8l-.5-39.5q.85-11.45-4.1-23.05-4.75-11.1-13.8-19.95"/><path fill="none" stroke="#19344F" stroke-width="2.5" stroke-linecap="round" stroke-linejoin="round" d="M336.251 239.5q-3.5-3.25-3.7-8.05m3.7 8.05q3.55 3.3 8.35 3.1 4.8-.15 8.05-3.65 3.3-3.55 3.1-8.35"/><path fill="#D8DAD7" d="M416.301 169.05q0-18.1-12.5-32.4-12.85-14.7-30.1-14.7h-63.3q-17.3 0-30.15 14.7-12.45 14.3-12.45 32.4l9.75 55 5.75-63.45q1.9-7.45 8-12.15 6.05-4.7 13.75-4.7 0 4.9 3.45 8.4 3.5 3.5 8.4 3.5h50.3q4.9 0 8.4-3.5 3.45-3.5 3.45-8.4 7.65 0 13.75 4.7 6.05 4.7 8 12.15l8.7 63.45 6.8-55"/><path fill="none" stroke="#19344F" stroke-width="2.5" stroke-linecap="round" stroke-linejoin="round" d="M416.301 169.05q0-18.1-12.5-32.4-12.85-14.7-30.1-14.7h-63.3q-17.3 0-30.15 14.7-12.45 14.3-12.45 32.4l9.75 55 5.75-63.45q1.9-7.45 8-12.15 6.05-4.7 13.75-4.7 0 4.9 3.45 8.4 3.5 3.5 8.4 3.5h50.3q4.9 0 8.4-3.5 3.45-3.5 3.45-8.4 7.65 0 13.75 4.7 6.05 4.7 8 12.15l8.7 63.45 6.8-55"/><path fill="#19344F" d="M359.951 192.7q-1.6.4-5.45 2.35-3.35 1.65-5.15 1.8-.65.05-2.7-.5-2.15-.6-3.4-.6-.95 0-3 .45-1.9.4-2.65.3-1.1-.15-2.85-1.35-2.15-1.4-2.85-1.7-9-3.7-20.5-4.05-9.5-.3-24.85 1.7 0 .35-.75 4.9-.5 3.15-.1 4.65.35 1.3 2.2 2.6 2.05 1.35 2.35 1.95.75 1.5 1.15 4.3.4 3.15.75 4.05 1.5 4.05 3.4 6.8 5.9 8.55 19.4 7.6 13.25-.9 18.85-9.5 1.85-2.8 2.9-6.95.4-1.65 1.65-8.95 2.45-1.1 5.3-1.05 3.35 0 4.55 1.8-1 12.15 7.9 19.25 8.35 6.7 20.5 5.35 7.9-.85 12.6-7.1 3.45-4.65 5.95-13.7 2.9-1.35 3.75-5.6.55-2.85.25-9.05-13.3-1.6-20.4-1.7-10.3-.2-18.8 1.95m9.45 2.25q6.65-.5 12.65.6 6.55 1.2 8.15 3.75 2.8 4.45 1 12-1.65 6.9-5.15 10.2-5.55 5.25-15.25 4.1-9.35-1.05-14.3-6.75-2.9-3.45-3.35-9.55-.4-6.45 2.6-9.8 2-2.15 5.45-3.25 2.95-.9 8.2-1.3m-35.75 16.75q-1 3.6-2.85 6.35-3.65 5.3-13.3 6.9-10 1.7-16.25-2.7-3.8-2.65-5.4-10.35-1.55-7.5.25-12.6.8-2.3 5.45-3.95 4.25-1.55 8.4-1.55 21.05 0 23.85 8.75 1.3 4.05-.15 9.15"/><path fill="none" stroke="#19344F" stroke-width="2.5" stroke-linecap="round" stroke-linejoin="round" d="M338.551 261.6h15.7M327.551 183.15h28.2M312.551 175.25h58.2"/><path fill="#405062" d="M372.7 322.55q0-9.9-.35-14.25.25-3.05-7-1-6.55 1.85-10.75 4.85-1.95 1.4-4.15 3.35-1.95 1.75-2.95 2.4l-.4-.6-.1-.1q-1.1-1.25-2.7-1.25-1.85 0-2.95 1.5h-.15q-2.9-3.2-5.85-5.3l-.85-.6.05-.05-.85-.5-.05.05q-5.4-3.25-10.15-4.55-5.95-1.6-5.9 1.8v1.55q0 4.05-.2 11.2 0 12.1.05 14.7.05 2.85 7.05.95 6.1-1.65 10.8-4.5 3.1-1.95 4.5-3.75.7-.9.95-.95.4 1.15 1.35 1.9.95.75 2.2.75 1.3 0 2.3-.85 1-.8 1.3-2.05.3 0 .9.45l1.4.95q2.85 2.55 4.45 3.55 2.95 1.8 10.05 6.5 5.95 2.9 7.65-1.95.15-.45.15-1 .2-9.6.2-13.2"/><path fill="#E66C6C" stroke="#1A344F" stroke-width="2.5" stroke-linecap="round" stroke-linejoin="round" d="M367.151 303.3q-6.55 1.85-10.8 4.85-2 1.4-4.15 3.35-1.95 1.8-2.9 2.4l-.4-.6-.1-.1q-1.15-1.25-2.75-1.25-1.85 0-2.95 1.5h-.15q-.75-.65-2.4-2.35-1.65-1.7-3.45-2.95l-.85-.6.05-.05-.85-.5v.05q-5.45-3.25-10.2-4.55-5.95-1.6-5.9 1.8v1.55q-.2 6.8-.2 11.2 0 12.1.05 14.7.05 2.85 7.1.95 6.1-1.65 10.75-4.5 3.1-1.95 4.5-3.75.7-.9 1-.95.35 1.15 1.3 1.9 1 .75 2.2.75 1.3 0 2.35-.85 1-.8 1.25-2.05.4 0 .9.45 1.3.9 1.4.95 2.85 2.55 4.45 3.55 6.7 4.85 10.05 6.5 5.95 2.9 7.65-1.95l.2-1q.05-4.8.15-13.2 0-9.9-.35-14.25.25-3.05-6.95-1"/><path fill="#937A6E" d="M158.95 167.75q-6.5 7.25 13 25.75-1-7-.8-12.25l.35-3.85q1.6-5.85 3.35-8.65 2.65-4.3 5.4-7.1-4.2.25-8.95 1.1-9.5 1.8-12.35 5"/><path fill="#43566B" d="M304.4 304.2h-1.65q-3.75 2.1-9.65 6.25-11.7 8.35-22.1 18.7-10.4 10.3-12.3 36.35-.95 13.05.2 24h33.2q-8.3-37.6 1.15-65.2 4.75-13.8 11.15-20.1"/><path fill="#C58F76" d="M365.701 297.65l1.1-3.95q-6.2 1.65-14.7 2.5-17.05 1.8-28.75-2l1.7 6.9 40.65-3.45"/><path fill="#405062" d="M454.95 327.25l-24.75-.2-14.05 87.55 38.8-87.35"/><path fill="none" stroke="#19344F" stroke-width="2.5" stroke-linecap="round" stroke-linejoin="round" d="M542.9 256.9q-2.55 3.05-6.55 3.4-3.95.35-7-2.2-3-2.55-3.4-6.5m16.95 5.3q2.55-3.05 2.15-7"/><use xlink:href="#a" transform="translate(343.2 213.75)"><animateTransform attributeName="transform" additive="replace" type="translate" repeatCount="indefinite" dur="3.95s" keyTimes="0;0.025;0.038;0.076;0.089;1" values="343.2,213.75;343.2,213.75;343.201,213.75;343.201,213.75;343.201,213.751;343.201,213.751"/><animateTransform attributeName="transform" additive="sum" type="scale" repeatCount="indefinite" dur="3.95s" keyTimes="0;0.013;0.025;0.038;0.051;0.063;0.076;0.089;1" values="1,1;1,0.687;1,0.374;1,0.062;1,0.062;1,0.374;1,0.687;1,1;1,1"/><animateTransform attributeName="transform" additive="sum" type="translate" repeatCount="indefinite" dur="3.95s" keyTimes="0;0.025;0.038;0.076;0.089;1" values="0,0;0,0;0.049,0;0.049,0;0.049,0.049;0.049,0.049"/></use><use xlink:href="#a" transform="matrix(.899 0 0 .862 534 241.45)"><animateTransform attributeName="transform" additive="replace" type="translate" repeatCount="indefinite" dur="3.95s" keyTimes="0;0.633;0.646;0.658;0.709;0.722;1" values="533.911,241.408;533.911,241.408;533.911,241.341;533.911,241.4;533.911,241.4;533.911,241.408;533.911,241.408"/><animateTransform attributeName="transform" additive="sum" type="scale" repeatCount="indefinite" dur="3.95s" keyTimes="0;0.633;0.646;0.658;0.671;0.684;0.696;0.709;0.722;1" values="0.899,0.862;0.899,0.862;0.899,0.598;0.899,0.333;0.899,0.068;0.899,0.068;0.899,0.333;0.899,0.598;0.899,0.862;0.899,0.862"/><animateTransform attributeName="transform" additive="sum" type="translate" repeatCount="indefinite" dur="3.95s" keyTimes="0;0.633;0.646;0.658;0.709;0.722;1" values="0.099,0.049;0.099,0.049;0.099,0.099;0.099,0;0.099,0;0.099,0.049;0.099,0.049"/></use><use xlink:href="#a" transform="matrix(.899 0 0 .862 189.85 249.1)"><animateTransform attributeName="transform" additive="replace" type="translate" repeatCount="indefinite" dur="3.95s" keyTimes="0;0.468;0.481;0.494;0.544;0.557;1" values="189.761,249.058;189.761,249.058;189.761,249.041;189.761,249.05;189.761,249.05;189.761,249.058;189.761,249.058"/><animateTransform attributeName="transform" additive="sum" type="scale" repeatCount="indefinite" dur="3.95s" keyTimes="0;0.468;0.481;0.494;0.506;0.519;0.532;0.544;0.557;1" values="0.899,0.862;0.899,0.862;0.899,0.598;0.899,0.333;0.899,0.068;0.899,0.068;0.899,0.333;0.899,0.598;0.899,0.862;0.899,0.862"/><animateTransform attributeName="transform" additive="sum" type="translate" repeatCount="indefinite" dur="3.95s" keyTimes="0;0.468;0.481;0.494;0.544;0.557;1" values="0.099,0.049;0.099,0.049;0.099,0.099;0.099,0;0.099,0;0.099,0.049;0.099,0.049"/></use><path fill="#F8D68F" d="M508.151 169.85l-15.3-.3-24.75 59.3q1.35 1.5 3.95 3.3 5.15 3.5 11.3 4.7 19.7 3.85 41.9-17 22.2-20.8 37.7-30.45 7.75-4.85 11.05-5.5l26.2 7.75-5.45-2.35q-24.65-11-36.15-14.65-4.2-1.35-5.35-1.15-6.4-1.2-13.1-2.25-13.45-2.2-14.9-1.7-1.45.5-17.1.3"/><path fill="none" stroke="#19344F" stroke-width="2.5" stroke-linecap="round" stroke-linejoin="round" d="M549.051 199q-7.9 5.95-22.35 19.5-12.5 11.7-16.35 13.9-8.35 4.75-17.85 5.3-9.05.55-18.6-2.75m75.15-35.95q29.65-22.4 41.6-1.9"/><g transform="translate(449.8 309.45)"><animateTransform attributeName="transform" additive="replace" type="translate" repeatCount="indefinite" dur="3.95s" keyTimes="0;0.165;0.177;0.19;0.203;0.215;0.228;0.241;0.253;0.266;0.278;0.291;0.304;0.316;0.329;0.342;1" values="449.8,309.45;449.8,309.45;449.8,310.15;449.8,310.85;449.8,311.55;449.8,306.85;449.8,302.1;449.8,297.4;449.8,292.65;449.8,295.05;449.8,297.45;449.8,299.85;449.8,302.25;449.8,304.65;449.8,307.05;449.8,309.45;449.8,309.45"/><path fill="#E9AF90" d="M19-65.1q.05-2.9-1.8-4.95-1.8-2.05-4.35-2.05-2.6-.05-4.4 2-1.56 1.729-1.8 4.075-.05.427-.05.875l.15 12.5v.65h5.825L-26.2-40.6l-.05 19.8q0 4.6 3.2 7.8 3.25 3.25 7.8 3.3l-.1 38.85 32.95.35.15-37.65q5.95.05 10.2-4.2 4.25-4.2 4.3-10.2l.1-37.85q0-2.75-1.95-4.75-1.9-1.95-4.7-2-2.75 0-4.75 1.95-1.642 1.684-1.9 3.9-.05.413-.05.85l-.05 11.9.05-11.9q0-.437.05-.85L19-65.1"/><path fill="#E9AF90" d="M6.6-65.15q0-.448.05-.875-.09-2.727-1.8-4.675-1.8-2.05-4.4-2.05-2.55-.05-4.35 2-1.434 1.589-1.75 3.7l-.075 4.525.125 9.875H6.75l-.15-12.5"/><path fill="#E9AF90" d="M-5.1-101.55q.1-3.2-2.05-5.55-2.15-2.35-5.35-2.45-3.2-.1-5.5 2.05-2.35 2.15-2.5 5.35l-.2 52.6 14.8-1.65.175-11.325.075-4.525.55-34.5"/><path fill="none" stroke="#17344F" stroke-width="2.5" stroke-linecap="round" stroke-linejoin="round" d="M12.85-72.1q2.55 0 4.35 2.05m-8.75-.05q1.8-2.05 4.4-2m-6.2 6.075q.24-2.346 1.8-4.075m-3.6-.6q1.71 1.948 1.8 4.675M.45-72.75q2.6 0 4.4 2.05m-8.75-.05q1.8-2.05 4.35-2m-6.1 5.7q.316-2.111 1.75-3.7m-1.2-30.8l-.55 34.5m-1.5-40.05q2.15 2.35 2.05 5.55m-7.4-8q3.2.1 5.35 2.45m-10.85-.4q2.3-2.15 5.5-2.05m-8 7.4q.15-3.2 2.5-5.35m-2.7 57.95l.2-52.6m14.775 39.625L-5.9-51.2m.3-1.45l-.125-9.875M6.75-52v-.65m-33 31.85l.05-19.8m3.15 27.6q-3.2-3.2-3.2-7.8m11 11.1q-4.55-.05-7.8-3.3m7.7 42.15l.1-38.85M17.6 29.5l-32.95-.35m33.1-37.3L17.6 29.5m10.35-41.85q-4.25 4.25-10.2 4.2m14.5-14.4q-.05 6-4.3 10.2m4.4-48.05l-.1 37.85m-1.85-42.6q1.95 2 1.95 4.75m-6.65-6.75q2.8.05 4.7 2m-9.45-.05q2-1.95 4.75-1.95m-6.65 5.85q.258-2.216 1.9-3.9m-1.95.1l.05 3.8m-1.85-8.75Q19.05-68 19-65.1"/><path fill="none" stroke="#17344F" stroke-width="2.5" stroke-linecap="round" stroke-linejoin="round" d="M6.65-66.025q-.05.427-.05.875l.15 12.5m12.3-8.65q-.05.413-.05.85l-.05 11.9M-5.65-67.05l-.075 4.525"/><path fill="#43566B" stroke="#17344F" stroke-width="2.5" stroke-linecap="round" stroke-linejoin="round" d="M20.45 16.7q-1-1.05-2.45-1.1l-33.7-.7q-1.45-.05-2.5 1-1.05 1-1.1 2.45l-.9 85.35q0 1.4.95 2.45.95 1.05 2.35 1.1l34.45 2.3q1.5.1 2.65-.9 1.1-1.05 1.1-2.6l.15-86.9q0-1.4-1-2.45"/><path fill="#E9AF90" d="M28.15-42.95q0-3.45-2.4-5.9-2.45-2.45-5.85-2.45l-35.2-.1q-4.5 0-7.7 3.15-3.15 3.15-3.2 7.65l-.05 17.85 18.5 3.25q8.1-1.55 11.65-8.55 1.75-3.5 1.9-6.7l14.05.05q3.4 0 5.85-2.4 2.45-2.45 2.45-5.85"/><path fill="none" stroke="#17344F" stroke-width="2.5" stroke-linecap="round" stroke-linejoin="round" d="M28.15-42.95q0-3.45-2.4-5.9-2.45-2.45-5.85-2.45l-35.2-.1q-4.5 0-7.7 3.15-3.15 3.15-3.2 7.65l-.05 17.85m18.5 3.25q8.1-1.55 11.65-8.55 1.75-3.5 1.9-6.7l14.05.05q3.4 0 5.85-2.4 2.45-2.45 2.45-5.85"/><path fill="#BF8264" fill-opacity=".612" d="M-5.25-49.9q-5.05-.3-8.45-.3-2.35 0-3.6.3-.9.2-3.15 1.2-3.6 2.1-4.4 5.9-.4 1.9-.1 3.35-.05-.35-.3 12.8-.15 9.2 2 11.6l1 1.25q-.3-15.8 8.3-27.5 4.35-5.9 8.7-8.6"/></g></g></svg>