<svg xmlns="http://www.w3.org/2000/svg" image-rendering="optimizeQuality" baseProfile="basic" width="695" height="253" viewBox="0 0 695 253" preserveAspectRatio="xMinYMin meet"><g overflow="visible"><path fill="#77B176" d="M695.035 9.921q0-4.054-2.918-6.971Q689.25.032 685.146.032H9.92q-4.054 0-6.972 2.918Q.031 5.867.031 9.921v233.223q0 4.104 2.917 6.971 2.918 2.917 6.972 2.917h675.226q4.104 0 6.971-2.917 2.918-2.867 2.918-6.971V9.921"/><path fill="#347754" d="M508.465 62.712q-3.362-3.412-8.158-3.412H325.221q-4.747 0-8.109 3.412-3.412 3.362-3.412 8.158v133.941h198.127V70.87q0-4.796-3.362-8.158"/><path fill="#E56A5B" stroke="#19344F" stroke-width="2.5" stroke-linecap="round" stroke-linejoin="round" d="M328.738 61.638q-4.797 0-8.159 3.412-3.362 3.362-3.362 8.158v133.941h198.078V73.208q0-4.796-3.362-8.158-3.363-3.412-8.159-3.412H328.738"/><path fill="none" stroke="#19344F" stroke-width="2.5" stroke-linecap="round" stroke-linejoin="round" d="M284.682 209.77h198.127"/><path fill="none" stroke="#FFF" stroke-width="2.5" stroke-linecap="round" stroke-linejoin="round" d="M333.633 99.759h157.73M333.633 135.655h157.73M333.633 173.874h157.73"/><path fill="#FFF" d="M346.736 75.581h5.29v-2.818h-8.356v19.53h8.356v-2.818h-5.29v-5.686h4.203v-2.818h-4.203v-5.39M356.823 72.763h-3.066v14.882q0 2.374 1.187 3.61 1.186 1.285 3.411 1.285 4.549 0 4.549-4.895V72.763h-2.917v15.08q0 1.879-1.582 1.879t-1.582-1.879v-15.08M369.629 72.763h-4.648v19.53h3.066v-7.96h1.087q1.039 0 1.533.593.445.544.445 1.879v3.065q0 1.434.297 2.423h3.115q-.346-.84-.346-2.373v-3.016q0-3.313-2.027-4.153 2.027-.94 2.027-3.956v-1.533q0-4.499-4.549-4.499m-.099 2.818q1.582 0 1.582 1.978v1.928q0 2.077-1.829 2.077h-1.236v-5.983h1.483M385.55 72.763h-2.62l-7.714 19.53h2.67l7.664-19.53M389.753 72.763h-3.065v14.882q0 4.895 4.549 4.895 2.225 0 3.411-1.285 1.187-1.236 1.187-3.61V72.763h-2.917v15.08q0 1.879-1.583 1.879-1.582 0-1.582-1.879v-15.08M406.515 78.054v-.594q0-4.895-4.499-4.895-4.5 0-4.5 4.895 0 3.016 3.016 5.785 2.967 2.769 2.967 4.549 0 1.879-1.582 1.879-1.583 0-1.583-1.879v-1.385h-2.917v1.187q0 2.373 1.187 3.609 1.187 1.286 3.412 1.286 2.225 0 3.411-1.286 1.138-1.236 1.138-3.609 0-2.967-2.967-5.735-3.016-2.769-3.016-4.599 0-1.928 1.533-1.928 1.532 0 1.532 1.928v.792h2.868M413.19 72.763h-4.845v19.53h4.845q4.549 0 4.549-4.845v-9.839q0-4.846-4.549-4.846m-.099 2.818q1.583 0 1.583 1.879v10.136q0 1.879-1.583 1.879h-1.681V75.581h1.681M445.824 74.197q.791 0 1.187.445.395.494.395 1.78 0 2.818-3.016 6.131t-3.016 6.18v2.373h8.851v-2.768h-5.785l-.05-.445q0-1.187 3.066-4.697 3.016-3.461 3.016-6.922 0-4.895-4.549-4.895t-4.549 4.895v1.928h2.868v-2.077q0-1.928 1.582-1.928M453.241 72.664q-1.236 1.286-1.236 3.61v.642q0 2.917 1.879 3.906-1.879 1.138-1.879 4.104v1.533q0 2.373 1.236 3.609 1.236 1.286 3.56 1.286 2.275 0 3.56-1.286 1.236-1.285 1.236-3.609v-1.533q0-2.966-1.928-4.104 1.928-1.038 1.928-3.906v-.642q0-2.324-1.236-3.61-1.285-1.285-3.56-1.285-2.324 0-3.56 1.285m5.291 3.758v1.088q0 2.027-1.731 2.027t-1.731-2.027v-1.088q0-2.225 1.731-2.225t1.731 2.225m0 8.109v1.829q-.05 2.175-1.731 2.175-1.731 0-1.731-2.175v-1.829q0-2.176 1.731-2.176t1.731 2.176M469.162 74.593q0-3.115-2.966-3.115-2.918 0-2.918 3.115v6.427q0 3.115 2.918 3.115 2.966 0 2.966-3.115v-6.427m-2.966-1.335q1.038 0 1.038 1.186v6.724q0 1.187-1.038 1.187-.989 0-.989-1.187v-6.724q0-1.186.989-1.186"/><path fill="#FFF" d="M475.689 71.626h-1.78l-7.713 19.48h1.829l7.664-19.48"/><path fill="#FFF" d="M475.887 91.255q2.917 0 2.917-3.115v-6.428q0-3.115-2.917-3.115-2.967 0-2.967 3.115v6.428q0 3.115 2.967 3.115m0-1.731q-1.038 0-1.038-1.236v-6.675q0-1.236 1.038-1.236.989 0 .989 1.236v6.675q0 1.236-.989 1.236M346.587 109.153h-3.065v14.833q0 2.373 1.137 3.659 1.187 1.285 3.412 1.285 2.225 0 3.411-1.285 1.187-1.286 1.187-3.659v-14.833h-2.917v15.031q0 1.928-1.582 1.928-1.583 0-1.583-1.928v-15.031M354.251 122.799v1.187q0 2.373 1.187 3.609 1.187 1.286 3.412 1.286 4.549 0 4.549-4.895 0-2.966-2.967-5.735-3.016-2.769-3.016-4.598 0-1.929 1.533-1.929t1.533 1.929v.791h2.917v-.594q0-4.895-4.549-4.895-4.5 0-4.5 4.895 0 2.967 3.016 5.736 2.967 2.768 2.967 4.598 0 1.879-1.582 1.879t-1.582-1.879v-1.385h-2.918M374.573 123.838v-9.839q0-4.846-4.549-4.846h-4.845v19.481h4.845q4.549 0 4.549-4.796m-4.598-11.916q1.533 0 1.533 1.928v10.136q0 1.879-1.533 1.879h-1.731v-13.943h1.731M385.896 109.153h-2.67l-7.664 19.481h2.621l7.713-19.481M392.176 123.788v-14.635h-3.066v14.883q0 1.878-1.73 1.878l-1.088-.049v2.769l1.483.099q4.401 0 4.401-4.945M397.368 121.316h1.434q4.549 0 4.549-4.796v-2.521q0-4.846-4.549-4.846h-4.5v19.481h3.066v-7.318m1.434-9.394q1.483 0 1.483 1.879v2.917q0 1.829-1.483 1.829h-1.434v-6.625h1.434M410.669 122.206l3.856-13.053h-2.917l-2.324 8.9-2.373-8.9h-3.165l3.857 13.053v6.428h3.066v-6.428M443.253 110.439v2.175h2.373v14.883h3.066v-19.481h-2.077q-.395 1.187-.939 1.681-.841.742-2.423.742M461.399 110.686v-2.67h-9.196v2.769h6.081l-4.45 16.712h3.017l4.548-16.811M469.162 110.983q0-3.115-2.966-3.115-2.918 0-2.918 3.115v6.378q0 3.164 2.918 3.164 2.966 0 2.966-3.164v-6.378m-1.928-.149v6.675q0 1.236-1.038 1.236-.989 0-.989-1.236v-6.675q0-1.236.989-1.236 1.038 0 1.038 1.236M472.92 118.102v6.428q0 3.115 2.967 3.115 2.917 0 2.917-3.115v-6.428q0-3.115-2.917-3.115-2.967 0-2.967 3.115m1.929-.148q0-1.187 1.038-1.187.989 0 .989 1.187v6.724q0 1.187-.989 1.187-1.038 0-1.038-1.187v-6.724"/><path fill="#FFF" d="M475.689 108.016h-1.78l-7.713 19.481h1.829l7.664-19.481M346.488 150.043q0-1.929 1.583-1.929 1.582 0 1.582 1.929v2.076h2.868v-1.879q0-4.944-4.549-4.944t-4.549 4.944v10.136q0 4.895 4.549 4.895t4.549-4.895v-6.18h-4.252v2.769h1.384v3.609q0 1.879-1.582 1.879-1.583 0-1.583-1.879v-10.531M363.597 150.339q0-4.796-4.549-4.796h-4.5v19.481h3.016v-7.318h1.484q4.549 0 4.549-4.796v-2.571m-3.066-.198v2.967q0 1.829-1.483 1.829h-1.484v-6.625h1.484q1.483 0 1.483 1.829M374.178 150.043q0-2.275-1.088-3.363-1.088-1.137-3.461-1.137h-4.598v19.481h4.796q4.648 0 4.648-4.598v-1.583q0-3.312-2.275-4.202 1.978-.94 1.978-3.906v-.692m-4.599-1.731q1.533 0 1.533 2.027v1.088q0 2.027-1.829 2.027h-1.187v-5.142h1.483m-.148 7.96q1.088 0 1.533.495.445.544.445 1.879v1.681q0 1.928-1.582 1.928h-1.731v-5.983h1.335M378.035 165.024l7.664-19.481h-2.67l-7.664 19.481h2.67M389.902 145.543h-3.066v14.833q0 4.895 4.549 4.895t4.549-4.895v-14.833h-2.868v15.031q0 1.879-1.582 1.879t-1.582-1.879v-15.031M402.164 145.296q-4.5 0-4.5 4.944 0 2.967 3.017 5.736 2.966 2.769 2.966 4.598 0 1.879-1.582 1.879t-1.582-1.879v-1.434h-2.917v1.236q0 2.373 1.186 3.61 1.137 1.285 3.363 1.285 2.225 0 3.411-1.285 1.187-1.237 1.187-3.61 0-2.966-2.967-5.735-3.016-2.769-3.016-4.598 0-1.929 1.533-1.929t1.533 1.929v.791h2.867v-.594q0-4.944-4.499-4.944M413.289 145.543h-4.845v19.481h4.845q4.599 0 4.599-4.796v-9.889q0-4.796-4.599-4.796m1.533 4.697v10.136q0 1.879-1.582 1.879h-1.731v-13.943h1.731q1.582 0 1.582 1.928M443.253 146.829v2.175h2.373v14.883h3.066v-19.53h-2.077q-.395 1.236-.939 1.73-.791.742-2.423.742M451.659 157.558v2.769h5.933v3.56h2.967v-3.56h1.483v-2.769h-1.483v-13.201h-3.313l-5.587 13.201m5.933 0h-3.115l3.115-7.318v7.318M469.162 147.373q0-3.115-2.966-3.115-2.918 0-2.918 3.115v6.378q0 3.115 2.918 3.115 2.966 0 2.966-3.115v-6.378m-2.966-1.385q1.038 0 1.038 1.236v6.675q0 1.236-1.038 1.236-.989 0-.989-1.236v-6.675q0-1.236.989-1.236"/><path fill="#FFF" d="M466.196 163.887h1.829l7.664-19.53h-1.78l-7.713 19.53"/><path fill="#FFF" d="M472.92 154.492v6.379q0 3.164 2.967 3.164 2.917 0 2.917-3.164v-6.379q0-3.114-2.917-3.114-2.967 0-2.967 3.114m1.929-.148q0-1.236 1.038-1.236.989 0 .989 1.236v6.675q0 1.236-.989 1.236-1.038 0-1.038-1.236v-6.675"/><path fill="#EAB091" d="M583.236 181.283q-12.66 1.385-21.709.05-4.5-.643-6.527-1.583l5.637 14.538 22.599-13.005" opacity=".62" style="mix-blend-mode:multiply"/><path fill="#EAB091" d="M537.235 130.17l-10.385-2.62q.84 7.714 3.709 24.379 8.604 25.664 32.637 28.879 12.016 1.632 22.302-1.88-28.385 1.039-41.192-23.735-6.38-12.412-7.071-25.022M606.976 110.862q-1.187-3.214-3.115-6.873-3.759-7.319-7.27-9.346-3.51-2.028-11.472 2.373-3.956 2.226-7.269 4.797 8.654-2.472 17.703 1.385 5.588 2.373 10.335 6.577.742.642 1.088 1.087" opacity=".62" style="mix-blend-mode:multiply"/><path fill="#337B55" fill-opacity=".431" d="M603.756 86.755q-2.472-5.983-7.96-11.174-9.445-8.999-23.883-10.334-21.36-1.928-37.331 8.653-19.036 12.608-25.266 40.395-4.797 21.458-2.077 35.599 2.621 13.646 12.065 19.579 5.389 4.153 12.905 6.032l4.054-1.681 1.929-.049q5.043 3.906 11.026 5.982l1.681 4.945q-16.564.049-28.233 11.718-11.719 11.718-11.719 28.281v14.141h108.236v-14.141q0-16.464-12.312-28.281-12.163-11.718-28.826-11.718h-1.78l1.78-5.241q6.971-2.225 12.41-6.922h.989l2.225.544-.148.296q.148-.148.494-.198 4.401.742 8.901-.642 6.576-1.978 11.965-8.208.94-.939 1.484-1.879l.049-.049 1.731-2.472q7.664-11.718 3.263-36.984-2.126-12.113-7.911-29.468-1.434-4.301-4.45-5.735-1.978-.94-4.203-.594l-1.088-.395"/><path fill="#F8D68F" d="M515.147 114.345q-6.577 29.369.89 44.795 7.12 14.734 26.057 14.734l55.231-1.285 2.472.642q3.115.495 6.329 0 10.334-1.681 17.85-13.25 7.664-11.718 3.263-36.984-2.126-12.113-7.911-29.468-1.78-5.29-5.785-6.23l-3.709.099q-1.73-4.944-6.576-10.185-9.741-10.482-25.464-11.916-21.361-1.928-37.381 8.653-19.036 12.608-25.266 40.395"/><path fill="none" stroke="#19344F" stroke-width="2.5" stroke-linecap="round" stroke-linejoin="round" d="M516.037 159.14q-7.467-15.426-.89-44.795 6.23-27.787 25.266-40.395 16.02-10.581 37.381-8.653 15.723 1.434 25.464 11.916 4.846 5.241 6.576 10.185l3.709-.099q4.005.94 5.785 6.23 5.785 17.355 7.911 29.468 4.401 25.266-3.263 36.984-7.516 11.569-17.85 13.25-3.214.495-6.329 0l-2.472-.642m-81.288-13.449q7.12 14.734 26.057 14.734"/><path fill="#D9AC61" d="M563.455 98.77q-10.334 6.823-17.059 10.334-21.36 11.075-29.568 1.78l-2.324 8.702q-2.275 10.58-2.077 19.876.593 29.863 25.613 36.093l4.054-1.681q-4.252-4.944-8.307-13.201-8.109-16.564-6.922-33.078l2.769.594q3.61.445 7.763-.297 13.301-2.324 27.195-15.426 16.317-15.426 26.898-17.651 10.186-2.077 13.4 8.306 3.857 12.311 3.115 32.237-.841 23.535-8.604 38.071.099-.247 3.857-.939 3.956-.692 4.203-.791 2.324-1.088 8.159-3.758 4.944-2.67 6.576-5.439 3.214-5.34 4.4-12.113.989-5.34.841-13.004-.148-9.839-2.324-21.854-2.472-13.498-6.082-21.161-4.005-8.554-18.987-9.296-13.647-.692-22.646 4.599-1.978 1.137-13.943 9.097"/><path fill="#6BAEDB" d="M612.752 196.47q-12.213-11.718-28.876-11.718H556.78q-16.565 0-28.234 11.718-11.718 11.718-11.718 28.281v14.141h108.186v-14.141q0-16.464-12.262-28.281"/><path fill="none" stroke="#19344F" stroke-width="2.5" stroke-linecap="round" stroke-linejoin="round" d="M583.876 184.752q16.663 0 28.876 11.718 12.262 11.817 12.262 28.281v14.141H516.828v-14.141q0-16.563 11.718-28.281 11.669-11.718 28.234-11.718"/><path fill="#578CC7" d="M539.029 210.363q-.791-6.922-.099-15.08l.84-6.724q-17.404 9.789-21.904 29.319-2.274 9.79-1.038 17.602l41.138-.643q-16.366-2.224-18.937-24.474"/><path fill="none" stroke="#19344F" stroke-width="2.5" stroke-linecap="round" stroke-linejoin="round" d="M583.876 184.752q16.663 0 28.876 11.718 12.262 11.817 12.262 28.281v14.141H516.828v-14.141q0-16.563 11.718-28.281 11.669-11.718 28.234-11.718"/><path fill="#EAB091" stroke="#19344F" stroke-width="2.5" stroke-linecap="round" stroke-linejoin="round" d="M563.801 205.023l6.329 15.278 15.13-44.746-31.546.346 10.087 29.122"/><path fill="#FFF" stroke="#19344F" stroke-width="2.5" stroke-linecap="round" stroke-linejoin="round" d="M561.774 199.238l8.356 21.063 7.268-21.063q-7.614 4.104-12.411 2.473-1.483-.495-2.472-1.533l-.741-.94"/><path fill="none" stroke="#19344F" stroke-width="2.5" stroke-linecap="round" stroke-linejoin="round" d="M570.13 238.892v-18.591"/><path fill="#EAB091" stroke="#19344F" stroke-width="2.5" stroke-linecap="round" stroke-linejoin="round" d="M530.425 137.435q-4.944.445-8.109 4.252-3.214 3.807-2.769 8.751.445 4.944 4.252 8.109 3.808 3.214 8.752 2.769 4.945-.445 8.109-4.252 3.214-3.808 2.769-8.752-.445-4.944-4.252-8.109-3.807-3.213-8.752-2.768M614.729 139.808q-3.807-3.164-8.751-2.719-4.945.445-8.109 4.252-3.214 3.807-2.769 8.751.445 4.944 4.252 8.109 3.807 3.214 8.752 2.769 4.944-.445 8.109-4.253 3.214-3.807 2.769-8.751-.445-4.944-4.253-8.158"/><path fill="#EAB091" stroke="#19344F" stroke-width="2.5" stroke-linecap="round" stroke-linejoin="round" d="M575.668 89.524q-3.462-.296-5.934-.099l-9.839-.296q-15.23-2.077-25.366 8.751-9.889 10.581-8.504 26.254l3.955 23.684q1.385 15.426 13.252 25.315 11.866 9.938 27.244 8.553l5.142-.445q15.378-1.384 25.316-13.251 9.889-11.866 8.505-27.243l-.297-24.029q-1.088-12.064-8.851-19.233-7.416-6.873-18.987-7.466-3.708-.346-5.636-.495"/><path fill="none" stroke="#19344F" stroke-width="2.5" stroke-linecap="round" stroke-linejoin="round" d="M563.207 143.071q-2.274-1.879-2.521-4.746m2.521 4.746q2.225 1.879 5.143 1.632 2.917-.247 4.796-2.472 1.879-2.225 1.632-5.142"/><path fill="none" stroke="#19344F" stroke-width="2.5" stroke-linecap="round" stroke-linejoin="round" d="M516.037 159.14q-7.467-15.426-.89-44.795 6.23-27.787 25.266-40.395 16.02-10.581 37.381-8.653 15.723 1.434 25.464 11.916 4.846 5.241 6.576 10.185l3.709-.099q4.005.94 5.785 6.23 5.785 17.355 7.911 29.468 4.401 25.266-3.263 36.984-7.516 11.569-17.85 13.25-3.214.495-6.329 0l-2.472-.642m-81.288-13.449q7.12 14.734 26.057 14.734"/><g transform="translate(569.55 162.45)"><animateTransform attributeName="transform" additive="replace" type="translate" repeatCount="indefinite" dur="4.2s" keyTimes="0;0.512;0.524;0.536;0.548;0.56;0.571;0.583;0.798;0.81;0.821;0.833;0.845;0.857;0.869;0.881;0.893;1" values="569.55,162.45;569.55,162.45;569.55,162.1;569.55,161.8;569.55,161.45;569.55,161.1;569.55,160.8;569.55,160.45;569.55,160.45;569.6,160.7;569.55,161;569.6,161.2;569.55,161.45;569.6,161.7;569.55,161.95;569.6,162.2;569.55,162.45;569.55,162.45" calcMode="discrete"/><animateTransform attributeName="transform" additive="sum" type="scale" repeatCount="indefinite" dur="4.2s" keyTimes="0;0.369;0.512;0.524;0.536;0.548;0.56;0.571;0.583;0.798;0.81;0.821;0.833;0.845;0.857;0.869;0.881;0.893;1" values="1;1,1;1,1;1.047,1.047;1.093,1.093;1.14,1.14;1.187,1.187;1.233,1.233;1.28,1.28;1.28,1.28;1.245,1.245;1.21,1.21;1.175,1.175;1.14,1.14;1.105,1.105;1.07,1.07;1.035,1.035;1,1;1,1" calcMode="discrete"/><path fill="#EAB091" d="M-11.584-1.085l7.12 1.978Q4.14 2.178 11.754-1.085h-23.338"/><path fill="none" stroke="#19344F" stroke-width="2.5" stroke-linecap="round" stroke-linejoin="round" d="M-11.584-1.085l7.12 1.978Q4.14 2.178 11.754-1.085"/></g><g transform="matrix(.685 0 0 .657 567.95 130.7)"><animateTransform attributeName="transform" additive="replace" type="translate" repeatCount="indefinite" dur="4.2s" keyTimes="0;0.393;0.405;0.417;0.429;0.464;0.476;1" values="567.916,130.668;567.916,130.668;567.916,130.655;567.916,130.649;567.916,130.65;567.916,130.65;567.916,130.668;567.916,130.668" calcMode="discrete"/><animateTransform attributeName="transform" additive="sum" type="scale" repeatCount="indefinite" dur="4.2s" keyTimes="0;0.393;0.405;0.417;0.429;0.44;0.452;0.464;0.476;1" values="0.685,0.657;0.685,0.657;0.685,0.455;0.685,0.254;0.685,0.052;0.685,0.052;0.685,0.254;0.685,0.455;0.685,0.657;0.685,0.657" calcMode="discrete"/><animateTransform attributeName="transform" additive="sum" type="translate" repeatCount="indefinite" dur="4.2s" keyTimes="0;0.393;0.405;0.417;0.429;0.464;0.476;1" values="0.049,0.049;0.049,0.049;0.049,0.099;0.049,0.199;0.049,0;0.049,0;0.049,0.049;0.049,0.049" calcMode="discrete"/><path fill="#1A344F" d="M31-11.9q-.35-.35-.85-.35t-.8.35q-.35.3-.35.8V1.2q0 .5.35.85.3.3.8.3t.85-.3q.3-.35.3-.85v-12.3q0-.5-.3-.8M-29.35-11.9q-.35-.35-.85-.35t-.8.35q-.35.3-.35.8V1.2q0 .5.35.85.3.3.8.3t.85-.3q.3-.35.3-.85v-12.3q0-.5-.3-.8"/><path fill="none" stroke="#19344F" stroke-linecap="round" stroke-linejoin="round" d="M31-11.9q-.35-.35-.85-.35t-.8.35q-.35.3-.35.8V1.2q0 .5.35.85.3.3.8.3t.85-.3q.3-.35.3-.85v-12.3q0-.5-.3-.8M-29.35-11.9q-.35-.35-.85-.35t-.8.35q-.35.3-.35.8V1.2q0 .5.35.85.3.3.8.3t.85-.3q.3-.35.3-.85v-12.3q0-.5-.3-.8"/></g><path fill="#F8D68F" d="M588.35 95.95q5.75-3.4 8.2-3.7l19.2 5-4-1.75q-18.15-8.1-26.55-10.75-3-1-3.95-.85-4.7-.9-9.65-1.7-9.9-1.6-10.95-1.25-1.7.6-23.8 0l-17.4 42.8 2.75 2.5q3.666 2.652 13.125 2.625 9.463-.026 25.575-13.125 16.104-13.1 27.45-19.8"/><path fill="#D9AC61" d="M599.2 84.95q-13.25-.35-21.85 4.65-2 1.15-13.95 9.1-10.35 6.85-17.05 10.35-21.35 11.1-29.55 1.8l-.95 3.15q-1.15 3.95-1.95 8.2 6.95 4.65 12.8 10.95-.15-2.6.1-5.6l2.8.6q3.6.45 7.75-.3 13.3-2.35 27.2-15.45 15.65-14.8 26.05-17.45 10.05-2.45 13.7 6.6 8.325 1.542 14.1-8.35-4.75-7.75-19.2-8.25"/><path fill="none" stroke="#19344F" stroke-width="2.5" stroke-linecap="round" stroke-linejoin="round" d="M562.021 114.691q-9.642 8.356-12.263 9.888-6.081 3.511-13.152 3.906-6.626.396-13.647-2.027m39.062-11.767q10.581-9.246 16.91-13.597 22.448-15.426 31.25-.297"/><g transform="translate(296.15 178.8)"><animateTransform attributeName="transform" additive="replace" type="translate" repeatCount="indefinite" dur="4.2s" keyTimes="0;0.262;0.274;0.286;0.298;0.31;0.321;0.333;0.345;0.357;1" values="298.05,186.55;298.05,186.55;298.098,186.747;298.147,186.945;298.145,187.142;298.244,187.395;298.145,187.092;298.094,186.945;298.047,186.698;298.05,186.55;298.05,186.55" calcMode="discrete"/><animateTransform attributeName="transform" additive="sum" type="scale" repeatCount="indefinite" dur="4.2s" keyTimes="0;0.262;0.274;0.286;0.298;0.31;0.321;0.333;0.345;0.357;1" values="1,1;1,1;1.025,1.025;1.051,1.051;1.076,1.076;1.102,1.102;1.076,1.076;1.051,1.051;1.025,1.025;1,1;1,1" calcMode="discrete"/><animateTransform attributeName="transform" additive="sum" type="translate" repeatCount="indefinite" dur="4.2s" keyTimes="0;0.298;0.31;0.321;0.333;0.345;0.357;1" values="-1.9,-7.75;-1.9,-7.75;-1.9,-7.8;-1.9,-7.75;-1.85,-7.75;-1.85,-7.75;-1.9,-7.75;-1.9,-7.75" calcMode="discrete"/><path fill="#3F835F" fill-opacity=".62" d="M5.472-38.402l-.791-9.147-23.14 2.027.791 9.098 7.367-.643.495 5.389 1.285-.148q-15.229 2.472-24.722 14.635-9.593 12.212-8.258 27.688 1.434 16.217 13.944 26.749 12.46 10.531 28.728 9.097 16.267-1.384 26.75-13.893 10.531-12.509 9.098-28.776-1.335-15.476-12.906-25.859Q12.642-32.518-2.736-32.321l1.286-.098-.445-5.34 7.367-.643"/><path fill="#6BAEDB" stroke="#19344F" stroke-width="2.5" stroke-linecap="round" stroke-linejoin="round" d="M-1.035-31.032q-16.218 1.434-26.75 13.943-10.483 12.46-9.098 28.727 1.434 16.266 13.944 26.748 12.46 10.532 28.727 9.098 16.268-1.385 26.75-13.894Q43.07 21.081 41.636 4.814q-1.434-16.266-13.894-26.748-12.51-10.482-28.777-9.098"/><path fill="#F3F3F3" stroke="#19344F" stroke-width="2.5" stroke-linecap="round" stroke-linejoin="round" d="M22.155-15.556q-9.741-8.158-22.449-7.07-12.707 1.137-20.865 10.877-8.208 9.74-7.121 22.447 1.138 12.707 10.878 20.865 9.741 8.208 22.449 7.07 12.658-1.087 20.865-10.828 8.208-9.74 7.121-22.447-1.088-12.707-10.878-20.914"/><path fill="#9FCFE9" stroke="#19344F" stroke-width="2.5" stroke-linecap="round" stroke-linejoin="round" d="M-5.93-38.943l.741 8.406 8.357-.742-.742-8.356-8.356.692"/><path fill="#9FCFE9" stroke="#19344F" stroke-width="2.5" stroke-linecap="round" stroke-linejoin="round" d="M-13.842-44.381l.792 9.147 23.14-2.028-.791-9.147-23.141 2.028"/></g><g><g transform="rotate(131.76 104.657 161.45)"><animateTransform attributeName="transform" additive="replace" type="translate" dur="4.2s" keyTimes="0;1" values="0,0;0,0" fill="freeze"/><animateTransform attributeName="transform" additive="sum" type="translate" repeatCount="indefinite" dur="4.2s" keyTimes="0;0.06;0.071;0.083;0.095;0.107;0.119;0.131;0.143;0.155;0.167;0.179;0.19;0.202;0.214;0.25;0.262;0.274;0.286;0.298;0.31;0.321;0.333;0.345;0.357;0.369;0.786;0.798;0.81;0.82;0.821;1" values="298.362,186.921;298.362,186.921;298.351,186.939;298.255,186.903;298.331,187.016;298.334,186.947;298.31,186.907;298.364,186.953;298.382,186.912;298.318,186.895;298.354,186.962;298.432,186.917;298.358,186.976;298.358,186.937;298.361,187.037;298.361,187.037;298.358,186.937;298.372,187.194;298.484,187.378;298.545,187.553;298.564,187.761;298.503,187.608;298.384,187.405;298.322,187.147;298.358,186.937;298.361,187.037;298.361,187.037;298.358,186.937;298.334,186.876;298.382,186.94;0;0" calcMode="discrete"/><animateTransform attributeName="transform" additive="sum" type="translate" repeatCount="indefinite" dur="4.2s" keyTimes="0;0.821;0.833;0.845;0.857;0.869;0.881;1" values="0;298.382,186.94;298.386,186.919;298.273,186.951;298.239,186.948;298.266,186.964;298.316,186.964;298.316,186.964" calcMode="discrete"/><animateTransform attributeName="transform" additive="sum" type="rotate" repeatCount="indefinite" dur="4.2s" keyTimes="0;0.06;0.071;0.083;0.095;0.107;0.119;0.131;0.143;0.155;0.167;0.179;0.19;0.202;0.214;0.25;0.262;0.333;0.345;0.357;0.369;0.786;0.798;0.81;0.82;0.821;1" values="131.775,0,0;131.775,0,0;150.675,0,0;169.489,0,0;188.274,0,0;207.084,0,0;226.106,0,0;244.938,0,0;263.746,0,0;282.532,0,0;301.35,0,0;320.373,0,0;339.201,0,0;358,0,0;357.999,0,0;357.999,0,0;358,0,0;358,0,0;357.999,0,0;358,0,0;357.999,0,0;357.999,0,0;358,0,0;-34.334,0,0;-66.708,0,0;0;0" calcMode="discrete"/><animateTransform attributeName="transform" additive="sum" type="rotate" repeatCount="indefinite" dur="4.2s" keyTimes="0;0.821;0.833;0.845;0.857;0.869;0.881;0.893;1" values="0;-66.708,0,0;-99.014,0,0;-131.365,0,0;-163.731,0,0;-196.034,0,0;-228.424,0,0;131.576,0,0;131.576,0,0" calcMode="discrete"/><animateTransform attributeName="transform" additive="sum" type="scale" repeatCount="indefinite" dur="4.2s" keyTimes="0;0.06;0.071;0.083;0.095;0.107;0.131;0.143;0.155;0.167;0.179;0.19;0.202;0.214;0.25;0.262;0.274;0.286;0.298;0.31;0.321;0.333;0.345;0.357;0.369;0.786;0.798;0.81;0.82;0.821;1" values="0.998,0.998;0.998,0.998;0.997,0.997;0.999,0.999;0.999,0.999;0.997,0.997;0.997,0.997;0.999,0.999;0.998,0.998;0.997,0.997;0.997,0.997;0.998,0.998;1,1;0.999,0.999;0.999,0.999;1,1;1.025,1.025;1.05,1.05;1.076,1.076;1.101,1.101;1.076,1.076;1.05,1.05;1.025,1.025;1,1;0.999,0.999;0.999,0.999;1,1;0.997,0.997;0.997,0.997;1;1" calcMode="discrete"/><animateTransform attributeName="transform" additive="sum" type="scale" repeatCount="indefinite" dur="4.2s" keyTimes="0;0.821;0.833;0.845;0.857;1" values="1;0.997,0.997;0.999,0.999;0.997,0.997;0.998,0.998;0.998,0.998" calcMode="discrete"/><animateTransform attributeName="transform" additive="sum" type="translate" repeatCount="indefinite" dur="4.2s" keyTimes="0;0.071;0.083;0.095;0.107;0.119;0.131;0.143;0.155;0.167;0.19;0.202;0.214;0.25;0.262;0.274;0.286;0.298;0.31;0.321;0.333;0.345;0.357;0.369;0.786;0.798;0.81;0.82;0.821;1" values="5.349,0;5.349,0;5.199,0;5.349,0.049;5.299,0.049;5.299,0;5.349,0.049;5.349,0;5.249,0.099;5.299,0;5.299,0;5.349,-0.05;5.349,-0.1;5.349,-0.1;5.349,-0.05;5.399,-0.05;5.349,0;5.399,0;5.349,-0.05;5.349,-0.1;5.449,-0.1;5.449,-0.1;5.349,-0.05;5.349,-0.1;5.349,-0.1;5.349,-0.05;5.399,-0.05;5.349,-0.1;0;0" calcMode="discrete"/><animateTransform attributeName="transform" additive="sum" type="translate" repeatCount="indefinite" dur="4.2s" keyTimes="0;0.821;0.833;0.845;0.857;0.869;0.881;1" values="0;5.349,-0.1;5.349,-0.05;5.349,0;5.349,-0.05;5.399,-0.05;5.249,0.049;5.249,0.049" calcMode="discrete"/><path fill="#7AC7EE" d="M25.6-2.65q-1.1-12.7-10.9-20.85-9.8-8.2-22.45-7.15l2.6 30.5-20.55 23q4.7 4.2 10.65 6.25 6.1 2.1 12.65 1.6 10.45-.95 18.15-8.05 7.55-6.95 9.45-17l.3-2.35q.35-2.7.1-5.95"/></g><animate attributeName="mask" repeatCount="indefinite" dur="4.2s" keyTimes="0;0.226;0.798;1" values="url(#mask_);none;url(#mask_);url(#mask_)"/></g><g transform="translate(298.45 186.75)"><animateTransform attributeName="transform" additive="replace" type="translate" repeatCount="indefinite" dur="4.2s" keyTimes="0;0.262;0.274;0.286;0.298;0.31;0.321;0.333;0.345;0.357;1" values="298.45,186.75;298.45,186.75;298.5,186.95;298.55,187.2;298.6,187.4;298.65,187.6;298.6,187.4;298.55,187.25;298.5,186.95;298.45,186.75;298.45,186.75" calcMode="discrete"/><animateTransform attributeName="transform" additive="sum" type="scale" repeatCount="indefinite" dur="4.2s" keyTimes="0;0.262;0.274;0.286;0.298;0.31;0.321;0.333;0.345;0.357;1" values="1,1;1,1;1.025,1.025;1.051,1.051;1.076,1.076;1.102,1.102;1.076,1.076;1.051,1.051;1.025,1.025;1,1;1,1" calcMode="discrete"/><path fill="none" stroke="#19344F" stroke-width="2.5" stroke-linecap="round" stroke-linejoin="round" d="M30.6-2.75q-1.1-12.7-10.9-20.9-9.75-8.15-22.45-7.1-12.7 1.15-20.85 10.9-8.2 9.75-7.15 22.45 1.15 12.7 10.9 20.85 9.75 8.2 22.45 7.1 12.65-1.1 20.85-10.85 8.2-9.75 7.15-22.45M-2.594-30.576l.643 7.367M-23.509-19.748l5.686 4.796M-30.58 2.748l7.368-.643M-19.702 23.613l4.747-5.686M2.747 30.683l-.643-7.367M23.612 19.855l-5.686-4.796M30.733-2.592l-7.417.643M19.855-23.506l-4.747 5.686"/><path fill="#F3F3F3" stroke="#19344F" stroke-width="2.5" stroke-linecap="round" stroke-linejoin="round" d="M4.97-.415q-.197-2.076-1.78-3.411Q1.608-5.21-.468-5.013q-2.077.198-3.412 1.78Q-5.265-1.601-5.067.426q.198 2.077 1.78 3.412Q-1.705 5.222.372 5.024q2.077-.198 3.412-1.78Q5.168 1.662 4.97-.415"/></g><path fill="#F3F3F3" stroke="#19344F" stroke-width="2.5" stroke-linecap="round" stroke-linejoin="round" d="M660.911 206.655l6.577-.989-6.132-40.296-6.576.989 6.131 40.296"/><path fill="#F8D68F" stroke="#19344F" stroke-width="2.5" stroke-linecap="round" stroke-linejoin="round" d="M662.395 171.946l-1.039-6.576-6.576.989.989 6.576 6.626-.989"/><path fill="#68BDBE" stroke="#19344F" stroke-width="2.5" stroke-linecap="round" stroke-linejoin="round" d="M656.264 235.48h29.321l1.186-49.542h-40.94l10.433 49.542"/><path fill="#5B9FA0" d="M664.422 204.084q.692-5.983 2.472-12.114l1.632-4.895-22.695-2.323 13.993 49.542h11.817q-9.444-10.977-7.219-30.21"/><path fill="none" stroke="#19344F" stroke-width="2.5" stroke-linecap="round" stroke-linejoin="round" d="M656.264 235.48h29.321l1.186-49.542h-40.94l10.433 49.542"/><path fill="#C48F6D" stroke="#19344F" stroke-width="2.5" stroke-linecap="round" stroke-linejoin="round" d="M684.052 252.39v-16.366H326.216q-5.34 0-9.098 3.807-3.807 3.758-3.807 9.098v3.461h370.741"/><path fill="#ECECEC" stroke="#19344F" stroke-width="2.5" stroke-linecap="round" stroke-linejoin="round" d="M435.441 218.175l1.483 4.944q1.236 5.736-.049 9.79 11.372-.692 63.537-.049l2.472-3.61-1.78-11.075h-65.663"/><path fill="none" stroke="#19344F" stroke-width="2.5" stroke-linecap="round" stroke-linejoin="round" d="M437.418 224.405q.94 4.45-1.335 7.565m1.335-7.565l-1.335-3.857"/><path fill="#43566B" d="M432.128 218.225v2.323h67.641q.791 0 1.385.594.543.544.543 1.335v7.564q0 .792-.543 1.335-.594.594-1.385.594h-67.641v2.324h67.641q1.78 0 3.066-1.237 1.236-1.285 1.236-3.016v-7.564q0-1.78-1.236-3.016-1.286-1.236-3.066-1.236h-67.641"/><path fill="#19344F" d="M429.656 218.225v2.323q0 .989.692 1.78.791.693 1.78.693h67.097v6.477h-67.097q-1.039 0-1.731.741-.741.692-.741 1.731v2.324q0 1.038.741 1.78.692.692 1.731.692h67.641q2.769 0 4.796-1.978 1.978-1.978 1.978-4.747v-7.564q0-2.769-1.978-4.747-2.027-1.978-4.796-1.978h-67.641q-1.039 0-1.731.742-.741.692-.741 1.731m2.472 0h67.641q1.78 0 3.066 1.236 1.236 1.236 1.236 3.016v7.564q0 1.731-1.236 3.016-1.286 1.237-3.066 1.237h-67.641v-2.324h67.641q.791 0 1.385-.594.543-.543.543-1.335v-7.564q0-.791-.543-1.335-.594-.594-1.385-.594h-67.641v-2.323"/><path fill="#ECECEC" stroke="#19344F" stroke-width="2.5" stroke-linecap="round" stroke-linejoin="round" d="M657.648 232.959q-.841-2.028-1.483-4.895-1.236-5.736.049-9.839-7.071.445-35.996.296l-27.541-.247-2.472 3.609 1.78 11.076h65.663"/><path fill="#E56A5B" d="M661.01 220.548v-2.323h-67.69q-1.78 0-3.017 1.236-1.285 1.236-1.285 3.016v7.564q0 1.731 1.285 3.016 1.237 1.237 3.017 1.237h67.69v-2.324h-67.69q-.791 0-1.335-.594-.594-.543-.594-1.335v-7.564q0-.791.594-1.335.544-.594 1.335-.594h67.69"/><path fill="#19344F" d="M662.741 216.494q-.742-.742-1.731-.742h-67.69q-2.769 0-4.797 1.978-1.977 1.978-1.977 4.747v7.564q0 2.769 1.977 4.747 2.028 1.978 4.797 1.978h67.69q.989 0 1.731-.692.742-.742.742-1.78v-2.324q0-.94-.742-1.78-.692-.692-1.731-.692h-67.146v-6.477h67.146q.989 0 1.731-.693.742-.741.742-1.78v-2.323q0-1.039-.742-1.731m-1.731 4.054h-67.69q-.791 0-1.335.594-.594.544-.594 1.335v7.564q0 .792.594 1.335.544.594 1.335.594h67.69v2.324h-67.69q-1.78 0-3.017-1.237-1.285-1.285-1.285-3.016v-7.564q0-1.78 1.285-3.016 1.237-1.236 3.017-1.236h67.69v2.323"/><path fill="none" stroke="#19344F" stroke-width="2.5" stroke-linecap="round" stroke-linejoin="round" d="M489.484 210.215q-.939-4.45 1.335-7.565m-1.335 7.565q.445 2.274 1.335 3.856"/><path fill="#ECECEC" stroke="#19344F" stroke-width="2.5" stroke-linecap="round" stroke-linejoin="round" d="M489.979 208.88q-1.236-5.736.049-9.839-7.12.445-36.045.296l-27.492-.247-2.472 3.609 1.78 11.076h65.663q-.84-2.027-1.483-4.895"/><path fill="#F0B971" d="M494.775 201.661v-2.373h-67.641q-1.78 0-3.016 1.285-1.286 1.236-1.286 3.016v7.516q0 1.78 1.286 3.065 1.236 1.236 3.016 1.236h67.641v-2.373h-67.641q-.791 0-1.335-.544-.594-.593-.594-1.384v-7.516q0-.791.594-1.384.544-.544 1.335-.544h67.641"/><path fill="#19344F" d="M427.134 196.816q-2.769 0-4.796 1.977-1.978 1.978-1.978 4.796v7.516q0 2.769 1.978 4.796 2.027 1.977 4.796 1.977h67.641q1.038 0 1.78-.741.692-.742.692-1.731v-2.373q0-1.038-.692-1.73-.742-.742-1.78-.742h-67.097v-6.428h67.097q1.038 0 1.78-.741.692-.742.692-1.731v-2.373q0-1.038-.692-1.731-.742-.741-1.78-.741h-67.641m67.641 18.59h-67.641q-1.78 0-3.016-1.236-1.286-1.285-1.286-3.065v-7.516q0-1.78 1.286-3.016 1.236-1.285 3.016-1.285h67.641v2.373h-67.641q-.791 0-1.335.544-.594.593-.594 1.384v7.516q0 .791.594 1.384.544.544 1.335.544h67.641v2.373"/></g></svg>