<svg xmlns:xlink="http://www.w3.org/1999/xlink" xmlns="http://www.w3.org/2000/svg" image-rendering="optimizeSpeed" baseProfile="basic" width="695" height="462" viewBox="0 0 695 462" preserveAspectRatio="xMinYMin meet"><defs><symbol id="a" overflow="visible"><path fill="#FFF" d="M-351.3-234.2v468.4h702.6v-468.4h-702.6"/></symbol><symbol id="b" overflow="visible"><path fill="#F9F9F9" stroke="#E8E8E8" stroke-width="4" stroke-linecap="round" stroke-linejoin="round" d="M169 56.5q-1.4-1.2-3.1-1l-17.4 1.8q-2.2.3-3.2 2.3l-2.1 4.5q-.6 1.3-1.8 1.9l-2.6.3-10.9-2.2q-2-.4-2.9-2.3-.8-1.8.2-3.6l1.1-2q.6-1.1 1.9-1.7l13.4-5.8q1.4-.7 1.9-1.8l6.8-12.6q1-1.9 0-3.8-1.2-2-3.3-2l-38.5-2.1q-1.9-.1-3.2 1.3l-6.7 7.5q-1.4 1.5-3.5 1.2L15.7 27q-2-.2-3.4 1.2t-1 3.4L13 43.3q.3 1.9-.9 3.3Q10.9 48 9 47.9l-2.9-.1q-1.6 0-2.8 1.1Q2 50.1 2 51.8v7.8q0 1.9 1.5 3.1l4.7 3.7q.9.6 1.7.7l8.7 1.7q2 .4 3.5-1t1.1-3.6v-.1q-.3-2 1-3.4 1.2-1.5 3.2-1.4l17.9 1.1q1.9.1 3 1.5l6.3 8.2q1 1.3.7 3L54 83.8q-.1 1.3-1 2.3-1 1-2.4 1.1l-4.5.6q-1.4.2-2.5 1.3-.9 1.1-1 2.5l-1.3 32q0 1.8 1.3 3.1l14 12.7q.9.9 1.1 2.1.3 1.3-.2 2.4l-1.2 2.9q-.6 1.5.1 3.1t2.4 2l21.5 5.4q1.7.4 2.4 2l1.9 3.6q.6 1.2 1.9 1.8l2.5.1q1.5-.4 2.9.4t1.8 2.3l1.3 5.3q.2 1.3 1.3 2.1t2.5.7l6.8-.5q1.7 0 3 1.1t1.3 2.8v5.7q0 1.6-1.2 2.7t-2.8 1.2q-1.5 0-2.6 1t-1.3 2.5l-1.3 12.2q-.2 2.1 1.5 3.5l10.9 8.8q1.7 1.4 1.4 3.5l-1.8 13.8q-.2 1.1.3 2.1.5 1.1 1.5 1.7l10.7 6.7q1.7 1 1.8 3l3.6 50.6q0 1.1.7 2 .6.9 1.6 1.3l3.8 1.6q1.2.6 1.9 1.8.6 1.2.4 2.5-1 4.8-1.6 8.8-.8 5.1-.3 5.3l17 8.5q1.7.9 3.5 0 1.7-.8 2-2.7l1.5-7.8q.4-2.5-1.6-3.9l-4.4-3q-1.8-1.3-1.7-3.5l2-28.5q0-1.4 1-2.5l30-30q1.1-1 1.1-2.7v-14.1q0-1.8 1.5-3l6.7-5.6q1.5-1.2 1.5-3v-15q0-1.6-1.2-2.8l-12.5-12q-1.2-1.1-2.8-1.1h-10.9q-1.6 0-2.7-1-1-1.1-1.2-2.7l-.1-2.8q0-1.5-1.1-2.5-1-1.1-2.5-1.2l-6.3-.6q-1.5-.2-2.6-1.3l-6.3-7q-1.2-1.2-2.9-1.2h-34q-1.3 0-2.4-.8-1-.8-1.4-2l-1.7-6q-.6-1.7-2.2-2.4l-9.8-4v-4.5q0-1.3-.7-2.3-.8-1.1-2-1.5l-7.4-2.6q-1.6-.6-2.3-2.1-.6-1.4-.1-3l2.4-7.2q.7-2 2.7-2.5l16.1-4.7h2.4q1.3.5 2 1.5l3 4.3q1.4 2 3.9 1.7 2.5-.4 3.2-2.8l1.6-5.5q.4-1.4 1.7-2.2l25.4-16.1q1.2-.8 1.6-2.1.5-1.4 0-2.7l-2.2-5.8q-.8-2.1.5-3.8 1.3-1.7 3.4-1.6l28 1.4q1.9 0 3.1-1.3 1.3-1.3 1-3.1l-1.3-14q-.2-1.5-1.3-2.6-1.2-1-2.7-1-1.6 0-2.8-1.1t-1.2-2.7l-.2-3.9q0-1.7-1.4-2.8m-24.7-43.3q-.8-.5-1.7-.4-1 .2-1.6.8l-.4.4q-1 .9-.8 2.3l.1.8q.1 1.3 1.2 1.9 1.1.7 2.4.3l1.4-.5q1.4-.4 1.8-1.9.2-.9-.1-1.7-.4-.8-1.2-1.3l-1.1-.7"/><path fill="#F9F9F9" stroke="#E8E8E8" stroke-width="4" stroke-linecap="round" stroke-linejoin="round" d="M196.8 2.1l-11.7 3.3-24.4 2.5q-1.3.2-2.2 1.1t-1.2 2.2l-1.1 6.2q-.2 1.3.3 2.4l5.7 12q.6 1.2.3 2.6l-2.1 8.5q-.4 1.7.6 3.1 1 1.5 2.8 1.7l11.1 1.5q2 .3 3.4-1.1 1.3-1.5 1-3.4l-1.2-7.4q-.3-1.9-1.9-2.8l-7.1-4.2q-1.5-.9-1.8-2.7-.3-1.7.8-3.1l1.2-1.6q.8-1 1.9-1.3l20.5-6.8 1.7-1.2 6.2-7.3q1.3-1.4.2-3.1-1-1.6-3-1.1"/><path fill="#F9F9F9" stroke="#E8E8E8" stroke-width="4" stroke-linecap="round" stroke-linejoin="round" d="M251.6 36.4q1.3-.5 1.4-1.8l1.9-17.4q.1-.8-.4-1.5-.5-.6-1.3-.8l-33.1-6.4q-.9-.1-1.6.4l-13.6 9.8-10.1 6.6-.6.3-8.4 2.2q-1.1.3-1.5 1.3-.3 1 .3 2 .6.9 1.7.9h7.1q1 0 1.6.7.7.7.5 1.6L193.2 50v.6l2.4 15.7q.1.8.7 1.3t1.4.5h5.7q.9 0 1.6-.8l14.2-18.7q.4-.5 1-.7l31.4-11.4m38.7.1l-.4-.4q-.8-1-2-1.1l-4.7-.7q-2-.3-3.1 1.3l-.6.7q-.9 1.3-.5 2.7.4 1.5 1.8 2.1l3.7 1.6 3-.1 2-1.3q1.2-.7 1.5-2.2.2-1.5-.8-2.6M674 48.3l-2.5-3.6q-1.2-1.8-3-2.6-2-.9-4-.7l-26.3 2.3q-1.9.1-3.6-.6-1.8-.8-3-2.1l-6.1-7.2q-1.8-2.2-4.7-2.6l-39.3-6-5.9.2q-32.2 6.5-33.2 6.3-1.1-.3-14.6-12.1-3.8-3.5-9.1-3.5h-59q-.6 0-1.1.4L446.8 24q-1.1.7-1 2l1 9.5q.2 1-.5 1.7-.8.8-1.8.7l-15.3-1q-1.1 0-1.9.9l-9 11.1q-.6.8-1.7.8h-21q-1.1 0-1.9-.8l-8.6-11.5-1-.8-13.7-4.9q-.8-.2-1.4 0L348 39l-.8.4-15.3 14q-1.1 1.1-.5 2.6l4.1 8.3q.5 1.3 2 1.3h14q1 0 1.7-.8L364 52.2q.7-.8 1.7-.8h2.4q1.1 0 1.7.8.7.8.5 1.9l-.9 5.5q-.2.9.3 1.6.4.8 1.3 1 1.6.4 1.7 2 .1 1.6-1.4 2.2l-2.3.9q-1 .4-1.4 1.5l-2.1 7.8q-.4 1.5-2 1.7l-21 1.8q-.8.1-1.4-.3-.6-.5-.9-1.2l-2.1-7q-.3-.7-1-1.1-.6-.5-1.4-.4l-6.2.7q-1.3.2-1.8 1.3l-5 11.7q-.6 1.2-1.7 1.3l-6 1.1q-.8.2-1.2.7l-5.9 6.2q-1.1 1-.3 2.5l3.1 6q.7 1.2 0 2.3t-1.9 1h-10q-1.1 0-1.7 1-.7.9-.4 2l4.6 12.6q.5 1.2 1.8 1.5l11.8 1.5q1.2.2 1.9-.6.8-.8.7-1.9l-.8-5.4q-.1-.7.3-1.4t1-1l11.2-4.5 1-.1 7.3.6q1.2 0 1.7 1l5.2 8.8q.5.7.4 1.6 0 1-.6 1.6l-.3.5q-.7.9-.6 2 .1 1 .9 1.8l1 1q.8.8 2 .8 1.1.1 2-.6l4.2-3.5q.8-.6 1-1.6.3-.9-.1-1.8l-4-9.7q-.4-.9 0-1.8t1.3-1.2l.6-.2q1.5-.5 2.4.7l10.1 12.2q.5.6 1.3.8l1.4-.2 10.8-5 1.4-.1q.8.1 1.3.8l10.7 13.8q.6.9.3 2l-2.1 6.8q-.3 1.4-1.7 1.6-27 4.8-28.4 4.4l-15.3-5.1q-.7-.2-1.2-.9l-6.1-9.4q-.7-1-1.9-1l-20.4-.4q-.9 0-1.5.6l-33.5 27.7q-.6.6-.7 1.4l-3 16q-.1.9-.7 1.4l-4.7 4.1q-.8.8-.8 1.7v14.8q0 1 .9 1.7l19.6 16q.7.5 1.4.5h34.5q1 0 1.5.5l8.1 6.9q.9.9.8 2l-1.8 12.2q0 .7.3 1.4l1 .9 11.3 4.8q.7.3 1 .9.5.6.4 1.3l-3 35.7q-.1 1.4 1.1 2l11.4 6.8q1.4.9 1.1 2.3l-4 26.5q-.2 1 .4 1.8.7.8 1.6.8l21.2 1.5q1 .1 1.8-.6l21.2-21.9q.7-.7.6-1.6l-.7-21.2q0-1.2.9-1.8l14.4-11.9q.8-.7.8-1.6l1-27.9q0-4 3.2-6.7l20.2-17.4q2-1.8 1.8-4.5l-.6-6.4q-.2-2-1.8-3.4t-3.6-1.3l-24 .9q-.9 0-1.5-.7-.7-.6-.7-1.6l.3-13.2q0-1-.8-1.7l-9.8-8.5q-.8-.7-.8-1.8l.6-10.7q0-.8.5-1.4.5-.6 1.3-.7l5.7-1q1-.1 2 .7l12 12.8q.8.7.7 1.6l-.6 15q0 .9.5 1.5.4.7 1.2.9l7.7 1.8q1.2.2 2.1-.7l16.7-17.3q.7-.7.7-1.7-.1-1-.9-1.6l-15.1-11.7q-.8-.6-.9-1.6-.1-1 .5-1.6l3.9-4.6q.7-.8 1.7-.8h8.3q1.5 0 2 1.3l3.8 8q.7 1.3 2 1.3h14.3q1 0 1.7.7.7.8.5 1.8l-1.4 10.8q-.1 1 .5 1.8.7.8 1.7.8h10.5q1 0 1.7.8.7.7.5 1.8l-2.6 15.3q-.1 1 .5 1.8l15.4 19.7q.7 1 2 1h5.3q1.7 0 2.4-1.6l16.9-41.5q.6-1.6 2.4-1.6h5q1.3 0 2 .8l10.8 12.1q.5.7.6 1.5l1.6 18q.1.6.5 1.2l5.6 8.8q.5.8 1.4 1.1h1.9q1-.4 1.5-1.4.5-1 .2-2L557 198q-.3-1 .2-1.9.5-.9 1.5-1.2l1.1-.4q.9-.3 1.7 0t1.3 1.1l3.2 5.4q.6 1 1.7 1.2 1.2.2 2-.5l9.7-7.8q.9-.7.9-1.8l.8-11.3q.1-1.9-1.3-3l-7.7-6.5q-1.5-1.3-1.3-3.3l.7-5.1q0-1 .8-1.5.6-.6 1.5-.7l12.6-1q1.5 0 2.2-1.4l6.4-14.8q.6-1.5-.5-2.7l-9-10q-.9-1.1-.5-2.4l3.2-12.1q.3-.9 1-1.4.8-.5 1.7-.5l5.6.6q1.1.1 2-.6.8-.8.8-2l-1.5-39.7q-.1-1.4 1.1-2.1l9.7-6.8q.7-.5 1.6-.4l20.3 2q1 0 1.6.8.7.8.7 1.7v17.3q0 .9.5 1.5l1.4 1 4.9 1.4 1.7-.1q1-.4 1.3-1.3l9.1-21.6.7-.9 11.7-10.4 1-.6 7.4-1.9q1.3-.4 1.8-1.6.5-1.3-.3-2.4"/><path fill="#F9F9F9" stroke="#E8E8E8" stroke-width="4" stroke-linecap="round" stroke-linejoin="round" d="M435 260.9q-2 .3-3.2 1.9l-5.6 8.3-.7 1.4-3 11.2q-.6 1.9.4 3.6l2.3 3.6q1 1.6 2.7 2 1.8.5 3.4-.3l5-2.8q2-1 2.2-3.2l3.4-20.7q.4-2.3-1.2-4-1.7-1.6-4-1.3l-1.7.3M314 62.3q-.1-1-.8-1.7-.6-.7-1.6-.8l-.3-.1q-1.4-.2-2.4.7-1 .9-1 2.3l.3 6.5q0 .8-.4 1.5l-2.6 4.7q-.6 1-.3 2.2.4 1.2 1.4 1.7l2.7 1.4q1 .5 2 .2t1.7-1.1l2.1-3q.6-.8.5-2L314 62.3m-19.6 7.2q-1 .7-1.2 1.8l-.7 2.9q-.1.9.2 1.8t1.1 1.3l1.2.7q1 .6 2.2.3T299 77l1.6-2.7q1-1.6-.1-3.2l-1.2-1.6q-.7-.9-1.8-1-1.1-.2-2.1.4l-1 .6M572 232.2q-.7-.6-1.7-.6h-7q-1.1 0-1.9-.8-.8-.8-.8-1.9 0-1.1-.8-1.9-.7-.8-1.8-.8h-.3l-1.6-.4q-.7-.5-.9-1.3l-2-5.1q-.5-1.2-1.7-1.6l-5.7-1.9q-1.4-.4-2.5.6-1.2 1-1 2.5l1.3 6.5q0 .6.4 1.1l4.9 6.6.7.7 8 5 1.1.3 12.2 1.6q1.4.2 2.4-.8.9-1 .6-2.4l-1-4q-.1-.9-.8-1.4m9.9-1.9q-.6 1.2-.1 2.5l1 3.4q.6 1.8 2.4 2.3l12.8 3.9h2.1l2.2-.8q2.5-.9 2.4-3.5-.1-2.6-2.6-3.2-1.3-.3-1.9-1.2l-5.8-7.2q-.8-1-2-1.2l-2.2.2-6.6 3q-1.2.6-1.7 1.8m21.9 21.4q-1.1.9-1.4 2.3l-.2 1.5q-.2 2-2.2 2.6-1.9.6-3.3-.9l-3-3.4q-1.3-1.5-3.1-1l-13.9 3.4q-1 .2-1.8 1.1l-5.6 7.7q-.5.8-1.4 1l-13.3 5.6q-1 .3-1.5 1.2-.5.9-.5 2l2.3 27q.1 1.5 1.4 2.3 1.2.9 2.7.4l7.5-2.4q1-.3 1.6-1 .6-.8.6-1.8.1-1.2 1-2 .8-.9 2.1-1l9.8-.3q1.7-.1 2.7 1.3l3.9 5.3q.8 1.3 2.3 1.4l17.2 1.6q1.7.1 2.8-1.2l8.2-10.3q.5-.6.7-1.6l1.7-14.5q.2-1-.3-1.8l-11.8-23.1q-.6-1.2-2-1.6l-.7-.2q-1.3-.3-2.5.5m32.5 40.7q0 .8-.5 1.5l-2.5 3.2q-.8 1.1-.3 2.5l1.1 3q.5 1.2 1.7 1.5 1.3.3 2.3-.5l7.2-5.6q1.3-1 .8-2.6-.3-1.6-1.9-1.9l-1-.2q-1.1-.3-1.7-1.1l-.6-1.1q-1-1.6-2.9-1.1-1.8.5-1.8 2.4m-4.3 18q-.9-2-3-2.4-2.2-.3-3.6 1.3l-2.7 3.2-1 .8-9.5 5.5q-1.2.7-1.7 2t-.1 2.6v.1q.4 1.2 1.4 2 1 .7 2.4.7h3.3q1.9 0 3-1.4l2-2.3q1.2-1.5 3-1.5h.5q1.1 0 2-.6 1-.6 1.5-1.6l2.5-5.2q.8-1.6 0-3.3"/></symbol><symbol id="c" overflow="visible"><path fill="#383838" d="M-142.8 146.6h5.6v-3.1h-9.1v21.8h3.5v-9h4.4v-3.1h-4.4v-6.6m12.2-3.4q-2.5 0-3.9 1.4t-1.4 4.1V160q0 2.7 1.4 4.1 1.4 1.4 3.9 1.4t3.9-1.4q1.3-1.4 1.3-4v-11.4q0-2.6-1.4-4-1.3-1.5-3.8-1.5m1.8 5.3v11.8q0 2.1-1.8 2.1t-1.8-2.1v-11.9q0-2.1 1.8-2.1t1.8 2.1m14.7-3.7q-1.3-1.3-3.9-1.3h-5.2v21.9h3.5v-8.9h1.2q1.2 0 1.7.6.5.7.5 2.2v3.5l.3 2.6h3.5q-.3-.8-.3-2.7v-3.3q0-3.7-2.3-4.7 2.2-1 2.2-4.4v-1.8q0-2.5-1.2-3.7m-4 1.9q1.8 0 1.8 2.2v2.1q0 2.4-2.1 2.4h-1.3v-6.8h1.6m16.8-3h-9.3v21.8h9.3v-3.1h-5.9v-6.4h4.7v-3.2h-4.7v-6h6v-3.2m5.5 0H-99v21.9h3.4v-21.9m7.5 2.9q1.8 0 1.8 2.1v2.4h3.2v-2.1q0-2.6-1.3-4-1.3-1.5-3.8-1.5t-3.9 1.5q-1.2 1.4-1.2 4v11.4q0 2.6 1.3 4 1.3 1.5 3.8 1.5t3.8-1.5q1.3-1.4 1.3-4v-7H-88v3.2h1.6v4q0 2.1-1.8 2.1t-1.8-2.1v-11.8q0-2.2 1.8-2.2m18.1-2.9h-3v13.1l-3.6-13H-81v21.8h3.1v-15.9l4.3 15.9h3.5v-21.9"/><path fill="none" stroke="#CDCCCC" stroke-width="4" stroke-linecap="round" stroke-linejoin="round" d="M-279.9 80.8v84.3M63.2 80.8v84.3m36.3-84.3v84.3m193.3-84.3v84.3m-572.7-9.3h93m156.7 0h93m205 0h25.1m-192.3 0h25.1"/><path fill="#383838" d="M155.3 143.4h-9.4v21.9h9.4v-3.1h-6v-6.4h4.8v-3.2h-4.7v-6h5.9v-3.2m13.6 0h-3.2l-2.6 8.1-2.6-8h-3.6l3.5 10.5-3.7 11.3h3.2l2.8-8.7 2.8 8.7h3.6l-3.8-11.3 3.6-10.6m6.3-.2q-2.5 0-3.8 1.4-1.3 1.4-1.3 4.1V160q0 2.7 1.3 4.1 1.3 1.4 3.9 1.4 2.4 0 3.7-1.4 1.4-1.4 1.4-4v-3H177v3.2q0 2.1-1.8 2.1t-1.8-2.1v-11.9q0-2.1 1.8-2.1t1.8 2.1v2.4h3.3v-2.1q0-2.6-1.3-4-1.3-1.5-3.8-1.5m10.6.3h-3.5v21.8h3.5v-9.4h3.9v9.4h3.5v-21.9h-3.5v9.4h-3.9v-9.4m12.2 21.9l.6-4h4.2l.5 4h3.5l-3.5-21.9h-5l-3.5 21.9h3.1m1.1-7l1.6-11 1.7 11h-3.3m13.7-14.9h-4.3v21.9h3.1v-15.9l4.3 15.9h3.5v-21.9h-3v13.1l-3.6-13m14-.3q-2.6 0-3.9 1.4-1.3 1.4-1.3 4.1V160q0 2.7 1.3 4.1 1.3 1.4 3.9 1.4 2.4 0 3.7-1.4 1.4-1.4 1.4-4v-7H227v3.1h1.5v4.1q0 2.1-1.8 2.1t-1.8-2.1v-11.8q0-2.2 1.8-2.2t1.8 2.1v2.4h3.3v-2.1q0-2.6-1.3-4-1.3-1.5-3.8-1.5m15.4 9.5h-4.7v-6.1h6v-3.1H234v21.8h9.3v-3.1h-5.9v-6.4h4.8v-3.1"/><path fill="#A6394D" stroke="#43131B" stroke-width="2" stroke-linecap="round" stroke-linejoin="round" d="M-206.7-154.3l-14-14v14H-280v207h-14l14 14h29.6V-33.6h38.8v-26.8l-14.1-14v14h-24.7v-67.1h43.7v-26.8"/><path fill="#A6394D" d="M-97.8-160.2l-3.7 6.4-7.6-.5h-28.3q-35.4 0-35.4 37.9V29.1q0 8.1 1.6 14.1h-6.7l14.3 14.4q9 9 26.5 9h27.7q35.7 0 35.7-37.5v-145.7q0-19.7-9.7-29.2l-14.5-14.5m-32.5 32.7h14q13.1 0 13.1 12.9V27.1q0 12.9-11.7 12.9h-15q-13.3 0-13.3-13v-141.6q0-12.9 13-12.9"/><path fill="none" stroke="#43131B" stroke-width="2" stroke-linecap="round" stroke-linejoin="round" d="M-97.8-160.2l-3.7 6.4-7.6-.5h-28.3q-35.4 0-35.4 37.9V29.1q0 8.1 1.6 14.1h-6.7l14.3 14.4q9 9 26.5 9h27.7q35.7 0 35.7-37.5v-145.7q0-19.7-9.7-29.2l-14.5-14.5"/><path fill="none" stroke="#43131B" stroke-width="2" stroke-linecap="round" stroke-linejoin="round" d="M-130.3-127.5h13.9q13.2 0 13.2 12.9V27.1q0 12.9-11.7 12.9H-130q-13.3 0-13.3-13v-141.6q0-12.9 13-12.9"/><path fill="#A6394D" d="M34.1-161.6v8l-8.4-.7H-32v207h-14l14 14h29.5v-89.2h17.9l16.4 75.2H20.6l14.1 14h28l-20.6-92q17.6-7.6 17.6-36.6v-54.5q0-22.5-12-31.6l-13.6-13.6m-4 50.1v47.7q0 16-13.3 16H-2.6v-79.7h19.4q13.3 0 13.3 16"/><path fill="none" stroke="#43131B" stroke-width="2" stroke-linecap="round" stroke-linejoin="round" d="M34.1-161.6v8l-8.4-.7H-32v207h-14l14 14h29.5v-89.2h17.9l16.4 75.2H20.6l14.1 14h28l-20.6-92q17.6-7.6 17.6-36.6v-54.5q0-22.5-12-31.6l-13.6-13.6"/><path fill="none" stroke="#43131B" stroke-width="2" stroke-linecap="round" stroke-linejoin="round" d="M30.1-111.5v47.7q0 16-13.3 16H-2.4v-79.7h19.4q13.2 0 13.2 16"/><path fill="#A6394D" stroke="#43131B" stroke-width="2" stroke-linecap="round" stroke-linejoin="round" d="M158.8-168.3v14H99.6v207h-14l14 14H173V40l-14-14.1V40h-29.7v-73.6H168v-26.8l-14.1-14v14h-24.7v-67.1H173v-26.8h-.1l-14-14m121-.1l-10.5 14.1h-2.8L248-72.7h-.5l-16.7-81.6-14.1-14.1v14.1h-14.8L228-45l-24.5 97.7H186l14 14h27.5l20-84h.6l13.8 70h-11.3l14.1 14.1h28.6L267.4-45 294-154.3l-14.2-14.1"/><path fill="#E2596D" d="M-219.8-140.6v-28.8H-295V53.7h31.5V-46.7h38.8v-28.8h-38.8v-65h43.8"/><path fill="#E2596D" d="M-220.8-141.6v-26.8H-294V52.7h29.5V-47.7h38.8v-26.8h-38.8v-67h43.8m42-18.1q-9.2 9.8-9.2 29.1V15.2q0 19.2 9.2 28.9 9.2 9.6 27.5 9.6h27.7q18.3 0 27.5-9.7 9.2-9.6 9.2-28.8v-145.7q0-19.3-9.1-29.1-9.2-9.8-27.3-9.8h-28.3q-18.1 0-27.3 9.8m34.4 19h13.8q12.3 0 12.3 12V13q0 11.9-10.7 11.9h-15.1q-12.3 0-12.3-11.9v-141.7q0-11.9 12-11.9"/><path fill="#E2596D" d="M-123.2-168.3h-28.3q-35.4 0-35.4 37.8V15.2q0 37.5 35.7 37.5h27.7q35.8 0 35.8-37.5v-145.7q0-37.9-35.4-37.9m-21.3 26.9h13.9q13.2 0 13.2 12.9V13q0 12.9-11.7 12.9h-15.1q-13.2 0-13.2-12.9v-141.7q0-12.9 12.9-12.9m182.2-18q-8.7-9.8-26.1-9.8h-58.9V53.8h31.6v-89.2h16l19.4 89.2h30L29.3-38.8Q46.5-47 46.5-76v-54.5q0-19.3-8.8-29.1m-22.8 34v47.8q0 15-12.3 15h-18.3v-77.8H2.8q12.2 0 12.2 15"/><path fill="#E2596D" d="M45.5-130.5q0-37.9-33.8-37.9h-57.9V52.8h29.6v-89.2H1.1l19.4 89.2h28L28-39.3Q45.5-47 45.5-76v-54.5m-29.5 5v47.7q0 16-13.3 16h-19.3v-79.8H2.8q13.2 0 13.2 16m100.2-15h43.7v-28.8H84.6V53.7h75.3V24.9h-43.7v-71.5h38.7v-28.8h-38.7v-65.1"/><path fill="#E2596D" d="M115.2-141.6h43.7v-26.8H85.6V52.7h73.3V25.9h-43.7v-73.5h38.7v-26.8h-38.7v-67.1M281-169.4h-29.4l-18 79.2-16.1-79.3h-31.1L212.9-59 184.6 53.7h29.6l19.4-81.8 16.1 81.8h30.8L254.4-59.1l26.7-110.3"/><path fill="#E2596D" d="M279.9-168.3h-27.4L234-86.8h-.6l-16.7-81.6h-28.9L213.9-59 186 52.7h27.5l20-84h.6l16.6 84h28.6L253.4-59.1l26.4-109.3"/></symbol></defs><g overflow="visible"><g display="none"><use xlink:href="#a" transform="matrix(.988 0 0 .988 347.1 231.3)"/><use xlink:href="#b" transform="matrix(.988 0 0 .988 27 36.3)" opacity=".7"/><use xlink:href="#b" transform="matrix(.988 0 0 .988 -674.7 36.3)" opacity=".7"/><use xlink:href="#c" transform="matrix(.988 0 0 .988 347.1 231.3)"/><animate attributeName="display" repeatCount="indefinite" dur="4.917s" keyTimes="0;1;1" values="none;inline;none"/></g><g display="none"><use xlink:href="#a" transform="matrix(.988 0 0 .988 347.1 231.3)"/><use xlink:href="#b" transform="matrix(.988 0 0 .988 32.9 36.3)" opacity=".7"/><use xlink:href="#b" transform="matrix(.988 0 0 .988 -668.8 36.3)" opacity=".7"/><use xlink:href="#c" transform="matrix(.988 0 0 .988 347.1 231.3)"/><animate attributeName="display" repeatCount="indefinite" dur="4.917s" keyTimes="0;0.992;1" values="none;inline;none"/></g><g display="none"><use xlink:href="#a" transform="matrix(.988 0 0 .988 347.1 231.3)"/><use xlink:href="#b" transform="matrix(.988 0 0 .988 38.9 36.3)" opacity=".7"/><use xlink:href="#b" transform="matrix(.988 0 0 .988 -662.9 36.3)" opacity=".7"/><use xlink:href="#c" transform="matrix(.988 0 0 .988 347.1 231.3)"/><animate attributeName="display" repeatCount="indefinite" dur="4.917s" keyTimes="0;0.983;0.992;1" values="none;inline;none;none"/></g><g display="none"><use xlink:href="#a" transform="matrix(.988 0 0 .988 347.1 231.3)"/><use xlink:href="#b" transform="matrix(.988 0 0 .988 44.8 36.3)" opacity=".7"/><use xlink:href="#b" transform="matrix(.988 0 0 .988 -657 36.3)" opacity=".7"/><use xlink:href="#c" transform="matrix(.988 0 0 .988 347.1 231.3)"/><animate attributeName="display" repeatCount="indefinite" dur="4.917s" keyTimes="0;0.975;0.983;1" values="none;inline;none;none"/></g><g display="none"><use xlink:href="#a" transform="matrix(.988 0 0 .988 347.1 231.3)"/><use xlink:href="#b" transform="matrix(.988 0 0 .988 50.6 36.3)" opacity=".7"/><use xlink:href="#b" transform="matrix(.988 0 0 .988 -651.1 36.3)" opacity=".7"/><use xlink:href="#c" transform="matrix(.988 0 0 .988 347.1 231.3)"/><animate attributeName="display" repeatCount="indefinite" dur="4.917s" keyTimes="0;0.966;0.975;1" values="none;inline;none;none"/></g><g display="none"><use xlink:href="#a" transform="matrix(.988 0 0 .988 347.1 231.3)"/><use xlink:href="#b" transform="matrix(.988 0 0 .988 56.5 36.3)" opacity=".7"/><use xlink:href="#b" transform="matrix(.988 0 0 .988 -645.2 36.3)" opacity=".7"/><use xlink:href="#c" transform="matrix(.988 0 0 .988 347.1 231.3)"/><animate attributeName="display" repeatCount="indefinite" dur="4.917s" keyTimes="0;0.958;0.966;1" values="none;inline;none;none"/></g><g display="none"><use xlink:href="#a" transform="matrix(.988 0 0 .988 347.1 231.3)"/><use xlink:href="#b" transform="matrix(.988 0 0 .988 62.4 36.3)" opacity=".7"/><use xlink:href="#b" transform="matrix(.988 0 0 .988 -639.3 36.3)" opacity=".7"/><use xlink:href="#c" transform="matrix(.988 0 0 .988 347.1 231.3)"/><animate attributeName="display" repeatCount="indefinite" dur="4.917s" keyTimes="0;0.949;0.958;1" values="none;inline;none;none"/></g><g display="none"><use xlink:href="#a" transform="matrix(.988 0 0 .988 347.1 231.3)"/><use xlink:href="#b" transform="matrix(.988 0 0 .988 68.3 36.3)" opacity=".7"/><use xlink:href="#b" transform="matrix(.988 0 0 .988 -633.4 36.3)" opacity=".7"/><use xlink:href="#c" transform="matrix(.988 0 0 .988 347.1 231.3)"/><animate attributeName="display" repeatCount="indefinite" dur="4.917s" keyTimes="0;0.941;0.949;1" values="none;inline;none;none"/></g><g display="none"><use xlink:href="#a" transform="matrix(.988 0 0 .988 347.1 231.3)"/><use xlink:href="#b" transform="matrix(.988 0 0 .988 74.2 36.3)" opacity=".7"/><use xlink:href="#b" transform="matrix(.988 0 0 .988 -627.5 36.3)" opacity=".7"/><use xlink:href="#c" transform="matrix(.988 0 0 .988 347.1 231.3)"/><animate attributeName="display" repeatCount="indefinite" dur="4.917s" keyTimes="0;0.932;0.941;1" values="none;inline;none;none"/></g><g display="none"><use xlink:href="#a" transform="matrix(.988 0 0 .988 347.1 231.3)"/><use xlink:href="#b" transform="matrix(.988 0 0 .988 80.1 36.3)" opacity=".7"/><use xlink:href="#b" transform="matrix(.988 0 0 .988 -621.6 36.3)" opacity=".7"/><use xlink:href="#c" transform="matrix(.988 0 0 .988 347.1 231.3)"/><animate attributeName="display" repeatCount="indefinite" dur="4.917s" keyTimes="0;0.924;0.932;1" values="none;inline;none;none"/></g><g display="none"><use xlink:href="#a" transform="matrix(.988 0 0 .988 347.1 231.3)"/><use xlink:href="#b" transform="matrix(.988 0 0 .988 86 36.3)" opacity=".7"/><use xlink:href="#b" transform="matrix(.988 0 0 .988 -615.7 36.3)" opacity=".7"/><use xlink:href="#c" transform="matrix(.988 0 0 .988 347.1 231.3)"/><animate attributeName="display" repeatCount="indefinite" dur="4.917s" keyTimes="0;0.915;0.924;1" values="none;inline;none;none"/></g><g display="none"><use xlink:href="#a" transform="matrix(.988 0 0 .988 347.1 231.3)"/><use xlink:href="#b" transform="matrix(.988 0 0 .988 91.8 36.3)" opacity=".7"/><use xlink:href="#b" transform="matrix(.988 0 0 .988 -609.8 36.3)" opacity=".7"/><use xlink:href="#c" transform="matrix(.988 0 0 .988 347.1 231.3)"/><animate attributeName="display" repeatCount="indefinite" dur="4.917s" keyTimes="0;0.907;0.915;1" values="none;inline;none;none"/></g><g display="none"><use xlink:href="#a" transform="matrix(.988 0 0 .988 347.1 231.3)"/><use xlink:href="#b" transform="matrix(.988 0 0 .988 97.8 36.3)" opacity=".7"/><use xlink:href="#b" transform="matrix(.988 0 0 .988 -603.9 36.3)" opacity=".7"/><use xlink:href="#c" transform="matrix(.988 0 0 .988 347.1 231.3)"/><animate attributeName="display" repeatCount="indefinite" dur="4.917s" keyTimes="0;0.898;0.907;1" values="none;inline;none;none"/></g><g display="none"><use xlink:href="#a" transform="matrix(.988 0 0 .988 347.1 231.3)"/><use xlink:href="#b" transform="matrix(.988 0 0 .988 103.7 36.3)" opacity=".7"/><use xlink:href="#b" transform="matrix(.988 0 0 .988 -598 36.3)" opacity=".7"/><use xlink:href="#c" transform="matrix(.988 0 0 .988 347.1 231.3)"/><animate attributeName="display" repeatCount="indefinite" dur="4.917s" keyTimes="0;0.89;0.898;1" values="none;inline;none;none"/></g><g display="none"><use xlink:href="#a" transform="matrix(.988 0 0 .988 347.1 231.3)"/><use xlink:href="#b" transform="matrix(.988 0 0 .988 109.5 36.3)" opacity=".7"/><use xlink:href="#b" transform="matrix(.988 0 0 .988 -592.1 36.3)" opacity=".7"/><use xlink:href="#c" transform="matrix(.988 0 0 .988 347.1 231.3)"/><animate attributeName="display" repeatCount="indefinite" dur="4.917s" keyTimes="0;0.881;0.89;1" values="none;inline;none;none"/></g><g display="none"><use xlink:href="#a" transform="matrix(.988 0 0 .988 347.1 231.3)"/><use xlink:href="#b" transform="matrix(.988 0 0 .988 115.5 36.3)" opacity=".7"/><use xlink:href="#b" transform="matrix(.988 0 0 .988 -586.2 36.3)" opacity=".7"/><use xlink:href="#c" transform="matrix(.988 0 0 .988 347.1 231.3)"/><animate attributeName="display" repeatCount="indefinite" dur="4.917s" keyTimes="0;0.873;0.881;1" values="none;inline;none;none"/></g><g display="none"><use xlink:href="#a" transform="matrix(.988 0 0 .988 347.1 231.3)"/><use xlink:href="#b" transform="matrix(.988 0 0 .988 121.3 36.3)" opacity=".7"/><use xlink:href="#b" transform="matrix(.988 0 0 .988 -580.3 36.3)" opacity=".7"/><use xlink:href="#c" transform="matrix(.988 0 0 .988 347.1 231.3)"/><animate attributeName="display" repeatCount="indefinite" dur="4.917s" keyTimes="0;0.864;0.873;1" values="none;inline;none;none"/></g><g display="none"><use xlink:href="#a" transform="matrix(.988 0 0 .988 347.1 231.3)"/><use xlink:href="#b" transform="matrix(.988 0 0 .988 127.3 36.3)" opacity=".7"/><use xlink:href="#b" transform="matrix(.988 0 0 .988 -574.4 36.3)" opacity=".7"/><use xlink:href="#c" transform="matrix(.988 0 0 .988 347.1 231.3)"/><animate attributeName="display" repeatCount="indefinite" dur="4.917s" keyTimes="0;0.856;0.864;1" values="none;inline;none;none"/></g><g display="none"><use xlink:href="#a" transform="matrix(.988 0 0 .988 347.1 231.3)"/><use xlink:href="#b" transform="matrix(.988 0 0 .988 133.2 36.3)" opacity=".7"/><use xlink:href="#b" transform="matrix(.988 0 0 .988 -568.5 36.3)" opacity=".7"/><use xlink:href="#c" transform="matrix(.988 0 0 .988 347.1 231.3)"/><animate attributeName="display" repeatCount="indefinite" dur="4.917s" keyTimes="0;0.847;0.856;1" values="none;inline;none;none"/></g><g display="none"><use xlink:href="#a" transform="matrix(.988 0 0 .988 347.1 231.3)"/><use xlink:href="#b" transform="matrix(.988 0 0 .988 139 36.3)" opacity=".7"/><use xlink:href="#b" transform="matrix(.988 0 0 .988 -562.6 36.3)" opacity=".7"/><use xlink:href="#c" transform="matrix(.988 0 0 .988 347.1 231.3)"/><animate attributeName="display" repeatCount="indefinite" dur="4.917s" keyTimes="0;0.839;0.847;1" values="none;inline;none;none"/></g><g display="none"><use xlink:href="#a" transform="matrix(.988 0 0 .988 347.1 231.3)"/><use xlink:href="#b" transform="matrix(.988 0 0 .988 144.9 36.3)" opacity=".7"/><use xlink:href="#b" transform="matrix(.988 0 0 .988 -556.7 36.3)" opacity=".7"/><use xlink:href="#c" transform="matrix(.988 0 0 .988 347.1 231.3)"/><animate attributeName="display" repeatCount="indefinite" dur="4.917s" keyTimes="0;0.831;0.839;1" values="none;inline;none;none"/></g><g display="none"><use xlink:href="#a" transform="matrix(.988 0 0 .988 347.1 231.3)"/><use xlink:href="#b" transform="matrix(.988 0 0 .988 150.8 36.3)" opacity=".7"/><use xlink:href="#b" transform="matrix(.988 0 0 .988 -550.8 36.3)" opacity=".7"/><use xlink:href="#c" transform="matrix(.988 0 0 .988 347.1 231.3)"/><animate attributeName="display" repeatCount="indefinite" dur="4.917s" keyTimes="0;0.822;0.831;1" values="none;inline;none;none"/></g><g display="none"><use xlink:href="#a" transform="matrix(.988 0 0 .988 347.1 231.3)"/><use xlink:href="#b" transform="matrix(.988 0 0 .988 156.8 36.3)" opacity=".7"/><use xlink:href="#b" transform="matrix(.988 0 0 .988 -545 36.3)" opacity=".7"/><use xlink:href="#c" transform="matrix(.988 0 0 .988 347.1 231.3)"/><animate attributeName="display" repeatCount="indefinite" dur="4.917s" keyTimes="0;0.814;0.822;1" values="none;inline;none;none"/></g><g display="none"><use xlink:href="#a" transform="matrix(.988 0 0 .988 347.1 231.3)"/><use xlink:href="#b" transform="matrix(.988 0 0 .988 162.6 36.3)" opacity=".7"/><use xlink:href="#b" transform="matrix(.988 0 0 .988 -539 36.3)" opacity=".7"/><use xlink:href="#c" transform="matrix(.988 0 0 .988 347.1 231.3)"/><animate attributeName="display" repeatCount="indefinite" dur="4.917s" keyTimes="0;0.805;0.814;1" values="none;inline;none;none"/></g><g display="none"><use xlink:href="#a" transform="matrix(.988 0 0 .988 347.1 231.3)"/><use xlink:href="#b" transform="matrix(.988 0 0 .988 168.6 36.3)" opacity=".7"/><use xlink:href="#b" transform="matrix(.988 0 0 .988 -533.1 36.3)" opacity=".7"/><use xlink:href="#c" transform="matrix(.988 0 0 .988 347.1 231.3)"/><animate attributeName="display" repeatCount="indefinite" dur="4.917s" keyTimes="0;0.797;0.805;1" values="none;inline;none;none"/></g><g display="none"><use xlink:href="#a" transform="matrix(.988 0 0 .988 347.1 231.3)"/><use xlink:href="#b" transform="matrix(.988 0 0 .988 174.4 36.3)" opacity=".7"/><use xlink:href="#b" transform="matrix(.988 0 0 .988 -527.2 36.3)" opacity=".7"/><use xlink:href="#c" transform="matrix(.988 0 0 .988 347.1 231.3)"/><animate attributeName="display" repeatCount="indefinite" dur="4.917s" keyTimes="0;0.788;0.797;1" values="none;inline;none;none"/></g><g display="none"><use xlink:href="#a" transform="matrix(.988 0 0 .988 347.1 231.3)"/><use xlink:href="#b" transform="matrix(.988 0 0 .988 180.3 36.3)" opacity=".7"/><use xlink:href="#b" transform="matrix(.988 0 0 .988 -521.3 36.3)" opacity=".7"/><use xlink:href="#c" transform="matrix(.988 0 0 .988 347.1 231.3)"/><animate attributeName="display" repeatCount="indefinite" dur="4.917s" keyTimes="0;0.78;0.788;1" values="none;inline;none;none"/></g><g display="none"><use xlink:href="#a" transform="matrix(.988 0 0 .988 347.1 231.3)"/><use xlink:href="#b" transform="matrix(.988 0 0 .988 186.2 36.3)" opacity=".7"/><use xlink:href="#b" transform="matrix(.988 0 0 .988 -515.5 36.3)" opacity=".7"/><use xlink:href="#c" transform="matrix(.988 0 0 .988 347.1 231.3)"/><animate attributeName="display" repeatCount="indefinite" dur="4.917s" keyTimes="0;0.771;0.78;1" values="none;inline;none;none"/></g><g display="none"><use xlink:href="#a" transform="matrix(.988 0 0 .988 347.1 231.3)"/><use xlink:href="#b" transform="matrix(.988 0 0 .988 192.1 36.3)" opacity=".7"/><use xlink:href="#b" transform="matrix(.988 0 0 .988 -509.5 36.3)" opacity=".7"/><use xlink:href="#c" transform="matrix(.988 0 0 .988 347.1 231.3)"/><animate attributeName="display" repeatCount="indefinite" dur="4.917s" keyTimes="0;0.763;0.771;1" values="none;inline;none;none"/></g><g display="none"><use xlink:href="#a" transform="matrix(.988 0 0 .988 347.1 231.3)"/><use xlink:href="#b" transform="matrix(.988 0 0 .988 198 36.3)" opacity=".7"/><use xlink:href="#b" transform="matrix(.988 0 0 .988 -503.6 36.3)" opacity=".7"/><use xlink:href="#c" transform="matrix(.988 0 0 .988 347.1 231.3)"/><animate attributeName="display" repeatCount="indefinite" dur="4.917s" keyTimes="0;0.754;0.763;1" values="none;inline;none;none"/></g><g display="none"><use xlink:href="#a" transform="matrix(.988 0 0 .988 347.1 231.3)"/><use xlink:href="#b" transform="matrix(.988 0 0 .988 203.9 36.3)" opacity=".7"/><use xlink:href="#b" transform="matrix(.988 0 0 .988 -497.8 36.3)" opacity=".7"/><use xlink:href="#c" transform="matrix(.988 0 0 .988 347.1 231.3)"/><animate attributeName="display" repeatCount="indefinite" dur="4.917s" keyTimes="0;0.746;0.754;1" values="none;inline;none;none"/></g><g display="none"><use xlink:href="#a" transform="matrix(.988 0 0 .988 347.1 231.3)"/><use xlink:href="#b" transform="matrix(.988 0 0 .988 209.8 36.3)" opacity=".7"/><use xlink:href="#b" transform="matrix(.988 0 0 .988 -491.8 36.3)" opacity=".7"/><use xlink:href="#c" transform="matrix(.988 0 0 .988 347.1 231.3)"/><animate attributeName="display" repeatCount="indefinite" dur="4.917s" keyTimes="0;0.737;0.746;1" values="none;inline;none;none"/></g><g display="none"><use xlink:href="#a" transform="matrix(.988 0 0 .988 347.1 231.3)"/><use xlink:href="#b" transform="matrix(.988 0 0 .988 215.7 36.3)" opacity=".7"/><use xlink:href="#b" transform="matrix(.988 0 0 .988 -486 36.3)" opacity=".7"/><use xlink:href="#c" transform="matrix(.988 0 0 .988 347.1 231.3)"/><animate attributeName="display" repeatCount="indefinite" dur="4.917s" keyTimes="0;0.729;0.737;1" values="none;inline;none;none"/></g><g display="none"><use xlink:href="#a" transform="matrix(.988 0 0 .988 347.1 231.3)"/><use xlink:href="#b" transform="matrix(.988 0 0 .988 221.6 36.3)" opacity=".7"/><use xlink:href="#b" transform="matrix(.988 0 0 .988 -480 36.3)" opacity=".7"/><use xlink:href="#c" transform="matrix(.988 0 0 .988 347.1 231.3)"/><animate attributeName="display" repeatCount="indefinite" dur="4.917s" keyTimes="0;0.72;0.729;1" values="none;inline;none;none"/></g><g display="none"><use xlink:href="#a" transform="matrix(.988 0 0 .988 347.1 231.3)"/><use xlink:href="#b" transform="matrix(.988 0 0 .988 227.4 36.3)" opacity=".7"/><use xlink:href="#b" transform="matrix(.988 0 0 .988 -474.1 36.3)" opacity=".7"/><use xlink:href="#c" transform="matrix(.988 0 0 .988 347.1 231.3)"/><animate attributeName="display" repeatCount="indefinite" dur="4.917s" keyTimes="0;0.712;0.72;1" values="none;inline;none;none"/></g><g display="none"><use xlink:href="#a" transform="matrix(.988 0 0 .988 347.1 231.3)"/><use xlink:href="#b" transform="matrix(.988 0 0 .988 233.3 36.3)" opacity=".7"/><use xlink:href="#b" transform="matrix(.988 0 0 .988 -468.3 36.3)" opacity=".7"/><use xlink:href="#c" transform="matrix(.988 0 0 .988 347.1 231.3)"/><animate attributeName="display" repeatCount="indefinite" dur="4.917s" keyTimes="0;0.703;0.712;1" values="none;inline;none;none"/></g><g display="none"><use xlink:href="#a" transform="matrix(.988 0 0 .988 347.1 231.3)"/><use xlink:href="#b" transform="matrix(.988 0 0 .988 239.3 36.3)" opacity=".7"/><use xlink:href="#b" transform="matrix(.988 0 0 .988 -462.3 36.3)" opacity=".7"/><use xlink:href="#c" transform="matrix(.988 0 0 .988 347.1 231.3)"/><animate attributeName="display" repeatCount="indefinite" dur="4.917s" keyTimes="0;0.695;0.703;1" values="none;inline;none;none"/></g><g display="none"><use xlink:href="#a" transform="matrix(.988 0 0 .988 347.1 231.3)"/><use xlink:href="#b" transform="matrix(.988 0 0 .988 245.2 36.3)" opacity=".7"/><use xlink:href="#b" transform="matrix(.988 0 0 .988 -456.5 36.3)" opacity=".7"/><use xlink:href="#c" transform="matrix(.988 0 0 .988 347.1 231.3)"/><animate attributeName="display" repeatCount="indefinite" dur="4.917s" keyTimes="0;0.686;0.695;1" values="none;inline;none;none"/></g><g display="none"><use xlink:href="#a" transform="matrix(.988 0 0 .988 347.1 231.3)"/><use xlink:href="#b" transform="matrix(.988 0 0 .988 251 36.3)" opacity=".7"/><use xlink:href="#b" transform="matrix(.988 0 0 .988 -450.5 36.3)" opacity=".7"/><use xlink:href="#c" transform="matrix(.988 0 0 .988 347.1 231.3)"/><animate attributeName="display" repeatCount="indefinite" dur="4.917s" keyTimes="0;0.678;0.686;1" values="none;inline;none;none"/></g><g display="none"><use xlink:href="#a" transform="matrix(.988 0 0 .988 347.1 231.3)"/><use xlink:href="#b" transform="matrix(.988 0 0 .988 257 36.3)" opacity=".7"/><use xlink:href="#b" transform="matrix(.988 0 0 .988 -444.7 36.3)" opacity=".7"/><use xlink:href="#c" transform="matrix(.988 0 0 .988 347.1 231.3)"/><animate attributeName="display" repeatCount="indefinite" dur="4.917s" keyTimes="0;0.669;0.678;1" values="none;inline;none;none"/></g><g display="none"><use xlink:href="#a" transform="matrix(.988 0 0 .988 347.1 231.3)"/><use xlink:href="#b" transform="matrix(.988 0 0 .988 262.9 36.3)" opacity=".7"/><use xlink:href="#b" transform="matrix(.988 0 0 .988 -438.8 36.3)" opacity=".7"/><use xlink:href="#c" transform="matrix(.988 0 0 .988 347.1 231.3)"/><animate attributeName="display" repeatCount="indefinite" dur="4.917s" keyTimes="0;0.661;0.669;1" values="none;inline;none;none"/></g><g display="none"><use xlink:href="#a" transform="matrix(.988 0 0 .988 347.1 231.3)"/><use xlink:href="#b" transform="matrix(.988 0 0 .988 268.7 36.3)" opacity=".7"/><use xlink:href="#b" transform="matrix(.988 0 0 .988 -432.8 36.3)" opacity=".7"/><use xlink:href="#c" transform="matrix(.988 0 0 .988 347.1 231.3)"/><animate attributeName="display" repeatCount="indefinite" dur="4.917s" keyTimes="0;0.653;0.661;1" values="none;inline;none;none"/></g><g display="none"><use xlink:href="#a" transform="matrix(.988 0 0 .988 347.1 231.3)"/><use xlink:href="#b" transform="matrix(.988 0 0 .988 274.6 36.3)" opacity=".7"/><use xlink:href="#b" transform="matrix(.988 0 0 .988 -427 36.3)" opacity=".7"/><use xlink:href="#c" transform="matrix(.988 0 0 .988 347.1 231.3)"/><animate attributeName="display" repeatCount="indefinite" dur="4.917s" keyTimes="0;0.644;0.653;1" values="none;inline;none;none"/></g><g display="none"><use xlink:href="#a" transform="matrix(.988 0 0 .988 347.1 231.3)"/><use xlink:href="#b" transform="matrix(.988 0 0 .988 280.6 36.3)" opacity=".7"/><use xlink:href="#b" transform="matrix(.988 0 0 .988 -421.1 36.3)" opacity=".7"/><use xlink:href="#c" transform="matrix(.988 0 0 .988 347.1 231.3)"/><animate attributeName="display" repeatCount="indefinite" dur="4.917s" keyTimes="0;0.636;0.644;1" values="none;inline;none;none"/></g><g display="none"><use xlink:href="#a" transform="matrix(.988 0 0 .988 347.1 231.3)"/><use xlink:href="#b" transform="matrix(.988 0 0 .988 286.4 36.3)" opacity=".7"/><use xlink:href="#b" transform="matrix(.988 0 0 .988 -415.2 36.3)" opacity=".7"/><use xlink:href="#c" transform="matrix(.988 0 0 .988 347.1 231.3)"/><animate attributeName="display" repeatCount="indefinite" dur="4.917s" keyTimes="0;0.627;0.636;1" values="none;inline;none;none"/></g><g display="none"><use xlink:href="#a" transform="matrix(.988 0 0 .988 347.1 231.3)"/><use xlink:href="#b" transform="matrix(.988 0 0 .988 292.4 36.3)" opacity=".7"/><use xlink:href="#b" transform="matrix(.988 0 0 .988 -409.3 36.3)" opacity=".7"/><use xlink:href="#c" transform="matrix(.988 0 0 .988 347.1 231.3)"/><animate attributeName="display" repeatCount="indefinite" dur="4.917s" keyTimes="0;0.619;0.627;1" values="none;inline;none;none"/></g><g display="none"><use xlink:href="#a" transform="matrix(.988 0 0 .988 347.1 231.3)"/><use xlink:href="#b" transform="matrix(.988 0 0 .988 298.2 36.3)" opacity=".7"/><use xlink:href="#b" transform="matrix(.988 0 0 .988 -403.4 36.3)" opacity=".7"/><use xlink:href="#c" transform="matrix(.988 0 0 .988 347.1 231.3)"/><animate attributeName="display" repeatCount="indefinite" dur="4.917s" keyTimes="0;0.61;0.619;1" values="none;inline;none;none"/></g><g display="none"><use xlink:href="#a" transform="matrix(.988 0 0 .988 347.1 231.3)"/><use xlink:href="#b" transform="matrix(.988 0 0 .988 304.1 36.3)" opacity=".7"/><use xlink:href="#b" transform="matrix(.988 0 0 .988 -397.5 36.3)" opacity=".7"/><use xlink:href="#c" transform="matrix(.988 0 0 .988 347.1 231.3)"/><animate attributeName="display" repeatCount="indefinite" dur="4.917s" keyTimes="0;0.602;0.61;1" values="none;inline;none;none"/></g><g display="none"><use xlink:href="#a" transform="matrix(.988 0 0 .988 347.1 231.3)"/><use xlink:href="#b" transform="matrix(.988 0 0 .988 310 36.3)" opacity=".7"/><use xlink:href="#b" transform="matrix(.988 0 0 .988 -391.6 36.3)" opacity=".7"/><use xlink:href="#c" transform="matrix(.988 0 0 .988 347.1 231.3)"/><animate attributeName="display" repeatCount="indefinite" dur="4.917s" keyTimes="0;0.593;0.602;1" values="none;inline;none;none"/></g><g display="none"><use xlink:href="#a" transform="matrix(.988 0 0 .988 347.1 231.3)"/><use xlink:href="#b" transform="matrix(.988 0 0 .988 315.9 36.3)" opacity=".7"/><use xlink:href="#b" transform="matrix(.988 0 0 .988 -385.7 36.3)" opacity=".7"/><use xlink:href="#c" transform="matrix(.988 0 0 .988 347.1 231.3)"/><animate attributeName="display" repeatCount="indefinite" dur="4.917s" keyTimes="0;0.585;0.593;1" values="none;inline;none;none"/></g><g display="none"><use xlink:href="#a" transform="matrix(.988 0 0 .988 347.1 231.3)"/><use xlink:href="#b" transform="matrix(.988 0 0 .988 321.8 36.3)" opacity=".7"/><use xlink:href="#b" transform="matrix(.988 0 0 .988 -379.8 36.3)" opacity=".7"/><use xlink:href="#c" transform="matrix(.988 0 0 .988 347.1 231.3)"/><animate attributeName="display" repeatCount="indefinite" dur="4.917s" keyTimes="0;0.576;0.585;1" values="none;inline;none;none"/></g><g display="none"><use xlink:href="#a" transform="matrix(.988 0 0 .988 347.1 231.3)"/><use xlink:href="#b" transform="matrix(.988 0 0 .988 327.6 36.3)" opacity=".7"/><use xlink:href="#b" transform="matrix(.988 0 0 .988 -374 36.3)" opacity=".7"/><use xlink:href="#c" transform="matrix(.988 0 0 .988 347.1 231.3)"/><animate attributeName="display" repeatCount="indefinite" dur="4.917s" keyTimes="0;0.568;0.576;1" values="none;inline;none;none"/></g><g display="none"><use xlink:href="#a" transform="matrix(.988 0 0 .988 347.1 231.3)"/><use xlink:href="#b" transform="matrix(.988 0 0 .988 333.6 36.3)" opacity=".7"/><use xlink:href="#b" transform="matrix(.988 0 0 .988 -368 36.3)" opacity=".7"/><use xlink:href="#c" transform="matrix(.988 0 0 .988 347.1 231.3)"/><animate attributeName="display" repeatCount="indefinite" dur="4.917s" keyTimes="0;0.559;0.568;1" values="none;inline;none;none"/></g><g display="none"><use xlink:href="#a" transform="matrix(.988 0 0 .988 347.1 231.3)"/><use xlink:href="#b" transform="matrix(.988 0 0 .988 339.4 36.3)" opacity=".7"/><use xlink:href="#b" transform="matrix(.988 0 0 .988 -362.1 36.3)" opacity=".7"/><use xlink:href="#c" transform="matrix(.988 0 0 .988 347.1 231.3)"/><animate attributeName="display" repeatCount="indefinite" dur="4.917s" keyTimes="0;0.551;0.559;1" values="none;inline;none;none"/></g><g display="none"><use xlink:href="#a" transform="matrix(.988 0 0 .988 347.1 231.3)"/><use xlink:href="#b" transform="matrix(.988 0 0 .988 345.4 36.3)" opacity=".7"/><use xlink:href="#b" transform="matrix(.988 0 0 .988 -356.2 36.3)" opacity=".7"/><use xlink:href="#c" transform="matrix(.988 0 0 .988 347.1 231.3)"/><animate attributeName="display" repeatCount="indefinite" dur="4.917s" keyTimes="0;0.542;0.551;1" values="none;inline;none;none"/></g><g display="none"><use xlink:href="#a" transform="matrix(.988 0 0 .988 347.1 231.3)"/><use xlink:href="#b" transform="matrix(.988 0 0 .988 351.3 36.3)" opacity=".7"/><use xlink:href="#b" transform="matrix(.988 0 0 .988 -350.3 36.3)" opacity=".7"/><use xlink:href="#c" transform="matrix(.988 0 0 .988 347.1 231.3)"/><animate attributeName="display" repeatCount="indefinite" dur="4.917s" keyTimes="0;0.534;0.542;1" values="none;inline;none;none"/></g><g display="none"><use xlink:href="#a" transform="matrix(.988 0 0 .988 347.1 231.3)"/><use xlink:href="#b" transform="matrix(.988 0 0 .988 357.1 36.3)" opacity=".7"/><use xlink:href="#b" transform="matrix(.988 0 0 .988 -344.4 36.3)" opacity=".7"/><use xlink:href="#c" transform="matrix(.988 0 0 .988 347.1 231.3)"/><animate attributeName="display" repeatCount="indefinite" dur="4.917s" keyTimes="0;0.525;0.534;1" values="none;inline;none;none"/></g><g display="none"><use xlink:href="#a" transform="matrix(.988 0 0 .988 347.1 231.3)"/><use xlink:href="#b" transform="matrix(.988 0 0 .988 363 36.3)" opacity=".7"/><use xlink:href="#b" transform="matrix(.988 0 0 .988 -338.5 36.3)" opacity=".7"/><use xlink:href="#c" transform="matrix(.988 0 0 .988 347.1 231.3)"/><animate attributeName="display" repeatCount="indefinite" dur="4.917s" keyTimes="0;0.517;0.525;1" values="none;inline;none;none"/></g><g display="none"><use xlink:href="#a" transform="matrix(.988 0 0 .988 347.1 231.3)"/><use xlink:href="#b" transform="matrix(.988 0 0 .988 369 36.3)" opacity=".7"/><use xlink:href="#b" transform="matrix(.988 0 0 .988 -332.6 36.3)" opacity=".7"/><use xlink:href="#c" transform="matrix(.988 0 0 .988 347.1 231.3)"/><animate attributeName="display" repeatCount="indefinite" dur="4.917s" keyTimes="0;0.508;0.517;1" values="none;inline;none;none"/></g><g display="none"><use xlink:href="#a" transform="matrix(.988 0 0 .988 347.1 231.3)"/><use xlink:href="#b" transform="matrix(.988 0 0 .988 374.9 36.3)" opacity=".7"/><use xlink:href="#b" transform="matrix(.988 0 0 .988 -326.7 36.3)" opacity=".7"/><use xlink:href="#c" transform="matrix(.988 0 0 .988 347.1 231.3)"/><animate attributeName="display" repeatCount="indefinite" dur="4.917s" keyTimes="0;0.5;0.508;1" values="none;inline;none;none"/></g><g display="none"><use xlink:href="#a" transform="matrix(.988 0 0 .988 347.1 231.3)"/><use xlink:href="#b" transform="matrix(.988 0 0 .988 380.7 36.3)" opacity=".7"/><use xlink:href="#b" transform="matrix(.988 0 0 .988 -320.8 36.3)" opacity=".7"/><use xlink:href="#c" transform="matrix(.988 0 0 .988 347.1 231.3)"/><animate attributeName="display" repeatCount="indefinite" dur="4.917s" keyTimes="0;0.492;0.5;1" values="none;inline;none;none"/></g><g display="none"><use xlink:href="#a" transform="matrix(.988 0 0 .988 347.1 231.3)"/><use xlink:href="#b" transform="matrix(.988 0 0 .988 386.6 36.3)" opacity=".7"/><use xlink:href="#b" transform="matrix(.988 0 0 .988 -315 36.3)" opacity=".7"/><use xlink:href="#c" transform="matrix(.988 0 0 .988 347.1 231.3)"/><animate attributeName="display" repeatCount="indefinite" dur="4.917s" keyTimes="0;0.483;0.492;1" values="none;inline;none;none"/></g><g display="none"><use xlink:href="#a" transform="matrix(.988 0 0 .988 347.1 231.3)"/><use xlink:href="#b" transform="matrix(.988 0 0 .988 392.6 36.3)" opacity=".7"/><use xlink:href="#b" transform="matrix(.988 0 0 .988 -309 36.3)" opacity=".7"/><use xlink:href="#c" transform="matrix(.988 0 0 .988 347.1 231.3)"/><animate attributeName="display" repeatCount="indefinite" dur="4.917s" keyTimes="0;0.475;0.483;1" values="none;inline;none;none"/></g><g display="none"><use xlink:href="#a" transform="matrix(.988 0 0 .988 347.1 231.3)"/><use xlink:href="#b" transform="matrix(.988 0 0 .988 398.4 36.3)" opacity=".7"/><use xlink:href="#b" transform="matrix(.988 0 0 .988 -303.1 36.3)" opacity=".7"/><use xlink:href="#c" transform="matrix(.988 0 0 .988 347.1 231.3)"/><animate attributeName="display" repeatCount="indefinite" dur="4.917s" keyTimes="0;0.466;0.475;1" values="none;inline;none;none"/></g><g display="none"><use xlink:href="#a" transform="matrix(.988 0 0 .988 347.1 231.3)"/><use xlink:href="#b" transform="matrix(.988 0 0 .988 404.4 36.3)" opacity=".7"/><use xlink:href="#b" transform="matrix(.988 0 0 .988 -297.2 36.3)" opacity=".7"/><use xlink:href="#c" transform="matrix(.988 0 0 .988 347.1 231.3)"/><animate attributeName="display" repeatCount="indefinite" dur="4.917s" keyTimes="0;0.458;0.466;1" values="none;inline;none;none"/></g><g display="none"><use xlink:href="#a" transform="matrix(.988 0 0 .988 347.1 231.3)"/><use xlink:href="#b" transform="matrix(.988 0 0 .988 410.2 36.3)" opacity=".7"/><use xlink:href="#b" transform="matrix(.988 0 0 .988 -291.3 36.3)" opacity=".7"/><use xlink:href="#c" transform="matrix(.988 0 0 .988 347.1 231.3)"/><animate attributeName="display" repeatCount="indefinite" dur="4.917s" keyTimes="0;0.449;0.458;1" values="none;inline;none;none"/></g><g display="none"><use xlink:href="#a" transform="matrix(.988 0 0 .988 347.1 231.3)"/><use xlink:href="#b" transform="matrix(.988 0 0 .988 416.1 36.3)" opacity=".7"/><use xlink:href="#b" transform="matrix(.988 0 0 .988 -285.4 36.3)" opacity=".7"/><use xlink:href="#c" transform="matrix(.988 0 0 .988 347.1 231.3)"/><animate attributeName="display" repeatCount="indefinite" dur="4.917s" keyTimes="0;0.441;0.449;1" values="none;inline;none;none"/></g><g display="none"><use xlink:href="#a" transform="matrix(.988 0 0 .988 347.1 231.3)"/><use xlink:href="#b" transform="matrix(.988 0 0 .988 422 36.3)" opacity=".7"/><use xlink:href="#b" transform="matrix(.988 0 0 .988 -279.5 36.3)" opacity=".7"/><use xlink:href="#c" transform="matrix(.988 0 0 .988 347.1 231.3)"/><animate attributeName="display" repeatCount="indefinite" dur="4.917s" keyTimes="0;0.432;0.441;1" values="none;inline;none;none"/></g><g display="none"><use xlink:href="#a" transform="matrix(.988 0 0 .988 347.1 231.3)"/><use xlink:href="#b" transform="matrix(.988 0 0 .988 427.9 36.3)" opacity=".7"/><use xlink:href="#b" transform="matrix(.988 0 0 .988 -273.6 36.3)" opacity=".7"/><use xlink:href="#c" transform="matrix(.988 0 0 .988 347.1 231.3)"/><animate attributeName="display" repeatCount="indefinite" dur="4.917s" keyTimes="0;0.424;0.432;1" values="none;inline;none;none"/></g><g display="none"><use xlink:href="#a" transform="matrix(.988 0 0 .988 347.1 231.3)"/><use xlink:href="#b" transform="matrix(.988 0 0 .988 433.8 36.3)" opacity=".7"/><use xlink:href="#b" transform="matrix(.988 0 0 .988 -267.7 36.3)" opacity=".7"/><use xlink:href="#c" transform="matrix(.988 0 0 .988 347.1 231.3)"/><animate attributeName="display" repeatCount="indefinite" dur="4.917s" keyTimes="0;0.415;0.424;1" values="none;inline;none;none"/></g><g display="none"><use xlink:href="#a" transform="matrix(.988 0 0 .988 347.1 231.3)"/><use xlink:href="#b" transform="matrix(.988 0 0 .988 439.6 36.3)" opacity=".7"/><use xlink:href="#b" transform="matrix(.988 0 0 .988 -261.8 36.3)" opacity=".7"/><use xlink:href="#c" transform="matrix(.988 0 0 .988 347.1 231.3)"/><animate attributeName="display" repeatCount="indefinite" dur="4.917s" keyTimes="0;0.407;0.415;1" values="none;inline;none;none"/></g><g display="none"><use xlink:href="#a" transform="matrix(.988 0 0 .988 347.1 231.3)"/><use xlink:href="#b" transform="matrix(.988 0 0 .988 445.6 36.3)" opacity=".7"/><use xlink:href="#b" transform="matrix(.988 0 0 .988 -256 36.3)" opacity=".7"/><use xlink:href="#c" transform="matrix(.988 0 0 .988 347.1 231.3)"/><animate attributeName="display" repeatCount="indefinite" dur="4.917s" keyTimes="0;0.398;0.407;1" values="none;inline;none;none"/></g><g display="none"><use xlink:href="#a" transform="matrix(.988 0 0 .988 347.1 231.3)"/><use xlink:href="#b" transform="matrix(.988 0 0 .988 451.4 36.3)" opacity=".7"/><use xlink:href="#b" transform="matrix(.988 0 0 .988 -250.1 36.3)" opacity=".7"/><use xlink:href="#c" transform="matrix(.988 0 0 .988 347.1 231.3)"/><animate attributeName="display" repeatCount="indefinite" dur="4.917s" keyTimes="0;0.39;0.398;1" values="none;inline;none;none"/></g><g display="none"><use xlink:href="#a" transform="matrix(.988 0 0 .988 347.1 231.3)"/><use xlink:href="#b" transform="matrix(.988 0 0 .988 457.4 36.3)" opacity=".7"/><use xlink:href="#b" transform="matrix(.988 0 0 .988 -244.1 36.3)" opacity=".7"/><use xlink:href="#c" transform="matrix(.988 0 0 .988 347.1 231.3)"/><animate attributeName="display" repeatCount="indefinite" dur="4.917s" keyTimes="0;0.381;0.39;1" values="none;inline;none;none"/></g><g display="none"><use xlink:href="#a" transform="matrix(.988 0 0 .988 347.1 231.3)"/><use xlink:href="#b" transform="matrix(.988 0 0 .988 463.3 36.3)" opacity=".7"/><use xlink:href="#b" transform="matrix(.988 0 0 .988 -238.2 36.3)" opacity=".7"/><use xlink:href="#c" transform="matrix(.988 0 0 .988 347.1 231.3)"/><animate attributeName="display" repeatCount="indefinite" dur="4.917s" keyTimes="0;0.373;0.381;1" values="none;inline;none;none"/></g><g display="none"><use xlink:href="#a" transform="matrix(.988 0 0 .988 347.1 231.3)"/><use xlink:href="#b" transform="matrix(.988 0 0 .988 469.1 36.3)" opacity=".7"/><use xlink:href="#b" transform="matrix(.988 0 0 .988 -232.3 36.3)" opacity=".7"/><use xlink:href="#c" transform="matrix(.988 0 0 .988 347.1 231.3)"/><animate attributeName="display" repeatCount="indefinite" dur="4.917s" keyTimes="0;0.364;0.373;1" values="none;inline;none;none"/></g><g display="none"><use xlink:href="#a" transform="matrix(.988 0 0 .988 347.1 231.3)"/><use xlink:href="#b" transform="matrix(.988 0 0 .988 475.1 36.3)" opacity=".7"/><use xlink:href="#b" transform="matrix(.988 0 0 .988 -226.4 36.3)" opacity=".7"/><use xlink:href="#c" transform="matrix(.988 0 0 .988 347.1 231.3)"/><animate attributeName="display" repeatCount="indefinite" dur="4.917s" keyTimes="0;0.356;0.364;1" values="none;inline;none;none"/></g><g display="none"><use xlink:href="#a" transform="matrix(.988 0 0 .988 347.1 231.3)"/><use xlink:href="#b" transform="matrix(.988 0 0 .988 481 36.3)" opacity=".7"/><use xlink:href="#b" transform="matrix(.988 0 0 .988 -220.6 36.3)" opacity=".7"/><use xlink:href="#c" transform="matrix(.988 0 0 .988 347.1 231.3)"/><animate attributeName="display" repeatCount="indefinite" dur="4.917s" keyTimes="0;0.347;0.356;1" values="none;inline;none;none"/></g><g display="none"><use xlink:href="#a" transform="matrix(.988 0 0 .988 347.1 231.3)"/><use xlink:href="#b" transform="matrix(.988 0 0 .988 486.9 36.3)" opacity=".7"/><use xlink:href="#b" transform="matrix(.988 0 0 .988 -214.6 36.3)" opacity=".7"/><use xlink:href="#c" transform="matrix(.988 0 0 .988 347.1 231.3)"/><animate attributeName="display" repeatCount="indefinite" dur="4.917s" keyTimes="0;0.339;0.347;1" values="none;inline;none;none"/></g><g display="none"><use xlink:href="#a" transform="matrix(.988 0 0 .988 347.1 231.3)"/><use xlink:href="#b" transform="matrix(.988 0 0 .988 492.7 36.3)" opacity=".7"/><use xlink:href="#b" transform="matrix(.988 0 0 .988 -208.8 36.3)" opacity=".7"/><use xlink:href="#c" transform="matrix(.988 0 0 .988 347.1 231.3)"/><animate attributeName="display" repeatCount="indefinite" dur="4.917s" keyTimes="0;0.331;0.339;1" values="none;inline;none;none"/></g><g display="none"><use xlink:href="#a" transform="matrix(.988 0 0 .988 347.1 231.3)"/><use xlink:href="#b" transform="matrix(.988 0 0 .988 498.6 36.3)" opacity=".7"/><use xlink:href="#b" transform="matrix(.988 0 0 .988 -202.9 36.3)" opacity=".7"/><use xlink:href="#c" transform="matrix(.988 0 0 .988 347.1 231.3)"/><animate attributeName="display" repeatCount="indefinite" dur="4.917s" keyTimes="0;0.322;0.331;1" values="none;inline;none;none"/></g><g display="none"><use xlink:href="#a" transform="matrix(.988 0 0 .988 347.1 231.3)"/><use xlink:href="#b" transform="matrix(.988 0 0 .988 504.6 36.3)" opacity=".7"/><use xlink:href="#b" transform="matrix(.988 0 0 .988 -197 36.3)" opacity=".7"/><use xlink:href="#c" transform="matrix(.988 0 0 .988 347.1 231.3)"/><animate attributeName="display" repeatCount="indefinite" dur="4.917s" keyTimes="0;0.314;0.322;1" values="none;inline;none;none"/></g><g display="none"><use xlink:href="#a" transform="matrix(.988 0 0 .988 347.1 231.3)"/><use xlink:href="#b" transform="matrix(.988 0 0 .988 510.4 36.3)" opacity=".7"/><use xlink:href="#b" transform="matrix(.988 0 0 .988 -191.1 36.3)" opacity=".7"/><use xlink:href="#c" transform="matrix(.988 0 0 .988 347.1 231.3)"/><animate attributeName="display" repeatCount="indefinite" dur="4.917s" keyTimes="0;0.305;0.314;1" values="none;inline;none;none"/></g><g display="none"><use xlink:href="#a" transform="matrix(.988 0 0 .988 347.1 231.3)"/><use xlink:href="#b" transform="matrix(.988 0 0 .988 516.4 36.3)" opacity=".7"/><use xlink:href="#b" transform="matrix(.988 0 0 .988 -185.1 36.3)" opacity=".7"/><use xlink:href="#c" transform="matrix(.988 0 0 .988 347.1 231.3)"/><animate attributeName="display" repeatCount="indefinite" dur="4.917s" keyTimes="0;0.297;0.305;1" values="none;inline;none;none"/></g><g display="none"><use xlink:href="#a" transform="matrix(.988 0 0 .988 347.1 231.3)"/><use xlink:href="#b" transform="matrix(.988 0 0 .988 522.2 36.3)" opacity=".7"/><use xlink:href="#b" transform="matrix(.988 0 0 .988 -179.3 36.3)" opacity=".7"/><use xlink:href="#c" transform="matrix(.988 0 0 .988 347.1 231.3)"/><animate attributeName="display" repeatCount="indefinite" dur="4.917s" keyTimes="0;0.288;0.297;1" values="none;inline;none;none"/></g><g display="none"><use xlink:href="#a" transform="matrix(.988 0 0 .988 347.1 231.3)"/><use xlink:href="#b" transform="matrix(.988 0 0 .988 528.1 36.3)" opacity=".7"/><use xlink:href="#b" transform="matrix(.988 0 0 .988 -173.4 36.3)" opacity=".7"/><use xlink:href="#c" transform="matrix(.988 0 0 .988 347.1 231.3)"/><animate attributeName="display" repeatCount="indefinite" dur="4.917s" keyTimes="0;0.28;0.288;1" values="none;inline;none;none"/></g><g display="none"><use xlink:href="#a" transform="matrix(.988 0 0 .988 347.1 231.3)"/><use xlink:href="#b" transform="matrix(.988 0 0 .988 534 36.3)" opacity=".7"/><use xlink:href="#b" transform="matrix(.988 0 0 .988 -167.4 36.3)" opacity=".7"/><use xlink:href="#c" transform="matrix(.988 0 0 .988 347.1 231.3)"/><animate attributeName="display" repeatCount="indefinite" dur="4.917s" keyTimes="0;0.271;0.28;1" values="none;inline;none;none"/></g><g display="none"><use xlink:href="#a" transform="matrix(.988 0 0 .988 347.1 231.3)"/><use xlink:href="#b" transform="matrix(.988 0 0 .988 539.9 36.3)" opacity=".7"/><use xlink:href="#b" transform="matrix(.988 0 0 .988 -161.6 36.3)" opacity=".7"/><use xlink:href="#c" transform="matrix(.988 0 0 .988 347.1 231.3)"/><animate attributeName="display" repeatCount="indefinite" dur="4.917s" keyTimes="0;0.263;0.271;1" values="none;inline;none;none"/></g><g display="none"><use xlink:href="#a" transform="matrix(.988 0 0 .988 347.1 231.3)"/><use xlink:href="#b" transform="matrix(.988 0 0 .988 545.8 36.3)" opacity=".7"/><use xlink:href="#b" transform="matrix(.988 0 0 .988 -155.7 36.3)" opacity=".7"/><use xlink:href="#c" transform="matrix(.988 0 0 .988 347.1 231.3)"/><animate attributeName="display" repeatCount="indefinite" dur="4.917s" keyTimes="0;0.254;0.263;1" values="none;inline;none;none"/></g><g display="none"><use xlink:href="#a" transform="matrix(.988 0 0 .988 347.1 231.3)"/><use xlink:href="#b" transform="matrix(.988 0 0 .988 551.7 36.3)" opacity=".7"/><use xlink:href="#b" transform="matrix(.988 0 0 .988 -149.8 36.3)" opacity=".7"/><use xlink:href="#c" transform="matrix(.988 0 0 .988 347.1 231.3)"/><animate attributeName="display" repeatCount="indefinite" dur="4.917s" keyTimes="0;0.246;0.254;1" values="none;inline;none;none"/></g><g display="none"><use xlink:href="#a" transform="matrix(.988 0 0 .988 347.1 231.3)"/><use xlink:href="#b" transform="matrix(.988 0 0 .988 557.6 36.3)" opacity=".7"/><use xlink:href="#b" transform="matrix(.988 0 0 .988 -143.9 36.3)" opacity=".7"/><use xlink:href="#c" transform="matrix(.988 0 0 .988 347.1 231.3)"/><animate attributeName="display" repeatCount="indefinite" dur="4.917s" keyTimes="0;0.237;0.246;1" values="none;inline;none;none"/></g><g display="none"><use xlink:href="#a" transform="matrix(.988 0 0 .988 347.1 231.3)"/><use xlink:href="#b" transform="matrix(.988 0 0 .988 563.5 36.3)" opacity=".7"/><use xlink:href="#b" transform="matrix(.988 0 0 .988 -138 36.3)" opacity=".7"/><use xlink:href="#c" transform="matrix(.988 0 0 .988 347.1 231.3)"/><animate attributeName="display" repeatCount="indefinite" dur="4.917s" keyTimes="0;0.229;0.237;1" values="none;inline;none;none"/></g><g display="none"><use xlink:href="#a" transform="matrix(.988 0 0 .988 347.1 231.3)"/><use xlink:href="#b" transform="matrix(.988 0 0 .988 569.4 36.3)" opacity=".7"/><use xlink:href="#b" transform="matrix(.988 0 0 .988 -132.1 36.3)" opacity=".7"/><use xlink:href="#c" transform="matrix(.988 0 0 .988 347.1 231.3)"/><animate attributeName="display" repeatCount="indefinite" dur="4.917s" keyTimes="0;0.22;0.229;1" values="none;inline;none;none"/></g><g display="none"><use xlink:href="#a" transform="matrix(.988 0 0 .988 347.1 231.3)"/><use xlink:href="#b" transform="matrix(.988 0 0 .988 575.3 36.3)" opacity=".7"/><use xlink:href="#b" transform="matrix(.988 0 0 .988 -126.2 36.3)" opacity=".7"/><use xlink:href="#c" transform="matrix(.988 0 0 .988 347.1 231.3)"/><animate attributeName="display" repeatCount="indefinite" dur="4.917s" keyTimes="0;0.212;0.22;1" values="none;inline;none;none"/></g><g display="none"><use xlink:href="#a" transform="matrix(.988 0 0 .988 347.1 231.3)"/><use xlink:href="#b" transform="matrix(.988 0 0 .988 581.1 36.3)" opacity=".7"/><use xlink:href="#b" transform="matrix(.988 0 0 .988 -120.3 36.3)" opacity=".7"/><use xlink:href="#c" transform="matrix(.988 0 0 .988 347.1 231.3)"/><animate attributeName="display" repeatCount="indefinite" dur="4.917s" keyTimes="0;0.203;0.212;1" values="none;inline;none;none"/></g><g display="none"><use xlink:href="#a" transform="matrix(.988 0 0 .988 347.1 231.3)"/><use xlink:href="#b" transform="matrix(.988 0 0 .988 587.1 36.3)" opacity=".7"/><use xlink:href="#b" transform="matrix(.988 0 0 .988 -114.4 36.3)" opacity=".7"/><use xlink:href="#c" transform="matrix(.988 0 0 .988 347.1 231.3)"/><animate attributeName="display" repeatCount="indefinite" dur="4.917s" keyTimes="0;0.195;0.203;1" values="none;inline;none;none"/></g><g display="none"><use xlink:href="#a" transform="matrix(.988 0 0 .988 347.1 231.3)"/><use xlink:href="#b" transform="matrix(.988 0 0 .988 593 36.3)" opacity=".7"/><use xlink:href="#b" transform="matrix(.988 0 0 .988 -108.5 36.3)" opacity=".7"/><use xlink:href="#c" transform="matrix(.988 0 0 .988 347.1 231.3)"/><animate attributeName="display" repeatCount="indefinite" dur="4.917s" keyTimes="0;0.186;0.195;1" values="none;inline;none;none"/></g><g display="none"><use xlink:href="#a" transform="matrix(.988 0 0 .988 347.1 231.3)"/><use xlink:href="#b" transform="matrix(.988 0 0 .988 598.9 36.3)" opacity=".7"/><use xlink:href="#b" transform="matrix(.988 0 0 .988 -102.6 36.3)" opacity=".7"/><use xlink:href="#c" transform="matrix(.988 0 0 .988 347.1 231.3)"/><animate attributeName="display" repeatCount="indefinite" dur="4.917s" keyTimes="0;0.178;0.186;1" values="none;inline;none;none"/></g><g display="none"><use xlink:href="#a" transform="matrix(.988 0 0 .988 347.1 231.3)"/><use xlink:href="#b" transform="matrix(.988 0 0 .988 604.7 36.3)" opacity=".7"/><use xlink:href="#b" transform="matrix(.988 0 0 .988 -96.7 36.3)" opacity=".7"/><use xlink:href="#c" transform="matrix(.988 0 0 .988 347.1 231.3)"/><animate attributeName="display" repeatCount="indefinite" dur="4.917s" keyTimes="0;0.169;0.178;1" values="none;inline;none;none"/></g><g display="none"><use xlink:href="#a" transform="matrix(.988 0 0 .988 347.1 231.3)"/><use xlink:href="#b" transform="matrix(.988 0 0 .988 610.6 36.3)" opacity=".7"/><use xlink:href="#b" transform="matrix(.988 0 0 .988 -90.8 36.3)" opacity=".7"/><use xlink:href="#c" transform="matrix(.988 0 0 .988 347.1 231.3)"/><animate attributeName="display" repeatCount="indefinite" dur="4.917s" keyTimes="0;0.161;0.169;1" values="none;inline;none;none"/></g><g display="none"><use xlink:href="#a" transform="matrix(.988 0 0 .988 347.1 231.3)"/><use xlink:href="#b" transform="matrix(.988 0 0 .988 616.5 36.3)" opacity=".7"/><use xlink:href="#b" transform="matrix(.988 0 0 .988 -84.9 36.3)" opacity=".7"/><use xlink:href="#c" transform="matrix(.988 0 0 .988 347.1 231.3)"/><animate attributeName="display" repeatCount="indefinite" dur="4.917s" keyTimes="0;0.153;0.161;1" values="none;inline;none;none"/></g><g display="none"><use xlink:href="#a" transform="matrix(.988 0 0 .988 347.1 231.3)"/><use xlink:href="#b" transform="matrix(.988 0 0 .988 622.4 36.3)" opacity=".7"/><use xlink:href="#b" transform="matrix(.988 0 0 .988 -79 36.3)" opacity=".7"/><use xlink:href="#c" transform="matrix(.988 0 0 .988 347.1 231.3)"/><animate attributeName="display" repeatCount="indefinite" dur="4.917s" keyTimes="0;0.144;0.153;1" values="none;inline;none;none"/></g><g display="none"><use xlink:href="#a" transform="matrix(.988 0 0 .988 347.1 231.3)"/><use xlink:href="#b" transform="matrix(.988 0 0 .988 628.4 36.3)" opacity=".7"/><use xlink:href="#b" transform="matrix(.988 0 0 .988 -73.1 36.3)" opacity=".7"/><use xlink:href="#c" transform="matrix(.988 0 0 .988 347.1 231.3)"/><animate attributeName="display" repeatCount="indefinite" dur="4.917s" keyTimes="0;0.136;0.144;1" values="none;inline;none;none"/></g><g display="none"><use xlink:href="#a" transform="matrix(.988 0 0 .988 347.1 231.3)"/><use xlink:href="#b" transform="matrix(.988 0 0 .988 634.2 36.3)" opacity=".7"/><use xlink:href="#b" transform="matrix(.988 0 0 .988 -67.2 36.3)" opacity=".7"/><use xlink:href="#c" transform="matrix(.988 0 0 .988 347.1 231.3)"/><animate attributeName="display" repeatCount="indefinite" dur="4.917s" keyTimes="0;0.127;0.136;1" values="none;inline;none;none"/></g><g display="none"><use xlink:href="#a" transform="matrix(.988 0 0 .988 347.1 231.3)"/><use xlink:href="#b" transform="matrix(.988 0 0 .988 640.1 36.3)" opacity=".7"/><use xlink:href="#b" transform="matrix(.988 0 0 .988 -61.3 36.3)" opacity=".7"/><use xlink:href="#c" transform="matrix(.988 0 0 .988 347.1 231.3)"/><animate attributeName="display" repeatCount="indefinite" dur="4.917s" keyTimes="0;0.119;0.127;1" values="none;inline;none;none"/></g><g display="none"><use xlink:href="#a" transform="matrix(.988 0 0 .988 347.1 231.3)"/><use xlink:href="#b" transform="matrix(.988 0 0 .988 646 36.3)" opacity=".7"/><use xlink:href="#b" transform="matrix(.988 0 0 .988 -55.4 36.3)" opacity=".7"/><use xlink:href="#c" transform="matrix(.988 0 0 .988 347.1 231.3)"/><animate attributeName="display" repeatCount="indefinite" dur="4.917s" keyTimes="0;0.11;0.119;1" values="none;inline;none;none"/></g><g display="none"><use xlink:href="#a" transform="matrix(.988 0 0 .988 347.1 231.3)"/><use xlink:href="#b" transform="matrix(.988 0 0 .988 651.9 36.3)" opacity=".7"/><use xlink:href="#b" transform="matrix(.988 0 0 .988 -49.5 36.3)" opacity=".7"/><use xlink:href="#c" transform="matrix(.988 0 0 .988 347.1 231.3)"/><animate attributeName="display" repeatCount="indefinite" dur="4.917s" keyTimes="0;0.102;0.11;1" values="none;inline;none;none"/></g><g display="none"><use xlink:href="#a" transform="matrix(.988 0 0 .988 347.1 231.3)"/><use xlink:href="#b" transform="matrix(.988 0 0 .988 657.9 36.3)" opacity=".7"/><use xlink:href="#b" transform="matrix(.988 0 0 .988 -43.6 36.3)" opacity=".7"/><use xlink:href="#c" transform="matrix(.988 0 0 .988 347.1 231.3)"/><animate attributeName="display" repeatCount="indefinite" dur="4.917s" keyTimes="0;0.093;0.102;1" values="none;inline;none;none"/></g><g display="none"><use xlink:href="#a" transform="matrix(.988 0 0 .988 347.1 231.3)"/><use xlink:href="#b" transform="matrix(.988 0 0 .988 663.7 36.3)" opacity=".7"/><use xlink:href="#b" transform="matrix(.988 0 0 .988 -37.7 36.3)" opacity=".7"/><use xlink:href="#c" transform="matrix(.988 0 0 .988 347.1 231.3)"/><animate attributeName="display" repeatCount="indefinite" dur="4.917s" keyTimes="0;0.085;0.093;1" values="none;inline;none;none"/></g><g display="none"><use xlink:href="#a" transform="matrix(.988 0 0 .988 347.1 231.3)"/><use xlink:href="#b" transform="matrix(.988 0 0 .988 669.6 36.3)" opacity=".7"/><use xlink:href="#b" transform="matrix(.988 0 0 .988 -31.8 36.3)" opacity=".7"/><use xlink:href="#c" transform="matrix(.988 0 0 .988 347.1 231.3)"/><animate attributeName="display" repeatCount="indefinite" dur="4.917s" keyTimes="0;0.076;0.085;1" values="none;inline;none;none"/></g><g display="none"><use xlink:href="#a" transform="matrix(.988 0 0 .988 347.1 231.3)"/><use xlink:href="#b" transform="matrix(.988 0 0 .988 675.5 36.3)" opacity=".7"/><use xlink:href="#b" transform="matrix(.988 0 0 .988 -26 36.3)" opacity=".7"/><use xlink:href="#c" transform="matrix(.988 0 0 .988 347.1 231.3)"/><animate attributeName="display" repeatCount="indefinite" dur="4.917s" keyTimes="0;0.068;0.076;1" values="none;inline;none;none"/></g><g display="none"><use xlink:href="#a" transform="matrix(.988 0 0 .988 347.1 231.3)"/><use xlink:href="#b" transform="matrix(.988 0 0 .988 681.4 36.3)" opacity=".7"/><use xlink:href="#b" transform="matrix(.988 0 0 .988 -20 36.3)" opacity=".7"/><use xlink:href="#c" transform="matrix(.988 0 0 .988 347.1 231.3)"/><animate attributeName="display" repeatCount="indefinite" dur="4.917s" keyTimes="0;0.059;0.068;1" values="none;inline;none;none"/></g><g display="none"><use xlink:href="#a" transform="matrix(.988 0 0 .988 347.1 231.3)"/><use xlink:href="#b" transform="matrix(.988 0 0 .988 687.3 36.3)" opacity=".7"/><use xlink:href="#b" transform="matrix(.988 0 0 .988 -14.1 36.3)" opacity=".7"/><use xlink:href="#c" transform="matrix(.988 0 0 .988 347.1 231.3)"/><animate attributeName="display" repeatCount="indefinite" dur="4.917s" keyTimes="0;0.051;0.059;1" values="none;inline;none;none"/></g><g display="none"><use xlink:href="#a" transform="matrix(.988 0 0 .988 347.1 231.3)"/><use xlink:href="#b" transform="matrix(.988 0 0 .988 693.1 36.3)" opacity=".7"/><use xlink:href="#b" transform="matrix(.988 0 0 .988 -8.2 36.3)" opacity=".7"/><use xlink:href="#c" transform="matrix(.988 0 0 .988 347.1 231.3)"/><animate attributeName="display" repeatCount="indefinite" dur="4.917s" keyTimes="0;0.042;0.051;1" values="none;inline;none;none"/></g><g display="none"><use xlink:href="#a" transform="matrix(.988 0 0 .988 347.1 231.3)"/><use xlink:href="#b" transform="matrix(.988 0 0 .988 699.1 36.3)" opacity=".7"/><use xlink:href="#b" transform="matrix(.988 0 0 .988 -2.3 36.3)" opacity=".7"/><use xlink:href="#c" transform="matrix(.988 0 0 .988 347.1 231.3)"/><animate attributeName="display" repeatCount="indefinite" dur="4.917s" keyTimes="0;0.034;0.042;1" values="none;inline;none;none"/></g><g display="none"><use xlink:href="#a" transform="matrix(.988 0 0 .988 347.1 231.3)"/><use xlink:href="#b" transform="matrix(.988 0 0 .988 705 36.3)" opacity=".7"/><use xlink:href="#b" transform="matrix(.988 0 0 .988 3.5 36.3)" opacity=".7"/><use xlink:href="#c" transform="matrix(.988 0 0 .988 347.1 231.3)"/><animate attributeName="display" repeatCount="indefinite" dur="4.917s" keyTimes="0;0.025;0.034;1" values="none;inline;none;none"/></g><g display="none"><use xlink:href="#a" transform="matrix(.988 0 0 .988 347.1 231.3)"/><use xlink:href="#b" transform="matrix(.988 0 0 .988 710.9 36.3)" opacity=".7"/><use xlink:href="#b" transform="matrix(.988 0 0 .988 9.4 36.3)" opacity=".7"/><use xlink:href="#c" transform="matrix(.988 0 0 .988 347.1 231.3)"/><animate attributeName="display" repeatCount="indefinite" dur="4.917s" keyTimes="0;0.017;0.025;1" values="none;inline;none;none"/></g><g display="none"><use xlink:href="#a" transform="matrix(.988 0 0 .988 347.1 231.3)"/><use xlink:href="#b" transform="matrix(.988 0 0 .988 716.8 36.3)" opacity=".7"/><use xlink:href="#b" transform="matrix(.988 0 0 .988 15.3 36.3)" opacity=".7"/><use xlink:href="#c" transform="matrix(.988 0 0 .988 347.1 231.3)"/><animate attributeName="display" repeatCount="indefinite" dur="4.917s" keyTimes="0;0.008;0.017;1" values="none;inline;none;none"/></g><g><use xlink:href="#a" transform="matrix(.988 0 0 .988 347.1 231.3)"/><use xlink:href="#b" transform="matrix(.988 0 0 .988 722.6 36.3)" opacity=".7"/><use xlink:href="#b" transform="matrix(.988 0 0 .988 21.2 36.3)" opacity=".7"/><use xlink:href="#c" transform="matrix(.988 0 0 .988 347.1 231.3)"/><animate attributeName="display" repeatCount="indefinite" dur="4.917s" keyTimes="0;0.008;1" values="inline;none;none"/></g></g></svg>