<svg xmlns="http://www.w3.org/2000/svg" baseProfile="basic" width="695" height="466" viewBox="0 0 695 466" preserveAspectRatio="xMinYMin meet"><g overflow="visible"><path fill="#EDEDED" d="M695.056 466.192V0H.051v466.192h695.005"/><path fill="#FFF" d="M72.978 225.469v47.464h189.219v-47.464H72.978M451.467 225.469v47.464h189.269v-47.464H451.467M640.736 115.385V27.308H72.978v88.077h567.758M640.736 218.567v-95.98H72.978v95.98h567.758"/><path fill="#96C7EA" d="M265.999 415.077h160.058v-41.713H265.999v41.713"/><path fill="none" stroke="#1A344F" stroke-width="2.5" stroke-linecap="round" stroke-linejoin="round" d="M265.999 415.077h160.058v-41.713H265.999v41.713"/><path fill="#FFF" d="M298.461 394.47q0-3.951-1.901-5.901-1.851-2.001-5.552-2.001-3.751 0-5.602 2.001-1.951 2.05-1.951 5.901 0 3.902 1.951 5.902 2.001 2.051 5.552 2.051 3.701 0 5.602-2.051 1.901-1.95 1.901-5.902m-7.453-4.501q1.551 0 2.301 1.1.8 1.201.8 3.401 0 2.201-.8 3.401-.75 1.051-2.351 1.051-3.101 0-3.101-4.452 0-4.501 3.151-4.501M311.716 391.669q-1.151-1.6-3.152-1.6-2.05 0-3.151 1.701h-.2l-.6-1.501h-3.351v17.105h4.151v-4.801l-.2-1.551h.2q.6.751 1.401 1.101.75.3 1.65.3 2.001 0 3.202-1.651 1.15-1.7 1.15-4.551 0-2.951-1.1-4.552m-3.452 2.301q.35.65.35 2.201 0 1.6-.35 2.251-.35.65-1.15.65-.85 0-1.301-.65-.4-.701-.4-2.251v-.3q0-1.251.4-1.951.401-.65 1.251-.65.8 0 1.2.7M326.471 395.521q0-2.701-1.501-4.052-1.45-1.4-4.151-1.4-2.951 0-4.402 1.6-1.55 1.701-1.55 4.652t1.65 4.501q1.751 1.601 4.652 1.601 1.551 0 2.501-.2.95-.15 2.001-.701v-2.95q-.901.45-2.001.7-.8.2-2.001.2-1.15 0-1.85-.55-.751-.6-.751-1.601h7.403v-1.8m-4.252-2.151q.451.5.501 1.4h-3.552q.1-.95.55-1.45.551-.45 1.201-.45.8 0 1.3.5M332.873 391.72h-.25l-.5-1.451h-3.101v11.954h4.101v-5.252q0-2.051.501-2.851.45-.85 1.5-.85.75 0 1.101.6.35.8.35 1.801v6.552h4.101v-7.803q0-2.1-1.1-3.201-1.101-1.15-3.101-1.15-1.301 0-2.151.4-.951.5-1.451 1.251M356.682 390.219h3.751v-3.451h-11.704v3.451h3.751v12.004h4.202v-12.004M367.986 390.619q-.95.65-1.45 1.551h-.2l-.651-1.901h-3.051v11.954h4.102v-5.902q0-1.1.65-1.751.6-.65 1.951-.65.9 0 1.4.15l.4-3.901-.25-.05q-.35-.05-1.05-.05-1.001 0-1.851.55M373.538 391.119l1.201 2.701q2.1-.85 3.351-.85 1.45 0 1.45 1.45v.2l-2 .05q-2.501.1-3.852 1.051-1.35.9-1.35 2.851 0 1.75 1 2.85 1 1.001 2.651 1.001 1.301 0 2.251-.4t1.701-1.401h.1l.75 1.601h2.901v-7.853q0-1.95-1.301-3.201-1.15-1.1-3.551-1.1-3.201 0-5.302 1.05m5.502 7.903q-.5.5-1.3.5-1.151 0-1.151-1.1 0-1.401 2.001-1.501l.95-.05v.95q0 .751-.5 1.201M393.596 385.818v3.151q0 1.6.2 2.851h-.1q-.601-.951-1.351-1.351-.65-.4-1.751-.4-2.05 0-3.251 1.6-1.15 1.701-1.15 4.602 0 1.95.5 3.301.55 1.45 1.501 2.101 1 .75 2.25.75 2.101 0 3.152-1.751h.15l.9 1.551h3.101v-16.405h-4.151m-1.501 7.552q.95 0 1.401.65.45.7.45 2.251v.35q0 1.3-.45 1.901-.351.65-1.401.65-.85 0-1.3-.75-.451-.751-.451-2.101 0-1.451.451-2.201.45-.75 1.3-.75M411.902 395.521q0-2.701-1.5-4.052-1.451-1.4-4.152-1.4-2.951 0-4.401 1.6-1.551 1.701-1.551 4.652t1.651 4.501q1.75 1.601 4.651 1.601 1.551 0 2.501-.2.951-.15 2.001-.701v-2.95q-.8.4-2.001.7-.8.2-2.001.2-1.15 0-1.85-.55-.75-.6-.75-1.601h7.402v-1.8m-4.251-2.151q.45.5.5 1.4H404.6q.1-.95.55-1.45.55-.45 1.2-.45.801 0 1.301.5"/><path fill="#648BB7" d="M198.674 66.52l-.15 17.506h4.802V61.519h-3.952l-7.252 5.802 2.301 2.85 4.251-3.651M210.078 81.825q0 1.25.701 1.951.8.7 2 .7 1.301 0 2.001-.7.7-.801.7-1.951 0-1.25-.7-1.951-.65-.65-2.001-.65-1.35 0-2 .65-.701.701-.701 1.951M230.336 61.519h-3.902l-7.252 5.802 2.251 2.85 4.251-3.651-.1 17.506h4.752V61.519M243.741 66.52l-.15 17.506h4.751V61.519h-3.901l-7.253 5.802 2.301 2.85 4.252-3.651M268.15 61.519h-4.402l-9.854 14.554v3.301h9.604v4.652h4.652v-4.652h2.751v-3.701h-2.751V61.519m-4.452 5.451l-.2 8.703h-5.402l4.101-6.202q.701-1.05 1.401-2.501h.1M279.804 66.52l-.15 17.506h4.752V61.519h-3.902l-7.253 5.802 2.301 2.85 4.252-3.651"/><path fill="#FFF" d="M169.413 81.675V55.217h-40.314v26.458h40.314"/><path fill="#D31E26" d="M149.855 61.069l-.65-1.451-.05-.05-.05.05q-1.151 2.851-1.601 3.001-.25.1-.95-.4l-.651-.5q1.201 4.951.751 5.151-.4.15-2.401-2.35 0 .45-.4.9-.35.45-.701.45l-1.95-.5.4 1.15q.35 1.201.35 1.551 0 .35-.4.5-.4.1-.4.15 0 .1 1.85 1.55.551.501 1.451 1.201.65.6.65.9 0 .35-.4 1.3l3.701-.6q.551-.1.551.55l-.201 3.702h.801l-.2-3.702q0-.65.55-.55l3.701.6q-.4-.95-.4-1.3 0-.3.65-.9.4-.3 1.451-1.201 1.1-.95 1.851-1.55-.201-.05-.401-.15-.4-.15-.4-.5t.4-1.551l.351-1.15q-1.551.5-1.951.5-.3 0-.65-.45-.401-.45-.401-.9-2.05 2.5-2.45 2.35-.251-.1.25-2.65l.5-2.501q-1.201 1.05-1.601.9-.25-.1-.95-1.55M129.047 81.675h10.154V55.217h-10.154v26.458M169.362 81.675V55.217h-10.154v26.458h10.154"/><path fill="#DF2028" d="M101.237 63.469v1.751h40.415v-1.751h-40.415"/><path fill="#FFF" d="M101.237 61.669v1.8h40.415v-1.8h-40.415"/><path fill="#DF2028" d="M101.237 59.918v1.751h40.415v-1.751h-40.415"/><path fill="#FFF" d="M101.237 58.168v1.75h40.415v-1.75h-40.415"/><path fill="#DF2028" d="M101.237 56.417v1.751h40.415v-1.751h-40.415"/><path fill="#FFF" d="M101.237 54.617v1.8h40.415v-1.8h-40.415"/><path fill="#DF2028" d="M101.237 52.866v1.751h40.415v-1.751h-40.415"/><path fill="#FFF" d="M101.237 51.116v1.75h40.415v-1.75h-40.415"/><path fill="#DF2028" d="M101.237 51.116h40.415v-1.801h-40.415v1.801"/><path fill="#FFF" d="M141.652 49.315v-1.75h-40.415v1.75h40.415"/><path fill="#DF2028" d="M141.652 47.565v-1.751h-40.415v1.751h40.415"/><path fill="#FFF" d="M141.652 45.814v-1.751h-40.415v1.751h40.415"/><path fill="#DF2028" d="M141.652 44.063v-1.8h-40.415v1.8h40.415"/><path fill="#FFF" d="M141.652 42.263v-1.751h-40.415v1.751h40.415"/><path fill="#DF2028" d="M141.652 40.512v-1.75h-40.415v1.75h40.415"/><path fill="#2769A4" d="M118.493 38.762h-17.256v14.104h17.256V38.762"/><path fill="#FFF" d="M106.239 48.365l-.25.65.55-.4.55.4-.2-.65.55-.45h-.7l-.2-.601-.2.601h-.65l.55.45M110.04 47.915l.55.45-.2.65.551-.4.55.4-.25-.65.55-.45h-.65l-.2-.601-.2.601h-.701M115.492 47.915l-.2-.601-.2.601h-.65l.55.45-.25.65.55-.4.55.4-.2-.65.551-.45h-.701M113.291 44.864l-.2.65h-.7l.55.4-.2.7.55-.45.551.4-.25-.65.55-.4h-.65l-.201-.65M104.188 44.864l-.2.65h-.65l.55.4-.25.7.55-.45.55.4-.2-.65.55-.4h-.7l-.2-.65M108.89 45.914l.55-.4h-.65l-.2-.65-.2.65h-.701l.551.4-.2.7.55-.45.55.4-.25-.65M106.739 43.063l-.2-.6-.2.6h-.65l.55.45-.25.65.55-.4.55.4-.2-.65.55-.45h-.7M110.741 43.063h-.701l.55.45-.2.65.551-.4.55.4-.25-.65.55-.45h-.65l-.2-.6-.2.6M115.092 43.063h-.65l.55.45-.25.65.55-.4.55.4-.2-.65.551-.45h-.701l-.2-.6-.2.6M113.291 49.715l-.2.65h-.7l.55.4-.2.701.55-.45.551.4-.25-.651.55-.4h-.65l-.201-.65M104.188 49.715l-.2.65h-.65l.55.4-.25.701.55-.45.55.4-.2-.651.55-.4h-.7l-.2-.65M109.14 51.416l-.25-.651.55-.4h-.65l-.2-.65-.2.65h-.701l.551.4-.2.701.55-.45.55.4M104.188 41.313l.55.45-.2-.7.55-.401h-.7l-.2-.65-.2.65h-.65l.55.401-.25.7.55-.45M107.689 40.662l.551.401-.2.7.55-.45.55.45-.25-.7.55-.401h-.65l-.2-.65-.2.65h-.701M112.941 41.313l.551.45-.201-.7.551-.401h-.701l-.2-.65-.2.65h-.65l.55.401-.25.7.55-.45"/><path fill="#96C7EA" d="M600.02 67.521h24.259V43.313H600.02v24.208"/><path fill="none" stroke="#1A344F" stroke-width="2.5" stroke-linecap="round" stroke-linejoin="round" d="M600.02 67.521h24.259V43.313H600.02v24.208"/><path fill="#96C7EA" d="M600.02 67.521V43.313h-69.276v24.208h69.276"/><path fill="none" stroke="#1A344F" stroke-width="2.5" stroke-linecap="round" stroke-linejoin="round" d="M600.02 67.521V43.313h-69.276v24.208h69.276"/><path fill="#FFF" d="M551.603 60.018v-6.952h2.201v-2h-6.802v2h2.201v6.952h2.4M558.156 53.316q-.5.35-.801.901h-.15l-.35-1.101h-1.8v6.902h2.401v-3.401q0-.65.35-1 .4-.4 1.15-.4.4 0 .8.1l.25-2.251-.15-.05-.6-.05q-.4 0-1.1.35M567.259 60.018v-4.551q0-1.15-.7-1.851-.8-.65-2.101-.65-1.901 0-3.051.65l.7 1.551q1.051-.5 1.901-.5.85 0 .85.85v.1l-1.15.05q-1.401.1-2.251.6-.75.55-.75 1.651 0 1 .55 1.65.6.6 1.55.6.701 0 1.301-.25.5-.2 1-.8h.05l.451.9h1.65m-2.351-3.101v.551q0 .5-.35.7-.3.3-.7.3-.7 0-.7-.65 0-.851 1.2-.851l.55-.05M575.462 50.515h-2.451v1.851q0 .85.15 1.65h-.05q-.35-.6-.8-.8-.5-.25-1.05-.25-1.151 0-1.851.95-.7 1.001-.7 2.651 0 1.101.3 1.901.35.9.9 1.25.55.45 1.301.45 1.2 0 1.8-1h.1l.55.85h1.801v-9.503m-2.501 4.802q.25.3.25 1.3v.15q0 .851-.25 1.151-.25.35-.8.35-.45 0-.75-.45-.25-.4-.25-1.201 0-.75.25-1.25.25-.45.75-.45.6 0 .8.4M580.364 52.966q-1.601 0-2.551.95-.9 1.001-.9 2.701 0 1.651.95 2.601t2.701.95q.85 0 1.451-.15.45-.05 1.15-.35v-1.75q-.65.35-1.15.4l-1.151.15q-.55 0-1.1-.35-.4-.3-.4-.901h4.251v-1.05q0-1.65-.85-2.351-.851-.85-2.401-.85m.05 1.651q.45 0 .75.3t.3.8h-2.05q0-.45.3-.85.35-.25.7-.25"/><path fill="#1A344F" d="M615.375 53.316h-6.452l3.201 5.602 3.251-5.602M199.074 95.779q0-2-2.551-2h-1.75v6.802h.75V97.88h.8q1.401 0 2.001-.55.75-.5.75-1.551m-3.551-1.3h.9q1.001 0 1.351.3.45.4.45 1 0 .8-.45 1.101-.4.35-1.501.35h-.75v-2.751M203.426 97.53q1.35-.5 1.35-1.801 0-1-.6-1.45-.65-.5-1.85-.5h-1.851v6.802h.8V97.73h1.401l1.65 2.851h.901l-1.801-3.051m-2.151-3.051h1.001q.85 0 1.3.3.35.3.35.95 0 .7-.35 1.001-.35.35-1.25.35h-1.051v-2.601M207.127 93.779h-.8v6.802h.8v-6.802M211.879 94.379q.75 0 1.551.4l.35-.7q-.901-.4-1.901-.4t-1.701.45q-.8.45-1.15 1.2-.4.9-.4 1.851 0 1.6.8 2.55.85.901 2.351.901 1.15 0 1.701-.25v-.701q-.751.25-1.601.25-1.15 0-1.801-.7-.6-.75-.6-2.05 0-1.351.65-2.051.701-.75 1.751-.75M215.78 97.38h2.801v-.701h-2.801v-2.2h3.002v-.7h-3.802v6.802h3.802v-.751h-3.002v-2.45M221.282 96.379q-.25-.15-.45-.4-.15-.2-.15-.55 0-.5.35-.75.401-.3 1.001-.3.6 0 1.65.35l.25-.65q-.95-.4-1.9-.4-1.001 0-1.551.5-.6.45-.6 1.25 0 .7.45 1.2.35.401 1.351.801l1 .4.45.45q.15.25.15.55 0 .55-.4.85-.35.301-1.2.301l-.951-.101-.9-.3v.751q.6.3 1.851.3 1.1 0 1.75-.5.65-.451.65-1.351 0-.65-.4-1.15-.35-.4-1.45-.8-.65-.201-.951-.451M231.086 97.03v-.05q.65-.15 1-.501.301-.45.301-1 0-.85-.601-1.3-.65-.4-1.95-.4h-1.901v6.802h2.351q1.05 0 1.75-.55.601-.451.601-1.401 0-1.4-1.551-1.6m.1-2.301q.4.25.4.8 0 .7-.35.9-.4.25-1.2.25h-1.301v-2.2h1.151q.9 0 1.3.25m.2 2.901q.4.3.4.95 0 .7-.4 1-.45.3-1.25.3h-1.401v-2.5h1.351q.8 0 1.3.25M235.838 97.18l-1.801-3.401h-.9l2.301 4.201v2.601h.8V97.93l2.251-4.151h-.851l-1.8 3.401M242.64 97.38h2.851v-.701h-2.851v-2.2h3.001v-.7h-3.751v6.802h3.751v-.751h-3.001v-2.45M249.243 94.479h2.15v-.7h-5.101v.7h2.15v6.102h.801v-6.102M258.296 97.18q0-1.701-.8-2.551-.801-.95-2.301-.95-1.551 0-2.301.9-.85.95-.85 2.601 0 1.6.85 2.55.75.901 2.301.901 1.5 0 2.301-.901.8-1.05.8-2.55m-4.802-2.101q.55-.7 1.701-.7 1.1 0 1.701.7.55.8.55 2.101 0 1.35-.55 2.05-.601.751-1.701.751-1.151 0-1.701-.751-.6-.65-.6-2.05 0-1.351.6-2.101M261.647 93.779h-1.85v6.802h.8V97.73h1.4l1.651 2.851h.95l-1.85-3.051q1.35-.5 1.35-1.801 0-1-.6-1.45-.65-.5-1.851-.5m-1.05.7h1q.951 0 1.301.3.4.3.4.95 0 .7-.4 1.001-.35.35-1.201.35h-1.1v-2.601M271.551 97.18q0-1.701-.8-2.551-.801-.95-2.301-.95-1.451 0-2.301.9-.8.85-.8 2.601 0 1.7.8 2.55.85.901 2.301.901 1.5 0 2.301-.901.8-.95.8-2.55m-4.802-2.101q.6-.7 1.701-.7 1.1 0 1.7.7.551.7.551 2.101 0 1.45-.551 2.05-.6.751-1.7.751-1.101 0-1.701-.751-.6-.65-.6-2.05 0-1.351.6-2.101M137.552 259.779l-.45-.45-.1-.55q0-.45.35-.75.3-.25.95-.25.9 0 1.651.35l.25-.7q-.75-.351-1.851-.351-.95 0-1.55.451-.601.45-.601 1.25 0 .7.4 1.2.351.4 1.351.801.7.25 1 .45.3.15.501.4.1.15.1.55 0 .55-.351.85-.45.3-1.2.3l-1-.1-.901-.3v.75q.651.351 1.851.351 1.1 0 1.751-.501.65-.5.65-1.4 0-.75-.4-1.15-.35-.401-1.451-.801l-.95-.4M143.854 263.931v-6.052h2.151v-.701h-5.102v.701h2.151v6.052h.8M149.806 257.028q-1.5 0-2.351.951-.8.95-.8 2.55 0 1.601.8 2.551.801.951 2.351.951 1.401 0 2.251-.951.85-.95.85-2.551 0-1.6-.85-2.55-.85-.951-2.251-.951m0 .751q1.151 0 1.701.7t.55 2.05q0 1.301-.55 2.101-.6.7-1.701.7-1.15 0-1.7-.7-.601-.75-.601-2.101 0-1.35.601-2.05.5-.7 1.7-.7M158.71 259.129q0-1.951-2.551-1.951h-1.751v6.753h.8v-2.651h.801q1.3 0 2-.55.701-.601.701-1.601m-2.651-1.3q1 0 1.4.35.45.3.45 1 0 .75-.5 1.05-.4.35-1.5.35h-.701v-2.75h.851M162.611 263.931h3.751v-.701h-3.001v-6.052h-.75v6.753M170.314 257.028q-1.501 0-2.351.951-.8.95-.8 2.55 0 1.601.8 2.551.8.951 2.351.951 1.4 0 2.251-.951.85-.95.85-2.551 0-1.6-.85-2.55-.851-.951-2.251-.951m0 .751q1.15 0 1.7.7.551.7.551 2.05 0 1.301-.551 2.101-.6.7-1.7.7-1.151 0-1.701-.7-.6-.75-.6-2.101 0-1.35.6-2.05.5-.7 1.701-.7M175.366 258.779q0-.45.35-.75.3-.25 1-.25.85 0 1.601.35l.25-.7q-.75-.351-1.851-.351-.95 0-1.55.451-.601.45-.601 1.25 0 .7.401 1.2.4.4 1.35.801.7.25 1 .45.3.15.501.4.15.25.15.55 0 .55-.401.85-.45.3-1.2.3l-1-.1-.901-.3v.75q.651.351 1.851.351 1.05 0 1.801-.501.65-.55.65-1.4 0-.65-.4-1.15-.4-.401-1.501-.801l-.95-.4q-.35-.25-.4-.45-.15-.2-.15-.55M181.918 257.779q.85 0 1.601.35l.25-.7q-.751-.351-1.851-.351-.95 0-1.551.451-.6.45-.6 1.25 0 .7.4 1.2.401.4 1.351.801l1.05.45q.3.15.45.4.151.25.151.55 0 .55-.401.85-.35.3-1.2.3l-.95-.1q-.801-.25-.951-.3v.75q.65.351 1.901.351 1 0 1.751-.501.65-.55.65-1.4 0-.65-.4-1.15-.451-.451-1.501-.801l-.9-.4q-.35-.2-.45-.45-.15-.2-.15-.55 0-.4.35-.75.3-.25 1-.25M242.79 437.433q0-1.6-.8-2.55-.8-.901-2.301-.901-1.45 0-2.301.901-.8.85-.8 2.55 0 1.751.8 2.601.851.901 2.301.901 1.501 0 2.301-.951.8-.85.8-2.551m-1.4-2.05q.6.7.6 2.05 0 1.451-.6 2.101-.55.7-1.701.7-1.1 0-1.7-.7-.601-.65-.601-2.101 0-1.3.601-2.05.6-.7 1.7-.7 1.151 0 1.701.7M249.043 434.082h-.851l-2 5.852-1.951-5.852h-.85l2.45 6.752h.751l2.451-6.752M250.743 440.134v-2.5h2.851v-.701h-2.851v-2.15h3.001v-.701h-3.751v6.752h3.751v-.7h-3.001M258.196 437.784q1.35-.451 1.35-1.801 0-.9-.6-1.45-.6-.451-1.85-.451h-1.851v6.752h.8v-2.8h1.401l1.65 2.8h.951l-1.851-3.05m.55-1.751q0 .6-.4 1-.35.3-1.2.3h-1.101v-2.55h1.001q.95 0 1.3.3.4.3.4.95M261.847 440.834l-.05-5.651 3.702 5.651h.9v-6.752h-.7l.05 5.652h-.05l-3.702-5.652h-.85v6.752h.7M268.3 440.834h.75v-6.752h-.75v6.752M272.101 439.534q-.7-.7-.7-2.051 0-1.25.7-2.05.7-.75 1.951-.75.8 0 1.75.4l.301-.7q-.951-.401-2.001-.401-1.001 0-1.901.401-.75.45-1.2 1.25-.4.65-.4 1.85 0 1.701.85 2.551.85.901 2.401.901l1.25-.101 1.101-.25v-3.301h-2.301v.701h1.55v2.1q-.65.15-1.4.15-1.251 0-1.951-.7M283.005 440.834v-6.752h-.8v2.851h-3.552v-2.851h-.8v6.752h.8v-3.15h3.552v3.15h.8M286.957 440.834v-6.051h2.15v-.701h-5.102v.701h2.151v6.051h.801M296.36 434.082h-3.801v6.752h.8v-2.9h2.801v-.701h-2.801v-2.45h3.001v-.701M301.262 434.783v-.701h-3.802v6.752h3.802v-.7h-3.001v-2.5h2.801v-.701h-2.801v-2.15h3.001M306.514 434.082h-3.752v6.752h3.752v-.7h-2.951v-2.5h2.801v-.701h-2.801v-2.15h2.951v-.701M307.964 436.733q.15.15.4.15t.4-.15q.151-.15.151-.45 0-.65-.551-.65-.55 0-.55.65 0 .3.15.45M307.964 439.884q-.15.15-.15.45 0 .35.15.5.15.151.4.151t.4-.151q.151-.2.151-.5t-.151-.45q-.15-.15-.4-.15t-.4.15M315.117 434.082h-2.101v6.752h1.901q1.7 0 2.601-.9.9-.8.9-2.551 0-1.6-.85-2.45-.951-.851-2.451-.851m-.15.701q1.35 0 1.95.65.701.7.701 2 0 1.351-.701 2.051-.8.7-2.15.7h-.951v-5.401h1.151M322.369 434.032h-.65l-2.701 6.802h.801l.85-2.15h2.701l.85 2.15h.8l-2.651-6.802m-.35.901l1.101 3.051h-2.201l1.1-3.051M325.971 440.834h.8v-6.752h-.8v6.752M328.622 440.834h3.751v-.7h-3.001v-6.052h-.75v6.752M335.274 437.483l-1.8-3.401h-.851l2.251 4.152v2.6h.8v-2.6l2.251-4.152h-.85l-1.801 3.401M341.226 436.733q.25.15.401.15.3 0 .45-.15.15-.15.15-.45 0-.65-.6-.65-.551 0-.551.65 0 .3.15.45M341.226 439.884q-.15.15-.15.45 0 .35.15.5.25.151.401.151.3 0 .45-.151.15-.2.15-.5t-.15-.45q-.15-.15-.45-.15-.251 0-.401.15M350.33 437.433q0-1.6-.55-2.55-.601-.901-1.701-.901-1.151 0-1.651.851-.55.75-.55 2.6 0 1.801.55 2.601.6.901 1.651.901 1.15 0 1.701-.851.55-.8.55-2.651m-.801 0q0 1.501-.3 2.151-.4.7-1.15.7-.7 0-1.101-.7-.35-.65-.35-2.151 0-1.5.35-2.15.401-.65 1.101-.65.75 0 1.15.7.3.7.3 2.1M351.53 440.334q0 .35.15.5.15.151.4.151t.4-.151q.151-.2.151-.5t-.151-.45q-.15-.15-.4-.15-.3 0-.4.15-.15.15-.15.45M355.732 435.083l.2-.2-.05 5.951h.8v-6.752h-.65l-1.801 1.401.4.5 1.101-.9M363.184 434.783v-.701h-3.401l-.25 3.151.4.25q.5-.1 1.201-.1 1.75 0 1.75 1.401 0 .75-.45 1.1-.5.4-1.3.4l-.951-.15q-.5-.1-.8-.3v.75q.55.351 1.751.351 1.2 0 1.85-.601.651-.6.651-1.65 0-.9-.601-1.451-.55-.5-1.7-.5-.701 0-1.051.1l.2-2.05h2.701M368.987 438.784q0-.4-.151-.7-.1-.25-.55-.501l-1.05-.45v-2q.65 0 1.4.3l.2-.6q-.85-.35-1.6-.35v-.851h-.6v.851q-.801.1-1.251.5-.5.35-.5 1 0 .6.4 1t1.351.701v2.05l-.951-.1-.9-.3v.7l.8.25 1.051.1v1.001h.6v-1.051q.9-.15 1.3-.55.451-.35.451-1m-2.351-3.651v1.8l-.751-.4q-.2-.2-.2-.6 0-.3.25-.5.251-.25.701-.3m1.35 3.151q.25.25.25.55 0 .7-1 .85v-1.8q.7.3.75.4M374.389 433.632v9.503h.65v-9.503h-.65M383.242 434.082h-.851l1.801 6.752h.8l1.651-5.851.3 1.35 1.401 4.501h.75l1.851-6.752h-.851l-1.05 4.152q-.25.9-.35 1.6-.15-.8-.4-1.6l-1.251-4.152h-.85l-1.201 4.102q-.3 1.1-.35 1.65l-1.4-5.752M392.795 440.134v-2.5h2.801v-.701h-2.801v-2.15h2.951v-.701h-3.751v6.752h3.751v-.7h-2.951M401.048 434.783v-.701h-3.801v6.752h3.801v-.7h-3.001v-2.5h2.801v-.701h-2.801v-2.15h3.001M407.451 440.834l-2.851-3.801 2.751-2.951h-.951l-3.051 3.351v-3.351h-.8v6.752h.8v-2.65l.7-.601 2.451 3.251h.951M412.152 434.783v-.701h-3.751v6.752h3.751v-.7h-3.001v-2.5h2.801v-.701h-2.801v-2.15h3.001M413.653 434.082v6.752h.75l-.1-5.651h.05l3.701 5.651h.901v-6.752h-.75l.1 5.652h-.05l-3.702-5.652h-.9M422.906 434.082h-2.1v6.752h1.9q1.701 0 2.601-.9.9-.8.9-2.551 0-1.6-.85-2.45-.95-.851-2.451-.851m-1.3 6.102v-5.401h1.15q1.351 0 1.951.65.7.7.7 2 0 1.351-.7 2.051-.8.7-2.151.7h-.95M427.658 436.733q.15.15.4.15t.4-.15q.15-.15.15-.45 0-.65-.55-.65t-.55.65q0 .3.15.45M427.658 439.884q-.15.15-.15.45 0 .35.15.5.15.151.4.151t.4-.151q.15-.2.15-.5t-.15-.45q-.15-.15-.4-.15t-.4.15M432.96 434.983q-.45.4-.45 1 0 .65.35 1 .4.4 1.35.701v2.05l-.9-.1-.9-.3v.7q.4.2.8.25l1 .1v1.001h.601v-1.051q.9-.15 1.3-.55.5-.35.5-1 0-.45-.2-.7-.15-.3-.5-.501-.4-.25-1.1-.45v-2q.75 0 1.4.3l.25-.6q-.95-.35-1.65-.35v-.851h-.601v.851q-.85.1-1.25.5m.55.45q.2-.2.7-.3v1.8l-.7-.4q-.25-.25-.25-.6 0-.25.25-.5m2.101 2.851q.2.2.2.55 0 .7-1 .85v-1.8q.65.25.8.4M441.613 434.883q-.6-.901-1.65-.901-1.201 0-1.701.851-.55.85-.55 2.6 0 1.651.55 2.601.6.901 1.701.901 1.1 0 1.65-.851.55-.8.55-2.651 0-1.7-.55-2.55m-.2 2.55q0 1.351-.35 2.151-.4.7-1.1.7-.751 0-1.151-.7-.35-.8-.35-2.151 0-1.35.35-2.15.4-.65 1.151-.65.7 0 1.1.7.35.8.35 2.1M443.364 440.334q0 .35.15.5.15.151.4.151t.4-.151q.15-.2.15-.5t-.15-.45q-.15-.15-.4-.15t-.4.15q-.15.15-.15.45M450.416 439.284v-.7h-1v-4.552h-.8l-3.252 4.602v.65h3.302v1.55h.75v-1.55h1m-1.75-.7h-2.501l2.551-3.751-.05 3.751M453.217 436.733q-.7 0-1.1.1l.2-2.05h2.701v-.701h-3.351l-.25 3.151.4.25q.45-.1 1.15-.1 1.751 0 1.751 1.401 0 .75-.45 1.1-.5.4-1.251.4-.5 0-.95-.15-.45-.05-.85-.3v.75q.55.351 1.75.351 1.201 0 1.851-.601.7-.6.7-1.65 0-.95-.65-1.451-.55-.5-1.651-.5"/><path fill="#EE9872" d="M293.809 81.975h2.601v-1.2h-2.601v1.2M299.561 76.873q-1.2 0-1.901.901-.6.85-.6 2.751 0 1.75.65 2.7.601.901 1.851.901 1.251 0 1.851-.901.6-.8.6-2.7 0-1.751-.6-2.751-.65-.901-1.851-.901m.75 1.751q.25.65.25 1.901 0 1.2-.25 1.85-.25.55-.75.55t-.75-.55q-.25-.65-.25-1.85 0-1.251.25-1.901.25-.55.75-.55t.75.55M302.962 83.325q0 .451.2.651.301.2.651.2.35 0 .6-.25t.25-.601q0-.35-.25-.6-.2-.2-.6-.2-.45 0-.651.2-.2.2-.2.6M309.315 76.973h-1.251l-2.251 1.801.701.9 1.35-1.15-.05 5.502h1.501v-7.053M315.667 79.574q.3-.45.3-1 0-.75-.65-1.25-.6-.451-1.601-.451-1.1 0-1.65.501-.651.5-.651 1.2 0 .5.301.95.2.4.85.801-.65.35-1.051.85-.3.45-.3 1.05 0 .95.651 1.401.65.5 1.85.5 1.151 0 1.801-.5.65-.501.65-1.401 0-.55-.35-1.05-.3-.45-1.1-.85.7-.451.95-.751m-1.35-1.4q.25.15.25.5t-.2.55q-.251.25-.651.45-.45-.2-.7-.45-.15-.2-.15-.55 0-.3.2-.5t.65-.2q.4 0 .601.2m.2 3.401q.3.25.3.6 0 .4-.3.6-.25.25-.851.25-.55 0-.8-.2-.25-.35-.25-.65 0-.75 1-1.2.6.3.901.6M321.369 76.973l-.95-.1q-1.751 0-2.651 1.051-.901 1.05-.901 3.101 0 .95.301 1.7.4.7.9 1.051.55.35 1.4.35 1.151 0 1.751-.651.65-.65.65-1.8 0-1-.55-1.651-.5-.6-1.45-.6-1.101 0-1.551.85h-.05q0-.8.25-1.3.35-.55.75-.7.4-.2 1.251-.2.55 0 .85.1v-1.201m-2.701 5.552q-.3-.35-.3-.95 0-.4.3-.7.4-.3.8-.3.501 0 .701.3.25.35.25.85 0 .55-.25.9-.2.3-.751.3-.5 0-.75-.4M323.27 84.026h1.6l2.651-6.102v-.951h-5.051v1.251h3.451l-2.651 5.802M333.323 82.575v-1.15h-.85v-4.452h-1.35l-3.101 4.552v1.05h3.001v1.451h1.45v-1.451h.85m-4.001-1.15l1.751-2.751-.05 2.751h-1.701M338.175 79.674q.4-.5.4-1.1 0-.8-.65-1.25-.6-.451-1.75-.451-1.301 0-2.301.701l.7 1 .8-.4.7-.1q1.001 0 1.001.8 0 .55-.35.75-.35.2-1.201.2h-.55v1.151h.55q.901 0 1.301.2.4.25.4.7 0 .55-.35.8-.3.25-1.101.25-.65 0-1-.1l-.9-.35v1.301q.85.35 2.05.35 1.301 0 2.101-.551.75-.6.75-1.6 0-.7-.45-1.1-.4-.4-1.3-.55.65-.101 1.15-.651M342.127 81.325q0 1.25.4 2.351.4 1.15 1.05 1.9h1.201q-.551-.65-1.001-1.95-.35-1.051-.35-2.301 0-1.251.35-2.301.3-1.1 1.001-2.051h-1.201q-.65.851-1.05 1.951-.4 1.2-.4 2.401M345.378 81.975h2.601v-1.2h-2.601v1.2M351.13 76.873q-1.3 0-1.901.901-.6.85-.6 2.751 0 1.85.65 2.7.601.901 1.851.901t1.851-.901q.6-.8.6-2.7 0-1.751-.6-2.751-.651-.901-1.851-.901m.75 1.751q.2.55.2 1.901 0 1.3-.2 1.85-.25.55-.75.55t-.75-.55q-.25-.65-.25-1.85 0-1.251.25-1.901.25-.55.75-.55t.75.55M354.531 83.325q0 .451.2.651.3.2.651.2.35 0 .6-.25.2-.2.2-.601 0-.4-.2-.6-.2-.2-.6-.2-.451 0-.651.2t-.2.6M359.733 79.524l-.7.05-.2.05.15-1.4h2.501v-1.251h-3.802l-.3 3.602.601.3 1.1-.15q1.4 0 1.4 1.05 0 1.15-1.35 1.15l-1-.15-.901-.3v1.301q.7.35 1.951.35 1.4 0 2.051-.651.75-.6.75-1.8 0-1-.6-1.601-.65-.55-1.651-.55M371.988 76.973h-1.151l-3.901 7.053h1.15l3.902-7.053"/><path fill="#EE9872" d="M373.188 80.274q-.45-.6-1.25-.6-1.651 0-1.651 2.251 0 1.05.4 1.6.45.601 1.251.601.85 0 1.25-.551.45-.6.45-1.65 0-1.1-.45-1.651m-1.25.451q.45 0 .45 1.2t-.45 1.2q-.2 0-.351-.3l-.1-.9.1-.9q.151-.3.351-.3M368.236 77.424q-.45-.551-1.25-.551-1.651 0-1.651 2.201 0 1.2.4 1.651.451.6 1.251.6.8 0 1.25-.6.45-.501.45-1.651 0-1.05-.45-1.65m-1.6.75q.15-.3.35-.3.45 0 .45 1.2 0 1.251-.45 1.251-.2 0-.35-.301l-.1-.95.1-.9M374.238 76.973q.651.901 1.051 2.051.3 1.15.3 2.301 0 1.25-.35 2.301-.3 1.1-1.001 1.95h1.201q.75-.8 1.1-1.9.35-1.001.35-2.351 0-1.351-.35-2.401-.4-1.15-1.1-1.951h-1.201"/><path fill="#1A344F" d="M203.076 49.015q-.45-.65-1.551-.9v-.05q.851-.15 1.251-.801.5-.65.5-1.65 0-1.451-1.101-2.151-1-.65-3.451-.65h-3.501v11.153h4.201q1.951 0 3.002-.85 1.1-.8 1.1-2.401 0-1-.45-1.7m-4.002.1q2.001 0 2.001 1.4 0 .801-.45 1.151-.5.35-1.451.35h-1.55v-2.901h1.45m-.2-4.351q1.101 0 1.451.25.5.3.5.95 0 .65-.45.95-.45.3-1.401.3h-1.35v-2.45h1.25M214.88 42.813h-2.351v6.802q0 1.251-.55 1.901-.5.65-1.651.65-1.2 0-1.75-.6-.5-.65-.5-1.901v-6.852h-2.401v7.202q0 1.951 1.2 3.001 1.151 1.101 3.351 1.101 1.501 0 2.501-.501 1.051-.45 1.601-1.4.55-.9.55-2.201v-7.202M221.132 47.414l-2.35-4.601h-2.551l3.701 6.902v4.251h2.351v-4.351l3.751-6.802h-2.601l-2.301 4.601M233.887 49.165h3.801v-1.951h-3.801v-2.45h4.052v-1.951h-6.453v11.153h6.453v-1.95h-4.052v-2.851M249.393 42.813h-2.351v6.802q0 1.251-.55 1.901-.5.65-1.651.65-1.2 0-1.751-.6-.5-.65-.5-1.901v-6.852h-2.401v7.202q0 1.951 1.201 3.001 1.15 1.101 3.351 1.101 1.501 0 2.501-.501 1.05-.45 1.601-1.4.55-.9.55-2.201v-7.202M255.395 42.813h-3.251v11.153h2.401v-4.251h1.25l2.651 4.251h2.651l-3.301-4.851q1.05-.5 1.55-1.2.551-.801.551-1.751 0-1.75-1.101-2.551-1.1-.8-3.401-.8m-.85 4.952v-3.001h.7q1.2 0 1.701.3.55.4.55 1.15 0 .8-.55 1.2-.501.351-1.651.351h-.75M271.651 42.813h-2.401v6.802q0 1.351-.5 1.901-.5.65-1.701.65-1.2 0-1.75-.6-.501-.75-.501-1.901v-6.852h-2.35v7.202q0 1.951 1.2 3.001 1.15 1.101 3.351 1.101 1.451 0 2.451-.501 1.05-.45 1.601-1.4.6-.95.6-2.201v-7.202M279.254 42.863q-.651-.2-1.651-.2-1.801 0-2.801.85-1 .851-1 2.301 0 .8.3 1.4.25.501.85 1.001.45.4 1.501.95l1.5.75q.4.3.5.5.2.2.2.601 0 .55-.4.85-.45.3-1.2.3-.8 0-1.451-.2-.95-.25-1.9-.7v2.2q1.3.651 3.151.651 2.001 0 3.051-.851 1.1-.95 1.1-2.4 0-1.101-.6-1.851t-2.151-1.501l-1.5-.75q-.4-.3-.45-.45-.15-.3-.15-.55 0-.55.35-.85.4-.3 1-.3t1.2.15l1.451.5.75-1.851q-.9-.4-1.65-.55M292.308 48.265q0-2.551-1.5-4.001-1.501-1.451-4.302-1.451h-3.501v11.153h3.201q2.901 0 4.502-1.45 1.6-1.5 1.6-4.251m-5.652-3.501q3.202 0 3.202 3.601 0 3.651-3.452 3.651h-1v-7.252h1.25"/><path fill="#EE9872" d="M132.15 245.975h4.101v-1.951h-4.101v1.951M138.252 239.373q-.85.7-.85 1.801 0 1.05.65 1.75.65.75 2.151 1.301l.5.2v2.35l-1.701-.3q-.95-.25-1.6-.6v2.051q1.35.55 3.301.65v1.55h1.05v-1.6q1.601-.15 2.451-.85.901-.751.901-1.951 0-.65-.301-1.2-.3-.551-.95-.901-.65-.5-2.101-1v-2.251q1.251.05 2.451.601l.701-1.801q-1.301-.6-3.152-.7v-1.151h-1.05v1.151q-1.551.15-2.451.9m1.451 1.801q0-.651 1-.801v1.801q-.5-.2-.75-.45t-.25-.55m3.101 4.651q0 .75-1.051.9v-1.9l.801.45q.25.25.25.55M149.256 247.225v-.1l1.451-1.4q1.45-1.3 2-2.001.451-.5.851-1.4.25-.55.25-1.451 0-.95-.4-1.55-.451-.7-1.251-1.1-.75-.35-1.851-.35-.85 0-1.45.15-.65.15-1.2.45-.651.4-1.351 1l1.25 1.501q.701-.551 1.301-.851.6-.3 1.25-.3.651 0 1.001.35.4.3.4 1.001 0 .35-.2.85-.15.4-.55.9-.35.55-1.651 1.801l-2.801 2.851v1.6h7.853v-1.951h-4.902M154.908 245.225v1.65h4.802v2.301h2.301v-2.301h1.35v-1.85h-1.35v-7.002h-2.201l-4.902 7.202m4.902-4.502l-.1 1.051v3.251h-2.701l2.051-3.051q.45-.7.65-1.251h.1M166.813 247.125q-.301-.3-.951-.3-.7 0-1 .3-.35.351-.35 1.001 0 .6.35.95t1 .35q.6 0 .951-.35.35-.35.35-.95 0-.65-.35-1.001M169.463 238.023l-.4 5.701.951.501.8-.201q.3-.05.9-.05 2.251 0 2.251 1.701 0 1.75-2.201 1.75-.85 0-1.5-.2-.901-.25-1.401-.5v2.001q1.151.6 3.001.6 2.251 0 3.302-1 1.15-.951 1.15-2.851 0-1.601-.95-2.501-.951-.9-2.601-.9-.851 0-1.151.1l-.25.05.2-2.201h4.002v-2h-6.103M178.567 239.223q-.951 1.4-.951 4.401 0 2.851.951 4.252.95 1.45 2.951 1.45 2.001 0 2.951-1.4.95-1.301.95-4.302 0-2.951-1-4.301-.95-1.5-2.901-1.5-1.951 0-2.951 1.4m1.75 1.45q.401-.9 1.201-.9.85 0 1.2.9.35.851.35 2.951 0 2.051-.35 2.901-.35.9-1.2.9-.8 0-1.201-.85-.35-.85-.35-2.951 0-2.1.35-2.951"/><path fill="#1A344F" d="M521.092 263.931v-6.102h2.101v-.651h-5.052v.651h2.151v6.102h.8M523.293 263.931h.8l.851-2.151h2.701l.85 2.151h.8l-2.651-6.803h-.65l-2.701 6.803m4.102-2.851h-2.201l1.1-3.101 1.101 3.101M535.047 257.178h-.95l-3.051 3.351v-3.351h-.8v6.753h.8v-2.651l.7-.65 2.451 3.301h.95l-2.851-3.852 2.751-2.901M536.848 257.829h3.001v-.651h-3.751v6.753h3.751v-.701h-3.001v-2.5h2.801v-.701h-2.801v-2.2M547.402 260.73q.7-.551.7-1.601 0-1.951-2.501-1.951h-1.8v6.753h.8v-2.651h.8q1.301 0 2.001-.55m-.1-1.551q0 .75-.45 1.05-.501.35-1.551.35h-.7v-2.75h.9q.951 0 1.351.35.45.3.45 1M553.854 259.079q0-1-.6-1.45-.6-.451-1.851-.451h-1.85v6.753h.8v-2.851h1.4l1.651 2.851h.9l-1.85-3.051q1.4-.451 1.4-1.801m-2.501-1.25q.901 0 1.251.3.4.25.4 1 0 .65-.35.95-.4.35-1.251.35h-1.05v-2.6h1M560.457 257.979q-.851-.951-2.251-.951-1.551 0-2.351.951-.8.95-.8 2.55 0 1.701.8 2.551.8.951 2.351.951 1.4 0 2.251-.951.85-.95.85-2.551 0-1.6-.85-2.55m-2.251-.25q1.1 0 1.7.75.551.7.551 2.05 0 1.301-.551 2.101-.6.7-1.7.7-1.151 0-1.751-.7-.55-.8-.55-2.101 0-1.35.55-2.05.6-.75 1.751-.75M566.409 261.03v-.701h-2.801v-2.5h3.001v-.651h-3.802v6.753h.801v-2.901h2.801M567.709 263.931h.801v-6.753h-.801v6.753M572.461 263.931v-6.102h2.151v-.651h-5.102v.651h2.151v6.102h.8"/><path fill="#66C08B" d="M526.044 245.675q0-.6-.3-1.15-.3-.501-.95-.951-.801-.5-2.101-.95v-2.301q1.25.15 2.451.601l.7-1.751q-1.301-.6-3.151-.7v-1.151h-1.051v1.151q-1.55.15-2.45.9-.851.7-.851 1.801 0 1.05.65 1.75.701.75 2.151 1.25l.5.201v2.4l-1.7-.3q-.951-.25-1.601-.6v2.051q1.351.55 3.301.65v1.5h1.051v-1.55q1.55-.15 2.451-.9.9-.651.9-1.951m-4.402-5.302v1.801q-.5-.2-.75-.45t-.25-.55q0-.651 1-.801m2.101 5.452q0 .7-1.05.9v-1.9l.8.45q.25.25.25.55M534.747 240.873q0-.95-.4-1.55-.4-.7-1.25-1.1-.751-.35-1.851-.35-.85 0-1.451.15-.65.15-1.2.45-.65.4-1.351 1l1.251 1.501q.7-.551 1.3-.851.601-.3 1.251-.3.65 0 1 .35.35.3.35 1.001 0 .4-.15.85-.15.4-.55.9-.35.55-1.651 1.801l-2.801 2.801v1.65h7.853v-1.951h-4.901v-.15l1.45-1.35q1.451-1.3 2.001-2.001.5-.65.85-1.4.25-.55.25-1.451M543.05 240.023v-2h-6.052l-.45 5.701.95.501.801-.201q.35-.05.9-.05 2.251 0 2.251 1.701 0 1.75-2.151 1.75-.8 0-1.551-.2-.9-.25-1.4-.55v2.051q1.15.6 3.001.6 2.201 0 3.351-1 1.151-1.001 1.151-2.851 0-1.601-1.001-2.501-.9-.9-2.551-.9-.85 0-1.15.1l-.3.05.2-2.201h4.001M549.002 237.823q-1.95 0-2.951 1.4-.95 1.4-.95 4.401 0 2.801 1 4.252.951 1.45 2.901 1.45 2.051 0 2.952-1.4 1-1.451 1-4.302 0-2.851-1-4.301-.951-1.5-2.952-1.5m1.201 2.8q.35.851.35 3.001 0 2.051-.35 2.901-.35.9-1.201.9-.8 0-1.2-.9-.35-.95-.35-2.901 0-1.95.35-3.001.4-.85 1.2-.85.801 0 1.201.85M556.705 247.125q-.35-.35-.95-.35-.65 0-1 .35-.351.3-.351.951 0 .65.351 1 .3.3 1 .3.65 0 .95-.35.35-.3.35-.95 0-.6-.35-.951M565.358 239.323q-.95-1.5-2.901-1.5-1.95 0-2.951 1.4-.95 1.4-.95 4.401 0 2.851.95 4.252.951 1.45 2.951 1.45 2.001 0 2.951-1.4.951-1.401.951-4.302 0-2.951-1.001-4.301m-1.7 1.3q.35.851.35 3.001 0 2.051-.35 2.901-.35.9-1.201.9-.8 0-1.2-.9-.35-.75-.35-2.901 0-2.15.35-3.001.4-.85 1.2-.85.801 0 1.201.85M574.312 239.323q-.951-1.5-2.901-1.5-1.951 0-2.951 1.4-.951 1.4-.951 4.401 0 2.851.951 4.252 1 1.45 2.951 1.45 2 0 2.951-1.4.95-1.401.95-4.302 0-2.951-1-4.301m-1.701 1.3q.35.851.35 3.001 0 2.051-.35 2.901-.35.9-1.2.9-.801 0-1.201-.9-.35-.75-.35-2.901 0-2.15.35-3.001.4-.85 1.201-.85.8 0 1.2.85"/><path fill="#1A344F" d="M150.056 159.999h-1.1l-4.452 11.253h1.351l1.35-3.601h4.502l1.401 3.601h1.35l-4.402-11.253m-1.05 3.051l.45-1.601 1.851 5.052h-3.651l1.35-3.451M167.063 160.049h-1.951l-3.551 9.203h-.05l-3.552-9.203h-1.95v11.203h1.2V164.1q0-1.6-.15-2.801h.1l3.801 9.953h1.051l3.801-9.903h.05l-.1 9.903h1.301v-11.203M170.914 161.399q-1.35 1.501-1.35 4.202 0 2.75 1.35 4.251 1.351 1.55 3.801 1.55 2.401 0 3.802-1.55 1.35-1.551 1.35-4.201 0-2.651-1.35-4.252-1.351-1.5-3.752-1.5-2.5 0-3.851 1.5m7.603 4.252q0 2.2-.951 3.401-.95 1.2-2.851 1.2-1.8 0-2.801-1.2-.95-1.101-.95-3.401 0-2.301.95-3.452 1.001-1.15 2.851-1.15 1.801 0 2.801 1.15.951 1.251.951 3.452M190.821 160.049h-1.3v7.302q0 1.4-.75 2.151-.751.75-2.201.75-1.501 0-2.251-.75-.75-.751-.75-2.151v-7.302h-1.301v7.202q0 1.951 1.101 3.051 1.2 1.1 3.101 1.1 2 0 3.201-1.1 1.15-1.15 1.15-3.001v-7.252M195.023 171.252l-.15-9.403h.05l6.152 9.403h1.451v-11.203h-1.201l.1 9.353h-.05l-6.102-9.353h-1.501v11.203h1.251M209.078 171.252v-10.053h3.551v-1.15h-8.403v1.15h3.552v10.053h1.3M295.91 195.86l.4.55q.65-.5.85-.55l.801-.1q.6 0 .9.3.35.3.35.85l-.15.75q-.05.3-.35.651l-2.851 3v.651h4.451v-.701h-3.501v-.05l1.501-1.45q.95-.95 1.35-1.601.35-.7.35-1.25 0-.8-.55-1.35-.5-.45-1.5-.45-1.051 0-2.051.75M301.512 201.461q0 .351.15.501l.4.1q.25 0 .4-.15.15-.15.15-.451 0-.3-.15-.45-.15-.2-.4-.2t-.4.2q-.15.15-.15.45M305.913 197.81l-1.05.1.15-2h2.701v-.7h-3.351l-.25 3.151.4.25 1.15-.15q1.751 0 1.751 1.45 0 .75-.45 1.1-.4.35-1.251.35-.65 0-.95-.1l-.8-.3v.701q.65.4 1.75.4 1.201 0 1.851-.601.65-.65.65-1.65 0-.9-.6-1.45-.7-.551-1.701-.551M313.166 195.96q-.6-.9-1.701-.9-1.1 0-1.7.9-.55.85-.55 2.601 0 1.7.6 2.6.55.901 1.65.901 1.201 0 1.701-.901.55-.85.55-2.6 0-1.651-.55-2.601m-1.701-.2q.801 0 1.101.65.35.65.35 2.151 0 1.5-.35 2.15-.3.65-1.101.65-.8 0-1.1-.65-.35-.65-.35-2.15 0-1.501.35-2.151.3-.65 1.1-.65M318.568 195.96q-.6-.9-1.651-.9-1.15 0-1.7.9-.55.85-.55 2.601 0 1.65.55 2.6.6.901 1.7.901 1.151 0 1.651-.901.6-.8.6-2.6 0-1.701-.6-2.601m-1.651-.2q.751 0 1.101.65.35.8.35 2.151 0 1.35-.35 2.15-.35.65-1.101.65-.8 0-1.15-.65-.35-.8-.35-2.15 0-1.351.35-2.151.35-.65 1.15-.65M328.122 195.21h-.751v4.401q0 .8-.5 1.3-.45.45-1.3.45-.901 0-1.351-.45-.5-.45-.5-1.3v-4.401h-.75v4.351q0 1.15.65 1.8.7.701 1.901.701 1.2 0 1.9-.701.701-.55.701-1.8v-4.351M335.224 195.21h-.75l.1 5.651h-.05l-3.701-5.651h-.901v6.752h.751l-.101-5.702h.05l3.702 5.702h.9v-6.752M337.875 195.21h-.8v6.752h.8v-6.752M341.827 195.86h2.15v-.65h-5.101v.65h2.15v6.102h.801v-6.102M346.028 197.81q-.35-.2-.45-.45-.15-.2-.15-.55 0-.4.35-.75.3-.25 1-.25.851 0 1.601.35l.25-.7q-.75-.35-1.851-.35-.95 0-1.55.45-.6.45-.6 1.25 0 .7.4 1.2.4.401 1.35.801l1.001.4q.35.2.5.45.15.25.15.55 0 .55-.4.85-.35.3-1.201.3l-.95-.1q-.8-.25-.95-.3v.751q.65.35 1.9.35 1.001 0 1.751-.501.65-.55.65-1.4 0-.65-.4-1.15-.45-.45-1.501-.801l-.9-.4M359.633 194.759h-.65v9.503h.65v-9.503M370.137 195.21h-.65l-1.801 1.35.45.55 1.101-.9.2-.2-.05 5.952h.75v-6.752M372.738 195.81l.4.5.9-.45.851-.1q.55 0 .9.25.35.3.35.8 0 .65-.45.95-.5.35-1.3.35h-.651v.701h.651q1.95 0 1.95 1.2 0 1.4-1.75 1.4l-.951-.15q-.5-.05-.95-.3v.701q.45.25.9.3l.951.1q1.25 0 1.95-.551.651-.55.651-1.5 0-.65-.401-1.05-.3-.4-1.2-.55.65-.151 1.05-.551.35-.5.35-1.1 0-.75-.55-1.2-.5-.45-1.55-.45-.551 0-1.151.15-.6.25-.95.55M378.19 195.81l.35.5.9-.45.851-.1q.55 0 .95.25.3.3.3.8 0 .65-.45.95-.4.35-1.25.35h-.701v.701h.701q1.95 0 1.95 1.2 0 1.4-1.8 1.4-.451 0-.901-.15-.5-.05-.95-.3v.701q.35.2.85.3l1.001.1q1.2 0 1.9-.551.701-.55.701-1.5 0-.65-.401-1.05-.4-.4-1.25-.55.65-.151 1.05-.551.35-.4.35-1.1 0-.8-.55-1.2-.5-.45-1.5-.45-.601 0-1.151.15-.7.3-.95.55M385.693 195.11q-1.101 0-2.001.75l.4.55q.5-.4.85-.55l.801-.1q.6 0 .9.3.35.35.35.85l-.15.75q-.25.5-.4.651-.1.15-1.05 1.2l-1.801 1.8v.651h4.452v-.701h-3.502v-.05l1.501-1.45q.95-.95 1.35-1.601.35-.55.35-1.25 0-.85-.55-1.35-.5-.45-1.5-.45M394.696 195.21h-.7l-3.752 6.752h.701l3.751-6.752M391.795 197.21q0-1.05-.35-1.55-.35-.55-1.051-.55-.7 0-1 .5-.35.5-.35 1.6 0 1.05.35 1.601.35.5 1 .5.701 0 1.051-.5t.35-1.601m-1.951-1.2q.15-.35.55-.35.751 0 .751 1.55 0 1.551-.751 1.551-.4 0-.55-.4-.15-.351-.15-1.151 0-.75.15-1.2M395.896 199.911q0-1-.4-1.55-.35-.551-1-.551-.7 0-1.051.501-.3.6-.3 1.6 0 1.05.351 1.6.3.551 1 .551.65 0 1.05-.551.35-.6.35-1.6m-1.4-1.55q.4 0 .55.4.2.35.2 1.15 0 .85-.2 1.2-.15.4-.55.4t-.55-.4q-.2-.4-.2-1.2 0-.8.2-1.15.15-.4.55-.4M402.549 195.06q-1.501 0-2.301.95-.85.95-.85 2.551 0 1.6.85 2.55.8.951 2.301.951 1.45 0 2.301-.951.8-.85.8-2.55 0-1.701-.8-2.551-.851-.95-2.301-.95m0 .7q1.1 0 1.7.75.551.6.551 2.051 0 1.4-.551 2.1-.6.7-1.7.7-1.101 0-1.701-.7-.6-.75-.6-2.1 0-1.351.6-2.051.6-.75 1.701-.75M407.951 195.86h3.001v-.65h-3.801v6.752h.8v-2.901h2.801v-.7h-2.801v-2.501M415.303 195.86h3.002v-.65h-3.752v6.752h3.752v-.701h-3.002v-2.5h2.852v-.701h-2.852v-2.2M424.857 196.01q-.8-.95-2.251-.95-1.55 0-2.351.95-.8.95-.8 2.551 0 1.6.8 2.55.801.951 2.351.951l.25-.05 1.301 1.55h1.15l-1.6-1.7q.95-.301 1.45-1.151.55-.85.55-2.15 0-1.601-.85-2.551m-2.251-.25q1.101 0 1.701.75.55.7.55 2.051 0 1.3-.55 2.1-.6.7-1.701.7-1.15 0-1.7-.7-.601-.75-.601-2.1 0-1.351.601-2.051.55-.75 1.7-.75M432.31 195.21h-.751v4.401q0 .85-.5 1.3-.45.45-1.3.45-.901 0-1.351-.45-.5-.5-.5-1.3v-4.401h-.75v4.351q0 1.15.65 1.8.7.701 1.901.701 1.2 0 1.9-.701.701-.55.701-1.8v-4.351M434.911 195.21h-.801v6.752h.801v-6.752M438.862 195.86h2.151v-.65h-5.102v.65h2.151v6.102h.8v-6.102M441.963 195.21h-.85l2.251 4.151v2.601h.8v-2.651l2.251-4.101h-.85l-1.801 3.351-1.801-3.351"/><path fill="#DDD" d="M413.051 181.655h38.364v-39.512h-38.364v39.512M265.247 181.655h38.314v-39.512h-38.314v39.512"/><path fill="#F7F7F7" d="M413.051 181.655v-39.512h-109.49v39.512h109.49"/><path fill="#1A344F" d="M333.023 160.849v-2.951q1.701.15 3.102.8l.9-2.35q-1.701-.801-4.002-.901v-1.5h-1.3v1.5q-1.951.2-3.101 1.151-1.101.95-1.101 2.401 0 1.3.801 2.25.8.9 2.751 1.701l.65.25v3.101q-.8-.05-2.151-.4-1.2-.3-2.001-.751v2.651q1.851.8 4.152.85v2.001h1.3v-2.051q2.101-.25 3.152-1.15 1.1-1 1.1-2.551 0-.85-.4-1.55-.4-.7-1.151-1.201-.95-.6-2.701-1.3m-1.3-2.901v2.351q-.65-.3-.95-.6-.301-.3-.301-.7 0-.901 1.251-1.051m2.301 6.402q.35.35.35.7 0 .951-1.351 1.151v-2.451q.701.3 1.001.6M343.827 157.248q.851 0 1.251.4.5.5.5 1.3 0 .551-.25 1.151-.3.65-.7 1.2-.551.7-2.051 2.301l-3.551 3.701v2.151h9.903v-2.601h-6.152v-.15l1.801-1.751q1.95-1.85 2.551-2.65.8-1.101 1.05-1.801.35-.85.35-1.901 0-1.1-.55-2.05-.6-.901-1.601-1.401-.95-.5-2.351-.5-1.05 0-1.8.2-.801.25-1.501.6-.85.501-1.75 1.301l1.65 1.95q.951-.75 1.601-1.1.7-.35 1.6-.35M355.732 160.149l-1.451.1-.35.1.25-2.851h5.052v-2.651h-7.653l-.55 7.453 1.2.65 1.001-.2q.4-.1 1.15-.1 2.801 0 2.801 2.2 0 2.301-2.751 2.301-.75 0-1.9-.25-1.201-.35-1.801-.7v2.651q1.45.8 3.851.8 2.701 0 4.152-1.301 1.5-1.35 1.5-3.801 0-2-1.25-3.251-1.251-1.15-3.251-1.15M362.434 168.051q0 .801.45 1.251.5.4 1.251.4.8 0 1.25-.45.45-.451.45-1.201 0-.85-.45-1.3-.5-.4-1.25-.4-.851 0-1.251.4-.45.45-.45 1.3M372.838 154.647q-2.551 0-3.751 1.801-1.201 1.9-1.201 5.701 0 3.752 1.251 5.602 1.3 1.901 3.701 1.901 2.551 0 3.751-1.851 1.201-1.8 1.201-5.652 0-3.751-1.251-5.601-1.25-1.901-3.701-1.901m0 2.501q1.05 0 1.5 1.15.451 1.201.451 3.851 0 2.651-.451 3.852-.45 1.15-1.5 1.15t-1.501-1.15q-.45-1.101-.45-3.852 0-2.65.45-3.851.451-1.15 1.501-1.15M388.094 156.548q-1.251-1.901-3.702-1.901-2.551 0-3.751 1.801-1.201 1.9-1.201 5.701 0 3.752 1.251 5.602 1.2 1.901 3.701 1.901 2.501 0 3.752-1.851 1.2-1.8 1.2-5.652 0-3.751-1.25-5.601m-1.751 5.601q0 2.651-.45 3.852-.45 1.15-1.501 1.15-1.1 0-1.55-1.15-.451-1.101-.451-3.852 0-2.7.501-3.851.45-1.15 1.5-1.15 1.051 0 1.501 1.15.45 1.201.45 3.851"/><path fill="#66C08B" d="M433.36 156.648h-3.651v5.151h-5.052v3.752h5.052v5.051h3.651v-5.051h5.052v-3.752h-5.052v-5.151M280.604 161.049v4.351h7.703v-4.351h-7.703"/><path fill="#F4AF28" d="M513.99 175.404v6.802h12.504v-6.802H513.99"/><path fill="none" stroke="#1A344F" stroke-width="2.5" stroke-linecap="round" stroke-linejoin="round" d="M513.99 175.404v6.802h12.504v-6.802H513.99"/><path fill="#F4AF28" d="M535.047 182.206h12.505v-6.802h-12.505v6.802"/><path fill="none" stroke="#1A344F" stroke-width="2.5" stroke-linecap="round" stroke-linejoin="round" d="M535.047 182.206h12.505v-6.802h-12.505v6.802"/><path fill="#F4AF28" d="M513.99 168.952v6.802h12.504v-6.802H513.99"/><path fill="none" stroke="#1A344F" stroke-width="2.5" stroke-linecap="round" stroke-linejoin="round" d="M513.99 168.952v6.802h12.504v-6.802H513.99"/><path fill="#F4AF28" d="M513.99 162.5v6.802h12.504V162.5H513.99"/><path fill="none" stroke="#1A344F" stroke-width="2.5" stroke-linecap="round" stroke-linejoin="round" d="M513.99 162.5v6.802h12.504V162.5H513.99"/><path fill="#F4AF28" d="M513.99 156.048v6.802h12.504v-6.802H513.99"/><path fill="none" stroke="#1A344F" stroke-width="2.5" stroke-linecap="round" stroke-linejoin="round" d="M513.99 156.048v6.802h12.504v-6.802H513.99"/><path fill="#F4AF28" d="M513.99 149.596v6.802h12.504v-6.802H513.99"/><path fill="none" stroke="#1A344F" stroke-width="2.5" stroke-linecap="round" stroke-linejoin="round" d="M513.99 149.596v6.802h12.504v-6.802H513.99"/><path fill="#F4AF28" d="M513.99 149.946h12.504v-6.802H513.99v6.802"/><path fill="none" stroke="#1A344F" stroke-width="2.5" stroke-linecap="round" stroke-linejoin="round" d="M513.99 149.946h12.504v-6.802H513.99v6.802"/><path fill="#F4AF28" d="M492.132 182.206h12.504v-6.802h-12.504v6.802"/><path fill="none" stroke="#1A344F" stroke-width="2.5" stroke-linecap="round" stroke-linejoin="round" d="M492.132 182.206h12.504v-6.802h-12.504v6.802"/><path fill="#F4AF28" d="M492.132 175.754h12.504v-6.802h-12.504v6.802"/><path fill="none" stroke="#1A344F" stroke-width="2.5" stroke-linecap="round" stroke-linejoin="round" d="M492.132 175.754h12.504v-6.802h-12.504v6.802"/><path fill="#F4AF28" d="M492.132 169.302h12.504V162.5h-12.504v6.802"/><path fill="none" stroke="#1A344F" stroke-width="2.5" stroke-linecap="round" stroke-linejoin="round" d="M492.132 169.302h12.504V162.5h-12.504v6.802"/><path fill="#474747" fill-opacity=".6" d="M695.056 466.192V0H-1.249v466.192h696.305"/><path fill="#FFF" d="M451.467 272.933v-47.464h-189.27v47.464H72.978v83.376h567.758v-83.376H451.467"/><path fill="none" stroke="#1A344F" stroke-width="2.15" stroke-linecap="round" stroke-linejoin="round" d="M451.467 272.933v-47.464h-189.27v47.464H72.978v83.376h567.758v-83.376H451.467"/><path fill="#E0E2E1" d="M159.909 292.039h-55.771v26.008h55.771v-26.008M160.309 292.039v26.008h55.77v-26.008h-55.77M216.479 318.047H272.3v-26.008h-55.821v26.008M328.47 318.047v-26.008H272.7v26.008h55.77M384.691 292.039H328.87v26.008h55.821v-26.008M385.091 318.047h55.77v-26.008h-55.77v26.008M553.253 292.039h-55.771v26.008h55.771v-26.008M553.653 318.047h55.82v-26.008h-55.82v26.008"/><path fill="#E0E2E1" d="M441.741 318.047h55.77v-26.008h-55.77v26.008"/><path fill="#1A344F" d="M330.923 268.282h3.801v-.7h-3.001v-6.052h-.8v6.752M339.626 262.23v-.7h-3.752v6.752h3.752v-.7h-2.951v-2.451h2.801v-.7h-2.801v-2.201h2.951M345.878 261.53h-.85l-1.551 4.351q-.3.75-.45 1.501l-2.001-5.852h-.8l2.401 6.752h.8l2.451-6.752M350.58 262.23v-.7h-3.802v6.752h3.802v-.7h-3.001v-2.451h2.801v-.7h-2.801v-2.201h3.001M352.08 261.53v6.752h.801v-2.801h1.4l1.651 2.801h.9l-1.801-3.001q1.351-.5 1.351-1.851 0-.95-.6-1.4-.551-.5-1.851-.5h-1.851m.801.7h1q.85 0 1.3.3.401.3.401.95 0 .701-.401 1.001-.45.35-1.25.35h-1.05v-2.601M358.633 266.131h2.751l.85 2.151h.8l-2.651-6.752h-.7l-2.651 6.752h.8l.801-2.151m.3-.7l1.1-3.051 1.101 3.051h-2.201M368.836 262.53l.301-.7q-.951-.4-2.001-.4-1.051 0-1.901.45-.75.4-1.2 1.2-.45.75-.45 1.851 0 1.65.9 2.551.85.9 2.351.9.95 0 1.3-.1.75-.1 1.101-.25v-3.251h-2.301v.7h1.5v2.051q-.65.15-1.35.15-1.351 0-2.001-.701-.65-.75-.65-2.05 0-1.251.7-2.051.7-.75 1.951-.75.8 0 1.75.4M371.638 267.582v-2.451h2.851v-.7h-2.851v-2.201h3.001v-.7h-3.752v6.752h3.752v-.7h-3.001M336.925 246.925l5.002-7.952h-3.652l-3.401 5.752-3.451-5.752h-3.752l5.002 7.752-5.302 8.253h3.602l3.751-6.052 3.701 6.052h3.902l-5.402-8.053M345.278 245.125l3.001-2.601-.05 12.454h3.351v-16.005h-2.751l-5.202 4.101 1.651 2.051M367.136 246.975q0-4.101-1.401-6.152-1.4-2.1-4.201-2.1-2.851 0-4.202 2-1.4 2.001-1.4 6.252 0 3.952 1.4 6.152 1.451 2.051 4.202 2.051 2.851 0 4.251-2.001 1.351-2 1.351-6.202m-7.303-4.251q.5-1.25 1.701-1.25 1.2 0 1.7 1.25.551 1.4.551 4.251 0 2.851-.551 4.202-.55 1.3-1.7 1.3-1.151 0-1.701-1.3-.5-1.201-.5-4.202 0-2.951.5-4.251M379.941 246.975q0-4.101-1.401-6.152-1.4-2.1-4.202-2.1-2.851 0-4.201 2-1.401 2.101-1.401 6.252 0 4.002 1.451 6.152 1.35 2.051 4.151 2.051 2.852 0 4.252-2.001 1.351-2 1.351-6.202m-7.303-4.251q.5-1.25 1.7-1.25 1.201 0 1.701 1.25.55 1.4.55 4.251 0 2.851-.55 4.202-.55 1.3-1.701 1.3-1.15 0-1.7-1.3-.5-1.201-.5-4.202 0-2.951.5-4.251M129.049 299.191l-2.401 4.052-2.401-4.052h-2.601l3.451 5.452-3.701 5.752h2.551l2.601-4.252 2.601 4.252h2.701l-3.802-5.652 3.552-5.552h-2.551M133.9 303.493l2.151-1.801-.1 8.703h2.401v-11.204h-1.951l-3.601 2.901 1.1 1.401M240.99 299.191l-2.401 4.052-2.401-4.052h-2.601l3.451 5.452-3.701 5.752h2.551l2.601-4.252 2.601 4.252h2.701l-3.802-5.652 3.552-5.552h-2.551M247.292 301.242h4.001v-2.051h-6.102l-.4 5.702.95.5 1.701-.25q2.201 0 2.201 1.701 0 1.8-2.151 1.8-.5 0-1.5-.2-.551-.15-1.451-.55v2.051q1.2.6 3.051.6 2.151 0 3.301-1.001 1.151-1.05 1.151-2.9 0-1.601-.951-2.501-.95-.9-2.601-.9l-1.15.1-.25.05.2-2.151M293.859 304.743l3.551-5.552h-2.551l-2.4 4.052-2.401-4.052h-2.601l3.451 5.452-3.701 5.752h2.551l2.6-4.252 2.601 4.252h2.701l-3.801-5.652M304.163 310.395v-11.204h-1.951l-3.601 2.901 1.1 1.401 2.151-1.801-.1 8.703h2.401M315.017 304.793q0-2.751-1.001-4.301-1-1.451-2.901-1.451-2.05 0-2.951 1.401-1 1.45-1 4.351 0 2.851 1 4.301 1.001 1.451 2.951 1.451 2.001 0 2.951-1.401.951-1.4.951-4.351m-2.751-2.951q.4.95.4 2.951 0 1.901-.35 2.951-.35.9-1.201.9-.9 0-1.2-.9-.35-.85-.35-2.951t.35-2.951q.4-.9 1.2-.9.801 0 1.151.9M350.83 299.191l-2.401 4.052-2.401-4.052h-2.601l3.451 5.452-3.701 5.752h2.551l2.601-4.252 2.601 4.252h2.701l-3.801-5.652 3.551-5.552h-2.551M361.784 302.092q0-.9-.45-1.6-.45-.701-1.251-1.051-.9-.4-1.85-.4-.751 0-1.451.15l-1.2.45-1.351 1.001 1.301 1.55q.6-.5 1.25-.85.7-.3 1.301-.3.65 0 .95.3.4.4.4 1 0 .45-.15.901l-.55.9-4.452 4.601v1.651h7.803v-2.001h-4.852v-.1l1.401-1.35q1.45-1.301 2.05-2.051.601-.8.801-1.35.3-.651.3-1.451M370.087 301.242v-2.051h-6.102l-.4 5.702.95.5 1.701-.25q2.25 0 2.25 1.701 0 1.8-2.2 1.8l-1.501-.2q-.55-.15-1.451-.55v2.051q1.201.6 3.052.6 2.15 0 3.301-1.001 1.15-1.05 1.15-2.9 0-1.601-.95-2.501-.95-.9-2.601-.9l-1.151.1-.25.05.2-2.151h4.002M403.199 299.191h-2.651l3.501 5.452-3.701 5.752h2.551l2.601-4.252 2.601 4.252h2.701L407 304.743l3.552-5.552h-2.601l-2.351 4.052-2.401-4.052M414.303 301.242h4.002v-2.051h-6.103l-.4 5.702.951.5 1.65-.25q2.251 0 2.251 1.701 0 1.8-2.151 1.8-.45 0-1.55-.2l-1.401-.55v2.051q1.201.6 3.051.6 2.051 0 3.301-1.001 1.151-1.05 1.151-2.9 0-1.601-.95-2.501-.951-.9-2.601-.9l-1.151.1-.25.05.2-2.151M428.158 304.793q0-2.751-1-4.301-1.001-1.451-2.951-1.451-2.001 0-2.951 1.401-.951 1.5-.951 4.351t1.001 4.301q1 1.451 2.901 1.451 2.051 0 3.001-1.401.95-1.4.95-4.351m-2.751-2.951q.4.95.4 2.951 0 2.001-.4 2.951-.35.9-1.2.9-.851 0-1.151-.9-.4-.95-.4-2.951 0-2.001.4-2.951.3-.9 1.151-.9.85 0 1.2.9M515.69 304.743l3.502-5.552h-2.551l-2.351 4.052-2.451-4.052h-2.601l3.451 5.452-3.701 5.752h2.551l2.601-4.252 2.601 4.252h2.701l-3.752-5.652M527.945 310.395v-2.001h-4.902v-.1l1.45-1.35q1.501-1.401 2.001-2.051.5-.55.851-1.35.25-.751.25-1.451 0-.9-.451-1.6-.45-.701-1.25-1.051-.8-.4-1.851-.4-.8 0-1.4.15-1.001.35-1.201.45l-1.4 1.001 1.3 1.55q.601-.55 1.301-.85.6-.3 1.25-.3t1.001.3q.35.35.35 1 0 .45-.15.901l-.551.9q-.25.35-1.65 1.75l-2.801 2.851v1.651h7.853M536.798 304.793q0-2.851-.95-4.301-1.051-1.451-2.951-1.451-2.001 0-2.952 1.401-.95 1.4-.95 4.351 0 2.901.95 4.301 1.051 1.451 2.952 1.451 2 0 2.951-1.401.95-1.4.95-4.351m-2.701-2.951q.35.85.35 2.951t-.35 2.951q-.35.9-1.2.9-.801 0-1.201-.9-.35-.85-.35-2.951t.35-2.951q.4-.9 1.201-.9.85 0 1.2.9M544.801 300.492q-1.05-1.451-2.951-1.451-2.001 0-2.951 1.401-.951 1.4-.951 4.351t1.001 4.301q1 1.451 2.901 1.451 2.001 0 2.951-1.401.95-1.4.95-4.351 0-2.851-.95-4.301m-2.951.45q.85 0 1.2.9.35.85.35 2.951t-.35 2.951q-.35.9-1.2.9-.8 0-1.201-.9-.35-.85-.35-2.951t.35-2.951q.401-.9 1.201-.9M574.262 310.395l-3.802-5.652 3.502-5.552h-2.551l-2.351 4.052-2.451-4.052h-2.601l3.501 5.452-3.751 5.752h2.551l2.601-4.252 2.601 4.252h2.751M582.965 308.094v-1.851h-1.351v-7.052h-2.2l-4.902 7.252v1.651h4.802v2.301h2.3v-2.301h1.351m-3.651-6.152h.1l-.1 4.301h-2.701l2.05-3.101q.5-.8.651-1.2M590.618 300.492q-1.051-1.451-2.951-1.451-2.001 0-2.951 1.401-.951 1.4-.951 4.351 0 2.851 1.001 4.301 1 1.451 2.901 1.451 2 0 2.951-1.401 1-1.45 1-4.351 0-2.751-1-4.301m-2.951.45q.85 0 1.2.9.35.85.35 2.951t-.35 2.951q-.35.9-1.2.9-.801 0-1.201-.9-.35-.85-.35-2.951t.35-2.951q.4-.9 1.201-.9M600.571 304.793q0-2.751-1-4.301-1-1.451-2.951-1.451-2.001 0-2.951 1.401-.951 1.4-.951 4.351 0 2.851 1.001 4.301 1 1.451 2.901 1.451 2.051 0 2.951-1.401 1-1.45 1-4.351m-2.751-2.951q.35.85.35 2.951t-.35 2.951q-.35.9-1.2.9-.8 0-1.201-.9-.35-.85-.35-2.951t.35-2.951q.401-.9 1.201-.9.85 0 1.2.9M259.596 343.355v-3.201h3.552v3.201h.8v-6.802h-.8v2.901h-3.552v-2.901h-.8v6.802h.8M265.799 343.355h.8v-6.802h-.8v6.802M268.5 338.103q-.4.9-.4 1.851 0 1.6.85 2.55.85.901 2.401.901l1.3-.05 1.101-.3v-3.251h-2.301v.7h1.5v2.051q-.6.2-1.4.2-1.251 0-1.951-.751-.65-.65-.65-2.05 0-1.351.65-2.051.75-.75 1.951-.75.8 0 1.751.4l.35-.7q-1.051-.4-2.051-.4-1.101 0-1.851.45-.8.35-1.25 1.2M280.504 336.553h-.8v2.901h-3.551v-2.901h-.801v6.802h.801v-3.201h3.551v3.201h.8v-6.802M286.156 336.553h-3.801v6.802h3.801v-.75h-3.001v-2.451h2.801v-.7h-2.801v-2.201h3.001v-.7M289.507 336.553h-1.85v6.802h.8v-2.851h1.401l1.65 2.851h.901l-1.801-3.051q1.35-.5 1.35-1.851 0-.95-.6-1.4-.55-.5-1.851-.5m-.05.7q.851 0 1.301.3.35.3.35.95 0 .7-.35 1.001-.4.35-1.251.35h-1.05v-2.601h1M296.01 343.355h3.751v-.75h-3.001v-6.052h-.75v6.802M301.712 342.605v-2.451h2.801v-.7h-2.801v-2.201h3.001v-.7h-3.801v6.802h3.801v-.75h-3.001M310.915 336.553h-.85l-2.001 5.851-1.95-5.851h-.851l2.451 6.802h.75l2.451-6.802M312.616 342.605v-2.451h2.851v-.7h-2.851v-2.201h3.001v-.7h-3.751v6.802h3.751v-.75h-3.001M320.069 340.304q1.35-.5 1.35-1.851 0-.95-.6-1.4-.55-.5-1.851-.5h-1.85v6.802h.8v-2.851h1.4l1.651 2.851h.95l-1.85-3.051m-1.151-3.051q.951 0 1.301.3.4.3.4.95 0 .7-.4 1.001-.35.35-1.201.35h-1.1v-2.601h1M325.421 336.553h-.651l-2.701 6.802h.801l.85-2.151h2.701l.85 2.151h.801l-2.651-6.802m-1.451 3.901l1.1-3.051 1.101 3.051h-2.201M329.072 338.103q-.4.9-.4 1.851 0 1.7.85 2.55.85.901 2.401.901l1.3-.05 1.051-.3v-3.251h-2.301v.7h1.551v2.051q-.601.2-1.401.2-1.25 0-1.951-.751-.7-.7-.7-2.05 0-1.251.7-2.051.751-.75 1.951-.75.8 0 1.751.4l.3-.7q-.951-.4-2.001-.4-1.1 0-1.851.45-.8.35-1.25 1.2M339.726 337.253v-.7h-3.802v6.802h3.802v-.75h-3.001v-2.451h2.801v-.7h-2.801v-2.201h3.001M349.629 337.353h.05l-.1 6.002h.801v-6.802h-1.151l-2.201 5.601-2.15-5.601h-1.201v6.802h.701l-.05-6.002h.05l2.3 6.002h.651l2.3-6.002M353.031 342.605v-2.451h2.801v-.7h-2.801v-2.201h3.001v-.7h-3.802v6.802h3.802v-.75h-3.001M359.933 336.553h-.65l-2.701 6.802h.8l.851-2.151h2.701l.85 2.151h.8l-2.651-6.802m-1.45 3.901l1.1-3.051 1.1 3.051h-2.2M364.185 337.653h.05l3.701 5.702h.9v-6.802h-.75l.05 5.651-3.701-5.651h-.9v6.802h.75l-.1-5.702M370.337 338.153q0 .7.4 1.251.4.4 1.351.8l1 .4q.35.2.5.45.15.15.15.55 0 .55-.4.85-.45.301-1.2.301l-1.001-.1-.9-.301v.751q.7.3 1.851.3 1.15 0 1.8-.5.651-.501.651-1.351 0-.65-.401-1.15-.4-.4-1.5-.8-.7-.25-.95-.451-.301-.15-.401-.4-.15-.2-.15-.55 0-.55.35-.75.401-.3 1.001-.3.65 0 1.6.35l.25-.65q-.9-.4-1.85-.4-1.001 0-1.551.5-.6.45-.6 1.2M383.542 336.553h-.8v2.901h-3.602v-2.901h-.75v6.802h.75v-3.201h3.602v3.201h.8v-6.802M385.393 343.355h.75v-6.802h-.75v6.802M389.194 337.903q.7-.75 1.951-.75.8 0 1.75.4l.3-.7q-.95-.4-2-.4-1.101 0-1.851.45-.8.35-1.25 1.2-.401.75-.401 1.851 0 1.7.851 2.55.85.901 2.401.901l1.25-.05q.95-.25 1.1-.3v-3.251h-2.3v.7h1.55v2.051q-.6.2-1.4.2-1.251 0-1.951-.751-.7-.7-.7-2.05 0-1.251.7-2.051M400.098 336.553h-.8v2.901h-3.552v-2.901h-.8v6.802h.8v-3.201h3.552v3.201h.8v-6.802M402.749 342.605v-2.451h2.801v-.7h-2.801v-2.201h3.001v-.7h-3.801v6.802h3.801v-.75h-3.001M410.152 340.304q1.35-.5 1.35-1.851 0-1-.55-1.4-.55-.5-1.851-.5h-1.85v6.802h.75v-2.851h1.45l1.601 2.851h.95l-1.85-3.051m.15-2.751q.4.25.4.95 0 .751-.4 1.001-.35.35-1.201.35h-1.1v-2.601h1.05q.901 0 1.251.3M419.855 338.453q0-.95-.6-1.4-.55-.5-1.851-.5h-1.85v6.802h.8v-2.851h1.4l1.651 2.851h.95l-1.85-3.051q1.35-.5 1.35-1.851m-3.501 1.401v-2.601h1q.951 0 1.301.3.4.3.4.95 0 .7-.4 1.001-.35.35-1.201.35h-1.1M421.456 343.355h.75v-6.802h-.75v6.802M423.657 342.354v.751q.6.3 1.85.3 1.101 0 1.751-.5.65-.451.65-1.351 0-.65-.4-1.15-.35-.4-1.451-.8-.65-.2-.95-.451-.25-.15-.45-.4-.15-.2-.15-.55 0-.5.35-.75.4-.3 1-.3.601 0 1.651.35l.25-.65q-.95-.4-1.901-.4-1 0-1.55.5-.6.45-.6 1.2t.45 1.251q.35.4 1.35.8l1.001.4.45.45q.15.15.15.55 0 .55-.4.85-.35.301-1.201.301l-.95-.1-.9-.301M431.359 339.504l2.751-2.951h-.95l-3.101 3.351v-3.351h-.75v6.802h.75v-2.651l.75-.65 2.451 3.301h.95l-2.851-3.851M189.021 310.395l-3.802-5.652 3.552-5.552h-2.601l-2.351 4.052-2.401-4.052h-2.651l3.501 5.452-3.701 5.752h2.551l2.601-4.252 2.601 4.252h2.701M197.174 302.092q0-.9-.451-1.6-.45-.701-1.25-1.051-.9-.4-1.851-.4-.75 0-1.45.15l-1.201.45-1.35 1.001 1.3 1.55q.451-.45 1.251-.85.6-.3 1.25-.3.651 0 1.001.3.4.4.4 1 0 .5-.2.901l-.55.9q-.151.2-1.601 1.75l-2.801 2.851v1.651h7.803v-2.001h-4.902v-.1l1.45-1.35q1.701-1.601 2.001-2.051.65-.7.851-1.35.3-.651.3-1.451M458.519 304.743l3.502-5.552h-2.551l-2.351 4.052-2.451-4.052h-2.601l3.501 5.452-3.751 5.752h2.551l2.601-4.252 2.601 4.252h2.751l-3.802-5.652M466.472 301.692l-.05 8.703h2.351v-11.204h-1.951l-3.601 2.901 1.15 1.401 1.301-1.001.8-.8M479.677 304.793q0-2.751-1-4.301-1.051-1.451-2.951-1.451-2.001 0-2.951 1.401-.951 1.4-.951 4.351 0 2.851 1.001 4.301 1 1.451 2.901 1.451 2 0 2.951-1.401 1-1.45 1-4.351m-2.751-2.951q.35.85.35 2.951t-.35 2.951q-.35.9-1.2.9-.801 0-1.201-.9-.35-.85-.35-2.951t.35-2.951q.4-.9 1.201-.9.85 0 1.2.9M484.679 299.041q-2.001 0-2.951 1.401-.951 1.4-.951 4.351 0 2.851 1.001 4.301 1 1.451 2.901 1.451 2.051 0 2.951-1.401 1-1.45 1-4.351 0-2.751-1-4.301-1.05-1.451-2.951-1.451m-1.201 2.801q.401-.9 1.201-.9.85 0 1.2.9.35.85.35 2.951t-.35 2.951q-.35.9-1.2.9-.8 0-1.201-.9-.35-.85-.35-2.951t.35-2.951"/><g><path fill="#96C7EA" d="M441.262 292.039v26.008h55.82v-26.008h-55.82"/><path fill="#FFF" d="M458.519 304.743l3.502-5.552h-2.551l-2.351 4.052-2.451-4.052h-2.601l3.501 5.452-3.751 5.752h2.551l2.601-4.252 2.601 4.252h2.751l-3.802-5.652M466.472 301.692l-.05 8.703h2.351v-11.204h-1.951l-3.601 2.901 1.15 1.401 1.301-1.001.8-.8M479.677 304.793q0-2.751-1-4.301-1.051-1.451-2.951-1.451-2.001 0-2.951 1.401-.951 1.4-.951 4.351 0 2.851 1.001 4.301 1 1.451 2.901 1.451 2 0 2.951-1.401 1-1.45 1-4.351m-2.751-2.951q.35.85.35 2.951t-.35 2.951q-.35.9-1.2.9-.801 0-1.201-.9-.35-.85-.35-2.951t.35-2.951q.4-.9 1.201-.9.85 0 1.2.9M484.679 299.041q-2.001 0-2.951 1.401-.951 1.4-.951 4.351 0 2.851 1.001 4.301 1 1.451 2.901 1.451 2.051 0 2.951-1.401 1-1.45 1-4.351 0-2.751-1-4.301-1.05-1.451-2.951-1.451m-1.201 2.801q.401-.9 1.201-.9.85 0 1.2.9.35.85.35 2.951t-.35 2.951q-.35.9-1.2.9-.8 0-1.201-.9-.35-.85-.35-2.951t.35-2.951"/><animate attributeName="display" repeatCount="indefinite" dur="4.75s" keyTimes="0;0.237;1" values="inline;none;none"/></g><g style="display:none"><path fill="#96C7EA" d="M216.013 292.039v26.008h55.82v-26.008h-55.82"/><path fill="#FFF" d="M240.99 299.191l-2.401 4.052-2.401-4.052h-2.601l3.451 5.452-3.701 5.752h2.551l2.601-4.252 2.601 4.252h2.701l-3.802-5.652 3.552-5.552h-2.551M247.292 301.242h4.001v-2.051h-6.102l-.4 5.702.95.5 1.701-.25q2.201 0 2.201 1.701 0 1.8-2.151 1.8-.5 0-1.5-.2-.551-.15-1.451-.55v2.051q1.2.6 3.051.6 2.151 0 3.301-1.001 1.151-1.05 1.151-2.9 0-1.601-.951-2.501-.95-.9-2.601-.9l-1.15.1-.25.05.2-2.151"/><animate attributeName="display" repeatCount="indefinite" dur="4.75s" keyTimes="0;0.465;0.518;0.535;0.579;0.596;0.64;0.658;0.702;0.719;0.974;1" values="none;inline;none;inline;none;inline;none;inline;none;inline;none;none"/></g><g style="display:none"><path fill="#96C7EA" d="M272.663 292.039v26.008h55.82v-26.008h-55.82"/><path fill="#FFF" d="M293.859 304.743l3.551-5.552h-2.551l-2.4 4.052-2.401-4.052h-2.601l3.451 5.452-3.701 5.752h2.551l2.6-4.252 2.601 4.252h2.701l-3.801-5.652M304.163 310.395v-11.204h-1.951l-3.601 2.901 1.1 1.401 2.151-1.801-.1 8.703h2.401M315.017 304.793q0-2.751-1.001-4.301-1-1.451-2.901-1.451-2.05 0-2.951 1.401-1 1.45-1 4.351 0 2.851 1 4.301 1.001 1.451 2.951 1.451 2.001 0 2.951-1.401.951-1.4.951-4.351m-2.751-2.951q.4.95.4 2.951 0 1.901-.35 2.951-.35.9-1.201.9-.9 0-1.2-.9-.35-.85-.35-2.951t.35-2.951q.4-.9 1.2-.9.801 0 1.151.9"/><animate attributeName="display" repeatCount="indefinite" dur="4.75s" keyTimes="0;0.395;0.447;1" values="none;inline;none;none"/></g><g style="display:none"><path fill="#96C7EA" d="M329.313 292.039v26.008h55.82v-26.008h-55.82"/><path fill="#FFF" d="M350.83 299.191l-2.401 4.052-2.401-4.052h-2.601l3.451 5.452-3.701 5.752h2.551l2.601-4.252 2.601 4.252h2.701l-3.801-5.652 3.551-5.552h-2.551M361.784 302.092q0-.9-.45-1.6-.45-.701-1.251-1.051-.9-.4-1.85-.4-.751 0-1.451.15l-1.2.45-1.351 1.001 1.301 1.55q.6-.5 1.25-.85.7-.3 1.301-.3.65 0 .95.3.4.4.4 1 0 .45-.15.901l-.55.9-4.452 4.601v1.651h7.803v-2.001h-4.852v-.1l1.401-1.35q1.45-1.301 2.05-2.051.601-.8.801-1.35.3-.651.3-1.451M370.087 301.242v-2.051h-6.102l-.4 5.702.95.5 1.701-.25q2.25 0 2.25 1.701 0 1.8-2.2 1.8l-1.501-.2q-.55-.15-1.451-.55v2.051q1.201.6 3.052.6 2.15 0 3.301-1.001 1.15-1.05 1.15-2.9 0-1.601-.95-2.501-.95-.9-2.601-.9l-1.151.1-.25.05.2-2.151h4.002"/><animate attributeName="display" repeatCount="indefinite" dur="4.75s" keyTimes="0;0.325;0.377;1" values="none;inline;none;none"/></g><g style="display:none"><path fill="#96C7EA" d="M385.963 292.039v26.008h55.82v-26.008h-55.82"/><path fill="#FFF" d="M403.199 299.191h-2.651l3.501 5.452-3.701 5.752h2.551l2.601-4.252 2.601 4.252h2.701L407 304.743l3.552-5.552h-2.601l-2.351 4.052-2.401-4.052M414.303 301.242h4.002v-2.051h-6.103l-.4 5.702.951.5 1.65-.25q2.251 0 2.251 1.701 0 1.8-2.151 1.8-.45 0-1.55-.2l-1.401-.55v2.051q1.201.6 3.051.6 2.051 0 3.301-1.001 1.151-1.05 1.151-2.9 0-1.601-.95-2.501-.951-.9-2.601-.9l-1.151.1-.25.05.2-2.151M424.207 310.545q2.051 0 3.001-1.401.95-1.4.95-4.351 0-2.751-1-4.301-1.001-1.451-2.951-1.451-2.001 0-2.951 1.401-.951 1.5-.951 4.351t1.001 4.301q1 1.451 2.901 1.451m1.2-2.801q-.35.9-1.2.9-.851 0-1.151-.9-.4-.95-.4-2.951 0-2.001.4-2.951.3-.9 1.151-.9.85 0 1.2.9.4.95.4 2.951 0 2.001-.4 2.951"/><animate attributeName="display" repeatCount="indefinite" dur="4.75s" keyTimes="0;0.254;0.307;1" values="none;inline;none;none"/></g><path fill="none" stroke="#1A344F" stroke-width="2.15" stroke-linecap="round" stroke-linejoin="round" d="M159.9 292.05h-55.75v26h55.75v-26M160.309 292.039v26.008h55.77v-26.008h-55.77M272.3 318.047v-26.008h-55.821v26.008H272.3M328.47 318.047v-26.008H272.7v26.008h55.77M384.691 292.039H328.87v26.008h55.821v-26.008M440.861 318.047v-26.008h-55.77v26.008h55.77M441.262 292.039v26.008h55.82v-26.008h-55.82M553.253 292.039h-55.771v26.008h55.771v-26.008M609.473 318.047v-26.008h-55.82v26.008h55.82"/></g></svg>