<svg id="Layer_1" xmlns="http://www.w3.org/2000/svg" viewBox="0 0 695 518.8" style="enable-background:new 0 0 695 518.8"><style>.st0{fill:#fff}.st1{fill:#383938}.st2,.st3,.st4,.st5,.st6{fill:none;stroke:#73ccd2;stroke-width:4;stroke-linecap:round;stroke-linejoin:round;stroke-miterlimit:10}.st3,.st4,.st5,.st6{stroke:#383938}.st4,.st5,.st6{stroke:#eaeaea}.st5,.st6{stroke:#010101}.st6{stroke:#ee596d}</style><path id="XMLID_1525_" class="st0" d="M.9 1.2h694.3v518.1H.9z"/><path class="st1" d="M357 26h11.8v3.5h-4v20.8H361V29.4h-4V26zM370.5 26h3.8v24.3h-3.8V26zM385.2 43.2l2.6-17.3h5.3v24.3h-3.6V32.8l-2.6 17.4h-3.6L380.5 33v17.2h-3.3V26h5.3l2.7 17.2zM399.7 36.2h5.2v3.5h-5.2v7.1h6.6v3.5h-10.4V26h10.4v3.5h-6.6v6.7zM388.7 60.7l-4 11.8L389 85h-4l-3.1-9.6-3.2 9.6h-3.6l4.3-12.5-4-11.8h4l2.9 9 3-9h3.4z"/><g id="XMLID_926_"><path id="XMLID_928_" class="st2" d="M348.1 110.4V78"/><path id="XMLID_927_" class="st2" d="M417.4 110.1V77.7"/></g><g id="XMLID_919_"><path id="XMLID_925_" class="st2" d="M353.2 93.9h57.6"/><path id="XMLID_924_" class="st2" d="M353.2 93.9l6.6-6.6"/><path id="XMLID_923_" class="st2" d="M353.2 93.9l6.6 6.6"/><path id="XMLID_921_" class="st2" d="M412.2 94.2l-6.6 6.7"/><path id="XMLID_920_" class="st2" d="M412.2 94.2l-6.6-6.6"/></g><path id="XMLID_917_" class="st0" d="M26.4 129.6h643.4v314.7H26.4z"/><path class="st1" d="M51.7 475.6h-3.1l-.5-3.5h-3.7l-.5 3.5H41l3.1-19.4h4.5l3.1 19.4zm-6.9-6.1h2.9l-1.5-9.8-1.4 9.8zM56.1 456.2v15c0 1.4.6 1.9 1.6 1.9s1.6-.5 1.6-1.9v-15h2.9V471c0 3.1-1.6 4.9-4.6 4.9S53 474.1 53 471v-14.8h3.1zM68.8 464.8h4.3v6.2c0 3.1-1.6 4.9-4.6 4.9s-4.6-1.8-4.6-4.9v-10.1c0-3.1 1.6-4.9 4.6-4.9s4.6 1.8 4.6 4.9v1.9h-2.9v-2.1c0-1.4-.6-1.9-1.6-1.9s-1.6.5-1.6 1.9v10.5c0 1.4.6 1.9 1.6 1.9s1.6-.5 1.6-1.9v-3.6h-1.4v-2.8zM616.1 331.7c2.4 0 2.9-1.1 3.4-2.4h2.1v19.4h-3.1v-14.8h-2.4v-2.2zM631.1 334c0-1.7-.6-2.2-1.6-2.2s-1.6.5-1.6 1.9v1.2H625v-1.1c0-3.1 1.6-4.9 4.6-4.9 3 0 4.6 1.8 4.6 4.9v.5c0 2.1-.7 3.4-2.1 4 1.5.7 2.1 2.1 2.1 4.1v1.5c0 3.1-1.6 4.9-4.6 4.9-3 0-4.6-1.8-4.6-4.9v-1.6h2.9v1.8c0 1.4.6 1.9 1.6 1.9s1.6-.5 1.6-2.2v-1.5c0-1.8-.6-2.5-2-2.5h-1V337h1.2c1.1 0 1.8-.5 1.8-2.1v-.9zM635.9 333.9c0-3.1 1.6-4.9 4.6-4.9 3 0 4.6 1.8 4.6 4.9V344c0 3.1-1.6 4.9-4.6 4.9-3 0-4.6-1.8-4.6-4.9v-10.1zm3.1 10.3c0 1.4.6 1.9 1.6 1.9s1.6-.5 1.6-1.9v-10.5c0-1.4-.6-1.9-1.6-1.9s-1.6.5-1.6 1.9v10.5zM646.9 333.9c0-3.1 1.6-4.9 4.6-4.9 3 0 4.6 1.8 4.6 4.9V344c0 3.1-1.6 4.9-4.6 4.9-3 0-4.6-1.8-4.6-4.9v-10.1zm3.1 10.3c0 1.4.6 1.9 1.6 1.9s1.6-.5 1.6-1.9v-10.5c0-1.4-.6-1.9-1.6-1.9s-1.6.5-1.6 1.9v10.5zM616.1 421.4c2.4 0 2.9-1.1 3.4-2.4h2.1v19.4h-3.1v-14.8h-2.4v-2.2zM624.9 423.6c0-3.1 1.6-4.9 4.6-4.9 3 0 4.6 1.8 4.6 4.9v10.1c0 3.1-1.6 4.9-4.6 4.9-3 0-4.6-1.8-4.6-4.9v-10.1zm3.1 10.3c0 1.4.6 1.9 1.6 1.9s1.6-.5 1.6-1.9v-10.5c0-1.4-.6-1.9-1.6-1.9s-1.6.5-1.6 1.9v10.5zM635.9 423.6c0-3.1 1.6-4.9 4.6-4.9 3 0 4.6 1.8 4.6 4.9v10.1c0 3.1-1.6 4.9-4.6 4.9-3 0-4.6-1.8-4.6-4.9v-10.1zm3.1 10.3c0 1.4.6 1.9 1.6 1.9s1.6-.5 1.6-1.9v-10.5c0-1.4-.6-1.9-1.6-1.9s-1.6.5-1.6 1.9v10.5zM646.9 423.6c0-3.1 1.6-4.9 4.6-4.9 3 0 4.6 1.8 4.6 4.9v10.1c0 3.1-1.6 4.9-4.6 4.9-3 0-4.6-1.8-4.6-4.9v-10.1zm3.1 10.3c0 1.4.6 1.9 1.6 1.9s1.6-.5 1.6-1.9v-10.5c0-1.4-.6-1.9-1.6-1.9s-1.6.5-1.6 1.9v10.5zM616.1 236.3c2.4 0 2.9-1.1 3.4-2.4h2.1v19.4h-3.1v-14.8h-2.4v-2.2zM625 238.7c0-3.3 1.5-5.1 4.7-5.1 3 0 4.6 1.8 4.6 4.9v.5h-2.9v-.7c0-1.4-.6-1.9-1.6-1.9-1.1 0-1.7.5-1.7 2.4v3.6c.5-1.1 1.5-1.7 2.8-1.7 2.2 0 3.4 1.6 3.4 4.4v3.6c0 3.1-1.6 4.9-4.6 4.9s-4.6-1.8-4.6-4.9v-10zm3 6.6v3.5c0 1.4.6 1.9 1.6 1.9s1.6-.5 1.6-1.9v-3.5c0-1.4-.6-1.9-1.6-1.9s-1.6.5-1.6 1.9zM635.9 238.5c0-3.1 1.6-4.9 4.6-4.9 3 0 4.6 1.8 4.6 4.9v10.1c0 3.1-1.6 4.9-4.6 4.9-3 0-4.6-1.8-4.6-4.9v-10.1zm3.1 10.3c0 1.4.6 1.9 1.6 1.9s1.6-.5 1.6-1.9v-10.5c0-1.4-.6-1.9-1.6-1.9s-1.6.5-1.6 1.9v10.5zM646.9 238.5c0-3.1 1.6-4.9 4.6-4.9 3 0 4.6 1.8 4.6 4.9v10.1c0 3.1-1.6 4.9-4.6 4.9-3 0-4.6-1.8-4.6-4.9v-10.1zm3.1 10.3c0 1.4.6 1.9 1.6 1.9s1.6-.5 1.6-1.9v-10.5c0-1.4-.6-1.9-1.6-1.9s-1.6.5-1.6 1.9v10.5z"/><path id="XMLID_902_" class="st3" d="M26.4 444.4h643.4"/><path id="XMLID_901_" class="st3" d="M26.4 486h643.4"/><g id="XMLID_865_"><path id="XMLID_900_" class="st4" d="M54.2 430.5v-9.3"/><path id="XMLID_899_" class="st4" d="M54.2 412v-9.3"/><path id="XMLID_898_" class="st4" d="M54.2 393.5v-9.3"/><path id="XMLID_897_" class="st4" d="M54.2 374.9v-9.2"/><path id="XMLID_896_" class="st4" d="M54.2 356.4v-9.2"/><path id="XMLID_895_" class="st4" d="M54.2 337.9v-9.2"/><path id="XMLID_894_" class="st4" d="M54.2 319.4v-9.3"/><path id="XMLID_888_" class="st4" d="M54.2 300.9v-9.3"/><path id="XMLID_887_" class="st4" d="M54.2 282.4v-9.3"/><path id="XMLID_886_" class="st4" d="M54.2 263.9v-9.3"/><path id="XMLID_872_" class="st4" d="M54.2 245.3v-9.2"/><path id="XMLID_871_" class="st4" d="M54.2 226.8v-9.2"/><path id="XMLID_870_" class="st4" d="M54.2 208.3v-9.2"/><path id="XMLID_869_" class="st4" d="M54.2 189.8v-9.3"/><path id="XMLID_867_" class="st4" d="M54.2 171.3V162"/><path id="XMLID_866_" class="st4" d="M54.2 152.8v-9.3"/></g><path class="st1" d="M158.7 456c3 0 4.5 1.8 4.5 4.9v.6h-2.9v-.8c0-1.4-.6-1.9-1.5-1.9-1 0-1.5.5-1.5 1.9 0 4 6 4.7 6 10.3 0 3.1-1.6 4.9-4.6 4.9s-4.6-1.8-4.6-4.9v-1.2h2.9v1.4c0 1.4.6 1.9 1.6 1.9s1.6-.5 1.6-1.9c0-4-6-4.7-6-10.3 0-3.2 1.5-4.9 4.5-4.9zM168 464.4h4.2v2.8H168v5.7h5.3v2.8H165v-19.4h8.3v2.8H168v5.3zM184.2 461v2.5c0 3.1-1.5 4.8-4.6 4.8h-1.4v7.3h-3.1v-19.4h4.5c3.1 0 4.6 1.7 4.6 4.8zm-6-2v6.6h1.4c1 0 1.5-.4 1.5-1.8v-2.9c0-1.4-.5-1.8-1.5-1.8h-1.4zM184.7 456.2h9.4v2.8H191v16.7h-3.1V459h-3.2v-2.8z"/><g id="XMLID_840_"><path id="XMLID_858_" class="st4" d="M172.2 430.5v-9.3"/><path id="XMLID_857_" class="st4" d="M172.2 412v-9.3"/><path id="XMLID_856_" class="st4" d="M172.2 393.5v-9.3"/><path id="XMLID_855_" class="st4" d="M172.2 374.9v-9.2"/><path id="XMLID_854_" class="st4" d="M172.2 356.4v-9.2"/><path id="XMLID_853_" class="st4" d="M172.2 337.9v-9.2"/><path id="XMLID_852_" class="st4" d="M172.2 319.4v-9.3"/><path id="XMLID_851_" class="st4" d="M172.2 300.9v-9.3"/><path id="XMLID_850_" class="st4" d="M172.2 282.4v-9.3"/><path id="XMLID_849_" class="st4" d="M172.2 263.9v-9.3"/><path id="XMLID_848_" class="st4" d="M172.2 245.3v-9.2"/><path id="XMLID_847_" class="st4" d="M172.2 226.8v-9.2"/><path id="XMLID_846_" class="st4" d="M172.2 208.3v-9.2"/><path id="XMLID_844_" class="st4" d="M172.2 189.8v-9.3"/><path id="XMLID_843_" class="st4" d="M172.2 171.3V162"/><path id="XMLID_841_" class="st4" d="M172.2 152.8v-9.3"/></g><g><path class="st1" d="M275.7 460.8c0-3.1 1.6-4.9 4.6-4.9 3 0 4.6 1.8 4.6 4.9V471c0 3.1-1.6 4.9-4.6 4.9-3 0-4.6-1.8-4.6-4.9v-10.2zm3 10.3c0 1.4.6 1.9 1.6 1.9s1.6-.5 1.6-1.9v-10.5c0-1.4-.6-1.9-1.6-1.9s-1.6.5-1.6 1.9v10.5zM290.9 467.9l-.9 1.8v6h-3.1v-19.4h3.1v8.5l4-8.5h3.1l-4.2 8.7 4.2 10.8H294l-3.1-7.9zM297.5 456.2h9.4v2.8h-3.2v16.7h-3.1V459h-3.2v-2.8z"/></g><g id="XMLID_662_"><path id="XMLID_832_" class="st4" d="M290.2 429.9v-9.2"/><path id="XMLID_814_" class="st4" d="M290.2 411.4v-9.3"/><path id="XMLID_812_" class="st4" d="M290.2 392.9v-9.3"/><path id="XMLID_784_" class="st4" d="M290.2 374.4v-9.3"/><path id="XMLID_783_" class="st4" d="M290.2 355.9v-9.3"/><path id="XMLID_724_" class="st4" d="M290.2 337.3v-9.2"/><path id="XMLID_708_" class="st4" d="M290.2 318.8v-9.2"/><path id="XMLID_707_" class="st4" d="M290.2 300.3v-9.2"/><path id="XMLID_705_" class="st4" d="M290.2 281.8v-9.3"/><path id="XMLID_703_" class="st4" d="M290.2 263.3V254"/><path id="XMLID_700_" class="st4" d="M290.2 244.8v-9.3"/><path id="XMLID_685_" class="st4" d="M290.2 226.2V217"/><path id="XMLID_683_" class="st4" d="M290.2 207.7v-9.2"/><path id="XMLID_665_" class="st4" d="M290.2 189.2V180"/><path id="XMLID_664_" class="st4" d="M290.2 170.7v-9.3"/><path id="XMLID_663_" class="st4" d="M290.2 152.2v-9.3"/></g><g id="XMLID_661_"><path id="XMLID_1702_" class="st4" d="M408.3 434.5v-9.2"/><path id="XMLID_1701_" class="st4" d="M408.3 416v-9.2"/><path id="XMLID_1700_" class="st4" d="M408.3 397.5v-9.2"/><path id="XMLID_1699_" class="st4" d="M408.3 379v-9.3"/><path id="XMLID_1697_" class="st4" d="M408.3 360.5v-9.3"/><path id="XMLID_1696_" class="st4" d="M408.3 342v-9.3"/><path id="XMLID_1695_" class="st4" d="M408.3 323.5v-9.3"/><path id="XMLID_1692_" class="st4" d="M408.3 304.9v-9.2"/><path id="XMLID_1689_" class="st4" d="M408.3 286.4v-9.2"/><path id="XMLID_1686_" class="st4" d="M408.3 267.9v-9.2"/><path id="XMLID_1683_" class="st4" d="M408.3 249.4v-9.3"/><path id="XMLID_1680_" class="st4" d="M408.3 230.9v-9.3"/><path id="XMLID_1667_" class="st4" d="M408.3 212.4v-9.3"/><path id="XMLID_1588_" class="st4" d="M408.3 193.8v-9.2"/><path id="XMLID_1586_" class="st4" d="M408.3 175.3v-9.2"/><path id="XMLID_1585_" class="st4" d="M408.3 156.8v-9.2"/></g><g><path class="st1" d="M395.7 461.5v14.1H393v-19.4h3.8l3.1 11.6v-11.6h2.7v19.4h-3.1l-3.8-14.1zM404.6 460.8c0-3.1 1.6-4.9 4.6-4.9 3 0 4.6 1.8 4.6 4.9V471c0 3.1-1.6 4.9-4.6 4.9-3 0-4.6-1.8-4.6-4.9v-10.2zm3 10.3c0 1.4.6 1.9 1.6 1.9s1.6-.5 1.6-1.9v-10.5c0-1.4-.6-1.9-1.6-1.9s-1.6.5-1.6 1.9v10.5zM420.4 472l2.3-15.9h2.8l-3 19.4H418l-3-19.4h3.1l2.3 15.9z"/></g><g><path class="st1" d="M512.3 456.2h4.8c3.1 0 4.6 1.7 4.6 4.8v9.8c0 3.1-1.5 4.8-4.6 4.8h-4.8v-19.4zm3.1 2.8v13.9h1.7c1 0 1.6-.5 1.6-1.9v-10.1c0-1.4-.6-1.9-1.6-1.9h-1.7zM526.7 464.4h4.2v2.8h-4.2v5.7h5.3v2.8h-8.3v-19.4h8.3v2.8h-5.3v5.3zM542.7 468.4v2.6c0 3.1-1.6 4.9-4.6 4.9s-4.6-1.8-4.6-4.9v-10.1c0-3.1 1.6-4.9 4.6-4.9s4.6 1.8 4.6 4.9v1.9h-2.9v-2.1c0-1.4-.6-1.9-1.6-1.9s-1.6.5-1.6 1.9v10.5c0 1.4.6 1.9 1.6 1.9s1.6-.5 1.6-1.9v-2.8h2.9z"/></g><g id="XMLID_492_"><path id="XMLID_656_" class="st4" d="M526.3 430.5v-9.3"/><path id="XMLID_655_" class="st4" d="M526.3 412v-9.3"/><path id="XMLID_654_" class="st4" d="M526.3 393.5v-9.3"/><path id="XMLID_653_" class="st4" d="M526.3 374.9v-9.2"/><path id="XMLID_652_" class="st4" d="M526.3 356.4v-9.2"/><path id="XMLID_651_" class="st4" d="M526.3 337.9v-9.2"/><path id="XMLID_649_" class="st4" d="M526.3 319.4v-9.3"/><path id="XMLID_647_" class="st4" d="M526.3 300.9v-9.3"/><path id="XMLID_644_" class="st4" d="M526.3 282.4v-9.3"/><path id="XMLID_643_" class="st4" d="M526.3 263.9v-9.3"/><path id="XMLID_642_" class="st4" d="M526.3 245.3v-9.2"/><path id="XMLID_544_" class="st4" d="M526.3 226.8v-9.2"/><path id="XMLID_538_" class="st4" d="M526.3 208.3v-9.2"/><path id="XMLID_497_" class="st4" d="M526.3 189.8v-9.3"/><path id="XMLID_496_" class="st4" d="M526.3 171.3V162"/><path id="XMLID_494_" class="st4" d="M526.3 152.8v-9.3"/></g><path id="XMLID_486_" class="st5" d="M344.2 245.3l-52.8 88-68.3-50.2-112 112.7-56.9-39.4"/><path id="XMLID_608_" class="st6" d="M425.6 273.1l-8.5 7-67.3-44-5.6 9.2"/><path id="XMLID_478_" class="st5" d="M584.1 143.5L425.6 273.1"/><path id="XMLID_476_" class="st3" d="M595.7 443.2V129.6"/><path id="XMLID_475_" class="st3" d="M597.7 243.9h9.3"/><g><path class="st1" d="M616.7 142.7c2.4 0 2.9-1.1 3.4-2.4h2.1v19.4H619v-14.8h-2.4v-2.2zM634.7 154.9c0 3.3-1.5 5.1-4.7 5.1-3 0-4.6-1.8-4.6-4.9v-.5h2.9v.7c0 1.4.6 1.9 1.6 1.9 1.1 0 1.7-.5 1.7-2.4v-3.6c-.5 1.1-1.5 1.7-2.8 1.7-2.2 0-3.4-1.6-3.4-4.4V145c0-3.1 1.6-4.9 4.6-4.9s4.6 1.8 4.6 4.9v9.9zm-3-6.6v-3.5c0-1.4-.6-1.9-1.6-1.9s-1.6.5-1.6 1.9v3.5c0 1.4.6 1.9 1.6 1.9s1.6-.5 1.6-1.9zM636.5 145c0-3.1 1.6-4.9 4.6-4.9 3 0 4.6 1.8 4.6 4.9v10.1c0 3.1-1.6 4.9-4.6 4.9-3 0-4.6-1.8-4.6-4.9V145zm3.1 10.3c0 1.4.6 1.9 1.6 1.9s1.6-.5 1.6-1.9v-10.5c0-1.4-.6-1.9-1.6-1.9s-1.6.5-1.6 1.9v10.5zM647.5 145c0-3.1 1.6-4.9 4.6-4.9 3 0 4.6 1.8 4.6 4.9v10.1c0 3.1-1.6 4.9-4.6 4.9-3 0-4.6-1.8-4.6-4.9V145zm3.1 10.3c0 1.4.6 1.9 1.6 1.9s1.6-.5 1.6-1.9v-10.5c0-1.4-.6-1.9-1.6-1.9s-1.6.5-1.6 1.9v10.5z"/></g><path id="XMLID_473_" class="st3" d="M597.3 150.4h9.3"/><path id="XMLID_491_" class="st3" d="M598.1 337.5h9.3"/><path id="XMLID_493_" class="st3" d="M597.6 431h9.2"/></svg>