<svg id="Layer_1" xmlns="http://www.w3.org/2000/svg" viewBox="0 0 695 555.2" style="enable-background:new 0 0 695 555.2"><style>.st0{fill:#fff}.st1{fill:none;stroke:#eaeaea;stroke-width:4;stroke-linecap:round;stroke-linejoin:round;stroke-miterlimit:10}.st2{fill:#383938}.st3{fill:none;stroke:#383938;stroke-width:4;stroke-linecap:round;stroke-linejoin:round}.st3,.st4,.st5,.st6{stroke-miterlimit:10}.st4{stroke-linecap:round;stroke-linejoin:round;fill:#333;stroke:#333;stroke-width:2}.st5,.st6{fill:none;stroke:#04b17f;stroke-width:6}.st6{stroke-dasharray:12.2206,12.2206}</style><path id="XMLID_2106_" class="st0" d="M0 0h695v555.2H0z"/><g id="XMLID_2047_"><g id="XMLID_2104_"><path id="XMLID_2105_" class="st1" d="M498.1 457.7v-4.6"/></g><g id="XMLID_2101_"><path id="XMLID_2102_" class="st1" d="M498.1 439.2v-4.7"/></g><g id="XMLID_2099_"><path id="XMLID_2100_" class="st1" d="M498.1 309.4v-4.6"/></g><g id="XMLID_2097_"><path id="XMLID_2098_" class="st1" d="M498.1 290.9v-4.6"/></g><g id="XMLID_2095_"><path id="XMLID_2096_" class="st1" d="M498.1 272.4v-4.7"/></g><g id="XMLID_2093_"><path id="XMLID_2094_" class="st1" d="M498.1 253.8v-4.6"/></g><g id="XMLID_2091_"><path id="XMLID_2092_" class="st1" d="M498.1 235.3v-4.6"/></g><g id="XMLID_2089_"><path id="XMLID_2090_" class="st1" d="M498.1 216.8v-4.7"/></g><g id="XMLID_2082_"><path id="XMLID_2083_" class="st1" d="M498.1 198.2v-4.6"/></g><g id="XMLID_2080_"><path id="XMLID_2081_" class="st1" d="M498.1 179.7v-4.6"/></g><g id="XMLID_2078_"><path id="XMLID_2079_" class="st1" d="M498.1 161.2v-4.7"/></g><g id="XMLID_2076_"><path id="XMLID_2077_" class="st1" d="M498.1 142.6V138"/></g><g id="XMLID_2074_"><path id="XMLID_2075_" class="st1" d="M498.1 124.1v-4.6"/></g><g id="XMLID_2072_"><path id="XMLID_2073_" class="st1" d="M498.1 105.6v-4.7"/></g><g id="XMLID_2070_"><path id="XMLID_2071_" class="st1" d="M498.1 87v-4.6"/></g><g id="XMLID_2068_"><path id="XMLID_2069_" class="st1" d="M498.1 68.5v-4.6"/></g><g id="XMLID_2066_"><path id="XMLID_2067_" class="st1" d="M498.1 50v-4.7"/></g><g id="XMLID_2064_"><path id="XMLID_2065_" class="st1" d="M498.1 439v-4.6"/></g><g id="XMLID_2062_"><path id="XMLID_2063_" class="st1" d="M498.1 420.4v-4.6"/></g><g id="XMLID_2060_"><path id="XMLID_2061_" class="st1" d="M498.1 401.9v-4.6"/></g><g id="XMLID_2058_"><path id="XMLID_2059_" class="st1" d="M498.1 383.4v-4.7"/></g><g id="XMLID_2056_"><path id="XMLID_2057_" class="st1" d="M498.1 364.8v-4.6"/></g><g id="XMLID_2052_"><path id="XMLID_2055_" class="st1" d="M498.1 346.3v-4.6"/></g><g id="XMLID_2050_"><path id="XMLID_2051_" class="st1" d="M498.1 327.8v-4.7"/></g><g id="XMLID_2048_"><path id="XMLID_2049_" class="st1" d="M498.1 309.2v-4.6"/></g></g><g id="XMLID_1970_"><g id="XMLID_2045_"><path id="XMLID_2046_" class="st1" d="M368.4 457.7v-4.6"/></g><g id="XMLID_2043_"><path id="XMLID_2044_" class="st1" d="M368.4 439.2v-4.7"/></g><g id="XMLID_2037_"><path id="XMLID_2039_" class="st1" d="M368.4 309.4v-4.6"/></g><g id="XMLID_2031_"><path id="XMLID_2033_" class="st1" d="M368.4 290.9v-4.6"/></g><g id="XMLID_2025_"><path id="XMLID_2027_" class="st1" d="M368.4 272.4v-4.7"/></g><g id="XMLID_2022_"><path id="XMLID_2024_" class="st1" d="M368.4 253.8v-4.6"/></g><g id="XMLID_2019_"><path id="XMLID_2021_" class="st1" d="M368.4 235.3v-4.6"/></g><g id="XMLID_2014_"><path id="XMLID_2018_" class="st1" d="M368.4 216.8v-4.7"/></g><g id="XMLID_2012_"><path id="XMLID_2013_" class="st1" d="M368.4 198.2v-4.6"/></g><g id="XMLID_2009_"><path id="XMLID_2010_" class="st1" d="M368.4 179.7v-4.6"/></g><g id="XMLID_2007_"><path id="XMLID_2008_" class="st1" d="M368.4 161.2v-4.7"/></g><g id="XMLID_2005_"><path id="XMLID_2006_" class="st1" d="M368.4 142.6V138"/></g><g id="XMLID_2003_"><path id="XMLID_2004_" class="st1" d="M368.4 124.1v-4.6"/></g><g id="XMLID_2001_"><path id="XMLID_2002_" class="st1" d="M368.4 105.6v-4.7"/></g><g id="XMLID_1999_"><path id="XMLID_2000_" class="st1" d="M368.4 87v-4.6"/></g><g id="XMLID_1997_"><path id="XMLID_1998_" class="st1" d="M368.4 68.5v-4.6"/></g><g id="XMLID_1995_"><path id="XMLID_1996_" class="st1" d="M368.4 50v-4.7"/></g><g id="XMLID_1993_"><path id="XMLID_1994_" class="st1" d="M368.4 439v-4.6"/></g><g id="XMLID_1991_"><path id="XMLID_1992_" class="st1" d="M368.4 420.4v-4.6"/></g><g id="XMLID_1989_"><path id="XMLID_1990_" class="st1" d="M368.4 401.9v-4.6"/></g><g id="XMLID_1987_"><path id="XMLID_1988_" class="st1" d="M368.4 383.4v-4.7"/></g><g id="XMLID_1985_"><path id="XMLID_1986_" class="st1" d="M368.4 364.8v-4.6"/></g><g id="XMLID_1979_"><path id="XMLID_1984_" class="st1" d="M368.4 346.3v-4.6"/></g><g id="XMLID_1976_"><path id="XMLID_1978_" class="st1" d="M368.4 327.8v-4.7"/></g><g id="XMLID_1974_"><path id="XMLID_1975_" class="st1" d="M368.4 309.2v-4.6"/></g></g><path class="st2" d="M94.1 500.1h1.1c1 0 1.8-.4 1.8-1.9v-14.8h3.1V498c0 3.9-2.1 4.9-4.4 4.9-.6 0-1 0-1.5-.1v-2.7zM105 483.4v15c0 1.4.6 1.9 1.6 1.9s1.6-.5 1.6-1.9v-15h2.9v14.8c0 3.1-1.6 4.9-4.6 4.9-3 0-4.6-1.8-4.6-4.9v-14.8h3.1zM115.9 488.8v14.1h-2.8v-19.5h3.8L120 495v-11.6h2.7v19.5h-3.1l-3.7-14.1zM233 502.9h-3.1l-.5-3.5h-3.8l-.5 3.5h-2.8l3.1-19.5h4.5l3.1 19.5zm-7-6.2h2.9l-1.5-9.8-1.4 9.8zM237.4 483.4v15c0 1.4.6 1.9 1.6 1.9s1.6-.5 1.6-1.9v-15h2.9v14.8c0 3.1-1.6 4.9-4.6 4.9-3 0-4.6-1.8-4.6-4.9v-14.8h3.1zM250.1 492h4.3v6.2c0 3.1-1.6 4.9-4.6 4.9-3 0-4.6-1.8-4.6-4.9v-10.1c0-3.1 1.6-4.9 4.6-4.9 3 0 4.6 1.8 4.6 4.9v1.9h-2.9v-2.1c0-1.4-.6-1.9-1.6-1.9s-1.6.5-1.6 1.9v10.5c0 1.4.6 1.9 1.6 1.9s1.6-.5 1.6-1.9v-3.6h-1.4V492zM353.4 488.1c0-3.1 1.6-4.9 4.6-4.9 3 0 4.6 1.8 4.6 4.9v10.1c0 3.1-1.6 4.9-4.6 4.9-3 0-4.6-1.8-4.6-4.9v-10.1zm3.1 10.3c0 1.4.6 1.9 1.6 1.9s1.6-.5 1.6-1.9v-10.5c0-1.4-.6-1.9-1.6-1.9s-1.6.5-1.6 1.9v10.5zM373.5 495.6v2.6c0 3.1-1.6 4.9-4.6 4.9-3 0-4.6-1.8-4.6-4.9v-10.1c0-3.1 1.6-4.9 4.6-4.9 3 0 4.6 1.8 4.6 4.9v1.9h-2.9v-2.1c0-1.4-.6-1.9-1.6-1.9s-1.6.5-1.6 1.9v10.5c0 1.4.6 1.9 1.6 1.9s1.6-.5 1.6-1.9v-2.8h2.9zM374.5 483.4h9.5v2.8h-3.2v16.7h-3.1v-16.7h-3.2v-2.8zM483.1 483.4h4.8c3.1 0 4.6 1.7 4.6 4.8v9.8c0 3.1-1.5 4.8-4.6 4.8h-4.8v-19.4zm3 2.8v13.9h1.7c1 0 1.6-.5 1.6-1.9v-10.1c0-1.4-.6-1.9-1.6-1.9h-1.7zM497.5 491.6h4.2v2.8h-4.2v5.7h5.3v2.8h-8.3v-19.5h8.3v2.8h-5.3v5.4zM513.5 495.6v2.6c0 3.1-1.6 4.9-4.6 4.9-3 0-4.6-1.8-4.6-4.9v-10.1c0-3.1 1.6-4.9 4.6-4.9 3 0 4.6 1.8 4.6 4.9v1.9h-2.9v-2.1c0-1.4-.6-1.9-1.6-1.9s-1.6.5-1.6 1.9v10.5c0 1.4.6 1.9 1.6 1.9s1.6-.5 1.6-1.9v-2.8h2.9zM601.8 428.1c0-2.3 1.2-3.7 3.5-3.7s3.5 1.3 3.5 3.7v7.6c0 2.3-1.2 3.7-3.5 3.7s-3.5-1.3-3.5-3.7v-7.6zm2.3 7.8c0 1 .5 1.4 1.2 1.4s1.2-.4 1.2-1.4V428c0-1-.5-1.4-1.2-1.4s-1.2.4-1.2 1.4v7.9zM612.5 437v2.2h-2.2V437h2.2zM614 428.3c0-2.5 1.1-3.8 3.5-3.8 2.3 0 3.4 1.3 3.4 3.7v.4h-2.2v-.6c0-1-.5-1.4-1.2-1.4-.8 0-1.3.4-1.3 1.8v2.7c.4-.8 1.1-1.3 2.1-1.3 1.7 0 2.5 1.2 2.5 3.3v2.7c0 2.3-1.2 3.7-3.5 3.7s-3.5-1.3-3.5-3.7v-7.5zm2.3 4.9v2.6c0 1 .5 1.4 1.2 1.4s1.2-.4 1.2-1.4v-2.6c0-1-.5-1.4-1.2-1.4s-1.2.4-1.2 1.4zM621.9 434.5l4.2-9.9h2.5v9.9h1.1v2.1h-1.1v2.6h-2.3v-2.6h-4.4v-2.1zm4.4 0V429l-2.3 5.5h2.3zM630.5 428.1c0-2.3 1.2-3.7 3.5-3.7s3.5 1.3 3.5 3.7v7.6c0 2.3-1.2 3.7-3.5 3.7s-3.5-1.3-3.5-3.7v-7.6zm2.3 7.8c0 1 .5 1.4 1.2 1.4s1.2-.4 1.2-1.4V428c0-1-.5-1.4-1.2-1.4s-1.2.4-1.2 1.4v7.9zM638.7 428.1c0-2.3 1.2-3.7 3.5-3.7s3.5 1.3 3.5 3.7v7.6c0 2.3-1.2 3.7-3.5 3.7s-3.5-1.3-3.5-3.7v-7.6zm2.3 7.8c0 1 .5 1.4 1.2 1.4s1.2-.4 1.2-1.4V428c0-1-.5-1.4-1.2-1.4s-1.2.4-1.2 1.4v7.9zM601.8 314.6c0-2.3 1.2-3.7 3.5-3.7s3.5 1.3 3.5 3.7v7.6c0 2.3-1.2 3.7-3.5 3.7s-3.5-1.3-3.5-3.7v-7.6zm2.3 7.7c0 1 .5 1.4 1.2 1.4s1.2-.4 1.2-1.4v-7.9c0-1-.5-1.4-1.2-1.4s-1.2.4-1.2 1.4v7.9zM612.5 323.5v2.2h-2.2v-2.2h2.2zM614 314.7c0-2.5 1.1-3.8 3.5-3.8 2.3 0 3.4 1.3 3.4 3.7v.4h-2.2v-.5c0-1-.5-1.4-1.2-1.4-.8 0-1.3.4-1.3 1.8v2.7c.4-.8 1.1-1.3 2.1-1.3 1.7 0 2.5 1.2 2.5 3.3v2.7c0 2.3-1.2 3.7-3.5 3.7s-3.5-1.3-3.5-3.7v-7.6zm2.3 5v2.6c0 1 .5 1.4 1.2 1.4s1.2-.4 1.2-1.4v-2.6c0-1-.5-1.4-1.2-1.4s-1.2.4-1.2 1.4zM629.2 311.1v2l-3.4 12.6h-2.3l3.4-12.5h-4.6v-2.1h6.9zM630.5 314.6c0-2.3 1.2-3.7 3.5-3.7s3.5 1.3 3.5 3.7v7.6c0 2.3-1.2 3.7-3.5 3.7s-3.5-1.3-3.5-3.7v-7.6zm2.3 7.7c0 1 .5 1.4 1.2 1.4s1.2-.4 1.2-1.4v-7.9c0-1-.5-1.4-1.2-1.4s-1.2.4-1.2 1.4v7.9zM638.7 314.6c0-2.3 1.2-3.7 3.5-3.7s3.5 1.3 3.5 3.7v7.6c0 2.3-1.2 3.7-3.5 3.7s-3.5-1.3-3.5-3.7v-7.6zm2.3 7.7c0 1 .5 1.4 1.2 1.4s1.2-.4 1.2-1.4v-7.9c0-1-.5-1.4-1.2-1.4s-1.2.4-1.2 1.4v7.9z"/><g><path class="st2" d="M601.8 203.4c0-2.3 1.2-3.7 3.5-3.7s3.5 1.3 3.5 3.7v7.6c0 2.3-1.2 3.7-3.5 3.7s-3.5-1.3-3.5-3.7v-7.6zm2.3 7.7c0 1 .5 1.4 1.2 1.4s1.2-.4 1.2-1.4v-7.9c0-1-.5-1.4-1.2-1.4s-1.2.4-1.2 1.4v7.9zM612.5 212.3v2.2h-2.2v-2.2h2.2zM620.9 199.9v2l-3.4 12.6h-2.3l3.4-12.5H614v-2.1h6.9zM622.2 203.4c0-2.3 1.2-3.7 3.5-3.7s3.5 1.3 3.5 3.7v7.6c0 2.3-1.2 3.7-3.5 3.7s-3.5-1.3-3.5-3.7v-7.6zm2.3 7.7c0 1 .5 1.4 1.2 1.4s1.2-.4 1.2-1.4v-7.9c0-1-.5-1.4-1.2-1.4s-1.2.4-1.2 1.4v7.9zM630.5 203.4c0-2.3 1.2-3.7 3.5-3.7s3.5 1.3 3.5 3.7v7.6c0 2.3-1.2 3.7-3.5 3.7s-3.5-1.3-3.5-3.7v-7.6zm2.3 7.7c0 1 .5 1.4 1.2 1.4s1.2-.4 1.2-1.4v-7.9c0-1-.5-1.4-1.2-1.4s-1.2.4-1.2 1.4v7.9zM638.7 203.4c0-2.3 1.2-3.7 3.5-3.7s3.5 1.3 3.5 3.7v7.6c0 2.3-1.2 3.7-3.5 3.7s-3.5-1.3-3.5-3.7v-7.6zm2.3 7.7c0 1 .5 1.4 1.2 1.4s1.2-.4 1.2-1.4v-7.9c0-1-.5-1.4-1.2-1.4s-1.2.4-1.2 1.4v7.9z"/></g><g><path class="st2" d="M601.8 92.2c0-2.3 1.2-3.7 3.5-3.7s3.5 1.3 3.5 3.7v7.6c0 2.3-1.2 3.7-3.5 3.7s-3.5-1.3-3.5-3.7v-7.6zm2.3 7.7c0 1 .5 1.4 1.2 1.4s1.2-.4 1.2-1.4V92c0-1-.5-1.4-1.2-1.4s-1.2.4-1.2 1.4v7.9zM612.5 101.1v2.2h-2.2v-2.2h2.2zM620.9 88.7v2l-3.4 12.6h-2.3l3.4-12.5H614v-2.1h6.9zM626.8 92.3c0-1.3-.5-1.7-1.2-1.7s-1.2.4-1.2 1.4v1h-2.2v-.8c0-2.3 1.2-3.7 3.4-3.7 2.3 0 3.4 1.3 3.4 3.7v.4c0 1.6-.5 2.5-1.6 3 1.1.5 1.6 1.6 1.6 3.1v1.1c0 2.3-1.2 3.7-3.4 3.7-2.3 0-3.4-1.3-3.4-3.7v-1.2h2.2v1.4c0 1 .5 1.4 1.2 1.4s1.2-.4 1.2-1.6v-1.1c0-1.4-.5-1.9-1.5-1.9h-.8v-2.1h.9c.9 0 1.4-.4 1.4-1.5v-.9zM630.5 92.2c0-2.3 1.2-3.7 3.5-3.7s3.5 1.3 3.5 3.7v7.6c0 2.3-1.2 3.7-3.5 3.7s-3.5-1.3-3.5-3.7v-7.6zm2.3 7.7c0 1 .5 1.4 1.2 1.4s1.2-.4 1.2-1.4V92c0-1-.5-1.4-1.2-1.4s-1.2.4-1.2 1.4v7.9zM638.7 92.2c0-2.3 1.2-3.7 3.5-3.7s3.5 1.3 3.5 3.7v7.6c0 2.3-1.2 3.7-3.5 3.7s-3.5-1.3-3.5-3.7v-7.6zm2.3 7.7c0 1 .5 1.4 1.2 1.4s1.2-.4 1.2-1.4V92c0-1-.5-1.4-1.2-1.4S641 91 641 92v7.9z"/></g><path id="XMLID_1952_" class="st3" d="M25.5 471.6h644"/><path id="XMLID_1951_" class="st3" d="M25.5 513.3h644"/><g id="XMLID_1873_"><g id="XMLID_1949_"><path id="XMLID_1950_" class="st1" d="M238.6 457.7v-4.6"/></g><g id="XMLID_1947_"><path id="XMLID_1948_" class="st1" d="M238.6 439.2v-4.7"/></g><g id="XMLID_1945_"><path id="XMLID_1946_" class="st1" d="M238.6 309.4v-4.6"/></g><g id="XMLID_1943_"><path id="XMLID_1944_" class="st1" d="M238.6 290.9v-4.6"/></g><g id="XMLID_1941_"><path id="XMLID_1942_" class="st1" d="M238.6 272.4v-4.7"/></g><g id="XMLID_1939_"><path id="XMLID_1940_" class="st1" d="M238.6 253.8v-4.6"/></g><g id="XMLID_1937_"><path id="XMLID_1938_" class="st1" d="M238.6 235.3v-4.6"/></g><g id="XMLID_1935_"><path id="XMLID_1936_" class="st1" d="M238.6 216.8v-4.7"/></g><g id="XMLID_1933_"><path id="XMLID_1934_" class="st1" d="M238.6 198.2v-4.6"/></g><g id="XMLID_1931_"><path id="XMLID_1932_" class="st1" d="M238.6 179.7v-4.6"/></g><g id="XMLID_1929_"><path id="XMLID_1930_" class="st1" d="M238.6 161.2v-4.7"/></g><g id="XMLID_1914_"><path id="XMLID_1928_" class="st1" d="M238.6 142.6V138"/></g><g id="XMLID_1912_"><path id="XMLID_1913_" class="st1" d="M238.6 124.1v-4.6"/></g><g id="XMLID_1910_"><path id="XMLID_1911_" class="st1" d="M238.6 105.6v-4.7"/></g><g id="XMLID_1908_"><path id="XMLID_1909_" class="st1" d="M238.6 87v-4.6"/></g><g id="XMLID_1906_"><path id="XMLID_1907_" class="st1" d="M238.6 68.5v-4.6"/></g><g id="XMLID_1904_"><path id="XMLID_1905_" class="st1" d="M238.6 50v-4.7"/></g><g id="XMLID_1902_"><path id="XMLID_1903_" class="st1" d="M238.6 439v-4.6"/></g><g id="XMLID_1899_"><path id="XMLID_1901_" class="st1" d="M238.6 420.4v-4.6"/></g><g id="XMLID_1893_"><path id="XMLID_1896_" class="st1" d="M238.6 401.9v-4.6"/></g><g id="XMLID_1887_"><path id="XMLID_1890_" class="st1" d="M238.6 383.4v-4.7"/></g><g id="XMLID_1885_"><path id="XMLID_1886_" class="st1" d="M238.6 364.8v-4.6"/></g><g id="XMLID_1881_"><path id="XMLID_1884_" class="st1" d="M238.6 346.3v-4.6"/></g><g id="XMLID_1876_"><path id="XMLID_1878_" class="st1" d="M238.6 327.8v-4.7"/></g><g id="XMLID_1874_"><path id="XMLID_1875_" class="st1" d="M238.6 309.2v-4.6"/></g></g><g id="XMLID_1795_"><g id="XMLID_1871_"><path id="XMLID_1872_" class="st1" d="M108.9 457.7v-4.6"/></g><g id="XMLID_1869_"><path id="XMLID_1870_" class="st1" d="M108.9 439.2v-4.7"/></g><g id="XMLID_1867_"><path id="XMLID_1868_" class="st1" d="M108.9 309.4v-4.6"/></g><g id="XMLID_1865_"><path id="XMLID_1866_" class="st1" d="M108.9 290.9v-4.6"/></g><g id="XMLID_1863_"><path id="XMLID_1864_" class="st1" d="M108.9 272.4v-4.7"/></g><g id="XMLID_1861_"><path id="XMLID_1862_" class="st1" d="M108.9 253.8v-4.6"/></g><g id="XMLID_1859_"><path id="XMLID_1860_" class="st1" d="M108.9 235.3v-4.6"/></g><g id="XMLID_1857_"><path id="XMLID_1858_" class="st1" d="M108.9 216.8v-4.7"/></g><g id="XMLID_1855_"><path id="XMLID_1856_" class="st1" d="M108.9 198.2v-4.6"/></g><g id="XMLID_1853_"><path id="XMLID_1854_" class="st1" d="M108.9 179.7v-4.6"/></g><g id="XMLID_1851_"><path id="XMLID_1852_" class="st1" d="M108.9 161.2v-4.7"/></g><g id="XMLID_1849_"><path id="XMLID_1850_" class="st1" d="M108.9 142.6V138"/></g><g id="XMLID_1833_"><path id="XMLID_1848_" class="st1" d="M108.9 124.1v-4.6"/></g><g id="XMLID_1827_"><path id="XMLID_1830_" class="st1" d="M108.9 105.6v-4.7"/></g><g id="XMLID_1822_"><path id="XMLID_1824_" class="st1" d="M108.9 87v-4.6"/></g><g id="XMLID_1820_"><path id="XMLID_1821_" class="st1" d="M108.9 68.5v-4.6"/></g><g id="XMLID_1817_"><path id="XMLID_1819_" class="st1" d="M108.9 50v-4.7"/></g><g id="XMLID_1811_"><path id="XMLID_1812_" class="st1" d="M108.9 439v-4.6"/></g><g id="XMLID_1808_"><path id="XMLID_1809_" class="st1" d="M108.9 420.4v-4.6"/></g><g id="XMLID_1806_"><path id="XMLID_1807_" class="st1" d="M108.9 401.9v-4.6"/></g><g id="XMLID_1804_"><path id="XMLID_1805_" class="st1" d="M108.9 383.4v-4.7"/></g><g id="XMLID_1802_"><path id="XMLID_1803_" class="st1" d="M108.9 364.8v-4.6"/></g><g id="XMLID_1800_"><path id="XMLID_1801_" class="st1" d="M108.9 346.3v-4.6"/></g><g id="XMLID_1798_"><path id="XMLID_1799_" class="st1" d="M108.9 327.8v-4.7"/></g><g id="XMLID_1796_"><path id="XMLID_1797_" class="st1" d="M108.9 309.2v-4.6"/></g></g><path id="XMLID_1794_" class="st3" d="M583.8 471.6V50"/><path id="XMLID_1792_" class="st3" d="M583.8 429.9h9.3"/><path id="XMLID_1790_" class="st3" d="M583.8 318.7h9.3"/><path id="XMLID_1789_" class="st3" d="M583.8 207.5h9.3"/><path id="XMLID_1788_" class="st3" d="M583.8 96.3h9.3"/><g><path class="st4" d="M28.6 412.1l-2.2-4 147.2-81.8 35 45.3 112.7-96.3 85 57.3 168.1-120.4 2.6 3.7-170.7 122.2-84.7-57.1L208 378.2l-35.6-46z"/></g><g><path class="st5" d="M25.4 429l5.9-1.2"/><path class="st6" d="M43.2 425.5l521.7-102.2"/><path class="st5" d="M570.9 322.2l5.9-1.2"/></g></svg>