<svg xmlns:xlink="http://www.w3.org/1999/xlink" xmlns="http://www.w3.org/2000/svg" baseProfile="basic" width="695" height="445" viewBox="0 0 695 445" preserveAspectRatio="xMinYMin meet"><defs><symbol id="a" overflow="visible"><path fill="none" stroke="#324358" stroke-width="2.5" stroke-linecap="round" stroke-linejoin="round" d="M161.201 44.351q-6.25-8.85-16.95-10.75l-25.85-4.5q-10.7-1.85-19.55 4.35-8.9 6.25-10.75 16.95l-5.3 30.15q-2.75 16.05 6.6 29.35 9.35 13.35 25.4 16.15 16.05 2.8 29.4-6.55 13.35-9.4 16.1-25.45l5.3-30.1q1.85-10.7-4.4-19.6"/></symbol></defs><g overflow="visible"><path fill="none" stroke="#324358" stroke-width="2.5" stroke-linecap="round" stroke-linejoin="round" d="M609.479 398.477h7.92M71.023 398.477h519.646M216.453 410.307h238.241"/><path fill="#CDCCCC" d="M153.49 94.005l-6.138-5.197-8.415 10.048 6.187 5.148 8.366-9.999M615.469 248.741l-8.415 9.999 6.187 5.197 8.415-9.999-6.187-5.197M238.827 285.865l8.415-9.998-6.188-5.198-8.415 9.999 6.188 5.197M513.896 54.059l11.335 6.534 4.009-7.029-11.285-6.534-4.059 7.029M430.439 142.911l-11.335-6.534-4.009 6.979 11.335 6.534 4.009-6.979M106.614 283.44l4.009-7.029-11.286-6.534-4.059 7.029 11.336 6.534"/><g transform="matrix(.99 0 0 .99 635.45 139.6)"><animateTransform attributeName="transform" additive="replace" type="translate" repeatCount="indefinite" dur="1.458s" keyTimes="0;1" values="635.45,139.6;635.45,139.6" calcMode="discrete"/><animateTransform attributeName="transform" additive="sum" type="skewY" repeatCount="indefinite" dur="1.458s" keyTimes="0;0.114;0.115;0.228;0.229;0.342;0.343;0.457;0.458;0.571;0.572;0.685;0.686;0.914;0.915;1" values="0;0;180;180;0;0;180;180;0;0;180;180;0;0;180;180" calcMode="discrete"/><animateTransform attributeName="transform" additive="sum" type="scale" repeatCount="indefinite" dur="1.458s" keyTimes="0;0.114;0.115;0.228;0.229;0.342;0.343;0.457;0.458;0.571;0.572;0.685;0.686;0.914;0.915;1" values="0.99,0.99;0.99,0.99;-0.99,0.99;-0.99,0.99;0.99,0.99;0.99,0.99;-0.99,0.99;-0.99,0.99;0.99,0.99;0.99,0.99;-0.99,0.99;-0.99,0.99;0.99,0.99;0.99,0.99;-0.99,0.99;-0.99,0.99" calcMode="discrete"/><path fill="#D95B5B" stroke="#324358" stroke-width="2.5" stroke-linecap="round" stroke-linejoin="round" d="M-1.049 7.751l8.45-10.1-6.25-5.25-8.45 10.15 6.25 5.2"/></g><g transform="matrix(.99 0 0 .99 586.7 309.65)"><animateTransform attributeName="transform" additive="replace" type="translate" repeatCount="indefinite" dur="1.458s" keyTimes="0;1" values="586.7,309.65;586.7,309.65" calcMode="discrete"/><animateTransform attributeName="transform" additive="sum" type="skewY" repeatCount="indefinite" dur="1.458s" keyTimes="0;0.114;0.115;0.228;0.229;0.342;0.343;0.457;0.458;0.571;0.572;0.685;0.686;0.914;0.915;1" values="0;0;180;180;0;0;180;180;0;0;180;180;0;0;180;180" calcMode="discrete"/><animateTransform attributeName="transform" additive="sum" type="scale" repeatCount="indefinite" dur="1.458s" keyTimes="0;0.114;0.115;0.228;0.229;0.342;0.343;0.457;0.458;0.571;0.572;0.685;0.686;0.914;0.915;1" values="0.99,0.99;0.99,0.99;-0.99,0.99;-0.99,0.99;0.99,0.99;0.99,0.99;-0.99,0.99;-0.99,0.99;0.99,0.99;0.99,0.99;-0.99,0.99;-0.99,0.99;0.99,0.99;0.99,0.99;-0.99,0.99;-0.99,0.99" calcMode="discrete"/><path fill="#EFBB76" stroke="#324358" stroke-width="2.5" stroke-linecap="round" stroke-linejoin="round" d="M-7.699.301l11.45 6.6 4.1-7.1-11.45-6.6-4.1 7.1"/></g><g transform="matrix(.99 0 0 .99 575.35 135.65)"><animateTransform attributeName="transform" additive="replace" type="translate" repeatCount="indefinite" dur="1.458s" keyTimes="0;1" values="575.35,135.65;575.35,135.65" calcMode="discrete"/><animateTransform attributeName="transform" additive="sum" type="skewY" repeatCount="indefinite" dur="1.458s" keyTimes="0;0.114;0.115;0.228;0.229;0.342;0.343;0.457;0.458;0.571;0.572;0.685;0.686;0.914;0.915;1" values="0;0;180;180;0;0;180;180;0;0;180;180;0;0;180;180" calcMode="discrete"/><animateTransform attributeName="transform" additive="sum" type="scale" repeatCount="indefinite" dur="1.458s" keyTimes="0;0.114;0.115;0.228;0.229;0.342;0.343;0.457;0.458;0.571;0.572;0.685;0.686;0.914;0.915;1" values="0.99,0.99;0.99,0.99;-0.99,0.99;-0.99,0.99;0.99,0.99;0.99,0.99;-0.99,0.99;-0.99,0.99;0.99,0.99;0.99,0.99;-0.99,0.99;-0.99,0.99;0.99,0.99;0.99,0.99;-0.99,0.99;-0.99,0.99" calcMode="discrete"/><path fill="#EFBB76" stroke="#324358" stroke-width="2.5" stroke-linecap="round" stroke-linejoin="round" d="M-3.649-6.749l-4.05 7.05 11.4 6.6 4.1-7.05-11.45-6.6"/></g><g transform="matrix(.99 0 0 .99 421.5 283.2)"><animateTransform attributeName="transform" additive="replace" type="translate" repeatCount="indefinite" dur="1.458s" keyTimes="0;1" values="421.5,283.2;421.5,283.2" calcMode="discrete"/><animateTransform attributeName="transform" additive="sum" type="skewY" repeatCount="indefinite" dur="1.458s" keyTimes="0;0.114;0.115;0.228;0.229;0.342;0.343;0.457;0.458;0.571;0.572;0.685;0.686;0.914;0.915;1" values="0;0;180;180;0;0;180;180;0;0;180;180;0;0;180;180" calcMode="discrete"/><animateTransform attributeName="transform" additive="sum" type="scale" repeatCount="indefinite" dur="1.458s" keyTimes="0;0.114;0.115;0.228;0.229;0.342;0.343;0.457;0.458;0.571;0.572;0.685;0.686;0.914;0.915;1" values="0.99,0.99;0.99,0.99;-0.99,0.99;-0.99,0.99;0.99,0.99;0.99,0.99;-0.99,0.99;-0.99,0.99;0.99,0.99;0.99,0.99;-0.99,0.99;-0.99,0.99;0.99,0.99;0.99,0.99;-0.99,0.99;-0.99,0.99" calcMode="discrete"/><path fill="#9DCB7D" stroke="#324358" stroke-width="2.5" stroke-linecap="round" stroke-linejoin="round" d="M3.751 6.901l4.1-7.05-11.45-6.6-4.1 7.05 11.45 6.6"/></g><g transform="matrix(.99 0 0 .99 419.4 78.85)"><animateTransform attributeName="transform" additive="replace" type="translate" repeatCount="indefinite" dur="1.458s" keyTimes="0;1" values="419.4,78.85;419.4,78.85" calcMode="discrete"/><animateTransform attributeName="transform" additive="sum" type="skewY" repeatCount="indefinite" dur="1.458s" keyTimes="0;0.114;0.115;0.228;0.229;0.342;0.343;0.457;0.458;0.571;0.572;0.685;0.686;0.914;0.915;1" values="0;0;180;180;0;0;180;180;0;0;180;180;0;0;180;180" calcMode="discrete"/><animateTransform attributeName="transform" additive="sum" type="scale" repeatCount="indefinite" dur="1.458s" keyTimes="0;0.114;0.115;0.228;0.229;0.342;0.343;0.457;0.458;0.571;0.572;0.685;0.686;0.914;0.915;1" values="0.99,0.99;0.99,0.99;-0.99,0.99;-0.99,0.99;0.99,0.99;0.99,0.99;-0.99,0.99;-0.99,0.99;0.99,0.99;0.99,0.99;-0.99,0.99;-0.99,0.99;0.99,0.99;0.99,0.99;-0.99,0.99;-0.99,0.99" calcMode="discrete"/><path fill="#D95B5B" stroke="#324358" stroke-width="2.5" stroke-linecap="round" stroke-linejoin="round" d="M-1.049 7.751l8.45-10.15-6.2-5.2-8.5 10.1 6.25 5.25"/></g><g transform="matrix(.99 0 0 .99 247.7 64)"><animateTransform attributeName="transform" additive="replace" type="translate" repeatCount="indefinite" dur="1.458s" keyTimes="0;1" values="247.7,64;247.7,64" calcMode="discrete"/><animateTransform attributeName="transform" additive="sum" type="skewY" repeatCount="indefinite" dur="1.458s" keyTimes="0;0.114;0.115;0.228;0.229;0.342;0.343;0.457;0.458;0.571;0.572;0.685;0.686;0.914;0.915;1" values="0;0;180;180;0;0;180;180;0;0;180;180;0;0;180;180" calcMode="discrete"/><animateTransform attributeName="transform" additive="sum" type="scale" repeatCount="indefinite" dur="1.458s" keyTimes="0;0.114;0.115;0.228;0.229;0.342;0.343;0.457;0.458;0.571;0.572;0.685;0.686;0.914;0.915;1" values="0.99,0.99;0.99,0.99;-0.99,0.99;-0.99,0.99;0.99,0.99;0.99,0.99;-0.99,0.99;-0.99,0.99;0.99,0.99;0.99,0.99;-0.99,0.99;-0.99,0.99;0.99,0.99;0.99,0.99;-0.99,0.99;-0.99,0.99" calcMode="discrete"/><path fill="#9DCB7D" stroke="#324358" stroke-width="2.5" stroke-linecap="round" stroke-linejoin="round" d="M-1.049 7.751l8.5-10.15-6.25-5.2-8.5 10.1 6.25 5.25"/></g><g transform="matrix(.99 0 0 .99 86.7 78.05)"><animateTransform attributeName="transform" additive="replace" type="translate" repeatCount="indefinite" dur="1.458s" keyTimes="0;1" values="86.7,78.05;86.7,78.05" calcMode="discrete"/><animateTransform attributeName="transform" additive="sum" type="skewY" repeatCount="indefinite" dur="1.458s" keyTimes="0;0.114;0.115;0.228;0.229;0.342;0.343;0.457;0.458;0.571;0.572;0.685;0.686;0.914;0.915;1" values="0;0;180;180;0;0;180;180;0;0;180;180;0;0;180;180" calcMode="discrete"/><animateTransform attributeName="transform" additive="sum" type="scale" repeatCount="indefinite" dur="1.458s" keyTimes="0;0.114;0.115;0.228;0.229;0.342;0.343;0.457;0.458;0.571;0.572;0.685;0.686;0.914;0.915;1" values="0.99,0.99;0.99,0.99;-0.99,0.99;-0.99,0.99;0.99,0.99;0.99,0.99;-0.99,0.99;-0.99,0.99;0.99,0.99;0.99,0.99;-0.99,0.99;-0.99,0.99;0.99,0.99;0.99,0.99;-0.99,0.99;-0.99,0.99" calcMode="discrete"/><path fill="#EFBB76" stroke="#324358" stroke-width="2.5" stroke-linecap="round" stroke-linejoin="round" d="M-7.699.301l11.45 6.6 4.05-7.05-11.45-6.6-4.05 7.05"/></g><g transform="matrix(.99 0 0 .99 69.3 309.9)"><animateTransform attributeName="transform" additive="replace" type="translate" repeatCount="indefinite" dur="1.458s" keyTimes="0;1" values="69.3,309.9;69.3,309.9" calcMode="discrete"/><animateTransform attributeName="transform" additive="sum" type="skewY" repeatCount="indefinite" dur="1.458s" keyTimes="0;0.114;0.115;0.228;0.229;0.342;0.343;0.457;0.458;0.571;0.572;0.685;0.686;0.914;0.915;1" values="0;0;180;180;0;0;180;180;0;0;180;180;0;0;180;180" calcMode="discrete"/><animateTransform attributeName="transform" additive="sum" type="scale" repeatCount="indefinite" dur="1.458s" keyTimes="0;0.114;0.115;0.228;0.229;0.342;0.343;0.457;0.458;0.571;0.572;0.685;0.686;0.914;0.915;1" values="0.99,0.99;0.99,0.99;-0.99,0.99;-0.99,0.99;0.99,0.99;0.99,0.99;-0.99,0.99;-0.99,0.99;0.99,0.99;0.99,0.99;-0.99,0.99;-0.99,0.99;0.99,0.99;0.99,0.99;-0.99,0.99;-0.99,0.99" calcMode="discrete"/><path fill="#D95B5B" stroke="#324358" stroke-width="2.5" stroke-linecap="round" stroke-linejoin="round" d="M-1.049 7.751l8.5-10.1-6.25-5.25-8.5 10.15 6.25 5.2"/></g><path fill="#EAB294" stroke="#324358" stroke-width="2.5" stroke-linecap="round" stroke-linejoin="round" d="M168.092 292.251l-11.929 2.772 12.325 53.113-47.668 34.303 7.128 9.949 54.301-39.104-14.157-61.033"/><path fill="#9E785D" stroke="#324358" stroke-width="2.5" stroke-linecap="round" stroke-linejoin="round" d="M152.45 388.973q-3.613-3.613-8.662-3.613h-12.573l-7.92-7.92-10.098 7.227 12.919 12.968h29.898q0-5.098-3.564-8.662"/><path fill="#EAB294" stroke="#324358" stroke-width="2.5" stroke-linecap="round" stroke-linejoin="round" d="M200.267 292.251l-11.93 2.772 12.326 53.113-47.668 34.303 7.177 9.949 54.252-39.104-14.157-61.033"/><path fill="#9E785D" stroke="#324358" stroke-width="2.5" stroke-linecap="round" stroke-linejoin="round" d="M188.189 397.635q0-5.098-3.564-8.662-3.614-3.613-8.663-3.613H163.39l-7.92-7.92-10.098 7.227 12.969 12.968h29.848"/><path fill="#9DCB7D" stroke="#324358" stroke-width="2.5" stroke-linecap="round" stroke-linejoin="round" d="M160.172 341.503q2.822 1.98 6.287 1.584l54.003-5.643q4.307-.446 6.782-4.009 2.425-3.564 1.287-7.772l-14.107-42.371-66.33 3.464 8.316 49.45q.891 3.366 3.762 5.297"/><path fill="#7AAA5A" d="M149.737 290.909l1.782 14.998 67.319-15.889-69.101.891"/><path fill="none" stroke="#324358" stroke-width="2.5" stroke-linecap="round" stroke-linejoin="round" d="M160.172 341.503q2.822 1.98 6.287 1.584l54.003-5.643q4.307-.446 6.782-4.009 2.425-3.564 1.287-7.772l-14.107-42.371-66.33 3.464 8.316 49.45q.891 3.366 3.762 5.297"/><path fill="#EAB294" stroke="#324358" stroke-width="2.5" stroke-linecap="round" stroke-linejoin="round" d="M393.216 282.945l-13.415 6.88-9.206 60.538 12.226 1.188 10.395-68.606M308.225 386.448v-17.374h-10.642v17.374h10.642"/><path fill="#C5E4EA" d="M354.516 249.28l-1.782.049-6.682-4.455-3.069 4.703-27.027.742-.05-.297-2.673.347-12.696-1.832 5.766 1.436-10.345-2.079 4.579.643-8.885-2.178-6.93 78.209q-.198 1.881.099 3.812l7.474 46.628 23.512-.792-6.435-43.51q-1.039-6.583.198-13.365l8.811-48.757 18.414-.495 36.382 24.107-5.544 36.728 24.206 3.663 6.732-44.45q.544-3.515-.941-6.782-1.435-3.267-4.405-5.247l-38.659-25.591-.05-1.237"/><path fill="#C5E4EA" d="M300.537 248.537l-4.579-.643 10.345 2.079-5.766-1.436"/><path fill="none" stroke="#324358" stroke-width="2.5" stroke-linecap="round" stroke-linejoin="round" d="M352.734 249.329l-6.682-4.455-3.069 4.703-27.027.742-.05-.297-2.673.347-12.696-1.832-8.885-2.178-6.93 78.209q-.198 1.881.099 3.812l7.474 46.628 23.512-.792-6.435-43.51q-1.039-6.583.198-13.365l8.811-48.757 18.414-.495 36.382 24.107-5.544 36.728 24.206 3.663 6.732-44.45q.544-3.515-.941-6.782-1.435-3.267-4.405-5.247l-38.659-25.591-.05-1.237-1.782.049"/><path fill="none" stroke="#324358" stroke-width="2.5" stroke-linecap="round" stroke-linejoin="round" d="M300.537 248.537l5.766 1.436-10.345-2.079 4.579.643"/><path fill="#8CBAC3" d="M292.147 248.339l-1.584 19.701 70.041-14.454-68.457-5.247"/><path fill="none" stroke="#324358" stroke-width="2.5" stroke-linecap="round" stroke-linejoin="round" d="M354.516 249.28l-1.782.049-6.682-4.455-3.069 4.703-27.027.742-.05-.297-2.673.347-19.156-2.822-2.425 5.693-6.93 71.328q-.198 1.881.099 3.812l7.474 46.628 23.512-.792-6.435-43.51q-1.039-6.583.198-13.365l8.811-48.757 18.414-.495 36.382 24.107-5.544 36.728 24.206 3.663 6.732-44.45q.544-3.515-.941-6.782-1.435-3.267-4.405-5.247l-38.659-25.591-.05-1.237"/><path fill="#9E785D" stroke="#324358" stroke-width="2.5" stroke-linecap="round" stroke-linejoin="round" d="M405.591 359.174q0-4.356-3.119-7.425-3.069-3.069-7.425-3.069h-24.551l-1.782 10.494h36.877M287.881 386.448q-4.356 0-7.475 3.069-3.069 3.119-3.069 7.475h36.828l-1.732-10.544h-24.552"/><path fill="#FFF" stroke="#324358" stroke-width="2.5" stroke-linecap="round" stroke-linejoin="round" d="M440.092 397.734l-1.931-11.632h-27.175q-4.851 0-8.266 3.415-3.416 3.416-3.416 8.217h40.788"/><path fill="#EAB294" stroke="#324358" stroke-width="2.5" stroke-linecap="round" stroke-linejoin="round" d="M431.578 327.792L419.5 320.02l3.515 66.082h11.681l-3.118-58.31M512.807 299.973l-11.336-2.624-13.513 58.162 51.727 37.224 6.781-9.454-45.391-32.67 11.732-50.638"/><path fill="#CDCCCC" stroke="#324358" stroke-width="2.5" stroke-linecap="round" stroke-linejoin="round" d="M415.392 318.189q-1.683 2.97-1.485 6.336l2.277 42.767 23.264-1.237-1.881-35.343 36.729-19.503 17.424 2.178-8.564 37.026q-.792 3.465.446 6.732 1.237 3.316 4.108 5.346l24.255 17.523 13.612-18.909-17.968-12.969 10.89-46.827-5.494-1.287.198-1.534-14.9-1.881-2.524-.594-.05.297-25.541-3.218-2.525-4.752-6.732 3.614-1.683-.248-.148 1.238-39.006 20.691q-3.019 1.584-4.702 4.554"/><path fill="#A7A4AD" d="M514.102 316.648l5.841-18.314q-35.787-9.236-66.923-3.119l61.082 21.433"/><path fill="none" stroke="#324358" stroke-width="2.5" stroke-linecap="round" stroke-linejoin="round" d="M459.207 291.651l-.148 1.238-39.006 20.69q-3.019 1.584-4.702 4.554-1.683 2.97-1.485 6.336l2.277 42.768 23.265-1.238-1.881-35.342 36.728-19.503 17.424 2.178-8.563 37.026q-.792 3.465.445 6.731 1.238 3.317 4.109 5.346l24.254 17.523 13.613-18.909-17.969-12.968 12.87-53.212-12.375 1.188 5.099 2.376-14.899-1.881-2.525-.594-.049.297-25.542-3.218-2.525-4.752-6.732 3.614-1.683-.248"/><path fill="#FFF" stroke="#324358" stroke-width="2.5" stroke-linecap="round" stroke-linejoin="round" d="M553.743 385.409l-9.603-6.88-7.524 7.573h-11.979q-4.851 0-8.266 3.415-3.416 3.416-3.416 8.217h28.462l12.326-12.325"/><g transform="matrix(.98 -.141 .141 .98 49.95 129.85)"><animateTransform attributeName="transform" additive="replace" type="translate" dur="1.458s" keyTimes="0;1" values="0,0;0,0" fill="freeze"/><animateTransform attributeName="transform" additive="sum" type="translate" repeatCount="indefinite" dur="1.458s" keyTimes="0;0.029;0.057;0.086;0.114;0.143;0.171;0.2;0.229;0.257;0.286;0.314;0.343;0.372;0.4;0.429;0.457;0.486;0.514;0.543;0.572;0.6;0.629;0.657;0.686;0.714;0.743;0.772;0.8;0.828;0.829;1" values="184.987,291.4;185.117,291.367;185.135,291.471;185.042,291.427;185.097,291.37;185.078,291.388;184.989,291.463;185.036,291.465;185.032,291.453;185.104,291.421;185.15,291.38;185.025,291.415;185.094,291.419;185.081,291.413;185.094,291.361;185.127,291.401;185.075,291.382;185.048,291.365;185.044,291.35;185.061,291.41;185.005,291.324;185.052,291.372;185.072,291.374;185.005,291.357;185.058,291.464;185.121,291.276;185.005,291.405;185.129,291.422;185.107,291.435;185.055,291.401;0;0" calcMode="discrete"/><animateTransform attributeName="transform" additive="sum" type="translate" repeatCount="indefinite" dur="1.458s" keyTimes="0;0.829;0.857;0.886;0.914;0.943;0.972;1" values="0;185.055,291.401;185.026,291.411;185.078,291.357;185.059,291.463;185.037,291.385;185.065,291.418;184.987,291.4" calcMode="discrete"/><animateTransform attributeName="transform" additive="sum" type="rotate" repeatCount="indefinite" dur="1.458s" keyTimes="0;0.029;0.057;0.086;0.114;0.143;0.171;0.2;0.229;0.257;0.286;0.314;0.343;0.372;0.4;0.429;0.457;0.486;0.514;0.543;0.572;0.6;0.629;0.657;0.686;0.714;0.743;0.772;0.8;0.828;0.829;1" values="-8.211,0,0;-6.291,0,0;-4.557,0,0;-3.037,0,0;-1.548,0,0;-0.275,0,0;0.781,0,0;1.807,0,0;2.804,0,0;3.774,0,0;4.525,0,0;5.062,0,0;5.756,0,0;6.045,0,0;6.305,0,0;6.538,0,0;6.696,0,0;5.045,0,0;3.556,0,0;2.278,0,0;1.02,0,0;-0.029,0,0;-1.058,0,0;-2.253,0,0;-3.054,0,0;-4.021,0,0;-4.779,0,0;-5.519,0,0;-6.049,0,0;-6.557,0,0;0;0" calcMode="discrete"/><animateTransform attributeName="transform" additive="sum" type="rotate" repeatCount="indefinite" dur="1.458s" keyTimes="0;0.829;0.857;0.886;0.914;0.943;0.972;1" values="0;-6.557,0,0;-7.046,0,0;-7.515,0,0;-7.775,0,0;-8.014,0,0;-8.044,0,0;-8.211,0,0" calcMode="discrete"/><animateTransform attributeName="transform" additive="sum" type="scale" repeatCount="indefinite" dur="1.458s" keyTimes="0;0.029;0.057;0.086;0.257;0.286;0.429;0.457;0.486;0.514;0.714;0.743;0.828;0.829;1" values="0.99,0.99;0.989,0.989;0.989,0.989;0.99,0.99;0.99,0.99;0.989,0.989;0.989,0.989;0.99,0.99;0.989,0.989;0.99,0.99;0.99,0.99;0.989,0.989;0.989,0.989;1;1" calcMode="discrete"/><animateTransform attributeName="transform" additive="sum" type="scale" repeatCount="indefinite" dur="1.458s" keyTimes="0;0.829;0.972;1" values="1;0.989,0.989;0.989,0.989;0.99,0.99" calcMode="discrete"/><animateTransform attributeName="transform" additive="sum" type="translate" repeatCount="indefinite" dur="1.458s" keyTimes="0;0.029;0.057;0.086;0.114;0.143;0.171;0.2;0.229;0.257;0.314;0.343;0.372;0.4;0.457;0.486;0.514;0.543;0.572;0.6;0.629;0.657;0.686;0.714;0.743;0.772;0.8;0.828;0.829;1" values="-111.65,-180.95;-111.8,-181;-111.8,-181.05;-111.7,-181;-111.75,-180.95;-111.8,-181;-111.65,-181.15;-111.65,-181;-111.65,-180.95;-111.75,-181.05;-111.75,-181.05;-111.85,-181.05;-111.75,-181.05;-111.85,-181;-111.85,-181;-111.75,-180.95;-111.7,-180.95;-111.75,-181;-111.75,-180.95;-111.75,-180.95;-111.85,-181.05;-111.75,-180.95;-111.75,-181;-111.85,-181;-111.7,-181.05;-111.85,-181;-111.8,-181;-111.8,-181;0;0" calcMode="discrete"/><animateTransform attributeName="transform" additive="sum" type="translate" repeatCount="indefinite" dur="1.458s" keyTimes="0;0.829;0.857;0.886;0.914;0.943;0.972;1" values="0;-111.8,-181;-111.65,-180.95;-111.75,-181;-111.75,-181.1;-111.7,-181;-111.7,-181;-111.65,-180.95" calcMode="discrete"/><path fill="#EAB294" d="M213.2 88.45q-5.15 0-8.75 3.6-3.65 3.6-3.65 8.75l.05 1-30.55 19.85-12.05-4.95-4.7 11.45 15.05 6.15q1.15.45 2.35.45 1.9 0 3.35-.95l33.6-21.85q2.55 1.2 5.3 1.2 5.1 0 8.75-3.6 3.6-3.65 3.6-8.75 0-5.15-3.6-8.75-3.65-3.6-8.75-3.6M3.15 78.15q3.1 3.45 7.75 4l13.1 40.1q.6 1.9 2.25 3.1 1.6 1.2 3.6 1.2l16.65-.4-.3-12.375-11.9.275-12-36.8q2.4-3.3 2.4-7.35 0-5.15-3.6-8.75-3.6-3.6-8.75-3.6-5.1 0-8.7 3.6Q0 64.75 0 69.9q0 4.7 3.15 8.25"/><path fill="#EDEEEE" d="M66 109.25l-.1-.2-19.8.6.1 4.125.3 12.375.1 4.1 19.925-.575.975 9.25q.156 1.529.3 3.05 1.754 18.266 3.5 36.525.3 3.3 2.85 5.4 2.55 2.1 5.85 1.8l57.95-5.4q3.25-.3 5.4-2.85 2.1-2.55 1.8-5.8-1.81-19.336-3.625-38.675-.064-.69-.125-1.375l-.35-4.15h-.075l-.025-.175.1.175 10.95 4.5 1.55-3.8 4.7-11.45 1.55-3.8-24.9-11.1-.025.25-7.225.525 7.25-.775-34-1-35 8.25 6.35-.675-6.25.875m74.975 18.2l-.025-.175.1.175h-.075"/><path fill="none" stroke="#314358" stroke-width="2.5" stroke-linecap="round" stroke-linejoin="round" d="M200.8 100.8q0-5.15 3.65-8.75m-3.6 9.75l-.05-1m-30.5 20.85l30.55-19.85m-42.6 14.9l12.05 4.95m-1.7 12.65l-15.05-6.15m17.4 6.6q-1.2 0-2.35-.45m5.7-.5q-1.45.95-3.35.95m36.95-22.8l-33.6 21.85m38.9-20.65q-2.75 0-5.3-1.2m14.05-2.4q-3.65 3.6-8.75 3.6m12.35-12.35q0 5.1-3.6 8.75m0-17.5q3.6 3.6 3.6 8.75M213.2 88.45q5.1 0 8.75 3.6m-17.5 0q3.6-3.6 8.75-3.6"/><path fill="none" stroke="#324358" stroke-width="2.5" stroke-linecap="round" stroke-linejoin="round" d="M159.8 112.9l-1.55 3.8m-23.35-14.9l24.9 11.1m-113.7-3.25l19.8-.6m-19.7 4.725l-.1-4.125m-11.8 4.4l11.9-.275M22.3 77.25l12 36.8M24.7 69.9q0 4.05-2.4 7.35m-1.2-16.1q3.6 3.6 3.6 8.75M12.35 57.55q5.15 0 8.75 3.6m-17.45 0q3.6-3.6 8.7-3.6M0 69.9q0-5.15 3.65-8.75m-.5 17Q0 74.6 0 69.9m10.9 12.25q-4.65-.55-7.75-4M24 122.25l-13.1-40.1m15.35 43.2q-1.65-1.2-2.25-3.1m5.85 4.3q-2 0-3.6-1.2m20.25.8l-16.65.4m16.75 3.7l-.1-4.1m20.025 3.525l-19.925.575m105.4 1.7l-10.95-4.5m12.5.7l-1.55 3.8M158.25 116.7l-4.7 11.45M46.5 126.15l-.3-12.375M65.951 109.101l35-8.25 34 1M74.201 183.951q2.55 2.1 5.85 1.8l57.95-5.4q3.25-.3 5.4-2.85 2.1-2.55 1.8-5.8l-4.1-44.2m-66.9 56.45q-2.55-2.1-2.85-5.4l-4.55-48.7"/><path fill="#EAB294" stroke="#324358" stroke-width="2.5" stroke-linecap="round" stroke-linejoin="round" d="M97.451 93.551l-1.75 13.55q-.5 3.7 1.75 6.65t5.95 3.45l.55.05q3.7.5 6.65-1.75 2.95-2.3 3.45-6l1.8-13.5-18.4-2.45"/><path fill="#F8D793" d="M135 16.1l-3.15.35q-1.85-4.1-6.45-8.2Q116.2 0 102.55 0q-18.5 0-31.4 10.35-15.35 12.35-18.5 36.7-3.35 25.75 4.25 38.4 7.3 12.1 23.55 10.6l47.3-5.45 2.2.35q2.7.2 5.45-.5 8.75-2.25 14.3-12.75 8.65-16.3-9.25-56.7-1.9-4.4-5.45-4.9"/><path fill="#D7A34B" d="M147.85 39q-3.55-11.5-7.4-18-4.1-7-17.1-6.15-11.75.75-19.2 6.1-15.55 13-25.1 19.15Q61.6 51.3 53.8 43.95q-2.95 11.9-1.55 24.4 2.9 25.1 24.85 28.45 2.15-1.1 2.95-1.05.061.008.125.025-3.922-3.866-7.925-10.425Q64 71.8 63.7 57.5q3.25.75 9.25-.8 12.25-3.05 22-15.2 12.4-15.5 20.4-18.15 8.05-2.75 13.5 7 6.2 11.2 7.45 27.8 1.583 20.777-8.325 32.2.8-.1 3.275-.1 5.05 0 5.25-.15 9.75-5.65 11.85-10.1 4.95-10.2 3.7-22.05-.85-8-4.2-18.95"/><path fill="#D7A34B" d="M127.975 90.35q-.675.093-.225.25l.225-.25"/><path fill="none" stroke="#314358" stroke-width="2.5" stroke-linecap="round" stroke-linejoin="round" d="M135.051 16.151q3.55.5 5.45 4.9 17.9 40.4 9.25 56.7-5.55 10.5-14.3 12.75-2.75.7-5.45.5l-2.2-.35m7.25-74.5l-3.15.35q-1.85-4.1-6.45-8.2-9.2-8.25-22.85-8.25-18.5 0-31.4 10.35-15.35 12.35-18.5 36.7-3.35 25.75 4.25 38.4 7.3 12.1 23.55 10.6"/><path fill="#EAB294" stroke-width="2.5" stroke-linecap="round" stroke-linejoin="round" d="M144.45 67.75q-.8-4.25-4.3-6.65-3.5-2.45-7.75-1.65-4.2.75-6.6 4.3-2.45 3.5-1.7 7.7.8 4.2 4.3 6.65 3.55 2.45 7.75 1.65 4.2-.75 6.65-4.25 2.4-3.55 1.65-7.75M59.25 77.7q.75 4.2 4.3 6.65 3.5 2.45 7.7 1.65 4.25-.75 6.65-4.25 2.45-3.55 1.7-7.75-.8-4.2-4.3-6.65t-7.75-1.65q-4.2.75-6.65 4.3-2.45 3.5-1.65 7.7"/><path fill="none" stroke="#314358" stroke-width="2.5" stroke-linecap="round" stroke-linejoin="round" d="M144.45 67.75q-.8-4.25-4.3-6.65-3.5-2.45-7.75-1.65-4.2.75-6.6 4.3-2.45 3.5-1.7 7.7.8 4.2 4.3 6.65 3.55 2.45 7.75 1.65 4.2-.75 6.65-4.25 2.4-3.55 1.65-7.75M59.25 77.7q.75 4.2 4.3 6.65 3.5 2.45 7.7 1.65 4.25-.75 6.65-4.25 2.45-3.55 1.7-7.75-.8-4.2-4.3-6.65t-7.75-1.65q-4.2.75-6.65 4.3-2.45 3.5-1.65 7.7"/><path fill="#EAB294" stroke="#314358" stroke-width="2.5" stroke-linecap="round" stroke-linejoin="round" d="M133.55 41.7q-1.85-10.3-9.1-15.85-6.95-5.3-16.9-4.9h-4.9q-3 0-5.1.4l-8.5.5q-13.25-.55-21.1 9.55-7.65 9.85-5.2 23.2L68 74.65q2.4 13.1 13.35 20.7 10.95 7.55 24.1 5.2l4.35-.8q13.15-2.4 20.7-13.35 7.6-11 5.2-24.1l-2.15-20.6"/><path fill="none" stroke="#314358" stroke-width="2.5" stroke-linecap="round" stroke-linejoin="round" d="M96.15 67.95q-2.05-1.4-2.5-3.9m2.5 3.9q2.1 1.45 4.55 1 2.5-.45 3.9-2.5 1.45-2.1 1-4.6M115.65 48.7l.7 6.25M80.25 52.7l.75 6.25"/><path fill="#FFF" stroke="#324358" stroke-width="2.5" stroke-linecap="round" stroke-linejoin="round" d="M98.25 88.1q3.4 2.2 7.4 1.35 4-.8 6.2-4.25 2.25-3.4 1.4-7.45l-19.3 4.15q.85 4 4.3 6.2"/><path fill="#F8D793" d="M137.65 23.2l-3.6-1.2q-16.2-5.5-23.65-7.15-2.85-.6-3.45-.4-4.1-.35-8.45-.65-8.6-.6-9.5-.2-1.4.6-20.45 1.85L57 53.55l2.55 1.95q3.35 2.1 7.2 2.6 12.35 1.7 25.2-12.75 12.8-14.45 22.05-21.1 4.65-3.35 6.7-3.8l16.95 2.75"/><path fill="#D7A34B" d="M137.276 31.126q2.371 1.798 4.475 3.85-.701-2.687-1.25-5.775-1-5.95-4-8.75-1.65-1.55-7.4-4.25-1.532-.715-2.55-1.4-1.499-.008-3.15.1-11.75.75-19.2 6.1-15.55 13-25.1 19.15-13.294 8.532-20.975 6.3-.579 4.696-1.325 7.55 3.254 1.623 6.95 3.55 3.25.75 9.25-.8 12.25-3.05 22-15.2 12.4-15.5 20.4-18.15 8.054-2.75 21.875 7.725M127.801 90.651l.25-.25q-.7.1-.25.25"/><path fill="none" stroke="#314358" stroke-width="2.5" stroke-linecap="round" stroke-linejoin="round" d="M131.901 26.201q-8.75-12.25-26.15 3.6-4.65 4.2-13 13.6-7.2 8.1-9.55 9.75-9.8 6.95-22.85 3.75"/></g><g transform="matrix(.988 .068 -.068 .988 241.7 41.45)"><animateTransform attributeName="transform" additive="replace" type="translate" dur="1.458s" keyTimes="0;1" values="0,0;0,0" fill="freeze"/><animateTransform attributeName="transform" additive="sum" type="translate" repeatCount="indefinite" dur="1.458s" keyTimes="0;0.029;0.057;0.086;0.114;0.143;0.171;0.2;0.229;0.257;0.286;0.314;0.343;0.372;0.4;0.429;0.457;0.486;0.514;0.543;0.572;0.6;0.629;0.657;0.686;0.714;0.743;0.772;0.8;0.828;0.829;1" values="328.372,252.68;328.363,252.751;328.436,252.688;328.413,252.701;328.35,252.668;328.318,252.691;328.411,252.615;328.47,252.713;328.393,252.717;328.339,252.73;328.405,252.751;328.329,252.686;328.343,252.649;328.399,252.708;328.427,252.688;328.403,252.675;328.352,252.75;328.486,252.718;328.411,252.713;328.392,252.689;328.454,252.705;328.447,252.725;328.3,252.658;328.381,252.675;328.458,252.708;328.388,252.71;328.463,252.694;328.403,252.704;328.349,252.739;328.41,252.744;0;0" calcMode="discrete"/><animateTransform attributeName="transform" additive="sum" type="translate" repeatCount="indefinite" dur="1.458s" keyTimes="0;0.829;0.857;0.886;0.914;0.943;0.972;1" values="0;328.41,252.744;328.464,252.704;328.383,252.696;328.457,252.646;328.417,252.722;328.436,252.776;328.372,252.68" calcMode="discrete"/><animateTransform attributeName="transform" additive="sum" type="rotate" repeatCount="indefinite" dur="1.458s" keyTimes="0;0.029;0.057;0.086;0.114;0.143;0.171;0.2;0.229;0.257;0.286;0.314;0.343;0.372;0.4;0.429;0.457;0.486;0.514;0.543;0.572;0.6;0.629;0.657;0.686;0.714;0.743;0.772;0.8;0.828;0.829;1" values="3.94,0,0;2.559,0,0;1.53,0,0;0.517,0,0;-0.286,0,0;-1.26,0,0;-2.026,0,0;-2.771,0,0;-3.312,0,0;-4.019,0,0;-4.522,0,0;-5.002,0,0;-5.277,0,0;-5.533,0,0;-5.769,0,0;-5.797,0,0;-5.974,0,0;-4.803,0,0;-3.813,0,0;-3.023,0,0;-2.059,0,0;-1.298,0,0;-0.551,0,0;-0.003,0,0;0.529,0,0;1.048,0,0;1.553,0,0;2.045,0,0;2.523,0,0;2.801,0,0;0;0" calcMode="discrete"/><animateTransform attributeName="transform" additive="sum" type="rotate" repeatCount="indefinite" dur="1.458s" keyTimes="0;0.829;0.857;0.886;0.914;0.943;0.972;1" values="0;2.801,0,0;3.251,0,0;3.5,0,0;3.548,0,0;3.77,0,0;3.791,0,0;3.94,0,0" calcMode="discrete"/><animateTransform attributeName="transform" additive="sum" type="scale" repeatCount="indefinite" dur="1.458s" keyTimes="0;0.257;0.286;0.429;0.457;0.486;0.514;0.828;0.829;1" values="0.99,0.99;0.99,0.99;0.989,0.989;0.989,0.989;0.99,0.99;0.989,0.989;0.99,0.99;0.99,0.99;1;1" calcMode="discrete"/><animateTransform attributeName="transform" additive="sum" type="scale" repeatCount="indefinite" dur="1.458s" keyTimes="0;0.829;1" values="1;0.99,0.99;0.99,0.99" calcMode="discrete"/><animateTransform attributeName="transform" additive="sum" type="translate" repeatCount="indefinite" dur="1.458s" keyTimes="0;0.029;0.057;0.086;0.114;0.143;0.171;0.2;0.229;0.257;0.286;0.314;0.343;0.372;0.4;0.429;0.457;0.486;0.514;0.543;0.572;0.6;0.629;0.657;0.686;0.714;0.743;0.772;0.8;0.828;0.829;1" values="-102,-206.85;-102,-206.9;-102.05,-206.9;-102.1,-206.9;-102,-206.8;-101.9,-206.85;-102.05,-206.8;-102.15,-206.9;-102.05,-206.85;-102,-206.9;-102.05,-206.95;-101.95,-206.85;-101.95,-206.8;-102.05,-206.85;-102.05,-206.8;-102.05,-206.8;-101.95,-206.9;-102.1,-206.95;-102.05,-206.85;-102,-206.85;-102,-206.95;-102.1,-206.9;-102,-206.8;-102,-206.85;-102.15,-206.9;-102,-206.95;-102,-206.9;-102,-206.9;-102,-206.85;-102.05,-206.9;0;0" calcMode="discrete"/><animateTransform attributeName="transform" additive="sum" type="translate" repeatCount="indefinite" dur="1.458s" keyTimes="0;0.829;0.857;0.886;0.914;0.943;0.972;1" values="0;-102.05,-206.9;-102.1,-206.95;-102,-206.9;-102.05,-206.85;-102.05,-206.85;-102.1,-206.9;-102,-206.85" calcMode="discrete"/><path fill="#EAB294" d="M211.5 130.15q-3-3.7-7.75-4.2-4.7-.45-8.4 2.6-3.65 3.05-4.15 7.8l-.05.95-30 15.75-9.075-4.85-5.4 10.175 11.775 6.275q1.1.6 2.1.65 1.7.15 3.2-.6l33-17.3q2.15 1.3 4.75 1.6 4.75.45 8.4-2.6 3.65-3.05 4.1-7.8.5-4.75-2.5-8.45M2.4 92.95q2.75 3.8 7.3 4.8l9.15 41.2q.45 1.95 1.95 3.3 1.5 1.3 3.5 1.5h.1l16.45 1.225.9-12.35-11.85-.875-8.4-37.8q2.8-3 3.15-7.1.5-5.05-2.75-9t-8.35-4.5q-5.1-.5-9.05 2.8Q.55 79.4.05 84.45q-.45 4.7 2.35 8.5"/><path fill="#D95B5B" d="M41.75 132.625l-.9 12.35-.3 4.125 20.15 1.45-.25 56.9 74.15.35.25-52.35L145.3 161l1.375-2.625 5.4-10.175 2.875-5.45-23.7-13.4L97.5 125q-8.891 1.221-17.775 2.45l-7.775 1.05-10 1.5-.1-.2h-.15l-1.55.2 1.55-.2-19.65-1.25-.3 4.075M61.95 130l-.1-.2h-.15l10.25-1.3-10 1.5"/><path fill="none" stroke="#324358" stroke-width="2.5" stroke-linecap="round" stroke-linejoin="round" d="M203.75 125.95q-4.7-.45-8.4 2.6-3.65 3.05-4.15 7.8l-.05.95-30 15.75-9.075-4.85 2.875-5.45-23.7-13.4L97.5 125q-8.891 1.221-17.775 2.45l-7.775 1.05-10.25 1.3-19.65-1.25-.3 4.075-11.85-.875-8.4-37.8q2.8-3 3.15-7.1.5-5.05-2.75-9t-8.35-4.5q-5.1-.5-9.05 2.8Q.55 79.4.05 84.45q-.45 4.7 2.35 8.5 2.75 3.8 7.3 4.8l9.15 41.2q.45 1.95 1.95 3.3 1.5 1.3 3.5 1.5h.1l16.45 1.225-.3 4.125 20.15 1.45-.25 56.9 74.15.35.25-52.35L145.3 161l1.375-2.625 11.775 6.275q1.1.6 2.1.65 1.7.15 3.2-.6l33-17.3q2.15 1.3 4.75 1.6 4.75.45 8.4-2.6 3.65-3.05 4.1-7.8.5-4.75-2.5-8.45-3-3.7-7.75-4.2M152.075 148.2l-5.4 10.175M40.85 144.975l.9-12.35"/><path fill="none" stroke="#324358" stroke-width="2.5" stroke-linecap="round" stroke-linejoin="round" d="M61.95 130l-.1-.2h-.15l-1.55.2"/><path fill="#EAB294" stroke="#324358" stroke-width="2.5" stroke-linecap="round" stroke-linejoin="round" d="M98.401 141.601l.55.1q3.6.85 6.75-1.1 3.2-2 4.05-5.6l3.05-13.3-18.05-4.2-3.1 13.3q-.8 3.65 1.15 6.8t5.6 4"/><path fill="#E9A581" d="M93.651 122.901l-2.8 14.6 20.65-13.5-17.85-1.1"/><path fill="none" stroke="#324358" stroke-width="2.5" stroke-linecap="round" stroke-linejoin="round" d="M98.401 141.601l.55.1q3.6.85 6.75-1.1 3.2-2 4.05-5.6l3.05-13.3-18.05-4.2-3.1 13.3q-.8 3.65 1.15 6.8t5.6 4"/><path fill="#EAB294" stroke="#324358" stroke-width="2.5" stroke-linecap="round" stroke-linejoin="round" d="M68.951 73.901q-5.15-.05-8.85 3.6-3.7 3.6-3.75 8.8-.05 5.15 3.6 8.85 3.6 3.7 8.8 3.75 5.2.05 8.85-3.6 3.7-3.65 3.75-8.8.05-5.2-3.6-8.85-3.65-3.7-8.8-3.75M147.651 80.201q-5.2-.05-8.9 3.6t-3.75 8.85q-.05 5.2 3.6 8.85 3.65 3.7 8.8 3.75 5.2.05 8.9-3.6 3.7-3.6 3.75-8.8.05-5.15-3.6-8.85-3.6-3.7-8.8-3.8"/><path fill="#EFBB76" stroke="#324358" stroke-width="2.5" stroke-linecap="round" stroke-linejoin="round" d="M161.851 45.851q.05-3.75-1-6.6l-1.05-2.05-11.65 2.25-1.95 9.3q-2.1 10.85-3 18.5-2.8 24.4 7.9 7.5 10.7-16.85 10.75-28.9"/><path fill="#EAB294" stroke="#324358" stroke-width="2.5" stroke-linecap="round" stroke-linejoin="round" d="M141.601 38.351q-9.5-5.75-27.55-5.9l-22.75-13.6q-14.3-3.4-20.65 10.4-4.75 10.4-4.9 30.35l1.7 25.05q-.15 16.15 11.15 27.65 11.35 11.5 27.5 11.65l5.4.05q16.15.1 27.65-11.2 11.5-11.35 11.65-27.45l2.1-25.05q.1-15.05-11.3-21.95"/><path fill="#E9A581" d="M77.751 36.151l-5.35-3.9-2.75 22.7q-2.65 24.45-2.05 33.4 5.05 26.7 30.05 33.25 12.5 3.25 23.95 1.15-38.55-12.55-45.05-50.85-2.05-11.95-.6-25.05l1.8-10.7"/><path fill="none" stroke="#324358" stroke-width="2.5" stroke-linecap="round" stroke-linejoin="round" d="M141.601 38.351q-9.5-5.75-27.55-5.9l-22.75-13.6q-14.3-3.4-20.65 10.4-4.75 10.4-4.9 30.35l1.7 25.05q-.15 16.15 11.15 27.65 11.35 11.5 27.5 11.65l5.4.05q16.15.1 27.65-11.2 11.5-11.35 11.65-27.45l2.1-25.05q.1-15.05-11.3-21.95"/><path fill="none" stroke="#324358" stroke-width="2.5" stroke-linecap="round" stroke-linejoin="round" d="M116.001 83.601q-.2 3.05-2.45 5.05-2.3 2.05-5.35 1.85-3.05-.2-5.05-2.45-2.05-2.3-1.85-5.35"/><path fill="#EFBB76" stroke="#324358" stroke-width="2.5" stroke-linecap="round" stroke-linejoin="round" d="M153.351 42.551q13.95-10.65 14.4-29.3l-85.2-8.3q-5.6-.5-10 2.75-4.45 3.3-5.4 8.7-2.55 14.95-3.05 24.6-.9 17.1 2.55 33.05l5.75-41.8 18.15 8.9q20.7 9.1 33.5 9.95 16.7 1.1 29.3-8.55"/><path fill="#EDAC58" d="M94.401 6.101q-6.85-3.45-15.55-.5-10.45 3.6-12.45 15.2-1.85 10.85-1 33.15.45 11.15 1.25 20.1l5.75-41.8q4.4 2.8 25.4 10.7 10.5 3.95 20.15 7.35-23.1-14.95-25.65-31.05-.8-5.05.6-9.6l1.5-3.55"/><path fill="none" stroke="#324358" stroke-width="2.5" stroke-linecap="round" stroke-linejoin="round" d="M153.351 42.551q13.95-10.65 14.4-29.3l-85.2-8.3q-5.6-.5-10 2.75-4.45 3.3-5.4 8.7-2.55 14.95-3.05 24.6-.9 17.1 2.55 33.05l5.75-41.8 18.15 8.9q20.7 9.1 33.5 9.95 16.7 1.1 29.3-8.55"/><path fill="none" stroke="#324358" stroke-width="2.5" stroke-linecap="round" stroke-linejoin="round" d="M161.451 6.801q-2.35 5.9-8.25 11.3-11.75 10.8-29.2 8.25M132.501 21.051q-2.2.35-4.05.4"/><path fill="none" stroke="#324358" stroke-width="2.5" stroke-linecap="round" stroke-linejoin="round" d="M153.651 8.251q-6.7 8.75-16.9 11.8m16.9-11.8q3.4-4.4 4.7-8.2M88.901 68.451l-.45 4.6M129.401 72.401l-.45 4.6M91.351 62.851l-7.75 1M135.151 70.101l-6.15-4.75"/><path fill="#FFF" stroke="#324358" stroke-width="2.5" stroke-linecap="round" stroke-linejoin="round" d="M106.15 108.4q4.1.4 7.25-2.15 3.15-2.6 3.55-6.7l-19.65-1.9q-.35 4.05 2.2 7.2 2.6 3.2 6.65 3.55"/></g><g transform="matrix(.983 -.116 .116 .983 352.9 108.9)"><animateTransform attributeName="transform" additive="replace" type="translate" dur="1.458s" keyTimes="0;1" values="0,0;0,0" fill="freeze"/><animateTransform attributeName="transform" additive="sum" type="translate" repeatCount="indefinite" dur="1.458s" keyTimes="0;0.029;0.057;0.086;0.114;0.143;0.171;0.2;0.229;0.257;0.286;0.314;0.343;0.372;0.4;0.429;0.457;0.486;0.514;0.543;0.572;0.6;0.629;0.657;0.686;0.714;0.743;0.772;0.8;0.828;0.829;1" values="488.275,297.708;488.347,297.68;488.24,297.719;488.247,297.689;488.219,297.758;488.208,297.668;488.211,297.734;488.27,297.779;488.24,297.801;488.259,297.815;488.341,297.736;488.28,297.817;488.259,297.846;488.176,297.872;488.218,297.816;488.296,297.85;488.226,297.825;488.134,297.81;488.176,297.792;488.25,297.8;488.183,297.742;488.161,297.741;488.195,297.811;488.162,297.769;488.17,297.683;488.247,297.679;488.124,297.658;488.282,297.645;488.177,297.725;488.211,297.605;0;0" calcMode="discrete"/><animateTransform attributeName="transform" additive="sum" type="translate" repeatCount="indefinite" dur="1.458s" keyTimes="0;0.829;0.857;0.886;0.914;0.943;0.972;1" values="0;488.211,297.605;488.193,297.588;488.24,297.577;488.214,297.692;488.135,297.681;488.142,297.617;488.275,297.708" calcMode="discrete"/><animateTransform attributeName="transform" additive="sum" type="rotate" repeatCount="indefinite" dur="1.458s" keyTimes="0;0.029;0.057;0.086;0.114;0.143;0.171;0.2;0.229;0.257;0.286;0.314;0.343;0.372;0.4;0.429;0.457;0.486;0.514;0.543;0.572;0.6;0.629;0.657;0.686;0.714;0.743;0.772;0.8;0.828;0.829;1" values="-6.74,0,0;-5.06,0,0;-3.77,0,0;-2.504,0,0;-1.262,0,0;-0.047,0,0;0.77,0,0;1.751,0,0;2.518,0,0;3.264,0,0;3.797,0,0;4.306,0,0;4.79,0,0;5.252,0,0;5.312,0,0;5.536,0,0;5.69,0,0;4.294,0,0;3.054,0,0;2.02,0,0;1.002,0,0;0.003,0,0;-0.792,0,0;-1.757,0,0;-2.519,0,0;-3.262,0,0;-3.799,0,0;-4.508,0,0;-5.013,0,0;-5.5,0,0;0;0" calcMode="discrete"/><animateTransform attributeName="transform" additive="sum" type="rotate" repeatCount="indefinite" dur="1.458s" keyTimes="0;0.829;0.857;0.886;0.914;0.943;0.972;1" values="0;-5.5,0,0;-5.785,0,0;-6.048,0,0;-6.295,0,0;-6.526,0,0;-6.552,0,0;-6.74,0,0" calcMode="discrete"/><animateTransform attributeName="transform" additive="sum" type="scale" repeatCount="indefinite" dur="1.458s" keyTimes="0;0.029;0.057;0.286;0.314;0.343;0.372;0.429;0.457;0.743;0.772;0.828;0.829;1" values="0.99,0.99;0.989,0.989;0.99,0.99;0.99,0.99;0.989,0.989;0.99,0.99;0.989,0.989;0.989,0.989;0.99,0.99;0.99,0.99;0.989,0.989;0.989,0.989;1;1" calcMode="discrete"/><animateTransform attributeName="transform" additive="sum" type="scale" repeatCount="indefinite" dur="1.458s" keyTimes="0;0.829;0.972;1" values="1;0.989,0.989;0.989,0.989;0.99,0.99" calcMode="discrete"/><animateTransform attributeName="transform" additive="sum" type="translate" repeatCount="indefinite" dur="1.458s" keyTimes="0;0.029;0.057;0.086;0.114;0.143;0.171;0.2;0.229;0.257;0.286;0.314;0.343;0.372;0.4;0.429;0.457;0.486;0.514;0.543;0.572;0.6;0.629;0.657;0.686;0.714;0.743;0.772;0.8;0.828;0.829;1" values="-113.45,-205.45;-113.45,-205.45;-113.4,-205.35;-113.35,-205.35;-113.35,-205.45;-113.3,-205.3;-113.35,-205.35;-113.4,-205.35;-113.35,-205.4;-113.35,-205.35;-113.45,-205.3;-113.35,-205.35;-113.3,-205.3;-113.25,-205.4;-113.45,-205.35;-113.45,-205.5;-113.4,-205.6;-113.25,-205.55;-113.35,-205.6;-113.4,-205.6;-113.3,-205.65;-113.3,-205.6;-113.35,-205.7;-113.35,-205.6;-113.35,-205.55;-113.3,-205.65;-113.3,-205.55;-113.35,-205.6;-113.25,-205.65;-113.3,-205.7;0;0" calcMode="discrete"/><animateTransform attributeName="transform" additive="sum" type="translate" repeatCount="indefinite" dur="1.458s" keyTimes="0;0.829;0.857;0.886;0.914;0.943;0.972;1" values="0;-113.3,-205.7;-113.3,-205.6;-113.4,-205.65;-113.4,-205.65;-113.25,-205.75;-113.25,-205.6;-113.45,-205.45" calcMode="discrete"/><path fill="#EAB294" d="M196.7 90.15q-3.45 3.45-3.45 8.35 0 3.9 2.3 7l-1.6 4.925 11.45 2.85 1-3.075q4.4-.55 7.4-3.85 3-3.35 3-7.85 0-4.9-3.45-8.35-3.45-3.45-8.3-3.45-4.9 0-8.35 3.45"/><path fill="#4F5F71" d="M208.65 114.1l-3.25-.825-11.45-2.85-4.15-1.025-9.35 26.7-7.55.3-18.9-.6-16.9-3.975-6.675 76.075 17.725 1.65 5.05-54 38.15.4q1.9 0 3.45-1.15 1.55-1.1 2.1-2.95l11.75-37.75M64.55 139.45L46.8 146.8l-17.15-21.2-2.875 1.975-9.725 6.65-2.9 1.975L37 166.45q1.15 1.55 3.05 2.1 1.85.55 3.65-.15l38.75-15.05L77.8 203l21.95 2.05-.9-.1V128.6l.35-.025-10.95.325-23.7 10.55"/><path fill="#EAB294" d="M23 122.55q1.2-3.7-.05-7.35-1.55-4.6-5.95-6.75-4.4-2.15-9-.6-4.6 1.6-6.75 5.95-2.15 4.4-.6 9 1.45 4.25 5.4 6.45 3.85 2.2 8.2 1.25l2.8 3.725 9.725-6.65L23 122.55"/><path fill="#EDEEEE" d="M137.1 131.825v-.025l-12.1-3.15.65 5q.23 1.68-.125 3.2l.325 3.5-1.325-1.075q-.259.445-.575.875-.027.02-.05.05-2.2 2.85-5.85 3.35-3.65.5-6.5-1.75-2.9-2.2-3.4-5.85-.479-3.654-.95-7.3-.036-.263-.075-.525l-.075-.525-3.3.7-4.55.275-.35.025v76.35l.9.1q.15.01.3.025l30.35 3.075.025-.25 6.675-76.075"/><path fill="#EAB294" d="M125.65 133.65l-.65-5-1-7.65-17.5 2.3q.208 1.612.425 3.225l.05.4q.01.084.025.175l.125 1.025q.039.262.075.525.471 3.646.95 7.3.5 3.65 3.4 5.85 2.85 2.25 6.5 1.75t5.85-3.35q.023-.03.05-.05.316-.43.575-.875L107.55 125.6l17 .65.975 10.6q.355-1.52.125-3.2"/><path fill="#E9A581" d="M125.85 140.35l-.325-3.5q-.292 1.269-1 2.425l1.325 1.075"/><path fill="#E9A581" d="M124.525 139.275q.708-1.156 1-2.425l-.975-10.6-17-.65 16.975 13.675"/><path fill="#EAB294" d="M107.05 127.6l.075.525L107 127.1l.05.5"/><path fill="none" stroke="#324358" stroke-width="2.5" stroke-linecap="round" stroke-linejoin="round" d="M193.25 98.5q0 3.9 2.3 7l-1.6 4.925-4.15-1.025-9.35 26.7-7.55.3-18.9-.6-16.9-3.975v-.025l-12.1-3.15-1-7.65-17.5 2.3q.208 1.612.425 3.225l.05.4q.01.084.025.175l.05.5-3.3.7-4.55.275-10.95.325-23.7 10.55-17.75 7.35-17.15-21.2-2.875 1.975L23 122.55q1.2-3.7-.05-7.35-1.55-4.6-5.95-6.75-4.4-2.15-9-.6-4.6 1.6-6.75 5.95-2.15 4.4-.6 9 1.45 4.25 5.4 6.45 3.85 2.2 8.2 1.25l2.8 3.725-2.9 1.975L37 166.45q1.15 1.55 3.05 2.1 1.85.55 3.65-.15l38.75-15.05L77.8 203l21.95 2.05q.15.01.3.025l30.35 3.075.025-.25 17.725 1.65 5.05-54 38.15.4q1.9 0 3.45-1.15 1.55-1.1 2.1-2.95l11.75-37.75-3.25-.825 1-3.075q4.4-.55 7.4-3.85 3-3.35 3-7.85 0-4.9-3.45-8.35-3.45-3.45-8.3-3.45-4.9 0-8.35 3.45-3.45 3.45-3.45 8.35M193.95 110.425l11.45 2.85M137.1 131.825l-6.675 76.075"/><path fill="none" stroke="#324358" stroke-width="2.5" stroke-linecap="round" stroke-linejoin="round" d="M26.775 127.575l-9.725 6.65m82.7 70.825l-.9-.1V128.6l.35-.025M125 128.65l.65 5q.23 1.68-.125 3.2m-1 2.425q-.259.445-.575.875-.027.02-.05.05-2.2 2.85-5.85 3.35-3.65.5-6.5-1.75-2.9-2.2-3.4-5.85-.479-3.654-.95-7.3-.036-.263-.075-.525l-.075-.525M107 127.1l.125 1.025M125.525 136.85q-.292 1.269-1 2.425"/><path fill="#E67372" d="M124.45 144.5l-2.3-6.85H113l-2.3 6.85 4.55 6.9h4.6l4.6-6.9"/><path fill="#E67372" d="M119.85 151.4h-4.6l-4.55 66.55 6.85 6.85 6.9-6.85-4.6-66.55"/><path fill="none" stroke="#324358" stroke-width="2.5" stroke-linecap="round" stroke-linejoin="round" d="M122.15 137.65H113l-2.3 6.85 4.55 6.9-4.55 66.55 6.85 6.85 6.9-6.85-4.6-66.55 4.6-6.9-2.3-6.85M115.25 151.4h4.6"/><path fill="#EAB294" stroke-width="2.5" stroke-linecap="round" stroke-linejoin="round" d="M169.35 92.2q-2.65-3.7-7.1-4.5-4.45-.8-8.15 1.85-3.7 2.6-4.5 7.05-.75 4.45 1.85 8.15t7.05 4.5q4.45.8 8.15-1.8 3.7-2.65 4.5-7.1.8-4.45-1.8-8.15"/><path fill="#EAB294" d="M83.525 73.975q-.188-.041-.375-.075-4.45-.8-8.15 1.85-3.7 2.6-4.5 7.05-.8 4.45 1.85 8.15 2.6 3.7 7.05 4.5.267.045.525.075 4.147.519 7.625-1.925 3.7-2.6 4.5-7.05.75-4.45-1.85-8.15-2.491-3.545-6.675-4.425"/><path fill="#EE9C78" d="M84.05 74.05q-.266-.045-.525-.075 4.184.88 6.675 4.425 2.6 3.7 1.85 8.15-.8 4.45-4.5 7.05-3.478 2.444-7.625 1.925.189.042.375.075 4.45.8 8.15-1.8 3.7-2.65 4.5-7.1.8-4.45-1.8-8.15-2.65-3.7-7.1-4.5"/><path fill="none" stroke="#324358" stroke-width="2.5" stroke-linecap="round" stroke-linejoin="round" d="M169.35 92.2q-2.65-3.7-7.1-4.5-4.45-.8-8.15 1.85-3.7 2.6-4.5 7.05-.75 4.45 1.85 8.15t7.05 4.5q4.45.8 8.15-1.8 3.7-2.65 4.5-7.1.8-4.45-1.8-8.15M75 75.75q3.7-2.65 8.15-1.85M70.5 82.8q.8-4.45 4.5-7.05m-2.65 15.2q-2.65-3.7-1.85-8.15m8.9 12.65q-4.45-.8-7.05-4.5m7.575 4.575q-.258-.03-.525-.075m3.75-21.55q.187.034.375.075"/><path fill="none" stroke="#324358" stroke-width="2.5" stroke-linecap="round" stroke-linejoin="round" d="M79.925 95.525q4.147.519 7.625-1.925 3.7-2.6 4.5-7.05.75-4.45-1.85-8.15-2.491-3.545-6.675-4.425"/><path fill="#9E785D" stroke="#324358" stroke-width="2.5" stroke-linecap="round" stroke-linejoin="round" d="M174.9 61.1q3.4-19.65-8.05-35.95-11.45-16.3-31.05-19.7-19.6-3.4-35.9 8.05-16.3 11.45-19.75 31.05-3.4 19.6 8.05 35.9 11.45 16.3 31.05 19.7 19.6 3.45 35.95-8 16.3-11.45 19.7-31.05"/><path fill="#EAB294" d="M161.201 44.351q-6.25-8.85-16.95-10.75l-25.85-4.5q-10.7-1.85-19.55 4.35-8.9 6.25-10.75 16.95l-5.3 30.15q-2.75 16.05 6.6 29.35 9.35 13.35 25.4 16.15 16.05 2.8 29.4-6.55 13.35-9.4 16.1-25.45l5.3-30.1q1.85-10.7-4.4-19.6"/><use xlink:href="#a"/><path fill="#E9A581" d="M91.651 53.101l2.25-10.75q-8.7 8.25-10.3 28.3-.55 6.8-.35 16.6.1 5.35.3 14.5 13.7 24.8 37.05 24.7 11.65 0 20.55-5-42.8-7.25-49.3-43.9-2.05-11.45-.2-24.45"/><use xlink:href="#a"/><path fill="none" stroke="#324358" stroke-width="2.5" stroke-linecap="round" stroke-linejoin="round" d="M114.851 67.501q1.05 1.45.75 3.25m-.75-3.25q-1.05-1.5-2.8-1.8-1.8-.35-3.25.7-1.5 1.05-1.8 2.85M140.701 72.001q1.05 1.45.7 3.25m-.7-3.25q-1.05-1.5-2.85-1.8-1.75-.35-3.25.7-1.45 1.05-1.8 2.85M116.201 87.301q-1.05-1.5-.7-3.25m.7 3.25q1.05 1.45 2.85 1.8l4.3.75q1.75.3 3.25-.75t1.8-2.8"/><path fill="#9E785D" d="M158.151 31.551q-4.4-11.9-14-20.1-9.95-8.45-22.9-10.7-11.85-2.05-23.25 1.7-11.05 3.6-19.2 11.85-1.3 1.3-1.6 3.15-.35 1.8.45 3.5 4.9 10.55 14.05 17.7 9.45 7.4 21.3 9.45 12.9 2.25 25.15-2.35 11.85-4.45 20-14.2"/><path fill="none" stroke="#324358" stroke-width="2.5" stroke-linecap="round" stroke-linejoin="round" d="M158.151 31.551q-4.4-11.9-14-20.1-9.95-8.45-22.9-10.7-11.85-2.05-23.25 1.7-11.05 3.6-19.2 11.85-1.3 1.3-1.6 3.15-.35 1.8.45 3.5 4.9 10.55 14.05 17.7 9.45 7.4 21.3 9.45 12.9 2.25 25.15-2.35 11.85-4.45 20-14.2"/><path fill="#8C6647" d="M104.001 5.451l1.65-4.85q-14.75 4.4-23.1 11.55-2.65 2.25-4.3 4.5l-1.15 1.8q10.8 21.9 33.15 27.9 11.2 3 20.2 1.6-24.55-11.25-27.1-30.4-.85-6 .65-12.1"/><path fill="none" stroke="#324358" stroke-width="2.5" stroke-linecap="round" stroke-linejoin="round" d="M138.151 45.751q11.85-4.45 20-14.2-4.4-11.9-14-20.1-9.95-8.45-22.9-10.7-11.85-2.05-23.25 1.7-11.05 3.6-19.2 11.85-1.3 1.3-1.6 3.15-.35 1.8.45 3.5 4.9 10.55 14.05 17.7 9.45 7.4 21.3 9.45 12.9 2.25 25.15-2.35"/><path fill="none" stroke="#324358" stroke-width="2.5" stroke-linecap="round" stroke-linejoin="round" d="M138.151 45.751q11.85-4.45 20-14.2m-20 14.2q-12.25 4.6-25.15 2.35-11.85-2.05-21.3-9.45-9.15-7.15-14.05-17.7-.8-1.7-.45-3.5.3-1.85 1.6-3.15 8.15-8.25 19.2-11.85 11.4-3.75 23.25-1.7 9.25 1.6 17.2 6.55 7.6 4.75 13.05 12M147.051 27.351q.9 1.25 2.15 3.4"/><path fill="none" stroke="#324358" stroke-width="2.5" stroke-linecap="round" stroke-linejoin="round" d="M131.851 12.351q6.55 4.15 11.75 10.35m-11.75-10.35l-5.55-2.95"/><path fill="#FFF" stroke="#324358" stroke-width="2.5" stroke-linecap="round" stroke-linejoin="round" d="M125.9 106.95q3.7-2.6 4.5-7.05l-21.5-3.75q-.8 4.45 1.8 8.15t7.05 4.5q4.45.75 8.15-1.85"/></g></g></svg>