<svg id="Layer_1" xmlns="http://www.w3.org/2000/svg" viewBox="0 0 695 555.2" style="enable-background:new 0 0 695 555.2"><style>.st0{fill:#fff}.st1{fill:none;stroke:#eaeaea;stroke-width:4;stroke-linecap:round;stroke-linejoin:round;stroke-miterlimit:10}.st2{fill:#383938}.st3{fill:none;stroke:#383938;stroke-width:4;stroke-linecap:round;stroke-linejoin:round}.st3,.st4,.st5,.st6{stroke-miterlimit:10}.st4{stroke-linecap:round;stroke-linejoin:round;fill:#333;stroke:#333;stroke-width:2}.st5,.st6{fill:none;stroke:#c85d48;stroke-width:6}.st6{stroke-dasharray:12.069,12.069}</style><path id="XMLID_2592_" class="st0" d="M0 0h695v554H0z"/><g id="XMLID_2498_"><g id="XMLID_2590_"><path id="XMLID_2591_" class="st1" d="M498.1 457.4v-4.7"/></g><g id="XMLID_2588_"><path id="XMLID_2589_" class="st1" d="M498.1 438.8v-4.6"/></g><g id="XMLID_2586_"><path id="XMLID_2587_" class="st1" d="M498.1 309.1v-4.6"/></g><g id="XMLID_2584_"><path id="XMLID_2585_" class="st1" d="M498.1 290.6v-4.7"/></g><g id="XMLID_2582_"><path id="XMLID_2583_" class="st1" d="M498.1 272v-4.6"/></g><g id="XMLID_2580_"><path id="XMLID_2581_" class="st1" d="M498.1 253.5v-4.6"/></g><g id="XMLID_2578_"><path id="XMLID_2579_" class="st1" d="M498.1 235v-4.7"/></g><g id="XMLID_2576_"><path id="XMLID_2577_" class="st1" d="M498.1 216.4v-4.6"/></g><g id="XMLID_2574_"><path id="XMLID_2575_" class="st1" d="M498.1 197.9v-4.6"/></g><g id="XMLID_2572_"><path id="XMLID_2573_" class="st1" d="M498.1 179.4v-4.7"/></g><g id="XMLID_2570_"><path id="XMLID_2571_" class="st1" d="M498.1 160.8v-4.6"/></g><g id="XMLID_2568_"><path id="XMLID_2569_" class="st1" d="M498.1 142.3v-4.6"/></g><g id="XMLID_2566_"><path id="XMLID_2567_" class="st1" d="M498.1 123.8v-4.7"/></g><g id="XMLID_2564_"><path id="XMLID_2565_" class="st1" d="M498.1 105.2v-4.6"/></g><g id="XMLID_2562_"><path id="XMLID_2563_" class="st1" d="M498.1 86.7v-4.6"/></g><g id="XMLID_2521_"><path id="XMLID_2535_" class="st1" d="M498.1 68.2v-4.7"/></g><g id="XMLID_2515_"><path id="XMLID_2520_" class="st1" d="M498.1 49.6V45"/></g><g id="XMLID_2513_"><path id="XMLID_2514_" class="st1" d="M498.1 438.7V434"/></g><g id="XMLID_2511_"><path id="XMLID_2512_" class="st1" d="M498.1 420.1v-4.6"/></g><g id="XMLID_2509_"><path id="XMLID_2510_" class="st1" d="M498.1 401.6V397"/></g><g id="XMLID_2507_"><path id="XMLID_2508_" class="st1" d="M498.1 383.1v-4.7"/></g><g id="XMLID_2505_"><path id="XMLID_2506_" class="st1" d="M498.1 364.5v-4.6"/></g><g id="XMLID_2503_"><path id="XMLID_2504_" class="st1" d="M498.1 346v-4.6"/></g><g id="XMLID_2501_"><path id="XMLID_2502_" class="st1" d="M498.1 327.5v-4.7"/></g><g id="XMLID_2499_"><path id="XMLID_2500_" class="st1" d="M498.1 308.9v-4.6"/></g></g><g id="XMLID_2360_"><g id="XMLID_2496_"><path id="XMLID_2497_" class="st1" d="M368.4 457.4v-4.7"/></g><g id="XMLID_2494_"><path id="XMLID_2495_" class="st1" d="M368.4 438.8v-4.6"/></g><g id="XMLID_2476_"><path id="XMLID_2493_" class="st1" d="M368.4 309.1v-4.6"/></g><g id="XMLID_2448_"><path id="XMLID_2462_" class="st1" d="M368.4 290.6v-4.7"/></g><g id="XMLID_2435_"><path id="XMLID_2436_" class="st1" d="M368.4 272v-4.6"/></g><g id="XMLID_2433_"><path id="XMLID_2434_" class="st1" d="M368.4 253.5v-4.6"/></g><g id="XMLID_2431_"><path id="XMLID_2432_" class="st1" d="M368.4 235v-4.7"/></g><g id="XMLID_2429_"><path id="XMLID_2430_" class="st1" d="M368.4 216.4v-4.6"/></g><g id="XMLID_2427_"><path id="XMLID_2428_" class="st1" d="M368.4 197.9v-4.6"/></g><g id="XMLID_2425_"><path id="XMLID_2426_" class="st1" d="M368.4 179.4v-4.7"/></g><g id="XMLID_2423_"><path id="XMLID_2424_" class="st1" d="M368.4 160.8v-4.6"/></g><g id="XMLID_2421_"><path id="XMLID_2422_" class="st1" d="M368.4 142.3v-4.6"/></g><g id="XMLID_2419_"><path id="XMLID_2420_" class="st1" d="M368.4 123.8v-4.7"/></g><g id="XMLID_2396_"><path id="XMLID_2413_" class="st1" d="M368.4 105.2v-4.6"/></g><g id="XMLID_2383_"><path id="XMLID_2384_" class="st1" d="M368.4 86.7v-4.6"/></g><g id="XMLID_2381_"><path id="XMLID_2382_" class="st1" d="M368.4 68.2v-4.7"/></g><g id="XMLID_2379_"><path id="XMLID_2380_" class="st1" d="M368.4 49.6V45"/></g><g id="XMLID_2377_"><path id="XMLID_2378_" class="st1" d="M368.4 438.7V434"/></g><g id="XMLID_2373_"><path id="XMLID_2376_" class="st1" d="M368.4 420.1v-4.6"/></g><g id="XMLID_2371_"><path id="XMLID_2372_" class="st1" d="M368.4 401.6V397"/></g><g id="XMLID_2369_"><path id="XMLID_2370_" class="st1" d="M368.4 383.1v-4.7"/></g><g id="XMLID_2367_"><path id="XMLID_2368_" class="st1" d="M368.4 364.5v-4.6"/></g><g id="XMLID_2365_"><path id="XMLID_2366_" class="st1" d="M368.4 346v-4.6"/></g><g id="XMLID_2363_"><path id="XMLID_2364_" class="st1" d="M368.4 327.5v-4.7"/></g><g id="XMLID_2361_"><path id="XMLID_2362_" class="st1" d="M368.4 308.9v-4.6"/></g></g><path class="st2" d="M94.1 499.8h1.1c1 0 1.8-.4 1.8-1.9v-14.8h3.1v14.6c0 3.9-2.1 4.9-4.4 4.9-.6 0-1 0-1.5-.1v-2.7zM105 483.1v15c0 1.4.6 1.9 1.6 1.9s1.6-.5 1.6-1.9v-15h2.9v14.8c0 3.1-1.6 4.9-4.6 4.9-3 0-4.6-1.8-4.6-4.9v-14.8h3.1zM115.9 488.5v14.1h-2.8v-19.5h3.8l3.1 11.6v-11.6h2.7v19.5h-3.1l-3.7-14.1zM233 502.6h-3.1l-.5-3.5h-3.8l-.5 3.5h-2.8l3.1-19.5h4.5l3.1 19.5zm-7-6.2h2.9l-1.5-9.8-1.4 9.8zM237.4 483.1v15c0 1.4.6 1.9 1.6 1.9s1.6-.5 1.6-1.9v-15h2.9v14.8c0 3.1-1.6 4.9-4.6 4.9-3 0-4.6-1.8-4.6-4.9v-14.8h3.1zM250.1 491.7h4.3v6.2c0 3.1-1.6 4.9-4.6 4.9-3 0-4.6-1.8-4.6-4.9v-10.1c0-3.1 1.6-4.9 4.6-4.9 3 0 4.6 1.8 4.6 4.9v1.9h-2.9v-2.1c0-1.4-.6-1.9-1.6-1.9s-1.6.5-1.6 1.9v10.5c0 1.4.6 1.9 1.6 1.9s1.6-.5 1.6-1.9v-3.6h-1.4v-2.8zM353.4 487.8c0-3.1 1.6-4.9 4.6-4.9 3 0 4.6 1.8 4.6 4.9v10.1c0 3.1-1.6 4.9-4.6 4.9-3 0-4.6-1.8-4.6-4.9v-10.1zm3.1 10.3c0 1.4.6 1.9 1.6 1.9s1.6-.5 1.6-1.9v-10.5c0-1.4-.6-1.9-1.6-1.9s-1.6.5-1.6 1.9v10.5zM373.5 495.3v2.6c0 3.1-1.6 4.9-4.6 4.9-3 0-4.6-1.8-4.6-4.9v-10.1c0-3.1 1.6-4.9 4.6-4.9 3 0 4.6 1.8 4.6 4.9v1.9h-2.9v-2.1c0-1.4-.6-1.9-1.6-1.9s-1.6.5-1.6 1.9v10.5c0 1.4.6 1.9 1.6 1.9s1.6-.5 1.6-1.9v-2.8h2.9zM374.5 483.1h9.5v2.8h-3.2v16.7h-3.1v-16.7h-3.2v-2.8zM483.1 483.1h4.8c3.1 0 4.6 1.7 4.6 4.8v9.8c0 3.1-1.5 4.8-4.6 4.8h-4.8v-19.4zm3 2.8v13.9h1.7c1 0 1.6-.5 1.6-1.9v-10.1c0-1.4-.6-1.9-1.6-1.9h-1.7zM497.5 491.3h4.2v2.8h-4.2v5.7h5.3v2.8h-8.3v-19.5h8.3v2.8h-5.3v5.4zM513.5 495.3v2.6c0 3.1-1.6 4.9-4.6 4.9-3 0-4.6-1.8-4.6-4.9v-10.1c0-3.1 1.6-4.9 4.6-4.9 3 0 4.6 1.8 4.6 4.9v1.9h-2.9v-2.1c0-1.4-.6-1.9-1.6-1.9s-1.6.5-1.6 1.9v10.5c0 1.4.6 1.9 1.6 1.9s1.6-.5 1.6-1.9v-2.8h2.9zM601.8 427.8c0-2.3 1.2-3.7 3.5-3.7s3.5 1.3 3.5 3.7v7.6c0 2.3-1.2 3.7-3.5 3.7s-3.5-1.3-3.5-3.7v-7.6zm2.3 7.8c0 1 .5 1.4 1.2 1.4s1.2-.4 1.2-1.4v-7.9c0-1-.5-1.4-1.2-1.4s-1.2.4-1.2 1.4v7.9zM612.5 436.7v2.2h-2.2v-2.2h2.2zM614 427.9c0-2.5 1.1-3.8 3.5-3.8 2.3 0 3.4 1.3 3.4 3.7v.4h-2.2v-.5c0-1-.5-1.4-1.2-1.4-.8 0-1.3.4-1.3 1.8v2.7c.4-.8 1.1-1.3 2.1-1.3 1.7 0 2.5 1.2 2.5 3.3v2.7c0 2.3-1.2 3.7-3.5 3.7s-3.5-1.3-3.5-3.7v-7.6zm2.3 5v2.6c0 1 .5 1.4 1.2 1.4s1.2-.4 1.2-1.4v-2.6c0-1-.5-1.4-1.2-1.4s-1.2.4-1.2 1.4zM621.9 434.2l4.2-9.9h2.5v9.9h1.1v2.1h-1.1v2.6h-2.3v-2.6h-4.4v-2.1zm4.4 0v-5.5l-2.3 5.5h2.3zM630.5 427.8c0-2.3 1.2-3.7 3.5-3.7s3.5 1.3 3.5 3.7v7.6c0 2.3-1.2 3.7-3.5 3.7s-3.5-1.3-3.5-3.7v-7.6zm2.3 7.8c0 1 .5 1.4 1.2 1.4s1.2-.4 1.2-1.4v-7.9c0-1-.5-1.4-1.2-1.4s-1.2.4-1.2 1.4v7.9zM638.7 427.8c0-2.3 1.2-3.7 3.5-3.7s3.5 1.3 3.5 3.7v7.6c0 2.3-1.2 3.7-3.5 3.7s-3.5-1.3-3.5-3.7v-7.6zm2.3 7.8c0 1 .5 1.4 1.2 1.4s1.2-.4 1.2-1.4v-7.9c0-1-.5-1.4-1.2-1.4s-1.2.4-1.2 1.4v7.9zM601.8 314.3c0-2.3 1.2-3.7 3.5-3.7s3.5 1.3 3.5 3.7v7.6c0 2.3-1.2 3.7-3.5 3.7s-3.5-1.3-3.5-3.7v-7.6zm2.3 7.7c0 1 .5 1.4 1.2 1.4s1.2-.4 1.2-1.4v-7.9c0-1-.5-1.4-1.2-1.4s-1.2.4-1.2 1.4v7.9zM612.5 323.2v2.2h-2.2v-2.2h2.2zM614 314.4c0-2.5 1.1-3.8 3.5-3.8 2.3 0 3.4 1.3 3.4 3.7v.4h-2.2v-.5c0-1-.5-1.4-1.2-1.4-.8 0-1.3.4-1.3 1.8v2.7c.4-.8 1.1-1.3 2.1-1.3 1.7 0 2.5 1.2 2.5 3.3v2.7c0 2.3-1.2 3.7-3.5 3.7s-3.5-1.3-3.5-3.7v-7.6zm2.3 5v2.6c0 1 .5 1.4 1.2 1.4s1.2-.4 1.2-1.4v-2.6c0-1-.5-1.4-1.2-1.4s-1.2.3-1.2 1.4zM629.2 310.8v2l-3.4 12.6h-2.3l3.4-12.5h-4.6v-2.1h6.9zM630.5 314.3c0-2.3 1.2-3.7 3.5-3.7s3.5 1.3 3.5 3.7v7.6c0 2.3-1.2 3.7-3.5 3.7s-3.5-1.3-3.5-3.7v-7.6zm2.3 7.7c0 1 .5 1.4 1.2 1.4s1.2-.4 1.2-1.4v-7.9c0-1-.5-1.4-1.2-1.4s-1.2.4-1.2 1.4v7.9zM638.7 314.3c0-2.3 1.2-3.7 3.5-3.7s3.5 1.3 3.5 3.7v7.6c0 2.3-1.2 3.7-3.5 3.7s-3.5-1.3-3.5-3.7v-7.6zm2.3 7.7c0 1 .5 1.4 1.2 1.4s1.2-.4 1.2-1.4v-7.9c0-1-.5-1.4-1.2-1.4s-1.2.4-1.2 1.4v7.9z"/><g><path class="st2" d="M601.8 203.1c0-2.3 1.2-3.7 3.5-3.7s3.5 1.3 3.5 3.7v7.6c0 2.3-1.2 3.7-3.5 3.7s-3.5-1.3-3.5-3.7v-7.6zm2.3 7.7c0 1 .5 1.4 1.2 1.4s1.2-.4 1.2-1.4v-7.9c0-1-.5-1.4-1.2-1.4s-1.2.4-1.2 1.4v7.9zM612.5 212v2.2h-2.2V212h2.2zM620.9 199.6v2l-3.4 12.6h-2.3l3.4-12.5H614v-2.1h6.9zM622.2 203.1c0-2.3 1.2-3.7 3.5-3.7s3.5 1.3 3.5 3.7v7.6c0 2.3-1.2 3.7-3.5 3.7s-3.5-1.3-3.5-3.7v-7.6zm2.3 7.7c0 1 .5 1.4 1.2 1.4s1.2-.4 1.2-1.4v-7.9c0-1-.5-1.4-1.2-1.4s-1.2.4-1.2 1.4v7.9zM630.5 203.1c0-2.3 1.2-3.7 3.5-3.7s3.5 1.3 3.5 3.7v7.6c0 2.3-1.2 3.7-3.5 3.7s-3.5-1.3-3.5-3.7v-7.6zm2.3 7.7c0 1 .5 1.4 1.2 1.4s1.2-.4 1.2-1.4v-7.9c0-1-.5-1.4-1.2-1.4s-1.2.4-1.2 1.4v7.9zM638.7 203.1c0-2.3 1.2-3.7 3.5-3.7s3.5 1.3 3.5 3.7v7.6c0 2.3-1.2 3.7-3.5 3.7s-3.5-1.3-3.5-3.7v-7.6zm2.3 7.7c0 1 .5 1.4 1.2 1.4s1.2-.4 1.2-1.4v-7.9c0-1-.5-1.4-1.2-1.4s-1.2.4-1.2 1.4v7.9z"/></g><g><path class="st2" d="M601.8 91.9c0-2.3 1.2-3.7 3.5-3.7s3.5 1.3 3.5 3.7v7.6c0 2.3-1.2 3.7-3.5 3.7s-3.5-1.3-3.5-3.7v-7.6zm2.3 7.7c0 1 .5 1.4 1.2 1.4s1.2-.4 1.2-1.4v-7.9c0-1-.5-1.4-1.2-1.4s-1.2.4-1.2 1.4v7.9zM612.5 100.8v2.2h-2.2v-2.2h2.2zM620.9 88.4v2l-3.4 12.6h-2.3l3.4-12.5H614v-2.1h6.9zM626.8 92c0-1.3-.5-1.7-1.2-1.7s-1.2.4-1.2 1.4v.9h-2.2v-.8c0-2.3 1.2-3.7 3.4-3.7 2.3 0 3.4 1.3 3.4 3.7v.4c0 1.6-.5 2.5-1.6 3 1.1.5 1.6 1.6 1.6 3.1v1.1c0 2.3-1.2 3.7-3.4 3.7-2.3 0-3.4-1.3-3.4-3.7v-1.2h2.2v1.4c0 1 .5 1.4 1.2 1.4s1.2-.4 1.2-1.6v-1.1c0-1.4-.5-1.9-1.5-1.9h-.8v-2.1h.9c.9 0 1.4-.4 1.4-1.5V92zM630.5 91.9c0-2.3 1.2-3.7 3.5-3.7s3.5 1.3 3.5 3.7v7.6c0 2.3-1.2 3.7-3.5 3.7s-3.5-1.3-3.5-3.7v-7.6zm2.3 7.7c0 1 .5 1.4 1.2 1.4s1.2-.4 1.2-1.4v-7.9c0-1-.5-1.4-1.2-1.4s-1.2.4-1.2 1.4v7.9zM638.7 91.9c0-2.3 1.2-3.7 3.5-3.7s3.5 1.3 3.5 3.7v7.6c0 2.3-1.2 3.7-3.5 3.7s-3.5-1.3-3.5-3.7v-7.6zm2.3 7.7c0 1 .5 1.4 1.2 1.4s1.2-.4 1.2-1.4v-7.9c0-1-.5-1.4-1.2-1.4s-1.2.4-1.2 1.4v7.9z"/></g><path id="XMLID_2297_" class="st3" d="M25.5 471.3h644"/><path id="XMLID_2296_" class="st3" d="M25.5 513h644"/><g id="XMLID_2167_"><g id="XMLID_2294_"><path id="XMLID_2295_" class="st1" d="M238.6 457.4v-4.7"/></g><g id="XMLID_2292_"><path id="XMLID_2293_" class="st1" d="M238.6 438.8v-4.6"/></g><g id="XMLID_2290_"><path id="XMLID_2291_" class="st1" d="M238.6 309.1v-4.6"/></g><g id="XMLID_2288_"><path id="XMLID_2289_" class="st1" d="M238.6 290.6v-4.7"/></g><g id="XMLID_2286_"><path id="XMLID_2287_" class="st1" d="M238.6 272v-4.6"/></g><g id="XMLID_2284_"><path id="XMLID_2285_" class="st1" d="M238.6 253.5v-4.6"/></g><g id="XMLID_2282_"><path id="XMLID_2283_" class="st1" d="M238.6 235v-4.7"/></g><g id="XMLID_2280_"><path id="XMLID_2281_" class="st1" d="M238.6 216.4v-4.6"/></g><g id="XMLID_2274_"><path id="XMLID_2279_" class="st1" d="M238.6 197.9v-4.6"/></g><g id="XMLID_2263_"><path id="XMLID_2269_" class="st1" d="M238.6 179.4v-4.7"/></g><g id="XMLID_2259_"><path id="XMLID_2260_" class="st1" d="M238.6 160.8v-4.6"/></g><g id="XMLID_2257_"><path id="XMLID_2258_" class="st1" d="M238.6 142.3v-4.6"/></g><g id="XMLID_2255_"><path id="XMLID_2256_" class="st1" d="M238.6 123.8v-4.7"/></g><g id="XMLID_2253_"><path id="XMLID_2254_" class="st1" d="M238.6 105.2v-4.6"/></g><g id="XMLID_2251_"><path id="XMLID_2252_" class="st1" d="M238.6 86.7v-4.6"/></g><g id="XMLID_2186_"><path id="XMLID_2187_" class="st1" d="M238.6 68.2v-4.7"/></g><g id="XMLID_2184_"><path id="XMLID_2185_" class="st1" d="M238.6 49.6V45"/></g><g id="XMLID_2182_"><path id="XMLID_2183_" class="st1" d="M238.6 438.7V434"/></g><g id="XMLID_2180_"><path id="XMLID_2181_" class="st1" d="M238.6 420.1v-4.6"/></g><g id="XMLID_2178_"><path id="XMLID_2179_" class="st1" d="M238.6 401.6V397"/></g><g id="XMLID_2176_"><path id="XMLID_2177_" class="st1" d="M238.6 383.1v-4.7"/></g><g id="XMLID_2174_"><path id="XMLID_2175_" class="st1" d="M238.6 364.5v-4.6"/></g><g id="XMLID_2172_"><path id="XMLID_2173_" class="st1" d="M238.6 346v-4.6"/></g><g id="XMLID_2170_"><path id="XMLID_2171_" class="st1" d="M238.6 327.5v-4.7"/></g><g id="XMLID_2168_"><path id="XMLID_2169_" class="st1" d="M238.6 308.9v-4.6"/></g></g><g id="XMLID_2116_"><g id="XMLID_2165_"><path id="XMLID_2166_" class="st1" d="M108.9 457.4v-4.7"/></g><g id="XMLID_2163_"><path id="XMLID_2164_" class="st1" d="M108.9 438.8v-4.6"/></g><g id="XMLID_2161_"><path id="XMLID_2162_" class="st1" d="M108.9 309.1v-4.6"/></g><g id="XMLID_2159_"><path id="XMLID_2160_" class="st1" d="M108.9 290.6v-4.7"/></g><g id="XMLID_2157_"><path id="XMLID_2158_" class="st1" d="M108.9 272v-4.6"/></g><g id="XMLID_2155_"><path id="XMLID_2156_" class="st1" d="M108.9 253.5v-4.6"/></g><g id="XMLID_2153_"><path id="XMLID_2154_" class="st1" d="M108.9 235v-4.7"/></g><g id="XMLID_2151_"><path id="XMLID_2152_" class="st1" d="M108.9 216.4v-4.6"/></g><g id="XMLID_2149_"><path id="XMLID_2150_" class="st1" d="M108.9 197.9v-4.6"/></g><g id="XMLID_2147_"><path id="XMLID_2148_" class="st1" d="M108.9 179.4v-4.7"/></g><g id="XMLID_2145_"><path id="XMLID_2146_" class="st1" d="M108.9 160.8v-4.6"/></g><g id="XMLID_2143_"><path id="XMLID_2144_" class="st1" d="M108.9 142.3v-4.6"/></g><g id="XMLID_2141_"><path id="XMLID_2142_" class="st1" d="M108.9 123.8v-4.7"/></g><g id="XMLID_2139_"><path id="XMLID_2140_" class="st1" d="M108.9 105.2v-4.6"/></g><g id="XMLID_2137_"><path id="XMLID_2138_" class="st1" d="M108.9 86.7v-4.6"/></g><g id="XMLID_2135_"><path id="XMLID_2136_" class="st1" d="M108.9 68.2v-4.7"/></g><g id="XMLID_2133_"><path id="XMLID_2134_" class="st1" d="M108.9 49.6V45"/></g><g id="XMLID_2131_"><path id="XMLID_2132_" class="st1" d="M108.9 438.7V434"/></g><g id="XMLID_2129_"><path id="XMLID_2130_" class="st1" d="M108.9 420.1v-4.6"/></g><g id="XMLID_2127_"><path id="XMLID_2128_" class="st1" d="M108.9 401.6V397"/></g><g id="XMLID_2125_"><path id="XMLID_2126_" class="st1" d="M108.9 383.1v-4.7"/></g><g id="XMLID_2123_"><path id="XMLID_2124_" class="st1" d="M108.9 364.5v-4.6"/></g><g id="XMLID_2121_"><path id="XMLID_2122_" class="st1" d="M108.9 346v-4.6"/></g><g id="XMLID_2119_"><path id="XMLID_2120_" class="st1" d="M108.9 327.5v-4.7"/></g><g id="XMLID_2117_"><path id="XMLID_2118_" class="st1" d="M108.9 308.9v-4.6"/></g></g><path id="XMLID_2115_" class="st3" d="M583.8 471.3V49.6"/><path id="XMLID_2114_" class="st3" d="M583.8 429.6h9.3"/><path id="XMLID_2113_" class="st3" d="M583.8 318.4h9.3"/><path id="XMLID_2112_" class="st3" d="M583.8 207.2h9.3"/><path id="XMLID_2111_" class="st3" d="M583.8 96h9.3"/><g><path class="st4" d="M32.2 244.9l-2.2 4 146.4 81.2 34.8-45 112 95.8 84.4-57 167.1 119.6 2.6-3.6-169.7-121.5-84.1 56.8-113-96.6-35.3 45.7z"/></g><g><path class="st5" d="M32.3 228.9l5.8 1.2"/><path class="st6" d="M49.9 232.6l513.4 110.1"/><path class="st5" d="M569.2 344l5.8 1.2"/></g></svg>