<svg id="Layer_1" xmlns="http://www.w3.org/2000/svg" viewBox="0 0 695 555.2" style="enable-background:new 0 0 695 555.2"><style>.st0{fill:#fff}.st1{fill:none;stroke:#eaeaea;stroke-width:4;stroke-linecap:round;stroke-linejoin:round;stroke-miterlimit:10}.st2{fill:#383938}.st3{fill:none;stroke:#383938;stroke-width:4;stroke-linecap:round;stroke-linejoin:round;stroke-miterlimit:10}.st4{stroke:#04b17f;stroke-dasharray:12}.st4,.st5,.st6{fill:none;stroke-width:6;stroke-miterlimit:10}.st5{stroke-dasharray:12;stroke:#c85d48}.st6{stroke:#333;stroke-linecap:round;stroke-linejoin:round}</style><path id="XMLID_2817_" class="st0" d="M0 0h695v554.4H0z"/><g id="XMLID_2766_"><g id="XMLID_2815_"><path id="XMLID_2816_" class="st1" d="M498.1 454.5v-4.6"/></g><g id="XMLID_2813_"><path id="XMLID_2814_" class="st1" d="M498.1 436v-4.7"/></g><g id="XMLID_2811_"><path id="XMLID_2812_" class="st1" d="M498.1 306.2v-4.6"/></g><g id="XMLID_2809_"><path id="XMLID_2810_" class="st1" d="M498.1 287.7v-4.6"/></g><g id="XMLID_2807_"><path id="XMLID_2808_" class="st1" d="M498.1 269.2v-4.7"/></g><g id="XMLID_2805_"><path id="XMLID_2806_" class="st1" d="M498.1 250.6V246"/></g><g id="XMLID_2803_"><path id="XMLID_2804_" class="st1" d="M498.1 232.1v-4.6"/></g><g id="XMLID_2801_"><path id="XMLID_2802_" class="st1" d="M498.1 213.6v-4.7"/></g><g id="XMLID_2799_"><path id="XMLID_2800_" class="st1" d="M498.1 195v-4.6"/></g><g id="XMLID_2797_"><path id="XMLID_2798_" class="st1" d="M498.1 176.5v-4.6"/></g><g id="XMLID_2795_"><path id="XMLID_2796_" class="st1" d="M498.1 157.9v-4.6"/></g><g id="XMLID_2793_"><path id="XMLID_2794_" class="st1" d="M498.1 139.4v-4.6"/></g><g id="XMLID_2791_"><path id="XMLID_2792_" class="st1" d="M498.1 120.9v-4.7"/></g><g id="XMLID_2789_"><path id="XMLID_2790_" class="st1" d="M498.1 102.3v-4.6"/></g><g id="XMLID_2787_"><path id="XMLID_2788_" class="st1" d="M498.1 83.8v-4.6"/></g><g id="XMLID_2785_"><path id="XMLID_2786_" class="st1" d="M498.1 65.3v-4.7"/></g><g id="XMLID_2783_"><path id="XMLID_2784_" class="st1" d="M498.1 46.7v-4.6"/></g><g id="XMLID_2781_"><path id="XMLID_2782_" class="st1" d="M498.1 435.8v-4.7"/></g><g id="XMLID_2779_"><path id="XMLID_2780_" class="st1" d="M498.1 417.2v-4.6"/></g><g id="XMLID_2777_"><path id="XMLID_2778_" class="st1" d="M498.1 398.7v-4.6"/></g><g id="XMLID_2775_"><path id="XMLID_2776_" class="st1" d="M498.1 380.2v-4.7"/></g><g id="XMLID_2773_"><path id="XMLID_2774_" class="st1" d="M498.1 361.6V357"/></g><g id="XMLID_2771_"><path id="XMLID_2772_" class="st1" d="M498.1 343.1v-4.6"/></g><g id="XMLID_2769_"><path id="XMLID_2770_" class="st1" d="M498.1 324.6v-4.7"/></g><g id="XMLID_2767_"><path id="XMLID_2768_" class="st1" d="M498.1 306v-4.6"/></g></g><g id="XMLID_2715_"><g id="XMLID_2764_"><path id="XMLID_2765_" class="st1" d="M368.4 454.5v-4.6"/></g><g id="XMLID_2762_"><path id="XMLID_2763_" class="st1" d="M368.4 436v-4.7"/></g><g id="XMLID_2760_"><path id="XMLID_2761_" class="st1" d="M368.4 306.2v-4.6"/></g><g id="XMLID_2758_"><path id="XMLID_2759_" class="st1" d="M368.4 287.7v-4.6"/></g><g id="XMLID_2756_"><path id="XMLID_2757_" class="st1" d="M368.4 269.2v-4.7"/></g><g id="XMLID_2754_"><path id="XMLID_2755_" class="st1" d="M368.4 250.6V246"/></g><g id="XMLID_2752_"><path id="XMLID_2753_" class="st1" d="M368.4 232.1v-4.6"/></g><g id="XMLID_2750_"><path id="XMLID_2751_" class="st1" d="M368.4 213.6v-4.7"/></g><g id="XMLID_2748_"><path id="XMLID_2749_" class="st1" d="M368.4 195v-4.6"/></g><g id="XMLID_2746_"><path id="XMLID_2747_" class="st1" d="M368.4 176.5v-4.6"/></g><g id="XMLID_2744_"><path id="XMLID_2745_" class="st1" d="M368.4 157.9v-4.6"/></g><g id="XMLID_2742_"><path id="XMLID_2743_" class="st1" d="M368.4 139.4v-4.6"/></g><g id="XMLID_2740_"><path id="XMLID_2741_" class="st1" d="M368.4 120.9v-4.7"/></g><g id="XMLID_2738_"><path id="XMLID_2739_" class="st1" d="M368.4 102.3v-4.6"/></g><g id="XMLID_2736_"><path id="XMLID_2737_" class="st1" d="M368.4 83.8v-4.6"/></g><g id="XMLID_2734_"><path id="XMLID_2735_" class="st1" d="M368.4 65.3v-4.7"/></g><g id="XMLID_2732_"><path id="XMLID_2733_" class="st1" d="M368.4 46.7v-4.6"/></g><g id="XMLID_2730_"><path id="XMLID_2731_" class="st1" d="M368.4 435.8v-4.7"/></g><g id="XMLID_2728_"><path id="XMLID_2729_" class="st1" d="M368.4 417.2v-4.6"/></g><g id="XMLID_2726_"><path id="XMLID_2727_" class="st1" d="M368.4 398.7v-4.6"/></g><g id="XMLID_2724_"><path id="XMLID_2725_" class="st1" d="M368.4 380.2v-4.7"/></g><g id="XMLID_2722_"><path id="XMLID_2723_" class="st1" d="M368.4 361.6V357"/></g><g id="XMLID_2720_"><path id="XMLID_2721_" class="st1" d="M368.4 343.1v-4.6"/></g><g id="XMLID_2718_"><path id="XMLID_2719_" class="st1" d="M368.4 324.6v-4.7"/></g><g id="XMLID_2716_"><path id="XMLID_2717_" class="st1" d="M368.4 306v-4.6"/></g></g><path class="st2" d="M100.9 494.8c0 3.3-1.5 5.1-4.7 5.1-3 0-4.6-1.8-4.6-4.9v-.5h2.9v.7c0 1.4.6 1.9 1.6 1.9 1.1 0 1.7-.5 1.7-2.4v-3.6c-.5 1.1-1.5 1.7-2.8 1.7-2.3 0-3.4-1.6-3.4-4.4v-3.6c0-3.1 1.6-4.9 4.6-4.9 3 0 4.6 1.8 4.6 4.9v10zm-3-6.6v-3.5c0-1.4-.6-1.9-1.6-1.9s-1.6.5-1.6 1.9v3.5c0 1.4.6 1.9 1.6 1.9s1.6-.5 1.6-1.9zM105.9 486.1v2.9H103v-2.9h2.9zm0 10.6v2.9H103v-2.9h2.9zM107.9 484.9c0-3.1 1.6-4.9 4.6-4.9 3 0 4.6 1.8 4.6 4.9V495c0 3.1-1.6 4.9-4.6 4.9-3 0-4.6-1.8-4.6-4.9v-10.1zm3.1 10.3c0 1.4.6 1.9 1.6 1.9s1.6-.5 1.6-1.9v-10.5c0-1.4-.6-1.9-1.6-1.9s-1.6.5-1.6 1.9v10.5zM118.9 484.9c0-3.1 1.6-4.9 4.6-4.9 3 0 4.6 1.8 4.6 4.9V495c0 3.1-1.6 4.9-4.6 4.9-3 0-4.6-1.8-4.6-4.9v-10.1zm3.1 10.3c0 1.4.6 1.9 1.6 1.9s1.6-.5 1.6-1.9v-10.5c0-1.4-.6-1.9-1.6-1.9s-1.6.5-1.6 1.9v10.5zM217 482.7c2.4 0 2.9-1.1 3.4-2.4h2.1v19.5h-3.1V485H217v-2.3zM225.9 484.9c0-3.1 1.6-4.9 4.6-4.9 3 0 4.6 1.8 4.6 4.9V495c0 3.1-1.6 4.9-4.6 4.9-3 0-4.6-1.8-4.6-4.9v-10.1zm3 10.3c0 1.4.6 1.9 1.6 1.9s1.6-.5 1.6-1.9v-10.5c0-1.4-.6-1.9-1.6-1.9s-1.6.5-1.6 1.9v10.5zM240.1 486.1v2.9h-2.9v-2.9h2.9zm0 10.6v2.9h-2.9v-2.9h2.9zM242.1 484.9c0-3.1 1.6-4.9 4.6-4.9 3 0 4.6 1.8 4.6 4.9V495c0 3.1-1.6 4.9-4.6 4.9-3 0-4.6-1.8-4.6-4.9v-10.1zm3 10.3c0 1.4.6 1.9 1.6 1.9s1.6-.5 1.6-1.9v-10.5c0-1.4-.6-1.9-1.6-1.9s-1.6.5-1.6 1.9v10.5zM253.1 484.9c0-3.1 1.6-4.9 4.6-4.9 3 0 4.6 1.8 4.6 4.9V495c0 3.1-1.6 4.9-4.6 4.9-3 0-4.6-1.8-4.6-4.9v-10.1zm3 10.3c0 1.4.6 1.9 1.6 1.9s1.6-.5 1.6-1.9v-10.5c0-1.4-.6-1.9-1.6-1.9s-1.6.5-1.6 1.9v10.5zM346.8 482.7c2.4 0 2.9-1.1 3.4-2.4h2.1v19.5h-3.1V485h-2.4v-2.3zM357.8 482.7c2.4 0 2.9-1.1 3.4-2.4h2.1v19.5h-3.1V485h-2.4v-2.3zM369.8 486.1v2.9h-2.9v-2.9h2.9zm0 10.6v2.9h-2.9v-2.9h2.9zM371.8 484.9c0-3.1 1.6-4.9 4.6-4.9 3 0 4.6 1.8 4.6 4.9V495c0 3.1-1.6 4.9-4.6 4.9-3 0-4.6-1.8-4.6-4.9v-10.1zm3.1 10.3c0 1.4.6 1.9 1.6 1.9s1.6-.5 1.6-1.9v-10.5c0-1.4-.6-1.9-1.6-1.9s-1.6.5-1.6 1.9v10.5zM382.8 484.9c0-3.1 1.6-4.9 4.6-4.9 3 0 4.6 1.8 4.6 4.9V495c0 3.1-1.6 4.9-4.6 4.9-3 0-4.6-1.8-4.6-4.9v-10.1zm3.1 10.3c0 1.4.6 1.9 1.6 1.9s1.6-.5 1.6-1.9v-10.5c0-1.4-.6-1.9-1.6-1.9s-1.6.5-1.6 1.9v10.5zM476.5 482.7c2.4 0 2.9-1.1 3.4-2.4h2.1v19.5h-3.1V485h-2.4v-2.3zM490.1 482.8c-1 0-1.6.5-1.6 1.9v2.1h-2.9v-1.9c0-3.1 1.6-4.9 4.6-4.9 3 0 4.6 1.8 4.6 4.9 0 6.1-6.1 8.4-6.1 11.6v.4h5.8v2.8h-8.8v-2.4c0-5.7 6.1-6.7 6.1-12.3-.1-1.8-.7-2.2-1.7-2.2zM499.6 486.1v2.9h-2.9v-2.9h2.9zm0 10.6v2.9h-2.9v-2.9h2.9zM501.5 484.9c0-3.1 1.6-4.9 4.6-4.9 3 0 4.6 1.8 4.6 4.9V495c0 3.1-1.6 4.9-4.6 4.9-3 0-4.6-1.8-4.6-4.9v-10.1zm3.1 10.3c0 1.4.6 1.9 1.6 1.9s1.6-.5 1.6-1.9v-10.5c0-1.4-.6-1.9-1.6-1.9s-1.6.5-1.6 1.9v10.5zM512.6 484.9c0-3.1 1.6-4.9 4.6-4.9 3 0 4.6 1.8 4.6 4.9V495c0 3.1-1.6 4.9-4.6 4.9-3 0-4.6-1.8-4.6-4.9v-10.1zm3 10.3c0 1.4.6 1.9 1.6 1.9s1.6-.5 1.6-1.9v-10.5c0-1.4-.6-1.9-1.6-1.9s-1.6.5-1.6 1.9v10.5zM601.8 424.9c0-2.3 1.2-3.7 3.5-3.7s3.5 1.3 3.5 3.7v7.6c0 2.3-1.2 3.7-3.5 3.7s-3.5-1.3-3.5-3.7v-7.6zm2.3 7.8c0 1 .5 1.4 1.2 1.4s1.2-.4 1.2-1.4v-7.9c0-1-.5-1.4-1.2-1.4s-1.2.4-1.2 1.4v7.9zM612.5 433.8v2.2h-2.2v-2.2h2.2zM614 425.1c0-2.5 1.1-3.8 3.5-3.8 2.3 0 3.4 1.3 3.4 3.7v.4h-2.2v-.5c0-1-.5-1.4-1.2-1.4-.8 0-1.3.4-1.3 1.8v2.7c.4-.8 1.1-1.3 2.1-1.3 1.7 0 2.5 1.2 2.5 3.3v2.7c0 2.3-1.2 3.7-3.5 3.7s-3.5-1.3-3.5-3.7v-7.6zm2.3 4.9v2.6c0 1 .5 1.4 1.2 1.4s1.2-.4 1.2-1.4V430c0-1-.5-1.4-1.2-1.4s-1.2.4-1.2 1.4zM621.9 431.3l4.2-9.9h2.5v9.9h1.1v2.1h-1.1v2.6h-2.3v-2.6h-4.4v-2.1zm4.4 0v-5.5l-2.3 5.5h2.3zM630.5 424.9c0-2.3 1.2-3.7 3.5-3.7s3.5 1.3 3.5 3.7v7.6c0 2.3-1.2 3.7-3.5 3.7s-3.5-1.3-3.5-3.7v-7.6zm2.3 7.8c0 1 .5 1.4 1.2 1.4s1.2-.4 1.2-1.4v-7.9c0-1-.5-1.4-1.2-1.4s-1.2.4-1.2 1.4v7.9zM638.7 424.9c0-2.3 1.2-3.7 3.5-3.7s3.5 1.3 3.5 3.7v7.6c0 2.3-1.2 3.7-3.5 3.7s-3.5-1.3-3.5-3.7v-7.6zm2.3 7.8c0 1 .5 1.4 1.2 1.4s1.2-.4 1.2-1.4v-7.9c0-1-.5-1.4-1.2-1.4s-1.2.4-1.2 1.4v7.9z"/><g><path class="st2" d="M601.8 311.4c0-2.3 1.2-3.7 3.5-3.7s3.5 1.3 3.5 3.7v7.6c0 2.3-1.2 3.7-3.5 3.7s-3.5-1.3-3.5-3.7v-7.6zm2.3 7.7c0 1 .5 1.4 1.2 1.4s1.2-.4 1.2-1.4v-7.9c0-1-.5-1.4-1.2-1.4s-1.2.4-1.2 1.4v7.9zM612.5 320.3v2.2h-2.2v-2.2h2.2zM614 311.5c0-2.5 1.1-3.8 3.5-3.8 2.3 0 3.4 1.3 3.4 3.7v.4h-2.2v-.5c0-1-.5-1.4-1.2-1.4-.8 0-1.3.4-1.3 1.8v2.7c.4-.8 1.1-1.3 2.1-1.3 1.7 0 2.5 1.2 2.5 3.3v2.7c0 2.3-1.2 3.7-3.5 3.7s-3.5-1.3-3.5-3.7v-7.6zm2.3 5v2.6c0 1 .5 1.4 1.2 1.4s1.2-.4 1.2-1.4v-2.6c0-1-.5-1.4-1.2-1.4s-1.2.4-1.2 1.4zM629.2 307.9v2l-3.4 12.6h-2.3l3.4-12.5h-4.6v-2.1h6.9zM630.5 311.4c0-2.3 1.2-3.7 3.5-3.7s3.5 1.3 3.5 3.7v7.6c0 2.3-1.2 3.7-3.5 3.7s-3.5-1.3-3.5-3.7v-7.6zm2.3 7.7c0 1 .5 1.4 1.2 1.4s1.2-.4 1.2-1.4v-7.9c0-1-.5-1.4-1.2-1.4s-1.2.4-1.2 1.4v7.9zM638.7 311.4c0-2.3 1.2-3.7 3.5-3.7s3.5 1.3 3.5 3.7v7.6c0 2.3-1.2 3.7-3.5 3.7s-3.5-1.3-3.5-3.7v-7.6zm2.3 7.7c0 1 .5 1.4 1.2 1.4s1.2-.4 1.2-1.4v-7.9c0-1-.5-1.4-1.2-1.4s-1.2.4-1.2 1.4v7.9z"/></g><g><path class="st2" d="M601.8 200.2c0-2.3 1.2-3.7 3.5-3.7s3.5 1.3 3.5 3.7v7.6c0 2.3-1.2 3.7-3.5 3.7s-3.5-1.3-3.5-3.7v-7.6zm2.3 7.7c0 1 .5 1.4 1.2 1.4s1.2-.4 1.2-1.4V200c0-1-.5-1.4-1.2-1.4s-1.2.4-1.2 1.4v7.9zM612.5 209.1v2.2h-2.2v-2.2h2.2zM620.9 196.7v2l-3.4 12.6h-2.3l3.4-12.5H614v-2.1h6.9zM622.2 200.2c0-2.3 1.2-3.7 3.5-3.7s3.5 1.3 3.5 3.7v7.6c0 2.3-1.2 3.7-3.5 3.7s-3.5-1.3-3.5-3.7v-7.6zm2.3 7.7c0 1 .5 1.4 1.2 1.4s1.2-.4 1.2-1.4V200c0-1-.5-1.4-1.2-1.4s-1.2.4-1.2 1.4v7.9zM630.5 200.2c0-2.3 1.2-3.7 3.5-3.7s3.5 1.3 3.5 3.7v7.6c0 2.3-1.2 3.7-3.5 3.7s-3.5-1.3-3.5-3.7v-7.6zm2.3 7.7c0 1 .5 1.4 1.2 1.4s1.2-.4 1.2-1.4V200c0-1-.5-1.4-1.2-1.4s-1.2.4-1.2 1.4v7.9zM638.7 200.2c0-2.3 1.2-3.7 3.5-3.7s3.5 1.3 3.5 3.7v7.6c0 2.3-1.2 3.7-3.5 3.7s-3.5-1.3-3.5-3.7v-7.6zm2.3 7.7c0 1 .5 1.4 1.2 1.4s1.2-.4 1.2-1.4V200c0-1-.5-1.4-1.2-1.4s-1.2.4-1.2 1.4v7.9z"/></g><g><path class="st2" d="M601.8 89c0-2.3 1.2-3.7 3.5-3.7s3.5 1.3 3.5 3.7v7.6c0 2.3-1.2 3.7-3.5 3.7s-3.5-1.3-3.5-3.7V89zm2.3 7.7c0 1 .5 1.4 1.2 1.4s1.2-.4 1.2-1.4v-7.9c0-1-.5-1.4-1.2-1.4s-1.2.4-1.2 1.4v7.9zM612.5 97.9v2.2h-2.2v-2.2h2.2zM620.9 85.5v2l-3.4 12.6h-2.3l3.4-12.5H614v-2.1h6.9zM626.8 89.1c0-1.3-.5-1.7-1.2-1.7s-1.2.4-1.2 1.4v.9h-2.2V89c0-2.3 1.2-3.7 3.4-3.7 2.3 0 3.4 1.3 3.4 3.7v.4c0 1.6-.5 2.5-1.6 3 1.1.5 1.6 1.6 1.6 3.1v1.1c0 2.3-1.2 3.7-3.4 3.7-2.3 0-3.4-1.3-3.4-3.7v-1.2h2.2v1.4c0 1 .5 1.4 1.2 1.4s1.2-.4 1.2-1.6v-1.1c0-1.4-.5-1.9-1.5-1.9h-.8v-2.1h.9c.9 0 1.4-.4 1.4-1.5v-.9zM630.5 89c0-2.3 1.2-3.7 3.5-3.7s3.5 1.3 3.5 3.7v7.6c0 2.3-1.2 3.7-3.5 3.7s-3.5-1.3-3.5-3.7V89zm2.3 7.7c0 1 .5 1.4 1.2 1.4s1.2-.4 1.2-1.4v-7.9c0-1-.5-1.4-1.2-1.4s-1.2.4-1.2 1.4v7.9zM638.7 89c0-2.3 1.2-3.7 3.5-3.7s3.5 1.3 3.5 3.7v7.6c0 2.3-1.2 3.7-3.5 3.7s-3.5-1.3-3.5-3.7V89zm2.3 7.7c0 1 .5 1.4 1.2 1.4s1.2-.4 1.2-1.4v-7.9c0-1-.5-1.4-1.2-1.4s-1.2.4-1.2 1.4v7.9z"/></g><path id="XMLID_2698_" class="st3" d="M25.5 468.4h644"/><path id="XMLID_2697_" class="st3" d="M25.5 510.1h644"/><g id="XMLID_2646_"><g id="XMLID_2695_"><path id="XMLID_2696_" class="st1" d="M238.6 454.5v-4.6"/></g><g id="XMLID_2693_"><path id="XMLID_2694_" class="st1" d="M238.6 436v-4.7"/></g><g id="XMLID_2691_"><path id="XMLID_2692_" class="st1" d="M238.6 306.2v-4.6"/></g><g id="XMLID_2689_"><path id="XMLID_2690_" class="st1" d="M238.6 287.7v-4.6"/></g><g id="XMLID_2687_"><path id="XMLID_2688_" class="st1" d="M238.6 269.2v-4.7"/></g><g id="XMLID_2685_"><path id="XMLID_2686_" class="st1" d="M238.6 250.6V246"/></g><g id="XMLID_2683_"><path id="XMLID_2684_" class="st1" d="M238.6 232.1v-4.6"/></g><g id="XMLID_2681_"><path id="XMLID_2682_" class="st1" d="M238.6 213.6v-4.7"/></g><g id="XMLID_2679_"><path id="XMLID_2680_" class="st1" d="M238.6 195v-4.6"/></g><g id="XMLID_2677_"><path id="XMLID_2678_" class="st1" d="M238.6 176.5v-4.6"/></g><g id="XMLID_2675_"><path id="XMLID_2676_" class="st1" d="M238.6 157.9v-4.6"/></g><g id="XMLID_2673_"><path id="XMLID_2674_" class="st1" d="M238.6 139.4v-4.6"/></g><g id="XMLID_2671_"><path id="XMLID_2672_" class="st1" d="M238.6 120.9v-4.7"/></g><g id="XMLID_2669_"><path id="XMLID_2670_" class="st1" d="M238.6 102.3v-4.6"/></g><g id="XMLID_2667_"><path id="XMLID_2668_" class="st1" d="M238.6 83.8v-4.6"/></g><g id="XMLID_2665_"><path id="XMLID_2666_" class="st1" d="M238.6 65.3v-4.7"/></g><g id="XMLID_2663_"><path id="XMLID_2664_" class="st1" d="M238.6 46.7v-4.6"/></g><g id="XMLID_2661_"><path id="XMLID_2662_" class="st1" d="M238.6 435.8v-4.7"/></g><g id="XMLID_2659_"><path id="XMLID_2660_" class="st1" d="M238.6 417.2v-4.6"/></g><g id="XMLID_2657_"><path id="XMLID_2658_" class="st1" d="M238.6 398.7v-4.6"/></g><g id="XMLID_2655_"><path id="XMLID_2656_" class="st1" d="M238.6 380.2v-4.7"/></g><g id="XMLID_2653_"><path id="XMLID_2654_" class="st1" d="M238.6 361.6V357"/></g><g id="XMLID_2651_"><path id="XMLID_2652_" class="st1" d="M238.6 343.1v-4.6"/></g><g id="XMLID_2649_"><path id="XMLID_2650_" class="st1" d="M238.6 324.6v-4.7"/></g><g id="XMLID_2647_"><path id="XMLID_2648_" class="st1" d="M238.6 306v-4.6"/></g></g><g id="XMLID_2595_"><g id="XMLID_2644_"><path id="XMLID_2645_" class="st1" d="M108.9 454.5v-4.6"/></g><g id="XMLID_2642_"><path id="XMLID_2643_" class="st1" d="M108.9 436v-4.7"/></g><g id="XMLID_2640_"><path id="XMLID_2641_" class="st1" d="M108.9 306.2v-4.6"/></g><g id="XMLID_2638_"><path id="XMLID_2639_" class="st1" d="M108.9 287.7v-4.6"/></g><g id="XMLID_2636_"><path id="XMLID_2637_" class="st1" d="M108.9 269.2v-4.7"/></g><g id="XMLID_2634_"><path id="XMLID_2635_" class="st1" d="M108.9 250.6V246"/></g><g id="XMLID_2632_"><path id="XMLID_2633_" class="st1" d="M108.9 232.1v-4.6"/></g><g id="XMLID_2630_"><path id="XMLID_2631_" class="st1" d="M108.9 213.6v-4.7"/></g><g id="XMLID_2628_"><path id="XMLID_2629_" class="st1" d="M108.9 195v-4.6"/></g><g id="XMLID_2626_"><path id="XMLID_2627_" class="st1" d="M108.9 176.5v-4.6"/></g><g id="XMLID_2624_"><path id="XMLID_2625_" class="st1" d="M108.9 157.9v-4.6"/></g><g id="XMLID_2622_"><path id="XMLID_2623_" class="st1" d="M108.9 139.4v-4.6"/></g><g id="XMLID_2620_"><path id="XMLID_2621_" class="st1" d="M108.9 120.9v-4.7"/></g><g id="XMLID_2618_"><path id="XMLID_2619_" class="st1" d="M108.9 102.3v-4.6"/></g><g id="XMLID_2616_"><path id="XMLID_2617_" class="st1" d="M108.9 83.8v-4.6"/></g><g id="XMLID_2614_"><path id="XMLID_2615_" class="st1" d="M108.9 65.3v-4.7"/></g><g id="XMLID_2612_"><path id="XMLID_2613_" class="st1" d="M108.9 46.7v-4.6"/></g><g id="XMLID_2610_"><path id="XMLID_2611_" class="st1" d="M108.9 435.8v-4.7"/></g><g id="XMLID_2608_"><path id="XMLID_2609_" class="st1" d="M108.9 417.2v-4.6"/></g><g id="XMLID_2606_"><path id="XMLID_2607_" class="st1" d="M108.9 398.7v-4.6"/></g><g id="XMLID_2604_"><path id="XMLID_2605_" class="st1" d="M108.9 380.2v-4.7"/></g><g id="XMLID_2602_"><path id="XMLID_2603_" class="st1" d="M108.9 361.6V357"/></g><g id="XMLID_2600_"><path id="XMLID_2601_" class="st1" d="M108.9 343.1v-4.6"/></g><g id="XMLID_2598_"><path id="XMLID_2599_" class="st1" d="M108.9 324.6v-4.7"/></g><g id="XMLID_2596_"><path id="XMLID_2597_" class="st1" d="M108.9 306v-4.6"/></g></g><path id="XMLID_2299_" class="st3" d="M583.8 468.4V46.7"/><path id="XMLID_1954_" class="st3" d="M583.8 426.7h9.3"/><path id="XMLID_1787_" class="st3" d="M583.8 315.5h9.3"/><path id="XMLID_1777_" class="st3" d="M583.8 204.3h9.3"/><path id="XMLID_711_" class="st3" d="M583.8 93.1h9.3"/><path class="st4" d="M37 375.5h535.9"/><path class="st5" d="M37.4 164.2h535.8"/><path class="st6" d="M43.3 364.9l101-174.5 106 165.4 118.1-179.3 90.9 158.2 108-144.3"/></svg>