<svg xmlns="http://www.w3.org/2000/svg" viewBox="42 119.8 695 555.2"><path fill="#FFF" d="M42 119.8h695V675H42V119.8z"/><path fill="none" stroke="#EAEAEA" stroke-width="4" stroke-linecap="round" stroke-linejoin="round" stroke-miterlimit="10" d="M540.1 575.2v-4.7M540.1 556.6V552M540.1 426.9v-4.6M540.1 408.4v-4.7M540.1 389.8v-4.6M540.1 371.3v-4.6M540.1 352.8v-4.7M540.1 334.2v-4.6M540.1 315.7v-4.6M540.1 297.2v-4.7M540.1 278.6V274M540.1 260.1v-4.6M540.1 241.6v-4.7M540.1 223v-4.6M540.1 204.5v-4.6M540.1 186v-4.7M540.1 167.4v-4.6M540.1 556.5v-4.7M540.1 537.9v-4.6M540.1 519.4v-4.6M540.1 500.9v-4.7M540.1 482.3v-4.6M540.1 463.8v-4.7M540.1 445.2v-4.6M540.1 426.7v-4.6"/><g><path fill="none" stroke="#EAEAEA" stroke-width="4" stroke-linecap="round" stroke-linejoin="round" stroke-miterlimit="10" d="M410.4 575.2v-4.7M410.4 556.6V552M410.4 426.9v-4.6M410.4 408.4v-4.7M410.4 389.8v-4.6M410.4 371.3v-4.6M410.4 352.8v-4.7M410.4 334.2v-4.6M410.4 315.7v-4.6M410.4 297.2v-4.7M410.4 278.6V274M410.4 260.1v-4.6M410.4 241.6v-4.7M410.4 223v-4.6M410.4 204.5v-4.6M410.4 186v-4.7M410.4 167.4v-4.6M410.4 556.5v-4.7M410.4 537.9v-4.6M410.4 519.4v-4.6M410.4 500.9v-4.7M410.4 482.3v-4.6M410.4 463.8v-4.7M410.4 445.2v-4.6M410.4 426.7v-4.6"/></g><path fill="#383938" d="M546.4 606.7l-3.1 7.3m102.1-70.1c1.8 0 2.2-.9 2.5-1.8h1.5v14.6h-2.3v-11.1h-1.8l.1-1.7zm9.1 10.6v2.2h-2.2v-2.2h2.2zm3.1-10.6c1.8 0 2.2-.9 2.5-1.8h1.5v14.6h-2.3v-11.1h-1.8l.1-1.7zm6.6 1.7c0-2.3 1.2-3.7 3.5-3.7s3.5 1.3 3.5 3.7v7.6c0 2.3-1.2 3.7-3.5 3.7s-3.5-1.3-3.5-3.7v-7.6zm2.3 7.7c0 1 .5 1.4 1.2 1.4s1.2-.4 1.2-1.4v-7.9c0-1-.5-1.4-1.2-1.4s-1.2.4-1.2 1.4v7.9zm6-7.7c0-2.3 1.2-3.7 3.5-3.7s3.5 1.3 3.5 3.7v7.6c0 2.3-1.2 3.7-3.5 3.7s-3.5-1.3-3.5-3.7v-7.6zm2.3 7.7c0 1 .5 1.4 1.2 1.4s1.2-.4 1.2-1.4v-7.9c0-1-.5-1.4-1.2-1.4s-1.2.4-1.2 1.4v7.9zm5.9-7.7c0-2.3 1.2-3.7 3.5-3.7s3.5 1.3 3.5 3.7v7.6c0 2.3-1.2 3.7-3.5 3.7s-3.5-1.3-3.5-3.7v-7.6zm2.3 7.7c0 1 .5 1.4 1.2 1.4s1.2-.4 1.2-1.4v-7.9c0-1-.5-1.4-1.2-1.4s-1.2.4-1.2 1.4v7.9zm-39.2-121.2c0-2.3 1.2-3.7 3.5-3.7s3.5 1.3 3.5 3.7v7.6c0 2.3-1.2 3.7-3.5 3.7s-3.5-1.3-3.5-3.7v-7.6zm2.3 7.7c0 1 .5 1.4 1.2 1.4s1.2-.4 1.2-1.4v-7.9c0-1-.5-1.4-1.2-1.4s-1.2.4-1.2 1.4v7.9zm8.4 1.2v2.2h-2.2V441h2.2zm1.5-8.8c0-2.5 1.1-3.8 3.5-3.8 2.3 0 3.4 1.3 3.4 3.7v.4h-2.2v-.5c0-1-.5-1.4-1.2-1.4-.8 0-1.3.4-1.3 1.8v2.7c.4-.8 1.1-1.3 2.1-1.3 1.7 0 2.5 1.2 2.5 3.3v2.7c0 2.3-1.2 3.7-3.5 3.7s-3.5-1.3-3.5-3.7v-7.6h.2zm2.3 5v2.6c0 1 .5 1.4 1.2 1.4s1.2-.4 1.2-1.4v-2.6c0-1-.5-1.4-1.2-1.4s-1.2.3-1.2 1.4zm12.9-8.6v2l-3.4 12.6h-2.3l3.4-12.5h-4.6v-2.1h6.9zm1.3 3.5c0-2.3 1.2-3.7 3.5-3.7s3.5 1.3 3.5 3.7v7.6c0 2.3-1.2 3.7-3.5 3.7s-3.5-1.3-3.5-3.7v-7.6zm2.3 7.7c0 1 .5 1.4 1.2 1.4s1.2-.4 1.2-1.4v-7.9c0-1-.5-1.4-1.2-1.4s-1.2.4-1.2 1.4v7.9zm5.9-7.7c0-2.3 1.2-3.7 3.5-3.7s3.5 1.3 3.5 3.7v7.6c0 2.3-1.2 3.7-3.5 3.7s-3.5-1.3-3.5-3.7v-7.6zm2.3 7.7c0 1 .5 1.4 1.2 1.4s1.2-.4 1.2-1.4v-7.9c0-1-.5-1.4-1.2-1.4s-1.2.4-1.2 1.4v7.9zm-39.2-118.9c0-2.3 1.2-3.7 3.5-3.7s3.5 1.3 3.5 3.7v7.6c0 2.3-1.2 3.7-3.5 3.7s-3.5-1.3-3.5-3.7v-7.6zm2.3 7.7c0 1 .5 1.4 1.2 1.4s1.2-.4 1.2-1.4v-7.9c0-1-.5-1.4-1.2-1.4s-1.2.4-1.2 1.4v7.9zm8.4 1.1v2.2h-2.2v-2.2h2.2zm8.4-12.3v2l-3.4 12.6h-2.3l3.4-12.5H656v-2.1h6.9zm1.3 3.5c0-2.3 1.2-3.7 3.5-3.7s3.5 1.3 3.5 3.7v7.6c0 2.3-1.2 3.7-3.5 3.7s-3.5-1.3-3.5-3.7v-7.6zm2.3 7.7c0 1 .5 1.4 1.2 1.4s1.2-.4 1.2-1.4v-7.9c0-1-.5-1.4-1.2-1.4s-1.2.4-1.2 1.4v7.9zm6-7.7c0-2.3 1.2-3.7 3.5-3.7s3.5 1.3 3.5 3.7v7.6c0 2.3-1.2 3.7-3.5 3.7s-3.5-1.3-3.5-3.7v-7.6zm2.3 7.7c0 1 .5 1.4 1.2 1.4s1.2-.4 1.2-1.4v-7.9c0-1-.5-1.4-1.2-1.4s-1.2.4-1.2 1.4v7.9zm5.9-7.7c0-2.3 1.2-3.7 3.5-3.7s3.5 1.3 3.5 3.7v7.6c0 2.3-1.2 3.7-3.5 3.7s-3.5-1.3-3.5-3.7v-7.6zm2.3 7.7c0 1 .5 1.4 1.2 1.4s1.2-.4 1.2-1.4v-7.9c0-1-.5-1.4-1.2-1.4s-1.2.4-1.2 1.4v7.9z"/><g><path fill="#383938" d="M643.8 209.7c0-2.3 1.2-3.7 3.5-3.7s3.5 1.3 3.5 3.7v7.6c0 2.3-1.2 3.7-3.5 3.7s-3.5-1.3-3.5-3.7v-7.6zm2.3 7.7c0 1 .5 1.4 1.2 1.4s1.2-.4 1.2-1.4v-7.9c0-1-.5-1.4-1.2-1.4s-1.2.4-1.2 1.4v7.9zm8.4 1.1v2.2h-2.2v-2.2h2.2zm8.4-12.3v2l-3.4 12.6h-2.3l3.4-12.5H656v-2.1h6.9zm5.9 3.5c0-1.3-.5-1.7-1.2-1.7s-1.2.4-1.2 1.4v.9h-2.2v-.8c0-2.3 1.2-3.7 3.4-3.7 2.3 0 3.4 1.3 3.4 3.7v.4c0 1.6-.5 2.5-1.6 3 1.1.5 1.6 1.6 1.6 3.1v1.1c0 2.3-1.2 3.7-3.4 3.7-2.3 0-3.4-1.3-3.4-3.7v-1.2h2.2v1.4c0 1 .5 1.4 1.2 1.4s1.2-.4 1.2-1.6V216c0-1.4-.5-1.9-1.5-1.9h-.8V212h.9c.9 0 1.4-.4 1.4-1.5v-.8zm3.7 0c0-2.3 1.2-3.7 3.5-3.7s3.5 1.3 3.5 3.7v7.6c0 2.3-1.2 3.7-3.5 3.7s-3.5-1.3-3.5-3.7v-7.6zm2.3 7.7c0 1 .5 1.4 1.2 1.4s1.2-.4 1.2-1.4v-7.9c0-1-.5-1.4-1.2-1.4s-1.2.4-1.2 1.4v7.9zm5.9-7.7c0-2.3 1.2-3.7 3.5-3.7s3.5 1.3 3.5 3.7v7.6c0 2.3-1.2 3.7-3.5 3.7s-3.5-1.3-3.5-3.7v-7.6zm2.3 7.7c0 1 .5 1.4 1.2 1.4s1.2-.4 1.2-1.4v-7.9c0-1-.5-1.4-1.2-1.4s-1.2.4-1.2 1.4v7.9z"/></g><path fill="none" stroke="#383938" stroke-width="4" stroke-linecap="round" stroke-linejoin="round" stroke-miterlimit="10" d="M67.5 589.1h644"/><g><path fill="none" stroke="#EAEAEA" stroke-width="4" stroke-linecap="round" stroke-linejoin="round" stroke-miterlimit="10" d="M280.6 575.2v-4.7M280.6 556.6V552M280.6 426.9v-4.6M280.6 408.4v-4.7M280.6 389.8v-4.6M280.6 371.3v-4.6M280.6 352.8v-4.7M280.6 334.2v-4.6M280.6 315.7v-4.6M280.6 297.2v-4.7M280.6 278.6V274M280.6 260.1v-4.6M280.6 241.6v-4.7M280.6 223v-4.6M280.6 204.5v-4.6M280.6 186v-4.7M280.6 167.4v-4.6M280.6 556.5v-4.7M280.6 537.9v-4.6M280.6 519.4v-4.6M280.6 500.9v-4.7M280.6 482.3v-4.6M280.6 463.8v-4.7M280.6 445.2v-4.6M280.6 426.7v-4.6"/></g><g><path fill="none" stroke="#EAEAEA" stroke-width="4" stroke-linecap="round" stroke-linejoin="round" stroke-miterlimit="10" d="M150.9 575.2v-4.7M150.9 556.6V552M150.9 426.9v-4.6M150.9 408.4v-4.7M150.9 389.8v-4.6M150.9 371.3v-4.6M150.9 352.8v-4.7M150.9 334.2v-4.6M150.9 315.7v-4.6M150.9 297.2v-4.7M150.9 278.6V274M150.9 260.1v-4.6M150.9 241.6v-4.7M150.9 223v-4.6M150.9 204.5v-4.6M150.9 186v-4.7M150.9 167.4v-4.6M150.9 556.5v-4.7M150.9 537.9v-4.6M150.9 519.4v-4.6M150.9 500.9v-4.7M150.9 482.3v-4.6M150.9 463.8v-4.7M150.9 445.2v-4.6M150.9 426.7v-4.6"/></g><path fill="none" stroke="#383938" stroke-width="4" stroke-linecap="round" stroke-linejoin="round" stroke-miterlimit="10" d="M625.8 589.1V167.4M625.8 547.4h9.3M625.8 436.2h9.3M625.8 325h9.3M625.8 213.8h9.3"/><g><path fill="#333" stroke="#333" stroke-width="2" stroke-linecap="round" stroke-linejoin="round" stroke-miterlimit="10" d="M576.8 463.8h-6.3l-5.2 8.6-1.6-1.6-17.6-57.8-9.7 7.9h-5.1l-3 4.4-2.7-3.2-13.3 5-5.8 16.5-6.3-11.8-10.6-9.9-6.9-24.7-6 18.4-2-10.1-8.2 2.6-4.2-5.7-7.3-3.3-15.5 27.2-5.2-4.1-9.1 2.9-3.8 10.6h-3.5l-4.3-23.1H406l-4.3-7.6h-7.5l-5.6-18-7.3 11.5h-13.7l-3.8-38.5-9.2 4.9-10.8-16.1-11.6.5-5.6 8.6-2.5-12.8-8.5-2.3-4.2-27.1-5.9-10.5H297l-6.3 16.2-7.3 9-1.9-1.1-3.9-7.1-5.3-39-14.5.5-10.1 52.9-6.7 13.7-3.1-1.8L234 320l-7.7-8.3h-6.8l-3.9 5.4-6.5-15.4-6.8 18.2-1.4-1.6-5.9-.9-11.5-.4-5.9 1.5-7.7-20.7-4.5-8.2L163 262l-7.7-16.4-4.2-6.4h-11.8l-2.9 13.7-3.5-9.2-10.4 7.9-3.4 37.5-4.4 12.8-5.3 30.8h-2.3L95.5 302l-5.3 53.8 4.1.4 3.6-36.1 6.3 16.7h8.7l5.9-33.8 4.4-13 3.2-36.2 4.6-3.5 6.6 17.3 5-24.2h6.3l2.8 4.3 7.2 15.4 2.4 27.8 4.8 8.6 8.9 23.9 9-2.2 10.6.3 4.2.6 4.9 6 5.6-15.2 5.4 12.7 7-9.8h2.8l5.6 6.1 3.9 29.2 8.7 5 9-18.2 9.6-50.2 7.4-.2 4.9 35.6v.4l4.8 8.8 6 3.5 9.9-12.3 5.5-14.1h3.3l4.3 7.7 4.5 29 8.7 2.3 3.8 20.3 10.1-15.4 7.2-.2 11.5 17.2 7-3.7 3.7 36.1h19.7l3.7-5.9 3.8 12.3h8.2l4.3 7.6h6.5l4.4 23.2h9.8l4.1-11.4 5-1.7 7.4 5.8 15.9-28.2 2.9 1.3 5.3 7.2 6.6-2 4.3 21 6.6-20.3 4.1 14.8 11.4 9.8 9.4 17.8 8.3-23.7 8.7-3.3 4.4 5.1 4.8-7h4.4l6-5L560 473l6.2 6 6.7-11.1h5.4v-6.4l-1.5 2.3z"/></g><path fill="none" stroke="#C85D48" stroke-width="6" stroke-miterlimit="10" stroke-dasharray="12" d="M195.2 361l358.1 174.1m-387-302l27 78m206.3 76.3l6.2 19.2"/><g><path fill="#F16B6B" stroke="#F15A3C" stroke-width="3" stroke-linecap="round" stroke-linejoin="round" stroke-miterlimit="10" d="M415.9 359.3h28.9v30.5h-28.9v-30.5z"/></g><g><path fill="#FFF" d="M432.4 380.9c0 .5-.2.6-.6.6h-1.3c-.5 0-.6-.1-.6-.6v-10.5l-2.8 1.6c-.3.2-.6.2-.7-.2l-.5-.9c-.1-.3-.1-.5.2-.7l4-2.4c.3-.2.5-.2.9-.2h1c.3 0 .5.1.5.5l-.1 12.8z"/></g><g><path fill="#F16B6B" stroke="#F15A3C" stroke-width="3" stroke-linecap="round" stroke-linejoin="round" stroke-miterlimit="10" d="M194.5 236.9h28.9v30.5h-28.9v-30.5z"/></g><g><path fill="#FFF" d="M209 255l-2 1.9h5.3c.4 0 .6.1.6.5v1.1c0 .4-.2.6-.6.6h-7.9c-.5 0-.6-.2-.6-.6v-1c0-.4.1-.6.4-.8 1.2-1.3 2.6-2.5 3.8-3.6 1.5-1.6 2.5-2.9 2.5-4.1s-.9-1.9-2.1-1.9a6 6 0 0 0-2.9.9c-.3.1-.5.1-.7-.2l-.5-1c-.1-.3-.1-.5.2-.7a8.2 8.2 0 0 1 4.1-1.2c2.5 0 4.4 1.4 4.4 3.9.1 2.3-1.9 4.3-4 6.2z"/></g><g><path fill="#F16B6B" stroke="#F15A3C" stroke-width="3" stroke-linecap="round" stroke-linejoin="round" stroke-miterlimit="10" d="M334.3 462.4h28.9v30.5h-28.9v-30.5z"/></g><g><path fill="#FFF" d="M347.8 484.9c-1.4 0-2.7-.3-3.7-.8-.3-.1-.4-.4-.3-.8l.4-1c.1-.3.4-.3.6-.2.8.4 1.8.6 2.8.6 1.6 0 2.6-.9 2.6-2.3 0-1.8-1.8-2.3-3.2-2.3h-.4c-.4 0-.5-.2-.5-.5v-.8c0-.3.1-.5.5-.5h.7c1.5 0 2.4-.6 2.4-2 0-1.1-.8-1.7-2-1.7-.8 0-1.7.3-2.5.7-.3.1-.5.2-.6-.2l-.4-1c-.1-.2-.1-.4.2-.6 1.1-.7 2.3-1 3.8-1 2.2 0 4.2 1.2 4.2 3.6 0 1.4-.9 2.7-2.2 3.1 1.4.4 2.7 1.7 2.7 3.4a4.8 4.8 0 0 1-5.1 4.3z"/></g><g><path d="M137.2 620.3h-10.9c0-3.1 1.3-5.3 3.9-7.7l1.4-1.3c1.6-1.4 1.8-2.2 1.8-4 0-1.5-.6-2.2-1.7-2.2-1.8 0-2 1.6-2 3.4h-3.4v-.7c0-3.3 1.7-5.1 5.5-5.1 3.5 0 5.3 1.8 5.3 4.8 0 2.3-.7 3.8-2.7 5.6l-2 1.8c-1 .9-1.6 1.9-1.8 2.6h6.7v2.8zM143.9 602.6c4.3 0 5.5 2.3 5.5 8.6 0 4.9-.3 9.4-5.5 9.4-4.3 0-5.5-2.3-5.5-8.6-.1-4.8.2-9.4 5.5-9.4zm-2 10.2c0 4.4.4 5.5 1.9 5.5 1.6 0 1.9-1.4 1.9-5.9v-1.9c0-4.4-.4-5.5-1.9-5.5-1.6 0-1.9 1.4-1.9 5.9v1.9zM154.4 620.3v-12.5h-3.5v-2.3h.3c2.3 0 3.8-.9 4.1-2.8h2.6v17.7h-3.5zM166.4 620.3v-12.5h-3.5v-2.3h.3c2.3 0 3.8-.9 4.1-2.8h2.6v17.7h-3.5z"/></g><g><path d="M268.9 620.3H258c0-3.1 1.3-5.3 3.9-7.7l1.4-1.3c1.6-1.4 1.8-2.2 1.8-4 0-1.5-.6-2.2-1.7-2.2-1.8 0-2 1.6-2 3.4H258v-.7c0-3.3 1.7-5.1 5.5-5.1 3.5 0 5.3 1.8 5.3 4.8 0 2.3-.7 3.8-2.7 5.6l-2 1.8c-1 .9-1.6 1.9-1.8 2.6h6.7v2.8zM275.6 602.6c4.3 0 5.5 2.3 5.5 8.6 0 4.9-.3 9.4-5.5 9.4-4.3 0-5.5-2.3-5.5-8.6-.1-4.8.2-9.4 5.5-9.4zm-2 10.2c0 4.4.4 5.5 1.9 5.5 1.6 0 1.9-1.4 1.9-5.9v-1.9c0-4.4-.4-5.5-1.9-5.5-1.6 0-1.9 1.4-1.9 5.9v1.9zM286.1 620.3v-12.5h-3.5v-2.3h.3c2.3 0 3.8-.9 4.1-2.8h2.6v17.7h-3.5zM304.9 620.3H294c0-3.1 1.3-5.3 3.9-7.7l1.4-1.3c1.6-1.4 1.8-2.2 1.8-4 0-1.5-.6-2.2-1.7-2.2-1.8 0-2 1.6-2 3.4H294v-.7c0-3.3 1.7-5.1 5.5-5.1 3.5 0 5.3 1.8 5.3 4.8 0 2.3-.7 3.8-2.7 5.6l-2 1.8c-1 .9-1.6 1.9-1.8 2.6h6.7v2.8z"/></g><g><path d="M397.6 620.3h-10.9c0-3.1 1.3-5.3 3.9-7.7l1.4-1.3c1.6-1.4 1.8-2.2 1.8-4 0-1.5-.6-2.2-1.8-2.2-1.8 0-2 1.6-2 3.4h-3.4v-.7c0-3.3 1.7-5.1 5.5-5.1 3.5 0 5.3 1.8 5.3 4.8 0 2.3-.7 3.8-2.7 5.6l-2 1.8c-1 .9-1.7 1.9-1.8 2.6h6.7v2.8zM404.3 602.6c4.3 0 5.5 2.3 5.5 8.6 0 4.9-.3 9.4-5.5 9.4-4.3 0-5.5-2.3-5.5-8.6 0-4.8.2-9.4 5.5-9.4zm-2 10.2c0 4.4.4 5.5 2 5.5s1.9-1.4 1.9-5.9v-1.9c0-4.4-.4-5.5-1.9-5.5-1.6 0-2 1.4-2 5.9v1.9zM414.8 620.3v-12.5h-3.5v-2.3h.3c2.3 0 3.8-.9 4.1-2.8h2.6v17.7h-3.5zM426.2 615.1c0 2 .4 3.2 2 3.2 1.8 0 2-1.3 2-2.8 0-1.6-.3-3-2.3-3h-1.2v-2.3h1.2c1.5 0 2-1.3 2-2.8 0-1.7-.5-2.3-1.7-2.3-1.5 0-1.8 1.2-1.8 2.9H423c0-3.5 1.8-5.2 5.2-5.2 3.2 0 5.1 1.4 5.1 4.5 0 2.1-1 3.5-2.7 3.9v.1c2.3.3 3.1 1.9 3.1 4.2 0 2.4-1 5.4-5.9 5.4-3.4 0-5.1-2.1-5.1-5.4v-.1h3.5z"/></g><g><path d="M527.3 620.3h-10.9c0-3.1 1.3-5.3 3.9-7.7l1.5-1.3c1.6-1.4 1.8-2.2 1.8-4 0-1.5-.6-2.2-1.7-2.2-1.8 0-2 1.6-2 3.4h-3.4v-.7c0-3.3 1.7-5.1 5.5-5.1 3.5 0 5.3 1.8 5.3 4.8 0 2.3-.7 3.8-2.7 5.6l-2 1.8c-1 .9-1.6 1.9-1.8 2.6h6.7v2.8zM534 602.6c4.3 0 5.5 2.3 5.5 8.6 0 4.9-.3 9.4-5.5 9.4-4.3 0-5.5-2.3-5.5-8.6-.1-4.8.2-9.4 5.5-9.4zm-2 10.2c0 4.4.4 5.5 1.9 5.5 1.6 0 2-1.4 2-5.9v-1.9c0-4.4-.4-5.5-2-5.5s-1.9 1.4-1.9 5.9v1.9zM544.5 620.3v-12.5H541v-2.3h.3c2.3 0 3.8-.9 4.1-2.8h2.6v17.7h-3.5zM552.3 613.7l5.9-11.1h3.7v11.2h1.7v2.8h-1.7v3.7h-3.3v-3.7h-6.3v-2.9zm6.3-6.6l-3.5 6.7h3.5v-6.7z"/></g></svg>