<?xml version="1.0"?>
<svg xmlns="http://www.w3.org/2000/svg" baseProfile="basic" width="695" height="438" viewBox="0 0 695 438" image-rendering="optimizeSpeed" preserveAspectRatio="xMinYMin meet"><g overflow="visible"><path fill="#EDEDED" d="M696 438.25V0H0v438.25h696"/><path fill="none" stroke="#19344F" stroke-width="5" stroke-linecap="round" stroke-linejoin="round" d="M491.45 190.8q3.65-3.95 8.9-4.2 5.3-.2 9.25 3.25m-18.15.95q-3.6 3.95-3.6 9.25 0 1.8 1.25 3.05 1.25 1.25 3.05 1.25h94.8q1.25 0 2.15-.9.9-.85.9-2.1V199q0-6.35-4.5-10.85-4.55-4.5-10.9-4.5-4.75 0-8.55 2.65M169.85 122.85q5.25-.3 9.25 3.2m-9.25-3.2q-5.25.25-8.9 4.15-3.6 3.95-3.6 9.25 0 1.8 1.25 3.1 1.25 1.25 3.05 1.25h94.8q1.3 0 2.15-.9.9-.85.9-2.15v-2.3q0-6.35-4.5-10.85t-10.85-4.5q-4.75 0-8.6 2.6"/><path fill="#FFF" stroke="#19344F" stroke-width="2.5" stroke-linecap="round" stroke-linejoin="round" d="M181.601 127.45l1.05 3.45 35.25-.65 9.45-3.65-12.45-10-24.55 3.3q-2 .3-4.15.75-4.3 1-4.95 2.1-.6 1.05.35 4.7"/><path fill="#FFF" d="M197.051 106.85q-7.3 4.95-9 14.35l53.7 3.2q-1.95-9.6-9.55-15.85-7.7-6.35-17.7-6.35-10.6 0-17.45 4.65"/><path fill="none" stroke="#19344F" stroke-width="2.5" stroke-linecap="round" stroke-linejoin="round" d="M188.051 121.2q1.7-9.4 9-14.35 6.85-4.65 17.45-4.65 10 0 17.7 6.35 7.6 6.25 9.55 15.85"/><path fill="#FFF" d="M189.851 114.55q-6.8 0-11.6 4.8-4.8 4.75-4.8 11.55l27.45-12.1q-4.65-4.25-11.05-4.25"/><path fill="none" stroke="#19344F" stroke-width="2.5" stroke-linecap="round" stroke-linejoin="round" d="M178.251 119.35q4.8-4.8 11.6-4.8 6.4 0 11.05 4.25m-22.65.55q-4.8 4.75-4.8 11.55"/><path fill="#FFF" d="M179.151 126.05q-4-3.5-9.25-3.2-5.25.25-8.9 4.15-3.6 3.95-3.6 9.25 0 1.8 1.25 3.1 1.25 1.25 3.05 1.25h94.8q1.3 0 2.15-.9.9-.85.9-2.15v-2.3q0-6.35-4.5-10.85t-10.85-4.5q-4.75 0-8.6 2.6l-56.45 3.55"/><path fill="none" stroke="#19344F" stroke-width="2.5" stroke-linecap="round" stroke-linejoin="round" d="M231.651 114.15q.95 1 2.05 2.45"/><path fill="#FFF" d="M213.901 106.5l14.95 5.1q-3-2.3-6.75-3.7-3.95-1.4-8.2-1.4"/><path fill="none" stroke="#19344F" stroke-width="2.5" stroke-linecap="round" stroke-linejoin="round" d="M222.101 107.9q3.75 1.4 6.75 3.7m-6.75-3.7q-3.95-1.4-8.2-1.4"/><path fill="#E4E8EB" d="M178.05 140.5q-11.974-.378-11.4-8.85.3-4.45 3.2-8.9-5.25.25-8.9 4.2-3.6 3.9-3.6 9.25 0 1.75 1.25 3.05 1.25 1.25 3.05 1.25h16.4"/><path fill="#FFF" stroke="#19344F" stroke-width="2.5" stroke-linecap="round" stroke-linejoin="round" d="M548.401 194l9.45-3.6-12.45-10-24.55 3.25q-2 .3-4.15.8-4.3 1-4.95 2.05-.65 1.05.3 4.75l1.1 3.45 35.25-.7"/><path fill="#FFF" d="M562.701 172.3q-7.7-6.35-17.7-6.35-10.6 0-17.45 4.65-7.3 4.95-9 14.35l53.7 3.2q-1.95-9.6-9.55-15.85"/><path fill="none" stroke="#19344F" stroke-width="2.5" stroke-linecap="round" stroke-linejoin="round" d="M545.001 165.95q10 0 17.7 6.35 7.6 6.25 9.55 15.85m-27.25-22.2q-10.6 0-17.45 4.65-7.3 4.95-9 14.35"/><path fill="#FFF" d="M508.751 183.1q-4.8 4.8-4.8 11.6l27.45-12.1q-4.8-4.3-11.05-4.3-6.8 0-11.6 4.8"/><path fill="none" stroke="#19344F" stroke-width="2.5" stroke-linecap="round" stroke-linejoin="round" d="M503.951 194.7q0-6.8 4.8-11.6t11.6-4.8q6.25 0 11.05 4.3"/><path fill="#FFF" d="M587.001 204.35q1.25 0 2.15-.9.9-.85.9-2.1V199q0-6.35-4.5-10.85-4.55-4.5-10.9-4.5-4.75 0-8.55 2.65l-56.45 3.55q-3.95-3.45-9.25-3.25-5.25.25-8.9 4.2-3.6 3.95-3.6 9.25 0 1.8 1.25 3.05 1.25 1.25 3.05 1.25h94.8"/><path fill="none" stroke="#19344F" stroke-width="2.5" stroke-linecap="round" stroke-linejoin="round" d="M562.151 177.95q.75.75 2.05 2.45"/><path fill="#FFF" d="M544.401 170.25l14.95 5.15q-3.15-2.45-6.75-3.7-3.9-1.45-8.2-1.45"/><path fill="none" stroke="#19344F" stroke-width="2.5" stroke-linecap="round" stroke-linejoin="round" d="M552.601 171.7q3.6 1.25 6.75 3.7m-6.75-3.7q-3.9-1.45-8.2-1.45"/><path fill="#E4E8EB" d="M508.55 204.25q-11.974-.378-11.4-8.85.3-4.45 3.2-8.9-5.25.25-8.9 4.2-3.6 3.95-3.6 9.25 0 1.8 1.25 3.05 1.25 1.25 3.05 1.25h16.4"/><path fill="none" stroke="#1A344F" stroke-width="2.5" stroke-linecap="round" stroke-linejoin="round" d="M457.65 187.8h5.05M424.65 186.5q15.2 1.1 27.85 1.45m-27.85-1.45q-14.85-1.05-25.25-2.25M385.5 189.9q22.55 2.95 46.3 4"/><path fill="#BE9A7B" stroke="#1A344F" stroke-width="2.5" stroke-linecap="round" stroke-linejoin="round" d="M309.501 418.5l7.4-.65-24.7-62.2-13.4 7.05 30.7 55.8"/><path fill="#FFF" stroke="#1A344F" stroke-width="2.5" stroke-linecap="round" stroke-linejoin="round" d="M227.651 298.8l-5.15 6.95-7.85-.25-11.7 6.05 42.95 68.9 62.9-32.5 7-4.05 8.85-1.7 5.45-2.8-27.9-82.6-74.55 42"/><path fill="#1A344F" d="M238.651 342.4l1.45-.75q4.5-2.4 2.05-7.1l-1.3-2.5q-2.45-4.75-7-2.45l-4.45 2.3 10 19.3 3-1.6-3.75-7.2m-3.35-10.05q1.45-.75 2.4 1.05l1.5 2.9q.5 1 .35 1.65-.15.55-.9.95l-1.4.75-3.4-6.55 1.45-.75M252.051 327.75l-.8-1.55q-1.15-2.25-2.75-2.75-1.65-.55-4 .65l-4.6 2.4 10 19.25 3-1.55-4.05-7.85 1.05-.55q1.05-.55 1.8-.2.8.3 1.45 1.6l1.55 3.05q.85 1.55 1.5 2.2l3.1-1.6q-.75-.65-1.55-2.15l-1.55-2.95q-1.6-3.3-4.1-3.1 1.5-2-.05-4.9m-6.2-.85q1.55-.8 2.55 1.2l1 1.9q1.05 2.05-.8 2.95l-1.15.65-3.1-5.95 1.5-.75M258.201 327.3l-2.75-5.35 5.2-2.7-1.4-2.75-8.25 4.25 9.95 19.25 8.25-4.25-1.4-2.75-5.25 2.7-2.9-5.65 4.15-2.15-1.45-2.75-4.15 2.15M272.351 316.3l-.3-.6q-1.2-2.3-3-2.95-1.8-.7-3.95.45-2.2 1.1-2.7 3-.45 1.8.7 4.15 1.5 2.95 5.95 4.15 4.35 1.2 5.3 3 .95 1.85-.6 2.65-1.6.8-2.55-1.05l-.7-1.35-2.9 1.45.65 1.2q1.2 2.3 3 3 1.8.65 4-.5t2.7-3q.5-1.85-.7-4.2-1.5-2.95-5.9-4.15-4.35-1.2-5.3-3-1-1.9.55-2.65 1.45-.75 2.5 1.1l.4.8 2.85-1.5M271.401 310.2l10 19.25 3-1.55-9.95-19.3-3.05 1.6M281.451 305l-4.8 2.45 9.95 19.3 4.8-2.5q4.55-2.3 2.05-7.1l-5.05-9.75q-2.45-4.7-6.95-2.4m3.85 3.85l5.2 10q.95 1.9-.6 2.7l-1.7.85-7.1-13.75 1.7-.9q1.6-.75 2.5 1.1M292.351 302.85l5.2-2.7-1.4-2.75-8.3 4.25 10 19.3 8.25-4.3-1.4-2.75-5.25 2.7-2.9-5.65 4.15-2.15-1.45-2.75-4.15 2.15-2.75-5.35M304.901 292.85l5.95 11.55-9.1-9.95-3.75 2 9.95 19.25 2.7-1.4-7.2-13.95 11 12 3.1-1.6-9.95-19.3-2.7 1.4M308.901 290.8l1.4 2.75 3.15-1.65 8.55 16.5 3.05-1.55-8.55-16.5 3.15-1.65-1.4-2.75-9.35 4.85"/><path fill="none" stroke="#1A344F" stroke-width="2.5" stroke-linecap="round" stroke-linejoin="round" d="M232.951 319.95l52.05-26.3M252.701 358.25l52.05-26.25"/><path fill="#25107E" d="M228.551 312.55q-1.45.7-2 2.3-.5 1.6.2 3.05l1.1 2.2q.75 1.45 2.35 2 1.55.5 3.05-.2l52.1-26q1.45-.75 2-2.3.5-1.6-.25-3.1l-1.1-2.15q-.7-1.5-2.3-2-1.6-.55-3.05.2l-52.1 26"/><path fill="#CB0709" d="M307.801 330.1q-.7-1.45-2.3-2-1.6-.5-3.05.2l-52.1 26q-1.45.75-2 2.35-.55 1.55.2 3.05l1.1 2.15q.75 1.5 2.3 2.05 1.6.5 3.05-.25l52.15-26q1.45-.7 2-2.3.5-1.6-.25-3.05l-1.1-2.2"/><path fill="#FFF" d="M231.651 312.2l.15 2.75-2.2 1.65 2.65.7.85 2.65 1.55-2.3 2.75-.05-1.7-2.15.8-2.65-2.6.95-2.25-1.55M241.051 307.45l.1 2.75-2.2 1.65 2.65.75.9 2.6 1.5-2.3 2.75-.05-1.7-2.15.8-2.65-2.55.95-2.25-1.55M250.901 302.9l.1 2.75-2.2 1.65 2.65.75.9 2.6 1.5-2.25 2.75-.05-1.7-2.15.8-2.65-2.55.95-2.25-1.6M265.901 297.65l-2.55.95-2.25-1.6.1 2.75-2.2 1.65 2.65.75.9 2.6 1.5-2.3h2.75l-1.7-2.2.8-2.6M276.301 293.05l-2.6.95-2.25-1.55.1 2.75-2.2 1.65 2.65.75.9 2.6 1.55-2.3 2.75-.05-1.75-2.15.85-2.65M279.251 288.65l.15 2.75-2.2 1.65 2.65.75.85 2.6 1.55-2.25 2.75-.05-1.7-2.15.8-2.65-2.6.95-2.25-1.6M255.051 355.95l-2.25-1.55.1 2.75-2.2 1.65 2.65.75.9 2.6 1.5-2.3 2.75-.05-1.7-2.15.8-2.65-2.55.95M262.101 349.5l.1 2.75-2.2 1.65 2.65.75.9 2.6 1.5-2.3h2.75l-1.7-2.2.8-2.6-2.55.95-2.25-1.6M271.901 345.15l.1 2.8-2.2 1.65 2.65.7.9 2.6 1.5-2.25 2.75-.05-1.7-2.15.8-2.65-2.55.95-2.25-1.6M283.151 345.75l2.75-.05-1.7-2.15.8-2.65-2.6 1-2.25-1.6.1 2.75-2.2 1.65 2.65.75.9 2.6 1.55-2.3M294.451 341.2l-1.7-2.15.8-2.65-2.6 1-2.25-1.6.15 2.75-2.2 1.65 2.65.75.9 2.6 1.5-2.3 2.75-.05M299.651 333.65l-2.2 1.65 2.65.75.9 2.6 1.5-2.25 2.75-.05-1.7-2.2.8-2.6-2.55.95-2.25-1.6.1 2.75"/><path fill="#BE9A7B" stroke="#1A344F" stroke-width="2.5" stroke-linecap="round" stroke-linejoin="round" d="M364.751 418.5l4.6-63.55-15.15.6 4.6 63.6 5.95-.65"/><path fill="#FFF" stroke="#1A344F" stroke-width="2.5" stroke-linecap="round" stroke-linejoin="round" d="M335.901 272.7l-7.65 4.05-7-3.6-13.15.35 7.9 82.95 70.8-1.95 8.9-2.8 8.65 2.3 6.15-.15-1.7-79.7-72.9-1.45"/><path fill="#1A344F" d="M337.951 304.2q-2.5.1-3.75 1.55-1.25 1.4-1.2 4.05l.35 11.25q.05 2.65 1.35 4 1.35 1.4 3.85 1.3 5.1-.15 4.95-5.6l-.1-2.85-3.2.1.05 3.1q.05 2.05-1.7 2.15-1.75 0-1.8-2.05l-.35-11.75q-.05-2.15 1.7-2.15 1.8-.1 1.85 2.05l.05 2.35 3.25-.1-.1-2.1q-.05-2.6-1.35-4-1.35-1.35-3.85-1.3M354.151 305.25q-1.25-1.2-3.9-1.15l-5.15.15.6 21.65 3.4-.05-.25-8.85 1.2-.05q1.2-.05 1.7.6.55.6.6 2.1l.1 3.4q.05 1.7.4 2.65l3.45-.05q-.35-.85-.45-2.65l-.1-3.35q-.1-3.7-2.35-4.55 2.2-1.1 2.1-4.45l-.05-1.7q-.05-2.55-1.3-3.7m-3.9 1.95q1.75-.05 1.8 2.2l.05 2.1q.05 2.35-2 2.35l-1.3.05-.2-6.65 1.65-.05M357.551 303.9l.6 21.65 3.4-.05-.6-21.7-3.4.1M373.201 309.35v-.7q-.15-5.45-5.2-5.3-5 .15-4.85 5.6.1 3.3 3.5 6.3 3.45 3 3.5 5 .05 2.05-1.7 2.15-1.8.1-1.85-2.05l-.05-1.55-3.2.1.05 1.3q.15 5.45 5.2 5.35 2.5-.05 3.75-1.55 1.3-1.45 1.2-4.05-.1-3.3-3.5-6.3-3.45-3-3.5-5-.05-2.1 1.65-2.2 1.7-.05 1.75 2.1l.05.9 3.2-.1M375.051 303.4l.6 21.7 3.4-.1-.6-21.7-3.4.1M389.301 304.2q-1.35-1.4-3.8-1.35-2.45.1-3.7 1.55-1.2 1.45-1.15 4.05.1 3.3 3.5 6.3t3.45 5q.05 2.15-1.7 2.15-1.8.1-1.8-2.05l-.05-1.55-3.25.1.05 1.35q.1 2.6 1.4 4 1.35 1.4 3.85 1.3 2.5-.05 3.75-1.55 1.25-1.45 1.15-4.05-.1-3.3-3.5-6.3t-3.45-5q-.05-2.1 1.65-2.2 1.7 0 1.75 2.1v.9l3.25-.1-.05-.65q-.05-2.65-1.35-4"/><path fill="none" stroke="#1A344F" stroke-width="2.5" stroke-linecap="round" stroke-linejoin="round" d="M331.501 294.05l58.3-1M332.601 337.2l58.3-1.05"/><path fill="#BE9A7B" d="M423.751 388.05l-13.85-6.1-11.15 35.2 5.8 1.25q.5-.35.95-1.1l18.25-29.25"/><path fill="none" stroke="#1A344F" stroke-width="2.5" stroke-linecap="round" stroke-linejoin="round" d="M423.751 388.05l-13.85-6.1-11.15 35.2m25-29.1l-18.25 29.25q-.45.75-.95 1.1"/><path fill="#FFF" stroke="#1A344F" stroke-width="2.5" stroke-linecap="round" stroke-linejoin="round" d="M419.701 303.3l-4.65-6.35-12-5.4-29.7 72.8 65.05 34.45 9.2 1.35 6.8 5.9 5.6 2.5 38.95-77.5-70.6-28.05-8.65.3"/><path fill="#1A344F" d="M415.951 340.9q2.1-4.55-2.55-6.65l-4.7-2.1-8.9 19.75 4.85 2.2q4.7 2.15 6.85-2.55l.75-1.6q1.45-3.4-.4-5.3 2.4 0 3.8-3.05l.3-.7m-3.9-3.85q1.6.7.65 2.75l-.5 1.1q-.9 2.05-2.8 1.25l-1.2-.55 2.35-5.25 1.5.7m-2.85 11.3l-.75 1.7q-.5 1.1-1.1 1.35-.55.25-1.4-.1l-1.8-.8 2.75-6.1 1.4.65q1.1.5 1.3 1.2.2.75-.4 2.1M426.701 347.65l.7-1.6q1.05-2.3.45-3.9-.6-1.6-3-2.7l-4.65-2.15-8.95 19.8 3.1 1.4 3.65-8.05 1.05.5q1.1.45 1.3 1.25.25.8-.4 2.15l-1.4 3.1q-.7 1.7-.8 2.6l3.15 1.4q.05-1.1.75-2.55l1.4-3.05q1.5-3.4-.2-5.15 2.5 0 3.85-3.05m-2.55-2.65l-.85 1.95q-.95 2.1-2.8 1.2l-1.25-.5 2.75-6.1 1.5.7q1.55.7.65 2.75M430.901 352.2l2.45-5.5 5.4 2.4 1.25-2.8-8.45-3.85-8.95 19.8 8.45 3.8 1.3-2.8-5.35-2.45 2.6-5.8 4.25 1.95 1.3-2.85-4.25-1.9M452.301 351.85l-2.9-1.3-5.7 6.2.95-8.35-3.2-1.45-1.1 11.05-8.05 8.6 2.9 1.3 6.1-6.65-1 9 3.3 1.45 1.1-11.7 7.6-8.15M454.101 352.65l-8.95 19.75 3.1 1.4 8.95-19.75-3.1-1.4M458.551 354.65l-1.3 2.85 3.25 1.45-7.65 16.95 3.1 1.4 7.65-16.95 3.25 1.5 1.3-2.85-9.6-4.35"/><path fill="#A47352" d="M286.669 376.25l6.081-17.057-2.275-3.543-11.725 6.167 7.919 14.433"/><path fill="#997D60" fill-opacity=".4" d="M404.45 262.25l-38.2 12.5-59.5 5.2-38.5-14.8q.8 2.85 3.55 6.7 5.55 7.7 15.4 12.65 31.6 15.8 94.75-2l22.5-20.25"/><path fill="#7FA75B" stroke-width="2.5" stroke-linecap="round" stroke-linejoin="round" d="M125 313.775q-1.031 1.041-2 2.1-.717.779-1.4 1.575l-3.1 4q2.271-.116 4.5-.3 1.004-.081 2-.175 19.397-1.823 35.5-8.525 2.515-1.036 4.95-2.2 10.3-4.9 15.35-9.55l-8.1-10.4q-6.318 1.009-12.2 2.75-16.272 4.78-29.2 15.1-3.398 2.719-6.3 5.625"/><path fill="#608E43" d="M160.5 308.175q.05.015.1.025l18.55-9.1-27.85-2.75-7.55 4.15q4.4 3.55 11.05 6 3.282 1.176 5.7 1.675"/><path fill="none" stroke="#1A344F" stroke-width="2.5" stroke-linecap="round" stroke-linejoin="round" d="M125 313.775q-1.031 1.041-2 2.1-.717.779-1.4 1.575l-3.1 4q2.271-.116 4.5-.3 1.004-.081 2-.175 19.397-1.823 35.5-8.525 2.515-1.036 4.95-2.2 10.3-4.9 15.35-9.55l-8.1-10.4q-6.318 1.009-12.2 2.75-16.272 4.78-29.2 15.1-3.398 2.719-6.3 5.625"/><path fill="#997D60" d="M179.501 314.75l9.8 4.2q4.5-.25 6.45-4.45 1.65-3.6.25-7.35-1.35-3.7-5-5.4-3.6-1.65-7.3-.25-3.75 1.35-5.4 5-2.1 4.45 1.2 8.25"/><path fill="none" stroke="#1A344F" stroke-width="2.5" stroke-linecap="round" stroke-linejoin="round" d="M178.301 306.5q-2.1 4.45 1.2 8.25m-1.2-8.25q1.65-3.65 5.4-5 3.7-1.4 7.3.25 3.65 1.7 5 5.4 1.4 3.75-.25 7.35-1.95 4.2-6.45 4.45"/><path fill="#7FA75B" d="M183.001 296.9l-9.2-4.35q-.3 8.5 3.05 20.3 6.75 23.6 25.15 39.95l1.15-5.05q1.05-6.4.4-13.05-2.15-21.4-20.55-37.8"/><path fill="none" stroke="#1A344F" stroke-width="2.5" stroke-linecap="round" stroke-linejoin="round" d="M173.801 292.55q-.3 8.5 3.05 20.3 6.75 23.6 25.15 39.95l1.15-5.05q1.05-6.4.4-13.05-2.15-21.4-20.55-37.8"/><path fill="#BE9A7B" d="M187.001 303.25q-1.3-2.1-3.8-1.1l-2.2 1.45q-1.6 7.85-2.95 26.1-2.7 36.4-1.5 88.15l15.5-.1q.15-3.05-1.6-43.5-1.85-43.7-3.45-71"/><path fill="none" stroke="#1A344F" stroke-width="2.5" stroke-linecap="round" stroke-linejoin="round" d="M181.001 303.6q-1.6 7.85-2.95 26.1-2.7 36.4-1.5 88.15m4.45-114.25l2.2-1.45q2.5-1 3.8 1.1 1.6 27.3 3.45 71 1.75 40.45 1.6 43.5"/><path fill="#9C7558" d="M188.95 311.7q-.5-4.55-1.4-8.3-1.75-7.5-3.7-3.45-1.95 4.05-3.6 17.25-.8 6.6-1.25 12.4 6.55-6.1 8.9-12.6 1.2-3.25 1.05-5.3"/><path fill="#997D60" d="M185.001 304.65l-8.8-2q-4.4.9-5.7 5.35-1.1 3.85.85 7.3 1.9 3.5 5.7 4.6 3.85 1.1 7.3-.85 3.5-1.9 4.6-5.7.65-2.3-.75-4.85-1.1-2.1-3.2-3.85"/><path fill="none" stroke="#1A344F" stroke-width="2.5" stroke-linecap="round" stroke-linejoin="round" d="M188.201 308.5q-1.1-2.1-3.2-3.85m3.2 3.85q1.4 2.55.75 4.85-1.1 3.8-4.6 5.7-3.45 1.95-7.3.85-3.8-1.1-5.7-4.6-1.95-3.45-.85-7.3 1.3-4.45 5.7-5.35"/><path fill="#8B7568" d="M171.85 316.2q1.65 2.3 5.15 3.7-.9-3.25-.5-6.65.8-6.8 7.25-7.45l-6.4-3.05q-2.5.4-4.4 2.3-3.9 3.75-1.1 11.15"/><path fill="#A47352" d="M187.55 318.7q-.75 21.15-1.95 44.2-2.35 46-4.35 55.25 2.7.85 6.75.05 2.05-.4 3.55-.95l-4-98.55"/><path fill="#72AD4F" d="M203.7 309.25q18.95 13.7 21.8 30.7l7.2 1.7q-1.35-6.05-5.6-13.85-8.5-15.55-23.05-24.1-6.85-2.85-13.5-4.1-3.3-.65-5.25-.7 8.9 3.45 18.4 10.35"/><path fill="#99C977" d="M225.5 339.95q-2.85-17-21.8-30.7-9.5-6.9-18.4-10.35 1.95.05 5.25.7 6.65 1.25 13.5 4.1 14.55 8.55 23.05 24.1 4.25 7.8 5.6 13.85-.815-7.401-5.7-16.1-10.5-18.75-33.9-26.45l-10.2-.35 2.55 5.15q3.5 6.3 8.35 12.25 15.6 18.9 39 26.6-.038-.546-.1-1.1l-7.2-1.7"/><path fill="none" stroke="#1A344F" stroke-width="2.5" stroke-linecap="round" stroke-linejoin="round" d="M193.1 299.1q23.4 7.7 33.9 26.45m-41.55-21.65l-2.55-5.15m10.9 17.4q-4.85-5.95-8.35-12.25m47.35 38.85q-23.4-7.7-39-26.6m38.9 25.5q.062.554.1 1.1m-5.8-17.2q4.885 8.699 5.7 16.1"/><path fill="#71B256" d="M202 263.15q.434-2.222.725-4.325-.269 6.333-3.025 13.125 1.413-4.198 2.3-8.8"/><path fill="#71B256" d="M199.7 271.95q1.413-4.198 2.3-8.8.434-2.222.725-4.325.018-.313.025-.625-2.8 6.05-7.45 11.65-9.25 11.25-18.3 9.2-.45-.197-.825.375-.292 2.615-.175 4.875v.025l5.625 11.25q.772.431 1.6.65 4.437-4.38 8.875-10.725.128-.174.25-.35.735-1.048 1.425-2.075l5.45-10q.222-.5.425-1l.05-.125"/><path fill="#71B256" d="M176.175 279.425q-.284.428-.525 1.325-.25 1-.4 2.1l.75 1.45q-.117-2.26.175-4.875"/><path fill="#99C977" d="M176.175 279.425q.375-.572.825-.375 9.05 2.05 18.3-9.2 4.65-5.6 7.45-11.65-.007.312-.025.625 1.069-7.595.325-13.625-4.8 1.45-10.35 5.4-11.05 7.85-14.7 20.2-1.372 4.703-1.825 8.625M178.25 292.2q1.493 2.322 3.375 3.375L176 284.325q.029.6.1 1.175.389 3.93 2.15 6.7"/><path fill="#71B256" d="M199.225 273.075l-5.45 10q3.356-5.121 5.45-10"/><path fill="#99C977" d="M199.225 273.075l.225-.4q.099-.301.2-.6-.203.5-.425 1M183.225 296.225q.183.038.375.075 1.503-1.315 2.9-2.725 1.117-1.126 2.15-2.3.913-1.032 1.775-2.1l3.35-6.1q-.69 1.027-1.425 2.075-.122.176-.25.35-4.438 6.345-8.875 10.725"/><path fill="#71B256" d="M183.225 296.225q-.828-.219-1.6-.65l.725 1.475.875-.825"/><path fill="none" stroke="#1A344F" stroke-width="2.5" stroke-linecap="round" stroke-linejoin="round" d="M176 284.325v-.025m.1 1.2q-.071-.575-.1-1.175m2.25 7.875q-1.761-2.77-2.15-6.7m5.525 10.075q-1.882-1.053-3.375-3.375m5.35 4.1q-.192-.037-.375-.075m3.275-2.65q-1.397 1.41-2.9 2.725m5.05-5.025q-1.033 1.174-2.15 2.3m3.925-4.4q-.862 1.068-1.775 2.1m5.125-8.2l-3.35 6.1m9.025-16.5l-.225.4m.475-1.125q-.122.364-.25.725m3.6-27.475q.744 6.03-.325 13.625M192.7 250.6q5.55-3.95 10.35-5.4M178 270.8q3.65-12.35 14.7-20.2m-16.525 28.825q.453-3.922 1.825-8.625M202.725 258.825q-.291 2.103-.725 4.325-.887 4.602-2.3 8.8M176.175 279.425q-.292 2.615-.175 4.875m5.625 11.275q.772.431 1.6.65m10.55-13.15l5.45-10"/><path fill="#99C977" d="M187.4 292.275q1.559-1.549 3.3-3.125 11.6-10.55 21.3-12.05-3.35 1.75-7.4 5.35-8.039 7.19-11.5 16.625 5.637.076 10.55-.075.5 0 1.1-1.95.6-1.9 1.15-1.95.75 0 2.8 1.75t2.85 1.65q8.05-.85 15.25-5.1 4.7-2.85 13.55-10.4-8.5-5.6-19.95-6.4-19.518-1.406-33 15.675"/><path fill="#6FAD4C" d="M190.7 289.15q-1.741 1.576-3.3 3.125-2.343 2.958-4.5 6.475l6.5.25q1.887.049 3.7.075 3.461-9.435 11.5-16.625 4.05-3.6 7.4-5.35-9.7 1.5-21.3 12.05"/><path fill="#6FAD4C" d="M189.4 299l-6.5-.25q2.157-3.517 4.5-6.475-3.656 3.611-6.35 7.075 11.25.45 12.05-.25v-.025q-1.813-.026-3.7-.075"/><path fill="none" stroke="#1A344F" stroke-width="2.5" stroke-linecap="round" stroke-linejoin="round" d="M211.55 298.5q-.8.1-2.85-1.65m18.1-3.45q-7.2 4.25-15.25 5.1m28.8-15.5q-8.85 7.55-13.55 10.4m-6.4-16.8q11.45.8 19.95 6.4m-52.95 9.275q13.482-17.081 33-15.675M203.65 299q-4.913.151-10.55.075m11.65-2.025q-.6 1.95-1.1 1.95m2.25-3.9q-.55.05-1.15 1.95m3.95-.2q-2.05-1.75-2.8-1.75M187.4 292.275q-2.343 2.958-4.5 6.475l6.5.25q1.887.049 3.7.075"/><path fill="#99C977" d="M121.35 275.1l-1.85.55q.029.436 2 2.175 1.421 1.248 3.85 3.175 6.698 5.386 14.05 9.5.5.278 1 .55.414.228.825.45 22.779 12.288 40.5 6.95-6.583-3.563-15.025-7.6-18.4-8.75-29.5-11.25 11.1 2.5 29.5 11.25 8.442 4.037 15.025 7.6.872-.248 1.725-.55l1.875-1.275q.953-.647 2-1.25l-3.725.925q-2.05-5.35-4.2-8.7-3.9-6.05-12.95-10.65-.9-.45-3.35.5-2.5.95-3.55.6-.95-.3-2.65-2.75-1.65-2.3-2.9-2.55-.3-.059-.6-.125-2.098-.381-4.275-.6-.312-.023-.625-.05-.684-.066-1.375-.125l-1.4-.075q-.109.004-.225 0-1.325-.048-2.675-.025h-.325l-20.65 3.2-.35.1q-.082.024-.15.05"/><path fill="#99C977" d="M185.325 296.625q1.02-.658 2.125-1.275l-.125.025q-1.047.603-2 1.25M189.475 294.225q-1.043.56-2.025 1.125l39.8-10.25q-7.15.4-16.25 2.2-.459.091-.9.175-1.315.271-2.575.55l-18.05 6.2"/><path fill="none" stroke="#1A344F" stroke-width="2.5" stroke-linecap="round" stroke-linejoin="round" d="M121.5 277.825q-1.971-1.739-2-2.175m5.85 5.35q-2.429-1.927-3.85-3.175m17.9 12.675q-7.352-4.114-14.05-9.5m15.05 10.05q-.5-.272-1-.55m1.825 1q-.411-.222-.825-.45m41.325 7.4q-17.721 5.338-40.5-6.95m40.5 6.95q.598.333 1.175.65m.55-1.2q-.853.302-1.725.55m3.6-1.825l-1.875 1.275M211 287.3q9.1-1.8 16.25-2.2m-17.15 2.375q.441-.084.9-.175m-3.475.725q1.26-.279 2.575-.55m-20.625 6.75l18.05-6.2m-20.2 7.35q1.033-.593 2.15-1.15M179.4 287.6q2.15 3.35 4.2 8.7m-17.15-19.35q9.05 4.6 12.95 10.65m-16.3-10.15q2.45-.95 3.35-.5m-6.9 1.1q1.05.35 3.55-.6m-6.2-2.15q1.7 2.45 2.65 2.75m-5.55-5.3q1.25.25 2.9 2.55m-3.5-2.675q.3.066.6.125m-4.875-.725q2.177.219 4.275.6m-6.275-.775q1.009.068 2 .175m-3.4-.25l1.4.075m-1.625-.075q.116.004.225 0m-2.9-.025q1.35-.023 2.675.025m-23.65 3.175l20.65-3.2m-23 3.9l1.85-.55"/><path fill="none" stroke="#1A344F" stroke-width="2.5" stroke-linecap="round" stroke-linejoin="round" d="M181.725 298.45q-6.583-3.563-15.025-7.6-18.4-8.75-29.5-11.25m48.125 17.025q.953-.647 2-1.25"/><path fill="#72AD51" d="M155.85 345.95l.3.05.2-.1.025-.025q-.245.057-.525.075"/><path fill="#99C977" d="M156.375 345.875l-.025.025q.354-.069.65-.2-.286.119-.625.175"/><path fill="#72AD51" d="M155.85 345.95q.28-.018.525-.075 5.697-2.862 11.775-9.675 12.45-13.9 14.6-34.45l-1.525-2.15q-.237.073-.475.15-5.006 6.774-12.35 15.35-1.841 2.149-3.65 4.2-4.168 13.14-13.35 25.95l4.45.7"/><path fill="#99C977" d="M152.85 345.6q1.803.429 3 .35l-4.45-.7q9.182-12.81 13.35-25.95-14.039 15.835-26.35 25.4 12.311-9.565 26.35-25.4.369-1.177.7-2.35 2.05-7.15 2.05-11.55l10.825-4.85q-10.466 3.7-21.375 11-26.6 17.8-29.75 44.4l4.75-.65q5.9-1.05 11.6-3.1 1-.35 2.35-3.35 1.4-3 2.5-3.55 1.1-.5 4.45.3M157 345.7l.3-.15q10.8-6.85 17.15-17 7.184-11.512 8.3-26.8-2.15 20.55-14.6 34.45-6.078 6.813-11.775 9.675.339-.056.625-.175M182.75 301.75q.099-1.311.15-2.65-.834.234-1.675.5l1.525 2.15"/><path fill="#72AD51" d="M181.225 299.6l-.175-.25q-.151.197-.3.4.238-.077.475-.15"/><path fill="#72AD51" d="M181.05 299.35l-2.65 1.175-.075.025-10.825 4.85q0 4.4-2.05 11.55-.331 1.173-.7 2.35 1.809-2.051 3.65-4.2 7.344-8.576 12.35-15.35.149-.203.3-.4"/><path fill="none" stroke="#1A344F" stroke-width="2.5" stroke-linecap="round" stroke-linejoin="round" d="M157.3 345.55l-.3.15m17.45-17.15q-6.35 10.15-17.15 17m25.45-43.8q-1.116 15.288-8.3 26.8m8.45-29.45q-.051 1.339-.15 2.65m-1.525-2.15q.841-.266 1.675-.5m-1.85.25l.65-.9m-3.375 2.1l.075-.025m-21.45 11.025q10.909-7.3 21.375-11m-51.125 55.4q3.15-26.6 29.75-44.4m-25 43.75l-4.75.65m16.35-3.75q-5.7 2.05-11.6 3.1m13.95-6.45q-1.35 3-2.35 3.35m4.85-6.9q-1.1.55-2.5 3.55m6.95-3.25q-3.35-.8-4.45-.3m7.45.65q-1.197.079-3-.35M156.375 345.875q-.245.057-.525.075M157 345.7q-.286.119-.625.175M181.225 299.6q-.237.073-.475.15-5.006 6.774-12.35 15.35-1.841 2.149-3.65 4.2M164.75 319.3q-14.039 15.835-26.35 25.4M181.05 299.35q-.151.197-.3.4M271.65 418.5H100.3M555 418.5h9.15M462.6 418.5h81.75M278.15 418.5H456.8"/><g style="display:none"><g transform="translate(365.3 246.65)"><animateTransform attributeName="transform" additive="replace" type="translate" repeatCount="indefinite" dur="1.125s" keyTimes="0;0.222;0.278;0.333;0.389;0.444;0.5;0.556;0.611;0.667;0.722;1" values="365.3,246.65;365.3,246.65;410.05,255;454.8,263.35;499.55,271.75;544.3,280.1;589.05,288.45;633.8,296.8;678.55,305.2;723.3,313.55;768.05,321.9;768.05,321.9" calcMode="discrete"/><animateTransform attributeName="transform" additive="sum" type="rotate" repeatCount="indefinite" dur="1.125s" keyTimes="0;0.222;0.278;0.333;0.389;0.444;0.5;0.556;0.611;0.667;0.722;1" values="0,0,0;0,0,0;-14.562,0,0;-29.332,0,0;-44.115,0,0;-58.899,0,0;-73.484,0,0;-88.236,0,0;-102.794,0,0;-117.563,0,0;-132.29,0,0;-132.29,0,0" calcMode="discrete"/><animateTransform attributeName="transform" additive="sum" type="scale" repeatCount="indefinite" dur="1.125s" keyTimes="0;0.222;0.278;0.333;0.444;0.5;0.556;0.611;0.667;0.722;1" values="1,1;1,1;0.998,0.998;0.997,0.997;0.997,0.997;0.998,0.998;1,1;0.999,0.999;0.997,0.997;0.998,0.998;0.998,0.998" calcMode="discrete"/><path fill="#99C977" fill-opacity=".369" stroke="#1A344F" stroke-opacity=".369" stroke-width="2.5" stroke-linecap="round" stroke-linejoin="round" d="M18.75-.95l-8.3-14.65L-18.7 1l8.3 14.6L18.75-.95"/></g><animate attributeName="display" repeatCount="indefinite" dur="1.125s" keyTimes="0;0.222;0.778;1" values="none;inline;none;none"/></g><g><g transform="translate(371.8 251.65)"><animateTransform attributeName="transform" additive="replace" type="translate" repeatCount="indefinite" dur="1.125s" keyTimes="0;0.056;0.111;0.167;0.222;0.278;0.333;0.389;0.444;0.5;0.556;0.611;1" values="371.8,251.65;405.05,266.45;438.35,281.25;471.6,296.05;504.85,310.85;538.15,325.65;571.4,340.45;604.75,355.25;637.95,370.05;671.2,384.85;704.5,399.7;737.75,414.45;737.75,414.45" calcMode="discrete"/><animateTransform attributeName="transform" additive="sum" type="rotate" repeatCount="indefinite" dur="1.125s" keyTimes="0;0.056;0.111;0.167;0.222;0.278;0.333;0.389;0.444;0.5;0.556;0.611;1" values="0,0,0;13.563,0,0;27.333,0,0;41.113,0,0;54.899,0,0;68.677,0,0;82.439,0,0;95.809,0,0;109.568,0,0;123.343,0,0;137.128,0,0;150.821,0,0;150.821,0,0" calcMode="discrete"/><animateTransform attributeName="transform" additive="sum" type="scale" repeatCount="indefinite" dur="1.125s" keyTimes="0;0.056;0.111;0.222;0.278;0.333;0.389;0.444;0.5;0.556;0.611;1" values="1,1;0.999,0.999;0.997,0.997;0.997,0.997;0.998,0.998;0.999,0.999;0.999,0.999;0.998,0.998;0.997,0.997;0.997,0.997;0.999,0.999;0.999,0.999" calcMode="discrete"/><path fill="#99C977" stroke-width="2.5" stroke-linecap="round" stroke-linejoin="round" d="M-18.45-14.8l17.6 38.5 19.3-8.8L.85-23.65l-19.3 8.85"/><path fill="#F2F9FE" stroke-width="2.5" stroke-linecap="round" stroke-linejoin="round" d="M-3.65-14.35l-4.7 2.1q.4 1.4-.1 2.7Q-9-8.2-10.25-7.5l8.9 19.5q1.35-.5 2.7 0 1.35.45 2.1 1.65L8.1 11.5q-.4-1.35.15-2.65.55-1.35 1.8-2.05l-8.9-19.5q-1.35.5-2.7 0-1.35-.45-2.1-1.65"/><path fill="none" stroke="#1A344F" stroke-width="2.5" stroke-linecap="round" stroke-linejoin="round" d="M-18.45-14.8l17.6 38.5 19.3-8.8L.85-23.65l-19.3 8.85"/><path fill="none" stroke="#1A344F" stroke-width="2.5" stroke-linecap="round" stroke-linejoin="round" d="M-3.65-14.35l-4.7 2.1q.4 1.4-.1 2.7Q-9-8.2-10.25-7.5l8.9 19.5q1.35-.5 2.7 0 1.35.45 2.1 1.65L8.1 11.5q-.4-1.35.15-2.65.55-1.35 1.8-2.05l-8.9-19.5q-1.35.5-2.7 0-1.35-.45-2.1-1.65"/></g><animate attributeName="display" repeatCount="indefinite" dur="1.125s" keyTimes="0;0.667;1" values="inline;none;none"/></g><g style="display:none"><g transform="translate(276.3 239.3)"><animateTransform attributeName="transform" additive="replace" type="translate" repeatCount="indefinite" dur="1.125s" keyTimes="0;0.333;0.389;0.444;0.5;0.556;0.611;0.667;0.722;0.778;0.833;0.889;0.944;1" values="276.3,239.3;276.3,239.3;313.75,254;351.2,268.7;388.65,283.4;426.1,298.1;463.55,312.8;501,327.55;538.4,342.25;575.85,356.95;613.3,371.65;650.75,386.35;688.2,401.05;725.65,415.75" calcMode="discrete"/><animateTransform attributeName="transform" additive="sum" type="rotate" repeatCount="indefinite" dur="1.125s" keyTimes="0;0.333;0.389;0.444;0.5;0.556;0.611;0.667;0.722;0.778;0.833;0.889;0.944;1" values="0,0,0;0,0,0;2.808,0,0;5.804,0,0;8.802,0,0;11.801,0,0;14.801,0,0;17.801,0,0;20.802,0,0;23.804,0,0;26.807,0,0;29.811,0,0;32.814,0,0;35.768,0,0" calcMode="discrete"/><animateTransform attributeName="transform" additive="sum" type="scale" repeatCount="indefinite" dur="1.125s" keyTimes="0;0.389;0.444;0.556;0.611;0.778;0.833;0.944;1" values="1,1;1,1;0.999,0.999;0.999,0.999;0.998,0.998;0.998,0.998;0.997,0.997;0.997,0.997;0.998,0.998" calcMode="discrete"/><path fill="#99C977" stroke-width="2.5" stroke-linecap="round" stroke-linejoin="round" d="M23.7-.15l-9.65-18.9-37.7 19.3L-14 19.1 23.7-.15"/><path fill="#F2F9FE" stroke-width="2.5" stroke-linecap="round" stroke-linejoin="round" d="M11.9-1.85q.4-1.35 1.55-2.2L11.1-8.6q-1.3.5-2.65 0-1.35-.45-2.1-1.7L-12.8-.55q.6 1.35.2 2.75-.4 1.35-1.6 2.15l2.35 4.55q1.35-.5 2.7 0t2.1 1.7L12.05.85q-.55-1.3-.15-2.7"/><path fill="none" stroke="#1A344F" stroke-width="2.5" stroke-linecap="round" stroke-linejoin="round" d="M23.7-.15l-9.65-18.9-37.7 19.3L-14 19.1 23.7-.15"/><path fill="none" stroke="#1A344F" stroke-width="2.5" stroke-linecap="round" stroke-linejoin="round" d="M11.9-1.85q.4-1.35 1.55-2.2L11.1-8.6q-1.3.5-2.65 0-1.35-.45-2.1-1.7L-12.8-.55q.6 1.35.2 2.75-.4 1.35-1.6 2.15l2.35 4.55q1.35-.5 2.7 0t2.1 1.7L12.05.85q-.55-1.3-.15-2.7"/></g><animate attributeName="display" repeatCount="indefinite" dur="1.125s" keyTimes="0;0.333;1" values="none;inline;inline"/></g><path fill="#43566B" d="M364.801 117.4l1.8-4.05-6.35-2.65-1.7 3.95q-.55 1.3-.05 2.65.5 1.3 1.8 1.85t2.65.05q1.3-.5 1.85-1.8"/><path fill="none" stroke="#1A344F" stroke-width="2.5" stroke-linecap="round" stroke-linejoin="round" d="M364.801 117.4q-.55 1.3-1.85 1.8-1.35.5-2.65-.05-1.3-.55-1.8-1.85-.5-1.35.05-2.65l1.7-3.95m4.55 6.7l1.8-4.05"/><path fill="#43566B" d="M378.5 125.15l-2.5-6.05-6.45-7.55-19.75-1.25-11.75 4.8 1.6 7.2 10.05 15.9 14.1 1.4q14.264-4.275 14.7-14.45"/><path fill="#43566B" d="M367.301 116.8q-2.066 1.756-4.5 1.975 4.727.642 7.45 4.625 1.7 2.45 2.1 4.95l2.35-4.75q2.05-5.15.4-7.3-1.5-2-3.7-2.25l-1.9.1q-.7 1.4-2.2 2.65"/><path fill="none" stroke="#1A344F" stroke-width="2.5" stroke-linecap="round" stroke-linejoin="round" d="M372.351 128.35q-.4-2.5-2.1-4.95m4.45.2l-2.35 4.75m2.75-12.05q1.65 2.15-.4 7.3m-3.3-9.55q2.2.25 3.7 2.25m-5.6-2.15l1.9-.1m-4.1 2.75q1.5-1.25 2.2-2.65m-6.7 4.625q2.434-.219 4.5-1.975m-4.5 1.975q-1.117.093-2.3-.125m9.75 4.75q-2.723-3.983-7.45-4.625"/><path fill="#43566B" d="M351.301 105.9q-1.9.65-5 4.45l-2.75 3.65 5.45-.8q5.075.161 8.825 3.3-1.441-1.887-1.575-4.5-.1-1.95.45-3.45-.4-1-1.25-1.8-1.75-1.65-4.15-.85"/><path fill="none" stroke="#1A344F" stroke-width="2.5" stroke-linecap="round" stroke-linejoin="round" d="M346.301 110.35q3.1-3.8 5-4.45m-7.75 8.1l2.75-3.65m2.7 2.85l-5.45.8m14.275 2.5q-3.75-3.139-8.825-3.3m8.825 3.3q.702.941 1.725 1.7m-3.3-6.2q.134 2.613 1.575 4.5m-1.125-7.95q-.55 1.5-.45 3.45m-.8-5.25q.85.8 1.25 1.8m-5.4-2.65q2.4-.8 4.15.85"/><path fill="#43566B" d="M336.901 117.85q-1.15 1.7-2.1 3.95l-15.7 39.9q-.65 1.7-1.05 3.55 10.7 4.5 38.75 16.6 1.25-1.9 2.1-3.85l16.8-39.45-38.8-20.7"/><path fill="none" stroke="#1A344F" stroke-width="2.5" stroke-linecap="round" stroke-linejoin="round" d="M336.901 117.85q-1.15 1.7-2.1 3.95l-15.7 39.9q-.65 1.7-1.05 3.55 10.7 4.5 38.75 16.6 1.25-1.9 2.1-3.85l16.8-39.45"/><path fill="#C8A896" stroke="#1A344F" stroke-width="2.5" stroke-linecap="round" stroke-linejoin="round" d="M317.851 164.85q-.55 3.05-.35 5.6l-35.35 23.9q-1.7 1.15-2.05 3.15-.4 2 .75 3.7 1.1 1.7 3.15 2.1 2.05.35 3.65-.75l32.95-22.3q3.65 6 10.2 8.7 6.9 2.8 13.95.8l38.9 69.25q1.15 2.05 3.4 2.45 1.75.3 3.3-.55 1.75-1 2.3-2.95.6-2-.4-3.75l-38.9-69.2q1.8-1.55 3.2-3.6l-38.7-16.55"/><path fill="#9A7254" stroke="#1A344F" stroke-width="2.5" stroke-linecap="round" stroke-linejoin="round" d="M386.251 81.45q.45-2.3 2.3-9.85 1.45-5.85 1.7-8.9.65-9.05-7.9-10.6-9.95-1.85-18.35 3.9-8.35 5.75-10.25 15.75-1.85 10 3.95 18.35 5.75 8.4 15.75 10.25 8.6 1.6 10.45-3.55 1.25-3.35 2.35-15.35"/><path fill="#EBB192" stroke="#1A344F" stroke-width="2.5" stroke-linecap="round" stroke-linejoin="round" d="M389.451 75.7q-3.35-6.65-10.4-9l-4.05-1.35q-6.3-2.1-12.25.55-5.75 2.55-8.8 8.5-.8 1.6-1.4 3.85l-3.25 9.85q-2.35 7.1 1 13.8 3.35 6.7 10.45 9.05l2.35.8q7.15 2.35 13.85-1 6.7-3.35 9.05-10.45l4.55-10.9q2.3-7.1-1.1-13.7"/><path fill="#9A7254" d="M389.751 73.95q0 4.65-.4 8.05-.45 4.25-4.65 10.3l-4.1 5.2 5.4 2.8 9.45-6 2.75-4.15q3-4.75 4.45-7.6 1.45-2.85-4-7.45l-5.8-4.05q-2.8-.05-3.1 2.9"/><path fill="none" stroke="#1A344F" stroke-width="2.5" stroke-linecap="round" stroke-linejoin="round" d="M398.651 75.1q5.45 4.6 4 7.45-1.45 2.85-4.45 7.6l-2.75 4.15m3.2-19.2l-5.8-4.05q-2.8-.05-3.1 2.9 0 4.65-.4 8.05-.45 4.25-4.65 10.3l-4.1 5.2 5.4 2.8"/><path fill="#9A7254" d="M365.301 60.8l1.05 2.15q1.45 2.6 3.55 4.85 6.65 7.25 16.95 8.55 10.3 1.25 15.85-3.2 2.8-2.25 3.55-4.75-1.15-3.05-4.15-6.45-6.05-6.8-15.3-8.4-7.95-.2-13 1.2l-3.45 1.45-5.05 4.6"/><path fill="none" stroke="#1A344F" stroke-width="2.5" stroke-linecap="round" stroke-linejoin="round" d="M373.801 54.75l-3.45 1.45m3.45-1.45q5.05-1.4 13-1.2 9.25 1.6 15.3 8.4 3 3.4 4.15 6.45-.75 2.5-3.55 4.75-5.55 4.45-15.85 3.2-10.3-1.3-16.95-8.55-2.1-2.25-3.55-4.85l-1.05-2.15"/><path fill="#EBB192" d="M394.851 94q-1.95-2.35-5.8-1.2l-5.8 9.85q1.75 1 2.9 1.3.7.2 2.2.4 2.65.5 4.9-1.05 2.2-1.55 2.7-4.2.6-3.05-1.1-5.1"/><path fill="none" stroke="#1A344F" stroke-width="2.5" stroke-linecap="round" stroke-linejoin="round" d="M386.151 103.95q-1.15-.3-2.9-1.3m2.9 1.3q.7.2 2.2.4 2.65.5 4.9-1.05 2.2-1.55 2.7-4.2.6-3.05-1.1-5.1-1.95-2.35-5.8-1.2M359.551 78.65l-1.25 3.05"/><path fill="#F7E7CD" stroke="#1A344F" stroke-width="2.5" stroke-linecap="round" stroke-linejoin="round" d="M359.151 175.45q.85.45 1.8.15l22.85-7.45q1.4-.45 2.1-1.75.65-1.25.2-2.65l-2.6-7.95-26.45 15.5.9 2.75q.3.95 1.2 1.4"/><path fill="#F4C36D" stroke="#1A344F" stroke-width="2.5" stroke-linecap="round" stroke-linejoin="round" d="M349.651 148.55l6 23.2 24-7.8q2.8-.9 4-2.75 1.1-1.7.45-3.65l-5.9-18.25q-.6-1.85-2.35-2.7-1.75-.9-3.6-.3l-19.55 6.3q-1.85.6-2.75 2.35-.9 1.75-.3 3.6"/><path fill="none" stroke="#1A344F" stroke-width="2.5" stroke-linecap="round" stroke-linejoin="round" d="M352.901 145.55l7.1 21.85"/><path fill="#E95B52" stroke="#1A344F" stroke-width="2.5" stroke-linecap="round" stroke-linejoin="round" d="M372.501 175.8l-1.95-5.95-5.35 1.75 1.95 5.9 2.25-2.05 3.1.35"/><path fill="#EBB192" stroke="#1A344F" stroke-width="2.5" stroke-linecap="round" stroke-linejoin="round" d="M371.751 160.15q1.6-1.4 1.7-3.5.15-2.15-1.25-3.7-1.4-1.6-3.5-1.75-2.1-.1-3.7 1.3-1.6 1.35-1.75 3.5-.1 2.1 1.3 3.7 1.4 1.6 3.5 1.7 2.1.15 3.7-1.25M344.901 77.2q1.55-1.4 1.7-3.55.1-2.1-1.25-3.7-1.45-1.6-3.55-1.7-2.1-.15-3.65 1.25-1.6 1.4-1.75 3.5-.15 2.15 1.25 3.7 1.4 1.6 3.55 1.75 2.1.1 3.7-1.25"/><path fill="#43566B" d="M375.701 117.45l-.7 12.25 13.35 15.35-20.2 6.25 3.2 9.35 24.35-9.45q1.35-.3 2.35-1.3t1.35-2.35q.35-1.4-.1-2.7-.45-1.35-1.55-2.25l-22.05-25.15"/><path fill="none" stroke="#1A344F" stroke-width="2.5" stroke-linecap="round" stroke-linejoin="round" d="M399.301 144.85q-.45-1.35-1.55-2.25l-22.05-25.15m23.6 27.4q.45 1.3.1 2.7-.35 1.35-1.35 2.35t-2.35 1.3l-24.35 9.45-3.2-9.35 20.2-6.25-13.35-15.35M372.401 149.95l2.5 9.15"/><path fill="#E55A3E" stroke="#1A344F" stroke-width="2.5" stroke-linecap="round" stroke-linejoin="round" d="M363.351 120.1q.3-.65.05-1.3t-.9-.9l-3.65-1.6q-.65-.3-1.35-.05-.65.25-.9.9l.3 4.2 3.2 1.35 3.25-2.6"/><path fill="#C6B190" stroke="#1A344F" stroke-width="2.5" stroke-linecap="round" stroke-linejoin="round" d="M358.451 182.15l1.85-4.8-42-16.2-1.8 4.75 41.95 16.25"/><path fill="#F4C36D" stroke="#1A344F" stroke-width="2.5" stroke-linecap="round" stroke-linejoin="round" d="M333.501 173l6.7 2.6 1.85-4.8-6.75-2.6-1.8 4.8"/><path fill="none" stroke="#1A344F" stroke-width="2.5" stroke-linecap="round" stroke-linejoin="round" d="M321.051 157.55l29.15 11.15"/><path fill="#FFF" stroke="#1A344F" stroke-width="2.5" stroke-linecap="round" stroke-linejoin="round" d="M363.751 103.15q2.25-1.15 3.1-3.6l-11.85-3.85q-.8 2.45.4 4.75 1.15 2.25 3.6 3.05 2.45.8 4.75-.35"/><path fill="#43566B" d="M343.601 74.5q-1.65-.45-3.2.35l-36.55 19.75q-1 .5-1.6 1.55-.6.95-.6 2.1 0 1.15.6 2.15.6 1.05 1.6 1.55l32.3 18.9q4.75-2.475 9.5-7.95l-30.95-14.65 29.7-16.05q1.55-.8 2.05-2.5.5-1.65-.35-3.15-.8-1.55-2.5-2.05"/><path fill="none" stroke="#1A344F" stroke-width="2.5" stroke-linecap="round" stroke-linejoin="round" d="M346.451 79.7q-.5 1.7-2.05 2.5l-29.7 16.05 30.95 14.65m.8-33.2q.5-1.65-.35-3.15-.8-1.55-2.5-2.05-1.65-.45-3.2.35l-36.55 19.75q-1 .5-1.6 1.55-.6.95-.6 2.1 0 1.15.6 2.15.6 1.05 1.6 1.55l32.3 18.9"/><path fill="#B4C4C9" stroke="#1A344F" stroke-width="2.5" stroke-linecap="round" stroke-linejoin="round" d="M361.151 80.95q.2-.6-1-2.65l-40.1-10.75-.15 16.4 39.75-1.1.7-.7q.7-.8.8-1.2"/><path fill="#96DDF4" stroke="#1A344F" stroke-width="2.5" stroke-linecap="round" stroke-linejoin="round" d="M325.851 81.9q2.55-2.2 2.75-5.6.25-3.35-2-5.9-2.25-2.55-5.65-2.8-3.4-.2-5.9 2.05-2.55 2.25-2.75 5.6-.2 3.4 2 5.95 2.25 2.55 5.6 2.75 3.4.2 5.95-2.05"/><path fill="#B4C4C9" stroke="#1A344F" stroke-width="2.5" stroke-linecap="round" stroke-linejoin="round" d="M371.501 86.85q.2-.6-1.05-2.65l-35.55-8.6-2 16.25 37.05-3.1.7-.7q.75-.8.85-1.2"/><path fill="#96DDF4" stroke="#1A344F" stroke-width="2.5" stroke-linecap="round" stroke-linejoin="round" d="M329.901 77.7q-2.55 2.25-2.75 5.6-.2 3.4 2 5.95 2.25 2.55 5.6 2.75 3.4.2 5.95-2.05 2.55-2.25 2.75-5.6.2-3.4-2.05-5.9-2.25-2.55-5.6-2.8-3.4-.2-5.9 2.05"/><path fill="#A68F81" d="M300 193.072l-7.467-4.472-5.533 3.399 8.772 3.801 4.228-2.728M372.715 221.306l-9.915-1.056 2.098 3.695 10.902 1.705-3.085-4.344"/><path fill="#99C977" stroke="#1A344F" stroke-width="2.5" stroke-linecap="round" stroke-linejoin="round" d="M174.551 240.25l9.95 1.75q12.45 2.4 25 5.4 40.2 9.6 66.5 21.9 38.95 18.2 79.95 13.4 20.45-2.4 33.15-8.45l81.3-63.2q-11.95 3.85-29.5 7.8-35.1 7.8-63.25 8.05-28.1.3-76.15-26.5-15.05-8.35-30.25-18.45l-12.2-8.4q-2.3 7-8.75 16.15-12.95 18.3-33.9 29.1l-41.85 21.45"/><path fill="#FFF" d="M318.201 224.4q-16.55-6.9-30.85-17.05l-11-8.7q-8.35 3.65-16.35 2.8-2.5-.25-4.7-.9l-1.65-.65q-4.7 5.6-20.95 16.85l-15.25 10.1q.8 1.65.75 4-.1 4.65-4.5 8.2l28 7.85q30.95 9.2 45.8 15.75 21.6 9.5 48.8 11.05 22.15 1.25 33.85-2.55l1.55-2.5q2.55-3.2 7.4-6.4 4.8-3.2 11.35-4.35 3.25-.6 5.55-.55l16.85-13.5q-3.85-6 4.7-11.15 3.208-1.903 6.825-3.175-54.421 16.574-106.175-5.125"/><path fill="#F4C36D" stroke="#1A344F" stroke-width="2.5" stroke-linecap="round" stroke-linejoin="round" d="M328.851 250.85q1.3-4.35-4.2-9.4-5.55-5-14.7-7.8-9.15-2.75-16.5-1.6-7.4 1.1-8.7 5.5-1.3 4.35 4.2 9.4 5.55 5.05 14.65 7.8 9.1 2.75 16.5 1.6t8.75-5.5"/><g transform="translate(384.1 124.7)"><animateTransform attributeName="transform" additive="replace" type="translate" repeatCount="indefinite" dur="1.125s" keyTimes="0;0.056;0.111;0.167;0.222;0.278;0.333;0.389;0.444;0.5;0.556;0.611;0.667;0.722;0.778;0.833;0.889;0.944;1" values="358.651,121.351;358.662,121.387;358.626,121.324;358.597,121.363;358.614,121.352;358.59,121.34;358.62,121.328;358.506,121.381;358.593,121.354;358.543,121.379;358.599,121.365;358.606,121.431;358.62,121.386;358.637,121.347;358.609,121.358;358.593,121.363;358.624,121.377;358.712,121.338;358.651,121.351" calcMode="discrete"/><animateTransform attributeName="transform" additive="sum" type="rotate" repeatCount="indefinite" dur="1.125s" keyTimes="0;0.056;0.111;0.167;0.222;0.278;0.333;0.389;0.444;0.5;0.556;0.611;0.667;0.722;0.778;0.833;0.889;0.944;1" values="0,0,0;-0.77,0,0;-1.54,0,0;-2.31,0,0;-3.268,0,0;-4.039,0,0;-4.809,0,0;-5.767,0,0;-6.538,0,0;-7.475,0,0;-6.539,0,0;-5.767,0,0;-4.809,0,0;-4.039,0,0;-3.267,0,0;-2.31,0,0;-1.54,0,0;-0.77,0,0;0,0,0" calcMode="discrete"/><animateTransform attributeName="transform" additive="sum" type="scale" repeatCount="indefinite" dur="1.125s" keyTimes="0;0.278;0.333;0.444;0.5;0.556;0.667;0.722;1" values="1,1;1,1;0.999,0.999;0.999,0.999;1,1;0.999,0.999;0.999,0.999;1,1;1,1" calcMode="discrete"/><animateTransform attributeName="transform" additive="sum" type="translate" repeatCount="indefinite" dur="1.125s" keyTimes="0;0.056;0.111;0.167;0.222;0.278;0.333;0.389;0.444;0.5;0.556;0.611;0.778;0.833;0.889;0.944;1" values="25.449,3.349;25.449,3.299;25.449,3.349;25.499,3.299;25.449,3.299;25.449,3.349;25.449,3.399;25.549,3.399;25.399,3.449;25.549,3.349;25.499,3.399;25.549,3.399;25.549,3.399;25.499,3.399;25.549,3.449;25.499,3.349;25.449,3.349" calcMode="discrete"/><path fill="#B7413B" d="M14.051-2.7l4.85 7.8-.55 7.1-1.05 1.9 5.9-4.45 3.85-5.3.7-3.65-2.5-4.35-11.2.95"/><path fill="none" stroke="#1A344F" stroke-width="2.5" stroke-linecap="round" stroke-linejoin="round" d="M15.001.15q1.6.8 2.6 2.15 3.25 4.25-.3 11.8M15.001.15l-1.35-.6"/><path fill="#E66C6C" d="M-7.149.35q-6 7-12.05 4.75-2.8-1.1-4.35-3-1.95-2.45-.35-4.8l-3.35-1.15q-.5.75-.95 1.95-.85 2.35-.55 4.4.5 3.2 4 5.35 2.75 1.75 6.8 2.55 4.55.9 10.9-1.55 2.5-.9 11.4-5.4Q11.401-.1 15.501-.9q5.95-1.2 10.25 1.6 2.32 1.537 1.15 4.275 1.822-3.194 1.65-7.675-.05-2 .45-5.6-.1-2.9-3.3-4.15-10.1-3.95-18.65.35Q.901-9-7.149.35M26.901 4.975q-.304.498-.65.975-1.9 2.55-8.95 8.15-1.55 1.25 5.55-4.1 3.109-2.888 4.05-5.025"/><path fill="none" stroke="#1A344F" stroke-width="2.5" stroke-linecap="round" stroke-linejoin="round" d="M-23.6 2.1q-1.765-2.218-.625-4.35m4.975 7.35q-2.8-1.1-4.35-3M-7.2.35q-6 7-12.05 4.75M7-12.1Q.85-9-7.2.35m32.85-12.8Q15.55-16.4 7-12.1m21.95 3.8q-.1-2.9-3.3-4.15M-28.25-1.9q.45-1.2.95-1.95m-1.5 6.35q-.3-2.05.55-4.4m3.45 9.75q-3.5-2.15-4-5.35m10.8 7.9q-4.05-.8-6.8-2.55m17.7 1Q-13.45 11.3-18 10.4M4.3 3.45q-8.9 4.5-11.4 5.4M15.45-.9q-4.1.8-11.15 4.35M25.7.7Q21.4-2.1 15.45-.9M26.85 5Q28 2.25 25.7.7m.5 5.25q.35-.5.65-.95m-9.6 9.1q7.05-5.6 8.95-8.15M22.8 10q-7.1 5.35-5.55 4.1m9.6-9.1q-.95 2.1-4.05 5m5.7-12.7q.15 4.5-1.65 7.7m2.1-13.3q-.5 3.6-.45 5.6"/></g></g></svg>
