<svg xmlns:xlink="http://www.w3.org/1999/xlink" xmlns="http://www.w3.org/2000/svg" baseProfile="basic" width="695" height="488" viewBox="0 0 695 488" preserveAspectRatio="xMinYMin meet"><defs><symbol id="a" overflow="visible"><path fill="#99C977" d="M55.051 33.351q-.55-2.1-1.95-3.75l-85-96.7-15.3 9.7 78.5 89.3-82.25 27 11 19.95q1.75 0 3.35-.65l86.25-34.5q2.05-.85 3.45-2.45 1.45-1.6 1.95-3.7t0-4.2"/><path fill="none" stroke="#1A344F" stroke-width="2.5" stroke-linecap="round" stroke-linejoin="round" d="M55.051 33.351q-.55-2.1-1.95-3.75l-85-96.7-15.3 9.7 78.5 89.3-82.25 27m106-25.55q.5 2.1 0 4.2t-1.95 3.7q-1.4 1.6-3.45 2.45l-86.25 34.5q-1.6.65-3.35.65"/><path fill="#EAB091" stroke="#1A344F" stroke-width="2.5" stroke-linecap="round" stroke-linejoin="round" d="M-31.899-67.099l-7.5-8.55q-2.45-2.8-6.15-3.05t-6.5 2.2q-2.8 2.4-3.05 6.05-.3 3.7 2.15 6.45l5.75 6.6 15.3-9.7"/><path fill="#EFF3F7" stroke="#1A344F" stroke-width="2.5" stroke-linecap="round" stroke-linejoin="round" d="M-22.549-60.149l-6.85-8.9-19.15 14.65 6.85 8.85 19.15-14.6"/></symbol></defs><g overflow="visible"><path fill="#F4F3F2" d="M704.601 404.551v-466.1h-804.65v466.1h804.65"/><path fill="#E0D9BA" d="M750.451 502.151v-132.2h-808.4v132.2h808.4"/><path fill="#D3CAAB" d="M16.301 369.05h-17.7l2.95 120.75h566.3q-173.05-4.2-298.5-24-100.4-15.85-166-40.95-46.85-17.9-71.65-38.65-12.4-10.35-15.4-17.15"/><path fill="none" stroke="#D2D2DA" stroke-width="2.5" stroke-linecap="round" stroke-linejoin="round" d="M599.5 149.3h116.15M599.5 215.7h116.15M599.5 282.05h116.15M-19.7 149.3H96.45M-19.7 282.05H96.45M-19.7 215.7H96.45"/><path fill="#F9CC66" stroke-width="2.5" stroke-linecap="round" stroke-linejoin="round" d="M611.9 272.95q-2.1 0-3.55 1.5-1.5 1.45-1.5 3.55v40.95q0 2.05 1.5 3.55 1.45 1.45 3.55 1.45h24.25q2.1 0 3.6-1.45 1.45-1.5 1.45-3.55V278q0-2.1-1.45-3.55-1.5-1.5-3.6-1.5H611.9"/><path fill="#D85252" stroke-width="2.5" stroke-linecap="round" stroke-linejoin="round" d="M624 282.1q-2.7 0-4.6 1.9-1.95 1.9-1.95 4.6 0 2.7 1.95 4.6 1.9 1.9 4.6 1.9 2.75 0 4.65-1.9 1.95-1.9 1.95-4.6 0-2.7-1.95-4.6-1.9-1.9-4.65-1.9"/><path fill="#E6E6E5" stroke-width="2.5" stroke-linecap="round" stroke-linejoin="round" d="M630.6 308.35q0-2.7-1.95-4.6-1.9-1.9-4.65-1.9-2.7 0-4.6 1.9-1.95 1.9-1.95 4.6 0 2.7 1.95 4.6 1.9 1.9 4.6 1.9 2.75 0 4.65-1.9 1.95-1.9 1.95-4.6"/><path fill="#F9CC66" stroke-width="2.5" stroke-linecap="round" stroke-linejoin="round" d="M87.2 274.05q-1.05-1.1-2.6-1.1H57.7q-1.55 0-2.6 1.1-1.1 1.1-1.1 2.6v43.6q0 1.55 1.1 2.6 1.05 1.1 2.6 1.1h26.9q1.55 0 2.6-1.1 1.1-1.05 1.1-2.6v-43.6q0-1.5-1.1-2.6"/><path fill="#D85252" stroke-width="2.5" stroke-linecap="round" stroke-linejoin="round" d="M71.15 282.1q-2.75 0-4.65 1.9-1.9 1.9-1.9 4.6 0 2.7 1.9 4.6 1.9 1.9 4.65 1.9 2.7 0 4.65-1.9 1.9-1.9 1.9-4.6 0-2.7-1.9-4.6-1.95-1.9-4.65-1.9"/><path fill="#E6E6E5" stroke-width="2.5" stroke-linecap="round" stroke-linejoin="round" d="M75.8 312.95q1.9-1.9 1.9-4.6 0-2.7-1.9-4.6-1.95-1.9-4.65-1.9-2.75 0-4.65 1.9-1.9 1.9-1.9 4.6 0 2.7 1.9 4.6 1.9 1.9 4.65 1.9 2.7 0 4.65-1.9"/><path fill="none" stroke="#1A344F" stroke-width="2.5" stroke-linecap="round" stroke-linejoin="round" d="M611.9 272.95q-2.1 0-3.55 1.5-1.5 1.45-1.5 3.55v40.95q0 2.05 1.5 3.55 1.45 1.45 3.55 1.45h24.25q2.1 0 3.6-1.45 1.45-1.5 1.45-3.55V278q0-2.1-1.45-3.55-1.5-1.5-3.6-1.5H611.9"/><path fill="none" stroke="#1A344F" stroke-width="2.5" stroke-linecap="round" stroke-linejoin="round" d="M624 282.1q-2.7 0-4.6 1.9-1.95 1.9-1.95 4.6 0 2.7 1.95 4.6 1.9 1.9 4.6 1.9 2.75 0 4.65-1.9 1.95-1.9 1.95-4.6 0-2.7-1.95-4.6-1.9-1.9-4.65-1.9M630.6 308.35q0-2.7-1.95-4.6-1.9-1.9-4.65-1.9-2.7 0-4.6 1.9-1.95 1.9-1.95 4.6 0 2.7 1.95 4.6 1.9 1.9 4.6 1.9 2.75 0 4.65-1.9 1.95-1.9 1.95-4.6M87.2 274.05q-1.05-1.1-2.6-1.1H57.7q-1.55 0-2.6 1.1-1.1 1.1-1.1 2.6v43.6q0 1.55 1.1 2.6 1.05 1.1 2.6 1.1h26.9q1.55 0 2.6-1.1 1.1-1.05 1.1-2.6v-43.6q0-1.5-1.1-2.6"/><path fill="none" stroke="#1A344F" stroke-width="2.5" stroke-linecap="round" stroke-linejoin="round" d="M71.15 282.1q-2.75 0-4.65 1.9-1.9 1.9-1.9 4.6 0 2.7 1.9 4.6 1.9 1.9 4.65 1.9 2.7 0 4.65-1.9 1.9-1.9 1.9-4.6 0-2.7-1.9-4.6-1.95-1.9-4.65-1.9M75.8 312.95q1.9-1.9 1.9-4.6 0-2.7-1.9-4.6-1.95-1.9-4.65-1.9-2.75 0-4.65 1.9-1.9 1.9-1.9 4.6 0 2.7 1.9 4.6 1.9 1.9 4.65 1.9 2.7 0 4.65-1.9"/><path fill="#D2D2DA" stroke-width="2.5" stroke-linecap="round" stroke-linejoin="round" d="M581.45 77.75v-29.5H456.1v29.5h125.35"/><path fill="#F6F1EB" stroke-width="2.5" stroke-linecap="round" stroke-linejoin="round" d="M513.6 62.85q0-2.7-1.9-4.6-1.95-1.9-4.65-1.9t-4.6 1.9q-1.9 1.9-1.9 4.6 0 2.65 1.9 4.55t4.6 1.9q2.7 0 4.65-1.9 1.9-1.9 1.9-4.55"/><path fill="#D85252" stroke-width="2.5" stroke-linecap="round" stroke-linejoin="round" d="M525.85 58.25q-1.9 1.9-1.9 4.6 0 2.65 1.9 4.55t4.6 1.9q2.7 0 4.65-1.9 1.9-1.9 1.9-4.55 0-2.7-1.9-4.6-1.95-1.9-4.65-1.9t-4.6 1.9"/><path fill="#F6F1EB" stroke-width="2.5" stroke-linecap="round" stroke-linejoin="round" d="M488.3 67.4q1.9-1.9 1.9-4.55 0-2.7-1.9-4.6-1.95-1.9-4.65-1.9t-4.6 1.9q-1.95 1.9-1.95 4.6 0 2.65 1.95 4.55 1.9 1.9 4.6 1.9 2.7 0 4.65-1.9M553.85 56.35q-2.7 0-4.6 1.9-1.9 1.9-1.9 4.6 0 2.65 1.9 4.55t4.6 1.9q2.75 0 4.65-1.9 1.9-1.9 1.9-4.55 0-2.7-1.9-4.6-1.9-1.9-4.65-1.9"/><path fill="#D2D2DA" stroke-width="2.5" stroke-linecap="round" stroke-linejoin="round" d="M237.85 77.75v-29.5H112.5v29.5h125.35"/><path fill="#D85252" stroke-width="2.5" stroke-linecap="round" stroke-linejoin="round" d="M193.4 62.85q0-2.7-1.9-4.6-1.9-1.9-4.65-1.9-2.7 0-4.6 1.9-1.9 1.9-1.9 4.6 0 2.65 1.9 4.55t4.6 1.9q2.75 0 4.65-1.9 1.9-1.9 1.9-4.55"/><path fill="#F6F1EB" stroke-width="2.5" stroke-linecap="round" stroke-linejoin="round" d="M170 62.85q0-2.7-1.9-4.6-1.95-1.9-4.65-1.9t-4.6 1.9q-1.9 1.9-1.9 4.6 0 2.65 1.9 4.55t4.6 1.9q2.7 0 4.65-1.9 1.9-1.9 1.9-4.55M205.65 58.25q-1.9 1.9-1.9 4.6 0 2.65 1.9 4.55t4.65 1.9q2.7 0 4.6-1.9 1.9-1.9 1.9-4.55 0-2.7-1.9-4.6-1.9-1.9-4.6-1.9-2.75 0-4.65 1.9M144.7 67.4q1.9-1.9 1.9-4.55 0-2.7-1.9-4.6-1.95-1.9-4.65-1.9t-4.6 1.9q-1.9 1.9-1.9 4.6 0 2.65 1.9 4.55t4.6 1.9q2.7 0 4.65-1.9"/><path fill="none" stroke="#1A344F" stroke-width="2.5" stroke-linecap="round" stroke-linejoin="round" d="M581.45 77.75v-29.5H456.1v29.5h125.35"/><path fill="none" stroke="#1A344F" stroke-width="2.5" stroke-linecap="round" stroke-linejoin="round" d="M513.6 62.85q0-2.7-1.9-4.6-1.95-1.9-4.65-1.9t-4.6 1.9q-1.9 1.9-1.9 4.6 0 2.65 1.9 4.55t4.6 1.9q2.7 0 4.65-1.9 1.9-1.9 1.9-4.55M525.85 58.25q-1.9 1.9-1.9 4.6 0 2.65 1.9 4.55t4.6 1.9q2.7 0 4.65-1.9 1.9-1.9 1.9-4.55 0-2.7-1.9-4.6-1.95-1.9-4.65-1.9t-4.6 1.9M488.3 67.4q1.9-1.9 1.9-4.55 0-2.7-1.9-4.6-1.95-1.9-4.65-1.9t-4.6 1.9q-1.95 1.9-1.95 4.6 0 2.65 1.95 4.55 1.9 1.9 4.6 1.9 2.7 0 4.65-1.9M553.85 56.35q-2.7 0-4.6 1.9-1.9 1.9-1.9 4.6 0 2.65 1.9 4.55t4.6 1.9q2.75 0 4.65-1.9 1.9-1.9 1.9-4.55 0-2.7-1.9-4.6-1.9-1.9-4.65-1.9M237.85 77.75v-29.5H112.5v29.5h125.35"/><path fill="none" stroke="#1A344F" stroke-width="2.5" stroke-linecap="round" stroke-linejoin="round" d="M193.4 62.85q0-2.7-1.9-4.6-1.9-1.9-4.65-1.9-2.7 0-4.6 1.9-1.9 1.9-1.9 4.6 0 2.65 1.9 4.55t4.6 1.9q2.75 0 4.65-1.9 1.9-1.9 1.9-4.55M170 62.85q0-2.7-1.9-4.6-1.95-1.9-4.65-1.9t-4.6 1.9q-1.9 1.9-1.9 4.6 0 2.65 1.9 4.55t4.6 1.9q2.7 0 4.65-1.9 1.9-1.9 1.9-4.55M205.65 58.25q-1.9 1.9-1.9 4.6 0 2.65 1.9 4.55t4.65 1.9q2.7 0 4.6-1.9 1.9-1.9 1.9-4.55 0-2.7-1.9-4.6-1.9-1.9-4.6-1.9-2.75 0-4.65 1.9M144.7 67.4q1.9-1.9 1.9-4.55 0-2.7-1.9-4.6-1.95-1.9-4.65-1.9t-4.6 1.9q-1.9 1.9-1.9 4.6 0 2.65 1.9 4.55t4.6 1.9q2.7 0 4.65-1.9"/><path fill="#D2D2DA" stroke="#1A344F" stroke-width="2.5" stroke-linecap="round" stroke-linejoin="round" d="M801.9 369.05V347.8H-221.75v21.25H801.9"/><path fill="#EFF3F7" stroke-width="2.5" stroke-linecap="round" stroke-linejoin="round" d="M596.05 133.95v-46.5h-155.6v46.5h155.6M255.25 133.95v-46.5H99.7v46.5h155.55"/><path fill="none" stroke="#1A344F" stroke-width="2.5" stroke-linecap="round" stroke-linejoin="round" d="M596.05 133.95v-46.5h-155.6v46.5h155.6M255.25 133.95v-46.5H99.7v46.5h155.55"/><path fill="#BCBCBC" stroke="#1A344F" stroke-width="2.5" stroke-linecap="round" stroke-linejoin="round" d="M99.751 368.701h155.5v-234.7h-155.5v234.7"/><path fill="none" stroke="#1A344F" stroke-width="2.5" stroke-linecap="round" stroke-linejoin="round" d="M175.701 134.001v235.1"/><path fill="#BCBCBC" stroke="#1A344F" stroke-width="2.5" stroke-linecap="round" stroke-linejoin="round" d="M596.051 134.001h-155.55v234.7h155.55v-234.7"/><path fill="none" stroke="#1A344F" stroke-width="2.5" stroke-linecap="round" stroke-linejoin="round" d="M516.451 134.001v235.1"/><path fill="#E6E6E5" fill-opacity=".251" d="M255.9 127.1l-1.3-27.05L100.35 253.9l.9 27.45L255.9 127.1M255.9 214.45l-1.3-53.9L101.1 312.6l-.1 54.3 154.9-152.45M597.5 127.3l-1.3-27.05L442.7 252.3l-.85 29.15L597.5 127.3M597.5 214.65l-1.3-53.9L441.7 313.8l-.7 48.45 156.5-147.6"/><path fill="#EFF3F7" stroke="#1A344F" stroke-width="2.5" stroke-linecap="round" stroke-linejoin="round" d="M100.401 363.3v5.8h154.3v-5.8h-154.3M594.801 369.1v-5.8h-154.3v5.8h154.3"/><path fill="#19344F" d="M144.551 100.851v3.4h3.9v20.4h3.8v-20.4h3.95v-3.4h-11.65M169.101 108.201v-1.85q0-2.8-1.3-4.15-1.35-1.35-4.25-1.35h-5.7v23.8h3.75v-9.7h1.3q1.3 0 1.9.7.6.7.6 2.35v3.7q0 2.05.3 2.95h3.85q-.4-1.05-.4-2.9v-3.65q0-4.05-2.5-5.1 2.45-1.1 2.45-4.8m-3.75-1.5v2.35q0 2.5-2.25 2.5h-1.5v-7.3h1.8q1.95 0 1.95 2.45M180.001 100.851h-5.55l-3.85 23.8h3.5l.65-4.35h4.6l.65 4.35h3.85l-3.85-23.8m-4.8 16.25l1.85-12.05 1.8 12.05h-3.65M197.151 106.751q0-5.9-5.6-5.9h-5.95v23.8h5.95q5.6 0 5.6-5.9v-12m-3.75-.2v12.4q0 2.3-1.9 2.3h-2.15v-17h2.15q1.9 0 1.9 2.3M203.351 110.901v-6.65h6.5v-3.4h-10.3v23.8h10.3v-3.4h-6.5v-6.95h5.15v-3.4h-5.15M462.801 99.001q-5.6 0-5.6 6v12.35q0 2.9 1.4 4.4 1.45 1.55 4.2 1.55t4.2-1.55q1.45-1.55 1.45-4.4v-3.15h-3.6v3.4q0 2.3-1.95 2.3t-1.95-2.3v-12.85q0-2.35 1.95-2.35t1.95 2.35v2.55h3.6v-2.3q0-2.9-1.45-4.45-1.45-1.55-4.2-1.55M481.901 105.001q0-2.9-1.5-4.45-1.5-1.55-4.25-1.55t-4.25 1.55q-1.5 1.55-1.5 4.45v12.35q0 2.85 1.5 4.4 1.5 1.55 4.25 1.55t4.25-1.55q1.5-1.55 1.5-4.4v-12.35m-5.75-2.6q1.95 0 1.95 2.35v12.85q0 2.3-1.95 2.3t-1.95-2.3v-12.85q0-2.35 1.95-2.35M495.501 105.151q0-5.9-5.65-5.9h-5.55v23.8h3.8v-8.95h1.75q5.65 0 5.65-5.85v-3.1m-5.65-2.5q1.85 0 1.85 2.25v3.55q0 2.25-1.85 2.25h-1.75v-8.05h1.75M500.901 115.151v7.9h3.75v-7.9l4.75-15.9h-3.6l-2.85 10.85-2.9-10.85h-3.95l4.8 15.9M514.501 99.101v3.4h3.95v20.35h3.75v-20.35h3.95v-3.4h-11.65M533.501 99.101h-5.7v23.75h3.75v-9.65h1.35q1.3 0 1.85.7.6.65.6 2.3v3.75q0 1.85.35 2.9h3.85q-.45-.95-.45-2.85v-3.7q0-4-2.5-5.05 2.5-1.15 2.5-4.85v-1.85q0-5.45-5.6-5.45m-.1 3.4q1.9 0 1.9 2.45v2.3q0 2.55-2.25 2.55h-1.5v-7.3h1.85M544.451 99.101l-3.85 23.75h3.45l.65-4.3h4.65l.65 4.3h3.8l-3.85-23.75h-5.5m4.35 16.2h-3.6l1.8-12 1.8 12M561.501 99.101h-5.95v23.75h5.95q5.65 0 5.65-5.85v-12.05q0-5.85-5.65-5.85m1.85 5.7v12.35q0 2.3-1.9 2.3h-2.15v-16.95h2.15q1.9 0 1.9 2.3M573.301 109.101v-6.6h6.55v-3.4h-10.3v23.75h10.3v-3.4h-6.55v-6.95h5.2v-3.4h-5.2"/><path fill="#969696" fill-opacity=".22" d="M450.7 164.85q-3.2-18.15-3.9-29.95l-5.5.7-.3 231.3 153.55 1.9-1.2-21.05q-46.4-8.15-79.85-43.25-26.75-28.1-44.05-72.05-12.35-31.4-18.75-67.6M106.8 134.9q.7 11.8 3.9 29.95 6.4 36.2 18.75 67.6 17.3 43.95 44.05 72.05 33.45 35.1 79.85 43.25l1.2 21.05L101 366.9l.3-231.3 5.5-.7"/><path fill="none" stroke="#1A344F" stroke-width="2.5" stroke-linecap="round" stroke-linejoin="round" d="M353.501 96.75V114M292.901 129.35l7.45 7.45M415.251 129.35l-10.6 10.55"/><path fill="#99C977" stroke="#1A344F" stroke-width="2.5" stroke-linecap="round" stroke-linejoin="round" d="M310.201 314.851l-9.95-27.15-36.45 153.25 16.25 3 30.15-129.1"/><path fill="#EAB091" stroke="#1A344F" stroke-width="2.5" stroke-linecap="round" stroke-linejoin="round" d="M280.051 443.951l-16.25-3-2.15 9.1q-.65 3.35 1.25 6.15 1.9 2.8 5.25 3.45l1.6.15q2.95 0 5.25-1.85t2.9-4.75l2.15-9.25M358.251 122.851l-11.6-.55q-20.35-.95-35.45 12.6-15.1 13.55-16.1 33.7l.5 18.15q-5.65.7-9.5 4.85-3.95 4.15-4.25 9.9-.3 6.45 4.1 11.25 4.4 4.8 10.9 5.15h1.6q4.3 12.7 14.6 21.45 10.45 8.85 24 11.05h-.25l-.55 11.95q-.2 3.8 2.4 6.65 2.55 2.8 6.4 3 3.85.2 6.7-2.35 2.85-2.55 3.05-6.4l.6-11.6q14.35.15 25.25-7.95 9.95-7.45 16.1-21 6.55.35 11.4-4.05 4.85-4.35 5.15-10.8.25-5.3-2.75-9.65-2.95-4.25-7.9-5.9l2.3-18.4q1-20.15-12.7-35.1-13.65-14.95-34-15.95"/><path fill="#9A7254" stroke="#1A344F" stroke-width="2.5" stroke-linecap="round" stroke-linejoin="round" d="M358.901 118.251q-23.7-3.2-42.65 11.25-18.9 14.5-21.7 38.05l-1.95 16.3q4.15.55 6.65 3.85t1.9 7.35l-.95 6.8q-.45 3.4 1.65 6.1 2.05 2.75 5.5 3.2l77.75 10.7q3.45.45 6.2-1.6 2.75-2.05 3.25-5.45l1.4-10.15q.45-3.5 3.3-6.2 3-2.8 6.25-2.35l2-14.2q3.25-23.15-10.95-41.8-14.25-18.6-37.65-21.85"/><path fill="#99C977" d="M332.751 266.001q-13.55 0-24.25 10.6-10.65 10.6-10.65 23.95v116.15h97.4v-116.15q0-7.45-3.15-14.4l-12.7-14.55q-8.6-5.6-19.05-5.6h-27.6"/><path fill="none" stroke="#1A344F" stroke-width="2.5" stroke-linecap="round" stroke-linejoin="round" d="M332.751 266.001q-13.55 0-24.25 10.6-10.65 10.6-10.65 23.95v116.15h97.4v-116.15q0-7.45-3.15-14.4-8.794-19.395-31.75-20.15h-27.6"/><path fill="#8BB760" d="M299.4 312.325l.3-19.125q-.85 6.5-.45 16.25.063 1.443.15 2.875M334.2 382.15q-18.75-13.6-27.7-36.65-5.928-15.282-7.1-33.175l-1.6 104.325h98.05q.45-4.05.55-8.15.25-8.15-1.2-8.15-37.55-1.15-61-18.2"/><path fill="none" stroke="#1A344F" stroke-width="2.5" stroke-linecap="round" stroke-linejoin="round" d="M332.751 266.001q-13.55 0-24.25 10.6-10.65 10.6-10.65 23.95v116.15h97.4v-116.15q0-7.45-3.15-14.4m-59.35-20.15h27.6q10.45 0 19.05 5.6"/><path fill="#C4DFEA" stroke="#1A344F" stroke-width="2.5" stroke-linecap="round" stroke-linejoin="round" d="M395.901 422.351v-5.65h-98.05v5.65q0 8.8 3.95 16.6 3.75 7.55 10.5 12.85v78.3q0 4 2.65 7 2.75 3 6.7 3.25 4.4.25 7.55-2.7 3.15-2.9 3.15-7.2v-70.8q1.65.15 3.35.15h22.45q1.35 0 2.35.95.95.9.95 2.25v67.1q0 4 2.7 7t6.65 3.25q4.4.25 7.55-2.7 3.15-2.9 3.15-7.2v-78.65q6.75-5.25 10.5-12.85 3.9-7.8 3.9-16.6"/><path fill="#5F5C5B" d="M316.101 472.051q-2.4-2.9-6.15-3.3l-92.55-9.1q-3.8-.35-6.7 2-2.9 2.4-3.3 6.1l-5.05 50.05q-.35 3.75 2.05 6.65 2.4 2.9 6.15 3.25l92.55 9.1q3.8.4 6.7-2 2.95-2.4 3.3-6.1l5.05-50.05q.35-3.7-2.05-6.6"/><path fill="none" stroke="#1A344F" stroke-width="2.5" stroke-linecap="round" stroke-linejoin="round" d="M316.101 472.051q-2.4-2.9-6.15-3.3l-26.1-2.55m32.25 5.85q2.4 2.9 2.05 6.6l-5.05 50.05q-.35 3.7-3.3 6.1-2.9 2.4-6.7 2l-92.55-9.1q-3.75-.35-6.15-3.25-2.4-2.9-2.05-6.65l5.05-50.05q.4-3.7 3.3-6.1 2.9-2.35 6.7-2l26.05 2.55"/><path fill="none" stroke="#1A344F" stroke-width="2.5" stroke-linecap="round" stroke-linejoin="round" d="M282.251 455.901q-2.4-2.9-6.15-3.25l-22.35-2.2q-3.75-.35-6.65 2-2.9 2.35-3.3 6.05l-.35 3.7 40.4 4 .4-3.75q.4-3.7-2-6.55M228.301 462.751l-20.05 16.65M298.851 467.651l17.5 21.15"/><path fill="#EFF3F7" stroke="#1A344F" stroke-width="2.5" stroke-linecap="round" stroke-linejoin="round" d="M327.351 260.651l-9.25 10.7h61.3l-16.1-10.7h-35.95M284.101 444.101l1.45-11.1-24-3.1-1.45 11.1 24 3.1"/><path fill="none" stroke="#1A344F" stroke-width="2.5" stroke-linecap="round" stroke-linejoin="round" d="M299.051 409.851h95.6"/><path fill="#E49F82" d="M291.576 189.026q-4.473 1.097-8.175 8.525-1.895 11.401 4.4 15.775 6.295 4.372 11.35 3.775 6.35 17.85 22.85 27.3 8.25 4.7 15.9 5.25l-.25 9.85 16.45.1.45-8.65 7.7-.6q6.413-1.197 9.5-3.15-47-3.65-68.35-32-6.7-8.9-10-19-1.374-4.204-1.825-7.175"/><use xlink:href="#a" transform="rotate(-16.46 905.464 -1312.106)"><animateTransform attributeName="transform" additive="replace" type="translate" dur="1.625s" keyTimes="0;1" values="0,0;0,0" fill="freeze"/><animateTransform attributeName="transform" additive="sum" type="translate" repeatCount="indefinite" dur="1.625s" keyTimes="0;0.026;0.051;0.077;0.103;0.128;0.154;0.179;0.205;0.231;0.256;0.282;0.308;0.333;0.359;0.385;0.41;0.436;0.462;0.487;0.513;0.538;0.564;0.59;0.615;0.641;0.667;0.692;0.718;0.743;0.744;1" values="383.767,283.436;383.493,283.611;383.344,283.741;383.263,283.857;383.023,284;382.894,284.314;382.611,284.448;382.43,284.546;382.294,284.776;382.098,284.931;381.921,285.1;381.765,285.356;381.555,285.407;381.235,285.716;381.164,285.791;381.018,286.06;380.824,286.121;380.603,286.441;380.72,286.226;381.027,285.963;381.29,285.792;381.38,285.591;381.63,285.404;381.895,285.131;382.04,284.972;382.257,284.82;382.478,284.54;382.652,284.384;382.871,284.088;383.054,283.988;0;0" calcMode="discrete"/><animateTransform attributeName="transform" additive="sum" type="translate" repeatCount="indefinite" dur="1.625s" keyTimes="0;0.744;0.769;0.795;0.821;1" values="0;383.054,283.988;383.264,283.748;383.645,283.562;383.767,283.436;383.767,283.436" calcMode="discrete"/><animateTransform attributeName="transform" additive="sum" type="rotate" repeatCount="indefinite" dur="1.625s" keyTimes="0;0.026;0.051;0.077;0.103;0.128;0.154;0.179;0.205;0.231;0.256;0.282;0.308;0.333;0.359;0.385;0.41;0.436;0.462;0.487;0.513;0.538;0.564;0.59;0.615;0.641;0.667;0.692;0.718;0.743;0.744;1" values="-16.46,0,0;-15.295,0,0;-14.271,0,0;-13.061,0,0;-12.038,0,0;-11.016,0,0;-9.806,0,0;-8.783,0,0;-7.76,0,0;-6.552,0,0;-5.529,0,0;-4.509,0,0;-3.298,0,0;-2.278,0,0;-1.257,0,0;-0.048,0,0;0.785,0,0;1.976,0,0;0.561,0,0;-0.308,0,0;-1.552,0,0;-2.798,0,0;-4.043,0,0;-5.288,0,0;-6.534,0,0;-7.78,0,0;-9.027,0,0;-10.272,0,0;-11.518,0,0;-12.765,0,0;0;0" calcMode="discrete"/><animateTransform attributeName="transform" additive="sum" type="rotate" repeatCount="indefinite" dur="1.625s" keyTimes="0;0.744;0.769;0.795;0.821;1" values="0;-12.765,0,0;-14.011,0,0;-15.07,0,0;-16.46,0,0;-16.46,0,0" calcMode="discrete"/><animateTransform attributeName="transform" additive="sum" type="scale" repeatCount="indefinite" dur="1.625s" keyTimes="0;0.026;0.051;0.077;0.282;0.308;0.564;0.59;0.743;0.744;1" values="0.999,0.999;0.998,0.998;0.998,0.998;0.999,0.999;0.999,0.999;1,1;1,1;0.999,0.999;0.999,0.999;1;1" calcMode="discrete"/><animateTransform attributeName="transform" additive="sum" type="scale" repeatCount="indefinite" dur="1.625s" keyTimes="0;0.744;0.769;0.795;0.821;1" values="1;0.999,0.999;0.998,0.998;0.998,0.998;0.999,0.999;0.999,0.999" calcMode="discrete"/><animateTransform attributeName="transform" additive="sum" type="translate" repeatCount="indefinite" dur="1.625s" keyTimes="0;0.026;0.051;0.077;0.103;0.128;0.154;0.179;0.205;0.231;0.256;0.282;0.308;0.333;0.359;0.385;0.41;0.436;0.462;0.487;0.513;0.538;0.564;0.59;0.615;0.641;0.667;0.692;0.718;0.743;0.744;1" values="46.649,-70.7;46.649,-70.6;46.649,-70.65;46.549,-70.65;46.599,-70.65;46.649,-70.65;46.599,-70.7;46.599,-70.55;46.599,-70.65;46.649,-70.65;46.599,-70.6;46.649,-70.65;46.549,-70.55;46.699,-70.7;46.599,-70.65;46.549,-70.7;46.549,-70.6;46.549,-70.6;46.599,-70.65;46.549,-70.6;46.549,-70.65;46.599,-70.75;46.599,-70.7;46.599,-70.6;46.599,-70.65;46.549,-70.7;46.549,-70.65;46.599,-70.55;46.649,-70.6;46.599,-70.65;0;0" calcMode="discrete"/><animateTransform attributeName="transform" additive="sum" type="translate" repeatCount="indefinite" dur="1.625s" keyTimes="0;0.744;0.769;0.795;0.821;1" values="0;46.599,-70.65;46.549,-70.55;46.499,-70.6;46.649,-70.7;46.649,-70.7" calcMode="discrete"/></use></g></svg>