<svg xmlns:xlink="http://www.w3.org/1999/xlink" xmlns="http://www.w3.org/2000/svg" image-rendering="optimizeQuality" baseProfile="basic" width="695" height="393" viewBox="0 0 695 393" preserveAspectRatio="xMinYMin meet"><defs><symbol id="a" overflow="visible"><path fill="#FFF" d="M43.2-71.4q3.45-.65 3.7-1.1-15.2-10.2-30.85-4.95-4.9 1.6-9.25 4.6-2.15 1.5-3.35 2.65-2.3 1.6-1.6 4.55.65 2.75 3.3 5.05 2.8 2.35 5.95 2.6 3.65.25 6.25-2.65 5.5-6 17.9-9.05 2.1-.55 7.95-1.7"/><path fill="#EEEDEB" d="M40.948-74.555q-4.35-3.299-14.699-3.497-5.2-.049-9.499.502l-3.649 6.25q1.55 1.05 3.25 1.899 3.4 1.75 4.25.849 2.149-3.5 11.448-5.101 4.649-.801 8.899-.902"/></symbol><symbol id="b" overflow="visible"><path fill="none" stroke="#1A344F" stroke-width="2.5" stroke-linecap="round" stroke-linejoin="round" d="M35.301-69.649q2.1-.55 7.95-1.7 3.45-.65 3.7-1.1-15.2-10.2-30.85-4.95-4.9 1.6-9.25 4.6-2.15 1.5-3.35 2.65-2.3 1.6-1.6 4.55.65 2.75 3.3 5.05 2.8 2.35 5.95 2.6 3.65.25 6.25-2.65 5.5-6 17.9-9.05"/></symbol><symbol id="c" overflow="visible"><path fill="#908A7D" d="M16.55-32.35l7-7V-64.7q-12.6-7.4-26.9-11.35Q-17.7-80-28.05-82.4q-10.4-2.4-16.2 19.25-1.45 5.3-2.6 8.4 4.75 2.15 7.45 3.7.15-.55.4-1.1 1.3-3.1 3.85.1.9 1.15.55 3.8-.4 3.1-.05 4.15.25.65.95 4.05.45 2.35 1.55 3.9.3.4 3.4 3.6 2.9 3.25 2.95 4.3 3.1 1.05 6.75 2.45l6.9.05q1 .2 1.6.65 2.4-.35 2.4 2.35 0 .2-.4.95-.45.75-.45 1.15L-7.85-16q0 1.95-.3 3.25-.05.3-.15.6.45.55.45 1.5 0 .75-.5 1.5L-8-9.2q.3 1.1.8 2.2l.4.7q1.5 2.6 4 4.25l.5.3Q.6 0 4.05 0h12.5v-32.35"/><path fill="none" stroke="#1A344F" stroke-width="2.5" stroke-linecap="round" stroke-linejoin="round" d="M16.55-.15V-32.5l7-7v-25.35Q11.45-71.9-1.6-77.55M16.55-.15H4.05Q.6-.15-2.3-1.9q-2.85-1.7-4.5-4.55-1.65-2.85-1.65-6.2v-12.8h-6q-8.3 0-14.15-5.85t-5.85-14.15v-6.05"/><path fill="#868174" d="M-34.124-81.374l-1.349 2.7q-1.3 3.3-1.249 6.3.252 9.649 14.351 12.745l1.549-2.6q-4.249-.899-8.05-3.748-7.6-5.697-5.252-15.397"/><path fill="none" stroke="#1A344F" stroke-width="2.5" stroke-linecap="round" stroke-linejoin="round" d="M-34.55-81.1q-1.75 5.65.95 10.9 2.75 5.25 8.4 7l2.25.75m-11.6-18.65l24.15 7.65"/><path fill="#FFF" d="M24.619-86.635q9.047-6.901 9.047-7.801-18.198-2.046-29.645 9.755-5.748 5.95-7.847 12.25-1.299 2.5.701 4.8 1.801 2.099 5.25 2.898 3.55.849 6.45-.401 3.349-1.451 4.348-5.2 2.098-7.9 11.696-16.301"/><path fill="none" stroke="#1A344F" stroke-width="2.5" stroke-linecap="round" stroke-linejoin="round" d="M24.619-86.635q9.047-6.901 9.047-7.801-18.198-2.046-29.645 9.755-5.748 5.95-7.847 12.25-1.299 2.5.701 4.8 1.801 2.099 5.25 2.898 3.55.849 6.45-.401 3.349-1.451 4.348-5.2 2.098-7.9 11.696-16.301"/><path fill="#FFF" d="M15.377-47.987q0-2.3-1.6-3.9-1.601-1.649-3.9-1.649-3.45.001-4.949 3.101-1.599 3.2.901 6.499 3.25 2.499 6.5.899 3.049-1.551 3.048-4.95"/><path fill="none" stroke="#1A344F" stroke-width="2.5" stroke-linecap="round" stroke-linejoin="round" d="M15.377-47.987q0-2.3-1.6-3.9-1.601-1.649-3.9-1.649-3.45.001-4.949 3.101-1.599 3.2.901 6.499 3.25 2.499 6.5.899 3.049-1.551 3.048-4.95M6.127-52.085l-11.15-10.297"/></symbol><symbol id="t" overflow="visible"><use xlink:href="#a"/><use xlink:href="#b"/><use xlink:href="#c"/></symbol><symbol id="d" overflow="visible"><path fill="#908A7D" d="M6.701-45.299v-9.65l-28 6.35q0 8.55 6.05 14.6 6.05 6.05 14.65 6.05h5.3l-5.3 28h15.65l6.15-33.45q.85-4.65-2.15-8.25-3-3.65-7.75-3.65h-4.6"/></symbol><symbol id="e" overflow="visible"><path fill="none" stroke="#1A344F" stroke-width="2.5" stroke-linecap="round" stroke-linejoin="round" d="M19.051-41.649q3 3.6 2.15 8.25L15.051.051H-.599l5.3-28h-5.3q-8.6 0-14.65-6.05-6.05-6.05-6.05-14.6m40.35 6.95q-3-3.65-7.75-3.65h-4.6v-9.65"/></symbol><symbol id="s" overflow="visible"><use xlink:href="#d"/><use xlink:href="#e"/></symbol><symbol id="f" overflow="visible"><path fill="#908A7D" d="M138.2-46q-57-17.3-77.85 10.9-17.7 23.95-40.6 36.4Q8.3 7.5.35 8.9v6.35q3.3 28.35 28 23l1.55 2.2q2.25 2.6 5.7 4.8 11.2 7 30.75 7h60l4.35.3q5.35.05 10.15-.95 15.4-3.3 19.85-16.3.65-4.9 5-14.45 3.8-8.5 5.65-18.95.25-1.35.45-2.7l1.65 2.75 2.7-5.5 14.9-19.55Q166.7-37.35 138.2-46"/><path fill="#676459" d="M103.25 35.45q-7.897-2.933-18.55-8.5l-.65 3.3q-.4 4.05.9 7.65 4.25 11.55 24.2 14.6 0 1.1 1.55-8.25.447-5.867-7.45-8.8"/><path fill="#868174" d="M132.75 1.35q0 4.55 1.6 8.75 5.15 13.4 24.7 17.75l7.05-17.8q-9.619 4.084-14.725-2.8Q146.269.366 133.1-2.4l-.35 3.75"/></symbol><symbol id="g" overflow="visible"><path fill="#868174" d="M16.251 9.701l-.8-4.75-15.05 4-.35 33.775q3.202-5.544 8.675-5.425 8.571.194 8.425-16.6-.1-5.25-.9-11"/></symbol><symbol id="h" overflow="visible"><path fill="none" stroke="#1A344F" stroke-width="2.5" stroke-linecap="round" stroke-linejoin="round" d="M191.101-23.049q-24.35-14.25-52.85-22.9-57-17.3-77.85 10.9-17.7 23.95-40.6 36.4-11.45 6.2-19.4 7.6M126.401 52.301l4.35.3q5.35.05 10.15-.95 15.4-3.3 19.85-16.3l10.8-32.55m-45.15 49.5h-60q-19.55 0-30.75-7-3.45-2.2-5.7-4.8l-1.55-2.2"/></symbol><symbol id="r" overflow="visible"><use xlink:href="#f"/><use xlink:href="#g"/><use xlink:href="#h"/></symbol><symbol id="i" overflow="visible"><path fill="#99C977" d="M.051-29.949l-14.3 15.5h7.75v14.5h13.1v-14.5h7.75l-14.3-15.5"/></symbol><symbol id="j" overflow="visible"><path fill="none" stroke="#1A344F" stroke-width="2.5" stroke-linecap="round" stroke-linejoin="round" d="M.051-29.949l-14.3 15.5h7.75v14.5h13.1v-14.5h7.75l-14.3-15.5"/></symbol><symbol id="q" overflow="visible"><use xlink:href="#i"/><use xlink:href="#j"/></symbol><symbol id="k" overflow="visible"><path fill="#99C977" d="M15.651-75.049h-31.15v75.1h31.15v-75.1"/></symbol><symbol id="l" overflow="visible"><path fill="#8BB465" d="M-6.999-72.849h-8.5v72.9h8.5v-72.9"/></symbol><symbol id="m" overflow="visible"><path fill="none" stroke="#1A344F" stroke-width="2.5" stroke-linecap="round" stroke-linejoin="round" d="M15.651-74.049h-31.15v74.1h31.15v-74.1"/></symbol><symbol id="n" overflow="visible"><path fill="none" stroke="#1A344F" stroke-width="2.5" stroke-linecap="round" stroke-linejoin="round" d="M15.651-74.049v-25.4h-31.15v25.4h31.15"/></symbol><symbol id="o" overflow="visible"><path fill="#C1D5BB" d="M-6.999-74.299v-24.55h-8.5v24.55h8.5"/></symbol><symbol id="p" overflow="visible"><use xlink:href="#k"/><use xlink:href="#l"/><use xlink:href="#m"/><use xlink:href="#n"/><use xlink:href="#o"/><use xlink:href="#n"/></symbol></defs><g overflow="visible"><path fill="#FFF" d="M.051.051v393.65h697.05V.051H.051"/><path fill="#D8D8D8" d="M203.001 215.701v135.95h57.05v-135.95h-57.05"/><path fill="none" stroke="#AEB5BC" stroke-width="2.5" stroke-linecap="round" stroke-linejoin="round" d="M203.001 215.701v135.95h57.05v-135.95h-57.05"/><path fill="#D8D8D8" d="M218.501 225.051h-3.5v10.3h3.5v-10.3"/><path fill="none" stroke="#AEB5BC" stroke-width="2.5" stroke-linecap="round" stroke-linejoin="round" d="M218.501 225.051h-3.5v10.3h3.5v-10.3"/><path fill="#D8D8D8" d="M225.901 225.051h-3.5v10.3h3.5v-10.3"/><path fill="none" stroke="#AEB5BC" stroke-width="2.5" stroke-linecap="round" stroke-linejoin="round" d="M225.901 225.051h-3.5v10.3h3.5v-10.3"/><path fill="#D8D8D8" d="M233.301 225.051h-3.55v10.3h3.55v-10.3"/><path fill="none" stroke="#AEB5BC" stroke-width="2.5" stroke-linecap="round" stroke-linejoin="round" d="M233.301 225.051h-3.55v10.3h3.55v-10.3"/><path fill="#D8D8D8" d="M240.651 225.051h-3.5v10.3h3.5v-10.3"/><path fill="none" stroke="#AEB5BC" stroke-width="2.5" stroke-linecap="round" stroke-linejoin="round" d="M240.651 225.051h-3.5v10.3h3.5v-10.3"/><path fill="#D8D8D8" d="M218.501 250.351v-10.3h-3.5v10.3h3.5"/><path fill="none" stroke="#AEB5BC" stroke-width="2.5" stroke-linecap="round" stroke-linejoin="round" d="M218.501 250.351v-10.3h-3.5v10.3h3.5"/><path fill="#D8D8D8" d="M225.901 250.351v-10.3h-3.5v10.3h3.5"/><path fill="none" stroke="#AEB5BC" stroke-width="2.5" stroke-linecap="round" stroke-linejoin="round" d="M225.901 250.351v-10.3h-3.5v10.3h3.5"/><path fill="#D8D8D8" d="M233.301 250.351v-10.3h-3.55v10.3h3.55"/><path fill="none" stroke="#AEB5BC" stroke-width="2.5" stroke-linecap="round" stroke-linejoin="round" d="M233.301 250.351v-10.3h-3.55v10.3h3.55"/><path fill="#D8D8D8" d="M240.651 250.351v-10.3h-3.5v10.3h3.5"/><path fill="none" stroke="#AEB5BC" stroke-width="2.5" stroke-linecap="round" stroke-linejoin="round" d="M240.651 250.351v-10.3h-3.5v10.3h3.5"/><path fill="#D8D8D8" d="M218.501 265.301v-10.3h-3.5v10.3h3.5"/><path fill="none" stroke="#AEB5BC" stroke-width="2.5" stroke-linecap="round" stroke-linejoin="round" d="M218.501 265.301v-10.3h-3.5v10.3h3.5"/><path fill="#D8D8D8" d="M225.901 265.301v-10.3h-3.5v10.3h3.5"/><path fill="none" stroke="#AEB5BC" stroke-width="2.5" stroke-linecap="round" stroke-linejoin="round" d="M225.901 265.301v-10.3h-3.5v10.3h3.5"/><path fill="#D8D8D8" d="M233.301 265.301v-10.3h-3.55v10.3h3.55"/><path fill="none" stroke="#AEB5BC" stroke-width="2.5" stroke-linecap="round" stroke-linejoin="round" d="M233.301 265.301v-10.3h-3.55v10.3h3.55"/><path fill="#D8D8D8" d="M240.651 265.301v-10.3h-3.5v10.3h3.5"/><path fill="none" stroke="#AEB5BC" stroke-width="2.5" stroke-linecap="round" stroke-linejoin="round" d="M240.651 265.301v-10.3h-3.5v10.3h3.5"/><path fill="#D8D8D8" d="M218.501 280.301v-10.3h-3.5v10.3h3.5"/><path fill="none" stroke="#AEB5BC" stroke-width="2.5" stroke-linecap="round" stroke-linejoin="round" d="M218.501 280.301v-10.3h-3.5v10.3h3.5"/><path fill="#D8D8D8" d="M225.901 280.301v-10.3h-3.5v10.3h3.5"/><path fill="none" stroke="#AEB5BC" stroke-width="2.5" stroke-linecap="round" stroke-linejoin="round" d="M225.901 280.301v-10.3h-3.5v10.3h3.5"/><path fill="#D8D8D8" d="M233.301 280.301v-10.3h-3.55v10.3h3.55"/><path fill="none" stroke="#AEB5BC" stroke-width="2.5" stroke-linecap="round" stroke-linejoin="round" d="M233.301 280.301v-10.3h-3.55v10.3h3.55"/><path fill="#D8D8D8" d="M240.651 280.301v-10.3h-3.5v10.3h3.5"/><path fill="none" stroke="#AEB5BC" stroke-width="2.5" stroke-linecap="round" stroke-linejoin="round" d="M240.651 280.301v-10.3h-3.5v10.3h3.5"/><path fill="#D8D8D8" d="M218.501 295.251v-10.25h-3.5v10.25h3.5"/><path fill="none" stroke="#AEB5BC" stroke-width="2.5" stroke-linecap="round" stroke-linejoin="round" d="M218.501 295.251v-10.25h-3.5v10.25h3.5"/><path fill="#D8D8D8" d="M225.901 295.251v-10.25h-3.5v10.25h3.5"/><path fill="none" stroke="#AEB5BC" stroke-width="2.5" stroke-linecap="round" stroke-linejoin="round" d="M225.901 295.251v-10.25h-3.5v10.25h3.5"/><path fill="#D8D8D8" d="M233.301 295.251v-10.25h-3.55v10.25h3.55"/><path fill="none" stroke="#AEB5BC" stroke-width="2.5" stroke-linecap="round" stroke-linejoin="round" d="M233.301 295.251v-10.25h-3.55v10.25h3.55"/><path fill="#D8D8D8" d="M240.651 295.251v-10.25h-3.5v10.25h3.5"/><path fill="none" stroke="#AEB5BC" stroke-width="2.5" stroke-linecap="round" stroke-linejoin="round" d="M240.651 295.251v-10.25h-3.5v10.25h3.5"/><path fill="#D8D8D8" d="M218.501 310.251v-10.3h-3.5v10.3h3.5"/><path fill="none" stroke="#AEB5BC" stroke-width="2.5" stroke-linecap="round" stroke-linejoin="round" d="M218.501 310.251v-10.3h-3.5v10.3h3.5"/><path fill="#D8D8D8" d="M225.901 310.251v-10.3h-3.5v10.3h3.5"/><path fill="none" stroke="#AEB5BC" stroke-width="2.5" stroke-linecap="round" stroke-linejoin="round" d="M225.901 310.251v-10.3h-3.5v10.3h3.5"/><path fill="#D8D8D8" d="M233.301 310.251v-10.3h-3.55v10.3h3.55"/><path fill="none" stroke="#AEB5BC" stroke-width="2.5" stroke-linecap="round" stroke-linejoin="round" d="M233.301 310.251v-10.3h-3.55v10.3h3.55"/><path fill="#D8D8D8" d="M240.651 310.251v-10.3h-3.5v10.3h3.5"/><path fill="none" stroke="#AEB5BC" stroke-width="2.5" stroke-linecap="round" stroke-linejoin="round" d="M240.651 310.251v-10.3h-3.5v10.3h3.5"/><path fill="#D8D8D8" d="M218.501 325.201v-10.25h-3.5v10.25h3.5"/><path fill="none" stroke="#AEB5BC" stroke-width="2.5" stroke-linecap="round" stroke-linejoin="round" d="M218.501 325.201v-10.25h-3.5v10.25h3.5"/><path fill="#D8D8D8" d="M225.901 325.201v-10.25h-3.5v10.25h3.5"/><path fill="none" stroke="#AEB5BC" stroke-width="2.5" stroke-linecap="round" stroke-linejoin="round" d="M225.901 325.201v-10.25h-3.5v10.25h3.5"/><path fill="#D8D8D8" d="M233.301 325.201v-10.25h-3.55v10.25h3.55"/><path fill="none" stroke="#AEB5BC" stroke-width="2.5" stroke-linecap="round" stroke-linejoin="round" d="M233.301 325.201v-10.25h-3.55v10.25h3.55"/><path fill="#D8D8D8" d="M240.651 325.201v-10.25h-3.5v10.25h3.5"/><path fill="none" stroke="#AEB5BC" stroke-width="2.5" stroke-linecap="round" stroke-linejoin="round" d="M240.651 325.201v-10.25h-3.5v10.25h3.5"/><path fill="#D8D8D8" d="M237.101 351.151v-16.3h-11.2v16.3h11.2"/><path fill="none" stroke="#AEB5BC" stroke-width="2.5" stroke-linecap="round" stroke-linejoin="round" d="M237.101 351.151v-16.3h-11.2v16.3h11.2"/><path fill="#D8D8D8" d="M232.451 176.501h-1.8l-.6 20.25h2.7l-.3-20.25"/><path fill="none" stroke="#AEB5BC" stroke-width="2.5" stroke-linecap="round" stroke-linejoin="round" d="M232.451 176.501h-1.8l-.6 20.25h2.7l-.3-20.25"/><path fill="#D8D8D8" d="M245.051 203.951q-6-4.6-13.5-4.6t-13.5 4.6q-5.9 4.55-8.2 11.75h43.35q-2.3-7.2-8.15-11.75"/><path fill="none" stroke="#AEB5BC" stroke-width="2.5" stroke-linecap="round" stroke-linejoin="round" d="M245.051 203.951q-6-4.6-13.5-4.6t-13.5 4.6q-5.9 4.55-8.2 11.75h43.35q-2.3-7.2-8.15-11.75"/><path fill="#D8D8D8" d="M234.751 194.551q-1.05-1.05-2.5-1.05h-1.4q-1.5 0-2.55 1.05-1.05 1.05-1.05 2.5v6.9q0 1.5 1.05 2.55 1.05 1.05 2.55 1.05h1.4q1.45 0 2.5-1.05t1.05-2.55v-6.9q0-1.45-1.05-2.5"/><path fill="none" stroke="#AEB5BC" stroke-width="2.5" stroke-linecap="round" stroke-linejoin="round" d="M234.751 194.551q-1.05-1.05-2.5-1.05h-1.4q-1.5 0-2.55 1.05-1.05 1.05-1.05 2.5v6.9q0 1.5 1.05 2.55 1.05 1.05 2.55 1.05h1.4q1.45 0 2.5-1.05t1.05-2.55v-6.9q0-1.45-1.05-2.5"/><path fill="#E0E2E1" d="M184.001 96.101l-30.8-13.2-30.75 13.2v256.1h61.55v-256.1"/><path fill="none" stroke="#AEB5BC" stroke-width="2.5" stroke-linecap="round" stroke-linejoin="round" d="M184.001 96.101l-30.8-13.2-30.75 13.2v256.1h61.55v-256.1"/><path fill="#E0E2E1" d="M213.651 115.901h-29.65v236.3h29.65v-236.3"/><path fill="none" stroke="#AEB5BC" stroke-width="2.5" stroke-linecap="round" stroke-linejoin="round" d="M213.651 115.901h-29.65v236.3h29.65v-236.3"/><path fill="#E0E2E1" d="M169.701 143.351v-9.9h-34.1v9.9h34.1"/><path fill="none" stroke="#AEB5BC" stroke-width="2.5" stroke-linecap="round" stroke-linejoin="round" d="M169.701 143.351v-9.9h-34.1v9.9h34.1"/><path fill="#E0E2E1" d="M135.601 153.251v9.9h34.1v-9.9h-34.1"/><path fill="none" stroke="#AEB5BC" stroke-width="2.5" stroke-linecap="round" stroke-linejoin="round" d="M135.601 153.251v9.9h34.1v-9.9h-34.1"/><path fill="#E0E2E1" d="M169.701 123.551v-9.85h-34.1v9.85h34.1"/><path fill="none" stroke="#AEB5BC" stroke-width="2.5" stroke-linecap="round" stroke-linejoin="round" d="M169.701 123.551v-9.85h-34.1v9.85h34.1"/><path fill="#E0E2E1" d="M135.601 173.051v9.9h34.1v-9.9h-34.1"/><path fill="none" stroke="#AEB5BC" stroke-width="2.5" stroke-linecap="round" stroke-linejoin="round" d="M135.601 173.051v9.9h34.1v-9.9h-34.1"/><path fill="#E0E2E1" d="M135.601 192.801v9.9h34.1v-9.9h-34.1"/><path fill="none" stroke="#AEB5BC" stroke-width="2.5" stroke-linecap="round" stroke-linejoin="round" d="M135.601 192.801v9.9h34.1v-9.9h-34.1"/><path fill="#E0E2E1" d="M135.601 212.601v9.9h34.1v-9.9h-34.1"/><path fill="none" stroke="#AEB5BC" stroke-width="2.5" stroke-linecap="round" stroke-linejoin="round" d="M135.601 212.601v9.9h34.1v-9.9h-34.1"/><path fill="#E0E2E1" d="M169.701 232.401h-34.1v9.9h34.1v-9.9"/><path fill="none" stroke="#AEB5BC" stroke-width="2.5" stroke-linecap="round" stroke-linejoin="round" d="M169.701 232.401h-34.1v9.9h34.1v-9.9"/><path fill="#E0E2E1" d="M169.701 262.051v-9.85h-34.1v9.85h34.1"/><path fill="none" stroke="#AEB5BC" stroke-width="2.5" stroke-linecap="round" stroke-linejoin="round" d="M169.701 262.051v-9.85h-34.1v9.85h34.1"/><path fill="#E0E2E1" d="M169.701 281.851v-9.9h-34.1v9.9h34.1"/><path fill="none" stroke="#AEB5BC" stroke-width="2.5" stroke-linecap="round" stroke-linejoin="round" d="M169.701 281.851v-9.9h-34.1v9.9h34.1"/><path fill="#E0E2E1" d="M169.701 301.651v-9.9h-34.1v9.9h34.1"/><path fill="none" stroke="#AEB5BC" stroke-width="2.5" stroke-linecap="round" stroke-linejoin="round" d="M169.701 301.651v-9.9h-34.1v9.9h34.1"/><path fill="#E0E2E1" d="M169.701 321.451v-9.9h-34.1v9.9h34.1"/><path fill="none" stroke="#AEB5BC" stroke-width="2.5" stroke-linecap="round" stroke-linejoin="round" d="M169.701 321.451v-9.9h-34.1v9.9h34.1"/><path fill="#E0E2E1" d="M202.651 133.451h-7.65v12.1h7.65v-12.1"/><path fill="none" stroke="#AEB5BC" stroke-width="2.5" stroke-linecap="round" stroke-linejoin="round" d="M202.651 133.451h-7.65v12.1h7.65v-12.1"/><path fill="#E0E2E1" d="M202.651 165.351v-12.1h-7.65v12.1h7.65"/><path fill="none" stroke="#AEB5BC" stroke-width="2.5" stroke-linecap="round" stroke-linejoin="round" d="M202.651 165.351v-12.1h-7.65v12.1h7.65"/><path fill="#E0E2E1" d="M202.651 173.051h-7.65v12.1h7.65v-12.1"/><path fill="none" stroke="#AEB5BC" stroke-width="2.5" stroke-linecap="round" stroke-linejoin="round" d="M202.651 173.051h-7.65v12.1h7.65v-12.1"/><path fill="#E0E2E1" d="M202.651 204.901v-12.1h-7.65v12.1h7.65"/><path fill="none" stroke="#AEB5BC" stroke-width="2.5" stroke-linecap="round" stroke-linejoin="round" d="M202.651 204.901v-12.1h-7.65v12.1h7.65"/><path fill="#E0E2E1" d="M202.651 224.701v-12.1h-7.65v12.1h7.65"/><path fill="none" stroke="#AEB5BC" stroke-width="2.5" stroke-linecap="round" stroke-linejoin="round" d="M202.651 224.701v-12.1h-7.65v12.1h7.65"/><path fill="#E0E2E1" d="M202.651 232.401h-7.65v12.1h7.65v-12.1"/><path fill="none" stroke="#AEB5BC" stroke-width="2.5" stroke-linecap="round" stroke-linejoin="round" d="M202.651 232.401h-7.65v12.1h7.65v-12.1"/><path fill="#E0E2E1" d="M202.651 264.251v-12.05h-7.65v12.05h7.65"/><path fill="none" stroke="#AEB5BC" stroke-width="2.5" stroke-linecap="round" stroke-linejoin="round" d="M202.651 264.251v-12.05h-7.65v12.05h7.65"/><path fill="#E0E2E1" d="M202.651 271.951h-7.65v12.1h7.65v-12.1"/><path fill="none" stroke="#AEB5BC" stroke-width="2.5" stroke-linecap="round" stroke-linejoin="round" d="M202.651 271.951h-7.65v12.1h7.65v-12.1"/><path fill="#E0E2E1" d="M202.651 303.851v-12.1h-7.65v12.1h7.65"/><path fill="none" stroke="#AEB5BC" stroke-width="2.5" stroke-linecap="round" stroke-linejoin="round" d="M202.651 303.851v-12.1h-7.65v12.1h7.65"/><path fill="#E0E2E1" d="M202.651 323.651v-12.1h-7.65v12.1h7.65"/><path fill="none" stroke="#AEB5BC" stroke-width="2.5" stroke-linecap="round" stroke-linejoin="round" d="M202.651 323.651v-12.1h-7.65v12.1h7.65"/><path fill="#E0E2E1" d="M122.451 115.901h-29.7v236.3h29.7v-236.3"/><path fill="none" stroke="#AEB5BC" stroke-width="2.5" stroke-linecap="round" stroke-linejoin="round" d="M122.451 115.901h-29.7v236.3h29.7v-236.3"/><path fill="#E0E2E1" d="M111.451 133.451h-7.7v12.1h7.7v-12.1"/><path fill="none" stroke="#AEB5BC" stroke-width="2.5" stroke-linecap="round" stroke-linejoin="round" d="M111.451 133.451h-7.7v12.1h7.7v-12.1"/><path fill="#E0E2E1" d="M111.451 165.351v-12.1h-7.7v12.1h7.7"/><path fill="none" stroke="#AEB5BC" stroke-width="2.5" stroke-linecap="round" stroke-linejoin="round" d="M111.451 165.351v-12.1h-7.7v12.1h7.7"/><path fill="#E0E2E1" d="M111.451 173.051h-7.7v12.1h7.7v-12.1"/><path fill="none" stroke="#AEB5BC" stroke-width="2.5" stroke-linecap="round" stroke-linejoin="round" d="M111.451 173.051h-7.7v12.1h7.7v-12.1"/><path fill="#E0E2E1" d="M111.451 204.901v-12.1h-7.7v12.1h7.7"/><path fill="none" stroke="#AEB5BC" stroke-width="2.5" stroke-linecap="round" stroke-linejoin="round" d="M111.451 204.901v-12.1h-7.7v12.1h7.7"/><path fill="#E0E2E1" d="M111.451 224.701v-12.1h-7.7v12.1h7.7"/><path fill="none" stroke="#AEB5BC" stroke-width="2.5" stroke-linecap="round" stroke-linejoin="round" d="M111.451 224.701v-12.1h-7.7v12.1h7.7"/><path fill="#E0E2E1" d="M111.451 232.401h-7.7v12.1h7.7v-12.1"/><path fill="none" stroke="#AEB5BC" stroke-width="2.5" stroke-linecap="round" stroke-linejoin="round" d="M111.451 232.401h-7.7v12.1h7.7v-12.1"/><path fill="#E0E2E1" d="M111.451 264.251v-12.05h-7.7v12.05h7.7"/><path fill="none" stroke="#AEB5BC" stroke-width="2.5" stroke-linecap="round" stroke-linejoin="round" d="M111.451 264.251v-12.05h-7.7v12.05h7.7"/><path fill="#E0E2E1" d="M111.451 271.951h-7.7v12.1h7.7v-12.1"/><path fill="none" stroke="#AEB5BC" stroke-width="2.5" stroke-linecap="round" stroke-linejoin="round" d="M111.451 271.951h-7.7v12.1h7.7v-12.1"/><path fill="#E0E2E1" d="M111.451 303.851v-12.1h-7.7v12.1h7.7"/><path fill="none" stroke="#AEB5BC" stroke-width="2.5" stroke-linecap="round" stroke-linejoin="round" d="M111.451 303.851v-12.1h-7.7v12.1h7.7"/><path fill="#E0E2E1" d="M111.451 323.651v-12.1h-7.7v12.1h7.7"/><path fill="none" stroke="#AEB5BC" stroke-width="2.5" stroke-linecap="round" stroke-linejoin="round" d="M111.451 323.651v-12.1h-7.7v12.1h7.7M220.601 72.601h-4.4"/><path fill="#FFF" stroke="#19344F" stroke-width="2.5" stroke-linecap="round" stroke-linejoin="round" d="M266.651 76.901l9.45-3.6-12.45-10-24.55 3.25q-2 .3-4.15.8-4.3 1-4.95 2.05-.65 1.05.3 4.75.5 1.85 1.1 3.45l35.25-.7"/><path fill="#FFF" d="M290.501 71.101q-1.95-9.6-9.55-15.9-7.7-6.35-17.7-6.35-10.6 0-17.45 4.65-7.3 4.95-9.05 14.35l53.75 3.25"/><path fill="none" stroke="#19344F" stroke-width="2.5" stroke-linecap="round" stroke-linejoin="round" d="M280.951 55.201q7.6 6.3 9.55 15.9m-9.55-15.9q-7.7-6.35-17.7-6.35-10.6 0-17.45 4.65-7.3 4.95-9.05 14.35"/><path fill="#FFF" d="M222.151 77.601l27.5-12.1q-4.8-4.3-11.1-4.3-6.8 0-11.6 4.8t-4.8 11.6"/><path fill="none" stroke="#19344F" stroke-width="2.5" stroke-linecap="round" stroke-linejoin="round" d="M238.551 61.201q6.3 0 11.1 4.3m-11.1-4.3q-6.8 0-11.6 4.8t-4.8 11.6"/><path fill="#FFF" d="M308.251 81.901q0-6.35-4.5-10.85t-10.85-4.5q-4.65 0-8.6 2.65-28.2 1.75-56.4 3.55-3.95-3.45-9.3-3.25-5.25.25-8.9 4.2-3.6 3.95-3.6 9.25 0 1.8 1.3 3.05 1.25 1.25 3.05 1.25h94.8q1.25 0 2.1-.9.9-.85.9-2.1v-2.35"/><path fill="none" stroke="#19344F" stroke-width="2.5" stroke-linecap="round" stroke-linejoin="round" d="M303.751 71.051q4.5 4.5 4.5 10.85v2.35q0 1.25-.9 2.1-.85.9-2.1.9h-94.8q-1.8 0-3.05-1.25-1.3-1.25-1.3-3.05 0-5.3 3.6-9.25 3.65-3.95 8.9-4.2 5.35-.2 9.3 3.25m75.85-1.7q-4.5-4.5-10.85-4.5-4.65 0-8.6 2.65M280.401 60.851q1.1 1.2 2 2.45"/><path fill="#FFF" d="M262.601 53.201l15 5.1q-3-2.3-6.75-3.7-3.95-1.4-8.25-1.4"/><path fill="none" stroke="#19344F" stroke-width="2.5" stroke-linecap="round" stroke-linejoin="round" d="M270.851 54.601q3.75 1.4 6.75 3.7m-6.75-3.7q-3.95-1.4-8.25-1.4"/><path fill="#E7E9EC" d="M226.75 87.15q-11.974-.377-11.4-8.85.3-4.45 3.2-8.9-5.25.25-8.9 4.15-3.6 3.95-3.6 9.25 0 1.8 1.3 3.1 1.25 1.25 3.05 1.25h16.35"/><path fill="none" stroke="#19344F" stroke-width="2.5" stroke-linecap="round" stroke-linejoin="round" d="M370.9 139.8q5.35-.2 9.3 3.25m-9.3-3.25q-5.25.25-8.9 4.2-3.6 3.95-3.6 9.25 0 1.8 1.25 3.1 1.3 1.25 3.05 1.25h94.85q1.25 0 2.1-.9.9-.9.9-2.15v-2.35q0-6.35-4.5-10.85t-10.85-4.5q-4.65 0-8.6 2.65M303.751 71.051q4.5 4.5 4.5 10.85v2.35q0 1.25-.9 2.1-.85.9-2.1.9h-94.8q-1.8 0-3.05-1.25-1.3-1.25-1.3-3.05 0-5.3 3.6-9.25 3.65-3.95 8.9-4.2 5.35-.2 9.3 3.25m75.85-1.7q-4.5-4.5-10.85-4.5-4.65 0-8.6 2.65"/><path fill="none" stroke="#1A344F" stroke-width="2.75" stroke-linecap="round" stroke-linejoin="round" d="M55.151 352.151h586.85"/><path fill="#E0E2E1" d="M585.451 81.551v-29.4h-3.4v29.4h-13v38.4h-7.35v229.4h44.1v-229.4h-7.35v-38.4h-13"/><path fill="none" stroke="#AEB5BC" stroke-width="2.5" stroke-linecap="round" stroke-linejoin="round" d="M585.451 81.551v-29.4h-3.4v29.4h-13v38.4h-7.35v229.4h44.1v-229.4h-7.35v-38.4h-13"/><path fill="#E0E2E1" d="M561.701 125.051v4.5h44.1v-4.5h-44.1M605.801 133.301h-44.1v4.5h44.1v-4.5M605.801 146.051v-4.55h-44.1v4.55h44.1M605.801 154.301v-4.55h-44.1v4.55h44.1M605.801 162.501v-4.5h-44.1v4.5h44.1M605.801 170.751v-4.55h-44.1v4.55h44.1M605.801 179.001v-4.55h-44.1v4.55h44.1M561.701 207.401v4.55h44.1v-4.55h-44.1M561.701 223.901v4.5h44.1v-4.5h-44.1M561.701 215.651v4.5h44.1v-4.5h-44.1M561.701 199.151v4.55h44.1v-4.55h-44.1M561.701 190.951v4.5h44.1v-4.5h-44.1M605.801 232.101h-44.1v4.55h44.1v-4.55M561.701 182.701v4.5h44.1v-4.5h-44.1M605.801 269.601v-4.55h-44.1v4.55h44.1M605.801 277.801v-4.5h-44.1v4.5h44.1M605.801 253.101v-4.5h-44.1v4.5h44.1M605.801 261.351v-4.5h-44.1v4.5h44.1M605.801 244.851v-4.5h-44.1v4.5h44.1M561.701 306.251v4.5h44.1v-4.5h-44.1M561.701 322.701v4.55h44.1v-4.55h-44.1M561.701 289.751v4.55h44.1v-4.55h-44.1M561.701 314.501v4.5h44.1v-4.5h-44.1M561.701 298.001v4.55h44.1v-4.55h-44.1M561.701 281.551v4.5h44.1v-4.5h-44.1M605.801 330.951h-44.1v4.5h44.1v-4.5M605.801 343.701v-4.5h-44.1v4.5h44.1"/><path fill="none" stroke="#AEB5BC" stroke-width="2.5" stroke-linecap="round" stroke-linejoin="round" d="M561.701 125.051v4.5h44.1v-4.5h-44.1M605.801 133.301h-44.1v4.5h44.1v-4.5M605.801 146.051v-4.55h-44.1v4.55h44.1M605.801 154.301v-4.55h-44.1v4.55h44.1M605.801 162.501v-4.5h-44.1v4.5h44.1M605.801 170.751v-4.55h-44.1v4.55h44.1M605.801 179.001v-4.55h-44.1v4.55h44.1M561.701 207.401v4.55h44.1v-4.55h-44.1M561.701 223.901v4.5h44.1v-4.5h-44.1M561.701 215.651v4.5h44.1v-4.5h-44.1M561.701 199.151v4.55h44.1v-4.55h-44.1M561.701 190.951v4.5h44.1v-4.5h-44.1M605.801 232.101h-44.1v4.55h44.1v-4.55M561.701 182.701v4.5h44.1v-4.5h-44.1M605.801 269.601v-4.55h-44.1v4.55h44.1M605.801 277.801v-4.5h-44.1v4.5h44.1M605.801 253.101v-4.5h-44.1v4.5h44.1M605.801 261.351v-4.5h-44.1v4.5h44.1M605.801 244.851v-4.5h-44.1v4.5h44.1M561.701 306.251v4.5h44.1v-4.5h-44.1M561.701 322.701v4.55h44.1v-4.55h-44.1M561.701 289.751v4.55h44.1v-4.55h-44.1M561.701 314.501v4.5h44.1v-4.5h-44.1M561.701 298.001v4.55h44.1v-4.55h-44.1M561.701 281.551v4.5h44.1v-4.5h-44.1M605.801 330.951h-44.1v4.5h44.1v-4.5M605.801 343.701v-4.5h-44.1v4.5h44.1"/><path fill="#99C977" d="M531.951 220.051v131.95h31.15v-131.95h-31.15"/><path fill="#F2F9FD" d="M531.951 168.051v52h31.15v-52h-31.15"/><path fill="#8BB465" d="M542.101 217.901h-10.6v134.1h10.6v-134.1"/><path fill="none" stroke="#1A344F" stroke-width="2.5" stroke-linecap="round" stroke-linejoin="round" d="M531.951 220.051v131.95h31.15v-131.95h-31.15M531.951 168.051v52h31.15v-52h-31.15"/><path fill="#99C977" d="M495.051 103.551v29.7h53.3v-29.7h-53.3"/><path fill="none" stroke="#1A344F" stroke-width="2.5" stroke-linecap="round" stroke-linejoin="round" d="M495.051 103.551v29.7h53.3v-29.7h-53.3"/><path fill="#EDEDED" d="M501.301 114.251v7.35q2.05.25 3.45 1.75 1.4 1.5 1.55 3.55h30.8q.15-2.05 1.55-3.55 1.45-1.55 3.45-1.8v-7.35q-2.05-.25-3.45-1.75-1.4-1.5-1.55-3.55h-30.8q-.15 2.05-1.55 3.6-1.4 1.5-3.45 1.75"/><path fill="none" stroke="#1A344F" stroke-width="2.5" stroke-linecap="round" stroke-linejoin="round" d="M501.301 114.251v7.35q2.05.25 3.45 1.75 1.4 1.5 1.55 3.55h30.8q.15-2.05 1.55-3.55 1.45-1.55 3.45-1.8v-7.35q-2.05-.25-3.45-1.75-1.4-1.5-1.55-3.55h-30.8q-.15 2.05-1.55 3.6-1.4 1.5-3.45 1.75"/><path fill="#F4AF28" d="M526.501 117.901q0-2-1.4-3.4-1.4-1.45-3.4-1.45t-3.45 1.45q-1.4 1.4-1.4 3.4t1.4 3.4q1.45 1.45 3.45 1.45t3.4-1.45q1.4-1.4 1.4-3.4"/><path fill="none" stroke="#1A344F" stroke-width="2.5" stroke-linecap="round" stroke-linejoin="round" d="M526.501 117.901q0-2-1.4-3.4-1.4-1.45-3.4-1.45t-3.45 1.45q-1.4 1.4-1.4 3.4t1.4 3.4q1.45 1.45 3.45 1.45t3.4-1.45q1.4-1.4 1.4-3.4M548.351 99.101v68.9"/><path fill="#C1D5BB" d="M542.101 167.901h-10.6v51.1h10.6v-51.1"/><path fill="none" stroke="#1A344F" stroke-width="2.5" stroke-linecap="round" stroke-linejoin="round" d="M531.951 168.051v52h31.15v-52h-31.15"/><path fill="#FFF" stroke="#19344F" stroke-width="2.5" stroke-linecap="round" stroke-linejoin="round" d="M383.751 147.951l35.25-.7 9.4-3.6-12.45-10-24.55 3.25q-2 .3-4.15.8-4.25 1-4.9 2.05-.65 1.05.3 4.75.5 1.85 1.1 3.45"/><path fill="#FFF" d="M415.551 119.201q-10.55 0-17.4 4.65-7.3 4.95-9.05 14.35 26.85 1.6 53.7 3.25-1.95-9.6-9.55-15.9-7.7-6.35-17.7-6.35"/><path fill="none" stroke="#19344F" stroke-width="2.5" stroke-linecap="round" stroke-linejoin="round" d="M398.151 123.851q6.85-4.65 17.4-4.65 10 0 17.7 6.35 7.6 6.3 9.55 15.9m-44.65-17.6q-7.3 4.95-9.05 14.35"/><path fill="#FFF" d="M379.301 136.351q-4.8 4.8-4.8 11.6l27.45-12.1q-4.7-4.3-11.05-4.3-6.8 0-11.6 4.8"/><path fill="none" stroke="#19344F" stroke-width="2.5" stroke-linecap="round" stroke-linejoin="round" d="M374.501 147.951q0-6.8 4.8-11.6t11.6-4.8q6.35 0 11.05 4.3"/><path fill="#FFF" d="M380.2 143.05q-3.95-3.45-9.3-3.25-5.25.25-8.9 4.2-3.6 3.95-3.6 9.25 0 1.8 1.25 3.1 1.3 1.25 3.05 1.25h94.85q1.25 0 2.1-.9.9-.9.9-2.15v-2.35q0-6.35-4.5-10.85t-10.85-4.5q-4.65 0-8.6 2.65l-56.4 3.55"/><path fill="#DDE0E3" d="M379.1 157.5q-11.974-.378-11.4-8.85.3-4.45 3.2-8.9-5.25.25-8.9 4.15-3.6 3.95-3.6 9.25 0 1.8 1.25 3.1 1.3 1.25 3.05 1.25h16.4"/><path fill="none" stroke="#19344F" stroke-width="2.5" stroke-linecap="round" stroke-linejoin="round" d="M370.951 139.851q5.35-.2 9.3 3.25m-9.3-3.25q-5.25.25-8.9 4.2-3.6 3.95-3.6 9.25 0 1.8 1.25 3.1 1.3 1.25 3.05 1.25h94.85q1.25 0 2.1-.9.9-.9.9-2.15v-2.35q0-6.35-4.5-10.85t-10.85-4.5q-4.65 0-8.6 2.65M432.751 131.201q1.4 1.6 2 2.45"/><path fill="#FFF" d="M429.951 128.651q-3.15-2.35-6.75-3.7-4.05-1.4-8.25-1.4l15 5.1"/><path fill="none" stroke="#19344F" stroke-width="2.5" stroke-linecap="round" stroke-linejoin="round" d="M423.201 124.951q3.6 1.35 6.75 3.7m-6.75-3.7q-4.05-1.4-8.25-1.4"/><path fill="#D8D8D8" d="M248.051 225.051h-3.55v10.3h3.55v-10.3"/><path fill="none" stroke="#AEB5BC" stroke-width="2.5" stroke-linecap="round" stroke-linejoin="round" d="M248.051 225.051h-3.55v10.3h3.55v-10.3"/><path fill="#D8D8D8" d="M248.051 250.351v-10.3h-3.55v10.3h3.55"/><path fill="none" stroke="#AEB5BC" stroke-width="2.5" stroke-linecap="round" stroke-linejoin="round" d="M248.051 250.351v-10.3h-3.55v10.3h3.55"/><path fill="#D8D8D8" d="M248.051 265.301v-10.3h-3.55v10.3h3.55"/><path fill="none" stroke="#AEB5BC" stroke-width="2.5" stroke-linecap="round" stroke-linejoin="round" d="M248.051 265.301v-10.3h-3.55v10.3h3.55"/><path fill="#D8D8D8" d="M248.051 280.301v-10.3h-3.55v10.3h3.55"/><path fill="none" stroke="#AEB5BC" stroke-width="2.5" stroke-linecap="round" stroke-linejoin="round" d="M248.051 280.301v-10.3h-3.55v10.3h3.55"/><path fill="#D8D8D8" d="M248.051 295.251v-10.25h-3.55v10.25h3.55"/><path fill="none" stroke="#AEB5BC" stroke-width="2.5" stroke-linecap="round" stroke-linejoin="round" d="M248.051 295.251v-10.25h-3.55v10.25h3.55"/><path fill="#D8D8D8" d="M248.051 310.251v-10.3h-3.55v10.3h3.55"/><path fill="none" stroke="#AEB5BC" stroke-width="2.5" stroke-linecap="round" stroke-linejoin="round" d="M248.051 310.251v-10.3h-3.55v10.3h3.55"/><path fill="#D8D8D8" d="M248.051 325.201v-10.25h-3.55v10.25h3.55"/><path fill="none" stroke="#AEB5BC" stroke-width="2.5" stroke-linecap="round" stroke-linejoin="round" d="M248.051 325.201v-10.25h-3.55v10.25h3.55"/><path fill="#99C977" d="M455.051 319.851h-31.15v31.15h31.15v-31.15"/><path fill="#84AD5E" d="M432.951 319.851h-9.05v2.85l5.9 28.15 24.65-1.5.6-7.9q-10.9-1.85-17.6-11.9-2.1-3.15-3.5-6.75l-1-2.95"/><path fill="none" stroke="#1A344F" stroke-width="2.5" stroke-linecap="round" stroke-linejoin="round" d="M455.051 319.851h-31.15v31.15h31.15v-31.15"/><path fill="#7B766C" d="M412 351.95h18l-10.9-51.7-17.3 2.7 10.2 49"/><path fill="#676459" d="M423.65 317.15q-.75-2.7-3-4.85-2.71-20.407-5.65-15.25l-13.55 2.6 6.55 33.5q6.65-.6 11.9-7.05 1.65-2 2.95-4.35l1-1.95q.15-1.35-.2-2.65"/><path fill="none" stroke="#1A344F" stroke-width="2.5" stroke-linecap="round" stroke-linejoin="round" d="M430 351.95h-18l-10.45-49.5m28.45 49.5l-10.1-49.15"/><path fill="#7B766C" d="M323.651 265.401q-11.95 5.65-20.9 5.95v32.65h-4.6q-4.7 0-7.75 3.65-3 3.6-2.15 8.25l7.3 35.2h15.7l-6.5-29.75h5.3q8.6 0 14.65-6.05 6.05-6.05 6.05-14.6l32-73.35q-15.2 26.7-39.1 38.05"/><path fill="#676459" d="M302.851 320.651l2.35-11.45-4.15-5.85q-.1 7.1-5.8 13.8-2.85 3.3-5.5 5.9l3.35 16.15q6.15-5.95 9.75-18.55"/><path fill="none" stroke="#1A344F" stroke-width="2.5" stroke-linecap="round" stroke-linejoin="round" d="M323.651 265.401q-11.95 5.65-20.9 5.95v32.65h-4.6q-4.7 0-7.75 3.65-3 3.6-2.15 8.25l7.3 35.2h15.7l-6.5-29.75h5.3q8.6 0 14.65-6.05 6.05-6.05 6.05-14.6m-7.1-35.3q23.9-11.35 39.1-38.05"/><use xlink:href="#p" transform="translate(494.1 351.95)"><animateTransform attributeName="transform" additive="replace" type="translate" repeatCount="indefinite" dur="2.458s" keyTimes="0;0.153;0.17;0.186;0.203;0.22;0.237;0.254;0.271;0.288;0.305;0.322;0.339;0.356;0.373;0.39;0.407;0.424;0.441;0.458;0.475;0.492;1" values="494.6,352.2;494.6,352.2;494.6,352.161;494.6,352.178;494.6,352.184;494.6,352.206;494.6,352.221;494.6,352.185;494.6,352.229;494.6,352.223;494.6,352.23;494.6,352.211;494.6,352.204;494.6,352.198;494.6,352.242;494.6,352.186;494.6,352.236;494.6,352.224;494.6,352.165;494.6,352.215;494.6,352.206;494.6,352.2;494.6,352.2" calcMode="discrete"/><animateTransform attributeName="transform" additive="sum" type="scale" repeatCount="indefinite" dur="2.458s" keyTimes="0;0.153;0.17;0.186;0.203;0.22;0.237;0.254;0.271;0.288;0.305;0.322;0.339;0.356;0.373;0.39;0.407;0.424;0.441;0.458;0.475;0.492;1" values="1,1;1,1;1,1.056;1,1.113;1,1.169;1,1.226;1,1.282;1,1.339;1,1.315;1,1.29;1,1.266;1,1.242;1,1.218;1,1.194;1,1.169;1,1.145;1,1.121;1,1.097;1,1.073;1,1.048;1,1.024;1,1;1,1" calcMode="discrete"/><animateTransform attributeName="transform" additive="sum" type="translate" repeatCount="indefinite" dur="2.458s" keyTimes="0;0.153;0.17;0.186;0.203;0.22;0.288;0.305;0.322;0.39;0.407;0.424;0.441;0.458;0.475;1" values="-0.5,-0.25;-0.5,-0.25;-0.5,-0.2;-0.5,-0.25;-0.5,-0.2;-0.5,-0.25;-0.5,-0.25;-0.5,-0.3;-0.5,-0.25;-0.5,-0.25;-0.5,-0.3;-0.5,-0.25;-0.5,-0.2;-0.5,-0.3;-0.5,-0.25;-0.5,-0.25" calcMode="discrete"/></use><use xlink:href="#q" transform="translate(494.1 223.6)"><animateTransform attributeName="transform" additive="replace" type="translate" repeatCount="indefinite" dur="2.458s" keyTimes="0;0.153;0.17;0.186;0.203;0.22;0.237;0.254;0.271;0.288;0.305;0.322;0.339;0.356;0.373;0.39;0.407;0.424;0.441;0.458;0.475;0.492;1" values="494.1,223.6;494.1,223.6;494.1,217.6;494.1,211.6;494.1,205.6;494.1,199.6;494.1,193.6;494.1,187.6;494.1,190.15;494.1,192.75;494.1,195.3;494.1,197.9;494.1,200.45;494.1,203.05;494.1,205.6;494.1,208.15;494.1,210.75;494.1,213.3;494.1,215.9;494.1,218.45;494.1,221.05;494.1,223.6;494.1,223.6" calcMode="discrete"/></use><g><path fill="none" stroke="#1A344F" stroke-width="2.5" stroke-linecap="round" stroke-linejoin="round" d="M291.751 216.001q4.85 0 8.25 3.45 3.4 3.4 3.4 8.25t-3.4 8.25q-3.4 3.4-8.25 3.4h-22.7q-7 0-12 5-5 4.95-5 12t5 12.05q5 4.95 12 4.95h4m18.7-57.35h-15"/><path fill="#C0B8AA" d="M287.451 220.901q2.3-2.3 2.3-5.55t-2.3-5.55q-2.35-2.3-5.6-2.3-4 0-9.35 2.3-6.1 2.6-6.1 5.55 0 2.95 6.1 5.55 5.35 2.3 9.35 2.3 3.25 0 5.6-2.3"/><path fill="#958E7E" d="M276.251 209.701l-.6-1.05q-9.5 2.1-8.85 6.65.65 4.25 8.85 6.75 6.45 2 10.85-1.75 3.25-2.8 3.25-4.95-7.2.1-11.35-3.3-1.3-1.05-2.15-2.35"/><path fill="none" stroke="#1A344F" stroke-width="2.5" stroke-linecap="round" stroke-linejoin="round" d="M287.451 220.901q2.3-2.3 2.3-5.55t-2.3-5.55q-2.35-2.3-5.6-2.3-4 0-9.35 2.3-6.1 2.6-6.1 5.55 0 2.95 6.1 5.55 5.35 2.3 9.35 2.3 3.25 0 5.6-2.3"/><animate attributeName="display" repeatCount="indefinite" dur="2.458s" keyTimes="0;1" values="inline;inline"/></g><use xlink:href="#r" transform="translate(272.65 265.05)"><animateTransform attributeName="transform" additive="replace" type="translate" repeatCount="indefinite" dur="2.458s" keyTimes="0;0.017;0.034;0.051;0.068;0.085;0.102;0.119;0.136;0.153;0.17;0.186;0.203;0.22;0.237;0.254;0.271;0.288;0.305;0.322;0.339;0.356;0.373;0.39;0.407;0.424;1" values="273.7,274.1;273.701,274.064;273.701,274.128;273.702,274.092;273.702,274.106;273.652,274.07;273.702,274.084;273.701,274.101;273.701,274.115;273.7,274.081;273.702,274.101;273.653,274.12;273.654,274.142;273.703,274.114;273.702,274.14;273.7,274.107;273.7,274.013;273.65,274.117;273.75,274.072;273.7,274.126;273.7,274.031;273.7,274.085;273.7,274.04;273.7,274.094;273.65,274.099;273.7,274.1;273.7,274.1" calcMode="discrete"/><animateTransform attributeName="transform" additive="sum" type="skewY" repeatCount="indefinite" dur="2.458s" keyTimes="0;0.017;0.034;0.051;0.068;0.085;0.102;0.119;0.136;0.153;0.17;0.186;0.203;0.22;0.237;0.254;0.271;0.288;0.305;0.322;0.339;0.356;0.373;0.39;0.407;0.424;1" values="0;0.76;1.519;2.28;3.04;3.8;4.56;5.509;6.27;7.11;5.51;3.804;2.286;0.768;-0.561;-2.321;-2.023;-1.776;-1.53;-1.285;-1.04;-0.794;-0.548;-0.302;-0.057;0;0" calcMode="discrete"/><animateTransform attributeName="transform" additive="sum" type="scale" repeatCount="indefinite" dur="2.458s" keyTimes="0;0.017;0.034;0.051;0.102;0.119;0.136;0.153;0.17;0.186;0.22;0.237;0.254;1" values="1,1;1.001,1;1.001,1;1.002,1;1.002,1;1.001,1;1,1;1,1;1.002,1;1.003,1;1.003,1;1.002,1;1,1;1,1" calcMode="discrete"/><animateTransform attributeName="transform" additive="sum" type="translate" repeatCount="indefinite" dur="2.458s" keyTimes="0;0.034;0.051;0.068;0.085;0.102;0.119;0.136;0.153;0.186;0.203;0.237;0.254;0.271;0.288;0.322;0.339;0.356;0.373;0.39;0.407;0.424;1" values="-1.05,-9.05;-1.05,-9.05;-1.05,-9;-1.05,-9.05;-1.05,-9;-1.05,-9;-1.05,-9.05;-1.05,-9.1;-1.05,-9.05;-1.05,-9.05;-1.05,-9.1;-1.05,-9.1;-1.05,-9.05;-1.05,-9;-1.05,-9.05;-1.05,-9.05;-1.05,-9;-1.05,-9.05;-1.05,-9;-1.05,-9.05;-1.05,-9;-1.05,-9.05;-1.05,-9.05" calcMode="discrete"/></use><g><path fill="#908A7D" d="M281.325 282.325q-4.283-1.953-8.325-8.375v32.7h-4.6q-4.7 0-7.7 3.6-3 3.65-2.15 8.25l6.15 33.45h15.65l-5.35-28h5.35q8.55 0 14.6-6.05 6.05-6.05 6.05-14.6l1.95-4.475q1.121-7.15-.125-8.65-1.236-1.492-2.95-5.75-1.705-4.264-7.975-2.2-6.283 2.057-10.575.1"/><path fill="#868174" d="M288.85 274.7l-1.85 4.6q-7.01-.63-14-5.35l-.35 34.5q-1.05-.45-2.95-.6-3.8-.25-7.95 1.3-5.7 5.65-2.05 24.3 1.85 9.3 4.8 17.5h7.4l.5-1.65q-5.85-19-2.7-28.1 2.25-6.35 12.7-13.55 7.5-5.15 7.35-21.95-.1-5.25-.9-11"/><path fill="none" stroke="#1A344F" stroke-width="2.5" stroke-linecap="round" stroke-linejoin="round" d="M294.95 317.9q6.05-6.05 6.05-14.6m-6.05 14.6q-6.05 6.05-14.6 6.05H275l5.35 28H264.7l-6.15-33.45q-.85-4.6 2.15-8.25 3-3.6 7.7-3.6h4.6v-32.7"/><animate attributeName="display" repeatCount="indefinite" dur="2.458s" keyTimes="0;1" values="inline;inline"/></g><use xlink:href="#s" transform="translate(378.7 337.3)"><animateTransform attributeName="transform" additive="replace" type="translate" repeatCount="indefinite" dur="2.458s" keyTimes="0;0.017;0.034;0.051;0.068;0.085;0.102;0.119;0.136;0.153;0.17;0.186;0.203;0.22;0.237;0.254;0.271;0.288;0.305;0.322;0.339;0.356;0.373;0.39;0.407;0.424;1" values="371.401,287.351;371.492,288.254;371.579,289.136;371.72,290.037;371.857,290.921;371.944,291.855;372.035,292.758;372.172,293.643;372.31,294.53;372.412,295.435;372.086,293.334;371.745,291.251;371.417,289.132;371.125,287.02;370.684,284.966;370.378,282.832;370.491,283.352;370.468,283.822;370.664,284.189;370.758,284.609;370.924,285.115;371.004,285.594;371.085,286.018;371.166,286.52;371.307,286.908;371.401,287.351;371.401,287.351" calcMode="discrete"/><animateTransform attributeName="transform" additive="sum" type="rotate" repeatCount="indefinite" dur="2.458s" keyTimes="0;0.017;0.034;0.051;0.068;0.085;0.102;0.119;0.136;0.153;0.17;0.186;0.203;0.22;0.237;0.254;0.271;0.288;0.305;0.322;0.339;0.356;0.373;0.39;0.407;0.424;1" values="0,0,0;-0.041,0,0;-0.27,0,0;-0.311,0,0;-0.54,0,0;-0.768,0,0;-0.81,0,0;-1.039,0,0;-1.267,0,0;-1.484,0,0;1.053,0,0;3.79,0,0;6.527,0,0;9.266,0,0;11.818,0,0;14.684,0,0;13.063,0,0;11.568,0,0;10.264,0,0;8.77,0,0;7.276,0,0;5.782,0,0;4.291,0,0;2.798,0,0;1.305,0,0;0,0,0;0,0,0" calcMode="discrete"/><animateTransform attributeName="transform" additive="sum" type="scale" repeatCount="indefinite" dur="2.458s" keyTimes="0;0.186;0.203;0.356;0.373;1" values="1,1;1,1;0.999,0.999;0.999,0.999;1,1;1,1" calcMode="discrete"/><animateTransform attributeName="transform" additive="sum" type="translate" repeatCount="indefinite" dur="2.458s" keyTimes="0;0.017;0.034;0.051;0.068;0.085;0.102;0.119;0.136;0.153;0.17;0.186;0.203;0.22;0.237;0.254;0.271;0.288;0.305;0.322;0.339;0.356;0.373;0.39;0.407;0.424;1" values="7.299,49.949;7.299,49.949;7.349,49.949;7.399,49.949;7.299,49.949;7.249,49.949;7.349,49.949;7.349,49.999;7.299,49.949;7.349,49.949;7.349,49.949;7.299,49.949;7.299,49.999;7.349,49.899;7.349,49.899;7.399,49.899;7.349,49.949;7.499,49.899;7.399,49.949;7.399,50.049;7.349,49.949;7.399,49.949;7.349,49.949;7.399,49.899;7.399,49.999;7.299,49.949;7.299,49.949" calcMode="discrete"/></use><use xlink:href="#t" transform="translate(440.15 306.65)"><animateTransform attributeName="transform" additive="replace" type="translate" repeatCount="indefinite" dur="2.458s" keyTimes="0;0.017;0.034;0.051;0.068;0.085;0.102;0.119;0.136;0.153;0.17;0.186;0.203;0.22;0.237;0.254;0.271;0.288;0.305;0.322;0.339;0.356;0.373;0.39;0.407;0.424;1" values="438.501,229.651;439.704,232.595;440.86,235.411;442.071,238.309;443.227,241.184;444.351,244.087;445.581,247.072;446.775,249.868;447.946,252.717;449.138,255.628;446.73,250.186;444.396,244.646;442.035,239.232;439.563,233.754;437.226,228.297;435.002,222.817;435.24,223.479;435.665,224.228;435.994,224.87;436.317,225.51;436.689,226.26;437.081,226.941;437.425,227.621;437.716,228.269;438.141,228.907;438.501,229.651;438.501,229.651" calcMode="discrete"/><animateTransform attributeName="transform" additive="sum" type="rotate" repeatCount="indefinite" dur="2.458s" keyTimes="0;0.017;0.034;0.051;0.068;0.085;0.102;0.119;0.136;0.153;0.17;0.186;0.203;0.22;0.237;0.254;0.271;0.288;0.305;0.322;0.339;0.356;0.373;0.39;0.407;0.424;1" values="0,0,0;1.026,0,0;2.052,0,0;3.265,0,0;4.293,0,0;5.507,0,0;6.534,0,0;7.561,0,0;8.776,0,0;9.94,0,0;5.038,0,0;0.275,0,0;-4.298,0,0;-9.062,0,0;-14.017,0,0;-18.818,0,0;-16.812,0,0;-15.027,0,0;-13.053,0,0;-11.269,0,0;-9.295,0,0;-7.51,0,0;-5.538,0,0;-3.755,0,0;-1.784,0,0;0,0,0;0,0,0" calcMode="discrete"/><animateTransform attributeName="transform" additive="sum" type="scale" repeatCount="indefinite" dur="2.458s" keyTimes="0;0.068;0.085;0.17;0.186;0.203;0.22;0.237;0.254;0.271;0.288;0.305;0.373;0.39;1" values="1,1;1,1;0.999,0.999;0.999,0.999;1,1;1,1;0.999,0.999;0.998,0.998;0.999,0.999;0.998,0.998;0.998,0.998;0.999,0.999;0.999,0.999;1,1;1,1" calcMode="discrete"/><animateTransform attributeName="transform" additive="sum" type="translate" repeatCount="indefinite" dur="2.458s" keyTimes="0;0.017;0.034;0.051;0.068;0.085;0.102;0.119;0.136;0.153;0.17;0.186;0.203;0.22;0.237;0.254;0.271;0.288;0.305;0.322;0.339;0.356;0.373;0.39;0.407;0.424;1" values="1.649,76.999;1.599,76.999;1.599,77.049;1.649,76.949;1.599,76.999;1.749,77.099;1.599,76.949;1.599,76.949;1.699,77.049;1.699,77.049;1.749,76.999;1.699,77.049;1.749,76.999;1.749,76.999;1.799,77.049;1.699,76.899;1.799,76.999;1.649,76.899;1.699,76.899;1.699,76.999;1.699,76.999;1.649,76.899;1.699,76.949;1.799,77.049;1.649,76.949;1.649,76.999;1.649,76.999" calcMode="discrete"/></use></g></svg>