<?xml version="1.0"?>
<svg xmlns="http://www.w3.org/2000/svg" baseProfile="basic" width="695" height="400" viewBox="0 0 695 400" image-rendering="optimizeSpeed" preserveAspectRatio="xMinYMin meet"><g overflow="visible"><path fill="#EDEDED" d="M695.8 417.9V0H0v417.9h695.8"/><path fill="#FFF" d="M670.9 152.2V70.8H76.2v81.4h594.7M670.9 371.7v-81.4H76.2v81.4h594.7M670.9 260.8v-81.4H76.2v81.4h594.7"/><path fill="#1A344F" d="M650 52.8q-.5-.3-1.3-.7-1-.3-1.3-.6-.3-.2-.3-.5 0-.5.9-.5l1 .2 1.1.4.7-1.5q-1.3-.7-2.8-.7-1.4 0-2.3.6-.8.6-.8 1.6 0 .5.2 1 .2.3.6.8l1.4.7 1 .4q.2.1.5.4.1.1.1.4 0 .6-1.1.6-.6 0-1.3-.1l-1.3-.5v1.7q.7.3 1.1.4.4.1 1.4.1 1.7 0 2.5-.6t.8-1.9q0-.6-.2-.9-.1-.4-.6-.8M649 123.4v-2.8h-7v-.2l2.1-1.9q1.8-1.7 2.8-2.9.9-1.1 1.2-2 .4-.9.4-2.1 0-1.3-.6-2.3-.6-1-1.8-1.5-1.1-.6-2.7-.6-1.2 0-2 .2t-1.7.7q-1 .5-2 1.4l1.8 2.2q.8-.7 1.9-1.2.8-.4 1.8-.4.9 0 1.4.4.6.5.6 1.5 0 .6-.3 1.2-.2.6-.8 1.3-.4.7-2.3 2.6l-4.1 4.1v2.3H649M618.9 49.1h-1.7v11.2h2.1v-3.2l-.1-1.1h.1q.8 1 2.2 1 .9 0 1.6-.5.7-.5 1-1.4.4-1 .4-2.1 0-2-.8-3-.8-1.1-2.2-1.1-1.4 0-2.2 1.2h-.1l-.3-1m3.1 2.1q.3.6.3 1.7 0 2.4-1.4 2.4-.8 0-1.2-.6-.4-.5-.4-1.8v-.2q0-1.1.4-1.6t1.2-.5q.7 0 1.1.6M626.1 47.1q0 1 1.2 1 .5 0 .8-.2.3-.3.3-.8 0-1.1-1.1-1.1-1.2 0-1.2 1.1M613.7 49.4q-.9-.5-2-.5-1.8 0-2.8 1.1-1 1.1-1 3 0 1.2.5 2.1.4.9 1.3 1.4.9.5 2 .5 1.7 0 2.8-1.1 1-1.1 1-2.9 0-1.3-.5-2.2-.5-.9-1.3-1.4m-.8 5.3q-.4.6-1.2.6-.8 0-1.2-.6-.4-.6-.4-1.7t.4-1.8q.3-.5 1.2-.5.9 0 1.2.5.4.6.4 1.8 0 1.2-.4 1.7M643.3 48.9q-.7 0-1.3.4-.6.4-1 1.1h-.1l-.3-1.3H639v7.8h2.1v-4q0-.9.5-1.5.6-.5 1.6-.5l.6.1.2-2-.7-.1M628.3 49.1h-2.1v7.8h2.1v-7.8M601.3 47.2q-1.1.7-1.7 1.8-.5 1.3-.5 2.8 0 2.6 1.1 3.8 1.2 1.4 3.4 1.4 1.6 0 2.8-.5v-1.8q-1.6.5-2.6.5-2.5 0-2.5-3.4 0-1.7.6-2.5.7-1 1.9-1 .4 0 1.2.2l1.1.5.7-1.7q-1.4-.7-3-.7-1.4 0-2.5.6M637.2 52.5q0-1.6-.9-2.6t-2.5-1q-1.8 0-2.7 1.1-1 1.1-1 3t1 3q1.1 1 3 1l1.5-.1q.7-.2 1.2-.5v-1.6q-.7.3-1.3.5-.6.1-1.3.1-.9 0-1.4-.5-.5-.4-.6-1.4h5v-1m-2.4-1.6q.4.3.5 1.2h-3q.1-.8.4-1.2.4-.4 1.1-.4.7 0 1 .4M633.3 107.3h-2.8l-5.2 4.2 1.6 2 1.9-1.5q.2-.1 1.2-1.1l-.1 12.5h3.4v-16.1M623.3 109.5v-2.1h-11.6v2.8h8l-6.1 13.2h3.6l6.1-13.9M607.6 123.4v-16.1h-2.8l-5.2 4.2 1.6 2 3-2.6v12.5h3.4M459.2 49l-.7-.1q-.7 0-1.4.4-.7.5-.9 1.1h-.2l-.3-1.3h-1.6v7.8h2.1v-4q0-.9.6-1.5.5-.5 1.6-.5l.6.1.2-2M450.6 49.4q-1-.5-2-.5-1.7 0-2.8 1.1-.9 1-.9 3 0 1.2.4 2.1.4.9 1.3 1.4.9.5 2 .5 1.8 0 2.8-1.1 1-1.1 1-2.9 0-1.3-.5-2.2-.4-.8-1.3-1.4m-.8 1.8q.4.7.4 1.8t-.4 1.7q-.4.6-1.2.6-.8 0-1.2-.6-.4-.5-.4-1.7t.4-1.8q.3-.5 1.2-.5.9 0 1.2.5M408.4 49.1h-2.2v7.8h2.2v-7.8M408.5 47.1q0-1.1-1.2-1.1-1.1 0-1.1 1.1 0 1 1.1 1 .5 0 .9-.2.3-.3.3-.8M419.8 46h-2.1v10.9h2.1v-2.5l.9-.7 2.2 3.2h2.5l-3.3-4.4 3.1-3.4h-2.4l-3.1 3.5.1-6.6M431.9 49.4q0-.5.4-.8.3-.3.9-.3l1 .2 1.4.4.7-1.6q-.5-.3-1.5-.6-.7-.1-1.5-.1-1.6 0-2.6.7-.9.8-.9 2.1 0 .8.3 1.3.2.5.8.9.4.4 1.4.9l1.3.7.5.4q.1.3.1.5 0 .6-.4.8-.3.3-1 .3t-1.3-.2q-.5-.1-1.8-.6v2q1.3.6 2.9.6 1.8 0 2.7-.8 1-.8 1-2.2 0-1-.5-1.6-.6-.8-1.9-1.4-1-.4-1.4-.7l-.4-.4q-.2-.2-.2-.5M443.8 49.5q-1.1-.6-2.4-.6-1.9 0-2.9 1.1t-1 3q0 4 3.7 4 .9 0 1.3-.1l1-.5v-1.8q-.7.4-1 .5l-1.1.2q-1.7 0-1.7-2.3t1.7-2.3q.5 0 .8.1l.9.3.7-1.6M415.3 51.1l.6-1.5q-1.3-.7-2.7-.7-1.4 0-2.3.6-.8.5-.8 1.6 0 .7.2 1 .1.4.6.8.4.3 1.3.7l1 .4q.4.2.6.4.1.1.1.4 0 .6-1.1.6-.6 0-1.3-.1l-1.4-.5v1.7q.7.3 1.1.4.4.1 1.5.1 1.7 0 2.5-.6t.8-1.9q0-.4-.2-.9t-.6-.8q-.7-.4-1.4-.7-1-.4-1.3-.6-.3-.2-.3-.5 0-.5 1-.5.5 0 1 .2l1.1.4M467.3 53.5v-1q0-1.6-.9-2.6-1.1-1-2.6-1-1.8 0-2.7 1.1-1 1-1 3 0 1.9 1.1 3 1.1 1 2.9 1l1.5-.1q.7-.2 1.2-.5v-1.6l-1.3.5q-.6.1-1.3.1-.8 0-1.4-.5-.5-.6-.5-1.4h5m-2-1.4h-3q0-.7.4-1.2.4-.4 1.1-.4.7 0 1.1.4.4.5.4 1.2M400 46.7h-3v10.2h2.2V53h1.1l2.4 3.9h2.4l-3-4.5q1-.3 1.4-1.1.5-.6.5-1.6 0-1.5-1-2.2-.9-.8-3-.8m1.4 2.1q.5.3.5 1t-.5 1.1q-.5.3-1.5.3h-.7v-2.7h.6q1.1 0 1.6.3M325.4 47.1q0-1.1-1.1-1.1-1.2 0-1.2 1.1 0 1 1.2 1 .6 0 .8-.2.3-.3.3-.8M332 48.9q-.8 0-1.4.3-.6.3-1 .9h-.1l-.3-1h-1.6v7.8h2.1v-3.7q0-1.3.4-2 .4-.6 1.3-.6.6 0 .9.5.3.4.3 1.2v4.6h2.1v-5.1q0-1.3-.7-2.1-.6-.8-2-.8M325.3 56.9v-7.8h-2.1v7.8h2.1M396.4 121.6h-2.9v10.2h1.9l-.1-8h.1l2.4 8h2l2.6-8h.1l-.1 8h2v-10.2h-3l-2.5 7.8h-.1l-2.4-7.8"/><path fill="#648BB7" d="M398.5 109.4v2.4h6.9v3.3h3.3v-3.3h1.9v-2.6h-1.9V99.1h-3.1l-7.1 10.3m5.9-4.7q.5-.7 1-1.7h.1l-.1 6.2h-3.9l2.9-4.5"/><path fill="#8CC55D" d="M339.3 107.4h-2.6l-8.9 16h2.6l8.9-16M330.8 108.4q-1.1-1.3-2.9-1.3-3.8 0-3.8 5.1 0 2.5 1 3.7 1 1.3 2.8 1.3 1.9 0 2.9-1.2 1-1.3 1-3.8t-1-3.8m-2.9 1q1.1 0 1.1 2.8 0 2.7-1.1 2.7-.6 0-.8-.6-.2-.8-.2-2.1t.2-2.1q.3-.7.8-.7"/><path fill="#8CC55D" d="M336.4 122.3q.9 1.3 2.8 1.3t2.8-1.2q1-1.3 1-3.8 0-2.4-1-3.7-.9-1.3-2.8-1.3-3.8 0-3.8 5 0 2.4 1 3.7m2.8-6.4q1 0 1 2.7 0 2.8-1 2.8-.5 0-.8-.7-.3-.8-.3-2.1t.3-2.1q.3-.6.8-.6"/><path fill="#1A344F" d="M451.7 121.6h-2.9l-2.5 7.8h-.1l-2.4-7.8h-2.9v10.2h1.9l-.1-8 2.5 8h2l2.6-8-.1 8h2v-10.2"/><path fill="#648BB7" d="M445.2 107.1q0-4-1.4-6.2-1.4-2.1-4.2-2.1-2.9 0-4.3 2-1.3 2.1-1.3 6.3 0 4.1 1.4 6.2 1.4 2.1 4.2 2.1 2.9 0 4.2-2.1 1.4-2 1.4-6.2m-5.6-5.5q1.2 0 1.7 1.3t.5 4.2q0 2.9-.5 4.2-.6 1.3-1.7 1.3-1.3 0-1.7-1.3-.6-1.3-.6-4.2 0-2.9.6-4.2.5-1.3 1.7-1.3M429.6 99.1h-2.8l-5.2 4.1 1.7 2 1.8-1.5q.5-.3 1.2-1.1l-.1 12.5h3.4v-16"/><path fill="#1A344F" d="M432.2 121.6h-2.1v6.6q0 1.8 1 2.7 1.1 1 3.1 1 1.3 0 2.2-.4 1.1-.5 1.5-1.3.5-.8.5-2v-6.6h-2.2v6.3q0 1.2-.4 1.7t-1.6.5q-1.1 0-1.5-.5-.5-.5-.5-1.7v-6.3M427.6 121.6h-2.2v10.2h2.2v-10.2"/><path fill="#648BB7" d="M420.2 99.1h-3.1l-6 16h3.1l6-16"/><path fill="#1A344F" d="M412.8 123.4v-1.8h-5.9v10.2h5.9V130h-3.7v-2.6h3.4v-1.8h-3.4v-2.2h3.7M421.9 123q-1.3-1.4-3.8-1.4h-3.2v10.2h2.9q2.7 0 4.1-1.3 1.4-1.4 1.4-3.9 0-2.4-1.4-3.6m-3.7.4q2.9 0 2.9 3.3T418 130h-1v-6.6h1.2"/><path fill="#648BB7" d="M445 203.9q-1.4-2.1-4.2-2.1-2.9 0-4.3 2-1.3 2-1.3 6.3 0 4.1 1.4 6.1 1.4 2.1 4.2 2.1 2.9 0 4.2-2 1.4-2.1 1.4-6.2t-1.4-6.2m-5.9 1.9q.4-1.3 1.7-1.3 1.2 0 1.7 1.3.5 1.4.5 4.3 0 2.8-.5 4.2-.5 1.3-1.7 1.3-1.3 0-1.7-1.3-.6-1.4-.6-4.2 0-2.9.6-4.3M426.3 206.7l1.2-1.1-.1 12.5h3.4V202H428l-5.2 4.1 1.7 2.1 1.8-1.5M421.4 202h-3.1l-6 16.1h3.1l6-16.1M409.5 202.9q-1.4-1.1-3.7-1.1-2.3 0-3.8 1.1-1.4 1-1.4 2.8 0 1.2.6 2.1.7 1.1 2 1.9-1.6.8-2.4 1.9-.7 1-.7 2.4 0 2.1 1.5 3.2 1.6 1.1 4.2 1.1 2.5 0 4-1.2 1.6-1.2 1.6-3.2 0-1.2-.8-2.3-.8-1-2.6-2 1.5-.7 2.2-1.7.7-1 .7-2.2 0-1.8-1.4-2.8m-2.2 4.3q-.5.5-1.5 1-1.1-.5-1.6-1.1-.4-.5-.4-1.2t.5-1.2q.6-.4 1.4-.4.9 0 1.4.4.6.4.6 1.2 0 .7-.4 1.3m.3 5.3q.6.6.6 1.3 0 1-.6 1.5-.7.5-1.9.5-1.1 0-1.8-.5-.7-.6-.7-1.5 0-1.6 2.4-2.7 1.3.7 2 1.4"/><path fill="#1A344F" d="M424.3 226.9q-2.5 0-3.9 1.4t-1.4 3.8q0 2.5 1.2 3.9 1.3 1.3 3.5 1.3l1.8-.1q.8-.1 1.8-.5v-5.2h-4v1.8h1.9v2.1q-.6.1-1.4.1-1.2 0-1.9-.8-.7-1-.7-2.6 0-1.5.8-2.5.9-.9 2.3-.9 1.1 0 2.3.5l.7-1.7q-1.4-.6-3-.6M406 232.8h4v4.4h2.2V227H410v4h-4v-4h-2.2v10.2h2.2v-4.4M416.9 237.2V227h-2.2v10.2h2.2M435.9 227v4h-4v-4h-2.2v10.2h2.2v-4.4h4v4.4h2.2V227h-2.2"/><path fill="#8CC55D" d="M354.9 220.5q-1-1.3-2.9-1.3-3.8 0-3.8 5.1 0 2.3 1 3.7 1 1.3 2.8 1.3 1.9 0 2.9-1.3 1-1.2 1-3.7 0-2.6-1-3.8m-2.8 1q1 0 1 2.8 0 2.7-1 2.7-.6 0-.8-.6-.3-.6-.3-2.1t.3-2.1q.2-.7.8-.7"/><path fill="#8CC55D" d="M352.2 213h-2.7l-8.9 16.1h2.7l8.9-16.1M327.3 221.7q.7-.1 1.3-.1 3.2 0 3.2 2.4 0 2.6-3.1 2.6-1 0-2.2-.3-1.2-.3-2-.8v3q1.7.8 4.3.8 3.2 0 4.8-1.4 1.7-1.4 1.7-4.2 0-2.2-1.4-3.6-1.4-1.3-3.7-1.3-1 0-1.7.2l-.4.1.3-3.2h5.8V213h-8.8l-.6 8.2 1.4.8 1.1-.3M343.6 214.1q-1-1.3-2.8-1.3-3.8 0-3.8 5 0 2.5 1 3.8.9 1.3 2.8 1.3t2.8-1.3q1-1.3 1-3.8 0-2.3-1-3.7m-2.8 1q1 0 1 2.7 0 2.8-1 2.8-.5 0-.8-.7-.3-.7-.3-2.1 0-1.3.3-2t.8-.7"/><path fill="#648BB7" d="M404.7 314.5q-1.2 0-2.1.2-.6.2-1.7.7-.9.5-1.9 1.4l1.8 2.2q1-.8 1.9-1.2.7-.4 1.8-.4.9 0 1.4.4.5.4.5 1.5 0 .7-.2 1.2-.3.7-.8 1.3-.4.6-2.3 2.6l-4.1 4.1v2.3h11.3V328h-7v-.2l2-1.9q2.1-1.9 2.9-2.9.9-1.1 1.2-2 .4-1.1.4-2.1 0-1.2-.6-2.3-.7-1-1.8-1.5-1.2-.6-2.7-.6"/><path fill="#8CC55D" d="M336.2 333.9q0-2.3-1-3.7-1.1-1.3-2.9-1.3-3.8 0-3.8 5 0 2.6 1 3.8 1 1.3 2.8 1.3 1.9 0 2.9-1.3t1-3.8m-3.9-2.7q1.1 0 1.1 2.7 0 2.8-1.1 2.8-.5 0-.8-.7-.2-.7-.2-2.1 0-1.3.2-2 .3-.7.8-.7"/><path fill="#8CC55D" d="M332.5 322.7h-2.7l-8.9 16.1h2.6l9-16.1"/><path fill="#648BB7" d="M429.6 314.7h-2.8l-5.2 4.2 1.7 2 3-2.6-.1 12.5h3.4v-16.1M443.8 316.6q-1.4-2.1-4.2-2.1-2.8 0-4.3 2-1.3 2.1-1.3 6.3 0 4.1 1.4 6.2 1.4 2.1 4.2 2.1 2.9 0 4.2-2.1 1.4-2 1.4-6.2 0-4-1.4-6.2m-2.5 1.9q.5 1.4.5 4.3t-.5 4.2q-.6 1.3-1.7 1.3-1.3 0-1.7-1.3-.6-1.3-.6-4.2 0-2.9.6-4.3.5-1.3 1.7-1.3 1.1 0 1.7 1.3M420.2 314.7h-3.1l-6 16.1h3.1l6-16.1"/><path fill="#1A344F" d="M408.7 338.2h-2.2v10.2h6.3v-1.8h-4.1v-8.4M418.9 338.1q-2.3 0-3.6 1.3-1.2 1.4-1.2 3.9 0 2.4 1.2 3.9 1.3 1.3 3.6 1.3 2.4 0 3.6-1.3 1.3-1.5 1.3-3.9 0-2.6-1.3-3.9-1.3-1.3-3.6-1.3m-2.5 5.2q0-1.8.6-2.6.6-.9 1.9-.9 2.6 0 2.6 3.5 0 3.4-2.6 3.4-1.3 0-1.9-.9-.6-.8-.6-2.5M432.5 338.2h-2l-1.8 7-.2 1.2-1.8-8.2h-2.1l2.6 10.2h2.4l1.7-6.5.2-1.2q0 .4.2 1.2l1.6 6.5h2.5l2.5-10.2h-2.1l-1.8 8.2-1.9-8.2M628.9 219.2q.3-.9.3-2 0-1.3-.6-2.3-.6-1-1.8-1.6-1.2-.5-2.7-.5-1 0-2 .2-1.1.3-1.7.7-.8.4-2 1.4l1.9 2.2q1-.9 1.8-1.2.9-.5 1.8-.5t1.4.5q.6.5.6 1.4 0 .7-.3 1.3-.1.4-.8 1.3-.4.6-2.3 2.6l-4.1 4v2.4h11.3v-2.8h-7v-.2l2.1-1.9q2.2-2.1 2.8-3 .7-.8 1.3-2M624 324.8q-2.9 0-4.3 2-1.3 2.1-1.3 6.3 0 4.1 1.4 6.2 1.4 2.1 4.2 2.1 2.9 0 4.2-2.1 1.4-2.1 1.4-6.2 0-4-1.4-6.2-1.4-2.1-4.2-2.1m-1.7 4.1q.5-1.3 1.7-1.3t1.7 1.3q.5 1.3.5 4.2 0 2.9-.5 4.2-.6 1.3-1.7 1.3-1.3 0-1.7-1.3-.6-1.3-.6-4.2 0-2.9.6-4.2M607.7 331.2l1.8-1.4 1.2-1.2-.1 12.6h3.4v-16.1h-2.8l-5.2 4.1 1.7 2M642.5 333.1q0-4-1.5-6.2-1.4-2.1-4.2-2.1-2.8 0-4.2 2-1.4 2-1.4 6.3 0 4.1 1.4 6.2 1.5 2.1 4.2 2.1 2.9 0 4.3-2.1 1.4-2 1.4-6.2m-3.4 0q0 3-.5 4.2-.6 1.3-1.8 1.3-1.2 0-1.7-1.3-.5-1.2-.5-4.2t.5-4.2q.5-1.3 1.7-1.3t1.7 1.3q.6 1.1.6 4.2M312.4 47.2q-1.5-.6-3-.6-2.6 0-3.9 1.3-1.5 1.4-1.5 3.9t1.3 3.8q1.2 1.4 3.5 1.4 1.2 0 1.7-.1l1.9-.5v-5.2h-4v1.7h1.9v2.2q-.7.1-1.4.1-1.3 0-2-.9-.6-.8-.6-2.5 0-1.6.8-2.5.9-1 2.2-1 1.3 0 2.3.6l.8-1.7M321 51.7q0-1.4-.8-2.1-.8-.7-2.4-.7-1.6 0-3 .7l.7 1.5q1.2-.6 2.2-.6 1.2 0 1.2 1.2v.3l-1.3.1q-1.8.1-2.6.6-.9.6-.9 1.8 0 1.2.7 1.9.6.6 1.7.6 1 0 1.5-.3.5-.2 1.1-.9h.1l.4 1.1h1.4v-5.2m-2.1 2.2q0 .7-.4 1.1-.4.4-1.2.4-1 0-1-.9 0-.6.4-.9.4-.2 1.4-.3h.8v.6M167.8 89.3l-.3-1h-1.6v7.8h2.1v-3.6q0-1.4.4-2 .4-.6 1.3-.6.6 0 .9.4.3.4.3 1.3v4.5h2.1V91q0-1.3-.7-2.1-.6-.7-2-.7-.8 0-1.5.3-.5.2-.9.8h-.1M163.7 88.2q-.7 0-1.3.4-.6.4-1 1h-.1l-.3-1.3h-1.6v7.8h2.1v-3.9q0-1 .6-1.5.5-.5 1.6-.5h.6l.1-1.9-.7-.1M181.9 92.7v-1q0-1.6-.9-2.6-1-.9-2.6-.9-1.7 0-2.7 1.1-1 1.1-1 3t1.1 2.9q1.1 1 2.9 1l1.6-.1q.6-.1 1.1-.4v-1.6q-.7.3-1.3.4-.6.2-1.3.2-.9 0-1.4-.5-.5-.6-.5-1.5h5m-2.4-2.6q.4.5.4 1.2h-3q.1-.7.5-1.2.4-.4 1-.4.7 0 1.1.4M198.7 85.9h-3.1v10.2h3.8q1.6 0 2.7-.8 1-.7 1-2.1 0-1-.4-1.6-.5-.6-1.4-.8v-.1q.7-.1 1.1-.7.4-.6.4-1.5 0-1.3-.9-1.9-1.1-.7-3.2-.7m1.5 3.8q-.3.3-1.2.3h-1.3v-2.3h1.1q1.1 0 1.4.3.4.2.4.8 0 .6-.4.9m-1.2 2q1.9 0 1.9 1.2 0 .8-.5 1.1-.4.3-1.3.3h-1.4v-2.6h1.3M190.6 88.3h-2.3l-1.4 4.4q-.2.6-.3 1.4h-.1q-.1-1-.2-1.4l-1.5-4.4h-2.3l3.1 7.7-.1.4q-.4.8-.7 1.1-.5.3-1 .3l-.8-.1v1.7l1.1.1q1.1 0 1.9-.6.8-.6 1.3-1.8l3.3-8.8M217.4 85.2q-1.4 0-2.1.6-.7.7-.7 2v.5l-1.1.6v1h1.1v6.2h2.2v-6.2h1.8v-1.6h-1.8v-.4q0-.5.2-.7.1-.3.6-.3.6 0 1.2.2l.5-1.6q-.8-.3-1.9-.3M210 88.3V92q0 1.3-.4 2-.5.6-1.3.6-.7 0-1-.5-.3-.3-.3-1.2v-4.6h-2.1v5.1q0 1.4.7 2.1.7.7 2.1.7.8 0 1.4-.3.5-.2 1-.8h.1l.2 1h1.7v-7.8H210M219.5 91.4q.1.2.6.7l2.3 1.2.6.3q.1.2.1.4 0 .7-1.1.7-.6 0-1.3-.2-.9-.2-1.4-.5v1.8q.7.3 1.2.3.4.1 1.4.1 1.7 0 2.5-.6t.8-1.8q0-.6-.2-1t-.6-.7q-.4-.4-1.3-.7-1.1-.4-1.4-.6-.3-.2-.3-.5 0-.5 1-.5l1 .1 1.1.4.6-1.5q-1.2-.6-2.7-.6-1.4 0-2.3.6-.8.5-.8 1.6 0 .6.2 1M232.6 89.1q-.9-.9-2.5-.9-1.8 0-2.7 1.1-1 1-1 3 0 1.9 1.1 2.9t2.9 1l1.5-.1q.6-.1 1.2-.4v-1.6l-1.3.4q-.6.2-1.3.2-.8 0-1.4-.5-.5-.5-.6-1.5h5.1v-1q0-1.6-1-2.6m-3.6 1q.4-.4 1.1-.4.6 0 1.1.4.4.5.4 1.2h-3q.1-.7.4-1.2M239.8 89.9v-1.6h-2.2v-1.6h-1.3l-.6 1.6-1.2.7v.9h1v3.8q0 1.2.6 1.9.6.6 1.8.6 1.3 0 2-.3v-1.6q-.9.3-1.4.3-.4 0-.6-.3-.3-.2-.3-.6v-3.8h2.2M223.3 103.8v-.7h-3.4l-.3 3.2.4.2 1.2-.1q1.8 0 1.8 1.4 0 .8-.5 1.1-.4.4-1.3.4l-.9-.1q-.6-.2-.8-.3v.7q.5.4 1.7.4t1.9-.6q.7-.6.7-1.7 0-.9-.7-1.4-.5-.5-1.6-.5-.8 0-1.1.1l.2-2.1h2.7M214.3 104.5l.4.5 1.1-.9.2-.2v6h.7v-6.8h-.6l-1.8 1.4M210.7 103q-1.2 0-1.7.9-.5.7-.5 2.6 0 1.8.5 2.6.6.9 1.7.9 1.2 0 1.7-.9.6-.9.6-2.6 0-1.7-.6-2.6-.6-.9-1.7-.9m1.1 1.4q.4.8.4 2.1t-.4 2.1q-.3.7-1.1.7t-1.1-.6q-.4-.8-.4-2.2 0-1.4.4-2.2.3-.6 1.1-.6.7 0 1.1.7M203.5 104.3q.5-.3.9-.5.4-.1.8-.1.5 0 .9.3.3.4.3.9t-.1.7l-.4.7-2.9 2.9v.7h4.5v-.7H204l1.5-1.5q.9-.9 1.3-1.6.4-.6.4-1.3 0-.9-.6-1.3-.5-.5-1.5-.5t-2 .8l.4.5M194.4 105l-.6-.2-.7-.1q-1.1 0-1.7.7-.7.7-.7 2t.6 1.9q.7.7 1.8.7.9 0 1.2-.3v-.7q-.6.3-1.3.3-.7 0-1.1-.5-.4-.5-.4-1.4 0-2 1.6-2l.5.1.6.1.2-.6M195.9 105.4q-.6.8-.6 2 0 1.3.6 1.9.7.7 1.8.7.6 0 .9-.1l.8-.2v-.7q-.8.3-1.7.3-.7 0-1.2-.4-.4-.5-.4-1.4h3.5v-.5q0-1-.6-1.7-.6-.6-1.5-.6-1 0-1.6.7m.6.4q.4-.4 1-.4.7 0 .9.4.4.4.4 1.1h-2.7q0-.7.4-1.1M189 105.2q-.5-.5-1.4-.5-.6 0-1 .2-.4.3-.6.6h-.1l-.1-.7h-.6v5.1h.8v-2.7q0-1 .3-1.4.4-.4 1.2-.4.6 0 .9.3.3.3.3.9v3.3h.7v-3.3q0-1-.4-1.4M182.8 103l-.1.4q0 .2.1.4.1.1.4.1.2 0 .3-.1.1-.1.1-.4 0-.2-.1-.4l-.3-.1-.4.1M183.6 104.8h-.8v5.1h.8v-5.1M181.4 105.1q-.7-.4-1.6-.4-.9 0-1.4.4-.5.3-.5 1 0 .3.2.6l.4.4 1 .5q.9.3 1 .5.3.2.3.5 0 .4-.3.6-.5.2-1 .2l-.8-.1-.8-.3v.7q.6.3 1.6.3t1.5-.4q.5-.4.5-1.1 0-.5-.3-.8-.5-.4-1.2-.7l-.9-.4-.3-.2q-.2-.2-.2-.4t.3-.5q.3-.1.9-.1.6 0 1.3.3l.3-.6M174.2 104.7q-.5 0-.9.3t-.7.8l-.1-1h-.6v5.1h.8v-2.7q0-.7.4-1.3.4-.5 1.1-.5l.5.1.1-.7-.6-.1M166.9 105.4q-.6.8-.6 2 0 1.3.6 1.9.7.7 1.8.7.6 0 .9-.1l.8-.2v-.7q-.8.3-1.7.3-.7 0-1.2-.4-.4-.5-.4-1.4h3.5v-.5q0-1-.6-1.7-.6-.6-1.5-.6-1 0-1.6.7m1.6 0q.7 0 .9.4.3.4.3 1.1h-2.6q0-.7.4-1.1.4-.4 1-.4M165.2 107.4q0-1.3-.6-2-.5-.7-1.5-.7-1.1 0-1.6.8v-2.8h-.8v7.2h.6l.1-.7h.1q.2.3.7.6.4.2.9.2 1 0 1.5-.7.6-.7.6-1.9m-.8-.1q0 .9-.3 1.5-.4.6-1.1.6-.8 0-1.2-.5-.3-.5-.3-1.5t.3-1.6q.4-.4 1.2-.4.7 0 1.1.5.3.5.3 1.4M184.4 195.6v1.8h2.8v8.4h2.1v-8.4h2.8v-1.8h-7.7"/><path fill="#8CC55D" d="M321.1 107.4H318l-7.1 10.3v2.4h6.9v3.3h3.3v-3.3h2v-2.6h-2v-10.1m-3.2 3.9l-.1 6.2h-3.9l3-4.5q.5-.7 1-1.7M304 110q1 0 1.5.4.5.6.5 1.5 0 .6-.2 1.2-.4.8-.8 1.3-.5.7-2.4 2.6l-4 4.1v2.3h11.2v-2.8h-7v-.2l2.1-1.9q1.8-1.7 2.9-2.9.8-1.1 1.2-2 .4-.9.4-2.1 0-1.3-.7-2.3-.6-1-1.8-1.5-1.2-.6-2.6-.6-1.3 0-2.1.3-1 .2-1.7.6-.9.5-2 1.4l1.9 2.2q.9-.8 1.8-1.2 1-.4 1.8-.4"/><path fill="#474747" d="M290.1 115.2v-3.4l-4-4-4 4v3.4l4-4 4 4"/><path fill="#1A344F" d="M139.8 94.2l-1.7-8.3h-2.2l2.6 10.2h2.5l1.8-7.7q0 .4.2 1.2l1.7 6.5h2.4l2.6-10.2h-2.1l-1.6 6.9q-.1.5-.2 1.4l-2-8.3h-2l-2 8.3M151 88.9l.7 1.4q1.2-.6 2.2-.6 1.2 0 1.2 1.2v.4h-1.3q-1.8.1-2.6.7-.9.6-.9 1.8 0 1.1.6 1.8.7.6 1.8.6 1 0 1.5-.2.5-.3 1.1-1l.4 1.1h1.5v-5.2q0-1.3-.8-2-.9-.7-2.4-.7-1.6 0-3 .7m4.1 3.6v.6q0 .7-.4 1.2-.4.4-1.2.4-1 0-1-.9 0-.6.4-.9.4-.3 1.4-.4h.8M158.7 105.2q-.4-.5-1.3-.5-.6 0-1 .3-.4.2-.6.6h-.1q-.4-.9-1.5-.9-.6 0-.9.2-.4.3-.6.6h-.1l-.1-.7h-.6v5.1h.7v-2.7q0-.9.4-1.4.4-.4 1-.4t.9.3q.2.3.2.9v3.3h.8v-2.8q0-.9.3-1.3.4-.4 1.1-.4.6 0 .8.3.3.3.3.9v3.3h.7v-3.3q0-.9-.4-1.4M144.8 103.1h-1.2l-2.2 5.6-2.2-5.6h-1.1v6.8h.7l-.1-6h.1l2.3 6h.6l2.3-6h.1l-.1 6h.8v-6.8M150.6 107q0-1-.6-1.7-.5-.6-1.5-.6t-1.6.7q-.7.8-.7 2t.7 1.9q.6.7 1.8.7.6 0 .9-.1l.7-.2v-.7q-.7.3-1.6.3-.8 0-1.2-.4-.4-.5-.5-1.4h3.6v-.5m-.9-.1h-2.6q0-.7.4-1.1.3-.4 1-.4.6 0 .9.4.3.4.3 1.1M143.1 197.4v-1.8h-5.9v10.2h5.9V204h-3.7v-2.6h3.4v-1.8h-3.4v-2.2h3.7M160.9 199l-.3-1H159v7.8h2.1v-3.7q0-1.4.4-1.9.4-.6 1.1-.6.6 0 .9.4.3.4.3 1.3v4.5h2.1v-3.9q0-1.2.4-1.8.4-.5 1.2-.5.6 0 .9.4.3.4.3 1.3v4.5h2.1v-5.1q0-1.4-.7-2.1-.7-.7-2-.7-.8 0-1.4.3-.6.3-.9.8h-.2q-.6-1.1-2.3-1.1-.8 0-1.4.3-.6.3-.9.8h-.1M156.8 200.7q0-1.4-.7-2.1-.7-.7-2-.7-.7 0-1.3.3-.6.2-1 .8h-.1q-.7-1.1-2.4-1.1-.8 0-1.4.3-.6.3-.9.8h-.1l-.3-1H145v7.8h2.1v-3.7q0-1.3.4-1.9.3-.6 1.2-.6.6 0 .9.4.2.4.2 1.3v4.5h2.2v-3.9q0-1.3.4-1.8t1.1-.5q.6 0 .9.4.3.5.3 1.3v4.5h2.1v-5.1M148.5 214.9q-1 0-1.6.7-.7.8-.7 2t.7 1.9q.6.7 1.8.7l.9-.1.7-.3v-.7q-.7.4-1.6.4-.8 0-1.2-.5-.4-.4-.5-1.3h3.6v-.5q0-1.1-.6-1.7-.5-.6-1.5-.6m0 .6q.5 0 .9.4.3.4.3 1.1h-2.6q.1-.7.4-1.1.4-.4 1-.4M144 214.1h.1l-.1 6h.8v-6.8h-1.2l-2.2 5.6-2.2-5.6h-1.1v6.8h.7l-.1-6.1h.1l2.3 6.1h.6l2.3-6M151.9 215v5.1h.7v-2.7q0-.9.4-1.4.4-.5 1-.5t.9.3q.2.4.2 1v3.3h.8v-2.9q0-.9.3-1.3.4-.4 1.1-.4.6 0 .8.3.3.3.3 1v3.3h.7v-3.4q0-.9-.4-1.4-.4-.4-1.3-.4-.5 0-1 .2-.4.2-.6.6h-.1q-.4-.8-1.5-.8-.6 0-.9.2-.4.2-.6.6h-.1l-.1-.7h-.6M161.5 212.8h-.8v7.3h.6l.1-.7h.1q.2.3.7.6.6.2.9.2 1 0 1.5-.7.6-.8.6-2t-.6-1.9q-.5-.7-1.5-.7-1.1 0-1.6.7v-2.8m0 4.7q0-1 .3-1.5.4-.5 1.2-.5.7 0 1.1.5.3.6.3 1.5t-.3 1.5q-.4.5-1.1.5-.8 0-1.2-.5-.3-.5-.3-1.5M155.7 303.7q-1.2 0-1.2 1t1.2 1q.5 0 .9-.2.3-.3.3-.8 0-1-1.2-1M156.8 306.7h-2.2v7.8h2.2v-7.8M160.6 306.7H159v7.8h2.1v-3.7q0-1.3.4-2 .4-.6 1.3-.6.6 0 .9.5.3.4.3 1.2v4.6h2.1v-5.1q0-1.4-.7-2.1-.6-.8-2-.8-.8 0-1.4.3-.6.3-1 .9h-.1l-.3-1M143.9 306.1v-1.8h-7.7v1.8h2.8v8.4h2.1v-8.4h2.8M147.8 308.8q.4-.6 1.3-.6 1.2 0 1.2 1.7v4.6h2.2v-5.1q0-1.4-.8-2.1-.6-.8-2-.8-1.6 0-2.3 1.2h-.1l.1-4h-2.1v10.8h2.1v-3.7q0-1.4.4-2M144.8 321.7h-1.2l-2.2 5.6-2.2-5.6h-1.1v6.8h.7l-.1-6.1h.1l2.3 6.1h.6l2.3-6.1h.1l-.1 6.1h.8v-6.8M161.5 321.2h-.8v7.3h.6l.1-.7h.1q.2.3.7.6.4.1.9.1 1 0 1.5-.6.6-.8.6-2t-.6-1.9q-.5-.7-1.5-.7-1.1 0-1.6.7v-2.8m0 4.7q0-1 .3-1.5.4-.5 1.2-.5.7 0 1.1.5.3.6.3 1.5t-.3 1.5q-.4.5-1.1.5-.8 0-1.2-.5-.3-.5-.3-1.5M157.3 323.9q.6 0 .8.3.3.3.3.9v3.4h.7v-3.4q0-.9-.4-1.4-.4-.4-1.3-.4-.6 0-1 .2t-.6.6h-.1q-.4-.8-1.5-.8-.6 0-.9.2-.4.2-.6.6h-.1l-.1-.7h-.6v5.1h.7v-2.7q0-1 .4-1.4.4-.5 1-.5t.9.3q.2.4.2.9v3.4h.8v-2.9q0-.9.3-1.3.4-.4 1.1-.4M148.5 323.3q-1 0-1.6.7-.7.8-.7 1.9 0 1.3.7 2 .6.6 1.8.6h.9l.7-.3v-.7q-.7.4-1.6.4-.8 0-1.2-.5-.4-.5-.5-1.4h3.6v-.4q0-1-.6-1.7-.5-.6-1.5-.6m0 .6q.6 0 .9.4.3.4.3 1.1h-2.6q0-.7.4-1.1.3-.4 1-.4"/><path fill="#8CC55D" d="M311.4 215.1l1.9 2.2q1-.9 1.8-1.2.9-.5 1.8-.5t1.4.5q.6.5.6 1.4 0 .7-.3 1.3-.1.4-.8 1.3l-6.4 6.6v2.4h11.3v-2.8h-7v-.2l2.1-1.9q2.2-2.1 2.8-3 .7-.8 1.3-2 .3-.9.3-2 0-1.3-.6-2.3-.6-1-1.8-1.6-1.2-.5-2.6-.5-1.1 0-2.1.2-1.1.3-1.7.7-.8.4-2 1.4M307 213h-2.8l-5.2 4.2 1.7 2 3-2.6-.1 12.5h3.4V213"/><path fill="#474747" d="M286.1 215.8l4 4v-3.4l-4-4-4 4v3.4l4-4"/><path fill="#1A344F" d="M236.6 200l.6-1.5q-1.2-.6-2.7-.6-1.4 0-2.3.5-.8.7-.8 1.6 0 .5.2 1.1.3.4.6.7.4.3 1.4.7l1 .4q.4.3.5.4.1.2.1.4 0 .7-1.1.7-.7 0-1.3-.2-.8-.2-1.3-.5v1.8q.3.1 1.1.3l1.4.1q1.7 0 2.5-.6t.8-1.8q0-.6-.2-1t-.6-.7q-.3-.3-1.3-.7-1.2-.5-1.4-.7-.3-.1-.3-.4 0-.6 1-.6.6 0 1 .2l1.1.4M229.5 200l.7-1.5q-1.4-.6-2.8-.6t-2.2.5q-.8.6-.8 1.6 0 .7.2 1.1.1.4.6.7.2.2 1.3.7l1 .4q.4.3.5.4.2.2.2.4 0 .7-1.2.7-.6 0-1.3-.2-.7-.2-1.3-.5v1.8l1.1.3 1.4.1q1.7 0 2.5-.6.9-.7.9-1.8 0-.4-.2-1-.3-.5-.7-.7-.4-.4-1.3-.7l-1.3-.7q-.3-.1-.3-.4 0-.6.9-.6.6 0 1 .2.7.2 1.1.4M224.1 218.5v-.7h-1v-4.6h-.8l-3.2 4.6v.7h3.3v1.6h.7v-1.6h1m-1.7-4.5v3.8h-2.6l2.2-3 .4-.8M220.6 200.6v.4h-1.4q-1.6 0-2.6.6-.9.6-.9 1.9 0 1.2.7 1.8.6.6 1.7.6.9 0 1.5-.2.7-.4 1.1-1h.1l.4 1.1h1.5v-5.2q0-1.4-.9-2.1-.8-.6-2.4-.6-1.7 0-2.9.7l.7 1.4q1.2-.6 2.1-.6 1.3 0 1.3 1.2m-2.2 1.9q.4-.3 1.3-.3h.9v.6q0 .7-.5 1.2-.5.4-1.2.4-1 0-1-.9 0-.6.5-1M214.1 200.7q0-1.4-.7-2.1-.7-.7-2-.7-.8 0-1.4.3-.6.3-.9.8h-.2q-.6-1.1-2.3-1.1-.8 0-1.4.3-.6.3-.9.8h-.1l-.3-1h-1.6v7.8h2.1v-3.7q0-1.3.4-1.9.4-.6 1.1-.6.6 0 .9.4.3.4.3 1.3v4.5h2.1v-3.9q0-1.2.4-1.8.4-.5 1.2-.5.6 0 .9.4.2.4.2 1.3v4.5h2.2v-5.1M212.4 214.1q-.6-.9-1.7-.9t-1.7.8q-.5.8-.5 2.7 0 1.8.5 2.6.6.9 1.7.9 1.2 0 1.7-.9.6-.8.6-2.6 0-1.7-.6-2.6m-.6.4q.4.8.4 2.2 0 1.3-.4 2.1-.3.7-1.1.7t-1.1-.7q-.4-.8-.4-2.1 0-1.4.4-2.2.4-.7 1.1-.7.7 0 1.1.7M203.5 214.5q.5-.4.9-.5.4-.2.8-.2.5 0 .9.4.3.3.3.8t-.1.7l-.4.7-2.9 3v.7h4.5v-.8H204l1.5-1.4q.9-1 1.3-1.6.4-.7.4-1.3 0-.9-.6-1.3-.5-.5-1.5-.5-1.1 0-2 .8l.4.5M216.7 213.3h-.6l-1.8 1.4.4.5 1.1-.9.2-.2v6h.7v-6.8M200.1 199.8q-.5-1-1.3-1.4-.9-.5-2-.5-1.8 0-2.8 1-1 1-1 3 0 1.2.5 2.1.5 1 1.3 1.4.8.5 1.9.5 1.9 0 2.8-1 1-1.2 1-3 0-1.2-.4-2.1m-2.1 3.8q-.4.6-1.2.6-.9 0-1.3-.6-.3-.5-.3-1.7t.3-1.7q.4-.6 1.3-.6.8 0 1.2.6.4.5.4 1.7 0 1.1-.4 1.7M187.5 215.5q.6 0 .9.3.3.3.3 1v3.3h.7v-3.4q0-.9-.4-1.4-.5-.4-1.4-.4-.6 0-1 .2t-.6.6h-.1l-.1-.7h-.6v5.1h.8v-2.7q0-1 .3-1.4.4-.5 1.2-.5M183.2 213.1q-.2 0-.4.1l-.1.4q0 .2.1.4.2.1.4.1t.3-.1q.1-.2.1-.4 0-.3-.1-.4-.1-.1-.3-.1M183.6 215h-.8v5.1h.8V215M190.7 217.5q0 1.3.6 2 .7.7 1.8.7.8 0 1.2-.3v-.7q-.6.3-1.3.3-.7 0-1.1-.5-.4-.6-.4-1.5 0-1.9 1.6-1.9h.5l.6.2.2-.7-1.3-.2q-1.1 0-1.7.7-.7.6-.7 1.9M199 215.5q-.6-.6-1.5-.6-1 0-1.6.7-.6.7-.6 2 0 1.2.6 1.9.7.7 1.8.7l.9-.1.8-.3v-.7q-.8.4-1.7.4-.7 0-1.2-.5-.4-.4-.4-1.3h3.5v-.5q0-1-.6-1.7m-.6.4q.4.5.4 1.1h-2.7q.1-.7.4-1.1.4-.4 1-.4t.9.4M177.3 200.6v.4h-1.4q-1.7 0-2.6.6-.9.6-.9 1.9 0 1.2.7 1.8.6.6 1.7.6.9 0 1.5-.2.7-.4 1.1-1h.1l.4 1.1h1.5v-5.2q0-1.4-.9-2.1-.8-.6-2.4-.6-1.7 0-2.9.7l.7 1.4q1.2-.6 2.1-.6 1.3 0 1.3 1.2m0 2.2q0 .7-.5 1.2-.5.4-1.2.4-1 0-1-.9 0-.6.5-1 .4-.3 1.3-.3h.9v.6M170 215.5q-.6-.6-1.5-.6-1 0-1.6.7-.6.7-.6 2 0 1.2.6 1.9.7.7 1.8.7l.9-.1.8-.3v-.7q-.8.4-1.7.4-.7 0-1.2-.5-.4-.4-.4-1.3h3.5v-.5q0-1-.6-1.7m-1.5 0q.6 0 .9.4.3.4.3 1.1h-2.6q.1-.7.4-1.1.4-.4 1-.4M171.9 215v5.1h.8v-2.8q0-.7.4-1.2t1.1-.5h.5l.1-.7h-.6q-.5 0-.9.2-.4.4-.7.8l-.1-.9h-.6M178.6 216.2q0-.3.3-.5t.9-.2q.6 0 1.3.3l.3-.6q-.7-.3-1.6-.3-.9 0-1.4.3-.5.4-.5 1 0 .4.2.6l.4.5q.4.2 1 .4.9.4 1 .5.3.3.3.5 0 .4-.3.6-.4.2-1 .2l-.8-.1-.8-.3v.7q.7.4 1.6.4.9 0 1.5-.4.5-.4.5-1.1 0-.5-.3-.9-.5-.4-1.2-.6l-.9-.4q-.2-.1-.3-.3-.2-.1-.2-.3M227.1 307.1q-1.1-.6-2.4-.6-1.8 0-2.8 1.1-1 1-1 3 0 4 3.6 4 1 0 1.4-.1.5-.2 1-.5v-1.8q-.8.5-1 .5-.5.2-1.2.2-1.6 0-1.6-2.3t1.6-2.3l.9.1.9.3.6-1.6M219.2 306.7H217v3.6q0 1.5-.4 2-.3.6-1.2.6-.7 0-1-.4-.3-.4-.3-1.3v-4.5H212v5.1q0 1.3.7 2.1.6.7 2 .7 1 0 1.5-.3.6-.3.9-.8h.1l.3 1h1.7v-7.8M208.7 305.6q-1.3-1.3-3.8-1.3h-3.2v10.2h2.8q2.8 0 4.2-1.4 1.4-1.3 1.4-3.8 0-2.4-1.4-3.7m-3.7.5q2.9 0 2.9 3.2 0 3.4-3.2 3.4h-.9v-6.6h1.2M216.7 321.7h-.6l-1.8 1.3.4.6 1.1-.9.2-.2v6h.7v-6.8M219.1 326.2v.7h3.3v1.6h.7v-1.6h1v-.7h-1v-4.6h-.8l-3.2 4.6m3.3-3.8v3.8h-2.6l2.2-3 .4-.8M208.5 325q0 1.9.5 2.7.6.8 1.7.8 1.2 0 1.7-.8.6-.9.6-2.7 0-1.7-.6-2.5-.6-.9-1.7-.9-1.2 0-1.7.8t-.5 2.6m3.3-2.1q.4.8.4 2.1 0 1.4-.4 2.2-.3.7-1.1.7t-1.1-.7q-.4-.8-.4-2.2 0-1.3.4-2.1.3-.7 1.1-.7t1.1.7M205.2 322.2q.5 0 .9.3.3.4.3.9t-.1.7l-.4.7-2.9 3v.7h4.5v-.8H204l1.5-1.5q.9-.8 1.3-1.6.4-.5.4-1.2 0-.9-.6-1.3-.5-.5-1.5-.5t-2 .7l.4.6q.5-.4.9-.5.4-.2.8-.2M195.2 307.5q-1-1-2.6-1-1.7 0-2.7 1.1-1 1.1-1 3t1.1 3q1 1 2.9 1l1.6-.1 1.1-.4v-1.7q-.7.3-1.3.5-.6.1-1.3.1-.9 0-1.4-.5-.4-.4-.5-1.4h5v-1q0-1.6-.9-2.6m-1.5 1q.4.4.4 1.2h-3q.1-.8.5-1.2.3-.4 1-.4t1.1.4M187.8 314.5v-1.8h-4.1v-8.4h-2.2v10.2h6.3M183.2 321.5l-.4.1-.1.4q0 .2.1.4.1.1.4.1.2 0 .3-.1.1-.2.1-.4 0-.3-.1-.4l-.3-.1M174.8 307.3q-.7-.8-2.1-.8-1.5 0-2.2 1.2h-.2l.1-4h-2.1v10.8h2.1v-3.7q0-1.3.4-2 .5-.6 1.3-.6 1.3 0 1.3 1.7v4.6h2.1v-5.1q0-1.4-.7-2.1M181.4 323.6q-.7-.3-1.6-.3-.9 0-1.4.3-.5.4-.5 1 0 .3.2.6l.4.5 1 .4q.9.4 1 .5.3.3.3.5 0 .4-.3.6-.5.2-1 .2l-.8-.1-.8-.3v.7q.6.3 1.6.3t1.5-.3q.5-.4.5-1.1 0-.6-.3-.9-.5-.4-1.2-.6l-.9-.4-.3-.3q-.2-.1-.2-.3 0-.4.3-.5.3-.2.9-.2.6 0 1.3.3l.3-.6M174.7 324l.1-.7h-.6q-.5 0-.9.2-.4.4-.7.8l-.1-.9h-.6v5.1h.8v-2.8q0-.7.4-1.2t1.1-.5h.5M168.7 327.9q-.7 0-1.2-.5-.4-.5-.4-1.4h3.5v-.4q0-1-.6-1.7-.6-.6-1.5-.6-1 0-1.6.7-.6.7-.6 1.9 0 1.3.6 2 .7.6 1.8.6h.9l.8-.3v-.7q-.8.4-1.7.4m.7-3.6q.3.4.3 1.1h-2.6q0-.7.4-1.1.4-.4 1-.4.7 0 .9.4M199 323.9q-.6-.6-1.5-.6-1 0-1.6.7-.6.7-.6 1.9 0 1.3.6 2 .7.6 1.8.6h.9l.8-.3v-.7q-.8.4-1.7.4-.7 0-1.2-.5-.4-.5-.4-1.4h3.5v-.4q0-1-.6-1.7m-.6.4q.4.5.4 1.1h-2.7q0-.7.4-1.1.4-.4 1-.4.7 0 .9.4M193.1 324h.5l.6.2.2-.7-.6-.2h-.7q-1.1 0-1.7.7-.7.6-.7 1.9 0 1.3.6 2 .7.6 1.8.6.9 0 1.2-.2v-.7q-.6.3-1.3.3-.7 0-1.1-.5-.4-.6-.4-1.5 0-1.9 1.6-1.9M187.5 323.9q.6 0 .9.3.3.3.3 1v3.3h.7v-3.4q0-.9-.4-1.4-.5-.4-1.4-.4-.6 0-1 .2t-.6.6h-.1l-.1-.7h-.6v5.1h.8v-2.7q0-1.1.3-1.4.4-.5 1.2-.5M183.6 323.4h-.8v5.1h.8v-5.1"/><path fill="#474747" d="M290.1 327.3l-4-4-4 4v3.5l4-4.1 4 4.1v-3.5"/><path fill="#8CC55D" d="M323.9 323.8q-1-1.3-2.9-1.3-3.8 0-3.8 5 0 2.4 1 3.8 1 1.3 2.8 1.3 1.9 0 2.9-1.3t1-3.8q0-2.5-1-3.7m-2.8 1q1 0 1 2.7 0 2.8-1 2.8-.6 0-.8-.7-.3-.6-.3-2.1t.3-2.1q.2-.6.8-.6M315.4 326.8q0-1.3-.7-2.2-.6-1-1.8-1.6-1-.5-2.6-.5-1.3 0-2.1.2t-1.7.6q-.9.5-2 1.5l1.9 2.2q.9-.8 1.8-1.3.8-.4 1.8-.4t1.5.5q.5.4.5 1.4 0 .6-.2 1.3-.4.7-.8 1.3-.5.6-2.4 2.5l-4 4.1v2.4h11.2v-2.9h-7v-.1l2.1-2q1.8-1.6 2.9-2.9.8-1 1.2-2 .4-.8.4-2.1"/><path fill="none" stroke="#474747" stroke-width="2" stroke-linecap="round" stroke-linejoin="round" d="M286.1 111.2v6.8M286.1 215.8v6.9M286.1 326.7v6.9"/><path fill="#648BB7" d="M571.4 129.3V96.6h-93.5v32.7h93.5"/><path fill="none" stroke="#1A344F" stroke-width="2.5" stroke-linecap="round" stroke-linejoin="round" d="M571.4 129.3V96.6h-93.5v32.7h93.5"/><path fill="#648BB7" d="M477.9 203.3V236h93.4v-32.7h-93.4"/><path fill="none" stroke="#1A344F" stroke-width="2.5" stroke-linecap="round" stroke-linejoin="round" d="M477.9 203.4v32.7h93.5v-32.7h-93.5"/><path fill="#648BB7" d="M477.9 313.6v32.8h93.5v-32.8h-93.5"/><path fill="none" stroke="#1A344F" stroke-width="2.5" stroke-linecap="round" stroke-linejoin="round" d="M477.9 313.6v32.8h93.5v-32.8h-93.5"/><path fill="#FFF" d="M553.3 109.8h-3.1l-.8 3.6q-.2.7-.3 1.5l-.2 1.6q-.1-1-.5-2.9l-.8-3.8h-3.5l-.9 3.8q-.5 2.2-.5 2.9-.1-1.1-.4-3.1l-.8-3.6h-3.2l2.6 9.4h3.4l1.5-6.9 1.5 6.9h3.4l2.6-9.4M535 110.2q-1-.5-2.4-.5-2.3 0-3.5 1.2-1.2 1.3-1.2 3.6t1.2 3.5q1.3 1.3 3.4 1.3 2.2 0 3.5-1.2 1.2-1.4 1.2-3.6 0-1.4-.6-2.6-.5-1-1.6-1.7m-1.4 2.5q.3.6.3 1.8 0 1.2-.3 1.8-.3.7-1.1.7-.7 0-1-.7-.4-.6-.4-1.8 0-1.3.4-1.8.3-.6 1-.6.8 0 1.1.6M520.2 106.3H517v12.9h3.2v-12.9M525.9 106.3h-3.3v12.9h3.3v-12.9M512.8 110.2q-1.1-.5-2.5-.5-2.2 0-3.5 1.2-1.2 1.3-1.2 3.6t1.3 3.5q1.2 1.3 3.4 1.3t3.4-1.2q1.3-1.3 1.3-3.6 0-1.4-.6-2.6-.5-1-1.6-1.7m-1.4 6.1q-.3.7-1.1.7-.7 0-1.1-.7-.3-.8-.3-1.8 0-1.1.3-1.8.3-.6 1.1-.6.7 0 1.1.6.3.6.3 1.8 0 1.2-.3 1.8M504.1 109.7v-2.6h-7.2v12.1h3.2v-4.6h3.6V112h-3.6v-2.3h4M548.4 220.4l-.8-3.8h-3.5l-.9 3.8q-.5 2.1-.5 2.8-.1-.9-.4-3l-.8-3.6h-3.2l2.6 9.3h3.4l1.5-6.9 1.5 6.9h3.4l2.6-9.3h-3.1l-.8 3.6q-.2.7-.3 1.5l-.2 1.5q-.1-1-.5-2.8M535 217q-1.2-.6-2.4-.6-2.3 0-3.5 1.3-1.2 1.3-1.2 3.5 0 2.3 1.2 3.6 1.3 1.3 3.4 1.3 2.2 0 3.5-1.3 1.2-1.3 1.2-3.6 0-1.4-.6-2.5-.5-1.1-1.6-1.7m-1.4 2.4q.3.6.3 1.8 0 1.3-.3 1.9-.3.6-1.1.6-.7 0-1-.6-.4-.6-.4-1.9 0-1.2.4-1.8.3-.6 1-.6.8 0 1.1.6M515 221.2q0-1.4-.6-2.5-.5-1.1-1.6-1.7-1.2-.6-2.5-.6-2.2 0-3.5 1.3-1.2 1.3-1.2 3.5 0 2.3 1.3 3.6 1.3 1.3 3.4 1.3 2.2 0 3.4-1.3 1.3-1.2 1.3-3.6m-3.6-1.8q.3.6.3 1.8 0 1.3-.3 1.9-.3.6-1.1.6-.7 0-1.1-.6-.3-.7-.3-1.9 0-1.1.3-1.8.3-.6 1.1-.6.7 0 1.1.6M520.2 213.1H517v12.8h3.2v-12.8M525.9 213.1h-3.3v12.8h3.3v-12.8M500.1 216.5h4v-2.6h-7.2v12h3.2v-4.5h3.6v-2.6h-3.6v-2.3M541.5 326.9h-3.2l2.6 9.4h3.4l1.5-6.9 1.5 6.9h3.4l2.6-9.4h-3.1l-.8 3.6q-.2.7-.3 1.5l-.2 1.6q-.1-1.1-.5-2.9l-.8-3.8h-3.5l-.9 3.8q-.5 2.1-.5 2.9-.1-1-.4-3.1l-.8-3.6M535 327.3q-1.1-.6-2.4-.6-2.3 0-3.5 1.3-1.2 1.3-1.2 3.6 0 2.2 1.2 3.5 1.3 1.3 3.4 1.3 2.2 0 3.5-1.3 1.2-1.3 1.2-3.5 0-1.5-.6-2.6-.5-1.1-1.6-1.7m-3.9 4.3q0-1.3.4-1.9.3-.6 1-.6.8 0 1.1.6.3.7.3 1.9t-.3 1.8q-.3.6-1.1.6-.7 0-1-.6-.4-.6-.4-1.8M500.1 326.8h4v-2.6h-7.2v12.1h3.2v-4.6h3.6v-2.6h-3.6v-2.3M525.9 323.4h-3.3v12.9h3.3v-12.9M520.2 323.4H517v12.9h3.2v-12.9M515 331.6q0-1.5-.6-2.6-.5-1.1-1.6-1.7-1.1-.6-2.5-.6-2.2 0-3.5 1.3-1.2 1.3-1.2 3.6 0 2.2 1.3 3.5 1.3 1.3 3.4 1.3 2.2 0 3.4-1.3 1.3-1.2 1.3-3.5m-5.8-1.9q.3-.6 1.1-.6.7 0 1.1.6.3.7.3 1.9t-.3 1.8q-.3.6-1.1.6t-1.1-.6q-.3-.7-.3-1.8 0-1.2.3-1.9M137.7 229.2v19.9H168v-19.9h-30.3"/><path fill="none" stroke="#1A344F" stroke-linecap="round" stroke-linejoin="round" d="M137.7 229.2v19.9H168v-19.9h-30.3"/><path fill="#D31E26" d="M151.6 234.7q-.3.1-1.2-.6.8 3.7.5 3.8-.3.2-1.8-1.7 0 .3-.3.6-.2.4-.5.4l-1.5-.4.6 2q0 .5-.6.5 0 .1 1.4 1.2 1.6 1.3 1.6 1.6 0 .2-.3 1l2.7-.5q.5-.1.5.4l-.2 2.8h.6l-.1-2.8q0-.5.4-.4l2.8.5q-.3-.8-.3-1 0-.2.5-.7.6-.5 1-.9 1.4-1.1 1.4-1.2-.6 0-.6-.5l.6-2q-1.2.4-1.5.4-.2 0-.5-.4-.3-.3-.3-.6-1.5 1.9-1.8 1.7-.3-.1.6-3.8-.9.7-1.3.6-.3-.1-1.2-2.2v-.1.1q-.9 2.1-1.2 2.2M145.3 229.2h-7.6v19.9h7.6v-19.9M160.3 229.1V249h7.7v-19.9h-7.7"/><path fill="#FFF" d="M137.7 334.9v19.9H168v-19.9h-30.3"/><path fill="none" stroke="#1A344F" stroke-linecap="round" stroke-linejoin="round" d="M137.7 334.9v19.9H168v-19.9h-30.3"/><path fill="#D31E26" d="M152.8 338.1v.1q-.9 2.1-1.2 2.2-.3.1-1.2-.6.8 3.7.5 3.8-.3.2-1.8-1.7 0 .3-.3.6-.2.4-.5.4l-1.5-.4.6 2q0 .5-.6.5 0 .1 1.4 1.2 1.6 1.3 1.6 1.6 0 .3-.3 1l2.7-.5q.5-.1.5.4l-.2 2.8h.6l-.1-2.8q0-.5.4-.4l2.8.5q-.3-.7-.3-1 0-.2.5-.7.6-.5 1-.9 1.4-1.1 1.4-1.2-.6 0-.6-.5l.6-2q-1.2.4-1.5.4-.2 0-.5-.4-.3-.3-.3-.6-1.5 1.9-1.8 1.7-.3-.1.6-3.8-.9.7-1.3.6-.3-.1-1.2-2.2v-.1M145.3 334.9h-7.6v19.9h7.6v-19.9M160.4 334.9v19.9h7.6v-19.9h-7.6"/><path fill="#FFF" d="M168 140.1v-19.9h-30.3v19.9H168"/><path fill="none" stroke="#1A344F" stroke-linecap="round" stroke-linejoin="round" d="M168 140.1v-19.9h-30.3v19.9H168"/><path fill="#D31E26" d="M153.3 124.6l-.5-1.1q-.9 2.2-1.2 2.3-.2 0-.7-.3l-.5-.4q.8 3.8.5 3.9-.3.1-1.8-1.8 0 .4-.3.7-.2.4-.5.4l-1.5-.4.6 2q0 .4-.6.5 0 .1 1.4 1.2 1.6 1.3 1.6 1.5 0 .3-.3 1l2.7-.4q.5-.1.5.4l-.2 2.8h.6l-.1-2.8q0-.5.4-.4l2.8.4q-.3-.7-.3-1 0-.2.5-.6.2-.3 1-.9.9-.8 1.4-1.2-.6-.1-.6-.5l.6-2q-1.2.4-1.5.4-.2 0-.5-.4-.3-.3-.3-.7-1.5 1.9-1.8 1.8-.2-.1.2-2l.4-1.9q-.9.8-1.3.7-.2-.1-.7-1.2M137.7 140.2h7.6v-20h-7.6v20M168 140.2v-20h-7.6v20h7.6"/><path fill="#DF2028" d="M169 140.4v-1.3h-31.1v1.3H169"/><path fill="#FFF" d="M169 139.1v-1.4h-31.1v1.4H169"/><path fill="#DF2028" d="M169 137.7v-1.3h-31.1v1.3H169"/><path fill="#FFF" d="M169 136.4V135h-31.1v1.4H169"/><path fill="#DF2028" d="M169 135v-1.4h-31.1v1.4H169"/><path fill="#FFF" d="M169 133.6v-1.3h-31.1v1.3H169"/><path fill="#DF2028" d="M169 132.3v-1.4h-31.1v1.4H169"/><path fill="#FFF" d="M169 130.9v-1.4h-31.1v1.4H169"/><path fill="#DF2028" d="M169 129.5v-1.3h-31.1v1.3H169"/><path fill="#FFF" d="M169 128.2v-1.4h-31.1v1.4H169"/><path fill="#DF2028" d="M169 126.8v-1.3h-31.1v1.3H169"/><path fill="#FFF" d="M169 125.5v-1.4h-31.1v1.4H169"/><path fill="#DF2028" d="M169 124.1v-1.4h-31.1v1.4H169"/><path fill="#FFF" d="M169 122.7v-1.3h-31.1v1.3H169"/><path fill="#DF2028" d="M169 121.4V120h-31.1v1.4H169"/><path fill="#2769A4" d="M151.2 130.9V120h-13.3v10.9h13.3"/><path fill="#FFF" d="M141.6 127.9l.4-.3.4.3-.2-.5.5-.3h-.6l-.1-.5-.2.5h-.5l.4.3-.1.5M145.4 127.6l.4.3-.2-.5.4-.3h-.5l-.1-.5-.2.5h-.5l.4.3-.2.5.5-.3M149.4 127.1h-.5l-.2-.5-.1.5h-.5l.4.3-.2.5.4-.3.5.3-.2-.5.4-.3M147 125.2h-.5l.4.3-.2.6.5-.4.4.4-.2-.6.4-.3h-.5l-.1-.5-.2.5M140.6 126.1l-.2-.6.4-.3h-.5l-.1-.5-.2.5h-.5l.4.3-.2.6.5-.4.4.4M143.5 124.7l-.1.5h-.5l.4.3-.2.6.4-.4.5.4-.2-.6.4-.3h-.5l-.2-.5M142.1 123.4l-.1-.5-.2.5h-.5l.4.3-.1.5.4-.3.4.3-.2-.5.5-.3h-.6M145.5 123.4l-.1-.5-.2.5h-.5l.4.3-.2.5.5-.3.4.3-.2-.5.4-.3h-.5M149.4 123.4h-.5l-.2-.5-.1.5h-.5l.4.3-.2.5.4-.3.5.3-.2-.5.4-.3M147 129h-.5l.4.3-.2.5.5-.3.4.3-.2-.5.4-.3h-.5l-.1-.5-.2.5M140.6 129.8l-.2-.5.4-.3h-.5l-.1-.5-.2.5h-.5l.4.3-.2.5.5-.3.4.3M142.9 129l.4.3-.2.5.4-.3.5.3-.2-.5.4-.3h-.5l-.2-.5-.1.5h-.5M140.6 122.3l-.2-.5.4-.3h-.5l-.1-.5-.2.5h-.5l.4.3-.2.5.5-.3.4.3M144 122.3l-.2-.5.4-.3h-.5l-.2-.5-.1.5h-.5l.4.3-.2.5.4-.3.5.3M147.2 121.8l.4-.3h-.5l-.2-.5-.1.5h-.6l.5.3-.2.5.4-.3.4.3-.1-.5"/><path fill="#43566B" d="M65.5 131.3L46.3 139q-5.9 2.4-9.5 7.6-1.4 2-2.2 4.2l83.9.1q-.9-2.3-2.2-4.4-3.5-5.2-9.3-7.6l-18.2-7.6H65.5"/><path fill="none" stroke="#1A344F" stroke-width="2.5" stroke-linecap="round" stroke-linejoin="round" d="M46.3 139l19.2-7.7h23.3l18.2 7.6q5.8 2.4 9.3 7.6.9 1.5 1.7 3.1M46.3 139q-4.1 1.6-7.1 4.7-2.9 2.9-4.4 6.7"/><path fill="#FFF" d="M70.7 126.1l-5.2 5.2v18.4h23.3v-18.4l-5.2-5.2H70.7"/><path fill="none" stroke="#1A344F" stroke-width="2.5" stroke-linecap="round" stroke-linejoin="round" d="M70.7 126.1l-5.2 5.2v18.6m5.2-23.8h12.9l5.2 5.2v18.5"/><path fill="#EAB091" d="M77.1 132.6q2.7 0 4.6-1.9 1.9-1.9 1.9-4.6v-6.4H70.7v6.4q0 2.7 1.9 4.6 1.9 1.9 4.5 1.9"/><path fill="none" stroke="#1A344F" stroke-width="2.5" stroke-linecap="round" stroke-linejoin="round" d="M77.1 132.6q2.7 0 4.6-1.9 1.9-1.9 1.9-4.6v-6.4H70.7v6.4q0 2.7 1.9 4.6 1.9 1.9 4.5 1.9"/><path fill="none" stroke="#1A344F" stroke-width="2.5" stroke-linecap="round" stroke-linejoin="round" d="M70.7 119.7v6.4q0 2.7 1.9 4.6 1.9 1.9 4.5 1.9 2.7 0 4.6-1.9 1.9-1.9 1.9-4.6v-6.4H70.7"/><path fill="#9A7254" d="M97.2 58.3Q88.9 50 77.1 50q-11.7 0-20 8.3-8.3 8.4-8.3 20.1 0 11.8 8.3 20.1t20 8.3q11.8 0 20.1-8.3t8.3-20.1q0-11.7-8.3-20.1"/><path fill="none" stroke="#1A344F" stroke-width="2.5" stroke-linecap="round" stroke-linejoin="round" d="M97.2 58.3Q88.9 50 77.1 50q-11.7 0-20 8.3-8.3 8.4-8.3 20.1 0 11.8 8.3 20.1t20 8.3q11.8 0 20.1-8.3t8.3-20.1q0-11.7-8.3-20.1"/><path fill="none" stroke="#1A344F" stroke-width="2.5" stroke-linecap="round" stroke-linejoin="round" d="M97.2 58.3Q88.9 50 77.1 50q-11.7 0-20 8.3-8.3 8.4-8.3 20.1 0 11.8 8.3 20.1t20 8.3q11.8 0 20.1-8.3t8.3-20.1q0-11.7-8.3-20.1"/><path fill="#EE9872" d="M60.5 101.6q0-2.6-1.9-4.5T54 95.2q-2.6 0-4.5 1.9t-1.9 4.5q0 2.7 1.9 4.6 1.9 1.9 4.5 1.9 2.7 0 4.6-1.9 1.9-1.9 1.9-4.6"/><path fill="#EAB091" stroke="#1A344F" stroke-width="2.5" stroke-linecap="round" stroke-linejoin="round" d="M59.9 101.6q0-2.6-1.9-4.5t-4.5-1.9q-2.7 0-4.6 1.9Q47 99 47 101.6q0 2.7 1.9 4.6 1.9 1.9 4.6 1.9 2.6 0 4.5-1.9t1.9-4.6"/><path fill="#EE9872" d="M107.3 101.6q0-2.6-1.8-4.5-1.9-1.9-4.6-1.9-2.7 0-4.6 1.9-1.9 1.9-1.9 4.5 0 2.7 1.9 4.6 1.9 1.9 4.6 1.9 2.7 0 4.6-1.9 1.8-1.9 1.8-4.6"/><path fill="#EAB091" stroke="#1A344F" stroke-width="2.5" stroke-linecap="round" stroke-linejoin="round" d="M107.3 101.6q0-2.6-1.8-4.5-1.9-1.9-4.6-1.9-2.7 0-4.6 1.9-1.9 1.9-1.9 4.5 0 2.7 1.9 4.6 1.9 1.9 4.6 1.9 2.7 0 4.6-1.9 1.8-1.9 1.8-4.6"/><path fill="#BD7B66" fill-opacity=".5" d="M71.2 128.7l11.8-6.9-11.8.5v6.4"/><path fill="none" stroke="#1A344F" stroke-width="2.5" stroke-linecap="round" stroke-linejoin="round" d="M70.7 119.7v6.4q0 2.7 1.9 4.6 1.9 1.9 4.5 1.9 2.7 0 4.6-1.9 1.9-1.9 1.9-4.6v-6.4H70.7"/><path fill="#EAB091" d="M84.9 65.5H69.4q-6.4 0-10.9 4.5-4.6 4.6-4.6 11v18.1q0 9.6 6.8 16.4 6.8 6.8 16.4 6.8 9.7 0 16.5-6.8 6.8-6.8 6.8-16.4V81q0-6.4-4.6-11-4.5-4.5-10.9-4.5"/><path fill="none" stroke="#1A344F" stroke-width="2.5" stroke-linecap="round" stroke-linejoin="round" d="M84.9 65.5H69.4q-6.4 0-10.9 4.5-4.6 4.6-4.6 11v18.1q0 9.6 6.8 16.4 6.8 6.8 16.4 6.8 9.7 0 16.5-6.8 6.8-6.8 6.8-16.4V81q0-6.4-4.6-11-4.5-4.5-10.9-4.5"/><path fill="none" stroke="#1A344F" stroke-width="2.5" stroke-linecap="round" stroke-linejoin="round" d="M95.8 70q-4.5-4.5-10.9-4.5H69.4q-6.4 0-10.9 4.5-4.6 4.6-4.6 11v18.1q0 9.6 6.8 16.4 6.8 6.8 16.4 6.8 9.7 0 16.5-6.8 6.8-6.8 6.8-16.4V81q0-6.4-4.6-11"/><path fill="none" stroke="#1A344F" stroke-width="2.5" stroke-linecap="round" stroke-linejoin="round" d="M71.2 88.2q.8.7.8 1.8m-.8-1.8q-.7-.8-1.8-.8t-1.8.8q-.8.7-.8 1.8M86.7 88.2q.8.7.8 1.8m-.8-1.8q-.7-.8-1.8-.8t-1.8.8q-.8.7-.8 1.8"/><path fill="#FFF" d="M81.7 110.1q1.9-1.9 1.9-4.6H70.7q0 2.7 1.9 4.6 1.9 1.9 4.5 1.9 2.7 0 4.6-1.9"/><path fill="none" stroke="#1A344F" stroke-width="2.5" stroke-linecap="round" stroke-linejoin="round" d="M81.7 110.1q1.9-1.9 1.9-4.6H70.7q0 2.7 1.9 4.6 1.9 1.9 4.5 1.9 2.7 0 4.6-1.9M78.4 100.3h-2.5q-1.1 0-1.9-.7-.7-.8-.7-1.8m5.1 2.5q1.1 0 1.9-.7.7-.8.7-1.8"/><path fill="#9A7254" d="M82.6 52.7q-6.7-4-14.4-4-7.1 0-13.4 3.4-6 3.2-9.9 8.8-.7.9-.7 2t.7 2q3.9 5.6 9.9 8.9 6.3 3.3 13.4 3.3 7.7 0 14.4-3.9 6.3-3.8 10.2-10.3-3.9-6.4-10.2-10.2"/><path fill="none" stroke="#1A344F" stroke-width="2.5" stroke-linecap="round" stroke-linejoin="round" d="M82.6 52.7q-6.7-4-14.4-4-7.1 0-13.4 3.4-6 3.2-9.9 8.8-.7.9-.7 2t.7 2q3.9 5.6 9.9 8.9 6.3 3.3 13.4 3.3 7.7 0 14.4-3.9 6.3-3.8 10.2-10.3-3.9-6.4-10.2-10.2"/><path fill="none" stroke="#1A344F" stroke-width="2.5" stroke-linecap="round" stroke-linejoin="round" d="M82.6 73.2q6.3-3.8 10.2-10.3M82.6 73.2q-6.7 3.9-14.4 3.9-7.1 0-13.4-3.3-6-3.3-9.9-8.9-.7-.9-.7-2t.7-2q3.9-5.6 9.9-8.8 6.3-3.4 13.4-3.4 5.5 0 10.6 2.1 5 2 8.8 5.7M57.8 141.6l-5.2 6.5 2.2 2.1M96.5 141.6l5.2 6.5-2 2"/><path fill="#875940" d="M59.5 60.3q-1.8-5.4-.4-10.1-8.1 4.1-12.3 9.1-2.1 2.5-2.5 4.2 8.5 11.7 22.1 12.9 6.8.6 11.9-1.1-15.4-4.1-18.8-15"/><path fill="none" stroke="#1A344F" stroke-width="2.5" stroke-linecap="round" stroke-linejoin="round" d="M85.9 61.6l1.6 1.8M75.5 54.4q4.3 1.8 7.9 4.8m-7.9-4.8L72 53.3"/><path fill="#BD7B66" fill-opacity=".5" d="M57.9 97.9q-4.3-9.5-3.4-19-4.2 5.5-2.1 15.9 1.1 5.8 4.1 16.5 10.5 13.1 24 10.6 6.8-1.2 11.4-5-25.5.2-34-19"/><path fill="none" stroke="#1A344F" stroke-width="2.5" stroke-linecap="round" stroke-linejoin="round" d="M100.4 99.1q0 9.6-6.8 16.4-6.8 6.8-16.5 6.8m23.3-23.2V81M60.7 115.5q-6.8-6.8-6.8-16.4V78.9m6.8 36.6q6.8 6.8 16.4 6.8M92.8 62.9q-3.9-6.4-10.2-10.2-6.7-4-14.4-4-7.1 0-13.4 3.4-6 3.2-9.9 8.8-.7.9-.7 2t.7 2q3.9 5.6 9.9 8.9 6.3 3.3 13.4 3.3 7.7 0 14.4-3.9 6.3-3.8 10.2-10.3"/><path fill="#E66C6C" stroke="#1A344F" stroke-width="2.5" stroke-linecap="round" stroke-linejoin="round" d="M79.7 132.6h-5.1l-1.3 3.9 2.6 3.8h2.5l2.6-3.8-1.3-3.9"/><path fill="#E66C6C" d="M78.4 140.3h-2.5l-.7 10.1h.3q2.1-.4 3.6-.3l-.7-9.8"/><path fill="none" stroke="#1A344F" stroke-width="2.5" stroke-linecap="round" stroke-linejoin="round" d="M78.4 140.3h-2.5l-.7 10.1m3.9-.3l-.7-9.8M120.5 150.4H33.4"/><path fill="#99C977" d="M83.5 343H68q-9 0-15.4 6.4t-6.4 15.5v7.7h59.1v-7.7q0-9.1-6.4-15.5T83.5 343"/><path fill="none" stroke="#1A344F" stroke-width="2.5" stroke-linecap="round" stroke-linejoin="round" d="M46.2 364.9q0-9.1 6.4-15.5T68 343m-21.8 21.9v7.7h59.1v-7.7q0-9.1-6.4-15.5T83.5 343"/><path fill="#466728" fill-opacity=".3" d="M84.1 350.4q-9.4 4-14.2 3.1-4.5-.9-9.1-4.3-2.2-1.6-4-3-4 2.1-7.2 7.2-1.6 2.5-2.4 4.7 22.4 8 36.6-1.4 7.1-4.8 9.8-11.1-3.1 2.1-9.5 4.8"/><path fill="none" stroke="#1A344F" stroke-width="2.5" stroke-linecap="round" stroke-linejoin="round" d="M46.2 364.9q0-9.1 6.4-15.5T68 343m-21.8 21.9v7.7h59.1v-7.7q0-9.1-6.4-15.5T83.5 343"/><path fill="#EAB091" stroke="#1A344F" stroke-width="2.5" stroke-linecap="round" stroke-linejoin="round" d="M70 353.5l8.8 1.1 4.8-16.6-16.6.8 3 14.7"/><path fill="#99C977" stroke="#1A344F" stroke-width="2.5" stroke-linecap="round" stroke-linejoin="round" d="M69.1 341.8q0-.5-.5-.7-.4-.3-.9-.2l-3.5.8q-.4.1-.7.5-.2.3-.2.8l-4.1 12.9q.1.5.5.8.5.3 1 .1l9.3-3.3q.4-.1.6-.5.2-.4.1-.8l-1.6-10.4M86.5 341.7l-3.6-.8q-.5-.1-.9.2-.3.2-.4.7l-1.7 10.4q0 .4.2.8t.6.5l9.3 3.9q.5.1 1-.2.4-.3.5-.8L87.4 343q.1-1.1-.9-1.3"/><path fill="#FFF" stroke="#1A344F" stroke-width="2.5" stroke-linecap="round" stroke-linejoin="round" d="M79.9 352.2q-4.1 2.3-7.1 1.4l-2.1-1.4 4.6 10.3 4.6-10.3"/><path fill="none" stroke="#1A344F" stroke-width="2.5" stroke-linecap="round" stroke-linejoin="round" d="M75.3 372.6v-10.1"/><path fill="#B69A8B" d="M46.6 288.2l4.5 3.7q-4.9 7.2-2.7 15.4.7 2.6 2 4.9l1.2 1.9 45.3-1.6q2.2-4.5 2.7-6.9 1.1-5-1.2-9.6l4.5 1.6q-2.3-11.3-14.1-17.1-6-2.9-11.5-3.5-12.8-2.6-19.8 4.1-2.2 2.1-3.6 4.8l-.9 2.3h-6.4"/><path fill="none" stroke="#1A344F" stroke-width="2.5" stroke-linecap="round" stroke-linejoin="round" d="M53.9 285.9q1.4-2.7 3.6-4.8 7-6.7 19.8-4.1 5.5.6 11.5 3.5 11.8 5.8 14.1 17.1l-4.5-1.6q2.3 4.6 1.2 9.6-.5 2.4-2.7 6.9m-43-26.6l-.9 2.3h-6.4l4.5 3.7q-4.9 7.2-2.7 15.4.7 2.6 2 4.9l1.2 1.9"/><path fill="#EAB091" stroke="#1A344F" stroke-width="2.5" stroke-linecap="round" stroke-linejoin="round" d="M59.2 327.9q1.8-2.1 1.5-4.8-.2-2.7-2.3-4.4-2.1-1.7-4.8-1.5-2.7.2-4.4 2.3-1.7 2.1-1.5 4.8.2 2.7 2.3 4.4 2.1 1.8 4.8 1.5 2.7-.2 4.4-2.3M99.7 318.5q-2.1-1.7-4.8-1.5-2.7.2-4.4 2.3-1.7 2.1-1.5 4.8.2 2.7 2.3 4.4 2.1 1.8 4.8 1.5 2.7-.2 4.4-2.3 1.8-2.1 1.5-4.8-.2-2.7-2.3-4.4"/><path fill="#EAB091" stroke="#1A344F" stroke-width="2.5" stroke-linecap="round" stroke-linejoin="round" d="M75 293.3l-5.3-2.5q-8.3-1.2-13.8 4.8-5.4 5.7-4.7 14.3l2.2 13q.7 8.4 7.2 13.8t14.9 4.7l2.8-.3q8.4-.7 13.9-7.2 5.4-6.5 4.6-14.9l-.2-13.2q-1.3-14.3-21.6-12.5"/><path fill="#DEC6BB" stroke="#1A344F" stroke-width="2.5" stroke-linecap="round" stroke-linejoin="round" d="M66.6 288.4l.5 2.2q13 6.3 24.4 1.4 5.7-2.5 8.7-6.2l-2.4-.9 2.9-2.6q-6.5-7.9-16-7.9-2.9.1-5.8.9l-2.3.8 2.1-3.4q-10.2 2.8-11.9 10.6-.6 2.5-.2 5.1"/><path fill="none" stroke="#1A344F" stroke-width="2.5" stroke-linecap="round" stroke-linejoin="round" d="M62.4 309.7l.1 4M85 309.2v4M71.5 320.3q-1.2-1-1.3-2.6m1.3 2.6q1.3 1 2.9.9 1.5-.2 2.6-1.4 1-1.2.9-2.8"/><path fill="#19344F" d="M72.8 364q.4-.3.4-.8t-.4-.8q-.3-.4-.8-.4t-.9.4q-.3.3-.3.8t.3.8q.4.4.9.4t.8-.4"/><path fill="#C8A896" d="M97.5 325.2q-.7-4.2-.7-6.1-2.9 6.1-3.2 8.1-12.6-3.4-26.2-2.1-4.2.5-8 1.3l-3 .8q-.4-2-3.1-8.1-.1 1.9-.8 7-.5 4.5-.3 7.2.5 6.8 4.5 12.1 3.4 4.6 8.7 6.8 5 2.2 10.7 1.9 5.8-.3 10.6-3.1 5.1-3 7.9-8 3.2-5.6 3.4-11.5.1-2.2-.5-6.3"/><path fill="none" stroke="#1A344F" stroke-width="2.5" stroke-linecap="round" stroke-linejoin="round" d="M96.9 318.9q0-.1-.1 0v.2q-2.9 6.1-3.2 8.1-12.6-3.4-26.2-2.1-4.2.5-8 1.3l-3 .8q-.4-2-3.1-8.1-.1-.1 0-.2 0-.1-.1 0 0 .1.1.2-.1 1.9-.8 7-.5 4.5-.3 7.2.5 6.8 4.5 12.1 3.4 4.6 8.7 6.8 5 2.2 10.7 1.9 5.8-.3 10.6-3.1 5.1-3 7.9-8 3.2-5.6 3.4-11.5.1-2.2-.5-6.3-.7-4.2-.7-6.1 0-.1.1-.2"/><path fill="#EAB091" d="M72.6 331.3q4.7.8 8.8-1H68.7l3.9 1"/><path fill="none" stroke="#1A344F" stroke-width="2.5" stroke-linecap="round" stroke-linejoin="round" d="M72.6 331.3q4.7.8 8.8-1m-8.8 1l-3.9-1"/><path fill="#F8D68F" d="M57.1 167.2q-11 7.3-14.6 23.4-3.8 17 .5 26 4.1 8.5 15.1 8.5l32-.7 1.4.3q1.8.3 3.7 0 6-.9 10.3-7.6 6.8-10.4-2.7-38.5-1-3.1-3.3-3.6h-2.2l-.8-1.8q-1.2-2.2-3-4.1-5.6-6-14.7-6.9-12.4-1.1-21.7 5"/><path fill="none" stroke="#19344F" stroke-width="2.5" stroke-linecap="round" stroke-linejoin="round" d="M42.5 190.6q3.6-16.1 14.6-23.4 9.3-6.1 21.7-5 9.1.9 14.7 6.9 1.8 1.9 3 4.1l.8 1.8h2.2q2.3.5 3.3 3.6 9.5 28.1 2.7 38.5-4.3 6.7-10.3 7.6-1.9.3-3.7 0l-1.4-.3m-47.6-33.8q-3.8 17 .5 26 4.1 8.5 15.1 8.5"/><path fill="#6BAEDB" d="M99 238.2q-7-6.8-16.7-6.8H66.6q-9.6 0-16.3 6.8-6.8 6.8-6.8 16.4v8.2h62.6v-8.2q0-9.6-7.1-16.4"/><path fill="none" stroke="#19344F" stroke-width="2.5" stroke-linecap="round" stroke-linejoin="round" d="M82.3 231.4q9.7 0 16.7 6.8 7.1 6.8 7.1 16.4v8.2H43.5v-8.2q0-9.6 6.8-16.4 6.7-6.8 16.3-6.8"/><path fill="#EAB091" stroke="#19344F" stroke-width="2.5" stroke-linecap="round" stroke-linejoin="round" d="M64.8 226.3l5.9 16.9 3.6 8.8 8.8-25.9-18.3.2"/><path fill="#FFF" stroke="#19344F" stroke-width="2.5" stroke-linecap="round" stroke-linejoin="round" d="M78.5 239.8q-4.4 2.4-7.1 1.5l-1.9-1.5 4.8 12.2 4.2-12.2"/><path fill="none" stroke="#19344F" stroke-width="2.5" stroke-linecap="round" stroke-linejoin="round" d="M74.3 262.8V252"/><path fill="#EAB091" stroke="#19344F" stroke-width="2.5" stroke-linecap="round" stroke-linejoin="round" d="M56.4 205.6q-2.2-1.8-5.1-1.6-2.8.3-4.7 2.5-1.8 2.2-1.6 5 .3 2.9 2.5 4.8 2.2 1.8 5.1 1.5 2.8-.2 4.7-2.4 1.8-2.2 1.6-5.1-.3-2.9-2.5-4.7M95.1 203.8q-2.9.3-4.7 2.5-1.8 2.2-1.6 5 .2 2.9 2.5 4.8 2.2 1.8 5 1.5 2.9-.2 4.7-2.4 1.9-2.2 1.6-5.1-.2-2.9-2.4-4.7-2.2-1.8-5.1-1.6"/><path fill="#EAB091" stroke="#19344F" stroke-width="2.5" stroke-linecap="round" stroke-linejoin="round" d="M74.1 176.2l-5.7-.2q-8.8-1.2-14.7 5.1-5.7 6.1-4.9 15.2l2.3 13.7q.8 8.9 7.6 14.7 6.9 5.7 15.8 4.9l3-.2q8.9-.8 14.7-7.7 5.7-6.9 4.9-15.8l-.2-13.9q-.6-7-5.1-11.1-4.3-4-11-4.4-4.3-.5-6.7-.3"/><path fill="#D5977D" d="M54.9 206.4q-4.3-9.6-3.4-19.1-4.2 5.5-2.1 15.9 1 5.8 4.1 16.5 10.5 13.1 24 10.6 6.8-1.2 11.4-5-25.5.2-34-18.9"/><path fill="none" stroke="#19344F" stroke-width="2.5" stroke-linecap="round" stroke-linejoin="round" d="M74.1 176.2l-5.7-.2q-8.8-1.2-14.7 5.1-5.7 6.1-4.9 15.2l2.3 13.7q.8 8.9 7.6 14.7 6.9 5.7 15.8 4.9l3-.2q8.9-.8 14.7-7.7 5.7-6.9 4.9-15.8l-.2-13.9q-.6-7-5.1-11.1-4.3-4-11-4.4-4.3-.5-6.7-.3M60.6 196.1l.1 4.2M84.5 195.6l.1 4.2"/><path fill="none" stroke="#19344F" stroke-width="2.5" stroke-linecap="round" stroke-linejoin="round" d="M70.3 207.3q-1.3-1.1-1.4-2.8m1.4 2.8q1.3 1.1 3 .9 1.7-.1 2.8-1.4 1.1-1.3.9-3"/><path fill="#EAB091" d="M71.4 219q5 .8 9.4-1.1H67.3l4.1 1.1"/><path fill="none" stroke="#19344F" stroke-width="2.5" stroke-linecap="round" stroke-linejoin="round" d="M71.4 219q5 .8 9.4-1.1m-9.4 1.1l-4.1-1.1"/><path fill="#F8D68F" d="M61.6 170.6l-6.5-.1L45 195.2q.6.7 1.6 1.5 2.1 1.6 4.7 2.2 8.1 1.9 17.6-7 9.4-8.8 16-12.7 3.3-2 4.7-2.2l11.2 2.9-2.3-1q-10.5-4.7-15.4-6.3-1.8-.5-2.3-.4-10.9-2.1-11.9-1.7-.6.2-7.3.1"/><path fill="none" stroke="#19344F" stroke-width="2.5" stroke-linecap="round" stroke-linejoin="round" d="M79 182.3q-3.3 2.6-9.5 8.3-5.3 5-7 6-6.9 3.9-15.5 1.1m32-15.4q12.7-9.5 17.7-.8"/><path fill="#5691B2" d="M43.4 259.3l.1 3.5h26q-11.9-3.3-14.8-15.3-1.4-5.9-.5-11.3-7.7 3-10 15.1-.7 3.8-.8 8"/><path fill="none" stroke="#19344F" stroke-width="2.5" stroke-linecap="round" stroke-linejoin="round" d="M82.3 231.4q9.7 0 16.7 6.8 7.1 6.8 7.1 16.4v8.2H43.5v-8.2q0-9.6 6.8-16.4 6.7-6.8 16.3-6.8"/></g></svg>
