<svg xmlns:xlink="http://www.w3.org/1999/xlink" xmlns="http://www.w3.org/2000/svg" image-rendering="optimizeQuality" baseProfile="basic" width="695" height="462" viewBox="0 0 695 462" preserveAspectRatio="xMinYMin meet"><defs><symbol id="h" overflow="visible"><g mask="url(#a)"><use xlink:href="#b" transform="translate(-30.949 -99.199)"><animateTransform attributeName="transform" additive="replace" type="translate" repeatCount="indefinite" dur="3.95s" keyTimes="0;1" values="-30.949,-99.199;13.55,80.3"/></use></g><mask id="a"><g style="display:none"><path fill="#FFF" d="M163.3-25.7v-40.55h-325.6v86.4h7.95q4.7 38.7 3.8 63.25Q13 58 179.7 83.4q-1.1-76.35-16.4-109.1"/><animate attributeName="display" repeatCount="indefinite" dur="3.95s" keyTimes="0;1;1" values="none;inline;none"/></g><path fill="#FFF" d="M163.3-25.7v-40.55h-325.6v86.4h7.95q4.7 38.7 3.8 63.25Q13 58 179.7 83.4q-1.1-76.35-16.4-109.1"/></mask></symbol><symbol id="g" overflow="visible"><path fill="#1A344F" d="M-29.05-10.75q-.35-.3-.85-.3t-.8.3q-.35.25-.35.65V.2q0 .4.35.7.3.25.8.25t.85-.25q.3-.3.3-.7v-10.3q0-.4-.3-.65M-1.25-10.75q-.35-.3-.85-.3t-.8.3q-.35.25-.35.65V.2q0 .4.35.7.3.25.8.25t.85-.25q.3-.3.3-.7v-10.3q0-.4-.3-.65"/></symbol><symbol id="c" overflow="visible"><path fill="#FFF" d="M11.651.051h-23.15q0 4.8 3.4 8.2 3.4 3.35 8.2 3.35 4.75 0 8.15-3.35 3.4-3.4 3.4-8.2"/></symbol><symbol id="d" overflow="visible"><path fill="none" stroke="#1A344F" stroke-width="2.5" stroke-linecap="round" stroke-linejoin="round" d="M11.651.051h-23.15q0 4.8 3.4 8.2 3.4 3.35 8.2 3.35 4.75 0 8.15-3.35 3.4-3.4 3.4-8.2"/></symbol><symbol id="f" overflow="visible"><use xlink:href="#c"/><use xlink:href="#d"/></symbol><symbol id="e" overflow="visible"><path fill="none" stroke="#1A344F" stroke-width="2.5" stroke-linecap="round" stroke-linejoin="round" d="M-35.949-144.45l-6.9-27.75M3.351-172.2l-2.3-9.25M10.301-144.45l-4.65-18.5M49.601-172.2l-2.35-9.25M98.101-162.95l-4.6-18.5M77.301-153.7l-4.6-18.5M-174.599-144.45l-6.9-27.75M-153.799-153.7l-2.3-9.25M-107.549-153.7l-2.3-9.25M-132.999-162.95l-4.6-18.5M-128.349-144.45l-2.3-9.25M-65.949-172.2l-2.35-9.25M-89.099-172.2l-2.3-9.25M-72.899-107.5l-2.3-9.25M-116.799-98.25l-9.25-37M-106.149-54.45l-2.3-9.25M-131.599-63.7l-2.3-9.25M-85.349-63.7l-2.3-9.25M-110.799-72.95l-4.6-18.5M-66.899-82.2l-2.3-9.25M-167.649-116.75l-4.6-18.5M-160.699-89l-4.65-18.5M-152.399-54.45l-6.9-27.75M-109.099 26.4l-2.3-9.25M-102.149 54.1l-4.6-18.45M-62.849 26.4l-2.3-9.25M-83.649 35.65l-2.3-9.25M-129.899 35.65l-6.9-27.75M-88.299 17.15l-4.6-18.5M-145.449-26.75l-4.6-18.5M-94.599-8.25l-9.25-37M-124.649-36l-4.6-18.45M-76.099-26.75l-6.95-27.7M-138.499 1l-4.65-18.5M65.751-107.5l-2.3-9.25M93.501-89l-6.95-27.75M38.001-126l2.35 9.25M32.501-54.45l-4.65-18.5M51.001-72.95l6.9 27.7M99.501-63.7l-4.6-18.5M71.801-82.2l-2.35-9.25M25.551-82.2l-2.3-9.25M-3.549-107.5l-2.35-9.25M1.051-89l-2.3-9.25M-49.799-107.5l-4.6-18.5M-31.299-126l-2.3-9.25M-34.499-45.25l-6.95-27.7M-13.749-54.45l-6.9-27.75M-43.749-82.2l-2.35-9.25M18.651-17.5l-2.35-9.25M-50.699-17.5l-2.3-9.25M-27.599-17.5l-4.6-18.5M-21.249 7.9l-2.35-9.25M-44.399 7.9l-2.3-9.25M-32.799 54.1l-9.25-36.95M13.401 54.1l-2.3-9.25M-11.999 44.85l-6.95-27.7M8.751 35.65L1.851 7.9M87.951-17.5l-2.3-9.25M94.301 7.9l-2.35-9.25M23.251 1l-2.3-9.25M48.051 7.9l-2.3-9.25M55.001 35.65l-4.65-18.5M36.501 54.1l-4.6-18.45M73.501 17.15l6.9 27.7M60.201-36l2.35 9.25M14.001-36l-4.6-18.45M83.351-36l-9.25-36.95M-9.099-36l-2.3-9.25M61.151-126l-9.25-36.95M28.801-162.95l6.9 27.7M84.251-126l-4.65-18.45M-8.199-126l-4.6-18.45M-56.699-135.25l-6.95-27.7M-146.849-126l-4.6-18.45M-98.299-116.75l-6.95-27.7M-55.299-36l-9.25-36.95M-77.499-126l-9.25-36.95M114.301-98.25l-6.95-27.75M127.251-45.25l-4.65-18.45M120.301-72.95l-4.6-18.5M136.501-8.25L129.551-36M115.701 1l-6.95-27.75M128.951 54.1l-4.65-18.45M149.751 44.85l-4.65-18.45M122.001 26.4l-4.6-18.5M142.801 17.15l-4.6-18.5M106.451-36l-4.65-18.45M105.051-135.25l-4.65-18.45M105.851 54.1l-9.25-36.95M165.401 107.5l-4.6-18.5M110.451 72.6l-2.3-9.25M116.901 98.25l-2.35-9.25M138.201 91.1l-6.95-27.75M105.301 144.45l2.35 9.25M172.351 135.2l-4.65-18.45M151.551 144.45l-4.65-18.45M128.451 144.45l-9.25-36.95M144.601 116.75l-4.6-18.5M181.601 172.2l-6.95-27.75M133.051 162.95l-2.3-9.25M160.801 181.45l-6.95-27.75M70.651 98.25l-2.3-9.25M45.751 91.1l-2.3-9.25M41.151 72.6l-2.35-9.25M59.101 144.45l-4.6-18.45M36.001 144.45l-2.3-9.25M77.601 126l-4.65-18.5M31.351 126l-6.9-27.75M1.351 98.25L-.999 89M-28.199 72.6l-2.3-9.25M-21.799 98.25l-2.3-9.25M-30.999 153.7l-6.95-27.7M10.601 135.2l-6.95-27.7M-10.199 144.45l-9.25-36.95M-40.249 116.75l-2.3-9.25M68.351 181.45l-2.3-9.25M63.751 162.95l-2.35-9.25M17.501 162.95l-4.6-18.5M-5.599 162.95l-2.3-9.25M-49.499 172.2l-9.25-37M-65.699 107.5l-4.6-18.5M-115.999 91.1l-4.65-18.5M-61.049 126l-2.3-9.25M-79.549 144.45l-4.6-18.45M-86.499 116.75l-2.3-9.25M-100.349 153.7l-4.6-18.5M-107.299 126l-6.9-27.75M-93.399 181.45l-4.65-18.5M96.101 107.5l6.9 27.7M82.701 54.1l2.35 9.25M159.001 81.85l-6.95-27.75M-5.099 72.6l-4.6-18.5M-53.599 63.35l-6.95-27.7M-122.949 63.35l-4.6-18.5M-72.099 81.85l-9.25-37"/></symbol><symbol id="b" overflow="visible"><use xlink:href="#e"/></symbol></defs><g overflow="visible"><path fill="#F2EFE8" d="M697.9 462.15V0H0v462.15h697.9"/><path fill="none" stroke="#CDCCCC" stroke-width="2.5" stroke-linecap="round" stroke-linejoin="round" d="M547.751 187.201v-104h-83.2v104h83.2"/><path fill="none" stroke="#CDCCCC" stroke-width="2.5" stroke-linecap="round" stroke-linejoin="round" d="M538.501 177.951v-85.5h-64.7v85.5h64.7M488.801 153.701h36.95M488.801 144.451h36.95M488.801 135.201h36.95M493.401 162.951h27.75"/><path fill="none" stroke="#CDCCCC" stroke-width="2.5" stroke-linecap="round" stroke-linejoin="round" d="M507.301 107.501q10.55 0 17.95 7.45m-17.95-7.45q-10.55 0-18 7.45M566.201 83.201v104h83.2v-104h-83.2"/><path fill="none" stroke="#CDCCCC" stroke-width="2.5" stroke-linecap="round" stroke-linejoin="round" d="M575.451 92.451v85.5h64.7v-85.5h-64.7M590.501 144.451h23.1M590.501 135.201h36.95M599.701 121.351h18.5M613.601 162.951h13.85"/><path fill="none" stroke="#CDCCCC" stroke-width="2.5" stroke-linecap="round" stroke-linejoin="round" d="M591.001 114.951q7.45-7.45 17.95-7.45 10.55 0 18 7.45"/><path fill="#99C977" d="M121.351 224.101l-50.7 3.65 2.3 32.25 50.7-3.65-2.3-32.25"/><path fill="none" stroke="#1A344F" stroke-width="2.5" stroke-linecap="round" stroke-linejoin="round" d="M121.351 224.101l-50.7 3.65 2.3 32.25 50.7-3.65-2.3-32.25"/><path fill="#F0B971" d="M101.701 236.801q-2.15-1.85-5.05-1.65-2.85.2-4.75 2.35-1.85 2.15-1.65 5.05.2 2.85 2.35 4.75 2.2 1.9 5.05 1.65 2.85-.2 4.75-2.35 1.9-2.2 1.65-5.05-.2-2.9-2.35-4.75"/><path fill="none" stroke="#1A344F" stroke-width="2.5" stroke-linecap="round" stroke-linejoin="round" d="M101.701 236.801q-2.15-1.85-5.05-1.65-2.85.2-4.75 2.35-1.85 2.15-1.65 5.05.2 2.85 2.35 4.75 2.2 1.9 5.05 1.65 2.85-.2 4.75-2.35 1.9-2.2 1.65-5.05-.2-2.9-2.35-4.75"/><path fill="none" stroke="#1A344F" stroke-width="2.5" stroke-linecap="round" stroke-linejoin="round" d="M101.701 236.801q-2.15-1.85-5.05-1.65-2.85.2-4.75 2.35-1.85 2.15-1.65 5.05.2 2.85 2.35 4.75 2.2 1.9 5.05 1.65 2.85-.2 4.75-2.35 1.9-2.2 1.65-5.05-.2-2.9-2.35-4.75"/><path fill="#99C977" d="M156.051 238.451l-17.35-47.75-30.4 11 17.3 47.8 30.45-11.05"/><path fill="#99C977" stroke="#1A344F" stroke-width="2.5" stroke-linecap="round" stroke-linejoin="round" d="M156.051 238.451l-17.35-47.75-30.4 11 17.3 47.8 30.45-11.05"/><path fill="#F0B971" d="M134.501 226.601q2.7-.95 3.9-3.6 1.25-2.6.25-5.25-1-2.7-3.55-3.95-2.6-1.2-5.3-.25-2.7 1-3.9 3.6-1.2 2.6-.25 5.3 1 2.7 3.55 3.9 2.6 1.25 5.3.25"/><path fill="none" stroke="#1A344F" stroke-width="2.5" stroke-linecap="round" stroke-linejoin="round" d="M134.501 226.601q2.7-.95 3.9-3.6 1.25-2.6.25-5.25-1-2.7-3.55-3.95-2.6-1.2-5.3-.25-2.7 1-3.9 3.6-1.2 2.6-.25 5.3 1 2.7 3.55 3.9 2.6 1.25 5.3.25"/><path fill="none" stroke="#1A344F" stroke-width="2.5" stroke-linecap="round" stroke-linejoin="round" d="M134.501 226.601q2.7-.95 3.9-3.6 1.25-2.6.25-5.25-1-2.7-3.55-3.95-2.6-1.2-5.3-.25-2.7 1-3.9 3.6-1.2 2.6-.25 5.3 1 2.7 3.55 3.9 2.6 1.25 5.3.25"/><path fill="#99C977" d="M76.001 221.751l26.4 18.7 29.35-41.45-26.4-18.7-29.35 41.45"/><path fill="#99C977" stroke="#1A344F" stroke-width="2.5" stroke-linecap="round" stroke-linejoin="round" d="M76.001 221.751l26.4 18.7 29.35-41.45-26.4-18.7-29.35 41.45"/><path fill="#F0B971" d="M98.201 206.351q-1.65 2.35-1.15 5.2.45 2.8 2.8 4.5 2.35 1.65 5.2 1.15 2.8-.45 4.5-2.8 1.65-2.35 1.15-5.2-.45-2.8-2.8-4.5-2.35-1.65-5.2-1.15-2.85.45-4.5 2.8"/><path fill="none" stroke="#1A344F" stroke-width="2.5" stroke-linecap="round" stroke-linejoin="round" d="M98.201 206.351q-1.65 2.35-1.15 5.2.45 2.8 2.8 4.5 2.35 1.65 5.2 1.15 2.8-.45 4.5-2.8 1.65-2.35 1.15-5.2-.45-2.8-2.8-4.5-2.35-1.65-5.2-1.15-2.85.45-4.5 2.8"/><path fill="none" stroke="#1A344F" stroke-width="2.5" stroke-linecap="round" stroke-linejoin="round" d="M98.201 206.351q-1.65 2.35-1.15 5.2.45 2.8 2.8 4.5 2.35 1.65 5.2 1.15 2.8-.45 4.5-2.8 1.65-2.35 1.15-5.2-.45-2.8-2.8-4.5-2.35-1.65-5.2-1.15-2.85.45-4.5 2.8"/><path fill="#FFF" d="M644.401 268.501q-2.7-2.7-6.55-2.7h-161.75q-3.85 0-6.55 2.7-2.7 2.7-2.7 6.55v106.3h180.25v-106.3q0-3.85-2.7-6.55"/><path fill="none" stroke="#1A344F" stroke-width="2.5" stroke-linecap="round" stroke-linejoin="round" d="M644.401 268.501q-2.7-2.7-6.55-2.7h-161.75q-3.85 0-6.55 2.7-2.7 2.7-2.7 6.55v106.3h180.25v-106.3q0-3.85-2.7-6.55"/><path fill="#FFF" d="M549.651 245.351q-2.7-2.7-6.55-2.7h-27.7q-3.85 0-6.55 2.7-2.7 2.7-2.7 6.55v37q0 3.85 2.7 6.55 2.7 2.7 6.55 2.7h6.9l6.95 13.85 6.9-13.85h6.95q3.85 0 6.55-2.7 2.7-2.7 2.7-6.55v-37q0-3.8-2.7-6.55"/><path fill="none" stroke="#1A344F" stroke-width="2.5" stroke-linecap="round" stroke-linejoin="round" d="M549.651 245.351q-2.7-2.7-6.55-2.7h-27.7q-3.85 0-6.55 2.7-2.7 2.7-2.7 6.55v37q0 3.85 2.7 6.55 2.7 2.7 6.55 2.7h6.9l6.95 13.85 6.9-13.85h6.95q3.85 0 6.55-2.7 2.7-2.7 2.7-6.55v-37q0-3.8-2.7-6.55"/><path fill="#43B162" d="M533.851 284.251v-9.2h9.25l-13.85-18.5-13.85 18.5h9.2v9.2h9.25"/><path fill="#99C977" stroke="#1A344F" stroke-width="2.5" stroke-linecap="round" stroke-linejoin="round" d="M533.851 284.251v-9.2h9.25l-13.85-18.5-13.85 18.5h9.2v9.2h9.25"/><path fill="#FFF" d="M605.101 217.651q-2.7-2.7-6.55-2.7h-27.7q-3.8 0-6.55 2.7-2.7 2.75-2.7 6.55v36.95q0 3.85 2.7 6.55 2.75 2.7 6.55 2.7h6.9l6.95 13.85 6.95-13.85h6.9q3.85 0 6.55-2.7 2.7-2.7 2.7-6.55v-36.95q0-3.8-2.7-6.55"/><path fill="none" stroke="#1A344F" stroke-width="2.5" stroke-linecap="round" stroke-linejoin="round" d="M605.101 217.651q-2.7-2.7-6.55-2.7h-27.7q-3.8 0-6.55 2.7-2.7 2.75-2.7 6.55v36.95q0 3.85 2.7 6.55 2.75 2.7 6.55 2.7h6.9l6.95 13.85 6.95-13.85h6.9q3.85 0 6.55-2.7 2.7-2.7 2.7-6.55v-36.95q0-3.8-2.7-6.55"/><path fill="#E66C6C" stroke="#1A344F" stroke-width="2.5" stroke-linecap="round" stroke-linejoin="round" d="M580.101 228.801v9.25h-9.25l13.85 18.5 13.85-18.5h-9.25v-9.25h-9.2"/><path fill="none" stroke="#1A344F" stroke-width="2.5" stroke-linecap="round" stroke-linejoin="round" d="M580.101 228.801v9.25h-9.25l13.85 18.5 13.85-18.5h-9.25v-9.25h-9.2M501.501 337.401l-20.8 20.8m20.8-20.8l9.25 9.25 18.5-18.45M543.101 342.051l41.6-41.6m-41.6 41.6l-13.85-13.85"/><path fill="#43B162" d="M536.151 328.201q0-2.9-2-4.9-2.05-2.05-4.9-2.05-2.9 0-4.9 2.05-2.05 2-2.05 4.9 0 2.85 2.05 4.9 2 2 4.9 2 2.85 0 4.9-2 2-2.05 2-4.9"/><path fill="#99C977" stroke="#1A344F" stroke-width="2.5" stroke-linecap="round" stroke-linejoin="round" d="M536.151 328.201q0-2.9-2-4.9-2.05-2.05-4.9-2.05-2.9 0-4.9 2.05-2.05 2-2.05 4.9 0 2.85 2.05 4.9 2 2 4.9 2 2.85 0 4.9-2 2-2.05 2-4.9"/><path fill="none" stroke="#1A344F" stroke-width="2.5" stroke-linecap="round" stroke-linejoin="round" d="M584.701 300.451l18.5 18.5M603.201 318.951l30.05-30.05M633.251 288.901h-9.25m9.25 0v9.25"/><path fill="#E66C6C" d="M591.651 300.451q0-2.9-2.05-4.9-2-2.05-4.9-2.05-2.9 0-4.9 2.05-2.05 2-2.05 4.9 0 2.9 2.05 4.9 2 2.05 4.9 2.05 2.9 0 4.9-2.05 2.05-2 2.05-4.9"/><path fill="none" stroke="#1A344F" stroke-width="2.5" stroke-linecap="round" stroke-linejoin="round" d="M591.651 300.451q0-2.9-2.05-4.9-2-2.05-4.9-2.05-2.9 0-4.9 2.05-2.05 2-2.05 4.9 0 2.9 2.05 4.9 2 2.05 4.9 2.05 2.9 0 4.9-2.05 2.05-2 2.05-4.9"/><path fill="none" stroke="#1A344F" stroke-width="2.5" stroke-linecap="round" stroke-linejoin="round" d="M591.651 300.451q0-2.9-2.05-4.9-2-2.05-4.9-2.05-2.9 0-4.9 2.05-2.05 2-2.05 4.9 0 2.9 2.05 4.9 2 2.05 4.9 2.05 2.9 0 4.9-2.05 2.05-2 2.05-4.9"/><path fill="#E9EDEA" d="M647.05 381.3H466.8v18.45q0 3.85 2.7 6.55 2.75 2.7 6.55 2.7H637.8q3.85 0 6.55-2.7 2.7-2.7 2.7-6.55V381.3"/><path fill="#D5D7D2" d="M466.8 381.3l1.5 23.5 7.75 4.2 152.5-.5q-74.05-.45-125.3-13.9-25.65-6.7-36.45-13.3"/><path fill="none" stroke="#1A344F" stroke-width="2.5" stroke-linecap="round" stroke-linejoin="round" d="M637.851 409.051q3.85 0 6.55-2.7 2.7-2.7 2.7-6.55v-18.45h-180.25v18.45q0 3.85 2.7 6.55 2.75 2.7 6.55 2.7h161.75"/><path fill="#E9EDEA" d="M561.601 395.201q0-1.9-1.35-3.3-1.4-1.35-3.3-1.35t-3.25 1.35q-1.35 1.4-1.35 3.3t1.35 3.25q1.35 1.35 3.25 1.35t3.3-1.35q1.35-1.35 1.35-3.25"/><path fill="none" stroke="#1A344F" stroke-width="2.5" stroke-linecap="round" stroke-linejoin="round" d="M561.601 395.201q0-1.9-1.35-3.3-1.4-1.35-3.3-1.35t-3.25 1.35q-1.35 1.4-1.35 3.3t1.35 3.25q1.35 1.35 3.25 1.35t3.3-1.35q1.35-1.35 1.35-3.25"/><path fill="#D8D8D8" d="M575.451 427.551l-4.6-18.5h-27.75l-4.6 18.5h36.95"/><path fill="none" stroke="#1A344F" stroke-width="2.5" stroke-linecap="round" stroke-linejoin="round" d="M575.451 427.551l-4.6-18.5h-27.75l-4.6 18.5h36.95"/><path fill="#C1C1C1" d="M593.951 436.801l-4.65-9.25h-64.7l-4.6 9.25h73.95"/><path fill="none" stroke="#1A344F" stroke-width="2.5" stroke-linecap="round" stroke-linejoin="round" d="M593.951 436.801l-4.65-9.25h-64.7l-4.6 9.25h73.95M25.451 436.801h642.45"/><path fill="#F0B971" d="M154.8 378.95H76.25l11.3 47.15q1.15 4.7 4.9 7.65 3.8 3 8.6 3H130q4.85 0 8.6-3 3.8-2.95 4.9-7.65l11.3-47.15"/><path fill="#E3AA63" d="M143.5 426.1q.05-1.4.3-2.5.161-.643.375-.975-31.157-5.102-48.025-23.975-8.6-9.65-10.75-18.35l-9.15-1.35q7.6 31.65 8.1 39.3.3 4.8 6.45 12.1 3.1 3.7 6.1 6.4h39.05q3.7 0 6-5.3l1.55-5.35M144.175 422.625q.712.117 1.425.225-.885-1.026-1.425-.225"/><path fill="none" stroke="#1A344F" stroke-width="2.5" stroke-linecap="round" stroke-linejoin="round" d="M154.851 379.001h-78.55l11.3 47.15q1.15 4.7 4.9 7.65 3.8 3 8.6 3h28.95q4.85 0 8.6-3 3.8-2.95 4.9-7.65l11.3-47.15"/><path fill="none" stroke="#1A344F" stroke-width="2.5" stroke-linecap="round" stroke-linejoin="round" d="M154.851 379.001h-78.55l11.3 47.15q1.15 4.7 4.9 7.65 3.8 3 8.6 3h28.95q4.85 0 8.6-3 3.8-2.95 4.9-7.65l11.3-47.15"/><path fill="#D0C08E" d="M120.201 268.101h-9.25l-.8 30.8-24.6-12.3v4.6l24.25 20.25-1.15 44.45h13.85l-.7-26.35 23.85-19.85v-4.65l-24.15 12.1-1.3-49.05"/><path fill="none" stroke="#1A344F" stroke-width="2.5" stroke-linecap="round" stroke-linejoin="round" d="M120.201 268.101h-9.25l-.8 30.8-24.6-12.3v4.6l24.25 20.25-1.15 44.45h13.85l-.7-26.35 23.85-19.85v-4.65l-24.15 12.1-1.3-49.05"/><path fill="#99C977" d="M94.201 235.751l-9.8 30.8 48.45 15.45 9.8-30.8-48.45-15.45"/><path fill="#99C977" stroke="#1A344F" stroke-width="2.5" stroke-linecap="round" stroke-linejoin="round" d="M94.201 235.751l-9.8 30.8 48.45 15.45 9.8-30.8-48.45-15.45"/><path fill="#F0B971" d="M115.651 252.251q-2.75-.85-5.3.45t-3.45 4.05q-.85 2.75.45 5.3t4.05 3.45q2.75.85 5.3-.45t3.45-4.05q.85-2.75-.45-5.3t-4.05-3.45"/><path fill="none" stroke="#1A344F" stroke-width="2.5" stroke-linecap="round" stroke-linejoin="round" d="M115.651 252.251q-2.75-.85-5.3.45t-3.45 4.05q-.85 2.75.45 5.3t4.05 3.45q2.75.85 5.3-.45t3.45-4.05q.85-2.75-.45-5.3t-4.05-3.45"/><path fill="none" stroke="#1A344F" stroke-width="2.5" stroke-linecap="round" stroke-linejoin="round" d="M115.651 252.251q-2.75-.85-5.3.45t-3.45 4.05q-.85 2.75.45 5.3t4.05 3.45q2.75.85 5.3-.45t3.45-4.05q.85-2.75-.45-5.3t-4.05-3.45"/><path fill="#99C977" d="M156.401 269.301l27.8-42.55-27.1-17.7-27.8 42.6 27.1 17.65"/><path fill="#99C977" stroke="#1A344F" stroke-width="2.5" stroke-linecap="round" stroke-linejoin="round" d="M156.401 269.301l27.8-42.55-27.1-17.7-27.8 42.6 27.1 17.65"/><path fill="#F0B971" d="M163.551 237.751q-.6-2.75-3-4.35-2.4-1.55-5.2-1-2.8.6-4.4 3-1.55 2.4-1 5.2.6 2.85 3 4.4 2.4 1.6 5.2 1 2.85-.6 4.4-3 1.55-2.45 1-5.25"/><path fill="none" stroke="#1A344F" stroke-width="2.5" stroke-linecap="round" stroke-linejoin="round" d="M163.551 237.751q-.6-2.75-3-4.35-2.4-1.55-5.2-1-2.8.6-4.4 3-1.55 2.4-1 5.2.6 2.85 3 4.4 2.4 1.6 5.2 1 2.85-.6 4.4-3 1.55-2.45 1-5.25"/><path fill="none" stroke="#1A344F" stroke-width="2.5" stroke-linecap="round" stroke-linejoin="round" d="M163.551 237.751q-.6-2.75-3-4.35-2.4-1.55-5.2-1-2.8.6-4.4 3-1.55 2.4-1 5.2.6 2.85 3 4.4 2.4 1.6 5.2 1 2.85-.6 4.4-3 1.55-2.45 1-5.25"/><path fill="#99C977" d="M188.101 323.651l3.15-32.2-50.6-4.95-3.15 32.2 50.6 4.95"/><path fill="#99C977" stroke="#1A344F" stroke-width="2.5" stroke-linecap="round" stroke-linejoin="round" d="M140.6 286.45l-3.15 32.2 50.6 4.95 3.15-32.2-50.6-4.95"/><path fill="#F0B971" d="M165.051 298.201q-2.85-.3-5.05 1.55-2.25 1.8-2.55 4.65-.25 2.9 1.55 5.1 1.85 2.2 4.7 2.5 2.85.25 5.05-1.55 2.25-1.8 2.5-4.7.3-2.85-1.5-5.05-1.85-2.25-4.7-2.5"/><path fill="none" stroke="#1A344F" stroke-width="2.5" stroke-linecap="round" stroke-linejoin="round" d="M165.051 298.201q-2.85-.3-5.05 1.55-2.25 1.8-2.55 4.65-.25 2.9 1.55 5.1 1.85 2.2 4.7 2.5 2.85.25 5.05-1.55 2.25-1.8 2.5-4.7.3-2.85-1.5-5.05-1.85-2.25-4.7-2.5"/><path fill="none" stroke="#1A344F" stroke-width="2.5" stroke-linecap="round" stroke-linejoin="round" d="M165.051 298.201q-2.85-.3-5.05 1.55-2.25 1.8-2.55 4.65-.25 2.9 1.55 5.1 1.85 2.2 4.7 2.5 2.85.25 5.05-1.55 2.25-1.8 2.5-4.7.3-2.85-1.5-5.05-1.85-2.25-4.7-2.5"/><path fill="#99C977" d="M192.051 283.151l-7.3-31.5-49.5 11.5 7.3 31.5 49.5-11.5"/><path fill="#99C977" stroke="#1A344F" stroke-width="2.5" stroke-linecap="round" stroke-linejoin="round" d="M192.051 283.151l-7.3-31.5-49.5 11.5 7.3 31.5 49.5-11.5"/><path fill="#F0B971" d="M162.101 266.401q-2.8.65-4.3 3.1-1.55 2.45-.9 5.25t3.1 4.3q2.45 1.55 5.2.85 2.8-.65 4.35-3.1 1.5-2.4.85-5.2-.65-2.8-3.1-4.3-2.4-1.55-5.2-.9"/><path fill="none" stroke="#1A344F" stroke-width="2.5" stroke-linecap="round" stroke-linejoin="round" d="M162.101 266.401q-2.8.65-4.3 3.1-1.55 2.45-.9 5.25t3.1 4.3q2.45 1.55 5.2.85 2.8-.65 4.35-3.1 1.5-2.4.85-5.2-.65-2.8-3.1-4.3-2.4-1.55-5.2-.9"/><path fill="none" stroke="#1A344F" stroke-width="2.5" stroke-linecap="round" stroke-linejoin="round" d="M162.101 266.401q-2.8.65-4.3 3.1-1.55 2.45-.9 5.25t3.1 4.3q2.45 1.55 5.2.85 2.8-.65 4.35-3.1 1.5-2.4.85-5.2-.65-2.8-3.1-4.3-2.4-1.55-5.2-.9"/><path fill="#99C977" d="M93.601 271.751l2.2-50.8-32.35-1.4-2.15 50.8 32.3 1.4"/><path fill="#99C977" d="M93.55 271.7l2.2-50.8-32.35-1.4-2.15 50.8 32.3 1.4"/><path fill="#87B56A" d="M85.25 270.1l5.8 1.45-27.85-26.6v11.65l22.05 13.5"/><path fill="none" stroke="#1A344F" stroke-width="2.5" stroke-linecap="round" stroke-linejoin="round" d="M93.55 271.7l2.2-50.8-32.35-1.4-2.15 50.8 32.3 1.4"/><path fill="#F0B971" d="M85.451 245.951q.1-2.85-1.8-4.95-1.95-2.15-4.8-2.25-2.9-.15-5 1.8-2.15 1.95-2.25 4.8-.1 2.9 1.85 5 1.9 2.1 4.8 2.25 2.85.1 4.95-1.8 2.15-1.95 2.25-4.85"/><path fill="none" stroke="#1A344F" stroke-width="2.5" stroke-linecap="round" stroke-linejoin="round" d="M85.451 245.951q.1-2.85-1.8-4.95-1.95-2.15-4.8-2.25-2.9-.15-5 1.8-2.15 1.95-2.25 4.8-.1 2.9 1.85 5 1.9 2.1 4.8 2.25 2.85.1 4.95-1.8 2.15-1.95 2.25-4.85"/><path fill="none" stroke="#1A344F" stroke-width="2.5" stroke-linecap="round" stroke-linejoin="round" d="M85.451 245.951q.1-2.85-1.8-4.95-1.95-2.15-4.8-2.25-2.9-.15-5 1.8-2.15 1.95-2.25 4.8-.1 2.9 1.85 5 1.9 2.1 4.8 2.25 2.85.1 4.95-1.8 2.15-1.95 2.25-4.85"/><path fill="#99C977" d="M98.351 278.101l-44.2-25.15-16 28.15 44.2 25.1 16-28.1"/><path fill="#99C977" stroke="#1A344F" stroke-width="2.5" stroke-linecap="round" stroke-linejoin="round" d="M98.351 278.101l-44.2-25.15-16 28.15 44.2 25.1 16-28.1"/><path fill="#F0B971" d="M71.701 273.551q-2.5-1.4-5.25-.65-2.75.8-4.2 3.25-1.45 2.5-.65 5.3.75 2.75 3.25 4.15 2.5 1.45 5.25.65 2.8-.75 4.2-3.25 1.4-2.45.65-5.25-.75-2.75-3.25-4.2"/><path fill="none" stroke="#1A344F" stroke-width="2.5" stroke-linecap="round" stroke-linejoin="round" d="M71.701 273.551q-2.5-1.4-5.25-.65-2.75.8-4.2 3.25-1.45 2.5-.65 5.3.75 2.75 3.25 4.15 2.5 1.45 5.25.65 2.8-.75 4.2-3.25 1.4-2.45.65-5.25-.75-2.75-3.25-4.2"/><path fill="none" stroke="#1A344F" stroke-width="2.5" stroke-linecap="round" stroke-linejoin="round" d="M71.701 273.551q-2.5-1.4-5.25-.65-2.75.8-4.2 3.25-1.45 2.5-.65 5.3.75 2.75 3.25 4.15 2.5 1.45 5.25.65 2.8-.75 4.2-3.25 1.4-2.45.65-5.25-.75-2.75-3.25-4.2"/><path fill="#B8AE8A" d="M113.187 276.35l-.937 2.362 6.969 7.088.031-7.461q-1.5-.466-3.031-.932-3-.964-3.032-1.057M93.15 296.25v-5.328l-2.448-.722-1.552 2.75 4 3.3M137.3 314.229V309.8l-2.952 1.487-1.048 6.263 4-3.321M110.316 348.6l-.397.793-.119 4.957h11l-.04-2.181-10.444-3.569"/><path fill="#87B56A" d="M140.25 257.25l3.95 2.8 19.75-4.7 5.7-8.55-29.4 10.45M131.2 246.35l16.95-26.25-2.9-7.7-16 33.2 1.95.75M97.15 220.4l-.8 14.3 4.05 1.7-.3-19.15H80.4l-1.9 2.9 18.65.25"/><path fill="#F09E49" stroke="#1A344F" stroke-width="2.5" stroke-linecap="round" stroke-linejoin="round" d="M71.701 355.901v23.1h87.8v-23.1h-87.8"/><path fill="none" stroke="#1A344F" stroke-width="5" stroke-linecap="round" stroke-linejoin="round" d="M71.65 355.85v23.1h87.8v-23.1h-87.8"/><path fill="#F09E49" d="M71.65 355.85v23.1h87.8v-23.1h-87.8"/><path fill="#E29138" d="M84.35 355.85h-12.7v23.1h60.45q-24.45-1.85-38.55-12.65-7.05-5.4-9.2-10.45"/><path fill="none" stroke="#1A344F" stroke-width="2.5" stroke-linecap="round" stroke-linejoin="round" d="M71.701 365.151h87.8"/><path fill="#43566B" d="M400.15 344.05l-32.7-13.6h-41.6l-34.55 13.8q-10.55 4.2-16.9 13.6-6.35 9.4-6.35 20.75v58.15H422.9V378.2q0-11.2-6.2-20.5-6.25-9.35-16.55-13.65"/><path fill="#3A495E" d="M275.7 355.8q-3.35 4.8-5.1 9.3l-1 71.65h56.25q.5-4.85.75-9.75.5-9.75-.75-9.75-17.35-3.45-28.25-38.35-5.45-17.45-7.4-34.2-7.85 1.55-14.5 11.1"/><path fill="none" stroke="#1A344F" stroke-width="2.5" stroke-linecap="round" stroke-linejoin="round" d="M400.15 344.05l-32.7-13.6h-41.6l-34.55 13.8q-10.55 4.2-16.9 13.6-6.35 9.4-6.35 20.75v58.15H422.9V378.2q0-11.2-6.2-20.5-6.25-9.35-16.55-13.65"/><path fill="none" stroke="#1A344F" stroke-width="2.5" stroke-linecap="round" stroke-linejoin="round" d="M416.751 357.751q-6.25-9.35-16.55-13.65l-32.7-13.6h-41.6l-34.55 13.8q-10.55 4.2-16.9 13.6-6.35 9.4-6.35 20.75v58.15h154.85v-58.55q0-11.2-6.2-20.5"/><path fill="#FFF" d="M367.501 330.501l-9.25-9.25h-23.15l-9.2 9.25v106.3h41.6v-106.3"/><path fill="#E4E5E0" d="M325.85 436.75h6.9l-6.9-106.3v106.3M360.5 436.75h6.95v-106.3l-6.95 106.3M344.3 346.6l-.15 2.35-9.1 67.6 10.4 10.95 8.1-9.25-9.25-71.65"/><path fill="none" stroke="#1A344F" stroke-width="2.5" stroke-linecap="round" stroke-linejoin="round" d="M367.501 330.501l-9.25-9.25h-23.15l-9.2 9.25v106.3h41.6v-106.3"/><path fill="#EAB091" d="M358.2 321.2v-11.55h-23.15v11.55q0 4.8 3.4 8.2 3.4 3.35 8.2 3.35 4.75 0 8.15-3.35 3.4-3.4 3.4-8.2"/><path fill="#D69E7B" d="M357.15 313.35l-21.15.9v11.5l21.15-12.4"/><path fill="none" stroke="#1A344F" stroke-width="2.5" stroke-linecap="round" stroke-linejoin="round" d="M338.501 329.451q3.4 3.35 8.2 3.35 4.75 0 8.15-3.35 3.4-3.4 3.4-8.2v-11.55h-23.15v11.55q0 4.8 3.4 8.2"/><path fill="none" stroke="#1A344F" stroke-width="2.5" stroke-linecap="round" stroke-linejoin="round" d="M338.501 329.451q3.4 3.35 8.2 3.35 4.75 0 8.15-3.35 3.4-3.4 3.4-8.2v-11.55h-23.15v11.55q0 4.8 3.4 8.2"/><path fill="#9A7254" d="M397.501 235.751q0-21.05-14.9-35.95-14.85-14.9-35.9-14.9-21.05 0-35.95 14.9-14.9 14.9-14.9 35.95 0 21.05 14.9 35.95 14.9 14.9 35.95 14.9 21.05 0 35.9-14.9 14.9-14.9 14.9-35.95"/><path fill="none" stroke="#1A344F" stroke-width="2.5" stroke-linecap="round" stroke-linejoin="round" d="M397.501 235.751q0-21.05-14.9-35.95-14.85-14.9-35.9-14.9-21.05 0-35.95 14.9-14.9 14.9-14.9 35.95 0 21.05 14.9 35.95 14.9 14.9 35.95 14.9 21.05 0 35.9-14.9 14.9-14.9 14.9-35.95"/><path fill="none" stroke="#1A344F" stroke-width="2.5" stroke-linecap="round" stroke-linejoin="round" d="M397.501 235.751q0-21.05-14.9-35.95-14.85-14.9-35.9-14.9-21.05 0-35.95 14.9-14.9 14.9-14.9 35.95 0 21.05 14.9 35.95 14.9 14.9 35.95 14.9 21.05 0 35.9-14.9 14.9-14.9 14.9-35.95"/><path fill="#EE9872" d="M313.451 285.501q3.4-3.4 3.4-8.15 0-4.8-3.4-8.15-3.4-3.4-8.2-3.4-4.75 0-8.15 3.4-3.4 3.35-3.4 8.15 0 4.75 3.4 8.15 3.4 3.4 8.15 3.4 4.8 0 8.2-3.4"/><path fill="#EAB091" stroke="#1A344F" stroke-width="2.5" stroke-linecap="round" stroke-linejoin="round" d="M312.451 285.501q3.4-3.4 3.4-8.15 0-4.8-3.4-8.15-3.4-3.4-8.2-3.4-4.75 0-8.15 3.4-3.4 3.35-3.4 8.15 0 4.75 3.4 8.15 3.4 3.4 8.15 3.4 4.8 0 8.2-3.4"/><path fill="#EE9872" d="M397.401 285.501q3.35-3.4 3.35-8.15 0-4.8-3.35-8.15-3.4-3.4-8.2-3.4-4.75 0-8.15 3.4-3.4 3.35-3.4 8.15 0 4.75 3.4 8.15 3.4 3.4 8.15 3.4 4.8 0 8.2-3.4"/><path fill="#EAB091" stroke="#1A344F" stroke-width="2.5" stroke-linecap="round" stroke-linejoin="round" d="M397.401 285.501q3.35-3.4 3.35-8.15 0-4.8-3.35-8.15-3.4-3.4-8.2-3.4-4.75 0-8.15 3.4-3.4 3.35-3.4 8.15 0 4.75 3.4 8.15 3.4 3.4 8.15 3.4 4.8 0 8.2-3.4"/><path fill="#EAB091" d="M388.2 240.3q0-11.45-8.1-19.6-8.1-8.1-19.6-8.1h-27.75q-11.45 0-19.6 8.1-8.1 8.15-8.1 19.6v.675q-2.185 8.694-1 21.225.328 3.634 1 8.025v2.425q0 9.506 3.7 17.475l.9 4.475q16.918 21.013 38.25 19.625 16.396-.419 28.15-12.125 12.15-12.2 12.15-29.45V240.3"/><path fill="#D49E84" d="M347.9 314.225q2.373-.145 4.8-.575 12.15-2.15 20.5-9-45.85.25-59.3-36.75-4.2-11.55-4.65-25.45-.2-6.95.4-11.6-3.097 4.157-4.6 10.125-2.185 8.694-1 21.225.328 3.634 1 8.025.659 4.323 1.65 9.375.788 4.166 2.05 10.525l.9 4.475q16.918 21.013 38.25 19.625"/><path fill="none" stroke="#1A344F" stroke-width="2.5" stroke-linecap="round" stroke-linejoin="round" d="M388.251 272.701v-32.35q0-11.45-8.1-19.6-8.1-8.1-19.6-8.1h-27.75q-11.45 0-19.6 8.1-8.1 8.15-8.1 19.6v32.35q0 17.25 12.2 29.45 12.15 12.15 29.4 12.15 17.2 0 29.4-12.15 12.15-12.2 12.15-29.45"/><path fill="none" stroke="#1A344F" stroke-width="2.5" stroke-linecap="round" stroke-linejoin="round" d="M388.251 272.701v-32.35q0-11.45-8.1-19.6-8.1-8.1-19.6-8.1h-27.75q-11.45 0-19.6 8.1-8.1 8.15-8.1 19.6v32.35q0 17.25 12.2 29.45 12.15 12.15 29.4 12.15 17.2 0 29.4-12.15 12.15-12.2 12.15-29.45"/><path fill="none" stroke="#1A344F" stroke-width="2.5" stroke-linecap="round" stroke-linejoin="round" d="M341.101 273.701q-1.35-1.4-1.35-3.3m1.35 3.3q1.35 1.35 3.25 1.35h4.65q1.9 0 3.25-1.35 1.35-1.4 1.35-3.3"/><path fill="#9A7254" d="M356.35 189.55q-11.9-7-25.8-7-8.478 0-16.25 2.65-3.914 1.34-7.65 3.35-10.8 5.75-17.85 15.85-1.1 1.6-1.1 3.55 0 2 1.1 3.55 7.05 10.15 17.85 15.9 11.15 6 23.9 6 13.9 0 25.8-7 11.55-6.85 18.25-18.45-6.7-11.6-18.25-18.4"/><path fill="#90694A" d="M327.4 232.05q12.2 1.1 21.35-2-27.6-7.25-33.8-26.75-3.1-9.8-.65-18.1-14.6 7.25-22 16.25-3.7 4.5-4.5 7.55 15.2 20.9 39.6 23.05"/><path fill="none" stroke="#1A344F" stroke-width="2.5" stroke-linecap="round" stroke-linejoin="round" d="M330.601 182.601q-12.75 0-23.9 6-10.8 5.75-17.85 15.85-1.1 1.6-1.1 3.55 0 2 1.1 3.55 7.05 10.15 17.85 15.9 11.15 6 23.9 6 13.9 0 25.8-7 11.55-6.85 18.25-18.45-6.7-11.6-18.25-18.4-11.9-7-25.8-7"/><path fill="none" stroke="#1A344F" stroke-width="2.5" stroke-linecap="round" stroke-linejoin="round" d="M330.601 182.601q-12.75 0-23.9 6-10.8 5.75-17.85 15.85-1.1 1.6-1.1 3.55 0 2 1.1 3.55 7.05 10.15 17.85 15.9 11.15 6 23.9 6 13.9 0 25.8-7 11.55-6.85 18.25-18.45m-44.05-25.4q9.95 0 19.1 3.7 8.85 3.6 15.8 10.15"/><path fill="#E55A3E" d="M351.301 332.801h-9.25l-2.3 6.95 4.6 6.9h4.65l4.6-6.9-2.3-6.95"/><path fill="#E66C6C" stroke="#1A344F" stroke-width="2.5" stroke-linecap="round" stroke-linejoin="round" d="M351.301 332.801h-9.25l-2.3 6.95 4.6 6.9h4.65l4.6-6.9-2.3-6.95"/><path fill="#E55A3E" d="M349.001 346.651h-4.65l-4.6 67.05 6.95 6.9 6.9-6.9-4.6-67.05"/><path fill="#E66C6C" stroke="#1A344F" stroke-width="2.5" stroke-linecap="round" stroke-linejoin="round" d="M349.001 346.651h-4.65l-4.6 67.05 6.95 6.9 6.9-6.9-4.6-67.05"/><path fill="none" stroke="#1A344F" stroke-width="2.5" stroke-linecap="round" stroke-linejoin="round" d="M399.851 436.801v-48.55M291.201 436.801v-48.55M312.001 369.751l-9.25 4.65 13.9 48.5m-4.65-53.15l-9.25-9.2 9.25-11.55M381.351 369.751l9.25 4.65-13.9 48.5m4.65-53.15l9.25-9.2-9.25-11.55M362.351 205.601q1.7 1.75 2.8 3.2M343.751 192.751q7.6 3.15 14.1 8.65m-14.1-8.65l-6.3-2.05"/><path fill="#B4DEEF" d="M433.2 136.3q-23.2-46-66.9-73.45-44.95-28.2-98.25-28.2-36.593 0-69.225 13.3.537-.182 1.075-.35-15.8 10.35-32.55 25.7-33.5 30.65-38.1 55.5l-24.1 3.3q10-16.85 26.85-35.85 14.012-15.8 28.1-26.875-36.607 26.193-57.15 66.925H433.2"/><path fill="#A0C9DB" d="M199.9 47.6q-.538.168-1.075.35-19.438 6.294-38.725 21.425Q146.012 80.45 132 96.25q-16.85 19-26.85 35.85l24.1-3.3q4.6-24.85 38.1-55.5 16.75-15.35 32.55-25.7"/><path fill="none" stroke="#1A344F" stroke-width="2.5" stroke-linecap="round" stroke-linejoin="round" d="M366.351 62.901q-44.95-28.2-98.25-28.2t-98.2 28.2q-43.7 27.45-66.9 73.45h330.25q-23.2-46-66.9-73.45"/><path fill="none" stroke="#1A344F" stroke-width="2.5" stroke-linecap="round" stroke-linejoin="round" d="M433.2 136.3q-23.2-46-66.9-73.45-44.95-28.2-98.25-28.2t-98.2 28.2q-43.7 27.45-66.9 73.45H433.2"/><path fill="#7AC7EE" d="M272.201 34.751h-8.2q-41.4 1.4-76.05 29.45-33.8 27.3-51.95 72.15h264.2q-18.1-44.8-51.9-72.15-34.7-28.05-76.1-29.45"/><path fill="none" stroke="#1A344F" stroke-width="2.5" stroke-linecap="round" stroke-linejoin="round" d="M400.15 136.3q-18.1-44.8-51.9-72.15-34.7-28.05-76.1-29.45h-8.2q-41.4 1.4-76.05 29.45-33.8 27.3-51.95 72.15h264.2"/><path fill="#B4DEEF" d="M268.101 34.701q-14 0-25.8 28.2-11.45 27.45-17.55 73.45h86.7q-6.1-46-17.55-73.45-11.8-28.2-25.8-28.2"/><path fill="none" stroke="#1A344F" stroke-width="2.5" stroke-linecap="round" stroke-linejoin="round" d="M268.101 34.701q-14 0-25.8 28.2-11.45 27.45-17.55 73.45h86.7q-6.1-46-17.55-73.45-11.8-28.2-25.8-28.2"/><path fill="none" stroke="#1A344F" stroke-width="2.5" stroke-linecap="round" stroke-linejoin="round" d="M268.101 34.701q-14 0-25.8 28.2-11.45 27.45-17.55 73.45h86.7q-6.1-46-17.55-73.45-11.8-28.2-25.8-28.2"/><path fill="#7FB6D8" d="M384.9 146.15q48.4-4.1 48.4-9.85t-48.4-9.8q-48.4-4.05-116.85-4.05-7.421 0-14.6.05-21.667.597-41.4 3.95-40.468 6.925-31 21.725 38.415 2.025 87 2.025 68.5 0 116.85-4.05"/><path fill="#71A7C9" d="M181.05 148.175q-9.468-14.8 31-21.725 19.733-3.353 41.4-3.95.945-.029 1.9-.05l3.45-1.15q-27.455.748-50.55 1.95l-33.85 1.725q-9.447.784-17.9 1.525-45.5 4-53.65 9.8 0 .604.525 1.2 3.963 2.83 33.125 6.45 4.083.51 33.725 3.6 5.188.53 11.175 1.15-.187-.27-.35-.525"/><path fill="#7FB6D8" d="M136.5 143.95q4.083.51 33.725 3.6-9.855-.635-18.975-1.4-43.317-3.67-47.875-8.65 3.963 2.83 33.125 6.45M102.85 136.3q8.15-5.8 53.65-9.8 8.453-.741 17.9-1.525-12.099.599-23.15 1.525-48.4 4.05-48.4 9.8"/><path fill="none" stroke="#1A344F" stroke-width="2.5" stroke-linecap="round" stroke-linejoin="round" d="M433.351 136.351q0-5.75-48.4-9.8-48.4-4.05-116.85-4.05-68.45 0-116.8 4.05-48.4 4.05-48.4 9.8 0 5.75 48.4 9.85 48.3 4.05 116.8 4.05t116.85-4.05q48.4-4.1 48.4-9.85"/><path fill="#FFF" d="M272.751 122.501h-9.25v281.95h9.25v-281.95"/><path fill="#D0C08E" d="M272.7 122.45h-9.25V404.4h9.25V122.45"/><path fill="#EAB091" d="M263.501 404.451q-3.8 0-6.55 2.7-2.7 2.75-2.7 6.55v13.85q0 3.85 2.7 6.55 2.75 2.7 6.55 2.7h9.25q3.8 0 6.5-2.7t2.7-6.55v-13.85q0-3.85-2.7-6.55-2.7-2.7-6.5-2.7h-9.25"/><path fill="none" stroke="#1A344F" stroke-width="2.5" stroke-linecap="round" stroke-linejoin="round" d="M263.501 404.451q-3.8 0-6.55 2.7-2.7 2.75-2.7 6.55v13.85q0 3.85 2.7 6.55 2.75 2.7 6.55 2.7h9.25q3.8 0 6.5-2.7t2.7-6.55v-13.85q0-3.85-2.7-6.55-2.7-2.7-6.5-2.7h-9.25"/><path fill="#C4B07B" d="M272.7 395.15q-7-3.7-8.5-84.55l-.75 93.8h9.25v-9.25M263.75 257.15q0 30 .45 53.45l1.4-186.85q-1.85 66.7-1.85 133.4"/><path fill="#D09478" d="M280.95 423.7q-.496-5.507.925-5.45-15.229-.955-20.025-7.5-2.4-3.25-1.75-6.35-5.15 2.15-5.8 5.75.1 5.6-.1 10.4-.25 6.05 1.7 11.7.95 2.85 1.95 4.5h14.85l5.3-1.7 3.75-5.75q-.55-2.8-.8-5.6"/><path fill="none" stroke="#1A344F" stroke-width="2.5" stroke-linecap="round" stroke-linejoin="round" d="M272.751 404.451h-9.25q-3.8 0-6.55 2.7-2.7 2.75-2.7 6.55v13.85q0 3.85 2.7 6.55 2.75 2.7 6.55 2.7h9.25q3.8 0 6.5-2.7t2.7-6.55v-13.85q0-3.85-2.7-6.55-2.7-2.7-6.5-2.7M272.7 122.45h-9.25V404.4h9.25V122.45"/><path fill="#D0C08E" d="M277.351 34.701q0-3.8-2.7-6.55-2.7-2.7-6.55-2.7-3.8 0-6.55 2.7-2.7 2.75-2.7 6.55 0 3.85 2.7 6.55 2.75 2.7 6.55 2.7 3.85 0 6.55-2.7 2.7-2.7 2.7-6.55"/><path fill="none" stroke="#1A344F" stroke-width="2.5" stroke-linecap="round" stroke-linejoin="round" d="M277.351 34.701q0-3.8-2.7-6.55-2.7-2.7-6.55-2.7-3.8 0-6.55 2.7-2.7 2.75-2.7 6.55 0 3.85 2.7 6.55 2.75 2.7 6.55 2.7 3.85 0 6.55-2.7 2.7-2.7 2.7-6.55"/><use xlink:href="#f" transform="matrix(1 0 0 .611 346.6 284)"><animateTransform attributeName="transform" additive="replace" type="translate" repeatCount="indefinite" dur="4.4s" keyTimes="0;0.238;0.239;0.25;0.251;0.261;0.262;0.273;0.274;0.284;0.285;0.875;0.876;0.886;0.887;0.898;0.899;0.909;0.91;1" values="346.6,283.787;346.6,283.787;346.6,283.81;346.6,283.81;346.6,283.783;346.6,283.783;346.6,283.798;346.6,283.798;346.6,283.778;346.6,283.778;346.6,283.801;346.6,283.801;346.65,283.795;346.65,283.795;346.6,283.819;346.6,283.819;346.65,283.782;346.65,283.782;346.6,283.787;346.6,283.787" calcMode="discrete"/><animateTransform attributeName="transform" additive="sum" type="scale" repeatCount="indefinite" dur="4.4s" keyTimes="0;0.238;0.239;0.25;0.251;0.261;0.262;0.273;0.274;0.284;0.285;0.875;0.876;0.886;0.887;0.898;0.899;0.909;0.91;1" values="1,0.611;1,0.611;1.026,0.688;1.026,0.688;1.052,0.766;1.052,0.766;1.078,0.844;1.078,0.844;1.103,0.922;1.103,0.922;1.129,1;1.129,1;1.097,0.903;1.097,0.903;1.065,0.805;1.065,0.805;1.032,0.708;1.032,0.708;1,0.611;1,0.611" calcMode="discrete"/><animateTransform attributeName="transform" additive="sum" type="translate" repeatCount="indefinite" dur="4.4s" keyTimes="0;0.261;0.262;0.273;0.274;0.284;0.285;0.875;0.876;0.886;0.887;0.898;0.899;0.909;0.91;1" values="0,0.349;0,0.349;0,0.299;0,0.299;0,0.349;0,0.349;0,0.399;0,0.399;0,0.449;0,0.449;0,0.349;0,0.349;0,0.449;0,0.449;0,0.349;0,0.349" calcMode="discrete"/></use><use xlink:href="#g" transform="translate(362.5 261.15)"><animateTransform attributeName="transform" additive="replace" type="translate" repeatCount="indefinite" dur="4.4s" keyTimes="0;0.477;0.478;0.488;0.489;0.5;0.501;0.511;0.512;0.534;0.535;0.545;0.546;0.557;0.558;0.568;0.569;1" values="346.601,260.401;346.601,260.401;346.601,260.377;346.601,260.377;346.601,260.402;346.601,260.402;346.601,260.398;346.601,260.398;346.601,260.4;346.601,260.4;346.601,260.398;346.601,260.398;346.601,260.402;346.601,260.402;346.601,260.388;346.601,260.388;346.601,260.401;346.601,260.401" calcMode="discrete"/><animateTransform attributeName="transform" additive="sum" type="scale" repeatCount="indefinite" dur="4.4s" keyTimes="0;0.477;0.478;0.488;0.489;0.5;0.501;0.511;0.512;0.534;0.535;0.545;0.546;0.557;0.558;0.568;0.569;1" values="1,1;1,1;1,0.766;1,0.766;1,0.531;1,0.531;1,0.296;1,0.296;1,0.062;1,0.062;1,0.296;1,0.296;1,0.531;1,0.531;1,0.765;1,0.765;1,1;1,1" calcMode="discrete"/><animateTransform attributeName="transform" additive="sum" type="translate" repeatCount="indefinite" dur="4.4s" keyTimes="0;0.5;0.501;0.511;0.512;0.523;0.524;0.534;0.535;0.545;0.546;0.557;0.558;0.568;0.569;1" values="15.899,0.749;15.899,0.749;15.899,0.849;15.899,0.849;15.849,0.799;15.849,0.799;15.799,0.799;15.799,0.799;15.799,0.849;15.799,0.849;15.799,0.749;15.799,0.749;15.799,0.799;15.799,0.799;15.749,0.749;15.749,0.749" calcMode="discrete"/></use><use xlink:href="#h" transform="translate(251.5 46)"/></g></svg>