<svg xmlns:xlink="http://www.w3.org/1999/xlink" baseProfile="basic" width="695" height="469" viewBox="0 0 695 469" preserveAspectRatio="xMinYMin meet" xmlns="http://www.w3.org/2000/svg"><defs><symbol id="a" overflow="visible"><path fill="#99C977" stroke="#1A344F" stroke-width="2.5" stroke-linecap="round" stroke-linejoin="round" d="M-20.899 2.101v-9.95h-28.95v9.95h28.95"/></symbol><symbol id="b" overflow="visible"><path fill="#EE9872" d="M.051-11.049h-8.4v15.6h8.4v-15.6"/></symbol><symbol id="c" overflow="visible"><path fill="none" stroke="#1A344F" stroke-width="2.5" stroke-linecap="round" stroke-linejoin="round" d="M.051-11.049h-8.4v15.6h8.4v-15.6"/></symbol><symbol id="d" overflow="visible"><path fill="#99C977" d="M8.501 4.551v-15.6H.051v15.6h8.45"/></symbol><symbol id="e" overflow="visible"><path fill="none" stroke="#1A344F" stroke-width="2.5" stroke-linecap="round" stroke-linejoin="round" d="M8.501 4.551v-15.6H.051v15.6h8.45"/></symbol><symbol id="f" overflow="visible"><path fill="#E35A5A" d="M16.901-11.049h-8.4v15.6h8.4v-15.6"/></symbol><symbol id="g" overflow="visible"><path fill="none" stroke="#1A344F" stroke-width="2.5" stroke-linecap="round" stroke-linejoin="round" d="M16.901-11.049h-8.4v15.6h8.4v-15.6"/></symbol><symbol id="h" overflow="visible"><path fill="#7A7C7C" d="M48.351 11.201l9.05-9.05h-114.65l9.05 9.05h96.55"/></symbol><symbol id="i" overflow="visible"><path fill="none" stroke="#1A344F" stroke-width="2.5" stroke-linecap="round" stroke-linejoin="round" d="M48.351 11.201l9.05-9.05h-114.65l9.05 9.05h96.55"/></symbol><symbol id="N" overflow="visible"><use xlink:href="#a"/><use xlink:href="#b"/><use xlink:href="#c"/><use xlink:href="#d"/><use xlink:href="#e"/><use xlink:href="#f"/><use xlink:href="#g"/><use xlink:href="#h"/><use xlink:href="#i"/></symbol><symbol id="j" overflow="visible"><path fill="#F9F9F9" d="M-52.199 8.501q.45 1.4 2.15 1.4h53.1q1.45 0 2.65-.8 1.15-.75 1.7-2l8.55-16.85h-9.65L-3.849.401h-36.55q-2.7 0-7 1.4-5 1.6-5 3.35 0 2.7.2 3.35"/></symbol><symbol id="k" overflow="visible"><path fill="none" stroke="#1A344F" stroke-width="2.5" stroke-linecap="round" stroke-linejoin="round" d="M-52.199 8.501q.45 1.4 2.15 1.4h53.1q1.45 0 2.65-.8 1.15-.75 1.7-2l8.55-16.85h-9.65L-3.849.401h-36.55q-2.7 0-7 1.4-5 1.6-5 3.35 0 2.7.2 3.35"/></symbol><symbol id="l" overflow="visible"><path fill="none" stroke="#1A344F" stroke-width="2.5" stroke-linecap="round" stroke-linejoin="round" d="M-6.649 4.851v1.1"/></symbol><symbol id="m" overflow="visible"><path fill="none" stroke="#1A344F" stroke-width="2.5" stroke-linecap="round" stroke-linejoin="round" d="M-14.049 4.851v1.1"/></symbol><symbol id="n" overflow="visible"><path fill="none" stroke="#1A344F" stroke-width="2.5" stroke-linecap="round" stroke-linejoin="round" d="M-21.449 4.851v1.1"/></symbol><symbol id="o" overflow="visible"><path fill="none" stroke="#1A344F" stroke-width="2.5" stroke-linecap="round" stroke-linejoin="round" d="M-28.899 4.851v1.1"/></symbol><symbol id="p" overflow="visible"><path fill="#7AC7EE" d="M-40.399 4.751V.401l-12 4.35h12"/></symbol><symbol id="q" overflow="visible"><path fill="none" stroke="#1A344F" stroke-width="2.5" stroke-linecap="round" stroke-linejoin="round" d="M-40.399 4.751h-12m12 0V.401"/></symbol><symbol id="r" overflow="visible"><path fill="none" stroke="#1A344F" stroke-width="2.5" stroke-linecap="round" stroke-linejoin="round" d="M13.701-5.349h-5.5"/></symbol><symbol id="s" overflow="visible"><path fill="none" stroke="#1A344F" stroke-width="2.5" stroke-linecap="round" stroke-linejoin="round" d="M52.501-2.149h-23"/></symbol><symbol id="t" overflow="visible"><path fill="none" stroke="#1A344F" stroke-width="2.5" stroke-linecap="round" stroke-linejoin="round" d="M41.001 2.951h-23.05"/></symbol><symbol id="M" overflow="visible"><use xlink:href="#j"/><use xlink:href="#k"/><use xlink:href="#l"/><use xlink:href="#m"/><use xlink:href="#n"/><use xlink:href="#o"/><use xlink:href="#p"/><use xlink:href="#q"/><use xlink:href="#r"/><use xlink:href="#s"/><use xlink:href="#t"/></symbol><symbol id="u" overflow="visible"><path fill="#A1A8A7" d="M-18.899-7.899v15.95h29.2v-15.95h-29.2"/></symbol><symbol id="v" overflow="visible"><path fill="none" stroke="#1A344F" stroke-width="2.5" stroke-linecap="round" stroke-linejoin="round" d="M-18.899-7.899v15.95h29.2v-15.95h-29.2"/></symbol><symbol id="w" overflow="visible"><path fill="#EE9872" d="M19.001 8.051v-11.3h-8.7v11.3h8.7"/></symbol><symbol id="x" overflow="visible"><path fill="none" stroke="#1A344F" stroke-width="2.5" stroke-linecap="round" stroke-linejoin="round" d="M19.001 8.051v-11.3h-8.7v11.3h8.7"/></symbol><symbol id="K" overflow="visible"><use xlink:href="#u"/><use xlink:href="#v"/><use xlink:href="#w"/><use xlink:href="#x"/></symbol><symbol id="y" overflow="visible"><path fill="#386D7F" d="M47.501 1.801q-4.3-1.4-7-1.4H3.951l-10.2-10.2h-9.6l8.55 16.9q.55 1.25 1.7 2 1.2.8 2.6.8h53.15q1.75 0 2.15-1.4.2-.65.2-3.35 0-1.75-5-3.35"/></symbol><symbol id="z" overflow="visible"><path fill="none" stroke="#417F9B" stroke-linecap="round" stroke-linejoin="round" d="M47.501 1.801q-4.3-1.4-7-1.4H3.951l-10.2-10.2h-9.6l8.55 16.9q.55 1.25 1.7 2 1.2.8 2.6.8h53.15q1.75 0 2.15-1.4.2-.65.2-3.35 0-1.75-5-3.35"/></symbol><symbol id="A" overflow="visible"><path fill="none" stroke="#1A344F" stroke-width="2.5" stroke-linecap="round" stroke-linejoin="round" d="M47.501 1.801q-4.3-1.4-7-1.4H3.951l-10.2-10.2h-9.6l8.55 16.9q.55 1.25 1.7 2 1.2.8 2.6.8h53.15q1.75 0 2.15-1.4.2-.65.2-3.35 0-1.75-5-3.35"/></symbol><symbol id="B" overflow="visible"><path fill="none" stroke="#1A344F" stroke-width="2.5" stroke-linecap="round" stroke-linejoin="round" d="M6.701 4.801v1.15"/></symbol><symbol id="C" overflow="visible"><path fill="none" stroke="#1A344F" stroke-width="2.5" stroke-linecap="round" stroke-linejoin="round" d="M14.151 4.801v1.15"/></symbol><symbol id="D" overflow="visible"><path fill="none" stroke="#1A344F" stroke-width="2.5" stroke-linecap="round" stroke-linejoin="round" d="M21.551 4.801v1.15"/></symbol><symbol id="E" overflow="visible"><path fill="none" stroke="#1A344F" stroke-width="2.5" stroke-linecap="round" stroke-linejoin="round" d="M28.951 4.801v1.15"/></symbol><symbol id="F" overflow="visible"><path fill="#7AC7EE" d="M52.501 4.751l-12-4.35v4.35h12"/></symbol><symbol id="G" overflow="visible"><path fill="none" stroke="#1A344F" stroke-width="2.5" stroke-linecap="round" stroke-linejoin="round" d="M40.501 4.751h12m-12 0V.401"/></symbol><symbol id="H" overflow="visible"><path fill="none" stroke="#1A344F" stroke-width="2.5" stroke-linecap="round" stroke-linejoin="round" d="M-13.599-5.399h5.5"/></symbol><symbol id="I" overflow="visible"><path fill="none" stroke="#1A344F" stroke-width="2.5" stroke-linecap="round" stroke-linejoin="round" d="M-52.399-2.149h23"/></symbol><symbol id="J" overflow="visible"><path fill="none" stroke="#1A344F" stroke-width="2.5" stroke-linecap="round" stroke-linejoin="round" d="M-40.899 2.901h23"/></symbol><symbol id="L" overflow="visible"><use xlink:href="#y"/><use xlink:href="#z"/><use xlink:href="#A"/><use xlink:href="#B"/><use xlink:href="#C"/><use xlink:href="#D"/><use xlink:href="#E"/><use xlink:href="#F"/><use xlink:href="#G"/><use xlink:href="#H"/><use xlink:href="#I"/><use xlink:href="#J"/></symbol></defs><g overflow="visible"><path fill="#417F9B" d="M701.801 473.901V.051h-354.05v473.85h354.05"/><path fill="#F9F9F9" d="M-4.599.051v473.85h354.05V.051H-4.599"/><g><use xlink:href="#K" transform="translate(136.7 338.05)"><animateTransform attributeName="transform" additive="replace" type="translate" dur="4.95s" keyTimes="0;1" values="0,0;0,0" fill="freeze"/><animateTransform attributeName="transform" additive="sum" type="translate" repeatCount="indefinite" dur="4.95s" keyTimes="0;0.01;0.02;0.03;0.04;0.051;0.061;0.071;0.081;0.091;0.101;0.111;0.121;0.131;0.141;0.152;0.162;0.172;0.182;0.192;0.202;0.212;0.222;0.232;0.242;0.253;0.263;0.273;0.283;0.292;0.293;1" values="136.7,338.05;143.65,338.05;150.6,338.05;157.6,338.05;164.55,338.05;171.5,338.05;178.45,338.05;185.4,338.05;192.4,338.05;199.35,338.05;206.3,338.05;213.25,338.05;220.2,338.05;227.15,338.05;234.15,338.05;241.1,338.05;248.05,338.05;255,338.05;261.95,338.05;268.95,338.05;275.9,338.05;282.85,338.05;289.8,338.05;296.75,338.05;303.75,338.05;310.7,338.05;317.65,338.05;324.6,338.05;331.55,338.05;338.55,338.05;0;0" calcMode="discrete"/><animateTransform attributeName="transform" additive="sum" type="translate" repeatCount="indefinite" dur="4.95s" keyTimes="0;0.293;0.303;0.313;0.323;0.333;0.343;0.354;0.364;0.374;0.384;0.394;0.404;0.414;0.424;0.434;0.444;0.455;0.465;0.475;1" values="0;338.55,338.05;345.5,338.05;352.45,338.05;359.4,338.05;366.35,338.05;373.35,338.05;380.3,338.05;387.25,338.05;394.2,338.05;401.15,338.05;408.1,338.05;415.1,338.05;422.05,338.05;429,338.05;435.95,338.05;442.9,338.05;449.9,338.05;456.85,338.05;463.8,338.05;463.8,338.05" calcMode="discrete"/></use><animate attributeName="display" repeatCount="indefinite" dur="4.95s" keyTimes="0;0.495;1" values="inline;none;none"/></g><g style="display:none"><use xlink:href="#L" transform="translate(-80.399 36.8)"><animateTransform attributeName="transform" additive="replace" type="translate" dur="4.95s" keyTimes="0;1" values="0,0;0,0" fill="freeze"/><animateTransform attributeName="transform" additive="sum" type="translate" repeatCount="indefinite" dur="4.95s" keyTimes="0;0.051;0.061;0.071;0.081;0.091;0.101;0.111;0.121;0.131;0.141;0.152;0.162;0.172;0.182;0.192;0.202;0.212;0.222;0.232;0.242;0.253;0.263;0.273;0.283;0.293;0.303;0.313;0.323;0.332;0.333;1" values="-80.399,36.8;-80.399,36.8;-60.449,36.8;-40.449,36.8;-20.449,36.8;-0.499,36.8;19.45,36.8;39.45,36.8;59.45,36.8;79.4,36.8;99.4,36.8;119.35,36.8;139.35,36.8;159.3,36.8;179.3,36.8;199.25,36.8;219.25,36.8;239.2,36.8;259.2,36.8;279.15,36.8;299.15,36.8;319.1,36.8;339.1,36.8;359.05,36.8;379.05,36.8;399,36.8;419,36.8;438.95,36.8;458.95,36.8;478.9,36.8;0;0" calcMode="discrete"/><animateTransform attributeName="transform" additive="sum" type="translate" repeatCount="indefinite" dur="4.95s" keyTimes="0;0.333;0.343;0.354;0.364;0.374;0.384;0.394;0.404;0.414;0.424;0.434;0.444;0.455;0.465;0.475;0.485;1" values="0;478.9,36.8;498.9,36.8;518.85,36.8;538.85,36.8;558.8,36.8;578.8,36.8;598.75,36.8;618.75,36.8;638.7,36.8;658.7,36.8;678.7,36.8;698.65,36.8;718.65,36.8;738.6,36.8;758.6,36.8;778.55,36.8;778.55,36.8" calcMode="discrete"/></use><animate attributeName="display" repeatCount="indefinite" dur="4.95s" keyTimes="0;0.051;0.505;1" values="none;inline;none;none"/></g><g style="display:none"><use xlink:href="#K" transform="matrix(-1 0 0 1 465 338.05)"><animateTransform attributeName="transform" additive="replace" type="translate" dur="4.95s" keyTimes="0;1" values="0,0;0,0" fill="freeze"/><animateTransform attributeName="transform" additive="sum" type="translate" repeatCount="indefinite" dur="4.95s" keyTimes="0;0.566;0.576;0.586;0.596;0.606;0.616;0.626;0.636;0.646;0.657;0.667;0.677;0.687;0.697;0.707;0.717;0.727;0.737;0.747;0.758;0.768;0.778;0.788;0.798;0.808;0.818;0.828;0.838;0.847;0.848;1" values="465,338.05;465,338.05;456.9,338.05;448.8,338.05;440.7,338.05;432.6,338.05;424.5,338.05;416.4,338.05;408.3,338.05;400.2,338.05;392.1,338.05;384.05,338.05;375.95,338.05;367.85,338.05;359.75,338.05;351.65,338.05;343.55,338.05;335.45,338.05;327.35,338.05;319.25,338.05;311.15,338.05;303.05,338.05;294.95,338.05;286.85,338.05;278.75,338.05;270.65,338.05;262.55,338.05;254.45,338.05;246.35,338.05;238.25,338.05;0;0" calcMode="discrete"/><animateTransform attributeName="transform" additive="sum" type="translate" repeatCount="indefinite" dur="4.95s" keyTimes="0;0.848;0.859;0.869;0.879;0.889;0.899;0.909;0.919;0.929;0.939;0.949;0.96;0.97;0.98;1" values="0;238.25,338.05;230.15,338.05;222.05,338.05;213.95,338.05;205.9,338.05;197.8,338.05;189.7,338.05;181.6,338.05;173.5,338.05;165.4,338.05;157.3,338.05;149.2,338.05;141.1,338.05;133,338.05;133,338.05" calcMode="discrete"/><animateTransform attributeName="transform" additive="sum" type="skewY" repeatCount="indefinite" dur="4.95s" keyTimes="0;0.847;0.848;1" values="180;180;0;0" calcMode="discrete"/><animateTransform attributeName="transform" additive="sum" type="skewY" repeatCount="indefinite" dur="4.95s" keyTimes="0;0.848;1" values="0;180;180" calcMode="discrete"/><animateTransform attributeName="transform" additive="sum" type="scale" repeatCount="indefinite" dur="4.95s" keyTimes="0;0.847;0.848;1" values="-1,1;-1,1;1;1" calcMode="discrete"/><animateTransform attributeName="transform" additive="sum" type="scale" repeatCount="indefinite" dur="4.95s" keyTimes="0;0.848;1" values="1;-1,1;-1,1" calcMode="discrete"/></use><animate attributeName="display" repeatCount="indefinite" dur="4.95s" keyTimes="0;0.566;1" values="none;inline;inline"/></g><g style="display:none"><use xlink:href="#M" transform="translate(761.9 67.8)"><animateTransform attributeName="transform" additive="replace" type="translate" dur="4.95s" keyTimes="0;1" values="0,0;0,0" fill="freeze"/><animateTransform attributeName="transform" additive="sum" type="translate" repeatCount="indefinite" dur="4.95s" keyTimes="0;0.141;0.152;0.162;0.172;0.182;0.192;0.202;0.212;0.222;0.232;0.242;0.253;0.263;0.273;0.283;0.293;0.303;0.313;0.323;0.333;0.343;0.354;0.364;0.374;0.384;0.394;0.404;0.414;0.423;0.424;1" values="761.9,67.8;761.9,67.8;747.95,67.8;734,67.8;720.05,67.8;706.1,67.8;692.15,67.8;678.2,67.8;664.25,67.8;650.3,67.8;636.35,67.8;622.4,67.8;608.45,67.8;594.5,67.8;580.55,67.8;566.6,67.8;552.65,67.8;538.7,67.8;524.75,67.8;510.8,67.8;496.85,67.8;482.9,67.8;468.95,67.8;455,67.8;441.05,67.8;427.15,67.8;413.15,67.8;399.2,67.8;385.3,67.8;371.35,67.8;0;0" calcMode="discrete"/><animateTransform attributeName="transform" additive="sum" type="translate" repeatCount="indefinite" dur="4.95s" keyTimes="0;0.424;0.434;0.444;0.455;0.465;0.475;0.485;0.495;0.505;0.515;0.525;0.535;0.545;0.556;0.566;0.576;0.586;0.596;0.606;0.616;0.626;0.636;0.646;0.657;0.667;0.677;0.687;0.697;0.706;0.707;1" values="0;371.35,67.8;357.35,67.8;343.4,67.8;329.5,67.8;315.5,67.8;301.55,67.8;287.65,67.8;273.7,67.8;259.7,67.8;245.8,67.8;231.85,67.8;217.9,67.8;203.95,67.8;190,67.8;176.05,67.8;162.1,67.8;148.15,67.8;134.2,67.8;120.25,67.8;106.3,67.8;92.35,67.8;78.4,67.8;64.45,67.8;50.5,67.8;36.55,67.8;22.6,67.8;8.65,67.8;-5.299,67.8;-19.249,67.8;0;0" calcMode="discrete"/><animateTransform attributeName="transform" additive="sum" type="translate" repeatCount="indefinite" dur="4.95s" keyTimes="0;0.707;0.717;0.727;0.737;0.747;1" values="0;-19.249,67.8;-33.199,67.8;-47.149,67.8;-61.099,67.8;-75.049,67.8;-75.049,67.8" calcMode="discrete"/></use><animate attributeName="display" repeatCount="indefinite" dur="4.95s" keyTimes="0;0.141;0.768;1" values="none;inline;none;none"/></g><path fill="#908A7D" d="M670.351 408.401v-149.5h-85.2v149.5h85.2"/><path fill="none" stroke="#1A344F" stroke-width="2.5" stroke-linecap="round" stroke-linejoin="round" d="M669.601 259.251h-83.75v152.9h83.75v-152.9"/><path fill="#E66C6C" stroke="#1A344F" stroke-width="2.5" stroke-linecap="round" stroke-linejoin="round" d="M21.651 204.951h3.1v185h91.9v-185h3.05v-17.6h-98.05v17.6"/><path fill="#E66C6C" stroke="#1A344F" stroke-width="2.5" stroke-linecap="round" stroke-linejoin="round" d="M21.651 204.951h3.1v185h91.9v-185h3.05v-17.6h-98.05v17.6"/><path fill="#C75859" d="M62.701 236.301l.55-14.85h-6v119.75l13.8 2.05q13.2 1.4 10.2-2.05-15-17.05-18-70.1-.95-16.6-.55-34.8"/><path fill="none" stroke="#1A344F" stroke-width="2.5" stroke-linecap="round" stroke-linejoin="round" d="M43.101 279.201v11.8M98.751 279.201v11.8M98.751 255.901v11.8M98.751 232.601v11.8M98.751 209.301v11.8M70.951 279.201v11.8M70.951 255.901v11.8M70.951 232.601v11.8M70.951 209.301v11.8M43.101 255.901v11.8M43.101 232.601v11.8M43.101 209.301v11.8M43.101 366.401v11.8M98.751 366.401v11.8M98.751 343.101v11.8M98.751 319.851v11.8M98.751 296.551v11.8M70.951 366.401v11.8M70.951 343.101v11.8M70.951 319.851v11.8M70.951 296.551v11.8M43.101 343.101v11.8M43.101 319.851v11.8M43.101 296.551v11.8"/><path fill="#C5CFC9" d="M120.101 378.201h-98.8v22h98.8v-22"/><path fill="none" stroke="#1A344F" stroke-width="2.5" stroke-linecap="round" stroke-linejoin="round" d="M120.101 378.201h-98.8v22h98.8v-22"/><path fill="#C5CFC9" d="M210.601 473.901v-3.2h-98.8v3.2h98.8"/><path fill="#BFA8C4" stroke="#1A344F" stroke-width="2.5" stroke-linecap="round" stroke-linejoin="round" d="M58.651 220.9h-148.2v204.2h148.2V220.9"/><path fill="#ABB8B6" d="M58.651 425.151v-15.15h-63.25v15.15h63.25"/><path fill="#C6E3F4" d="M11.951 241.951h-16.55v22h16.55v-22"/><path fill="none" stroke="#474747" stroke-width="2.5" stroke-linecap="round" stroke-linejoin="round" d="M11.951 241.9h-21.95v22h21.95v-22"/><path fill="#C6E3F4" d="M22.851 263.951h22v-22h-22v22"/><path fill="none" stroke="#1A344F" stroke-width="2.5" stroke-linecap="round" stroke-linejoin="round" d="M22.851 263.951h22v-22h-22v22"/><path fill="#C6E3F4" d="M11.951 271.801h-16.55v22h16.55v-22"/><path fill="none" stroke="#474747" stroke-width="2.5" stroke-linecap="round" stroke-linejoin="round" d="M-9.999 293.75h21.95v-22h-21.95v22"/><path fill="#C6E3F4" d="M22.851 271.801v22h22v-22h-22"/><path fill="none" stroke="#1A344F" stroke-width="2.5" stroke-linecap="round" stroke-linejoin="round" d="M22.851 271.801v22h22v-22h-22"/><path fill="#C6E3F4" d="M11.951 301.651h-16.55v22h16.55v-22"/><path fill="none" stroke="#474747" stroke-width="2.5" stroke-linecap="round" stroke-linejoin="round" d="M-9.999 323.6h21.95v-22h-21.95v22"/><path fill="#C6E3F4" d="M44.851 323.651v-22h-22v22h22"/><path fill="none" stroke="#1A344F" stroke-width="2.5" stroke-linecap="round" stroke-linejoin="round" d="M44.851 323.651v-22h-22v22h22"/><path fill="#C6E3F4" d="M11.951 331.501h-16.55v22h16.55v-22"/><path fill="none" stroke="#474747" stroke-width="2.5" stroke-linecap="round" stroke-linejoin="round" d="M11.951 331.45h-21.95v22h21.95v-22"/><path fill="#C6E3F4" d="M22.851 353.501h22v-22h-22v22"/><path fill="none" stroke="#1A344F" stroke-width="2.5" stroke-linecap="round" stroke-linejoin="round" d="M22.851 353.501h22v-22h-22v22"/><path fill="#C6E3F4" d="M11.951 361.351h-16.55v22h16.55v-22"/><path fill="none" stroke="#474747" stroke-width="2.5" stroke-linecap="round" stroke-linejoin="round" d="M-9.999 383.3h21.95v-22h-21.95v22"/><path fill="#C6E3F4" d="M22.851 361.351v22h22v-22h-22"/><path fill="none" stroke="#1A344F" stroke-width="2.5" stroke-linecap="round" stroke-linejoin="round" d="M22.851 361.351v22h22v-22h-22"/><path fill="#7AC7EE" d="M702.151 473.901v-46.3H-4.599v46.3h706.75"/><path fill="none" stroke="#1A344F" stroke-width="2.5" stroke-linecap="round" stroke-linejoin="round" d="M701.451 473.901v-46.3h-704.3v46.3h704.3M89.501 361.351v13.3M100.901 361.351v13.3M112.351 361.351v13.3M123.751 361.351v13.3M135.201 361.351v13.3M146.651 361.351v13.3M158.051 361.351v13.3M169.501 361.351v13.3"/><path fill="#C7926B" d="M570.101 404.751v-226.3h-44.55v226.3h44.55"/><path fill="#A27552" d="M570.101 266.801v-10.95h-44.55v48.2l44.55-37.25"/><path fill="none" stroke="#1A344F" stroke-width="2.5" stroke-linecap="round" stroke-linejoin="round" d="M570.101 404.751v-226.3h-44.55v226.3h44.55"/><path fill="#F9CC66" d="M578.651 255.851v-53.85h-61.7v53.85h61.7"/><path fill="#C7926B" stroke="#1A344F" stroke-width="2.5" stroke-linecap="round" stroke-linejoin="round" d="M578.651 255.851v-53.85h-61.7v53.85h61.7"/><path fill="#F9CC66" d="M565.851 244.651v-31.45h-36.05v31.45h36.05"/><path fill="#C7926B" stroke="#1A344F" stroke-width="2.5" stroke-linecap="round" stroke-linejoin="round" d="M565.851 244.651v-31.45h-36.05v31.45h36.05"/><path fill="#FFF" d="M555.151 221.601q-3.05-3.05-7.35-3.05t-7.35 3.05q-3.05 3.05-3.05 7.35t3.05 7.35q3.05 3.05 7.35 3.05t7.35-3.05q3.05-3.05 3.05-7.35t-3.05-7.35"/><path fill="none" stroke="#1A344F" stroke-width="2.5" stroke-linecap="round" stroke-linejoin="round" d="M555.151 221.601q-3.05-3.05-7.35-3.05t-7.35 3.05q-3.05 3.05-3.05 7.35t3.05 7.35q3.05 3.05 7.35 3.05t7.35-3.05q3.05-3.05 3.05-7.35t-3.05-7.35"/><path fill="#A1A8A7" d="M575.801 179.751l-14-24.25h-27.95l-14 24.25h55.95"/><path fill="none" stroke="#1A344F" stroke-width="2.5" stroke-linecap="round" stroke-linejoin="round" d="M575.801 179.751l-14-24.25h-27.95l-14 24.25h55.95"/><path fill="#9B7253" stroke="#1A344F" stroke-width="2.5" stroke-linecap="round" stroke-linejoin="round" d="M562.451 155.501v-16.4h-29.25v16.4h29.25"/><path fill="none" stroke="#1A344F" stroke-width="2.5" stroke-linecap="round" stroke-linejoin="round" d="M562.451 155.501v-16.4h-29.25v16.4h29.25"/><path fill="#A1A8A7" d="M547.801 64.151l-17.35 74.95h34.7l-17.35-74.95"/><path fill="#8D9393" d="M565.151 139.101l-4.55-19.8q-18.55-5.35-17.55-30.8.131-2.965.525-6.1l-13.125 56.7h34.7M543.576 82.401l4.225-18.25-2.2 7.4q-1.374 5.654-2.025 10.85"/><path fill="none" stroke="#1A344F" stroke-width="2.5" stroke-linecap="round" stroke-linejoin="round" d="M547.801 64.151l-17.35 74.95h34.7l-17.35-74.95"/><path fill="#A1A8A7" d="M445.401 212.351h21.8l-10.9-47.95-10.9 47.95"/><path fill="none" stroke="#1A344F" stroke-width="2.5" stroke-linecap="round" stroke-linejoin="round" d="M445.401 212.351h21.8l-10.9-47.95-10.9 47.95"/><path fill="#A1A8A7" d="M467.201 212.351h21.85l-10.9-47.95-10.95 47.95"/><path fill="none" stroke="#1A344F" stroke-width="2.5" stroke-linecap="round" stroke-linejoin="round" d="M467.201 212.351h21.85l-10.9-47.95-10.95 47.95"/><path fill="#A1A8A7" d="M472.651 176.201l-5.45-23.95-5.45 23.95-5.45 35.75h21.85l-5.5-35.75"/><path fill="none" stroke="#1A344F" stroke-width="2.5" stroke-linecap="round" stroke-linejoin="round" d="M472.651 176.201l-5.45-23.95-5.45 23.95-5.45 35.75h21.85l-5.5-35.75M534.351 189.451v12.55M543.351 189.451v12.55M552.301 189.451v12.55M561.251 189.451v12.55M534.351 268.901v12.55M543.351 268.901v12.55M552.301 268.901v12.55M561.251 268.901v12.55M534.351 301.401v12.55M543.351 301.401v12.55M552.301 301.401v12.55M561.251 301.401v12.55M534.351 333.901v12.55M543.351 333.901v12.55M552.301 333.901v12.55M561.251 333.901v12.55M534.351 366.401v12.55M543.351 366.401v12.55M552.301 366.401v12.55M561.251 366.401v12.55M525.551 291.601h44.55M525.551 323.951h44.55M525.551 356.301h44.55"/><path fill="#9B7253" stroke="#1A344F" stroke-width="2.5" stroke-linecap="round" stroke-linejoin="round" d="M497.701 356.301h-61v48.45h61v-48.45"/><path fill="#825D40" d="M446.051 362.401l-1.1-4.75-8.25-1.35v48.45h61v-17.95q-31.8.85-45.45-14.05-4.25-4.7-6.2-10.35"/><path fill="none" stroke="#1A344F" stroke-width="2.5" stroke-linecap="round" stroke-linejoin="round" d="M497.701 356.301h-61v48.45h61v-48.45"/><path fill="#7AC7EE" d="M330.951 445.651v-9.95h-28.95v9.95h28.95"/><path fill="#54849E" d="M350.451 141.251h-.2v109h.2q22.6 0 38.55-15.95 15.95-15.95 15.95-38.55 0-22.55-15.95-38.55-15.95-15.95-38.55-15.95"/><path fill="#E9EAEB" d="M311.851 157.251q-15.9 15.95-15.9 38.5 0 22.5 15.9 38.45 15.9 16 38.4 16.05v-109q-22.5.1-38.4 16"/><path fill="#E24243" d="M243.301 246.201q-.05-.5-.45-.8-.4-.3-.9-.25-.5.05-.8.4-.35.35-.35.85v98.45h-97.9q-.5 0-.9.35-.35.4-.35.9 0 .55.35.9.4.35.9.35h97.9v33.05q0 .55.35.9.4.35.9.35.55 0 .9-.35t.35-.9v-33.05h105.85q.55 0 .9-.35t.35-.9q0-.5-.35-.9-.35-.35-.9-.35-27.05 0-48.5-12.35t-36.95-36.85q-9.7-15.3-16-33.8-4.35-15.55-4.4-15.65m42.75 79q17.8 14.65 39.85 19.65h-82.6v-88.45q6.7 22.3 18.2 40.55 10.6 16.8 24.55 28.25"/><path fill="#E24243" d="M255.001 280.151q0-.5-.35-.9-.35-.35-.9-.35t-.9.35q-.4.4-.4.9v65.95q0 .5.4.9.35.35.9.35t.9-.35q.35-.35.35-.9v-65.95M266.301 300.001q0-.5-.35-.9-.35-.35-.9-.35-.5 0-.9.35-.35.4-.35.9v46.1q0 .55.35.9.4.35.9.35.55 0 .9-.35t.35-.9v-46.1M278.201 315.001q0-.55-.35-.9-.4-.4-.9-.4t-.9.4q-.35.35-.35.9v31.1q0 .55.35.9.4.35.9.35.55 0 .9-.35t.35-.9v-31.1M290.801 326.451q0-.5-.35-.9-.35-.35-.9-.35t-.9.35q-.4.4-.4.9v19.65q0 .5.4.9.35.35.9.35t.9-.35q.35-.35.35-.9v-19.65M304.651 335.301q0-.5-.4-.9-.35-.35-.85-.35-.55 0-.9.35-.4.4-.4.9v10.8q0 .5.4.9.35.35.9.35.5 0 .85-.35.4-.4.4-.9v-10.8"/><path fill="#E24243" d="M243.301 246.401q0-.5-.3-.85t-.8-.4q-1.15-.1-1.4 1.05 0 .45-1 4.35-1.4 5.45-3.4 11.3-6.25 18.5-15.95 33.8-15.5 24.5-36.95 36.85-21.45 12.35-48.5 12.35-.5 0-.9.35-.35.4-.35.9 0 .55.35.9.4.35.9.35h105.8v57.4q0 .55.35.9.4.35.9.35.55 0 .9-.35t.35-.9v-57.4h97.95q.5 0 .85-.35.4-.4.4-.9t-.4-.9q-.35-.35-.85-.35h-97.95v-98.45m-2.5 98.45h-82.55q22-5 39.8-19.65 13.95-11.5 24.55-28.25 11.65-18.45 18.2-40.55v88.45"/><path fill="#E24243" d="M231.651 280.151q0-.5-.35-.9-.35-.35-.9-.35-.5 0-.9.35-.35.4-.35.9v65.95q0 .55.35.9.4.35.9.35.55 0 .9-.35t.35-.9v-65.95M220.351 300.001q0-.5-.35-.9-.35-.35-.9-.35-.5 0-.9.35-.35.4-.35.9v46.1q0 .55.35.9.4.35.9.35.55 0 .9-.35t.35-.9v-46.1M208.451 315.001q0-.55-.35-.9-.4-.4-.9-.4t-.9.4q-.4.4-.4.9v31.1q0 .5.4.9.35.35.9.35t.9-.35q.35-.35.35-.9v-31.1M195.851 326.451q0-.5-.35-.9-.35-.35-.9-.35-.5 0-.9.35-.35.4-.35.9v19.65q0 .55.35.9.4.35.9.35.55 0 .9-.35t.35-.9v-19.65M182.001 335.301q0-.5-.35-.9-.35-.35-.9-.35-.5 0-.9.35-.35.4-.35.9v10.8q0 .55.35.9.4.35.9.35.55 0 .9-.35t.35-.9v-10.8"/><path fill="none" stroke="#1A344F" stroke-width="2.5" stroke-linecap="round" stroke-linejoin="round" d="M350.501 346.101h-1.05m107.1-.475l-102.675.425m102.675-.425v81.975m0-81.975l56.35-.275m-56.35-98.95v99.225m-1-94.925l1-4.3m-4.35 15.6q2-5.9 3.35-11.3m-19.5 45.55q9.85-15.6 16.15-34.25m-98.325 84.05q51.904-1.971 82.175-49.8m-85.55 49.85l3.375-.05M444.901 280.151v65.95M433.551 300.001v46.1M421.651 315.001v31.1M409.051 326.451v19.65M395.251 335.301v10.8"/><path fill="#E66C6C" d="M91.501 46.951q-.55-.85-2.7 1-1.05.9-6.8 6.65-1.95 1.95-9.2 3.1-5.6.85-5.6 4.55 0 5.05 3.55 8.65 3.6 3.55 8.65 3.55 5.05 0 8.6-3.55 3.6-3.6 3.6-8.65 0-2.05.25-10.6.15-4-.35-4.7"/><path fill="none" stroke="#1A344F" stroke-width="2.5" stroke-linecap="round" stroke-linejoin="round" d="M91.501 46.951q-.55-.85-2.7 1-1.05.9-6.8 6.65-1.95 1.95-9.2 3.1-5.6.85-5.6 4.55 0 5.05 3.55 8.65 3.6 3.55 8.65 3.55 5.05 0 8.6-3.55 3.6-3.6 3.6-8.65 0-2.05.25-10.6.15-4-.35-4.7"/><path fill="none" stroke="#1A344F" stroke-width="2.5" stroke-linecap="round" stroke-linejoin="round" d="M91.501 46.951q-.55-.85-2.7 1-1.05.9-6.8 6.65-1.95 1.95-9.2 3.1-5.6.85-5.6 4.55 0 5.05 3.55 8.65 3.6 3.55 8.65 3.55 5.05 0 8.6-3.55 3.6-3.6 3.6-8.65 0-2.05.25-10.6.15-4-.35-4.7"/><path fill="#7AC7EE" d="M120.901 120.801q-5.6 5.6-5.6 13.55v27.5h38.25v-27.5q0-7.95-5.6-13.55-5.6-5.6-13.5-5.6-7.95 0-13.55 5.6"/><path fill="none" stroke="#1A344F" stroke-width="2.5" stroke-linecap="round" stroke-linejoin="round" d="M134.451 115.201q7.9 0 13.5 5.6t5.6 13.55v27.5m-19.1-46.65q-7.95 0-13.55 5.6-5.6 5.6-5.6 13.55v27.5"/><path fill="#7AC7EE" d="M95.801 242.351v83.65l66.15-149.8-66.15 66.15"/><path fill="none" stroke="#1A344F" stroke-width="2.5" stroke-linecap="round" stroke-linejoin="round" d="M95.801 326.001v-83.65l66.15-66.15"/><path fill="#7AC7EE" d="M87.551 106.501q-.65-1.55-2.35-1.55v97.9q0 3.75 2.65 6.45 2.65 2.65 6.4 2.65h9.05v25l-6.05 89.05 64.85-62.8v-89.2q0-4.85-3.4-8.25-3.4-3.4-8.2-3.4h-31.7q-4.05 0-7.4-2.3-3.4-2.25-4.9-6.05l-18.95-47.5"/><path fill="none" stroke="#1A344F" stroke-width="2.5" stroke-linecap="round" stroke-linejoin="round" d="M85.201 104.951q1.7 0 2.35 1.55l18.95 47.5q1.5 3.8 4.9 6.05 3.35 2.3 7.4 2.3h31.7q4.8 0 8.2 3.4 3.4 3.4 3.4 8.25v89.2l-64.85 62.8m-12.05-221.05v97.9q0 3.75 2.65 6.45 2.65 2.65 6.4 2.65h9.05v25"/><path fill="#99C977" d="M48.001 357.801q-6.4 0-11 4.55-4.55 4.55-4.55 10.95 0 5.8 3.8 10.15 3.75 4.35 9.4 5.2-.3 2.1-.3 4.2 0 12.1 8.55 20.7 8.55 8.55 20.65 8.55 12.1 0 20.7-8.55 8.55-8.6 8.55-20.7 0-3.65-.95-7.45 4.55-4.1 7.1-9.65 2.65-5.75 2.65-12.1 0-12.1-8.55-20.7-8.6-8.55-20.7-8.55-10.9 0-19.15 7.15-8.1 7.05-9.75 17.65-3.05-1.4-6.45-1.4"/><path fill="none" stroke="#1A344F" stroke-width="2.5" stroke-linecap="round" stroke-linejoin="round" d="M48.001 357.801q-6.4 0-11 4.55-4.55 4.55-4.55 10.95 0 5.8 3.8 10.15 3.75 4.35 9.4 5.2-.3 2.1-.3 4.2 0 12.1 8.55 20.7 8.55 8.55 20.65 8.55 12.1 0 20.7-8.55 8.55-8.6 8.55-20.7 0-3.65-.95-7.45 4.55-4.1 7.1-9.65 2.65-5.75 2.65-12.1 0-12.1-8.55-20.7-8.6-8.55-20.7-8.55-10.9 0-19.15 7.15-8.1 7.05-9.75 17.65-3.05-1.4-6.45-1.4"/><path fill="#99C977" d="M181.001 372.301q-12.1 0-20.7 8.55-8.55 8.6-8.55 20.7 0 3.65.95 7.45-3.95 3.55-6.4 8.25-2.5 4.8-3.15 10.25h58.1q-.2-2.1-.75-4.15 4.55-4.1 7.1-9.65 2.65-5.8 2.65-12.15 0-12.1-8.55-20.7-8.6-8.55-20.7-8.55"/><path fill="none" stroke="#1A344F" stroke-width="2.5" stroke-linecap="round" stroke-linejoin="round" d="M181.001 372.301q-12.1 0-20.7 8.55-8.55 8.6-8.55 20.7 0 3.65.95 7.45-2 1.8-1.65 2.15.1.15 2.1.2 4.9.1 4.9 4.8 0 4.05-.05 7.05.1.85 1.15-.25 5.05-5.35 13.25-5.35 8.1 0 14.15 6.05 1.5 1.5 1.75.75t.25-6.8q0-1.3 6.4-3.9 6.3-2.5 5.95-3.7 2.1-1.9 6.95-3 2.4-.55 2.4-5.45 0-12.1-8.55-20.7-8.6-8.55-20.7-8.55"/><path fill="#7AC7EE" d="M103.001 320.901v37.35h55.55v-91.45l-55.55 54.1"/><path fill="none" stroke="#1A344F" stroke-width="2.5" stroke-linecap="round" stroke-linejoin="round" d="M103.001 358.251v-37.35m0 37.35h55.55v-91.45M143.151 296.551v61.7M128.851 310.801v47.45M115.301 324.401v33.85"/><path fill="#F0B971" stroke="#1A344F" stroke-width="2.5" stroke-linecap="round" stroke-linejoin="round" d="M182.501 358.251h-104.8v56.1h104.8v-56.1"/><path fill="none" stroke="#1A344F" stroke-width="2.5" stroke-linecap="round" stroke-linejoin="round" d="M182.501 358.251h-104.8v56.1h104.8v-56.1M95.801 303.651l51.95-51.95M123.651 214.501v59M95.801 327.401l66.3-64.2"/><path fill="#7AC7EE" d="M129.701 128.151q0 2.55-1.8 4.4-1.744 1.744-4.2 1.8h19.25q-2.456-.056-4.2-1.8-1.8-1.85-1.8-4.4h-7.25"/><path fill="none" stroke="#1A344F" stroke-width="2.5" stroke-linecap="round" stroke-linejoin="round" d="M138.751 132.551q1.8 1.8 4.35 1.8h10.45m-14.8-1.8q-1.8-1.85-1.8-4.4h-7.25q0 2.55-1.8 4.4-1.8 1.8-4.35 1.8h-8.25M134.451 115.201v-18.5M126.051 116.951l-4.35-13.3M119.151 122.101l-9.5-7.25M115.101 129.651l-6.65-1.35M144.751 116.951l4.35-13.3M151.651 122.101l9.5-7.25M155.701 129.651l6.65-1.35"/><path fill="#7AC7EE" d="M78.951 164.301v26.25l20.35-20.35 2.25-28.5-22.6 22.6"/><path fill="none" stroke="#1A344F" stroke-width="2.5" stroke-linecap="round" stroke-linejoin="round" d="M78.951 190.551l20.35-20.35m-20.35 20.35v-26.25l22.6-22.6M136.701 205.701v-26.2M123.851 214.301v-26.2"/><path fill="#7AC7EE" d="M98.651 78.951v-8.05h-35.1v8.05q0 2 1.45 3.45 1.4 1.4 3.4 1.4h25.35q2.05 0 3.45-1.4 1.45-1.45 1.45-3.45"/><path fill="none" stroke="#1A344F" stroke-width="2.5" stroke-linecap="round" stroke-linejoin="round" d="M98.651 78.951v-8.05h-35.1v8.05q0 2 1.45 3.45 1.4 1.4 3.4 1.4h25.35q2.05 0 3.45-1.4 1.45-1.45 1.45-3.45"/><path fill="#7AC7EE" d="M145.301 145.201v-10.85h-21.75v10.85q0 4.5 3.2 7.7 3.2 3.15 7.7 3.15t7.7-3.15q3.15-3.2 3.15-7.7"/><path fill="none" stroke="#1A344F" stroke-width="2.5" stroke-linecap="round" stroke-linejoin="round" d="M145.301 145.201v-10.85m0 10.85q0 4.5-3.15 7.7-3.2 3.15-7.7 3.15t-7.7-3.15q-3.2-3.2-3.2-7.7v-10.85"/><path fill="#7AC7EE" d="M76.001 87.801q-.95 1.15-.85 2.6l1.05 13.6q.15 1.45 1.25 2.45 1.15.95 2.6.85l5.55-.45q1.45-.1 2.4-1.2.95-1.15.85-2.6l-1.05-13.6q-.1-1.5-1.2-2.45-1.15-.95-2.6-.85l-5.55.4q-1.45.15-2.45 1.25"/><path fill="none" stroke="#1A344F" stroke-width="2.5" stroke-linecap="round" stroke-linejoin="round" d="M76.001 87.801q-.95 1.15-.85 2.6l1.05 13.6q.15 1.45 1.25 2.45 1.15.95 2.6.85l5.55-.45q1.45-.1 2.4-1.2.95-1.15.85-2.6l-1.05-13.6q-.1-1.5-1.2-2.45-1.15-.95-2.6-.85l-5.55.4q-1.45.15-2.45 1.25"/><path fill="#EDEDED" d="M203.451 179.751l-30.45-15.5-23.25 45.75 30.45 15.5 23.25-45.75"/><path fill="none" stroke="#1A344F" stroke-width="2.5" stroke-linecap="round" stroke-linejoin="round" d="M203.451 179.751l-30.45-15.5-23.25 45.75 30.45 15.5 23.25-45.75"/><path fill="#7AC7EE" d="M191.951 191.101q-1.4.45-2.1 1.75l-6.2 12.15q-.65 1.3-.2 2.7.45 1.45 1.75 2.1l4.95 2.55q1.3.65 2.7.2 1.45-.5 2.1-1.8l6.2-12.15q.65-1.3.2-2.7-.5-1.45-1.8-2.1l-4.9-2.5q-1.3-.65-2.7-.2"/><path fill="none" stroke="#1A344F" stroke-width="2.5" stroke-linecap="round" stroke-linejoin="round" d="M191.951 191.101q-1.4.45-2.1 1.75l-6.2 12.15q-.65 1.3-.2 2.7.45 1.45 1.75 2.1l4.95 2.55q1.3.65 2.7.2 1.45-.5 2.1-1.8l6.2-12.15q.65-1.3.2-2.7-.5-1.45-1.8-2.1l-4.9-2.5q-1.3-.65-2.7-.2M103.301 211.951v-17.05M77.701 375.851h104.8"/><path fill="#A1A8A7" d="M277.45 427.55q0-9.5-6.7-16.15-6.7-6.7-16.2-6.7H-4.1v22.85h281.55"/><path fill="none" stroke="#1A344F" stroke-width="2.5" stroke-linecap="round" stroke-linejoin="round" d="M-4.599 404.751v22.85h281.55q0-9.5-6.7-16.15-6.7-6.7-16.2-6.7H-4.599"/><path fill="#908A7D" d="M701.3 421.35v-149.5h-85.2v149.5h85.2"/><path fill="none" stroke="#1A344F" stroke-width="2.5" stroke-linecap="round" stroke-linejoin="round" d="M700.601 272.251h-83.75v152.9h83.75v-152.9"/><path fill="#99C977" d="M351.351 150.201q-18.95.05-32.4 13.5-13.4 13.45-13.4 32.4 0 19 13.4 32.45 13.4 13.45 32.4 13.5v-91.85"/><path fill="#99C977" d="M350.451 150.201h-.1v91.85h.1q19.05 0 32.5-13.45t13.45-32.5q0-19-13.45-32.45-13.45-13.45-32.5-13.45"/><path fill="none" stroke="#1A344F" stroke-width="2.5" stroke-linecap="round" stroke-linejoin="round" d="M350.451 150.201q-19 0-32.45 13.45-13.45 13.45-13.45 32.45 0 19.05 13.45 32.5t32.45 13.45q19.05 0 32.5-13.45t13.45-32.5q0-19-13.45-32.45-13.45-13.45-32.5-13.45"/><path fill="#F9F9F9" d="M335.301 178.601h-5.6l5.45 35.55h8.35l5.45-35.55h-5.1l-4.25 29-4.3-29M353.451 180.501q-2.05 2.3-2.05 6.65 0 2.6.8 4.4 1.4 3.2 4.7 6.05l2.6 2.5q2.85 2.95 2.85 5.85 0 3.45-2.9 3.45t-2.9-3.45v-2.5h-5.3v2.15q0 4.35 2.1 6.65 2.15 2.3 6.25 2.3 4.05 0 6.2-2.3 2.1-2.3 2.1-6.65 0-2.6-.8-4.4-1.2-2.9-4.6-6.1-1.2-.95-2.65-2.5-2.85-2.75-2.85-5.85 0-3.5 2.8-3.5t2.8 3.5v1.5h5.25v-1.1q0-4.35-2.05-6.65-2.1-2.3-6.15-2.3-4.1 0-6.2 2.3"/><path fill="none" stroke="#1A344F" stroke-width="2.5" stroke-linecap="round" stroke-linejoin="round" d="M634.451 360.451v11.8M690.101 360.451v11.8M690.101 337.151v11.8M690.101 313.851v11.8M690.101 290.551v11.8M662.251 360.451v11.8M662.251 337.151v11.8M662.251 313.851v11.8M662.251 290.551v11.8M634.451 337.151v11.8M634.451 313.851v11.8M634.451 290.551v11.8"/><path fill="#C7926B" d="M445.951 354.901h43.55v-142.95h-43.55v142.95"/><path fill="none" stroke="#1A344F" stroke-width="2.5" stroke-linecap="round" stroke-linejoin="round" d="M462.751 221.851v12.55M471.701 221.851v12.55M462.751 254.351v12.55M471.701 254.351v12.55M462.751 286.851v12.55M471.701 286.851v12.55M462.751 319.351v12.55M471.701 319.351v12.55M444.951 244.501h44.55M444.951 276.851h44.55M444.951 309.201h44.55M444.951 356.301h44.55v-144.35h-44.55v144.35"/><path fill="#99C977" d="M467.601 380.751q-4.85 5.05-4.85 12.1 0 7.25 5.1 12.35t12.35 5.1q6.65 0 11.6-4.4 1.95 4.9 6.35 7.95 4.45 3.1 9.9 3.1 4.2 0 7.95-1.9 3.6-1.85 6.05-5.1 1.55.35 3.5.35 7.25 0 12.35-5.1 5.15-5.1 5.15-12.35 0-5.2-2.85-9.55-2.75-4.2-7.3-6.35 3.35-6.55 3.35-13.7 0-12.3-8.7-21t-21-8.7q-12.3 0-21 8.7t-8.7 21q0 6.5 2.6 12.15-7 .3-11.85 5.35"/><path fill="none" stroke="#1A344F" stroke-width="2.5" stroke-linecap="round" stroke-linejoin="round" d="M467.601 380.751q-4.85 5.05-4.85 12.1 0 7.25 5.1 12.35t12.35 5.1q6.65 0 11.6-4.4 1.95 4.9 6.35 7.95 4.45 3.1 9.9 3.1 4.2 0 7.95-1.9 3.6-1.85 6.05-5.1 1.55.35 3.5.35 7.25 0 12.35-5.1 5.15-5.1 5.15-12.35 0-5.2-2.85-9.55-2.75-4.2-7.3-6.35 3.35-6.55 3.35-13.7 0-12.3-8.7-21t-21-8.7q-12.3 0-21 8.7t-8.7 21q0 6.5 2.6 12.15-7 .3-11.85 5.35"/><path fill="#A1A8A7" d="M699.751 427.601v-22.85h-274.15q-7.7 0-13.1 5.65-5.45 5.6-5.45 13.55 0 1.5 1 2.6 1.05 1.05 2.5 1.05h289.2"/><path fill="none" stroke="#1A344F" stroke-width="2.5" stroke-linecap="round" stroke-linejoin="round" d="M699.751 427.601v-22.85h-274q-7.75 0-13.25 5.65-5.45 5.6-5.45 13.55 0 1.5 1.05 2.6 1.05 1.05 2.5 1.05h289.15"/><path fill="#FFF" stroke="#19344F" stroke-width="2.5" stroke-linecap="round" stroke-linejoin="round" d="M264.051 110.551l9.55-3.65-12.6-10.1-24.75 3.3q-2 .3-4.2.8-4.3 1-4.95 2.1-.65 1.05.3 4.75.5 1.85 1.1 3.5l35.55-.7"/><path fill="#FFF" d="M260.651 82.251q-10.7 0-17.6 4.7-7.35 4.95-9.15 14.45l54.2 3.25q-1.95-9.7-9.6-16-7.75-6.4-17.85-6.4"/><path fill="none" stroke="#19344F" stroke-width="2.5" stroke-linecap="round" stroke-linejoin="round" d="M243.051 86.951q6.9-4.7 17.6-4.7 10.1 0 17.85 6.4 7.65 6.3 9.6 16m-45.05-17.7q-7.35 4.95-9.15 14.45"/><path fill="#FFF" d="M246.901 99.051q-4.75-4.35-11.15-4.35-6.85 0-11.7 4.85t-4.85 11.7l27.7-12.2"/><path fill="none" stroke="#19344F" stroke-width="2.5" stroke-linecap="round" stroke-linejoin="round" d="M235.751 94.701q6.4 0 11.15 4.35m-11.15-4.35q-6.85 0-11.7 4.85t-4.85 11.7"/><path fill="#FFF" d="M204.25 119.7q1.25 1.25 3.05 1.25h95.65q1.3 0 2.15-.9.9-.85.9-2.15v-2.35q0-6.4-4.55-10.95-4.55-4.55-10.95-4.55-4.7 0-8.65 2.65l-56.9 3.6q-4.05-3.55-9.4-3.25-5.3.25-8.95 4.2-3.65 3.95-3.65 9.35 0 1.8 1.3 3.1"/><path fill="#E8E8E9" d="M223.85 120.85q-12.077-.382-11.55-8.95.3-4.45 3.25-8.95-5.3.25-8.95 4.25-3.65 3.9-3.65 9.3 0 1.8 1.3 3.1 1.25 1.25 3.05 1.25h16.55"/><path fill="none" stroke="#19344F" stroke-width="2.5" stroke-linecap="round" stroke-linejoin="round" d="M305.151 120.101q-.85.9-2.15.9h-95.65q-1.8 0-3.05-1.25-1.3-1.3-1.3-3.1 0-5.4 3.65-9.35 3.65-3.95 8.95-4.2 5.35-.3 9.4 3.25m80.15 13.75q.9-.85.9-2.15v-2.35q0-6.4-4.55-10.95-4.55-4.55-10.95-4.55-4.7 0-8.65 2.65M277.951 94.351q1 1.05 2.05 2.45"/><path fill="#FFF" d="M268.301 88.051q-3.95-1.45-8.3-1.45l15.1 5.2q-3.25-2.55-6.8-3.75"/><path fill="none" stroke="#19344F" stroke-width="2.5" stroke-linecap="round" stroke-linejoin="round" d="M260.001 86.601q4.35 0 8.3 1.45 3.55 1.2 6.8 3.75M305.151 120.101q-.85.9-2.15.9h-95.65q-1.8 0-3.05-1.25-1.3-1.3-1.3-3.1 0-5.4 3.65-9.35 3.65-3.95 8.95-4.2 5.35-.3 9.4 3.25m80.15 13.75q.9-.85.9-2.15v-2.35q0-6.4-4.55-10.95-4.55-4.55-10.95-4.55-4.7 0-8.65 2.65"/><path fill="none" stroke="#FFF" stroke-opacity=".322" stroke-width="2.5" stroke-linecap="round" stroke-linejoin="round" d="M664.25 128.1h3.3m-3.3 0v3.3m0-3.3h-3.3m3.3 0v-3.3M616.95 47.3h3.3m-3.3 0v3.3m0-3.3h-3.3m3.3 0V44M588.1 71.1h3.3m-3.3 0v3.3m0-3.3h-3.3m3.3 0v-3.3M504.1 114.7h3.3m-3.3 0v3.3m0-3.3h-3.25m3.25 0v-3.25M417.1 168.85h3.3m-3.3 0v3.3m0-3.3h-3.3m3.3 0v-3.3"/><use xlink:href="#N" transform="translate(473.05 443.55)"><animateTransform attributeName="transform" additive="replace" type="translate" dur="4.95s" keyTimes="0;1" values="0,0;0,0" fill="freeze"/><animateTransform attributeName="transform" additive="sum" type="translate" repeatCount="indefinite" dur="4.95s" keyTimes="0;0.081;0.091;0.101;0.111;0.121;0.131;0.141;0.152;0.162;0.172;0.182;0.192;0.202;0.212;0.222;0.232;0.242;0.253;0.263;0.273;0.283;0.293;0.303;0.313;0.323;0.333;0.343;0.354;0.363;0.364;1" values="473.05,443.55;473.05,443.55;457.35,443.55;442.1,443.55;427.35,443.55;413.05,443.55;399.2,443.55;385.85,443.55;372.95,443.55;360.5,443.55;348.55,443.55;337.05,443.55;326.05,443.55;315.5,443.55;305.4,443.55;295.8,443.55;286.65,443.55;277.95,443.55;269.75,443.55;262.05,443.55;254.75,443.55;247.95,443.55;241.65,443.55;235.75,443.55;230.35,443.55;225.45,443.55;221,443.55;217,443.55;213.5,443.55;210.45,443.55;0;0" calcMode="discrete"/><animateTransform attributeName="transform" additive="sum" type="translate" repeatCount="indefinite" dur="4.95s" keyTimes="0;0.364;0.374;0.384;0.394;0.404;0.414;0.424;0.586;0.596;0.606;0.616;0.626;0.636;0.646;0.657;0.667;0.677;0.687;0.697;0.707;0.717;0.727;0.737;0.747;0.758;0.768;0.778;0.788;0.797;0.798;1" values="0;210.45,443.55;207.85,443.55;205.75,443.55;204.1,443.55;202.95,443.55;202.25,443.55;202,443.55;202,443.55;215.05,443.55;227.8,443.55;240.2,443.55;252.3,443.55;264.1,443.55;275.5,443.55;286.65,443.55;297.45,443.55;307.95,443.55;318.1,443.55;327.95,443.55;337.45,443.55;346.65,443.55;355.5,443.55;364.05,443.55;372.25,443.55;380.15,443.55;387.75,443.55;395,443.55;401.95,443.55;408.55,443.55;0;0" calcMode="discrete"/><animateTransform attributeName="transform" additive="sum" type="translate" repeatCount="indefinite" dur="4.95s" keyTimes="0;0.798;0.808;0.818;0.828;0.838;0.848;0.859;0.869;0.879;0.889;0.899;0.909;0.919;0.929;0.939;0.949;0.96;0.97;0.98;0.99;1" values="0;408.55,443.55;414.85,443.55;420.8,443.55;426.45,443.55;431.75,443.55;436.75,443.55;441.45,443.55;445.8,443.55;449.85,443.55;453.55,443.55;456.9,443.55;460,443.55;462.75,443.55;465.15,443.55;467.25,443.55;469,443.55;470.45,443.55;471.6,443.55;472.4,443.55;472.9,443.55;473.05,443.55" calcMode="discrete"/></use></g></svg>