<svg xmlns="http://www.w3.org/2000/svg" image-rendering="optimizeQuality" baseProfile="basic" width="695" height="393" viewBox="0 0 695 393" preserveAspectRatio="xMinYMin meet"><g overflow="visible"><path fill="#FFF" d="M695.054 392.493V.044H.049v392.449h695.005"/><path fill="#D8D8D8" d="M213.306 218.575V354.11h56.879V218.575h-56.879"/><path fill="none" stroke="#AEB5BC" stroke-width="2.5" stroke-linecap="round" stroke-linejoin="round" d="M213.306 218.575V354.11h56.879V218.575h-56.879"/><path fill="#D8D8D8" d="M228.76 238.215v-10.269h-3.54v10.269h3.54"/><path fill="none" stroke="#AEB5BC" stroke-width="2.5" stroke-linecap="round" stroke-linejoin="round" d="M228.76 238.215v-10.269h-3.54v10.269h3.54"/><path fill="#D8D8D8" d="M236.088 238.215v-10.269h-3.49v10.269h3.49"/><path fill="none" stroke="#AEB5BC" stroke-width="2.5" stroke-linecap="round" stroke-linejoin="round" d="M236.088 238.215v-10.269h-3.49v10.269h3.49"/><path fill="#D8D8D8" d="M243.465 238.215v-10.269h-3.489v10.269h3.489"/><path fill="none" stroke="#AEB5BC" stroke-width="2.5" stroke-linecap="round" stroke-linejoin="round" d="M243.465 238.215v-10.269h-3.489v10.269h3.489"/><path fill="#D8D8D8" d="M250.793 238.215v-10.269h-3.489v10.269h3.489"/><path fill="none" stroke="#AEB5BC" stroke-width="2.5" stroke-linecap="round" stroke-linejoin="round" d="M250.793 238.215v-10.269h-3.489v10.269h3.489"/><path fill="#D8D8D8" d="M258.171 238.215v-10.269h-3.489v10.269h3.489"/><path fill="none" stroke="#AEB5BC" stroke-width="2.5" stroke-linecap="round" stroke-linejoin="round" d="M258.171 238.215v-10.269h-3.489v10.269h3.489"/><path fill="#D8D8D8" d="M228.76 253.119v-10.268h-3.54v10.268h3.54"/><path fill="none" stroke="#AEB5BC" stroke-width="2.5" stroke-linecap="round" stroke-linejoin="round" d="M228.76 253.119v-10.268h-3.54v10.268h3.54"/><path fill="#D8D8D8" d="M236.088 253.119v-10.268h-3.49v10.268h3.49"/><path fill="none" stroke="#AEB5BC" stroke-width="2.5" stroke-linecap="round" stroke-linejoin="round" d="M236.088 253.119v-10.268h-3.49v10.268h3.49"/><path fill="#D8D8D8" d="M243.465 253.119v-10.268h-3.489v10.268h3.489"/><path fill="none" stroke="#AEB5BC" stroke-width="2.5" stroke-linecap="round" stroke-linejoin="round" d="M243.465 253.119v-10.268h-3.489v10.268h3.489"/><path fill="#D8D8D8" d="M250.793 253.119v-10.268h-3.489v10.268h3.489"/><path fill="none" stroke="#AEB5BC" stroke-width="2.5" stroke-linecap="round" stroke-linejoin="round" d="M250.793 253.119v-10.268h-3.489v10.268h3.489"/><path fill="#D8D8D8" d="M258.171 253.119v-10.268h-3.489v10.268h3.489"/><path fill="none" stroke="#AEB5BC" stroke-width="2.5" stroke-linecap="round" stroke-linejoin="round" d="M258.171 253.119v-10.268h-3.489v10.268h3.489"/><path fill="#D8D8D8" d="M228.76 257.805h-3.54v10.269h3.54v-10.269"/><path fill="none" stroke="#AEB5BC" stroke-width="2.5" stroke-linecap="round" stroke-linejoin="round" d="M228.76 257.805h-3.54v10.269h3.54v-10.269"/><path fill="#D8D8D8" d="M236.088 257.805h-3.49v10.269h3.49v-10.269"/><path fill="none" stroke="#AEB5BC" stroke-width="2.5" stroke-linecap="round" stroke-linejoin="round" d="M236.088 257.805h-3.49v10.269h3.49v-10.269"/><path fill="#D8D8D8" d="M243.465 257.805h-3.489v10.269h3.489v-10.269"/><path fill="none" stroke="#AEB5BC" stroke-width="2.5" stroke-linecap="round" stroke-linejoin="round" d="M243.465 257.805h-3.489v10.269h3.489v-10.269"/><path fill="#D8D8D8" d="M250.793 257.805h-3.489v10.269h3.489v-10.269"/><path fill="none" stroke="#AEB5BC" stroke-width="2.5" stroke-linecap="round" stroke-linejoin="round" d="M250.793 257.805h-3.489v10.269h3.489v-10.269"/><path fill="#D8D8D8" d="M258.171 257.805h-3.489v10.269h3.489v-10.269"/><path fill="none" stroke="#AEB5BC" stroke-width="2.5" stroke-linecap="round" stroke-linejoin="round" d="M258.171 257.805h-3.489v10.269h3.489v-10.269"/><path fill="#D8D8D8" d="M228.76 282.978v-10.219h-3.54v10.219h3.54"/><path fill="none" stroke="#AEB5BC" stroke-width="2.5" stroke-linecap="round" stroke-linejoin="round" d="M228.76 282.978v-10.219h-3.54v10.219h3.54"/><path fill="#D8D8D8" d="M236.088 282.978v-10.219h-3.49v10.219h3.49"/><path fill="none" stroke="#AEB5BC" stroke-width="2.5" stroke-linecap="round" stroke-linejoin="round" d="M236.088 282.978v-10.219h-3.49v10.219h3.49"/><path fill="#D8D8D8" d="M243.465 282.978v-10.219h-3.489v10.219h3.489"/><path fill="none" stroke="#AEB5BC" stroke-width="2.5" stroke-linecap="round" stroke-linejoin="round" d="M243.465 282.978v-10.219h-3.489v10.219h3.489"/><path fill="#D8D8D8" d="M250.793 282.978v-10.219h-3.489v10.219h3.489"/><path fill="none" stroke="#AEB5BC" stroke-width="2.5" stroke-linecap="round" stroke-linejoin="round" d="M250.793 282.978v-10.219h-3.489v10.219h3.489"/><path fill="#D8D8D8" d="M258.171 282.978v-10.219h-3.489v10.219h3.489"/><path fill="none" stroke="#AEB5BC" stroke-width="2.5" stroke-linecap="round" stroke-linejoin="round" d="M258.171 282.978v-10.219h-3.489v10.219h3.489"/><path fill="#D8D8D8" d="M228.76 297.932v-10.268h-3.54v10.268h3.54"/><path fill="none" stroke="#AEB5BC" stroke-width="2.5" stroke-linecap="round" stroke-linejoin="round" d="M228.76 297.932v-10.268h-3.54v10.268h3.54"/><path fill="#D8D8D8" d="M236.088 297.932v-10.268h-3.49v10.268h3.49"/><path fill="none" stroke="#AEB5BC" stroke-width="2.5" stroke-linecap="round" stroke-linejoin="round" d="M236.088 297.932v-10.268h-3.49v10.268h3.49"/><path fill="#D8D8D8" d="M243.465 297.932v-10.268h-3.489v10.268h3.489"/><path fill="none" stroke="#AEB5BC" stroke-width="2.5" stroke-linecap="round" stroke-linejoin="round" d="M243.465 297.932v-10.268h-3.489v10.268h3.489"/><path fill="#D8D8D8" d="M250.793 297.932v-10.268h-3.489v10.268h3.489"/><path fill="none" stroke="#AEB5BC" stroke-width="2.5" stroke-linecap="round" stroke-linejoin="round" d="M250.793 297.932v-10.268h-3.489v10.268h3.489"/><path fill="#D8D8D8" d="M258.171 297.932v-10.268h-3.489v10.268h3.489"/><path fill="none" stroke="#AEB5BC" stroke-width="2.5" stroke-linecap="round" stroke-linejoin="round" d="M258.171 297.932v-10.268h-3.489v10.268h3.489"/><path fill="#D8D8D8" d="M228.76 312.837v-10.219h-3.54v10.219h3.54"/><path fill="none" stroke="#AEB5BC" stroke-width="2.5" stroke-linecap="round" stroke-linejoin="round" d="M228.76 312.837v-10.219h-3.54v10.219h3.54"/><path fill="#D8D8D8" d="M236.088 312.837v-10.219h-3.49v10.219h3.49"/><path fill="none" stroke="#AEB5BC" stroke-width="2.5" stroke-linecap="round" stroke-linejoin="round" d="M236.088 312.837v-10.219h-3.49v10.219h3.49"/><path fill="#D8D8D8" d="M243.465 312.837v-10.219h-3.489v10.219h3.489"/><path fill="none" stroke="#AEB5BC" stroke-width="2.5" stroke-linecap="round" stroke-linejoin="round" d="M243.465 312.837v-10.219h-3.489v10.219h3.489"/><path fill="#D8D8D8" d="M250.793 312.837v-10.219h-3.489v10.219h3.489"/><path fill="none" stroke="#AEB5BC" stroke-width="2.5" stroke-linecap="round" stroke-linejoin="round" d="M250.793 312.837v-10.219h-3.489v10.219h3.489"/><path fill="#D8D8D8" d="M258.171 312.837v-10.219h-3.489v10.219h3.489"/><path fill="none" stroke="#AEB5BC" stroke-width="2.5" stroke-linecap="round" stroke-linejoin="round" d="M258.171 312.837v-10.219h-3.489v10.219h3.489"/><path fill="#D8D8D8" d="M228.76 327.791v-10.269h-3.54v10.269h3.54"/><path fill="none" stroke="#AEB5BC" stroke-width="2.5" stroke-linecap="round" stroke-linejoin="round" d="M228.76 327.791v-10.269h-3.54v10.269h3.54"/><path fill="#D8D8D8" d="M236.088 327.791v-10.269h-3.49v10.269h3.49"/><path fill="none" stroke="#AEB5BC" stroke-width="2.5" stroke-linecap="round" stroke-linejoin="round" d="M236.088 327.791v-10.269h-3.49v10.269h3.49"/><path fill="#D8D8D8" d="M243.465 327.791v-10.269h-3.489v10.269h3.489"/><path fill="none" stroke="#AEB5BC" stroke-width="2.5" stroke-linecap="round" stroke-linejoin="round" d="M243.465 327.791v-10.269h-3.489v10.269h3.489"/><path fill="#D8D8D8" d="M250.793 327.791v-10.269h-3.489v10.269h3.489"/><path fill="none" stroke="#AEB5BC" stroke-width="2.5" stroke-linecap="round" stroke-linejoin="round" d="M250.793 327.791v-10.269h-3.489v10.269h3.489"/><path fill="#D8D8D8" d="M258.171 327.791v-10.269h-3.489v10.269h3.489"/><path fill="none" stroke="#AEB5BC" stroke-width="2.5" stroke-linecap="round" stroke-linejoin="round" d="M258.171 327.791v-10.269h-3.489v10.269h3.489"/><path fill="#D8D8D8" d="M247.254 353.612v-16.201h-11.166v16.201h11.166"/><path fill="none" stroke="#AEB5BC" stroke-width="2.5" stroke-linecap="round" stroke-linejoin="round" d="M247.254 353.612v-16.201h-11.166v16.201h11.166"/><path fill="#D8D8D8" d="M240.225 199.733h2.692l-.299-20.238h-1.795l-.598 20.238"/><path fill="none" stroke="#AEB5BC" stroke-width="2.5" stroke-linecap="round" stroke-linejoin="round" d="M240.225 199.733h2.692l-.299-20.238h-1.795l-.598 20.238"/><path fill="#D8D8D8" d="M241.721 202.325q-7.428 0-13.46 4.586-5.882 4.486-8.175 11.664h43.269q-2.293-7.178-8.175-11.664-5.982-4.586-13.459-4.586"/><path fill="none" stroke="#AEB5BC" stroke-width="2.5" stroke-linecap="round" stroke-linejoin="round" d="M241.721 202.325q-7.428 0-13.46 4.586-5.882 4.486-8.175 11.664h43.269q-2.293-7.178-8.175-11.664-5.982-4.586-13.459-4.586"/><path fill="#D8D8D8" d="M241.023 210.45h1.396q1.495 0 2.542-1.047 1.047-1.047 1.047-2.492v-6.879q0-1.496-1.047-2.542-1.047-1.047-2.542-1.047h-1.396q-1.446 0-2.493 1.047-1.047 1.046-1.047 2.542v6.879q0 1.445 1.047 2.492t2.493 1.047"/><path fill="none" stroke="#AEB5BC" stroke-width="2.5" stroke-linecap="round" stroke-linejoin="round" d="M241.023 210.45h1.396q1.495 0 2.542-1.047 1.047-1.047 1.047-2.492v-6.879q0-1.496-1.047-2.542-1.047-1.047-2.542-1.047h-1.396q-1.446 0-2.493 1.047-1.047 1.046-1.047 2.542v6.879q0 1.445 1.047 2.492t2.493 1.047"/><path fill="#E0E2E1" d="M194.314 99.34l-30.658-13.16-30.707 13.16v255.368h61.365V99.34"/><path fill="none" stroke="#AEB5BC" stroke-width="2.5" stroke-linecap="round" stroke-linejoin="round" d="M194.314 99.34l-30.658-13.16-30.707 13.16v255.368h61.365V99.34"/><path fill="#E0E2E1" d="M223.924 354.708V119.08h-29.61v235.628h29.61"/><path fill="none" stroke="#AEB5BC" stroke-width="2.5" stroke-linecap="round" stroke-linejoin="round" d="M223.924 354.708V119.08h-29.61v235.628h29.61"/><path fill="#E0E2E1" d="M180.057 146.496v-9.87h-33.948v9.87h33.948"/><path fill="none" stroke="#AEB5BC" stroke-width="2.5" stroke-linecap="round" stroke-linejoin="round" d="M180.057 146.496v-9.87h-33.948v9.87h33.948"/><path fill="#E0E2E1" d="M180.057 166.186v-9.82h-33.948v9.82h33.948"/><path fill="none" stroke="#AEB5BC" stroke-width="2.5" stroke-linecap="round" stroke-linejoin="round" d="M180.057 166.186v-9.82h-33.948v9.82h33.948"/><path fill="#E0E2E1" d="M180.057 116.886h-33.948v9.87h33.948v-9.87"/><path fill="none" stroke="#AEB5BC" stroke-width="2.5" stroke-linecap="round" stroke-linejoin="round" d="M180.057 116.886h-33.948v9.87h33.948v-9.87"/><path fill="#E0E2E1" d="M180.057 185.925v-9.87h-33.948v9.87h33.948"/><path fill="none" stroke="#AEB5BC" stroke-width="2.5" stroke-linecap="round" stroke-linejoin="round" d="M180.057 185.925v-9.87h-33.948v9.87h33.948"/><path fill="#E0E2E1" d="M180.057 205.665v-9.87h-33.948v9.87h33.948"/><path fill="none" stroke="#AEB5BC" stroke-width="2.5" stroke-linecap="round" stroke-linejoin="round" d="M180.057 205.665v-9.87h-33.948v9.87h33.948"/><path fill="#E0E2E1" d="M180.057 215.534h-33.948v9.87h33.948v-9.87"/><path fill="none" stroke="#AEB5BC" stroke-width="2.5" stroke-linecap="round" stroke-linejoin="round" d="M180.057 215.534h-33.948v9.87h33.948v-9.87"/><path fill="#E0E2E1" d="M180.057 245.094v-9.87h-33.948v9.87h33.948"/><path fill="none" stroke="#AEB5BC" stroke-width="2.5" stroke-linecap="round" stroke-linejoin="round" d="M180.057 245.094v-9.87h-33.948v9.87h33.948"/><path fill="#E0E2E1" d="M180.057 264.834v-9.87h-33.948v9.87h33.948"/><path fill="none" stroke="#AEB5BC" stroke-width="2.5" stroke-linecap="round" stroke-linejoin="round" d="M180.057 264.834v-9.87h-33.948v9.87h33.948"/><path fill="#E0E2E1" d="M180.057 284.573v-9.87h-33.948v9.87h33.948"/><path fill="none" stroke="#AEB5BC" stroke-width="2.5" stroke-linecap="round" stroke-linejoin="round" d="M180.057 284.573v-9.87h-33.948v9.87h33.948"/><path fill="#E0E2E1" d="M180.057 304.263v-9.82h-33.948v9.82h33.948"/><path fill="none" stroke="#AEB5BC" stroke-width="2.5" stroke-linecap="round" stroke-linejoin="round" d="M180.057 304.263v-9.82h-33.948v9.82h33.948"/><path fill="#E0E2E1" d="M180.057 314.133h-33.948v9.869h33.948v-9.869"/><path fill="none" stroke="#AEB5BC" stroke-width="2.5" stroke-linecap="round" stroke-linejoin="round" d="M180.057 314.133h-33.948v9.869h33.948v-9.869"/><path fill="#E0E2E1" d="M212.957 148.689v-12.063h-7.676v12.063h7.676"/><path fill="none" stroke="#AEB5BC" stroke-width="2.5" stroke-linecap="round" stroke-linejoin="round" d="M212.957 148.689v-12.063h-7.676v12.063h7.676"/><path fill="#E0E2E1" d="M212.957 168.379v-12.013h-7.676v12.013h7.676"/><path fill="none" stroke="#AEB5BC" stroke-width="2.5" stroke-linecap="round" stroke-linejoin="round" d="M212.957 168.379v-12.013h-7.676v12.013h7.676"/><path fill="#E0E2E1" d="M212.957 188.118v-12.063h-7.676v12.063h7.676"/><path fill="none" stroke="#AEB5BC" stroke-width="2.5" stroke-linecap="round" stroke-linejoin="round" d="M212.957 188.118v-12.063h-7.676v12.063h7.676"/><path fill="#E0E2E1" d="M212.957 207.858v-12.063h-7.676v12.063h7.676"/><path fill="none" stroke="#AEB5BC" stroke-width="2.5" stroke-linecap="round" stroke-linejoin="round" d="M212.957 207.858v-12.063h-7.676v12.063h7.676"/><path fill="#E0E2E1" d="M212.957 215.534h-7.676v12.014h7.676v-12.014"/><path fill="none" stroke="#AEB5BC" stroke-width="2.5" stroke-linecap="round" stroke-linejoin="round" d="M212.957 215.534h-7.676v12.014h7.676v-12.014"/><path fill="#E0E2E1" d="M212.957 247.287v-12.063h-7.676v12.063h7.676"/><path fill="none" stroke="#AEB5BC" stroke-width="2.5" stroke-linecap="round" stroke-linejoin="round" d="M212.957 247.287v-12.063h-7.676v12.063h7.676"/><path fill="#E0E2E1" d="M212.957 267.027v-12.063h-7.676v12.063h7.676"/><path fill="none" stroke="#AEB5BC" stroke-width="2.5" stroke-linecap="round" stroke-linejoin="round" d="M212.957 267.027v-12.063h-7.676v12.063h7.676"/><path fill="#E0E2E1" d="M212.957 286.766v-12.063h-7.676v12.063h7.676"/><path fill="none" stroke="#AEB5BC" stroke-width="2.5" stroke-linecap="round" stroke-linejoin="round" d="M212.957 286.766v-12.063h-7.676v12.063h7.676"/><path fill="#E0E2E1" d="M212.957 306.456v-12.013h-7.676v12.013h7.676"/><path fill="none" stroke="#AEB5BC" stroke-width="2.5" stroke-linecap="round" stroke-linejoin="round" d="M212.957 306.456v-12.013h-7.676v12.013h7.676"/><path fill="#E0E2E1" d="M212.957 314.133h-7.676v12.063h7.676v-12.063"/><path fill="none" stroke="#AEB5BC" stroke-width="2.5" stroke-linecap="round" stroke-linejoin="round" d="M212.957 314.133h-7.676v12.063h7.676v-12.063"/><path fill="#E0E2E1" d="M132.949 119.08h-29.611v235.628h29.611V119.08"/><path fill="none" stroke="#AEB5BC" stroke-width="2.5" stroke-linecap="round" stroke-linejoin="round" d="M132.949 119.08h-29.611v235.628h29.611V119.08"/><path fill="#E0E2E1" d="M121.982 148.689v-12.063h-7.677v12.063h7.677"/><path fill="none" stroke="#AEB5BC" stroke-width="2.5" stroke-linecap="round" stroke-linejoin="round" d="M121.982 148.689v-12.063h-7.677v12.063h7.677"/><path fill="#E0E2E1" d="M121.982 168.379v-12.013h-7.677v12.013h7.677"/><path fill="none" stroke="#AEB5BC" stroke-width="2.5" stroke-linecap="round" stroke-linejoin="round" d="M121.982 168.379v-12.013h-7.677v12.013h7.677"/><path fill="#E0E2E1" d="M121.982 188.118v-12.063h-7.677v12.063h7.677"/><path fill="none" stroke="#AEB5BC" stroke-width="2.5" stroke-linecap="round" stroke-linejoin="round" d="M121.982 188.118v-12.063h-7.677v12.063h7.677"/><path fill="#E0E2E1" d="M121.982 207.858v-12.063h-7.677v12.063h7.677"/><path fill="none" stroke="#AEB5BC" stroke-width="2.5" stroke-linecap="round" stroke-linejoin="round" d="M121.982 207.858v-12.063h-7.677v12.063h7.677"/><path fill="#E0E2E1" d="M121.982 215.534h-7.677v12.014h7.677v-12.014"/><path fill="none" stroke="#AEB5BC" stroke-width="2.5" stroke-linecap="round" stroke-linejoin="round" d="M121.982 215.534h-7.677v12.014h7.677v-12.014"/><path fill="#E0E2E1" d="M121.982 247.287v-12.063h-7.677v12.063h7.677"/><path fill="none" stroke="#AEB5BC" stroke-width="2.5" stroke-linecap="round" stroke-linejoin="round" d="M121.982 247.287v-12.063h-7.677v12.063h7.677"/><path fill="#E0E2E1" d="M121.982 267.027v-12.063h-7.677v12.063h7.677"/><path fill="none" stroke="#AEB5BC" stroke-width="2.5" stroke-linecap="round" stroke-linejoin="round" d="M121.982 267.027v-12.063h-7.677v12.063h7.677"/><path fill="#E0E2E1" d="M121.982 286.766v-12.063h-7.677v12.063h7.677"/><path fill="none" stroke="#AEB5BC" stroke-width="2.5" stroke-linecap="round" stroke-linejoin="round" d="M121.982 286.766v-12.063h-7.677v12.063h7.677"/><path fill="#E0E2E1" d="M121.982 306.456v-12.013h-7.677v12.013h7.677"/><path fill="none" stroke="#AEB5BC" stroke-width="2.5" stroke-linecap="round" stroke-linejoin="round" d="M121.982 306.456v-12.013h-7.677v12.013h7.677"/><path fill="#E0E2E1" d="M121.982 314.133h-7.677v12.063h7.677v-12.063"/><path fill="none" stroke="#AEB5BC" stroke-width="2.5" stroke-linecap="round" stroke-linejoin="round" d="M121.982 314.133h-7.677v12.063h7.677v-12.063"/><path fill="#E66C6C" stroke="#1A344F" stroke-width="2.5" stroke-linecap="round" stroke-linejoin="round" d="M310.912 223.959h-31.056v131.497h31.056V223.959"/><path fill="#F4CFC2" d="M279.856 172.068v51.891h31.056v-51.891h-31.056"/><path fill="#99C977" d="M347.701 136.427v-29.66h-53.14v29.66h53.14"/><path fill="none" stroke="#1A344F" stroke-width="2.5" stroke-linecap="round" stroke-linejoin="round" d="M347.701 136.427v-29.66h-53.14v29.66h53.14"/><path fill="#EDEDED" d="M341.47 117.435q-2.044-.249-3.44-1.745-1.395-1.495-1.545-3.539h-30.707q-.15 2.044-1.546 3.539-1.396 1.496-3.439 1.745v7.327q2.043.25 3.439 1.745t1.546 3.539h30.707q.15-2.044 1.545-3.539 1.396-1.495 3.44-1.745v-7.327"/><path fill="none" stroke="#1A344F" stroke-width="2.5" stroke-linecap="round" stroke-linejoin="round" d="M341.47 117.435q-2.044-.249-3.44-1.745-1.395-1.495-1.545-3.539h-30.707q-.15 2.044-1.546 3.539-1.396 1.496-3.439 1.745v7.327q2.043.25 3.439 1.745t1.546 3.539h30.707q.15-2.044 1.545-3.539 1.396-1.495 3.44-1.745v-7.327"/><path fill="#F4AF28" d="M321.131 116.288q-1.994 0-3.389 1.396-1.446 1.446-1.446 3.439 0 1.994 1.446 3.39 1.395 1.396 3.389 1.396 1.994 0 3.39-1.396 1.446-1.396 1.446-3.39 0-1.993-1.446-3.439-1.396-1.396-3.39-1.396"/><path fill="none" stroke="#1A344F" stroke-width="2.5" stroke-linecap="round" stroke-linejoin="round" d="M321.131 116.288q-1.994 0-3.389 1.396-1.446 1.446-1.446 3.439 0 1.994 1.446 3.39 1.395 1.396 3.389 1.396 1.994 0 3.39-1.396 1.446-1.396 1.446-3.39 0-1.993-1.446-3.439-1.396-1.396-3.39-1.396M294.561 102.381v68.64"/><path fill="#FFF" stroke="#19344F" stroke-width="2.5" stroke-linecap="round" stroke-linejoin="round" d="M265.349 81.495l35.145-.698 9.421-3.589-12.462-9.97-24.427 3.24q-1.994.3-4.137.798-4.287.997-4.935 2.044-.648 1.047.299 4.735.498 1.845 1.096 3.44"/><path fill="#FFF" d="M297.104 52.832q-10.568 0-17.398 4.636-7.278 4.935-9.023 14.307l53.589 3.24q-1.944-9.571-9.521-15.852-7.677-6.331-17.647-6.331"/><path fill="none" stroke="#19344F" stroke-width="2.5" stroke-linecap="round" stroke-linejoin="round" d="M279.706 57.468q6.83-4.636 17.398-4.636 9.97 0 17.647 6.331 7.577 6.281 9.521 15.852m-44.566-17.547q-7.278 4.935-9.023 14.307"/><path fill="#FFF" d="M283.545 69.432q-4.786-4.287-11.067-4.287-6.78 0-11.565 4.785-4.786 4.786-4.786 11.565l27.418-12.063"/><path fill="none" stroke="#19344F" stroke-width="2.5" stroke-linecap="round" stroke-linejoin="round" d="M272.478 65.145q6.281 0 11.067 4.287m-11.067-4.287q-6.78 0-11.565 4.785-4.786 4.786-4.786 11.565"/><path fill="#FFF" d="M341 90.2q.9-.85.9-2.1v-2.3q0-6.4-4.45-10.9-4.5-4.45-10.85-4.45-4.6 0-8.55 2.65l-56.25 3.5q-3.95-3.4-9.25-3.2-5.25.2-8.9 4.15-3.55 3.95-3.55 9.25 0 1.8 1.25 3.05 1.25 1.25 3.05 1.25h94.55q1.2 0 2.05-.9"/><path fill="#E8E8E9" d="M260.738 91.046q-11.939-.376-11.366-8.823.299-4.437 3.19-8.873-5.234.249-8.873 4.137-3.589 3.938-3.589 9.222 0 1.795 1.296 3.091 1.246 1.246 3.041 1.246h16.301"/><path fill="none" stroke="#19344F" stroke-width="2.5" stroke-linecap="round" stroke-linejoin="round" d="M341.071 90.268q-.847.897-2.094.897h-94.515q-1.794 0-3.04-1.246-1.296-1.296-1.296-3.091 0-5.283 3.589-9.221 3.639-3.938 8.873-4.188 5.334-.199 9.272 3.241m79.211 13.608q.897-.897.897-2.144v-2.293q0-6.38-4.486-10.866-4.486-4.487-10.817-4.487-4.636 0-8.575 2.642M314.202 64.796q1.396 1.595 1.994 2.442"/><path fill="#FFF" d="M311.411 62.254q-3.141-2.343-6.73-3.689-4.038-1.396-8.225-1.396l14.955 5.085"/><path fill="none" stroke="#19344F" stroke-width="2.5" stroke-linecap="round" stroke-linejoin="round" d="M304.681 58.565q3.589 1.346 6.73 3.689m-6.73-3.689q-4.038-1.396-8.225-1.396M582.094 164.69q-.847.897-2.093.897h-94.515q-1.795 0-3.041-1.246-1.296-1.296-1.296-3.09 0-5.284 3.589-9.222 3.639-3.888 8.873-4.137 5.284-.3 9.272 3.19m79.211 13.608q.898-.897.898-2.143v-2.293q0-6.331-4.487-10.817-4.436-4.486-10.817-4.486-4.736 0-8.574 2.592M341.071 90.268q-.847.897-2.094.897h-94.515q-1.794 0-3.04-1.246-1.296-1.296-1.296-3.091 0-5.283 3.589-9.221 3.639-3.938 8.873-4.188 5.334-.199 9.272 3.241m79.211 13.608q.897-.897.897-2.144v-2.293q0-6.38-4.486-10.866-4.486-4.487-10.817-4.487-4.636 0-8.575 2.642"/><path fill="none" stroke="#1A344F" stroke-width="2.75" stroke-linecap="round" stroke-linejoin="round" d="M56.429 355.107h600.49"/><path fill="#C25251" d="M290.324 224.906h-10.468V354.11h10.468V224.906"/><path fill="#F2B7A3" d="M290.324 173.064h-10.468v52.44h10.468v-52.44"/><path fill="none" stroke="#1A344F" stroke-width="2.5" stroke-linecap="round" stroke-linejoin="round" d="M279.856 172.068v51.891h31.056v-51.891h-31.056M310.912 223.959h-31.056v131.497h31.056V223.959"/><path fill="#E0E2E1" d="M595.554 55.574h-3.34v29.261h-12.961v38.332h-7.328v228.7h43.918v-228.7h-7.328V84.835h-12.961V55.574"/><path fill="none" stroke="#AEB5BC" stroke-width="2.5" stroke-linecap="round" stroke-linejoin="round" d="M595.554 55.574h-3.34v29.261h-12.961v38.332h-7.328v228.7h43.918v-228.7h-7.328V84.835h-12.961V55.574"/><path fill="#E0E2E1" d="M571.925 144.651v4.487h43.918v-4.487h-43.918M571.925 152.876v4.487h43.918v-4.487h-43.918M571.925 161.051v4.536h43.918v-4.536h-43.918M571.925 136.427v4.536h43.918v-4.536h-43.918M571.925 128.202v4.536h43.918v-4.536h-43.918M615.843 173.812v-4.536h-43.918v4.536h43.918M615.843 214.837v-4.487h-43.918v4.487h43.918M615.843 181.987v-4.486h-43.918v4.486h43.918M615.843 206.612v-4.487h-43.918v4.487h43.918M615.843 198.437v-4.536h-43.918v4.536h43.918M615.843 190.212v-4.486h-43.918v4.486h43.918M571.925 251.375v4.536h43.918v-4.536h-43.918M571.925 259.6v4.486h43.918V259.6h-43.918M571.925 243.2v4.486h43.918V243.2h-43.918M571.925 234.975v4.486h43.918v-4.486h-43.918M571.925 226.75v4.536h43.918v-4.536h-43.918M571.925 218.525v4.536h43.918v-4.536h-43.918M615.843 272.311v-4.487h-43.918v4.487h43.918M615.843 280.535v-4.536h-43.918v4.536h43.918M615.843 288.76v-4.536h-43.918v4.536h43.918M615.843 313.385v-4.536h-43.918v4.536h43.918M615.843 296.935v-4.486h-43.918v4.486h43.918M615.843 305.16v-4.486h-43.918v4.486h43.918M571.925 325.298v4.487h43.918v-4.487h-43.918M571.925 341.698v4.536h43.918v-4.536h-43.918M571.925 333.473v4.537h43.918v-4.537h-43.918M571.925 317.074v4.486h43.918v-4.486h-43.918"/><path fill="none" stroke="#AEB5BC" stroke-width="2.5" stroke-linecap="round" stroke-linejoin="round" d="M571.925 144.651v4.487h43.918v-4.487h-43.918M571.925 152.876v4.487h43.918v-4.487h-43.918M571.925 161.051v4.536h43.918v-4.536h-43.918M571.925 136.427v4.536h43.918v-4.536h-43.918M571.925 128.202v4.536h43.918v-4.536h-43.918M615.843 173.812v-4.536h-43.918v4.536h43.918M615.843 214.837v-4.487h-43.918v4.487h43.918M615.843 181.987v-4.486h-43.918v4.486h43.918M615.843 206.612v-4.487h-43.918v4.487h43.918M615.843 198.437v-4.536h-43.918v4.536h43.918M615.843 190.212v-4.486h-43.918v4.486h43.918M571.925 251.375v4.536h43.918v-4.536h-43.918M571.925 259.6v4.486h43.918V259.6h-43.918M571.925 243.2v4.486h43.918V243.2h-43.918M571.925 234.975v4.486h43.918v-4.486h-43.918M571.925 226.75v4.536h43.918v-4.536h-43.918M571.925 218.525v4.536h43.918v-4.536h-43.918M615.843 272.311v-4.487h-43.918v4.487h43.918M615.843 280.535v-4.536h-43.918v4.536h43.918M615.843 288.76v-4.536h-43.918v4.536h43.918M615.843 313.385v-4.536h-43.918v4.536h43.918M615.843 296.935v-4.486h-43.918v4.486h43.918M615.843 305.16v-4.486h-43.918v4.486h43.918M571.925 325.298v4.487h43.918v-4.487h-43.918M571.925 341.698v4.536h43.918v-4.536h-43.918M571.925 333.473v4.537h43.918v-4.537h-43.918M571.925 317.074v4.486h43.918v-4.486h-43.918"/><path fill="#FFF" stroke="#19344F" stroke-width="2.5" stroke-linecap="round" stroke-linejoin="round" d="M506.373 155.917l35.144-.648 9.421-3.639-12.462-9.969-24.426 3.29q-1.994.299-4.138.747-4.287.997-4.935 2.094-.648 1.047.299 4.685.499 1.845 1.097 3.44"/><path fill="#FFF" d="M565.295 149.437q-1.944-9.571-9.521-15.802-7.677-6.33-17.647-6.33-10.568 0-17.398 4.635-7.278 4.935-9.022 14.307l53.588 3.19"/><path fill="none" stroke="#19344F" stroke-width="2.5" stroke-linecap="round" stroke-linejoin="round" d="M555.774 133.635q7.577 6.231 9.521 15.802m-9.521-15.802q-7.677-6.33-17.647-6.33-10.568 0-17.398 4.635-7.278 4.935-9.022 14.307"/><path fill="#FFF" d="M501.936 144.402q-4.785 4.736-4.785 11.515l27.417-12.063q-4.736-4.237-11.067-4.237-6.779 0-11.565 4.785"/><path fill="none" stroke="#19344F" stroke-width="2.5" stroke-linecap="round" stroke-linejoin="round" d="M497.151 155.917q0-6.779 4.785-11.515 4.786-4.785 11.565-4.785 6.331 0 11.067 4.237"/><path fill="#FFF" d="M559.05 147.5l-56.2 3.55q-4-3.5-9.3-3.2-5.2.25-8.85 4.15-3.6 3.9-3.6 9.2 0 1.8 1.3 3.1 1.25 1.25 3.05 1.25h94.5q1.25 0 2.1-.9.9-.9.9-2.15v-2.3q0-6.3-4.5-10.8-4.45-4.5-10.8-4.5-4.75 0-8.6 2.6"/><path fill="#E8E8E9" d="M501.738 165.446q-11.939-.376-11.366-8.823.299-4.437 3.19-8.873-5.234.249-8.873 4.187-3.589 3.888-3.589 9.222 0 1.745 1.296 3.041 1.246 1.246 3.041 1.246h16.301"/><path fill="none" stroke="#19344F" stroke-width="2.5" stroke-linecap="round" stroke-linejoin="round" d="M582.094 164.69q-.847.897-2.093.897h-94.515q-1.795 0-3.041-1.246-1.296-1.296-1.296-3.09 0-5.284 3.589-9.222 3.639-3.888 8.873-4.137 5.284-.3 9.272 3.19m79.211 13.608q.898-.897.898-2.143v-2.293q0-6.331-4.487-10.817-4.436-4.486-10.817-4.486-4.736 0-8.574 2.592M555.225 139.218q1.396 1.595 1.994 2.443"/><path fill="#FFF" d="M552.434 136.676q-3.141-2.343-6.73-3.689-4.038-1.396-8.225-1.396l14.955 5.085"/><path fill="none" stroke="#19344F" stroke-width="2.5" stroke-linecap="round" stroke-linejoin="round" d="M545.704 132.987q3.589 1.346 6.73 3.689m-6.73-3.689q-4.038-1.396-8.225-1.396"/><g transform="matrix(.997 0 0 .997 375.75 355.4)"><animateTransform attributeName="transform" additive="replace" type="translate" repeatCount="indefinite" dur="2.042s" keyTimes="0;0.02;0.041;0.061;0.082;0.102;0.122;0.143;0.163;0.184;0.204;0.224;0.245;0.265;0.286;0.306;0.326;0.347;0.367;0.388;0.408;1" values="376.747,355.649;376.747,355.641;376.747,355.633;376.747,355.67;376.747,355.667;376.747,355.659;376.747,355.651;376.747,355.644;376.747,355.636;376.747,355.663;376.747,355.671;376.747,355.667;376.747,355.637;376.747,355.654;376.747,355.61;376.747,355.66;376.747,355.668;376.747,355.676;376.747,355.633;376.747,355.641;376.747,355.649;376.747,355.649" calcMode="discrete"/><animateTransform attributeName="transform" additive="sum" type="scale" repeatCount="indefinite" dur="2.042s" keyTimes="0;0.02;0.041;0.061;0.082;0.102;0.122;0.143;0.163;0.184;0.204;0.224;0.245;0.265;0.286;0.306;0.326;0.347;0.367;0.388;0.408;1" values="0.997,0.997;0.997,0.965;0.997,0.933;0.997,0.901;0.997,0.87;0.997,0.838;0.997,0.806;0.997,0.774;0.997,0.742;0.997,0.71;0.997,0.736;0.997,0.762;0.997,0.789;0.997,0.815;0.997,0.841;0.997,0.867;0.997,0.893;0.997,0.919;0.997,0.945;0.997,0.971;0.997,0.997;0.997,0.997" calcMode="discrete"/><animateTransform attributeName="transform" additive="sum" type="translate" repeatCount="indefinite" dur="2.042s" keyTimes="0;0.041;0.061;0.082;0.163;0.184;0.204;0.224;0.245;0.265;0.286;0.306;0.388;0.408;1" values="-1,-0.25;-1,-0.25;-1,-0.3;-1,-0.25;-1,-0.25;-1,-0.3;-1,-0.3;-1,-0.35;-1,-0.3;-1,-0.25;-1,-0.25;-1,-0.3;-1,-0.3;-1,-0.25;-1,-0.25" calcMode="discrete"/><path fill="#E66C6C" stroke="#1A344F" stroke-width="2.5" stroke-linecap="round" stroke-linejoin="round" d="M11.851-28.899v27.95h31.15v-27.95h-31.15"/><path fill="#C25251" d="M43.001-28.899l-24.25 1.2.8 2.7q1.2 3.2 3.25 5.95 6.55 8.75 19.15 9.15l1.05-19"/><path fill="none" stroke="#1A344F" stroke-width="2.35" stroke-linecap="round" stroke-linejoin="round" d="M11.851-28.899v27.95h31.15v-27.95h-31.15"/><path fill="#E66C6C" stroke="#1A344F" stroke-width="2.5" stroke-linecap="round" stroke-linejoin="round" d="M-11.699.051v-85.55h-31.15V.051h31.15"/><path fill="#F4CFC2" d="M-11.699-99.449h-31.15v25.45h31.15v-25.45"/><path fill="#C25251" d="M-32.799-73.899h-10.05v73.45h10.05v-73.45"/><path fill="#F2B7A3" d="M-32.799-99.899h-10.05v25.45h10.05v-25.45"/><path fill="none" stroke="#1A344F" stroke-width="2.5" stroke-linecap="round" stroke-linejoin="round" d="M-11.699-99.449h-31.15v25.45h31.15v-25.45"/><path fill="none" stroke="#1A344F" stroke-width="2.29" stroke-linecap="round" stroke-linejoin="round" d="M-11.699.051v-73.55h-31.15V.051h31.15"/></g><path fill="#E66C6C" stroke="#1A344F" stroke-width="2.5" stroke-linecap="round" stroke-linejoin="round" d="M364.102 354.706v-85.289h-31.057v85.289h31.057"/><path fill="#F4CFC2" d="M364.102 255.51h-31.057v25.372h31.057V255.51"/><path fill="#C25251" d="M343.065 280.982h-10.02v73.226h10.02v-73.226"/><path fill="#F2B7A3" d="M343.065 255.061h-10.02v25.372h10.02v-25.372"/><path fill="none" stroke="#1A344F" stroke-width="2.5" stroke-linecap="round" stroke-linejoin="round" d="M364.102 255.51h-31.057v25.372h31.057V255.51"/><path fill="none" stroke="#1A344F" stroke-width="2.29" stroke-linecap="round" stroke-linejoin="round" d="M364.102 354.706v-73.325h-31.057v73.325h31.057"/><g transform="matrix(.997 0 0 .997 402.85 296.85)"><animateTransform attributeName="transform" additive="replace" type="translate" repeatCount="indefinite" dur="2.042s" keyTimes="0;0.02;0.041;0.061;0.082;0.102;0.122;0.143;0.163;0.184;0.204;0.224;0.245;0.265;0.286;0.306;0.326;0.347;0.367;0.388;0.408;1" values="402.85,296.85;402.7,298.9;402.55,301;402.4,303.05;402.25,305.1;402.15,307.2;402,309.25;401.85,311.3;401.7,313.4;401.55,315.45;401.65,313.75;401.8,312.05;401.9,310.4;402,308.7;402.15,307;402.25,305.3;402.4,303.6;402.5,301.9;402.6,300.25;402.75,298.55;402.85,296.85;402.85,296.85" calcMode="discrete"/><animateTransform attributeName="transform" additive="sum" type="scale" repeatCount="indefinite" dur="2.042s" keyTimes="0;1" values="0.997,0.997;0.997,0.997" calcMode="discrete"/><path fill="#E66C6C" stroke="#1A344F" stroke-width="2.5" stroke-linecap="round" stroke-linejoin="round" d="M14.351-15.449h-7.75v-14.45h-13.05v14.45h-7.75L.101.051l14.25-15.5"/></g><path fill="#78543F" d="M486.084 345.636l3.589 8.524h37.687l16.649-69.637-49.849 16.251 13.658 38.332-18.145 2.941q-1.495 0-2.542 1.047-1.047 1.047-1.047 2.542"/><path fill="#67442B" d="M519.035 309.397l-2.443-2.542-20.438-4.237 1.844 4.287q2.493 5.284 5.733 9.969 10.319 15.104 24.227 19.191v-5.882l-8.923-20.786"/><path fill="none" stroke="#1A344F" stroke-width="2.5" stroke-linecap="round" stroke-linejoin="round" d="M486.084 345.636l3.589 8.524h37.687l16.649-69.637m-57.925 61.113q0-1.495 1.047-2.542 1.047-1.047 2.542-1.047l18.145-2.941-13.658-38.332"/><g transform="matrix(.997 0 0 .997 468.2 307.1)"><animateTransform attributeName="transform" additive="replace" type="translate" repeatCount="indefinite" dur="2.042s" keyTimes="0;0.02;0.041;0.061;0.082;0.102;0.122;0.143;0.163;0.184;0.204;0.224;0.245;0.265;0.286;0.306;0.326;0.347;0.367;0.388;0.408;1" values="568.149,283.822;568.173,283.816;568.134,283.813;568.131,283.815;568.159,283.873;568.171,283.878;568.114,283.848;568.081,283.834;568.142,283.852;568.104,283.863;568.102,283.887;568.143,283.891;568.183,283.807;568.145,283.824;568.17,283.836;568.158,283.862;568.158,283.84;568.163,283.819;568.15,283.846;568.23,283.837;568.149,283.822;568.149,283.822" calcMode="discrete"/><animateTransform attributeName="transform" additive="sum" type="rotate" repeatCount="indefinite" dur="2.042s" keyTimes="0;0.02;0.041;0.061;0.082;0.102;0.122;0.143;0.163;0.184;0.204;0.224;0.245;0.265;0.286;0.306;0.326;0.347;0.367;0.388;0.408;1" values="0,0,0;-0.754,0,0;-1.51,0,0;-2.266,0,0;-3.021,0,0;-3.777,0,0;-4.532,0,0;-5.288,0,0;-6.043,0,0;-6.94,0,0;-6.267,0,0;-5.546,0,0;-5.012,0,0;-4.292,0,0;-3.76,0,0;-3.039,0,0;-2.505,0,0;-1.786,0,0;-1.253,0,0;-0.533,0,0;0,0,0;0,0,0" calcMode="discrete"/><animateTransform attributeName="transform" additive="sum" type="skewX" repeatCount="indefinite" dur="2.042s" keyTimes="0;0.02;0.041;0.061;0.082;0.102;0.122;0.143;0.163;0.184;0.204;0.224;0.245;0.265;0.286;0.306;0.326;0.347;1" values="0;0;0.001;0;-0.001;0;0;0.001;0.001;0;0;0.001;0.001;0;0;0.001;0.001;0;0" calcMode="discrete"/><animateTransform attributeName="transform" additive="sum" type="scale" repeatCount="indefinite" dur="2.042s" keyTimes="0;0.102;0.122;0.163;0.184;0.204;0.245;0.265;1" values="0.997,0.997;0.997,0.997;0.996,0.996;0.996,0.996;0.997,0.997;0.996,0.996;0.996,0.996;0.997,0.997;0.997,0.997" calcMode="discrete"/><animateTransform attributeName="transform" additive="sum" type="translate" repeatCount="indefinite" dur="2.042s" keyTimes="0;0.02;0.041;0.061;0.082;0.102;0.122;0.143;0.163;0.184;0.204;0.224;0.245;0.265;0.286;0.306;0.326;0.347;0.367;0.388;0.408;1" values="-100.25,23.349;-100.25,23.399;-100.25,23.349;-100.25,23.349;-100.25,23.299;-100.35,23.249;-100.3,23.249;-100.15,23.349;-100.25,23.349;-100.25,23.299;-100.3,23.249;-100.3,23.249;-100.3,23.299;-100.25,23.349;-100.35,23.299;-100.3,23.299;-100.25,23.299;-100.25,23.299;-100.3,23.299;-100.3,23.299;-100.25,23.349;-100.25,23.349" calcMode="discrete"/><path fill="#9B7253" d="M13.35-92.75q0-2.8-2-4.8Q9.4-99.5 6.6-99.5l-38.9-12.8q-3.2 0-20.95 7.2-14.1 5.7-20.6 8.75l-14 6.45q-2.3 1.05-3.7 3.2-1.35 2.15-1.35 4.7l-10.4 12.95q-3.5 2.8-3.8 4.45-.3 1.65 2 5.45 2.05 3.45 5.75 4.95 3.75 1.55 7.6.45L-81-56.7q5.3-1.4 10.3.25l6.55 2.1q7.1 2.3 11.85 8.1 4.5 5.45 37.05 20.65 1.7-.15 5.85-.45l3.45 2.95q4.7 3.65 10.7 7.1Q24.1-4.95 49.95 0l50.45-20.7.15-.8q3 0 5.45-1.8 2.45-1.75 3.4-4.65l.85-2.65q.7-2.2.3-4.4-.35-2.2-1.7-4.05-12.35-16.45-30.5-29.3-29.4-20.8-65-24.4"/><path fill="#7C5738" d="M-94.074-79.399h1.625q0-4.25-1.05-2.1-.416.873-.575 2.1M-93.999-75.249q-.292-2.425-.075-4.15h-.825l-12.15 14.95 4.15 9.05 8.8 2.1 8.2-.85q2.2-.75 4.3-1.8 4.2-2.05 3.9-3.35-14.65-3.1-16.3-15.95M97.951-21.049q1.463 0 2.5.225l.15-.625q3.1-1.1 5.95-3.25 5.6-4.35 4.15-9.75-1.5-5.45-13.35-17.35l-11.55-10.85 8.15 12.5q7.6 13.45 5.1 18.3-1.145 2.221-4.2 11.225 1.183-.406 3.1-.425M-25.299-48.299q-9.952 3.82-10.8 11.4Q9.395-12.453 26.826-5.849 44.257.752 50.301-1.499q-16.4-3.05-35.8-18.3-6.05-4.8-11.7-10.2l-4.4-4.45-23.7-13.85"/><path fill="none" stroke="#1A344F" stroke-width="2.5" stroke-linecap="round" stroke-linejoin="round" d="M11.401-97.499q-1.95-1.95-4.75-1.95l-38.9-12.8q-3.2 0-20.95 7.2-14.1 5.7-20.6 8.75l-14 6.45q-2.3 1.05-3.7 3.2-1.35 2.15-1.35 4.7l-10.4 12.95q-3.5 2.8-3.8 4.45-.3 1.65 2 5.45 2.05 3.45 5.75 4.95 3.75 1.55 7.6.45l10.75-2.95q5.3-1.4 10.3.25l6.55 2.1q7.1 2.3 11.85 8.1 1.15 1.4 3.1 3.65 24.131 13.823 43.25 19.5 4.7 3.65 10.7 7.1 19.35 11.05 45.2 16l50.2-21.4m-88.8-76.15q2 2 2 4.8 35.6 3.6 65 24.4 18.15 12.85 30.5 29.3 1.35 1.85 1.7 4.05.4 2.2-.3 4.4l-.85 2.65q-.95 2.9-3.4 4.65-2.45 1.8-5.45 1.8"/><path fill="#9B7253" d="M-85.499-93.849v6.2l9.5-5.5-3.8-3.3q-1.7-1.45-3.7-.55-2 .95-2 3.15"/><path fill="none" stroke="#1A344F" stroke-width="2.5" stroke-linecap="round" stroke-linejoin="round" d="M-85.499-87.649v-6.2q0-2.2 2-3.15 2-.9 3.7.55l3.8 3.3"/><path fill="#77604D" d="M-100.749-59.349q-.9-2.3-3.75-5.7-.65-.8-1.7-1-1.05-.2-1.95.3-2.75 1.35-2.75 3.35 0 7.95 8 7 3.55-.4 2.15-3.95"/><path fill="none" stroke="#1A344F" stroke-width="2.5" stroke-linecap="round" stroke-linejoin="round" d="M-100.749-59.349q-.9-2.3-3.75-5.7-.65-.8-1.7-1-1.05-.2-1.95.3-2.75 1.35-2.75 3.35 0 7.95 8 7 3.55-.4 2.15-3.95"/><path fill="#FFF" d="M-97.499-71.199q1.55.55 3.1-.15 1.5-.7 2-2.25.85-2.35-.85-4.15-1.8-1.85-4.7-.95-2.5 1.6-2.15 4.2.25 2.45 2.6 3.3"/><path fill="none" stroke="#1A344F" stroke-width="1.8" stroke-linecap="round" stroke-linejoin="round" d="M-97.499-71.199q1.55.55 3.1-.15 1.5-.7 2-2.25.85-2.35-.85-4.15-1.8-1.85-4.7-.95-2.5 1.6-2.15 4.2.25 2.45 2.6 3.3M-92.449-76.499l9.8-5.15"/></g><path fill="#9B7253" d="M568.25 285q1.05-.4.3-.9-2.45-1.75-3.95-3-10.95-3.2-20.65-1.05-7.1-1-20.3 4.75l-.3.1q-.3.1-.5.25-.85.35-1.6.75-1.85 1.05-3.1 2.35l-1.6.9q-2.9 7.25-1.4 9.5.95 2.8 2.05 6.7l1.1.2q-.55-.05-1.1-.15l.8 1.7 9.9 23.05v13.1h-13.85q-1.5 0-2.55 1.05-1.05 1.05-1.05 2.5 0 2 1.05 5 1.2 3.55 2.55 3.55h37.7l16.7-69.65q.9 0 .1.45 1.7-.9-.3-1.15"/><path fill="#7C5738" d="M568.237 284.978q1.042-.377.299-.898-2.459-1.731-3.938-2.99-3.656 10.167-11.765 36.239-5.832 18.593-11.116 36.239l10.019 1.794 16.7-69.686q.779-.277-.199-.698"/><path fill="none" stroke="#1A344F" stroke-width="2.5" stroke-linecap="round" stroke-linejoin="round" d="M518.15 288.25q1.25-1.3 3.1-2.35.75-.4 1.6-.75.2-.15.5-.25l.3-.1q2.5-1 5.6-1.5 2.4-.4 4.1-.4m-15.2 5.35q-4 3.95-3 10.4.45 3.1 2.05 6.75l.8 1.7 9.9 23.05v13.1h-13.85q-1.5 0-2.55 1.05-1.05 1.05-1.05 2.5 0 2 1.05 5 1.2 3.55 2.55 3.55h37.7l16.7-69.65"/><g transform="matrix(.997 0 0 .997 438 326.55)"><animateTransform attributeName="transform" additive="replace" type="translate" repeatCount="indefinite" dur="2.042s" keyTimes="0;0.02;0.041;0.061;0.082;0.102;0.122;0.143;0.163;0.184;0.204;0.224;0.245;0.265;0.286;0.306;0.326;0.347;0.367;0.388;0.408;1" values="438,326.55;438,327.45;438,328.35;438,329.25;438,330.15;438,331;438,331.9;438,332.8;438,333.7;438,334.6;438,333.85;438,333.15;438,332.4;438,331.65;438,330.95;438,330.2;438,329.5;438,328.75;438,328;438,327.3;438,326.55;438,326.55" calcMode="discrete"/><animateTransform attributeName="transform" additive="sum" type="scale" repeatCount="indefinite" dur="2.042s" keyTimes="0;1" values="0.997,0.997;0.997,0.997" calcMode="discrete"/><path fill="#9B7253" d="M24.7-49.6l3.95-4.4q2.25-3.2 3.8-4.35-3.7 2.25-7.7 7.35-2.1 2.7-3.8 5.5l.1.1q1.15-1.4 3.65-4.2"/><path fill="#9B7253" d="M39.55-60l.1-.05-56.1-18.25v56.8l-11.9 11.95q-1.3 1.2-2.95 1.2h-4.85q-1.75 0-2.95 1.2-1.25 1.25-1.25 3 0 1.7 1.25 2.95Q-37.9 0-36.15 0H-4.1l24.7-45 .3-.55.05.05q1.7-2.8 3.8-5.5 4-5.1 7.7-7.35.6-.35 1.15-.65.75-.35 1.5-.6 1.25-.45 2.5-.5 1-.05 1.95.1"/><path fill="none" stroke="#1A344F" stroke-width="2.5" stroke-linecap="round" stroke-linejoin="round" d="M33.6-59q-.55.3-1.15.65m2.65-1.25q-.75.25-1.5.6m4-1.1q-1.25.05-2.5.5m4.45-.4q-.95-.15-1.95-.1m1.95.1l.8.2m-56.8-18.5v-.8m0 57.6v-56.8m-11.9 68.75l11.9-11.95M-31.3-8.35q1.65 0 2.95-1.2m-7.8 1.2h4.85m-7.8 1.2q1.2-1.2 2.95-1.2m-4.2 4.2q0-1.75 1.25-3m0 5.95q-1.25-1.25-1.25-2.95m4.2 4.15q-1.75 0-2.95-1.2m35 1.2h-32.05M20.6-45L-4.1 0m25.05-45.5q-.2.25-.35.5m.45-.4l-.1-.1M32.45-58.35q-3.7 2.25-7.7 7.35-2.1 2.7-3.8 5.5"/><path fill="none" stroke="#1A344F" stroke-width="2.5" stroke-linecap="round" stroke-linejoin="round" d="M20.6-45l.3-.55.05.05"/></g></g></svg>