<svg id="Layer_1" xmlns="http://www.w3.org/2000/svg" xmlns:xlink="http://www.w3.org/1999/xlink" viewBox="0 0 693.1 583.3" style="enable-background:new 0 0 693.1 583.3"><style>.st0{fill:#fff}.st1{fill:#ededed}.st2{fill:#dededd}.st3{fill:#5d8bb8}.st4{fill:#cfcfce;stroke:#12354f;stroke-width:2;stroke-linecap:round;stroke-linejoin:round;stroke-miterlimit:10}.st5{fill:#55bd8b}.st6{fill:#93cb77;stroke:#12354f;stroke-width:2.5;stroke-linecap:round;stroke-linejoin:round;stroke-miterlimit:10}.st7{fill:#12354f}.st8{fill:#93cb77}.st9{fill:#86c5ec}.st10{fill:none;stroke:#12354f;stroke-width:2.5;stroke-linecap:round;stroke-linejoin:round;stroke-miterlimit:10}.st11{fill:#f05b5a}.st12{fill:#e01f26}.st13{fill:#eb2227}.st14{fill:#0369a6}.st15{clip-path:url(#SVGID_2_)}.st16{fill:#40566b;stroke:#12354f;stroke-width:2.5;stroke-linecap:round;stroke-linejoin:round;stroke-miterlimit:10}.st17{opacity:.15;fill:#40566b}.st18{opacity:.31;fill:#bbb}.st19,.st20,.st21{stroke:#12354f;stroke-width:2.5;stroke-miterlimit:10}.st19{stroke-linecap:round;stroke-linejoin:round;fill:#f1b090}.st20,.st21{fill:none}.st21{fill:#9f7354;stroke-linecap:round;stroke-linejoin:round}.st22{fill:#f79972}.st23{fill:none;stroke:#12354f;stroke-width:2.5;stroke-linecap:round;stroke-miterlimit:10}.st24{fill:#f15a3c}.st25{fill:#f16b6b;stroke:#12354f;stroke-width:2.5;stroke-linecap:round;stroke-linejoin:round;stroke-miterlimit:10}.st26{opacity:.54;fill:#c29a79}.st27{opacity:.39;fill:#b99a8b}</style><path class="st0" d="M0 369.3h691.9v214H0z"/><path class="st1" d="M0 0h693.1v327.8H0z"/><path class="st0" d="M43.2 160h615v133.6h-615z"/><path class="st0" d="M43.2 146.8h615v146.8h-615z"/><path class="st2" d="M9.2 390.1h668.3v143.8H9.2z"/><path class="st1" d="M9.2 533.7h668.3v29.4H9.2z"/><path class="st3" d="M546.3 80.3h101.8V116H546.3z"/><path class="st4" d="M546.3 80.3h101.8V116H546.3z"/><path class="st0" d="M570.5 104.9H567V91.7h7.8v2.9h-4.3v2.5h3.9v2.9h-3.9v4.9zM586.7 99.8c0 1.7-.4 3-1.3 3.9-.9.9-2.2 1.4-3.8 1.4-1.5 0-2.8-.5-3.7-1.4-.9-1-1.4-2.2-1.4-3.9 0-1.7.4-3 1.3-3.9s2.2-1.4 3.8-1.4c1 0 1.9.2 2.7.6.8.4 1.4 1 1.8 1.8s.6 1.8.6 2.9zm-6.6 0c0 .9.1 1.5.4 2 .2.5.6.7 1.2.7.5 0 .9-.2 1.2-.7s.3-1.1.3-2c0-.9-.1-1.5-.3-2-.2-.4-.6-.7-1.2-.7-.5 0-.9.2-1.2.7-.3.4-.4 1.1-.4 2zM592.4 104.9h-3.5v-14h3.5v14zM598.5 104.9H595v-14h3.5v14zM610.9 99.8c0 1.7-.4 3-1.3 3.9-.9.9-2.2 1.4-3.8 1.4-1.5 0-2.8-.5-3.7-1.4-.9-1-1.4-2.2-1.4-3.9 0-1.7.4-3 1.3-3.9s2.2-1.4 3.8-1.4c1 0 1.9.2 2.7.6.8.4 1.4 1 1.8 1.8s.6 1.8.6 2.9zm-6.6 0c0 .9.1 1.5.4 2 .2.5.6.7 1.2.7.5 0 .9-.2 1.2-.7s.3-1.1.3-2c0-.9-.1-1.5-.3-2-.2-.4-.6-.7-1.2-.7-.5 0-.9.2-1.2.7-.3.4-.4 1.1-.4 2zM621.9 104.9l-1.2-4.9-.3-1.5-.2-1.2h-.1c-.3 1.7-.5 2.7-.6 3.2l-1 4.3h-3.7L612 94.6h3.5l.8 3.9c.3 1.3.4 2.5.5 3.4h.1c0-.6.2-1.6.5-3.2l.9-4.1h3.9l.9 4.2c.3 1.3.5 2.4.5 3.1h.1c0-.5.1-1 .2-1.7s.2-1.2.3-1.6l.9-3.9h3.4l-2.8 10.2h-3.8z"/><path class="st5" d="M546.3 34.2h101.8v35.7H546.3z"/><path class="st6" d="M546.3 34.2h101.8v35.7H546.3z"/><path class="st0" d="M580.7 48.4c-.8 0-1.5.3-2 1s-.7 1.7-.7 2.9c0 2.5 1 3.8 2.9 3.8.6 0 1.1-.1 1.7-.2s1.1-.4 1.6-.6v3c-1.1.5-2.3.7-3.7.7-2 0-3.5-.6-4.6-1.7-1.1-1.2-1.6-2.8-1.6-5 0-1.4.3-2.6.8-3.6s1.3-1.8 2.2-2.4c1-.6 2.1-.8 3.4-.8 1.4 0 2.8.3 4.1.9l-1.1 2.8-1.5-.6c-.4-.1-.9-.2-1.5-.2zM596.6 53.8c0 1.7-.4 3-1.3 3.9-.9.9-2.2 1.4-3.8 1.4-1.5 0-2.8-.5-3.7-1.4-.9-1-1.4-2.2-1.4-3.9 0-1.7.4-3 1.3-3.9.9-.9 2.2-1.4 3.8-1.4 1 0 1.9.2 2.7.6.8.4 1.4 1 1.8 1.8s.6 1.8.6 2.9zm-6.6 0c0 .9.1 1.5.4 2 .2.5.6.7 1.2.7.5 0 .9-.2 1.2-.7s.3-1.1.3-2c0-.9-.1-1.5-.3-2-.2-.4-.6-.7-1.2-.7-.5 0-.9.2-1.2.7-.3.4-.4 1.1-.4 2zM604.9 59.1c-.5 0-1-.1-1.4-.3-.4-.2-.8-.5-1.2-.9h-.2c.1.7.2 1.2.2 1.3v4.1h-3.5V48.7h2.9l.5 1.3h.2c.7-1 1.6-1.5 2.7-1.5s2 .5 2.7 1.4c.6.9 1 2.2 1 3.9 0 1.6-.3 2.9-1 3.9-.8.9-1.7 1.4-2.9 1.4zm-1.2-7.8c-.5 0-.9.2-1.1.6-.2.4-.3.9-.3 1.6v.3c0 .9.1 1.5.4 1.9.2.4.6.6 1.1.6.5 0 .8-.2 1-.6.2-.4.3-1 .3-1.9 0-.9-.1-1.5-.3-1.9s-.6-.6-1.1-.6zM609.6 48.7h3.7l1.7 5.9c.1.3.1.7.2 1.1h.1c0-.4.1-.8.2-1.1l1.8-5.9h3.6l-4 10.9c-.5 1.4-1.2 2.4-1.9 2.9-.8.6-1.7.9-3 .9-.5 0-.9-.1-1.4-.2v-2.8c.3.1.7.1 1.1.1.3 0 .6-.1.8-.2.2-.1.4-.3.6-.5.2-.2.4-.6.6-1.1l-4.1-10z"/><path class="st6" d="M481.7 468.9h171.4v44.8H481.7z"/><path class="st0" d="M512.2 486.7c-1.1 0-1.9.4-2.5 1.3-.6.9-.9 2.1-.9 3.6 0 3.2 1.2 4.8 3.6 4.8.7 0 1.4-.1 2.1-.3s1.4-.4 2.1-.7v3.8c-1.4.6-2.9.9-4.7.9-2.5 0-4.4-.7-5.7-2.2-1.3-1.4-2-3.5-2-6.3 0-1.7.3-3.2 1-4.5.6-1.3 1.6-2.3 2.8-3 1.2-.7 2.6-1 4.3-1 1.8 0 3.5.4 5.1 1.2l-1.4 3.5c-.6-.3-1.2-.5-1.8-.7-.7-.3-1.3-.4-2-.4zM532.1 493.4c0 2.1-.6 3.7-1.7 4.9s-2.7 1.8-4.7 1.8c-1.9 0-3.5-.6-4.6-1.8-1.2-1.2-1.7-2.8-1.7-4.9 0-2.1.6-3.7 1.7-4.9s2.7-1.7 4.7-1.7c1.3 0 2.4.3 3.3.8 1 .5 1.7 1.3 2.2 2.3.5 1 .8 2.2.8 3.5zm-8.3 0c0 1.1.1 1.9.4 2.5.3.6.8.9 1.5.9s1.2-.3 1.5-.9c.3-.6.4-1.4.4-2.5s-.1-1.9-.4-2.5c-.3-.6-.8-.8-1.5-.8s-1.2.3-1.5.8c-.3.6-.4 1.4-.4 2.5zM542.6 500.1c-.6 0-1.2-.1-1.7-.3-.5-.2-1-.6-1.5-1.2h-.2c.1.9.2 1.5.2 1.7v5.1H535V487h3.6l.6 1.6h.2c.8-1.2 2-1.9 3.4-1.9s2.5.6 3.3 1.8c.8 1.2 1.2 2.8 1.2 4.8 0 2.1-.4 3.7-1.3 4.9s-2 1.9-3.4 1.9zm-1.5-9.8c-.6 0-1.1.2-1.4.7-.3.5-.4 1.2-.4 2.1v.4c0 1.1.1 1.9.4 2.4.3.5.8.7 1.4.7.6 0 1-.2 1.2-.7.3-.5.4-1.3.4-2.4 0-1.1-.1-1.9-.4-2.4-.2-.6-.6-.8-1.2-.8zM548.4 487h4.7l2.2 7.4c.1.4.2.8.2 1.4h.1c.1-.5.2-1 .3-1.4l2.2-7.4h4.5l-5.1 13.6c-.6 1.7-1.4 3-2.4 3.7-.9.7-2.2 1.1-3.7 1.1-.6 0-1.2-.1-1.8-.2v-3.5c.4.1.9.1 1.4.1.4 0 .7-.1 1-.2.3-.2.6-.4.8-.6s.5-.7.7-1.4l-5.1-12.6zM578.2 499.8h-4.5v-12.9h-4v-3.7h12.5v3.7h-4v12.9zM592.3 486.8c.4 0 .8 0 1.1.1h.2l-.4 4.2c-.4-.1-.9-.1-1.5-.1-1 0-1.7.2-2.1.7-.4.4-.7 1.1-.7 1.9v6.3h-4.4V487h3.3l.7 2h.2c.4-.7.9-1.2 1.5-1.6s1.5-.6 2.1-.6zM604.1 499.8l-.8-1.7h-.1c-.6.7-1.2 1.2-1.8 1.5-.6.3-1.4.4-2.4.4-1.2 0-2.2-.4-2.9-1.1-.7-.7-1-1.7-1-3.1 0-1.4.5-2.4 1.4-3 1-.7 2.3-1 4.1-1.1l2.1-.1v-.2c0-1.1-.5-1.6-1.6-1.6-.9 0-2.1.3-3.6 1l-1.3-2.9c1.5-.8 3.4-1.2 5.7-1.2 1.6 0 2.9.4 3.8 1.2.9.8 1.4 2 1.4 3.4v8.4h-3zm-3.3-2.9c.5 0 1-.2 1.4-.5.4-.3.6-.8.6-1.3v-1h-1c-1.5.1-2.2.6-2.2 1.6-.1.8.4 1.2 1.2 1.2zM614.4 500.1c-.9 0-1.7-.3-2.4-.8s-1.2-1.3-1.6-2.3c-.4-1-.6-2.2-.6-3.5 0-2.1.4-3.7 1.3-4.9.8-1.2 2-1.8 3.5-1.8.7 0 1.3.1 1.9.4.5.3 1 .8 1.5 1.4h.1c-.1-1-.2-2-.2-3v-3.4h4.5v17.6h-3.3l-1-1.6h-.2c-.9 1.2-2 1.9-3.5 1.9zm1.8-3.5c.7 0 1.2-.2 1.5-.7.3-.4.4-1.1.5-2.1v-.4c0-1.1-.2-1.9-.5-2.4s-.8-.7-1.5-.7c-.6 0-1 .3-1.4.8-.3.5-.5 1.3-.5 2.3 0 1 .2 1.8.5 2.3.3.6.8.9 1.4.9zM631.7 500.1c-2.1 0-3.8-.6-5-1.7s-1.8-2.8-1.8-4.8c0-2.2.5-3.8 1.6-5s2.7-1.7 4.7-1.7c1.9 0 3.4.5 4.5 1.5s1.6 2.5 1.6 4.4v2h-7.9c0 .7.3 1.3.8 1.7.5.4 1.2.6 2 .6s1.5-.1 2.1-.2c.7-.1 1.4-.4 2.1-.8v3.2c-.7.4-1.4.6-2.2.7-.6 0-1.5.1-2.5.1zm-.3-10.3c-.5 0-1 .2-1.3.5-.4.3-.6.8-.6 1.5h3.8c0-.6-.2-1.1-.5-1.5-.3-.3-.8-.5-1.4-.5z"/><path class="st7" d="M193.9 55.9h-4.1l-2.3-9c-.1-.3-.2-1-.4-2s-.3-1.7-.4-2c0 .4-.2 1.1-.4 2-.2.9-.3 1.6-.4 2l-2.3 9h-4.1L175 38.7h3.6l2.2 9.3c.4 1.7.7 3.2.8 4.5 0-.4.2-1.1.3-2.1.2-.9.3-1.7.5-2.2l2.5-9.6h3.4l2.5 9.6c.1.4.2 1.1.4 2s.3 1.6.4 2.3c.1-.6.2-1.4.4-2.3s.3-1.6.5-2.2l2.2-9.3h3.6l-4.4 17.2zM210.9 55.9l-1.2-4.1h-6.2l-1.2 4.1h-3.9l6-17.2h4.4l6.1 17.2h-4zm-2.1-7.2c-1.1-3.7-1.8-5.8-1.9-6.3-.1-.5-.2-.9-.3-1.1-.3 1-1 3.5-2.2 7.4h4.4zM220.6 49.3v6.6H217V38.7h5c2.3 0 4 .4 5.2 1.3s1.7 2.1 1.7 3.9c0 1-.3 1.9-.8 2.7-.6.8-1.3 1.4-2.4 1.8 2.6 3.8 4.3 6.3 5 7.5h-4l-4.1-6.6h-2zm0-3h1.2c1.1 0 2-.2 2.5-.6.5-.4.8-1 .8-1.8s-.3-1.4-.8-1.7c-.6-.3-1.4-.5-2.6-.5h-1.1v4.6zM248 55.9h-4.6l-7.4-13h-.1c.1 2.3.2 3.9.2 4.9v8.1h-3.2V38.7h4.6l7.4 12.8h.1c-.1-2.2-.2-3.8-.2-4.7v-8.1h3.3v17.2zM262.1 55.9h-9.9V38.7h9.9v3h-6.2v3.8h5.8v3h-5.8v4.4h6.2v3zM271 45.8l3.6-7.1h3.9l-5.7 10.5v6.7h-3.6v-6.5l-5.7-10.6h3.9l3.6 7zM286.9 38.7h5.3c2.4 0 4.2.3 5.3 1 1.1.7 1.6 1.8 1.6 3.3 0 1-.2 1.9-.7 2.5-.5.7-1.1 1.1-1.9 1.2v.1c1.1.2 1.9.7 2.3 1.4.5.7.7 1.5.7 2.6 0 1.6-.6 2.8-1.7 3.7s-2.7 1.3-4.6 1.3h-6.4V38.7zm3.6 6.8h2.1c1 0 1.7-.2 2.1-.5.4-.3.7-.8.7-1.5s-.2-1.1-.7-1.4c-.5-.3-1.2-.4-2.3-.4h-1.9v3.8zm0 2.9v4.5h2.4c1 0 1.7-.2 2.2-.6.5-.4.7-1 .7-1.8 0-1.4-1-2.1-3-2.1h-2.3zM317 38.7v11.1c0 1.3-.3 2.4-.8 3.3-.6 1-1.4 1.7-2.5 2.2-1.1.5-2.3.8-3.8.8-2.2 0-3.9-.6-5.1-1.7-1.2-1.1-1.8-2.7-1.8-4.6v-11h3.6v10.5c0 1.3.3 2.3.8 2.9.5.6 1.4.9 2.6.9 1.2 0 2-.3 2.6-.9.5-.6.8-1.6.8-2.9V38.7h3.6zM324.7 55.9h-3.6V38.7h9.8v3h-6.2v4.4h5.8v3h-5.8v6.8zM344.4 51.1c0 1.5-.6 2.8-1.7 3.7-1.1.9-2.7 1.3-4.6 1.3-1.8 0-3.4-.3-4.8-1v-3.4c1.2.5 2.1.9 2.9 1.1.8.2 1.5.3 2.2.3.8 0 1.4-.2 1.8-.5.4-.3.6-.8.6-1.4 0-.3-.1-.6-.3-.9s-.5-.5-.8-.8c-.4-.2-1.1-.6-2.2-1.2-1-.5-1.8-1-2.4-1.4-.5-.5-.9-1-1.3-1.6-.3-.6-.5-1.3-.5-2.1 0-1.5.5-2.7 1.5-3.6s2.4-1.3 4.3-1.3c.9 0 1.7.1 2.5.3.8.2 1.7.5 2.5.9l-1.2 2.8c-.9-.4-1.7-.6-2.3-.8-.6-.1-1.2-.2-1.8-.2-.7 0-1.2.2-1.6.5-.4.3-.6.7-.6 1.3 0 .3.1.6.2.8.1.2.4.5.7.7.3.2 1.1.6 2.3 1.2 1.6.8 2.7 1.5 3.3 2.3 1 .9 1.3 1.9 1.3 3zM357.4 55.9h-9.9V38.7h9.9v3h-6.2v3.8h5.8v3h-5.8v4.4h6.2v3zM367.6 55.9H364V41.8h-4.7v-3h12.9v3h-4.6v14.1zM207.7 430.1c0 1-.2 1.9-.5 2.8s-.8 1.5-1.4 2-1.3.7-2 .7c-.5 0-1-.1-1.4-.4s-.7-.6-.9-1h-.2c-.8.9-1.7 1.4-2.9 1.4s-2.2-.4-2.9-1.1c-.7-.7-1.1-1.8-1.1-3.1 0-1.5.5-2.7 1.4-3.6.9-.9 2.2-1.4 3.7-1.4.6 0 1.3.1 2 .2s1.3.3 1.8.4l-.2 5.1c0 1 .3 1.5.8 1.5.4 0 .8-.3 1.1-1 .3-.7.4-1.5.4-2.6s-.2-2.1-.7-3c-.5-.9-1.1-1.5-2-2s-1.8-.7-2.9-.7c-1.4 0-2.6.3-3.7.9-1 .6-1.8 1.4-2.4 2.5s-.8 2.4-.8 3.8c0 1.9.5 3.4 1.5 4.4 1 1 2.5 1.5 4.5 1.5.7 0 1.6-.1 2.4-.2.9-.2 1.8-.4 2.6-.7v2c-1.5.6-3.2 1-5 1-2.7 0-4.7-.7-6.2-2.1-1.5-1.4-2.2-3.3-2.2-5.8 0-1.7.4-3.3 1.1-4.7.8-1.4 1.8-2.5 3.2-3.3 1.4-.8 3-1.2 4.8-1.2 1.5 0 2.9.3 4.1.9 1.2.6 2.1 1.5 2.8 2.7.9 1.3 1.2 2.6 1.2 4.1zm-10.7 1.4c0 1.5.6 2.2 1.8 2.2.6 0 1.1-.2 1.4-.7.3-.4.5-1.2.6-2.2l.1-2.3c-.4-.1-.8-.1-1.2-.1-.9 0-1.6.3-2 .8s-.7 1.3-.7 2.3zM225.6 438h-3.7l-2.1-8c-.1-.3-.2-.9-.4-1.8s-.3-1.5-.3-1.8c0 .4-.1 1-.3 1.8-.2.8-.3 1.4-.4 1.8l-2.1 8h-3.7l-3.9-15.3h3.2l2 8.4c.3 1.5.6 2.9.7 4 0-.4.1-1 .3-1.8.2-.8.3-1.5.4-1.9l2.2-8.6h3.1l2.2 8.6c.1.4.2 1 .4 1.8.1.8.3 1.5.3 2 .1-.5.2-1.2.3-2 .2-.8.3-1.5.4-2l1.9-8.4h3.2l-3.7 15.2zM238.7 438l-.6-1.6h-.1c-.5.7-1.1 1.1-1.7 1.4s-1.3.4-2.2.4c-1.1 0-2-.3-2.7-1s-1-1.6-1-2.7c0-1.2.4-2.2 1.3-2.8.9-.6 2.2-.9 3.9-1l2-.1v-.5c0-1.2-.6-1.8-1.8-1.8-.9 0-2 .3-3.3.8l-1.1-2.2c1.3-.7 2.8-1.1 4.5-1.1 1.6 0 2.8.3 3.6 1 .8.7 1.3 1.7 1.3 3.1v7.8h-2.1zm-1-5.4h-1.2c-.9 0-1.6.2-2.1.5s-.7.8-.7 1.4c0 .9.5 1.4 1.6 1.4.7 0 1.3-.2 1.8-.6s.7-1 .7-1.7v-1zM250.7 426.1c.4 0 .8 0 1.1.1l-.2 3c-.3-.1-.6-.1-.9-.1-1 0-1.8.3-2.4.8s-.9 1.3-.9 2.2v6h-3.2v-11.7h2.4l.5 2h.2c.4-.7.9-1.2 1.5-1.6.5-.5 1.2-.7 1.9-.7zM264.7 438h-3.2v-6.8c0-.8-.2-1.5-.5-1.9-.3-.4-.8-.6-1.4-.6-.9 0-1.5.3-1.9.9-.4.6-.6 1.6-.6 3v5.5h-3.2v-11.7h2.4l.4 1.5h.2c.4-.6.8-1 1.5-1.3.6-.3 1.3-.4 2.1-.4 1.4 0 2.4.4 3.1 1.1.7.7 1.1 1.8 1.1 3.2v7.5zM273.3 438.2c-1.9 0-3.4-.5-4.4-1.6-1.1-1-1.6-2.5-1.6-4.4 0-2 .5-3.5 1.5-4.6 1-1.1 2.3-1.6 4.1-1.6 1.7 0 2.9.5 3.9 1.4s1.4 2.2 1.4 3.9v1.6h-7.6c0 .9.3 1.6.8 2.1s1.2.8 2.1.8c.7 0 1.4-.1 2-.2s1.3-.4 2-.7v2.5c-.6.3-1.2.5-1.8.6s-1.4.2-2.4.2zm-.4-9.8c-.7 0-1.2.2-1.6.6-.4.4-.6 1-.7 1.8h4.5c0-.8-.2-1.4-.6-1.8s-.9-.6-1.6-.6zM279 426.3h3.5l2.2 6.6c.2.6.3 1.3.4 2h.1c.1-.7.2-1.4.5-2l2.2-6.6h3.4l-5 13.2c-.5 1.2-1.1 2.1-1.9 2.7s-1.8.9-2.9.9c-.6 0-1.1-.1-1.6-.2v-2.5c.4.1.8.1 1.3.1.6 0 1.1-.2 1.5-.5s.8-.9 1-1.6l.2-.6-4.9-11.5zM298.7 422.7h4.8c2.2 0 3.8.3 4.7.9 1 .6 1.5 1.6 1.5 2.9 0 .9-.2 1.7-.6 2.3s-1 .9-1.7 1.1v.1c1 .2 1.7.6 2.1 1.2.4.6.6 1.4.6 2.4 0 1.4-.5 2.5-1.5 3.3s-2.4 1.2-4.1 1.2h-5.7v-15.4zm3.3 6.1h1.9c.9 0 1.5-.1 1.9-.4s.6-.7.6-1.4c0-.6-.2-1-.6-1.3s-1.1-.4-2-.4H302v3.5zm0 2.6v4h2.1c.9 0 1.6-.2 2-.5s.6-.9.6-1.6c0-1.3-.9-1.9-2.7-1.9h-2zM321.2 438l-.4-1.5h-.2c-.3.5-.8 1-1.5 1.3s-1.3.4-2.1.4c-1.4 0-2.4-.4-3.1-1.1-.7-.7-1-1.8-1-3.2v-7.6h3.2v6.8c0 .8.2 1.5.5 1.9.3.4.8.6 1.4.6.9 0 1.5-.3 1.9-.9.4-.6.6-1.6.6-3v-5.5h3.2V438h-2.5zM333.5 428.7h-2.8v9.3h-3.2v-9.3h-1.8v-1.5l1.8-.9v-.9c0-1.3.3-2.3 1-2.9.7-.6 1.7-.9 3.2-.9 1.1 0 2.1.2 2.9.5l-.8 2.3c-.6-.2-1.2-.3-1.8-.3-.5 0-.8.1-1 .4-.2.3-.3.6-.3 1v.7h2.8v2.5zM343.5 434.6c0 1.2-.4 2.1-1.3 2.7-.8.6-2.1.9-3.7.9-.9 0-1.6-.1-2.2-.2s-1.2-.3-1.7-.5v-2.6c.6.3 1.3.5 2 .7.7.2 1.4.3 2 .3 1.2 0 1.7-.3 1.7-1 0-.3-.1-.5-.2-.6-.2-.2-.4-.3-.8-.5s-.9-.4-1.5-.7c-.9-.4-1.6-.7-2-1-.4-.3-.7-.7-.9-1.1-.2-.4-.3-.9-.3-1.5 0-1 .4-1.8 1.2-2.4.8-.6 2-.9 3.4-.9s2.8.3 4.1.9l-1 2.3c-.6-.3-1.1-.5-1.6-.6-.5-.2-1-.2-1.6-.2-.9 0-1.4.3-1.4.8 0 .3.2.5.5.7.3.2 1 .5 2 .9.9.4 1.6.7 2 1 .4.3.7.7.9 1.1.3.4.4.9.4 1.5zM351.3 438.2c-1.9 0-3.4-.5-4.4-1.6-1.1-1-1.6-2.5-1.6-4.4 0-2 .5-3.5 1.5-4.6 1-1.1 2.3-1.6 4.1-1.6 1.7 0 2.9.5 3.9 1.4.9.9 1.4 2.2 1.4 3.9v1.6h-7.6c0 .9.3 1.6.8 2.1s1.2.8 2.1.8c.7 0 1.4-.1 2-.2.6-.1 1.3-.4 2-.7v2.5c-.6.3-1.2.5-1.8.6s-1.5.2-2.4.2zm-.5-9.8c-.7 0-1.2.2-1.6.6-.4.4-.6 1-.7 1.8h4.5c0-.8-.2-1.4-.6-1.8-.3-.4-.9-.6-1.6-.6zM363.6 435.7c.6 0 1.2-.1 2-.4v2.4c-.8.4-1.8.5-2.9.5-1.3 0-2.2-.3-2.8-1-.6-.6-.9-1.6-.9-2.9v-5.6h-1.5v-1.4l1.8-1.1.9-2.5h2v2.5h3.3v2.4h-3.3v5.6c0 .5.1.8.4 1 .3.4.6.5 1 .5zM380.1 426.1c1.4 0 2.5.5 3.2 1.6s1.2 2.6 1.2 4.4c0 1.9-.4 3.4-1.2 4.5-.8 1.1-1.9 1.6-3.3 1.6s-2.5-.5-3.2-1.5h-.2l-.6 1.3h-2.4v-16.3h3.2v3.8c0 .5 0 1.3-.1 2.3h.1c.7-1.1 1.8-1.7 3.3-1.7zm-1 2.6c-.8 0-1.4.2-1.7.7-.4.5-.6 1.3-.6 2.4v.3c0 1.3.2 2.2.6 2.7.4.5 1 .8 1.8.8.7 0 1.2-.3 1.6-.9.4-.6.6-1.5.6-2.6 0-1.2-.2-2-.6-2.6-.5-.6-1.1-.8-1.7-.8zM397.8 432.2c0 1.9-.5 3.4-1.5 4.5s-2.4 1.6-4.2 1.6c-1.1 0-2.1-.2-3-.7-.9-.5-1.5-1.2-2-2.1s-.7-2-.7-3.2c0-1.9.5-3.4 1.5-4.5s2.4-1.6 4.2-1.6c1.1 0 2.1.2 3 .7s1.5 1.2 2 2.1c.5.8.7 1.9.7 3.2zm-8.1 0c0 1.2.2 2 .6 2.6.4.6 1 .9 1.9.9.9 0 1.5-.3 1.8-.9s.6-1.5.6-2.6c0-1.2-.2-2-.6-2.6s-1-.9-1.9-.9c-.9 0-1.5.3-1.8.9-.4.5-.6 1.4-.6 2.6zM408.7 438l-.4-1.5h-.2c-.3.5-.8 1-1.5 1.3-.6.3-1.3.4-2.1.4-1.4 0-2.4-.4-3.1-1.1-.7-.7-1-1.8-1-3.2v-7.6h3.2v6.8c0 .8.2 1.5.5 1.9.3.4.8.6 1.4.6.9 0 1.5-.3 1.9-.9.4-.6.6-1.6.6-3v-5.5h3.2V438h-2.5zM424.7 426.3v1.6l-1.8.5c.3.5.5 1.1.5 1.8 0 1.3-.4 2.2-1.3 2.9-.9.7-2.1 1.1-3.7 1.1h-.6l-.5-.1c-.3.3-.5.5-.5.8 0 .5.6.7 1.8.7h2c1.3 0 2.3.3 2.9.8.7.6 1 1.4 1 2.4 0 1.4-.6 2.4-1.7 3.2-1.1.8-2.8 1.1-4.9 1.1-1.6 0-2.9-.3-3.7-.9-.9-.6-1.3-1.4-1.3-2.4 0-.7.2-1.3.7-1.8.4-.5 1.1-.8 1.9-1-.3-.1-.6-.4-.9-.7-.2-.3-.4-.7-.4-1 0-.4.1-.8.4-1.1.3-.3.6-.6 1.1-.9-.6-.3-1.1-.7-1.5-1.3-.4-.6-.5-1.3-.5-2.1 0-1.3.4-2.3 1.2-3s2-1 3.6-1c.3 0 .7 0 1.2.1s.7.1.9.1h4.1zm-9 13.4c0 .4.2.8.6 1 .4.3 1 .4 1.8.4 1.1 0 2-.2 2.7-.5.6-.3 1-.7 1-1.3 0-.4-.2-.7-.6-.9-.4-.2-1-.3-1.8-.3h-1.7c-.6 0-1.1.1-1.5.4-.3.4-.5.7-.5 1.2zm1.2-9.6c0 .6.1 1.1.4 1.5.3.4.7.6 1.3.6.6 0 1-.2 1.3-.6.3-.4.4-.9.4-1.5 0-1.4-.6-2.1-1.7-2.1-1.2 0-1.7.7-1.7 2.1zM437.5 438h-3.2v-6.8c0-1.7-.6-2.5-1.9-2.5-.9 0-1.5.3-1.9.9-.4.6-.6 1.6-.6 3v5.5h-3.2v-16.3h3.2v3.3c0 .3 0 .9-.1 1.8l-.1.9h.2c.7-1.1 1.8-1.7 3.4-1.7 1.4 0 2.4.4 3.1 1.1.7.7 1.1 1.8 1.1 3.2v7.6zM445.7 435.7c.6 0 1.2-.1 2-.4v2.4c-.8.4-1.8.5-2.9.5-1.3 0-2.2-.3-2.8-1-.6-.6-.9-1.6-.9-2.9v-5.6h-1.5v-1.4l1.8-1.1.9-2.5h2v2.5h3.3v2.4h-3.3v5.6c0 .5.1.8.4 1 .2.4.6.5 1 .5zM465.4 433.2c0 1.1-.4 2-1.2 2.7-.8.7-1.9 1.1-3.4 1.2v2.1h-1.4v-2.1c-1.7 0-3.2-.3-4.5-.9v-2.8c.6.3 1.3.6 2.2.8s1.6.4 2.3.4v-3.2l-.7-.3c-1.4-.5-2.4-1.1-2.9-1.8-.6-.6-.9-1.4-.9-2.4s.4-1.8 1.2-2.5c.8-.7 1.9-1 3.3-1.2v-1.6h1.4v1.6c1.6.1 3 .4 4.3 1l-1 2.5c-1.1-.4-2.2-.7-3.4-.8v3.1c1.4.5 2.3 1 2.9 1.4s1 .8 1.3 1.3c.4.4.5.9.5 1.5zm-7.3-6.2c0 .3.1.6.3.8.2.2.6.4 1 .6v-2.5c-.9.2-1.3.5-1.3 1.1zm4.2 6.4c0-.3-.1-.5-.4-.7-.2-.2-.6-.4-1.1-.6v2.6c1-.2 1.5-.6 1.5-1.3zM480.6 422.7v9.9c0 1.1-.3 2.1-.8 3-.5.9-1.2 1.5-2.2 2-1 .5-2.1.7-3.4.7-2 0-3.5-.5-4.6-1.5-1.1-1-1.6-2.4-1.6-4.1v-9.9h3.2v9.4c0 1.2.2 2 .7 2.6.5.6 1.3.8 2.4.8 1.1 0 1.8-.3 2.3-.8s.7-1.4.7-2.6v-9.4h3.3zM493.4 433.8c0 1.4-.5 2.5-1.5 3.3-1 .8-2.4 1.2-4.2 1.2-1.6 0-3.1-.3-4.3-.9v-3c1 .5 1.9.8 2.6 1 .7.2 1.4.3 2 .3.7 0 1.3-.1 1.6-.4.4-.3.6-.7.6-1.2 0-.3-.1-.6-.3-.8-.2-.2-.4-.5-.7-.7-.3-.2-1-.6-2-1-.9-.4-1.6-.9-2.1-1.3s-.8-.9-1.1-1.4-.4-1.2-.4-1.9c0-1.4.5-2.4 1.4-3.2.9-.8 2.2-1.2 3.8-1.2.8 0 1.6.1 2.3.3.7.2 1.5.5 2.3.8l-1 2.5c-.8-.3-1.5-.6-2-.7-.5-.1-1.1-.2-1.6-.2-.6 0-1.1.1-1.4.4-.3.3-.5.7-.5 1.1 0 .3.1.5.2.7.1.2.3.4.6.6s1 .6 2.1 1.1c1.4.7 2.4 1.4 2.9 2.1.5.6.7 1.5.7 2.5zM508.9 430.2c0 2.5-.7 4.5-2.2 5.8s-3.5 2-6.2 2h-4.3v-15.3h4.8c2.5 0 4.4.7 5.8 2s2.1 3.2 2.1 5.5zm-3.4.1c0-3.3-1.5-4.9-4.4-4.9h-1.7v10h1.4c3.2-.1 4.7-1.7 4.7-5.1zM518.9 422.7l-5.7 15.3h-2.9l5.7-15.3h2.9zM527.5 425.2c-1.2 0-2.2.5-2.8 1.4-.7.9-1 2.2-1 3.8 0 3.4 1.3 5.1 3.8 5.1 1.1 0 2.4-.3 3.9-.8v2.7c-1.3.5-2.7.8-4.2.8-2.2 0-3.9-.7-5.1-2-1.2-1.4-1.8-3.3-1.8-5.8 0-1.6.3-3 .9-4.2.6-1.2 1.4-2.1 2.5-2.8s2.4-1 3.8-1c1.5 0 3 .4 4.5 1.1l-1 2.6c-.6-.3-1.1-.5-1.7-.7s-1.3-.2-1.8-.2zM544 438l-1.1-3.6h-5.6l-1.1 3.6h-3.5l5.4-15.4h4l5.4 15.4H544zm-1.9-6.3c-1-3.3-1.6-5.2-1.7-5.6-.1-.4-.2-.8-.3-1-.2.9-.9 3.1-2 6.6h4zM562.1 430.2c0 2.5-.7 4.5-2.2 5.8s-3.5 2-6.2 2h-4.3v-15.3h4.8c2.5 0 4.4.7 5.8 2s2.1 3.2 2.1 5.5zm-3.3.1c0-3.3-1.5-4.9-4.4-4.9h-1.7v10h1.4c3.1-.1 4.7-1.7 4.7-5.1zM587.1 430.1c0 1-.2 1.9-.5 2.8s-.8 1.5-1.4 2-1.3.7-2 .7c-.5 0-1-.1-1.4-.4s-.7-.6-.9-1h-.2c-.8.9-1.7 1.4-2.9 1.4s-2.2-.4-2.9-1.1c-.7-.7-1.1-1.8-1.1-3.1 0-1.5.5-2.7 1.4-3.6.9-.9 2.2-1.4 3.7-1.4.6 0 1.3.1 2 .2s1.3.3 1.8.4l-.2 5.1c0 1 .3 1.5.8 1.5.4 0 .8-.3 1.1-1 .3-.7.4-1.5.4-2.6s-.2-2.1-.7-3c-.5-.9-1.1-1.5-2-2s-1.8-.7-2.9-.7c-1.4 0-2.6.3-3.7.9-1 .6-1.8 1.4-2.4 2.5s-.8 2.4-.8 3.8c0 1.9.5 3.4 1.5 4.4 1 1 2.5 1.5 4.5 1.5.7 0 1.6-.1 2.4-.2.9-.2 1.8-.4 2.6-.7v2c-1.5.6-3.2 1-5 1-2.7 0-4.7-.7-6.2-2.1-1.5-1.4-2.2-3.3-2.2-5.8 0-1.7.4-3.3 1.1-4.7.8-1.4 1.8-2.5 3.2-3.3 1.4-.8 3-1.2 4.8-1.2 1.5 0 2.9.3 4.1.9 1.2.6 2.1 1.5 2.8 2.7.9 1.3 1.2 2.6 1.2 4.1zm-10.7 1.4c0 1.5.6 2.2 1.8 2.2.6 0 1.1-.2 1.4-.7.3-.4.5-1.2.6-2.2l.1-2.3c-.4-.1-.8-.1-1.2-.1-.9 0-1.6.3-2 .8s-.7 1.3-.7 2.3zM597.1 438h-3.2v-10.4l.1-1.6-1.1 1.1-1.8 1.4-1.6-1.9 4.9-3.9h2.7V438zM601.7 436.5c0-.6.2-1 .5-1.3.3-.3.8-.5 1.4-.5.6 0 1 .2 1.3.5.3.3.5.7.5 1.3 0 .6-.2 1-.5 1.3s-.8.5-1.3.5c-.6 0-1-.2-1.4-.5s-.5-.7-.5-1.3zM617.6 426.1c0 1-.3 1.8-.9 2.4s-1.4 1.1-2.4 1.4v.1c1.2.2 2.2.5 2.8 1.1.6.6 1 1.4 1 2.4 0 1.5-.5 2.6-1.6 3.4-1.1.8-2.6 1.2-4.6 1.2-1.7 0-3.1-.3-4.4-.8v-2.8c.6.3 1.2.5 2 .7.7.2 1.4.3 2.1.3 1.1 0 1.9-.2 2.4-.5s.8-.9.8-1.8c0-.7-.3-1.2-.9-1.5-.6-.3-1.5-.5-2.8-.5h-1.2v-2.5h1.2c1.2 0 2.1-.2 2.6-.5s.8-.8.8-1.6c0-1.2-.7-1.7-2.2-1.7-.5 0-1 .1-1.5.3s-1.1.5-1.7.9l-1.5-2.2c1.4-1 3.1-1.5 5-1.5 1.6 0 2.8.3 3.8 1 .7.7 1.2 1.6 1.2 2.7zM629.8 426.1c0 1-.3 1.8-.9 2.4-.6.7-1.4 1.1-2.4 1.4v.1c1.2.2 2.2.5 2.8 1.1.6.6 1 1.4 1 2.4 0 1.5-.5 2.6-1.6 3.4-1.1.8-2.6 1.2-4.6 1.2-1.7 0-3.1-.3-4.4-.8v-2.8c.6.3 1.2.5 2 .7.7.2 1.4.3 2.1.3 1.1 0 1.9-.2 2.4-.5s.8-.9.8-1.8c0-.7-.3-1.2-.9-1.5-.6-.3-1.5-.5-2.8-.5H622v-2.5h1.2c1.2 0 2.1-.2 2.6-.5s.8-.8.8-1.6c0-1.2-.7-1.7-2.2-1.7-.5 0-1 .1-1.5.3s-1.1.5-1.7.9l-1.5-2.2c1.4-1 3.1-1.5 5-1.5 1.6 0 2.8.3 3.8 1 .8.7 1.3 1.6 1.3 2.7zM643 434.9h-1.8v3.2H638v-3.2h-6.5v-2.3l6.7-9.9h3v9.6h1.8v2.6zm-5-2.6v-2.6c0-.4 0-1.1.1-1.9 0-.8.1-1.3.1-1.4h-.2c-.3.6-.6 1.1-.9 1.7l-2.8 4.2h3.7zM649.8 428.2c1.5 0 2.7.4 3.5 1.2.9.8 1.3 2 1.3 3.4 0 1.7-.5 3-1.6 4-1.1.9-2.6 1.4-4.5 1.4-1.7 0-3.1-.3-4.1-.8v-2.8c.6.3 1.2.5 1.9.7s1.4.3 2.1.3c2 0 3-.8 3-2.4 0-1.5-1-2.3-3.1-2.3-.4 0-.8 0-1.2.1-.4.1-.8.2-1.1.2l-1.3-.7.6-7.8h8.3v2.7h-5.5l-.3 3 .4-.1c.4 0 .9-.1 1.6-.1zM80.5 267.5c-.5 0-1-.1-1.4-.2v-1.9c.4.1.8.2 1.1.2.5 0 .9-.2 1.1-.5.2-.3.3-.8.3-1.5v-10.3h2.3v10.3c0 1.3-.3 2.3-.9 2.9-.5.7-1.4 1-2.5 1zM91.9 264.3l-.4-1.1h-.1c-.4.5-.8.8-1.2 1s-.9.3-1.6.3c-.8 0-1.4-.2-1.9-.7s-.7-1.1-.7-2c0-.9.3-1.6.9-2 .6-.4 1.6-.7 2.8-.7h1.5v-.4c0-.9-.4-1.3-1.3-1.3-.7 0-1.5.2-2.4.6l-.8-1.6c1-.5 2-.8 3.2-.8 1.1 0 2 .2 2.6.7.6.5.9 1.2.9 2.2v5.6h-1.5zm-.7-3.9h-.9c-.7 0-1.2.1-1.5.4-.3.2-.5.6-.5 1 0 .6.4 1 1.1 1 .5 0 1-.2 1.3-.5.3-.3.5-.7.5-1.2v-.7zM103.6 264.3h-2.3v-4.9c0-.6-.1-1.1-.3-1.4-.2-.3-.6-.5-1-.5-.6 0-1.1.2-1.4.6s-.4 1.1-.4 2.1v4h-2.3v-8.4h1.8l.3 1.1h.1c.3-.4.6-.7 1.1-.9.4-.2 1-.3 1.5-.3 1 0 1.7.3 2.2.8.5.5.8 1.3.8 2.3v5.5zM132.2 264.3h-2.3v-11h6.3v1.9h-4v2.8h3.7v1.9h-3.7v4.4zM142 264.4c-1.4 0-2.4-.4-3.2-1.1s-1.1-1.8-1.1-3.2c0-1.4.4-2.5 1.1-3.3.7-.8 1.7-1.2 2.9-1.2s2.1.3 2.8 1c.7.7 1 1.6 1 2.8v1.1H140c0 .7.2 1.2.6 1.5.4.4.9.6 1.5.6.5 0 1-.1 1.4-.2.5-.1.9-.3 1.4-.5v1.8c-.4.2-.8.4-1.3.4-.4.3-.9.3-1.6.3zm-.3-7.1c-.5 0-.9.2-1.1.5s-.4.7-.5 1.3h3.2c0-.6-.2-1-.4-1.3s-.7-.5-1.2-.5zM152 255.7c1 0 1.8.4 2.3 1.2.6.8.8 1.8.8 3.2 0 1.4-.3 2.5-.9 3.2s-1.4 1.1-2.4 1.1-1.8-.4-2.3-1.1h-.2l-.4.9h-1.8v-11.7h2.3v2.7c0 .3 0 .9-.1 1.7h.1c.7-.8 1.5-1.2 2.6-1.2zm-.7 1.8c-.6 0-1 .2-1.2.5-.3.3-.4.9-.4 1.7v.2c0 .9.1 1.6.4 1.9.3.4.7.6 1.3.6.5 0 .8-.2 1.1-.7s.4-1.1.4-1.9-.1-1.5-.4-1.9c-.4-.2-.8-.4-1.2-.4zM180.6 264.3l-2.7-8.6h-.1c.1 1.8.1 2.9.1 3.5v5.1h-2.1v-11h3.2l2.6 8.4 2.8-8.4h3.2v11h-2.2v-5.2-.9c0-.3 0-1.2.1-2.6h-.1l-2.8 8.6h-2zM195.6 264.3l-.4-1.1h-.1c-.4.5-.8.8-1.2 1s-.9.3-1.6.3c-.8 0-1.4-.2-1.9-.7s-.7-1.1-.7-2c0-.9.3-1.6.9-2 .6-.4 1.6-.7 2.8-.7h1.5v-.4c0-.9-.4-1.3-1.3-1.3-.7 0-1.5.2-2.4.6l-.8-1.6c1-.5 2-.8 3.2-.8 1.1 0 2 .2 2.6.7.6.5.9 1.2.9 2.2v5.6h-1.5zm-.7-3.9h-.9c-.7 0-1.2.1-1.5.4-.3.2-.5.6-.5 1 0 .6.4 1 1.1 1 .5 0 1-.2 1.3-.5.3-.3.5-.7.5-1.2v-.7zM204.3 255.7c.3 0 .6 0 .8.1l-.2 2.2c-.2-.1-.4-.1-.7-.1-.7 0-1.3.2-1.7.6s-.6.9-.6 1.6v4.3h-2.3V256h1.7l.3 1.4h.1c.3-.5.6-.9 1.1-1.1.5-.5 1-.6 1.5-.6zM230.9 264.3l-.8-2.6h-4l-.8 2.6h-2.5l3.9-11.1h2.9l3.9 11.1h-2.6zm-1.3-4.6c-.7-2.4-1.2-3.7-1.2-4-.1-.3-.2-.6-.2-.7-.2.6-.6 2.2-1.4 4.8h2.8zM239.3 264.4c-1 0-1.8-.4-2.3-1.1h-.1c.1.7.1 1.1.1 1.2v3.4h-2.3v-12.1h1.9l.3 1.1h.1c.5-.8 1.3-1.3 2.4-1.3 1 0 1.8.4 2.3 1.2.6.8.8 1.8.8 3.2 0 .9-.1 1.7-.4 2.3-.3.7-.6 1.2-1.1 1.5-.5.4-1.1.6-1.7.6zm-.7-6.9c-.6 0-1 .2-1.2.5-.3.3-.4.9-.4 1.7v.2c0 .9.1 1.6.4 1.9.3.4.7.6 1.3.6 1 0 1.5-.8 1.5-2.5 0-.8-.1-1.5-.4-1.9-.3-.3-.7-.5-1.2-.5zM249.1 255.7c.3 0 .6 0 .8.1l-.2 2.2c-.2-.1-.4-.1-.7-.1-.7 0-1.3.2-1.7.6s-.6.9-.6 1.6v4.3h-2.3V256h1.7l.3 1.4h.1c.3-.5.6-.9 1.1-1.1.5-.5 1-.6 1.5-.6zM276 264.3l-2.7-8.6h-.1c.1 1.8.1 2.9.1 3.5v5.1h-2.1v-11h3.2l2.6 8.4 2.8-8.4h3.2v11h-2.2v-5.2-.9c0-.3 0-1.2.1-2.6h.1l-2.8 8.6H276zM291 264.3l-.4-1.1h-.1c-.4.5-.8.8-1.2 1s-.9.3-1.6.3c-.8 0-1.4-.2-1.9-.7s-.7-1.1-.7-2c0-.9.3-1.6.9-2 .6-.4 1.6-.7 2.8-.7h1.5v-.4c0-.9-.4-1.3-1.3-1.3-.7 0-1.5.2-2.4.6l-.8-1.6c1-.5 2-.8 3.2-.8 1.1 0 2 .2 2.6.7.6.5.9 1.2.9 2.2v5.6H291zm-.6-3.9h-.9c-.7 0-1.2.1-1.5.4-.3.2-.5.6-.5 1 0 .6.4 1 1.1 1 .5 0 1-.2 1.3-.5.3-.3.5-.7.5-1.2v-.7zM293.8 255.8h2.5l1.6 4.7c.1.4.2.9.3 1.5l.3-1.5 1.6-4.7h2.5l-3.6 9.5c-.3.9-.8 1.5-1.4 2-.6.4-1.3.7-2.1.7-.4 0-.8 0-1.2-.1V266c.3.1.6.1.9.1.4 0 .8-.1 1.1-.4.3-.2.5-.6.7-1.1l.1-.4-3.3-8.4zM323 267.5c-.5 0-1-.1-1.4-.2v-1.9c.4.1.8.2 1.1.2.5 0 .9-.2 1.1-.5.2-.3.3-.8.3-1.5v-10.3h2.3v10.3c0 1.3-.3 2.3-.9 2.9-.5.7-1.4 1-2.5 1zM335 264.3l-.3-1.1h-.1c-.2.4-.6.7-1 .9-.5.2-1 .3-1.5.3-1 0-1.7-.3-2.2-.8-.5-.5-.8-1.3-.8-2.3v-5.5h2.3v4.9c0 .6.1 1.1.3 1.4.2.3.6.5 1 .5.6 0 1.1-.2 1.4-.6.3-.4.4-1.1.4-2.1v-4h2.3v8.4H335zM347 264.3h-2.3v-4.9c0-.6-.1-1.1-.3-1.4-.2-.3-.6-.5-1-.5-.6 0-1.1.2-1.4.6s-.4 1.1-.4 2.1v4h-2.3v-8.4h1.8l.3 1.1h.1c.3-.4.6-.7 1.1-.9.4-.2 1-.3 1.5-.3 1 0 1.7.3 2.2.8.5.5.8 1.3.8 2.3v5.5zM370.1 267.5c-.5 0-1-.1-1.4-.2v-1.9c.4.1.8.2 1.1.2.5 0 .9-.2 1.1-.5.2-.3.3-.8.3-1.5v-10.3h2.3v10.3c0 1.3-.3 2.3-.9 2.9-.5.7-1.3 1-2.5 1zM382.2 264.3l-.3-1.1h-.1c-.2.4-.6.7-1 .9-.5.2-1 .3-1.5.3-1 0-1.7-.3-2.2-.8-.5-.5-.8-1.3-.8-2.3v-5.5h2.3v4.9c0 .6.1 1.1.3 1.4.2.3.6.5 1 .5.6 0 1.1-.2 1.4-.6.3-.4.4-1.1.4-2.1v-4h2.3v8.4h-1.8zM388.6 264.3h-2.3v-11.7h2.3v11.7zM419.5 264.3l-.8-2.6h-4l-.8 2.6h-2.5l3.9-11.1h2.9l3.9 11.1h-2.6zm-1.4-4.6c-.7-2.4-1.2-3.7-1.2-4-.1-.3-.2-.6-.2-.7-.2.6-.6 2.2-1.4 4.8h2.8zM429.2 264.3l-.3-1.1h-.1c-.2.4-.6.7-1 .9-.5.2-1 .3-1.5.3-1 0-1.7-.3-2.2-.8-.5-.5-.8-1.3-.8-2.3v-5.5h2.3v4.9c0 .6.1 1.1.3 1.4.2.3.6.5 1 .5.6 0 1.1-.2 1.4-.6.3-.4.4-1.1.4-2.1v-4h2.3v8.4h-1.8zM440.7 255.8v1.2l-1.3.3c.2.4.4.8.4 1.3 0 .9-.3 1.6-.9 2.1s-1.5.8-2.6.8h-.7c-.2.2-.4.4-.4.6 0 .3.4.5 1.3.5h1.4c.9 0 1.6.2 2.1.6.5.4.7 1 .7 1.7 0 1-.4 1.7-1.2 2.3-.8.5-2 .8-3.5.8-1.2 0-2.1-.2-2.7-.6s-.9-1-.9-1.7c0-.5.2-.9.5-1.3.3-.3.8-.6 1.4-.7-.2-.1-.4-.3-.6-.5-.2-.2-.3-.5-.3-.7 0-.3.1-.6.3-.8.2-.2.5-.4.8-.6-.4-.2-.8-.5-1.1-.9-.3-.4-.4-.9-.4-1.5 0-.9.3-1.6.9-2.1.6-.5 1.5-.8 2.6-.8.2 0 .5 0 .8.1.3 0 .5.1.6.1h2.8zm-6.5 9.7c0 .3.2.6.5.7.3.2.7.3 1.3.3.8 0 1.5-.1 1.9-.3.5-.2.7-.5.7-.9 0-.3-.1-.5-.4-.7s-.7-.2-1.3-.2h-1.2c-.4 0-.8.1-1.1.3-.3.2-.4.4-.4.8zm.8-6.9c0 .5.1.8.3 1.1.2.3.5.4 1 .4.4 0 .7-.1.9-.4.2-.3.3-.6.3-1.1 0-1-.4-1.5-1.3-1.5-.8 0-1.2.5-1.2 1.5z"/><g><path class="st7" d="M467.5 261.2c0 1-.4 1.8-1.1 2.4-.7.6-1.7.9-3 .9-1.2 0-2.2-.2-3.1-.7v-2.2c.7.3 1.4.6 1.9.7s1 .2 1.4.2c.5 0 .9-.1 1.2-.3.3-.2.4-.5.4-.9 0-.2-.1-.4-.2-.6s-.3-.3-.5-.5-.7-.4-1.4-.7c-.7-.3-1.2-.6-1.5-.9-.3-.3-.6-.6-.8-1-.2-.4-.3-.8-.3-1.4 0-1 .3-1.7 1-2.3.7-.6 1.6-.8 2.7-.8.6 0 1.1.1 1.6.2s1.1.3 1.6.6l-.8 1.8c-.6-.2-1.1-.4-1.5-.5-.4-.1-.8-.1-1.1-.1-.4 0-.8.1-1 .3s-.4.5-.4.8c0 .2 0 .4.1.5.1.2.2.3.5.4s.7.4 1.5.8c1 .5 1.7 1 2.1 1.5.5.5.7 1.1.7 1.8zM473.1 264.4c-1.4 0-2.4-.4-3.2-1.1s-1.1-1.8-1.1-3.2c0-1.4.4-2.5 1.1-3.3.7-.8 1.7-1.2 2.9-1.2s2.1.3 2.8 1c.7.7 1 1.6 1 2.8v1.1h-5.4c0 .7.2 1.2.6 1.5.4.4.9.6 1.5.6.5 0 1-.1 1.4-.2.5-.1.9-.3 1.4-.5v1.8c-.4.2-.8.4-1.3.4-.4.3-1 .3-1.7.3zm-.3-7.1c-.5 0-.9.2-1.1.5s-.4.7-.5 1.3h3.2c0-.6-.2-1-.4-1.3s-.7-.5-1.2-.5zM483.1 264.4c-1 0-1.8-.4-2.3-1.1h-.1c.1.7.1 1.1.1 1.2v3.4h-2.3v-12.1h1.9l.3 1.1h.1c.5-.8 1.3-1.3 2.4-1.3 1 0 1.8.4 2.3 1.2.6.8.8 1.8.8 3.2 0 .9-.1 1.7-.4 2.3-.3.7-.6 1.2-1.1 1.5-.5.4-1.1.6-1.7.6zm-.7-6.9c-.6 0-1 .2-1.2.5-.3.3-.4.9-.4 1.7v.2c0 .9.1 1.6.4 1.9.3.4.7.6 1.3.6 1 0 1.5-.8 1.5-2.5 0-.8-.1-1.5-.4-1.9-.3-.3-.7-.5-1.2-.5zM491.8 262.6c.4 0 .9-.1 1.4-.3v1.7c-.6.3-1.3.4-2.1.4-.9 0-1.6-.2-2-.7-.4-.5-.6-1.2-.6-2.1v-4.1h-1.1v-1l1.3-.8.7-1.8h1.5v1.8h2.4v1.7h-2.4v4.1c0 .3.1.6.3.7s.3.4.6.4z"/></g><g><path class="st7" d="M520.4 258.7c0 1.8-.5 3.2-1.4 4.2-.9 1-2.2 1.5-3.9 1.5-1.7 0-3-.5-3.9-1.5-.9-1-1.4-2.4-1.4-4.2s.5-3.2 1.4-4.2c.9-1 2.2-1.5 3.9-1.5 1.7 0 3 .5 3.9 1.5.9 1 1.4 2.4 1.4 4.2zm-8.1 0c0 1.2.2 2.2.7 2.8.5.6 1.2.9 2.1.9 1.9 0 2.8-1.2 2.8-3.7s-.9-3.7-2.8-3.7c-.9 0-1.6.3-2.1.9-.4.7-.7 1.6-.7 2.8zM525.9 264.4c-2.6 0-3.9-1.4-3.9-4.3 0-1.4.4-2.5 1.1-3.3.7-.8 1.7-1.1 3.1-1.1 1 0 1.8.2 2.6.6l-.7 1.8c-.4-.1-.7-.3-1-.4-.3-.1-.6-.1-.9-.1-1.2 0-1.8.8-1.8 2.5 0 1.6.6 2.5 1.8 2.5.4 0 .9-.1 1.2-.2.4-.1.8-.3 1.1-.6v2c-.4.2-.7.4-1.1.5-.4.1-.9.1-1.5.1zM534 262.6c.4 0 .9-.1 1.4-.3v1.7c-.6.3-1.3.4-2.1.4-.9 0-1.6-.2-2-.7-.4-.5-.6-1.2-.6-2.1v-4.1h-1.1v-1l1.3-.8.7-1.8h1.5v1.8h2.4v1.7H533v4.1c0 .3.1.6.3.7s.4.4.7.4z"/></g><g><path class="st7" d="M566.1 264.3h-3l-4.8-8.3h-.1c.1 1.5.1 2.5.1 3.2v5.2h-2.1v-11h2.9l4.8 8.3h.1c-.1-1.4-.1-2.4-.1-3v-5.2h2.1v10.8zM576.4 260c0 1.4-.4 2.4-1.1 3.2-.7.8-1.7 1.2-3 1.2-.8 0-1.5-.2-2.1-.5-.6-.4-1.1-.9-1.4-1.5-.3-.7-.5-1.4-.5-2.3 0-1.4.4-2.4 1.1-3.2.7-.8 1.7-1.1 3-1.1.8 0 1.5.2 2.1.5.6.4 1.1.9 1.4 1.5.3.6.5 1.4.5 2.2zm-5.9 0c0 .8.1 1.5.4 1.9s.7.6 1.3.6c.6 0 1.1-.2 1.3-.6.3-.4.4-1.1.4-1.9 0-.8-.1-1.5-.4-1.9-.3-.4-.7-.6-1.3-.6-.6 0-1.1.2-1.3.6-.2.5-.4 1.1-.4 1.9zM580.3 264.3l-3.2-8.4h2.4l1.6 4.8c.2.6.3 1.2.3 1.7 0-.5.1-1.1.3-1.7l1.6-4.8h2.4l-3.2 8.4h-2.2z"/></g><g><path class="st7" d="M616 258.7c0 1.8-.5 3.2-1.5 4.2s-2.5 1.4-4.5 1.4h-3.1v-11h3.5c1.8 0 3.2.5 4.2 1.4.9.9 1.4 2.3 1.4 4zm-2.4 0c0-2.4-1-3.6-3.1-3.6h-1.2v7.2h1c2.1 0 3.3-1.2 3.3-3.6zM621.9 264.4c-1.4 0-2.4-.4-3.2-1.1s-1.1-1.8-1.1-3.2c0-1.4.4-2.5 1.1-3.3.7-.8 1.7-1.2 2.9-1.2s2.1.3 2.8 1c.7.7 1 1.6 1 2.8v1.1H620c0 .7.2 1.2.6 1.5.4.4.9.6 1.5.6.5 0 1-.1 1.4-.2.5-.1.9-.3 1.4-.5v1.8c-.4.2-.8.4-1.3.4-.5.3-1 .3-1.7.3zm-.3-7.1c-.5 0-.9.2-1.1.5s-.4.7-.5 1.3h3.2c0-.6-.2-1-.4-1.3s-.7-.5-1.2-.5zM630.6 264.4c-2.6 0-3.9-1.4-3.9-4.3 0-1.4.4-2.5 1.1-3.3.7-.8 1.7-1.1 3.1-1.1 1 0 1.8.2 2.6.6l-.7 1.8c-.4-.1-.7-.3-1-.4-.3-.1-.6-.1-.9-.1-1.2 0-1.8.8-1.8 2.5 0 1.6.6 2.5 1.8 2.5.4 0 .9-.1 1.2-.2.4-.1.8-.3 1.1-.6v2c-.4.2-.7.4-1.1.5-.4.1-.9.1-1.5.1z"/></g><g><path class="st8" d="M215.8 123.7H196v-4.2l7.1-7.2c2.1-2.2 3.5-3.7 4.1-4.5.6-.8 1.1-1.6 1.4-2.3.3-.7.4-1.4.4-2.2 0-1.1-.3-2-.9-2.5-.6-.6-1.5-.8-2.5-.8-1.1 0-2.2.3-3.2.8s-2.1 1.2-3.2 2.2l-3.3-3.9c1.4-1.2 2.6-2 3.5-2.5.9-.5 1.9-.9 3-1.1 1.1-.3 2.3-.4 3.6-.4 1.8 0 3.3.3 4.7 1 1.4.6 2.4 1.6 3.2 2.7.8 1.2 1.1 2.5 1.1 4 0 1.3-.2 2.5-.7 3.7-.5 1.1-1.2 2.3-2.1 3.5-1 1.2-2.7 2.9-5.1 5.1l-3.6 3.4v.3h12.4v4.9zM239.1 117.8h-3.4v5.9h-5.9v-5.9h-12.1v-4.2l12.4-18.3h5.5v17.8h3.4v4.7zm-9.3-4.6v-4.8c0-.8 0-2 .1-3.5s.1-2.4.2-2.7h-.2c-.5 1.1-1.1 2.1-1.7 3.1l-5.2 7.9h6.8zM254.4 103.8c0 3-.6 5.2-1.7 6.7-1.2 1.5-2.8 2.2-5.1 2.2-2.1 0-3.8-.8-4.9-2.3-1.2-1.5-1.7-3.7-1.7-6.6 0-5.9 2.2-8.9 6.7-8.9 2.2 0 3.9.8 5 2.3 1.1 1.5 1.7 3.7 1.7 6.6zm-8.6 0c0 1.6.1 2.9.4 3.7.3.8.8 1.2 1.4 1.2 1.2 0 1.9-1.6 1.9-4.9 0-3.2-.6-4.9-1.9-4.9-.6 0-1.1.4-1.4 1.2-.2.9-.4 2.1-.4 3.7zm22-8.5L252 123.7h-4.7L263 95.3h4.8zm6.5 19.8c0 3-.6 5.2-1.7 6.7-1.2 1.5-2.8 2.2-5.1 2.2-2.1 0-3.8-.8-4.9-2.3-1.2-1.5-1.7-3.7-1.7-6.6 0-5.9 2.2-8.9 6.7-8.9 2.2 0 3.9.8 5 2.3 1.1 1.6 1.7 3.8 1.7 6.6zm-8.6.1c0 1.6.1 2.9.4 3.7.3.8.8 1.2 1.4 1.2 1.2 0 1.9-1.6 1.9-4.9 0-3.2-.6-4.9-1.9-4.9-.6 0-1.1.4-1.4 1.2-.3.8-.4 2-.4 3.7z"/></g><g><path class="st3" d="M328.2 123.7h-6v-16.4l.1-2.7.1-3c-1 1-1.7 1.6-2.1 2l-3.3 2.6-2.9-3.6 9.1-7.3h4.9v28.4zM338.8 123.7l10.7-23.3h-14v-5h20.4v3.8l-10.7 24.6h-6.4zM373.5 123.7h-6v-16.4l.1-2.7.1-3c-1 1-1.7 1.6-2.1 2l-3.3 2.6-2.9-3.6 9.1-7.3h4.9v28.4zM401.2 123.7h-19.8v-4.2l7.1-7.2c2.1-2.2 3.5-3.7 4.1-4.5.6-.8 1.1-1.6 1.4-2.3.3-.7.4-1.4.4-2.2 0-1.1-.3-2-.9-2.5-.6-.6-1.5-.8-2.5-.8-1.1 0-2.2.3-3.2.8s-2.1 1.2-3.2 2.2l-3.3-3.9c1.4-1.2 2.6-2 3.5-2.5.9-.5 1.9-.9 3-1.1 1.1-.3 2.3-.4 3.6-.4 1.8 0 3.3.3 4.7 1 1.4.6 2.4 1.6 3.2 2.7.8 1.2 1.1 2.5 1.1 4 0 1.3-.2 2.5-.7 3.7-.5 1.1-1.2 2.3-2.1 3.5-1 1.2-2.7 2.9-5.1 5.1l-3.6 3.4v.3h12.4v4.9z"/></g><g><path class="st7" d="M182.6 76.1l-3.9-10.2h-.1c.1.8.1 1.8.1 2.9v7.3h-1.2V64.6h2l3.6 9.4h.1l3.7-9.4h2v11.5h-1.3v-7.4c0-.8 0-1.8.1-2.8h-.1L183.7 76h-1.1zM195.4 76.2c-1.3 0-2.3-.4-3-1.2-.7-.8-1.1-1.8-1.1-3.2 0-1.4.3-2.5 1-3.3.7-.8 1.6-1.2 2.7-1.2s1.9.4 2.6 1.1c.6.7.9 1.6.9 2.8v.8h-5.9c0 1 .3 1.8.8 2.3.5.5 1.2.8 2 .8.9 0 1.8-.2 2.7-.6v1.2c-.5.2-.9.3-1.3.4-.3.1-.8.1-1.4.1zm-.3-7.8c-.7 0-1.2.2-1.6.7-.4.4-.7 1.1-.7 1.9h4.5c0-.8-.2-1.4-.5-1.9-.5-.5-1.1-.7-1.7-.7zM211.7 76.1v-5.6c0-.7-.1-1.2-.4-1.5-.3-.3-.7-.5-1.4-.5-.8 0-1.4.2-1.8.7-.4.5-.6 1.2-.6 2.1v4.8h-1.3v-5.6c0-.7-.1-1.2-.4-1.5s-.7-.5-1.4-.5c-.8 0-1.4.2-1.8.7-.4.5-.6 1.3-.6 2.4v4.5h-1.3v-8.6h1.1l.2 1.2h.1c.2-.4.6-.7 1-1 .4-.2.9-.4 1.5-.4 1.3 0 2.2.5 2.6 1.5h.1c.3-.4.6-.8 1.1-1.1.5-.3 1-.4 1.7-.4 1 0 1.7.2 2.2.7s.7 1.3.7 2.4V76h-1.3zM219.7 67.4c1.1 0 2 .4 2.6 1.2.6.8.9 1.9.9 3.3s-.3 2.5-.9 3.3c-.6.8-1.5 1.2-2.6 1.2-.6 0-1.1-.1-1.5-.3-.5-.2-.9-.5-1.2-1h-.1l-.3 1.1h-.9V63.9h1.3v3c0 .7 0 1.3-.1 1.8h.1c.6-.9 1.5-1.3 2.7-1.3zm-.2 1c-.9 0-1.5.3-1.9.8-.4.5-.6 1.4-.6 2.6 0 1.2.2 2.1.6 2.6.4.5 1 .8 1.9.8.8 0 1.4-.3 1.8-.9.4-.6.6-1.4.6-2.5s-.2-2-.6-2.5-1-.9-1.8-.9zM229.2 76.2c-1.3 0-2.3-.4-3-1.2-.7-.8-1.1-1.8-1.1-3.2 0-1.4.3-2.5 1-3.3.7-.8 1.6-1.2 2.7-1.2s1.9.4 2.6 1.1c.6.7.9 1.6.9 2.8v.8h-5.9c0 1 .3 1.8.8 2.3.5.5 1.2.8 2 .8.9 0 1.8-.2 2.7-.6v1.2c-.5.2-.9.3-1.3.4-.4.1-.9.1-1.4.1zm-.4-7.8c-.7 0-1.2.2-1.6.7-.4.4-.7 1.1-.7 1.9h4.5c0-.8-.2-1.4-.5-1.9-.5-.5-1-.7-1.7-.7zM238.5 67.3c.4 0 .7 0 1 .1l-.2 1.2c-.4-.1-.7-.1-.9-.1-.7 0-1.3.3-1.8.8-.5.6-.7 1.3-.7 2.1V76h-1.3v-8.6h1.1l.1 1.6h.1c.3-.6.7-1 1.2-1.3s.8-.4 1.4-.4zM250.8 73.7c0 .8-.3 1.4-.9 1.8-.6.4-1.4.7-2.5.7s-2-.2-2.7-.5v-1.2c.4.2.9.4 1.3.5.5.1.9.2 1.4.2.7 0 1.2-.1 1.6-.3.4-.2.5-.5.5-1 0-.3-.1-.6-.4-.9-.3-.2-.9-.5-1.7-.8-.8-.3-1.4-.6-1.7-.8s-.6-.5-.8-.8c-.2-.3-.2-.6-.2-1 0-.7.3-1.3.9-1.7s1.4-.6 2.3-.6c.9 0 1.8.2 2.7.6l-.5 1.1c-.9-.4-1.6-.5-2.3-.5-.6 0-1.1.1-1.4.3-.3.2-.5.5-.5.8 0 .2.1.4.2.6.1.2.3.3.6.5.3.1.8.4 1.5.6 1 .4 1.7.7 2.1 1.1.3.3.5.8.5 1.3zM252.8 65.2c0-.3.1-.5.2-.7.1-.1.3-.2.5-.2s.4.1.5.2c.2.1.2.4.2.7 0 .3-.1.5-.2.7-.2.1-.3.2-.5.2s-.4-.1-.5-.2c-.1-.2-.2-.4-.2-.7zm1.4 10.9h-1.3v-8.6h1.3v8.6zM262.8 76.1v-5.6c0-.7-.2-1.2-.5-1.6-.3-.3-.8-.5-1.5-.5-.9 0-1.6.2-2 .7-.4.5-.6 1.3-.6 2.4V76H257v-8.6h1.1l.2 1.2h.1c.3-.4.6-.8 1.1-1s1-.3 1.6-.3c1 0 1.8.2 2.3.7.5.5.8 1.3.8 2.4V76h-1.4zM270.2 76.2c-1.2 0-2.2-.4-2.9-1.1s-1-1.8-1-3.2c0-1.4.3-2.5 1-3.3.7-.8 1.7-1.2 3-1.2.4 0 .8 0 1.2.1.4.1.7.2 1 .3l-.4 1.1-.9-.3c-.3-.1-.6-.1-.9-.1-1.7 0-2.6 1.1-2.6 3.3 0 1.1.2 1.9.6 2.4s1.1.8 1.9.8c.7 0 1.4-.2 2.2-.5v1.2c-.6.4-1.3.5-2.2.5zM278.1 76.2c-1.3 0-2.3-.4-3-1.2-.7-.8-1.1-1.8-1.1-3.2 0-1.4.3-2.5 1-3.3.7-.8 1.6-1.2 2.7-1.2s1.9.4 2.6 1.1c.6.7.9 1.6.9 2.8v.8h-5.9c0 1 .3 1.8.8 2.3.5.5 1.2.8 2 .8.9 0 1.8-.2 2.7-.6v1.2c-.5.2-.9.3-1.3.4-.3.1-.8.1-1.4.1zm-.4-7.8c-.7 0-1.2.2-1.6.7-.4.4-.7 1.1-.7 1.9h4.5c0-.8-.2-1.4-.5-1.9-.5-.5-1-.7-1.7-.7zM294.6 76.1H287V75l3-3c.9-.9 1.5-1.6 1.8-2s.5-.8.7-1.2.2-.8.2-1.2c0-.6-.2-1.1-.6-1.5-.4-.4-.9-.5-1.5-.5-.5 0-.9.1-1.4.2-.4.2-.9.4-1.4.9l-.7-.9c1.1-.9 2.2-1.3 3.4-1.3 1.1 0 1.9.3 2.5.8.6.6.9 1.3.9 2.2 0 .7-.2 1.4-.6 2.2-.4.7-1.2 1.6-2.3 2.7l-2.5 2.5v.1h5.9v1.1zM303.8 70.3c0 2-.3 3.5-.9 4.4-.6 1-1.6 1.5-2.9 1.5-1.2 0-2.2-.5-2.8-1.5-.6-1-1-2.5-1-4.4 0-2 .3-3.5.9-4.4.6-1 1.6-1.4 2.8-1.4 1.2 0 2.2.5 2.8 1.5.8 1 1.1 2.4 1.1 4.3zm-6.3 0c0 1.7.2 2.9.6 3.6.4.8 1 1.1 1.9 1.1.9 0 1.5-.4 1.9-1.2s.6-2 .6-3.6-.2-2.9-.6-3.6-1-1.1-1.9-1.1c-.9 0-1.5.4-1.9 1.1s-.6 2.1-.6 3.7zM310.2 76.1h-1.3v-8.2c0-.7 0-1.3.1-1.9-.1.1-.2.2-.4.3-.1.1-.8.6-1.9 1.5l-.7-.9 3-2.3h1.1v11.5zM322.6 73.4h-1.7V76h-1.2v-2.6h-5.6v-1.1l5.4-7.7h1.4v7.7h1.7v1.1zm-2.9-1.1v-3.8c0-.7 0-1.6.1-2.5h-.1c-.3.5-.5.9-.7 1.2l-3.6 5.1h4.3zM331 63.9h1.1V80H331V63.9zM350.3 64.6V72c0 1.3-.4 2.3-1.2 3.1-.8.7-1.9 1.1-3.3 1.1s-2.4-.4-3.2-1.1c-.8-.8-1.1-1.8-1.1-3.1v-7.4h1.3v7.5c0 1 .3 1.7.8 2.2.5.5 1.3.8 2.3.8 1 0 1.7-.3 2.2-.8.5-.5.8-1.3.8-2.2v-7.5h1.4zM361.6 76.1H360l-4.2-5.6-1.2 1.1v4.5h-1.3V64.6h1.3v5.7l5.2-5.7h1.6l-4.6 5 4.8 6.5z"/></g><g><path class="st7" d="M44.8 552.5l-2.5-8h-.1c.1 1.6.1 2.7.1 3.3v4.8h-1.9v-10.2h3l2.4 7.8 2.6-7.8h3v10.2h-2v-4.8-.8c0-.3 0-1.1.1-2.4h-.1l-2.6 8h-2zM58.8 552.5l-.4-1.1h-.1c-.4.5-.7.8-1.1.9s-.9.3-1.5.3c-.8 0-1.3-.2-1.8-.6-.4-.4-.6-1-.6-1.8s.3-1.4.9-1.8c.6-.4 1.5-.6 2.6-.7h1.4v-.3c0-.8-.4-1.2-1.2-1.2-.6 0-1.4.2-2.2.6l-.7-1.4c.9-.5 1.9-.7 3-.7s1.9.2 2.4.7c.6.5.8 1.2.8 2.1v5.2h-1.5zm-.6-3.6h-.8c-.6 0-1.1.1-1.4.3s-.5.5-.5.9c0 .6.3.9 1 .9.5 0 .9-.1 1.2-.4.3-.3.4-.7.4-1.1v-.6zM61.4 544.7h2.3l1.5 4.4c.1.4.2.8.3 1.4.1-.5.2-.9.3-1.4l1.5-4.4h2.3l-3.3 8.8c-.3.8-.7 1.4-1.3 1.8-.6.4-1.2.6-2 .6-.4 0-.7 0-1.1-.1v-1.7c.3.1.5.1.8.1.4 0 .7-.1 1-.3.3-.2.5-.6.7-1l.1-.4-3.1-7.8zM75.6 552.5l-.4-1.1h-.1c-.4.5-.7.8-1.1.9s-.9.3-1.5.3c-.8 0-1.3-.2-1.8-.6-.4-.4-.6-1-.6-1.8s.3-1.4.9-1.8c.6-.4 1.5-.6 2.6-.7H75v-.3c0-.8-.4-1.2-1.2-1.2-.6 0-1.4.2-2.2.6l-.7-1.4c.9-.5 1.9-.7 3-.7s1.9.2 2.4.7c.6.5.8 1.2.8 2.1v5.2h-1.5zm-.6-3.6h-.8c-.6 0-1.1.1-1.4.3s-.5.5-.5.9c0 .6.3.9 1 .9.5 0 .9-.1 1.2-.4.3-.3.4-.7.4-1.1v-.6zM81.4 551c-.2.9-.7 2.1-1.2 3.4h-1.5c.3-1.2.5-2.4.7-3.5h2v.1zM86.3 555.5c-.5 0-.9-.1-1.3-.2v-1.8c.4.1.7.1 1 .1.5 0 .8-.1 1-.4.2-.3.3-.8.3-1.4v-9.6h2.2v9.6c0 1.2-.3 2.1-.8 2.7-.5.7-1.3 1-2.4 1zM97.5 552.5l-.3-1h-.1c-.2.4-.6.6-1 .8-.4.2-.9.3-1.4.3-.9 0-1.6-.2-2.1-.7-.5-.5-.7-1.2-.7-2.1v-5.1H94v4.6c0 .6.1 1 .3 1.3.2.3.5.4 1 .4.6 0 1-.2 1.3-.6.3-.4.4-1.1.4-2v-3.7h2.1v7.8h-1.6zM105.8 544.5c.3 0 .5 0 .7.1l-.2 2c-.2 0-.4-.1-.6-.1-.7 0-1.2.2-1.6.5-.4.4-.6.8-.6 1.5v4h-2.1v-7.8h1.6l.3 1.3h.1c.2-.4.6-.8 1-1.1.4-.3.9-.4 1.4-.4zM107.8 542.6c0-.7.4-1 1.2-1 .8 0 1.2.3 1.2 1 0 .3-.1.6-.3.8-.2.2-.5.3-.9.3-.8 0-1.2-.4-1.2-1.1zm2.3 9.9H108v-7.8h2.1v7.8zM117.8 550.2c0 .8-.3 1.4-.8 1.8-.6.4-1.4.6-2.5.6-.6 0-1.1 0-1.5-.1-.4-.1-.8-.2-1.1-.3v-1.8c.4.2.8.3 1.3.5.5.1.9.2 1.3.2.8 0 1.2-.2 1.2-.7 0-.2-.1-.3-.2-.4-.1-.1-.3-.2-.5-.4-.3-.1-.6-.3-1-.5-.6-.3-1-.5-1.3-.7-.3-.2-.5-.5-.6-.7-.1-.3-.2-.6-.2-1 0-.7.3-1.2.8-1.6.5-.4 1.3-.6 2.3-.6.9 0 1.9.2 2.8.6l-.6 1.5c-.4-.2-.8-.3-1.1-.4s-.7-.2-1-.2c-.6 0-.9.2-.9.5 0 .2.1.4.3.5s.6.3 1.3.6c.6.2 1.1.5 1.3.7.3.2.5.5.6.7 0 .4.1.8.1 1.2z"/></g><g><path class="st7" d="M128 552.5l-.2-1.1h-.1c-.4.5-.8.8-1.1 1-.4.2-.9.3-1.4.3-.8 0-1.4-.2-1.8-.6-.4-.4-.6-1-.6-1.7 0-1.6 1.2-2.4 3.7-2.4h1.3v-.5c0-.6-.1-1-.4-1.3-.3-.3-.7-.4-1.2-.4-.6 0-1.4.2-2.2.6l-.4-.9c.4-.2.8-.4 1.2-.5.5-.1.9-.2 1.4-.2.9 0 1.6.2 2 .6.4.4.7 1.1.7 2v5.2h-.9zm-2.6-.8c.7 0 1.3-.2 1.7-.6.4-.4.6-1 .6-1.7v-.7h-1.2c-.9 0-1.6.2-2 .4-.4.3-.6.7-.6 1.2 0 .4.1.7.4 1 .3.3.6.4 1.1.4zM136.5 552.5v-5c0-.6-.1-1.1-.4-1.4s-.7-.5-1.3-.5c-.8 0-1.4.2-1.8.7-.4.4-.6 1.2-.6 2.2v4h-1.2v-7.7h.9l.2 1.1h.1c.2-.4.6-.7 1-.9.4-.2.9-.3 1.4-.3.9 0 1.6.2 2.1.7.5.4.7 1.2.7 2.1v5h-1.1zM145.3 551.5c-.6.8-1.4 1.2-2.5 1.2-1 0-1.8-.3-2.3-1-.6-.7-.8-1.7-.8-2.9 0-1.3.3-2.2.8-3s1.3-1.1 2.3-1.1c1 0 1.8.4 2.4 1.1h.1v-4.2h1.2v10.9h-.9l-.3-1zm-2.3.2c.8 0 1.4-.2 1.7-.6s.5-1.1.5-2.1v-.2c0-1.1-.2-1.9-.5-2.3-.4-.5-.9-.7-1.7-.7-.7 0-1.2.3-1.6.8s-.5 1.3-.5 2.2c0 1 .2 1.7.5 2.2.4.4.9.7 1.6.7z"/></g><g><path class="st7" d="M158.7 544.5c0 .6-.2 1.2-.6 1.6-.4.4-.9.8-1.6.9.8.1 1.5.4 1.9.8s.6.9.6 1.6c0 1-.4 1.8-1.1 2.3-.7.5-1.7.8-3.1.8-1.1 0-2.1-.2-3-.6v-1.8c.4.2.8.4 1.3.5.5.1.9.2 1.4.2.7 0 1.2-.1 1.6-.4.3-.2.5-.6.5-1.2 0-.5-.2-.8-.6-1s-1-.3-1.9-.3h-.8v-1.7h.8c.8 0 1.4-.1 1.7-.3.4-.2.6-.6.6-1.1 0-.8-.5-1.2-1.5-1.2-.3 0-.7.1-1 .2-.3.1-.7.3-1.2.6l-1-1.5c.9-.7 2-1 3.3-1 1.1 0 1.9.2 2.5.6.9.7 1.2 1.3 1.2 2zM167.5 550.4h-1.2v2.1h-2.1v-2.1h-4.4v-1.5l4.5-6.6h2v6.4h1.2v1.7zm-3.3-1.7V547v-1.3c0-.6 0-.9.1-1h-.1c-.2.4-.4.8-.6 1.1l-1.9 2.8h2.5z"/></g><g><path class="st7" d="M179.4 548.6c0 1.3-.3 2.2-.9 2.9-.6.7-1.5 1.1-2.6 1.1-.7 0-1.3-.2-1.8-.5s-.9-.8-1.2-1.4c-.3-.6-.4-1.3-.4-2.1 0-1.3.3-2.2.9-2.9s1.5-1 2.6-1 1.9.4 2.6 1.1c.4.7.8 1.6.8 2.8zm-5.9 0c0 1 .2 1.7.6 2.2.4.5 1 .8 1.7.8.8 0 1.3-.3 1.7-.8.4-.5.6-1.3.6-2.2 0-1-.2-1.7-.6-2.2-.4-.5-1-.8-1.7-.8-.8 0-1.3.2-1.7.7-.4.6-.6 1.3-.6 2.3zM183.9 551.7h.6c.2 0 .3-.1.5-.1v.9c-.1.1-.3.1-.6.2-.2 0-.5.1-.7.1-1.5 0-2.2-.8-2.2-2.3v-4.6h-1.1v-.6l1.1-.5.5-1.6h.7v1.8h2.2v.9h-2.2v4.5c0 .5.1.8.3 1.1.2 0 .5.2.9.2zM191.7 552.5v-5c0-.6-.1-1.1-.4-1.4s-.7-.5-1.3-.5c-.8 0-1.4.2-1.8.7-.4.4-.6 1.2-.6 2.2v4h-1.2v-10.9h1.2v3.3c0 .4 0 .7-.1 1h.1c.2-.4.6-.7 1-.9.4-.2.9-.3 1.4-.3.9 0 1.6.2 2.1.7s.7 1.2.7 2.1v5h-1.1zM198.5 552.6c-1.1 0-2-.3-2.7-1s-1-1.7-1-2.9.3-2.2.9-3c.6-.7 1.4-1.1 2.5-1.1 1 0 1.7.3 2.3.9s.8 1.5.8 2.5v.7H196c0 .9.3 1.6.7 2.1.4.5 1 .7 1.8.7s1.6-.2 2.5-.5v1c-.4.2-.8.3-1.2.4-.3.2-.8.2-1.3.2zm-.3-7c-.6 0-1.1.2-1.5.6-.4.4-.6 1-.6 1.7h4c0-.7-.2-1.3-.5-1.7s-.8-.6-1.4-.6zM206.8 544.7c.3 0 .6 0 .9.1l-.2 1.1c-.3-.1-.6-.1-.8-.1-.6 0-1.2.3-1.6.8-.4.5-.7 1.1-.7 1.9v4.1h-1.2v-7.7h1l.1 1.4h.1c.3-.5.6-.9 1-1.2.5-.3 1-.4 1.4-.4zM214.1 552.5h-1.2v-10.9h1.2v10.9zM216.4 542.7c0-.3.1-.5.2-.6s.3-.2.5-.2.3.1.5.2c.1.1.2.3.2.6s-.1.5-.2.6c-.1.1-.3.2-.5.2s-.4-.1-.5-.2-.2-.3-.2-.6zm1.3 9.8h-1.2v-7.7h1.2v7.7zM221.3 548.6c.2-.3.5-.7.9-1.1l2.5-2.6h1.4l-3.1 3.3 3.3 4.4h-1.4l-2.7-3.6-.9.8v2.9h-1.1v-10.9h1.1v6.8zM231 552.6c-1.1 0-2-.3-2.7-1-.7-.7-1-1.7-1-2.9s.3-2.2.9-3c.6-.7 1.4-1.1 2.5-1.1 1 0 1.7.3 2.3.9s.8 1.5.8 2.5v.7h-5.3c0 .9.3 1.6.7 2.1.4.5 1 .7 1.8.7s1.6-.2 2.5-.5v1c-.4.2-.8.3-1.2.4-.4.2-.8.2-1.3.2zm-.4-7c-.6 0-1.1.2-1.5.6s-.6 1-.6 1.7h4c0-.7-.2-1.3-.5-1.7s-.8-.6-1.4-.6zM240.7 550.4c0 .7-.3 1.3-.8 1.7-.5.4-1.3.6-2.2.6-1 0-1.8-.2-2.4-.5v-1.1c.4.2.8.3 1.2.4s.8.2 1.2.2c.6 0 1.1-.1 1.4-.3.3-.2.5-.5.5-.9 0-.3-.1-.6-.4-.8-.3-.2-.8-.5-1.5-.8-.7-.3-1.2-.5-1.5-.7s-.5-.4-.7-.7c-.1-.3-.2-.6-.2-.9 0-.6.3-1.1.8-1.5.5-.4 1.2-.5 2.1-.5.8 0 1.6.2 2.4.5l-.4.9c-.8-.3-1.5-.5-2.1-.5-.6 0-1 .1-1.2.3-.3.2-.4.4-.4.7 0 .2.1.4.2.5.1.1.3.3.5.4.2.1.7.3 1.3.6.9.3 1.5.7 1.8 1 .3.5.4.9.4 1.4zM248.8 551.7h.6c.2 0 .3-.1.5-.1v.9c-.1.1-.3.1-.6.2-.2 0-.5.1-.7.1-1.5 0-2.2-.8-2.2-2.3v-4.6h-1.1v-.6l1.1-.5.5-1.6h.7v1.8h2.2v.9h-2.2v4.5c0 .5.1.8.3 1.1.2 0 .5.2.9.2zM256.7 552.5v-5c0-.6-.1-1.1-.4-1.4-.3-.3-.7-.5-1.3-.5-.8 0-1.4.2-1.8.7-.4.4-.6 1.2-.6 2.2v4h-1.2v-10.9h1.2v3.3c0 .4 0 .7-.1 1h.1c.2-.4.6-.7 1-.9.4-.2.9-.3 1.4-.3.9 0 1.6.2 2.1.7.5.4.7 1.2.7 2.1v5h-1.1zM260.1 542.7c0-.3.1-.5.2-.6s.3-.2.5-.2.3.1.5.2c.1.1.2.3.2.6s-.1.5-.2.6c-.1.1-.3.2-.5.2s-.4-.1-.5-.2-.2-.3-.2-.6zm1.3 9.8h-1.2v-7.7h1.2v7.7zM268.8 550.4c0 .7-.3 1.3-.8 1.7-.5.4-1.3.6-2.2.6-1 0-1.8-.2-2.4-.5v-1.1c.4.2.8.3 1.2.4.4.1.8.2 1.2.2.6 0 1.1-.1 1.4-.3.3-.2.5-.5.5-.9 0-.3-.1-.6-.4-.8-.3-.2-.8-.5-1.5-.8-.7-.3-1.2-.5-1.5-.7-.3-.2-.5-.4-.7-.7-.1-.3-.2-.6-.2-.9 0-.6.3-1.1.8-1.5.5-.4 1.2-.5 2.1-.5.8 0 1.6.2 2.4.5l-.4.9c-.8-.3-1.5-.5-2.1-.5-.6 0-1 .1-1.2.3s-.4.4-.4.7c0 .2.1.4.2.5s.3.3.5.4c.2.1.7.3 1.3.6.9.3 1.5.7 1.8 1 .2.5.4.9.4 1.4z"/></g><path class="st9" d="M216.6 222.7h40.1V242h-40.1z"/><path class="st10" d="M216.6 222.7h40.1V242h-40.1z"/><path class="st9" d="M264.2 203.4h40.1v38.5h-40.1z"/><path class="st10" d="M264.2 203.4h40.1v38.5h-40.1z"/><path class="st11" d="M311.8 230.2h40.1v11.7h-40.1z"/><path class="st10" d="M311.8 229h40.1v12.1h-40.1z"/><path class="st9" d="M359.3 203.4h40.1v38.5h-40.1z"/><path class="st10" d="M359.3 203.4h40.1v38.5h-40.1z"/><path class="st9" d="M406.9 191H447v50.9h-40.1z"/><path class="st10" d="M406.9 191H447v50.9h-40.1z"/><path class="st9" d="M454.5 216.5h40.1v25.4h-40.1z"/><path class="st10" d="M454.5 216.5h40.1v25.4h-40.1z"/><path class="st9" d="M73.9 203.4H114v38.5H73.9z"/><path class="st10" d="M73.9 203.4H114v38.5H73.9z"/><path class="st9" d="M121.5 191h40.1v50.9h-40.1z"/><path class="st10" d="M121.5 191h40.1v50.9h-40.1z"/><path class="st9" d="M169.1 216.5h40.1v25.4h-40.1z"/><path class="st10" d="M169.1 216.5h40.1v25.4h-40.1z"/><path class="st9" d="M502 206.9h40.1v35H502z"/><path class="st10" d="M502 206.9h40.1v35H502z"/><path class="st9" d="M549.6 222.7h40.1V242h-40.1z"/><path class="st10" d="M549.6 222.7h40.1V242h-40.1z"/><path class="st9" d="M597.2 203.4h40.1v38.5h-40.1z"/><path class="st10" d="M597.2 203.4h40.1v38.5h-40.1z"/><path class="st0" d="M88.5 447.6h75.1v49.3H88.5z"/><path class="st12" d="M126.7 488.8l-.4-6.9c0-1.1.5-1.1 1-1 .5.1 6.9 1.2 6.9 1.2s-.8-1.8-.8-2.5c0-.9 1.9-2.1 3.9-3.9s3.4-2.7 3.4-2.9c0-.2-1.5-.1-1.5-1.2 0-1.1 1.4-5.1 1.4-5.1s-2.9 1-3.6 1c-.8 0-2-1.4-2-2.5 0 0-3.7 4.7-4.5 4.4-.8-.3 1.4-9.6 1.4-9.6s-2.2 1.9-3 1.7c-.8-.2-3-5.6-3-5.6s0-.1-.1-.1l-.1.1s-2.2 5.4-3 5.6c-.8.2-3-1.7-3-1.7s2.2 9.2 1.4 9.6c-.8.3-4.5-4.4-4.5-4.4 0 1.1-1.2 2.5-2 2.5s-3.6-1-3.6-1 1.4 4 1.4 5.1c0 1.1-1.5 1-1.5 1.2 0 .2 1.4 1.1 3.4 2.9s3.9 3 3.9 3.9c0 .7-.8 2.5-.8 2.5s6.4-1.1 6.9-1.2c.5-.1 1-.1 1 1l-.4 6.9h1.8zM88.5 447.6h18.9v49.3H88.5zM144.6 447.6h18.9v49.3h-18.9z"/><path class="st13" d="M36.7 463h75.2v3.3H36.7z"/><path class="st0" d="M36.7 459.7h75.2v3.3H36.7z"/><path class="st13" d="M36.7 456.4h75.2v3.3H36.7z"/><path class="st0" d="M36.7 453.1h75.2v3.3H36.7z"/><path class="st13" d="M36.7 449.8h75.2v3.3H36.7z"/><path class="st0" d="M36.7 446.5h75.2v3.3H36.7z"/><path class="st13" d="M36.7 443.2h75.2v3.3H36.7z"/><path class="st0" d="M36.7 439.9h75.2v3.3H36.7z"/><path class="st13" d="M36.7 436.6h75.2v3.3H36.7z"/><path class="st0" d="M36.7 433.3h75.2v3.3H36.7z"/><path class="st13" d="M36.7 430.1h75.2v3.3H36.7z"/><path class="st0" d="M36.7 426.8h75.2v3.3H36.7z"/><path class="st13" d="M36.7 423.5h75.2v3.3H36.7z"/><path class="st0" d="M36.7 420.2h75.2v3.3H36.7z"/><path class="st13" d="M36.7 416.9h75.2v3.3H36.7z"/><path class="st14" d="M36.7 416.9h32.1v26.3H36.7z"/><path class="st0" d="M48.2 434H47l-.4-1.2-.4 1.2H45l1 .8-.4 1.2 1-.8 1 .8-.4-1.2zM56.4 434h-1.3l-.4-1.2-.3 1.2h-1.3l1 .8-.4 1.2 1.1-.8 1 .8-.4-1.2zM64.5 434h-1.2l-.4-1.2-.4 1.2h-1.2l1 .8-.4 1.2 1-.8 1 .8-.4-1.2zM60.8 429.5h-1.3l-.4-1.2-.4 1.2h-1.2l1 .8-.4 1.2 1-.8 1 .8-.4-1.2zM43.8 429.5h-1.2l-.4-1.2-.4 1.2h-1.2l1 .8-.4 1.2 1-.8 1 .8-.4-1.2zM52 429.5h-1.2l-.4-1.2-.4 1.2h-1.3l1.1.8-.5 1.2 1.1-.8 1 .8-.4-1.2zM48.2 425H47l-.4-1.2-.4 1.2H45l1 .7-.4 1.3 1-.8 1 .8-.4-1.3zM56.4 425h-1.3l-.4-1.2-.3 1.2h-1.3l1 .7-.4 1.3 1.1-.8 1 .8-.4-1.3zM64.5 425h-1.2l-.4-1.2-.4 1.2h-1.2l1 .7-.4 1.3 1-.8 1 .8-.4-1.3zM60.8 438.5h-1.3l-.4-1.1-.4 1.1h-1.2l1 .8-.4 1.3 1-.8 1 .8-.4-1.3zM43.8 438.5h-1.2l-.4-1.1-.4 1.1h-1.2l1 .8-.4 1.3 1-.8 1 .8-.4-1.3zM52 438.5h-1.2l-.4-1.1-.4 1.1h-1.3l1.1.8-.5 1.3 1.1-.8 1 .8-.4-1.3zM43.8 420.4h-1.2l-.4-1.2-.4 1.2h-1.2l1 .8-.4 1.3 1-.8 1 .7-.4-1.2zM52 420.4h-1.2l-.4-1.2-.4 1.2h-1.3l1.1.8-.5 1.3 1.1-.8 1 .7-.4-1.2zM60.2 420.4h-1.3l-.4-1.2-.3 1.2h-1.3l1 .8-.4 1.3 1-.8 1 .7-.4-1.2z"/><g><path class="st5" d="M182.8 121.1c-.6 0-1.1-.5-1.1-1.1v-13c0-.6.5-1.1 1.1-1.1s1.1.5 1.1 1.1v13c0 .7-.5 1.1-1.1 1.1z"/></g><g><path class="st8" d="M175.9 115.2l6.9-6.9 7 6.9v-5.9l-7-6.9-6.9 6.9z"/></g><g><defs><path id="SVGID_1_" d="M33.5 33.7h112.3V146H33.5z"/></defs><clipPath id="SVGID_2_"><use xlink:href="#SVGID_1_" style="overflow:visible"/></clipPath><g class="st15"><path class="st16" d="M44.1 153.6c0-9.2 5.6-17.4 14.1-20.8l21-8.4h25.3l19.9 8.3c8.4 3.5 13.8 11.7 13.8 20.7v35.5"/><path class="st17" d="M45.6 145.4s4.2-10.9 11.9-12.4c0 0 4.8 40.7 21.6 44.1 1.2 0 0 11.8 0 11.8"/><path class="st10" d="M44.1 153.6c0-2.9.5-5.6 1.5-8.2 2.2-5.7 6.7-10.3 12.6-12.7l21-8.4h25.3l19.9 8.3c8.4 3.5 13.8 11.7 13.8 20.7v35.5"/><path class="st0" d="M104.4 188.9v-64.5l-5.6-5.6H84.7l-5.6 5.6v64.5"/><path class="st18" d="M90.3 135.6l-5.6 41.1 6.4 6.6 4.9-5.6-5.6-43.5"/><path class="st10" d="M104.4 188.9v-64.5l-5.6-5.6H84.7l-5.6 5.6v64.5"/><path class="st19" d="M91.8 125.8c-3.9 0-7-3.1-7-7v-7h14v7c0 3.8-3.2 7-7 7"/><path class="st20" d="M91.8 125.8c-3.9 0-7-3.1-7-7v-7h14v7c0 3.8-3.2 7-7 7z"/><path class="st21" d="M122.6 66.9c0 17-13.8 30.9-30.9 30.9-17 0-30.9-13.8-30.9-30.9 0-17 13.8-30.9 30.9-30.9 17.1 0 30.9 13.8 30.9 30.9"/><circle class="st20" cx="91.8" cy="66.9" r="30.9"/><path class="st22" d="M73.6 92.1c0 3.9-3.1 7-7 7s-7-3.1-7-7 3.1-7 7-7 7 3.1 7 7"/><circle class="st19" cx="66" cy="92.1" r="7"/><path class="st22" d="M124.6 92.1c0 3.9-3.1 7-7 7s-7-3.1-7-7 3.1-7 7-7 7 3.1 7 7"/><circle class="st19" cx="117.6" cy="92.1" r="7"/><path class="st19" d="M91.8 114.6c-13.9 0-25.3-11.3-25.3-25.3V69.7c0-9.3 7.5-16.8 16.8-16.8h16.8c9.3 0 16.8 7.5 16.8 16.8v19.6c.1 13.9-11.2 25.3-25.1 25.3"/><path class="st20" d="M91.8 114.6c-13.9 0-25.3-11.3-25.3-25.3V69.7c0-9.3 7.5-16.8 16.8-16.8h16.8c9.3 0 16.8 7.5 16.8 16.8v19.6c.1 13.9-11.2 25.3-25.1 25.3z"/><path class="st23" d="M80.5 79.5c0-1.5 1.3-2.8 2.8-2.8 1.5 0 2.8 1.3 2.8 2.8M97.4 79.5c0-1.5 1.3-2.8 2.8-2.8 1.5 0 2.8 1.3 2.8 2.8"/><path class="st0" d="M84.7 96.3c0 3.9 3.1 7 7 7s7-3.1 7-7h-14z"/><path class="st10" d="M84.7 96.3c0 3.9 3.1 7 7 7s7-3.1 7-7h-14z"/><path class="st23" d="M96 87.9c0 1.5-1.3 2.8-2.8 2.8h-2.8c-1.5 0-2.8-1.3-2.8-2.8"/><path class="st21" d="M82 34.6c-10.5 0-19.8 5.3-25.4 13.3-.9 1.3-.9 3 0 4.3 5.6 8 14.8 13.3 25.4 13.3 11.4 0 21.4-6.2 26.7-15.4-5.3-9.3-15.3-15.5-26.7-15.5"/><path class="st10" d="M103.2 43c-5.5-5.2-13-8.4-21.2-8.4-10.5 0-19.8 5.3-25.4 13.3-.9 1.3-.9 3 0 4.3 5.6 8 14.8 13.3 25.4 13.3 11.4 0 21.4-6.2 26.7-15.4"/><path class="st24" d="M93.2 134.2h-2.8l-2.9-4.2 1.5-4.2h5.6L96 130z"/><path class="st25" d="M93.2 134.2h-2.8l-2.9-4.2 1.5-4.2h5.6L96 130z"/><path class="st24" d="M90.4 134.2h2.8l2.8 40.7-4.2 4.2-4.3-4.2z"/><path class="st25" d="M90.4 134.2h2.8l2.8 40.7-4.2 4.2-4.3-4.2z"/><path class="st10" d="M124 188.9v-29.5M58.1 188.9v-29.5M70.7 135.6l-5.6 7 5.6 5.6-5.6 2.8 8.4 29.5M112.8 135.6l5.6 7-5.6 5.6 5.6 2.8-8.4 29.5"/><path class="st26" d="M72.1 36.2S66.2 56.4 93 63.4c0 0-22.2 7.5-37-12.8 0 .1 2-7.3 16.1-14.4z"/><path class="st10" d="M101.3 48.6c.6.6 1.2 1.3 1.7 1.9M86.1 39.5s6.1 1.2 12.4 6.5"/><path class="st27" d="M69.3 63.9s-6 45 38.6 44.8c0 0-20.3 16.6-38.6-6.1-1.8-10.5-7.2-29 0-38.7z"/><path class="st18" d="M79.1 188.9v-64.5l4.2 64.5M104.4 188.9v-64.5l-4.2 64.5"/><path class="st27" d="M98.2 114l-12.9 7.5v-6.9z"/></g><path class="st10" d="M135.5 145.2H46.3"/></g><path class="st7" d="M292.7 94.7h2.3v29h-2.3z"/></svg>