<svg xmlns:xlink="http://www.w3.org/1999/xlink" xmlns="http://www.w3.org/2000/svg" baseProfile="basic" width="695" height="466" viewBox="0 0 695 466" preserveAspectRatio="xMinYMin meet"><defs><symbol id="a" overflow="visible"><path fill="#B4DEEF" d="M347.6 233.2v-466.3h-695.2v466.3h695.2"/></symbol><symbol id="b" overflow="visible"><path fill="#EDEDED" fill-opacity=".4" d="M294.6-69.7h-24.9q0-5.1 3.7-8.8 3.6-3.6 8.8-3.6 5.1 0 8.7 3.6 3.7 3.7 3.7 8.8M269.7-44.6v-25h24.9v25.3l9.5.2v3.3h-44v-4l9.6.1"/><path fill="#EDEDED" fill-opacity=".4" d="M260.1-33.7v-7.1h44v7.1h-44"/><path fill="#EDEDED" fill-opacity=".4" d="M300.6-27.1H264h36.6l4.3 88.6h-45.5l.9-18.6.1-3.2.6-10.7 3-62.7h36.3l.3 6.6m-23.5 11.7h8.7V-3h-8.7v-12.4m8.7 44.4h-8.7V16.6h8.7V29"/><path fill="#EDEDED" fill-opacity=".4" stroke-opacity=".4" stroke-width="2.5" stroke-linecap="round" stroke-linejoin="round" d="M277.1-15.4h8.7V-3h-8.7v-12.4M285.8 29h-8.7V16.6h8.7V29"/><path fill="#EDEDED" fill-opacity=".4" d="M260.3 42.9l-.9 18.6h-41.2V42.9h42.1"/><path fill="#CEEAF0" fill-opacity=".4" d="M260.4 39.7l-1 3.1h-41.2L232 29h29l-.6 10.7"/><path fill="none" stroke="#1A344D" stroke-opacity=".4" stroke-width="2.5" stroke-linecap="round" stroke-linejoin="round" d="M282.1-82.1q5.2 0 8.8 3.6m-17.5 0q3.6-3.6 8.8-3.6m-12.5 12.4q0-5.1 3.7-8.8m-3.7 8.8H264m5.7 25v-25m-9.6 28.9v-4m0 11.1v-7.1m3.9 7.1h-3.9M261 29l3-62.7M232 29h29m-42.8 13.9L232 29m-13.8 32.5V42.9m41.2 18.6h-41.2m86.7 0h-45.5m41.2-88.6l4.3 88.6m-4.6-95.2l.3 6.6m3.5-6.6h-3.9m3.9-7.1v7.1m0-10.4v3.3m-9.6-28.9v25.5m0-25.5h5.8m-9.4-8.8q3.7 3.7 3.7 8.8"/><path fill="none" fill-opacity=".4" stroke="#1A344D" stroke-opacity=".4" stroke-width="2.5" stroke-linecap="round" stroke-linejoin="round" d="M269.7-69.7h24.9M260.1-40.8h44M264-33.7h36.3M300.6-27.1H264m-3.7 70l-.9 18.6m1-21.8l-.1 3.1M261 29l-.6 10.7M277.1-15.4h8.7V-3h-8.7v-12.4M285.8 29h-8.7V16.6h8.7V29M259.4 42.9h-41.2m42.1 0h-.9"/><path fill="none" stroke="#1A344D" stroke-opacity=".4" stroke-width="2.5" stroke-linecap="round" stroke-linejoin="round" d="M282.5-83v-16.5"/></symbol><symbol id="c" overflow="visible"><path fill="none" stroke="#1A344F" stroke-width="2.5" stroke-linecap="round" stroke-linejoin="round" d="M-364.3 117.5h728.6"/></symbol><symbol id="d" overflow="visible"><path fill="#F0B971" stroke="#1A344F" stroke-width="2.5" stroke-linecap="round" stroke-linejoin="round" d="M-96.8-14.2q-16.6 0-31.9 6.4-14.7 6.3-26 17.6t-17.5 26q-6.5 15.3-6.5 32 0 18.2 7.6 27.8 3.3 4.1 9.4 8.9l13.3 9.8 104.6 10.9q15.5-11.5 22.1-24.2 6.9-13.3 6.9-33.3 0-16.6-6.4-31.9-6.3-14.6-17.6-26-11.4-11.4-26-17.6-15.3-6.4-32-6.4"/></symbol><symbol id="e" overflow="visible"><path fill="#F3E9C4" d="M347.6 233.2V117.6h-701v115.6h701"/></symbol><symbol id="f" overflow="visible"><path fill="#7AC7EE" stroke="#1A344F" stroke-width="2.5" stroke-linecap="round" stroke-linejoin="round" d="M350 117.5V60h-701v57.5h701"/></symbol><symbol id="g" overflow="visible"><path fill="none" stroke="#1A344F" stroke-width="2.5" stroke-linecap="round" stroke-linejoin="round" d="M-309 171h157.2"/></symbol><symbol id="h" overflow="visible"><path fill="none" stroke="#1A344F" stroke-width="2.5" stroke-linecap="round" stroke-linejoin="round" d="M-279 177.5h74.1"/></symbol><symbol id="i" overflow="visible"><path fill="none" stroke="#1A344F" stroke-width="2.5" stroke-linecap="round" stroke-linejoin="round" d="M232.2 156.1H308"/></symbol><symbol id="j" overflow="visible"><path fill="none" stroke="#19324E" stroke-opacity=".4" stroke-width="2.5" stroke-linecap="round" stroke-linejoin="round" d="M308-130.7l-9.6 9.6-8-7.9"/></symbol><symbol id="k" overflow="visible"><path fill="none" stroke="#19324E" stroke-opacity=".4" stroke-width="2.5" stroke-linecap="round" stroke-linejoin="round" d="M154-189.3l-9.7 9.7-7.9-8"/></symbol><symbol id="l" overflow="visible"><path fill="none" stroke="#19324E" stroke-opacity=".4" stroke-width="2.5" stroke-linecap="round" stroke-linejoin="round" d="M176.7-140.8l10-9.3 7.6 8.2"/></symbol><symbol id="m" overflow="visible"><path fill="none" stroke="#1A344F" stroke-width="2.5" stroke-linecap="round" stroke-linejoin="round" d="M91.8-123.8l8.4-8-6.5-7M57.8-135.3l-6.5-12.1 9.9-5.3M246.8-165.2v11.3m0-11.3h-13.6M-156.2-166.9l-10-9.3 7.8-8.3"/></symbol><symbol id="n" overflow="visible"><path fill="#BE9A7B" d="M144-38q-2.3-3.6-6.6-1.9l-3.9 2.5-1.7 11q-2 14.8-3.5 34.8-4.8 64-2.7 154.9l27.3-.2q.2-5.2-2.8-76.4-3.3-76.2-6-124.7M-209.8-68.2q-5.1-2-7.8 2.3-3.3 56.8-7.2 146.4l-1.4 35.8q-2.1 49.5-1.9 54.1l32 .2q.7-28.3.8-54.3.2-72.4-3.9-127.7-1.8-23.5-4.1-41l-2-12.8q-2-1.9-4.5-3"/><path fill="none" stroke="#1A344F" stroke-width="2.5" stroke-linecap="round" stroke-linejoin="round" d="M144-38q-2.3-3.6-6.6-1.9l-3.9 2.5-1.7 11q-2 14.8-3.5 34.8-4.8 64-2.7 154.9m27.3-.2q.2-5.2-2.8-76.4-3.3-76.2-6-124.7M-209.8-68.2q-5.1-2-7.8 2.3-3.3 56.8-7.2 146.4l-1.4 35.8q-2.1 49.5-1.9 54.1m32 .2q.7-28.3.8-54.3.2-72.4-3.9-127.7-1.8-23.5-4.1-41l-2-12.8q-2-1.9-4.5-3"/></symbol><symbol id="o" overflow="visible"><path fill="#9C7D61" d="M136.4 162.7q4.7 1.6 10.7.7 2.9-.4 5-1.2l-7-173q-.8 36.8-2.3 77-2.9 80.3-6.4 96.5"/></symbol><symbol id="p" overflow="visible"><path fill="#9B7C60" d="M-221.3 170.7q7 1 12.5-.8-4.2-19-7.6-113.4-1.7-47.2-2.6-90.6l-8.2 203.4q2.4.9 5.9 1.4"/></symbol><symbol id="q" overflow="visible"><path fill="#9B8065" d="M136-43.8q-2.2 8.3-4.7 31.5l-2.1 21.7q11.5-10.7 14.7-22.7 1.6-6 1-9.8-1.5-8.3-3.3-15-3.7-13.4-5.7-5.6"/></symbol><symbol id="r" overflow="visible"><path fill="#9B8065" d="M-208.2-72.8q-2.3-9-6.6 6.8-2.1 7.9-3.8 17.5-.8 4.5 1.1 11.5 3.8 14.1 17.3 26.8-1-11.8-2.5-25.5-3-27.4-5.5-37"/></symbol><symbol id="s" overflow="visible"><path fill="#7C5B48" d="M-188.7-62.3q-3.6-3.5-8.2-4.5l-1-.2-1.7.8-11.5 5.5q13.3 1.3 15 15.3.8 7-1 13.8 1.8-.7 4-2 4.5-2.6 6.7-5.6 5.7-15.3-2.3-23"/><path fill="#997D60" d="M-196.8-66.8q4.5 1 8.1 4.5 8 7.8 2.3 23.1-2.2 3-6.7 5.6-2.2 1.3-4 2 7.8-2.3 11.8-9.4 4-7.2 1.7-15.1-1.3-4.6-4.5-7.4-3-2.8-7.3-3.7l-1.4.4M-225.9-69q-7.4 3.4-10.3 11.1-2.9 7.7.5 15.1 4 8.7 13.3 9.2l1.3-.5q-4.5-.4-8.6-3.3-9-6.5-5.7-22.5 1.8-3.2 5.8-6.4l3.7-2.7"/><path fill="#997D60" d="M-210.8-69.5q-7.6-2.9-15.1.5-.8 7 1 13.8 1 3.8 2.8 6.5.2-3 2-6.4 2.3-4.4 6.6-7.9-4.3 3.5-6.6 7.9-1.8 3.3-2 6.4v.8l.3 2.4.1.1v.2q1.5 5.3 5.3 8.8l.2.2q1.8 1.7 4 2.9 7.2 4 15 1.7 1.9-6.8 1.1-13.8-1.7-14-15-15.3l11.5-5.5-4.2 1q-2.8-2.8-7-4.3"/><path fill="#836951" d="M-224.8-55.2Q-226.8-62-226-69l-3.7 2.7q-4 3.2-5.8 6.4-3.3 16 5.8 22.5 4 2.9 8.5 3.3h1.2l2.3-1.5 1.2-.8q-3.8-3.5-5.3-8.8V-45.4l-.4-2.5v-.8q-1.8-2.7-2.8-6.4"/><path fill="#997D60" d="M-217.7-35.6l1.4-.6-.1-.2-1.3.8"/><path fill="none" stroke="#1A344F" stroke-width="2.5" stroke-linecap="round" stroke-linejoin="round" d="M-210.8-69.5q4.2 1.5 7 4.3m-22.1-3.8q7.5-3.4 15.2-.5M-236.3-58q2.8-7.7 10.3-11.1m-9.8 26.3q-3.4-7.5-.5-15.2m13.8 24.3q-9.3-.5-13.3-9.1m23.5 9.4q-2.3-1.3-4-2.9m19 4.6q-7.8 2.3-15-1.7m27-7.8q-4 7.3-12 9.5m13.6-24.5q2.3 7.9-1.7 15m-2.8-22.4q3.2 2.8 4.5 7.4m-11.8-11q4.3.8 7.3 3.5"/><path fill="none" stroke="#1A344F" stroke-width="2.5" stroke-linecap="round" stroke-linejoin="round" d="M-222-48.8q0-3 1.9-6.4 2.3-4.3 6.6-7.8m-8.6 14.3v.8l.3 2.4.1.1v.2q1.5 5.3 5.3 8.8l.2.2"/></symbol><symbol id="t" overflow="visible"><path fill="#997D60" d="M118.8-36q-2.6 2.5-3.8 6.4-1.9 6.7 1.5 12.8l1 1.6q-4.9-13 1.9-19.7 3-2.9 6.9-3.8L125-39q-3.6.8-6.2 3"/><path fill="#7C5B48" d="M119.4-34.9q-6.8 6.7-2 19.6 1.9 2.6 5.7 4.8 1.9 1.2 3.5 1.8-1.6-5.8-.9-11.8 1.4-11.9 12.7-13l-9.8-4.7-1.4-.7-.9.2q-3.8.9-6.9 3.9"/><path fill="#997D60" d="M150.2-28.9q1.6-5.8.9-11.6-6.4-3-13-.5-3.4 1.3-5.8 3.6l-3.7-.8 9.8 4.7q-11.3 1.1-12.7 13-.7 6 .8 11.8 6.8 1.8 12.9-1.5l.2-.1 2.9-2 .6-.5q3-3 4.3-7.5v-.1q.4-1.5.3-2.9 0-2.6-1.6-5.5-2-3.7-5.6-6.7 3.6 3 5.6 6.7 1.6 2.9 1.7 5.5 1.4-2.3 2.3-5.6"/><path fill="#997D60" d="M126.5-8.8q-5.8-1.6-9-6.4 1.8 2.4 5.6 4.7 1.9 1.2 3.5 1.8M144-12.2l-1-.7-.5.6.3-.3 1.2.4"/><path fill="#836951" d="M159.2-32.7l-.3-.4q-1.5-2.6-4.7-5.2l-3.1-2.3q.7 6-1 11.8-.8 3.2-2.3 5.5 0 1.4-.4 2.9v.1q-1.3 4.5-4.3 7.5l.9.6 2 1.3h1q3.8-.3 7.3-2.8 7.7-5.6 4.8-19"/><path fill="#997D60" d="M154.2-38.3l-3.1-2.3q5.3 2.5 7.8 7.5-1.5-2.6-4.7-5.2M159.8-31.1l-.7-1.6q2.9 13.5-4.8 19-3.5 2.4-7.3 2.8l1 .5q3.8-.3 6.6-2.1 3-2 4.8-5.8 2.8-6.3.4-12.8"/><path fill="none" stroke="#1A344F" stroke-width="2.5" stroke-linecap="round" stroke-linejoin="round" d="M116.5-16.8q-3.4-6.1-1.5-12.8m2.5 14.4l-1-1.6m10 8q-5.8-1.6-9-6.4m21.9 5q-6.2 3.3-12.9 1.4m13.1-1.5l-.2.1m3.1-2.2l-2.9 2.1m15-2.2q-2.8 1.8-6.5 2m11.3-7.8q-1.8 3.8-4.8 5.8m5.2-18.6q2.4 6.5-.5 12.9m-.2-14.5l.7 1.6m-8.8-9.4q5.3 2.4 7.9 7.4m-20.8-8q6.6-2.4 13 .6m-18.8 3.1q2.4-2.4 5.8-3.6m-19.3 5q2.6-2.3 6.3-3m-10 9.4q1.1-4 3.8-6.4M142.5-12.3l.6-.5q3-3 4.3-7.5v-.1q.4-1.5.3-2.9 0-2.6-1.6-5.5-2-3.7-5.6-6.7"/></symbol><symbol id="u" overflow="visible"><path fill="#99C977" stroke="#1A344F" stroke-width="2.5" stroke-linecap="round" stroke-linejoin="round" d="M128.3-93.3q-7.4 25.3.4 37.6 4 6.2 9.4 7.3 25.5-22.3 32.3-58.3 3.5-18 1.8-31.5-8.4 2.6-18.1 9.5-19.4 13.8-25.8 35.4"/></symbol><symbol id="v" overflow="visible"><path fill="#83B753" d="M126.5-78.8q-1.3-.6-1.7 2.5v3.1l13.7 23.5q8.1-7.6 16.3-19.6 16.4-24.1 17-46.1-5 10.6-13.1 20.5-16.3 19.7-32.1 16.1"/></symbol><symbol id="w" overflow="visible"><path fill="none" stroke="#1A344F" stroke-width="2.5" stroke-linecap="round" stroke-linejoin="round" d="M128.3-93.3q-7.4 25.3.4 37.6 4 6.2 9.4 7.3 25.5-22.3 32.3-58.3 3.5-18 1.8-31.5-8.4 2.6-18.1 9.5-19.4 13.8-25.8 35.4"/></symbol><symbol id="x" overflow="visible"><path fill="#7FA75B" stroke="#1A344F" stroke-width="2.5" stroke-linecap="round" stroke-linejoin="round" d="M29.3-13.1l-5.5 7q46.3-2.3 82.5-19.5 18-8.6 26.9-16.8l-14.1-18.3Q77.2-54 46.3-29.4q-9.6 7.7-17 16.3"/></symbol><symbol id="y" overflow="visible"><path fill="#6D9B41" d="M87.6-32.3q5.8 2.2 10.1 3l32.6-16-49-4.8-13.1 7.3q7.7 6.3 19.4 10.5"/></symbol><symbol id="z" overflow="visible"><path fill="none" stroke="#1A344F" stroke-width="2.5" stroke-linecap="round" stroke-linejoin="round" d="M29.3-13.1l-5.5 7q46.3-2.3 82.5-19.5 18-8.6 26.9-16.8l-14.1-18.3Q77.2-54 46.3-29.4q-9.6 7.7-17 16.3"/></symbol><symbol id="A" overflow="visible"><path fill="#99C977" d="M136.9-45.9l4.4 9.1q6.2 11.1 14.8 21.5 27.3 33.2 68.5 46.7-1-13.8-10.3-30.3-18.4-32.9-59.5-46.4l-17.9-.6"/></symbol><symbol id="B" overflow="visible"><path fill="none" stroke="#1A344F" stroke-width="2.5" stroke-linecap="round" stroke-linejoin="round" d="M136.9-45.9l4.4 9.1q6.2 11.1 14.8 21.5 27.3 33.2 68.5 46.7-1-13.8-10.3-30.3-18.4-32.9-59.5-46.4"/></symbol><symbol id="C" overflow="visible"><path fill="#83B753" d="M150-45.3l-9.6-2q15.8 6.5 32.7 19 33.5 25 38.6 54.8l12.9 4.1q-1.8-11-9-25-14.3-27.9-41.5-42.8-12.1-5-24-8"/></symbol><symbol id="D" overflow="visible"><path fill="#83B753" d="M146.6-32.3q1.5-5.8 14.7-6l12.8 1.1q-6.4-3.8-22.3-7.3l-14.5-2.8q1.8 6.1 3.8 11 4 10 5.5 4"/></symbol><symbol id="E" overflow="visible"><path fill="#99C977" stroke="#1A344F" stroke-width="2.5" stroke-linecap="round" stroke-linejoin="round" d="M-199.2-131q-7.5-25.3-30.3-41.6-7.2-5-15-8.6l-6.3-2.5q-2 15.9 2.1 37 8.1 42.3 38 68.4 6.3-1.3 11-8.5 9.2-14.5.5-44.1"/></symbol><symbol id="F" overflow="visible"><path fill="#83B753" d="M-195-107.3q.1-2-.1-3.8-.4-3.6-2-2.8-18.7 4.2-37.8-19-9.5-11.5-15.4-24 .7 25.8 20 54.1 9.7 14.1 19.2 23l16-27.5"/></symbol><symbol id="G" overflow="visible"><path fill="none" stroke="#1A344F" stroke-width="2.5" stroke-linecap="round" stroke-linejoin="round" d="M-199.2-131q-7.5-25.3-30.3-41.6-7.2-5-15-8.6l-6.3-2.5q-2 15.9 2.1 37 8.1 42.3 38 68.4 6.3-1.3 11-8.5 9.2-14.5.5-44.1"/></symbol><symbol id="H" overflow="visible"><path fill="#7FA75B" stroke="#1A344F" stroke-width="2.5" stroke-linecap="round" stroke-linejoin="round" d="M-197-65.1q10.4 7.3 23.8 13.6 42.5 20.3 96.8 23.1-8.3-13-26.4-27.5-36.3-29-85.5-36.8l-16.6 21.5 7.8 6.1"/></symbol><symbol id="I" overflow="visible"><path fill="#6D9B41" d="M-201.5-74.5l38.3 18.8q5-1 11.9-3.5 13.7-5 22.8-12.5l-15.5-8.5-57.5 5.8"/></symbol><symbol id="J" overflow="visible"><path fill="none" stroke="#1A344F" stroke-width="2.5" stroke-linecap="round" stroke-linejoin="round" d="M-197-65.1q10.4 7.3 23.8 13.6 42.5 20.3 96.8 23.1-8.3-13-26.4-27.5-36.3-29-85.5-36.8l-16.6 21.5 7.8 6.1"/></symbol><symbol id="K" overflow="visible"><path fill="#99C977" d="M-209.3-75.2l-21 .7q-48.3 15.9-70 54.5-6.8 12.1-10 25-1.6 6.5-2 10.6 48.4-15.9 80.6-55 16-19.5 22.4-35.8"/></symbol><symbol id="L" overflow="visible"><path fill="none" stroke="#1A344F" stroke-width="2.5" stroke-linecap="round" stroke-linejoin="round" d="M-209.3-75.2q-6.3 16.4-22.4 35.9-32.3 39-80.6 54.9.4-4.1 2-10.5 3.3-13 10-25 21.7-38.8 70-54.6"/></symbol><symbol id="M" overflow="visible"><path fill="#83B753" d="M-252.9-65q-32 17.5-48.9 50.3-8.4 16.4-10.4 29.3l15-4.8q6-35 45.4-64.3 19.8-14.7 38.4-22.3l-11.3 2.3q-14 3.5-28.2 9.5"/></symbol><symbol id="N" overflow="visible"><path fill="#83B753" d="M-237.8-66.3q15.4.2 17.1 7.1 1.8 6.9 6.5-4.7 2.4-5.8 4.4-13-7.8 1.2-17 3.3-18.6 4-26.1 8.6 7.3-1.3 15-1.3"/></symbol><symbol id="aV" overflow="visible"><use xlink:href="#a"/><use xlink:href="#b"/><use xlink:href="#c"/><use xlink:href="#d"/><use xlink:href="#e"/><use xlink:href="#f"/><use xlink:href="#g"/><use xlink:href="#h"/><use xlink:href="#i"/><use xlink:href="#j"/><use xlink:href="#k"/><use xlink:href="#l"/><use xlink:href="#m"/><use xlink:href="#n"/><use xlink:href="#o"/><use xlink:href="#p"/><use xlink:href="#q"/><use xlink:href="#r"/><use xlink:href="#s"/><use xlink:href="#t"/><use xlink:href="#u"/><use xlink:href="#v"/><use xlink:href="#w"/><use xlink:href="#x"/><use xlink:href="#y"/><use xlink:href="#z"/><use xlink:href="#A"/><use xlink:href="#B"/><use xlink:href="#C"/><use xlink:href="#D"/><use xlink:href="#B"/><use xlink:href="#E"/><use xlink:href="#F"/><use xlink:href="#G"/><use xlink:href="#H"/><use xlink:href="#I"/><use xlink:href="#J"/><use xlink:href="#K"/><use xlink:href="#L"/><use xlink:href="#M"/><use xlink:href="#N"/><use xlink:href="#L"/></symbol><symbol id="O" overflow="visible"><path fill="none" stroke="#1A344F" stroke-width="5" stroke-linecap="round" stroke-linejoin="round" d="M60.5-3.6q0 1.5-1 2.5Q58.4 0 56.9 0H-55.4q-2.1 0-3.6-1.5t-1.5-3.7q0-6.2 4.3-10.9 4.3-4.6 10.5-5 6.3-.3 11 3.9M60.5-3.6v-2.7q0-7.6-5.4-12.9l-.9-.9q-5-4.4-11.9-4.4-5.5 0-10.1 3"/></symbol><symbol id="P" overflow="visible"><path fill="#FFF" stroke="#1A344F" stroke-width="2.5" stroke-linecap="round" stroke-linejoin="round" d="M22.4-16.6L7.7-28.4l-29.2 3.8-4.9 1q-5 1.2-5.8 2.5-.8 1.2.4 5.6l1.3 4 41.7-.8 11.2-4.3"/></symbol><symbol id="Q" overflow="visible"><path fill="#FFF" d="M39.5-19.2Q37-30.6 28-38q-9.1-7.5-21-7.5-12.4 0-20.6 5.5-8.6 5.9-10.7 17l63.7 3.8"/></symbol><symbol id="R" overflow="visible"><path fill="none" stroke="#1A344F" stroke-width="2.5" stroke-linecap="round" stroke-linejoin="round" d="M7.2-45.5Q19-45.5 28-38q9 7.4 11.4 18.8M7-45.5q-12.4 0-20.6 5.5-8.6 5.9-10.7 17"/></symbol><symbol id="S" overflow="visible"><path fill="#FFF" d="M-22-30.9q-8.1 0-13.8 5.7-5.7 5.7-5.7 13.8L-9-25.9q-5.6-5.1-13-5.1"/></symbol><symbol id="T" overflow="visible"><path fill="none" stroke="#1A344F" stroke-width="2.5" stroke-linecap="round" stroke-linejoin="round" d="M-35.8-25.2q5.7-5.7 13.7-5.7 7.6 0 13.2 5.1m-26.9.6q-5.7 5.7-5.7 13.8"/></symbol><symbol id="U" overflow="visible"><path fill="#FFF" d="M60.5-6.3q0-7.6-5.4-12.9-5.3-5.4-12.8-5.4-5.5 0-10.1 3.2l-66.9 4.2q-4.7-4.2-11-3.9-6.2.4-10.5 5-4.3 4.7-4.3 11 0 2.1 1.5 3.6t3.6 1.5H57q1.5 0 2.6-1 1-1.1 1-2.6v-2.7"/></symbol><symbol id="V" overflow="visible"><path fill="none" stroke="#1A344F" stroke-width="2.5" stroke-linecap="round" stroke-linejoin="round" d="M27.5-31.3l2.4 2.9"/></symbol><symbol id="W" overflow="visible"><path fill="#FFF" d="M24.2-34.3q-3.6-2.9-8-4.4-4.7-1.7-9.8-1.7l17.8 6.1"/></symbol><symbol id="X" overflow="visible"><path fill="none" stroke="#1A344F" stroke-width="2.5" stroke-linecap="round" stroke-linejoin="round" d="M6.5-40.4q5 0 9.7 1.7 4.4 1.5 8 4.4"/></symbol><symbol id="Y" overflow="visible"><path fill="#EAEDF4" d="M-56.3-16.2q-4.2 4.6-4.2 11 0 2.1 1.5 3.6t3.6 1.5H5.5q-32.4-.7-45-10.5-6.6-5.3-6.2-10.5-6.2.3-10.5 4.9"/></symbol><symbol id="aW" overflow="visible"><use xlink:href="#O"/><use xlink:href="#P"/><use xlink:href="#Q"/><use xlink:href="#R"/><use xlink:href="#S"/><use xlink:href="#T"/><use xlink:href="#U"/><use xlink:href="#V"/><use xlink:href="#W"/><use xlink:href="#X"/><use xlink:href="#Y"/></symbol><symbol id="Z" overflow="visible"><path fill="#E66C6C" stroke="#1A344F" stroke-width="2.5" stroke-linecap="round" stroke-linejoin="round" d="M20.7-50Q12.1-58.5 0-58.5q-12.2 0-20.7 8.5-8.6 8.6-8.6 20.8 0 12 8.6 20.6Q-12.2 0 0 0q12.1 0 20.7-8.6 8.6-8.5 8.6-20.6 0-12.2-8.6-20.8"/></symbol><symbol id="aX" overflow="visible"><use xlink:href="#Z"/></symbol><symbol id="aa" overflow="visible"><path fill="#99C977" stroke="#1A344F" stroke-width="2.5" stroke-linecap="round" stroke-linejoin="round" d="M-52.9 82.1q5.6 1.4 7.9 0 19-12 30.1-30Q-1.2 30.3 0 .5q-5.5 1.5-14 5-17 7-31.6 16.8-46.7 31.2-52.2 78l8.3-1.2q10.3-1.9 20.4-5.4 1.8-.7 4.1-5.9 2.4-5.3 4.4-6.2 2-1 7.8.5"/></symbol><symbol id="ab" overflow="visible"><path fill="#83B753" d="M-1.3 0l-25.8 11.5q0 7.7-3.6 20.3-7.1 25.2-24.7 49.7l8.4 1.3q10.1-5 21-17.3Q-4 41.1-.3 5l-1-5"/></symbol><symbol id="ac" overflow="visible"><path fill="none" stroke="#1A344F" stroke-width="2.5" stroke-linecap="round" stroke-linejoin="round" d="M-69.1 93.7q1.8-.7 4.1-5.9 2.4-5.3 4.4-6.2 2-1 7.8.5 5.5 1.4 7.8 0 19-12 30.1-30Q-1.2 30.3 0 .5q-5.5 1.5-14 5-17 7-31.6 16.8-46.7 31.2-52.2 78l8.3-1.2q10.3-1.9 20.4-5.4"/></symbol><symbol id="ad" overflow="visible"><path fill="none" stroke="#1A344F" stroke-width="2.5" stroke-linecap="round" stroke-linejoin="round" d="M-1.3 0q-9.5 12.6-23.8 28.9Q-54 61.5-78.3 80.5"/></symbol><symbol id="aY" overflow="visible"><use xlink:href="#aa"/><use xlink:href="#ab"/><use xlink:href="#ac"/><use xlink:href="#ad"/></symbol><symbol id="ae" overflow="visible"><path fill="#99C977" d="M-112.5-42.9q0 1.3 10.3 9.4 12.5 10 26.4 17.7Q-33 7.8-.3-3.8L0-6.6l-3.1-7q-2.1-5-4.3-8.3-6.8-10.6-22.7-18.7-1.6-.8-5.9.9-4.4 1.7-6.1 1-1.8-.5-4.8-4.8-2.9-4.1-5-4.5-27-5.3-60.6 5.1"/></symbol><symbol id="af" overflow="visible"><path fill="none" stroke="#1A344F" stroke-width="2.5" stroke-linecap="round" stroke-linejoin="round" d="M-102.2-33.5q-10.3-8.1-10.3-9.4Q-78.9-53.3-52-48q2.3.4 5.1 4.5 3 4.3 4.8 4.9 1.7.6 6.1-1.1 4.3-1.7 5.9-.9 15.9 8.1 22.7 18.7 2.2 3.3 4.3 8.3l3.1 7m-102.2-26.9q12.5 10 26.4 17.7Q-33 7.8-.3-3.8"/></symbol><symbol id="ag" overflow="visible"><path fill="none" stroke="#1A344F" stroke-width="2.5" stroke-linecap="round" stroke-linejoin="round" d="M-1.1-1.7q-12.3-6.8-28.5-14.4Q-62-31.5-81.4-36"/></symbol><symbol id="aZ" overflow="visible"><use xlink:href="#ae"/><use xlink:href="#af"/><use xlink:href="#ag"/></symbol><symbol id="ah" overflow="visible"><path fill="#99C977" d="M0-1.1l11.3.5q13.7.3 25.1 0 1-.1 2-3.5t2-3.4q1.3 0 4.9 3 3.6 3 5 2.9 28.2-2.9 56.6-27.1-4.1-2.5-11-5.2Q82.4-39 69-40 25.5-43 0-1.1"/></symbol><symbol id="ai" overflow="visible"><path fill="none" stroke="#1A344F" stroke-width="2.5" stroke-linecap="round" stroke-linejoin="round" d="M11.3-.7q13.7.4 25.1 0 1 0 2-3.4t2-3.4q1.3 0 4.9 3 3.6 3 5 2.9 28.2-2.9 56.6-27.1-4.1-2.5-11-5.2Q82.4-39 69-40 25.5-43 0-1.1l11.3.5"/></symbol><symbol id="aj" overflow="visible"><path fill="#83B753" d="M17.9-.5q6-16.6 20.2-29.3 7.1-6.3 13-9.3-19.9 2.4-37.5 20.4Q4.8-9.7 0-1.1l17.9.6"/></symbol><symbol id="ak" overflow="visible"><path fill="none" stroke="#1A344F" stroke-width="2.5" stroke-linecap="round" stroke-linejoin="round" d="M77.8-25.1q-12.5.7-28.4 3.9Q17.5-15 1-2.6"/></symbol><symbol id="ba" overflow="visible"><use xlink:href="#ah"/><use xlink:href="#ai"/><use xlink:href="#aj"/><use xlink:href="#ai"/><use xlink:href="#ak"/></symbol><symbol id="al" overflow="visible"><path fill="#99C977" d="M-112.8-39.8q-8 3.1-12.9 6Q-92.2-5.3-59.1-1.9q1.6.2 5.9-3.4 4.2-3.6 5.7-3.5 1.1 0 2.4 4 1.1 4 2.3 4 13.4.5 29.4 0L0-1.3q-30.1-49.2-80.9-45.8-15.9 1.1-32 7.3"/></symbol><symbol id="am" overflow="visible"><path fill="none" stroke="#1A344F" stroke-width="2.5" stroke-linecap="round" stroke-linejoin="round" d="M-112.8-39.8q-8 3.1-12.9 6Q-92.2-5.3-59.1-1.9q1.6.2 5.9-3.4 4.2-3.6 5.7-3.5 1.1 0 2.4 4 1.1 4 2.3 4 13.4.5 29.4 0L0-1.3q-30.1-49.2-80.9-45.8-15.9 1.1-32 7.3"/></symbol><symbol id="an" overflow="visible"><path fill="#83B753" d="M-60-46q6.9 3.5 15.2 11Q-28.2-20-21.1-.6L0-1.3q-5.7-10-16-20.6Q-36.9-43.3-60-46"/></symbol><symbol id="ao" overflow="visible"><path fill="none" stroke="#1A344F" stroke-width="2.5" stroke-linecap="round" stroke-linejoin="round" d="M-91.5-29.6l9.7 1q12 1.3 23.8 3.6 37.4 7.4 56.9 21.9"/></symbol><symbol id="bb" overflow="visible"><use xlink:href="#al"/><use xlink:href="#am"/><use xlink:href="#an"/><use xlink:href="#am"/><use xlink:href="#ao"/></symbol><symbol id="ap" overflow="visible"><path fill="#99C977" stroke="#1A344F" stroke-width="2.5" stroke-linecap="round" stroke-linejoin="round" d="M16.5 6.5L0 .5q1.4 35 17.4 60.8 13.1 21 35.5 35.2 2.6 1.7 9.2 0 6.9-1.7 9.1-.5 2.3 1 5.1 7.3 2.8 6 4.9 6.8 11.8 4.2 24 6.4l9.8 1.4q-6.5-55-61.4-91.7Q36.5 14.8 16.5 6.6"/></symbol><symbol id="aq" overflow="visible"><path fill="#83B753" d="M1.5 0L.3 6q4.5 42.4 30.2 71 12.8 14.5 24.8 20.3l9.7-1.5Q44.4 67 36 37.4 32 22.6 32 13.6L1.5 0"/></symbol><symbol id="ar" overflow="visible"><path fill="none" stroke="#1A344F" stroke-width="2.5" stroke-linecap="round" stroke-linejoin="round" d="M16.5 6.5L0 .5q1.4 35 17.4 60.8 13.1 21 35.5 35.2 2.6 1.7 9.2 0 6.9-1.7 9.1-.5 2.3 1 5.1 7.3 2.8 6 4.9 6.8 11.8 4.2 24 6.4l9.8 1.4q-6.5-55-61.4-91.7Q36.5 14.8 16.5 6.6"/></symbol><symbol id="as" overflow="visible"><path fill="none" stroke="#1A344F" stroke-width="2.5" stroke-linecap="round" stroke-linejoin="round" d="M1.5 0l7.7 9.8Q19 21.9 29.5 34q33.8 38.3 62.3 60.7"/></symbol><symbol id="bc" overflow="visible"><use xlink:href="#ap"/><use xlink:href="#aq"/><use xlink:href="#ar"/><use xlink:href="#as"/></symbol><symbol id="at" overflow="visible"><path fill="#99C977" d="M61.1-56.4q-2.6.5-6 5.3-3.6 5-5.5 5.7-2.1.7-7.3-1.3-5-2-6.9-1-18.6 9.5-26.7 22-2.5 3.8-5 9.7Q1-9.6 0-7.7l.3 3.2q38.5 13.7 88.9-14 16.3-9 31-20.8 12-9.7 12-11.2-39.6-12-71.1-5.9"/></symbol><symbol id="au" overflow="visible"><path fill="none" stroke="#1A344F" stroke-width="2.5" stroke-linecap="round" stroke-linejoin="round" d="M61.1-56.4q-2.6.5-6 5.3-3.6 5-5.5 5.7-2.1.7-7.3-1.3-5-2-6.9-1-18.6 9.5-26.7 22-2.5 3.8-5 9.7Q1-9.6 0-7.7m61.1-48.7q31.4-6.1 71.1 6 0 1.4-12 11.1-14.8 11.7-31 20.7Q38.8 9.3.3-4.5"/></symbol><symbol id="av" overflow="visible"><path fill="none" stroke="#1A344F" stroke-width="2.5" stroke-linecap="round" stroke-linejoin="round" d="M1.4-2L11-7.1Q22.9-13.4 34.9-19q38-18 60.8-23.2"/></symbol><symbol id="bd" overflow="visible"><use xlink:href="#at"/><use xlink:href="#au"/><use xlink:href="#av"/></symbol><symbol id="aw" overflow="visible"><path fill="#948499" stroke="#1A344F" stroke-width="2.5" stroke-linecap="round" stroke-linejoin="round" d="M89.3 98l7.5-8.8Q58.9 95.1 5.5 98q-106.7 5.8-184.1-9.1l15.8 19.3 81.8 13.7H7l18.7-5.1q19-5.1 21.3-5.3 2.4-.2 22.5-6.8L89.3 98"/></symbol><symbol id="ax" overflow="visible"><path fill="#BFA8C4" stroke="#1A344F" stroke-width="2.5" stroke-linecap="round" stroke-linejoin="round" d="M46 129.7q38.6-15.8 50.8-40.5-92.1 32.1-195.1 19.3-32.2-4-61.6-12.1-9.2-2.5-17-5.1l-6-2.1q12.3 24.6 50.8 40.5 39.1 16 89 16 50 0 89.2-16"/></symbol><symbol id="ay" overflow="visible"><path fill="#7AC7EE" d="M-108.3 131.4q-3.2-25.9 6.5-24.7-3-2.4-7-3.4-8.1-2-13 5.5-3.3 5-2 27.4.6 11.2 2 21.4l9.3 9.3 9.3-9.3q-3.5-13.2-5.1-26.2"/></symbol><symbol id="az" overflow="visible"><path fill="none" stroke="#1A344F" stroke-width="2.5" stroke-linecap="round" stroke-linejoin="round" d="M-108.3 131.4q-3.2-25.9 6.5-24.7-3-2.4-7-3.4-8.1-2-13 5.5-3.3 5-2 27.4.6 11.2 2 21.4l9.3 9.3 9.3-9.3q-3.5-13.2-5.1-26.2"/></symbol><symbol id="aA" overflow="visible"><path fill="none" stroke="#1A344F" stroke-width="2.5" stroke-linecap="round" stroke-linejoin="round" d="M-121.8 108.3l12.8 11.2"/></symbol><symbol id="aB" overflow="visible"><path fill="none" stroke="#1A344F" stroke-width="2.5" stroke-linecap="round" stroke-linejoin="round" d="M-124.2 121.9l15.9 15.8"/></symbol><symbol id="aC" overflow="visible"><path fill="none" stroke="#1A344F" stroke-width="2.5" stroke-linecap="round" stroke-linejoin="round" d="M-123.5 141l20.3 16.7"/></symbol><symbol id="aD" overflow="visible"><path fill="none" stroke="#1A344F" stroke-width="2.5" stroke-linecap="round" stroke-linejoin="round" d="M116.2 84.5l31.2-3.5m-31.3 3.5Q13.9 105.3-105.2 97q-59.5-4.1-98.5-12.4l-25.9-2.5"/></symbol><symbol id="aE" overflow="visible"><path fill="none" stroke="#1A344F" stroke-width="2.5" stroke-linecap="round" stroke-linejoin="round" d="M148.9 96.8l-29.4-12.3"/></symbol><symbol id="aF" overflow="visible"><path fill="none" stroke="#1A344F" stroke-width="2.5" stroke-linecap="round" stroke-linejoin="round" d="M-197.6 85.8l-30.1 8.5"/></symbol><symbol id="aG" overflow="visible"><path fill="#868C8E" stroke="#1A344F" stroke-width="2.5" stroke-linecap="round" stroke-linejoin="round" d="M163.8 135.4q0-2-1.5-3.5t-3.5-1.5H81.4q-2 0-3.6 1.5-1.4 1.4-1.4 3.5v51.2q0 2 1.4 3.4 1.5 1.4 3.5 1.4h77.6q2 0 3.4-1.4t1.4-3.4v-51.2"/></symbol><symbol id="aH" overflow="visible"><path fill="#E5E5E5" d="M154.4 139.8q-1.3-1.3-3.2-1.3H89q-1.9 0-3.3 1.3-1.3 1.3-1.3 3.1v43.5l71.3-.7V143q0-1.8-1.3-3.1"/></symbol><symbol id="aI" overflow="visible"><path fill="none" stroke="#1A344F" stroke-width="2.5" stroke-linecap="round" stroke-linejoin="round" d="M151.3 138.5q1.8 0 3.1 1.3t1.3 3.1v42.8m-4.4-47.2H88.8q-1.8 0-3.2 1.3-1.3 1.3-1.3 3.1v43.5"/></symbol><symbol id="aJ" overflow="visible"><path fill="#B6B7B7" stroke="#1A344F" stroke-width="2.5" stroke-linecap="round" stroke-linejoin="round" d="M176.4 191.4v-5.3H63.7v5.3q0 2.3 1.6 3.8 1.7 1.6 3.9 1.6H171q2.2 0 3.8-1.6 1.5-1.5 1.5-3.8"/></symbol><symbol id="aK" overflow="visible"><path fill="#DCF0F9" d="M108.8 186.9v1.3q0 1.2 1 2 1 .9 2.5.9h15.5q1.5 0 2.5-.8 1.1-.9 1.1-2v-1.4h-22.7"/></symbol><symbol id="aL" overflow="visible"><path fill="none" stroke="#1A344F" stroke-width="2.5" stroke-linecap="round" stroke-linejoin="round" d="M108.8 186.9v1.3q0 1.2 1 2 1 .9 2.5.9h15.5q1.5 0 2.5-.8 1.1-.9 1.1-2v-1.4"/></symbol><symbol id="aM" overflow="visible"><path fill="none" stroke="#1A344F" stroke-width="2.5" stroke-linecap="round" stroke-linejoin="round" d="M213.3 196.8h18.8"/></symbol><symbol id="aN" overflow="visible"><path fill="none" stroke="#1A344F" stroke-width="2.5" stroke-linecap="round" stroke-linejoin="round" d="M33.8 196.8h166.4"/></symbol><symbol id="aO" overflow="visible"><path fill="none" stroke="#1A344F" stroke-width="2.5" stroke-linecap="round" stroke-linejoin="round" d="M41.2 155.3l12-2.8m-12 2.8l-12 34"/></symbol><symbol id="aP" overflow="visible"><path fill="none" stroke="#1A344F" stroke-width="2.5" stroke-linecap="round" stroke-linejoin="round" d="M15.7 170.6q-2.8-3-2.6-7 0-4 2.9-6.7 2.9-2.8 7-2.7 3.9.1 6.7 3"/></symbol><symbol id="aQ" overflow="visible"><path fill="#E66C6C" stroke="#1A344F" stroke-width="2.5" stroke-linecap="round" stroke-linejoin="round" d="M24.4 172.9q.6 5-1.3 10.6-2.7 8.2 1.5 13.2 3.4 4.3 9 4.3h1.3q5.5 0 9-4.3 4.1-5 1.5-13.2-1.9-5.6-1.3-10.6H24.3"/></symbol><symbol id="aR" overflow="visible"><path fill="none" stroke="#1A344F" stroke-width="2.5" stroke-linecap="round" stroke-linejoin="round" d="M21.4 164.8l1.3 2.1q1.3 2.7 1.7 6H44q.4-3.3 1.8-6l1.2-2.1H21.3"/></symbol><symbol id="aS" overflow="visible"><path fill="none" stroke="#1A344F" stroke-width="2.5" stroke-linecap="round" stroke-linejoin="round" d="M97.7 176.8l9.9-8 9.8 8.7 11.7-15.8 9.6 9.4 6.5-15.7"/></symbol><symbol id="aT" overflow="visible"><path fill="#E5E8E3" d="M-216.1-3.4q-3.3-3.4-7.1-3-4 .4-8 4.2-2.5 2.3-6 7-3 4.1-5.4 8.9-5.7 11-9.8 24.3l-1.9 6.3q-8.8 32.8-6 75.4.9 13.9 3.1 29.5l3.5 17.8q3.1 15.3 2.7 15.6l9.2-4.4 1.3-23-1.3 23 8.4 5.4 5.7-13.8q6.8-17.9 11.8-36.5 8.3-30.8 10.6-58.9 1.3-16.5.8-29.6-.6-15.8-3.8-29.3l-1.4-6.1q-.9-3.6-2.1-5.9-1.8-4.3-4.3-6.9"/><path fill="none" stroke="#1A344F" stroke-width="2.5" stroke-linecap="round" stroke-linejoin="round" d="M-223.2-6.5q-4 .5-8 4.3-2.5 2.3-6 7-3 4.1-5.4 8.9-5.7 11-9.8 24.3l-1.9 6.3q-8.8 32.8-6 75.4.9 13.9 3.1 29.5l3.5 17.8q3.1 15.3 2.7 15.6l9.2-4.4 8.4 5.4 5.7-13.8q6.8-17.9 11.8-36.5 8.3-30.8 10.6-58.9 1.3-16.5.8-29.6-.6-15.8-3.8-29.3l-1.4-6.1q-.9-3.6-2.1-5.9-1.8-4.3-4.3-6.9-3.3-3.4-7.1-3M-241.8 178.2l1.3-23"/></symbol><symbol id="be" overflow="visible"><use xlink:href="#aw"/><use xlink:href="#ax"/><use xlink:href="#ay"/><use xlink:href="#az"/><use xlink:href="#aA"/><use xlink:href="#aB"/><use xlink:href="#aC"/><use xlink:href="#aD"/><use xlink:href="#aE"/><use xlink:href="#aF"/><use xlink:href="#aG"/><use xlink:href="#aH"/><use xlink:href="#aI"/><use xlink:href="#aJ"/><use xlink:href="#aK"/><use xlink:href="#aL"/><use xlink:href="#aM"/><use xlink:href="#aN"/><use xlink:href="#aO"/><use xlink:href="#aP"/><use xlink:href="#aQ"/><use xlink:href="#aR"/><use xlink:href="#aS"/><use xlink:href="#aT"/></symbol><symbol id="aU" overflow="visible"><path fill="#FFF" stroke-width="2.5" stroke-linecap="round" stroke-linejoin="round" d="M15.3-23.7q-1.5-1.4-3.5-1.4h-23.6q-2 0-3.4 1.4t-1.4 3.4v30.4q0 2 1.4 3.4 1.3 1.4 3.3 1.4h6.2L0 25.1 5.7 15h6.1q2 0 3.4-1.4t1.4-3.4v-30.4q0-2-1.4-3.4"/><path fill="#99C977" stroke-width="2.5" stroke-linecap="round" stroke-linejoin="round" d="M8.9-1.9L0-14.5-9-1.8H-4v8.1H4v-8.2H9"/><path fill="none" stroke="#1A344F" stroke-width="2.5" stroke-linecap="round" stroke-linejoin="round" d="M15.3-23.7q-1.5-1.4-3.5-1.4h-23.6q-2 0-3.4 1.4t-1.4 3.4v30.4q0 2 1.4 3.4 1.3 1.4 3.3 1.4h6.2L0 25.1 5.7 15h6.1q2 0 3.4-1.4t1.4-3.4v-30.4q0-2-1.4-3.4"/><path fill="none" stroke="#1A344F" stroke-width="2.5" stroke-linecap="round" stroke-linejoin="round" d="M8.9-1.9L0-14.5-9-1.8H-4v8.1H4v-8.2H9"/></symbol><symbol id="bf" overflow="visible"><use xlink:href="#aU"/></symbol></defs><g overflow="visible"><g display="none"><use xlink:href="#aV" transform="matrix(1 0 0 1 347.55 233.1)"/><use xlink:href="#aW" transform="matrix(1 0 0 1 307.4 76.85)"/><use xlink:href="#aX" transform="matrix(1 0 0 1 620.5 388.5)"/><use xlink:href="#aY" transform="matrix(1 0 0 1 484.5 187.4)"/><use xlink:href="#aZ" transform="matrix(1 0 0 1 485.65 189.55)"/><use xlink:href="#ba" transform="matrix(1 0 0 1 484.45 188.35)"/><use xlink:href="#bb" transform="matrix(1 0 0 1 138.3 159.2)"/><use xlink:href="#bc" transform="matrix(1 0 0 1 138.25 158.05)"/><use xlink:href="#bd" transform="matrix(1 0 0 1 136.85 160.6)"/><use xlink:href="#be" transform="matrix(1 0 0 1 347.55 233.1)"/><use xlink:href="#bf" transform="matrix(1 0 0 1 454.2 367.2)"/><animate attributeName="display" repeatCount="indefinite" dur="2.4s" keyTimes="0;0.979;1" values="none;inline;none"/></g><g display="none"><use xlink:href="#aV" transform="matrix(1 0 0 1 347.55 233.1)"/><use xlink:href="#aW" transform="matrix(1 0 0 1 308.2 76.85)"/><use xlink:href="#aX" transform="matrix(1 0 0 1 620.5 388.5)"/><use xlink:href="#aY" transform="matrix(1 0 0 1 484.5 187.4)"/><use xlink:href="#aZ" transform="matrix(1 0 0 1 485.65 189.55)"/><use xlink:href="#ba" transform="matrix(1 0 0 1 484.45 188.35)"/><use xlink:href="#bb" transform="matrix(1 0 0 1 138.3 159.2)"/><use xlink:href="#bc" transform="matrix(1 0 0 1 138.25 158.05)"/><use xlink:href="#bd" transform="matrix(1 0 0 1 136.85 160.6)"/><use xlink:href="#be" transform="matrix(1 0 0 1 347.55 233.1)"/><use xlink:href="#bf" transform="matrix(1 0 0 1 454.2 366.1)"/><animate attributeName="display" repeatCount="indefinite" dur="2.4s" keyTimes="0;0.958;0.979;1" values="none;inline;none;none"/></g><g display="none"><use xlink:href="#aV" transform="matrix(1 0 0 1 347.55 233.1)"/><use xlink:href="#aW" transform="matrix(1 0 0 1 309 76.8)"/><use xlink:href="#aX" transform="matrix(1 0 0 1 620.5 388.5)"/><use xlink:href="#aY" transform="matrix(1 0 0 1 484.5 187.4)"/><use xlink:href="#aZ" transform="matrix(1 0 0 1 485.65 189.55)"/><use xlink:href="#ba" transform="matrix(1 0 0 1 484.45 188.35)"/><use xlink:href="#bb" transform="matrix(1 0 0 1 138.3 159.2)"/><use xlink:href="#bc" transform="matrix(1 0 0 1 138.25 158.05)"/><use xlink:href="#bd" transform="matrix(1 0 0 1 136.85 160.6)"/><use xlink:href="#be" transform="matrix(1 0 0 1 347.55 233.1)"/><use xlink:href="#bf" transform="matrix(1 0 0 1 454.2 364.95)"/><animate attributeName="display" repeatCount="indefinite" dur="2.4s" keyTimes="0;0.938;0.958;1" values="none;inline;none;none"/></g><g display="none"><use xlink:href="#aV" transform="matrix(1 0 0 1 347.55 233.1)"/><use xlink:href="#aW" transform="matrix(1 0 0 1 309.8 76.8)"/><use xlink:href="#aX" transform="matrix(1 0 0 1 620.5 388.5)"/><use xlink:href="#aY" transform="matrix(1 0 0 1 484.5 187.4)"/><use xlink:href="#aZ" transform="matrix(1 0 0 1 485.65 189.55)"/><use xlink:href="#ba" transform="matrix(1 0 0 1 484.45 188.35)"/><use xlink:href="#bb" transform="matrix(1 0 0 1 138.3 159.2)"/><use xlink:href="#bc" transform="matrix(1 0 0 1 138.25 158.05)"/><use xlink:href="#bd" transform="matrix(1 0 0 1 136.85 160.6)"/><use xlink:href="#be" transform="matrix(1 0 0 1 347.55 233.1)"/><use xlink:href="#bf" transform="matrix(1 0 0 1 454.2 363.85)"/><animate attributeName="display" repeatCount="indefinite" dur="2.4s" keyTimes="0;0.917;0.938;1" values="none;inline;none;none"/></g><g display="none"><use xlink:href="#aV" transform="matrix(1 0 0 1 347.55 233.1)"/><use xlink:href="#aW" transform="matrix(1 0 0 1 310.6 76.75)"/><use xlink:href="#aX" transform="matrix(1 0 0 1 620.5 388.5)"/><use xlink:href="#aY" transform="matrix(1 0.001 -0.001 1 484.5 187.4)"/><use xlink:href="#aZ" transform="matrix(1 0.001 -0.001 1 485.65 189.55)"/><use xlink:href="#ba" transform="matrix(1 -0.001 0.001 1 484.55 188.3)"/><use xlink:href="#bb" transform="matrix(1 0 0 1 138.25 159.25)"/><use xlink:href="#bc" transform="matrix(1 -0.001 0.001 1 138.2 158)"/><use xlink:href="#bd" transform="matrix(1 -0.001 0.001 1 136.9 160.7)"/><use xlink:href="#be" transform="matrix(1 0 0 1 347.55 233.1)"/><use xlink:href="#bf" transform="matrix(1 0 0 1 454.2 362.75)"/><animate attributeName="display" repeatCount="indefinite" dur="2.4s" keyTimes="0;0.896;0.917;1" values="none;inline;none;none"/></g><g display="none"><use xlink:href="#aV" transform="matrix(1 0 0 1 347.55 233.1)"/><use xlink:href="#aW" transform="matrix(1 0 0 1 311.4 76.75)"/><use xlink:href="#aX" transform="matrix(1 0 0 1 620.5 388.5)"/><use xlink:href="#aY" transform="matrix(1 0.005 -0.005 1 484.5 187.4)"/><use xlink:href="#aZ" transform="matrix(1 0.005 -0.005 1 485.65 189.55)"/><use xlink:href="#ba" transform="matrix(1 -0.005 0.005 1 484.5 188.25)"/><use xlink:href="#bb" transform="matrix(1 0.001 -0.001 1 138.25 159.25)"/><use xlink:href="#bc" transform="matrix(1 -0.005 0.005 1 138.15 158.05)"/><use xlink:href="#bd" transform="matrix(1 -0.005 0.005 1 137 160.65)"/><use xlink:href="#be" transform="matrix(1 0 0 1 347.55 233.1)"/><use xlink:href="#bf" transform="matrix(1 0 0 1 454.2 361.6)"/><animate attributeName="display" repeatCount="indefinite" dur="2.4s" keyTimes="0;0.875;0.896;1" values="none;inline;none;none"/></g><g display="none"><use xlink:href="#aV" transform="matrix(1 0 0 1 347.55 233.1)"/><use xlink:href="#aW" transform="matrix(1 0 0 1 312.2 76.7)"/><use xlink:href="#aX" transform="matrix(1 0 0 1 620.5 388.5)"/><use xlink:href="#aY" transform="matrix(1 0.005 -0.005 1 484.5 187.4)"/><use xlink:href="#aZ" transform="matrix(1 0.005 -0.005 1 485.65 189.6)"/><use xlink:href="#ba" transform="matrix(1 -0.009 0.009 1 484.5 188.3)"/><use xlink:href="#bb" transform="matrix(1 0.005 -0.005 1 138.3 159.25)"/><use xlink:href="#bc" transform="matrix(1 -0.005 0.005 1 138.15 158.05)"/><use xlink:href="#bd" transform="matrix(1 -0.009 0.009 1 136.95 160.7)"/><use xlink:href="#be" transform="matrix(1 0 0 1 347.55 233.1)"/><use xlink:href="#bf" transform="matrix(1 0 0 1 454.2 360.5)"/><animate attributeName="display" repeatCount="indefinite" dur="2.4s" keyTimes="0;0.854;0.875;1" values="none;inline;none;none"/></g><g display="none"><use xlink:href="#aV" transform="matrix(1 0 0 1 347.55 233.1)"/><use xlink:href="#aW" transform="matrix(1 0 0 1 313 76.7)"/><use xlink:href="#aX" transform="matrix(1 0 0 1 620.5 388.5)"/><use xlink:href="#aY" transform="matrix(1 0.009 -0.009 1 484.5 187.4)"/><use xlink:href="#aZ" transform="matrix(1 0.009 -0.009 1 485.65 189.55)"/><use xlink:href="#ba" transform="matrix(1 -0.013 0.013 1 484.5 188.25)"/><use xlink:href="#bb" transform="matrix(1 0.005 -0.005 1 138.3 159.25)"/><use xlink:href="#bc" transform="matrix(1 -0.009 0.009 1 138.15 158.1)"/><use xlink:href="#bd" transform="matrix(1 -0.013 0.013 1 136.95 160.7)"/><use xlink:href="#be" transform="matrix(1 0 0 1 347.55 233.1)"/><use xlink:href="#bf" transform="matrix(1 0 0 1 454.2 361.85)"/><animate attributeName="display" repeatCount="indefinite" dur="2.4s" keyTimes="0;0.833;0.854;1" values="none;inline;none;none"/></g><g display="none"><use xlink:href="#aV" transform="matrix(1 0 0 1 347.55 233.1)"/><use xlink:href="#aW" transform="matrix(1 0 0 1 313.8 76.65)"/><use xlink:href="#aX" transform="matrix(1 0 0 1 620.5 388.5)"/><use xlink:href="#aY" transform="matrix(1 0.013 -0.013 1 484.5 187.4)"/><use xlink:href="#aZ" transform="matrix(1 0.013 -0.013 1 485.6 189.55)"/><use xlink:href="#ba" transform="matrix(1 -0.018 0.018 1 484.55 188.25)"/><use xlink:href="#bb" transform="matrix(1 0.009 -0.009 1 138.3 159.25)"/><use xlink:href="#bc" transform="matrix(1 -0.013 0.013 1 138.15 158.05)"/><use xlink:href="#bd" transform="matrix(1 -0.014 0.014 1 136.9 160.65)"/><use xlink:href="#be" transform="matrix(1 0 0 1 347.55 233.1)"/><use xlink:href="#bf" transform="matrix(1 0 0 1 454.2 363.2)"/><animate attributeName="display" repeatCount="indefinite" dur="2.4s" keyTimes="0;0.813;0.833;1" values="none;inline;none;none"/></g><g display="none"><use xlink:href="#aV" transform="matrix(1 0 0 1 347.55 233.1)"/><use xlink:href="#aW" transform="matrix(1 0 0 1 314.6 76.6)"/><use xlink:href="#aX" transform="matrix(1 0 0 1 620.5 388.5)"/><use xlink:href="#aY" transform="matrix(1 0.014 -0.014 1 484.5 187.4)"/><use xlink:href="#aZ" transform="matrix(1 0.014 -0.014 1 485.65 189.55)"/><use xlink:href="#ba" transform="matrix(1 -0.018 0.018 1 484.5 188.3)"/><use xlink:href="#bb" transform="matrix(1 0.009 -0.009 1 138.3 159.25)"/><use xlink:href="#bc" transform="matrix(1 -0.014 0.014 1 138.15 158.05)"/><use xlink:href="#bd" transform="matrix(1 -0.018 0.018 1 136.95 160.75)"/><use xlink:href="#be" transform="matrix(1 0 0 1 347.55 233.1)"/><use xlink:href="#bf" transform="matrix(1 0 0 1 454.2 364.5)"/><animate attributeName="display" repeatCount="indefinite" dur="2.4s" keyTimes="0;0.792;0.813;1" values="none;inline;none;none"/></g><g display="none"><use xlink:href="#aV" transform="matrix(1 0 0 1 347.55 233.1)"/><use xlink:href="#aW" transform="matrix(1 0 0 1 315.4 76.6)"/><use xlink:href="#aX" transform="matrix(1 0 0 1 620.5 388.5)"/><use xlink:href="#aY" transform="matrix(1 0.018 -0.018 1 484.55 187.45)"/><use xlink:href="#aZ" transform="matrix(1 0.018 -0.018 1 485.65 189.6)"/><use xlink:href="#ba" transform="matrix(1 -0.023 0.023 1 484.55 188.25)"/><use xlink:href="#bb" transform="matrix(1 0.013 -0.013 1 138.25 159.2)"/><use xlink:href="#bc" transform="matrix(1 -0.018 0.018 1 138.2 158.1)"/><use xlink:href="#bd" transform="matrix(1 -0.022 0.022 1 137 160.65)"/><use xlink:href="#be" transform="matrix(1 0 0 1 347.55 233.1)"/><use xlink:href="#bf" transform="matrix(1 0 0 1 454.2 365.85)"/><animate attributeName="display" repeatCount="indefinite" dur="2.4s" keyTimes="0;0.771;0.792;1" values="none;inline;none;none"/></g><g display="none"><use xlink:href="#aV" transform="matrix(1 0 0 1 347.55 233.1)"/><use xlink:href="#aW" transform="matrix(1 0 0 1 316.2 76.55)"/><use xlink:href="#aX" transform="matrix(1 0 0 1 620.5 388.5)"/><use xlink:href="#aY" transform="matrix(1 0.018 -0.018 1 484.55 187.45)"/><use xlink:href="#aZ" transform="matrix(1 0.022 -0.022 1 485.65 189.6)"/><use xlink:href="#ba" transform="matrix(1 -0.027 0.027 1 484.5 188.3)"/><use xlink:href="#bb" transform="matrix(1 0.014 -0.014 1 138.25 159.2)"/><use xlink:href="#bc" transform="matrix(1 -0.018 0.018 1 138.2 158.1)"/><use xlink:href="#bd" transform="matrix(1 -0.026 0.026 1 137 160.65)"/><use xlink:href="#be" transform="matrix(1 0 0 1 347.55 233.1)"/><use xlink:href="#bf" transform="matrix(1 0 0 1 454.2 367.2)"/><animate attributeName="display" repeatCount="indefinite" dur="2.4s" keyTimes="0;0.75;0.771;1" values="none;inline;none;none"/></g><g display="none"><use xlink:href="#aV" transform="matrix(1 0 0 1 347.55 233.1)"/><use xlink:href="#aW" transform="matrix(1 0 0 1 317 76.55)"/><use xlink:href="#aX" transform="matrix(1 0 0 1 620.5 388.5)"/><use xlink:href="#aY" transform="matrix(1 0.022 -0.022 1 484.55 187.4)"/><use xlink:href="#aZ" transform="matrix(1 0.023 -0.023 1 485.65 189.6)"/><use xlink:href="#ba" transform="matrix(0.999 -0.031 0.031 0.999 484.5 188.3)"/><use xlink:href="#bb" transform="matrix(1 0.014 -0.014 1 138.3 159.2)"/><use xlink:href="#bc" transform="matrix(1 -0.022 0.022 1 138.2 158.05)"/><use xlink:href="#bd" transform="matrix(0.999 -0.031 0.031 0.999 137.05 160.75)"/><use xlink:href="#be" transform="matrix(1 0 0 1 347.55 233.1)"/><use xlink:href="#bf" transform="matrix(1 0 0 1 454.2 367.2)"/><animate attributeName="display" repeatCount="indefinite" dur="2.4s" keyTimes="0;0.729;0.75;1" values="none;inline;none;none"/></g><g display="none"><use xlink:href="#aV" transform="matrix(1 0 0 1 347.55 233.1)"/><use xlink:href="#aW" transform="matrix(1 0 0 1 317.8 76.5)"/><use xlink:href="#aX" transform="matrix(1 0 0 1 620.5 388.5)"/><use xlink:href="#aY" transform="matrix(1 0.026 -0.026 1 484.5 187.4)"/><use xlink:href="#aZ" transform="matrix(1 0.027 -0.027 1 485.65 189.6)"/><use xlink:href="#ba" transform="matrix(0.999 -0.035 0.035 0.999 484.45 188.25)"/><use xlink:href="#bb" transform="matrix(1 0.018 -0.018 1 138.25 159.25)"/><use xlink:href="#bc" transform="matrix(1 -0.026 0.026 1 138.15 158.05)"/><use xlink:href="#bd" transform="matrix(0.999 -0.031 0.031 0.999 137 160.65)"/><use xlink:href="#be" transform="matrix(1 0 0 1 347.55 233.1)"/><use xlink:href="#bf" transform="matrix(1 0 0 1 454.2 367.2)"/><animate attributeName="display" repeatCount="indefinite" dur="2.4s" keyTimes="0;0.708;0.729;1" values="none;inline;none;none"/></g><g display="none"><use xlink:href="#aV" transform="matrix(1 0 0 1 347.55 233.1)"/><use xlink:href="#aW" transform="matrix(1 0 0 1 318.6 76.5)"/><use xlink:href="#aX" transform="matrix(1 0 0 1 620.5 388.5)"/><use xlink:href="#aY" transform="matrix(1 0.027 -0.027 1 484.5 187.4)"/><use xlink:href="#aZ" transform="matrix(0.999 0.031 -0.031 0.999 485.65 189.55)"/><use xlink:href="#ba" transform="matrix(0.999 -0.036 0.036 0.999 484.5 188.3)"/><use xlink:href="#bb" transform="matrix(1 0.018 -0.018 1 138.25 159.25)"/><use xlink:href="#bc" transform="matrix(1 -0.027 0.027 1 138.15 158.05)"/><use xlink:href="#bd" transform="matrix(0.999 -0.036 0.036 0.999 137 160.75)"/><use xlink:href="#be" transform="matrix(1 0 0 1 347.55 233.1)"/><use xlink:href="#bf" transform="matrix(1 0 0 1 454.2 367.2)"/><animate attributeName="display" repeatCount="indefinite" dur="2.4s" keyTimes="0;0.688;0.708;1" values="none;inline;none;none"/></g><g display="none"><use xlink:href="#aV" transform="matrix(1 0 0 1 347.55 233.1)"/><use xlink:href="#aW" transform="matrix(1 0 0 1 319.4 76.45)"/><use xlink:href="#aX" transform="matrix(1 0 0 1 620.5 388.5)"/><use xlink:href="#aY" transform="matrix(0.999 0.031 -0.031 0.999 484.55 187.4)"/><use xlink:href="#aZ" transform="matrix(0.999 0.031 -0.031 0.999 485.65 189.55)"/><use xlink:href="#ba" transform="matrix(0.999 -0.04 0.04 0.999 484.5 188.2)"/><use xlink:href="#bb" transform="matrix(1 0.022 -0.022 1 138.35 159.25)"/><use xlink:href="#bc" transform="matrix(0.999 -0.031 0.031 0.999 138.15 158.1)"/><use xlink:href="#bd" transform="matrix(0.999 -0.04 0.04 0.999 137 160.7)"/><use xlink:href="#be" transform="matrix(1 0 0 1 347.55 233.1)"/><use xlink:href="#bf" transform="matrix(1 0 0 1 454.2 367.2)"/><animate attributeName="display" repeatCount="indefinite" dur="2.4s" keyTimes="0;0.667;0.688;1" values="none;inline;none;none"/></g><g display="none"><use xlink:href="#aV" transform="matrix(1 0 0 1 347.55 233.1)"/><use xlink:href="#aW" transform="matrix(1 0 0 1 320.2 76.45)"/><use xlink:href="#aX" transform="matrix(1 0 0 1 620.5 388.5)"/><use xlink:href="#aY" transform="matrix(0.999 0.032 -0.032 0.999 484.55 187.4)"/><use xlink:href="#aZ" transform="matrix(0.999 0.035 -0.035 0.999 485.65 189.55)"/><use xlink:href="#ba" transform="matrix(0.999 -0.044 0.044 0.999 484.5 188.25)"/><use xlink:href="#bb" transform="matrix(1 0.023 -0.023 1 138.3 159.25)"/><use xlink:href="#bc" transform="matrix(0.999 -0.032 0.032 0.999 138.2 158.15)"/><use xlink:href="#bd" transform="matrix(0.999 -0.044 0.044 0.999 137.05 160.65)"/><use xlink:href="#be" transform="matrix(1 0 0 1 347.55 233.1)"/><use xlink:href="#bf" transform="matrix(1 0 0 1 454.2 367.2)"/><animate attributeName="display" repeatCount="indefinite" dur="2.4s" keyTimes="0;0.646;0.667;1" values="none;inline;none;none"/></g><g display="none"><use xlink:href="#aV" transform="matrix(1 0 0 1 347.55 233.1)"/><use xlink:href="#aW" transform="matrix(1 0 0 1 321 76.4)"/><use xlink:href="#aX" transform="matrix(1 0 0 1 620.5 388.5)"/><use xlink:href="#aY" transform="matrix(0.999 0.036 -0.036 0.999 484.55 187.4)"/><use xlink:href="#aZ" transform="matrix(0.999 0.039 -0.039 0.999 485.6 189.6)"/><use xlink:href="#ba" transform="matrix(0.999 -0.048 0.048 0.999 484.45 188.3)"/><use xlink:href="#bb" transform="matrix(1 0.026 -0.026 1 138.3 159.2)"/><use xlink:href="#bc" transform="matrix(0.999 -0.036 0.036 0.999 138.15 158.15)"/><use xlink:href="#bd" transform="matrix(0.999 -0.045 0.045 0.999 137.05 160.7)"/><use xlink:href="#be" transform="matrix(1 0 0 1 347.55 233.1)"/><use xlink:href="#bf" transform="matrix(1 0 0 1 454.2 367.2)"/><animate attributeName="display" repeatCount="indefinite" dur="2.4s" keyTimes="0;0.625;0.646;1" values="none;inline;none;none"/></g><g display="none"><use xlink:href="#aV" transform="matrix(1 0 0 1 347.55 233.1)"/><use xlink:href="#aW" transform="matrix(1 0 0 1 321.8 76.35)"/><use xlink:href="#aX" transform="matrix(1 0 0 1 620.5 388.5)"/><use xlink:href="#aY" transform="matrix(0.999 0.039 -0.039 0.999 484.55 187.45)"/><use xlink:href="#aZ" transform="matrix(0.999 0.04 -0.04 0.999 485.6 189.6)"/><use xlink:href="#ba" transform="matrix(0.998 -0.053 0.053 0.998 484.5 188.2)"/><use xlink:href="#bb" transform="matrix(1 0.027 -0.027 1 138.25 159.2)"/><use xlink:href="#bc" transform="matrix(0.999 -0.039 0.039 0.999 138.15 158.1)"/><use xlink:href="#bd" transform="matrix(0.999 -0.049 0.049 0.999 137.1 160.65)"/><use xlink:href="#be" transform="matrix(1 0 0 1 347.55 233.1)"/><use xlink:href="#bf" transform="matrix(1 0 0 1 454.2 367.2)"/><animate attributeName="display" repeatCount="indefinite" dur="2.4s" keyTimes="0;0.604;0.625;1" values="none;inline;none;none"/></g><g display="none"><use xlink:href="#aV" transform="matrix(1 0 0 1 347.55 233.1)"/><use xlink:href="#aW" transform="matrix(1 0 0 1 322.6 76.35)"/><use xlink:href="#aX" transform="matrix(1.03 0 0 0.975 620.4 388.5)"/><use xlink:href="#aY" transform="matrix(0.999 0.04 -0.04 0.999 484.6 187.45)"/><use xlink:href="#aZ" transform="matrix(0.999 0.044 -0.044 0.999 485.65 189.6)"/><use xlink:href="#ba" transform="matrix(0.998 -0.057 0.057 0.998 484.5 188.25)"/><use xlink:href="#bb" transform="matrix(0.999 0.031 -0.031 0.999 138.3 159.25)"/><use xlink:href="#bc" transform="matrix(0.999 -0.04 0.04 0.999 138.15 158.05)"/><use xlink:href="#bd" transform="matrix(0.998 -0.053 0.053 0.998 137.1 160.7)"/><use xlink:href="#be" transform="matrix(1 0 0 1 347.55 233.1)"/><use xlink:href="#bf" transform="matrix(1 0 0 1 454.2 367.2)"/><animate attributeName="display" repeatCount="indefinite" dur="2.4s" keyTimes="0;0.583;0.604;1" values="none;inline;none;none"/></g><g display="none"><use xlink:href="#aV" transform="matrix(1 0 0 1 347.55 233.1)"/><use xlink:href="#aW" transform="matrix(1 0 0 1 323.4 76.3)"/><use xlink:href="#aX" transform="matrix(1.06 0 0 0.95 620.35 388.4)"/><use xlink:href="#aY" transform="matrix(0.999 0.044 -0.044 0.999 484.55 187.45)"/><use xlink:href="#aZ" transform="matrix(0.999 0.045 -0.045 0.999 485.65 189.6)"/><use xlink:href="#ba" transform="matrix(0.998 -0.058 0.058 0.998 484.5 188.25)"/><use xlink:href="#bb" transform="matrix(0.999 0.031 -0.031 0.999 138.3 159.25)"/><use xlink:href="#bc" transform="matrix(0.999 -0.044 0.044 0.999 138.1 158.1)"/><use xlink:href="#bd" transform="matrix(0.998 -0.057 0.057 0.998 137.05 160.75)"/><use xlink:href="#be" transform="matrix(1 0 0 1 347.55 233.1)"/><use xlink:href="#bf" transform="matrix(1 0 0 1 454.2 367.2)"/><animate attributeName="display" repeatCount="indefinite" dur="2.4s" keyTimes="0;0.563;0.583;1" values="none;inline;none;none"/></g><g display="none"><use xlink:href="#aV" transform="matrix(1 0 0 1 347.55 233.1)"/><use xlink:href="#aW" transform="matrix(1 0 0 1 324.2 76.3)"/><use xlink:href="#aX" transform="matrix(1.03 0 0 0.975 620.45 388.45)"/><use xlink:href="#aY" transform="matrix(0.999 0.048 -0.048 0.999 484.5 187.5)"/><use xlink:href="#aZ" transform="matrix(0.999 0.049 -0.049 0.999 485.65 189.65)"/><use xlink:href="#ba" transform="matrix(0.998 -0.062 0.062 0.998 484.45 188.25)"/><use xlink:href="#bb" transform="matrix(0.999 0.032 -0.032 0.999 138.25 159.25)"/><use xlink:href="#bc" transform="matrix(0.999 -0.048 0.048 0.999 138.15 158.1)"/><use xlink:href="#bd" transform="matrix(0.998 -0.061 0.061 0.998 137.1 160.7)"/><use xlink:href="#be" transform="matrix(1 0 0 1 347.55 233.1)"/><use xlink:href="#bf" transform="matrix(1 0 0 1 454.2 367.2)"/><animate attributeName="display" repeatCount="indefinite" dur="2.4s" keyTimes="0;0.542;0.563;1" values="none;inline;none;none"/></g><g display="none"><use xlink:href="#aV" transform="matrix(1 0 0 1 347.55 233.1)"/><use xlink:href="#aW" transform="matrix(1 0 0 1 325 76.25)"/><use xlink:href="#aX" transform="matrix(1 0 0 1 620.5 388.5)"/><use xlink:href="#aY" transform="matrix(0.999 0.049 -0.049 0.999 484.6 187.5)"/><use xlink:href="#aZ" transform="matrix(0.998 0.053 -0.053 0.998 485.6 189.6)"/><use xlink:href="#ba" transform="matrix(0.998 -0.066 0.066 0.998 484.55 188.3)"/><use xlink:href="#bb" transform="matrix(0.999 0.035 -0.035 0.999 138.3 159.2)"/><use xlink:href="#bc" transform="matrix(0.999 -0.049 0.049 0.999 138.15 158.15)"/><use xlink:href="#bd" transform="matrix(0.998 -0.062 0.062 0.998 137.1 160.7)"/><use xlink:href="#be" transform="matrix(1 0 0 1 347.55 233.1)"/><use xlink:href="#bf" transform="matrix(1 0 0 1 454.2 367.2)"/><animate attributeName="display" repeatCount="indefinite" dur="2.4s" keyTimes="0;0.521;0.542;1" values="none;inline;none;none"/></g><g display="none"><use xlink:href="#aV" transform="matrix(1 0 0 1 347.55 233.1)"/><use xlink:href="#aW" transform="matrix(1 0 0 1 325.8 76.25)"/><use xlink:href="#aX" transform="matrix(1 0 0 1 620.5 367.5)"/><use xlink:href="#aY" transform="matrix(0.998 0.053 -0.053 0.998 484.55 187.4)"/><use xlink:href="#aZ" transform="matrix(0.998 0.053 -0.053 0.998 485.6 189.55)"/><use xlink:href="#ba" transform="matrix(0.997 -0.07 0.07 0.997 484.5 188.25)"/><use xlink:href="#bb" transform="matrix(0.999 0.036 -0.036 0.999 138.3 159.2)"/><use xlink:href="#bc" transform="matrix(0.998 -0.053 0.053 0.998 138.1 158.15)"/><use xlink:href="#bd" transform="matrix(0.998 -0.066 0.066 0.998 137.1 160.7)"/><use xlink:href="#be" transform="matrix(1 0 0 1 347.55 233.1)"/><use xlink:href="#bf" transform="matrix(1 0 0 1 454.2 367.2)"/><animate attributeName="display" repeatCount="indefinite" dur="2.4s" keyTimes="0;0.5;0.521;1" values="none;inline;none;none"/></g><g display="none"><use xlink:href="#aV" transform="matrix(1 0 0 1 347.55 233.1)"/><use xlink:href="#aW" transform="matrix(1 0 0 1 326.6 76.2)"/><use xlink:href="#aX" transform="matrix(1 0 0 1 620.5 346.55)"/><use xlink:href="#aY" transform="matrix(0.998 0.053 -0.053 0.998 484.6 187.4)"/><use xlink:href="#aZ" transform="matrix(0.998 0.057 -0.057 0.998 485.65 189.55)"/><use xlink:href="#ba" transform="matrix(0.997 -0.074 0.074 0.997 484.45 188.25)"/><use xlink:href="#bb" transform="matrix(0.999 0.04 -0.04 0.999 138.3 159.2)"/><use xlink:href="#bc" transform="matrix(0.998 -0.053 0.053 0.998 138.1 158.1)"/><use xlink:href="#bd" transform="matrix(0.997 -0.07 0.07 0.997 137.15 160.7)"/><use xlink:href="#be" transform="matrix(1 0 0 1 347.55 233.1)"/><use xlink:href="#bf" transform="matrix(1 0 0 1 454.2 367.2)"/><animate attributeName="display" repeatCount="indefinite" dur="2.4s" keyTimes="0;0.479;0.5;1" values="none;inline;none;none"/></g><g display="none"><use xlink:href="#aV" transform="matrix(1 0 0 1 347.55 233.1)"/><use xlink:href="#aW" transform="matrix(1 0 0 1 325.75 76.25)"/><use xlink:href="#aX" transform="matrix(1 0 0 1 620.5 325.55)"/><use xlink:href="#aY" transform="matrix(0.998 0.057 -0.057 0.998 484.55 187.45)"/><use xlink:href="#aZ" transform="matrix(0.998 0.061 -0.061 0.998 485.65 189.6)"/><use xlink:href="#ba" transform="matrix(0.997 -0.075 0.075 0.997 484.45 188.25)"/><use xlink:href="#bb" transform="matrix(0.999 0.04 -0.04 0.999 138.3 159.2)"/><use xlink:href="#bc" transform="matrix(0.998 -0.057 0.057 0.998 138.1 158.15)"/><use xlink:href="#bd" transform="matrix(0.997 -0.074 0.074 0.997 137.15 160.75)"/><use xlink:href="#be" transform="matrix(1 0 0 1 347.55 233.1)"/><use xlink:href="#bf" transform="matrix(1 0 0 1 454.2 367.2)"/><animate attributeName="display" repeatCount="indefinite" dur="2.4s" keyTimes="0;0.458;0.479;1" values="none;inline;none;none"/></g><g display="none"><use xlink:href="#aV" transform="matrix(1 0 0 1 347.55 233.1)"/><use xlink:href="#aW" transform="matrix(1 0 0 1 324.85 76.25)"/><use xlink:href="#aX" transform="matrix(1 0 0 1 620.5 304.6)"/><use xlink:href="#aY" transform="matrix(0.998 0.061 -0.061 0.998 484.55 187.45)"/><use xlink:href="#aZ" transform="matrix(0.998 0.062 -0.062 0.998 485.65 189.6)"/><use xlink:href="#ba" transform="matrix(0.997 -0.079 0.079 0.997 484.5 188.2)"/><use xlink:href="#bb" transform="matrix(0.999 0.044 -0.044 0.999 138.3 159.25)"/><use xlink:href="#bc" transform="matrix(0.998 -0.061 0.061 0.998 138.15 158.1)"/><use xlink:href="#bd" transform="matrix(0.997 -0.075 0.075 0.997 137.15 160.7)"/><use xlink:href="#be" transform="matrix(1 0 0 1 347.55 233.1)"/><use xlink:href="#bf" transform="matrix(1 0 0 1 454.2 367.2)"/><animate attributeName="display" repeatCount="indefinite" dur="2.4s" keyTimes="0;0.438;0.458;1" values="none;inline;none;none"/></g><g display="none"><use xlink:href="#aV" transform="matrix(1 0 0 1 347.55 233.1)"/><use xlink:href="#aW" transform="matrix(1 0 0 1 324 76.3)"/><use xlink:href="#aX" transform="matrix(1 0 0 1 620.5 283.6)"/><use xlink:href="#aY" transform="matrix(0.998 0.062 -0.062 0.998 484.6 187.45)"/><use xlink:href="#aZ" transform="matrix(0.998 0.066 -0.066 0.998 485.6 189.55)"/><use xlink:href="#ba" transform="matrix(0.996 -0.084 0.084 0.996 484.5 188.2)"/><use xlink:href="#bb" transform="matrix(0.999 0.044 -0.044 0.999 138.3 159.25)"/><use xlink:href="#bc" transform="matrix(0.998 -0.062 0.062 0.998 138.15 158.15)"/><use xlink:href="#bd" transform="matrix(0.997 -0.079 0.079 0.997 137.15 160.75)"/><use xlink:href="#be" transform="matrix(1 0 0 1 347.55 233.1)"/><use xlink:href="#bf" transform="matrix(1 0 0 1 454.2 367.2)"/><animate attributeName="display" repeatCount="indefinite" dur="2.4s" keyTimes="0;0.417;0.438;1" values="none;inline;none;none"/></g><g display="none"><use xlink:href="#aV" transform="matrix(1 0 0 1 347.55 233.1)"/><use xlink:href="#aW" transform="matrix(1 0 0 1 323.1 76.3)"/><use xlink:href="#aX" transform="matrix(1 0 0 1 620.5 304.6)"/><use xlink:href="#aY" transform="matrix(0.998 0.066 -0.066 0.998 484.55 187.4)"/><use xlink:href="#aZ" transform="matrix(0.997 0.07 -0.07 0.997 485.6 189.6)"/><use xlink:href="#ba" transform="matrix(0.996 -0.088 0.088 0.996 484.5 188.25)"/><use xlink:href="#bb" transform="matrix(0.999 0.045 -0.045 0.999 138.3 159.25)"/><use xlink:href="#bc" transform="matrix(0.998 -0.066 0.066 0.998 138.1 158.15)"/><use xlink:href="#bd" transform="matrix(0.996 -0.083 0.083 0.996 137.2 160.75)"/><use xlink:href="#be" transform="matrix(1 0 0 1 347.55 233.1)"/><use xlink:href="#bf" transform="matrix(1 0 0 1 454.2 367.2)"/><animate attributeName="display" repeatCount="indefinite" dur="2.4s" keyTimes="0;0.396;0.417;1" values="none;inline;none;none"/></g><g display="none"><use xlink:href="#aV" transform="matrix(1 0 0 1 347.55 233.1)"/><use xlink:href="#aW" transform="matrix(1 0 0 1 322.25 76.35)"/><use xlink:href="#aX" transform="matrix(1 0 0 1 620.5 325.55)"/><use xlink:href="#aY" transform="matrix(0.998 0.066 -0.066 0.998 484.55 187.4)"/><use xlink:href="#aZ" transform="matrix(0.997 0.071 -0.071 0.997 485.6 189.55)"/><use xlink:href="#ba" transform="matrix(0.995 -0.092 0.092 0.995 484.45 188.2)"/><use xlink:href="#bb" transform="matrix(0.999 0.048 -0.048 0.999 138.3 159.2)"/><use xlink:href="#bc" transform="matrix(0.998 -0.066 0.066 0.998 138.1 158.15)"/><use xlink:href="#bd" transform="matrix(0.996 -0.087 0.087 0.996 137.15 160.65)"/><use xlink:href="#be" transform="matrix(1 0 0 1 347.55 233.1)"/><use xlink:href="#bf" transform="matrix(1 0 0 1 454.2 367.2)"/><animate attributeName="display" repeatCount="indefinite" dur="2.4s" keyTimes="0;0.375;0.396;1" values="none;inline;none;none"/></g><g display="none"><use xlink:href="#aV" transform="matrix(1 0 0 1 347.55 233.1)"/><use xlink:href="#aW" transform="matrix(1 0 0 1 321.4 76.4)"/><use xlink:href="#aX" transform="matrix(1 0 0 1 620.5 346.55)"/><use xlink:href="#aY" transform="matrix(0.997 0.07 -0.07 0.997 484.55 187.45)"/><use xlink:href="#aZ" transform="matrix(0.997 0.075 -0.075 0.997 485.6 189.55)"/><use xlink:href="#ba" transform="matrix(0.995 -0.096 0.096 0.995 484.5 188.2)"/><use xlink:href="#bb" transform="matrix(0.999 0.049 -0.049 0.999 138.3 159.2)"/><use xlink:href="#bc" transform="matrix(0.997 -0.07 0.07 0.997 138.1 158.1)"/><use xlink:href="#bd" transform="matrix(0.995 -0.092 0.092 0.995 137.2 160.7)"/><use xlink:href="#be" transform="matrix(1 0 0 1 347.55 233.1)"/><use xlink:href="#bf" transform="matrix(1 0 0 1 454.2 367.2)"/><animate attributeName="display" repeatCount="indefinite" dur="2.4s" keyTimes="0;0.354;0.375;1" values="none;inline;none;none"/></g><g display="none"><use xlink:href="#aV" transform="matrix(1 0 0 1 347.55 233.1)"/><use xlink:href="#aW" transform="matrix(1 0 0 1 320.5 76.4)"/><use xlink:href="#aX" transform="matrix(1 0 0 1 620.5 367.5)"/><use xlink:href="#aY" transform="matrix(0.997 0.074 -0.074 0.997 484.6 187.45)"/><use xlink:href="#aZ" transform="matrix(0.997 0.079 -0.079 0.997 485.6 189.55)"/><use xlink:href="#ba" transform="matrix(0.995 -0.097 0.097 0.995 484.45 188.2)"/><use xlink:href="#bb" transform="matrix(0.998 0.053 -0.053 0.998 138.3 159.2)"/><use xlink:href="#bc" transform="matrix(0.997 -0.074 0.074 0.997 138.1 158.15)"/><use xlink:href="#bd" transform="matrix(0.995 -0.092 0.092 0.995 137.2 160.65)"/><use xlink:href="#be" transform="matrix(1 0 0 1 347.55 233.1)"/><use xlink:href="#bf" transform="matrix(1 0 0 1 454.2 367.2)"/><animate attributeName="display" repeatCount="indefinite" dur="2.4s" keyTimes="0;0.333;0.354;1" values="none;inline;none;none"/></g><g display="none"><use xlink:href="#aV" transform="matrix(1 0 0 1 347.55 233.1)"/><use xlink:href="#aW" transform="matrix(1 0 0 1 319.65 76.45)"/><use xlink:href="#aX" transform="matrix(1 0 0 1 620.5 388.5)"/><use xlink:href="#aY" transform="matrix(0.997 0.078 -0.078 0.997 484.6 187.5)"/><use xlink:href="#aZ" transform="matrix(0.997 0.082 -0.082 0.997 485.65 189.6)"/><use xlink:href="#ba" transform="matrix(0.995 -0.103 0.103 0.995 484.45 188.25)"/><use xlink:href="#bb" transform="matrix(0.998 0.056 -0.056 0.998 138.35 159.25)"/><use xlink:href="#bc" transform="matrix(0.997 -0.078 0.078 0.997 138.1 158.15)"/><use xlink:href="#bd" transform="matrix(0.995 -0.099 0.099 0.995 137.2 160.7)"/><use xlink:href="#be" transform="matrix(1 0 0 1 347.55 233.1)"/><use xlink:href="#bf" transform="matrix(1 0 0 1 454.2 367.2)"/><animate attributeName="display" repeatCount="indefinite" dur="2.4s" keyTimes="0;0.313;0.333;1" values="none;inline;none;none"/></g><g display="none"><use xlink:href="#aV" transform="matrix(1 0 0 1 347.55 233.1)"/><use xlink:href="#aW" transform="matrix(1 0 0 1 318.75 76.45)"/><use xlink:href="#aX" transform="matrix(1.061 0 0 0.964 620.35 388.4)"/><use xlink:href="#aY" transform="matrix(0.997 0.07 -0.07 0.997 484.6 187.45)"/><use xlink:href="#aZ" transform="matrix(0.997 0.075 -0.075 0.997 485.65 189.55)"/><use xlink:href="#ba" transform="matrix(0.995 -0.096 0.096 0.995 484.4 188.3)"/><use xlink:href="#bb" transform="matrix(0.999 0.049 -0.049 0.999 138.3 159.2)"/><use xlink:href="#bc" transform="matrix(0.997 -0.07 0.07 0.997 138.15 158.15)"/><use xlink:href="#bd" transform="matrix(0.995 -0.092 0.092 0.995 137.15 160.65)"/><use xlink:href="#be" transform="matrix(1 0 0 1 347.55 233.1)"/><use xlink:href="#bf" transform="matrix(1 0 0 1 454.2 367.2)"/><animate attributeName="display" repeatCount="indefinite" dur="2.4s" keyTimes="0;0.292;0.313;1" values="none;inline;none;none"/></g><g display="none"><use xlink:href="#aV" transform="matrix(1 0 0 1 347.55 233.1)"/><use xlink:href="#aW" transform="matrix(1 0 0 1 317.9 76.5)"/><use xlink:href="#aX" transform="matrix(1.122 0 0 0.929 620.25 388.3)"/><use xlink:href="#aY" transform="matrix(0.998 0.066 -0.066 0.998 484.6 187.45)"/><use xlink:href="#aZ" transform="matrix(0.997 0.07 -0.07 0.997 485.65 189.55)"/><use xlink:href="#ba" transform="matrix(0.996 -0.088 0.088 0.996 484.4 188.3)"/><use xlink:href="#bb" transform="matrix(0.999 0.048 -0.048 0.999 138.35 159.2)"/><use xlink:href="#bc" transform="matrix(0.998 -0.066 0.066 0.998 138.15 158.15)"/><use xlink:href="#bd" transform="matrix(0.996 -0.083 0.083 0.996 137.1 160.6)"/><use xlink:href="#be" transform="matrix(1 0 0 1 347.55 233.1)"/><use xlink:href="#bf" transform="matrix(1 0 0 1 454.2 367.2)"/><animate attributeName="display" repeatCount="indefinite" dur="2.4s" keyTimes="0;0.271;0.292;1" values="none;inline;none;none"/></g><g display="none"><use xlink:href="#aV" transform="matrix(1 0 0 1 347.55 233.1)"/><use xlink:href="#aW" transform="matrix(1 0 0 1 317.05 76.55)"/><use xlink:href="#aX" transform="matrix(1.183 0 0 0.893 620.15 388.25)"/><use xlink:href="#aY" transform="matrix(0.998 0.061 -0.061 0.998 484.6 187.45)"/><use xlink:href="#aZ" transform="matrix(0.998 0.062 -0.062 0.998 485.65 189.6)"/><use xlink:href="#ba" transform="matrix(0.997 -0.08 0.08 0.997 484.45 188.3)"/><use xlink:href="#bb" transform="matrix(0.999 0.044 -0.044 0.999 138.35 159.25)"/><use xlink:href="#bc" transform="matrix(0.998 -0.061 0.061 0.998 138.15 158.15)"/><use xlink:href="#bd" transform="matrix(0.997 -0.079 0.079 0.997 137.1 160.65)"/><use xlink:href="#be" transform="matrix(1 0 0 1 347.55 233.1)"/><use xlink:href="#bf" transform="matrix(1 0 0 1 454.2 367.2)"/><animate attributeName="display" repeatCount="indefinite" dur="2.4s" keyTimes="0;0.25;0.271;1" values="none;inline;none;none"/></g><g display="none"><use xlink:href="#aV" transform="matrix(1 0 0 1 347.55 233.1)"/><use xlink:href="#aW" transform="matrix(1 0 0 1 316.15 76.55)"/><use xlink:href="#aX" transform="matrix(1.122 0 0 0.929 620.3 388.35)"/><use xlink:href="#aY" transform="matrix(0.998 0.057 -0.057 0.998 484.6 187.45)"/><use xlink:href="#aZ" transform="matrix(0.998 0.057 -0.057 0.998 485.65 189.55)"/><use xlink:href="#ba" transform="matrix(0.997 -0.075 0.075 0.997 484.4 188.3)"/><use xlink:href="#bb" transform="matrix(0.999 0.04 -0.04 0.999 138.35 159.2)"/><use xlink:href="#bc" transform="matrix(0.998 -0.057 0.057 0.998 138.2 158.1)"/><use xlink:href="#bd" transform="matrix(0.997 -0.07 0.07 0.997 137.1 160.65)"/><use xlink:href="#be" transform="matrix(1 0 0 1 347.55 233.1)"/><use xlink:href="#bf" transform="matrix(1 0 0 1 454.2 367.2)"/><animate attributeName="display" repeatCount="indefinite" dur="2.4s" keyTimes="0;0.229;0.25;1" values="none;inline;none;none"/></g><g display="none"><use xlink:href="#aV" transform="matrix(1 0 0 1 347.55 233.1)"/><use xlink:href="#aW" transform="matrix(1 0 0 1 315.3 76.6)"/><use xlink:href="#aX" transform="matrix(1.061 0 0 0.964 620.35 388.45)"/><use xlink:href="#aY" transform="matrix(0.999 0.049 -0.049 0.999 484.6 187.45)"/><use xlink:href="#aZ" transform="matrix(0.998 0.053 -0.053 0.998 485.65 189.55)"/><use xlink:href="#ba" transform="matrix(0.998 -0.066 0.066 0.998 484.45 188.3)"/><use xlink:href="#bb" transform="matrix(0.999 0.035 -0.035 0.999 138.3 159.2)"/><use xlink:href="#bc" transform="matrix(0.999 -0.049 0.049 0.999 138.2 158.15)"/><use xlink:href="#bd" transform="matrix(0.998 -0.065 0.065 0.998 137.05 160.6)"/><use xlink:href="#be" transform="matrix(1 0 0 1 347.55 233.1)"/><use xlink:href="#bf" transform="matrix(1 0 0 1 454.2 367.2)"/><animate attributeName="display" repeatCount="indefinite" dur="2.4s" keyTimes="0;0.208;0.229;1" values="none;inline;none;none"/></g><g display="none"><use xlink:href="#aV" transform="matrix(1 0 0 1 347.55 233.1)"/><use xlink:href="#aW" transform="matrix(1 0 0 1 314.45 76.65)"/><use xlink:href="#aX" transform="matrix(1 0 0 1 620.5 388.5)"/><use xlink:href="#aY" transform="matrix(0.999 0.044 -0.044 0.999 484.6 187.45)"/><use xlink:href="#aZ" transform="matrix(0.999 0.048 -0.048 0.999 485.65 189.55)"/><use xlink:href="#ba" transform="matrix(0.998 -0.061 0.061 0.998 484.4 188.3)"/><use xlink:href="#bb" transform="matrix(0.999 0.031 -0.031 0.999 138.3 159.2)"/><use xlink:href="#bc" transform="matrix(0.999 -0.044 0.044 0.999 138.15 158.15)"/><use xlink:href="#bd" transform="matrix(0.998 -0.057 0.057 0.998 137.05 160.65)"/><use xlink:href="#be" transform="matrix(1 0 0 1 347.55 233.1)"/><use xlink:href="#bf" transform="matrix(1 0 0 1 454.2 367.2)"/><animate attributeName="display" repeatCount="indefinite" dur="2.4s" keyTimes="0;0.188;0.208;1" values="none;inline;none;none"/></g><g display="none"><use xlink:href="#aV" transform="matrix(1 0 0 1 347.55 233.1)"/><use xlink:href="#aW" transform="matrix(1 0 0 1 313.55 76.65)"/><use xlink:href="#aX" transform="matrix(1 0 0 1 620.5 388.5)"/><use xlink:href="#aY" transform="matrix(0.999 0.04 -0.04 0.999 484.55 187.45)"/><use xlink:href="#aZ" transform="matrix(0.999 0.04 -0.04 0.999 485.65 189.55)"/><use xlink:href="#ba" transform="matrix(0.998 -0.053 0.053 0.998 484.45 188.35)"/><use xlink:href="#bb" transform="matrix(1 0.027 -0.027 1 138.3 159.2)"/><use xlink:href="#bc" transform="matrix(0.999 -0.04 0.04 0.999 138.2 158.15)"/><use xlink:href="#bd" transform="matrix(0.998 -0.052 0.052 0.998 136.95 160.65)"/><use xlink:href="#be" transform="matrix(1 0 0 1 347.55 233.1)"/><use xlink:href="#bf" transform="matrix(1 0 0 1 454.2 367.2)"/><animate attributeName="display" repeatCount="indefinite" dur="2.4s" keyTimes="0;0.167;0.188;1" values="none;inline;none;none"/></g><g display="none"><use xlink:href="#aV" transform="matrix(1 0 0 1 347.55 233.1)"/><use xlink:href="#aW" transform="matrix(1 0 0 1 312.7 76.7)"/><use xlink:href="#aX" transform="matrix(1 0 0 1 620.5 388.5)"/><use xlink:href="#aY" transform="matrix(0.999 0.035 -0.035 0.999 484.55 187.45)"/><use xlink:href="#aZ" transform="matrix(0.999 0.036 -0.036 0.999 485.65 189.55)"/><use xlink:href="#ba" transform="matrix(0.999 -0.048 0.048 0.999 484.45 188.3)"/><use xlink:href="#bb" transform="matrix(1 0.023 -0.023 1 138.35 159.2)"/><use xlink:href="#bc" transform="matrix(0.999 -0.035 0.035 0.999 138.2 158.1)"/><use xlink:href="#bd" transform="matrix(0.999 -0.044 0.044 0.999 137 160.6)"/><use xlink:href="#be" transform="matrix(1 0 0 1 347.55 233.1)"/><use xlink:href="#bf" transform="matrix(1 0 0 1 454.2 367.2)"/><animate attributeName="display" repeatCount="indefinite" dur="2.4s" keyTimes="0;0.146;0.167;1" values="none;inline;none;none"/></g><g display="none"><use xlink:href="#aV" transform="matrix(1 0 0 1 347.55 233.1)"/><use xlink:href="#aW" transform="matrix(1 0 0 1 311.8 76.7)"/><use xlink:href="#aX" transform="matrix(1 0 0 1 620.5 388.5)"/><use xlink:href="#aY" transform="matrix(0.999 0.031 -0.031 0.999 484.55 187.45)"/><use xlink:href="#aZ" transform="matrix(0.999 0.031 -0.031 0.999 485.65 189.55)"/><use xlink:href="#ba" transform="matrix(0.999 -0.04 0.04 0.999 484.4 188.3)"/><use xlink:href="#bb" transform="matrix(1 0.022 -0.022 1 138.3 159.2)"/><use xlink:href="#bc" transform="matrix(0.999 -0.031 0.031 0.999 138.2 158.1)"/><use xlink:href="#bd" transform="matrix(0.999 -0.039 0.039 0.999 137 160.65)"/><use xlink:href="#be" transform="matrix(1 0 0 1 347.55 233.1)"/><use xlink:href="#bf" transform="matrix(1 0 0 1 454.2 367.2)"/><animate attributeName="display" repeatCount="indefinite" dur="2.4s" keyTimes="0;0.125;0.146;1" values="none;inline;none;none"/></g><g display="none"><use xlink:href="#aV" transform="matrix(1 0 0 1 347.55 233.1)"/><use xlink:href="#aW" transform="matrix(1 0 0 1 310.95 76.75)"/><use xlink:href="#aX" transform="matrix(1 0 0 1 620.5 388.5)"/><use xlink:href="#aY" transform="matrix(1 0.023 -0.023 1 484.55 187.45)"/><use xlink:href="#aZ" transform="matrix(1 0.026 -0.026 1 485.65 189.55)"/><use xlink:href="#ba" transform="matrix(0.999 -0.032 0.032 0.999 484.45 188.35)"/><use xlink:href="#bb" transform="matrix(1 0.018 -0.018 1 138.3 159.2)"/><use xlink:href="#bc" transform="matrix(1 -0.023 0.023 1 138.25 158.15)"/><use xlink:href="#bd" transform="matrix(0.999 -0.031 0.031 0.999 137 160.6)"/><use xlink:href="#be" transform="matrix(1 0 0 1 347.55 233.1)"/><use xlink:href="#bf" transform="matrix(1 0 0 1 454.2 367.2)"/><animate attributeName="display" repeatCount="indefinite" dur="2.4s" keyTimes="0;0.104;0.125;1" values="none;inline;none;none"/></g><g display="none"><use xlink:href="#aV" transform="matrix(1 0 0 1 347.55 233.1)"/><use xlink:href="#aW" transform="matrix(1 0 0 1 310.1 76.8)"/><use xlink:href="#aX" transform="matrix(1 0 0 1 620.5 388.5)"/><use xlink:href="#aY" transform="matrix(1 0.018 -0.018 1 484.55 187.4)"/><use xlink:href="#aZ" transform="matrix(1 0.019 -0.019 1 485.65 189.55)"/><use xlink:href="#ba" transform="matrix(1 -0.027 0.027 1 484.45 188.3)"/><use xlink:href="#bb" transform="matrix(1 0.014 -0.014 1 138.3 159.2)"/><use xlink:href="#bc" transform="matrix(1 -0.018 0.018 1 138.25 158.05)"/><use xlink:href="#bd" transform="matrix(1 -0.026 0.026 1 136.95 160.6)"/><use xlink:href="#be" transform="matrix(1 0 0 1 347.55 233.1)"/><use xlink:href="#bf" transform="matrix(1 0 0 1 454.2 367.2)"/><animate attributeName="display" repeatCount="indefinite" dur="2.4s" keyTimes="0;0.083;0.104;1" values="none;inline;none;none"/></g><g display="none"><use xlink:href="#aV" transform="matrix(1 0 0 1 347.55 233.1)"/><use xlink:href="#aW" transform="matrix(1 0 0 1 309.2 76.8)"/><use xlink:href="#aX" transform="matrix(1 0 0 1 620.5 388.5)"/><use xlink:href="#aY" transform="matrix(1 0.014 -0.014 1 484.55 187.45)"/><use xlink:href="#aZ" transform="matrix(1 0.014 -0.014 1 485.65 189.55)"/><use xlink:href="#ba" transform="matrix(1 -0.018 0.018 1 484.45 188.35)"/><use xlink:href="#bb" transform="matrix(1 0.009 -0.009 1 138.3 159.2)"/><use xlink:href="#bc" transform="matrix(1 -0.014 0.014 1 138.2 158.05)"/><use xlink:href="#bd" transform="matrix(1 -0.018 0.018 1 136.9 160.6)"/><use xlink:href="#be" transform="matrix(1 0 0 1 347.55 233.1)"/><use xlink:href="#bf" transform="matrix(1 0 0 1 454.2 367.2)"/><animate attributeName="display" repeatCount="indefinite" dur="2.4s" keyTimes="0;0.063;0.083;1" values="none;inline;none;none"/></g><g display="none"><use xlink:href="#aV" transform="matrix(1 0 0 1 347.55 233.1)"/><use xlink:href="#aW" transform="matrix(1 0 0 1 308.35 76.85)"/><use xlink:href="#aX" transform="matrix(1 0 0 1 620.5 388.5)"/><use xlink:href="#aY" transform="matrix(1 0.009 -0.009 1 484.5 187.4)"/><use xlink:href="#aZ" transform="matrix(1 0.009 -0.009 1 485.65 189.55)"/><use xlink:href="#ba" transform="matrix(1 -0.013 0.013 1 484.45 188.35)"/><use xlink:href="#bb" transform="matrix(1 0.005 -0.005 1 138.35 159.2)"/><use xlink:href="#bc" transform="matrix(1 -0.009 0.009 1 138.2 158.05)"/><use xlink:href="#bd" transform="matrix(1 -0.013 0.013 1 136.9 160.6)"/><use xlink:href="#be" transform="matrix(1 0 0 1 347.55 233.1)"/><use xlink:href="#bf" transform="matrix(1 0 0 1 454.2 367.2)"/><animate attributeName="display" repeatCount="indefinite" dur="2.4s" keyTimes="0;0.042;0.063;1" values="none;inline;none;none"/></g><g display="none"><use xlink:href="#aV" transform="matrix(1 0 0 1 347.55 233.1)"/><use xlink:href="#aW" transform="matrix(1 0 0 1 307.45 76.85)"/><use xlink:href="#aX" transform="matrix(1 0 0 1 620.5 388.5)"/><use xlink:href="#aY" transform="matrix(1 0.005 -0.005 1 484.5 187.4)"/><use xlink:href="#aZ" transform="matrix(1 0.005 -0.005 1 485.65 189.55)"/><use xlink:href="#ba" transform="matrix(1 -0.005 0.005 1 484.45 188.35)"/><use xlink:href="#bb" transform="matrix(1 0.001 -0.001 1 138.3 159.2)"/><use xlink:href="#bc" transform="matrix(1 -0.005 0.005 1 138.25 158.05)"/><use xlink:href="#bd" transform="matrix(1 -0.005 0.005 1 136.85 160.6)"/><use xlink:href="#be" transform="matrix(1 0 0 1 347.55 233.1)"/><use xlink:href="#bf" transform="matrix(1 0 0 1 454.2 367.2)"/><animate attributeName="display" repeatCount="indefinite" dur="2.4s" keyTimes="0;0.021;0.042;1" values="none;inline;none;none"/></g><g><use xlink:href="#aV" transform="matrix(1 0 0 1 347.55 233.1)"/><use xlink:href="#aW" transform="matrix(1 0 0 1 306.6 76.9)"/><use xlink:href="#aX" transform="matrix(1 0 0 1 620.5 388.5)"/><use xlink:href="#aY" transform="matrix(1 0 0 1 484.5 187.4)"/><use xlink:href="#aZ" transform="matrix(1 0 0 1 485.65 189.55)"/><use xlink:href="#ba" transform="matrix(1 0 0 1 484.45 188.35)"/><use xlink:href="#bb" transform="matrix(1 0 0 1 138.3 159.2)"/><use xlink:href="#bc" transform="matrix(1 0 0 1 138.25 158.05)"/><use xlink:href="#bd" transform="matrix(1 0 0 1 136.85 160.6)"/><use xlink:href="#be" transform="matrix(1 0 0 1 347.55 233.1)"/><use xlink:href="#bf" transform="matrix(1 0 0 1 454.2 367.2)"/><animate attributeName="display" repeatCount="indefinite" dur="2.4s" keyTimes="0;0.021;1" values="inline;none;none"/></g></g></svg>