<svg id="Layer_1" xmlns="http://www.w3.org/2000/svg" viewBox="0 0 695 256.9" style="enable-background:new 0 0 695 256.9"><style>.st0{fill:#ededed}.st1{fill:#6cb376}.st2{fill:#fff}.st3{fill:#f16b6b;stroke:#0f344f;stroke-width:2.5;stroke-linecap:round;stroke-linejoin:round;stroke-miterlimit:10}.st4{fill:#fafafa}.st5{fill:#12354f}.st6{fill:none;stroke:#555757;stroke-width:2;stroke-miterlimit:10}.st7{fill:#555757}</style><path class="st0" d="M0 1h695v255.9H0z"/><path class="st1" d="M118.3 59.4h184.8v82.1H118.3z"/><path class="st2" d="M164.9 84.8v1c0 2.8-.8 4.5-2.7 5.4 2.3.9 3.2 2.9 3.2 5.8v2.2c0 4.2-2.2 6.4-6.4 6.4h-6.7v-27h6.4c4.3 0 6.2 2 6.2 6.2zm-8.4-2.4v7.1h1.7c1.6 0 2.5-.7 2.5-2.8v-1.5c0-1.9-.7-2.8-2.2-2.8h-2zm0 11v8.3h2.4c1.4 0 2.2-.7 2.2-2.7v-2.3c0-2.5-.8-3.3-2.7-3.3h-1.9zM172.1 89.9h5.8v3.8h-5.8v7.9h7.3v3.8h-11.5V78.6h11.5v3.8h-7.3v7.5zM187.8 78.3c4.1 0 6.2 2.5 6.2 6.8v.8h-4v-1.1c0-1.9-.8-2.7-2.1-2.7s-2.1.7-2.1 2.7c0 5.5 8.3 6.6 8.3 14.3 0 4.3-2.2 6.8-6.3 6.8s-6.3-2.5-6.3-6.8v-1.7h4v1.9c0 1.9.8 2.6 2.2 2.6 1.3 0 2.2-.7 2.2-2.6 0-5.5-8.3-6.6-8.3-14.3-.1-4.3 2-6.7 6.2-6.7zM195.2 78.6h13.1v3.8h-4.4v23.1h-4.2V82.4h-4.4v-3.8zM214.9 78.6H228v3.8h-4.4v23.1h-4.2V82.4H215v-3.8zM229.8 78.6h4.2v26.9h-4.2V78.6zM246.1 97.7l2.9-19.1h5.9v26.9h-4V86.2l-2.9 19.3h-4l-3.2-19.1v19.1h-3.7V78.6h5.9l3.1 19.1zM262.2 89.9h5.8v3.8h-5.8v7.9h7.3v3.8H258V78.6h11.5v3.8h-7.3v7.5z"/><path class="st1" d="M210.7 141.6h92.4v56.5h-92.4z"/><path class="st1" d="M119.1 141.6h92.4v56.5h-92.4z"/><path class="st0" d="M25.8 141.6h92.4v56.5H25.8z"/><path class="st3" d="M487.9 141.6h92.4v56.5h-92.4zM580.3 141.6h92.4v56.5h-92.4z"/><path class="st1" d="M395.5 141.6h46.2v56.5h-46.2z"/><path class="st4" d="M441.7 141.6h46.2v56.5h-46.2z"/><path class="st5" d="M672.7 199.4H25.9c-.7 0-1.4-.6-1.4-1.4v-56.5c0-.8.6-1.4 1.4-1.4h646.9c.8 0 1.4.6 1.4 1.4V198c-.1.8-.7 1.4-1.5 1.4zm-645.5-2.7h644.2v-53.8H27.2v53.8z"/><path class="st5" d="M56.3 174.9l2.9-19.1h5.9v26.9h-4v-19.3l-2.9 19.3h-4L51 163.6v19.1h-3.7v-26.9h5.9l3.1 19.1zM67.8 162.2c0-4.3 2.3-6.8 6.4-6.8 4.2 0 6.4 2.5 6.4 6.8v14c0 4.3-2.3 6.8-6.4 6.8-4.2 0-6.4-2.5-6.4-6.8v-14zm4.2 14.3c0 1.9.8 2.7 2.2 2.7 1.3 0 2.2-.7 2.2-2.7V162c0-1.9-.8-2.7-2.2-2.7-1.3 0-2.2.7-2.2 2.7v14.5zM87.2 163.2v19.5h-3.8v-26.9h5.3l4.4 16.1v-16.1h3.8v26.9h-4.4l-5.3-19.5z"/><path class="st6" d="M118.3 198v-56.4"/><path class="st5" d="M143.2 155.8h13.1v3.8h-4.4v23.1h-4.2v-23.1h-4.4v-3.8zM162.1 155.8v20.8c0 1.9.8 2.6 2.2 2.6 1.3 0 2.2-.7 2.2-2.6v-20.8h4v20.5c0 4.3-2.2 6.8-6.3 6.8s-6.3-2.5-6.3-6.8v-20.5h4.2zM177.7 167.1h5.8v3.8h-5.8v7.9h7.3v3.8h-11.5v-26.9H185v3.8h-7.3v7.6z"/><path class="st6" d="M210.7 198v-56.4"/><path class="st5" d="M242 168.3l-1.5 14.4h-5.8l-3-26.9h4.1l2.3 21.3 2-21.3h4.1l2.1 21.4 2.2-21.4h3.7l-3 26.9h-5.6l-1.6-14.4zM258.5 167.1h5.8v3.8h-5.8v7.9h7.3v3.8h-11.5v-26.9h11.5v3.8h-7.3v7.6zM268.5 155.8h6.7c4.2 0 6.3 2.3 6.3 6.7V176c0 4.3-2.1 6.7-6.3 6.7h-6.7v-26.9zm4.2 3.8v19.2h2.4c1.3 0 2.2-.7 2.2-2.6v-14c0-1.9-.8-2.6-2.2-2.6h-2.4z"/><path class="st6" d="M303.1 198v-56.4"/><g><path class="st5" d="M326.9 155.8H340v3.8h-4.4v23.1h-4.2v-23.1H327v-3.8zM346 182.7h-4.2v-26.9h4.2v11.5h4.8v-11.5h4.3v26.9h-4.3v-11.5H346v11.5zM362.3 155.8v20.8c0 1.9.8 2.6 2.2 2.6s2.2-.7 2.2-2.6v-20.8h4v20.5c0 4.3-2.2 6.8-6.3 6.8-4.2 0-6.3-2.5-6.3-6.8v-20.5h4.2z"/></g><path class="st6" d="M395.5 198v-56.4"/><g><path class="st5" d="M429.4 167.7h5.5v3.8h-5.5v11.1h-4.2v-26.9h11.2v3.8h-7v8.2zM447.3 182.7c-.2-.7-.4-1.1-.4-3.3v-4.2c0-2.5-.8-3.4-2.8-3.4h-1.5v11h-4.2v-26.9h6.4c4.4 0 6.3 2 6.3 6.2v2.1c0 2.8-.9 4.6-2.8 5.5 2.1.9 2.8 2.9 2.8 5.7v4.2c0 1.3 0 2.3.5 3.3h-4.3zm-4.6-23.1v8.3h1.7c1.6 0 2.5-.7 2.5-2.8v-2.7c0-1.9-.7-2.8-2.2-2.8h-2zM453.9 155.8h4.2v26.9h-4.2v-26.9z"/></g><g><path class="st7" d="M487.9 199.4c-.8 0-1.4-.6-1.4-1.4v-56.5c0-.8.6-1.4 1.4-1.4.8 0 1.4.6 1.4 1.4V198c0 .8-.7 1.4-1.4 1.4z"/></g><g><path class="st5" d="M520.2 155.4c4.1 0 6.2 2.5 6.2 6.8v.8h-4v-1c0-1.9-.8-2.7-2.1-2.7s-2.1.7-2.1 2.7c0 5.5 8.3 6.6 8.3 14.3 0 4.3-2.2 6.8-6.3 6.8s-6.3-2.5-6.3-6.8v-1.7h4v1.9c0 1.9.8 2.6 2.2 2.6 1.3 0 2.2-.7 2.2-2.6 0-5.5-8.3-6.6-8.3-14.3-.1-4.3 2.1-6.8 6.2-6.8zM542.6 182.7h-4.3l-.7-4.9h-5.2l-.7 4.9h-3.9l4.3-26.9h6.2l4.3 26.9zm-9.7-8.5h4.1l-2-13.6-2.1 13.6zM541.9 155.8H555v3.8h-4.4v23.1h-4.2v-23.1H542v-3.8z"/></g><g><path class="st7" d="M580.3 199.4c-.8 0-1.4-.6-1.4-1.4v-56.5c0-.8.6-1.4 1.4-1.4.8 0 1.4.6 1.4 1.4V198c0 .8-.6 1.4-1.4 1.4z"/></g><g><path class="st5" d="M610.7 155.4c4.1 0 6.2 2.5 6.2 6.8v.8h-4v-1c0-1.9-.8-2.7-2.1-2.7s-2.1.7-2.1 2.7c0 5.5 8.3 6.6 8.3 14.3 0 4.3-2.2 6.8-6.3 6.8-4.2 0-6.3-2.5-6.3-6.8v-1.7h4v1.9c0 1.9.8 2.6 2.2 2.6 1.3 0 2.2-.7 2.2-2.6 0-5.5-8.3-6.6-8.3-14.3-.1-4.3 2-6.8 6.2-6.8zM623.4 155.8v20.8c0 1.9.8 2.6 2.2 2.6s2.2-.7 2.2-2.6v-20.8h4v20.5c0 4.3-2.2 6.8-6.3 6.8-4.2 0-6.3-2.5-6.3-6.8v-20.5h4.2zM638.5 163.2v19.5h-3.8v-26.9h5.3l4.4 16.1v-16.1h3.8v26.9h-4.4l-5.3-19.5z"/></g><g><path class="st5" d="M292.8 114.7H128.5c-.7 0-1.4-.6-1.4-1.4 0-.8.6-1.4 1.4-1.4h164.3c.8 0 1.4.6 1.4 1.4 0 .8-.6 1.4-1.4 1.4z"/></g><g><path class="st5" d="M287.7 119.8c-.3 0-.7-.1-1-.4-.5-.5-.5-1.4 0-1.9l4.2-4.2-4.2-4.2c-.5-.5-.5-1.4 0-1.9s1.4-.5 1.9 0l5.1 5.1c.3.3.4.6.4 1s-.1.7-.4 1l-5.1 5.1c-.2.3-.6.4-.9.4z"/></g><g><path class="st5" d="M133.7 119.8c-.3 0-.7-.1-1-.4l-5.1-5.1c-.3-.3-.4-.6-.4-1s.1-.7.4-1l5.1-5.1c.5-.5 1.4-.5 1.9 0s.5 1.4 0 1.9l-4.2 4.2 4.2 4.2c.5.5.5 1.4 0 1.9-.3.3-.6.4-.9.4z"/></g></svg>