<?xml version="1.0" encoding="utf-8"?>
<!-- Generator: Adobe Illustrator 21.0.0, SVG Export Plug-In . SVG Version: 6.00 Build 0)  -->
<svg version="1.1" id="Layer_1" xmlns="http://www.w3.org/2000/svg" xmlns:xlink="http://www.w3.org/1999/xlink" x="0px" y="0px"
	 viewBox="0 0 695 513.1" style="enable-background:new 0 0 695 513.1;" xml:space="preserve">
<style type="text/css">
	.st0{fill:#FFFFFF;}
	.st1{fill:#12354F;}
	.st2{fill:#A5DCE4;stroke:#12354F;stroke-width:2.5;stroke-linecap:round;stroke-linejoin:round;stroke-miterlimit:10;}
	.st3{fill:#E66A60;}
	.st4{fill:none;stroke:#AFB7BC;stroke-width:2.5;stroke-linecap:round;stroke-linejoin:round;stroke-miterlimit:10;}
</style>
<path class="st0" d="M695,513.1V0H0v513.1H695"/>
<g>
	<path class="st1" d="M206.7,170.7l0.2,0.3c0.2,7.2-1.9,12.7-6,16.4c-4.1,3.7-10.2,5.6-17.8,5.6c-7.8,0-14.2-2.4-18.9-7.2
		c-4.8-4.8-7.2-11-7.2-18.8v-13.2c0-7.6,2.2-14,6.8-18.8c4.6-4.8,10.7-7.2,18.1-7.2c8,0,14.3,1.9,18.6,5.6c4.5,3.8,6.5,9.2,6.4,16.4
		h-14.5c0-3.8-0.8-6.7-2.5-8.3c-1.6-1.7-4.3-2.5-8.1-2.5c-3.3,0-5.9,1.3-7.6,4c-1.7,2.7-2.7,6.2-2.7,10.7V167c0,4.5,1,8,2.9,10.7
		c1.9,2.7,4.8,4,8.3,4c3.3,0,5.7-0.8,7.3-2.5c1.4-1.7,2.2-4.5,2.2-8.4L206.7,170.7L206.7,170.7z M229.6,167.7V192H215v-63.3h21.9
		c7.3,0,13.2,1.7,17.5,5.1c4.3,3.3,6.4,8,6.4,13.8c0,3.3-0.8,6-2.5,8.4c-1.7,2.4-4.3,4.3-7.6,5.7c3.8,1.1,6.7,2.9,8.4,5.6
		c1.7,2.5,2.5,5.7,2.5,9.5v4c0,1.6,0.3,3.5,0.8,5.7c0.5,2.1,1.3,3.7,2.5,4.5v0.8h-15.3c-1.1-1-1.9-2.5-2.2-4.8
		c-0.3-2.2-0.5-4.5-0.5-6.4v-3.8c0-3-0.8-5.2-2.4-6.8s-4-2.4-7-2.4H229.6L229.6,167.7z M229.6,156.4h7.5c3,0,5.2-0.6,6.8-2.1
		c1.6-1.3,2.4-3.3,2.4-5.7c0-2.5-0.8-4.6-2.4-6.2s-3.8-2.4-6.8-2.4h-7.3v16.4H229.6z M324.2,166.1c0,7.8-2.5,14.2-7.5,19.2
		c-4.9,5.1-11.4,7.6-19.4,7.6c-8,0-14.5-2.5-19.6-7.6c-4.9-5.1-7.5-11.4-7.5-19.2v-11.4c0-7.8,2.5-14.2,7.5-19.2
		c4.9-5.1,11.4-7.6,19.4-7.6s14.5,2.5,19.4,7.6c4.9,5.1,7.5,11.4,7.5,19.2v11.4H324.2z M309.6,154.5c0-4.5-1.1-8.3-3.2-11.1
		c-2.1-2.9-5.1-4.3-9.1-4.3s-7,1.4-9.1,4.3c-2.1,2.9-3.2,6.7-3.2,11.1v11.4c0,4.6,1.1,8.3,3.2,11.3c2.1,3,5.2,4.3,9.2,4.3
		c3.8,0,6.8-1.4,8.9-4.3c2.1-2.9,3.2-6.7,3.2-11.3L309.6,154.5L309.6,154.5z M365.8,175.1c0-2.2-0.8-4-2.2-5.2
		c-1.4-1.3-4.1-2.5-8.1-3.8c-7.8-2.5-13.7-5.2-17.5-8.1c-3.8-2.9-5.7-7-5.7-12.4c0-5.2,2.2-9.5,6.7-12.9c4.5-3.3,10-4.9,16.9-4.9
		c7.2,0,13,1.7,17.5,5.1c4.5,3.3,6.5,8.1,6.4,14.3l-0.2,0.3h-14.3c0-3-0.8-5.1-2.4-6.5c-1.6-1.3-4.1-2.1-7.3-2.1
		c-2.7,0-4.8,0.6-6.4,1.9c-1.6,1.3-2.2,2.9-2.2,4.8c0,1.9,0.8,3.3,2.4,4.5c1.6,1.1,4.5,2.5,8.9,4.1c7.3,2.2,12.9,4.8,16.7,8
		c3.8,3.2,5.7,7.5,5.7,12.9c0,5.6-2.2,9.9-6.5,13s-10.2,4.8-17.3,4.8c-7.2,0-13.2-1.7-18.1-5.1c-4.9-3.3-7.3-8.7-7.3-15.9l0.2-0.3
		h14.3c0,3.7,1,6.4,2.7,7.8c1.7,1.6,4.6,2.4,8.3,2.4c3,0,5.4-0.6,6.8-1.7S365.8,177.2,365.8,175.1L365.8,175.1z M421.2,175.1
		c0-2.2-0.8-4-2.2-5.2s-4.1-2.5-8.1-3.8c-7.8-2.5-13.7-5.2-17.5-8.1c-3.8-2.9-5.7-7-5.7-12.4c0-5.2,2.2-9.5,6.7-12.9
		c4.5-3.3,10-4.9,16.9-4.9c7.2,0,13,1.7,17.5,5.1c4.5,3.3,6.5,8.1,6.4,14.3l-0.2,0.3h-14.3c0-3-0.8-5.1-2.4-6.5
		c-1.6-1.3-4.1-2.1-7.3-2.1c-2.7,0-4.8,0.6-6.4,1.9c-1.6,1.3-2.2,2.9-2.2,4.8c0,1.9,0.8,3.3,2.4,4.5c1.6,1.1,4.5,2.5,8.9,4.1
		c7.3,2.2,12.9,4.8,16.7,8s5.7,7.5,5.7,12.9c0,5.6-2.2,9.9-6.5,13c-4.3,3.2-10.2,4.8-17.3,4.8s-13.2-1.7-18.1-5.1
		c-4.9-3.3-7.3-8.7-7.3-15.9l0.2-0.3h14.3c0,3.7,1,6.4,2.7,7.8c1.7,1.6,4.6,2.4,8.3,2.4c3,0,5.4-0.6,6.8-1.7
		S421.2,177.2,421.2,175.1L421.2,175.1z M480.8,165h-22.3v15.7h26.7V192h-41.5v-63.3h41.5V140h-26.7v13.7h22.3
		C480.8,153.7,480.8,165,480.8,165z M526.1,175.1c0-2.2-0.8-4-2.2-5.2c-1.4-1.3-4.1-2.5-8.1-3.8c-7.8-2.5-13.7-5.2-17.5-8.1
		c-3.8-2.9-5.7-7-5.7-12.4c0-5.2,2.2-9.5,6.7-12.9c4.5-3.3,10-4.9,16.9-4.9c7.2,0,13,1.7,17.5,5.1c4.5,3.3,6.5,8.1,6.4,14.3
		l-0.2,0.3h-14.3c0-3-0.8-5.1-2.4-6.5c-1.6-1.3-4.1-2.1-7.3-2.1c-2.7,0-4.8,0.6-6.4,1.9c-1.6,1.3-2.2,2.9-2.2,4.8
		c0,1.9,0.8,3.3,2.4,4.5s4.5,2.5,8.9,4.1c7.3,2.2,12.9,4.8,16.7,8s5.7,7.5,5.7,12.9c0,5.6-2.2,9.9-6.5,13
		c-4.3,3.2-10.2,4.8-17.3,4.8c-7.2,0-13.2-1.7-18.1-5.1c-4.9-3.3-7.3-8.7-7.3-15.9l0.2-0.3h14.3c0,3.7,1,6.4,2.7,7.8
		c1.7,1.6,4.6,2.4,8.3,2.4c3,0,5.4-0.6,6.8-1.7C525.3,178.8,526.1,177.2,526.1,175.1L526.1,175.1z"/>
	<path class="st2" d="M117.5,213.8h459.2"/>
	<path class="st1" d="M136.2,269v2.9h-2.4v-3c0-4.1-1.6-7.3-5.9-7.3s-5.9,3.2-5.9,7.3V289c0,4.1,1.6,7.3,5.9,7.3s5.9-3.2,5.9-7.3
		v-8.4h-5.2v-2.4h7.6v10.5c0,5.6-2.4,9.9-8.4,9.9c-5.9,0-8.4-4.3-8.4-9.9v-19.9c0-5.6,2.4-9.9,8.4-9.9
		C133.9,259.1,136.2,263.4,136.2,269L136.2,269z M148.6,259.4c6,0,8.3,3.8,8.3,9.4v4.3c0,6.2-2.9,9.2-9.1,9.2h-4.8v16.1h-2.5v-39
		H148.6z M148,280.1c4.5,0,6.5-2.1,6.5-6.7v-4.6c0-4.3-1.4-7-5.7-7h-5.7v18.3L148,280.1L148,280.1z M169,259.4c5.9,0,8,2.9,8,8.3
		v2.2c0,4.3-1.1,6.8-5.1,7.6c4.3,0.8,5.9,4,5.9,8.3v3.3c0,5.6-2.5,9.1-8.6,9.1h-8.3v-39h8.1L169,259.4z M167.7,276.7
		c4.6,0,6.7-1.3,6.7-6.2V268c0-4.1-1.3-6.2-5.4-6.2h-5.6v14.8h4.3V276.7z M169.2,296.1c4.3,0,5.9-2.4,5.9-6.7V286
		c0-5.1-2.2-6.8-6.8-6.8h-4.8v17L169.2,296.1L169.2,296.1z"/>
	<path class="st3" d="M198.7,259.4l-15.4,39h-2.2l15.4-39H198.7z"/>
	<path class="st1" d="M201.9,296.1h2.2c3.7-0.3,5.6-2.2,5.6-7v-29.6h2.5V289c0,6.8-3,9.4-7.8,9.5h-2.5V296.1z M224.7,259.4
		c6,0,8.3,3.8,8.3,9.4v4.3c0,6.2-2.9,9.2-9.1,9.2h-4.8v16.1h-2.5v-39H224.7z M224,280.1c4.5,0,6.5-2.1,6.5-6.7v-4.6
		c0-4.3-1.4-7-5.7-7h-5.6v18.3L224,280.1L224,280.1z M244.7,283.4l-8.7-24h2.7l7.5,20.5l7.5-20.5h2.5l-8.7,24v14.9h-2.5v-14.9H244.7
		z"/>
	<g>
		<path class="st1" d="M132.9,343.8v2.4h-10.7v16.2H135v2.4h-15.4v-39H135v2.4h-12.7V344h10.7V343.8z M141.7,355.3
			c0,4.1,1.6,7.5,5.9,7.5s5.9-3.2,5.9-7.5v-29.6h2.4v29.4c0,5.6-2.4,9.9-8.3,9.9s-8.3-4.3-8.3-9.9v-29.4h2.5v29.6H141.7z
			 M168.2,325.9c5.9,0,8.3,3.3,8.3,8.7v3.3c0,4.6-1.7,7.2-5.6,8.1c4,1,5.6,3.7,5.6,8v6c0,1.6,0.2,3.3,1,4.6h-2.5
			c-0.6-1.1-0.8-2.5-0.8-4.6v-6c0-5.2-2.9-6.7-7.3-6.7h-4.1v17.5h-2.5v-39L168.2,325.9L168.2,325.9z M166.8,345
			c4.6,0,7.2-1.3,7.2-6.5v-3.7c0-4.1-1.6-6.7-5.9-6.7h-5.6V345H166.8z"/>
		<path class="st3" d="M198.4,325.9l-15.4,39h-2.2l15.4-39H198.4z"/>
		<path class="st1" d="M218.9,335.3v2.9h-2.4v-3c0-4.1-1.6-7.3-5.9-7.3s-5.9,3.2-5.9,7.3v20.2c0,4.1,1.6,7.3,5.9,7.3
			c4.3,0,5.9-3.2,5.9-7.3V347h-5.2v-2.4h7.6v10.5c0,5.6-2.4,9.9-8.4,9.9c-5.9,0-8.4-4.3-8.4-9.9v-19.9c0-5.6,2.4-9.9,8.4-9.9
			C216.4,325.6,218.9,329.7,218.9,335.3z M231.2,325.9c6,0,8.3,3.8,8.3,9.4v4.3c0,6.2-2.9,9.2-9.1,9.2h-4.8v16.1h-2.5v-39H231.2z
			 M230.5,346.4c4.5,0,6.5-2.1,6.5-6.7v-4.6c0-4.3-1.4-7-5.7-7h-5.6v18.3L230.5,346.4L230.5,346.4z M251.5,325.9c5.9,0,8,2.9,8,8.3
			v2.2c0,4.3-1.1,6.8-5.1,7.6c4.3,0.8,5.9,4,5.9,8.3v3.3c0,5.6-2.5,9.1-8.6,9.1h-8.3v-39h8.1V325.9z M250.3,343.1
			c4.6,0,6.7-1.3,6.7-6.2v-2.5c0-4.1-1.3-6.2-5.4-6.2H246v14.8h4.3L250.3,343.1z M251.7,362.4c4.3,0,5.9-2.4,5.9-6.7v-3.5
			c0-5.1-2.2-6.8-6.8-6.8H246v17H251.7L251.7,362.4z"/>
	</g>
	<g>
		<path class="st1" d="M136.2,401.6v3.2h-2.4v-3.3c0-4.1-1.6-7.3-5.9-7.3s-5.9,3.2-5.9,7.3v20.2c0,4.1,1.6,7.3,5.9,7.3
			s5.9-3.2,5.9-7.3V417h2.4v4.5c0,5.6-2.4,9.9-8.4,9.9c-5.9,0-8.4-4.3-8.4-9.9v-19.9c0-5.6,2.4-9.9,8.4-9.9S136.2,396,136.2,401.6
			L136.2,401.6z M144.2,422.4l-1.9,8.6h-2.4l8.6-39h3.7l8.7,39h-2.5l-1.9-8.6H144.2z M144.5,420.2h11.3l-5.7-25.1L144.5,420.2z
			 M173.3,392c6,0,8.6,4,8.6,9.7v19.6c0,5.7-2.5,9.7-8.6,9.7h-8.6v-39H173.3L173.3,392z M173.3,428.6c4.3,0,6-3,6-7.2v-19.9
			c0-4.3-1.9-7.2-6-7.2h-5.9v34.3h5.9V428.6z"/>
		<path class="st3" d="M203,392l-15.4,39h-2.2l15.4-39L203,392L203,392z"/>
		<path class="st1" d="M206.2,428.6h2.2c3.7-0.3,5.6-2.2,5.6-7V392h2.5v29.4c0,6.8-3,9.4-7.8,9.5h-2.5L206.2,428.6L206.2,428.6z
			 M228.9,392c6,0,8.3,3.8,8.3,9.4v4.3c0,6.2-2.9,9.2-9.1,9.2h-4.8V431h-2.5v-39L228.9,392L228.9,392z M228.3,412.7
			c4.5,0,6.5-2.1,6.5-6.7v-4.6c0-4.3-1.4-7-5.7-7h-5.6v18.3H228.3L228.3,412.7z M249,416l-8.7-24h2.7l7.5,20.5l7.5-20.5h2.5l-8.7,24
			V431h-2.5V416H249z"/>
	</g>
	<g>
		<path class="st1" d="M439.1,289.8l-1.9,8.6h-2.4l8.6-39h3.7l8.7,39h-2.5l-1.9-8.6H439.1L439.1,289.8z M439.5,287.6h11.3l-5.7-25.1
			L439.5,287.6z M462.2,289c0,4.1,1.6,7.5,5.9,7.5s5.9-3.2,5.9-7.5v-29.6h2.4v29.4c0,5.6-2.4,9.9-8.3,9.9s-8.3-4.3-8.3-9.9v-29.4
			h2.5V289H462.2z M489.2,259.4c6,0,8.6,4,8.6,9.7v19.6c0,5.7-2.5,9.7-8.6,9.7h-8.6v-39L489.2,259.4L489.2,259.4z M489.1,296.1
			c4.3,0,6-3,6-7.2v-19.9c0-4.3-1.9-7.2-6-7.2h-5.9v34.2H489.1z"/>
		<path class="st3" d="M519,259.4l-15.4,39h-2.2l15.4-39H519z"/>
		<path class="st1" d="M539.3,269v3.2h-2.4v-3.3c0-4.1-1.6-7.3-5.9-7.3s-5.9,3.2-5.9,7.3V289c0,4.1,1.6,7.3,5.9,7.3s5.9-3.2,5.9-7.3
			v-4.6h2.4v4.5c0,5.6-2.4,9.9-8.4,9.9c-5.9,0-8.4-4.3-8.4-9.9V269c0-5.6,2.4-9.9,8.4-9.9C536.8,259.1,539.3,263.4,539.3,269z
			 M547.3,289.8l-1.9,8.6H543l8.6-39h3.7l8.7,39h-2.7l-1.9-8.6H547.3L547.3,289.8z M547.6,287.6h11.3l-5.7-25.1L547.6,287.6z
			 M576.4,259.4c6,0,8.6,4,8.6,9.7v19.6c0,5.7-2.5,9.7-8.6,9.7h-8.6v-39L576.4,259.4L576.4,259.4z M576.2,296.1c4.3,0,6-3,6-7.2
			v-19.9c0-4.3-1.9-7.2-6-7.2h-5.9v34.2H576.2z"/>
	</g>
	<g>
		<path class="st1" d="M448.5,343.8v2.4h-10.7v16.2h12.7v2.4h-15.4v-39h15.4v2.4h-12.7V344h10.7V343.8z M457.4,355.3
			c0,4.1,1.6,7.5,5.9,7.5s5.9-3.2,5.9-7.5v-29.6h2.4v29.4c0,5.6-2.4,9.9-8.3,9.9c-5.9,0-8.3-4.3-8.3-9.9v-29.4h2.5v29.6H457.4z
			 M484,325.9c5.9,0,8.3,3.3,8.3,8.7v3.3c0,4.6-1.7,7.2-5.6,8.1c4,1,5.6,3.7,5.6,8v6c0,1.6,0.2,3.3,1,4.6h-2.7
			c-0.6-1.1-0.8-2.5-0.8-4.6v-6c0-5.2-2.9-6.7-7.3-6.7h-4.1v17.5h-2.5v-39L484,325.9L484,325.9z M482.6,345c4.6,0,7.2-1.3,7.2-6.5
			v-3.7c0-4.1-1.6-6.7-5.9-6.7h-5.6V345H482.6z"/>
		<path class="st3" d="M514.2,325.9l-15.4,39h-2.2l15.4-39H514.2z"/>
		<path class="st1" d="M521.7,356.1l-1.9,8.6h-2.4l8.6-39h3.7l8.7,39h-2.5l-1.9-8.6H521.7L521.7,356.1z M522.1,353.9h11.3l-5.7-25.1
			L522.1,353.9z M544.7,355.3c0,4.1,1.6,7.5,5.9,7.5s5.9-3.2,5.9-7.5v-29.6h2.4v29.4c0,5.6-2.4,9.9-8.3,9.9s-8.3-4.3-8.3-9.9v-29.4
			h2.5v29.6H544.7z M571.8,325.9c6,0,8.6,4,8.6,9.7v19.6c0,5.7-2.5,9.7-8.6,9.7h-8.6v-39L571.8,325.9L571.8,325.9z M571.6,362.4
			c4.3,0,6-3,6-7.2v-19.9c0-4.3-1.9-7.2-6-7.2h-5.9v34.3h5.9V362.4z"/>
	</g>
	<g>
		<path class="st1" d="M437.7,431h-2.4v-39h3.3l11.6,32.9V392h2.4v39H450l-12.2-34.7V431z M474.3,431h-17.5v-2.4l15.1-34.3h-14.3
			v-2.4h17v2.4l-15.1,34.2h14.8V431z M487.3,392c6,0,8.6,4,8.6,9.7v19.6c0,5.7-2.5,9.7-8.6,9.7h-8.6v-39H487.3L487.3,392z
			 M487.3,428.6c4.3,0,6-3,6-7.2v-19.9c0-4.3-1.9-7.2-6-7.2h-5.9v34.3h5.9V428.6z"/>
		<path class="st3" d="M517.1,392l-15.4,39h-2.2l15.4-39L517.1,392L517.1,392z"/>
		<path class="st1" d="M520.2,428.6h2.2c3.7-0.3,5.6-2.2,5.6-7V392h2.5v29.4c0,6.8-3,9.4-7.8,9.5h-2.5V428.6z M543,392
			c6,0,8.3,3.8,8.3,9.4v4.3c0,6.2-2.9,9.2-9.1,9.2h-4.8V431h-2.5v-39L543,392L543,392z M542.3,412.7c4.5,0,6.5-2.1,6.5-6.7v-4.6
			c0-4.3-1.4-7-5.7-7h-5.7v18.3H542.3L542.3,412.7z M563,416l-8.7-24h2.7l7.5,20.5l7.5-20.5h2.5l-8.7,24V431h-2.5V416H563z"/>
	</g>
	<path class="st4" d="M350.4,262.9v179.2"/>
	<g>
		<path class="st1" d="M245.2,69.7c2.2-0.3,5.2-0.6,9.1-0.6c4.6,0,8,1.1,10.2,3c2.1,1.7,3.2,4.3,3.2,7.6c0,3.3-1,5.9-2.9,7.8
			c-2.5,2.7-6.5,4-11.1,4c-1.4,0-2.7,0-3.8-0.3v14.5h-4.6L245.2,69.7L245.2,69.7z M249.9,87.2c1,0.3,2.4,0.3,3.8,0.3
			c5.7,0,9.1-2.7,9.1-7.8c0-4.8-3.3-7.2-8.6-7.2c-2.1,0-3.7,0.2-4.5,0.3v14.3H249.9z M304.8,87.1c0,12.6-7.6,19.1-16.9,19.1
			c-9.5,0-16.4-7.5-16.4-18.4c0-11.4,7.2-19.1,16.9-19.1C298.4,68.6,304.8,76.2,304.8,87.1z M276.6,87.7c0,7.8,4.1,14.6,11.6,14.6
			c7.5,0,11.6-6.8,11.6-15.1c0-7.2-3.8-14.8-11.6-14.8C280.6,72.4,276.6,79.6,276.6,87.7z M311,69.7c2.2-0.3,5.2-0.6,9.1-0.6
			c4.6,0,8,1.1,10.2,3c2.1,1.7,3.2,4.3,3.2,7.6c0,3.3-1,5.9-2.9,7.8c-2.5,2.7-6.5,4-11.1,4c-1.4,0-2.7,0-3.8-0.3v14.5H311L311,69.7
			L311,69.7z M315.6,87.2c1,0.3,2.4,0.3,3.8,0.3c5.7,0,9.1-2.7,9.1-7.8c0-4.8-3.3-7.2-8.6-7.2c-2.1,0-3.7,0.2-4.5,0.3v14.3H315.6z
			 M344.2,69.3v21.5c0,8.1,3.7,11.6,8.4,11.6c5.4,0,8.9-3.5,8.9-11.6V69.3h4.8v21.1c0,11.1-5.9,15.7-13.7,15.7
			c-7.5,0-13-4.3-13-15.6V69.3H344.2L344.2,69.3z M374.4,69.3h4.6v32.3h15.6v4h-20.2L374.4,69.3L374.4,69.3z M405.8,94.2l-3.8,11.4
			h-4.8l12.4-36.3h5.7l12.4,36.3h-4.9L419,94.2H405.8z M417.7,90.4l-3.5-10.5c-0.8-2.4-1.3-4.5-1.9-6.7h-0.2
			c-0.5,2.2-1.1,4.3-1.9,6.5l-3.5,10.5h11L417.7,90.4z M432.8,69.7c2.4-0.5,5.7-0.8,9.1-0.8c4.9,0,8.3,1,10.5,3
			c1.9,1.6,2.9,4.1,2.9,6.8c0,4.8-3,8-6.8,9.2v0.2c2.9,1,4.5,3.5,5.4,7.3c1.1,5.1,2.1,8.6,2.9,10h-4.8c-0.6-1-1.4-4.1-2.4-8.7
			c-1.1-4.9-3-6.8-7.3-7h-4.5v15.7h-4.6V69.7H432.8z M437.6,86.3h4.8c4.9,0,8.1-2.7,8.1-6.8c0-4.6-3.3-6.7-8.3-6.8
			c-2.2,0-3.8,0.2-4.6,0.5V86.3z"/>
	</g>
</g>
</svg>
