<svg xmlns="http://www.w3.org/2000/svg" baseProfile="basic" width="695" height="392" viewBox="0 0 695 392" preserveAspectRatio="xMinYMin meet"><g overflow="visible"><path fill="#FFF" d="M695.073 392.432V-.017H.075v392.449h694.998"/><path fill="none" stroke="#1A344F" stroke-width="2.5" stroke-linecap="round" stroke-linejoin="round" d="M210.853 289.497h326.735M266.688 302.009H445.51M181.689 289.497h13.909"/><g transform="translate(209.2 108.1)"><animateTransform attributeName="transform" additive="replace" type="translate" dur="1.625s" keyTimes="0;1" values="0,0;0,0" fill="freeze"/><animateTransform attributeName="transform" additive="sum" type="translate" repeatCount="indefinite" dur="1.625s" keyTimes="0;0.026;0.051;0.077;0.103;0.128;0.154;0.179;0.205;0.231;0.256;0.282;0.308;0.333;0.359;0.385;0.41;0.436;0.462;0.487;0.513;0.538;0.564;0.59;0.615;0.641;0.667;0.692;0.718;0.743;0.744;1" values="439.45,197.6;439.443,197.603;439.473,197.596;439.407,197.648;439.497,197.629;439.445,197.548;439.457,197.571;439.436,197.537;439.478,197.594;439.497,197.6;439.394,197.535;439.444,197.519;439.471,197.543;439.426,197.602;439.405,197.661;439.447,197.626;439.509,197.646;439.39,197.684;439.439,197.585;439.453,197.589;439.399,197.604;439.429,197.644;439.431,197.581;439.408,197.654;439.447,197.6;439.493,197.626;439.445,197.548;439.469,197.559;439.475,197.511;439.431,197.558;0;0" calcMode="discrete"/><animateTransform attributeName="transform" additive="sum" type="translate" repeatCount="indefinite" dur="1.625s" keyTimes="0;0.744;0.769;0.795;0.821;0.846;1" values="0;439.431,197.558;439.448,197.604;439.432,197.575;439.397,197.607;439.45,197.6;439.45,197.6" calcMode="discrete"/><animateTransform attributeName="transform" additive="sum" type="rotate" repeatCount="indefinite" dur="1.625s" keyTimes="0;0.026;0.051;0.077;0.103;0.128;0.154;0.179;0.205;0.231;0.256;0.282;0.308;0.333;0.359;0.385;0.41;0.436;0.462;0.487;0.513;0.538;0.564;0.59;0.615;0.641;0.667;0.692;0.718;0.743;0.744;1" values="0,0,0;0.505,0,0;0.795,0,0;1.054,0,0;1.285,0,0;1.449,0,0;-0.025,0,0;-1.305,0,0;-2.54,0,0;-3.541,0,0;-4.309,0,0;-5.032,0,0;-5.521,0,0;-5.777,0,0;-5.944,0,0;-4.755,0,0;-3.547,0,0;-2.552,0,0;-1.772,0,0;-1.018,0,0;-0.288,0,0;0.041,0,0;0.531,0,0;0.809,0,0;1.06,0,0;1.286,0,0;1.449,0,0;1.016,0,0;0.56,0,0;0.306,0,0;0;0" calcMode="discrete"/><animateTransform attributeName="transform" additive="sum" type="rotate" repeatCount="indefinite" dur="1.625s" keyTimes="0;0.744;0.769;0.795;0.821;0.846;1" values="0;0.306,0,0;0.254,0,0;0.03,0,0;0.007,0,0;0,0,0;0,0,0" calcMode="discrete"/><animateTransform attributeName="transform" additive="sum" type="scale" repeatCount="indefinite" dur="1.625s" keyTimes="0;0.231;0.256;0.333;0.359;0.385;0.41;0.743;0.744;1" values="1,1;1,1;0.999,0.999;0.999,0.999;1,1;0.999,0.999;1,1;1,1;1;1" calcMode="discrete"/><animateTransform attributeName="transform" additive="sum" type="translate" repeatCount="indefinite" dur="1.625s" keyTimes="0;0.026;0.051;0.077;0.103;0.128;0.154;0.179;0.205;0.231;0.256;0.282;0.308;0.333;0.359;0.385;0.41;0.436;0.462;0.487;0.513;0.538;0.564;0.59;0.615;0.641;0.667;0.692;0.718;0.743;0.744;1" values="-230.25,-89.5;-230.2,-89.5;-230.3,-89.45;-230.2,-89.55;-230.2,-89.55;-230.2,-89.45;-230.25,-89.55;-230.2,-89.45;-230.3,-89.45;-230.25,-89.55;-230.2,-89.45;-230.2,-89.45;-230.3,-89.5;-230.2,-89.6;-230.1,-89.65;-230.2,-89.55;-230.2,-89.7;-230.2,-89.6;-230.25,-89.55;-230.15,-89.55;-230.15,-89.55;-230.2,-89.55;-230.2,-89.6;-230.1,-89.6;-230.1,-89.55;-230.15,-89.55;-230.2,-89.45;-230.25,-89.5;-230.25,-89.45;-230.2,-89.45;0;0" calcMode="discrete"/><animateTransform attributeName="transform" additive="sum" type="translate" repeatCount="indefinite" dur="1.625s" keyTimes="0;0.744;0.769;0.795;0.821;0.846;1" values="0;-230.2,-89.45;-230.2,-89.45;-230.2,-89.6;-230.15,-89.55;-230.25,-89.5;-230.25,-89.5" calcMode="discrete"/><path fill="#82A464" stroke="#1A344F" stroke-width="2.5" stroke-linecap="round" stroke-linejoin="round" d="M272.503 32.802q.249-2.193-1.147-3.938-1.396-1.695-3.589-1.944L18.902.052q-2.194-.199-3.939 1.147-1.744 1.396-1.994 3.589L.107 124.222q-.249 2.193 1.147 3.938t3.589 1.994l248.865 26.868q2.194.249 3.939-1.197 1.744-1.395 1.994-3.589l12.862-119.434"/><path fill="#6A874A" d="M251.35 154.2L248 46.95l-224.7-22-8.95 105.25 237 24"/></g><g transform="matrix(.997 -.073 .073 .997 227.95 141.4)"><animateTransform attributeName="transform" additive="replace" type="translate" dur="1.625s" keyTimes="0;1" values="0,0;0,0" fill="freeze"/><animateTransform attributeName="transform" additive="sum" type="translate" repeatCount="indefinite" dur="1.625s" keyTimes="0;0.026;0.051;0.077;0.103;0.128;0.154;0.179;0.205;0.231;0.256;0.282;0.308;0.333;0.359;0.385;0.41;0.436;0.462;0.487;0.513;0.538;0.564;0.59;0.615;0.641;0.667;0.692;0.718;0.743;0.744;1" values="438.954,195.623;438.986,195.736;438.954,195.622;438.953,195.664;438.988,195.577;439.001,195.604;439.031,195.579;438.972,195.626;439.013,195.542;438.919,195.562;438.885,195.654;438.923,195.682;438.924,195.581;438.924,195.545;438.873,195.603;438.89,195.639;439.005,195.617;438.856,195.607;438.902,195.683;438.931,195.741;438.952,195.703;438.972,195.74;439.01,195.636;438.961,195.676;438.918,195.659;439.024,195.689;439.001,195.604;438.959,195.612;438.995,195.685;439.058,195.547;0;0" calcMode="discrete"/><animateTransform attributeName="transform" additive="sum" type="translate" repeatCount="indefinite" dur="1.625s" keyTimes="0;0.744;0.769;0.795;0.821;0.846;1" values="0;439.058,195.547;438.969,195.565;438.949,195.634;438.985,195.615;438.954,195.623;438.954,195.623" calcMode="discrete"/><animateTransform attributeName="transform" additive="sum" type="rotate" repeatCount="indefinite" dur="1.625s" keyTimes="0;0.026;0.051;0.077;0.103;0.128;0.154;0.179;0.205;0.231;0.256;0.282;0.308;0.333;0.359;0.385;0.41;0.436;0.462;0.487;0.513;0.538;0.564;0.59;0.615;0.641;0.667;0.692;0.718;0.743;0.744;1" values="-4.212,0,0;-5.023,0,0;-5.756,0,0;-6.253,0,0;-6.514,0,0;-6.644,0,0;-3.508,0,0;-0.759,0,0;1.523,0,0;3.527,0,0;5.253,0,0;6.511,0,0;7.303,0,0;8.004,0,0;8.184,0,0;5.768,0,0;3.539,0,0;1.549,0,0;-0.013,0,0;-1.523,0,0;-2.797,0,0;-4.018,0,0;-4.812,0,0;-5.556,0,0;-6.06,0,0;-6.511,0,0;-6.644,0,0;-5.815,0,0;-5.301,0,0;-5.004,0,0;0;0" calcMode="discrete"/><animateTransform attributeName="transform" additive="sum" type="rotate" repeatCount="indefinite" dur="1.625s" keyTimes="0;0.744;0.769;0.795;0.821;0.846;1" values="0;-5.004,0,0;-4.54,0,0;-4.291,0,0;-4.254,0,0;-4.212,0,0;-4.212,0,0" calcMode="discrete"/><animateTransform attributeName="transform" additive="sum" type="scale" repeatCount="indefinite" dur="1.625s" keyTimes="0;0.026;0.103;0.128;0.231;0.256;0.333;0.359;0.385;0.41;0.538;0.564;0.641;0.667;0.692;0.743;0.744;1" values="1,1;0.999,0.999;0.999,0.999;1,1;1,1;0.999,0.999;0.999,0.999;1,1;0.999,0.999;1,1;1,1;0.999,0.999;0.999,0.999;1,1;0.999,0.999;0.999,0.999;1;1" calcMode="discrete"/><animateTransform attributeName="transform" additive="sum" type="scale" repeatCount="indefinite" dur="1.625s" keyTimes="0;0.744;0.769;0.795;0.821;0.846;1" values="1;0.999,0.999;0.999,0.999;1,1;0.999,0.999;1,1;1,1" calcMode="discrete"/><animateTransform attributeName="transform" additive="sum" type="translate" repeatCount="indefinite" dur="1.625s" keyTimes="0;0.026;0.051;0.077;0.103;0.128;0.154;0.179;0.205;0.231;0.256;0.282;0.308;0.333;0.359;0.385;0.41;0.436;0.462;0.487;0.513;0.538;0.564;0.59;0.615;0.641;0.667;0.692;0.718;0.743;0.744;1" values="-206.45,-69.55;-206.5,-69.75;-206.45,-69.6;-206.45,-69.6;-206.45,-69.5;-206.6,-69.6;-206.55,-69.6;-206.5,-69.55;-206.5,-69.5;-206.45,-69.6;-206.45,-69.65;-206.55,-69.75;-206.55,-69.55;-206.55,-69.5;-206.25,-69.65;-206.35,-69.65;-206.35,-69.65;-206.2,-69.6;-206.3,-69.65;-206.3,-69.8;-206.3,-69.65;-206.35,-69.75;-206.3,-69.6;-206.25,-69.7;-206.25,-69.6;-206.35,-69.75;-206.6,-69.6;-206.5,-69.6;-206.45,-69.7;-206.5,-69.55;0;0" calcMode="discrete"/><animateTransform attributeName="transform" additive="sum" type="translate" repeatCount="indefinite" dur="1.625s" keyTimes="0;0.744;0.769;0.795;0.821;0.846;1" values="0;-206.5,-69.55;-206.45,-69.55;-206.5,-69.65;-206.5,-69.6;-206.45,-69.55;-206.45,-69.55" calcMode="discrete"/><path fill="#99C977" stroke="#1A344F" stroke-width="2.5" stroke-linecap="round" stroke-linejoin="round" d="M261.068 5.331q0-2.193-1.546-3.788-1.595-1.545-3.789-1.545L5.423.048q-2.244 0-3.789 1.595Q.039 3.188.039 5.431l.05 120.132q0 2.194 1.545 3.789 1.595 1.545 3.789 1.545l250.36-.05q2.194 0 3.789-1.545 1.546-1.595 1.546-3.789l-.05-120.182"/><path fill="#F2F9FD" d="M245.613 44.711q-11.466-1.496-19.392-9.92-7.977-8.474-8.774-20.039l-173.787.05q-.798 11.615-8.724 20.039-7.977 8.424-19.393 9.92v41.423q11.416 1.495 19.393 9.919 7.976 8.475 8.774 20.089l173.786-.05q.798-11.614 8.774-20.088 7.927-8.425 19.343-9.92V44.711"/><path fill="none" stroke="#1A344F" stroke-width="2.5" stroke-linecap="round" stroke-linejoin="round" d="M245.613 44.711q-11.466-1.496-19.392-9.92-7.977-8.474-8.774-20.039l-173.787.05q-.798 11.615-8.724 20.039-7.977 8.424-19.393 9.92v41.423q11.416 1.495 19.393 9.919 7.976 8.475 8.774 20.089l173.786-.05q.798-11.614 8.774-20.088 7.927-8.425 19.343-9.92V44.711"/><path fill="#7FA75B" stroke="#1A344F" stroke-width="2.5" stroke-linecap="round" stroke-linejoin="round" d="M115.896 58.419h.1v31.404h8.974V50.194h-7.678l-10.469 4.885 1.496 6.929 7.577-3.589"/><path fill="#7FA75B" d="M141.77 55.528q-3.689 5.483-3.689 14.555.05 8.973 3.589 14.406 3.889 5.982 11.167 5.982 7.379 0 11.317-5.733 3.739-5.433 3.739-14.904 0-8.873-3.39-14.207-3.839-6.081-11.317-6.081-7.378 0-11.416 5.982m11.267.997q5.583 0 5.583 13.409 0 13.508-5.533 13.508-2.742 0-4.238-3.29-1.545-3.389-1.495-10.069-.05-6.679 1.545-10.219 1.496-3.339 4.138-3.339"/><path fill="none" stroke="#1A344F" stroke-width="2.5" stroke-linecap="round" stroke-linejoin="round" d="M141.77 55.528q-3.689 5.483-3.689 14.555.05 8.973 3.589 14.406 3.889 5.982 11.167 5.982 7.379 0 11.317-5.733 3.739-5.433 3.739-14.904 0-8.873-3.39-14.207-3.839-6.081-11.317-6.081-7.378 0-11.416 5.982"/><path fill="none" stroke="#1A344F" stroke-width="2.5" stroke-linecap="round" stroke-linejoin="round" d="M153.037 56.525q5.583 0 5.583 13.409 0 13.508-5.533 13.508-2.742 0-4.238-3.29-1.545-3.389-1.495-10.069-.05-6.679 1.545-10.219 1.496-3.339 4.138-3.339"/><path fill="#7FA75B" d="M202.391 55.627q-3.889-6.081-11.366-6.081-7.379 0-11.367 5.982-3.739 5.483-3.739 14.555.1 8.973 3.59 14.406 3.938 5.982 11.216 5.982 7.379 0 11.317-5.733 3.739-5.433 3.739-14.904 0-8.873-3.39-14.207m-11.466.898q5.583 0 5.583 13.409 0 13.508-5.533 13.508-2.742 0-4.238-3.29-1.545-3.389-1.495-10.069-.05-6.679 1.545-10.219 1.496-3.339 4.138-3.339"/><path fill="none" stroke="#1A344F" stroke-width="2.5" stroke-linecap="round" stroke-linejoin="round" d="M202.391 55.627q-3.889-6.081-11.366-6.081-7.379 0-11.367 5.982-3.739 5.483-3.739 14.555.1 8.973 3.59 14.406 3.938 5.982 11.216 5.982 7.379 0 11.317-5.733 3.739-5.433 3.739-14.904 0-8.873-3.39-14.207"/><path fill="none" stroke="#1A344F" stroke-width="2.5" stroke-linecap="round" stroke-linejoin="round" d="M190.925 56.525q5.583 0 5.583 13.409 0 13.508-5.533 13.508-2.742 0-4.238-3.29-1.545-3.389-1.495-10.069-.05-6.679 1.545-10.219 1.496-3.339 4.138-3.339"/><path fill="#68BB8A" d="M71.877 48.001q-2.742.847-4.886 2.991-1.645 1.645-2.642 4.037-.898 2.343-.898 5.085 0 4.386 2.443 7.427 2.343 3.09 7.977 4.735l.897.25v7.726q-.648-.399-.848-.847-.498-.848-.847-3.789-.05-.648-.548-1.047-.449-.448-1.097-.448h-7.179q-.698 0-1.196.498-.499.499-.499 1.147-.05 8.324 5.235 11.814 2.592 1.694 7.029 2.342v3.789q0 .748.448 1.196.599.499 1.247.499h2.542q.698 0 1.197-.499.498-.498.498-1.196v-3.789q3.64-.598 6.282-2.243 5.683-3.489 5.683-11.166 0-5.882-4.188-9.171-2.393-1.745-7.777-3.689v-6.53q.2.149.399.548.449.698.598 2.742.1.698.549 1.096.498.449 1.146.449h6.98q.748 0 1.196-.498.499-.499.499-1.197-.2-7.278-5.335-10.518-2.243-1.694-6.032-2.293v-2.043q0-.698-.498-1.197-.598-.498-1.197-.498h-2.592q-.698 0-1.197.498-.498.499-.498 1.197v1.994q-1.745.199-2.891.598m2.891 8.873v4.685l-.1-.099q-.997-.798-.997-2.194 0-1.395.648-2.044.15-.199.449-.348m6.281 18.144q.948.798.948 2.293 0 2.193-.948 2.841l-.299.2v-5.583l.299.249"/><path fill="#7FA75B" d="M71.877 48.001q-2.742.847-4.886 2.991-1.645 1.645-2.642 4.037-.898 2.343-.898 5.085 0 4.386 2.443 7.427 2.343 3.09 7.977 4.735l.897.25v7.726q-.648-.399-.848-.847-.498-.848-.847-3.789-.05-.648-.548-1.047-.449-.448-1.097-.448h-7.179q-.698 0-1.196.498-.499.499-.499 1.147-.05 8.324 5.235 11.814 2.592 1.694 7.029 2.342v3.789q0 .748.448 1.196.599.499 1.247.499h2.542q.698 0 1.197-.499.498-.498.498-1.196v-3.789q3.64-.598 6.282-2.243 5.683-3.489 5.683-11.166 0-5.882-4.188-9.171-2.393-1.745-7.777-3.689v-6.53q.2.149.399.548.449.698.598 2.742.1.698.549 1.096.498.449 1.146.449h6.98q.748 0 1.196-.498.499-.499.499-1.197-.2-7.278-5.335-10.518-2.243-1.694-6.032-2.293v-2.043q0-.698-.498-1.197-.598-.498-1.197-.498h-2.592q-.698 0-1.197.498-.498.499-.498 1.197v1.994q-1.745.199-2.891.598m2.891 8.873v4.685l-.1-.099q-.997-.798-.997-2.194 0-1.395.648-2.044.15-.199.449-.348m6.281 18.144q.948.798.948 2.293 0 2.193-.948 2.841l-.299.2v-5.583l.299.249"/><path fill="none" stroke="#1A344F" stroke-width="2.5" stroke-linecap="round" stroke-linejoin="round" d="M71.877 48.001q-2.742.847-4.886 2.991-1.645 1.645-2.642 4.037-.898 2.343-.898 5.085 0 4.386 2.443 7.427 2.343 3.09 7.977 4.735l.897.25v7.726q-.648-.399-.848-.847-.498-.848-.847-3.789-.05-.648-.548-1.047-.449-.448-1.097-.448h-7.179q-.698 0-1.196.498-.499.499-.499 1.147-.05 8.324 5.235 11.814 2.592 1.694 7.029 2.342v3.789q0 .748.448 1.196.599.499 1.247.499h2.542q.698 0 1.197-.499.498-.498.498-1.196v-3.789q3.64-.598 6.282-2.243 5.683-3.489 5.683-11.166 0-5.882-4.188-9.171-2.393-1.745-7.777-3.689v-6.53q.2.149.399.548.449.698.598 2.742.1.698.549 1.096.498.449 1.146.449h6.98q.748 0 1.196-.498.499-.499.499-1.197-.2-7.278-5.335-10.518-2.243-1.694-6.032-2.293v-2.043q0-.698-.498-1.197-.598-.498-1.197-.498h-2.592q-.698 0-1.197.498-.498.499-.498 1.197v1.994q-1.745.199-2.891.598"/><path fill="none" stroke="#1A344F" stroke-width="2.5" stroke-linecap="round" stroke-linejoin="round" d="M74.768 56.874v4.685l-.1-.099q-.997-.798-.997-2.194 0-1.395.648-2.044.15-.199.449-.348M81.049 75.018q.948.798.948 2.293 0 2.193-.948 2.841l-.299.2v-5.583l.299.249"/><path fill="#71AE39" fill-opacity=".29" d="M15.504.05H7.976q-3.29 0-5.633 2.343T0 8.026v116.593q0 3.339 2.393 5.682 2.343 2.343 5.683 2.293l228.475-1.695q-64.21-.049-113.365-20.537Q83.902 94.012 55.985 65.4 36.044 44.963 23.78 20.487 17.648 8.225 15.504.05"/><path fill="none" stroke="#1A344F" stroke-width="2.5" stroke-linecap="round" stroke-linejoin="round" d="M261.068 5.331q0-2.193-1.546-3.788-1.595-1.545-3.789-1.545L5.423.048q-2.244 0-3.789 1.595Q.039 3.188.039 5.431l.05 120.132q0 2.194 1.545 3.789 1.595 1.545 3.789 1.545l250.36-.05q2.194 0 3.789-1.545 1.546-1.595 1.546-3.789l-.05-120.182"/></g></g></svg>