<svg xmlns:xlink="http://www.w3.org/1999/xlink" xmlns="http://www.w3.org/2000/svg" baseProfile="basic" width="695" height="461" viewBox="0 0 695 461" preserveAspectRatio="xMinYMin meet"><defs><symbol id="a" overflow="visible"><path fill="#EAB091" d="M-53.05-5q1.65 1.15 3.65 1.15l35.7-.875V-5.1q0-1.75.15-5.8.2-4.1.3-5.1.079-.571.15-1.1l-40.6.75-2 6.95.4 1.3q.65 1.9 2.25 3.1"/><path fill="none" stroke="#1A344F" stroke-width="2.5" stroke-linecap="round" stroke-linejoin="round" d="M-53.05-5q1.65 1.15 3.65 1.15l35.7-.875m.6-12.375l-40.6.75m-1.6 8.25q.65 1.9 2.25 3.1"/></symbol><symbol id="b" overflow="visible"><path fill="#EAB091" d="M-66.899-72.799q-5.1 0-8.7 3.6-3.65 3.6-3.65 8.75 0 4.7 3.15 8.25 3.1 3.45 7.75 4l13.1 40.15q.65 1.9 2.25 3.1 1.65 1.15 3.65 1.15l1.025-.025q-6.444-1.675 3.425-12.475l-12.05-36.8q2.45-3.45 2.45-7.35 0-5.15-3.65-8.75-3.6-3.6-8.75-3.6"/><path fill="none" stroke="#1A344F" stroke-width="2.5" stroke-linecap="round" stroke-linejoin="round" d="M-66.899-72.799q-5.1 0-8.7 3.6-3.65 3.6-3.65 8.75 0 4.7 3.15 8.25 3.1 3.45 7.75 4l13.1 40.15q.65 1.9 2.25 3.1 1.65 1.15 3.65 1.15m4.45-12.5l-12.05-36.8q2.45-3.45 2.45-7.35 0-5.15-3.65-8.75-3.6-3.6-8.75-3.6"/></symbol><symbol id="c" overflow="visible"><path fill="#FFF" d="M-4.45-.6l-4.7-20.65-24.05.5.5 20.6L-4.45-.6M-4.35-.3l-.15.1.3.2-.15-.3"/><path fill="none" stroke="#1A344F" stroke-width="2.5" stroke-linecap="round" stroke-linejoin="round" d="M-33.2-20.75l24.05-.5M-32.7-.15l-.5-20.6M-4.45-.6l-28.25.45M-4.45-.6H-4"/></symbol><symbol id="g" overflow="visible"><use xlink:href="#a"/><use xlink:href="#b"/><use xlink:href="#c"/></symbol><symbol id="d" overflow="visible"><path fill="#EAB091" d="M135.55-15.95q-.492.817-.9 1.525l34 13.925q1.05.5 2.35.5 1.8 0 3.35-1l33.6-21.85q2.55 1.2 5.3 1.2 5.1 0 8.75-3.6 3.6-3.65 3.6-8.75 0-5.15-3.6-8.75-3.65-3.6-8.75-3.6-5.15 0-8.75 3.6-3.6 3.6-3.6 8.75l.05 1-30.6 19.85L141.475-25q-2.261 3.122-2.375 3.35-2.05 3.3-3.55 5.7"/><path fill="none" stroke="#1A344F" stroke-width="2.5" stroke-linecap="round" stroke-linejoin="round" d="M134.65-14.425l34 13.925q1.05.5 2.35.5 1.8 0 3.35-1l33.6-21.85q2.55 1.2 5.3 1.2 5.1 0 8.75-3.6 3.6-3.65 3.6-8.75 0-5.15-3.6-8.75-3.65-3.6-8.75-3.6-5.15 0-8.75 3.6-3.6 3.6-3.6 8.75l.05 1-30.6 19.85L141.475-25"/></symbol><symbol id="e" overflow="visible"><path fill="#FFF" d="M159.901-21.849l-24.875-11.1q-8.504 3.229-10.875 20.1l27.95 10.05 7.8-19.05"/><path fill="none" stroke="#1A344F" stroke-width="2.5" stroke-linecap="round" stroke-linejoin="round" d="M159.901-21.849l-24.875-11.1m-10.875 20.1l27.95 10.05 7.8-19.05"/></symbol><symbol id="f" overflow="visible"><use xlink:href="#d"/><use xlink:href="#e"/></symbol></defs><g overflow="visible"><path fill="#F9F9F9" d="M695.038.051H.04v461.1h694.998V.051"/><path fill="none" stroke="#1A344F" stroke-width="2.5" stroke-linecap="round" stroke-linejoin="round" d="M63.051 370.201h572.75"/><path fill="#99C977" stroke="#1A344F" stroke-width="2.5" stroke-linecap="round" stroke-linejoin="round" d="M269.051 370.151l-96.3-194.15-96.3 194.15h192.6"/><path fill="#99C977" stroke="#1A344F" stroke-width="2.5" stroke-linecap="round" stroke-linejoin="round" d="M244.051 282.951l-71.3-143.75-71.3 143.75h142.6"/><path fill="#99C977" stroke="#1A344F" stroke-width="2.5" stroke-linecap="round" stroke-linejoin="round" d="M126.451 195.801h92.6l-46.3-93.4-46.3 93.4"/><path fill="#F0B971" stroke="#1A344F" stroke-width="2.5" stroke-linecap="round" stroke-linejoin="round" d="M166.451 92.051l-14.8 2.4 10.55 10.6-2.25 14.8 13.35-6.75 13.35 6.75-2.3-14.8 10.55-10.6-14.8-2.4-6.8-13.3-6.85 13.3"/><path fill="#E8654F" stroke="#1A344F" stroke-width="2.5" stroke-linecap="round" stroke-linejoin="round" d="M185.651 151.851q0-4.7-3.35-8-3.3-3.35-8-3.35t-8 3.35q-3.3 3.3-3.3 8t3.3 8q3.3 3.3 8 3.3t8-3.3q3.35-3.3 3.35-8"/><path fill="#5CB7E9" stroke="#1A344F" stroke-width="2.5" stroke-linecap="round" stroke-linejoin="round" d="M167.901 252.001q-3.3-3.35-8-3.35t-8 3.35q-3.35 3.3-3.35 8t3.35 8q3.3 3.35 8 3.35t8-3.35q3.3-3.3 3.3-8t-3.3-8"/><path fill="#F0B971" stroke="#1A344F" stroke-width="2.5" stroke-linecap="round" stroke-linejoin="round" d="M177.401 347.551q0-4.7-3.3-8-3.35-3.3-8.05-3.3-4.7 0-8 3.3t-3.3 8q0 4.7 3.3 8 3.3 3.35 8 3.35t8.05-3.35q3.3-3.3 3.3-8"/><path fill="#7EB8DB" stroke="#1A344F" stroke-width="2.5" stroke-linecap="round" stroke-linejoin="round" d="M462.751 258.951h-43.7q-5.75 0-9.9 4.1-4.1 4.15-4.1 9.9v97.25h57.7v-111.25"/><path fill="#7AC7EE" stroke="#1A344F" stroke-width="2.5" stroke-linecap="round" stroke-linejoin="round" d="M477.151 272.951q0-5.8-4.1-9.9-4.1-4.1-9.9-4.1h-.8q-5.8 0-9.9 4.1-4.1 4.1-4.1 9.9v97.25h28.8v-97.25M396.401 233.651q-3.5-3.5-8.5-3.5h-58.4q-5 0-8.5 3.5t-3.5 8.5v70.4h82.4v-70.4q0-5-3.5-8.5"/><path fill="#7AC7EE" stroke="#1A344F" stroke-width="2.5" stroke-linecap="round" stroke-linejoin="round" d="M416.401 312.551v-70.4q0-5-3.5-8.5-3.55-3.5-8.5-3.5h-58.4q-5 0-8.5 3.5t-3.5 8.5v70.4h82.4"/><path fill="#7EB8DB" stroke="#1A344F" stroke-width="2.5" stroke-linecap="round" stroke-linejoin="round" d="M314.001 233.651q-3.5-3.5-8.5-3.5h-58.4q-5 0-8.5 3.5t-3.5 8.5v70.4h82.4v-70.4q0-5-3.5-8.5"/><path fill="#7AC7EE" stroke="#1A344F" stroke-width="2.5" stroke-linecap="round" stroke-linejoin="round" d="M263.551 230.151q-4.95 0-8.45 3.5-3.55 3.5-3.55 8.5v70.4h82.45v-70.4q0-5-3.5-8.5-3.55-3.5-8.5-3.5h-58.45"/><path fill="#7EB8DB" stroke="#1A344F" stroke-width="2.5" stroke-linecap="round" stroke-linejoin="round" d="M225.401 258.951q-5.8 0-9.9 4.1-4.1 4.1-4.1 9.9v97.25h57.7v-111.25h-43.7"/><path fill="#7AC7EE" stroke="#1A344F" stroke-width="2.5" stroke-linecap="round" stroke-linejoin="round" d="M283.501 272.951q0-5.8-4.1-9.9-4.1-4.1-9.9-4.1h-.85q-5.75 0-9.9 4.1-4.1 4.15-4.1 9.9v97.25h28.85v-97.25"/><path fill="#7AC7EE" stroke="#1A344F" stroke-width="2.5" stroke-linecap="round" stroke-linejoin="round" d="M279.401 312.551v20.6h86.5v-20.6h-86.5M448.351 370.201v-37.05h-164.85v37.05h164.85M452.451 333.151v-20.6h-86.55v20.6h86.55"/><path fill="#B57D66" fill-opacity=".259" d="M514.7 240.4q0-34.8-13.45-66.55-12.95-30.7-36.65-54.35-23.65-23.7-54.35-36.65Q378.5 69.4 343.7 69.4t-66.55 13.45q-30.7 12.95-54.35 36.65-23.7 23.65-36.65 54.35-13.45 31.75-13.45 66.55 0 34.75 13.45 66.55 12.95 30.7 36.65 54.35 23.65 23.65 54.35 36.65 31.75 13.45 66.55 13.45t66.55-13.45q30.7-13 54.35-36.65 23.7-23.65 36.65-54.35 13.45-31.75 13.45-66.55M394.75 103.3q23.75 8.9 43.2 25.35l-206 206q-16.45-19.5-25.35-43.25-9.2-24.6-9.2-51 0-29.7 11.5-56.9 11.15-26.25 31.4-46.5t46.5-31.4q27.2-11.5 56.9-11.5 26.45 0 51.05 9.2m95.2 137.1q0 29.7-11.5 56.9-11.15 26.2-31.4 46.45-20.25 20.25-46.45 31.4-27.2 11.5-56.9 11.5-26.45 0-51.05-9.2-23.75-8.85-43.2-25.3l206-206.05q16.45 19.5 25.35 43.25 9.15 24.6 9.15 51.05"/><path fill="#E8654F" d="M349.451 69.451q-34.8 0-66.55 13.45-30.7 12.95-54.35 36.65-23.7 23.65-36.65 54.35-13.45 31.75-13.45 66.55 0 34.75 13.45 66.55 12.95 30.7 36.65 54.35 23.65 23.65 54.35 36.65 31.75 13.45 66.55 13.45t66.55-13.45q30.7-13 54.35-36.65 23.7-23.65 36.65-54.35 13.45-31.75 13.45-66.55t-13.45-66.55q-12.95-30.7-36.65-54.35-23.65-23.7-54.35-36.65-31.75-13.45-66.55-13.45m51.05 33.9q23.75 8.9 43.2 25.35l-206 206q-16.45-19.5-25.35-43.25-9.2-24.6-9.2-51 0-29.7 11.5-56.9 11.15-26.25 31.4-46.5t46.5-31.4q27.2-11.5 56.9-11.5 26.45 0 51.05 9.2m86 86.05q9.2 24.6 9.2 51.05 0 29.7-11.5 56.9-11.15 26.2-31.4 46.45-20.25 20.25-46.45 31.4-27.2 11.5-56.9 11.5-26.45 0-51.05-9.2-23.75-8.85-43.25-25.3l206.05-206.05q16.45 19.5 25.3 43.25"/><path fill="none" stroke="#1A344F" stroke-width="2.5" stroke-linecap="round" stroke-linejoin="round" d="M349.451 69.451q-34.8 0-66.55 13.45-30.7 12.95-54.35 36.65-23.7 23.65-36.65 54.35-13.45 31.75-13.45 66.55 0 34.75 13.45 66.55 12.95 30.7 36.65 54.35 23.65 23.65 54.35 36.65 31.75 13.45 66.55 13.45t66.55-13.45q30.7-13 54.35-36.65 23.7-23.65 36.65-54.35 13.45-31.75 13.45-66.55t-13.45-66.55q-12.95-30.7-36.65-54.35-23.65-23.7-54.35-36.65-31.75-13.45-66.55-13.45"/><path fill="none" stroke="#1A344F" stroke-width="2.5" stroke-linecap="round" stroke-linejoin="round" d="M400.501 103.351q23.75 8.9 43.2 25.35l-206 206q-16.45-19.5-25.35-43.25-9.2-24.6-9.2-51 0-29.7 11.5-56.9 11.15-26.25 31.4-46.5t46.5-31.4q27.2-11.5 56.9-11.5 26.45 0 51.05 9.2M486.501 189.401q9.2 24.6 9.2 51.05 0 29.7-11.5 56.9-11.15 26.2-31.4 46.45-20.25 20.25-46.45 31.4-27.2 11.5-56.9 11.5-26.45 0-51.05-9.2-23.75-8.85-43.25-25.3l206.05-206.05q16.45 19.5 25.3 43.25"/><path fill="#84B055" d="M175.101 196.551h-30.15l-24 50.2 54.15-50.2"/><path fill="#F0B971" stroke="#1A344F" stroke-width="2.5" stroke-linecap="round" stroke-linejoin="round" d="M123.051 213.901q-3.35 3.3-3.35 8t3.35 8q3.3 3.3 8 3.3t8-3.3q3.35-3.3 3.35-8t-3.35-8q-3.3-3.35-8-3.35t-8 3.35"/><path fill="#84B055" d="M179.151 117.401l-5.85-2.65-7.15 3.5-37.35 75.5 50.35-76.35M172.301 284.251h-52.3l-40.45 81.55 92.75-81.55"/><path fill="#E8654F" stroke="#1A344F" stroke-width="2.5" stroke-linecap="round" stroke-linejoin="round" d="M105.051 334.401q-3.3-3.3-8-3.3t-8 3.3q-3.35 3.3-3.35 8t3.35 8q3.3 3.35 8 3.35t8-3.35q3.35-3.3 3.35-8t-3.35-8"/><path fill="#7AC7EE" stroke="#1A344F" stroke-width="2.5" stroke-linecap="round" stroke-linejoin="round" d="M152.701 308.401q0-4.7-3.35-8-3.3-3.3-8-3.3t-8 3.3q-3.35 3.3-3.35 8t3.35 8q3.3 3.35 8 3.35t8-3.35q3.35-3.3 3.35-8"/><path fill="#A17E64" stroke="#1A344F" stroke-width="2.5" stroke-linecap="round" stroke-linejoin="round" d="M524.551 296.051h-8.25v74.15h8.25v-74.15"/><path fill="#BE9A7B" stroke="#1A344F" stroke-width="2.5" stroke-linecap="round" stroke-linejoin="round" d="M532.801 296.051h-8.25v74.15h8.25v-74.15"/><path fill="#A17E64" stroke="#1A344F" stroke-width="2.5" stroke-linecap="round" stroke-linejoin="round" d="M553.401 296.051h-8.25v74.15h8.25v-74.15"/><path fill="#BE9A7B" stroke="#1A344F" stroke-width="2.5" stroke-linecap="round" stroke-linejoin="round" d="M561.651 296.051h-8.25v74.15h8.25v-74.15"/><path fill="#A17E64" stroke="#1A344F" stroke-width="2.5" stroke-linecap="round" stroke-linejoin="round" d="M619.351 296.051h-8.25v74.15h8.25v-74.15"/><path fill="#BE9A7B" stroke="#1A344F" stroke-width="2.5" stroke-linecap="round" stroke-linejoin="round" d="M627.551 296.051h-8.2v74.15h8.2v-74.15"/><path fill="#BE9A7B" stroke="#1A344F" stroke-width="2.5" stroke-linecap="round" stroke-linejoin="round" d="M627.551 334.151v-74.15h-74.15v74.15h74.15"/><path fill="#A17E64" stroke="#1A344F" stroke-width="2.5" stroke-linecap="round" stroke-linejoin="round" d="M553.401 334.151v-74.15h-37.1v74.15h37.1"/><path fill="#BE9A7B" stroke="#1A344F" stroke-width="2.5" stroke-linecap="round" stroke-linejoin="round" d="M635.801 260.001v-12.35h-90.65v12.35h90.65"/><path fill="#A17E64" stroke="#1A344F" stroke-width="2.5" stroke-linecap="round" stroke-linejoin="round" d="M545.151 260.001v-12.35h-37.05v12.35h37.05"/><path fill="#E0E0E0" stroke="#1A344F" stroke-width="2.5" stroke-linecap="round" stroke-linejoin="round" d="M612.851 163.451q-2.35-2.35-5.65-2.35h-74.65q-3.3 0-5.65 2.35-2.35 2.35-2.35 5.65v62.3q0 3.3 2.35 5.65 2.35 2.35 5.65 2.35h74.65q3.3 0 5.65-2.35 2.35-2.35 2.35-5.65v-62.3q0-3.3-2.35-5.65"/><path fill="#E0E0E0" stroke="#1A344F" stroke-width="2.5" stroke-linecap="round" stroke-linejoin="round" d="M623.451 169.101q0-3.3-2.35-5.65-2.35-2.35-5.65-2.35h-74.65q-3.3 0-5.65 2.35-2.35 2.35-2.35 5.65v62.3q0 3.3 2.35 5.65 2.35 2.35 5.65 2.35h74.65q3.3 0 5.65-2.35 2.35-2.35 2.35-5.65v-62.3"/><path fill="#E0E0E0" stroke="#1A344F" stroke-width="2.5" stroke-linecap="round" stroke-linejoin="round" d="M588.401 218.551q0-3.3-2.35-5.65-2.3-2.35-5.65-2.35h-4.6q-3.3 0-5.65 2.35-2.35 2.35-2.35 5.65v29.1h20.6v-29.1"/><path fill="#E0E0E0" stroke="#1A344F" stroke-width="2.5" stroke-linecap="round" stroke-linejoin="round" d="M596.651 218.551q0-3.3-2.35-5.65-2.3-2.35-5.65-2.35h-4.6q-3.3 0-5.65 2.35-2.35 2.35-2.35 5.65v29.1h20.6v-29.1"/><use xlink:href="#f" transform="translate(252.55 216.7)"><animateTransform attributeName="transform" additive="replace" type="translate" repeatCount="indefinite" dur="0.5s" keyTimes="0;0.083;0.167;0.25;0.333;0.417;0.5;0.583;0.667;0.75;0.833;0.917;1" values="387.8,184.101;387.806,184.077;387.827,184.084;387.863,184.158;387.686,184.173;387.771,184.123;387.758,184.186;387.843,184.061;387.837,184.157;387.857,184.166;387.868,184.076;387.756,184.085;387.8,184.101" calcMode="discrete"/><animateTransform attributeName="transform" additive="sum" type="rotate" repeatCount="indefinite" dur="0.5s" keyTimes="0;0.083;0.167;0.25;0.333;0.417;0.5;0.583;0.667;0.75;0.833;0.917;1" values="0,0,0;-5.05,0,0;-10.29,0,0;-15.533,0,0;-20.78,0,0;-25.84,0,0;-31.161,0,0;-25.841,0,0;-20.78,0,0;-15.533,0,0;-10.29,0,0;-5.05,0,0;0,0,0" calcMode="discrete"/><animateTransform attributeName="transform" additive="sum" type="scale" repeatCount="indefinite" dur="0.5s" keyTimes="0;0.083;0.167;0.25;0.333;0.417;0.5;0.583;0.667;0.75;0.833;0.917;1" values="1,1;0.999,0.999;0.999,0.999;0.998,0.998;0.998,0.998;0.997,0.997;0.999,0.999;0.997,0.997;0.998,0.998;0.998,0.998;0.999,0.999;0.999,0.999;1,1" calcMode="discrete"/><animateTransform attributeName="transform" additive="sum" type="translate" repeatCount="indefinite" dur="0.5s" keyTimes="0;0.083;0.167;0.25;0.333;0.417;0.5;0.583;0.667;0.75;0.833;0.917;1" values="-135.25,32.599;-135.3,32.649;-135.25,32.599;-135.25,32.499;-135.2,32.599;-135.2,32.649;-135.15,32.599;-135.25,32.699;-135.25,32.599;-135.25,32.699;-135.3,32.649;-135.2,32.649;-135.25,32.599" calcMode="discrete"/></use><use xlink:href="#g" transform="matrix(.977 -.215 .215 .977 336.3 208.95)"><animateTransform attributeName="transform" additive="replace" type="translate" repeatCount="indefinite" dur="0.5s" keyTimes="0;0.083;0.167;0.25;0.333;0.417;0.5;0.583;0.667;0.75;0.833;0.917;1" values="318.813,190.191;318.889,190.199;318.75,190.203;318.833,190.163;318.837,190.246;318.897,190.211;318.846,190.19;318.857,190.213;318.751,190.285;318.881,190.213;318.752,190.255;318.833,190.163;318.813,190.191" calcMode="discrete"/><animateTransform attributeName="transform" additive="sum" type="rotate" repeatCount="indefinite" dur="0.5s" keyTimes="0;0.083;0.167;0.25;0.333;0.417;0.5;0.583;0.667;0.75;0.833;0.917;1" values="-12.437,0,0;-7.511,0,0;-2.533,0,0;2.255,0,0;7.046,0,0;12.028,0,0;16.979,0,0;12.027,0,0;7.047,0,0;2.256,0,0;-2.533,0,0;-7.511,0,0;-12.437,0,0" calcMode="discrete"/><animateTransform attributeName="transform" additive="sum" type="scale" repeatCount="indefinite" dur="0.5s" keyTimes="0;0.083;0.167;0.25;0.333;0.667;0.75;0.833;0.917;1" values="0.999,0.999;0.999,0.999;1,1;1,1;0.999,0.999;0.999,0.999;1,1;1,1;0.999,0.999;0.999,0.999" calcMode="discrete"/><animateTransform attributeName="transform" additive="sum" type="translate" repeatCount="indefinite" dur="0.5s" keyTimes="0;0.083;0.167;0.25;0.333;0.417;0.5;0.583;0.667;0.75;0.833;0.917;1" values="12.999,22.049;12.949,22.099;13.099,22.099;12.999,22.099;12.999,21.949;12.999,22.099;13.049,22.049;12.999,22.149;13.099,22.049;12.999,22.049;13.149,22.049;13.049,22.149;12.999,22.049" calcMode="discrete"/></use><path fill="#FFF" stroke="#1A344F" stroke-width="2.5" stroke-linecap="round" stroke-linejoin="round" d="M451.951 361.501q-3.65-3.65-8.75-3.65h-28.85l-2.1 12.35h43.3q0-5.1-3.6-8.7"/><path fill="#EE9872" stroke="#1A344F" stroke-width="2.5" stroke-linecap="round" stroke-linejoin="round" d="M434.151 287.851l-12.85 8.2-3.3 61.8h12.4l3.75-70M347.201 263.751l-12.05 2.8 12.5 53.7-48.2 34.65 7.25 10.05 54.85-39.5-14.35-61.7"/><path fill="#817890" stroke="#1A344F" stroke-width="2.5" stroke-linecap="round" stroke-linejoin="round" d="M438.451 285.851q-1.75-3.15-4.95-4.85l-41.35-21.95-.15-1.25-1.8.2-7.15-3.75-2.65 5-27.1 3.4-.05-.3-2.65.6-15.85 2 .2 1.65-5.8 1.35 11.55 49.65-19.1 13.75 14.45 20.05 25.75-18.55q3.05-2.15 4.35-5.65 1.35-3.5.5-7.15l-9.15-39.25 18.5-2.3 38.95 20.65-2 37.45 24.7 1.3 2.4-45.3q.2-3.6-1.6-6.75"/><path fill="#FFF" stroke="#1A344F" stroke-width="2.5" stroke-linecap="round" stroke-linejoin="round" d="M331.401 361.501q-3.6-3.65-8.75-3.65h-12.7l-8-8-10.2 7.3 13.1 13.05h30.15q0-5.1-3.6-8.7"/><path fill="#726C85" d="M333.751 284.251l64.75-22.7-69.35 6.4 4.6 16.3"/><path fill="#FFF" d="M388.175 184l-.675-.3-34-1-35 8.25h-.175l1.025 20.75 5.25 56.65 73.85-6.85-5.1-56q-9.285-22.976-5.175-21.5"/><path fill="none" stroke="#1A344F" stroke-width="2.5" stroke-linecap="round" stroke-linejoin="round" d="M387.5 183.7l-34-1-35 8.25m.85 20.75l5.25 56.65 73.85-6.85-5.1-56"/><path fill="#EAB091" stroke="#1A344F" stroke-width="2.5" stroke-linecap="round" stroke-linejoin="round" d="M368.401 177.901l-18.35-2.45-1.8 13.55q-.5 3.7 1.8 6.65 2.25 2.95 5.95 3.45l.55.1q3.65.5 6.65-1.8 2.95-2.25 3.45-5.95l1.75-13.55M329.251 137.451q-4-3.35-9.15-2.9-5.15.45-8.5 4.45-3.3 3.95-2.85 9.15.45 5.15 4.45 8.5 3.95 3.3 9.15 2.85 5.15-.45 8.5-4.45 3.3-3.95 2.85-9.15-.45-5.15-4.45-8.45M408.201 136.101q-4-3.35-9.15-2.85-5.15.45-8.5 4.45-3.3 3.95-2.85 9.1.45 5.15 4.45 8.5 3.95 3.35 9.15 2.9 5.15-.5 8.45-4.45 3.35-4 2.9-9.15-.45-5.2-4.45-8.5"/><path fill="#F0B971" stroke="#1A344F" stroke-width="2.5" stroke-linecap="round" stroke-linejoin="round" d="M407.001 89.201l-11.35 3.4-1.05 9.45q-1.05 11-1.2 18.7-.45 24.55 8.55 6.7 9.05-17.85 7.95-29.85-.35-3.7-1.65-6.45l-1.25-1.95"/><path fill="#D6A387" d="M367.301 180.301l-17.85.65-1.35 14.85 19.2-15.5"/><path fill="none" stroke="#1A344F" stroke-width="2.5" stroke-linecap="round" stroke-linejoin="round" d="M368.401 177.901l-18.35-2.45-1.8 13.55q-.5 3.7 1.8 6.65 2.25 2.95 5.95 3.45l.55.1q3.65.5 6.65-1.8 2.95-2.25 3.45-5.95l1.75-13.55"/><path fill="#EAB091" stroke="#1A344F" stroke-width="2.5" stroke-linecap="round" stroke-linejoin="round" d="M317.451 90.001q-3.7 10.75-1.9 30.65l4.1 24.75q1.45 16.1 13.8 26.45 12.4 10.4 28.5 8.95l5.35-.5q16.1-1.4 26.45-13.8 10.4-12.4 8.95-28.5l-.35-25.1q-1.35-15-13.35-20.75-10.05-4.8-28-3.2l-23.95-11.35q-14.6-1.95-19.6 12.4"/><path fill="#FFF" stroke="#1A344F" stroke-width="2.5" stroke-linecap="round" stroke-linejoin="round" d="M366.401 165.851q.7-2.45-.6-4.65-1.25-2.2-3.75-2.9-2.45-.65-4.7.6-2.2 1.25-2.9 3.7-.65 2.5.6 4.7 1.3 2.25 3.75 2.9 2.5.7 4.7-.6 2.25-1.25 2.9-3.75"/><path fill="none" stroke="#1A344F" stroke-width="2.5" stroke-linecap="round" stroke-linejoin="round" d="M332.201 119.851l13.35 4.5M385.151 120.301l-12.35 4.05M355.551 145.351q-2.25-2.1-2.35-5.15m2.35 5.15q2.2 2.05 5.25 1.95 3.1-.1 5.15-2.35 2.05-2.2 1.95-5.3"/><path fill="#D6A387" d="M325.201 96.151l-5.7-3.4-.55 22.85q-.25 24.65 1.2 33.5 7.65 26.1 33.15 30.15 12.75 2.05 23.95-1.15-39.6-8.8-49.8-46.25-3.15-11.7-3.05-24.85l.8-10.85"/><path fill="none" stroke="#1A344F" stroke-width="2.5" stroke-linecap="round" stroke-linejoin="round" d="M317.451 90.001q-3.7 10.75-1.9 30.65l4.1 24.75q1.45 16.1 13.8 26.45 12.4 10.4 28.5 8.95l5.35-.5q16.1-1.4 26.45-13.8 10.4-12.4 8.95-28.5l-.35-25.1q-1.35-15-13.35-20.75-10.05-4.8-28-3.2l-23.95-11.35q-14.6-1.95-19.6 12.4"/><path fill="#F0B971" stroke="#1A344F" stroke-width="2.5" stroke-linecap="round" stroke-linejoin="round" d="M327.001 64.651q-5.6 0-9.75 3.7-4.1 3.7-4.5 9.15-1.15 14.95-.65 24.8.75 17.1 5.75 32.65l1.65-42.2 18.95 7.15q21.5 7.05 34.3 6.65 16.75-.55 28.35-11.35 12.85-12 11.45-30.55h-85.55"/><path fill="none" stroke="#1A344F" stroke-width="2.5" stroke-linecap="round" stroke-linejoin="round" d="M405.701 58.801q-1.8 6.1-7.1 12.05-10.65 11.85-28.3 11.05M378.251 75.801q-2.35.55-3.95.8"/><path fill="none" stroke="#1A344F" stroke-width="2.5" stroke-linecap="round" stroke-linejoin="round" d="M398.101 61.001q-5.85 9.4-15.7 13.4m15.7-13.4q2.9-4.75 3.85-8.65M339.451 127.201v4.65M380.151 127.201v4.65"/><path fill="#CD9C5B" d="M323.351 65.651q-10.05 4.55-10.9 16.3-.85 10.95 2.2 33.1 1.5 11.05 3.2 19.9l1.65-42.2q4.65 2.4 26.35 8.25 10.85 2.9 20.75 5.35-24.45-12.65-28.55-28.45-1.25-4.95-.35-9.6l1.2-3.65q-7.15-2.85-15.55 1"/><path fill="none" stroke="#1A344F" stroke-width="2.5" stroke-linecap="round" stroke-linejoin="round" d="M327.001 64.651q-5.6 0-9.75 3.7-4.1 3.7-4.5 9.15-1.15 14.95-.65 24.8.75 17.1 5.75 32.65l1.65-42.2 18.95 7.15q21.5 7.05 34.3 6.65 16.75-.55 28.35-11.35 12.85-12 11.45-30.55h-85.55"/></g></svg>