<svg xmlns:xlink="http://www.w3.org/1999/xlink" xmlns="http://www.w3.org/2000/svg" image-rendering="optimizeQuality" baseProfile="basic" width="695" height="735" viewBox="0 0 695 735" preserveAspectRatio="xMinYMin meet"><defs><symbol id="Z" overflow="visible"><path fill="#3B1347" fill-opacity=".2" d="M205.51 117.129q0-20.182-14.273-34.456Q176.963 68.4 156.78 68.4t-34.457 14.273q-14.273 14.274-14.273 34.456 0 11.72 20.484 31.752 11.118 10.868 31.201 27.946 22.187-21.135 28.297-27.946 17.478-19.782 17.478-31.752"/></symbol><symbol id="aa" overflow="visible"><path fill="#9B7253" d="M110.98 114.319q0 11.869 18.981 31.902 10.417 10.968 29.749 28.146 3.606-3.406 13.673-12.521 9.816-9.014 16.076-15.625 18.981-20.033 18.981-31.902 0-20.183-14.273-34.456-14.224-14.274-34.457-14.274-20.183 0-34.457 14.274-14.273 14.273-14.273 34.456"/><path fill="none" stroke="#1A344F" stroke-width="2.5" stroke-linecap="round" stroke-linejoin="round" d="M110.98 114.319q0 11.869 18.981 31.902 10.417 10.968 29.749 28.146 3.606-3.406 13.673-12.521 9.816-9.014 16.076-15.625 18.981-20.033 18.981-31.902 0-20.183-14.273-34.456-14.224-14.274-34.457-14.274-20.183 0-34.457 14.274-14.273 14.273-14.273 34.456"/></symbol><symbol id="ab" overflow="visible"><path fill="none" stroke="#1A344F" stroke-width="2.5" stroke-linecap="round" stroke-linejoin="round" d="M153.149 161.295l4.858 4.858"/></symbol><symbol id="ac" overflow="visible"><path fill="none" stroke="#1A344F" stroke-width="2.5" stroke-linecap="round" stroke-linejoin="round" d="M130.212 138.308l17.528 17.528"/></symbol><symbol id="ad" overflow="visible"><path fill="none" stroke="#1A344F" stroke-width="2.5" stroke-linecap="round" stroke-linejoin="round" d="M183.399 143.617l-13.873 13.872"/></symbol><symbol id="ae" overflow="visible"><path fill="#3B1347" fill-opacity=".2" d="M552.975 80.6q-.788-.2-1.375-.2l-24.1.8-23.275-.775-7.725 19.925-2.9 11.4q-.5 1.15 0 4.2.6 3.25 1.95 6.45l13.75 31q11.523 5.735 17.25 9.125 23.773-4.1 22.9-6.125-1.1-2.45-3.5-3.55l14.1-31.9q2.35-5.15 1.55-10.9l-8.625-29.45"/></symbol><symbol id="af" overflow="visible"><path fill="#908A7D" d="M554.86 79.562l-24.064.751 1.227.05h-2.454l1.227-.05-24.065-.751q-2.304 0-3.255 1.653-.601 1.102-1.002 4.207l-5.559 22.186q-1.002 7.312 1.953 13.922l16.177 36.51q.851 1.853 2.504 2.955 1.703 1.102 3.706 1.102h19.081q2.004 0 3.706-1.102 1.653-1.102 2.505-2.955l16.827-37.912q2.304-5.308 1.553-10.968l-5.81-23.738q-.4-3.105-1.001-4.207-.952-1.653-3.256-1.653m-24.064.751l1.227.05h-2.454l1.227-.05"/><path fill="none" stroke="#1A344F" stroke-width="2.5" stroke-linecap="round" stroke-linejoin="round" d="M530.796 80.313l-24.065-.751q-2.304 0-3.255 1.653-.601 1.102-1.002 4.207l-5.559 22.186q-1.002 7.312 1.953 13.922l16.177 36.51q.851 1.853 2.504 2.955 1.703 1.102 3.706 1.102h19.081q2.004 0 3.706-1.102 1.653-1.102 2.505-2.955l16.827-37.912q2.304-5.308 1.553-10.968l-5.81-23.738q-.4-3.105-1.001-4.207-.952-1.653-3.256-1.653l-24.064.751"/><path fill="none" stroke="#1A344F" stroke-width="2.5" stroke-linecap="round" stroke-linejoin="round" d="M530.796 80.313l1.227.05h-2.454l1.227-.05"/></symbol><symbol id="M" overflow="visible"><path fill="#E9EDEA" stroke="#1A344F" stroke-width="2.5" stroke-linecap="round" stroke-linejoin="round" d="M92.6 120.98q0 27.545 19.482 47.026 19.482 19.482 47.077 19.482 27.596 0 47.078-19.482 19.482-19.481 19.482-47.026t-19.482-47.077q-19.482-19.482-47.078-19.482-27.545 0-47.077 19.482Q92.6 93.435 92.6 120.98"/></symbol><symbol id="N" overflow="visible"><path fill="none" stroke="#1A344F" stroke-width="2.5" stroke-linecap="round" stroke-linejoin="round" d="M92.099 149.176q-5.659-13.472-5.659-28.196 0-10.467 2.804-20.183m2.855 48.379q5.459 12.971 15.425 23.037 1.954 1.953 4.057 3.756"/></symbol><symbol id="O" overflow="visible"><path fill="none" stroke="#1A344F" stroke-width="2.5" stroke-linecap="round" stroke-linejoin="round" d="M129.711 187.538q-5.81-2.604-11.219-6.26"/></symbol><symbol id="P" overflow="visible"><path fill="none" stroke="#1A344F" stroke-width="2.5" stroke-linecap="round" stroke-linejoin="round" d="M228.774 142.164q-4.207 13.923-13.573 25.241-9.265 11.168-22.086 17.93"/></symbol><symbol id="Q" overflow="visible"><path fill="none" stroke="#1A344F" stroke-width="2.5" stroke-linecap="round" stroke-linejoin="round" d="M228.774 99.795q3.155 10.317 3.155 21.185"/></symbol><symbol id="R" overflow="visible"><path fill="none" stroke="#1A344F" stroke-width="2.5" stroke-linecap="round" stroke-linejoin="round" d="M179.393 51.066q13.622 3.956 24.89 12.821"/></symbol><symbol id="S" overflow="visible"><path fill="none" stroke="#1A344F" stroke-width="2.5" stroke-linecap="round" stroke-linejoin="round" d="M133.968 52.718q1.953-.751 5.459-1.803m-5.459 1.803q-10.768 3.957-19.933 11.169"/></symbol><symbol id="T" overflow="visible"><path fill="#E9EDEA" stroke="#1A344F" stroke-width="2.5" stroke-linecap="round" stroke-linejoin="round" d="M530.821 57.025q-26.794 0-45.675 18.931-18.932 18.881-18.932 45.675 0 26.743 18.932 45.674 18.881 18.931 45.675 18.931 26.744 0 45.675-18.931 18.881-18.931 18.881-45.674 0-26.794-18.881-45.675-18.931-18.931-45.675-18.931"/></symbol><symbol id="U" overflow="visible"><path fill="none" stroke="#1A344F" stroke-width="2.5" stroke-linecap="round" stroke-linejoin="round" d="M484.595 175.018q-1.703-1.453-3.907-3.656-9.666-9.766-14.974-22.387-5.509-13.071-5.509-27.344 0-10.017 2.704-19.582"/></symbol><symbol id="V" overflow="visible"><path fill="none" stroke="#1A344F" stroke-width="2.5" stroke-linecap="round" stroke-linejoin="round" d="M502.224 186.236q-5.66-2.504-10.868-6.06"/></symbol><symbol id="W" overflow="visible"><path fill="none" stroke="#1A344F" stroke-width="2.5" stroke-linecap="round" stroke-linejoin="round" d="M598.382 142.164q-4.107 13.572-13.172 24.49-9.015 10.868-21.485 17.428"/></symbol><symbol id="X" overflow="visible"><path fill="none" stroke="#1A344F" stroke-width="2.5" stroke-linecap="round" stroke-linejoin="round" d="M598.382 101.047q3.055 10.167 3.055 20.584"/></symbol><symbol id="a" overflow="visible"><path fill="#FFF" d="M694.947 737.827V.075H-.047v737.752h694.994"/></symbol><symbol id="b" overflow="visible"><path fill="#383838" d="M326.691 106.148h-9.366l9.115 59.046h13.873l9.115-59.046h-8.564l-7.061 48.178-7.112-48.178M355.989 109.353q-3.456 3.806-3.456 10.968 0 5.659 2.855 10.317 1.903 3.105 6.21 7.111 4.958 4.558 6.211 6.21 2.854 3.656 2.854 7.663 0 5.709-4.808 5.709t-4.808-5.709v-4.207h-8.764v3.606q0 7.162 3.506 10.968 3.556 3.856 10.317 3.856t10.317-3.856q3.505-3.806 3.505-10.968 0-5.659-2.854-10.317-1.903-3.105-6.21-7.111-4.959-4.558-6.211-6.211-2.854-3.656-2.854-7.662 0-5.81 4.657-5.81 2.304 0 3.406 1.353 1.202 1.402 1.202 4.457v2.454h8.814v-1.853q0-7.162-3.455-10.968-3.506-3.906-10.217-3.906t-10.217 3.906"/></symbol><symbol id="c" overflow="visible"><path fill="none" stroke="#383838" stroke-width="3" stroke-linecap="round" stroke-linejoin="round" d="M32.106 244.123h268.342"/></symbol><symbol id="d" overflow="visible"><path fill="none" stroke="#383838" stroke-width="3" stroke-linecap="round" stroke-linejoin="round" d="M390.296 244.123h268.341"/></symbol><symbol id="e" overflow="visible"><path fill="#E66C6C" stroke="#E55A3E" stroke-width="3" stroke-linecap="round" stroke-linejoin="round" d="M281.617 576.665v-30.6h-28.898v30.6h28.898"/></symbol><symbol id="f" overflow="visible"><path fill="#E66C6C" stroke="#E55A3E" stroke-width="3" stroke-linecap="round" stroke-linejoin="round" d="M61.054 367.975H32.106v30.599h28.948v-30.599"/></symbol><symbol id="g" overflow="visible"><path fill="#E66C6C" stroke="#E55A3E" stroke-width="3" stroke-linecap="round" stroke-linejoin="round" d="M142.538 634.96v30.6h28.948v-30.6h-28.948"/></symbol><symbol id="h" overflow="visible"><path fill="#E66C6C" stroke="#E55A3E" stroke-width="3" stroke-linecap="round" stroke-linejoin="round" d="M168.881 355.354h-22.938v232.078h22.938V355.354"/></symbol><symbol id="i" overflow="visible"><path fill="#E66C6C" stroke="#E55A3E" stroke-width="3" stroke-linecap="round" stroke-linejoin="round" d="M145.943 381.296h-34.056v3.756h34.056v-3.756"/></symbol><symbol id="j" overflow="visible"><path fill="#E66C6C" stroke="#E55A3E" stroke-width="3" stroke-linecap="round" stroke-linejoin="round" d="M168.881 560.138v3.706h34.006v-3.706h-34.006"/></symbol><symbol id="k" overflow="visible"><path fill="#E66C6C" stroke="#E55A3E" stroke-width="3" stroke-linecap="round" stroke-linejoin="round" d="M173.489 275.173h-28.948v30.6h28.948v-30.6"/></symbol><symbol id="l" overflow="visible"><path fill="#FFF" d="M42.674 377.891q.15.35.651.2 1.302-.701 2.554-.701 2.003 0 2.003 1.703 0 2.003-2.404 2.003h-.651q-.451 0-.451.501v.851q0 .551.451.551h.401q1.302 0 2.153.501 1.052.551 1.052 1.803 0 1.052-.701 1.703t-1.903.651q-1.202 0-2.805-.651-.501-.301-.651.2l-.35 1.002q-.201.5.3.751 1.502.801 3.656.801 2.053 0 3.506-1.202 1.502-1.202 1.502-3.155 0-1.302-.801-2.254-.751-.901-1.903-1.202.951-.3 1.552-1.151.601-.802.601-1.904 0-1.652-1.252-2.654-1.152-.901-2.904-.901-2.254 0-3.807 1.001-.3.15-.2.601l.401.952"/></symbol><symbol id="m" overflow="visible"><path fill="#FFF" d="M268.946 554.979q.3-.651-.351-.651h-1.452q-.401 0-.701.501l-3.807 8.013q-.25.551-.25 1.002v.751q0 .651.551.651h6.36v2.504q0 .501.551.501h1.453q.601 0 .601-.501v-7.812q0-.501-.601-.501h-1.453q-.551 0-.551.501v3.155h-4.106l3.756-8.114"/></symbol><symbol id="n" overflow="visible"><path fill="#FFF" d="M155.91 647.38h-.351v-2.905h4.658q.551 0 .551-.601v-1.051q0-.551-.601-.551h-6.511q-.651 0-.651.701v5.559q0 .751.701.751h1.653q1.803 0 2.704.751.752.752.752 1.903 0 1.102-.752 1.753-.701.651-1.803.651-1.652 0-2.954-.751-.451-.3-.702.15l-.45 1.052q-.201.501.25.751 1.753.902 3.756.902 2.304 0 3.756-1.202 1.503-1.252 1.503-3.406 0-2.203-1.653-3.405-1.502-1.052-3.856-1.052"/></symbol><symbol id="o" overflow="visible"><path fill="#FFF" d="M159.366 282.435h-.952q-.501 0-.901.251l-4.057 2.404q-.451.25-.2.651l.5.951q.251.551.752.2l2.804-1.602v10.517q0 .401.1.501.151.1.551.1h1.302q.601 0 .601-.601v-12.821q0-.551-.5-.551"/></symbol><symbol id="p" overflow="visible"><path fill="#EAEAEA" d="M77.23 381.597h-4.607q-.852 0-1.453.601-.55.551-.55 1.402 0 .851.55 1.402.601.601 1.453.601h4.607q.852 0 1.403-.601.601-.551.601-1.402 0-.801-.601-1.402-.551-.601-1.403-.601M95.811 381.597h-4.658q-.801 0-1.402.601-.601.601-.601 1.402 0 .851.601 1.402.601.601 1.402.601h4.658q.851 0 1.402-.601.601-.551.601-1.402 0-.801-.601-1.402-.551-.601-1.402-.601"/><path fill="#EAEAEA" d="M96.011 381.597h-4.657q-.802 0-1.403.601t-.601 1.402q0 .851.601 1.402.601.601 1.403.601h4.657q.852 0 1.403-.601.601-.551.601-1.402 0-.801-.601-1.402-.551-.601-1.403-.601"/></symbol><symbol id="q" overflow="visible"><path fill="#EAEAEA" d="M220.767 563.994q.851 0 1.402-.601.601-.551.601-1.402 0-.801-.601-1.402-.551-.601-1.402-.601h-4.658q-.801 0-1.402.601-.601.601-.601 1.402 0 .851.601 1.402.601.601 1.402.601h4.658M239.297 563.994q.851 0 1.402-.601.601-.551.601-1.402 0-.801-.601-1.402-.551-.601-1.402-.601h-4.607q-.852 0-1.453.601-.551.55-.551 1.402 0 .851.551 1.402.601.601 1.453.601h4.607"/><path fill="#EAEAEA" d="M239.497 563.994q.852 0 1.403-.601.601-.551.601-1.402 0-.801-.601-1.402-.551-.601-1.403-.601h-4.657q-.802 0-1.403.601t-.601 1.402q0 .851.601 1.402.601.601 1.403.601h4.657"/></symbol><symbol id="r" overflow="visible"><path fill="#EAEAEA" d="M161.018 318.494q0-.801-.601-1.402-.551-.601-1.402-.601-.801 0-1.402.601-.601.601-.601 1.402v4.658q0 .851.601 1.402.601.601 1.402.601.851 0 1.402-.601.601-.551.601-1.402v-4.658M157.613 335.622q-.601.601-.601 1.452v4.608q0 .851.601 1.402.601.601 1.402.601.851 0 1.402-.601.601-.551.601-1.402v-4.608q0-.851-.601-1.452-.551-.551-1.402-.551-.851 0-1.402.551"/><path fill="#EAEAEA" d="M157.613 335.822q-.601.601-.601 1.402v4.658q0 .851.601 1.402.601.601 1.402.601.851 0 1.402-.601.601-.551.601-1.402v-4.658q0-.801-.601-1.402-.551-.601-1.402-.601-.801 0-1.402.601"/></symbol><symbol id="s" overflow="visible"><path fill="#EAEAEA" d="M155.008 599.252v4.657q0 .852.601 1.402.601.601 1.403.601.851 0 1.402-.601.601-.55.601-1.402v-4.657q0-.802-.601-1.403-.551-.601-1.402-.601-.802 0-1.403.601t-.601 1.403M158.414 616.43q-.551-.601-1.402-.601-.802 0-1.403.601t-.601 1.402v4.607q0 .852.601 1.403.601.601 1.403.601.851 0 1.402-.601.601-.551.601-1.403v-4.607q0-.801-.601-1.402"/><path fill="#EAEAEA" d="M158.414 616.58q-.551-.601-1.402-.601-.802 0-1.403.601t-.601 1.402v4.658q0 .851.601 1.402.601.601 1.403.601.851 0 1.402-.601.601-.551.601-1.402v-4.658q0-.801-.601-1.402"/></symbol><symbol id="t" overflow="visible"><path fill="#99C977" stroke="#43B162" stroke-width="3" stroke-linecap="round" stroke-linejoin="round" d="M650.574 363.017h-28.898v30.599h28.898v-30.599"/></symbol><symbol id="u" overflow="visible"><path fill="#99C977" stroke="#43B162" stroke-width="3" stroke-linecap="round" stroke-linejoin="round" d="M444.635 577.666v-30.599h-28.898v30.599h28.898"/></symbol><symbol id="v" overflow="visible"><path fill="#99C977" stroke="#43B162" stroke-width="3" stroke-linecap="round" stroke-linejoin="round" d="M491.011 560.839v3.756h34.006v-3.756h-34.006"/></symbol><symbol id="w" overflow="visible"><path fill="#99C977" stroke="#43B162" stroke-width="3" stroke-linecap="round" stroke-linejoin="round" d="M536.787 376.038v3.706h34.005v-3.706h-34.005"/></symbol><symbol id="x" overflow="visible"><path fill="#99C977" stroke="#43B162" stroke-width="3" stroke-linecap="round" stroke-linejoin="round" d="M546.302 279.881h-28.947v30.6h28.947v-30.6"/></symbol><symbol id="y" overflow="visible"><path fill="#FFF" d="M433.166 568.001q1.503-1.202 1.503-3.155 0-1.303-.802-2.254-.751-.902-1.903-1.202.952-.301 1.553-1.152.601-.801.601-1.903 0-1.653-1.252-2.654-1.152-.902-2.905-.902-2.254 0-3.806 1.002-.301.2-.201.601l.401.951q.2.451.651.201 1.302-.702 2.554-.702 2.003 0 2.003 1.703 0 2.003-2.404 2.003h-.651q-.45 0-.45.501v.852q0 .551.45.551h.401q1.302 0 2.154.5 1.051.551 1.051 1.803 0 1.052-.701 1.703t-1.903.651q-1.202 0-2.805-.651-.5-.2-.651.2l-.35 1.002q-.201.601.3.751 1.403.802 3.656.802 2.054 0 3.506-1.202"/></symbol><symbol id="z" overflow="visible"><path fill="#99C977" stroke="#43B162" stroke-width="3" stroke-linecap="round" stroke-linejoin="round" d="M546.302 666.311v-30.6h-28.947v30.6h28.947"/></symbol><symbol id="A" overflow="visible"><path fill="#FFF" d="M536.236 652.538q0-2.203-1.653-3.405-1.503-1.052-3.856-1.052h-.351v-2.905h4.658q.551 0 .551-.55v-1.052q0-.601-.601-.601h-6.511q-.651 0-.651.701v5.559q0 .751.701.751h1.653q1.853 0 2.704.802.751.651.751 1.903 0 1.101-.751 1.753-.701.601-1.803.601-1.653 0-2.955-.752-.501-.25-.701.151l-.451 1.101q-.25.451.251.701 1.803.952 3.706.952 2.304 0 3.806-1.202 1.503-1.302 1.503-3.456"/></symbol><symbol id="B" overflow="visible"><path fill="#FFF" d="M630.891 379.443q-.3.551-.3 1.002v.751q0 .601.601.601h6.31v2.504q0 .551.551.551h1.453q.601 0 .601-.501v-7.812q0-.501-.601-.501h-1.453q-.551 0-.551.501v3.105h-4.056l3.706-8.114q.15-.25.1-.45-.1-.201-.401-.201h-1.452q-.451 0-.701.551l-3.807 8.013"/></symbol><symbol id="C" overflow="visible"><path fill="#FFF" d="M531.828 297.109q2.004-1.903 2.855-3.055 1.252-1.703 1.252-3.255 0-1.803-1.252-2.855-1.152-1.001-3.105-1.001-2.204 0-4.157 1.151-.451.251-.2.702l.451 1.001q.2.451.651.201 1.752-.902 2.904-.902 2.054 0 2.054 1.853 0 1.503-2.504 4.107-2.504 2.354-3.757 3.606-.35.4-.35.851v1.002q0 .601.601.601h7.913q.601 0 .601-.601v-1.052q0-.501-.601-.501h-5.309l1.953-1.853"/></symbol><symbol id="D" overflow="visible"><path fill="#99C977" stroke="#43B162" stroke-width="3" stroke-linecap="round" stroke-linejoin="round" d="M543.297 356.256h-22.938v231.877h22.938V356.256"/></symbol><symbol id="E" overflow="visible"><path fill="#EAEAEA" d="M582.862 379.694q.601.601 1.403.601h4.607q.852 0 1.403-.601.601-.551.601-1.403 0-.801-.601-1.402-.551-.601-1.403-.601h-4.607q-.802 0-1.403.601t-.601 1.402q0 .852.601 1.403M601.393 376.889q-.601.601-.601 1.402 0 .852.601 1.403.601.601 1.402.601h4.658q.851 0 1.402-.601.601-.551.601-1.403 0-.801-.601-1.402-.551-.601-1.402-.601h-4.658q-.801 0-1.402.601"/><path fill="#EAEAEA" d="M601.593 376.889q-.601.601-.601 1.402 0 .852.601 1.403.601.601 1.402.601h4.658q.852 0 1.402-.601.601-.551.601-1.403 0-.801-.601-1.402-.55-.601-1.402-.601h-4.658q-.801 0-1.402.601"/></symbol><symbol id="F" overflow="visible"><path fill="#EAEAEA" d="M460.661 564.745q.852 0 1.403-.601.601-.551.601-1.402 0-.851-.601-1.452-.551-.551-1.403-.551h-4.657q-.852 0-1.403.551-.601.601-.601 1.452t.601 1.402q.601.601 1.403.601h4.657M479.242 564.745q.851 0 1.402-.601.601-.551.601-1.402 0-.851-.601-1.452-.551-.551-1.402-.551h-4.658q-.851 0-1.402.551-.601.601-.601 1.452t.601 1.402q.601.601 1.402.601h4.658"/><path fill="#EAEAEA" d="M480.844 564.144q.551-.551.551-1.402 0-.851-.551-1.452-.601-.551-1.452-.551h-4.607q-.852 0-1.403.551-.601.601-.601 1.452t.601 1.402q.601.601 1.403.601h4.607q.851 0 1.452-.601"/></symbol><symbol id="G" overflow="visible"><path fill="#EAEAEA" d="M533.231 598.55q-.551-.601-1.403-.601-.801 0-1.402.601-.601.601-.601 1.403v4.657q0 .852.601 1.403.601.601 1.402.601.852 0 1.403-.601.601-.551.601-1.403v-4.657q0-.802-.601-1.403M529.825 623.191q0 .851.601 1.402.601.601 1.402.601.852 0 1.403-.601.601-.551.601-1.402v-4.658q0-.801-.601-1.402-.551-.601-1.403-.601-.801 0-1.402.601-.601.601-.601 1.402v4.658"/><path fill="#EAEAEA" d="M529.825 623.341q0 .851.601 1.402.601.601 1.402.601.852 0 1.403-.601.601-.551.601-1.402v-4.608q0-.801-.601-1.402-.551-.601-1.403-.601-.801 0-1.402.601-.601.601-.601 1.402v4.608"/></symbol><symbol id="H" overflow="visible"><path fill="#EAEAEA" d="M529.825 328.16q0 .851.601 1.402.601.601 1.402.601.852 0 1.403-.601.601-.551.601-1.402v-4.658q0-.801-.601-1.402-.551-.601-1.403-.601-.801 0-1.402.601-.601.601-.601 1.402v4.658M533.231 340.68q-.551-.601-1.403-.601-.801 0-1.402.601-.601.601-.601 1.402v4.608q0 .851.601 1.452.551.551 1.402.551.852 0 1.403-.551.601-.601.601-1.452v-4.608q0-.801-.601-1.402"/><path fill="#EAEAEA" d="M533.231 340.83q-.551-.551-1.403-.551-.851 0-1.402.551-.601.601-.601 1.453v4.607q0 .852.601 1.403.601.601 1.402.601.852 0 1.403-.601.601-.551.601-1.403v-4.607q0-.852-.601-1.453"/></symbol><symbol id="I" overflow="visible"><path fill="none" stroke="#EAEAEA" stroke-width="4" stroke-linecap="round" stroke-linejoin="round" d="M348.026 598.2v-4.658M348.026 579.62v-4.608M348.026 449.658v-4.608M348.026 431.128v-4.658M348.026 412.547v-4.657M348.026 393.967v-4.608M348.026 375.437v-4.658M348.026 356.856v-4.657M348.026 338.276v-4.607M348.026 319.746v-4.658M348.026 301.166v-4.658M348.026 282.585v-4.607M348.026 264.055v-4.657M348.026 579.469v-4.657M348.026 560.889v-4.658M348.026 542.309v-4.658M348.026 523.728v-4.607M348.026 505.198v-4.657M348.026 486.618v-4.658M348.026 468.038v-4.608M348.026 449.508v-4.658"/></symbol><symbol id="J" overflow="visible"><path fill="none" stroke="#EAEAEA" stroke-width="4" stroke-linecap="round" stroke-linejoin="round" d="M348.326 712.787v-4.658M348.326 694.206v-4.657M348.326 675.626v-4.607M348.326 657.096v-4.658M348.326 638.516v-4.658M348.326 619.935v-4.607"/></symbol><symbol id="K" overflow="visible"><path fill="#D36868" d="M155.008 355.354h-9.065v233.831h9.065V355.354"/></symbol><symbol id="L" overflow="visible"><path fill="#97BD68" d="M529.575 355.354h-9.115v233.831h9.115V355.354"/></symbol><symbol id="aG" overflow="visible"><use xlink:href="#a"/><use xlink:href="#b"/><use xlink:href="#c"/><use xlink:href="#d"/><use xlink:href="#e"/><use xlink:href="#f"/><use xlink:href="#g"/><use xlink:href="#h"/><use xlink:href="#i"/><use xlink:href="#j"/><use xlink:href="#k"/><use xlink:href="#l"/><use xlink:href="#m"/><use xlink:href="#n"/><use xlink:href="#o"/><use xlink:href="#p"/><use xlink:href="#q"/><use xlink:href="#r"/><use xlink:href="#s"/><use xlink:href="#t"/><use xlink:href="#u"/><use xlink:href="#v"/><use xlink:href="#w"/><use xlink:href="#x"/><use xlink:href="#y"/><use xlink:href="#z"/><use xlink:href="#A"/><use xlink:href="#B"/><use xlink:href="#C"/><use xlink:href="#D"/><use xlink:href="#E"/><use xlink:href="#F"/><use xlink:href="#G"/><use xlink:href="#H"/><use xlink:href="#I"/><use xlink:href="#J"/><use xlink:href="#K"/><use xlink:href="#L"/><use xlink:href="#M"/><use xlink:href="#N"/><use xlink:href="#O"/><use xlink:href="#P"/><use xlink:href="#Q"/><use xlink:href="#R"/><use xlink:href="#S"/><use xlink:href="#T"/><use xlink:href="#U"/><use xlink:href="#V"/><use xlink:href="#W"/><use xlink:href="#X"/><use xlink:href="#Y" transform="translate(529.65 51.55)"><animateTransform attributeName="transform" additive="replace" type="translate" repeatCount="indefinite" dur="2.875s" keyTimes="0;0.014;0.029;0.043;0.058;0.072;0.087;0.101;0.116;0.13;0.145;0.159;0.174;0.71;0.725;0.739;0.754;0.768;0.783;0.797;0.812;0.826;0.841;0.855;1" values="530.25,75.3;530.25,75.721;530.25,76.142;530.25,76.563;530.25,77.034;530.25,77.454;530.25,77.924;530.25,78.346;530.25,78.767;530.25,79.237;530.25,79.658;530.25,80.076;530.25,80.5;530.25,80.5;530.25,80.005;530.25,79.46;530.25,79.013;530.25,78.42;530.25,77.926;530.25,77.382;530.25,76.934;530.25,76.34;530.25,75.795;530.25,75.3;530.25,75.3" calcMode="discrete"/><animateTransform attributeName="transform" additive="sum" type="scale" repeatCount="indefinite" dur="2.875s" keyTimes="0;0.014;0.029;0.043;0.058;0.072;0.087;0.101;0.116;0.13;0.145;0.159;0.174;0.71;0.725;0.739;0.754;0.768;0.783;0.797;0.812;0.826;0.841;0.855;1" values="1,1;1,0.995;1,0.989;1,0.984;1,0.978;1,0.973;1,0.967;1,0.962;1,0.956;1,0.951;1,0.946;1,0.94;1,0.935;1,0.935;1,0.941;1,0.948;1,0.954;1,0.961;1,0.967;1,0.974;1,0.98;1,0.987;1,0.993;1,1;1,1" calcMode="discrete"/><animateTransform attributeName="transform" additive="sum" type="translate" repeatCount="indefinite" dur="2.875s" keyTimes="0;0.029;0.043;0.058;0.072;0.087;0.101;0.145;0.159;0.174;0.739;0.754;0.768;0.783;0.797;0.812;0.826;1" values="-0.6,-23.75;-0.6,-23.75;-0.6,-23.7;-0.6,-23.7;-0.6,-23.75;-0.6,-23.8;-0.6,-23.75;-0.6,-23.75;-0.6,-23.8;-0.6,-23.75;-0.6,-23.75;-0.6,-23.8;-0.6,-23.75;-0.6,-23.75;-0.6,-23.7;-0.6,-23.8;-0.6,-23.75;-0.6,-23.75" calcMode="discrete"/></use><use xlink:href="#Z"/><use xlink:href="#aa"/><use xlink:href="#ab"/><use xlink:href="#ac"/><use xlink:href="#ad"/><use xlink:href="#ae"/><use xlink:href="#af"/><use xlink:href="#ag" transform="translate(530.9 101.85)"><animateTransform attributeName="transform" additive="replace" type="translate" repeatCount="indefinite" dur="2.875s" keyTimes="0;0.014;0.029;0.043;0.058;0.072;0.087;0.101;0.116;0.13;0.145;0.159;0.174;0.71;0.725;0.739;0.754;0.768;0.783;0.797;0.812;0.826;0.841;0.855;1" values="530.9,101.85;530.9,101.05;530.9,100.25;530.9,99.45;530.85,98.65;530.85,97.85;530.85,97.05;530.85,96.2;530.85,95.4;530.85,94.6;530.8,93.8;530.8,93;530.8,92.2;530.8,92.2;530.8,93.15;530.8,94.15;530.85,95.1;530.85,96.05;530.85,97.05;530.85,98;530.85,98.95;530.9,99.9;530.9,100.9;530.9,101.85;530.9,101.85" calcMode="discrete"/></use><use xlink:href="#ah" transform="translate(158.9 88.95)"><animateTransform attributeName="transform" additive="replace" type="translate" repeatCount="indefinite" dur="2.875s" keyTimes="0;0.014;0.029;0.043;0.058;0.072;0.087;0.101;0.116;0.13;0.145;0.159;0.174;0.71;0.725;0.739;0.754;0.768;0.783;0.797;0.812;0.826;0.841;0.855;1" values="158.9,88.95;158.9,90.15;158.9,91.4;158.9,92.6;158.9,93.85;158.9,95.05;158.9,96.3;158.9,97.5;158.9,98.7;158.9,99.95;158.9,101.15;158.9,102.4;158.9,103.6;158.9,103.6;158.9,102.15;158.9,100.65;158.9,99.2;158.9,97.75;158.9,96.3;158.9,94.8;158.9,93.35;158.9,91.9;158.9,90.4;158.9,88.95;158.9,88.95" calcMode="discrete"/></use><use xlink:href="#ai" transform="translate(158.25 69.5)"><animateTransform attributeName="transform" additive="replace" type="translate" repeatCount="indefinite" dur="2.875s" keyTimes="0;0.014;0.029;0.043;0.058;0.072;0.087;0.101;0.116;0.13;0.145;0.159;0.174;0.71;0.725;0.739;0.754;0.768;0.783;0.797;0.812;0.826;0.841;0.855;1" values="158.9,81.95;158.894,81.75;158.935,81.6;158.881,81.4;158.872,81.2;158.868,81;158.862,80.85;158.902,80.65;158.895,80.45;158.888,80.25;158.926,80.1;158.88,79.9;158.918,79.7;158.918,79.7;158.926,79.95;158.889,80.15;158.892,80.4;158.9,80.6;158.862,80.85;158.917,81.05;158.925,81.3;158.932,81.5;158.892,81.75;158.9,81.95;158.9,81.95" calcMode="discrete"/><animateTransform attributeName="transform" additive="sum" type="scale" repeatCount="indefinite" dur="2.875s" keyTimes="0;0.014;0.029;0.043;0.058;0.072;0.087;0.101;0.116;0.13;0.145;0.159;0.174;0.71;0.725;0.739;0.754;0.768;0.783;0.797;0.812;0.826;0.841;0.855;1" values="1,1;0.989,1;0.979,1;0.968,1;0.958,1;0.947,1;0.937,1;0.926,1;0.915,1;0.905,1;0.894,1;0.884,1;0.873,1;0.873,1;0.886,1;0.898,1;0.911,1;0.924,1;0.937,1;0.949,1;0.962,1;0.975,1;0.987,1;1,1;1,1" calcMode="discrete"/><animateTransform attributeName="transform" additive="sum" type="translate" repeatCount="indefinite" dur="2.875s" keyTimes="0;0.014;0.029;0.043;0.058;0.072;0.087;0.101;0.13;0.145;0.159;0.174;0.725;0.739;0.754;0.768;0.783;0.797;0.812;0.826;0.841;1" values="-0.65,-12.45;-0.6,-12.45;-0.7,-12.45;-0.6,-12.45;-0.65,-12.45;-0.6,-12.45;-0.6,-12.45;-0.65,-12.45;-0.65,-12.45;-0.7,-12.45;-0.6,-12.45;-0.65,-12.45;-0.65,-12.45;-0.6,-12.45;-0.65,-12.45;-0.65,-12.45;-0.6,-12.45;-0.65,-12.45;-0.65,-12.45;-0.7,-12.45;-0.65,-12.45;-0.65,-12.45" calcMode="discrete"/></use><use xlink:href="#aj" transform="translate(530.75 27.65)"><animateTransform attributeName="transform" additive="replace" type="translate" dur="2.875s" keyTimes="0;1" values="0,0;0,0" fill="freeze"/><animateTransform attributeName="transform" additive="sum" type="translate" repeatCount="indefinite" dur="2.875s" keyTimes="0;0.246;0.261;0.275;0.29;0.304;0.319;0.333;0.348;0.362;0.377;0.391;0.406;0.42;0.435;0.449;0.464;0.478;0.493;0.507;0.522;0.536;0.551;0.565;0.58;0.594;0.609;0.623;0.638;0.651;0.652;1" values="530.75,27.65;530.75,27.65;530.75,26.3;530.75,24.9;530.75,23.55;530.75,22.15;530.75,20.8;530.75,19.4;530.75,18.05;530.75,16.65;530.75,19.4;530.75,22.15;530.75,24.9;530.75,27.65;530.75,26.55;530.75,25.45;530.75,24.35;530.75,23.25;530.75,22.15;530.75,21.05;530.75,19.95;530.75,18.85;530.75,17.75;530.75,16.65;530.75,18.5;530.75,20.3;530.75,22.15;530.75,24;530.75,25.8;530.75,27.65;0;0" calcMode="discrete"/><animateTransform attributeName="transform" additive="sum" type="translate" repeatCount="indefinite" dur="2.875s" keyTimes="0;0.652;1" values="0;530.75,27.65;530.75,27.65" calcMode="discrete"/></use><use xlink:href="#ak" transform="translate(159.1 179.15)"><animateTransform attributeName="transform" additive="replace" type="translate" dur="2.875s" keyTimes="0;1" values="0,0;0,0" fill="freeze"/><animateTransform attributeName="transform" additive="sum" type="translate" repeatCount="indefinite" dur="2.875s" keyTimes="0;0.246;0.261;0.275;0.29;0.304;0.319;0.333;0.348;0.362;0.377;0.391;0.406;0.42;0.435;0.449;0.464;0.478;0.493;0.507;0.522;0.536;0.551;0.565;0.58;0.594;0.609;0.623;0.638;0.651;0.652;1" values="159.1,179.15;159.1,179.15;159.1,180.55;159.1,181.9;159.1,183.3;159.1,184.65;159.1,186.05;159.1,187.4;159.1,188.8;159.1,190.15;159.1,187.4;159.1,184.65;159.1,181.9;159.1,179.15;159.1,180.25;159.1,181.35;159.1,182.45;159.1,183.55;159.1,184.65;159.1,185.75;159.1,186.85;159.1,187.95;159.1,189.05;159.1,190.15;159.1,188.3;159.1,186.5;159.1,184.65;159.1,182.8;159.1,181;159.1,179.15;0;0" calcMode="discrete"/><animateTransform attributeName="transform" additive="sum" type="translate" repeatCount="indefinite" dur="2.875s" keyTimes="0;0.652;1" values="0;159.1,179.15;159.1,179.15" calcMode="discrete"/></use></symbol><symbol id="al" overflow="visible"><path fill="#E66C6C" stroke="#1A344F" stroke-width="2.5" stroke-linecap="round" stroke-linejoin="round" d="M.911 38.487L22.096 15.45q.5-.501.2-1.202-.301-.651-1.002-.651h-9.215q-.501 0-.801-.301-.351-.35-.351-.801V.024h-21.736v12.471q0 .451-.3.801-.351.301-.801.301h-9.216q-.751 0-1.051.651-.301.651.2 1.202L-.742 38.487q.351.401.851.401.451 0 .802-.401"/></symbol><symbol id="ak" overflow="visible"><use xlink:href="#al"/></symbol><symbol id="am" overflow="visible"><path fill="#99C977" stroke="#1A344F" stroke-width="2.5" stroke-linecap="round" stroke-linejoin="round" d="M-10.497 25.569v12.07h21.085v-12.07q0-.451.351-.751.3-.351.751-.351h8.965q.701 0 .951-.651.301-.651-.2-1.152L.872.328Q.521-.023.071-.023q-.501 0-.802.351l-20.583 22.336q-.501.551-.201 1.152.301.651 1.002.651h8.915q.45 0 .801.351.3.3.3.751"/></symbol><symbol id="aj" overflow="visible"><use xlink:href="#am"/></symbol><symbol id="an" overflow="visible"><path fill="#3B1347" fill-opacity=".2" d="M-40.669 24.736l14.524-18.48-30.15-3.456q-4.157 6.41-1.603 13.622 2.605 7.262 9.867 9.566.45.2 1.152.1l6.21-1.352"/></symbol><symbol id="ao" overflow="visible"><path fill="#9B7253" d="M-37.706 21.931l14.524-18.48-30.2-3.455q-4.157 6.41-1.603 13.622 2.605 7.262 9.867 9.565.551.201 1.202.051l6.21-1.303"/><path fill="none" stroke="#1A344F" stroke-width="2.5" stroke-linecap="round" stroke-linejoin="round" d="M-45.118 23.183q.551.201 1.202.051l6.21-1.303m-7.412 1.252q-7.262-2.303-9.867-9.565-2.554-7.212 1.603-13.622l30.2 3.455"/></symbol><symbol id="ap" overflow="visible"><path fill="#9B7253" d="M-39.158 10.212q-2.304-.551-3.857 1.152-1.552 1.753-.801 3.957l10.717-3.656-6.059-1.453"/><path fill="none" stroke="#1A344F" stroke-width="2.5" stroke-linecap="round" stroke-linejoin="round" d="M-43.015 11.364q1.553-1.703 3.857-1.152l6.059 1.453m-9.916-.301q-1.552 1.753-.801 3.957"/></symbol><symbol id="aq" overflow="visible"><path fill="#9B7253" d="M46.983 23.234q.651.15 1.152-.051 7.262-2.303 9.866-9.565 2.605-7.212-1.552-13.622l-30.2 3.455 14.524 18.48 6.21 1.303"/><path fill="none" stroke="#1A344F" stroke-width="2.5" stroke-linecap="round" stroke-linejoin="round" d="M48.135 23.183q-.501.201-1.152.051l-6.21-1.303m7.362 1.252q7.262-2.303 9.866-9.565 2.605-7.212-1.552-13.622l-30.2 3.455"/></symbol><symbol id="ar" overflow="visible"><path fill="#9B7253" d="M46.883 15.321q.751-2.204-.801-3.957-1.603-1.703-3.857-1.152l-6.06 1.453 10.718 3.656"/><path fill="none" stroke="#1A344F" stroke-width="2.5" stroke-linecap="round" stroke-linejoin="round" d="M46.883 15.321q.751-2.204-.801-3.957-1.603-1.703-3.857-1.152l-6.06 1.453"/></symbol><symbol id="ai" overflow="visible"><use xlink:href="#an"/><use xlink:href="#an"/><use xlink:href="#ao"/><use xlink:href="#ap"/><use xlink:href="#aq"/><use xlink:href="#ar"/></symbol><symbol id="as" overflow="visible"><path fill="#9B7253" d="M-11.56 42.447q1.452 1.452 3.506 1.452H9.074q2.053 0 3.455-1.452 1.453-1.453 1.453-3.506v-.2h-26.995v.2q0 2.053 1.453 3.506"/><path fill="none" stroke="#1A344F" stroke-width="2.5" stroke-linecap="round" stroke-linejoin="round" d="M-11.56 42.447q1.452 1.452 3.506 1.452H9.074q2.053 0 3.455-1.452 1.453-1.453 1.453-3.506m-25.542 3.506q-1.453-1.453-1.453-3.506"/></symbol><symbol id="at" overflow="visible"><path fill="#9B7253" d="M-16.368 17.256q-3.957 3.706-3.957 9.064 0 5.159 3.656 8.765 3.606 3.656 8.765 3.656h3.205l-11.669-21.485"/><path fill="none" stroke="#1A344F" stroke-width="2.5" stroke-linecap="round" stroke-linejoin="round" d="M-16.368 17.256q-3.957 3.706-3.957 9.064 0 5.159 3.656 8.765 3.606 3.656 8.765 3.656h3.205"/><path fill="#9B7253" d="M21.795 26.32q0-5.409-3.957-9.064L6.169 38.741h3.255q5.109 0 8.765-3.656 3.606-3.606 3.606-8.765"/><path fill="none" stroke="#1A344F" stroke-width="2.5" stroke-linecap="round" stroke-linejoin="round" d="M17.838 17.256q3.957 3.655 3.957 9.064 0 5.159-3.606 8.765-3.656 3.656-8.765 3.656H6.169"/><path fill="#6B594B" stroke="#1A344F" stroke-width="2.5" stroke-linecap="round" stroke-linejoin="round" d="M.76 20.16q-4.157 0-7.462 2.354-3.105 2.254-3.105 4.608 0 2.203 3.105 3.806Q-3.597 32.48.76 32.48q4.357 0 7.462-1.552 3.055-1.603 3.055-3.806 0-2.354-3.055-4.608Q4.917 20.16.76 20.16"/><path fill="none" stroke="#1A344F" stroke-width="2.5" stroke-linecap="round" stroke-linejoin="round" d="M-26.485.829l13.472 3.455M26.653-.023L13.181 4.284"/></symbol><symbol id="au" overflow="visible"><path fill="#1A344F" d="M-18.972 3.233q0-.952-.702-1.703-.701-.701-1.702-.701-.952 0-1.703.701-.701.751-.701 1.703 0 1.001.701 1.702.751.702 1.703.702 1.001 0 1.702-.702.702-.701.702-1.702"/></symbol><symbol id="av" overflow="visible"><path fill="#1A344F" d="M22.896 3.233q0-1.002-.701-1.703-.701-.701-1.652-.701-1.002 0-1.703.701-.701.701-.701 1.703 0 1.001.701 1.702.701.702 1.703.702.951 0 1.652-.702.701-.701.701-1.702"/></symbol><symbol id="ah" overflow="visible"><use xlink:href="#as"/><use xlink:href="#at"/><use xlink:href="#au"/><use xlink:href="#av"/></symbol><symbol id="aw" overflow="visible"><path fill="#7B7466" stroke="#1A344F" stroke-width="2.5" stroke-linecap="round" stroke-linejoin="round" d="M12.791 72.517q2.204 0 4.007-1.252 1.803-1.303 2.554-3.356l3.205-9.015q1.252-3.405-.851-6.41-2.104-2.955-5.71-2.955l-2.454-.25q-13.272-1.403-25.993.1l-1.452.15q-3.606 0-5.659 2.955-2.104 3.005-.902 6.41l3.656 10.267q.701 1.903 2.454 2.855 1.753.951 3.706.501 11.219-2.454 22.287-.201l1.152.201"/></symbol><symbol id="ax" overflow="visible"><path fill="#79746A" stroke="#1A344F" stroke-width="2.5" stroke-linecap="round" stroke-linejoin="round" d="M-8.544 56.791q-1.903 0-3.255 1.352-1.353 1.352-1.353 3.256 0 3.255 4.608 3.255 4.557 0 4.557-3.255 0-1.904-1.352-3.256-1.302-1.352-3.205-1.352"/></symbol><symbol id="ay" overflow="visible"><path fill="#79746A" stroke="#1A344F" stroke-width="2.5" stroke-linecap="round" stroke-linejoin="round" d="M13.492 61.399q0-1.904-1.352-3.256-1.302-1.352-3.205-1.352t-3.256 1.352q-1.352 1.352-1.352 3.256 0 3.255 4.608 3.255 4.557 0 4.557-3.255"/></symbol><symbol id="az" overflow="visible"><path fill="#908A7D" d="M-31.3 0Q-6.497 2.38-5 43.25v-14.5Q-5 16.7-12.6 8.4-20.05.3-31.3 0"/><path fill="none" stroke="#1A344F" stroke-width="2.5" stroke-linecap="round" stroke-linejoin="round" d="M-5 28.75v14.5m0-14.5Q-5 16.7-12.6 8.4-19.553.798-29.85.075"/></symbol><symbol id="aA" overflow="visible"><path fill="#908A7D" d="M5.05 39.375Q5.736 4.983 31.3 0 20.1.3 12.65 8.4q-7.6 8.3-7.6 20.35v10.625"/><path fill="none" stroke="#1A344F" stroke-width="2.5" stroke-linecap="round" stroke-linejoin="round" d="M5.05 28.75v14.5m0-14.5q0-12.05 7.6-20.35Q19.546.86 29.7.075"/></symbol><symbol id="aB" overflow="visible"><path fill="#908A7D" d="M-27.175 6.559l10.317 7.613q-2.003-4.758-6.36-6.661l-3.957-.952"/><path fill="none" stroke="#1A344F" stroke-width="2.5" stroke-linecap="round" stroke-linejoin="round" d="M-23.218 7.511q4.357 1.903 6.36 6.661m-6.36-6.661l-3.957-.952"/><path fill="#1A344F" d="M-19.212 11.066q0-.851-.601-1.502-.651-.601-1.552-.601-.852 0-1.503.601-.601.651-.601 1.502 0 .902.601 1.503.651.601 1.503.601.901 0 1.552-.601.601-.601.601-1.503"/></symbol><symbol id="aC" overflow="visible"><path fill="#908A7D" d="M15.646 14.172l10.317-7.613q-1.753 0-3.957.952-4.357 1.903-6.36 6.661"/><path fill="none" stroke="#1A344F" stroke-width="2.5" stroke-linecap="round" stroke-linejoin="round" d="M22.006 7.511q-4.357 1.903-6.36 6.661m6.36-6.661q2.204-.952 3.957-.952"/><path fill="#1A344F" d="M18.651 9.564Q18 10.215 18 11.066q0 .902.651 1.503.601.601 1.502.601.852 0 1.503-.601.601-.601.601-1.503 0-.851-.601-1.502-.651-.601-1.503-.601-.901 0-1.502.601"/></symbol><symbol id="ag" overflow="visible"><use xlink:href="#aw"/><use xlink:href="#ax"/><use xlink:href="#ay"/><use xlink:href="#az"/><use xlink:href="#aA"/><use xlink:href="#aB"/><use xlink:href="#aC"/></symbol><symbol id="aD" overflow="visible"><path fill="#3B1347" fill-opacity=".2" d="M57.9 30.9q4.85-6.85 4.55-14.35Q62.1 8.2 55.4.85q1.8 16.9-7.25 23.45-6.55 4.75-20.95 4.75h-3.85q-.8-.2-1.4-.2l-24.1.8-24.05-.8q-.65 0-1.45.2h-4.8q-12.7 0-18.65-3.95-.55-.4-1.05-.8Q-60 17.9-58.2.85q-6.7 7.4-7.4 15.7-.65 7.55 3.65 14.35 3.25 5.15 8.55 8.7 1.4.95 3 1.8 7.5 4.05 15.95 4.05l1.3 3.35 62.65-.6-.7-2.75h.4q8.45 0 16.4-4.05 7.75-4 12.3-10.5"/></symbol><symbol id="aE" overflow="visible"><path fill="#FFF" d="M-57.326.016q-6.711 7.362-7.061 15.676-.301 7.512 4.557 14.373 4.558 6.511 12.321 10.518 7.863 4.056 16.326 4.056h9.416l-.801-16.427h-6.611q-14.324 0-20.885-4.757-9.115-6.561-7.262-23.439"/><path fill="none" stroke="#1A344F" stroke-width="2.5" stroke-linecap="round" stroke-linejoin="round" d="M-57.326.016q-6.711 7.362-7.061 15.676-.301 7.512 4.557 14.373 4.558 6.511 12.321 10.518 7.863 4.056 16.326 4.056h9.416M-57.326.016q-1.853 16.878 7.262 23.439 6.561 4.757 20.885 4.757h6.611"/><path fill="none" stroke="#1A344F" stroke-width="2.5" stroke-linecap="round" stroke-linejoin="round" d="M-51.816 30.867q1.803 1.753 4.307 3.355 6.26 4.007 13.422 5.109M-58.327 22.052q.851 1.853 1.903 3.406M-36.742 33.872q-3.756-.902-6.36-2.605m6.36 2.605q1.853.45 3.206.551"/></symbol><symbol id="aF" overflow="visible"><path fill="#FFF" d="M23.908 28.212l-.801 16.427h9.415q8.464 0 16.327-4.056 7.763-4.007 12.371-10.518 4.807-6.861 4.507-14.373-.351-8.314-7.062-15.676 1.853 16.878-7.212 23.439-6.56 4.757-20.934 4.757h-6.611"/><path fill="none" stroke="#1A344F" stroke-width="2.5" stroke-linecap="round" stroke-linejoin="round" d="M32.522 44.639h-9.415m9.415 0q8.464 0 16.327-4.056 7.763-4.007 12.371-10.518 4.807-6.861 4.507-14.373-.351-8.314-7.062-15.676 1.853 16.878-7.212 23.439-6.56 4.757-20.934 4.757h-6.611"/><path fill="none" stroke="#1A344F" stroke-width="2.5" stroke-linecap="round" stroke-linejoin="round" d="M53.156 30.867q-1.803 1.753-4.307 3.355-6.26 4.007-13.422 5.109M59.667 22.052q-.851 1.853-1.903 3.406M38.081 33.872q3.757-.902 6.361-2.605m-6.361 2.605l-3.205.551"/></symbol><symbol id="Y" overflow="visible"><use xlink:href="#aD"/><use xlink:href="#aE"/><use xlink:href="#aF"/></symbol></defs><use xlink:href="#aG" overflow="visible"/></svg>