<svg xmlns:xlink="http://www.w3.org/1999/xlink" xmlns="http://www.w3.org/2000/svg" baseProfile="basic" width="695" height="463" viewBox="0 0 695 463" preserveAspectRatio="xMinYMin meet"><defs><symbol id="b" overflow="visible"><path fill="#99C977" stroke="#1A344F" stroke-width="2.5" stroke-linecap="round" stroke-linejoin="round" d="M-52.549-18.449q-3.8 3.85-3.8 9.25 0 5.45 3.8 9.25l37.1 37.1q3.85 3.85 9.25 3.85 5.45 0 9.25-3.85l55.6-55.6q3.85-3.85 3.85-9.3 0-5.4-3.85-9.25-3.8-3.85-9.25-3.85-5.4 0-9.25 3.85L3.051.051q-3.8 3.85-9.25 3.85-5.4 0-9.25-3.85l-18.55-18.5q-3.85-3.85-9.3-3.85-5.4 0-9.25 3.85"/></symbol><symbol id="a" overflow="visible"><path fill="#3880A8" fill-opacity=".149" d="M43.401-40.849q-5.4 0-9.25 3.85L-2.949.051q-3.8 3.85-9.25 3.85-5.4 0-9.25-3.85l-18.55-18.5q-3.85-3.85-9.3-3.85-5.4 0-9.25 3.85-3.8 3.85-3.8 9.25 0 5.45 3.8 9.25l37.1 37.1q3.85 3.85 9.25 3.85 5.45 0 9.25-3.85l55.6-55.6q3.85-3.85 3.85-9.3 0-5.4-3.85-9.25-3.8-3.85-9.25-3.85"/></symbol><symbol id="c" overflow="visible"><use xlink:href="#a"/><use xlink:href="#b"/></symbol></defs><g overflow="visible"><path fill="#D7EDF4" d="M695.151 463.451V.051H.051v463.4h695.1"/><path fill="#C8E1EC" d="M197.001 84.201q-2.35 2.35-2.35 5.65v197.2q0 3.3 2.35 5.65 2.35 2.35 5.65 2.35h275.95q3.35 0 5.65-2.35 2.35-2.35 2.35-5.65v-197.2q0-3.3-2.35-5.65-2.3-2.35-5.65-2.35h-275.95q-3.3 0-5.65 2.35"/><path fill="#C2DDE9" d="M549.101 203.351q-6.95-16.5-19.7-29.25t-29.3-19.75q-17.1-7.25-35.85-7.25-34.4 0-60.3 22.55-25.7 22.3-30.75 55.75-12.55-11.85-28.55-18.3-16.5-6.7-34.45-6.7-20.05 0-38.2 8.3-17.5 7.95-30.4 22.35-13-14.9-30.85-23.2-18.5-8.6-39-8.6-18.85 0-36.1 7.3-16.6 7-29.45 19.85-12.85 12.85-19.85 29.45-7.3 17.25-7.3 36.1 0 13.6 3.9 26.6 3.75 12.5 10.9 23.55-20.55 2.3-34.4 17.7-14 15.5-14 36.4h589.7q0-20.1-12.85-35.55-12.75-15.25-32.1-19.05.95-5.55.95-10.85 0-20-11.35-36.45-11.05-16-29.1-23.25 5.65-15.3 5.65-31.85 0-18.75-7.25-35.85"/><path fill="#F9F9F9" stroke="#1A344F" stroke-width="2.5" stroke-linecap="round" stroke-linejoin="round" d="M556.401 199.951q-7-16.5-19.75-29.25t-29.25-19.75q-17.1-7.25-35.85-7.25-34.4 0-60.35 22.5-25.7 22.3-30.7 55.75-12.65-11.85-28.55-18.25-16.55-6.7-34.5-6.7-20.05 0-38.15 8.3-17.5 7.95-30.4 22.35-13-14.9-30.85-23.2-18.5-8.6-39-8.6-18.85 0-36.1 7.3-16.6 7-29.45 19.85-12.85 12.8-19.85 29.4-7.3 17.25-7.3 36.1 0 13.65 3.9 26.6 3.75 12.5 10.85 23.6-20.5 2.25-34.35 17.65-14 15.5-14 36.45h589.7q0-20.15-12.85-35.6-12.75-15.25-32.1-19 .9-5.3.9-10.9 0-20-11.3-36.4-11.05-16.05-29.1-23.25 5.65-15.4 5.65-31.85 0-18.75-7.25-35.85"/><path fill="#E9EDEA" d="M375.35 333.65l-4.65-32.45h-45.15l-4.65 32.45h54.45"/><path fill="#D1D5D2" d="M325.601 301.251l-2.5 17.4 47.65-17.4h-45.15"/><path fill="none" stroke="#1A344F" stroke-width="2.5" stroke-linecap="round" stroke-linejoin="round" d="M375.35 333.65l-4.65-32.45h-45.15l-4.65 32.45h54.45"/><path fill="#E9EDEA" stroke="#1A344F" stroke-width="2.5" stroke-linecap="round" stroke-linejoin="round" d="M403.201 352.251l-4.65-18.55h-101.95l-4.6 18.55h111.2"/><path fill="#F9F9F9" d="M528.801 340.401q5.2-10.45 3.9-22.25-1.4-12.85-10.4-24.7-13.75-10.5-28.6-10.75-13.55-.2-24.45 7.85-6.5-8-15.7-12.45-9.55-4.65-20.2-4.65-19.2 0-32.75 13.6-13.6 13.55-13.6 32.75 0 4.3.75 8.35-2.35-.25-4.25-.25-14.9 0-25.4 10.55-10.5 10.5-10.5 25.35h71.25q7.15 2.35 14.5 2.35 9.45 0 18.1-3.7 8.4-3.55 14.8-10.05 5.45 4.85 12.2 7.5 7 2.75 14.55 2.75 11.6 0 21.35-6.2 9.5-6 14.45-16.05"/><path fill="none" stroke="#1A344F" stroke-width="2.5" stroke-linecap="round" stroke-linejoin="round" d="M383.501 327.901q-14.9 0-25.4 10.55-10.5 10.5-10.5 25.35m35.9-35.9q1.9 0 4.25.25-.75-4.05-.75-8.35 0-19.2 13.6-32.75 13.55-13.6 32.75-13.6 10.65 0 20.2 4.65 9.2 4.45 15.7 12.45 10.55-7.85 23.75-7.85 7.2 0 13.85 2.5 6.45 2.35 11.75 6.8M221.001 340.851q0 3.4 2.4 5.85 2.4 2.4 5.8 2.4h8.2q3.4 0 5.85 2.4 2.4 2.4 2.4 5.8t-2.4 5.8q-2.45 2.4-5.85 2.4h-16.4m0-24.65q0-3.4 2.4-5.8t5.8-2.4h16.45M233.301 332.651v-8.2M233.301 365.501v8.25M457.451 348.751h8.8q3.65 0 6.2 2.6 2.6 2.55 2.6 6.2 0 3.65-2.6 6.2-2.55 2.6-6.2 2.6h-17.6m8.8-17.6q-3.65 0-6.2-2.6-2.6-2.55-2.6-6.2 0-3.65 2.6-6.2 2.55-2.6 6.2-2.6h17.6M461.851 331.151v-8.8M461.851 366.351v8.8M540.701 351.951q0 3.1 2.15 5.25 2.2 2.15 5.25 2.15h7.4q3.1 0 5.25-2.15t2.15-5.25m-22.2 0v-22.2q0-3.05 2.15-5.2 2.2-2.2 5.25-2.2h7.4q3.05 0 5.25 2.2 2.15 2.15 2.15 5.2M533.301 346.401h14.8M533.301 335.301h14.8M128.001 362.801h15.9M128.001 350.851h15.9M135.951 370.751v-19.9M135.951 350.851l-11.95-23.9M135.951 350.851l11.95-23.9M37.101 392.801h621M237.701 402.951h234.3M77.151 328.551q-1.1-2.85-2.15-6.2M370.751 301.251l3.35 23.2m-3.35-23.2h-45.15l-4.65 32.45h36.25M177.001 232.901h-29.1v53.3M147.901 252.301h24.25M138.201 271.651h19.4M159.951 181.051q9.7-1.85 20.25-1.85M73.601 317.451q-3.6-13.7-3.6-28.05 0-34.5 19.55-62.75 19.15-27.6 50.25-39.85M527.901 201.601q3.8 0 6.5 2.7t2.7 6.5m-9.2-9.2q-3.8 0-6.5 2.7t-2.7 6.5v27.6M512.601 226.151h12.25M512.601 238.401h24.5M602.251 287.551q9.4 16.8 8 36.1m-8-36.1q-9.2-16.4-25.75-25.25"/><path fill="#E3ECF0" d="M486.601 147.951q-7.2-1.25-15.05-1.25-34.4 0-60.35 22.5-25.7 22.3-30.7 55.75-12.65-11.85-28.55-18.25-16.55-6.7-34.5-6.7-20.05 0-38.15 8.3-17.5 7.95-30.4 22.35-10.45-11.95-24.2-19.8-14.1-8-30.05-10.7v89.9q0 3.3 2.35 5.65 2.35 2.35 5.65 2.35h275.95q3.35 0 5.65-2.35 2.35-2.35 2.35-5.65v-142.1"/><path fill="#7AC7EE" stroke="#1A344F" stroke-width="2.5" stroke-linecap="round" stroke-linejoin="round" d="M203.951 90.451q-2.35 2.3-2.35 5.65v163.45h291.95V96.101q0-3.35-2.35-5.65-2.3-2.35-5.65-2.35h-275.95q-3.3 0-5.65 2.35"/><path fill="#E9EDEA" stroke="#1A344F" stroke-width="2.5" stroke-linecap="round" stroke-linejoin="round" d="M485.551 301.251q3.35 0 5.65-2.35 2.35-2.35 2.35-5.65v-33.7h-291.95v33.7q0 3.3 2.35 5.65 2.35 2.35 5.65 2.35h275.95"/><path fill="#E9EDEA" stroke="#1A344F" stroke-width="2.5" stroke-linecap="round" stroke-linejoin="round" d="M354.551 280.401q0-2.9-2.05-4.9-2-2.05-4.9-2.05-2.9 0-4.9 2.05-2.05 2-2.05 4.9 0 2.9 2.05 4.9 2 2.05 4.9 2.05 2.9 0 4.9-2.05 2.05-2 2.05-4.9"/><path fill="#7EBDE2" d="M343.601 138.151q-20.15 0-34.4 14.25t-14.25 34.4q0 20.2 14.25 34.45 14.25 14.25 34.4 14.25t34.4-14.25q14.25-14.3 14.25-34.45 0-20.15-14.25-34.4t-34.4-14.25"/><path fill="#E9EDEA" stroke="#1A344F" stroke-width="2.5" stroke-linecap="round" stroke-linejoin="round" d="M346.601 135.151q-20.15 0-34.4 14.25t-14.25 34.4q0 20.2 14.25 34.45 14.25 14.25 34.4 14.25t34.4-14.25q14.25-14.3 14.25-34.45 0-20.15-14.25-34.4t-34.4-14.25"/><path fill="#FFF" stroke="#1A344F" stroke-width="2.5" stroke-linecap="round" stroke-linejoin="round" d="M346.601 144.451q-16.3 0-27.85 11.55-11.55 11.5-11.55 27.8t11.55 27.85q11.55 11.55 27.85 11.55t27.85-11.55q11.55-11.55 11.55-27.85 0-16.25-11.55-27.8t-27.85-11.55"/><path fill="#71A7CB" d="M234.301 195.401q0-.5-.35-.9-.35-.35-.9-.35-.5 0-.9.35-.35.4-.35.9v41.7q0 .55.35.9.4.35.9.35.55 0 .9-.35t.35-.9v-41.7"/><path fill="#9FD2F1" d="M237.701 227.851v-18.55h-9.3v18.55h9.3"/><path fill="#71A7CB" d="M238.601 208.401q-.35-.35-.9-.35h-9.3q-.5 0-.85.35-.4.4-.4.9v18.55q0 .5.4.9.35.35.85.35h9.3q.55 0 .9-.35t.35-.9v-18.55q0-.5-.35-.9m-8.95 2.15h6.8v16.05h-6.8v-16.05M257.501 176.851q0-.5-.4-.85-.35-.4-.85-.4t-.9.4q-.35.35-.35.85v51q0 .55.35.9.4.35.9.35t.85-.35q.4-.4.4-.9v-51"/><path fill="#9FD2F1" d="M260.851 186.151h-9.25v32.4h9.25v-32.4"/><path fill="#71A7CB" d="M262.101 186.151q0-.5-.35-.9-.35-.35-.9-.35h-9.25q-.5 0-.9.35-.35.4-.35.9v32.4q0 .55.35.9.4.35.9.35h9.25q.55 0 .9-.35t.35-.9v-32.4m-2.5 1.25v29.9h-6.75v-29.9h6.75M280.651 181.501q0-.5-.35-.9-.35-.35-.9-.35-.5 0-.9.35-.35.4-.35.9v46.35q0 .55.35.9.4.35.9.35.55 0 .9-.35t.35-.9v-46.35"/><path fill="#9FD2F1" d="M284.051 200.051h-9.3v18.5h9.3v-18.5"/><path fill="#71A7CB" d="M285.301 200.051q0-.5-.4-.9-.35-.35-.85-.35h-9.3q-.5 0-.85.35-.4.4-.4.9v18.5q0 .5.4.9.35.35.85.35h9.3q.5 0 .85-.35.4-.4.4-.9v-18.5m-2.5 1.25v16h-6.8v-16h6.8M413.801 198.951q.55 0 .9-.35t.35-.9v-37.05q0-.5-.35-.9-.35-.35-.9-.35-.5 0-.9.35-.35.4-.35.9v37.05q0 .55.35.9.4.35.9.35"/><path fill="#9FD2F1" d="M418.401 188.451v-18.55h-9.25v18.55h9.25"/><path fill="#71A7CB" d="M419.651 169.901q0-.5-.35-.9-.35-.35-.9-.35h-9.25q-.5 0-.9.35-.35.4-.35.9v18.55q0 .55.35.9.4.35.9.35h9.25q.55 0 .9-.35t.35-.9v-18.55m-2.5 1.25v16.05h-6.75v-16.05h6.75M438.201 132.851q0-.5-.35-.9-.35-.35-.9-.35-.5 0-.9.35-.35.4-.35.9v55.6q0 .55.35.9.4.35.9.35.55 0 .9-.35t.35-.9v-55.6"/><path fill="#9FD2F1" d="M441.601 142.101h-9.25v27.8h9.25v-27.8"/><path fill="#71A7CB" d="M442.851 142.101q0-.5-.35-.9-.35-.35-.9-.35h-9.25q-.5 0-.9.35-.35.4-.35.9v27.8q0 .55.35.9.4.35.9.35h9.25q.55 0 .9-.35t.35-.9v-27.8m-2.5 1.25v25.3h-6.75v-25.3h6.75M461.401 123.551q0-.5-.4-.85-.35-.4-.85-.4t-.9.4q-.35.35-.35.85v55.65q0 .5.35.85.4.4.9.4t.85-.4q.4-.35.4-.85v-55.65"/><path fill="#9FD2F1" d="M464.751 132.851h-9.25v37.05h9.25v-37.05"/><path fill="#71A7CB" d="M466.001 132.851q0-.5-.35-.9-.35-.35-.9-.35h-9.25q-.5 0-.9.35-.35.4-.35.9v37.05q0 .55.35.9.4.35.9.35h9.25q.55 0 .9-.35t.35-.9v-37.05m-2.5 1.25v34.55h-6.75v-34.55h6.75"/><use xlink:href="#c" transform="translate(352.8 162.9)"><animateTransform attributeName="transform" additive="replace" type="translate" repeatCount="indefinite" dur="1.833s" keyTimes="0;0.023;0.045;0.068;0.091;0.114;0.136;0.159;0.182;0.205;0.227;0.25;0.273;0.296;0.318;0.341;0.364;0.386;0.409;0.432;0.455;0.477;0.5;0.523;0.546;1" values="348.501,164.8;348.498,164.807;348.494,164.812;348.491,164.772;348.488,164.825;348.49,164.836;348.481,164.794;348.478,164.801;348.483,164.808;348.469,164.793;348.506,164.82;348.492,164.795;348.488,164.781;348.469,164.836;348.501,164.777;348.482,164.775;348.463,164.822;348.495,164.82;348.526,164.818;348.489,164.717;348.505,164.795;348.467,164.737;348.526,164.823;348.49,164.712;348.501,164.8;348.501,164.8" calcMode="discrete"/><animateTransform attributeName="transform" additive="sum" type="scale" repeatCount="indefinite" dur="1.833s" keyTimes="0;0.023;0.045;0.068;0.091;0.114;0.136;0.159;0.182;0.205;0.227;0.25;0.273;0.296;0.318;0.341;0.364;0.386;0.409;0.432;0.455;0.477;0.5;0.523;0.546;1" values="1,1;0.978,0.978;0.955,0.955;0.933,0.933;0.91,0.91;0.888,0.888;0.865,0.865;0.843,0.843;0.82,0.82;0.915,0.915;1.01,1.01;1.106,1.106;1.201,1.201;1.147,1.147;1.093,1.093;1.039,1.039;0.985,0.985;0.932,0.932;0.878,0.878;0.898,0.898;0.919,0.919;0.939,0.939;0.959,0.959;0.98,0.98;1,1;1,1" calcMode="discrete"/><animateTransform attributeName="transform" additive="sum" type="translate" repeatCount="indefinite" dur="1.833s" keyTimes="0;0.023;0.045;0.068;0.091;0.114;0.136;0.159;0.182;0.205;0.227;0.25;0.273;0.296;0.318;0.341;0.364;0.386;0.409;0.432;0.455;0.477;0.5;0.523;0.546;1" values="4.299,-1.9;4.299,-1.9;4.299,-1.95;4.299,-1.9;4.299,-1.95;4.349,-1.9;4.299,-1.9;4.299,-1.9;4.349,-1.9;4.349,-1.85;4.299,-1.9;4.349,-1.85;4.299,-1.9;4.299,-1.95;4.299,-1.9;4.299,-1.9;4.299,-1.95;4.299,-1.9;4.299,-1.9;4.299,-1.8;4.349,-1.9;4.349,-1.85;4.299,-1.9;4.349,-1.85;4.299,-1.9;4.299,-1.9" calcMode="discrete"/></use></g></svg>