<?xml version="1.0" encoding="utf-8"?>
<!-- Generator: Adobe Illustrator 21.0.0, SVG Export Plug-In . SVG Version: 6.00 Build 0)  -->
<svg version="1.1" id="Layer_1" xmlns="http://www.w3.org/2000/svg" xmlns:xlink="http://www.w3.org/1999/xlink" x="0px" y="0px"
	 viewBox="0 0 695 513.1" style="enable-background:new 0 0 695 513.1;" xml:space="preserve">
<style type="text/css">
	.st0{fill:#FFFFFF;}
	.st1{fill:#12354F;}
	.st2{fill:#A5DCE4;stroke:#12354F;stroke-width:2.5;stroke-linecap:round;stroke-linejoin:round;stroke-miterlimit:10;}
	.st3{fill:#E66A60;}
	.st4{fill:none;stroke:#AFB7BC;stroke-width:2.5;stroke-linecap:round;stroke-linejoin:round;stroke-miterlimit:10;}
	.st5{fill:#9E7E60;}
	.st6{opacity:0.47;}
	.st7{fill:#866952;}
	.st8{fill:#79A85A;}
	.st9{fill:#C29A79;}
	.st10{fill:#93CB77;}
	.st11{opacity:0.41;}
	.st12{opacity:0.63;}
	.st13{opacity:0.67;}
</style>
<path class="st0" d="M695,513.1V0H0v513.1H695"/>
<g>
	<path class="st1" d="M220.3,204.7H198v15.7h26.7v11.3h-41.5v-63.3h41.5v11.3h-26.9v13.7h22.3v11.3H220.3z M256,189.9l10.5-21.3h17
		L265.4,200l19.6,32h-17.8l-10.8-21.8l-10.8,21.8h-17l18.6-32L229,168.6h16.9L256,189.9L256,189.9z M341.3,205.8
		c0,7.8-2.5,14.2-7.5,19.2c-4.9,5.1-11.4,7.6-19.4,7.6s-14.5-2.5-19.6-7.6c-4.9-5.1-7.5-11.4-7.5-19.2v-11.4
		c0-7.8,2.5-14.2,7.5-19.2c4.9-5.1,11.4-7.6,19.4-7.6c8,0,14.5,2.5,19.4,7.6c4.9,5.1,7.5,11.4,7.5,19.2v11.4H341.3z M326.6,194.4
		c0-4.5-1.1-8.3-3.2-11.1c-2.1-2.9-5.1-4.3-9.1-4.3s-7,1.4-9.1,4.3c-2.1,2.9-3.2,6.7-3.2,11.1v11.4c0,4.6,1.1,8.3,3.2,11.3
		c2.1,3,5.2,4.3,9.2,4.3c3.8,0,6.8-1.4,8.9-4.3c2.1-2.9,3.2-6.7,3.2-11.3L326.6,194.4L326.6,194.4z M393.1,179.8h-16.7v52h-14.8v-52
		h-16.4v-11.3h47.9L393.1,179.8L393.1,179.8z M414.6,231.8h-14.6v-63.3h14.6V231.8z M474.2,210.5l0.2,0.3c0.2,7.2-1.9,12.7-6,16.4
		c-4.1,3.7-10.2,5.6-17.8,5.6c-7.8,0-14.2-2.4-18.9-7.2c-4.8-4.8-7.2-11-7.2-18.8v-13.2c0-7.6,2.2-14,6.8-18.8
		c4.6-4.8,10.7-7.2,18.1-7.2c8,0,14.3,1.9,18.6,5.6c4.5,3.8,6.5,9.2,6.4,16.4l-0.2,0.3h-14.3c0-3.8-0.8-6.7-2.5-8.3
		c-1.6-1.7-4.3-2.5-8.1-2.5c-3.3,0-5.9,1.3-7.6,4c-1.7,2.7-2.7,6.2-2.7,10.7v13.4c0,4.5,1,8,2.9,10.7c1.9,2.7,4.8,4,8.3,4
		c3.3,0,5.7-0.8,7.3-2.5c1.4-1.7,2.2-4.5,2.2-8.4h14.6V210.5z M515.1,215.1c0-2.2-0.8-4-2.2-5.2c-1.4-1.3-4.1-2.5-8.1-3.8
		c-7.8-2.5-13.7-5.2-17.5-8.1c-3.8-2.9-5.7-7-5.7-12.4c0-5.2,2.2-9.5,6.7-12.9c4.5-3.3,10-4.9,16.9-4.9c7.2,0,13,1.7,17.5,5.1
		c4.5,3.3,6.5,8.1,6.4,14.3l-0.2,0.3h-14.3c0-3-0.8-5.1-2.4-6.5c-1.6-1.3-4.1-2.1-7.3-2.1c-2.7,0-4.8,0.6-6.4,1.9
		c-1.6,1.3-2.2,2.9-2.2,4.8c0,1.9,0.8,3.3,2.4,4.5c1.6,1.1,4.5,2.5,8.9,4.1c7.3,2.2,12.9,4.8,16.7,8s5.7,7.5,5.7,12.9
		c0,5.6-2.2,9.9-6.5,13c-4.3,3.2-10.2,4.8-17.3,4.8c-7.2,0-13.2-1.7-18.1-5.1c-4.9-3.3-7.3-8.7-7.3-15.9l0.2-0.3H495
		c0,3.7,1,6.4,2.7,7.8c1.7,1.6,4.6,2.4,8.3,2.4c3,0,5.4-0.6,6.8-1.7C514.3,218.6,515.1,217,515.1,215.1L515.1,215.1z"/>
	<path class="st2" d="M124.4,253.5h459.4"/>
	<path class="st1" d="M129.2,328.9c0,4.1,1.6,7.5,5.9,7.5s5.9-3.2,5.9-7.5v-29.6h2.4v29.4c0,5.6-2.4,9.9-8.3,9.9
		c-5.9,0-8.3-4.3-8.3-9.9v-29.4h2.5v29.6H129.2z M164,308.7v0.8h-2.4v-1c0-4.1-1.6-7.2-5.7-7.2s-5.7,3-5.7,7.2
		c0,9.4,14.2,9.7,14.2,20.4c0,5.6-2.4,9.7-8.4,9.7c-5.9,0-8.4-4.1-8.4-9.7v-2.1h2.4v2.2c0,4.1,1.6,7.2,5.9,7.2s5.9-3,5.9-7.2
		c0-9.4-14.2-9.5-14.2-20.4c0-5.9,2.5-9.7,8.3-9.7C161.6,299,164,303.2,164,308.7L164,308.7z M176.7,299.3c6,0,8.6,4,8.6,9.7v19.6
		c0,5.7-2.5,9.7-8.6,9.7h-8.6v-39L176.7,299.3L176.7,299.3z M176.7,335.9c4.3,0,6-3,6-7.2v-19.9c0-4.3-1.9-7.2-6-7.2h-5.9v34.3h5.9
		V335.9z"/>
	<path class="st3" d="M206.6,299.3l-15.4,39h-2.2l15.4-39H206.6z"/>
	<path class="st1" d="M216.8,338.3v-36.6h-8v-2.4h18.4v2.4h-8v36.6H216.8z M238.6,299.3c5.9,0,8.3,3.3,8.3,8.7v3.3
		c0,4.6-1.7,7.2-5.6,8.1c4,1,5.6,3.7,5.6,8v6c0,1.6,0.2,3.3,1,4.6h-2.7c-0.6-1.1-0.8-2.5-0.8-4.6v-6c0-5.2-2.9-6.7-7.3-6.7h-4.1
		v17.5h-2.5v-39L238.6,299.3L238.6,299.3z M237.1,318.6c4.6,0,7.2-1.3,7.2-6.5v-3.7c0-4.1-1.6-6.7-5.9-6.7h-5.6v16.9H237.1z
		 M259.4,323.4l-8.7-24h2.7l7.5,20.5l7.5-20.5h2.5l-8.7,24v14.9h-2.5v-14.9H259.4z"/>
	<g>
		<path class="st1" d="M139.8,383.6v2.4h-10.7v16.2h12.7v2.4h-15.4v-39h15.4v2.4h-12.7v15.7h10.7V383.6z M148.7,395.2
			c0,4.1,1.6,7.5,5.9,7.5s5.9-3.2,5.9-7.5v-29.6h2.4v29.4c0,5.6-2.4,9.9-8.3,9.9s-8.3-4.3-8.3-9.9v-29.4h2.5v29.6H148.7z
			 M175.3,365.6c5.9,0,8.3,3.3,8.3,8.7v3.3c0,4.6-1.7,7.2-5.6,8.1c4,1,5.6,3.7,5.6,8v6c0,1.6,0.2,3.3,1,4.6h-2.7
			c-0.6-1.1-0.8-2.5-0.8-4.6v-6c0-5.2-2.9-6.7-7.3-6.7h-4.1v17.5H167v-39H175.3L175.3,365.6z M173.8,384.9c4.6,0,7.2-1.3,7.2-6.5
			v-3.7c0-4.1-1.6-6.7-5.9-6.7h-5.6v16.9H173.8z"/>
		<path class="st3" d="M205.5,365.6l-15.4,39h-2.2l15.4-39H205.5z"/>
		<path class="st1" d="M215.8,404.6V368h-8v-2.4h18.4v2.4h-8v36.6H215.8z M237.6,365.6c5.9,0,8.3,3.3,8.3,8.7v3.3
			c0,4.6-1.7,7.2-5.6,8.1c4,1,5.6,3.7,5.6,8v6c0,1.6,0.2,3.3,1,4.6h-2.7c-0.6-1.1-0.8-2.5-0.8-4.6v-6c0-5.2-2.9-6.7-7.3-6.7h-4.1
			v17.5h-2.5v-39H237.6L237.6,365.6z M236.2,384.9c4.6,0,7.2-1.3,7.2-6.5v-3.7c0-4.1-1.6-6.7-5.9-6.7h-5.6v16.9H236.2z M258.4,389.7
			l-8.7-24h2.7l7.5,20.5l7.5-20.5h2.5l-8.7,24v14.9h-2.5v-14.9H258.4z"/>
	</g>
	<g>
		<path class="st1" d="M129.2,461.4c0,4.1,1.6,7.5,5.9,7.5s5.9-3.2,5.9-7.5v-29.6h2.4v29.4c0,5.6-2.4,9.9-8.3,9.9
			c-5.9,0-8.3-4.3-8.3-9.9v-29.4h2.5v29.6H129.2z M164,441.3v0.8h-2.4v-1c0-4.1-1.6-7.2-5.7-7.2s-5.7,3-5.7,7.2
			c0,9.4,14.2,9.7,14.2,20.4c0,5.6-2.4,9.7-8.4,9.7c-5.9,0-8.4-4.1-8.4-9.7v-2.1h2.4v2.2c0,4.1,1.6,7.2,5.9,7.2s5.9-3,5.9-7.2
			c0-9.4-14.2-9.5-14.2-20.4c0-5.9,2.5-9.7,8.3-9.7C161.6,431.6,164,435.6,164,441.3L164,441.3z M176.7,431.9c6,0,8.6,4,8.6,9.7
			v19.6c0,5.7-2.5,9.7-8.6,9.7h-8.6v-39H176.7z M176.7,468.5c4.3,0,6-3,6-7.2v-19.9c0-4.3-1.9-7.2-6-7.2h-5.9v34.3h5.9V468.5z"/>
		<path class="st3" d="M206.6,431.9l-15.4,39h-2.2l15.4-39H206.6z"/>
		<path class="st1" d="M227.4,470.9h-17.5v-2.4l15.1-34.3h-14.3v-2.4h17v2.4l-15.1,34.2h14.8V470.9z M235.5,462.2l-1.9,8.6h-2.4
			l8.6-39h3.7l8.7,39h-2.5l-1.9-8.6H235.5L235.5,462.2z M236,459.9h11.3l-5.7-25.1L236,459.9z M264.2,431.9c5.9,0,8.3,3.3,8.3,8.7
			v3.3c0,4.6-1.7,7.2-5.6,8.1c4,1,5.6,3.7,5.6,8v6c0,1.6,0.2,3.3,1,4.6h-2.7c-0.6-1.1-0.8-2.5-0.8-4.6v-6c0-5.2-2.9-6.7-7.3-6.7
			h-4.1v17.5h-2.5v-39H264.2z M262.7,451c4.6,0,7.2-1.3,7.2-6.5v-3.7c0-4.1-1.6-6.7-5.9-6.7h-5.6V451H262.7z"/>
	</g>
	<g>
		<path class="st1" d="M444.9,328.9c0,4.1,1.6,7.5,5.9,7.5s5.9-3.2,5.9-7.5v-29.6h2.4v29.4c0,5.6-2.4,9.9-8.3,9.9s-8.3-4.3-8.3-9.9
			v-29.4h2.5v29.6H444.9z M479.8,308.7v0.8h-2.4v-1c0-4.1-1.6-7.2-5.7-7.2s-5.7,3-5.7,7.2c0,9.4,14.2,9.7,14.2,20.4
			c0,5.6-2.4,9.7-8.4,9.7c-5.9,0-8.4-4.1-8.4-9.7v-2.1h2.4v2.2c0,4.1,1.6,7.2,5.9,7.2s5.9-3,5.9-7.2c0-9.4-14.2-9.5-14.2-20.4
			c0-5.9,2.5-9.7,8.3-9.7C477.4,299,479.8,303.2,479.8,308.7L479.8,308.7z M492.5,299.3c6,0,8.6,4,8.6,9.7v19.6
			c0,5.7-2.5,9.7-8.6,9.7h-8.6v-39L492.5,299.3L492.5,299.3z M492.5,335.9c4.3,0,6-3,6-7.2v-19.9c0-4.3-1.9-7.2-6-7.2h-5.9v34.3h5.9
			V335.9z"/>
		<path class="st3" d="M522.2,299.3l-15.4,39h-2.1l15.4-39H522.2z"/>
		<path class="st1" d="M539.1,338.3h-2.5l-8.3-34.5v34.5H526v-39h3.7l8.1,34.5l8.1-34.5h3.7v39h-2.4v-34.7L539.1,338.3L539.1,338.3z
			 M564,320.2l-8,18.1h-2.5l8.7-20.2l-8.1-18.8h2.7l7.3,16.7l7.5-16.7h2.4l-8.1,18.8l8.7,20.2H572L564,320.2z M580.9,338.3h-2.4v-39
			h3.3l11.6,32.9v-32.9h2.4v39H593l-12.2-34.7v34.7H580.9z"/>
	</g>
	<g>
		<path class="st1" d="M444.9,395.2c0,4.1,1.6,7.5,5.9,7.5s5.9-3.2,5.9-7.5v-29.6h2.4v29.4c0,5.6-2.4,9.9-8.3,9.9s-8.3-4.3-8.3-9.9
			v-29.4h2.5v29.6H444.9z M479.8,375v0.8h-2.4v-1c0-4.1-1.6-7.2-5.7-7.2s-5.7,3-5.7,7.2c0,9.4,14.2,9.7,14.2,20.4
			c0,5.6-2.4,9.7-8.4,9.7c-5.9,0-8.4-4.1-8.4-9.7v-2.1h2.4v2.2c0,4.1,1.6,7.2,5.9,7.2s5.9-3,5.9-7.2c0-9.4-14.2-9.5-14.2-20.4
			c0-5.9,2.5-9.7,8.3-9.7C477.4,365.3,479.8,369.5,479.8,375L479.8,375z M492.5,365.6c6,0,8.6,4,8.6,9.7v19.6c0,5.7-2.5,9.7-8.6,9.7
			h-8.6v-39H492.5L492.5,365.6z M492.5,402.2c4.3,0,6-3,6-7.2v-19.9c0-4.3-1.9-7.2-6-7.2h-5.9v34.3h5.9V402.2z"/>
		<path class="st3" d="M522.2,365.6l-15.4,39h-2.1l15.4-39H522.2z"/>
		<path class="st1" d="M542.4,375v0.8H540v-1c0-4.1-1.6-7.2-5.7-7.2c-4.1,0-5.7,3-5.7,7.2c0,9.4,14.2,9.7,14.2,20.4
			c0,5.6-2.4,9.7-8.4,9.7c-5.9,0-8.4-4.1-8.4-9.7v-2.1h2.4v2.2c0,4.1,1.6,7.2,5.9,7.2c4.3,0,5.9-3,5.9-7.2c0-9.4-14.2-9.5-14.2-20.4
			c0-5.9,2.5-9.7,8.3-9.7C540,365.3,542.4,369.5,542.4,375L542.4,375z M563.2,375.2v2.9h-2.4v-3c0-4.1-1.6-7.3-5.9-7.3
			c-4.3,0-5.9,3.2-5.9,7.3v20.2c0,4.1,1.6,7.3,5.9,7.3c4.3,0,5.9-3.2,5.9-7.3v-8.4h-5.2v-2.4h7.6v10.5c0,5.6-2.4,9.9-8.4,9.9
			c-5.9,0-8.4-4.3-8.4-9.9V375c0-5.6,2.4-9.9,8.4-9.9C560.8,365.3,563.2,369.6,563.2,375.2L563.2,375.2z M576.1,365.6
			c6,0,8.6,4,8.6,9.7v19.6c0,5.7-2.5,9.7-8.6,9.7h-8.6v-39H576.1L576.1,365.6z M576,402.2c4.3,0,6-3,6-7.2v-19.9
			c0-4.3-1.9-7.2-6-7.2h-5.9v34.3h5.9V402.2z"/>
	</g>
	<g>
		<path class="st1" d="M455.6,449.9v2.4h-10.7v16.2h12.7v2.4h-15.4v-39h15.4v2.4h-12.7v15.7h10.7V449.9z M464.5,461.4
			c0,4.1,1.6,7.5,5.9,7.5s5.9-3.2,5.9-7.5v-29.6h2.4v29.4c0,5.6-2.4,9.9-8.3,9.9s-8.3-4.3-8.3-9.9v-29.4h2.5v29.6H464.5z M491,431.9
			c5.9,0,8.3,3.3,8.3,8.7v3.3c0,4.6-1.7,7.2-5.6,8.1c4,1,5.6,3.7,5.6,8v6c0,1.6,0.2,3.3,1,4.6h-2.7c-0.6-1.1-0.8-2.5-0.8-4.6v-6
			c0-5.2-2.9-6.7-7.3-6.7h-4.1v17.5h-2.5v-39H491z M489.6,451c4.6,0,7.2-1.3,7.2-6.5v-3.7c0-4.1-1.6-6.7-5.9-6.7h-5.6V451H489.6z"/>
		<path class="st3" d="M521.3,431.9l-15.4,39h-2.2l15.4-39H521.3z"/>
		<path class="st1" d="M541.4,441.3v0.8h-2.4v-1c0-4.1-1.6-7.2-5.7-7.2s-5.7,3-5.7,7.2c0,9.4,14.2,9.7,14.2,20.4
			c0,5.6-2.4,9.7-8.4,9.7c-5.9,0-8.4-4.1-8.4-9.7v-2.1h2.4v2.2c0,4.1,1.6,7.2,5.9,7.2c4.3,0,5.9-3,5.9-7.2c0-9.4-14.2-9.5-14.2-20.4
			c0-5.9,2.5-9.7,8.3-9.7C539.1,431.6,541.4,435.6,541.4,441.3L541.4,441.3z M558.8,449.9v2.4h-10.7v16.2h12.7v2.4h-15.4v-39h15.4
			v2.4h-12.7v15.7h10.7V449.9z M570.4,452.5l-2.7,4.3v14.2h-2.5v-39h2.5v20.5l12.7-20.5h2.7L572,450.1l11.9,20.8H581L570.4,452.5z"
			/>
	</g>
	<path class="st4" d="M357.5,302.8v179"/>
	<g>
		<path class="st5" d="M555.6,140c-3-0.2-5.7-1.7-7.2-4.9c-2.5-5.4-0.2-11.8,5.2-14.3c5.4-2.5,11.8-0.2,14.3,5.2
			c1.6,3.5,0.8,6.7-1.4,9.2"/>
		<path class="st1" d="M555.6,140.7c-3.5-0.2-6.4-2.1-7.8-5.4c-2.7-5.7-0.2-12.6,5.6-15.1c5.7-2.7,12.6-0.2,15.1,5.6
			c1.6,3.5,1.1,7-1.4,10c-0.3,0.3-0.6,0.3-1,0c-0.3-0.3-0.3-0.6,0-1c1.6-1.7,3-4.6,1.3-8.6c-2.4-5.1-8.3-7.3-13.4-4.9
			c-5.1,2.4-7.3,8.3-4.9,13.4c1.3,2.9,3.7,4.5,6.7,4.6c0.3,0,0.6,0.3,0.6,0.6C556.2,140.3,555.9,140.7,555.6,140.7z"/>
		<g class="st6">
			<path class="st7" d="M553.7,120.8c0,0-1.7,15.1,9.9,14.5l-6.5,4.5c0,0-11.3-0.2-8.4-14C550,123,553.7,120.8,553.7,120.8
				L553.7,120.8z"/>
		</g>
		<path class="st8" d="M565,119.7c0,0,22.6,20.8,69.6,23.2c0,0-18-28.1-60.7-34.8L565,119.7z"/>
		<path class="st1" d="M634.8,143.5c-24.5-1.3-42.3-7.5-52.8-12.6c-11.4-5.4-17.2-10.7-17.3-10.8c-0.3-0.2-0.3-0.6,0-1l9.1-11.6
			c0.2-0.2,0.3-0.3,0.6-0.3c22.3,3.5,37.7,12.9,46.7,20c9.9,7.8,14.3,14.8,14.5,15.1c0.2,0.2,0.2,0.5,0,0.6
			C635.3,143.4,634.9,143.5,634.8,143.5z M565.9,119.5c3.5,2.9,25.6,20,67.4,22.6c-4-5.2-22.3-27.3-59-33.4L565.9,119.5L565.9,119.5
			z"/>
		<path class="st9" d="M552.4,250.7c-0.2-3.8,3-83.3,5.6-128.2c2.4-3.7,6.7,0.5,6.7,0.5s7.2,35.1,5.1,127.8"/>
		<path class="st1" d="M569.9,251.3C569.8,251.3,569.8,251.3,569.9,251.3c-0.3,0-0.6-0.3-0.6-0.6c2.1-87.8-4.3-124.3-4.9-127.5
			c-0.5-0.5-2.2-1.9-3.8-1.6c-0.6,0.2-1.1,0.5-1.6,1.1c-2.5,43.9-5.9,124.2-5.6,127.8c0,0.3-0.3,0.6-0.6,0.6c-0.3,0-0.6-0.3-0.6-0.6
			c-0.2-4,3-83,5.6-128.2c0-0.2,0-0.2,0.2-0.3c0.6-1.1,1.6-1.7,2.7-1.9c2.4-0.3,4.9,2.1,5.1,2.1c0.2,0.2,0.2,0.2,0.2,0.3
			c0,0.3,7.2,36.3,5.1,128C570.5,251,570.2,251.3,569.9,251.3L569.9,251.3z"/>
		<g class="st6">
			<path class="st5" d="M557.5,131.9c0,0-0.6,9.1,11.1,20c0,0-1.9-25.9-5.4-33.2C559.7,111.6,557.5,131.9,557.5,131.9z"/>
		</g>
		<path class="st10" d="M562.6,117.4c0,0-14,35.5-55.8,49.3c0,0,2.5-35.1,44.5-48.8"/>
		<path class="st1" d="M506.8,167.4c-0.2,0-0.3,0-0.5-0.2c-0.2-0.2-0.3-0.3-0.3-0.6s0.6-9.1,6.5-19.6c5.4-9.7,16.5-22.7,38.3-29.9
			c0.3-0.2,0.8,0,0.8,0.5c0.2,0.3,0,0.8-0.5,0.8c-21.5,7-32.3,19.9-37.5,29.3c-4.6,8.3-5.9,15.4-6.4,18
			c40.4-13.7,54.2-48.2,54.4-48.5c0.2-0.3,0.5-0.5,1-0.3c0.3,0.2,0.5,0.5,0.3,1c0,0.2-3.7,9.1-12.2,19.7c-8,9.7-22.1,22.9-43.9,30.1
			C506.9,167.4,506.9,167.4,506.8,167.4L506.8,167.4z"/>
		<path class="st10" d="M562.6,117.4c0,0-11.6,0.6-23.2,0.3c-1.1,0-1.3-4.3-2.5-4.3c-1.7-0.2-4.5,4-6.2,3.8
			c-13.4-1.4-25.3-8.1-36.1-17.3C494.5,99.8,536.5,74.8,562.6,117.4"/>
		<path class="st1" d="M547.2,118.6c-2.5,0-5.1,0-7.8-0.2c-1.1,0-1.4-1.3-1.9-2.5c-0.2-0.6-0.5-1.6-0.8-1.7c-0.5,0-1.6,1-2.5,1.7
			c-1.3,1.1-2.5,2.2-3.8,2.1c-12.2-1.3-24.2-7-36.4-17.5c-0.2-0.2-0.3-0.3-0.2-0.6c0-0.2,0.2-0.5,0.3-0.5c0.2,0,10.8-6.4,24.6-7.3
			c12.7-0.8,30.8,2.9,44.5,25.1c0.2,0.2,0.2,0.5,0,0.6s-0.3,0.3-0.6,0.3C562.6,118.1,555.8,118.6,547.2,118.6z M539.5,117.1
			c9.4,0.3,18.8,0,21.9-0.2c-10.7-16.9-25-24.8-42.6-23.7c-11.3,0.8-20.4,5.2-23.2,6.7c11.9,9.9,23.4,15.3,35,16.5
			c0.6,0,1.7-1,2.7-1.7c1.3-1.1,2.4-2.1,3.5-2.1s1.4,1.4,1.9,2.7C539.1,116,539.2,116.8,539.5,117.1L539.5,117.1z"/>
		<path class="st10" d="M540.2,57.5c0,0-4.1,34.5,21.8,57.2c0,0,13.8-2.9,6.2-28.6C561.6,64,540.2,57.5,540.2,57.5z"/>
		<path class="st1" d="M562,115.4c-0.2,0-0.3,0-0.5-0.2c-13.5-11.8-18.8-26.9-20.8-37.5c-2.2-11.4-1.1-20.2-1.1-20.4
			s0.2-0.3,0.3-0.5c0.2-0.2,0.3-0.2,0.6-0.2c0.2,0,21.9,7,28.5,29.1c3.2,10.7,3,18.8-0.2,24.2C565.9,114.6,562.1,115.4,562,115.4z
			 M540.7,58.5c-0.5,5.4-1.4,35.3,21.3,55.5c1-0.3,3.5-1.4,5.4-4.6c3-4.9,3-12.9,0-23.1C561.8,67.4,544.6,59.9,540.7,58.5z"/>
		<g>
			<path class="st10" d="M513,102.2c0,0,32.1,1.7,49,14.3c33.1,11.8,71.4-23.7,71.6-25c-15.7-4.8-28.5-5.2-38.6-3.2
				c-2.7,0.5-4,5.2-6.2,6c-2.4,0.8-5.7-2.2-7.6-1.3c-16.1,8.1-16.2,16.4-19.2,21.6"/>
			<path class="st1" d="M576.3,119.5c-4.8,0-9.7-0.6-14.3-2.4c0,0-0.2,0-0.2-0.2c-8.6-6.4-21.5-9.9-30.5-11.8
				c-10-1.9-18-2.4-18.1-2.4c-0.3,0-0.6-0.3-0.6-0.6c0-0.3,0.3-0.6,0.6-0.6c0.2,0,8.3,0.5,18.3,2.5c8.9,1.7,21.3,5.1,30.1,11.3
				c-0.2-0.2-0.2-0.5,0-0.8c0.6-1.1,1.1-2.2,1.6-3.5c2.1-4.9,4.9-11.8,17.8-18.4c1.3-0.6,2.9,0,4.3,0.5c1.3,0.5,2.5,1,3.5,0.6
				c0.8-0.3,1.7-1.4,2.5-2.5c1.1-1.6,2.2-3,3.8-3.5c11.4-2.2,24.5-1.1,39,3.3c0.3,0.2,0.5,0.3,0.5,0.6c0,1.1-7.3,7.5-15.7,13
				C609.2,110.8,593,119.5,576.3,119.5L576.3,119.5z M562.4,115.9c9.2,3.2,24.8,4.6,46.7-7.2c11.8-6.4,21-14.3,23.2-16.7
				c-13.7-4.1-26.2-5.1-37.4-3c-1.1,0.2-2.1,1.6-3,2.9c-1,1.3-1.9,2.7-3.2,3c-1.4,0.5-2.9-0.2-4.5-0.6c-1.3-0.5-2.5-1-3.2-0.6
				c-12.6,6.4-15.1,12.7-17.2,17.6c-0.5,1.3-1.1,2.5-1.7,3.7c-0.2,0.3-0.5,0.5-0.8,0.3C562,115.5,562.1,115.7,562.4,115.9
				L562.4,115.9z"/>
		</g>
		<g>
			<path class="st5" d="M570.2,121.9c3,0.6,5.4,2.5,6.4,6c1.6,5.7-1.6,11.6-7.3,13.4c-5.7,1.6-11.6-1.6-13.4-7.3
				c-1.1-3.7,1.9-7.5,4.5-9.7"/>
			<path class="st1" d="M566.3,142.2c-4.9,0-9.5-3.3-11-8.3c-1.1-3.8,1.6-8,4.6-10.3c0.3-0.3,0.6-0.2,1,0.2c0.3,0.3,0.2,0.6-0.2,1
				c-2.5,2.1-5.1,5.7-4.1,9.1c1.6,5.4,7.2,8.4,12.4,6.8c5.4-1.6,8.4-7.2,6.8-12.4c-0.8-3-2.9-4.9-5.9-5.6c-0.3,0-0.6-0.5-0.5-0.8
				c0-0.3,0.5-0.6,0.8-0.5c3.5,0.6,5.9,3,6.8,6.5c1.7,6-1.7,12.4-7.8,14.2C568.3,142.1,567.4,142.2,566.3,142.2L566.3,142.2z"/>
			<g class="st6">
				<path class="st5" d="M569.3,141.1c0,0,4-14.6-7.5-15.7l7.2-3.5c0,0,11.1,1.7,6.2,15.1C573.2,139.5,569.3,141.1,569.3,141.1
					L569.3,141.1z"/>
			</g>
		</g>
		<g>
			<path class="st10" d="M624.9,181.5c0,0-8-0.6-18.3-4.3c-2.2-0.8-2.9-6.5-5.4-7.6c-2.7-1.3-7.3,2.1-10,0.3
				c-14.2-8.9-27.5-24.6-28.6-52C562.6,117.8,619.4,133.8,624.9,181.5z"/>
			<path class="st1" d="M624.9,182.2c-0.2,0-8.3-0.6-18.4-4.3c-1.4-0.5-2.2-2.2-3-4.1c-0.6-1.6-1.4-3.2-2.4-3.7
				c-1.1-0.5-2.5-0.2-4.3,0.3c-2.1,0.5-4.1,1-5.9,0c-18.3-11.6-28-29.3-28.9-52.5c0-0.2,0.2-0.5,0.3-0.6s0.3-0.2,0.6-0.2
				c0.2,0,14.5,4.1,29.3,14c13.7,9.2,30.7,25.3,33.5,50.2c0,0.2,0,0.5-0.2,0.5C625.4,182,625.1,182.2,624.9,182.2L624.9,182.2z
				 M599.8,168.6c0.6,0,1.3,0.2,1.7,0.3c1.4,0.6,2.2,2.5,3,4.3c0.6,1.4,1.4,3,2.2,3.3c8.3,2.9,14.9,3.8,17.3,4.1
				c-3.2-23.9-19.6-39.4-32.9-48.3c-12.6-8.4-24.6-12.6-28-13.5c1.1,22.4,10.7,39.4,28.3,50.6c1.3,0.8,3,0.3,4.8-0.2
				C597.6,168.8,598.7,168.6,599.8,168.6L599.8,168.6z"/>
		</g>
		<g>
			<path class="st1" d="M562.6,118.6c-0.3,0-0.5-0.2-0.6-0.3c-0.2-0.3,0-0.8,0.3-1c0.3-0.2,31.6-17.5,51.4-21.9
				c0.3-0.2,0.8,0.2,0.8,0.5c0.2,0.3-0.2,0.8-0.5,0.8c-19.6,4.5-50.6,21.6-50.9,21.8C562.9,118.4,562.8,118.6,562.6,118.6
				L562.6,118.6z"/>
		</g>
		<g>
			<path class="st1" d="M612.5,169.6c-0.2,0-0.3,0-0.5-0.2c-24.6-19.2-48.3-51.7-48.7-52c-0.2-0.3-0.2-0.8,0.2-1
				c0.3-0.2,0.8-0.2,1,0.2c0.2,0.3,23.9,32.6,48.3,51.7c0.3,0.2,0.3,0.6,0.2,1C612.8,169.4,612.7,169.6,612.5,169.6L612.5,169.6z"/>
		</g>
		<g class="st6">
			<path class="st5" d="M556.9,139.7c0,0,1.9,93.2,5.6,109.7c-4.8,1.6-10,0.6-10,0.6S556.9,139.7,556.9,139.7z"/>
		</g>
		<g class="st11">
			<path class="st10" d="M559.9,117.6c0,0-39.8,15.6-45,46l-8.1,1.9c0,0,6-27.2,32.1-42.5C551.3,117.8,559.9,117.6,559.9,117.6
				L559.9,117.6z"/>
		</g>
		<g class="st11">
			<path class="st10" d="M539.1,123c0,0,17.3-2.4,18.9,3.5c1.6,6,3.5-9.1,3.5-9.1S545.4,119,539.1,123z"/>
		</g>
		<g class="st12">
			<path class="st10" d="M579.9,124.9c0,0,0.2,19.6,18,44.7l-5.2,0.8c0,0-25.9-12.7-29.7-49.4l1.9-2.7L579.9,124.9z"/>
		</g>
		<g class="st13">
			<path class="st10" d="M587.7,128.1c0,0,11-2.2,18.8-8.6l-8.4-4.6l-31.2,3.2L587.7,128.1z"/>
		</g>
		<g class="st13">
			<path class="st10" d="M540.5,72c0,0,12.6,27,28.8,23.4c1.4-0.6,1.9,4.3,1.9,4.3l-8,15.9C563.2,115.5,541,94.5,540.5,72L540.5,72z
				"/>
		</g>
		<g class="st13">
			<path class="st10" d="M530.2,93.3c0,0,14.9,7.8,21.1,24.6c1,0.8,13.5,0.3,13.5,0.3S547.5,95.8,530.2,93.3z"/>
		</g>
	</g>
	<g>
		<path class="st1" d="M246.2,109c2.2-0.3,5.2-0.6,9.1-0.6c4.6,0,8,1.1,10.2,3c2.1,1.7,3.2,4.3,3.2,7.6c0,3.3-1,5.9-2.9,7.8
			c-2.5,2.7-6.5,4-11.1,4c-1.4,0-2.7,0-3.8-0.3V145h-4.6L246.2,109L246.2,109z M250.8,126.5c1,0.3,2.4,0.3,3.8,0.3
			c5.7,0,9.1-2.7,9.1-7.8c0-4.8-3.3-7.2-8.6-7.2c-2.1,0-3.7,0.2-4.5,0.3v14.3L250.8,126.5z M305.8,126.3c0,12.6-7.6,19.1-16.9,19.1
			c-9.5,0-16.4-7.5-16.4-18.4c0-11.4,7.2-19.1,16.9-19.1C299.3,108.1,305.8,115.5,305.8,126.3z M277.7,127c0,7.8,4.1,14.6,11.6,14.6
			c7.5,0,11.6-6.8,11.6-15.1c0-7.2-3.8-14.8-11.6-14.8C281.5,111.9,277.7,119,277.7,127z M311.9,109c2.2-0.3,5.2-0.6,9.1-0.6
			c4.6,0,8,1.1,10.2,3c2.1,1.7,3.2,4.3,3.2,7.6c0,3.3-1,5.9-2.9,7.8c-2.5,2.7-6.5,4-11.1,4c-1.4,0-2.7,0-3.8-0.3V145h-4.6L311.9,109
			L311.9,109z M316.6,126.5c1,0.3,2.4,0.3,3.8,0.3c5.7,0,9.1-2.7,9.1-7.8c0-4.8-3.3-7.2-8.6-7.2c-2.1,0-3.7,0.2-4.5,0.3v14.3
			L316.6,126.5z M345.2,108.5V130c0,8.1,3.7,11.6,8.4,11.6c5.4,0,8.9-3.5,8.9-11.6v-21.5h4.8v21.1c0,11.1-5.9,15.7-13.7,15.7
			c-7.5,0-13-4.3-13-15.6v-21.3H345.2L345.2,108.5z M375.3,108.5h4.6v32.3h15.6v4h-20.2L375.3,108.5L375.3,108.5z M406.6,133.5
			l-3.8,11.4H398l12.4-36.3h5.7l12.4,36.3h-4.9l-3.8-11.4L406.6,133.5L406.6,133.5z M418.5,129.8l-3.5-10.5
			c-0.8-2.4-1.3-4.5-1.9-6.7H413c-0.5,2.2-1.1,4.3-1.9,6.5l-3.5,10.5h11L418.5,129.8z M433.6,109c2.4-0.5,5.7-0.8,9.1-0.8
			c4.9,0,8.3,1,10.5,3c1.9,1.6,2.9,4.1,2.9,6.8c0,4.8-3,8-6.8,9.2v0.2c2.9,1,4.5,3.5,5.4,7.3c1.1,5.1,2.1,8.6,2.9,10h-4.8
			c-0.6-1-1.4-4.1-2.4-8.7c-1.1-4.9-3-6.8-7.3-7h-4.5v15.7H434V109H433.6z M438.4,125.6h4.8c4.9,0,8.1-2.7,8.1-6.8
			c0-4.6-3.3-6.7-8.3-6.8c-2.2,0-3.8,0.2-4.6,0.5V125.6z"/>
	</g>
	<g>
		<path class="st5" d="M152.2,127.5c3.5-0.2,6.5-1.9,8.3-5.7c2.9-6.2,0.2-13.4-6-16.2c-6.2-2.9-13.4-0.2-16.2,6
			c-1.9,4-1,7.6,1.6,10.5"/>
		<path class="st1" d="M152.2,128.4c-0.5,0-1-0.5-1-1c0-0.6,0.5-1.1,1-1.1c3.3-0.2,5.9-1.9,7.3-5.1c2.5-5.6,0.2-12.2-5.6-14.9
			c-2.7-1.3-5.7-1.4-8.6-0.3c-2.9,1.1-5.1,3.2-6.4,5.9c-1.9,4.3-0.3,7.5,1.4,9.4c0.3,0.5,0.3,1.1-0.2,1.4c-0.5,0.3-1.1,0.3-1.4-0.2
			c-3-3.3-3.7-7.5-1.7-11.6c1.4-3.2,4.1-5.7,7.5-6.8c3.3-1.3,7-1.1,10.2,0.3c6.7,3,9.5,11,6.5,17.6
			C159.7,126,156.5,128.3,152.2,128.4C152.4,128.4,152.4,128.4,152.2,128.4z"/>
		<g class="st6">
			<path class="st7" d="M154.4,105.5c0,0,2.1,17.2-11.1,16.5l7.5,5.1c0,0,12.9-0.2,9.5-15.9C158.7,107.9,154.4,105.5,154.4,105.5z"
				/>
		</g>
		<path class="st8" d="M132.5,93.8c0,0-1.6,43.4,36.1,77c0,0,13.4-37.8-24.3-71.2"/>
		<path class="st1" d="M168.6,171.7c-0.3,0-0.5-0.2-0.6-0.3c-37.5-33.4-36.4-77.3-36.4-77.8c0-0.6,0.5-1,1.1-1c0.6,0,1,0.5,1,1.1
			c0,0.5-1.1,42.5,34.5,75c0.8-3.2,2.5-11.1,1.4-21.3c-1.3-12.2-6.7-30.4-25.9-47.4c-0.5-0.3-0.5-1-0.2-1.4s1-0.5,1.4-0.2
			c19.7,17.5,25.3,36.3,26.6,48.8c1.4,13.7-1.9,23.2-2.1,23.5c-0.2,0.3-0.3,0.6-0.6,0.6C168.8,171.7,168.6,171.7,168.6,171.7
			L168.6,171.7z"/>
		<path class="st8" d="M141.6,104.2c0,0-25.8,23.7-79.5,26.4c0,0,20.5-32,69.2-39.8L141.6,104.2z"/>
		<path class="st1" d="M61.9,131.6c-0.3,0-0.6-0.2-1-0.5c-0.2-0.3-0.2-0.8,0-1.1c0.2-0.3,21.3-32.4,70-40.2c0.3,0,0.8,0.2,1,0.3
			l10.3,13.4c0.3,0.5,0.3,1-0.2,1.4C141.9,105.2,115.6,128.9,61.9,131.6C62.1,131.6,62.1,131.6,61.9,131.6z M130.7,92
			c-40.9,6.7-61.7,30.8-66.8,37.5c46.6-2.9,71.6-21.8,76-25.4L130.7,92z"/>
		<path class="st9" d="M155.9,253.5c0.2-4.3-3.5-95.1-6.4-146.1c-2.7-4.3-7.6,0.5-7.6,0.5s-8.1,40.1-5.7,145.8"/>
		<path class="st1" d="M136,254.7c-0.5,0-1-0.5-1-1c-2.4-104.6,5.7-145.6,5.7-146c0-0.2,0.2-0.3,0.3-0.5c0.2-0.2,3-2.9,6-2.5
			c1.3,0.2,2.4,1,3.2,2.2c0.2,0.2,0.2,0.3,0.2,0.5c3,51.7,6.7,141.8,6.4,146.3c0,0.6-0.5,1-1.1,1c-0.6,0-1-0.5-1-1.1
			c0.2-4.3-3.5-95.7-6.4-145.8c-0.5-0.6-1-1-1.6-1.1c-1.4-0.2-3.2,1.1-4.1,1.7c-0.8,4.1-8,45.8-5.6,145.2
			C137.1,254.2,136.6,254.7,136,254.7L136,254.7z"/>
		<g class="st6">
			<path class="st5" d="M150,118.2c0,0,0.6,10.3-12.7,22.9c0,0,2.2-29.6,6.2-37.8C147.4,94.9,150,118.2,150,118.2z"/>
		</g>
		<path class="st10" d="M144.1,101.7c0,0,15.9,40.4,63.8,56.1c0,0-2.9-40.1-50.7-55.7"/>
		<path class="st1" d="M207.9,158.8h-0.3c-47.7-15.6-64.2-56.3-64.4-56.8c-0.2-0.5,0-1.1,0.6-1.3c0.5-0.2,1.1,0,1.3,0.6
			c0.2,0.3,15.9,39.3,61.5,55c-0.5-3.2-2.1-11.1-7.2-20c-6-10.7-18.3-25.1-42.6-33.2c-0.5-0.2-0.8-0.8-0.6-1.3
			c0.2-0.5,0.8-0.8,1.3-0.6c25,8.3,37.7,23.1,43.9,34.2c6.7,12.1,7.5,21.9,7.5,22.4c0,0.3-0.2,0.6-0.3,1H207.9L207.9,158.8z"/>
		<path class="st10" d="M144.1,101.7c0,0,13.2,0.8,26.6,0.3c1.3,0,1.4-4.9,2.9-4.9c1.9-0.2,5.1,4.5,7.2,4.3
			c15.1-1.6,28.8-9.2,41.2-19.7C221.9,81.5,174,53,144.1,101.7"/>
		<path class="st1" d="M161.8,103.1c-9.7,0-17.6-0.5-17.6-0.5c-0.3,0-0.6-0.2-0.8-0.5s-0.2-0.6,0-1c15.7-25.6,36.4-29.7,51-28.8
			c15.7,1.1,27.7,8.1,28.1,8.3c0.3,0.2,0.5,0.5,0.5,0.8c0,0.3-0.2,0.6-0.3,0.8c-14.2,12.1-27.8,18.6-41.8,20
			c-1.4,0.2-2.9-1.1-4.5-2.4c-0.8-0.6-2.1-1.7-2.5-1.9c-0.2,0.3-0.5,1.3-0.6,1.7c-0.5,1.6-1,3.2-2.4,3.2
			C167.6,103.1,164.6,103.1,161.8,103.1L161.8,103.1z M146,100.7c4,0.2,14.3,0.6,24.5,0.2c0.2-0.3,0.5-1.1,0.6-1.7
			c0.5-1.6,1-3.2,2.4-3.2s2.7,1.1,4.1,2.4c1,0.8,2.4,2.1,2.9,1.9c13.2-1.3,26.1-7.5,39.4-18.6c-3.5-1.7-13.7-6.5-26.1-7.3
			C174.2,73.1,158.1,82,146,100.7L146,100.7z"/>
		<g>
			<path class="st10" d="M169.9,33.3c0,0,4.8,39.4-24.8,65.2c0,0-15.7-3.2-7.2-32.6C145.4,40.8,169.9,33.3,169.9,33.3z"/>
			<path class="st1" d="M145.1,99.6h-0.2c-0.2,0-4.6-1-7.6-6c-3.7-6.2-3.8-15.6-0.2-27.8c7.5-25.4,32.4-33.2,32.6-33.4
				c0.3-0.2,0.6,0,0.8,0.2c0.3,0.2,0.5,0.5,0.5,0.8c0,0.5,4.5,40.2-25.1,66.1C145.5,99.5,145.4,99.6,145.1,99.6L145.1,99.6z
				 M168.9,34.8c-4.9,1.9-23.9,10.3-30.1,31.5c-3.3,11.4-3.3,20.5,0,26.1c2.1,3.5,4.8,4.8,5.9,5.1C170.2,74.8,169.4,41.6,168.9,34.8
				z"/>
		</g>
		<g>
			<path class="st10" d="M200.9,84.2c0,0-36.6,2.1-56,16.4c-37.8,13.4-81.6-27-81.6-28.5c18-5.6,32.4-5.9,44-3.7
				c3,0.6,4.5,5.9,7.2,6.8c2.7,1,6.5-2.5,8.7-1.4c18.3,9.4,18.4,18.6,21.9,24.6"/>
			<path class="st1" d="M128.7,104.2c-19.2,0-37.7-10-48.5-17c-9.2-6-18-13.7-18.1-14.9c0-0.5,0.3-1,0.8-1.1
				c16.4-5.1,31.3-6.2,44.5-3.7c2.1,0.3,3.3,2.2,4.6,4c0.8,1.3,1.7,2.5,2.7,2.9c1,0.3,2.4-0.2,3.8-0.8c1.7-0.6,3.7-1.4,5.1-0.6
				c14.9,7.6,18.1,15.4,20.5,21.1c0.6,1.4,1.1,2.9,1.9,4c0,0.2,0.2,0.3,0.2,0.5c19.7-13.2,53.1-15.1,54.7-15.3c0.5,0,1.1,0.5,1.1,1
				c0,0.6-0.5,1.1-1,1.1c-0.2,0-9.2,0.5-20.7,2.9c-10.5,2.1-25,6-34.8,13.4c-0.2,0-0.2,0.2-0.3,0.2
				C139.8,103.5,134.2,104.2,128.7,104.2z M65.1,72.8c6.4,6.7,45.5,38.8,79.3,26.9c0.2,0,0.2-0.2,0.3-0.2c-0.2-0.2-0.3-0.2-0.5-0.5
				c-0.8-1.3-1.3-2.7-1.9-4.3c-2.4-5.7-5.2-12.9-19.6-20c-0.8-0.3-2.1,0.2-3.5,0.6c-1.7,0.6-3.5,1.4-5.1,0.8
				c-1.6-0.5-2.7-2.1-3.7-3.7c-1-1.4-2.1-2.9-3.3-3.2C94.7,67,80.5,68.2,65.1,72.8L65.1,72.8z"/>
		</g>
		<g>
			<path class="st5" d="M135.5,106.6c-3.3,0.6-6.2,2.9-7.3,6.8c-1.9,6.5,1.9,13.4,8.4,15.1c6.5,1.9,13.4-1.9,15.1-8.4
				c1.3-4.3-2.1-8.6-5.1-11.1"/>
			<path class="st1" d="M140.1,130.2c-1.3,0-2.4-0.2-3.7-0.5c-3.3-1-6.2-3.2-8-6.4c-1.7-3.2-2.1-6.7-1.1-10c1.1-4,4-6.7,8.1-7.5
				c0.5-0.2,1.1,0.3,1.3,0.8c0.2,0.5-0.3,1.1-0.8,1.3c-3.3,0.6-5.6,2.9-6.5,6c-0.8,2.9-0.5,5.9,1,8.6c1.4,2.5,3.8,4.5,6.7,5.4
				c2.9,0.8,5.9,0.5,8.6-1c2.5-1.4,4.5-3.8,5.4-6.7c1.1-3.7-1.9-7.6-4.8-10c-0.5-0.3-0.5-1-0.2-1.4c0.3-0.5,1-0.5,1.4-0.2
				c3.5,2.9,6.7,7.6,5.4,12.1C151.1,126.3,145.9,130.2,140.1,130.2L140.1,130.2z"/>
			<g class="st6">
				<path class="st5" d="M136.6,128.6c0,0-4.6-16.7,8.6-18l-8.1-4c0,0-12.7,2.1-7,17.2C132.2,126.8,136.6,128.6,136.6,128.6z"/>
			</g>
		</g>
		<g>
			<path class="st10" d="M73.2,174.7c0,0,9.1-0.6,20.8-4.8c2.5-1,3.3-7.5,6.2-8.7c3-1.4,8.3,2.2,11.4,0.3
				c16.1-10.2,31.5-28,32.8-59.3C144.3,102.2,79.6,120.3,73.2,174.7z"/>
			<path class="st1" d="M73.2,175.6c-0.3,0-0.5-0.2-0.8-0.3c-0.2-0.2-0.3-0.5-0.3-0.8c3.3-28.5,22.7-46.9,38.3-57.4
				c16.9-11.3,33.2-15.9,33.4-16.1c0.3-0.2,0.6,0,1,0.2c0.3,0.2,0.5,0.5,0.3,0.8c-1.1,26.7-12.2,46.9-33.2,60.1
				c-2.1,1.3-4.6,0.6-6.8,0.2c-1.7-0.5-3.5-0.8-4.6-0.3c-1.1,0.5-1.9,2.4-2.7,4c-1,2.1-1.9,4.1-3.7,4.8
				C82.6,175,73.5,175.6,73.2,175.6L73.2,175.6z M143.2,103.5c-4.3,1.4-17.6,6-31.5,15.4c-15.1,10-33.5,27.7-37.4,54.7
				c2.9-0.3,10.3-1.4,19.4-4.6c1-0.3,1.7-2.1,2.4-3.7c1-2.1,1.9-4.3,3.7-5.1c1.7-0.8,4-0.3,6,0.2s4,1,5.2,0.2
				C130.9,148,141.7,128.7,143.2,103.5z"/>
		</g>
		<g>
			<path class="st1" d="M144.3,103.1c-0.2,0-0.3,0-0.5-0.2c-0.3-0.2-35.8-19.7-58-24.8c-0.5-0.2-1-0.6-0.8-1.3
				c0.2-0.5,0.6-1,1.3-0.8c22.4,5.1,58.2,24.8,58.5,25c0.5,0.3,0.6,1,0.5,1.4C144.9,103,144.6,103.1,144.3,103.1z"/>
		</g>
		<g>
			<path class="st1" d="M87.3,161.3c-0.3,0-0.6-0.2-0.8-0.3c-0.3-0.5-0.3-1.1,0.2-1.4c27.8-21.6,54.9-58.5,55-58.8
				c0.3-0.5,1-0.6,1.4-0.2c0.5,0.3,0.6,1,0.2,1.4c-0.3,0.3-27.3,37.4-55.5,59.3L87.3,161.3L87.3,161.3z"/>
		</g>
		<g class="st6">
			<path class="st5" d="M150.8,127.1c0,0-2.2,106.4-6.4,125.1c5.4,1.7,11.3,0.6,11.3,0.6L150.8,127.1z"/>
		</g>
		<g class="st11">
			<path class="st10" d="M147.3,101.9c0,0,45.5,17.6,51.2,52.5l9.2,2.2c0,0-6.8-31-36.6-48.5C157.1,102.2,147.3,101.9,147.3,101.9z"
				/>
		</g>
		<g class="st11">
			<path class="st10" d="M171.1,107.9c0,0-19.9-2.7-21.6,4.1s-4-10.3-4-10.3S163.8,103.5,171.1,107.9z"/>
		</g>
		<g class="st12">
			<path class="st10" d="M124.5,110.1c0,0-0.2,22.3-20.5,50.9l6,1c0,0,29.6-14.5,34-56.4l-2.2-3L124.5,110.1L124.5,110.1z"/>
		</g>
		<g class="st13">
			<path class="st10" d="M115.6,113.8c0,0-12.4-2.5-21.5-9.9l9.5-5.2l35.6,3.5L115.6,113.8z"/>
		</g>
		<g class="st13">
			<path class="st10" d="M169.5,49.9c0,0-14.5,30.8-32.9,26.6c-1.6-0.8-2.2,4.8-2.2,4.8l9.1,18.1C143.5,99.5,168.9,75.5,169.5,49.9z
				"/>
		</g>
		<g class="st13">
			<path class="st10" d="M181.3,74c0,0-17,8.7-24.2,28.1c-1,1-15.4,0.3-15.4,0.3S161.4,77.1,181.3,74z"/>
		</g>
	</g>
</g>
</svg>
