<svg id="Layer_1" xmlns="http://www.w3.org/2000/svg" viewBox="0 0 695 640.6" style="enable-background:new 0 0 695 640.6"><style>.st0{fill:#fff}.st1{fill:none;stroke:#eaeaea;stroke-width:4;stroke-linecap:round;stroke-linejoin:round;stroke-miterlimit:10}.st2{fill:#383938}.st3,.st4,.st5{fill:none;stroke:#383938;stroke-width:4;stroke-linecap:round;stroke-linejoin:round;stroke-miterlimit:10}.st4,.st5{fill:#f15a3c;stroke:#f15a3c;stroke-width:3}.st5{fill:#15b262;stroke:#15b262}</style><path id="XMLID_3067_" class="st0" d="M0 0h695v640.6H0z"/><g id="XMLID_2551_"><g id="XMLID_3185_"><path id="XMLID_3186_" class="st1" d="M498.1 527.1v-4.7"/></g><g id="XMLID_3183_"><path id="XMLID_3184_" class="st1" d="M498.1 508.5v-4.6"/></g><g id="XMLID_3080_"><path id="XMLID_3182_" class="st1" d="M498.1 378.8v-4.6"/></g><g id="XMLID_3077_"><path id="XMLID_3078_" class="st1" d="M498.1 360.3v-4.7"/></g><g id="XMLID_3075_"><path id="XMLID_3076_" class="st1" d="M498.1 341.7v-4.6"/></g><g id="XMLID_3073_"><path id="XMLID_3074_" class="st1" d="M498.1 323.2v-4.6"/></g><g id="XMLID_3071_"><path id="XMLID_3072_" class="st1" d="M498.1 304.7V300"/></g><g id="XMLID_2980_"><path id="XMLID_2981_" class="st1" d="M498.1 286.1v-4.6"/></g><g id="XMLID_2978_"><path id="XMLID_2979_" class="st1" d="M498.1 267.6V263"/></g><g id="XMLID_2976_"><path id="XMLID_2977_" class="st1" d="M498.1 249.1v-4.7"/></g><g id="XMLID_2974_"><path id="XMLID_2975_" class="st1" d="M498.1 230.5v-4.6"/></g><g id="XMLID_2972_"><path id="XMLID_2973_" class="st1" d="M498.1 212v-4.6"/></g><g id="XMLID_2970_"><path id="XMLID_2971_" class="st1" d="M498.1 193.5v-4.7"/></g><g id="XMLID_2968_"><path id="XMLID_2969_" class="st1" d="M498.1 174.9v-4.6"/></g><g id="XMLID_2966_"><path id="XMLID_2967_" class="st1" d="M498.1 156.4v-4.7"/></g><g id="XMLID_2964_"><path id="XMLID_2965_" class="st1" d="M498.1 137.8v-4.6"/></g><g id="XMLID_2962_"><path id="XMLID_2963_" class="st1" d="M498.1 119.3v-4.6"/></g><g id="XMLID_2960_"><path id="XMLID_2961_" class="st1" d="M498.1 508.3v-4.6"/></g><g id="XMLID_2958_"><path id="XMLID_2959_" class="st1" d="M498.1 489.8v-4.6"/></g><g id="XMLID_2956_"><path id="XMLID_2957_" class="st1" d="M498.1 471.3v-4.7"/></g><g id="XMLID_2560_"><path id="XMLID_2561_" class="st1" d="M498.1 452.7v-4.6"/></g><g id="XMLID_2558_"><path id="XMLID_2559_" class="st1" d="M498.1 434.2v-4.6"/></g><g id="XMLID_2556_"><path id="XMLID_2557_" class="st1" d="M498.1 415.7V411"/></g><g id="XMLID_2554_"><path id="XMLID_2555_" class="st1" d="M498.1 397.1v-4.6"/></g><g id="XMLID_2552_"><path id="XMLID_2553_" class="st1" d="M498.1 378.6V374"/></g></g><g id="XMLID_1924_"><g id="XMLID_3069_"><path id="XMLID_3070_" class="st1" d="M368.4 527.1v-4.7"/></g><g id="XMLID_3046_"><path id="XMLID_3047_" class="st1" d="M368.4 508.5v-4.6"/></g><g id="XMLID_3044_"><path id="XMLID_3045_" class="st1" d="M368.4 378.8v-4.6"/></g><g id="XMLID_3042_"><path id="XMLID_3043_" class="st1" d="M368.4 360.3v-4.7"/></g><g id="XMLID_3040_"><path id="XMLID_3041_" class="st1" d="M368.4 341.7v-4.6"/></g><g id="XMLID_3038_"><path id="XMLID_3039_" class="st1" d="M368.4 323.2v-4.6"/></g><g id="XMLID_3036_"><path id="XMLID_3037_" class="st1" d="M368.4 304.7V300"/></g><g id="XMLID_3034_"><path id="XMLID_3035_" class="st1" d="M368.4 286.1v-4.6"/></g><g id="XMLID_3032_"><path id="XMLID_3033_" class="st1" d="M368.4 267.6V263"/></g><g id="XMLID_3030_"><path id="XMLID_3031_" class="st1" d="M368.4 249.1v-4.7"/></g><g id="XMLID_3028_"><path id="XMLID_3029_" class="st1" d="M368.4 230.5v-4.6"/></g><g id="XMLID_3026_"><path id="XMLID_3027_" class="st1" d="M368.4 212v-4.6"/></g><g id="XMLID_3024_"><path id="XMLID_3025_" class="st1" d="M368.4 193.5v-4.7"/></g><g id="XMLID_3022_"><path id="XMLID_3023_" class="st1" d="M368.4 174.9v-4.6"/></g><g id="XMLID_3020_"><path id="XMLID_3021_" class="st1" d="M368.4 156.4v-4.7"/></g><g id="XMLID_3018_"><path id="XMLID_3019_" class="st1" d="M368.4 137.8v-4.6"/></g><g id="XMLID_2028_"><path id="XMLID_3017_" class="st1" d="M368.4 119.3v-4.6"/></g><g id="XMLID_2023_"><path id="XMLID_2026_" class="st1" d="M368.4 508.3v-4.6"/></g><g id="XMLID_2011_"><path id="XMLID_2020_" class="st1" d="M368.4 489.8v-4.6"/></g><g id="XMLID_1982_"><path id="XMLID_1983_" class="st1" d="M368.4 471.3v-4.7"/></g><g id="XMLID_1980_"><path id="XMLID_1981_" class="st1" d="M368.4 452.7v-4.6"/></g><g id="XMLID_1973_"><path id="XMLID_1977_" class="st1" d="M368.4 434.2v-4.6"/></g><g id="XMLID_1971_"><path id="XMLID_1972_" class="st1" d="M368.4 415.7V411"/></g><g id="XMLID_1927_"><path id="XMLID_1967_" class="st1" d="M368.4 397.1v-4.6"/></g><g id="XMLID_1925_"><path id="XMLID_1926_" class="st1" d="M368.4 378.6V374"/></g></g><path class="st2" d="M94.1 569.5h1.1c1 0 1.8-.4 1.8-1.9v-14.8h3.1v14.6c0 3.9-2.1 4.9-4.4 4.9-.6 0-1 0-1.5-.1v-2.7zM105 552.8v15c0 1.4.6 1.9 1.6 1.9s1.6-.5 1.6-1.9v-15h2.9v14.8c0 3.1-1.6 4.9-4.6 4.9s-4.6-1.8-4.6-4.9v-14.8h3.1zM115.9 558.1v14.1h-2.8v-19.5h3.8l3.1 11.6v-11.6h2.7v19.5h-3.1l-3.7-14.1zM233 572.2h-3.1l-.5-3.5h-3.8l-.5 3.5h-2.8l3.1-19.5h4.5l3.1 19.5zm-7-6.1h2.9l-1.5-9.8-1.4 9.8zM237.4 552.8v15c0 1.4.6 1.9 1.6 1.9s1.6-.5 1.6-1.9v-15h2.9v14.8c0 3.1-1.6 4.9-4.6 4.9s-4.6-1.8-4.6-4.9v-14.8h3.1zM250.1 561.4h4.3v6.2c0 3.1-1.6 4.9-4.6 4.9-3 0-4.6-1.8-4.6-4.9v-10.1c0-3.1 1.6-4.9 4.6-4.9 3 0 4.6 1.8 4.6 4.9v1.9h-2.9v-2.1c0-1.4-.6-1.9-1.6-1.9s-1.6.5-1.6 1.9v10.5c0 1.4.6 1.9 1.6 1.9s1.6-.5 1.6-1.9v-3.6h-1.4v-2.8zM353.4 557.5c0-3.1 1.6-4.9 4.6-4.9 3 0 4.6 1.8 4.6 4.9v10.1c0 3.1-1.6 4.9-4.6 4.9-3 0-4.6-1.8-4.6-4.9v-10.1zm3.1 10.3c0 1.4.6 1.9 1.6 1.9s1.6-.5 1.6-1.9v-10.5c0-1.4-.6-1.9-1.6-1.9s-1.6.5-1.6 1.9v10.5zM373.5 565v2.6c0 3.1-1.6 4.9-4.6 4.9-3 0-4.6-1.8-4.6-4.9v-10.1c0-3.1 1.6-4.9 4.6-4.9 3 0 4.6 1.8 4.6 4.9v1.9h-2.9v-2.1c0-1.4-.6-1.9-1.6-1.9s-1.6.5-1.6 1.9v10.5c0 1.4.6 1.9 1.6 1.9s1.6-.5 1.6-1.9V565h2.9zM374.5 552.8h9.5v2.8h-3.2v16.7h-3.1v-16.7h-3.2v-2.8zM483.1 552.8h4.8c3.1 0 4.6 1.7 4.6 4.8v9.8c0 3.1-1.5 4.8-4.6 4.8h-4.8v-19.4zm3 2.8v13.9h1.7c1 0 1.6-.5 1.6-1.9v-10.1c0-1.4-.6-1.9-1.6-1.9h-1.7zM497.5 561h4.2v2.8h-4.2v5.7h5.3v2.8h-8.3v-19.5h8.3v2.8h-5.3v5.4zM513.5 565v2.6c0 3.1-1.6 4.9-4.6 4.9-3 0-4.6-1.8-4.6-4.9v-10.1c0-3.1 1.6-4.9 4.6-4.9 3 0 4.6 1.8 4.6 4.9v1.9h-2.9v-2.1c0-1.4-.6-1.9-1.6-1.9s-1.6.5-1.6 1.9v10.5c0 1.4.6 1.9 1.6 1.9s1.6-.5 1.6-1.9V565h2.9zM601.8 497.5c0-2.3 1.2-3.7 3.5-3.7s3.5 1.3 3.5 3.7v7.6c0 2.3-1.2 3.7-3.5 3.7s-3.5-1.3-3.5-3.7v-7.6zm2.3 7.7c0 1 .5 1.4 1.2 1.4s1.2-.4 1.2-1.4v-7.9c0-1-.5-1.4-1.2-1.4s-1.2.4-1.2 1.4v7.9zM612.5 506.4v2.2h-2.2v-2.2h2.2zM614 497.6c0-2.5 1.1-3.8 3.5-3.8 2.3 0 3.4 1.3 3.4 3.7v.4h-2.2v-.5c0-1-.5-1.4-1.2-1.4-.8 0-1.3.4-1.3 1.8v2.7c.4-.8 1.1-1.3 2.1-1.3 1.7 0 2.5 1.2 2.5 3.3v2.7c0 2.3-1.2 3.7-3.5 3.7s-3.5-1.3-3.5-3.7v-7.6zm2.3 5v2.6c0 1 .5 1.4 1.2 1.4s1.2-.4 1.2-1.4v-2.6c0-1-.5-1.4-1.2-1.4s-1.2.4-1.2 1.4zM621.9 503.9l4.2-9.9h2.5v9.9h1.1v2.1h-1.1v2.6h-2.3V506h-4.4v-2.1zm4.4 0v-5.5l-2.3 5.5h2.3zM630.5 497.5c0-2.3 1.2-3.7 3.5-3.7s3.5 1.3 3.5 3.7v7.6c0 2.3-1.2 3.7-3.5 3.7s-3.5-1.3-3.5-3.7v-7.6zm2.3 7.7c0 1 .5 1.4 1.2 1.4s1.2-.4 1.2-1.4v-7.9c0-1-.5-1.4-1.2-1.4s-1.2.4-1.2 1.4v7.9zM638.7 497.5c0-2.3 1.2-3.7 3.5-3.7s3.5 1.3 3.5 3.7v7.6c0 2.3-1.2 3.7-3.5 3.7s-3.5-1.3-3.5-3.7v-7.6zm2.3 7.7c0 1 .5 1.4 1.2 1.4s1.2-.4 1.2-1.4v-7.9c0-1-.5-1.4-1.2-1.4s-1.2.4-1.2 1.4v7.9zM601.8 384c0-2.3 1.2-3.7 3.5-3.7s3.5 1.3 3.5 3.7v7.6c0 2.3-1.2 3.7-3.5 3.7s-3.5-1.3-3.5-3.7V384zm2.3 7.7c0 1 .5 1.4 1.2 1.4s1.2-.4 1.2-1.4v-7.9c0-1-.5-1.4-1.2-1.4s-1.2.4-1.2 1.4v7.9zM612.5 392.8v2.2h-2.2v-2.2h2.2zM614 384.1c0-2.5 1.1-3.8 3.5-3.8 2.3 0 3.4 1.3 3.4 3.7v.4h-2.2v-.5c0-1-.5-1.4-1.2-1.4-.8 0-1.3.4-1.3 1.8v2.7c.4-.8 1.1-1.3 2.1-1.3 1.7 0 2.5 1.2 2.5 3.3v2.7c0 2.3-1.2 3.7-3.5 3.7s-3.5-1.3-3.5-3.7v-7.6zm2.3 5v2.6c0 1 .5 1.4 1.2 1.4s1.2-.4 1.2-1.4v-2.6c0-1-.5-1.4-1.2-1.4s-1.2.3-1.2 1.4zM629.2 380.5v2l-3.4 12.6h-2.3l3.4-12.5h-4.6v-2.1h6.9zM630.5 384c0-2.3 1.2-3.7 3.5-3.7s3.5 1.3 3.5 3.7v7.6c0 2.3-1.2 3.7-3.5 3.7s-3.5-1.3-3.5-3.7V384zm2.3 7.7c0 1 .5 1.4 1.2 1.4s1.2-.4 1.2-1.4v-7.9c0-1-.5-1.4-1.2-1.4s-1.2.4-1.2 1.4v7.9zM638.7 384c0-2.3 1.2-3.7 3.5-3.7s3.5 1.3 3.5 3.7v7.6c0 2.3-1.2 3.7-3.5 3.7s-3.5-1.3-3.5-3.7V384zm2.3 7.7c0 1 .5 1.4 1.2 1.4s1.2-.4 1.2-1.4v-7.9c0-1-.5-1.4-1.2-1.4s-1.2.4-1.2 1.4v7.9z"/><g><path class="st2" d="M601.8 272.8c0-2.3 1.2-3.7 3.5-3.7s3.5 1.3 3.5 3.7v7.6c0 2.3-1.2 3.7-3.5 3.7s-3.5-1.3-3.5-3.7v-7.6zm2.3 7.7c0 1 .5 1.4 1.2 1.4s1.2-.4 1.2-1.4v-7.9c0-1-.5-1.4-1.2-1.4s-1.2.4-1.2 1.4v7.9zM612.5 281.6v2.2h-2.2v-2.2h2.2zM620.9 269.3v2l-3.4 12.6h-2.3l3.4-12.5H614v-2.1h6.9zM622.2 272.8c0-2.3 1.2-3.7 3.5-3.7s3.5 1.3 3.5 3.7v7.6c0 2.3-1.2 3.7-3.5 3.7s-3.5-1.3-3.5-3.7v-7.6zm2.3 7.7c0 1 .5 1.4 1.2 1.4s1.2-.4 1.2-1.4v-7.9c0-1-.5-1.4-1.2-1.4s-1.2.4-1.2 1.4v7.9zM630.5 272.8c0-2.3 1.2-3.7 3.5-3.7s3.5 1.3 3.5 3.7v7.6c0 2.3-1.2 3.7-3.5 3.7s-3.5-1.3-3.5-3.7v-7.6zm2.3 7.7c0 1 .5 1.4 1.2 1.4s1.2-.4 1.2-1.4v-7.9c0-1-.5-1.4-1.2-1.4s-1.2.4-1.2 1.4v7.9zM638.7 272.8c0-2.3 1.2-3.7 3.5-3.7s3.5 1.3 3.5 3.7v7.6c0 2.3-1.2 3.7-3.5 3.7s-3.5-1.3-3.5-3.7v-7.6zm2.3 7.7c0 1 .5 1.4 1.2 1.4s1.2-.4 1.2-1.4v-7.9c0-1-.5-1.4-1.2-1.4s-1.2.4-1.2 1.4v7.9z"/></g><g><path class="st2" d="M601.8 161.6c0-2.3 1.2-3.7 3.5-3.7s3.5 1.3 3.5 3.7v7.6c0 2.3-1.2 3.7-3.5 3.7s-3.5-1.3-3.5-3.7v-7.6zm2.3 7.7c0 1 .5 1.4 1.2 1.4s1.2-.4 1.2-1.4v-7.9c0-1-.5-1.4-1.2-1.4s-1.2.4-1.2 1.4v7.9zM612.5 170.4v2.2h-2.2v-2.2h2.2zM620.9 158.1v2l-3.4 12.6h-2.3l3.4-12.5H614v-2.1h6.9zM626.8 161.6c0-1.3-.5-1.7-1.2-1.7s-1.2.4-1.2 1.4v.9h-2.2v-.8c0-2.3 1.2-3.7 3.4-3.7 2.3 0 3.4 1.3 3.4 3.7v.4c0 1.6-.5 2.5-1.6 3 1.1.5 1.6 1.6 1.6 3.1v1.1c0 2.3-1.2 3.7-3.4 3.7-2.3 0-3.4-1.3-3.4-3.7v-1.2h2.2v1.4c0 1 .5 1.4 1.2 1.4s1.2-.4 1.2-1.6v-1.1c0-1.4-.5-1.9-1.5-1.9h-.8v-2h.9c.9 0 1.4-.4 1.4-1.5v-.9zM630.5 161.6c0-2.3 1.2-3.7 3.5-3.7s3.5 1.3 3.5 3.7v7.6c0 2.3-1.2 3.7-3.5 3.7s-3.5-1.3-3.5-3.7v-7.6zm2.3 7.7c0 1 .5 1.4 1.2 1.4s1.2-.4 1.2-1.4v-7.9c0-1-.5-1.4-1.2-1.4s-1.2.4-1.2 1.4v7.9zM638.7 161.6c0-2.3 1.2-3.7 3.5-3.7s3.5 1.3 3.5 3.7v7.6c0 2.3-1.2 3.7-3.5 3.7s-3.5-1.3-3.5-3.7v-7.6zm2.3 7.7c0 1 .5 1.4 1.2 1.4s1.2-.4 1.2-1.4v-7.9c0-1-.5-1.4-1.2-1.4s-1.2.4-1.2 1.4v7.9z"/></g><path id="XMLID_3049_" class="st3" d="M25.5 541h644"/><path id="XMLID_3048_" class="st3" d="M25.5 582.7h644"/><g id="XMLID_2982_"><g id="XMLID_3015_"><path id="XMLID_3016_" class="st1" d="M238.6 527.1v-4.7"/></g><g id="XMLID_3013_"><path id="XMLID_3014_" class="st1" d="M238.6 508.5v-4.6"/></g><g id="XMLID_3011_"><path id="XMLID_3012_" class="st1" d="M238.6 378.8v-4.6"/></g><g id="XMLID_3009_"><path id="XMLID_3010_" class="st1" d="M238.6 360.3v-4.7"/></g><g id="XMLID_3007_"><path id="XMLID_3008_" class="st1" d="M238.6 341.7v-4.6"/></g><g id="XMLID_3005_"><path id="XMLID_3006_" class="st1" d="M238.6 323.2v-4.6"/></g><g id="XMLID_3003_"><path id="XMLID_3004_" class="st1" d="M238.6 304.7V300"/></g><g id="XMLID_3001_"><path id="XMLID_3002_" class="st1" d="M238.6 286.1v-4.6"/></g><g id="XMLID_2999_"><path id="XMLID_3000_" class="st1" d="M238.6 267.6V263"/></g><g id="XMLID_2997_"><path id="XMLID_2998_" class="st1" d="M238.6 249.1v-4.7"/></g><g id="XMLID_2995_"><path id="XMLID_2996_" class="st1" d="M238.6 230.5v-4.6"/></g><g id="XMLID_2993_"><path id="XMLID_2994_" class="st1" d="M238.6 212v-4.6"/></g><g id="XMLID_2991_"><path id="XMLID_2992_" class="st1" d="M238.6 193.5v-4.7"/></g><g id="XMLID_2989_"><path id="XMLID_2990_" class="st1" d="M238.6 174.9v-4.6"/></g><g id="XMLID_2987_"><path id="XMLID_2988_" class="st1" d="M238.6 156.4v-4.7"/></g><g id="XMLID_2985_"><path id="XMLID_2986_" class="st1" d="M238.6 137.8v-4.6"/></g><g id="XMLID_2983_"><path id="XMLID_2984_" class="st1" d="M238.6 119.3v-4.6"/></g><g id="XMLID_1758_"><path id="XMLID_1760_" class="st1" d="M238.6 508.3v-4.6"/></g><g id="XMLID_1756_"><path id="XMLID_1757_" class="st1" d="M238.6 489.8v-4.6"/></g><g id="XMLID_1750_"><path id="XMLID_1753_" class="st1" d="M238.6 471.3v-4.7"/></g><g id="XMLID_1744_"><path id="XMLID_1747_" class="st1" d="M238.6 452.7v-4.6"/></g><g id="XMLID_1738_"><path id="XMLID_1741_" class="st1" d="M238.6 434.2v-4.6"/></g><g id="XMLID_1730_"><path id="XMLID_1733_" class="st1" d="M238.6 415.7V411"/></g><g id="XMLID_1722_"><path id="XMLID_1728_" class="st1" d="M238.6 397.1v-4.6"/></g><g id="XMLID_418_"><path id="XMLID_1056_" class="st1" d="M238.6 378.6V374"/></g></g><g id="XMLID_1761_"><g id="XMLID_1922_"><path id="XMLID_1923_" class="st1" d="M108.9 527.1v-4.7"/></g><g id="XMLID_1920_"><path id="XMLID_1921_" class="st1" d="M108.9 508.5v-4.6"/></g><g id="XMLID_1916_"><path id="XMLID_1919_" class="st1" d="M108.9 378.8v-4.6"/></g><g id="XMLID_1898_"><path id="XMLID_1900_" class="st1" d="M108.9 360.3v-4.7"/></g><g id="XMLID_1891_"><path id="XMLID_1894_" class="st1" d="M108.9 341.7v-4.6"/></g><g id="XMLID_1882_"><path id="XMLID_1888_" class="st1" d="M108.9 323.2v-4.6"/></g><g id="XMLID_1845_"><path id="XMLID_1846_" class="st1" d="M108.9 304.7V300"/></g><g id="XMLID_1842_"><path id="XMLID_1844_" class="st1" d="M108.9 286.1v-4.6"/></g><g id="XMLID_1840_"><path id="XMLID_1841_" class="st1" d="M108.9 267.6V263"/></g><g id="XMLID_1838_"><path id="XMLID_1839_" class="st1" d="M108.9 249.1v-4.7"/></g><g id="XMLID_1836_"><path id="XMLID_1837_" class="st1" d="M108.9 230.5v-4.6"/></g><g id="XMLID_1834_"><path id="XMLID_1835_" class="st1" d="M108.9 212v-4.6"/></g><g id="XMLID_1831_"><path id="XMLID_1832_" class="st1" d="M108.9 193.5v-4.7"/></g><g id="XMLID_1828_"><path id="XMLID_1829_" class="st1" d="M108.9 174.9v-4.6"/></g><g id="XMLID_1825_"><path id="XMLID_1826_" class="st1" d="M108.9 156.4v-4.7"/></g><g id="XMLID_1818_"><path id="XMLID_1823_" class="st1" d="M108.9 137.8v-4.6"/></g><g id="XMLID_1815_"><path id="XMLID_1816_" class="st1" d="M108.9 119.3v-4.6"/></g><g id="XMLID_1810_"><path id="XMLID_1814_" class="st1" d="M108.9 508.3v-4.6"/></g><g id="XMLID_1791_"><path id="XMLID_1793_" class="st1" d="M108.9 489.8v-4.6"/></g><g id="XMLID_1785_"><path id="XMLID_1786_" class="st1" d="M108.9 471.3v-4.7"/></g><g id="XMLID_1782_"><path id="XMLID_1783_" class="st1" d="M108.9 452.7v-4.6"/></g><g id="XMLID_1780_"><path id="XMLID_1781_" class="st1" d="M108.9 434.2v-4.6"/></g><g id="XMLID_1778_"><path id="XMLID_1779_" class="st1" d="M108.9 415.7V411"/></g><g id="XMLID_1774_"><path id="XMLID_1776_" class="st1" d="M108.9 397.1v-4.6"/></g><g id="XMLID_1762_"><path id="XMLID_1763_" class="st1" d="M108.9 378.6V374"/></g></g><path id="XMLID_2035_" class="st3" d="M583.8 541V119.3"/><path id="XMLID_2034_" class="st3" d="M583.8 499.3h9.3"/><path id="XMLID_2032_" class="st3" d="M583.8 388.1h9.3"/><path id="XMLID_2030_" class="st3" d="M583.8 276.9h9.3"/><path id="XMLID_2029_" class="st3" d="M583.8 165.6h9.3"/><g><path class="st2" d="M37.6 51.6h5.2v3.5h-5.2v7.1h6.6v3.5H33.7V41.3h10.4v3.5h-6.6v6.8zM50.2 41.3v18.8c0 1.7.8 2.4 2 2.4s2-.6 2-2.4V41.3h3.6v18.5c0 3.9-1.9 6.1-5.7 6.1s-5.7-2.2-5.7-6.1V41.3h3.8zM68.4 65.7c-.2-.6-.3-1-.3-3v-3.8c0-2.3-.8-3.1-2.5-3.1h-1.3v9.9h-3.8V41.3h5.8c4 0 5.7 1.8 5.7 5.6v1.9c0 2.5-.8 4.1-2.5 4.9 1.9.8 2.5 2.6 2.5 5.2v3.8c0 1.2 0 2 .4 3h-4zm-4.2-20.9v7.5h1.5c1.4 0 2.3-.6 2.3-2.6v-2.4c0-1.7-.6-2.5-1.9-2.5h-1.9zM82.7 41.3H86l-9.6 24.3h-3.3l9.6-24.3zM91.2 41.3v18.8c0 1.7.8 2.4 2 2.4s2-.6 2-2.4V41.3h3.6v18.5c0 3.9-1.9 6.1-5.7 6.1s-5.7-2.2-5.7-6.1V41.3h3.8zM106.5 41.1c3.7 0 5.6 2.2 5.6 6.1v.8h-3.6v-1c0-1.7-.7-2.4-1.9-2.4s-1.9.7-1.9 2.4c0 5 7.5 5.9 7.5 12.9 0 3.9-1.9 6.1-5.7 6.1s-5.7-2.2-5.7-6.1v-1.5h3.6v1.7c0 1.7.8 2.4 2 2.4s2-.6 2-2.4c0-5-7.5-5.9-7.5-12.9 0-3.9 1.9-6.1 5.6-6.1zM114.4 41.3h6c3.8 0 5.7 2.1 5.7 6v12.3c0 3.9-1.9 6-5.7 6h-6V41.3zm3.8 3.5v17.4h2.2c1.2 0 1.9-.6 1.9-2.4V47.2c0-1.7-.7-2.4-1.9-2.4h-2.2z"/></g><path class="st3" d="M32.4 73.7H146"/><g><path class="st4" d="M101.6 141.1h7.4v125.4h-7.4zM119.9 158.4h7.4v143.2h-7.4zM156.6 226.4h7.4v63.8h-7.4zM321.5 389.9h7.4v74h-7.4zM394.8 301.2h7.4V390h-7.4zM413.1 378.5h7.4v91.3h-7.4zM449.8 366.8h7.4v91.3h-7.4zM486.4 381.3h7.4v64.1h-7.4zM504.8 404.3h7.4v101.5h-7.4zM211.6 338.2h7.4v68.4h-7.4zM266.5 418.2h7.4v49.1h-7.4zM229.9 395.5h7.4v91.6h-7.4zM248.2 372.4h7.4V464h-7.4zM193.2 208.3h7.4v147.2h-7.4z"/><path class="st5" d="M83.3 149.9h7.4v38.7h-7.4zM138.3 251.6h7.4v77.7h-7.4zM174.9 203.8h7.4v101.9h-7.4zM284.9 385.4h7.4v101.9h-7.4zM303.2 372.4h7.4v85.8h-7.4zM339.8 389.9h7.4v68.2h-7.4zM358.2 372.4h7.4v68.2h-7.4zM376.5 314h7.4v105.4h-7.4zM468.1 386.7h7.4v80.6h-7.4zM523.1 417.9h7.4v110.6h-7.4zM541.4 387.4h7.4v74.2h-7.4zM431.5 352.7h7.4v141.2h-7.4zM65 141.1h7.4v78H65z"/><path class="st5" d="M72.4 175.5h10.9v3.1H72.4zM292.1 417.9H303v3.1h-10.9zM347.2 398.3h10.9v3.1h-10.9zM365.5 383.8h10.9v3.1h-10.9zM530.5 425.4h10.9v3.1h-10.9z"/><path class="st4" d="M109 178.6h10.9v3.1H109zM401.9 383h10.9v3.1h-10.9zM200.6 344h10.9v3.1h-10.9zM218.9 398.3h10.9v3.1h-10.9zM493.8 416.3h10.9v3.1h-10.9zM255.6 450.9h10.9v3.1h-10.9zM126 288.9h6.6v3.1H126z"/><path class="st5" d="M132.6 288.9h6.6v3.1h-6.6z"/><path class="st4" d="M164 283.1h6.6v3.1H164z"/><path class="st5" d="M170.6 283.1h6.6v3.1h-6.6z"/><path class="st4" d="M455.4 422.9h6.6v3.1h-6.6z"/><path class="st5" d="M462 422.9h6.6v3.1H462z"/><path class="st4" d="M480.5 398.3h6.6v3.1h-6.6z"/><path class="st5" d="M473.9 398.3h6.6v3.1h-6.6z"/><path class="st4" d="M327.3 447.8h6.6v3.1h-6.6z"/><path class="st5" d="M333.9 441.1h6.6v3.1h-6.6z"/><path class="st4" d="M512.1 500.8h6.6v3.1h-6.6z"/><path class="st5" d="M518.7 504.9h6.6v3.1h-6.6z"/><path class="st4" d="M273.3 458.1h6.6v3.1h-6.6z"/><path class="st5" d="M279.9 458.1h6.6v3.1h-6.6z"/><path class="st4" d="M96 156.8h6.6v3.1H96z"/><path class="st5" d="M89.3 156.8h6.6v3.1h-6.6z"/><g><path class="st4" d="M187.8 217.6h6.6v3.1h-6.6z"/><path class="st5" d="M181.2 217.6h6.6v3.1h-6.6z"/></g><g><path class="st4" d="M390.5 321.8h6.6v3.1h-6.6z"/><path class="st5" d="M383.9 321.8h6.6v3.1h-6.6z"/></g><g><path class="st4" d="M445.4 379.7h6.6v3.1h-6.6z"/><path class="st5" d="M438.8 379.7h6.6v3.1h-6.6z"/></g><g><path class="st4" d="M315.6 413h6.6v3.1h-6.6z"/><path class="st5" d="M309 405h6.6v3.1H309z"/></g><g><path class="st4" d="M242.1 428.6h6.6v3.1h-6.6z"/></g><g><path class="st4" d="M235.5 434.8h6.6v3.1h-6.6z"/></g><g><path class="st4" d="M151.3 264.9h6.6v3.1h-6.6z"/><path class="st5" d="M144.7 275h6.6v3.1h-6.6z"/></g><g><path class="st4" d="M419.4 458.5h6.6v3.1h-6.6z"/><path class="st5" d="M426 448.4h6.6v3.1H426z"/></g></g></svg>