<svg xmlns:xlink="http://www.w3.org/1999/xlink" xmlns="http://www.w3.org/2000/svg" baseProfile="basic" width="695" height="565" viewBox="0 0 695 565" preserveAspectRatio="xMinYMin meet"><defs><symbol id="a" overflow="visible"><path fill="#FFF" stroke="#19344F" stroke-width="2.5" stroke-linecap="round" stroke-linejoin="round" d="M60.601 28.05l9.4-3.65-12.45-10-24.55 3.3q-2 .3-4.15.8-4.25 1-4.9 2.05-.65 1.05.3 4.75l1.1 3.45 35.25-.7"/><path fill="#FFF" d="M39.751 4.65q-7.3 4.95-9.05 14.35l53.75 3.2q-1.95-9.6-9.55-15.85Q67.201 0 57.201 0q-10.6 0-17.45 4.65"/><path fill="none" stroke="#19344F" stroke-width="2.5" stroke-linecap="round" stroke-linejoin="round" d="M30.701 19q1.75-9.4 9.05-14.35Q46.601 0 57.201 0q10 0 17.7 6.35 7.6 6.25 9.55 15.85"/><path fill="#FFF" d="M32.501 12.35q-6.8 0-11.6 4.8t-4.8 11.6l27.45-12.15q-4.65-4.25-11.05-4.25"/><path fill="none" stroke="#19344F" stroke-width="2.5" stroke-linecap="round" stroke-linejoin="round" d="M20.901 17.15q4.8-4.8 11.6-4.8 6.4 0 11.05 4.25m-22.65.55q-4.8 4.8-4.8 11.6"/><path fill="#FFF" d="M21.851 23.85q-4-3.5-9.3-3.2-5.25.25-8.9 4.15-3.6 3.95-3.6 9.25 0 1.8 1.3 3.1 1.25 1.25 3.05 1.25h94.8q1.25 0 2.1-.9.9-.9.9-2.15v-2.3q0-6.35-4.5-10.85-4.45-4.5-10.85-4.5-4.75 0-8.6 2.6l-56.4 3.55"/><path fill="none" stroke="#19344F" stroke-width="2.5" stroke-linecap="round" stroke-linejoin="round" d="M12.551 20.65q5.3-.3 9.3 3.2m-9.3-3.2q-5.25.25-8.9 4.15-3.6 3.95-3.6 9.25 0 1.8 1.3 3.1 1.25 1.25 3.05 1.25h94.8q1.25 0 2.1-.9.9-.9.9-2.15v-2.3q0-6.35-4.5-10.85-4.45-4.5-10.85-4.5-4.75 0-8.6 2.6M74.351 11.95q1.4 1.6 2 2.45"/><path fill="#FFF" d="M56.551 4.3l15 5.15q-3.05-2.4-6.75-3.75-4.05-1.4-8.25-1.4"/><path fill="none" stroke="#19344F" stroke-width="2.5" stroke-linecap="round" stroke-linejoin="round" d="M64.801 5.7q3.7 1.35 6.75 3.75m-6.75-3.75q-4.05-1.4-8.25-1.4"/><path fill="#909196" fill-opacity=".38" d="M20.7 38.3q-11.974-.377-11.4-8.85.3-4.45 3.2-8.9-5.25.25-8.9 4.2Q0 28.65 0 34q0 1.75 1.3 3.05 1.25 1.25 3.05 1.25H20.7"/><path fill="none" stroke="#19344F" stroke-width="2.5" stroke-linecap="round" stroke-linejoin="round" d="M12.551 20.65q5.3-.3 9.3 3.2m-9.3-3.2q-5.25.25-8.9 4.15-3.6 3.95-3.6 9.25 0 1.8 1.3 3.1 1.25 1.25 3.05 1.25h94.8q1.25 0 2.1-.9.9-.9.9-2.15v-2.3q0-6.35-4.5-10.85-4.45-4.5-10.85-4.5-4.75 0-8.6 2.6"/></symbol><symbol id="b" overflow="visible"><path fill="#FFF" stroke="#19344F" stroke-width="2.5" stroke-linecap="round" stroke-linejoin="round" d="M538.951 145l9.4-3.6-12.45-10-24.55 3.25q-2 .3-4.15.8-4.25 1-4.9 2.05-.65 1.05.3 4.75l1.1 3.45 35.25-.7"/><path fill="#FFF" d="M562.751 139.2q-1.95-9.6-9.55-15.9-7.7-6.35-17.7-6.35-10.55 0-17.4 4.65-7.3 4.95-9.05 14.35 26.85 1.65 53.7 3.25"/><path fill="none" stroke="#19344F" stroke-width="2.5" stroke-linecap="round" stroke-linejoin="round" d="M553.201 123.3q7.6 6.3 9.55 15.9m-9.55-15.9q-7.7-6.35-17.7-6.35-10.55 0-17.4 4.65-7.3 4.95-9.05 14.35"/><path fill="#FFF" d="M494.451 145.7l27.45-12.1q-4.7-4.3-11.05-4.3-6.8 0-11.6 4.8t-4.8 11.6"/><path fill="none" stroke="#19344F" stroke-width="2.5" stroke-linecap="round" stroke-linejoin="round" d="M510.851 129.3q6.35 0 11.05 4.3m-11.05-4.3q-6.8 0-11.6 4.8t-4.8 11.6"/><path fill="#FFF" d="M565.201 134.65q-4.65 0-8.6 2.65-28.2 1.8-56.4 3.55-4.05-3.45-9.3-3.25-5.25.25-8.9 4.2-3.6 3.95-3.6 9.25 0 1.8 1.25 3.05 1.25 1.25 3.05 1.25h94.8q1.25 0 2.15-.9.9-.85.9-2.1V150q0-6.35-4.5-10.85t-10.85-4.5"/><path fill="none" stroke="#19344F" stroke-width="2.5" stroke-linecap="round" stroke-linejoin="round" d="M556.601 137.3q3.95-2.65 8.6-2.65 6.35 0 10.85 4.5t4.5 10.85v2.35q0 1.25-.9 2.1-.9.9-2.15.9h-94.8q-1.8 0-3.05-1.25-1.25-1.25-1.25-3.05 0-5.3 3.6-9.25 3.65-3.95 8.9-4.2 5.25-.2 9.3 3.25M552.651 128.95q.75.75 2.05 2.45"/><path fill="#FFF" d="M534.901 121.3l14.95 5.1q-3.05-2.35-6.75-3.7-3.95-1.4-8.2-1.4"/><path fill="none" stroke="#19344F" stroke-width="2.5" stroke-linecap="round" stroke-linejoin="round" d="M543.101 122.7q3.7 1.35 6.75 3.7m-6.75-3.7q-3.95-1.4-8.2-1.4"/><path fill="#909196" fill-opacity=".38" d="M499.05 155.3q-11.974-.378-11.4-8.85.3-4.45 3.2-8.9-5.25.25-8.9 4.15-3.6 3.95-3.6 9.25 0 1.8 1.25 3.1 1.25 1.25 3.05 1.25h16.4"/><path fill="none" stroke="#19344F" stroke-width="2.5" stroke-linecap="round" stroke-linejoin="round" d="M556.601 137.3q3.95-2.65 8.6-2.65 6.35 0 10.85 4.5t4.5 10.85v2.35q0 1.25-.9 2.1-.9.9-2.15.9h-94.8q-1.8 0-3.05-1.25-1.25-1.25-1.25-3.05 0-5.3 3.6-9.25 3.65-3.95 8.9-4.2 5.25-.2 9.3 3.25"/></symbol><symbol id="c" overflow="visible"><path fill="#FFF" stroke="#19344F" stroke-width="2.5" stroke-linecap="round" stroke-linejoin="round" d="M767.551 28.05l9.4-3.65-12.45-10-24.55 3.3q-2 .3-4.15.8-4.25 1-4.9 2.05-.65 1.05.3 4.75l1.1 3.45 35.25-.7"/><path fill="#FFF" d="M746.701 4.65q-7.3 4.95-9.05 14.35l53.75 3.2q-1.95-9.6-9.55-15.85-7.7-6.35-17.7-6.35-10.6 0-17.45 4.65"/><path fill="none" stroke="#19344F" stroke-width="2.5" stroke-linecap="round" stroke-linejoin="round" d="M737.651 19q1.75-9.4 9.05-14.35Q753.551 0 764.151 0q10 0 17.7 6.35 7.6 6.25 9.55 15.85"/><path fill="#FFF" d="M739.451 12.35q-6.8 0-11.6 4.8t-4.8 11.6l27.45-12.15q-4.65-4.25-11.05-4.25"/><path fill="none" stroke="#19344F" stroke-width="2.5" stroke-linecap="round" stroke-linejoin="round" d="M727.851 17.15q4.8-4.8 11.6-4.8 6.4 0 11.05 4.25m-22.65.55q-4.8 4.8-4.8 11.6"/><path fill="#FFF" d="M728.801 23.85q-4-3.5-9.3-3.2-5.25.25-8.9 4.15-3.6 3.95-3.6 9.25 0 1.8 1.3 3.1 1.25 1.25 3.05 1.25h94.8q1.25 0 2.1-.9.9-.9.9-2.15v-2.3q0-6.35-4.5-10.85-4.45-4.5-10.85-4.5-4.75 0-8.6 2.6l-56.4 3.55"/><path fill="none" stroke="#19344F" stroke-width="2.5" stroke-linecap="round" stroke-linejoin="round" d="M719.501 20.65q5.3-.3 9.3 3.2m-9.3-3.2q-5.25.25-8.9 4.15-3.6 3.95-3.6 9.25 0 1.8 1.3 3.1 1.25 1.25 3.05 1.25h94.8q1.25 0 2.1-.9.9-.9.9-2.15v-2.3q0-6.35-4.5-10.85-4.45-4.5-10.85-4.5-4.75 0-8.6 2.6M781.301 11.95q1.4 1.6 2 2.45"/><path fill="#FFF" d="M763.501 4.3l15 5.15q-3.05-2.4-6.75-3.75-4.05-1.4-8.25-1.4"/><path fill="none" stroke="#19344F" stroke-width="2.5" stroke-linecap="round" stroke-linejoin="round" d="M771.751 5.7q3.7 1.35 6.75 3.75m-6.75-3.75q-4.05-1.4-8.25-1.4"/><path fill="#909196" fill-opacity=".38" d="M727.65 38.3q-11.974-.377-11.4-8.85.3-4.45 3.2-8.9-5.25.25-8.9 4.2-3.6 3.9-3.6 9.25 0 1.75 1.3 3.05 1.25 1.25 3.05 1.25h16.35"/><path fill="none" stroke="#19344F" stroke-width="2.5" stroke-linecap="round" stroke-linejoin="round" d="M719.501 20.65q5.3-.3 9.3 3.2m-9.3-3.2q-5.25.25-8.9 4.15-3.6 3.95-3.6 9.25 0 1.8 1.3 3.1 1.25 1.25 3.05 1.25h94.8q1.25 0 2.1-.9.9-.9.9-2.15v-2.3q0-6.35-4.5-10.85-4.45-4.5-10.85-4.5-4.75 0-8.6 2.6"/></symbol><symbol id="d" overflow="visible"><path fill="#FFF" stroke="#19344F" stroke-width="2.5" stroke-linecap="round" stroke-linejoin="round" d="M1245.901 145l9.4-3.6-12.45-10-24.55 3.25q-2 .3-4.15.8-4.25 1-4.9 2.05-.65 1.05.3 4.75l1.1 3.45 35.25-.7"/><path fill="#FFF" d="M1269.701 139.2q-1.95-9.6-9.55-15.9-7.7-6.35-17.7-6.35-10.55 0-17.4 4.65-7.3 4.95-9.05 14.35 26.85 1.65 53.7 3.25"/><path fill="none" stroke="#19344F" stroke-width="2.5" stroke-linecap="round" stroke-linejoin="round" d="M1260.151 123.3q7.6 6.3 9.55 15.9m-9.55-15.9q-7.7-6.35-17.7-6.35-10.55 0-17.4 4.65-7.3 4.95-9.05 14.35"/><path fill="#FFF" d="M1201.401 145.7l27.45-12.1q-4.7-4.3-11.05-4.3-6.8 0-11.6 4.8t-4.8 11.6"/><path fill="none" stroke="#19344F" stroke-width="2.5" stroke-linecap="round" stroke-linejoin="round" d="M1217.801 129.3q6.35 0 11.05 4.3m-11.05-4.3q-6.8 0-11.6 4.8t-4.8 11.6"/><path fill="#FFF" d="M1272.151 134.65q-4.65 0-8.6 2.65-28.2 1.8-56.4 3.55-4.05-3.45-9.3-3.25-5.25.25-8.9 4.2-3.6 3.95-3.6 9.25 0 1.8 1.25 3.05 1.25 1.25 3.05 1.25h94.8q1.25 0 2.15-.9.9-.85.9-2.1V150q0-6.35-4.5-10.85t-10.85-4.5"/><path fill="none" stroke="#19344F" stroke-width="2.5" stroke-linecap="round" stroke-linejoin="round" d="M1263.551 137.3q3.95-2.65 8.6-2.65 6.35 0 10.85 4.5t4.5 10.85v2.35q0 1.25-.9 2.1-.9.9-2.15.9h-94.8q-1.8 0-3.05-1.25-1.25-1.25-1.25-3.05 0-5.3 3.6-9.25 3.65-3.95 8.9-4.2 5.25-.2 9.3 3.25M1259.601 128.95q.75.75 2.05 2.45"/><path fill="#FFF" d="M1241.851 121.3l14.95 5.1q-3.05-2.35-6.75-3.7-3.95-1.4-8.2-1.4"/><path fill="none" stroke="#19344F" stroke-width="2.5" stroke-linecap="round" stroke-linejoin="round" d="M1250.051 122.7q3.7 1.35 6.75 3.7m-6.75-3.7q-3.95-1.4-8.2-1.4"/><path fill="#909196" fill-opacity=".38" d="M1206 155.3q-11.974-.378-11.4-8.85.3-4.45 3.2-8.9-5.25.25-8.9 4.15-3.6 3.95-3.6 9.25 0 1.8 1.25 3.1 1.25 1.25 3.05 1.25h16.4"/><path fill="none" stroke="#19344F" stroke-width="2.5" stroke-linecap="round" stroke-linejoin="round" d="M1263.551 137.3q3.95-2.65 8.6-2.65 6.35 0 10.85 4.5t4.5 10.85v2.35q0 1.25-.9 2.1-.9.9-2.15.9h-94.8q-1.8 0-3.05-1.25-1.25-1.25-1.25-3.05 0-5.3 3.6-9.25 3.65-3.95 8.9-4.2 5.25-.2 9.3 3.25"/></symbol><symbol id="h" overflow="visible"><use xlink:href="#a"/><use xlink:href="#b"/><use xlink:href="#c"/><use xlink:href="#d"/></symbol><symbol id="e" overflow="visible"><path fill="#7A9A5D" d="M31.5-168.35h-63l.3 182.5 24 .75h13q12.626-.737 25.45-.1l.25-183.15m-63 183.25l.3-.75 24 .75h-24.3"/><path fill="#7A9A5D" d="M-7.2 14.9q6.443 1.327 13 0h-13"/><path fill="none" stroke="#1A344F" stroke-width="2.5" stroke-linecap="round" stroke-linejoin="round" d="M-31.2 14.15l-.3-182.5m0 183.25l.3-.75m24 .75h-24.3m63 0H5.8m25.45-.1l.25.1m0-183.25L31.25 14.8M-31.5-168.35h63M-7.2 14.9h13"/><path fill="#71904B" d="M-31.299-247.099l-.05-2.45-.1 249.2h63v-12.85q-23.65-8.3-38.9-52.9-12.15-35.65-18.4-92.75-4.5-40.8-5.55-88.25"/><path fill="#99C977" stroke="#1A344F" stroke-width="2.5" stroke-linecap="round" stroke-linejoin="round" d="M-31.449-202.199v33.9h63l-.05-33.95-62.95.05"/><path fill="#EDEDED" stroke="#1A344F" stroke-width="2.5" stroke-linecap="round" stroke-linejoin="round" d="M-19.949-178.349q1.65 1.9 1.8 4.5h36.4q.15-2.6 1.85-4.5 1.65-1.9 4.05-2.25v-9.35q-2.4-.35-4.05-2.2-1.7-1.9-1.85-4.5h-36.4q-.2 2.6-1.85 4.5-1.65 1.9-4.05 2.25v9.3q2.4.35 4.1 2.25"/><path fill="#99C977" stroke="#1A344F" stroke-width="2.5" stroke-linecap="round" stroke-linejoin="round" d="M-4.499-190.149q-1.9 2-1.9 4.9 0 2.85 1.9 4.9 1.9 2 4.55 2t4.55-2q1.9-2.05 1.9-4.9 0-2.9-1.9-4.9-1.9-2.05-4.55-2.05t-4.55 2.05"/><path fill="none" stroke="#1A344F" stroke-width="2.5" stroke-linecap="round" stroke-linejoin="round" d="M-31.449-161.549h63M-31.449-154.249h63M-31.449-146.949h63M-31.449-139.649h63M-31.449-132.299h63M-31.449-117.699h63M-31.449-103.099h63M-31.449-88.449h63M-31.449-73.849h63M-31.449-59.249h63M-31.449-44.649h63M-31.449-29.999h63M-31.449 15.201h63M-31.449-14.399h63M-31.449-.049h63"/><path fill="#7A9A5D" d="M-31.449-137.549h63v-169.65h-63v169.65"/><path fill="none" stroke="#1A344F" stroke-width="2.5" stroke-linecap="round" stroke-linejoin="round" d="M-31.449-307.199v169.65m0-169.65h63v169.65"/><path fill="#99C977" stroke="#1A344F" stroke-width="2.5" stroke-linecap="round" stroke-linejoin="round" d="M31.501-344.899h-62.95v37.7h63l-.05-37.7"/><path fill="#EDEDED" stroke="#1A344F" stroke-width="2.5" stroke-linecap="round" stroke-linejoin="round" d="M-19.949-319.799q1.65 1.9 1.8 4.5h36.4q.15-2.6 1.85-4.5 1.65-1.9 4.05-2.25v-9.3q-2.4-.35-4.05-2.25-1.7-1.9-1.85-4.5h-36.4q-.2 2.65-1.85 4.5-1.65 1.9-4.05 2.25v9.3q2.4.35 4.1 2.25"/><path fill="#F4AF28" stroke="#1A344F" stroke-width="2.5" stroke-linecap="round" stroke-linejoin="round" d="M-3.999-330.999q-1.65 1.75-1.65 4.3t1.65 4.35q1.7 1.8 4.05 1.8 2.35 0 4.05-1.8 1.65-1.8 1.65-4.35t-1.65-4.3q-1.7-1.8-4.05-1.8-2.35 0-4.05 1.8"/><path fill="none" stroke="#1A344F" stroke-width="2.5" stroke-linecap="round" stroke-linejoin="round" d="M-31.449-293.149h63M-31.449-278.499h63M-31.449-263.899h63M-31.449-249.299h63M-31.449-234.649h63M-31.449-220.049h63M-31.449-205.449h63M-31.449-190.849h63M-31.449-176.199h63M-31.449-161.599h63M-31.449-146.999h63"/></symbol><symbol id="f" overflow="visible"><path fill="none" stroke="#1A344F" stroke-width="2.5" stroke-linecap="round" stroke-linejoin="round" d="M31.201-307.25h-62.65V-.15h62.65v-307.1"/></symbol><symbol id="g" overflow="visible"><use xlink:href="#e"/><use xlink:href="#f"/></symbol></defs><g overflow="visible"><path fill="#D7EDF4" d="M696.425 601.702V0H1.424v601.702h695.001"/><path fill="#C4DFE9" d="M322.001 388.95q-1.4 1.4-1.4 3.4v42.1q0 2 1.4 3.4t3.4 1.4h29.75l5.65 10.25 5.7-10.25h29.75q2 0 3.4-1.4t1.4-3.4v-42.1q0-2-1.4-3.4t-3.4-1.4h-70.85q-2 0-3.4 1.4M436.201 388.95q-1.4 1.4-1.4 3.4v42.1q0 2 1.4 3.4t3.4 1.4h29.75l5.65 10.25 5.7-10.25h29.75q2 0 3.4-1.4t1.4-3.4v-42.1q0-2-1.4-3.4t-3.4-1.4h-70.85q-2 0-3.4 1.4M549.451 389.85q-1.4 1.4-1.4 3.4v42.1q0 2 1.4 3.4t3.4 1.4h29.75l5.65 10.25 5.7-10.25h29.75q2 0 3.4-1.4t1.4-3.4v-42.1q0-2-1.4-3.4t-3.4-1.4h-70.85q-2 0-3.4 1.4"/><path fill="#FFF" d="M326.701 392.5q-1.4 1.4-1.4 3.4V438q0 2 1.4 3.4t3.4 1.4h29.75l5.7 10.25 5.65-10.25h29.75q2 0 3.4-1.4t1.4-3.4v-42.1q0-2-1.4-3.4t-3.4-1.4h-70.85q-2 0-3.4 1.4"/><path fill="none" stroke="#1A344F" stroke-width="2.5" stroke-linecap="round" stroke-linejoin="round" d="M326.701 392.5q-1.4 1.4-1.4 3.4V438q0 2 1.4 3.4t3.4 1.4h29.75l5.7 10.25 5.65-10.25h29.75q2 0 3.4-1.4t1.4-3.4v-42.1q0-2-1.4-3.4t-3.4-1.4h-70.85q-2 0-3.4 1.4"/><path fill="#19344F" d="M351.401 402.05h-1.05v1.4q-1.4.15-2.15.9-.8.65-.8 1.9t.75 2q.7.65 2.4 1.25.55.25 1 .55.25.35.25.85t-.25.75q-.2.3-.8.3-.7 0-1.05-.35-.35-.3-.35-1.1h-2.25l-.05.05q0 1.4.85 2.25.95.8 2.3.85v1.4h1.1v-1.4q1.3-.05 2.05-.85.75-.65.75-1.9 0-1.3-.75-2.05-.8-.7-2.4-1.25-.65-.25-1-.6-.25-.35-.25-.75 0-.5.25-.75.25-.3.75-.3.55 0 .85.3.3.4.3 1.05h2.25l.05-.05q0-1.2-.75-2.05-.65-.8-2-.95v-1.45M361.701 408.15q.5-.7.5-1.7 0-1.35-.9-2.2-.85-.8-2.5-.8-1.6 0-2.5.95-.95 1-.9 2.35v.05h2.25q0-.7.3-1.15.3-.45.85-.45t.8.35q.3.4.3.95 0 .35-.3.95l-.9 1.25-3.05 3.35v1.5h6.9v-1.8h-3.85l1.2-1.45q1.25-1.3 1.8-2.15M369.951 408.15q.5-.7.5-1.7 0-1.35-.9-2.2-.8-.8-2.5-.8-1.55 0-2.5.95-.95 1-.9 2.35v.05h2.25q0-.7.3-1.15.3-.45.85-.45.5 0 .85.35.25.4.25.95 0 .35-.3.95l-.9 1.25-3.05 3.35v1.5h6.9v-1.8h-3.85l1.2-1.45q1.25-1.3 1.8-2.15M374.701 413.55v-1.95h-2.3v1.95h2.3M382.601 403.6h-2.35l-4.1 6.4.15 1.45h3.95v2.1h2.35v-2.1h1v-1.8h-1v-6.05m-2.35 2.95v3.1h-2.1l1.85-2.6.25-.5M351.651 424.85q-1-.7-2.9-.7h-3.25v9.95h3.8q1.85 0 2.8-.75 1-.75 1-2.2 0-.8-.45-1.4-.45-.6-1.3-.8.65-.2 1-.8.35-.55.35-1.25 0-1.35-1.05-2.05m-2.9 1.05q.8 0 1.25.3.4.3.4.95 0 .55-.45.85-.35.3-1.25.3h-.9v-2.4h.95m.65 3.9q.8.1 1.05.35.35.45.35 1 0 .6-.4.9-.4.25-1.1.25h-1.5v-2.5h1.6M356.851 434.1v-7.4h-2.3v7.4h2.3M356.851 425v-1.55h-2.3V425h2.3M360.851 434.1v-10.65h-2.3v10.65h2.3M364.851 434.1v-10.65h-2.3v10.65h2.3M368.851 434.1v-7.4h-2.35v7.4h2.35M368.851 425v-1.55h-2.35V425h2.35M371.051 427.6q-.95 1-.95 2.75v.1q0 1.75.95 2.75.9 1.05 2.65 1.05 1.7 0 2.6-1.05.95-1 .95-2.75v-.1q0-1.75-.95-2.75-.9-1.05-2.65-1.05-1.7 0-2.6 1.05m1.35 2.75q0-.9.3-1.45.3-.55.95-.55.75 0 1 .55.3.55.3 1.45v.1q0 .9-.3 1.5-.3.5-.95.5-.7 0-1-.5-.3-.5-.3-1.5v-.1M380.551 426.7h-2.15v7.4h2.3v-5.25q.15-.2.5-.4l.65-.1q.45 0 .65.3.25.35.25 1v4.45h2.3v-4.45q0-1.6-.6-2.35-.65-.75-1.7-.75-.65 0-1.2.3-.6.45-.9.9l-.1-1.05"/><path fill="#FFF" d="M440.901 392.5q-1.4 1.4-1.4 3.4V438q0 2 1.4 3.4t3.4 1.4h29.75l5.7 10.25 5.65-10.25h29.75q2 0 3.4-1.4t1.4-3.4v-42.1q0-2-1.4-3.4t-3.4-1.4h-70.85q-2 0-3.4 1.4"/><path fill="none" stroke="#1A344F" stroke-width="2.5" stroke-linecap="round" stroke-linejoin="round" d="M444.301 392.3q-2 0-3.4 1.4-1.4 1.35-1.4 3.35v42.15q0 2 1.4 3.35 1.4 1.4 3.4 1.4h29.75l5.7 10.25 5.65-10.25h29.75q2 0 3.4-1.4 1.4-1.35 1.4-3.35v-42.15q0-2-1.4-3.35-1.4-1.4-3.4-1.4h-70.85"/><path fill="#19344F" d="M462.651 405.2q-.8.8-.8 1.95 0 1.3.8 1.95.65.65 2.35 1.3.75.3 1 .55.3.3.3.85 0 .4-.25.75-.3.3-.85.3-.65 0-1-.35-.4-.3-.4-1.1h-2.25v.05q-.05 1.4.85 2.25.95.8 2.25.85v1.4h1.1v-1.4q1.35-.05 2.1-.85.75-.65.75-1.9 0-1.3-.8-2.05-.7-.7-2.35-1.25l-1.05-.6q-.2-.25-.2-.75 0-.55.2-.75.25-.3.8-.3t.85.3q.3.4.3 1.05h2.25v-.05q0-1.3-.7-2.05-.75-.8-2-.95v-1.5h-1.1v1.45q-1.4.15-2.15.85M475.151 414.45v-10.1l-4.3.35v1.75h2v8h2.3M481.851 404.35q-1.45 0-2.4.7-.95.8-.95 2.05 0 .65.4 1.3.4.55 1.05.85-.9.4-1.3 1-.5.65-.5 1.4 0 1.4 1.05 2.15 1 .8 2.65.8 1.6 0 2.55-.8 1-.7 1-2.15 0-.8-.45-1.4-.35-.55-1.25-1 .65-.3 1-.9.35-.5.35-1.25 0-1.3-.9-2.05-.85-.7-2.3-.7m.65 3.7q-.2.35-.65.35t-.75-.35q-.25-.35-.25-.85 0-.45.25-.8.3-.3.75-.3t.65.3q.25.35.25.8 0 .5-.25.85m.25 2.5q.35.35.35.95 0 .65-.35.95-.35.35-.9.35-.6 0-.95-.35-.4-.35-.4-.95t.4-.95q.4-.4.95-.4.5 0 .9.4M489.151 414.45v-1.95h-2.3v1.95h2.3M497.051 404.5h-2.3l-4.1 6.4.15 1.45h3.95v2.1h2.3v-2.1h1v-1.8h-1v-6.05m-2.35 2.95h.05v3.1h-2.1l1.8-2.6.25-.5M467.151 426.6q0-1.35-1-2.05-1.1-.7-2.9-.7h-3.25v9.95h3.8q1.85 0 2.8-.75.95-.75.95-2.2 0-.7-.4-1.35-.5-.65-1.35-.8.6-.25 1.05-.85.3-.5.3-1.25m-2.3.25q0 .55-.4.85-.45.3-1.25.3h-.9v-2.35h.95q.85 0 1.2.3.4.25.4.9m-2.55 2.7h1.55q.75 0 1.1.35.3.3.3.95 0 .6-.35.9-.35.3-1.1.3h-1.5v-2.5M471.351 433.8v-7.4h-2.3v7.4h2.3M471.351 424.7v-1.55h-2.3v1.55h2.3M475.351 433.8v-10.65h-2.35v10.65h2.35M479.301 433.8v-10.65h-2.3v10.65h2.3M483.301 433.8v-7.4h-2.3v7.4h2.3M483.301 424.7v-1.55h-2.3v1.55h2.3M490.801 432.9q.95-1.1.95-2.7v-.15q0-1.6-.95-2.7-.95-1.05-2.65-1.05-1.65 0-2.65 1.05-.95 1.1-.95 2.7v.15q0 1.6.95 2.7 1 1.05 2.65 1.05 1.7 0 2.65-1.05m-1.35-2.85v.15q0 .95-.3 1.45-.3.55-1 .55t-.95-.55q-.3-.5-.3-1.45v-.15q0-.9.3-1.45.25-.55.95-.55t1 .55q.3.55.3 1.45M497.201 426.3q-.65 0-1.2.3-.5.3-.9.85l-.05-1.05h-2.2v7.4h2.3v-5.25q.3-.3.5-.35.3-.15.65-.15.5 0 .7.3.2.25.2 1v4.45h2.3v-4.45q0-1.6-.6-2.35-.6-.7-1.7-.7"/><path fill="#FFF" d="M557.551 392q-2 0-3.4 1.4t-1.4 3.4v42.1q0 2 1.4 3.4t3.4 1.4h29.75l5.7 10.25 5.65-10.25h29.75q2 0 3.4-1.4t1.4-3.4v-42.1q0-2-1.4-3.4t-3.4-1.4h-70.85"/><path fill="none" stroke="#1A344F" stroke-width="2.5" stroke-linecap="round" stroke-linejoin="round" d="M557.551 392q-2 0-3.4 1.4t-1.4 3.4v42.1q0 2 1.4 3.4t3.4 1.4h29.75l5.7 10.25 5.65-10.25h29.75q2 0 3.4-1.4t1.4-3.4v-42.1q0-2-1.4-3.4t-3.4-1.4h-70.85"/><path fill="#19344F" d="M584.251 404.1v-1.45h-1.05v1.45q-1.35.05-2.15.85-.8.75-.8 1.9 0 1.35.75 2 .7.65 2.4 1.25.65.25 1 .6.25.35.25.8 0 .45-.25.8-.25.25-.8.25-.65 0-1.05-.3-.35-.35-.35-1.15h-2.25l-.05.05q0 1.5.85 2.25.9.75 2.3.9v1.35h1.1v-1.35q1.25-.15 2.05-.85.75-.75.75-1.95 0-1.35-.8-2-.8-.8-2.35-1.25-.8-.4-1-.65-.25-.35-.25-.75t.25-.75q.25-.3.75-.3.55 0 .85.35.3.3.3 1h2.25l.05-.05q0-1.2-.75-2.05-.7-.8-2-.95M595.401 406v-1.8h-7.2v1.8h4.95q-1.45 1.6-2.1 3.2-.75 1.65-.75 3.65v1.3h2.35v-1.3q0-2.15.55-3.55.65-1.6 2.2-3.3M599.301 414.15v-1.95h-2.3v1.95h2.3M604.301 405.85q.6 0 .8.35.3.3.3.9 0 .45-.3.95-.4.65-.9 1.25l-3.05 3.35v1.5h6.9v-1.75h-3.85v-.05l1.2-1.45q1.35-1.5 1.8-2.15.5-.7.5-1.65 0-1.4-.9-2.25-.95-.8-2.5-.8t-2.5.95q-.95.95-.95 2.35l.05.05h2.25q0-.65.3-1.1.3-.45.85-.45M577.501 423.6h-3.3v9.95h3.8q1.85 0 2.8-.75 1-.75 1-2.2 0-.8-.45-1.4-.35-.55-1.3-.8.7-.3 1.05-.85.3-.5.3-1.25 0-1.35-1.05-2.05-.95-.65-2.85-.65m0 1.75q.85 0 1.2.3.4.3.4.9 0 .6-.4.9-.45.3-1.25.3h-.9v-2.4h.95m1.65 4.25q.35.3.35.95 0 .6-.4.9-.3.3-1.1.3h-1.45v-2.5h1.55q.7 0 1.05.35M585.601 433.55v-7.4h-2.35v7.4h2.35M585.601 424.4v-1.55h-2.35v1.55h2.35M589.601 433.55v-10.7h-2.35v10.7h2.35M593.551 433.55v-10.7h-2.3v10.7h2.3M597.551 433.55v-7.4h-2.3v7.4h2.3M597.551 424.4v-1.55h-2.3v1.55h2.3M605.951 429.9v-.15q0-1.65-.9-2.7-.95-1.05-2.65-1.05-1.65 0-2.65 1.05-.95 1.1-.95 2.7v.15q0 1.65.95 2.75 1 1 2.65 1t2.65-1q.9-1.05.9-2.75m-2.3-.15v.15q0 .85-.25 1.45-.3.55-1 .55t-1-.55q-.25-.45-.25-1.45v-.15q0-.95.25-1.45.3-.55 1-.55t1 .55q.25.65.25 1.45M610.551 427.75q.45 0 .65.3.25.35.25 1v4.5h2.3v-4.45q0-1.6-.6-2.35t-1.7-.75q-.65 0-1.2.3-.5.3-.9.85l-.1-1h-2.15v7.4h2.3v-5.3l.5-.35q.3-.15.65-.15M386.801 328.6q-3.15 0-4.8 1.9-1.55 1.8-1.55 5.2 0 4.2 4.8 8.1 4.75 3.9 4.75 6.85 0 4.1-3.35 4.1t-3.35-4.1v-1.75h-2.95v1.6q0 3.35 1.55 5.2 1.7 1.95 4.85 1.95 3.15 0 4.85-1.95 1.55-1.85 1.55-5.2 0-4.2-4.75-8.1-4.8-3.9-4.8-6.9 0-4.05 3.25-4.05t3.25 4.1v.95h3v-.8q0-3.35-1.55-5.15-1.6-1.95-4.75-1.95M395.301 328.85v2.9h5.25v25.6h3.15v-25.6h5.25v-2.9h-13.65M424.401 335.75q0-3.35-1.6-5.2-1.7-1.95-4.95-1.95-3.2 0-4.9 1.95-1.6 1.85-1.6 5.2v14.7q0 3.35 1.6 5.25 1.7 1.95 4.9 1.95t4.95-1.95q1.6-1.9 1.6-5.25v-14.7m-6.55-4.3q3.4 0 3.4 4.15v15.05q0 4.1-3.4 4.1-3.35 0-3.35-4.1V335.6q0-4.15 3.35-4.15M440.451 335.75q0-3.35-1.55-5.2-1.7-1.95-4.9-1.95-3.15 0-4.85 1.95-1.55 1.85-1.55 5.2v14.7q0 3.35 1.55 5.25 1.7 1.95 4.85 1.95 3.2 0 4.9-1.95 1.55-1.9 1.55-5.25v-3.5h-3.05v3.7q0 4.1-3.3 4.1-3.35 0-3.35-4.1V335.6q0-4.15 3.35-4.15 3.3 0 3.3 4.15v2.7h3.05v-2.55M450.501 341.85l7.2-13h-3.2l-7.55 13.75v-13.75h-3.2v28.5h3.2v-9.55l1.65-2.8 6.1 12.35h3.25l-7.45-15.5M472.001 328.85h-4.45v28.5h2.8v-22.7l4.7 22.65h3.05l4.5-22.85v22.9h3.05v-28.5h-4.45l-4.5 22.75-4.7-22.75M498.551 328.85h-4.6l-5.45 28.5h2.95l1.1-5.75h7.2l1.1 5.75h3.15l-5.45-28.5m-5.6 20.05l3.15-16.45 3.2 16.45h-6.35M519.651 337.7v-2.3q0-6.55-6.35-6.55h-6.35v28.5h3.15V345.2h2.25q2.1 0 3.05.9 1.1 1 1.1 3.3v4.5q0 2.35.55 3.45h3.2q-.55-1-.55-3.4v-4.45q0-4.85-3.6-5.95 3.55-1.1 3.55-5.85m-6.45-5.95q3.3 0 3.3 3.9v2.75q0 2.2-1.05 3.1-.95.8-2.95.8h-2.4v-10.55h3.1M530.151 341.85l7.2-13h-3.2l-7.55 13.75v-13.75h-3.2v28.5h3.2v-9.55l1.65-2.8 6.1 12.35h3.25l-7.45-15.5M550.651 341.5h-6.95v-9.75h8.5v-2.9h-11.7v28.5h11.7v-2.9h-8.5v-10.1h6.95v-2.85M554.501 328.85v2.9h5.25v25.6h3.15v-25.6h5.25v-2.9h-13.65M573.601 335.5q0-4.05 3.25-4.05 3.3 0 3.3 4.1v.95h3v-.8q0-3.3-1.55-5.15-1.65-1.95-4.8-1.95t-4.75 1.9q-1.55 1.8-1.55 5.2 0 4.2 4.75 8.1 4.75 3.9 4.75 6.85 0 4.1-3.35 4.1-3.3 0-3.3-4.1v-1.75h-3v1.6q0 3.35 1.55 5.2 1.7 1.95 4.85 1.95 3.2 0 4.85-1.95 1.6-1.9 1.6-5.2 0-4.2-4.8-8.1-4.8-3.9-4.8-6.9"/><path fill="#7A9A5D" stroke="#1A344F" stroke-width="2.5" stroke-linecap="round" stroke-linejoin="round" d="M396.401 494.55h-63v12.8h63v-12.8"/><path fill="#99C977" stroke="#1A344F" stroke-width="2.5" stroke-linecap="round" stroke-linejoin="round" d="M333.401 459.2l.05 35.1h62.95v-35.15l-63 .05"/><path fill="#EDEDED" stroke="#1A344F" stroke-width="2.5" stroke-linecap="round" stroke-linejoin="round" d="M344.901 482.55q1.65 1.75 1.8 4.2h36.4q.15-2.45 1.85-4.2 1.65-1.75 4.05-2.05v-8.7q-2.4-.3-4.05-2.05-1.7-1.8-1.85-4.2h-36.4q-.15 2.45-1.8 4.2-1.7 1.75-4.1 2.05v8.7q2.4.3 4.1 2.05"/><path fill="#F4AF28" stroke="#1A344F" stroke-width="2.5" stroke-linecap="round" stroke-linejoin="round" d="M370.601 476.15q0-2.35-1.65-4.05-1.7-1.65-4.05-1.65-2.35 0-4.05 1.65-1.65 1.7-1.65 4.05 0 2.35 1.65 4.05 1.7 1.65 4.05 1.65 2.35 0 4.05-1.65 1.65-1.7 1.65-4.05"/><path fill="#7A9A5D" stroke="#1A344F" stroke-width="2.5" stroke-linecap="round" stroke-linejoin="round" d="M513.851 508.3v-6.4h-62.95v6.4h62.95"/><path fill="none" stroke="#1A344F" stroke-width="2.5" stroke-linecap="round" stroke-linejoin="round" d="M450.901 508.15h62.95"/><path fill="#99C977" stroke="#1A344F" stroke-width="2.5" stroke-linecap="round" stroke-linejoin="round" d="M513.851 501.3v-35.1h-62.95v35.1h62.95"/><path fill="#EDEDED" stroke="#1A344F" stroke-width="2.5" stroke-linecap="round" stroke-linejoin="round" d="M502.401 489.55q1.7-1.75 4.05-2.05v-8.7q-2.35-.3-4.05-2.05-1.65-1.8-1.8-4.2h-36.4q-.2 2.45-1.85 4.2-1.65 1.75-4.05 2.05v8.7q2.4.3 4.05 2.05 1.65 1.75 1.85 4.2h36.4q.15-2.4 1.8-4.2"/><path fill="#F4AF28" stroke="#1A344F" stroke-width="2.5" stroke-linecap="round" stroke-linejoin="round" d="M488.101 483.15q0-2.35-1.65-4.05-1.7-1.65-4.05-1.65-2.35 0-4.05 1.65-1.65 1.7-1.65 4.05 0 2.35 1.65 4.05 1.7 1.65 4.05 1.65 2.35 0 4.05-1.65 1.65-1.7 1.65-4.05"/><path fill="#D7EDF4" d="M85.8 302.7q0-10-.05-10.1-.5-.7-6.25 5.1-1.3 1.3-6.05 2-3.7.55-3.7 3 0 3.35 2.35 5.7t5.65 2.35q3.35 0 5.7-2.35t2.35-5.7M122.95 341.3q-3.7-3.7-8.9-3.7-5.25 0-8.95 3.7-3.7 3.65-3.7 8.9v18.15h25.25V350.2q0-5.25-3.7-8.9M88.6 421.35v55.1l43.55-98.65-43.55 43.55"/><path fill="#D7EDF4" d="M83.15 331.85q-.45-1.05-1.55-1.05v64.55q0 2.5 1.75 4.2 1.75 1.75 4.2 1.75h6v16.45l-4 58.7 42.7-41.35v-58.8q0-3.15-2.25-5.4-2.2-2.25-5.4-2.25h-20.85q-2.7 0-4.9-1.5-2.25-1.5-3.25-4l-12.45-31.3M129.9 437.45L93.3 473.1v24.6h36.6v-60.25"/><path fill="#D7EDF4" d="M145.7 508.3v-10.6H76.65v10.6h69.05M119.65 350.2q-1.636-.038-2.75-1.2-1.2-1.2-1.2-2.85h-4.8q0 1.65-1.2 2.85-1.114 1.162-2.75 1.2h12.7M90.9 373.8l1.5-18.75-14.9 14.9v17.3l13.4-13.45M86.4 316.9q1.7 0 2.85-1.2 1.2-1.15 1.2-2.85v-4.45h-23.1v4.45q0 1.7 1.2 2.85 1.15 1.2 2.85 1.2h15M106.85 350.2v7.15q0 2.95 2.1 5.05 2.15 2.1 5.1 2.1 2.95 0 5.05-2.1 2.1-2.1 2.1-5.05v-7.15h-14.35M83.95 328.95l-.6-7.7q-.05-1.25-1-2.05-.95-.8-2.15-.7l-2.45.2q-1.2.1-2 1-.8.95-.7 2.15l.6 7.75q.1 1.25 1 2.05.95.8 2.2.7l2.4-.2q1.2-.1 2-1.05.8-.9.7-2.15M124.1 400.05l20.1 10.2 15.3-30.15-20.05-10.2-15.35 30.15"/><path fill="#D7EDF4" d="M157.9 390.8q-.4-1.15-1.5-1.7l-2.15-1.1q-1.1-.55-2.25-.15-1.2.35-1.75 1.45l-3.5 6.9q-.55 1.1-.2 2.25.4 1.2 1.5 1.75l2.15 1.1q1.1.55 2.25.2 1.2-.4 1.7-1.5l3.55-6.9q.55-1.1.2-2.3"/><path fill="#EE9872" stroke="#1A344F" stroke-width="2.5" stroke-linecap="round" stroke-linejoin="round" d="M84.301 297.7q-1.3 1.3-6.1 2-3.7.55-3.7 3 0 3.35 2.35 5.7t5.7 2.35q3.35 0 5.7-2.35t2.35-5.7q0-10-.05-10.1-.5-.7-6.25 5.1"/><path fill="#7AC7EE" d="M127.701 341.3q-3.7-3.7-8.9-3.7t-8.9 3.7q-3.7 3.65-3.7 8.9v18.15h25.2V350.2q0-5.25-3.7-8.9"/><path fill="none" stroke="#1A344F" stroke-width="2.5" stroke-linecap="round" stroke-linejoin="round" d="M118.801 337.6q5.2 0 8.9 3.7 3.7 3.65 3.7 8.9v18.15m-12.6-30.75q-5.2 0-8.9 3.7-3.7 3.65-3.7 8.9v18.15"/><path fill="#7AC7EE" d="M93.351 421.35v55.1l43.6-98.65-43.6 43.55"/><path fill="none" stroke="#1A344F" stroke-width="2.5" stroke-linecap="round" stroke-linejoin="round" d="M93.351 476.45v-55.1l43.6-43.55"/><path fill="#7AC7EE" d="M87.901 331.85q-.45-1.05-1.5-1.05v64.55q0 2.5 1.75 4.2 1.75 1.75 4.2 1.75h5.95v16.45l-4 58.7 42.75-41.35v-58.8q0-3.15-2.25-5.4-2.25-2.25-5.4-2.25h-20.9q-2.65 0-4.9-1.5-2.2-1.55-3.2-4l-12.5-31.3"/><path fill="none" stroke="#1A344F" stroke-width="2.5" stroke-linecap="round" stroke-linejoin="round" d="M86.401 330.8q1.05 0 1.5 1.05l12.5 31.3q1 2.45 3.2 4 2.25 1.5 4.9 1.5h20.9q3.15 0 5.4 2.25 2.25 2.25 2.25 5.4v58.8l-42.75 41.35m-7.9-145.65v64.55q0 2.5 1.75 4.2 1.75 1.75 4.2 1.75h5.95v16.45"/><path fill="#7AC7EE" d="M134.701 437.45l-36.6 35.65v24.6h36.6v-60.25"/><path fill="none" stroke="#1A344F" stroke-width="2.5" stroke-linecap="round" stroke-linejoin="round" d="M134.701 497.7h-36.6v-24.6m36.6 24.6v-60.25"/><path fill="#7AC7EE" stroke="#1A344F" stroke-width="2.5" stroke-linecap="round" stroke-linejoin="round" d="M150.501 508.3v-10.6h-69.1v10.6h69.1"/><path fill="none" stroke="#1A344F" stroke-width="2.5" stroke-linecap="round" stroke-linejoin="round" d="M93.351 461.75l34.25-34.25M111.701 403v38.9M93.351 477.35l43.7-42.25"/><path fill="#7AC7EE" d="M120.451 346.15h-4.75q0 1.65-1.2 2.85-1.162 1.163-2.75 1.2h12.65q-1.636-.037-2.75-1.2-1.2-1.2-1.2-2.85"/><path fill="none" stroke="#1A344F" stroke-width="2.5" stroke-linecap="round" stroke-linejoin="round" d="M115.701 346.15h4.75q0 1.65 1.2 2.85 1.15 1.2 2.85 1.2h6.9m-15.7-4.05q0 1.65-1.2 2.85-1.2 1.2-2.85 1.2h-5.45M118.801 337.6v-12.2M113.251 338.75l-2.85-8.75M108.751 342.15l-6.25-4.8M106.101 347.1l-4.4-.9M125.601 338.75l2.9-8.75M130.151 342.15l6.25-4.8M132.801 347.1l4.4-.9"/><path fill="#7AC7EE" d="M95.701 373.8l1.45-18.75-14.9 14.9v17.3l13.45-13.45"/><path fill="none" stroke="#1A344F" stroke-width="2.5" stroke-linecap="round" stroke-linejoin="round" d="M82.251 387.25l13.45-13.45m-13.45 13.45v-17.3l14.9-14.9M111.851 402.9v-17.3"/><path fill="#7AC7EE" stroke="#1A344F" stroke-width="2.5" stroke-linecap="round" stroke-linejoin="round" d="M72.101 308.4v4.45q0 1.7 1.2 2.85 1.2 1.2 2.85 1.2h15.05q1.65 0 2.85-1.2 1.2-1.15 1.2-2.85v-4.45h-23.15"/><path fill="#ABD8F4" d="M111.651 357.35q0 2.95 2.1 5.05 2.1 2.1 5.05 2.1 2.95 0 5.05-2.1 2.1-2.1 2.1-5.05v-7.15h-14.3v7.15"/><path fill="none" stroke="#1A344F" stroke-width="2.5" stroke-linecap="round" stroke-linejoin="round" d="M111.651 357.35q0 2.95 2.1 5.05 2.1 2.1 5.05 2.1 2.95 0 5.05-2.1 2.1-2.1 2.1-5.05v-7.15m-14.3 7.15v-7.15"/><path fill="#7AC7EE" stroke="#1A344F" stroke-width="2.5" stroke-linecap="round" stroke-linejoin="round" d="M82.551 318.7q-1.2.1-2.05 1-.75.95-.7 2.15l.6 7.75q.1 1.25 1.05 2.05.9.8 2.15.7l2.4-.2q1.25-.1 2.05-1.05.8-.9.7-2.15l-.6-7.7q-.1-1.25-1.05-2.05-.9-.8-2.15-.7l-2.4.2"/><path fill="#EDEDED" stroke="#1A344F" stroke-width="2.5" stroke-linecap="round" stroke-linejoin="round" d="M164.301 380.1l-20.1-10.2-15.3 30.15 20.05 10.2 15.35-30.15"/><path fill="#7AC7EE" stroke="#1A344F" stroke-width="2.5" stroke-linecap="round" stroke-linejoin="round" d="M162.451 393.1q.55-1.15.2-2.3-.4-1.15-1.5-1.7l-2.15-1.1q-1.1-.55-2.25-.15-1.15.35-1.7 1.45l-3.55 6.9q-.55 1.1-.15 2.25.35 1.2 1.45 1.75l2.15 1.1q1.1.55 2.25.2 1.2-.4 1.75-1.5l3.5-6.9"/><path fill="none" stroke="#1A344F" stroke-width="2.5" stroke-linecap="round" stroke-linejoin="round" d="M98.301 401.3v-11.25"/><path fill="#F4AF28" stroke="#1A344F" stroke-width="2.5" stroke-linecap="round" stroke-linejoin="round" d="M196.501 507.35v-6.75h-12.4v6.75h12.4"/><path fill="#F4AF28" stroke="#1A344F" stroke-width="2.5" stroke-linecap="round" stroke-linejoin="round" d="M196.501 494.15h-12.4v6.8h12.4v-6.8"/><path fill="#F4AF28" stroke="#1A344F" stroke-width="2.5" stroke-linecap="round" stroke-linejoin="round" d="M184.101 487.75v6.75h12.4v-6.75h-12.4"/><path fill="#F4AF28" stroke="#1A344F" stroke-width="2.5" stroke-linecap="round" stroke-linejoin="round" d="M184.101 481.3v6.75h12.4v-6.75h-12.4"/><path fill="#F4AF28" stroke="#1A344F" stroke-width="2.5" stroke-linecap="round" stroke-linejoin="round" d="M184.101 474.85v6.8h12.4v-6.8h-12.4"/><path fill="#F4AF28" stroke="#1A344F" stroke-width="2.5" stroke-linecap="round" stroke-linejoin="round" d="M184.101 468.45v6.75h12.4v-6.75h-12.4M174.751 507.35v-6.75h-12.4v6.75h12.4"/><path fill="#F4AF28" stroke="#1A344F" stroke-width="2.5" stroke-linecap="round" stroke-linejoin="round" d="M174.751 494.15h-12.4v6.8h12.4v-6.8"/><path fill="#F4AF28" stroke="#1A344F" stroke-width="2.5" stroke-linecap="round" stroke-linejoin="round" d="M174.751 494.5v-6.75h-12.4v6.75h12.4M548.501 507.35v-6.75h-12.4v6.75h12.4"/><path fill="#F4AF28" stroke="#1A344F" stroke-width="2.5" stroke-linecap="round" stroke-linejoin="round" d="M548.501 494.15h-12.4v6.8h12.4v-6.8M647.951 507.35v-6.75h-12.4v6.75h12.4"/><path fill="#99C977" stroke="#1A344F" stroke-width="2.5" stroke-linecap="round" stroke-linejoin="round" d="M623.651 472.5h-62.95v35.1h62.95v-35.1"/><path fill="#EDEDED" stroke="#1A344F" stroke-width="2.5" stroke-linecap="round" stroke-linejoin="round" d="M568.101 485.15v8.65q2.4.35 4.05 2.1t1.85 4.2h36.4q.15-2.45 1.85-4.2 1.65-1.8 4.05-2.1l-.05-8.7q-2.35-.3-4.05-2.05-1.65-1.75-1.8-4.2h-36.4q-.2 2.45-1.85 4.2-1.65 1.75-4.05 2.1"/><path fill="#F4AF28" stroke="#1A344F" stroke-width="2.5" stroke-linecap="round" stroke-linejoin="round" d="M597.901 489.45q0-2.35-1.65-4.05-1.7-1.65-4.05-1.65-2.35 0-4.05 1.65-1.65 1.7-1.65 4.05 0 2.35 1.65 4.05 1.7 1.65 4.05 1.65 2.35 0 4.05-1.65 1.65-1.7 1.65-4.05"/><path fill="#C4DFE9" d="M290.201 48.7q-2.3-2.15-5.5-2.1l-113 3.6q-3.15.1-5.35 2.4-2.15 2.35-2.05 5.5l2.15 67.15q.1 3.15 2.4 5.35 2.3 2.15 5.45 2.05l47.45-1.5 9.6 16.05 8.55-16.65 47.45-1.5q3.15-.05 5.3-2.4 2.2-2.3 2.1-5.45l-2.15-67.2q-.1-3.15-2.4-5.3"/><path fill="#FFF" stroke="#1A344F" stroke-width="2.5" stroke-linecap="round" stroke-linejoin="round" d="M300.001 56.05q0-3.2-2.25-5.4-2.25-2.25-5.4-2.25h-113.1q-3.15 0-5.4 2.25-2.25 2.2-2.25 5.4v67.2q0 3.15 2.25 5.4 2.25 2.2 5.4 2.2h47.5l9.05 16.4 9.05-16.4h47.5q3.15 0 5.4-2.2 2.25-2.25 2.25-5.4v-67.2"/><path fill="#19344F" d="M224.851 74.05q-.4-.4-.4-1.15 0-.7.4-1.2.4-.45 1.25-.45t1.3.5q.5.5.5 1.6h3.55v-.05q.1-1.9-1.1-3.25-1.2-1.3-3.2-1.5v-2.3h-1.7v2.25q-2.15.25-3.4 1.35-1.25 1.25-1.25 3.05 0 2.05 1.2 3.15 1.3 1.05 3.8 1.95 1.15.5 1.6.95.4.5.4 1.3 0 .7-.4 1.2-.35.45-1.3.45-1.05 0-1.6-.5-.6-.5-.6-1.8h-3.55l-.05.1q-.05 2.35 1.35 3.55 1.4 1.15 3.6 1.4v2.15h1.7v-2.15q2.1-.2 3.3-1.35 1.2-1.2 1.2-3.05 0-2.1-1.25-3.2-1.25-1.15-3.75-2-1.05-.45-1.6-1M244.201 71.55V68.7h-9.25l-.9 8.8 3.3.2q.15-.4.6-.8.45-.3 1.2-.3 1 0 1.45.75.45.75.45 2.05 0 1.3-.4 1.85-.35.6-1.4.6-.85 0-1.4-.45-.5-.5-.5-1.3l-3.6.2v.05q-.05 1.95 1.6 3.15 1.6 1.15 3.9 1.15 2.8 0 4.15-1.5 1.3-1.45 1.3-3.8 0-2.6-1.15-3.9-1.2-1.4-3.4-1.35-.9 0-1.5.2-.7.25-1.1.5l.4-3.25h6.25M212.951 97.9h-11.9v2.85h4.1v12.9h3.65v-12.9h4.15V97.9M220.951 105.05l.35-3.2-.9-.1q-.85 0-1.4.5-.6.5-.95 1.45l-.15-1.75h-3.45v11.7h3.65v-7.7q.2-.4.6-.65.5-.25 1.05-.25h1.2M226.351 96.8h-3.65v2.45h3.65V96.8M226.351 113.65v-11.7h-3.65v11.7h3.65M232.651 96.8h-3.65v16.85h3.65V96.8M238.951 113.65V96.8h-3.65v16.85h3.65M245.251 96.8h-3.65v2.45h3.65V96.8M245.251 113.65v-11.7h-3.65v11.7h3.65M257.101 112.25q1.5-1.65 1.5-4.3v-.25q0-2.65-1.5-4.3t-4.2-1.65q-2.65 0-4.15 1.65-1.5 1.65-1.5 4.3v.25q0 2.65 1.5 4.3t4.2 1.65q2.65 0 4.15-1.65m-6.2-4.55q0-1.4.45-2.3.55-.85 1.55-.85 1.1 0 1.55.85.5.85.5 2.3v.25q0 1.45-.5 2.3-.45.8-1.5.8-1.1 0-1.6-.8-.45-.8-.45-2.3v-.25M266.851 105.05q.4.5.4 1.55v7.05h3.65v-7.05q0-2.45-1-3.7-1-1.15-2.65-1.15-1.1 0-1.9.5-.9.5-1.4 1.35l-.15-1.65h-3.45v11.7h3.65v-8.3q.25-.35.8-.6.4-.2 1.05-.2.7 0 1 .5"/><path fill="none" stroke="#19344F" stroke-width="2.5" stroke-linecap="round" stroke-linejoin="round" d="M345.451 212.45h-54.2M354.551 204.9h-41.2M367.501 204.9h-6.55"/><use xlink:href="#g" transform="translate(237.8 508.35)"><animateTransform attributeName="transform" additive="replace" type="translate" dur="2.967s" keyTimes="0;1" values="0,0;0,0" fill="freeze"/><animateTransform attributeName="transform" additive="sum" type="translate" repeatCount="indefinite" dur="2.967s" keyTimes="0;0.011;0.034;0.045;0.056;0.067;0.079;0.09;0.101;0.112;0.124;0.135;0.146;0.157;0.169;0.18;0.191;0.202;0.213;0.225;0.236;0.247;0.258;0.27;0.281;0.292;0.303;0.315;0.326;0.336;0.337;1" values="238.807,507.865;238.856,507.864;238.856,507.864;238.807,507.865;238.806,507.814;238.804,507.91;238.804,507.91;238.852,507.856;238.8,507.901;238.8,507.851;238.8,507.851;238.8,507.901;238.798,507.847;238.798,507.846;238.746,507.893;238.846,507.842;238.846,507.842;238.894,507.838;238.844,507.888;238.842,507.835;238.841,507.784;238.841,507.784;238.84,507.83;238.89,507.779;238.889,507.779;238.836,507.776;238.838,507.776;238.838,507.876;238.886,507.824;238.886,507.821;0;0" calcMode="discrete"/><animateTransform attributeName="transform" additive="sum" type="translate" repeatCount="indefinite" dur="2.967s" keyTimes="0;0.337;0.348;0.36;0.371;0.382;0.393;0.404;0.416;0.427;0.438;0.449;0.461;0.472;0.483;0.494;0.506;0.539;0.55;0.562;0.573;0.584;0.595;0.607;0.618;0.629;0.64;0.652;0.663;0.673;0.674;1" values="0;238.886,507.821;238.884,507.771;238.835,507.821;238.835,507.821;238.935,507.819;238.834,507.772;238.883,507.816;238.883,507.816;238.832,507.818;238.832,507.818;238.882,507.816;238.933,507.865;238.883,507.866;238.883,507.866;238.832,507.868;238.782,507.916;238.782,507.916;238.832,507.868;238.784,507.872;238.884,507.871;238.785,507.876;238.785,507.876;238.789,507.83;238.788,507.83;238.841,507.884;238.791,507.885;238.893,507.938;238.793,507.889;238.796,507.943;0;0" calcMode="discrete"/><animateTransform attributeName="transform" additive="sum" type="translate" repeatCount="indefinite" dur="2.967s" keyTimes="0;0.674;0.685;0.697;0.708;0.719;0.73;0.741;0.753;0.764;0.775;0.786;0.798;0.809;0.82;0.831;0.843;0.854;0.865;0.876;0.888;0.899;0.91;0.921;0.932;0.944;0.955;0.966;0.977;0.988;0.989;1" values="0;238.796,507.943;238.795,507.942;238.747,507.897;238.797,507.897;238.798,507.897;238.8,507.901;238.8,507.901;238.8,507.951;238.75,507.901;238.8,507.951;238.752,507.905;238.752,507.905;238.752,507.855;238.702,507.905;238.754,507.909;238.704,507.959;238.804,507.96;238.805,507.91;238.804,508.01;238.807,507.864;238.757,507.913;238.856,507.914;238.806,507.964;238.756,507.913;238.806,508.014;238.856,507.964;238.806,508.014;238.856,508.014;238.807,507.964;0;0" calcMode="discrete"/><animateTransform attributeName="transform" additive="sum" type="translate" repeatCount="indefinite" dur="2.967s" keyTimes="0;0.989;0.999;1" values="0;238.807,507.964;238.807,507.865;238.807,507.865" calcMode="discrete"/><animateTransform attributeName="transform" additive="sum" type="rotate" repeatCount="indefinite" dur="2.967s" keyTimes="0;0.011;0.034;0.045;0.056;0.067;0.079;0.09;0.101;0.112;0.124;0.135;0.146;0.157;0.169;0.18;0.191;0.202;0.213;0.225;0.236;0.247;0.258;0.27;0.281;0.292;0.303;0.315;0.326;0.336;0.337;1" values="0.947,0,0;0.799,0,0;0.799,0,0;0.947,0,0;0.761,0,0;0.537,0,0;0.5,0,0;0.278,0,0;0.056,0,0;0.023,0,0;-0.01,0,0;-0.041,0,0;-0.259,0,0;-0.288,0,0;-0.504,0,0;-0.532,0,0;-0.559,0,0;-0.772,0,0;-0.796,0,0;-1.008,0,0;-1.031,0,0;-1.052,0,0;-1.26,0,0;-1.28,0,0;-1.299,0,0;-1.504,0,0;-1.521,0,0;-1.537,0,0;-1.551,0,0;-1.753,0,0;0;0" calcMode="discrete"/><animateTransform attributeName="transform" additive="sum" type="rotate" repeatCount="indefinite" dur="2.967s" keyTimes="0;0.337;0.348;0.36;0.371;0.382;0.393;0.404;0.416;0.427;0.438;0.449;0.461;0.472;0.483;0.494;0.506;0.539;0.55;0.562;0.573;0.584;0.595;0.607;0.618;0.629;0.64;0.652;0.663;0.673;0.674;1" values="0;-1.753,0,0;-1.765,0,0;-1.778,0,0;-1.789,0,0;-1.799,0,0;-1.808,0,0;-2.005,0,0;-2.012,0,0;-2.018,0,0;-2.023,0,0;-2.027,0,0;-2.031,0,0;-2.034,0,0;-2.034,0,0;-2.139,0,0;-2.034,0,0;-2.034,0,0;-2.139,0,0;-1.809,0,0;-1.772,0,0;-1.549,0,0;-1.514,0,0;-1.292,0,0;-1.259,0,0;-1.039,0,0;-1.007,0,0;-0.789,0,0;-0.759,0,0;-0.544,0,0;0;0" calcMode="discrete"/><animateTransform attributeName="transform" additive="sum" type="rotate" repeatCount="indefinite" dur="2.967s" keyTimes="0;0.674;0.685;0.697;0.708;0.719;0.73;0.741;0.753;0.764;0.775;0.786;0.798;0.809;0.82;0.831;0.843;0.854;0.865;0.876;0.888;0.899;0.91;0.921;0.932;0.944;0.955;0.966;0.977;0.988;0.989;1" values="0;-0.544,0,0;-0.517,0,0;-0.303,0,0;-0.278,0,0;-0.253,0,0;-0.041,0,0;-0.018,0,0;0.003,0,0;0.024,0,0;0.044,0,0;0.25,0,0;0.268,0,0;0.285,0,0;0.301,0,0;0.504,0,0;0.518,0,0;0.531,0,0;0.543,0,0;0.554,0,0;0.751,0,0;0.76,0,0;0.768,0,0;0.775,0,0;0.782,0,0;0.786,0,0;0.79,0,0;0.794,0,0;0.796,0,0;0.798,0,0;0;0" calcMode="discrete"/><animateTransform attributeName="transform" additive="sum" type="rotate" repeatCount="indefinite" dur="2.967s" keyTimes="0;0.989;0.999;1" values="0;0.798,0,0;0.947,0,0;0.947,0,0" calcMode="discrete"/><animateTransform attributeName="transform" additive="sum" type="translate" repeatCount="indefinite" dur="2.967s" keyTimes="0;0.045;0.056;0.067;0.112;0.124;0.135;0.157;0.169;0.18;0.213;0.225;0.236;0.247;0.258;0.27;0.281;0.292;0.303;0.315;0.326;0.336;0.337;1" values="-1,0.499;-1,0.499;-0.95,0.499;-1,0.449;-1,0.449;-1,0.499;-1,0.449;-1,0.449;-0.95,0.499;-1,0.449;-1,0.449;-0.95,0.449;-0.95,0.499;-0.95,0.499;-0.95,0.449;-1,0.449;-1,0.499;-0.95,0.499;-0.95,0.449;-0.95,0.449;-1.05,0.499;-1,0.449;0;0" calcMode="discrete"/><animateTransform attributeName="transform" additive="sum" type="translate" repeatCount="indefinite" dur="2.967s" keyTimes="0;0.337;0.348;0.36;0.371;0.382;0.393;0.404;0.416;0.427;0.438;0.449;0.461;0.472;0.483;0.494;0.506;0.539;0.55;0.562;0.573;0.584;0.595;0.607;0.618;0.629;0.64;0.652;0.663;0.673;0.674;1" values="0;-1,0.449;-1,0.499;-1,0.449;-1,0.449;-1.05,0.449;-0.95,0.499;-1,0.449;-1,0.449;-0.95,0.499;-0.95,0.499;-1,0.499;-1.05,0.449;-1,0.449;-1,0.449;-0.95,0.499;-1,0.499;-1,0.499;-0.95,0.499;-0.95,0.499;-1,0.499;-0.95,0.549;-0.95,0.549;-0.95,0.499;-0.95,0.549;-0.95,0.499;-0.95,0.499;-1,0.499;-0.95,0.499;-0.95,0.449;0;0" calcMode="discrete"/><animateTransform attributeName="transform" additive="sum" type="translate" repeatCount="indefinite" dur="2.967s" keyTimes="0;0.674;0.685;0.697;0.708;0.719;0.73;0.753;0.764;0.775;0.798;0.809;0.82;0.831;0.843;0.854;0.865;0.876;0.888;0.899;0.91;0.921;0.932;0.944;0.955;0.977;0.988;0.989;1" values="0;-0.95,0.449;-1,0.549;-0.95,0.549;-0.95,0.549;-1,0.549;-0.95,0.499;-0.95,0.499;-0.95,0.549;-0.95,0.499;-0.95,0.499;-0.95,0.549;-0.9,0.549;-0.95,0.499;-0.95,0.499;-1,0.499;-1,0.549;-1,0.499;-1,0.549;-0.9,0.549;-1,0.499;-0.95,0.499;-0.9,0.499;-0.95,0.499;-1,0.499;-1,0.499;-0.95,0.549;0;0" calcMode="discrete"/><animateTransform attributeName="transform" additive="sum" type="translate" repeatCount="indefinite" dur="2.967s" keyTimes="0;0.989;0.999;1" values="0;-0.95,0.549;-1,0.499;-1,0.499" calcMode="discrete"/></use><use xlink:href="#h" transform="translate(59.45 132.5)"><animateTransform attributeName="transform" additive="replace" type="translate" dur="2.967s" keyTimes="0;1" values="0,0;0,0" fill="freeze"/><animateTransform attributeName="transform" additive="sum" type="translate" repeatCount="indefinite" dur="2.967s" keyTimes="0;0.011;0.022;0.034;0.045;0.056;0.067;0.079;0.09;0.101;0.112;0.124;0.135;0.146;0.157;0.169;0.18;0.191;0.202;0.213;0.225;0.236;0.247;0.258;0.27;0.281;0.292;0.303;0.315;0.325;0.326;1" values="59.45,132.5;51.5,132.5;43.55,132.5;35.6,132.5;27.7,132.5;19.75,132.5;11.8,132.5;3.85,132.5;-4.099,132.5;-12.049,132.5;-19.999,132.5;-27.899,132.5;-35.849,132.5;-43.799,132.5;-51.749,132.5;-59.699,132.5;-67.649,132.5;-75.599,132.5;-83.549,132.5;-91.499,132.5;-99.399,132.5;-107.349,132.5;-115.299,132.5;-123.249,132.5;-131.199,132.5;-139.149,132.5;-147.049,132.5;-154.999,132.5;-162.949,132.5;-170.899,132.5;0;0" calcMode="discrete"/><animateTransform attributeName="transform" additive="sum" type="translate" repeatCount="indefinite" dur="2.967s" keyTimes="0;0.326;0.337;0.348;0.36;0.371;0.382;0.393;0.404;0.416;0.427;0.438;0.449;0.461;0.472;0.483;0.494;0.506;0.517;0.528;0.539;0.55;0.562;0.573;0.584;0.595;0.607;0.618;0.629;0.639;0.64;1" values="0;-170.899,132.5;-178.849,132.5;-186.799,132.5;-194.749,132.5;-202.699,132.5;-210.599,132.5;-218.549,132.5;-226.499,132.5;-234.449,132.5;-242.399,132.5;-250.349,132.5;-258.249,132.5;-266.249,132.5;-274.149,132.5;-282.099,132.5;-290.049,132.5;-297.999,132.5;-305.949,132.5;-313.899,132.5;-321.849,132.5;-329.749,132.5;-337.699,132.5;-345.649,132.5;-353.599,132.5;-361.549,132.5;-369.499,132.5;-377.449,132.5;-385.349,132.5;-393.299,132.5;0;0" calcMode="discrete"/><animateTransform attributeName="transform" additive="sum" type="translate" repeatCount="indefinite" dur="2.967s" keyTimes="0;0.64;0.652;0.663;0.674;0.685;0.697;0.708;0.719;0.73;0.741;0.753;0.764;0.775;0.786;0.798;0.809;0.82;0.831;0.843;0.854;0.865;0.876;0.888;0.899;0.91;0.921;0.932;0.944;0.954;0.955;1" values="0;-393.299,132.5;-401.249,132.5;-409.199,132.5;-417.149,132.5;-425.099,132.5;-433.049,132.5;-440.999,132.5;-448.899,132.5;-456.849,132.5;-464.799,132.5;-472.749,132.5;-480.699,132.5;-488.649,132.5;-496.599,132.5;-504.549,132.5;-512.449,132.5;-520.399,132.5;-528.349,132.5;-536.299,132.5;-544.249,132.5;-552.199,132.5;-560.099,132.5;-568.049,132.5;-575.999,132.5;-583.949,132.5;-591.899,132.5;-599.849,132.5;-607.799,132.5;-615.749,132.5;0;0" calcMode="discrete"/><animateTransform attributeName="transform" additive="sum" type="translate" repeatCount="indefinite" dur="2.967s" keyTimes="0;0.955;0.966;0.977;0.989;0.999;1" values="0;-615.749,132.5;-623.649,132.5;-631.599,132.5;-639.549,132.5;-647.499,132.5;-647.499,132.5" calcMode="discrete"/></use><path fill="#F3E9C4" stroke="#1A344F" stroke-width="2.5" stroke-linecap="round" stroke-linejoin="round" d="M700.451 607.55l1.2-99.05H-4.799l-1.15 99.05h706.4"/><path fill="#19344F" d="M212.651 531.7h-5.75v-3.75h6.85v-2.8h-10.5v15.7h3.65v-6.3h5.75v-2.85M228.951 531.6q0-2.9-1.9-4.8-1.8-1.9-4.8-1.9-2.95 0-4.85 1.9-1.85 1.85-1.85 4.8v2.8q0 2.95 1.85 4.8 1.9 1.9 4.85 1.9 2.95 0 4.85-1.9 1.85-1.95 1.85-4.8v-2.8m-8.95-2.8q.75-1.1 2.25-1.1 1.45 0 2.25 1.1t.8 2.75v2.85q0 1.7-.8 2.8-.85 1.1-2.25 1.1-1.45 0-2.25-1.1-.8-1-.8-2.8v-2.85q0-1.75.8-2.75M231.401 525.15v15.7h3.65v-6h1.95q1.15 0 1.75.6.6.6.6 1.7l.1 2.55q.15.85.6 1.15h3.75v-.2q-.4-.25-.65-1.1l-.15-1.45v-.95q0-1.35-.65-2.4-.6-.95-2.1-1.35 1.35-.65 1.9-1.45.65-.85.65-2.1 0-2.2-1.6-3.45-1.55-1.25-4.3-1.25h-5.5m3.65 2.8h1.85q1.05 0 1.65.6.6.55.6 1.55 0 .95-.55 1.4-.55.5-1.7.5h-1.85v-4.05M254.951 534.15v-2.85h-5.55v-3.35h6.65v-2.8h-10.3v15.7h10.3v-2.8h-6.65v-3.9h5.55M270.901 525.15h-4.2l-2.6 5.3-2.55-5.3h-4.2l4.55 7.8-4.65 7.9h4.2l2.7-5.4 2.7 5.4h4.4l-4.85-7.9 4.5-7.8M362.601 540.85v-14.2h-2.35v10.2l-.05.05-6.3-10.25h-2.4v14.2h2.4v-10.2l.05-.05 6.3 10.25h2.35M376.751 526.65h-2.65l-3.45 6.9-3.4-6.9h-2.65l4.85 9.1v5.1h2.35v-4.95l4.95-9.25M460.951 528.55v-1.9h-11.1v1.9h4.35v12.3h2.35v-12.3h4.4M468.251 526.45q-2.6 0-4.15 1.7-1.6 1.75-1.6 4.35v2.55q0 2.55 1.6 4.3 1.65 1.7 4.15 1.7 2.65 0 4.25-1.7 1.65-1.7 1.65-4.3v-2.55q0-2.6-1.65-4.35-1.6-1.7-4.25-1.7m0 1.95q1.6 0 2.6 1.15.95 1.2.95 2.9v2.6q0 1.7-.95 2.95-1 1.15-2.6 1.15-1.55 0-2.45-1.15-.9-1.2-.9-2.95v-2.6q0-1.75.9-2.9t2.45-1.15M487.601 526.7v-.05h-2.8l-4.6 6h-.95v-6h-2.35v14.2h2.35v-6.15h1.15l4.65 6.15h3l-5.75-7.45 5.3-6.7M493.451 535.75v5.1h2.35v-4.95l4.95-9.25h-2.65l-3.4 6.9-3.45-6.9h-2.65l4.85 9.1M508.051 526.45q-2.6 0-4.15 1.7-1.6 1.65-1.6 4.35v2.55q0 2.65 1.6 4.3 1.55 1.7 4.15 1.7 2.65 0 4.25-1.7 1.65-1.7 1.65-4.3v-2.55q0-2.6-1.65-4.35-1.6-1.7-4.25-1.7m0 1.95q1.65 0 2.55 1.15.95 1.1.95 2.9v2.6q0 1.8-.95 2.95-.9 1.15-2.55 1.15-1.5 0-2.5-1.15-.9-1.2-.9-2.95v-2.6q0-1.75.9-2.9t2.5-1.15M555.851 538.95v-12.3h-2.4v14.2h9.05v-1.9h-6.65M574.251 528.15q-1.6-1.7-4.25-1.7-2.6 0-4.15 1.7-1.6 1.75-1.6 4.35v2.55q0 2.55 1.6 4.3 1.65 1.7 4.15 1.7 2.7 0 4.25-1.7 1.65-1.7 1.65-4.3v-2.55q0-2.6-1.65-4.35m-1.65 1.4q.95 1.2.95 2.9v2.6q0 1.7-.95 2.95-1 1.15-2.6 1.15-1.55 0-2.45-1.15-.9-1.2-.9-2.95v-2.6q0-1.75.9-2.9t2.45-1.15q1.6 0 2.6 1.15M578.651 526.65v14.2h2.35v-10.2l.05-.05 6.3 10.25h2.4v-14.2h-2.4v10.2l-.05.05-6.3-10.25h-2.35M602.051 539.2q1.7-1.7 1.7-4.35v-2.15q0-2.7-1.7-4.35-1.7-1.7-4.4-1.7h-4.7v14.2h4.7q2.7 0 4.4-1.65m-.7-6.55v2.2q0 1.9-1 2.95-.95 1.15-2.7 1.15h-2.3v-10.4h2.3q1.7 0 2.7 1.15 1 1.15 1 2.95M616.101 528.15q-1.6-1.7-4.25-1.7-2.6 0-4.15 1.7-1.6 1.75-1.6 4.35v2.55q0 2.55 1.6 4.3 1.55 1.7 4.15 1.7 2.65 0 4.25-1.7 1.65-1.7 1.65-4.3v-2.55q0-2.6-1.65-4.35m-1.7 1.4q.95 1.1.95 2.9v2.6q0 1.75-.9 2.95-1 1.15-2.6 1.15-1.55 0-2.45-1.15-.9-1.2-.9-2.95v-2.6q0-1.75.9-2.9t2.45-1.15q1.65 0 2.55 1.15M620.501 526.65v14.2h2.35v-10.2l.05-.05 6.3 10.25h2.4v-14.2h-2.4v10.2l-.05.05-6.3-10.25h-2.35"/></g></svg>