<svg xmlns:xlink="http://www.w3.org/1999/xlink" xmlns="http://www.w3.org/2000/svg" image-rendering="optimizeQuality" baseProfile="basic" width="695" height="735" viewBox="0 0 695 735" preserveAspectRatio="xMinYMin meet"><defs><symbol id="a" overflow="visible"><path fill="#3B1347" fill-opacity=".2" d="M-40.669 24.736l14.524-18.48-30.15-3.456q-4.157 6.41-1.603 13.622 2.605 7.262 9.867 9.566.45.2 1.152.1l6.21-1.352"/></symbol></defs><g overflow="visible"><path fill="#FFF" d="M694.991 735.481V242.628H-.003v492.853h694.994"/><path fill="#99C977" stroke="#43B162" stroke-width="3" stroke-linecap="round" stroke-linejoin="round" d="M539.635 317.3v-30.65h-28.997v30.65h28.997"/><path fill="#1A344F" stroke="#383838" stroke-width="3" stroke-linecap="round" stroke-linejoin="round" d="M525.762 333.175h-1.252v314.463h1.252V333.175"/><path fill="#99C977" stroke="#43B162" stroke-width="3" stroke-linecap="round" stroke-linejoin="round" d="M474.178 399.984v-30.65H445.18v30.65h28.998"/><path fill="#FFF" d="M463.56 379.05q-1.653-.851-3.806-.851-3.005 0-4.808 2.103-1.753 2.004-1.753 5.209 0 3.255 1.603 5.158 1.652 2.003 4.757 2.003 2.004 0 4.007-.851.451-.2.301-.601l-.451-1.202q-.1-.35-.551-.2-1.352.651-2.905.651-1.853 0-2.905-1.352-1.051-1.353-1.051-3.706 0-2.054.901-3.456 1.052-1.603 3.005-1.603 1.603 0 2.955.752.35.2.501-.201l.45-1.252q.101-.4-.25-.601"/><path fill="#99C977" stroke="#43B162" stroke-width="3" stroke-linecap="round" stroke-linejoin="round" d="M605.143 594.101h-28.948v30.65h28.948v-30.65"/><path fill="#FFF" d="M596.429 610.227q0-4.357-2.855-6.01-1.803-1.001-5.259-1.001h-2.904q-.601 0-.601.601v12.77q0 .601.55.601h3.857q3.155 0 5.008-1.552 2.204-1.803 2.204-5.409m-2.755 0q0 2.404-1.302 3.706-1.052 1.052-3.406 1.052h-1.552v-9.566h1.452q2.154 0 3.205.802 1.603 1.202 1.603 4.006"/><path fill="#99C977" stroke="#43B162" stroke-width="3" stroke-linecap="round" stroke-linejoin="round" d="M539.635 659.207h-28.997v30.65h28.997v-30.65"/><path fill="#FFF" d="M525.863 678.288q2.003-1.903 2.854-3.055 1.252-1.703 1.252-3.255 0-1.853-1.252-2.905-1.152-1.002-3.105-1.002-2.304 0-4.157 1.202-.4.251-.25.701l.451 1.002q.25.451.701.2 1.502-.901 2.905-.901 2.053 0 2.053 1.853 0 1.502-2.504 4.107-2.504 2.354-3.756 3.656-.351.3-.351.801v1.002q0 .601.601.601h7.913q.601 0 .601-.551v-1.102q0-.501-.601-.501h-5.359l2.004-1.853M526.814 309.136v-12.871q0-.5-.501-.5h-1.001q-.501 0-.902.2l-4.006 2.404q-.451.2-.201.701l.451.951q.25.451.751.201l2.805-1.603v10.517q0 .601.651.601h1.302q.651 0 .651-.601"/><path fill="#EAEAEA" d="M487.7 386.813q.851 0 1.402-.601.601-.551.601-1.402 0-.802-.601-1.403-.551-.601-1.402-.601h-4.658q-.801 0-1.402.601-.601.601-.601 1.403 0 .851.601 1.402.601.601 1.402.601h4.658M506.28 386.813q.852 0 1.403-.601.601-.551.601-1.402 0-.802-.601-1.403-.551-.601-1.403-.601h-4.657q-.802 0-1.403.601t-.601 1.403q0 .851.601 1.402.601.601 1.403.601h4.657"/><path fill="#EAEAEA" d="M506.431 386.813q.851 0 1.402-.601.601-.551.601-1.402 0-.802-.601-1.403-.551-.601-1.402-.601h-4.608q-.801 0-1.402.601-.601.601-.601 1.403 0 .851.601 1.402.601.601 1.402.601h4.608M543.892 609.776q0 .852.601 1.403.601.601 1.403.601h4.657q.852 0 1.402-.601.601-.551.601-1.403 0-.801-.601-1.402-.55-.601-1.402-.601h-4.657q-.802 0-1.403.601t-.601 1.402M564.476 607.773q-.801 0-1.402.601-.601.601-.601 1.402 0 .852.601 1.403.601.601 1.402.601h4.658q.851 0 1.402-.601.601-.551.601-1.403 0-.801-.601-1.402-.551-.601-1.402-.601h-4.658"/><path fill="#EAEAEA" d="M564.676 607.773q-.801 0-1.402.601-.601.601-.601 1.402 0 .852.601 1.403.601.601 1.402.601h4.658q.851 0 1.402-.601.601-.551.601-1.403 0-.801-.601-1.402-.551-.601-1.402-.601h-4.658"/><path fill="#E66C6C" stroke="#E55A3E" stroke-width="3" stroke-linecap="round" stroke-linejoin="round" d="M193.666 316.298v-30.65h-28.998v30.65h28.998"/><path fill="#1A344F" stroke="#383838" stroke-width="3" stroke-linecap="round" stroke-linejoin="round" d="M179.092 332.174h-1.202v313.661h1.202V332.174"/><path fill="#E66C6C" stroke="#E55A3E" stroke-width="3" stroke-linecap="round" stroke-linejoin="round" d="M192.264 382.806h-27.596v226.97h27.596v-226.97"/><path fill="#FFF" d="M180.044 295.264q0-.501-.501-.501h-1.002q-.501 0-.901.2l-4.007 2.404q-.451.2-.2.701l.45.952q.251.451.752.2l2.804-1.602v10.517q0 .601.651.601h1.303q.651 0 .651-.601v-12.871"/><path fill="#E66C6C" stroke="#E55A3E" stroke-width="3" stroke-linecap="round" stroke-linejoin="round" d="M260.827 399.133v-30.65h-28.948v30.65h28.948"/><path fill="#FFF" d="M247.955 376.446q-.1-.351-.551-.351h-1.602q-.401 0-.551.401l-4.908 13.071q-.201.501.3.501h1.703q.501 0 .551-.451l1.052-3.004h5.108l1.052 2.954q.15.501.701.501h1.803q.25 0 .3-.15.101-.2 0-.401l-4.958-13.071m-1.402 2.604l1.803 5.609h-3.706l1.853-5.609h.05"/><path fill="#E66C6C" stroke="#E55A3E" stroke-width="3" stroke-linecap="round" stroke-linejoin="round" d="M123.801 623.749v-30.65H94.803v30.65h28.998"/><path fill="#FFF" d="M107.074 602.214h-3.055q-.601 0-.601.501v12.871q0 .601.5.601h3.757q5.509 0 5.509-4.107 0-1.452-.952-2.454-.952-.901-2.404-1.002v-.05q1.102-.2 1.703-1.051.601-.802.601-1.903 0-3.406-5.058-3.406m-1.052 11.97v-4.408h1.302q1.452 0 2.154.351 1.101.601 1.101 1.903 0 1.402-1.202 1.903-.601.251-1.903.251h-1.452m1.052-6.261h-1.052v-3.756h1.102q2.454 0 2.454 1.753 0 1.152-.701 1.603-.601.4-1.803.4"/><path fill="#E66C6C" stroke="#E55A3E" stroke-width="3" stroke-linecap="round" stroke-linejoin="round" d="M192.815 658.205h-28.948v30.65h28.948v-30.65"/><path fill="#FFF" d="M181.947 674.231q1.252-1.702 1.252-3.255 0-1.803-1.252-2.905-1.202-1.001-3.155-1.001-2.254 0-4.157 1.202-.401.3-.201.701l.451 1.001q.2.451.651.201 1.603-.902 2.905-.902 2.103 0 2.103 1.853 0 1.503-2.504 4.107-2.504 2.354-3.756 3.656-.401.351-.401.801v1.002q0 .601.652.601h7.913q.55 0 .55-.551v-1.102q0-.501-.55-.501h-5.359l2.003-1.853q2.003-1.903 2.855-3.055"/><path fill="#EAEAEA" d="M138.575 607.773q-.551-.601-1.402-.601h-4.608q-.801 0-1.402.601-.601.601-.601 1.402 0 .852.601 1.403.601.601 1.402.601h4.608q.851 0 1.402-.601.601-.551.601-1.403 0-.801-.601-1.402M149.694 607.773q-.601.601-.601 1.402 0 .852.601 1.403.601.601 1.402.601h4.658q.851 0 1.402-.601.601-.551.601-1.403 0-.801-.601-1.402-.551-.601-1.402-.601h-4.658q-.801 0-1.402.601"/><path fill="#EAEAEA" d="M155.954 611.179q.851 0 1.402-.601.601-.551.601-1.403 0-.801-.601-1.402-.551-.601-1.402-.601h-4.658q-.801 0-1.402.601-.601.601-.601 1.402 0 .852.601 1.403.601.601 1.402.601h4.658M204.584 386.813q.851 0 1.402-.601.601-.551.601-1.402 0-.802-.601-1.403-.551-.601-1.402-.601h-4.658q-.801 0-1.402.601-.601.601-.601 1.403 0 .851.601 1.402.601.601 1.402.601h4.658M223.114 386.813q.852 0 1.403-.601.601-.551.601-1.402 0-.802-.601-1.403-.551-.601-1.403-.601h-4.607q-.852 0-1.452.601-.551.551-.551 1.403 0 .851.551 1.402.6.601 1.452.601h4.607"/><path fill="#EAEAEA" d="M223.315 386.813q.851 0 1.402-.601.601-.551.601-1.402 0-.802-.601-1.403-.551-.601-1.402-.601h-4.658q-.801 0-1.402.601-.601.601-.601 1.403 0 .851.601 1.402.601.601 1.402.601h4.658"/><path fill="#99C977" stroke="#43B162" stroke-width="3" stroke-linecap="round" stroke-linejoin="round" d="M538.934 383.808h-27.595v226.97h27.595v-226.97"/><path fill="none" stroke="#EAEAEA" stroke-width="4" stroke-linecap="round" stroke-linejoin="round" d="M349.172 614.634v-4.657M349.172 596.054v-4.658M349.172 466.092v-4.657M349.172 447.512v-4.608M349.172 428.982v-4.658M349.172 410.401v-4.657M349.172 391.821v-4.607M349.172 373.291v-4.658M349.172 354.711v-4.658M349.172 336.13v-4.607M349.172 317.6v-4.657M349.172 299.02v-4.658M349.172 280.44v-4.608M349.172 224.749v-4.608M349.172 206.219v-4.658M349.172 595.854v-4.608M349.172 577.323v-4.657M349.172 558.743v-4.657M349.172 540.163v-4.658M349.172 521.583v-4.608M349.172 503.052v-4.657M349.172 484.472v-4.657M349.172 465.892v-4.608M349.472 721.909v-4.657M349.472 703.329v-4.608M349.472 684.799v-4.658M349.472 666.218v-4.657M349.472 647.638v-4.607M349.472 629.108v-4.658"/><path fill="#FFF" d="M694.991 245.733V-.018H-.003v245.751h694.994"/><path fill="none" stroke="#383838" stroke-width="3" stroke-linecap="round" stroke-linejoin="round" d="M33.102 242.578h268.341M391.291 242.578h268.342"/><path fill="#383838" d="M348.571 105.705h-8.564l-7.062 48.178-7.112-48.178h-9.365l9.115 59.046h13.873l9.115-59.046M375.565 108.91q-3.505-3.906-10.217-3.906-6.711 0-10.216 3.906-3.456 3.806-3.456 10.968 0 5.659 2.855 10.317 1.903 3.105 6.21 7.111 4.958 4.558 6.21 6.21 2.855 3.656 2.855 7.663 0 5.709-4.808 5.709t-4.808-5.709v-4.257h-8.764v3.656q0 7.111 3.505 10.968 3.556 3.856 10.317 3.856t10.317-3.856q3.506-3.857 3.506-10.968 0-5.659-2.855-10.317-1.903-3.105-6.21-7.112-4.958-4.607-6.21-6.26-2.855-3.606-2.855-7.612 0-5.81 4.658-5.81t4.658 5.81v2.454h8.764v-1.853q0-7.162-3.456-10.968"/><path fill="#D36868" d="M173.583 382.205h-9.115v226.97h9.115v-226.97"/><path fill="#97BD68" d="M521.005 383.808h-9.065v226.97h9.065v-226.97"/><path fill="#E9EDEA" stroke="#1A344F" stroke-width="2.5" stroke-linecap="round" stroke-linejoin="round" d="M92.6 120.98q0 27.545 19.482 47.026 19.482 19.482 47.077 19.482 27.596 0 47.078-19.482 19.482-19.481 19.482-47.026t-19.482-47.077q-19.482-19.482-47.078-19.482-27.545 0-47.077 19.482Q92.6 93.435 92.6 120.98"/><path fill="none" stroke="#1A344F" stroke-width="2.5" stroke-linecap="round" stroke-linejoin="round" d="M86.4 121q0-10.5 2.8-20.2M86.4 121q0 14.7 5.65 28.2 5.45 12.95 15.4 23 2 1.95 4.1 3.75M129.711 187.538q-5.81-2.604-11.219-6.26M228.774 142.164q-4.207 13.923-13.573 25.241-9.265 11.168-22.086 17.93M228.774 99.795q3.155 10.317 3.155 21.185M179.393 51.066q13.622 3.956 24.89 12.821M133.968 52.718q1.953-.751 5.459-1.803m-5.459 1.803q-10.768 3.957-19.933 11.169"/><path fill="#E9EDEA" stroke="#1A344F" stroke-width="2.5" stroke-linecap="round" stroke-linejoin="round" d="M530.821 57.025q-26.794 0-45.675 18.931-18.932 18.881-18.932 45.675 0 26.743 18.932 45.674 18.881 18.931 45.675 18.931 26.744 0 45.675-18.931 18.881-18.931 18.881-45.674 0-26.794-18.881-45.675-18.931-18.931-45.675-18.931"/><path fill="none" stroke="#1A344F" stroke-width="2.5" stroke-linecap="round" stroke-linejoin="round" d="M484.595 175.018q-1.703-1.453-3.907-3.656-9.666-9.766-14.974-22.387-5.509-13.071-5.509-27.344 0-10.017 2.704-19.582M502.224 186.236q-5.66-2.504-10.868-6.06M598.382 142.164q-4.107 13.572-13.172 24.49-9.015 10.868-21.485 17.428M598.382 101.047q3.055 10.167 3.055 20.584"/><g transform="translate(529.65 51.55)"><animateTransform attributeName="transform" additive="replace" type="translate" repeatCount="indefinite" dur="2.875s" keyTimes="0;0.014;0.029;0.043;0.058;0.072;0.087;0.101;0.116;0.13;0.145;0.159;0.174;0.71;0.725;0.739;0.754;0.768;0.783;0.797;0.812;0.826;0.841;0.855;1" values="530.25,75.3;530.25,75.721;530.25,76.142;530.25,76.563;530.25,77.034;530.25,77.454;530.25,77.924;530.25,78.346;530.25,78.767;530.25,79.237;530.25,79.658;530.25,80.076;530.25,80.5;530.25,80.5;530.25,80.005;530.25,79.46;530.25,79.013;530.25,78.42;530.25,77.926;530.25,77.382;530.25,76.934;530.25,76.34;530.25,75.795;530.25,75.3;530.25,75.3" calcMode="discrete"/><animateTransform attributeName="transform" additive="sum" type="scale" repeatCount="indefinite" dur="2.875s" keyTimes="0;0.014;0.029;0.043;0.058;0.072;0.087;0.101;0.116;0.13;0.145;0.159;0.174;0.71;0.725;0.739;0.754;0.768;0.783;0.797;0.812;0.826;0.841;0.855;1" values="1,1;1,0.995;1,0.989;1,0.984;1,0.978;1,0.973;1,0.967;1,0.962;1,0.956;1,0.951;1,0.946;1,0.94;1,0.935;1,0.935;1,0.941;1,0.948;1,0.954;1,0.961;1,0.967;1,0.974;1,0.98;1,0.987;1,0.993;1,1;1,1" calcMode="discrete"/><animateTransform attributeName="transform" additive="sum" type="translate" repeatCount="indefinite" dur="2.875s" keyTimes="0;0.029;0.043;0.058;0.072;0.087;0.101;0.145;0.159;0.174;0.739;0.754;0.768;0.783;0.797;0.812;0.826;1" values="-0.6,-23.75;-0.6,-23.75;-0.6,-23.7;-0.6,-23.7;-0.6,-23.75;-0.6,-23.8;-0.6,-23.75;-0.6,-23.75;-0.6,-23.8;-0.6,-23.75;-0.6,-23.75;-0.6,-23.8;-0.6,-23.75;-0.6,-23.75;-0.6,-23.7;-0.6,-23.8;-0.6,-23.75;-0.6,-23.75" calcMode="discrete"/><path fill="#3B1347" fill-opacity=".2" d="M45.6 41.4q7.75-4 12.3-10.5 4.85-6.85 4.55-14.35Q62.1 8.2 55.4.85q1.8 16.9-7.25 23.45-6.55 4.75-20.95 4.75h-3.85q-.8-.2-1.4-.2l-24.1.8-24.05-.8q-.65 0-1.45.2h-4.8q-12.7 0-18.65-3.95-.55-.4-1.05-.8Q-60 17.9-58.2.85q-6.7 7.4-7.4 15.7-.65 7.55 3.65 14.35 3.25 5.15 8.55 8.7 1.4.95 3 1.8 7.5 4.05 15.95 4.05l1.3 3.35 62.65-.6-.7-2.75h.4q8.45 0 16.4-4.05"/><path fill="#FFF" d="M-57.326.016q-6.711 7.362-7.061 15.676-.301 7.512 4.557 14.373 4.558 6.511 12.321 10.518 7.863 4.056 16.326 4.056h9.416l-.801-16.427h-6.611q-14.324 0-20.885-4.757-9.115-6.561-7.262-23.439"/><path fill="none" stroke="#1A344F" stroke-width="2.5" stroke-linecap="round" stroke-linejoin="round" d="M-57.326.016q-6.711 7.362-7.061 15.676-.301 7.512 4.557 14.373 4.558 6.511 12.321 10.518 7.863 4.056 16.326 4.056h9.416M-57.326.016q-1.853 16.878 7.262 23.439 6.561 4.757 20.885 4.757h6.611"/><path fill="none" stroke="#1A344F" stroke-width="2.5" stroke-linecap="round" stroke-linejoin="round" d="M-51.816 30.867q1.803 1.753 4.307 3.355 6.26 4.007 13.422 5.109M-58.327 22.052q.851 1.853 1.903 3.406M-36.742 33.872q-3.756-.902-6.36-2.605m6.36 2.605q1.853.45 3.206.551"/><path fill="#FFF" d="M23.908 28.212l-.801 16.427h9.415q8.464 0 16.327-4.056 7.763-4.007 12.371-10.518 4.807-6.861 4.507-14.373-.351-8.314-7.062-15.676 1.853 16.878-7.212 23.439-6.56 4.757-20.934 4.757h-6.611"/><path fill="none" stroke="#1A344F" stroke-width="2.5" stroke-linecap="round" stroke-linejoin="round" d="M32.522 44.639h-9.415m9.415 0q8.464 0 16.327-4.056 7.763-4.007 12.371-10.518 4.807-6.861 4.507-14.373-.351-8.314-7.062-15.676 1.853 16.878-7.212 23.439-6.56 4.757-20.934 4.757h-6.611"/><path fill="none" stroke="#1A344F" stroke-width="2.5" stroke-linecap="round" stroke-linejoin="round" d="M53.156 30.867q-1.803 1.753-4.307 3.355-6.26 4.007-13.422 5.109M59.667 22.052q-.851 1.853-1.903 3.406M38.081 33.872q3.757-.902 6.361-2.605m-6.361 2.605l-3.205.551"/></g><path fill="#3B1347" fill-opacity=".2" d="M205.51 117.129q0-20.182-14.273-34.456Q176.963 68.4 156.78 68.4t-34.457 14.273q-14.273 14.274-14.273 34.456 0 11.72 20.484 31.752 11.118 10.868 31.201 27.946 22.187-21.135 28.297-27.946 17.478-19.782 17.478-31.752"/><path fill="#9B7253" d="M110.98 114.319q0 11.869 18.981 31.902 10.417 10.968 29.749 28.146 3.606-3.406 13.673-12.521 9.816-9.014 16.076-15.625 18.981-20.033 18.981-31.902 0-20.183-14.273-34.456-14.224-14.274-34.457-14.274-20.183 0-34.457 14.274-14.273 14.273-14.273 34.456"/><path fill="none" stroke="#1A344F" stroke-width="2.5" stroke-linecap="round" stroke-linejoin="round" d="M110.98 114.319q0 11.869 18.981 31.902 10.417 10.968 29.749 28.146 3.606-3.406 13.673-12.521 9.816-9.014 16.076-15.625 18.981-20.033 18.981-31.902 0-20.183-14.273-34.456-14.224-14.274-34.457-14.274-20.183 0-34.457 14.274-14.273 14.273-14.273 34.456M153.149 161.295l4.858 4.858M130.212 138.308l17.528 17.528M183.399 143.617l-13.873 13.872"/><path fill="#3B1347" fill-opacity=".2" d="M552.975 80.6q-.788-.2-1.375-.2l-24.1.8-23.275-.775-7.725 19.925-2.9 11.4q-.5 1.15 0 4.2.6 3.25 1.95 6.45l13.75 31q11.523 5.735 17.25 9.125 23.773-4.1 22.9-6.125-1.1-2.45-3.5-3.55l14.1-31.9q2.35-5.15 1.55-10.9l-8.625-29.45"/><path fill="#908A7D" d="M554.86 79.562l-24.064.751 1.227.05h-2.454l1.227-.05-24.065-.751q-2.304 0-3.255 1.653-.601 1.102-1.002 4.207l-5.559 22.186q-1.002 7.312 1.953 13.922l16.177 36.51q.851 1.853 2.504 2.955 1.703 1.102 3.706 1.102h19.081q2.004 0 3.706-1.102 1.653-1.102 2.505-2.955l16.827-37.912q2.304-5.308 1.553-10.968l-5.81-23.738q-.4-3.105-1.001-4.207-.952-1.653-3.256-1.653m-24.064.751l1.227.05h-2.454l1.227-.05"/><path fill="none" stroke="#1A344F" stroke-width="2.5" stroke-linecap="round" stroke-linejoin="round" d="M530.796 80.313l-24.065-.751q-2.304 0-3.255 1.653-.601 1.102-1.002 4.207l-5.559 22.186q-1.002 7.312 1.953 13.922l16.177 36.51q.851 1.853 2.504 2.955 1.703 1.102 3.706 1.102h19.081q2.004 0 3.706-1.102 1.653-1.102 2.505-2.955l16.827-37.912q2.304-5.308 1.553-10.968l-5.81-23.738q-.4-3.105-1.001-4.207-.952-1.653-3.256-1.653l-24.064.751"/><path fill="none" stroke="#1A344F" stroke-width="2.5" stroke-linecap="round" stroke-linejoin="round" d="M530.796 80.313l1.227.05h-2.454l1.227-.05"/><g transform="translate(530.9 101.85)"><animateTransform attributeName="transform" additive="replace" type="translate" repeatCount="indefinite" dur="2.875s" keyTimes="0;0.014;0.029;0.043;0.058;0.072;0.087;0.101;0.116;0.13;0.145;0.159;0.174;0.71;0.725;0.739;0.754;0.768;0.783;0.797;0.812;0.826;0.841;0.855;1" values="530.9,101.85;530.9,101.05;530.9,100.25;530.9,99.45;530.85,98.65;530.85,97.85;530.85,97.05;530.85,96.2;530.85,95.4;530.85,94.6;530.8,93.8;530.8,93;530.8,92.2;530.8,92.2;530.8,93.15;530.8,94.15;530.85,95.1;530.85,96.05;530.85,97.05;530.85,98;530.85,98.95;530.9,99.9;530.9,100.9;530.9,101.85;530.9,101.85" calcMode="discrete"/><path fill="#7B7466" stroke="#1A344F" stroke-width="2.5" stroke-linecap="round" stroke-linejoin="round" d="M12.791 72.517q2.204 0 4.007-1.252 1.803-1.303 2.554-3.356l3.205-9.015q1.252-3.405-.851-6.41-2.104-2.955-5.71-2.955l-2.454-.25q-13.272-1.403-25.993.1l-1.452.15q-3.606 0-5.659 2.955-2.104 3.005-.902 6.41l3.656 10.267q.701 1.903 2.454 2.855 1.753.951 3.706.501 11.219-2.454 22.287-.201l1.152.201"/><path fill="#79746A" stroke="#1A344F" stroke-width="2.5" stroke-linecap="round" stroke-linejoin="round" d="M-8.544 56.791q-1.903 0-3.255 1.352-1.353 1.352-1.353 3.256 0 3.255 4.608 3.255 4.557 0 4.557-3.255 0-1.904-1.352-3.256-1.302-1.352-3.205-1.352M13.492 61.399q0-1.904-1.352-3.256-1.302-1.352-3.205-1.352t-3.256 1.352q-1.352 1.352-1.352 3.256 0 3.255 4.608 3.255 4.557 0 4.557-3.255"/><path fill="#908A7D" d="M-31.3 0Q-6.497 2.38-5 43.25v-14.5Q-5 16.7-12.6 8.4-20.05.3-31.3 0"/><path fill="none" stroke="#1A344F" stroke-width="2.5" stroke-linecap="round" stroke-linejoin="round" d="M-5 28.75v14.5m0-14.5Q-5 16.7-12.6 8.4-19.553.798-29.85.075"/><path fill="#908A7D" d="M5.05 39.375Q5.736 4.983 31.3 0 20.1.3 12.65 8.4q-7.6 8.3-7.6 20.35v10.625"/><path fill="none" stroke="#1A344F" stroke-width="2.5" stroke-linecap="round" stroke-linejoin="round" d="M5.05 28.75v14.5m0-14.5q0-12.05 7.6-20.35Q19.546.86 29.7.075"/><path fill="#908A7D" d="M-27.175 6.559l10.317 7.613q-2.003-4.758-6.36-6.661l-3.957-.952"/><path fill="none" stroke="#1A344F" stroke-width="2.5" stroke-linecap="round" stroke-linejoin="round" d="M-23.218 7.511q4.357 1.903 6.36 6.661m-6.36-6.661l-3.957-.952"/><path fill="#1A344F" d="M-19.212 11.066q0-.851-.601-1.502-.651-.601-1.552-.601-.852 0-1.503.601-.601.651-.601 1.502 0 .902.601 1.503.651.601 1.503.601.901 0 1.552-.601.601-.601.601-1.503"/><path fill="#908A7D" d="M15.646 14.172l10.317-7.613q-1.753 0-3.957.952-4.357 1.903-6.36 6.661"/><path fill="none" stroke="#1A344F" stroke-width="2.5" stroke-linecap="round" stroke-linejoin="round" d="M22.006 7.511q-4.357 1.903-6.36 6.661m6.36-6.661q2.204-.952 3.957-.952"/><path fill="#1A344F" d="M18.651 9.564Q18 10.215 18 11.066q0 .902.651 1.503.601.601 1.502.601.852 0 1.503-.601.601-.601.601-1.503 0-.851-.601-1.502-.651-.601-1.503-.601-.901 0-1.502.601"/></g><g transform="translate(158.9 88.95)"><animateTransform attributeName="transform" additive="replace" type="translate" repeatCount="indefinite" dur="2.875s" keyTimes="0;0.014;0.029;0.043;0.058;0.072;0.087;0.101;0.116;0.13;0.145;0.159;0.174;0.71;0.725;0.739;0.754;0.768;0.783;0.797;0.812;0.826;0.841;0.855;1" values="158.9,88.95;158.9,90.15;158.9,91.4;158.9,92.6;158.9,93.85;158.9,95.05;158.9,96.3;158.9,97.5;158.9,98.7;158.9,99.95;158.9,101.15;158.9,102.4;158.9,103.6;158.9,103.6;158.9,102.15;158.9,100.65;158.9,99.2;158.9,97.75;158.9,96.3;158.9,94.8;158.9,93.35;158.9,91.9;158.9,90.4;158.9,88.95;158.9,88.95" calcMode="discrete"/><path fill="#9B7253" d="M-11.56 42.447q1.452 1.452 3.506 1.452H9.074q2.053 0 3.455-1.452 1.453-1.453 1.453-3.506v-.2h-26.995v.2q0 2.053 1.453 3.506"/><path fill="none" stroke="#1A344F" stroke-width="2.5" stroke-linecap="round" stroke-linejoin="round" d="M-11.56 42.447q1.452 1.452 3.506 1.452H9.074q2.053 0 3.455-1.452 1.453-1.453 1.453-3.506m-25.542 3.506q-1.453-1.453-1.453-3.506"/><path fill="#9B7253" d="M-16.368 17.256q-3.957 3.706-3.957 9.064 0 5.159 3.656 8.765 3.606 3.656 8.765 3.656h3.205l-11.669-21.485"/><path fill="none" stroke="#1A344F" stroke-width="2.5" stroke-linecap="round" stroke-linejoin="round" d="M-16.368 17.256q-3.957 3.706-3.957 9.064 0 5.159 3.656 8.765 3.606 3.656 8.765 3.656h3.205"/><path fill="#9B7253" d="M21.795 26.32q0-5.409-3.957-9.064L6.169 38.741h3.255q5.109 0 8.765-3.656 3.606-3.606 3.606-8.765"/><path fill="none" stroke="#1A344F" stroke-width="2.5" stroke-linecap="round" stroke-linejoin="round" d="M17.838 17.256q3.957 3.655 3.957 9.064 0 5.159-3.606 8.765-3.656 3.656-8.765 3.656H6.169"/><path fill="#6B594B" stroke="#1A344F" stroke-width="2.5" stroke-linecap="round" stroke-linejoin="round" d="M.76 20.16q-4.157 0-7.462 2.354-3.105 2.254-3.105 4.608 0 2.203 3.105 3.806Q-3.597 32.48.76 32.48q4.357 0 7.462-1.552 3.055-1.603 3.055-3.806 0-2.354-3.055-4.608Q4.917 20.16.76 20.16"/><path fill="none" stroke="#1A344F" stroke-width="2.5" stroke-linecap="round" stroke-linejoin="round" d="M-26.485.829l13.472 3.455M26.653-.023L13.181 4.284"/><path fill="#1A344F" d="M-18.972 3.233q0-.952-.702-1.703-.701-.701-1.702-.701-.952 0-1.703.701-.701.751-.701 1.703 0 1.001.701 1.702.751.702 1.703.702 1.001 0 1.702-.702.702-.701.702-1.702M22.896 3.233q0-1.002-.701-1.703-.701-.701-1.652-.701-1.002 0-1.703.701-.701.701-.701 1.703 0 1.001.701 1.702.701.702 1.703.702.951 0 1.652-.702.701-.701.701-1.702"/></g><g transform="translate(158.25 69.5)"><animateTransform attributeName="transform" additive="replace" type="translate" repeatCount="indefinite" dur="2.875s" keyTimes="0;0.014;0.029;0.043;0.058;0.072;0.087;0.101;0.116;0.13;0.145;0.159;0.174;0.71;0.725;0.739;0.754;0.768;0.783;0.797;0.812;0.826;0.841;0.855;1" values="158.9,81.95;158.894,81.75;158.935,81.6;158.881,81.4;158.872,81.2;158.868,81;158.862,80.85;158.902,80.65;158.895,80.45;158.888,80.25;158.926,80.1;158.88,79.9;158.918,79.7;158.918,79.7;158.926,79.95;158.889,80.15;158.892,80.4;158.9,80.6;158.862,80.85;158.917,81.05;158.925,81.3;158.932,81.5;158.892,81.75;158.9,81.95;158.9,81.95" calcMode="discrete"/><animateTransform attributeName="transform" additive="sum" type="scale" repeatCount="indefinite" dur="2.875s" keyTimes="0;0.014;0.029;0.043;0.058;0.072;0.087;0.101;0.116;0.13;0.145;0.159;0.174;0.71;0.725;0.739;0.754;0.768;0.783;0.797;0.812;0.826;0.841;0.855;1" values="1,1;0.989,1;0.979,1;0.968,1;0.958,1;0.947,1;0.937,1;0.926,1;0.915,1;0.905,1;0.894,1;0.884,1;0.873,1;0.873,1;0.886,1;0.898,1;0.911,1;0.924,1;0.937,1;0.949,1;0.962,1;0.975,1;0.987,1;1,1;1,1" calcMode="discrete"/><animateTransform attributeName="transform" additive="sum" type="translate" repeatCount="indefinite" dur="2.875s" keyTimes="0;0.014;0.029;0.043;0.058;0.072;0.087;0.101;0.13;0.145;0.159;0.174;0.725;0.739;0.754;0.768;0.783;0.797;0.812;0.826;0.841;1" values="-0.65,-12.45;-0.6,-12.45;-0.7,-12.45;-0.6,-12.45;-0.65,-12.45;-0.6,-12.45;-0.6,-12.45;-0.65,-12.45;-0.65,-12.45;-0.7,-12.45;-0.6,-12.45;-0.65,-12.45;-0.65,-12.45;-0.6,-12.45;-0.65,-12.45;-0.65,-12.45;-0.6,-12.45;-0.65,-12.45;-0.65,-12.45;-0.7,-12.45;-0.65,-12.45;-0.65,-12.45" calcMode="discrete"/><use xlink:href="#a"/><use xlink:href="#a"/><path fill="#9B7253" d="M-37.706 21.931l14.524-18.48-30.2-3.455q-4.157 6.41-1.603 13.622 2.605 7.262 9.867 9.565.551.201 1.202.051l6.21-1.303"/><path fill="none" stroke="#1A344F" stroke-width="2.5" stroke-linecap="round" stroke-linejoin="round" d="M-45.118 23.183q.551.201 1.202.051l6.21-1.303m-7.412 1.252q-7.262-2.303-9.867-9.565-2.554-7.212 1.603-13.622l30.2 3.455"/><path fill="#9B7253" d="M-39.158 10.212q-2.304-.551-3.857 1.152-1.552 1.753-.801 3.957l10.717-3.656-6.059-1.453"/><path fill="none" stroke="#1A344F" stroke-width="2.5" stroke-linecap="round" stroke-linejoin="round" d="M-43.015 11.364q1.553-1.703 3.857-1.152l6.059 1.453m-9.916-.301q-1.552 1.753-.801 3.957"/><path fill="#9B7253" d="M46.983 23.234q.651.15 1.152-.051 7.262-2.303 9.866-9.565 2.605-7.212-1.552-13.622l-30.2 3.455 14.524 18.48 6.21 1.303"/><path fill="none" stroke="#1A344F" stroke-width="2.5" stroke-linecap="round" stroke-linejoin="round" d="M48.135 23.183q-.501.201-1.152.051l-6.21-1.303m7.362 1.252q7.262-2.303 9.866-9.565 2.605-7.212-1.552-13.622l-30.2 3.455"/><path fill="#9B7253" d="M46.883 15.321q.751-2.204-.801-3.957-1.603-1.703-3.857-1.152l-6.06 1.453 10.718 3.656"/><path fill="none" stroke="#1A344F" stroke-width="2.5" stroke-linecap="round" stroke-linejoin="round" d="M46.883 15.321q.751-2.204-.801-3.957-1.603-1.703-3.857-1.152l-6.06 1.453"/></g><g transform="translate(530.75 27.65)"><animateTransform attributeName="transform" additive="replace" type="translate" dur="2.875s" keyTimes="0;1" values="0,0;0,0" fill="freeze"/><animateTransform attributeName="transform" additive="sum" type="translate" repeatCount="indefinite" dur="2.875s" keyTimes="0;0.246;0.261;0.275;0.29;0.304;0.319;0.333;0.348;0.362;0.377;0.391;0.406;0.42;0.435;0.449;0.464;0.478;0.493;0.507;0.522;0.536;0.551;0.565;0.58;0.594;0.609;0.623;0.638;0.651;0.652;1" values="530.75,27.65;530.75,27.65;530.75,26.3;530.75,24.9;530.75,23.55;530.75,22.15;530.75,20.8;530.75,19.4;530.75,18.05;530.75,16.65;530.75,19.4;530.75,22.15;530.75,24.9;530.75,27.65;530.75,26.55;530.75,25.45;530.75,24.35;530.75,23.25;530.75,22.15;530.75,21.05;530.75,19.95;530.75,18.85;530.75,17.75;530.75,16.65;530.75,18.5;530.75,20.3;530.75,22.15;530.75,24;530.75,25.8;530.75,27.65;0;0" calcMode="discrete"/><animateTransform attributeName="transform" additive="sum" type="translate" repeatCount="indefinite" dur="2.875s" keyTimes="0;0.652;1" values="0;530.75,27.65;530.75,27.65" calcMode="discrete"/><path fill="#99C977" stroke="#1A344F" stroke-width="2.5" stroke-linecap="round" stroke-linejoin="round" d="M-10.497 25.569v12.07h21.085v-12.07q0-.451.351-.751.3-.351.751-.351h8.965q.701 0 .951-.651.301-.651-.2-1.152L.872.328Q.521-.023.071-.023q-.501 0-.802.351l-20.583 22.336q-.501.551-.201 1.152.301.651 1.002.651h8.915q.45 0 .801.351.3.3.3.751"/></g><g transform="translate(159.1 179.15)"><animateTransform attributeName="transform" additive="replace" type="translate" dur="2.875s" keyTimes="0;1" values="0,0;0,0" fill="freeze"/><animateTransform attributeName="transform" additive="sum" type="translate" repeatCount="indefinite" dur="2.875s" keyTimes="0;0.246;0.261;0.275;0.29;0.304;0.319;0.333;0.348;0.362;0.377;0.391;0.406;0.42;0.435;0.449;0.464;0.478;0.493;0.507;0.522;0.536;0.551;0.565;0.58;0.594;0.609;0.623;0.638;0.651;0.652;1" values="159.1,179.15;159.1,179.15;159.1,180.55;159.1,181.9;159.1,183.3;159.1,184.65;159.1,186.05;159.1,187.4;159.1,188.8;159.1,190.15;159.1,187.4;159.1,184.65;159.1,181.9;159.1,179.15;159.1,180.25;159.1,181.35;159.1,182.45;159.1,183.55;159.1,184.65;159.1,185.75;159.1,186.85;159.1,187.95;159.1,189.05;159.1,190.15;159.1,188.3;159.1,186.5;159.1,184.65;159.1,182.8;159.1,181;159.1,179.15;0;0" calcMode="discrete"/><animateTransform attributeName="transform" additive="sum" type="translate" repeatCount="indefinite" dur="2.875s" keyTimes="0;0.652;1" values="0;159.1,179.15;159.1,179.15" calcMode="discrete"/><path fill="#E66C6C" stroke="#1A344F" stroke-width="2.5" stroke-linecap="round" stroke-linejoin="round" d="M.911 38.487L22.096 15.45q.5-.501.2-1.202-.301-.651-1.002-.651h-9.215q-.501 0-.801-.301-.351-.35-.351-.801V.024h-21.736v12.471q0 .451-.3.801-.351.301-.801.301h-9.216q-.751 0-1.051.651-.301.651.2 1.202L-.742 38.487q.351.401.851.401.451 0 .802-.401"/></g></g></svg>