<svg xmlns:xlink="http://www.w3.org/1999/xlink" xmlns="http://www.w3.org/2000/svg" baseProfile="basic" width="695" height="460" viewBox="0 0 695 460" preserveAspectRatio="xMinYMin meet"><defs><symbol id="a" overflow="visible"><path fill="#8F8156" fill-opacity=".4" d="M43.9-87.1q-1.6-1.6-4-1.6h-84q-2.3 0-4 1.6-1.7 1.7-1.7 4v50q0 2.3 1.7 4 1.7 1.7 4 1.7h35.3L2.2 0l2.4-27.5h35.3q2.4 0 4-1.7 1.7-1.7 1.7-4v-50q0-2.3-1.7-4"/></symbol><symbol id="b" overflow="visible"><path fill="#FFF" stroke="#1A344F" stroke-width="2.5" stroke-linecap="round" stroke-linejoin="round" d="M-43.8-91.7q-1.6 1.7-1.6 4v49.9q0 2.4 1.6 4 1.7 1.7 4 1.7h35.3L2.3-4.5 9-32.1h35.3q2.3 0 4-1.6 1.6-1.7 1.6-4.1v-49.9q0-2.3-1.6-4t-4-1.6h-84q-2.4 0-4.1 1.6"/></symbol><symbol id="c" overflow="visible"><path fill="none" stroke="#1A344F" stroke-width="2.5" stroke-linecap="round" stroke-linejoin="round" d="M-25.7-75.4h55"/></symbol><symbol id="d" overflow="visible"><path fill="none" stroke="#1A344F" stroke-width="2.5" stroke-linecap="round" stroke-linejoin="round" d="M-25.7-63.7h55"/></symbol><symbol id="e" overflow="visible"><path fill="none" stroke="#1A344F" stroke-width="2.5" stroke-linecap="round" stroke-linejoin="round" d="M-25.7-52h36.8"/></symbol><symbol id="f" overflow="visible"><use xlink:href="#a"/><use xlink:href="#b"/><use xlink:href="#c"/><use xlink:href="#d"/><use xlink:href="#e"/></symbol></defs><g overflow="visible"><path fill="#FFF" d="M692.6 460.6V0H0v460.6h692.6"/><path fill="#7AC7EE" d="M472.8 141.2Q427.4 96 363.4 96t-109.3 45.2Q209 186.5 209 250.5v2.4q.9 62.4 45.3 106.8Q299.4 405 363.4 405t109.3-45.3Q517 315.3 518 252.9v-2.5q0-64-45.3-109.2"/><path fill="#F3E9C4" d="M479.5 130.7q-22.9-23-52.6-35.5-30.8-13-64.5-13t-64.4 13q-29.7 12.5-52.6 35.5-23 22.9-35.5 52.6-13 30.7-13 64.4t13 64.5q12.6 29.6 35.5 52.5 22.9 23 52.6 35.6 30.8 13 64.5 13t64.4-13q29.7-12.6 52.6-35.6l3.2-3.2q20.6-21.7 32.3-49.4 3-7 5.3-14.1 7.7-24.3 7.7-50.3 0-33.7-13-64.5-12.6-29.6-35.5-52.5m-85.2-10q-2.8 0-8.5.7l-3 .3q-8.8.4-15.6 4.5-6.7 4.1-13.5 13.1-2.4 2.9-1.4 5.5.7 2 3.7 2.9l-.7.5q-1.1 1-1 2.5l.4 2.3q.1 1.5-.3 2.3-.2.4-1.2.9-1.1.5-1.4 1-1.3 1.6-2.1 2.2-1.1 1-2.8 1.3l-2.2.3q-1.6.1-2.3.3-3.5.5-7.4 3.1-2.4 1.7-3 3.4-.6 2.2 1.6 5.9l-2.2-.1-2.3-.3q-3.5-.3-4.6 0-2.1.3-4.5 2.1-2 1.5-3.6 3.5-3.1 4-2.3 7.6.6 2.8 3 4.8 3.9 3.1 11.2 3.4l-1.3.3q-6.6 1.6-9 2.6-4.7 2.1-7 6l-2.2 4.5q-1.4 2.8-2.7 4.4-4.8 6-6.5 10.1-1.8 4.4-2.3 12.1l-.3 4.1q-.5 12 1.9 18.9 3.6 10.1 14.2 15.7 2.5 1.2 5.3 1.2 2.7 0 7.1-1.3 3.3-.8 4.9-1 9.8-1 12-.9 7.2.1 11.4 3.1 2.3 1.7 3.9 4.5l2.4 5.4q.9 2 4.3 7 3 4.5 3.8 7.2 1 2.9.8 7.2-.1 2.6-1 7.9-1.2 8-1 11.9.3 4.1 1.7 7.7.8 2.2 3 6.2l2.5 4.5q.9 1.8 1.7 4.9.9 3.4 2.5 4.8 1.8 1.5 5.8 1.5h2q11.8-1.3 21-9.3 7.7-6.8 11.7-16.4.8-2 2.1-3.4.9-.9 2.7-2.2 1.9-1.4 2.9-2.4l-.8 2.3q-1.2 3.3-1.6 5.1-.6 3.2.3 5.2.9 2 3.1 2.9l1.4.2q2 0 4.4-1.8 1.7-1.3 4-4 1-1.1 2.3-4.1l.6-1.4q.8-1.8 3.5-5.1 1.4-1.6 2.3-2.9 2.8-4.2 2.1-7.1-.5-1.7-2-2.3-1.4-.8-3.3-.5-1.9.2-3.5 1.3-1.3 1-2.3 2.4-1.6 0-3.3.7-2 .6-3.6 2.3.4-2 .4-4.4l-.2-4.4q-.4-6.2.5-8.8 1.4-3.9 4.8-7.8 2-2.5 6.9-7.1 5.9-5.6 8.4-8.8 4.2-5.2 5.8-10.7.4-1.6 4.5-7l.3-.3q3.4-4.4 12.4-11.2 2.6-1.6 1.8-2.8-.4-.4 3.5-.4 3.2 0-.4-6.8l-5-8.2q1.3.4.9-2-.6-2.7.7-2.5 3.7.5 5.2.9 2.6.6 3.9 1.8 1.9 1.9 3.3 7 .8 3 2 9.9 1.6 9.8 3 13.7 2.5 6.4 7.3 7.8 1 .3 2 0 1-.5 1.5-1.4 1.8-3.4 1.8-7.9 0-2.8-1-8.3-.6-4-.7-5.9-.3-3.2.2-5.3 1.4-5 2.7-6.5v.1q1.5 10.4 1.5 20.3 0 16.3-3.6 32.5-2.8 1.6-2.3 10 .2 5-.3 7.8-.4 2-1.1 2.7-3 2.8-6.6 7.3l-5.9 7.1q-7 8.1-15.3 11-3.4 1.3-4.2 1.9-1.9 1.1-3.3 3.5-.9 1.5-2 4.2l-.3.4-2.5 6.3-2 5.2v.2q-1.3 3-1.7 4.7-.6 3.2.6 5.2l.1.1q-2.2 2-4.4 3.7-18.1 14.6-39.9 22.7-24.6 9.2-51 9.2-25.6 0-49.4-8.5-23.6-8.5-43.2-24.6l.1-1.6q.1-3.9-.1-5.4-.3-1.5 13.1-3.5 4.8-.8 15-2 13-1.4 3.4-5-11.9-3.4-11-3.5 17.5.5 18.6-.8 1.2-1.3-18.6.8-3-.1-10.4-1.5-9-1.7-8.5-3.1.7-2.2.2-4.5-.3-1.3-1.5-3.7-1-2-1.2-2.7-.7-2-.2-4.7.3-1.6 1.5-4.8 1.6-4.6 1.8-7 .3-4.1-2.2-7.5-1.6-2.2-4.7-4-1.9-1-5.5-2.5l-6.1-2.6q-2-1-3.7-2.7l-3-3.7-.2-.4q-3.3-4.5-8.2-9.2-3.2-3-9.3-8l-6.1-5.3-.7-.6q-3.5-3.1-5.4-4.4l-.2-8.7q0-32.8 13.8-62 5.4-3.5 15.6-6.5 11.6-3.5 16-5.7 2.9-1.4 6-4.2l5.6-5 5-4.7q2.9-2.7 4.8-4.8 8.8-9.8 4-22.5-1.6-4.5-3.6-7.4 17.4-11.2 37.3-17 20-5.9 41.2-5.9 19.7 0 38.5 5.1 18.6 5.1 35.3 14.9l-1 .5h-.3q-3.1 0-10.7 2.6-7 2.4-9.4 4-3.4 2.2-5.3 3.1-2.7 1.3-4.6 1.4 2.2-1.3 3-2.2 1.4-1.5 1.2-3.3-.1-2-2.1-3.5-1.8-1.3-5.3-2.7-3-1.2-7.5-1.2M474 244.2q-9 6.8-12.4 11.2 3-4.2 2.2-5.3l10.2-5.9m-90.4-106.6q-.2 1.8 0 2.7.2 1.4 1.1 2.4l.4.3 1.2.8q-1.4.3-2.8 1.1-2.5 1.3-4.3 2-3.2 1.4-4.8 1.6-.5-2.3 3.1-7.9l4-5.7q1 .4 2.1 1.3v1.4"/><path fill="#F3E9C4" d="M401.9 122q3.5 1.3 5.2 2.6 2 1.6 2.1 3.5.1 1.9-1.1 3.3-.9.9-3 2.2 1.8 0 4.4-1.3 2-1 5.4-3.2 2.4-1.5 9.4-4 7.6-2.5 10.7-2.5h.3l1-.6q-16.7-9.8-35.4-14.9t-38.4-5.1q-21.2 0-41.2 5.9-19.9 5.8-37.4 17 2 2.9 3.8 7.5 4.7 12.6-4.2 22.4-1.8 2.1-4.8 4.8l-5 4.7q-4.8 4.5-5.5 5-3.2 2.8-6 4.3-4.4 2.2-16 5.6-10.3 3-15.7 6.5-13.8 29.2-13.8 62 0 4 .3 8.7 1.8 1.3 5.4 4.5l.7.6 6 5.2q6.2 5 9.3 8 5 4.8 8.3 9.3l.2.3 3 3.7q1.6 1.8 3.6 2.7l6.2 2.6q3.6 1.5 5.5 2.6 3.1 1.8 4.7 4 2.5 3.3 2.2 7.4-.2 2.4-1.8 7-1.2 3.3-1.5 4.9-.5 2.6.2 4.6.2.8 1.1 2.8 1.2 2.4 1.5 3.7.6 2.3-.2 4.4-.5 1.5 8.5 3.2 7.5 1.3 10.5 1.4-.9.1 11 3.5 9.5 3.6-3.4 5l-15 2q-13.4 2-13.1 3.5.2 1.6.1 5.4v1.6q19.5 16.1 43.1 24.6 23.8 8.5 49.3 8.5 26.5 0 51.1-9.1 21.8-8.2 40-22.8l4.3-3.6-.1-.2q-1.2-2-.6-5.1.4-1.7 1.6-4.8l.1-.2 2-5.2 2.5-6.2.2-.5q1.2-2.7 2.1-4.2 1.4-2.3 3.3-3.5.8-.5 4.2-1.8 8.3-3 15.3-11l5.8-7.2q3.7-4.5 6.6-7.3.8-.7 1.2-2.7.5-2.7.2-7.8-.5-8.3 2.3-10 3.6-16.1 3.6-32.5 0-9.9-1.4-20.3-1.4 1.4-2.8 6.4-.5 2.2-.2 5.4l.8 5.9q1 5.4 1 8.2 0 4.6-1.8 7.9-.5.9-1.5 1.4-1 .4-2 0-4.8-1.4-7.3-7.8-1.4-3.8-3-13.7-1.2-6.9-2-10-1.4-5-3.4-7-1.2-1.1-3.8-1.7-1.5-.4-5.2-.9-1.3-.1-.8 2.5.5 2.4-.8 2l5 8.3q3.5 6.8.4 6.8-3.9 0-3.6.4 1 1.1-1.7 2.7l-10.2 5.9q.9 1-2.3 5.3l-.2.3q-4 5.4-4.6 7-1.5 5.5-5.7 10.8-2.5 3.1-8.4 8.7-4.9 4.6-6.9 7-3.4 4-4.9 7.9-.8 2.6-.4 8.8l.1 4.4q0 2.5-.4 4.4 1.6-1.7 3.6-2.3 1.8-.7 3.4-.7 1-1.4 2.3-2.4 1.6-1.1 3.5-1.3t3.3.5q1.5.6 2 2.3.7 2.9-2.2 7.1-.8 1.3-2.3 2.9-2.7 3.3-3.5 5l-.5 1.5q-1.3 3-2.3 4.1-2.3 2.7-4 4-2.4 1.8-4.4 1.8l-1.4-.2q-2.3-.8-3.2-2.9-.9-2-.3-5.2.4-1.8 1.7-5.1l.8-2.3q-1 1-2.9 2.4-1.8 1.3-2.7 2.2-1.3 1.4-2.1 3.4-4 9.6-11.8 16.4-9.2 8-21 9.3h-2q-4 0-5.8-1.5-1.5-1.4-2.4-4.8-.8-3.1-1.7-4.9l-2.5-4.5q-2.2-4-3-6.2-1.5-3.6-1.7-7.7-.3-3.8 1-11.9.8-5.3 1-8 .2-4.2-.9-7.1-.7-2.7-3.8-7.1-3.4-5-4.3-7.1l-2.4-5.4q-1.5-2.8-3.8-4.5-4.2-3-11.4-3.1-2.2 0-12 .9-1.7.2-4.9 1-4.4 1.3-7.1 1.3-2.9 0-5.3-1.2-10.7-5.6-14.2-15.7-2.5-7-2-18.9.3-2 .3-4.1.5-7.7 2.4-12.1 1.6-4 6.5-10.1 1.2-1.6 2.6-4.3l2.3-4.6q2.3-3.9 7-6 2.3-1 9-2.6l1.2-.3q-7.3-.2-11-3.3-2.5-2-3.1-4.8-.9-3.7 2.2-7.6 1.6-2 3.7-3.6 2.4-1.8 4.5-2.1 1.1-.2 4.6 0l2.2.3q1.4.2 2.2.1-2.1-3.7-1.5-5.9.6-1.7 3-3.3 3.9-2.6 7.4-3.2l2.2-.3 2.2-.3q1.7-.3 2.9-1.2.8-.7 2-2.3.4-.5 1.4-1 1-.4 1.3-1 .4-.7.2-2.2l-.3-2.2q-.1-1.5 1-2.6l.7-.5q-3-.9-3.8-3-.9-2.5 1.5-5.4 6.8-9 13.5-13 6.8-4.1 15.5-4.5l3.1-.4q5.7-.7 8.5-.7 4.5 0 7.5 1.3m-7.5-1.3q-2.8 0-8.5.7l-3 .4q-8.8.4-15.6 4.5-6.7 4-13.5 13-2.4 2.9-1.5 5.5.8 2 3.8 2.9l-.7.5q-1.1 1-1 2.6l.3 2.2q.2 1.5-.2 2.3-.3.5-1.3.9-1 .5-1.4 1-1.2 1.6-2 2.3-1.2.9-2.9 1.2l-2.2.3-2.2.3q-3.5.6-7.4 3.2-2.4 1.6-3 3.3-.6 2.2 1.5 5.9l-2.2-.1-2.2-.3q-3.5-.2-4.6 0-2.1.3-4.5 2.1-2 1.6-3.7 3.6-3 3.9-2.2 7.6.6 2.8 3 4.8 3.8 3 11.1 3.3l-1.2.3q-6.7 1.7-9 2.7-4.7 2-7 5.9l-2.3 4.6q-1.4 2.7-2.6 4.3-4.9 6-6.5 10.1-1.9 4.4-2.4 12.1 0 2.2-.3 4.1-.5 12 2 18.9 3.5 10.1 14.2 15.7 2.4 1.2 5.3 1.2 2.7 0 7.1-1.2 3.2-1 4.8-1.1 9.9-1 12.1-.9 7.2.1 11.4 3.1 2.3 1.7 3.8 4.5l2.4 5.4q1 2 4.3 7 3.1 4.5 3.8 7.2 1.1 2.9.9 7.2-.2 2.6-1 7.9-1.3 8-1 11.9.2 4.1 1.6 7.7.9 2.2 3.1 6.2l2.5 4.5q.9 1.8 1.7 4.9.9 3.4 2.4 4.8 1.8 1.5 5.8 1.5h2q11.8-1.3 21-9.3 7.8-6.8 11.8-16.4.8-2 2.1-3.4.9-.9 2.7-2.2 1.9-1.4 2.9-2.4l-.8 2.3q-1.3 3.3-1.7 5.1-.6 3.2.3 5.2 1 2 3.2 2.9l1.4.2q2 0 4.4-1.8 1.7-1.3 4-4 1-1.1 2.3-4.1l.5-1.4q.8-1.8 3.5-5.1 1.5-1.6 2.3-2.9 2.9-4.2 2.2-7.1-.5-1.7-2-2.3-1.4-.8-3.3-.5-1.9.2-3.5 1.3-1.4 1-2.3 2.4-1.6 0-3.4.7-2 .6-3.6 2.3.4-2 .4-4.4l-.1-4.4q-.4-6.2.4-8.8 1.5-3.8 4.9-7.8 2-2.5 6.9-7.1 5.9-5.6 8.4-8.7 4.2-5.3 5.7-10.8.5-1.6 4.6-7l.2-.3q3.5-4.4 12.5-11.2 2.6-1.6 1.7-2.7-.3-.4 3.6-.4 3.1 0-.5-6.8L474 226q1.3.3.8-2.1-.5-2.6.8-2.5 3.7.5 5.2.9 2.6.6 3.8 1.8 2 1.9 3.4 7 .8 3 2 9.9 1.6 9.9 3 13.7 2.5 6.4 7.3 7.9 1 .3 2-.1 1-.5 1.5-1.4 1.7-3.3 1.7-7.9 0-2.8-.9-8.2l-.8-6q-.3-3.1.2-5.3 1.4-5 2.7-6.4h.1q1.4 10.4 1.4 20.3 0 16.4-3.6 32.5-2.8 1.7-2.3 10 .3 5-.2 7.8-.4 2-1.2 2.7-2.9 2.8-6.6 7.3l-5.8 7.2q-7 8-15.3 11-3.4 1.3-4.2 1.8-1.9 1.2-3.3 3.5-.9 1.5-2 4.2l-.3.5-2.5 6.2-2 5.2v.2q-1.3 3-1.7 4.8-.6 3.1.6 5.1l.1.2-4.4 3.6q-18.1 14.6-39.9 22.8-24.6 9.1-51 9.1-25.6 0-49.4-8.5-23.6-8.5-43.2-24.6l.1-1.6q.1-3.9-.1-5.3-.3-1.6 13.1-3.6 4.8-.8 15-2 13-1.4 3.4-5-11.9-3.4-11-3.5 17.5.5 18.6-.8 1.1-1.3-18.6.8-3-.1-10.5-1.5-9-1.7-8.5-3.1.8-2.1.2-4.5-.3-1.2-1.5-3.6-.9-2-1.1-2.8-.7-2-.2-4.7.3-1.5 1.5-4.8 1.6-4.6 1.8-7 .3-4.1-2.2-7.5-1.6-2.1-4.7-4-1.9-1-5.5-2.5l-6.2-2.6q-2-1-3.7-2.7-1-1.1-2.9-3.7l-.2-.3q-3.3-4.6-8.3-9.3-3.1-3-9.3-8l-6-5.3-.7-.5q-3.6-3.2-5.4-4.5-.3-4.8-.3-8.7 0-32.8 13.8-62 5.4-3.5 15.7-6.5 11.6-3.5 16-5.7 2.8-1.4 6-4.2.7-.5 5.5-5l5-4.7q3-2.7 4.8-4.8 8.9-9.8 4.1-22.5-1.7-4.5-3.7-7.4 17.5-11.2 37.4-17 20-5.9 41.1-5.9 19.7 0 38.5 5.1 18.7 5.1 35.3 14.9l-.9.6h-.3q-3.1 0-10.7 2.6-7 2.3-9.4 3.9-3.4 2.2-5.3 3.1-2.7 1.4-4.6 1.4 2.2-1.3 3-2.2 1.4-1.4 1.2-3.3-.1-2-2.1-3.5-1.8-1.3-5.3-2.6-3-1.3-7.5-1.3"/><path fill="#F3E9C4" d="M290.4 339.3q17.5.6 18.6-.8 1.1-1.2-18.6.8"/><path fill="none" stroke="#1A344F" stroke-width="2.5" stroke-linecap="round" stroke-linejoin="round" d="M479.5 130.7q-22.9-23-52.6-35.5-30.8-13-64.5-13t-64.4 13q-29.7 12.5-52.6 35.5-23 22.9-35.5 52.6-13 30.7-13 64.4t13 64.5q12.6 29.6 35.5 52.5 22.9 23 52.6 35.6 30.8 13 64.5 13t64.4-13q29.7-12.6 52.6-35.6l3.2-3.2q20.6-21.7 32.3-49.4 3-7 5.3-14.1 7.7-24.3 7.7-50.3 0-33.7-13-64.5-12.6-29.6-35.5-52.5"/><path fill="none" stroke="#1A344F" stroke-width="2.5" stroke-linecap="round" stroke-linejoin="round" d="M407 124.6q-1.6-1.3-5.1-2.6m7.3 6.1q-.1-2-2.1-3.5m1 6.8q1.3-1.4 1.1-3.3m-4.1 5.5q2.1-1.3 3-2.2m1.5.8q-2.7 1.4-4.5 1.4m9.8-4.5q-3.4 2.2-5.3 3.1m14.7-7q-7 2.4-9.4 3.9m20.1-6.5q-3.1 0-10.7 2.6m11-2.7h-.3m1.3-.5l-1 .6M401 107q18.6 5.1 35.3 14.9m-73.8-20q19.7 0 38.5 5.1m-79.7.8q20-5.9 41.2-5.9M284 124.9q17.4-11.2 37.3-17m-33.6 24.5q-1.7-4.6-3.7-7.5m-.4 29.9q8.8-9.8 4-22.4m-8.8 27.3q2.9-2.8 4.8-4.9m-9.8 9.5l5-4.6m-10.5 9.7l5.5-5.1m-11.6 9.3q2.9-1.5 6-4.2m-22 9.8q11.6-3.4 16-5.6m-31.6 12.1q5.4-3.5 15.6-6.5m-29.4 68.5q0-32.8 13.8-62M217 256.4q-.3-4.8-.3-8.7m5.7 13.2q-3.5-3.2-5.4-4.5m6.1 5l-.7-.5m6.8 5.7q-4.9-4-6.1-5.2m15.3 13.4q-3.1-3-9.3-8.2m17.6 17.3q-3.3-4.4-8.3-9.1m8.5 9.5l-.2-.3m3.1 4q-1-1.1-2.9-3.7m6.7 6.4q-2-1-3.7-2.7m9.8 5.3l-6.1-2.6m11.6 5.2q-1.9-1.2-5.5-2.6m10.2 6.5q-1.6-2.2-4.7-4m6.9 11.5q.3-4.1-2.2-7.5m.4 14.5q1.6-4.6 1.8-7m-3.3 11.8q.3-1.6 1.5-4.8m-1.3 9.5q-.7-2-.2-4.7m1.4 7.4q-1-2-1.2-2.7m2.7 6.4q-.3-1.3-1.5-3.7m1.3 8.2q.7-2.2.2-4.5m8.3 7.6q-9-1.7-8.5-3.1m18.9 4.6q-3-.1-10.4-1.4m21.4 4.9q-11.9-3.4-11-3.5m7.7 8.6q12.8-1.4 3.3-5.1m-18.4 7q4.8-.8 15-2m-28.1 5.6q-.3-1.6 13.1-3.6m-13 8.9q.2-3.9-.1-5.3m0 6.9l.2-1.6m43 26.2q-23.6-8.5-43.1-24.6m92.5 33.1q-25.6 0-49.3-8.5m100.3-.7q-24.5 9.2-51 9.2m91-31.9q-18.2 14.6-40 22.7m44.3-26.4q-2.2 2-4.4 3.7m4.3-3.8l.1.1m-.6-5.3q-.6 3.2.5 5.2m1-9.9q-1.2 3-1.5 4.7m1.6-4.9v.2m2-5.4l-2 5.2m4.6-11.5l-2.5 6.3m2.7-6.7l-.2.4m2.2-4.6q-.9 1.5-2 4.2m5.3-7.7q-1.8 1.1-3.3 3.5m7.6-5.4q-3.4 1.3-4.3 1.9m19.5-12.9q-7 8.1-15.2 11m21-18.1l-5.8 7.1m12.5-14.4q-3 2.8-6.6 7.3m7.7-10q-.4 2-1.1 2.7m1.4-10.5q.2 5-.3 7.8m2.5-17.8q-2.8 1.6-2.3 10m6-42.5q0 16.3-3.7 32.5m2.2-52.8q1.4 10.4 1.4 20.3m-1.5-20.4l.1.1m-2.8 6.4q1.4-5 2.7-6.5m-2.9 11.8q-.3-3.2.2-5.3m.6 11.2l-.8-5.9m1.7 14.2q0-2.8-.9-8.3m-.8 16.2q1.7-3.4 1.7-7.9m-3.2 9.2q1-.4 1.5-1.3m-3.5 1.4q1 .3 2 0m-9.3-7.8q2.5 6.4 7.3 7.8m-10.4-21.5q1.7 9.8 3.1 13.7m-5-23.7q.8 3.1 2 10m-5.4-17q2 2 3.4 7m-7.2-8.7q2.6.6 3.8 1.7m-9-2.6q3.7.5 5.2.9m-6 1.5q-.5-2.6.8-2.4m-1.6 4.5q1.3.4.8-2m4.1 10.2L474 226m5.4 15q3.1 0-.5-6.8m-3 7.2q-.4-.4 3.5-.4m-5.3 3.2q2.6-1.6 1.7-2.8m-14.4 14.3l.2-.3m-4.8 7.2q.5-1.5 4.6-6.9M451 273.5q4.2-5.3 5.8-10.9m-14.2 19.6q5.9-5.6 8.4-8.8m-15.3 15.9q2-2.5 6.9-7.1m-11.8 14.9q1.5-3.9 4.9-7.9m-5.3 16.7q-.4-6.2.5-8.8m-.4 13.1l-.1-4.3m-.3 8.8q.4-2 .4-4.5m3.2 2.1q-2 .7-3.6 2.4m7-3q-1.6 0-3.4.6m5.7-3q-1.4 1-2.3 2.4m5.8-3.8q-1.9.3-3.5 1.4m6.8-.9q-1.4-.7-3.3-.5m5.3 2.9q-.5-1.7-2-2.4m-.2 9.5q2.9-4.3 2.2-7.1m-4.5 10q1.5-1.7 2.3-2.9m-5.8 8q.8-1.9 3.5-5.2m-4 6.5l.5-1.4m-2.8 5.6q1-1.1 2.3-4.2m-6.3 8.2q1.7-1.4 4-4m-8.4 5.8q2 0 4.4-1.8m-5.8 1.5q.7.3 1.4.3m-4.6-3.1q1 2 3.2 2.8m-3.5-8q-.6 3.1.3 5.2m1.4-10.4q-1.3 3.4-1.7 5.2m2.5-7.4l-.8 2.2m-2.1.2q1.9-1.4 2.9-2.4m-5.6 4.6q.9-.9 2.7-2.2m-4.8 5.5q.8-1.9 2.1-3.3m-13.9 19.7q7.8-6.8 11.8-16.4m-32.8 25.7q11.8-1.2 21-9.3m-23 9.4h2m-7.8-1.6q1.8 1.6 5.8 1.6m-8.2-6.4q.9 3.5 2.4 4.8m-4.1-9.6q.9 1.8 1.7 4.8m-4.2-9.3l2.5 4.5m-5.5-10.7q.8 2.2 3 6.2m-4.7-14q.3 4.2 1.6 7.8m-.6-19.6q-1.3 8-1 11.8m2-19.7q-.1 2.6-1 7.9m.1-15.2q1.1 3 .9 7.3m-4.7-14.4q3.1 4.5 3.9 7.2m-8.1-14.3q.8 2.2 4.2 7.2m-6.6-12.5l2.4 5.4m-6.3-9.9q2.3 1.6 3.9 4.5m-15.3-7.6q7.2.1 11.4 3.1m-23.4-2.2q9.8-1 12-.9m-16.9 2q3.3-1 4.9-1.1m-12 2.3q2.7 0 7.1-1.3m-12.4 0q2.5 1.3 5.3 1.3m-19.5-17q3.6 10.2 14.2 15.8M297 238.8q-.5 12 1.9 18.9m-1.6-23l-.3 4.1m2.6-16.2q-1.8 4.4-2.3 12.1m8.8-22.2q-4.8 6-6.5 10.1m9.2-14.4q-1.4 2.7-2.7 4.3m5-8.9l-2.3 4.6m9.2-10.5q-4.7 2-7 5.9m16-8.6q-6.7 1.6-9 2.6m10.3-2.9l-1.3.3m-9.8-3.6q3.7 3 11 3.3m-14.1-8.1q.6 2.8 3 4.8m-.7-12.4q-3.1 3.9-2.3 7.6m5.9-11.2q-2 1.6-3.6 3.5m8.1-5.6q-2.1.3-4.5 2.1m9.1-2.1q-3.5-.2-4.6 0m6.8.3l-2.2-.3m4.5.4l-2.3-.1m.8-5.8q-.7 2.2 1.4 5.9m1.5-9.2q-2.4 1.6-3 3.3m10.4-6.5q-3.5.6-7.4 3.2m9.7-3.5l-2.3.3m4.5-.6l-2.2.3m5-1.5q-1.1.9-2.8 1.2m4.9-3.5q-1.3 1.6-2.1 2.3m3.5-3.3q-1.1.5-1.5 1m2.7-2q-.3.6-1.3 1m1.5-3.2q.2 1.5-.2 2.3m0-4.6l.2 2.3m.7-4.8q-1.1 1-1 2.5m1.7-3l-.7.5m-3-3.5q.7 2.1 3.7 3m-2.3-8.4q-2.4 2.9-1.5 5.4m15-18.5q-6.7 4.1-13.5 13.1m29-17.6q-8.7.4-15.5 4.5m18.6-4.8l-3 .3m11.5-1q-2.8 0-8.5.7m16 .5q-3-1.2-7.5-1.2"/><path fill="none" stroke="#1A344F" stroke-width="2.5" stroke-linecap="round" stroke-linejoin="round" d="M474 244.2q-9 6.8-12.4 11.2M309 338.6q-1.1 1.2-18.6.7 19.8-2 18.6-.8m74.6-200.9q-.2 1.8 0 2.7.2 1.4 1.1 2.4l.4.3 1.2.8q-1.4.3-2.8 1.1-2.5 1.3-4.3 2-3.2 1.4-4.8 1.6-.5-2.3 3.1-7.9l4-5.7q1 .4 2.1 1.3v1.4"/><path fill="#8F8156" fill-opacity=".4" d="M468.3 373.9l13.2-10q4-3 5-3.4-97.7-4-156.7-41.8-47.3-30.3-67.8-80.7-14.6-36-14.3-78.5.1-21.2 3.2-35.2-25.8 25-39.7 59.8-14.2 35.3-12.8 72.3 1.3 39.3 20.2 72.9 20.7 36.7 59.8 61.7 67.5 43.2 143.9 9.8 22.7-9.9 46-26.9"/><path fill="#908871" fill-opacity=".4" d="M451.3 299.6q-1.4-1.4-3.3-1.4H266q-1.8 0-3.1 1.4t-1.4 3.2v70.7q0 1.9 1.4 3.2 1.3 1.3 3.2 1.3h182q1.8 0 3.2-1.3 1.3-1.3 1.3-3.2v-70.7q0-1.9-1.3-3.2"/><path fill="#FFF" stroke="#1A344F" stroke-width="2.5" stroke-linecap="round" stroke-linejoin="round" d="M458 293q-1.3-1.3-3.2-1.3h-182q-1.9 0-3.2 1.3-1.3 1.4-1.3 3.2v70.7q0 1.9 1.3 3.2 1.3 1.3 3.2 1.3h182q1.9 0 3.2-1.3 1.4-1.3 1.4-3.2v-70.7q0-1.8-1.4-3.2"/><path fill="#1A344F" d="M320.8 305.6q-1.6-.4-3.1-.4-3.4 0-5.3 1.6-2 1.6-2 4.5 0 1.4.6 2.6.6 1.1 1.6 1.9 1 .9 2.9 1.8l2.8 1.4q.6.4 1 1t.4 1q0 1.1-.8 1.8-.8.5-2.3.5-1.3 0-2.7-.3l-3.7-1.4v4.2q2.7 1.3 6 1.3 3.7 0 5.8-1.7 2-1.6 2-4.5 0-2.1-1-3.5-1.2-1.5-4.1-3-2.1-.9-2.9-1.4-.6-.4-.9-.9l-.2-1q0-1 .7-1.6.6-.5 1.9-.5 1.3 0 2.2.2l2.8 1 1.5-3.5q-2-.8-3.2-1.1m16.7-.4q-5 0-7.6 2.8-2.6 2.7-2.6 8t2.6 8.2q2.7 2.9 7.6 2.9t7.5-2.9q2.6-2.8 2.6-8.1T345 308q-2.6-2.8-7.5-2.8m-4.1 5.5q1.4-1.8 4-1.8 5.5 0 5.5 7.2t-5.4 7.2q-2.7 0-4.1-1.8-1.3-1.8-1.3-5.4 0-3.6 1.3-5.4m24 .2q1.3-2 4-2 1.3 0 2.3.5l2.4 1 1.5-3.7q-3.1-1.5-6.2-1.5t-5.3 1.3q-2.3 1.4-3.5 3.9-1.2 2.5-1.2 5.8 0 5.3 2.4 8 2.5 2.9 7.1 2.9 3.3 0 5.9-1.1v-3.8q-3.2 1.1-5.4 1.1-5.4 0-5.4-7.1 0-3.5 1.4-5.3m18.8-5.4h-4.6v21.3h4.6v-21.3m16-.1h-5.5l-7.5 21.4h4.8l1.6-5.1h7.7l1.6 5h4.8l-7.5-21.3m0 12.5h-5.5l2.8-9.2 2.8 9.2m15-12.4h-4.6v21.3h13.2V323h-8.6v-17.6m-112.4 29.4v3.8h5.7v17.5h4.5v-17.5h5.8v-3.8h-16m34.3 6.4q0-3.2-2.1-4.8-2-1.6-6.4-1.6h-6.2v21.3h4.5V348h2.4l5.1 8.2h5l-6.2-9.3q1.9-.8 2.9-2.3 1-1.5 1-3.3m-4.5 0q0 1.7-1.1 2.3-.9.7-3.1.7H319v-5.7h1.4q2 0 3.2.6 1 .7 1 2.2m23 14.8h4.8l-7.5-21.4h-5.5l-7.5 21.4h4.8l1.6-5.1h7.7l1.6 5m-2.7-8.8h-5.5q2.2-7.1 2.7-9.2l2.8 9.2m25.3-9.7q-3-2.7-8.1-2.7h-6.7v21.3h6q5.6 0 8.7-2.8 3-2.8 3-8.1 0-4.9-2.9-7.7m-8.3 14.9h-2v-14h2.4q6 0 6 7t-6.4 7m20.4 3.7v-21.3h-4.5v21.3h4.5m24.6-21.3h-4.1v10l.3 5.9h-.1l-9.3-16H388v21.4h4v-10l-.2-6.1h.1l9.3 16h5.7V335m17.8 13v4.5q-1.4.3-2.9.3-2.7 0-4.1-1.8-1.4-1.9-1.4-5.3 0-3.3 1.7-5.3 1.9-2 4.7-2 2.6 0 4.9 1.2l1.5-3.6q-3.1-1.3-6.3-1.3-5.2 0-8.2 2.9-3 2.9-3 8 0 5.4 2.6 8.1 2.5 2.9 7.3 2.9 1.7 0 3.7-.3t3.9-1v-11h-8.4v3.8h4"/><path fill="#4E95B5" d="M301.2 431.1H426v-43.7H301.2v43.7"/><path fill="none" stroke="#354D60" stroke-width="2.5" stroke-linecap="round" stroke-linejoin="round" d="M301.2 431.1H426v-43.7H301.2v43.7"/><path fill="#FFF" d="M331.7 409.4v-6h5.1v-2.7h-8.1v19.6h3v-8.1h4v-2.8h-4m6.6-4v10.2q0 2.4 1.3 3.7 1.2 1.2 3.4 1.2 2.3 0 3.5-1.2 1.2-1.3 1.2-3.7v-10.2q0-2.4-1.2-3.7-1.2-1.3-3.5-1.3-2.2 0-3.4 1.3-1.3 1.3-1.3 3.7m3.1-.2q0-2 1.6-2t1.6 2v10.6q0 1.9-1.6 1.9t-1.6-1.9v-10.6m11.7-4.5H350v19.6h8.2v-2.8H353v-16.8m9.8 0h-3.1v19.6h8.2v-2.8h-5.1v-16.8m14.6 1q-1.2-1.3-3.5-1.3-2.2 0-3.4 1.3-1.3 1.3-1.3 3.7v10.2q0 2.4 1.3 3.7 1.2 1.2 3.4 1.2 2.3 0 3.5-1.2 1.2-1.3 1.2-3.7v-10.2q0-2.4-1.2-3.7m-5.1 3.5q0-2 1.6-2t1.6 2v10.6q0 1.9-1.6 1.9t-1.6-1.9v-10.6m22.9-4.5h-2.7l-1.6 15.6-1.6-15.6h-3l-1.4 15.5-1.7-15.5h-3l2.2 19.6h4.2l1.2-10.5 1 10.5h4.2l2.2-19.6"/><path fill="#1A344F" d="M494 188.3l-1.4-1.8q-3.5-4.5-6.8-8.3-.3-.4-.8-.5-.5 0-.9.4-.4.3-.5.8 0 .5.4 1 3.2 3.7 6.6 8.1l1.4 1.8q.3.4.8.5.6 0 1-.3t.4-.8q.1-.5-.2-1m1.5 5.6q-.3.4-.2.9.4 2.8 1.3 6 .2.5.6.8.5.2 1 0 .5-.1.8-.5.2-.5 0-1-.9-3-1.3-5.7 0-.5-.4-.8-.5-.3-1-.2-.5 0-.8.5m-56.4-40.5q.3.4.8.5l5.9 1.3 1-.2q.4-.3.5-.8l-.2-1q-.3-.4-.8-.5l-5.8-1.2q-.5-.1-1 .1-.4.3-.5.8-.1.5.1 1m38.3 16.4q0-.5-.4-.8l-2.5-2.3q-4-3.4-8-5.9-.4-.3-.9-.2-.5.1-.7.6-.3.4-.2 1 0 .4.5.7 3.8 2.5 7.6 5.8l2.5 2.1q.3.4.9.4.5 0 .8-.4.4-.4.4-1m-238-26.4q-.5-.2-1 0-6 2-11.1 4.8-.5.3-.6.7-.1.5.1 1 .3.5.8.6.4.1.9-.1 5-2.8 10.8-4.7.4-.1.7-.6.2-.5 0-1-.1-.4-.6-.7M197.1 183q-.5.2-.7.7l-2.7 5.4q-.2.5 0 1t.6.7q.5.2 1 0t.7-.6l2.6-5.4q.2-.4.1-1-.2-.4-.6-.7-.5-.2-1 0m21.1-28.2q-.5 0-.9.3-4.4 4-8.4 8.9-.4.4-.3.9 0 .5.5.8.4.4.9.3.5 0 .8-.4 3.9-4.8 8.2-8.5.4-.4.4-1 0-.4-.3-.8-.4-.4-.9-.4m73-11.1q.3.4.8.5l5.7 1.7q.4.2.9 0 .5-.3.6-.8.2-.4 0-.9-.3-.5-.7-.6-2.4-.8-5.9-1.7-.5-.2-1 0-.4.3-.5.8-.1.5.1 1m-4-2.7q-.3-.4-.8-.5-6-1.2-12.1-1.6-.5 0-1 .3-.3.4-.3.9t.3.9q.3.4.8.4 6 .4 11.8 1.5.5.1 1-.2.4-.3.5-.7 0-.6-.2-1m-38 .7q0 .5.5.8.4.3.9.2 5.5-1 11.7-1.3.5 0 .9-.4.3-.4.3-1 0-.4-.4-.8-.4-.3-1-.3-6.2.4-11.9 1.4-.5 0-.8.5-.3.4-.2.9"/><g display="none"><use xlink:href="#f" transform="matrix(.028 0 0 .028 353.6 122)"><animateTransform attributeName="transform" additive="replace" type="translate" repeatCount="indefinite" dur="4.125s" keyTimes="0;0.01;0.02;0.03;0.04;0.051;0.061;0.071;0.081;0.091;0.707;0.717;0.727;0.737;0.747;0.758;0.768;0.778;0.788;1" values="353.6,121.95;353.6,121.95;353.65,121.955;353.6,121.946;353.65,121.923;353.56,121.991;353.64,121.949;353.66,121.966;353.578,121.934;353.6,121.951;353.6,121.951;353.58,121.934;353.61,121.911;353.647,121.949;353.56,121.991;353.599,121.924;353.588,121.969;353.593,121.962;353.6,121.95;353.6,121.95" calcMode="discrete"/><animateTransform attributeName="transform" additive="sum" type="scale" repeatCount="indefinite" dur="4.125s" keyTimes="0;0.01;0.02;0.03;0.04;0.051;0.061;0.071;0.081;0.091;0.707;0.717;0.727;0.737;0.747;0.758;0.768;0.778;0.788;1" values="0.028,0.028;0.028,0.028;0.321,0.321;0.614,0.614;0.907,0.907;1.2,1.2;1.15,1.15;1.1,1.1;1.05,1.05;1,1;1,1;1.05,1.05;1.1,1.1;1.15,1.15;1.2,1.2;0.907,0.907;0.614,0.614;0.321,0.321;0.028,0.028;0.028,0.028" calcMode="discrete"/><animateTransform attributeName="transform" additive="sum" type="translate" repeatCount="indefinite" dur="4.125s" keyTimes="0;0.01;0.02;0.03;0.04;0.051;0.061;0.071;0.081;0.091;0.717;0.727;0.737;0.747;0.758;0.768;0.778;0.788;1" values="0,1.799;0,1.799;0,1.699;0,1.799;0,1.849;-0.55,2.299;-0.6,2.349;-0.6,2.349;-0.55,2.349;-0.6,2.349;-0.6,2.349;-0.6,2.399;-0.65,2.349;-0.55,2.299;-0.55,2.399;-0.55,2.249;-0.6,2.299;0,1.799;0,1.799" calcMode="discrete"/></use><animate attributeName="display" repeatCount="indefinite" dur="4.125s" keyTimes="0;0.01;0.798;1" values="none;inline;none;none"/></g><g display="none"><use xlink:href="#f" transform="matrix(.028 0 0 .028 516.6 191.5)"><animateTransform attributeName="transform" additive="replace" type="translate" repeatCount="indefinite" dur="4.125s" keyTimes="0;0.525;0.535;0.545;0.556;0.566;0.576;0.586;0.596;0.606;0.707;0.717;0.727;0.737;0.747;0.758;0.768;0.778;0.788;1" values="516.6,191.45;516.6,191.45;516.6,191.439;516.6,191.446;516.6,191.464;516.62,191.431;516.582,191.399;516.61,191.471;516.58,191.436;516.6,191.451;516.6,191.451;516.58,191.484;516.61,191.466;516.59,191.449;516.62,191.431;516.594,191.465;516.588,191.458;516.594,191.446;516.6,191.45;516.6,191.45" calcMode="discrete"/><animateTransform attributeName="transform" additive="sum" type="scale" repeatCount="indefinite" dur="4.125s" keyTimes="0;0.525;0.535;0.545;0.556;0.566;0.576;0.586;0.596;0.606;0.707;0.717;0.727;0.737;0.747;0.758;0.768;0.778;0.788;1" values="0.028,0.028;0.028,0.028;0.321,0.321;0.614,0.614;0.907,0.907;1.2,1.2;1.15,1.15;1.1,1.1;1.05,1.05;1,1;1,1;1.05,1.05;1.1,1.1;1.15,1.15;1.2,1.2;0.907,0.907;0.614,0.614;0.321,0.321;0.028,0.028;0.028,0.028" calcMode="discrete"/><animateTransform attributeName="transform" additive="sum" type="translate" repeatCount="indefinite" dur="4.125s" keyTimes="0;0.525;0.535;0.545;0.556;0.566;0.576;0.586;0.596;0.606;0.747;0.758;0.768;0.778;0.788;1" values="0,1.799;0,1.799;0,1.749;0,1.799;0,1.749;-0.6,2.349;-0.55,2.349;-0.6,2.299;-0.6,2.299;-0.6,2.349;-0.6,2.349;-0.6,2.299;-0.55,2.349;-0.45,2.349;0,1.799;0,1.799" calcMode="discrete"/></use><animate attributeName="display" repeatCount="indefinite" dur="4.125s" keyTimes="0;0.525;0.798;1" values="none;inline;none;none"/></g><g display="none"><use xlink:href="#f" transform="matrix(.028 0 0 .028 195.7 192.6)"><animateTransform attributeName="transform" additive="replace" type="translate" repeatCount="indefinite" dur="4.125s" keyTimes="0;0.404;0.414;0.424;0.434;0.444;0.455;0.465;0.475;0.485;0.707;0.717;0.727;0.737;0.747;0.758;0.768;0.778;0.788;1" values="195.65,192.5;195.65,192.5;195.65,192.507;195.65,192.496;195.7,192.518;195.67,192.481;195.69,192.556;195.66,192.516;195.68,192.586;195.65,192.501;195.65,192.501;195.683,192.536;195.66,192.516;195.697,192.491;195.67,192.481;195.644,192.515;195.638,192.489;195.643,192.546;195.65,192.5;195.65,192.5" calcMode="discrete"/><animateTransform attributeName="transform" additive="sum" type="scale" repeatCount="indefinite" dur="4.125s" keyTimes="0;0.404;0.414;0.424;0.434;0.444;0.455;0.465;0.475;0.485;0.707;0.717;0.727;0.737;0.747;0.758;0.768;0.778;0.788;1" values="0.028,0.028;0.028,0.028;0.321,0.321;0.614,0.614;0.907,0.907;1.2,1.2;1.15,1.15;1.1,1.1;1.05,1.05;1,1;1,1;1.05,1.05;1.1,1.1;1.15,1.15;1.2,1.2;0.907,0.907;0.614,0.614;0.321,0.321;0.028,0.028;0.028,0.028" calcMode="discrete"/><animateTransform attributeName="transform" additive="sum" type="translate" repeatCount="indefinite" dur="4.125s" keyTimes="0;0.404;0.414;0.424;0.434;0.444;0.455;0.465;0.475;0.485;0.707;0.717;0.727;0.737;0.747;0.758;0.768;0.778;0.788;1" values="0,1.799;0,1.799;0,1.849;0,1.799;0,1.799;-0.6,2.349;-0.6,2.299;-0.6,2.349;-0.6,2.299;-0.6,2.349;-0.6,2.349;-0.65,2.299;-0.6,2.349;-0.65,2.399;-0.6,2.349;-0.6,2.299;-0.55,2.299;-0.6,2.349;0,1.799;0,1.799" calcMode="discrete"/></use><animate attributeName="display" repeatCount="indefinite" dur="4.125s" keyTimes="0;0.404;0.798;1" values="none;inline;none;none"/></g><g display="none"><use xlink:href="#f" transform="matrix(.42 0 0 .42 388.4 188.8)"><animateTransform attributeName="transform" additive="replace" type="translate" repeatCount="indefinite" dur="4.125s" keyTimes="0;0.192;0.202;0.212;0.222;0.232;0.242;0.253;0.263;0.273;0.283;0.293;0.303;0.313;0.323;0.333;0.343;0.354;0.364;0.374;1" values="388.35,188.75;388.35,188.75;393.2,179.05;399.75,170.45;408.1,163.45;417.75,158.45;428.35,155.85;439.25,155.5;450.05,157.2;460.35,160.65;470.05,165.55;478.9,171.95;486.75,179.6;493.4,188.25;498.85,197.65;503.05,207.7;505.8,218.3;507.1,229.2;507,240.15;505.7,251;505.7,251" calcMode="discrete"/><animateTransform attributeName="transform" additive="sum" type="scale" repeatCount="indefinite" dur="4.125s" keyTimes="0;1" values="0.42,0.42;0.42,0.42" calcMode="discrete"/></use><animate attributeName="display" repeatCount="indefinite" dur="4.125s" keyTimes="0;0.192;1" values="none;inline;inline"/></g><g display="none"><use xlink:href="#f" transform="matrix(.42 0 0 .42 319 156)"><animateTransform attributeName="transform" additive="replace" type="translate" repeatCount="indefinite" dur="4.125s" keyTimes="0;0.141;0.152;0.162;0.172;0.182;0.192;0.202;0.212;0.222;0.232;0.242;0.253;0.263;0.273;0.283;0.293;0.303;0.313;0.323;1" values="319.05,156;319.05,156;307.2,150.15;294.75,145.8;282,142.85;268.95,141.5;255.85,142.05;242.9,144.5;230.5,148.95;219.1,155.4;208.95,163.9;200.6,174.2;194.05,185.7;189.25,198.05;186,211.1;184.25,224.45;183.7,237.8;184.2,251.15;185.55,264.35;187.55,277.45;187.55,277.45" calcMode="discrete"/><animateTransform attributeName="transform" additive="sum" type="scale" repeatCount="indefinite" dur="4.125s" keyTimes="0;1" values="0.42,0.42;0.42,0.42" calcMode="discrete"/></use><animate attributeName="display" repeatCount="indefinite" dur="4.125s" keyTimes="0;0.141;1" values="none;inline;inline"/></g><path fill="#FFF" stroke="#1A344F" stroke-width="2.5" stroke-linecap="round" stroke-linejoin="round" d="M198.9 197.7q-21.8 0-37.3 15.5-15.4 15.4-15.4 37.2t15.4 37.3q15.5 15.4 37.3 15.4 21.8 0 37.2-15.4 15.5-15.5 15.5-37.3T236 213.2q-15.4-15.5-37.2-15.5"/><path fill="#F0B971" stroke="#1A344F" stroke-width="2.5" stroke-linecap="round" stroke-linejoin="round" d="M176.4 219.4q-8.8 9.3-8.8 22.1l.8 30.1q0 5.7 3.6 9.5 3.7 3.9 9.3 3.9h33.6q6.3 0 10.8-4.4t4.4-10.8v-29q0-13.1-9.4-22.3-9.5-9.2-22.7-8.9-12.7.4-21.6 9.8"/><path fill="#E8654F" d="M173.3 282.5q-6.8 7.8-6.8 16.3 7.4 6.5 16.9 9.6 2.8 1 5.8 1.6 4.5.8 9 .8 5 0 10.2-1.1 3.3-.7 6.8-2 9.7-3.7 16.9-11-.5-7.8-7.3-15.1-5.3-5.9-13.8-10.6l-23.4.1q-8.8 5-14.3 11.4"/><path fill="none" stroke="#1A344F" stroke-width="2.5" stroke-linecap="round" stroke-linejoin="round" d="M173.3 282.5q-6.8 7.8-6.8 16.3 7.4 6.5 16.9 9.6 2.8 1 5.8 1.6 4.5.8 9 .8 5 0 10.2-1.1 3.3-.7 6.8-2 9.7-3.7 16.9-11-.5-7.8-7.3-15.1-5.3-5.9-13.8-10.6m-37.7 11.5q5.5-6.4 14.3-11.4"/><path fill="#EAB091" d="M202 220l-19.7 5q-4.1 3.2-6.4 7.9-2.4 4.8-2.4 10.2l1.2 14.8q0 9.5 6.7 16.3 6.7 6.7 16.3 6.7h3.2q9.5 0 16.2-6.7 6.8-6.8 6.8-16.3l1-14.8q0-9.5-6.7-16.3-6.7-6.7-16.2-6.7"/><path fill="none" stroke="#1A344F" stroke-width="2.5" stroke-linecap="round" stroke-linejoin="round" d="M202 220q9.5 0 16.2 6.8 6.8 6.8 6.8 16.3l-1.1 14.8q0 9.5-6.8 16.3-6.7 6.7-16.2 6.7h-3.2q-9.6 0-16.3-6.7-6.7-6.8-6.7-16.3l-1.2-14.8q0-5.4 2.4-10.2 2.3-4.7 6.4-7.9"/><path fill="#F0B971" d="M218.8 217q-9.5-2.5-20 .1l-19.5 10.8 1.3 1.8q1.8 2.1 4.2 3.8 7.7 5.5 18.6 4.9 10.8-.7 17.9-9.6 3.6-4.5 5-8.8-2.7-1.8-7.5-3"/><path fill="none" stroke="#1A344F" stroke-width="2.5" stroke-linecap="round" stroke-linejoin="round" d="M218.8 217q-9.5-2.5-20 .1m20-.1q4.8 1.2 7.5 3-1.4 4.3-5 8.8-7.1 8.9-18 9.6-10.8.6-18.5-4.9-2.4-1.7-4.2-3.8l-1.3-1.8"/><path fill="#FFF" stroke="#1A344F" stroke-width="2.5" stroke-linecap="round" stroke-linejoin="round" d="M206.6 264.2H192q0 3 2.1 5.1 2.1 2.2 5.2 2.2 3 0 5.1-2.2 2.2-2.1 2.2-5.1"/><path fill="none" stroke="#1A344F" stroke-width="2.5" stroke-linecap="round" stroke-linejoin="round" d="M196.2 256.7q-1.3-1.3-1.3-3.1m1.3 3.1q1.3 1.3 3 1.3 1.9 0 3.2-1.3 1.2-1.3 1.2-3.1m-12.8-8.3q1 1 1 2.4m-1-2.4q-1-1-2.4-1t-2.4 1q-1 1-1 2.4m26.6-2.4q1 1 1 2.4m-1-2.4q-1-1-2.4-1t-2.4 1q-1 1-1 2.4"/><path fill="#7A9A5D" stroke="#1A344F" stroke-width="2.5" stroke-linecap="round" stroke-linejoin="round" d="M232.2 348.5v-7.6h-74.6v7.6h74.6"/><path fill="none" stroke="#1A344F" stroke-width="2.5" stroke-linecap="round" stroke-linejoin="round" d="M157.6 348.4h74.6"/><path fill="#99C977" stroke="#1A344F" stroke-width="2.5" stroke-linecap="round" stroke-linejoin="round" d="M232.2 298.6h-74.6v41.6h74.6v-41.6"/><path fill="#EDEDED" stroke="#1A344F" stroke-width="2.5" stroke-linecap="round" stroke-linejoin="round" d="M171.2 311.1q-2 2.1-4.8 2.5v10.3q2.8.4 4.8 2.4 2 2.1 2.2 5h43q.3-3 2.2-5 2-2.1 4.9-2.4v-10.3q-2.9-.4-4.9-2.5-2-2.1-2.1-5h-43.2q-.2 2.9-2.1 5"/><path fill="#F4AF28" stroke="#1A344F" stroke-width="2.5" stroke-linecap="round" stroke-linejoin="round" d="M199.7 313.9q-2-2-4.8-2t-4.8 2q-2 2-2 4.8t2 4.8q2 2 4.8 2t4.8-2q2-2 2-4.8t-2-4.8m-53.5 34.2V340h-14.7v8h14.7"/><path fill="#F4AF28" stroke="#1A344F" stroke-width="2.5" stroke-linecap="round" stroke-linejoin="round" d="M146.2 340.4v-8h-14.7v8h14.7"/><path fill="#FFF" stroke="#1A344F" stroke-width="2.5" stroke-linecap="round" stroke-linejoin="round" d="M517.5 196.6q-22.2 0-37.9 15.7T463.9 250q0 22.2 15.7 37.9 15.7 15.6 37.9 15.6 22.1 0 37.8-15.6Q571 272.3 571 250q0-22.1-15.7-37.8-15.7-15.7-37.8-15.7"/><path fill="#C2A284" stroke="#1A344F" stroke-width="2.5" stroke-linecap="round" stroke-linejoin="round" d="M500.9 264.8q0-3.1-2.2-5.3-2.2-2.2-5.3-2.2-3.1 0-5.3 2.2-2.2 2.2-2.2 5.3 0 3 2.2 5.3 2.2 2.2 5.3 2.2 3.1 0 5.3-2.2 2.2-2.2 2.2-5.3m42.3-7.5q-3.1 0-5.3 2.2-2.2 2.2-2.2 5.3 0 3 2.2 5.3 2.2 2.2 5.3 2.2 3.1 0 5.3-2.2 2.2-2.2 2.2-5.3 0-3.1-2.2-5.3-2.2-2.2-5.3-2.2"/><path fill="#7D6B63" stroke="#1A344F" stroke-width="2.5" stroke-linecap="round" stroke-linejoin="round" d="M540.8 215.9q-9.3-9.3-22.5-9.3-13.1 0-22.4 9.3-9.3 9.3-9.3 22.4 0 13.2 9.3 22.5t22.4 9.3q13.2 0 22.5-9.3t9.3-22.5q0-13.1-9.3-22.4"/><path fill="#F9CC66" d="M503 315.9q2.3.8 5.9 1.5 4.5.9 8.9.9 5 0 10.3-1.1 3.3-.7 6.7-2v-.1q9.7-3.7 16.9-10.8-.5-7.9-7.2-15.3-5.4-5.8-13.8-10.6l-23.5.2q-8.8 4.9-14.3 11.3-6.7 7.9-6.8 16.3 7.4 6.6 16.9 9.7"/><path fill="none" stroke="#1A344F" stroke-width="2.5" stroke-linecap="round" stroke-linejoin="round" d="M503 315.9q2.3.8 5.9 1.5 4.5.9 8.9.9 5 0 10.3-1.1 3.3-.7 6.7-2v-.1q9.7-3.7 16.9-10.8-.5-7.9-7.2-15.3-5.4-5.8-13.8-10.6M503 315.9q-9.5-3.1-16.9-9.7 0-8.4 6.8-16.3 5.5-6.4 14.3-11.3"/><path fill="#C2A284" stroke="#1A344F" stroke-width="2.5" stroke-linecap="round" stroke-linejoin="round" d="M538 232.2q-6.8-6.9-16.5-6.9H516q-9.7 0-16.6 6.9-6.8 6.8-6.8 16.5l1.1 15q0 9.7 6.9 16.5 6.8 6.9 16.5 6.9h3.2q9.7 0 16.5-6.9 6.9-6.8 6.9-16.5l1.1-15q0-9.7-6.8-16.5"/><path fill="none" stroke="#1A344F" stroke-width="2.5" stroke-linecap="round" stroke-linejoin="round" d="M515.6 262.5q-1.3-1.3-1.3-3.1m1.3 3.1q1.3 1.3 3.1 1.3t3.1-1.3 1.3-3.1m-13-8.5q1 1 1 2.4m-1-2.4q-1-1-2.5-1-1.4 0-2.4 1t-1 2.4m27-2.4q1 1 1 2.4m-1-2.4q-1-1-2.4-1t-2.5 1q-1 1-1 2.4m-2.9 23.2q1.7-1 2.7-2.7m-2.7 2.7q-1.7 1-3.7 1t-3.7-1q-1.7-1-2.7-2.7"/><path fill="#7A9A5D" stroke="#1A344F" stroke-width="2.5" stroke-linecap="round" stroke-linejoin="round" d="M556.2 348.5v-7.6h-74.6v7.6h74.6"/><path fill="none" stroke="#1A344F" stroke-width="2.5" stroke-linecap="round" stroke-linejoin="round" d="M481.6 348.4h74.6"/><path fill="#99C977" stroke="#1A344F" stroke-width="2.5" stroke-linecap="round" stroke-linejoin="round" d="M556.2 298.6h-74.6v41.6h74.6v-41.6"/><path fill="#EDEDED" stroke="#1A344F" stroke-width="2.5" stroke-linecap="round" stroke-linejoin="round" d="M495.2 311.1q-2 2.1-4.8 2.5v10.3q2.8.4 4.8 2.4 2 2.1 2.2 5h43q.3-3 2.2-5 2-2.1 4.9-2.4v-10.3q-2.9-.4-4.9-2.5-2-2.1-2.1-5h-43.2q-.2 2.9-2.1 5"/><path fill="#F4AF28" stroke="#1A344F" stroke-width="2.5" stroke-linecap="round" stroke-linejoin="round" d="M523.7 313.9q-2-2-4.8-2t-4.8 2q-2 2-2 4.8t2 4.8q2 2 4.8 2t4.8-2q2-2 2-4.8t-2-4.8m54.6 34.2V340h-14.7v8h14.7"/><path fill="#7A9A5D" d="M365.6 266.4h74.7V152.7h-74.7v113.7"/><path fill="none" stroke="#1A344F" stroke-width="2.5" stroke-linecap="round" stroke-linejoin="round" d="M365.6 152.7v113.7m0-113.7h74.7v113.7"/><path fill="#99C977" stroke="#1A344F" stroke-width="2.5" stroke-linecap="round" stroke-linejoin="round" d="M440.3 111h-74.7v41.7h74.7V111"/><path fill="#EDEDED" stroke="#1A344F" stroke-width="2.5" stroke-linecap="round" stroke-linejoin="round" d="M424.5 118.6h-43.1q-.2 2.9-2.2 5-2 2-4.8 2.4v10.3q2.8.4 4.8 2.5 2 2 2.2 4.9h43.1q.2-2.8 2.2-5 2-2 4.8-2.4V126q-2.8-.4-4.8-2.4-2-2.1-2.2-5"/><path fill="#F4AF28" stroke="#1A344F" stroke-width="2.5" stroke-linecap="round" stroke-linejoin="round" d="M409.7 131.2q0-2.8-2-4.8t-4.8-2q-2.8 0-4.7 2-2 2-2 4.8t2 4.7q2 2 4.7 2 2.8 0 4.8-2t2-4.7"/><path fill="none" stroke="#1A344F" stroke-width="2.5" stroke-linecap="round" stroke-linejoin="round" d="M365.6 168.2h74.7m-74.7 16.1h74.7m-74.7 16.1h74.7m-74.7 16.2h74.7m-74.7 16.1h74.7m-74.7 16.1h74.7M365.6 265h74.7"/><path fill="#FFF" stroke="#1A344F" stroke-width="2.5" stroke-linecap="round" stroke-linejoin="round" d="M420.5 194.8q0-27.2-19.3-46.5-19.2-19.2-46.4-19.2t-46.5 19.2q-19.2 19.3-19.2 46.5t19.2 46.4q19.3 19.3 46.5 19.3t46.4-19.3q19.3-19.2 19.3-46.4"/><path fill="none" stroke="#1A344F" stroke-width="2.5" stroke-linecap="round" stroke-linejoin="round" d="M411.8 266.4H297.4"/><path fill="#43566B" d="M368.4 242.6H340l-23.6 9.4q-7.1 2.9-11.4 9.3-1.8 2.5-2.8 5.3h102.6q-1-2.8-2.9-5.5-4.2-6.3-11.2-9.3l-22.4-9.3"/><path fill="none" stroke="#1A344F" stroke-width="2.5" stroke-linecap="round" stroke-linejoin="round" d="M402 261.1q1.3 2.1 2.3 4.3m-2.4-4.3q-4.2-6.3-11.2-9.3l-22.4-9.3H340l-23.6 9.4q-7.1 3-11.4 9.3-1.3 2-2.2 4"/><path fill="none" stroke="#1A344F" stroke-width="2.5" stroke-linecap="round" stroke-linejoin="round" d="M340 242.6h28.4l22.3 9.3q7 2.9 11.3 9.3 1.1 1.7 2 3.5m-64-22.1l-23.6 9.4q-4.8 2-8.5 5.7-3.4 3.4-5.3 7.8"/><path fill="#FFF" d="M362 236.3h-15.7l-6.3 6.2V266l.5.3q.3.3 10 .1 0-1.3 1.2-1.2 1.2.1 1.2 1.2v.2l2.4.2q0-1.3 1.3-1.2 1.2.1 1.2 1.2l3.5-.1q2.5-.2 3 .3h.4q1.4 0 2-.7.7-.7 1.7-.7v-23l-6.3-6.3"/><path fill="none" stroke="#1A344F" stroke-width="2.5" stroke-linecap="round" stroke-linejoin="round" d="M346.3 236.3l-6.3 6.2V266m6.3-29.8h15.8l6.2 6.4v23"/><path fill="#EAB091" d="M362 236.3v-8h-15.7v8q0 3.2 2.3 5.5 2.4 2.3 5.6 2.3 3.3 0 5.6-2.2 2.3-2.4 2.3-5.7"/><path fill="none" stroke="#1A344F" stroke-width="2.5" stroke-linecap="round" stroke-linejoin="round" d="M362 236.3v-8h-15.7v8q0 3.2 2.3 5.5 2.4 2.3 5.6 2.3 3.3 0 5.6-2.2 2.3-2.4 2.3-5.7"/><path fill="none" stroke="#1A344F" stroke-width="2.5" stroke-linecap="round" stroke-linejoin="round" d="M346.3 228.3v8q0 3.2 2.3 5.5 2.4 2.3 5.6 2.3 3.3 0 5.6-2.2 2.3-2.4 2.3-5.7v-7.8h-15.8"/><path fill="#9A7254" d="M388.9 178q0-14.4-10.2-24.6t-24.5-10.1q-14.3 0-24.5 10.1T319.6 178q0 14.4 10.1 24.5t24.5 10.2q14.4 0 24.5-10.2t10.2-24.5"/><path fill="none" stroke="#1A344F" stroke-width="2.5" stroke-linecap="round" stroke-linejoin="round" d="M388.9 178q0-14.4-10.2-24.6t-24.5-10.1q-14.3 0-24.5 10.1T319.6 178q0 14.4 10.1 24.5t24.5 10.2q14.4 0 24.5-10.2t10.2-24.5"/><path fill="none" stroke="#1A344F" stroke-width="2.5" stroke-linecap="round" stroke-linejoin="round" d="M388.9 178q0-14.4-10.2-24.6t-24.5-10.1q-14.3 0-24.5 10.1T319.6 178q0 14.4 10.1 24.5t24.5 10.2q14.4 0 24.5-10.2t10.2-24.5"/><path fill="#EE9872" d="M320.4 211.9q2.3 2.3 5.5 2.3t5.7-2.3q2.2-2.4 2.2-5.6 0-3.3-2.2-5.5-2.4-2.4-5.7-2.4-3.2 0-5.5 2.3t-2.3 5.6q0 3.3 2.3 5.6"/><path fill="#EAB091" stroke="#1A344F" stroke-width="2.5" stroke-linecap="round" stroke-linejoin="round" d="M319.7 211.9q2.4 2.3 5.6 2.3 3.3 0 5.5-2.3 2.4-2.4 2.4-5.6 0-3.3-2.3-5.5t-5.6-2.4q-3.3 0-5.6 2.3-2.3 2.4-2.3 5.6t2.3 5.6"/><path fill="#EE9872" d="M383.2 214.2q3.3 0 5.5-2.3 2.4-2.4 2.4-5.6 0-3.3-2.4-5.6t-5.5-2.3q-3.3 0-5.6 2.3t-2.3 5.6 2.3 5.6q2.3 2.3 5.6 2.3"/><path fill="#EAB091" stroke="#1A344F" stroke-width="2.5" stroke-linecap="round" stroke-linejoin="round" d="M383.2 214.2q3.3 0 5.5-2.3 2.4-2.4 2.4-5.6 0-3.3-2.4-5.6t-5.5-2.3q-3.3 0-5.6 2.3t-2.3 5.6 2.3 5.6q2.3 2.3 5.6 2.3"/><path fill="none" stroke="#1A344F" stroke-width="2.5" stroke-linecap="round" stroke-linejoin="round" d="M346.3 228.3v8q0 3.2 2.3 5.5 2.4 2.3 5.6 2.3 3.3 0 5.6-2.2 2.3-2.4 2.3-5.7v-7.8h-15.8"/><path fill="#EAB091" d="M382.6 181.1q0-7.8-5.6-13.3-5.5-5.6-13.3-5.6h-19q-7.8 0-13.3 5.5-5.5 5.6-5.5 13.4v22q0 11.8 8.2 20.1t20.1 8.3q11.8 0 20-8.3t8.4-20V181"/><path fill="none" stroke="#1A344F" stroke-width="2.5" stroke-linecap="round" stroke-linejoin="round" d="M382.6 181.1q0-7.8-5.6-13.3-5.5-5.6-13.3-5.6h-19q-7.8 0-13.3 5.5-5.5 5.6-5.5 13.4v22q0 11.8 8.2 20.1t20.1 8.3q11.8 0 20-8.3t8.4-20V181"/><path fill="none" stroke="#1A344F" stroke-width="2.5" stroke-linecap="round" stroke-linejoin="round" d="M382.6 181.1q0-7.8-5.6-13.3-5.5-5.6-13.3-5.6h-19q-7.8 0-13.3 5.5-5.5 5.6-5.5 13.4v22q0 11.8 8.2 20.1t20.1 8.3q11.8 0 20-8.3t8.4-20V181"/><path fill="none" stroke="#1A344F" stroke-width="2.5" stroke-linecap="round" stroke-linejoin="round" d="M344.8 189q1.2 0 2.2.9.9 1 .9 2.3m-3.1-3.2q-1.4 0-2.3.9-.9 1-.9 2.3m22-3.2q1.3 0 2.3.9.9 1 .9 2.3m-3.2-3.2q-1.3 0-2.2.9-.9 1-.9 2.3"/><path fill="#FFF" d="M354.2 218.9q3.3 0 5.5-2.3t2.4-5.5h-15.8q0 3.2 2.3 5.5 2.4 2.3 5.6 2.3"/><path fill="none" stroke="#1A344F" stroke-width="2.5" stroke-linecap="round" stroke-linejoin="round" d="M354.2 218.9q3.3 0 5.5-2.3t2.4-5.5h-15.8q0 3.2 2.3 5.5 2.4 2.3 5.6 2.3m-3.8-15q-1-1-1-2.3m1 2.3q.9.8 2.2.8h3.1q1.3 0 2.3-.8.9-1 .9-2.3"/><path fill="#9A7254" d="M360.8 146.5q-8.1-4.8-17.6-4.8-8.6 0-16.2 4.1-7.5 4-12.3 10.8-.7 1.2-.7 2.5t.8 2.4q4.7 6.9 12.1 10.8 7.7 4.1 16.4 4.1 9.4 0 17.5-4.8 7.8-4.7 12.4-12.6-4.5-7.9-12.4-12.5"/><path fill="none" stroke="#1A344F" stroke-width="2.5" stroke-linecap="round" stroke-linejoin="round" d="M360.8 146.5q-8.1-4.8-17.6-4.8-8.6 0-16.2 4.1-7.5 4-12.3 10.8-.7 1.2-.7 2.5t.8 2.4q4.7 6.9 12.1 10.8 7.7 4.1 16.4 4.1 9.4 0 17.5-4.8 7.8-4.7 12.4-12.6-4.5-7.9-12.4-12.5"/><path fill="none" stroke="#1A344F" stroke-width="2.5" stroke-linecap="round" stroke-linejoin="round" d="M343.3 176.4q9.4 0 17.5-4.8 7.8-4.7 12.4-12.6m-30 17.4q-8.6 0-16.2-4-7.5-4-12.3-10.9-.7-1.1-.7-2.5 0-1.3.8-2.4 4.7-6.9 12.1-10.8 7.7-4 16.4-4 6.7 0 13 2.4 6 2.5 10.7 7"/><path fill="#E55A3E" d="M358.9 248.8l-1.6-4.7H351l-1.6 4.8 3.2 4.7h3.1l3.2-4.8"/><path fill="#E66C6C" stroke="#1A344F" stroke-width="2.5" stroke-linecap="round" stroke-linejoin="round" d="M358.9 248.8l-1.6-4.7H351l-1.6 4.8 3.2 4.7h3.1l3.2-4.8"/><path fill="#E55A3E" d="M355.8 253.6h-3.2l-.8 11.6q1.1.1 1.1 1.1t-.8 1.2l3.6-.1q-.4-.2-.4-.6 0-1.4 1.3-1.2l-.8-12"/><path fill="#E66C6C" d="M351.8 265.2q1.1.1 1.1 1.1t2.5 1l-.1-.5q0-1.4 1.2-1.2l-.8-12h-3.1l-.8 11.6"/><path fill="none" stroke="#1A344F" stroke-width="2.5" stroke-linecap="round" stroke-linejoin="round" d="M356.6 265.6l-.9-12h-3.1l-.8 11.6m-27.6-2.1l2.8 2.7m-2.7-2.7l6.2-8m53.6 8l-2.4 2.3m2.4-2.3l-6.3-8"/><path fill="#875940" fill-opacity=".5" d="M332.6 155.8q-2.1-6.6-.5-12.3-9.9 5-15 11.1-2.5 3.1-3 5.2 10.3 14.2 27 15.7 8.3.7 14.6-1.4-18.9-5-23.1-18.3"/><path fill="none" stroke="#1A344F" stroke-width="2.5" stroke-linecap="round" stroke-linejoin="round" d="M364.9 157.4l1.9 2.2m-14.6-11q5.2 2.2 9.6 6m-9.6-6l-4.3-1.3"/><path fill="#D29B81" d="M327 208.3l2 9.8q12.8 16 29.4 13 8.2-1.4 13.9-6.1-31.3.1-41.6-23.1-5.2-11.7-4.2-23.4-1.3 6.3-1.2 14.6 0 8.3 1.6 15.2"/><path fill="none" stroke="#1A344F" stroke-width="2.5" stroke-linecap="round" stroke-linejoin="round" d="M382.6 203.2q0 11.7-8.4 20t-20 8.3m28.4-28.3V181m-28.4 50.4q-11.8 0-20-8.3t-8.4-20v-24.7m17.4-2.1q9.5 0 17.6-4.8 7.8-4.7 12.4-12.6-4.5-7.9-12.4-12.5-8.1-4.8-17.6-4.8-8.6 0-16.2 4.1-7.5 4-12.3 10.8-.7 1.1-.7 2.4 0 1.4.8 2.5 4.7 6.9 12.1 10.8 7.7 4.1 16.4 4.1m60.9 89.5h-101"/><path fill="#F4AF28" stroke="#1A344F" stroke-width="2.5" stroke-linecap="round" stroke-linejoin="round" d="M287 276.7v-8h-14.7v8H287"/><path fill="#F4AF28" stroke="#1A344F" stroke-width="2.5" stroke-linecap="round" stroke-linejoin="round" d="M287 261h-14.7v8H287v-8"/><path fill="#F4AF28" stroke="#1A344F" stroke-width="2.5" stroke-linecap="round" stroke-linejoin="round" d="M287 261.5v-8.1h-14.7v8H287"/><path fill="#F4AF28" stroke="#1A344F" stroke-width="2.5" stroke-linecap="round" stroke-linejoin="round" d="M287 253.8v-8h-14.7v8H287"/><path fill="#F4AF28" stroke="#1A344F" stroke-width="2.5" stroke-linecap="round" stroke-linejoin="round" d="M287 246.2v-8h-14.7v8H287"/><path fill="#F4AF28" stroke="#1A344F" stroke-width="2.5" stroke-linecap="round" stroke-linejoin="round" d="M287 238.6v-8h-14.7v8H287m14.7 38v-8H287v8h14.7"/><path fill="#F4AF28" stroke="#1A344F" stroke-width="2.5" stroke-linecap="round" stroke-linejoin="round" d="M301.7 269v-8H287v8h14.7"/><path fill="#F4AF28" stroke="#1A344F" stroke-width="2.5" stroke-linecap="round" stroke-linejoin="round" d="M301.7 261.4v-8H287v8h14.7m140.8 15.2v-8h-14.7v8h14.7"/><path fill="#F4AF28" stroke="#1A344F" stroke-width="2.5" stroke-linecap="round" stroke-linejoin="round" d="M442.5 260.9h-14.7v8h14.7v-8"/><path fill="#F4AF28" stroke="#1A344F" stroke-width="2.5" stroke-linecap="round" stroke-linejoin="round" d="M442.5 261.3v-8h-14.7v8h14.7"/></g></svg>