<svg id="Layer_1" xmlns="http://www.w3.org/2000/svg" viewBox="0 0 695 307.2" style="enable-background:new 0 0 695 307.2"><style>.st0{fill:#f1f0f0}.st1{fill:#383938}.st2{fill:#6cb376}.st3{fill:none;stroke:#b1dade;stroke-width:2;stroke-miterlimit:10}.st4{fill:#b1dade}</style><path id="XMLID_3135_" class="st0" d="M695.2 307.7l-695-1.1V-.4h695z"/><path class="st1" d="M122.4 124.4h13.8v9.2h-13.8v18.8h17.4v9.2h-27.5V97.4h27.5v9.2h-17.4v17.8zM155.7 97.4v49.5c0 4.6 2 6.2 5.2 6.2s5.2-1.7 5.2-6.2V97.4h9.5v48.9c0 10.3-5.1 16.1-15 16.1s-15-5.9-15-16.1V97.4h10.1zM203.6 161.6c-.6-1.7-.9-2.7-.9-7.9v-10.1c0-6-2-8.2-6.6-8.2h-3.5v26.1h-10.1V97.4h15.2c10.5 0 15 4.9 15 14.8v5c0 6.6-2.1 10.9-6.6 13 5 2.1 6.7 7 6.7 13.7v9.9c0 3.1.1 5.4 1.1 7.8h-10.3zm-11-55v19.7h3.9c3.8 0 6.1-1.7 6.1-6.8v-6.3c0-4.6-1.6-6.6-5.1-6.6h-4.9zM241.5 97.4h8.7l-25.3 64.2h-8.7l25.3-64.2zM264 97.4v49.5c0 4.6 2 6.2 5.2 6.2s5.2-1.7 5.2-6.2V97.4h9.5v48.9c0 10.3-5.1 16.1-15 16.1s-15-5.9-15-16.1V97.4H264zM304.4 96.7c9.8 0 14.9 5.9 14.9 16.1v2h-9.5v-2.7c0-4.6-1.8-6.3-5-6.3s-5 1.7-5 6.3c0 13.2 19.7 15.7 19.7 34 0 10.3-5.1 16.1-15 16.1s-15-5.9-15-16.1v-3.9h9.5v4.6c0 4.6 2 6.2 5.2 6.2s5.2-1.7 5.2-6.2c0-13.2-19.7-15.7-19.7-34-.1-10.3 4.9-16.1 14.7-16.1zM325.2 97.4h16c10.1 0 15 5.6 15 15.9v32.5c0 10.3-5 15.9-15 15.9h-16V97.4zm10.1 9.2v45.9h5.7c3.2 0 5.1-1.7 5.1-6.2v-33.4c0-4.6-1.9-6.2-5.1-6.2h-5.7zM383 105.5c7.8 0 9.5-3.8 11.1-8.1h6.8v64.2h-10.1v-49H383v-7.1zM422.9 151.9v9.7h-9.7v-9.7h9.7zM445 105.8c-3.2 0-5.2 1.7-5.2 6.3v6.9h-9.5v-6.2c0-10.3 5.1-16.1 15-16.1s15 5.9 15 16.1c0 20.2-20.1 27.7-20.1 38.2 0 .5 0 .9.1 1.4h19.1v9.2h-29.2v-7.9c0-18.9 20-22 20-40.5 0-5.8-2-7.4-5.2-7.4zM486 113.2c0-5.8-2-7.3-5.2-7.3s-5.2 1.7-5.2 6.3v4.1H466v-3.5c0-10.3 5.1-16.1 15-16.1s15 5.9 15 16.1v1.7c0 6.9-2.2 11.2-7.1 13.2 5 2.2 7.1 7 7.1 13.5v5c0 10.3-5.1 16.1-15 16.1s-15-5.9-15-16.1v-5.3h9.5v6c0 4.6 2 6.3 5.2 6.3s5.2-1.6 5.2-7.2v-5c0-6-2-8.2-6.6-8.2H476v-9.2h3.9c3.8 0 6.1-1.7 6.1-6.8v-3.6zM502 112.8c0-10.3 5.4-16.1 15.3-16.1s15.3 5.9 15.3 16.1v33.4c0 10.3-5.4 16.1-15.3 16.1s-15.3-5.9-15.3-16.1v-33.4zm10.1 34c0 4.6 2 6.3 5.2 6.3s5.2-1.7 5.2-6.3v-34.7c0-4.6-2-6.3-5.2-6.3s-5.2 1.7-5.2 6.3v34.7z"/><path class="st2" d="M556.9 105.8c-3.2 0-5.2 1.7-5.2 6.3v6.9h-9.5v-6.2c0-10.3 5.1-16.1 15-16.1s15 5.9 15 16.1c0 20.2-20.1 27.7-20.1 38.2 0 .5 0 .9.1 1.4h19.1v9.2h-29.2v-7.9c0-18.9 20-22 20-40.5 0-5.8-2-7.4-5.2-7.4z"/><path class="st1" d="M292.3 216.8v3.2c0 3.9-1.9 6-5.7 6h-1.8v9.1H281v-24.3h5.6c3.8 0 5.7 2.2 5.7 6zm-7.5-2.5v8.2h1.8c1.2 0 1.9-.6 1.9-2.3v-3.6c0-1.7-.7-2.3-1.9-2.3h-1.8zM294 210.8h3.8v24.3H294v-24.3zM311.9 216.8v3.2c0 3.9-1.9 6-5.7 6h-1.8v9.1h-3.8v-24.3h5.6c3.9 0 5.7 2.2 5.7 6zm-7.5-2.5v8.2h1.8c1.2 0 1.9-.6 1.9-2.3v-3.6c0-1.7-.7-2.3-1.9-2.3h-1.8zM318.8 216.7c0-3.9 2-6.1 5.8-6.1s5.8 2.2 5.8 6.1v12.6c0 3.9-2 6.1-5.8 6.1s-5.8-2.2-5.8-6.1v-12.6zm3.8 12.8c0 1.7.8 2.4 2 2.4s2-.7 2-2.4v-13.1c0-1.7-.8-2.4-2-2.4s-2 .7-2 2.4v13.1zM340.8 235.1c-.2-.6-.3-1-.3-3v-3.8c0-2.3-.8-3.1-2.5-3.1h-1.3v9.9h-3.8v-24.3h5.8c4 0 5.7 1.8 5.7 5.6v1.9c0 2.5-.8 4.1-2.5 4.9 1.9.8 2.5 2.6 2.5 5.2v3.7c0 1.2 0 2 .4 2.9h-4zm-4.2-20.8v7.5h1.5c1.4 0 2.3-.6 2.3-2.6v-2.4c0-1.7-.6-2.5-1.9-2.5h-1.9zM363.4 216.8v3.2c0 3.9-1.9 6-5.7 6h-1.8v9.1h-3.8v-24.3h5.6c3.8 0 5.7 2.2 5.7 6zm-7.5-2.5v8.2h1.8c1.2 0 1.9-.6 1.9-2.3v-3.6c0-1.7-.7-2.3-1.9-2.3h-1.8zM364.9 216.7c0-3.9 2-6.1 5.8-6.1s5.8 2.2 5.8 6.1v12.6c0 3.9-2 6.1-5.8 6.1s-5.8-2.2-5.8-6.1v-12.6zm3.8 12.8c0 1.7.8 2.4 2 2.4s2-.7 2-2.4v-13.1c0-1.7-.8-2.4-2-2.4s-2 .7-2 2.4v13.1zM378.9 210.8h3.8v24.3h-3.8v-24.3zM388.9 217.5v17.6h-3.4v-24.3h4.8l3.9 14.5v-14.5h3.4v24.3h-3.9l-4.8-17.6zM399.2 210.8H411v3.5h-4v20.8h-3.8v-20.8h-4v-3.5z"/><path id="XMLID_737_" class="st3" d="M557.9 195.8v27.8H433.5"/><g><path class="st4" d="M578.9 175.2H536c-1.2 0-2.1-1-2.1-2.3s1-2.3 2.1-2.3h42.8c1.2 0 2.1 1 2.1 2.3s-.8 2.3-2 2.3z"/></g></svg>