<svg id="Layer_1" xmlns="http://www.w3.org/2000/svg" viewBox="0 0 695 679.6" style="enable-background:new 0 0 695 679.6"><style>.st0{fill:#f1f0f0}.st1{fill:#fff}.st2{stroke:#383938;stroke-width:4;stroke-linecap:round;stroke-linejoin:round;stroke-miterlimit:10}.st2,.st3,.st4{fill-rule:evenodd;clip-rule:evenodd;fill:#0855a3}.st4{fill:#fcee21}.st5{fill:#be2335}.st6{fill:#223164}.st7,.st8{fill-rule:evenodd;clip-rule:evenodd;fill:none;stroke:#383938;stroke-width:4;stroke-linecap:round;stroke-linejoin:round;stroke-miterlimit:10}.st8{fill:#e0e1e0}.st9{fill:#383938}.st10{fill:#6cb376}.st11,.st12{fill:none;stroke:#cecccc;stroke-width:3;stroke-linecap:round;stroke-linejoin:round;stroke-miterlimit:10}.st12{stroke:#383938;stroke-width:4}.st13{fill:#e57c4c}.st14,.st15{fill:none;stroke-miterlimit:10}.st14{stroke-linecap:round;stroke-linejoin:round;stroke:#383938;stroke-width:3}.st15{stroke:#b1dade;stroke-width:2}</style><path id="XMLID_3136_" class="st0" d="M0 0h694.4v679.6H0z"/><path class="st1" d="M60.6 323.7h573.5v207.7H60.6z"/><g id="XMLID_225_"><g id="XMLID_666_"><path id="XMLID_736_" class="st2" d="M196.7 53.4h162v88h-162z"/><g id="XMLID_667_"><g id="XMLID_734_"><path id="XMLID_735_" class="st3" d="M356.5 139H199.1V55.7h157.4V139"/></g><g id="XMLID_668_"><path id="XMLID_733_" class="st4" d="M282.4 68.6l-2.8 2 .9 3.1-2.6-1.9-2.8 1.8 1.1-3-2.8-2h3.5l1.1-3.2 1 3.2h3.4"/><path id="XMLID_730_" class="st4" d="M282.4 123.5l-2.8 2 .9 3.1-2.6-1.9-2.8 1.9 1.1-3.1-2.8-2h3.5l1.1-3.2 1 3.2h3.4"/><path id="XMLID_729_" class="st4" d="M254.9 96l-2.8 2 .9 3.1-2.6-1.9-2.8 1.9 1.1-3.1-2.8-2h3.5l1.1-3.2 1 3.2h3.4"/><path id="XMLID_728_" class="st4" d="M258.8 82l-2.8 2 .9 3.1-2.6-1.9-2.8 1.9 1.1-3.1-2.8-2h3.5l1.1-3.2 1 3.2h3.4"/><path id="XMLID_727_" class="st4" d="M268.6 72.2l-2.9 2 1 3.1-2.7-1.9-2.7 1.8 1-3-2.8-2h3.5l1.1-3.2 1 3.2h3.5"/><path id="XMLID_726_" class="st4" d="M295.8 72.2l-2.8 2 .9 3.1-2.6-1.9-2.8 1.8 1.1-3-2.8-2h3.5l1.1-3.2 1 3.2h3.4"/><path id="XMLID_725_" class="st4" d="M305.8 82l-2.8 2 .9 3.1-2.7-1.9-2.7 1.9 1-3.1-2.8-2h3.5l1.1-3.2 1 3.2h3.5"/><path id="XMLID_721_" class="st4" d="M258.7 109.7l-2.8 2 .9 3-2.6-1.9-2.8 1.9 1.1-3.1-2.8-1.9h3.4l1.2-3.3 1 3.3h3.4"/><path id="XMLID_720_" class="st4" d="M268.4 119.9l-2.8 2 .9 3-2.6-1.9-2.8 1.9 1.1-3.1-2.8-1.9h3.5l1.1-3.3 1 3.3h3.4"/><path id="XMLID_671_" class="st4" d="M296.1 119.9l-2.9 2 1 3-2.7-1.9-2.7 1.9 1-3.1-2.8-1.9h3.5l1.1-3.3 1 3.3h3.5"/><path id="XMLID_670_" class="st4" d="M305.9 109.7l-2.8 2 .9 3-2.7-1.9-2.7 1.9 1.1-3.1-2.8-1.9h3.4l1.1-3.3 1.1 3.3h3.4"/><path id="XMLID_669_" class="st4" d="M309.6 96l-2.9 2 1 3.1-2.7-1.9-2.7 1.9 1-3.1-2.8-2h3.5l1.1-3.2 1 3.2h3.5"/></g></g></g><g id="XMLID_285_"><g id="XMLID_561_"><path id="XMLID_648_" class="st1" d="M335.6 76.5h160.9v88H335.6z"/><g id="XMLID_562_"><g id="XMLID_627_"><path id="XMLID_645_" class="st5" d="M401.5 76.5h95v8.7h-95z"/><path id="XMLID_638_" class="st5" d="M401.5 91.5h95v6.4h-95z"/><path id="XMLID_636_" class="st5" d="M401.5 104.1h95v6.4h-95z"/><path id="XMLID_634_" class="st5" d="M401.5 116.6h95v6.4h-95z"/><path id="XMLID_632_" class="st5" d="M335.6 129h160.9v6.4H335.6z"/><path id="XMLID_630_" class="st5" d="M335.6 142.3h160.9v6.4H335.6z"/><path id="XMLID_628_" class="st5" d="M335.6 155.9h160.9v8.5H335.6z"/></g><path id="XMLID_625_" class="st6" d="M335.6 76.5h66v46.3h-66z"/><g id="XMLID_564_"><path id="XMLID_624_" class="st1" d="M340.8 82.6h1.9l.7-2 .7 2h1.8l-1.3 1.2.5 2-1.7-1.1-1.6 1.1.5-2z"/><path id="XMLID_623_" class="st1" d="M351.3 82.6h1.8l.7-2 .7 2h1.9l-1.4 1.2.5 2-1.7-1.1-1.6 1.1.5-2z"/><path id="XMLID_622_" class="st1" d="M362 82.6h1.9l.7-2 .7 2h1.9l-1.4 1.2.5 2-1.7-1.1-1.6 1.1.5-2z"/><path id="XMLID_621_" class="st1" d="M372.5 82.6h1.8l.7-2 .8 2h1.8l-1.4 1.2.5 2-1.7-1.1-1.5 1.1.4-2z"/><path id="XMLID_619_" class="st1" d="M383 82.6h1.8l.7-2 .8 2h1.8l-1.4 1.2.5 2-1.7-1.1-1.5 1.1.4-2z"/><path id="XMLID_615_" class="st1" d="M393.7 82.6h1.8l.7-2 .8 2h1.8l-1.4 1.2.5 2-1.6-1.1-1.6 1.1.4-2z"/><path id="XMLID_614_" class="st1" d="M346 87.2h1.9l.7-1.9.7 1.9h1.9l-1.4 1.3.5 1.9-1.7-1.1-1.6 1.1.5-1.9z"/><path id="XMLID_613_" class="st1" d="M356.5 87.2h1.8l.7-1.9.8 1.9h1.8l-1.4 1.3.5 1.9-1.7-1.1-1.5 1.1.4-1.9z"/><path id="XMLID_612_" class="st1" d="M367.3 87.2h1.8l.7-1.9.7 1.9h1.9l-1.4 1.3.5 1.9-1.7-1.1-1.5 1.1.4-1.9z"/><path id="XMLID_611_" class="st1" d="M377.7 87.2h1.8l.7-1.9.8 1.9h1.8l-1.4 1.3.5 1.9-1.7-1.1-1.5 1.1.4-1.9z"/><path id="XMLID_610_" class="st1" d="M388.2 87.2h1.8l.7-1.9.8 1.9h1.8l-1.4 1.3.5 1.9-1.7-1.1-1.5 1.1.4-1.9z"/><path id="XMLID_605_" class="st1" d="M340.8 91.3h1.9l.7-2 .7 2h1.8l-1.3 1.3.5 1.9-1.7-1.1-1.6 1.1.5-1.9z"/><path id="XMLID_604_" class="st1" d="M351.3 91.3h1.8l.7-2 .7 2h1.9l-1.4 1.3.5 1.9-1.7-1.1-1.6 1.1.5-1.9z"/><path id="XMLID_603_" class="st1" d="M362 91.3h1.9l.7-2 .7 2h1.9l-1.4 1.3.5 1.9-1.7-1.1-1.6 1.1.5-1.9z"/><path id="XMLID_602_" class="st1" d="M372.5 91.3h1.8l.7-2 .8 2h1.8l-1.4 1.3.5 1.9-1.7-1.1-1.5 1.1.4-1.9z"/><path id="XMLID_601_" class="st1" d="M383 91.3h1.8l.7-2 .8 2h1.8l-1.4 1.3.5 1.9-1.7-1.1-1.5 1.1.4-1.9z"/><path id="XMLID_599_" class="st1" d="M393.7 91.3h1.8l.7-2 .8 2h1.8l-1.4 1.3.5 1.9-1.6-1.1-1.6 1.1.4-1.9z"/><path id="XMLID_597_" class="st1" d="M346 95.9h1.9l.7-1.9.7 1.9h1.9l-1.4 1.3.5 1.9-1.7-1-1.6 1 .5-1.9z"/><path id="XMLID_596_" class="st1" d="M356.5 95.9h1.8l.7-1.9.8 1.9h1.8l-1.4 1.3.5 1.9-1.7-1-1.5 1 .4-1.9z"/><path id="XMLID_595_" class="st1" d="M367.3 95.9h1.8l.7-1.9.7 1.9h1.9l-1.4 1.3.5 1.9-1.7-1-1.5 1 .4-1.9z"/><path id="XMLID_594_" class="st1" d="M377.7 95.9h1.8l.7-1.9.8 1.9h1.8l-1.4 1.3.5 1.9-1.7-1-1.5 1 .4-1.9z"/><path id="XMLID_593_" class="st1" d="M388.2 95.9h1.8l.7-1.9.8 1.9h1.8l-1.4 1.3.5 1.9-1.7-1-1.5 1 .4-1.9z"/><path id="XMLID_592_" class="st1" d="M340.8 100.2h1.9l.7-2 .7 2h1.8l-1.3 1.3.5 1.9-1.7-1.1-1.6 1.1.5-1.9z"/><path id="XMLID_591_" class="st1" d="M351.3 100.2h1.8l.7-2 .7 2h1.9l-1.4 1.3.5 1.9-1.7-1.1-1.6 1.1.5-1.9z"/><path id="XMLID_590_" class="st1" d="M362 100.2h1.9l.7-2 .7 2h1.9l-1.4 1.3.5 1.9-1.7-1.1-1.6 1.1.5-1.9z"/><path id="XMLID_589_" class="st1" d="M372.5 100.2h1.8l.7-2 .8 2h1.8l-1.4 1.3.5 1.9-1.7-1.1-1.5 1.1.4-1.9z"/><path id="XMLID_588_" class="st1" d="M383 100.2h1.8l.7-2 .8 2h1.8l-1.4 1.3.5 1.9-1.7-1.1-1.5 1.1.4-1.9z"/><path id="XMLID_587_" class="st1" d="M393.7 100.2h1.8l.7-2 .8 2h1.8l-1.4 1.3.5 1.9-1.6-1.1-1.6 1.1.4-1.9z"/><path id="XMLID_586_" class="st1" d="M346 104.8h1.9l.7-1.9.7 1.9h1.9l-1.4 1.3.5 1.9-1.7-1-1.6 1 .5-1.9z"/><path id="XMLID_585_" class="st1" d="M356.5 104.8h1.8l.7-1.9.8 1.9h1.8l-1.4 1.3.5 1.9-1.7-1-1.5 1 .4-1.9z"/><path id="XMLID_584_" class="st1" d="M367.3 104.8h1.8l.7-1.9.7 1.9h1.9l-1.4 1.3.5 1.9-1.7-1-1.5 1 .4-1.9z"/><path id="XMLID_583_" class="st1" d="M377.7 104.8h1.8l.7-1.9.8 1.9h1.8l-1.4 1.3.5 1.9-1.7-1-1.5 1 .4-1.9z"/><path id="XMLID_582_" class="st1" d="M388.2 104.8h1.8l.7-1.9.8 1.9h1.8l-1.4 1.3.5 1.9-1.7-1-1.5 1 .4-1.9z"/><path id="XMLID_581_" class="st1" d="M340.8 108.9h1.9l.7-1.9.7 1.9h1.8l-1.3 1.3.5 1.9-1.7-1-1.6 1 .5-1.9z"/><path id="XMLID_580_" class="st1" d="M351.3 108.9h1.8l.7-1.9.7 1.9h1.9l-1.4 1.3.5 1.9-1.7-1-1.6 1 .5-1.9z"/><path id="XMLID_579_" class="st1" d="M362 108.9h1.9l.7-1.9.7 1.9h1.9l-1.4 1.3.5 1.9-1.7-1-1.6 1 .5-1.9z"/><path id="XMLID_578_" class="st1" d="M372.5 108.9h1.8l.7-1.9.8 1.9h1.8l-1.4 1.3.5 1.9-1.7-1-1.5 1 .4-1.9z"/><path id="XMLID_577_" class="st1" d="M383 108.9h1.8l.7-1.9.8 1.9h1.8l-1.4 1.3.5 1.9-1.7-1-1.5 1 .4-1.9z"/><path id="XMLID_576_" class="st1" d="M393.7 108.9h1.8l.7-1.9.8 1.9h1.8l-1.4 1.3.5 1.9-1.6-1-1.6 1 .4-1.9z"/><path id="XMLID_575_" class="st1" d="M340.8 117.6h1.9l.7-1.9.7 1.9h1.8l-1.3 1.3.5 1.9-1.7-1.1-1.6 1.1.5-1.9z"/><path id="XMLID_574_" class="st1" d="M351.3 117.6h1.8l.7-1.9.7 1.9h1.9l-1.4 1.3.5 1.9-1.7-1.1-1.6 1.1.5-1.9z"/><path id="XMLID_573_" class="st1" d="M362 117.6h1.9l.7-1.9.7 1.9h1.9l-1.4 1.3.5 1.9-1.7-1.1-1.6 1.1.5-1.9z"/><path id="XMLID_572_" class="st1" d="M372.5 117.6h1.8l.7-1.9.8 1.9h1.8l-1.4 1.3.5 1.9-1.7-1.1-1.5 1.1.4-1.9z"/><path id="XMLID_571_" class="st1" d="M383 117.6h1.8l.7-1.9.8 1.9h1.8l-1.4 1.3.5 1.9-1.7-1.1-1.5 1.1.4-1.9z"/><path id="XMLID_570_" class="st1" d="M393.7 117.6h1.8l.7-1.9.8 1.9h1.8l-1.4 1.3.5 1.9-1.6-1.1-1.6 1.1.4-1.9z"/><path id="XMLID_569_" class="st1" d="M346 113.6h1.9l.7-2 .7 2h1.9l-1.4 1.3.5 1.9-1.7-1.1-1.6 1.1.5-1.9z"/><path id="XMLID_568_" class="st1" d="M356.5 113.6h1.8l.7-2 .8 2h1.8l-1.4 1.3.5 1.9-1.7-1.1-1.5 1.1.4-1.9z"/><path id="XMLID_567_" class="st1" d="M367.3 113.6h1.8l.7-2 .7 2h1.9l-1.4 1.3.5 1.9-1.7-1.1-1.5 1.1.4-1.9z"/><path id="XMLID_566_" class="st1" d="M377.7 113.6h1.8l.7-2 .8 2h1.8l-1.4 1.3.5 1.9-1.7-1.1-1.5 1.1.4-1.9z"/><path id="XMLID_565_" class="st1" d="M388.2 113.6h1.8l.7-2 .8 2h1.8l-1.4 1.3.5 1.9-1.7-1.1-1.5 1.1.4-1.9z"/></g></g></g><path id="XMLID_559_" class="st7" d="M335.6 76.5h162v88h-162z"/></g><path id="XMLID_226_" class="st8" d="M335.6 76.5h23.2V53.4z"/></g><path class="st9" d="M126.3 357.2c3.5 0 4.3-1.7 5-3.7h3.1v29.2h-4.6v-22.3h-3.5v-3.2zM144.4 378.3v4.4H140v-4.4h4.4zM154.4 357.3c-1.5 0-2.4.8-2.4 2.9v3.1h-4.3v-2.8c0-4.7 2.3-7.3 6.8-7.3s6.8 2.7 6.8 7.3c0 9.2-9.1 12.6-9.1 17.4v.6h8.7v4.2h-13.3v-3.6c0-8.6 9.1-10 9.1-18.4.1-2.7-.8-3.4-2.3-3.4zM173 360.7c0-2.6-.9-3.3-2.4-3.3s-2.4.8-2.4 2.9v1.9h-4.3v-1.6c0-4.7 2.3-7.3 6.8-7.3s6.8 2.7 6.8 7.3v.8c0 3.1-1 5.1-3.2 6 2.3 1 3.2 3.2 3.2 6.1v2.3c0 4.7-2.3 7.3-6.8 7.3s-6.8-2.7-6.8-7.3v-2.4h4.3v2.7c0 2.1.9 2.9 2.4 2.9s2.4-.7 2.4-3.3v-2.3c0-2.7-.9-3.7-3-3.7h-1.5v-4.2h1.8c1.7 0 2.8-.8 2.8-3.1v-1.7zM180.3 360.5c0-4.7 2.5-7.3 7-7.3s7 2.7 7 7.3v15.2c0 4.7-2.5 7.3-7 7.3s-7-2.7-7-7.3v-15.2zm4.6 15.5c0 2.1.9 2.9 2.4 2.9s2.4-.8 2.4-2.9v-15.8c0-2.1-.9-2.9-2.4-2.9s-2.4.8-2.4 2.9V376z"/><path class="st10" d="M210.4 357.3c-1.5 0-2.4.8-2.4 2.9v3.1h-4.3v-2.8c0-4.7 2.3-7.3 6.8-7.3s6.8 2.7 6.8 7.3c0 9.2-9.1 12.6-9.1 17.4v.6h8.7v4.2h-13.3v-3.6c0-8.6 9.1-10 9.1-18.4 0-2.7-.9-3.4-2.3-3.4z"/><path class="st9" d="M254.2 501.7v8.6h-3.8v-22.7h8.7c2.5 0 4.5.6 5.9 1.9s2.1 3 2.1 5.1c0 2.1-.7 3.8-2.1 5.1-1.4 1.3-3.4 1.9-5.9 1.9h-4.9zm0-3.1h4.9c1.4 0 2.5-.4 3.2-1.1s1.1-1.7 1.1-2.9-.4-2.1-1.1-2.9c-.7-.8-1.8-1.2-3.2-1.2h-4.9v8.1zM274.3 489.3h-3.8V486h3.8v3.3zm0 21h-3.8v-16.9h3.8v16.9zM293.3 502.4c0 2.5-.6 4.4-1.7 5.9-1.2 1.5-2.8 2.3-4.8 2.3-1 0-1.8-.2-2.5-.5s-1.4-.8-1.9-1.5v8.2h-3.8v-23.3h3.2l.4 2.1c.5-.8 1.2-1.4 2-1.8.8-.4 1.6-.6 2.7-.6 2.1 0 3.7.8 4.9 2.5 1.2 1.6 1.7 3.8 1.7 6.5v.2zm-3.7-.3c0-1.7-.3-3.1-1-4.2-.6-1.1-1.6-1.6-2.9-1.6-.8 0-1.5.2-2 .5-.6.3-1 .8-1.3 1.4v7.6c.3.6.8 1 1.3 1.4.6.3 1.2.5 2 .5 1.3 0 2.3-.5 2.9-1.4.6-1 1-2.2 1-3.7v-.5zM306.1 505.7c0-.6-.2-1.1-.7-1.4-.5-.4-1.4-.7-2.8-1-2-.4-3.5-1-4.5-1.8s-1.6-1.8-1.6-3.2c0-1.4.6-2.6 1.8-3.6 1.2-1 2.8-1.5 4.7-1.5 2 0 3.6.5 4.9 1.5 1.2 1 1.8 2.3 1.8 3.7v.1h-3.6c0-.7-.3-1.3-.8-1.8s-1.3-.8-2.2-.8c-.9 0-1.6.2-2.1.6s-.7.9-.7 1.5.2 1 .7 1.4c.4.3 1.4.6 2.8.9 2.1.4 3.6 1 4.7 1.8 1 .8 1.6 1.9 1.6 3.2 0 1.5-.6 2.8-1.9 3.7-1.3 1-2.9 1.4-4.9 1.4-2.2 0-3.9-.6-5.2-1.7-1.3-1.1-1.9-2.4-1.8-3.9v-.1h3.5c0 1 .4 1.7 1.1 2.1.7.4 1.5.7 2.4.7 1 0 1.7-.2 2.3-.6.2-.1.5-.6.5-1.2zM320.5 501.7c0-2.5.7-4.6 2.1-6.2 1.4-1.6 3.3-2.4 5.6-2.4 2.4 0 4.3.8 5.7 2.4 1.4 1.6 2.1 3.7 2.1 6.2v.3c0 2.5-.7 4.6-2.1 6.2-1.4 1.6-3.3 2.4-5.7 2.4-2.4 0-4.3-.8-5.7-2.4-1.4-1.6-2.1-3.7-2.1-6.2v-.3zm3.8.3c0 1.7.3 3 1 4 .6 1 1.6 1.5 3 1.5 1.3 0 2.3-.5 3-1.5.7-1 1-2.4 1-4v-.3c0-1.6-.3-2.9-1-4-.7-1-1.7-1.6-3-1.6s-2.3.5-3 1.6c-.6 1-1 2.4-1 4v.3zM347.6 496.8l-1.6-.1c-.7 0-1.4.2-1.8.5s-.9.8-1.1 1.3v11.7h-3.8v-16.9h3.5l.2 2.4c.4-.9 1-1.5 1.6-2s1.4-.7 2.3-.7c.2 0 .4 0 .6.1.2 0 .4.1.5.1l-.4 3.6zM362.6 501.7v8.6h-3.8v-22.7h8.7c2.5 0 4.5.6 5.9 1.9s2.1 3 2.1 5.1c0 2.1-.7 3.8-2.1 5.1-1.4 1.3-3.4 1.9-5.9 1.9h-4.9zm0-3.1h4.9c1.4 0 2.5-.4 3.2-1.1s1.1-1.7 1.1-2.9-.4-2.1-1.1-2.9c-.7-.8-1.8-1.2-3.2-1.2h-4.9v8.1zM377.8 501.7c0-2.5.7-4.6 2.1-6.2 1.4-1.6 3.3-2.4 5.6-2.4 2.4 0 4.3.8 5.7 2.4 1.4 1.6 2.1 3.7 2.1 6.2v.3c0 2.5-.7 4.6-2.1 6.2-1.4 1.6-3.3 2.4-5.7 2.4-2.4 0-4.3-.8-5.7-2.4-1.4-1.6-2.1-3.7-2.1-6.2v-.3zm3.8.3c0 1.7.3 3 1 4 .6 1 1.6 1.5 3 1.5 1.3 0 2.3-.5 3-1.5.7-1 1-2.4 1-4v-.3c0-1.6-.3-2.9-1-4-.7-1-1.7-1.6-3-1.6s-2.3.5-3 1.6c-.6 1-1 2.4-1 4v.3zM400.6 489.3h-3.8V486h3.8v3.3zm0 21h-3.8v-16.9h3.8v16.9zM408.2 493.4l.2 2.4c.6-.9 1.2-1.5 2.1-2 .8-.5 1.8-.7 2.8-.7 1.8 0 3.1.5 4.1 1.6 1 1.1 1.5 2.8 1.5 5.1v10.5h-3.8v-10.5c0-1.3-.3-2.2-.8-2.8-.5-.6-1.3-.8-2.3-.8-.8 0-1.5.2-2.1.5-.6.3-1.1.7-1.4 1.3v12.3h-3.8v-16.9h3.5zM427.7 489.3v4.1h3v2.8h-3v9.3c0 .7.2 1.2.5 1.5.3.3.7.4 1.2.4.2 0 .4 0 .6-.1s.4-.1.6-.1l.4 2.8c-.3.2-.7.3-1.1.4-.4.1-.9.1-1.4.1-1.4 0-2.5-.4-3.3-1.2-.8-.8-1.2-2.1-1.2-3.8v-9.3h-2.6v-2.8h2.6v-4.1h3.7zM443.3 505.7c0-.6-.2-1.1-.7-1.4-.5-.4-1.4-.7-2.8-1-2-.4-3.5-1-4.5-1.8s-1.6-1.8-1.6-3.2c0-1.4.6-2.6 1.8-3.6 1.2-1 2.8-1.5 4.7-1.5 2 0 3.6.5 4.9 1.5 1.2 1 1.8 2.3 1.8 3.7v.1h-3.6c0-.7-.3-1.3-.8-1.8s-1.3-.8-2.2-.8c-.9 0-1.6.2-2.1.6s-.7.9-.7 1.5.2 1 .7 1.4c.4.3 1.4.6 2.8.9 2.1.4 3.6 1 4.7 1.8 1 .8 1.6 1.9 1.6 3.2 0 1.5-.6 2.8-1.9 3.7-1.3 1-2.9 1.4-4.9 1.4-2.2 0-3.9-.6-5.2-1.7-1.3-1.1-1.9-2.4-1.8-3.9v-.1h3.5c0 1 .4 1.7 1.1 2.1.7.4 1.5.7 2.4.7 1 0 1.7-.2 2.3-.6.2-.1.5-.6.5-1.2zM480.4 357.2c3.5 0 4.3-1.7 5-3.7h3.1v29.2H484v-22.3h-3.5v-3.2zM498.5 378.3v4.4h-4.4v-4.4h4.4zM508.5 357.3c-1.5 0-2.4.8-2.4 2.9v3.1h-4.3v-2.8c0-4.7 2.3-7.3 6.8-7.3s6.8 2.7 6.8 7.3c0 9.2-9.1 12.6-9.1 17.4v.6h8.7v4.2h-13.3v-3.6c0-8.6 9.1-10 9.1-18.4.1-2.7-.8-3.4-2.3-3.4zM527.2 360.7c0-2.6-.9-3.3-2.4-3.3s-2.4.8-2.4 2.9v1.9h-4.3v-1.6c0-4.7 2.3-7.3 6.8-7.3s6.8 2.7 6.8 7.3v.8c0 3.1-1 5.1-3.2 6 2.3 1 3.2 3.2 3.2 6.1v2.3c0 4.7-2.3 7.3-6.8 7.3s-6.8-2.7-6.8-7.3v-2.4h4.3v2.7c0 2.1.9 2.9 2.4 2.9s2.4-.7 2.4-3.3v-2.3c0-2.7-.9-3.7-3-3.7h-1.5v-4.2h1.8c1.7 0 2.8-.8 2.8-3.1v-1.7zM534.5 360.5c0-4.7 2.5-7.3 7-7.3s7 2.7 7 7.3v15.2c0 4.7-2.5 7.3-7 7.3s-7-2.7-7-7.3v-15.2zM539 376c0 2.1.9 2.9 2.4 2.9s2.4-.8 2.4-2.9v-15.8c0-2.1-.9-2.9-2.4-2.9s-2.4.8-2.4 2.9V376z"/><path class="st10" d="M556.7 373.2l8.3-19.7h5v19.7h2.2v4.2H570v5.3h-4.5v-5.3h-8.8v-4.2zm8.8 0v-11l-4.6 11h4.6z"/><path class="st9" d="M82.3 300.9c0-.8-.3-1.4-.8-2-.6-.5-1.5-1-2.9-1.3-1.7-.4-3.1-1.1-4.1-1.9-1-.8-1.5-1.9-1.5-3.2 0-1.3.5-2.5 1.6-3.4 1.1-.9 2.4-1.3 4.1-1.3 1.8 0 3.2.5 4.3 1.5 1.1 1 1.6 2.2 1.6 3.6v.1h-2.2c0-1-.3-1.8-1-2.4-.7-.6-1.5-1-2.6-1s-1.9.3-2.5.8-.9 1.2-.9 2c0 .7.3 1.4.9 1.9.6.5 1.7.9 3.1 1.3 1.7.4 3 1.1 3.9 2 .9.9 1.4 1.9 1.4 3.2 0 1.4-.5 2.5-1.6 3.3-1.1.8-2.5 1.3-4.3 1.3-1.7 0-3.1-.5-4.4-1.4-1.3-.9-1.9-2.2-1.8-3.7v-.1h2.2c0 1.1.4 1.9 1.2 2.5s1.7.9 2.8.9c1.1 0 2-.2 2.6-.7.6-.5.9-1.1.9-2zM92.9 305.5c-1.8 0-3.3-.6-4.3-1.8-1-1.2-1.5-2.7-1.5-4.6v-.5c0-1.8.5-3.3 1.6-4.5 1.1-1.2 2.3-1.8 3.9-1.8 1.7 0 3 .5 3.8 1.6.9 1.1 1.3 2.5 1.3 4.2v1.2h-8.2v.1c0 1.3.3 2.3.8 3.1s1.4 1.2 2.6 1.2c.8 0 1.5-.1 2.1-.3.6-.2 1.1-.5 1.5-.9l.9 1.5c-.5.4-1.1.8-1.8 1.1-.8.2-1.7.4-2.7.4zm-.4-11.4c-.8 0-1.5.3-2 .9s-.9 1.4-1 2.4v.1h5.7v-.2c0-.9-.2-1.7-.7-2.3-.3-.6-1-.9-2-.9zM102.7 305.2h-2.3v-18.4h2.3v18.4zM108.8 305.2h-2.3v-18.4h2.3v18.4zM114.9 289.2h-2.3v-2.4h2.3v2.4zm0 16h-2.3v-12.7h2.3v12.7zM120.5 292.5l.2 1.9c.4-.7 1-1.2 1.6-1.6s1.4-.6 2.2-.6c1.4 0 2.4.4 3.2 1.2.8.8 1.1 2 1.1 3.7v8h-2.3v-8c0-1.1-.2-1.9-.7-2.4-.4-.5-1.1-.7-2-.7-.7 0-1.3.1-1.8.4-.5.3-.9.7-1.2 1.2v9.5h-2.3v-12.7h2zM131.8 299.1c0-2 .4-3.7 1.3-5 .9-1.3 2.1-1.9 3.7-1.9.8 0 1.5.2 2.1.5.6.3 1.1.8 1.5 1.4l.3-1.7h1.8v12.8c0 1.6-.5 2.9-1.4 3.8-1 .9-2.3 1.3-4.1 1.3-.6 0-1.3-.1-2-.3-.7-.2-1.3-.4-1.9-.7l.4-1.8c.4.2 1 .4 1.6.6.6.1 1.3.2 1.9.2 1.1 0 2-.3 2.5-.8s.8-1.3.8-2.4v-1.4c-.4.5-.9.9-1.5 1.2-.6.3-1.3.4-2 .4-1.6 0-2.8-.6-3.6-1.7-.9-1.1-1.3-2.6-1.3-4.4v-.1zm2.3.2c0 1.3.3 2.3.8 3.1.5.8 1.3 1.2 2.4 1.2.7 0 1.3-.2 1.8-.5s.9-.8 1.2-1.3v-5.9c-.3-.5-.7-1-1.2-1.3-.5-.3-1.1-.5-1.7-.5-1.1 0-1.9.5-2.5 1.4s-.8 2.1-.8 3.6v.2zM162.8 299.3c0 1.8-.4 3.3-1.3 4.4-.9 1.1-2.1 1.7-3.6 1.7-.8 0-1.5-.1-2.1-.4-.6-.3-1.1-.7-1.5-1.2v6.2H152v-17.6h1.8l.4 1.6c.4-.6.9-1.1 1.6-1.4.6-.3 1.3-.5 2.2-.5 1.6 0 2.8.6 3.7 1.9.9 1.3 1.3 2.9 1.3 5v.3zm-2.4-.2c0-1.4-.3-2.6-.9-3.6-.6-.9-1.4-1.4-2.5-1.4-.7 0-1.2.2-1.7.5s-.9.7-1.1 1.2v6.2c.3.5.7.9 1.1 1.2s1 .4 1.7.4c1.1 0 1.9-.4 2.5-1.2.6-.8.8-1.8.8-3.1v-.2zM171.6 294.5l-1.2-.1c-.6 0-1.1.1-1.5.4-.4.3-.7.7-1 1.2v9.1h-2.3v-12.7h2.1l.2 1.9c.4-.7.8-1.2 1.3-1.5.5-.4 1.1-.6 1.8-.6h.5c.2 0 .3.1.4.1l-.3 2.2zM176.6 289.2h-2.3v-2.4h2.3v2.4zm0 16h-2.3v-12.7h2.3v12.7zM185.2 303.7c.7 0 1.3-.2 1.9-.7.5-.5.8-1.1.8-1.8h2.1v.1c0 1.1-.4 2.1-1.4 2.9-1 .9-2.1 1.3-3.4 1.3-1.8 0-3.2-.6-4.1-1.8-1-1.2-1.5-2.7-1.5-4.5v-.5c0-1.8.5-3.3 1.5-4.5s2.4-1.8 4.1-1.8c1.4 0 2.6.4 3.5 1.3.9.9 1.3 2 1.3 3.2v.1h-2.1c0-.8-.3-1.4-.8-2-.5-.5-1.1-.8-1.9-.8-1.1 0-2 .4-2.5 1.3s-.8 2-.8 3.2v.5c0 1.3.3 2.4.8 3.2.5.8 1.4 1.3 2.5 1.3zM198 305.5c-1.8 0-3.3-.6-4.3-1.8-1-1.2-1.5-2.7-1.5-4.6v-.5c0-1.8.5-3.3 1.6-4.5 1.1-1.2 2.3-1.8 3.9-1.8 1.7 0 3 .5 3.8 1.6.9 1.1 1.3 2.5 1.3 4.2v1.2h-8.2v.1c0 1.3.3 2.3.8 3.1.6.8 1.4 1.2 2.6 1.2.8 0 1.5-.1 2.1-.3.6-.2 1.1-.5 1.5-.9l.9 1.5c-.5.4-1.1.8-1.8 1.1-.7.2-1.6.4-2.7.4zm-.3-11.4c-.8 0-1.5.3-2 .9s-.9 1.4-1 2.4v.1h5.7v-.2c0-.9-.2-1.7-.7-2.3s-1.1-.9-2-.9zM218.6 298.9h-7v-1.8h7v1.8zM228.6 305.2V288h5.6c1.8 0 3.2.4 4.2 1.2 1 .8 1.5 1.9 1.5 3.5 0 .7-.2 1.4-.7 2-.5.6-1.1 1-1.8 1.3 1.1.2 2 .6 2.7 1.5.7.8 1 1.8 1 2.9 0 1.6-.5 2.8-1.5 3.6-1 .8-2.4 1.2-4.1 1.2h-6.9zm2.3-9.8h3.8c.9 0 1.6-.2 2.1-.7.5-.5.8-1.1.8-2 0-.9-.3-1.6-.9-2.1-.6-.5-1.4-.7-2.5-.7h-3.3v5.5zm0 1.8v6.2h4.5c1.1 0 1.9-.3 2.5-.8.6-.5.9-1.3.9-2.2 0-1-.3-1.7-.9-2.3s-1.4-.9-2.4-.9H230.9zM246.5 305.2h-2.3V288h2.3v17.2zM250.7 305.2V288h5.4c2.2 0 4 .7 5.4 2.1 1.4 1.4 2 3.2 2 5.3v2.3c0 2.2-.7 4-2 5.3-1.4 1.4-3.2 2.1-5.4 2.1h-5.4zm2.4-15.3v13.5h3.1c1.6 0 2.8-.5 3.8-1.6.9-1 1.4-2.4 1.4-4v-2.4c0-1.6-.5-3-1.4-4-.9-1-2.2-1.6-3.8-1.6h-3.1z"/><g><path class="st9" d="M316.1 392.1c0-.6-.2-1-.6-1.4s-1.2-.7-2.5-.9c-1.7-.4-2.9-.9-3.8-1.5s-1.3-1.5-1.3-2.6c0-1.2.5-2.1 1.5-3 1-.8 2.3-1.2 3.8-1.2 1.6 0 2.9.4 3.9 1.3s1.5 1.9 1.4 3v.1H316c0-.6-.3-1.2-.8-1.7s-1.2-.7-2-.7c-.9 0-1.6.2-2 .6-.4.4-.7.9-.7 1.5s.2 1 .6 1.3c.4.3 1.2.6 2.4.8 1.7.4 3.1.9 4 1.6.9.7 1.3 1.5 1.3 2.6 0 1.3-.5 2.3-1.5 3.1-1 .8-2.3 1.2-4 1.2-1.8 0-3.2-.5-4.3-1.4-1-.9-1.5-2-1.5-3.2v-.1h2.5c0 .9.4 1.6 1 2 .6.4 1.4.6 2.2.6.9 0 1.6-.2 2.2-.6.5-.3.7-.8.7-1.4zM334 389.4c0 2-.5 3.7-1.5 4.9-1 1.3-2.3 1.9-4 1.9-.9 0-1.6-.1-2.3-.4-.7-.3-1.2-.7-1.7-1.3v6.9h-2.6v-19.6h2l.4 1.8c.5-.7 1-1.2 1.7-1.6s1.5-.5 2.4-.5c1.8 0 3.1.7 4.1 2.1 1 1.4 1.5 3.2 1.5 5.5v.3zm-2.6-.3c0-1.6-.3-2.9-.9-4-.6-1-1.6-1.5-2.8-1.5-.7 0-1.4.2-1.9.5s-.9.8-1.3 1.4v6.8c.3.6.7 1 1.3 1.4s1.2.5 1.9.5c1.2 0 2.1-.4 2.8-1.3.6-.9.9-2 .9-3.5v-.3zM343.8 384l-1.3-.1c-.7 0-1.3.2-1.7.5-.5.3-.8.8-1.1 1.4v10.1h-2.6v-14.2h2.3l.2 2.1c.4-.7.9-1.3 1.5-1.7.6-.4 1.3-.6 2-.6h.5c.2 0 .3.1.4.1l-.2 2.4zM352.1 396.2c-2 0-3.6-.6-4.8-1.9-1.1-1.3-1.7-3-1.7-5.1v-.6c0-2 .6-3.7 1.8-5 1.2-1.3 2.6-2 4.3-2 1.9 0 3.3.6 4.3 1.8s1.4 2.7 1.4 4.7v1.4h-9.1v.1c0 1.4.3 2.6.9 3.5.6.9 1.6 1.3 2.9 1.3.9 0 1.6-.1 2.3-.4.7-.2 1.2-.6 1.7-1l1 1.7c-.5.5-1.2.9-2 1.2-.8.1-1.8.3-3 .3zm-.4-12.7c-.9 0-1.6.3-2.2 1-.6.7-.9 1.6-1.1 2.7v.1h6.4v-.2c0-1-.3-1.9-.8-2.6-.4-.6-1.2-1-2.3-1zM369 395.9c-.1-.4-.2-.8-.2-1.1 0-.3-.1-.7-.1-1-.5.7-1.1 1.2-1.9 1.7s-1.6.7-2.5.7c-1.5 0-2.6-.4-3.4-1.1-.8-.8-1.2-1.8-1.2-3.1 0-1.4.5-2.4 1.6-3.2 1.1-.8 2.6-1.1 4.5-1.1h2.8v-1.4c0-.8-.3-1.5-.8-2s-1.2-.7-2.1-.7c-.8 0-1.5.2-2 .6s-.8.9-.8 1.5h-2.4v-.1c-.1-1 .4-2 1.4-2.8 1-.9 2.3-1.3 4-1.3 1.6 0 2.9.4 3.9 1.2 1 .8 1.5 2 1.5 3.5v6.8c0 .5 0 1 .1 1.5s.1.9.3 1.4H369zm-4.3-1.9c.9 0 1.8-.2 2.5-.7s1.2-1 1.5-1.6v-2.3h-2.9c-1 0-1.9.3-2.5.8-.6.5-.9 1.1-.9 1.8 0 .6.2 1.1.6 1.5.4.3.9.5 1.7.5zM374.4 389.1c0-2.3.5-4.1 1.5-5.5 1-1.4 2.3-2.1 4.1-2.1.8 0 1.6.2 2.2.5.6.3 1.2.8 1.6 1.3v-7.8h2.6v20.4h-2l-.4-1.8c-.5.7-1 1.2-1.7 1.5-.7.3-1.5.5-2.4.5-1.7 0-3.1-.6-4.1-1.9-1-1.3-1.5-2.9-1.5-4.9v-.2zm2.6.3c0 1.4.3 2.6.9 3.4.6.9 1.5 1.3 2.7 1.3.8 0 1.4-.2 1.9-.5s1-.8 1.3-1.5v-6.6c-.3-.6-.8-1-1.3-1.4-.5-.3-1.2-.5-1.9-.5-1.2 0-2.2.5-2.7 1.5-.6 1-.9 2.3-.9 4v.3z"/></g><g><path class="st9" d="M427 305.2V288h5.6c1.8 0 3.2.4 4.2 1.2 1 .8 1.5 1.9 1.5 3.5 0 .7-.2 1.4-.7 2-.5.6-1.1 1-1.8 1.3 1.1.2 2 .6 2.7 1.5s1 1.8 1 2.9c0 1.6-.5 2.8-1.5 3.6s-2.4 1.2-4.1 1.2H427zm2.3-9.8h3.8c.9 0 1.6-.2 2.1-.7.5-.5.8-1.1.8-2 0-.9-.3-1.6-.9-2.1-.6-.5-1.4-.7-2.5-.7h-3.3v5.5zm0 1.8v6.2h4.5c1.1 0 1.9-.3 2.5-.8.6-.5.9-1.3.9-2.2 0-1-.3-1.7-.9-2.3-.6-.6-1.4-.9-2.4-.9H429.3zM450.1 303.4c-.4.7-.9 1.2-1.5 1.6s-1.4.6-2.2.6c-1.4 0-2.5-.4-3.3-1.3-.8-.9-1.2-2.3-1.2-4.1v-7.5h2.3v7.5c0 1.4.2 2.3.6 2.8.4.5 1 .8 1.9.8.8 0 1.5-.2 2-.5s.9-.8 1.2-1.4v-9.2h2.3v12.7h-2.1v-2zM459.6 300.5l.4 1.6h.1l3.1-9.6h2.6l-5.4 14.7c-.3.9-.8 1.6-1.4 2.2s-1.4 1-2.4 1c-.2 0-.4 0-.7-.1s-.5-.1-.7-.1l.2-1.8h1c.5 0 .9-.2 1.2-.7.3-.4.6-.9.8-1.5l.6-1.3-4.7-12.5h2.6l2.7 8.1zM470.3 289.2H468v-2.4h2.3v2.4zm0 16H468v-12.7h2.3v12.7zM476 292.5l.2 1.9c.4-.7 1-1.2 1.6-1.6.6-.4 1.4-.6 2.2-.6 1.4 0 2.4.4 3.2 1.2.8.8 1.1 2 1.1 3.7v8H482v-8c0-1.1-.2-1.9-.7-2.4-.4-.5-1.1-.7-2-.7-.7 0-1.3.1-1.8.4-.5.3-.9.7-1.2 1.2v9.5H474v-12.7h2zM487.2 299.1c0-2.1.4-3.7 1.3-5 .9-1.3 2.1-1.9 3.7-1.9.8 0 1.5.2 2.1.5.6.3 1.1.8 1.5 1.4l.3-1.7h1.8v12.8c0 1.6-.5 2.9-1.4 3.8-1 .9-2.3 1.3-4.1 1.3-.6 0-1.3-.1-2-.3s-1.3-.4-1.9-.7l.4-1.8c.4.2 1 .4 1.6.6.6.1 1.3.2 1.9.2 1.1 0 2-.3 2.5-.8s.8-1.3.8-2.4v-1.4c-.4.5-.9.9-1.5 1.2-.6.3-1.3.4-2 .4-1.6 0-2.8-.6-3.6-1.7-.9-1.1-1.3-2.6-1.3-4.4v-.1zm2.3.2c0 1.3.3 2.3.8 3.1.5.8 1.3 1.2 2.4 1.2.7 0 1.3-.2 1.8-.5s.9-.8 1.2-1.3v-5.9c-.3-.5-.7-1-1.2-1.3-.5-.3-1.1-.5-1.7-.5-1.1 0-1.9.5-2.5 1.4s-.8 2.1-.8 3.6v.2zM518.2 299.3c0 1.8-.4 3.3-1.3 4.4-.9 1.1-2.1 1.7-3.6 1.7-.8 0-1.5-.1-2.1-.4-.6-.3-1.1-.7-1.5-1.2v6.2h-2.3v-17.6h1.8l.4 1.6c.4-.6.9-1.1 1.6-1.4.6-.3 1.3-.5 2.2-.5 1.6 0 2.8.6 3.7 1.9.9 1.3 1.3 2.9 1.3 5v.3zm-2.3-.2c0-1.4-.3-2.6-.9-3.6-.6-.9-1.4-1.4-2.5-1.4-.7 0-1.2.2-1.7.5s-.9.7-1.1 1.2v6.2c.3.5.7.9 1.1 1.2.5.3 1 .4 1.7.4 1.1 0 1.9-.4 2.5-1.2.6-.8.8-1.8.8-3.1v-.2zM527.1 294.5l-1.2-.1c-.6 0-1.1.1-1.5.4-.4.3-.7.7-1 1.2v9.1H521v-12.7h2.1l.2 1.9c.4-.7.8-1.2 1.3-1.5.5-.4 1.1-.6 1.8-.6h.5c.2 0 .3.1.4.1l-.2 2.2zM532 289.2h-2.3v-2.4h2.3v2.4zm0 16h-2.3v-12.7h2.3v12.7zM540.6 303.7c.7 0 1.3-.2 1.9-.7.5-.5.8-1.1.8-1.7h2.1v.1c0 1.1-.4 2.1-1.4 2.9-1 .9-2.1 1.3-3.4 1.3-1.8 0-3.2-.6-4.1-1.8-1-1.2-1.5-2.7-1.5-4.5v-.5c0-1.8.5-3.3 1.5-4.5 1-1.2 2.4-1.8 4.1-1.8 1.4 0 2.6.4 3.5 1.3s1.3 2 1.3 3.2v.1h-2.1c0-.8-.3-1.4-.8-2s-1.1-.8-1.9-.8c-1.1 0-2 .4-2.5 1.3s-.8 2-.8 3.2v.5c0 1.3.3 2.4.8 3.2.6.7 1.4 1.2 2.5 1.2zM553.5 305.5c-1.8 0-3.3-.6-4.3-1.8-1-1.2-1.5-2.7-1.5-4.6v-.5c0-1.8.5-3.3 1.6-4.5 1.1-1.2 2.3-1.8 3.9-1.8 1.7 0 3 .5 3.8 1.6.9 1.1 1.3 2.5 1.3 4.2v1.2h-8.2v.1c0 1.3.3 2.3.8 3.1.6.8 1.4 1.2 2.6 1.2.8 0 1.5-.1 2.1-.3.6-.2 1.1-.5 1.5-.9l.9 1.5c-.5.4-1.1.8-1.8 1.1-.8.2-1.7.4-2.7.4zm-.4-11.4c-.8 0-1.5.3-2 .9-.5.6-.9 1.4-1 2.4v.1h5.7v-.2c0-.9-.2-1.7-.7-2.3-.3-.6-1-.9-2-.9zM574.1 298.9h-7v-1.8h7v1.8zM592.9 300.8h-6.5l-1.5 4.4h-2.4l6.2-17.2h2l6.1 17.2h-2.4l-1.5-4.4zm-5.8-1.9h5.1l-2.5-7.4h-.1l-2.5 7.4zM608.4 300.9c0-.8-.3-1.4-.8-2-.6-.5-1.5-1-2.9-1.3-1.7-.4-3.1-1.1-4.1-1.9-1-.8-1.5-1.9-1.5-3.2 0-1.3.5-2.5 1.6-3.4 1.1-.9 2.4-1.3 4.1-1.3 1.8 0 3.2.5 4.3 1.5 1.1 1 1.6 2.2 1.6 3.6v.1h-2.2c0-1-.3-1.8-1-2.4-.7-.6-1.5-1-2.6-1s-1.9.3-2.5.8c-.6.5-.9 1.2-.9 2.1 0 .7.3 1.4.9 1.9.6.5 1.7.9 3.1 1.3 1.7.4 3 1.1 3.9 2 .9.9 1.4 1.9 1.4 3.2 0 1.4-.5 2.5-1.6 3.3-1.1.8-2.5 1.3-4.3 1.3-1.7 0-3.1-.5-4.4-1.4-1.3-.9-1.9-2.2-1.8-3.7v-.1h2.2c0 1.1.4 1.9 1.2 2.5.8.6 1.7.9 2.8.9 1.1 0 2-.2 2.6-.7.6-.6.9-1.2.9-2.1zM617.9 297.5h-1.5v7.8H614v-17.2h2.3v7.6h1.3l6.4-7.6h2.6v.1l-7 8.1 7.4 8.9v.1h-2.8l-6.3-7.8z"/></g><g><path class="st9" d="M231 584.4h-5.9v15.9h-2.4v-15.9h-5.8v-1.9H231v1.9zM235.6 588.9c.5-.6 1-1.1 1.7-1.5.7-.4 1.4-.5 2.2-.5 1.4 0 2.5.4 3.3 1.3s1.2 2.1 1.2 3.9v8.3h-2.4V592c0-1.1-.2-1.9-.7-2.4s-1.2-.8-2.1-.8c-.7 0-1.3.1-1.9.4-.5.3-1 .7-1.3 1.2v9.9h-2.4v-19h2.4v7.6zM252.8 600.6c-1.9 0-3.4-.6-4.4-1.8s-1.6-2.8-1.6-4.8v-.5c0-1.9.5-3.5 1.6-4.7 1.1-1.2 2.4-1.9 4-1.9 1.8 0 3.1.5 4 1.6.9 1.1 1.3 2.6 1.3 4.4v1.3h-8.4v.1c0 1.3.3 2.4.9 3.2s1.5 1.2 2.7 1.2c.8 0 1.5-.1 2.1-.3.6-.2 1.1-.6 1.6-1l.9 1.6c-.5.5-1.1.8-1.9 1.2-.7.2-1.7.4-2.8.4zm-.3-11.9c-.8 0-1.5.3-2.1 1-.5.6-.9 1.5-1 2.5v.1h6v-.2c0-1-.2-1.8-.7-2.4-.5-.7-1.3-1-2.2-1zM274.3 596.7c0-.5-.2-1-.6-1.3-.4-.3-1.2-.6-2.3-.9-1.6-.3-2.7-.8-3.6-1.4s-1.3-1.4-1.3-2.4c0-1.1.5-2 1.4-2.8s2.1-1.1 3.6-1.1 2.7.4 3.6 1.2 1.4 1.8 1.3 2.8v.1h-2.3c0-.6-.3-1.1-.8-1.5s-1.1-.7-1.9-.7c-.8 0-1.5.2-1.9.6s-.6.8-.6 1.4c0 .5.2.9.5 1.2.4.3 1.1.5 2.2.8 1.6.3 2.8.8 3.7 1.5.8.6 1.3 1.4 1.3 2.5 0 1.2-.5 2.1-1.4 2.9s-2.2 1.1-3.7 1.1c-1.7 0-3-.4-4-1.3s-1.4-1.9-1.4-3v-.1h2.3c0 .9.4 1.5 1 1.9.6.4 1.3.6 2.1.6.9 0 1.5-.2 2-.5.6-.5.8-1 .8-1.6zM281.9 587.1l.2 1.7c.4-.6 1-1.1 1.6-1.5.7-.3 1.4-.5 2.3-.5s1.6.2 2.3.6 1.1 1 1.4 1.8c.4-.8 1-1.4 1.7-1.8s1.5-.7 2.4-.7c1.3 0 2.4.5 3.2 1.4s1.2 2.3 1.2 4.2v7.9h-2.4v-7.9c0-1.3-.2-2.2-.7-2.8-.4-.5-1.1-.8-2-.8-.8 0-1.5.3-2 .9s-.8 1.3-.9 2.2v8.5h-2.4v-7.9c0-1.2-.2-2.1-.7-2.7-.5-.6-1.1-.9-2-.9-.7 0-1.3.2-1.8.5s-.8.7-1.1 1.3v9.8h-2.4v-13.2h2.1zM309.7 600.3c-.1-.4-.1-.8-.2-1.1 0-.3-.1-.6-.1-.9-.4.6-1 1.2-1.8 1.6-.7.4-1.5.6-2.3.6-1.4 0-2.4-.4-3.1-1.1-.7-.7-1.1-1.7-1.1-2.9 0-1.3.5-2.2 1.5-3s2.4-1.1 4.2-1.1h2.6v-1.3c0-.8-.2-1.4-.7-1.8-.5-.5-1.1-.7-2-.7-.8 0-1.4.2-1.9.6-.5.4-.7.9-.7 1.4h-2.3v-.1c-.1-1 .4-1.8 1.3-2.6s2.2-1.2 3.7-1.2 2.7.4 3.6 1.1c.9.8 1.4 1.9 1.4 3.3v6.4c0 .5 0 .9.1 1.4s.1.9.3 1.3h-2.5zm-4-1.8c.9 0 1.7-.2 2.4-.7.7-.4 1.2-1 1.4-1.5v-2.1h-2.7c-1 0-1.7.2-2.3.7s-.9 1.1-.9 1.7c0 .6.2 1 .5 1.4s.9.5 1.6.5zM317.9 600.3h-2.4v-19h2.4v19zM324.2 600.3h-2.4v-19h2.4v19zM333.4 600.6c-1.9 0-3.4-.6-4.4-1.8s-1.6-2.8-1.6-4.8v-.5c0-1.9.5-3.5 1.6-4.7 1.1-1.2 2.4-1.9 4-1.9 1.8 0 3.1.5 4 1.6.9 1.1 1.3 2.6 1.3 4.4v1.3h-8.4v.1c0 1.3.3 2.4.9 3.2s1.5 1.2 2.7 1.2c.8 0 1.5-.1 2.1-.3.6-.2 1.1-.6 1.6-1l.9 1.6c-.5.5-1.1.8-1.9 1.2-.8.2-1.7.4-2.8.4zm-.4-11.9c-.8 0-1.5.3-2.1 1-.5.6-.9 1.5-1 2.5v.1h6v-.2c0-1-.2-1.8-.7-2.4-.5-.7-1.2-1-2.2-1zM347.3 589.2l-1.2-.1c-.6 0-1.2.2-1.6.5-.4.3-.8.7-1 1.3v9.4H341v-13.2h2.1l.2 1.9c.4-.7.8-1.2 1.4-1.6.5-.4 1.2-.6 1.9-.6h.5c.2 0 .3.1.4.1l-.2 2.3zM359.3 583.9v3.2h2.5v1.8h-2.5v8c0 .6.1 1.1.4 1.3s.6.4 1 .4c.1 0 .3 0 .5-.1.2 0 .3-.1.4-.1l.3 1.6c-.2.1-.4.3-.8.4-.4.1-.7.1-1 .1-1 0-1.8-.3-2.3-.9-.6-.6-.9-1.5-.9-2.8v-8h-2.1V587h2.1v-3.2h2.4zM366.8 588.9c.5-.6 1-1.1 1.7-1.5.7-.4 1.4-.5 2.2-.5 1.4 0 2.5.4 3.3 1.3s1.2 2.1 1.2 3.9v8.3h-2.4V592c0-1.1-.2-1.9-.7-2.4s-1.2-.8-2.1-.8c-.7 0-1.3.1-1.9.4-.5.3-1 .7-1.3 1.2v9.9h-2.4v-19h2.4v7.6zM384.1 600.6c-1.9 0-3.4-.6-4.4-1.8s-1.6-2.8-1.6-4.8v-.5c0-1.9.5-3.5 1.6-4.7 1.1-1.2 2.4-1.9 4-1.9 1.8 0 3.1.5 4 1.6.9 1.1 1.3 2.6 1.3 4.4v1.3h-8.4v.1c0 1.3.3 2.4.9 3.2s1.5 1.2 2.7 1.2c.8 0 1.5-.1 2.1-.3.6-.2 1.1-.6 1.6-1l.9 1.6c-.5.5-1.1.8-1.9 1.2-.8.2-1.7.4-2.8.4zm-.4-11.9c-.8 0-1.5.3-2.1 1-.5.6-.9 1.5-1 2.5v.1h6v-.2c0-1-.2-1.8-.7-2.4-.5-.7-1.2-1-2.2-1zM405.6 596.7c0-.5-.2-1-.6-1.3-.4-.3-1.2-.6-2.3-.9-1.6-.3-2.7-.8-3.6-1.4s-1.3-1.4-1.3-2.4c0-1.1.5-2 1.4-2.8s2.1-1.1 3.6-1.1 2.7.4 3.6 1.2 1.4 1.8 1.3 2.8v.1h-2.3c0-.6-.3-1.1-.8-1.5s-1.1-.7-1.9-.7c-.8 0-1.5.2-1.9.6s-.6.8-.6 1.4c0 .5.2.9.5 1.2.4.3 1.1.5 2.2.8 1.6.3 2.8.8 3.7 1.5.8.6 1.3 1.4 1.3 2.5 0 1.2-.5 2.1-1.4 2.9s-2.2 1.1-3.7 1.1c-1.7 0-3-.4-4-1.3s-1.4-1.9-1.4-3v-.1h2.3c0 .9.4 1.5 1 1.9.6.4 1.3.6 2.1.6.9 0 1.5-.2 2-.5.6-.5.8-1 .8-1.6zM422.2 594.2c0 1.9-.5 3.4-1.4 4.6-.9 1.2-2.2 1.8-3.8 1.8-.8 0-1.5-.1-2.1-.4s-1.1-.7-1.6-1.2v6.5H411v-18.3h1.8l.4 1.7c.4-.6 1-1.1 1.6-1.5.6-.3 1.4-.5 2.2-.5 1.6 0 2.9.6 3.8 1.9s1.4 3 1.4 5.1v.3zm-2.4-.3c0-1.5-.3-2.7-.9-3.7-.6-1-1.5-1.4-2.6-1.4-.7 0-1.3.2-1.8.5s-.9.7-1.2 1.3v6.4c.3.5.7 1 1.2 1.3.5.3 1.1.5 1.8.5 1.1 0 2-.4 2.6-1.3.6-.8.9-1.9.9-3.2v-.4zM431.4 589.2l-1.2-.1c-.6 0-1.2.2-1.6.5-.4.3-.8.7-1 1.3v9.4h-2.4v-13.2h2.1l.2 1.9c.4-.7.8-1.2 1.4-1.6.5-.4 1.2-.6 1.9-.6h.5c.2 0 .3.1.4.1l-.3 2.3zM439.2 600.6c-1.9 0-3.4-.6-4.4-1.8s-1.6-2.8-1.6-4.8v-.5c0-1.9.5-3.5 1.6-4.7 1.1-1.2 2.4-1.9 4-1.9 1.8 0 3.1.5 4 1.6.9 1.1 1.3 2.6 1.3 4.4v1.3h-8.4v.1c0 1.3.3 2.4.9 3.2s1.5 1.2 2.7 1.2c.8 0 1.5-.1 2.1-.3.6-.2 1.1-.6 1.6-1l.9 1.6c-.5.5-1.1.8-1.9 1.2-.8.2-1.7.4-2.8.4zm-.4-11.9c-.8 0-1.5.3-2.1 1-.5.6-.9 1.5-1 2.5v.1h6v-.2c0-1-.2-1.8-.7-2.4-.5-.7-1.2-1-2.2-1zM454.9 600.3c-.1-.4-.1-.8-.2-1.1 0-.3-.1-.6-.1-.9-.4.6-1 1.2-1.8 1.6-.7.4-1.5.6-2.3.6-1.4 0-2.4-.4-3.1-1.1-.7-.7-1.1-1.7-1.1-2.9 0-1.3.5-2.2 1.5-3s2.4-1.1 4.2-1.1h2.6v-1.3c0-.8-.2-1.4-.7-1.8-.5-.5-1.1-.7-2-.7-.8 0-1.4.2-1.9.6-.5.4-.7.9-.7 1.4H447v-.1c-.1-1 .4-1.8 1.3-2.6s2.2-1.2 3.7-1.2 2.7.4 3.6 1.1c.9.8 1.4 1.9 1.4 3.3v6.4c0 .5 0 .9.1 1.4s.1.9.3 1.3h-2.5zm-4-1.8c.9 0 1.7-.2 2.4-.7.7-.4 1.2-1 1.4-1.5v-2.1H452c-1 0-1.7.2-2.3.7s-.9 1.1-.9 1.7c0 .6.2 1 .5 1.4s.9.5 1.6.5zM460 593.9c0-2.1.5-3.8 1.4-5.1s2.2-2 3.8-2c.8 0 1.5.1 2.1.4.6.3 1.1.7 1.5 1.2v-7.3h2.4v19h-1.8l-.4-1.7c-.4.6-1 1.1-1.6 1.4-.6.3-1.4.5-2.2.5-1.6 0-2.9-.6-3.8-1.8-.9-1.2-1.4-2.7-1.4-4.6zm2.4.3c0 1.3.3 2.4.8 3.2.5.8 1.4 1.2 2.5 1.2.7 0 1.3-.2 1.8-.5s.9-.8 1.2-1.4v-6.2c-.3-.5-.7-1-1.2-1.3s-1.1-.5-1.8-.5c-1.2 0-2 .5-2.6 1.4-.5 1-.8 2.2-.8 3.7v.4zM476.9 599.7l-1.8 3.7h-1.4l.9-3.9v-2h2.4v2.2zM192.5 616.9v3.2h2.5v1.8h-2.5v8c0 .6.1 1.1.4 1.3s.6.4 1 .4c.1 0 .3 0 .5-.1.2 0 .3-.1.4-.1l.3 1.6c-.2.1-.4.3-.8.4-.3.1-.7.1-1 .1-1 0-1.8-.3-2.3-.9-.6-.6-.9-1.5-.9-2.8v-8H188V620h2.1v-3.2h2.4zM200 621.9c.5-.6 1-1.1 1.7-1.5.7-.4 1.4-.5 2.2-.5 1.4 0 2.5.4 3.3 1.3.8.8 1.2 2.1 1.2 3.9v8.3H206V625c0-1.1-.2-1.9-.7-2.4-.5-.5-1.2-.8-2.1-.8-.7 0-1.3.1-1.9.4-.5.3-1 .7-1.3 1.2v9.9h-2.4v-19h2.4v7.6zM217.3 633.6c-1.9 0-3.4-.6-4.4-1.8s-1.6-2.8-1.6-4.8v-.5c0-1.9.5-3.5 1.6-4.7 1.1-1.2 2.4-1.9 4-1.9 1.8 0 3.1.5 4 1.6.9 1.1 1.3 2.6 1.3 4.4v1.3h-8.4v.1c0 1.3.3 2.4.9 3.2s1.5 1.2 2.7 1.2c.8 0 1.5-.1 2.1-.3.6-.2 1.1-.6 1.6-1l.9 1.6c-.5.5-1.1.8-1.9 1.2-.8.2-1.8.4-2.8.4zm-.4-11.9c-.8 0-1.5.3-2.1 1-.5.6-.9 1.5-1 2.5v.1h6v-.2c0-1-.2-1.8-.7-2.4s-1.2-1-2.2-1zM233.2 620.1l.2 1.7c.4-.6 1-1.1 1.6-1.5.7-.3 1.4-.5 2.3-.5s1.6.2 2.3.6c.6.4 1.1 1 1.4 1.8.4-.8 1-1.4 1.7-1.8.7-.4 1.5-.7 2.4-.7 1.3 0 2.4.5 3.2 1.4s1.2 2.3 1.2 4.2v7.9H247v-7.9c0-1.3-.2-2.2-.7-2.8-.4-.5-1.1-.8-2-.8-.8 0-1.5.3-2 .9-.5.6-.8 1.3-.9 2.2v8.5H239v-7.9c0-1.2-.2-2.1-.7-2.7-.5-.6-1.1-.9-2-.9-.7 0-1.3.2-1.8.5s-.8.7-1.1 1.3v9.8H231v-13.2h2.2zM252.4 626.6c0-2 .5-3.6 1.6-4.8s2.5-1.9 4.3-1.9c1.8 0 3.3.6 4.3 1.9 1.1 1.3 1.6 2.9 1.6 4.8v.3c0 2-.5 3.6-1.6 4.8-1.1 1.3-2.5 1.9-4.3 1.9s-3.3-.6-4.3-1.9c-1.1-1.3-1.6-2.9-1.6-4.8v-.3zm2.4.2c0 1.4.3 2.6.9 3.5.6.9 1.5 1.4 2.6 1.4s2-.5 2.6-1.4c.6-.9.9-2.1.9-3.5v-.3c0-1.4-.3-2.5-.9-3.5s-1.5-1.4-2.6-1.4-2 .5-2.6 1.4c-.6.9-.9 2.1-.9 3.5v.3zM273.4 622.2l-1.2-.1c-.6 0-1.2.2-1.6.5-.4.3-.8.7-1 1.3v9.4h-2.4v-13.2h2.1l.2 1.9c.4-.7.8-1.2 1.4-1.6.5-.4 1.2-.6 1.9-.6h.5c.2 0 .3.1.4.1l-.3 2.3zM281.1 633.6c-1.9 0-3.4-.6-4.4-1.8s-1.6-2.8-1.6-4.8v-.5c0-1.9.5-3.5 1.6-4.7 1.1-1.2 2.4-1.9 4-1.9 1.8 0 3.1.5 4 1.6.9 1.1 1.3 2.6 1.3 4.4v1.3h-8.4v.1c0 1.3.3 2.4.9 3.2s1.5 1.2 2.7 1.2c.8 0 1.5-.1 2.1-.3.6-.2 1.1-.6 1.6-1l.9 1.6c-.5.5-1.1.8-1.9 1.2-.7.2-1.7.4-2.8.4zm-.3-11.9c-.8 0-1.5.3-2.1 1-.5.6-.9 1.5-1 2.5v.1h6v-.2c0-1-.2-1.8-.7-2.4s-1.3-1-2.2-1zM297.6 633.3h-2.4v-19h2.4v19zM303.9 616.7h-2.4v-2.5h2.4v2.5zm0 16.6h-2.4v-13.2h2.4v13.2zM307 626.9c0-2.1.5-3.8 1.4-5.1.9-1.3 2.2-2 3.8-2 .8 0 1.5.2 2.1.5.6.3 1.1.7 1.6 1.3l.3-1.5h1.8v18.3h-2.4V632c-.4.5-.9.9-1.5 1.1s-1.2.4-2 .4c-1.6 0-2.9-.6-3.8-1.8s-1.4-2.7-1.4-4.6v-.2zm2.4.3c0 1.3.3 2.4.8 3.2s1.4 1.2 2.5 1.2c.7 0 1.2-.1 1.7-.4.5-.3.9-.7 1.2-1.2v-6.7c-.3-.5-.7-.9-1.2-1.2-.5-.3-1-.4-1.7-.4-1.1 0-2 .5-2.6 1.5-.6 1-.8 2.2-.8 3.7v.3zM330.2 631.3c-.4.7-.9 1.3-1.6 1.6s-1.4.6-2.3.6c-1.4 0-2.6-.5-3.4-1.4s-1.2-2.4-1.2-4.3V620h2.4v7.8c0 1.4.2 2.4.6 2.9s1.1.8 1.9.8c.9 0 1.6-.2 2.1-.5.6-.3 1-.8 1.3-1.5V620h2.4v13.2h-2.2v-1.9zM338.6 616.7h-2.4v-2.5h2.4v2.5zm0 16.6h-2.4v-13.2h2.4v13.2zM341.7 626.9c0-2.1.5-3.8 1.4-5.1.9-1.3 2.2-2 3.8-2 .8 0 1.5.1 2.1.4.6.3 1.1.7 1.5 1.2v-7.3h2.4v19h-1.8l-.4-1.7c-.4.6-1 1.1-1.6 1.4-.6.3-1.4.5-2.2.5-1.6 0-2.9-.6-3.8-1.8s-1.4-2.7-1.4-4.6zm2.4.3c0 1.3.3 2.4.8 3.2.5.8 1.4 1.2 2.5 1.2.7 0 1.3-.2 1.8-.5s.9-.8 1.2-1.4v-6.2c-.3-.5-.7-1-1.2-1.3-.5-.3-1.1-.5-1.8-.5-1.2 0-2 .5-2.6 1.4-.5 1-.8 2.2-.8 3.7v.4zM366 616.9v3.2h2.5v1.8H366v8c0 .6.1 1.1.4 1.3s.6.4 1 .4c.1 0 .3 0 .5-.1.2 0 .3-.1.4-.1l.3 1.6c-.2.1-.4.3-.8.4-.3.1-.7.1-1 .1-1 0-1.8-.3-2.3-.9-.6-.6-.9-1.5-.9-2.8v-8h-2.1V620h2.1v-3.2h2.4zM373.5 621.9c.5-.6 1-1.1 1.7-1.5.7-.4 1.4-.5 2.2-.5 1.4 0 2.5.4 3.3 1.3.8.8 1.2 2.1 1.2 3.9v8.3h-2.4V625c0-1.1-.2-1.9-.7-2.4-.5-.5-1.2-.8-2.1-.8-.7 0-1.3.1-1.9.4-.5.3-1 .7-1.3 1.2v9.9h-2.4v-19h2.4v7.6zM390.8 633.6c-1.9 0-3.4-.6-4.4-1.8s-1.6-2.8-1.6-4.8v-.5c0-1.9.5-3.5 1.6-4.7 1.1-1.2 2.4-1.9 4-1.9 1.8 0 3.1.5 4 1.6.9 1.1 1.3 2.6 1.3 4.4v1.3h-8.4v.1c0 1.3.3 2.4.9 3.2s1.5 1.2 2.7 1.2c.8 0 1.5-.1 2.1-.3.6-.2 1.1-.6 1.6-1l.9 1.6c-.5.5-1.1.8-1.9 1.2-.8.2-1.7.4-2.8.4zm-.4-11.9c-.8 0-1.5.3-2.1 1-.5.6-.9 1.5-1 2.5v.1h6v-.2c0-1-.2-1.8-.7-2.4s-1.2-1-2.2-1zM409.9 631.7c.7 0 1.4-.2 1.9-.7.6-.5.8-1.1.8-1.8h2.2v.1c0 1.1-.5 2.2-1.5 3-1 .9-2.2 1.3-3.5 1.3-1.9 0-3.3-.6-4.3-1.9s-1.5-2.8-1.5-4.7v-.5c0-1.9.5-3.4 1.5-4.7s2.4-1.9 4.3-1.9c1.5 0 2.7.5 3.6 1.4s1.4 2 1.4 3.4v.1h-2.2c0-.8-.3-1.5-.8-2.1-.5-.6-1.2-.8-2-.8-1.2 0-2 .5-2.6 1.4-.5.9-.8 2-.8 3.3v.5c0 1.3.3 2.4.8 3.4.6.7 1.5 1.2 2.7 1.2zM426.1 631.3c-.4.7-.9 1.3-1.6 1.6s-1.4.6-2.3.6c-1.4 0-2.6-.5-3.4-1.4s-1.2-2.4-1.2-4.3V620h2.4v7.8c0 1.4.2 2.4.6 2.9s1.1.8 1.9.8c.9 0 1.6-.2 2.1-.5.6-.3 1-.8 1.3-1.5V620h2.4v13.2h-2.2v-1.9zM438.2 622.2l-1.2-.1c-.6 0-1.2.2-1.6.5-.4.3-.8.7-1 1.3v9.4H432v-13.2h2.1l.2 1.9c.4-.7.8-1.2 1.4-1.6.5-.4 1.2-.6 1.9-.6h.5c.2 0 .3.1.4.1l-.3 2.3zM446.9 622.2l-1.2-.1c-.6 0-1.2.2-1.6.5-.4.3-.8.7-1 1.3v9.4h-2.4v-13.2h2.1l.2 1.9c.4-.7.8-1.2 1.4-1.6.5-.4 1.2-.6 1.9-.6h.5c.2 0 .3.1.4.1l-.3 2.3zM454.7 633.6c-1.9 0-3.4-.6-4.4-1.8s-1.6-2.8-1.6-4.8v-.5c0-1.9.5-3.5 1.6-4.7 1.1-1.2 2.4-1.9 4-1.9 1.8 0 3.1.5 4 1.6.9 1.1 1.3 2.6 1.3 4.4v1.3h-8.4v.1c0 1.3.3 2.4.9 3.2s1.5 1.2 2.7 1.2c.8 0 1.5-.1 2.1-.3.6-.2 1.1-.6 1.6-1l.9 1.6c-.5.5-1.1.8-1.9 1.2-.8.2-1.7.4-2.8.4zm-.4-11.9c-.8 0-1.5.3-2.1 1-.5.6-.9 1.5-1 2.5v.1h6v-.2c0-1-.2-1.8-.7-2.4s-1.2-1-2.2-1zM464.4 620.1l.2 2c.4-.7 1-1.2 1.7-1.6.7-.4 1.4-.6 2.3-.6 1.4 0 2.5.4 3.3 1.3.8.8 1.2 2.1 1.2 3.9v8.3h-2.4V625c0-1.2-.2-2-.7-2.5-.5-.5-1.2-.7-2.1-.7-.7 0-1.4.1-1.9.4-.5.3-.9.7-1.2 1.3v9.8h-2.4v-13.2h2zM481.7 631.7c.7 0 1.4-.2 1.9-.7.6-.5.8-1.1.8-1.8h2.2v.1c0 1.1-.5 2.2-1.5 3-1 .9-2.2 1.3-3.5 1.3-1.9 0-3.3-.6-4.3-1.9s-1.5-2.8-1.5-4.7v-.5c0-1.9.5-3.4 1.5-4.7s2.4-1.9 4.3-1.9c1.5 0 2.7.5 3.6 1.4s1.4 2 1.4 3.4v.1h-2.2c0-.8-.3-1.5-.8-2.1-.5-.6-1.2-.8-2-.8-1.2 0-2 .5-2.6 1.4-.5.9-.8 2-.8 3.3v.5c0 1.3.3 2.4.8 3.4.7.7 1.6 1.2 2.7 1.2zM493.6 628.4l.4 1.7h.1l3.2-10h2.7l-5.6 15.2c-.3.9-.8 1.7-1.4 2.3s-1.5 1-2.5 1c-.2 0-.4 0-.7-.1-.3 0-.5-.1-.7-.1l.2-1.9h1c.5 0 .9-.2 1.3-.7.3-.5.6-1 .8-1.5l.6-1.4-4.9-12.9h2.7l2.8 8.4zM504.9 627.5h-2.4v-11.9h2.4v11.9zm0 5.8h-2.4v-2.5h2.4v2.5z"/></g><g><path class="st9" d="M276.5 215.1h7.7v5.1h-7.7v10.4h9.7v5.1h-15.3V200h15.3v5.1h-9.7v10zM294.9 200v27.5c0 2.5 1.1 3.5 2.9 3.5 1.8 0 2.9-.9 2.9-3.5V200h5.3v27.1c0 5.7-2.9 9-8.4 9s-8.4-3.3-8.4-9V200h5.7zM321.6 235.7c-.3-.9-.5-1.5-.5-4.4v-5.6c0-3.3-1.1-4.5-3.7-4.5h-1.9v14.5h-5.6V200h8.5c5.8 0 8.3 2.7 8.3 8.2v2.8c0 3.7-1.2 6.1-3.7 7.2 2.8 1.2 3.7 3.9 3.7 7.6v5.5c0 1.7.1 3 .6 4.3h-5.7zm-6.1-30.6V216h2.2c2.1 0 3.4-.9 3.4-3.8v-3.5c0-2.5-.9-3.7-2.9-3.7h-2.7zM350.5 200h4.8l-14.1 35.6h-4.8l14.1-35.6zM370.9 200v27.5c0 2.5 1.1 3.5 2.9 3.5s2.9-.9 2.9-3.5V200h5.3v27.1c0 5.7-2.9 9-8.4 9s-8.4-3.3-8.4-9V200h5.7zM393.3 199.6c5.4 0 8.2 3.3 8.2 9v1.1h-5.3v-1.5c0-2.5-1-3.5-2.8-3.5-1.8 0-2.8 1-2.8 3.5 0 7.3 10.9 8.7 10.9 18.9 0 5.7-2.9 9-8.4 9s-8.4-3.3-8.4-9v-2.2h5.3v2.5c0 2.5 1.1 3.5 2.9 3.5 1.8 0 2.9-.9 2.9-3.5 0-7.3-10.9-8.7-10.9-18.9.2-5.6 3-8.9 8.4-8.9zM404.8 200h8.9c5.6 0 8.4 3.1 8.4 8.8v18c0 5.7-2.7 8.8-8.4 8.8h-8.9V200zm5.6 5.1v25.5h3.2c1.8 0 2.9-.9 2.9-3.5v-18.5c0-2.5-1.1-3.5-2.9-3.5h-3.2z"/></g><path id="XMLID_201_" class="st11" d="M635.3 323.7H59.4"/><path id="XMLID_200_" class="st11" d="M635.3 532.6H59.4"/><path id="XMLID_199_" class="st12" d="M121.5 394.2h75.2"/><g id="XMLID_198_"><path class="st10" d="M219.2 396.2h-16.7c-1.1 0-2-.9-2-2s.9-2 2-2h16.7c1.1 0 2 .9 2 2s-.9 2-2 2z"/></g><path id="XMLID_196_" class="st12" d="M476.4 394.2h75.3"/><g id="XMLID_195_"><path class="st10" d="M574.1 396.2h-16.7c-1.1 0-2-.9-2-2s.9-2 2-2h16.7c1.1 0 2 .9 2 2s-.9 2-2 2z"/></g><circle id="XMLID_193_" class="st13" cx="347.2" cy="442.9" r="34.7"/><g><path class="st1" d="M359.8 461.5h-22.6v-4.8l10.2-12.9c1.5-2 2.5-3.6 3.1-5.1.6-1.4.9-2.7.9-3.9 0-1.6-.3-2.9-.9-3.8-.6-.9-1.6-1.4-2.8-1.4-1.3 0-2.4.6-3.1 1.8-.7 1.2-1.1 2.7-1.1 4.6h-7l-.1-.2c-.1-3.3.9-6.1 3-8.4 2.1-2.3 4.8-3.4 8.2-3.4 3.5 0 6.2 1 8.1 2.9 1.9 1.9 2.9 4.6 2.9 7.9 0 2.2-.6 4.3-1.7 6.2-1.1 1.9-3 4.4-5.6 7.6l-5 7.3h13.3v5.6z"/></g><g id="XMLID_187_"><path id="XMLID_190_" class="st14" d="M170.1 408.1v34.8h119.2"/><path id="XMLID_189_" class="st14" d="M170.1 408.1l4.7 4.7"/><path id="XMLID_188_" class="st14" d="M170.1 408.1l-4.6 4.7"/></g><g id="XMLID_169_"><path id="XMLID_186_" class="st14" d="M524.6 408.1v34.8H405.4"/><path id="XMLID_185_" class="st14" d="M524.6 408.1l-4.6 4.7"/><path id="XMLID_170_" class="st14" d="M524.6 408.1l4.6 4.7"/></g><path id="XMLID_156_" class="st15" d="M170.1 459.7v149.2h9.9"/><path id="XMLID_154_" class="st15" d="M524.3 459.7v149.2h-9.9"/></svg>