<svg id="Layer_1" xmlns="http://www.w3.org/2000/svg" viewBox="0 0 695 640.6" style="enable-background:new 0 0 695 640.6"><style>.st0{fill:#fff}.st1{fill:#383938}.st2,.st3,.st4,.st5{fill:none;stroke:#383938;stroke-width:4;stroke-linecap:round;stroke-linejoin:round;stroke-miterlimit:10}.st3,.st4,.st5{stroke:#eaeaea}.st4,.st5{fill:#15b262;stroke:#15b262;stroke-width:3}.st5{fill:#f15a3c;stroke:#f15a3c}</style><path id="XMLID_1526_" class="st0" d="M0-.5h695v640.6H0z"/><path class="st1" d="M94.1 569h1.1c1 0 1.8-.4 1.8-1.9v-14.8h3.1v14.6c0 3.9-2.1 4.9-4.4 4.9-.6 0-1 0-1.5-.1V569zM105 552.3v15c0 1.4.6 1.9 1.6 1.9s1.6-.5 1.6-1.9v-15h2.9v14.8c0 3.1-1.6 4.9-4.6 4.9-3 0-4.6-1.8-4.6-4.9v-14.8h3.1zM115.9 557.6v14.1h-2.8v-19.5h3.8l3.1 11.6v-11.6h2.7v19.5h-3.1l-3.7-14.1zM233 571.7h-3.1l-.5-3.5h-3.8l-.5 3.5h-2.8l3.1-19.5h4.5l3.1 19.5zm-7-6.1h2.9l-1.5-9.8-1.4 9.8zM237.4 552.3v15c0 1.4.6 1.9 1.6 1.9s1.6-.5 1.6-1.9v-15h2.9v14.8c0 3.1-1.6 4.9-4.6 4.9-3 0-4.6-1.8-4.6-4.9v-14.8h3.1zM250.1 560.9h4.3v6.2c0 3.1-1.6 4.9-4.6 4.9-3 0-4.6-1.8-4.6-4.9V557c0-3.1 1.6-4.9 4.6-4.9 3 0 4.6 1.8 4.6 4.9v1.9h-2.9v-2.1c0-1.4-.6-1.9-1.6-1.9s-1.6.5-1.6 1.9v10.5c0 1.4.6 1.9 1.6 1.9s1.6-.5 1.6-1.9v-3.6h-1.4v-2.8zM353.4 557c0-3.1 1.6-4.9 4.6-4.9 3 0 4.6 1.8 4.6 4.9v10.1c0 3.1-1.6 4.9-4.6 4.9-3 0-4.6-1.8-4.6-4.9V557zm3.1 10.3c0 1.4.6 1.9 1.6 1.9s1.6-.5 1.6-1.9v-10.5c0-1.4-.6-1.9-1.6-1.9s-1.6.5-1.6 1.9v10.5zM373.5 564.5v2.6c0 3.1-1.6 4.9-4.6 4.9-3 0-4.6-1.8-4.6-4.9V557c0-3.1 1.6-4.9 4.6-4.9 3 0 4.6 1.8 4.6 4.9v1.9h-2.9v-2.1c0-1.4-.6-1.9-1.6-1.9s-1.6.5-1.6 1.9v10.5c0 1.4.6 1.9 1.6 1.9s1.6-.5 1.6-1.9v-2.8h2.9zM374.5 552.3h9.5v2.8h-3.2v16.7h-3.1v-16.7h-3.2v-2.8zM483.1 552.3h4.8c3.1 0 4.6 1.7 4.6 4.8v9.8c0 3.1-1.5 4.8-4.6 4.8h-4.8v-19.4zm3 2.8V569h1.7c1 0 1.6-.5 1.6-1.9V557c0-1.4-.6-1.9-1.6-1.9h-1.7zM497.5 560.5h4.2v2.8h-4.2v5.7h5.3v2.8h-8.3v-19.5h8.3v2.8h-5.3v5.4zM513.5 564.5v2.6c0 3.1-1.6 4.9-4.6 4.9-3 0-4.6-1.8-4.6-4.9V557c0-3.1 1.6-4.9 4.6-4.9 3 0 4.6 1.8 4.6 4.9v1.9h-2.9v-2.1c0-1.4-.6-1.9-1.6-1.9s-1.6.5-1.6 1.9v10.5c0 1.4.6 1.9 1.6 1.9s1.6-.5 1.6-1.9v-2.8h2.9zM601.8 497c0-2.3 1.2-3.7 3.5-3.7s3.5 1.3 3.5 3.7v7.6c0 2.3-1.2 3.7-3.5 3.7s-3.5-1.3-3.5-3.7V497zm2.3 7.7c0 1 .5 1.4 1.2 1.4s1.2-.4 1.2-1.4v-7.9c0-1-.5-1.4-1.2-1.4s-1.2.4-1.2 1.4v7.9zM612.5 505.9v2.2h-2.2v-2.2h2.2zM614 497.1c0-2.5 1.1-3.8 3.5-3.8 2.3 0 3.4 1.3 3.4 3.7v.4h-2.2v-.5c0-1-.5-1.4-1.2-1.4-.8 0-1.3.4-1.3 1.8v2.7c.4-.8 1.1-1.3 2.1-1.3 1.7 0 2.5 1.2 2.5 3.3v2.7c0 2.3-1.2 3.7-3.5 3.7s-3.5-1.3-3.5-3.7v-7.6zm2.3 5v2.6c0 1 .5 1.4 1.2 1.4s1.2-.4 1.2-1.4v-2.6c0-1-.5-1.4-1.2-1.4s-1.2.4-1.2 1.4zM621.9 503.4l4.2-9.9h2.5v9.9h1.1v2.1h-1.1v2.6h-2.3v-2.6h-4.4v-2.1zm4.4 0v-5.5l-2.3 5.5h2.3zM630.5 497c0-2.3 1.2-3.7 3.5-3.7s3.5 1.3 3.5 3.7v7.6c0 2.3-1.2 3.7-3.5 3.7s-3.5-1.3-3.5-3.7V497zm2.3 7.7c0 1 .5 1.4 1.2 1.4s1.2-.4 1.2-1.4v-7.9c0-1-.5-1.4-1.2-1.4s-1.2.4-1.2 1.4v7.9zM638.7 497c0-2.3 1.2-3.7 3.5-3.7s3.5 1.3 3.5 3.7v7.6c0 2.3-1.2 3.7-3.5 3.7s-3.5-1.3-3.5-3.7V497zm2.3 7.7c0 1 .5 1.4 1.2 1.4s1.2-.4 1.2-1.4v-7.9c0-1-.5-1.4-1.2-1.4s-1.2.4-1.2 1.4v7.9zM601.8 383.5c0-2.3 1.2-3.7 3.5-3.7s3.5 1.3 3.5 3.7v7.6c0 2.3-1.2 3.7-3.5 3.7s-3.5-1.3-3.5-3.7v-7.6zm2.3 7.7c0 1 .5 1.4 1.2 1.4s1.2-.4 1.2-1.4v-7.9c0-1-.5-1.4-1.2-1.4s-1.2.4-1.2 1.4v7.9zM612.5 392.3v2.2h-2.2v-2.2h2.2zM614 383.6c0-2.5 1.1-3.8 3.5-3.8 2.3 0 3.4 1.3 3.4 3.7v.4h-2.2v-.5c0-1-.5-1.4-1.2-1.4-.8 0-1.3.4-1.3 1.8v2.7c.4-.8 1.1-1.3 2.1-1.3 1.7 0 2.5 1.2 2.5 3.3v2.7c0 2.3-1.2 3.7-3.5 3.7s-3.5-1.3-3.5-3.7v-7.6zm2.3 5v2.6c0 1 .5 1.4 1.2 1.4s1.2-.4 1.2-1.4v-2.6c0-1-.5-1.4-1.2-1.4s-1.2.3-1.2 1.4zM629.2 380v2l-3.4 12.6h-2.3l3.4-12.5h-4.6V380h6.9zM630.5 383.5c0-2.3 1.2-3.7 3.5-3.7s3.5 1.3 3.5 3.7v7.6c0 2.3-1.2 3.7-3.5 3.7s-3.5-1.3-3.5-3.7v-7.6zm2.3 7.7c0 1 .5 1.4 1.2 1.4s1.2-.4 1.2-1.4v-7.9c0-1-.5-1.4-1.2-1.4s-1.2.4-1.2 1.4v7.9zM638.7 383.5c0-2.3 1.2-3.7 3.5-3.7s3.5 1.3 3.5 3.7v7.6c0 2.3-1.2 3.7-3.5 3.7s-3.5-1.3-3.5-3.7v-7.6zm2.3 7.7c0 1 .5 1.4 1.2 1.4s1.2-.4 1.2-1.4v-7.9c0-1-.5-1.4-1.2-1.4s-1.2.4-1.2 1.4v7.9zM601.8 272.3c0-2.3 1.2-3.7 3.5-3.7s3.5 1.3 3.5 3.7v7.6c0 2.3-1.2 3.7-3.5 3.7s-3.5-1.3-3.5-3.7v-7.6zm2.3 7.7c0 1 .5 1.4 1.2 1.4s1.2-.4 1.2-1.4v-7.9c0-1-.5-1.4-1.2-1.4s-1.2.4-1.2 1.4v7.9zM612.5 281.1v2.2h-2.2v-2.2h2.2zM620.9 268.8v2l-3.4 12.6h-2.3l3.4-12.5H614v-2.1h6.9zM622.2 272.3c0-2.3 1.2-3.7 3.5-3.7s3.5 1.3 3.5 3.7v7.6c0 2.3-1.2 3.7-3.5 3.7s-3.5-1.3-3.5-3.7v-7.6zm2.3 7.7c0 1 .5 1.4 1.2 1.4s1.2-.4 1.2-1.4v-7.9c0-1-.5-1.4-1.2-1.4s-1.2.4-1.2 1.4v7.9zM630.5 272.3c0-2.3 1.2-3.7 3.5-3.7s3.5 1.3 3.5 3.7v7.6c0 2.3-1.2 3.7-3.5 3.7s-3.5-1.3-3.5-3.7v-7.6zm2.3 7.7c0 1 .5 1.4 1.2 1.4s1.2-.4 1.2-1.4v-7.9c0-1-.5-1.4-1.2-1.4s-1.2.4-1.2 1.4v7.9zM638.7 272.3c0-2.3 1.2-3.7 3.5-3.7s3.5 1.3 3.5 3.7v7.6c0 2.3-1.2 3.7-3.5 3.7s-3.5-1.3-3.5-3.7v-7.6zm2.3 7.7c0 1 .5 1.4 1.2 1.4s1.2-.4 1.2-1.4v-7.9c0-1-.5-1.4-1.2-1.4s-1.2.4-1.2 1.4v7.9zM601.8 161.1c0-2.3 1.2-3.7 3.5-3.7s3.5 1.3 3.5 3.7v7.6c0 2.3-1.2 3.7-3.5 3.7s-3.5-1.3-3.5-3.7v-7.6zm2.3 7.7c0 1 .5 1.4 1.2 1.4s1.2-.4 1.2-1.4v-7.9c0-1-.5-1.4-1.2-1.4s-1.2.4-1.2 1.4v7.9zM612.5 169.9v2.2h-2.2v-2.2h2.2zM620.9 157.6v2l-3.4 12.6h-2.3l3.4-12.5H614v-2.1h6.9zM626.8 161.1c0-1.3-.5-1.7-1.2-1.7s-1.2.4-1.2 1.4v.9h-2.2v-.8c0-2.3 1.2-3.7 3.4-3.7 2.3 0 3.4 1.3 3.4 3.7v.4c0 1.6-.5 2.5-1.6 3 1.1.5 1.6 1.6 1.6 3.1v1.1c0 2.3-1.2 3.7-3.4 3.7-2.3 0-3.4-1.3-3.4-3.7v-1.2h2.2v1.4c0 1 .5 1.4 1.2 1.4s1.2-.4 1.2-1.6v-1.1c0-1.4-.5-1.9-1.5-1.9h-.8v-2.1h.9c.9 0 1.4-.4 1.4-1.5v-.8zM630.5 161.1c0-2.3 1.2-3.7 3.5-3.7s3.5 1.3 3.5 3.7v7.6c0 2.3-1.2 3.7-3.5 3.7s-3.5-1.3-3.5-3.7v-7.6zm2.3 7.7c0 1 .5 1.4 1.2 1.4s1.2-.4 1.2-1.4v-7.9c0-1-.5-1.4-1.2-1.4s-1.2.4-1.2 1.4v7.9zM638.7 161.1c0-2.3 1.2-3.7 3.5-3.7s3.5 1.3 3.5 3.7v7.6c0 2.3-1.2 3.7-3.5 3.7s-3.5-1.3-3.5-3.7v-7.6zm2.3 7.7c0 1 .5 1.4 1.2 1.4s1.2-.4 1.2-1.4v-7.9c0-1-.5-1.4-1.2-1.4s-1.2.4-1.2 1.4v7.9z"/><path id="XMLID_1047_" class="st2" d="M25.5 540.5h644"/><path id="XMLID_1046_" class="st2" d="M25.5 582.2h644"/><g id="XMLID_1009_"><g id="XMLID_1043_"><path id="XMLID_1044_" class="st3" d="M108.9 526.6v-4.7"/></g><g id="XMLID_1041_"><path id="XMLID_1042_" class="st3" d="M108.9 508v-4.6"/></g><g id="XMLID_1039_"><path id="XMLID_1040_" class="st3" d="M108.9 489.5v-4.6"/></g><g id="XMLID_1037_"><path id="XMLID_1038_" class="st3" d="M108.9 471v-4.7"/></g><g id="XMLID_1035_"><path id="XMLID_1036_" class="st3" d="M108.9 452.4v-4.6"/></g><g id="XMLID_1033_"><path id="XMLID_1034_" class="st3" d="M108.9 433.9v-4.6"/></g><g id="XMLID_1031_"><path id="XMLID_1032_" class="st3" d="M108.9 415.4v-4.7"/></g><g id="XMLID_1029_"><path id="XMLID_1030_" class="st3" d="M108.9 396.8v-4.6"/></g><g id="XMLID_1027_"><path id="XMLID_1028_" class="st3" d="M108.9 378.3v-4.6"/></g><g id="XMLID_1024_"><path id="XMLID_1026_" class="st3" d="M108.9 359.8v-4.7"/></g><g id="XMLID_1022_"><path id="XMLID_1023_" class="st3" d="M108.9 341.2v-4.6"/></g><g id="XMLID_1020_"><path id="XMLID_1021_" class="st3" d="M108.9 322.7v-4.6"/></g><g id="XMLID_1018_"><path id="XMLID_1019_" class="st3" d="M108.9 304.2v-4.7"/></g><g id="XMLID_1012_"><path id="XMLID_1017_" class="st3" d="M108.9 285.6V281"/></g><g id="XMLID_1010_"><path id="XMLID_1011_" class="st3" d="M108.9 118.8v-4.6"/></g></g><g id="XMLID_822_"><g id="XMLID_1132_"><path id="XMLID_1133_" class="st3" d="M238.6 526.6v-4.7"/></g><g id="XMLID_1130_"><path id="XMLID_1131_" class="st3" d="M238.6 508v-4.6"/></g><g id="XMLID_1007_"><path id="XMLID_1008_" class="st3" d="M238.6 378.3v-4.6"/></g><g id="XMLID_1005_"><path id="XMLID_1006_" class="st3" d="M238.6 359.8v-4.7"/></g><g id="XMLID_1003_"><path id="XMLID_1004_" class="st3" d="M238.6 341.2v-4.6"/></g><g id="XMLID_982_"><path id="XMLID_1002_" class="st3" d="M238.6 322.7v-4.6"/></g><g id="XMLID_977_"><path id="XMLID_978_" class="st3" d="M238.6 304.2v-4.7"/></g><g id="XMLID_944_"><path id="XMLID_946_" class="st3" d="M238.6 285.6V281"/></g><g id="XMLID_942_"><path id="XMLID_943_" class="st3" d="M238.6 267.1v-4.6"/></g><g id="XMLID_938_"><path id="XMLID_939_" class="st3" d="M238.6 248.6v-4.7"/></g><g id="XMLID_875_"><path id="XMLID_893_" class="st3" d="M238.6 230v-4.6"/></g><g id="XMLID_873_"><path id="XMLID_874_" class="st3" d="M238.6 211.5v-4.6"/></g><g id="XMLID_842_"><path id="XMLID_845_" class="st3" d="M238.6 192.9v-4.6"/></g><g id="XMLID_829_"><path id="XMLID_830_" class="st3" d="M238.6 174.4v-4.6"/></g><g id="XMLID_827_"><path id="XMLID_828_" class="st3" d="M238.6 155.9v-4.7"/></g><g id="XMLID_825_"><path id="XMLID_826_" class="st3" d="M238.6 137.3v-4.6"/></g><g id="XMLID_823_"><path id="XMLID_824_" class="st3" d="M238.6 118.8v-4.6"/></g></g><g id="XMLID_1134_"><g id="XMLID_1179_"><path id="XMLID_1180_" class="st3" d="M368.4 526.6v-4.7"/></g><g id="XMLID_1177_"><path id="XMLID_1178_" class="st3" d="M368.4 508v-4.6"/></g><g id="XMLID_1175_"><path id="XMLID_1176_" class="st3" d="M368.4 489.5v-4.6"/></g><g id="XMLID_1173_"><path id="XMLID_1174_" class="st3" d="M368.4 471v-4.7"/></g><g id="XMLID_820_"><path id="XMLID_821_" class="st3" d="M368.4 359.8v-4.7"/></g><g id="XMLID_791_"><path id="XMLID_811_" class="st3" d="M368.4 341.2v-4.6"/></g><g id="XMLID_1157_"><path id="XMLID_787_" class="st3" d="M368.4 322.7v-4.6"/></g><g id="XMLID_1155_"><path id="XMLID_785_" class="st3" d="M368.4 304.2v-4.7"/></g><g id="XMLID_1153_"><path id="XMLID_775_" class="st3" d="M368.4 285.6V281"/></g><g id="XMLID_774_"><path id="XMLID_1152_" class="st3" d="M368.4 267.1v-4.6"/></g><g id="XMLID_773_"><path id="XMLID_1150_" class="st3" d="M368.4 248.6v-4.7"/></g><g id="XMLID_1147_"><path id="XMLID_1148_" class="st3" d="M368.4 230v-4.6"/></g><g id="XMLID_772_"><path id="XMLID_1146_" class="st3" d="M368.4 211.5v-4.6"/></g><g id="XMLID_770_"><path id="XMLID_771_" class="st3" d="M368.4 192.9v-4.6"/></g><g id="XMLID_768_"><path id="XMLID_769_" class="st3" d="M368.4 174.4v-4.6"/></g><g id="XMLID_766_"><path id="XMLID_767_" class="st3" d="M368.4 155.9v-4.7"/></g><g id="XMLID_764_"><path id="XMLID_765_" class="st3" d="M368.4 137.3v-4.6"/></g><g id="XMLID_1135_"><path id="XMLID_1136_" class="st3" d="M368.4 118.8v-4.6"/></g></g><g id="XMLID_1181_"><g id="XMLID_1226_"><path id="XMLID_1227_" class="st3" d="M498.1 526.6v-4.7"/></g><g id="XMLID_1224_"><path id="XMLID_1225_" class="st3" d="M498.1 508v-4.6"/></g><g id="XMLID_1222_"><path id="XMLID_1223_" class="st3" d="M498.1 489.5v-4.6"/></g><g id="XMLID_1220_"><path id="XMLID_1221_" class="st3" d="M498.1 471v-4.7"/></g><g id="XMLID_1208_"><path id="XMLID_1209_" class="st3" d="M498.1 359.8v-4.7"/></g><g id="XMLID_1206_"><path id="XMLID_1207_" class="st3" d="M498.1 341.2v-4.6"/></g><g id="XMLID_1204_"><path id="XMLID_1205_" class="st3" d="M498.1 322.7v-4.6"/></g><g id="XMLID_1202_"><path id="XMLID_1203_" class="st3" d="M498.1 304.2v-4.7"/></g><g id="XMLID_1200_"><path id="XMLID_1201_" class="st3" d="M498.1 285.6V281"/></g><g id="XMLID_1198_"><path id="XMLID_1199_" class="st3" d="M498.1 267.1v-4.6"/></g><g id="XMLID_1196_"><path id="XMLID_1197_" class="st3" d="M498.1 248.6v-4.7"/></g><g id="XMLID_1194_"><path id="XMLID_1195_" class="st3" d="M498.1 230v-4.6"/></g><g id="XMLID_1192_"><path id="XMLID_1193_" class="st3" d="M498.1 211.5v-4.6"/></g><g id="XMLID_1190_"><path id="XMLID_1191_" class="st3" d="M498.1 192.9v-4.6"/></g><g id="XMLID_1188_"><path id="XMLID_1189_" class="st3" d="M498.1 174.4v-4.6"/></g><g id="XMLID_1186_"><path id="XMLID_1187_" class="st3" d="M498.1 155.9v-4.7"/></g><g id="XMLID_1184_"><path id="XMLID_1185_" class="st3" d="M498.1 137.3v-4.6"/></g><g id="XMLID_1182_"><path id="XMLID_1183_" class="st3" d="M498.1 118.8v-4.6"/></g></g><path id="XMLID_762_" class="st2" d="M583.8 540.5V118.8"/><path id="XMLID_761_" class="st2" d="M583.8 498.8h9.3"/><path id="XMLID_760_" class="st2" d="M583.8 387.6h9.3"/><path id="XMLID_759_" class="st2" d="M583.8 276.4h9.3"/><path id="XMLID_758_" class="st2" d="M583.8 165.1h9.3"/><g id="XMLID_757_"><path id="XMLID_1001_" class="st4" d="M53.3 202.2v-51"/><path id="XMLID_995_" class="st4" d="M48.6 158.2h9.3v13.9h-9.3z"/></g><g id="XMLID_754_"><path id="XMLID_756_" class="st4" d="M71.8 212.6v-69.5"/><path id="XMLID_755_" class="st4" d="M67.2 177.9h9.3v9.3h-9.3z"/></g><g id="XMLID_751_"><path id="XMLID_753_" class="st4" d="M90.3 202.2v-57.9"/><path id="XMLID_752_" class="st4" d="M85.7 153.6H95v23.2h-9.3z"/></g><g id="XMLID_748_"><path id="XMLID_750_" class="st5" d="M108.9 267.1V132.7"/><path id="XMLID_749_" class="st5" d="M104.2 153.6h9.3v37.1h-9.3z"/></g><g id="XMLID_973_"><path id="XMLID_732_" class="st5" d="M127.4 299.5v-139"/><path id="XMLID_980_" class="st5" d="M122.8 186h9.3v101.9h-9.3z"/></g><g id="XMLID_722_"><path id="XMLID_731_" class="st4" d="M146 332v-74.2"/><path id="XMLID_723_" class="st4" d="M141.3 269.4h9.3v18.5h-9.3z"/></g><g id="XMLID_959_"><path id="XMLID_719_" class="st5" d="M164.5 287.9v-60.2"/><path id="XMLID_961_" class="st5" d="M159.9 257.8h9.3V281h-9.3z"/></g><g id="XMLID_956_"><path id="XMLID_958_" class="st4" d="M183 308.8V202.2"/><path id="XMLID_957_" class="st4" d="M178.4 218.4h9.3v60.2h-9.3z"/></g><g id="XMLID_953_"><path id="XMLID_955_" class="st5" d="M201.6 355.1V206.9"/><path id="XMLID_954_" class="st5" d="M196.9 223.1h9.3v125.1h-9.3z"/></g><g id="XMLID_950_"><path id="XMLID_952_" class="st5" d="M220.1 410.7v-74.1"/><path id="XMLID_951_" class="st5" d="M215.5 352.8h9.3v51h-9.3z"/></g><g id="XMLID_945_"><path id="XMLID_949_" class="st5" d="M238.6 489.5v-97.3"/><path id="XMLID_948_" class="st5" d="M234 403.8h9.3v32.4H234z"/></g><g id="XMLID_937_"><path id="XMLID_941_" class="st5" d="M257.2 475.6v-97.3"/><path id="XMLID_940_" class="st5" d="M252.5 431.6h9.3v27.8h-9.3z"/></g><g id="XMLID_934_"><path id="XMLID_936_" class="st4" d="M275.7 466.3v-41.7"/><path id="XMLID_935_" class="st4" d="M271.1 450.1h9.3V464h-9.3z"/></g><g id="XMLID_931_"><path id="XMLID_933_" class="st4" d="M294.2 503.4V396.8"/><path id="XMLID_932_" class="st4" d="M289.6 422.3h9.3v46.3h-9.3z"/></g><g id="XMLID_910_"><path id="XMLID_918_" class="st4" d="M312.8 461.7v-88"/><path id="XMLID_915_" class="st4" d="M308.1 408.4h9.3v27.8h-9.3z"/></g><g id="XMLID_907_"><path id="XMLID_909_" class="st5" d="M331.3 471v-78.8"/><path id="XMLID_908_" class="st5" d="M326.7 408.4h9.3V464h-9.3z"/></g><g id="XMLID_885_"><path id="XMLID_906_" class="st4" d="M349.8 461.7v-69.5"/><path id="XMLID_892_" class="st4" d="M345.2 408.4h9.3v46.3h-9.3z"/></g><g id="XMLID_882_"><path id="XMLID_884_" class="st4" d="M368.4 452.4v-78.7"/><path id="XMLID_883_" class="st4" d="M363.7 389.9h9.3v18.5h-9.3z"/></g><g id="XMLID_879_"><path id="XMLID_881_" class="st4" d="M386.9 424.6V322.7"/><path id="XMLID_880_" class="st4" d="M382.3 329.6h9.3v60.2h-9.3z"/></g><g id="XMLID_876_"><path id="XMLID_878_" class="st5" d="M405.4 387.6v-88.1"/><path id="XMLID_877_" class="st5" d="M400.8 334.3h9.3v46.3h-9.3z"/></g><g id="XMLID_862_"><path id="XMLID_868_" class="st5" d="M424 475.6v-92.7"/><path id="XMLID_863_" class="st5" d="M419.3 385.2h9.3v74.1h-9.3z"/></g><g id="XMLID_837_"><path id="XMLID_860_" class="st4" d="M442.5 498.8V355.1"/><path id="XMLID_859_" class="st4" d="M437.9 376h9.3v101.9h-9.3z"/></g><g id="XMLID_834_"><path id="XMLID_836_" class="st5" d="M461 461.7V369"/><path id="XMLID_835_" class="st5" d="M456.4 376h9.3v69.5h-9.3z"/></g><g id="XMLID_818_"><path id="XMLID_833_" class="st4" d="M479.6 471v-83.4"/><path id="XMLID_831_" class="st4" d="M474.9 408.4h9.3v41.7h-9.3z"/></g><g id="XMLID_815_"><path id="XMLID_817_" class="st5" d="M498.1 452.4v-78.7"/><path id="XMLID_816_" class="st5" d="M493.5 408.4h9.3v13.9h-9.3z"/></g><g id="XMLID_746_"><path id="XMLID_718_" class="st5" d="M516.6 512.7V406.1"/><path id="XMLID_747_" class="st5" d="M512 422.3h9.3v88H512z"/></g><g id="XMLID_715_"><path id="XMLID_717_" class="st4" d="M535.2 526.6V420"/><path id="XMLID_716_" class="st4" d="M530.5 440.8h9.3v69.5h-9.3z"/></g><g id="XMLID_712_"><path id="XMLID_714_" class="st4" d="M553.7 461.7v-74.1"/><path id="XMLID_713_" class="st4" d="M549.1 413h9.3v32.4h-9.3z"/></g><g><path class="st1" d="M37.6 51.1h5.2v3.5h-5.2v7.1h6.6v3.5H33.7V40.8h10.4v3.5h-6.6v6.8zM50.2 40.8v18.8c0 1.7.8 2.4 2 2.4s2-.6 2-2.4V40.8h3.6v18.5c0 3.9-1.9 6.1-5.7 6.1s-5.7-2.2-5.7-6.1V40.8h3.8zM68.4 65.2c-.2-.6-.3-1-.3-3v-3.8c0-2.3-.8-3.1-2.5-3.1h-1.3v9.9h-3.8V40.8h5.8c4 0 5.7 1.8 5.7 5.6v1.9c0 2.5-.8 4.1-2.5 4.9 1.9.8 2.5 2.6 2.5 5.2v3.8c0 1.2 0 2 .4 3h-4zm-4.2-20.9v7.5h1.5c1.4 0 2.3-.6 2.3-2.6v-2.4c0-1.7-.6-2.5-1.9-2.5h-1.9zM82.7 40.8H86l-9.6 24.3h-3.3l9.6-24.3zM91.2 40.8v18.8c0 1.7.8 2.4 2 2.4s2-.6 2-2.4V40.8h3.6v18.5c0 3.9-1.9 6.1-5.7 6.1s-5.7-2.2-5.7-6.1V40.8h3.8zM106.5 40.6c3.7 0 5.6 2.2 5.6 6.1v.8h-3.6v-1c0-1.7-.7-2.4-1.9-2.4s-1.9.7-1.9 2.4c0 5 7.5 5.9 7.5 12.9 0 3.9-1.9 6.1-5.7 6.1-3.8 0-5.7-2.2-5.7-6.1v-1.5h3.6v1.7c0 1.7.8 2.4 2 2.4s2-.6 2-2.4c0-5-7.5-5.9-7.5-12.9 0-3.9 1.9-6.1 5.6-6.1zM114.4 40.8h6c3.8 0 5.7 2.1 5.7 6v12.3c0 3.9-1.9 6-5.7 6h-6V40.8zm3.8 3.5v17.4h2.2c1.2 0 1.9-.6 1.9-2.4V46.7c0-1.7-.7-2.4-1.9-2.4h-2.2z"/></g><path class="st2" d="M32.4 73.2H146"/></svg>