<?xml version="1.0"?>
<svg xmlns:xlink="http://www.w3.org/1999/xlink" xmlns="http://www.w3.org/2000/svg" baseProfile="basic" width="695" height="463" viewBox="0 0 695 463" image-rendering="optimizeSpeed" preserveAspectRatio="xMinYMin meet"><defs><symbol id="a" overflow="visible"><path fill="none" stroke="#1A344F" stroke-width="2.5" stroke-linecap="round" stroke-linejoin="round" d="M47.051 215.501q1.65 0 2.85-1.15 1.15-1.2 1.15-2.85v-5.25h-23.2v5.25q0 1.65 1.2 2.85 1.15 1.15 2.8 1.15h15.2"/></symbol><symbol id="b" overflow="visible"><path fill="#E66C6C" stroke="#1A344F" stroke-width="2.5" stroke-linecap="round" stroke-linejoin="round" d="M-89.149 217.401q0 5 3.55 8.5 3.5 3.5 8.45 3.5h154.4q5 0 8.5-3.5t3.5-8.5v-1.9h-178.4v1.9"/></symbol></defs><g overflow="visible"><path fill="#F9F9F9" d="M.051.051v463.4h695.05V.051H.051"/><path fill="none" stroke="#1A344F" stroke-width="2.5" stroke-linecap="round" stroke-linejoin="round" d="M25.551 421.601h644.05M347.601 118.951v284.25"/><path fill="#7AC7EE" stroke="#1A344F" stroke-width="2.5" stroke-linecap="round" stroke-linejoin="round" d="M347.601 40.201l-11.6 18.55v325.9h23.15v-325.9l-11.55-18.55M301.251 403.201l-13.9 18.5h120.45l-13.9-18.5h-92.65"/><path fill="#5CB7E9" stroke="#1A344F" stroke-width="2.5" stroke-linecap="round" stroke-linejoin="round" d="M380.001 403.201l-13.9-18.55h-37.05l-13.9 18.55h64.85"/><path fill="#6BA8CE" d="M338.751 384.651h-9.7l-13.9 18.55h44l-20.4-18.55M301.251 403.201l-13.9 18.5 78.9-.35-21-18.15h-44"/><path fill="none" stroke="#1A344F" stroke-width="2.5" stroke-linecap="round" stroke-linejoin="round" d="M301.251 403.201l-13.9 18.5h120.45l-13.9-18.5h-92.65M380.001 403.201l-13.9-18.55h-37.05l-13.9 18.55h64.85"/><path fill="#6BA8CE" d="M337.001 161.851v23.15l21.15-18.55v-4.6h-21.15"/><path fill="none" stroke="#1A344F" stroke-width="2.5" stroke-linecap="round" stroke-linejoin="round" d="M359.151 68.001h-23.15M359.151 77.251h-23.15"/><g transform="translate(347.5 124.7)"><animateTransform attributeName="transform" additive="replace" type="translate" dur="3.708s" keyTimes="0;1" values="0,0;0,0" fill="freeze"/><animateTransform attributeName="transform" additive="sum" type="translate" repeatCount="indefinite" dur="3.708s" keyTimes="0;0.067;0.079;0.09;0.101;0.112;0.124;0.135;0.146;0.157;0.169;0.18;0.191;0.202;0.214;0.225;0.236;0.247;0.258;0.27;0.281;0.292;0.303;0.315;0.326;0.337;0.348;0.36;0.371;0.381;0.382;1" values="347.5,124.7;347.5,124.7;347.5,124.75;347.5,124.7;347.5,124.7;347.5,124.75;347.5,124.7;347.55,124.65;347.55,124.7;347.55,124.7;347.55,124.65;347.55,124.65;347.55,124.7;347.55,124.7;347.6,124.7;347.55,124.7;347.55,124.7;347.5,124.7;347.45,124.65;347.45,124.7;347.45,124.65;347.5,124.7;347.45,124.7;347.4,124.7;347.5,124.7;347.45,124.7;347.4,124.7;347.45,124.65;347.45,124.7;347.45,124.7;0;0" calcMode="discrete"/><animateTransform attributeName="transform" additive="sum" type="translate" repeatCount="indefinite" dur="3.708s" keyTimes="0;0.382;0.393;0.405;0.427;0.438;0.461;0.472;0.483;0.494;0.506;0.517;0.528;0.539;0.551;0.562;0.573;0.584;0.596;0.607;0.618;0.629;0.641;0.652;0.663;0.674;0.685;0.697;0.708;0.718;0.719;1" values="0;347.45,124.7;347.5,124.7;347.45,124.7;347.45,124.7;347.5,124.7;347.5,124.7;347.5,124.65;347.45,124.7;347.5,124.7;347.45,124.75;347.5,124.65;347.5,124.7;347.5,124.7;347.55,124.7;347.5,124.75;347.5,124.7;347.45,124.7;347.5,124.7;347.5,124.7;347.45,124.7;347.45,124.75;347.45,124.7;347.5,124.7;347.45,124.7;347.45,124.7;347.45,124.65;347.55,124.7;347.45,124.7;347.5,124.65;0;0" calcMode="discrete"/><animateTransform attributeName="transform" additive="sum" type="translate" repeatCount="indefinite" dur="3.708s" keyTimes="0;0.719;0.73;1" values="0;347.5,124.65;347.5,124.7;347.5,124.7" calcMode="discrete"/><animateTransform attributeName="transform" additive="sum" type="rotate" repeatCount="indefinite" dur="3.708s" keyTimes="0;0.011;0.022;0.034;0.045;0.056;0.067;0.079;0.09;0.101;0.112;0.124;0.135;0.146;0.157;0.169;0.18;0.191;0.202;0.214;0.225;0.236;0.247;0.258;0.27;0.281;0.292;0.303;0.315;0.325;0.326;1" values="0,0,0;-0.305,0,0;-0.798,0,0;-1.291,0,0;-1.785,0,0;-2.277,0,0;-2.771,0,0;-3.264,0,0;-3.757,0,0;-4.062,0,0;-4.556,0,0;-5.192,0,0;-2.777,0,0;-0.506,0,0;1.765,0,0;4.037,0,0;6.309,0,0;8.77,0,0;11.044,0,0;13.317,0,0;15.781,0,0;18.055,0,0;20.484,0,0;20.578,0,0;20.823,0,0;21.071,0,0;21.317,0,0;21.564,0,0;21.811,0,0;22.057,0,0;0;0" calcMode="discrete"/><animateTransform attributeName="transform" additive="sum" type="rotate" repeatCount="indefinite" dur="3.708s" keyTimes="0;0.326;0.337;0.348;0.36;0.371;0.381;0.382;1" values="0;22.057,0,0;22.303,0,0;22.549,0,0;22.796,0,0;23.043,0,0;23.289,0,0;0;0" calcMode="discrete"/><animateTransform attributeName="transform" additive="sum" type="rotate" repeatCount="indefinite" dur="3.708s" keyTimes="0;0.382;0.393;0.405;0.416;0.427;0.438;0.449;0.461;0.472;0.483;0.494;0.506;0.517;0.528;0.539;0.551;0.562;0.573;0.584;0.596;0.607;0.618;0.629;0.641;0.652;0.663;0.674;0.685;0.696;0.697;1" values="0;23.289,0,0;23.535,0,0;23.783,0,0;23.841,0,0;24.089,0,0;24.463,0,0;22.573,0,0;20.812,0,0;19.052,0,0;17.292,0,0;15.531,0,0;13.772,0,0;12.012,0,0;10.065,0,0;8.305,0,0;6.547,0,0;4.789,0,0;3.031,0,0;1.274,0,0;-0.296,0,0;-2.214,0,0;-2.003,0,0;-1.765,0,0;-1.528,0,0;-1.289,0,0;-1.052,0,0;-1.002,0,0;-0.763,0,0;-0.526,0,0;0;0" calcMode="discrete"/><animateTransform attributeName="transform" additive="sum" type="rotate" repeatCount="indefinite" dur="3.708s" keyTimes="0;0.697;0.708;0.718;0.719;1" values="0;-0.526,0,0;-0.289,0,0;-0.051,0,0;0;0" calcMode="discrete"/><animateTransform attributeName="transform" additive="sum" type="rotate" repeatCount="indefinite" dur="3.708s" keyTimes="0;0.719;0.73;1" values="0;-0.051,0,0;0,0,0;0,0,0" calcMode="discrete"/><animateTransform attributeName="transform" additive="sum" type="scale" repeatCount="indefinite" dur="3.708s" keyTimes="0;0.101;0.112;0.124;0.169;0.18;0.202;0.214;0.236;0.247;0.258;0.325;0.326;1" values="1,1;1,1;0.999,0.999;1,1;1,1;0.999,0.999;0.999,0.999;0.998,0.998;0.998,0.998;0.999,0.999;0.998,0.998;0.998,0.998;1;1" calcMode="discrete"/><animateTransform attributeName="transform" additive="sum" type="scale" repeatCount="indefinite" dur="3.708s" keyTimes="0;0.326;0.381;0.382;1" values="1;0.998,0.998;0.998,0.998;1;1" calcMode="discrete"/><animateTransform attributeName="transform" additive="sum" type="scale" repeatCount="indefinite" dur="3.708s" keyTimes="0;0.382;0.427;0.438;0.449;0.506;0.517;0.562;0.573;0.696;0.697;1" values="1;0.998,0.998;0.998,0.998;0.999,0.999;0.998,0.998;0.998,0.998;0.999,0.999;0.999,0.999;1,1;1,1;1;1" calcMode="discrete"/><path fill="none" stroke="#1A344F" stroke-width="2.5" stroke-linecap="round" stroke-linejoin="round" d="M-185.249 37.151L.101.051M.101.051l185.3-37.05"/></g><g transform="translate(532.85 80.7)"><animateTransform attributeName="transform" additive="replace" type="translate" dur="3.708s" keyTimes="0;1" values="0,0;0,0" fill="freeze"/><animateTransform attributeName="transform" additive="sum" type="translate" repeatCount="indefinite" dur="3.708s" keyTimes="0;0.011;0.022;0.034;0.045;0.056;0.067;0.079;0.09;0.101;0.112;0.124;0.135;0.146;0.157;0.169;0.18;0.191;0.202;0.214;0.225;0.236;0.247;0.258;0.27;0.281;0.292;0.303;0.315;0.325;0.326;1" values="532.85,80.7;532.85,79.25;532.85,77.8;532.85,76.35;532.85,74.9;532.85,73.45;532.85,71.95;532.85,70.5;532.85,69.05;532.85,67.6;532.85,66.15;532.85,64.7;532.85,72.25;532.85,79.75;532.85,87.3;532.85,94.85;532.85,102.35;532.85,109.9;532.85,117.4;532.85,124.95;532.85,132.5;532.85,140;532.85,147.55;532.85,148.35;532.85,149.1;532.85,149.9;532.85,150.65;532.85,151.45;532.85,152.25;532.85,153;0;0" calcMode="discrete"/><animateTransform attributeName="transform" additive="sum" type="translate" repeatCount="indefinite" dur="3.708s" keyTimes="0;0.326;0.337;0.348;0.36;0.371;0.382;0.393;0.405;0.416;0.427;0.438;0.449;0.461;0.472;0.483;0.494;0.506;0.517;0.528;0.539;0.551;0.562;0.573;0.584;0.596;0.607;0.618;0.629;0.64;0.641;1" values="0;532.85,153;532.85,153.8;532.85,154.55;532.85,155.35;532.85,156.1;532.85,156.9;532.85,157.7;532.85,158.45;532.85,159.25;532.85,160;532.85,160.8;532.85,155.05;532.85,149.3;532.85,143.6;532.85,137.85;532.85,132.1;532.85,126.35;532.85,120.6;532.85,114.9;532.85,109.15;532.85,103.4;532.85,97.65;532.85,91.9;532.85,86.2;532.85,80.45;532.85,74.7;532.85,75.25;532.85,75.8;532.85,76.35;0;0" calcMode="discrete"/><animateTransform attributeName="transform" additive="sum" type="translate" repeatCount="indefinite" dur="3.708s" keyTimes="0;0.641;0.652;0.663;0.674;0.685;0.697;0.708;0.719;0.73;1" values="0;532.85,76.35;532.85,76.9;532.85,77.45;532.85,77.95;532.85,78.5;532.85,79.05;532.85,79.6;532.85,80.15;532.85,80.7;532.85,80.7" calcMode="discrete"/><path fill="#CCC" stroke="#1A344F" stroke-width="2.5" stroke-linecap="round" stroke-linejoin="round" d="M-65.899 70.751q-3.55 3.5-3.55 8.5v115q0 4.95 3.55 8.5 3.5 3.5 8.45 3.5h115q5 0 8.5-3.5 3.5-3.55 3.5-8.5v-115q0-5-3.5-8.5t-8.5-3.5h-115q-4.95 0-8.45 3.5"/><path fill="#CCC" stroke="#1A344F" stroke-width="2.5" stroke-linecap="round" stroke-linejoin="round" d="M-50.899 85.751v101.95h101.95V85.751h-101.95"/><path fill="#AEACAD" d="M-35.799 85.751h-15.1v101.95l101.95-1.55v-17q-45.1-4.8-70.5-44.55-7.9-12.45-12.95-26.9l-3.4-11.95"/><path fill="none" stroke="#1A344F" stroke-width="2.5" stroke-linecap="round" stroke-linejoin="round" d="M-50.899 85.751v101.95h101.95V85.751h-101.95"/><path fill="#E9EDEA" stroke="#1A344F" stroke-width="2.5" stroke-linecap="round" stroke-linejoin="round" d="M-16.299 120.351q-6.8 6.8-6.8 16.4 0 9.55 6.8 16.35 6.75 6.8 16.35 6.8 9.6 0 16.4-6.8 6.8-6.8 6.8-16.35 0-9.6-6.8-16.4-6.8-6.8-16.4-6.8-9.6 0-16.35 6.8"/><path fill="none" stroke="#1A344F" stroke-width="2.5" stroke-linecap="round" stroke-linejoin="round" d="M-13.849 136.751h27.8M-9.749 126.901l19.65 19.65M.051 122.851v27.8M9.901 126.901l-19.65 19.65"/><path fill="#CCC" stroke="#1A344F" stroke-width="2.5" stroke-linecap="round" stroke-linejoin="round" d="M9.351 136.751q0-3.85-2.7-6.6-2.75-2.7-6.6-2.7-3.85 0-6.55 2.7-2.7 2.75-2.7 6.6 0 3.85 2.7 6.55 2.75 2.7 6.55 2.7 3.85 0 6.6-2.7 2.7-2.7 2.7-6.55M-31.749 215.501q1.7 0 2.85-1.15 1.15-1.2 1.15-2.85v-5.25h-23.15v5.25q0 1.65 1.2 2.85 1.15 1.15 2.8 1.15h15.15M47.051 215.501q1.65 0 2.85-1.15 1.15-1.2 1.15-2.85v-5.25h-23.2v5.25q0 1.65 1.2 2.85 1.15 1.15 2.8 1.15h15.2"/><path fill="#AEACAD" d="M35.001 206.251h-7.15l.6 9.25h22.6v-4q-4.55.65-10.75-2.25l-5.3-3"/><use xlink:href="#a"/><use xlink:href="#b"/><use xlink:href="#b"/><path fill="none" stroke="#1A344F" stroke-width="2.5" stroke-linecap="round" stroke-linejoin="round" d="M83.451 215.501v-162.2M-87.949 53.301h9.25l78.75-27.8 78.8 27.8h9.25M.051 25.501v-18.5M-83.349 215.501v-162.2"/><path fill="#ACD28D" stroke="#1A344F" stroke-width="2.5" stroke-linecap="round" stroke-linejoin="round" d="M7.001 7.001q0-2.9-2.05-4.9-2-2.05-4.9-2.05-2.85 0-4.9 2.05-2.05 2-2.05 4.9 0 2.9 2.05 4.9 2.05 2.05 4.9 2.05 2.9 0 4.9-2.05 2.05-2 2.05-4.9"/><path fill="#BE4D4E" d="M-70.399 215.501q-15 .15-18.7 0-.45 6.75 5.75 11 3.1 2.15 6.25 2.9l34.45-.05q39.9-.35 67.05-1.7-40.7-.4-71.85-6.3-9.7-1.85-17.3-4.05l-5.65-1.8"/><path fill="none" stroke="#1A344F" stroke-width="2.5" stroke-linecap="round" stroke-linejoin="round" d="M-89.149 217.401q0 5 3.55 8.5 3.5 3.5 8.45 3.5h154.4q5 0 8.5-3.5t3.5-8.5v-1.9h-178.4v1.9"/><path fill="#AEACAD" d="M-43.799 206.251h-7.1l.6 9.25h22.55v-4q-4.55.65-10.75-2.25l-5.3-3"/><path fill="none" stroke="#1A344F" stroke-width="2.5" stroke-linecap="round" stroke-linejoin="round" d="M-31.749 215.501q1.7 0 2.85-1.15 1.15-1.2 1.15-2.85v-5.25h-23.15v5.25q0 1.65 1.2 2.85 1.15 1.15 2.8 1.15h15.15"/><use xlink:href="#a"/><path fill="#E9EDEA" stroke="#1A344F" stroke-width="2.5" stroke-linecap="round" stroke-linejoin="round" d="M-45.099 164.651v-9.5q0-1.85-1.3-3.2-1.3-1.3-3.2-1.3h-1.45q-1.85 0-3.15 1.3-1.35 1.35-1.35 3.2v9.5q0 1.85 1.35 3.2 1.3 1.3 3.15 1.3h1.45q1.9 0 3.2-1.3 1.3-1.3 1.3-3.2M-54.199 105.601q-1.35 1.35-1.35 3.2v9.55q0 1.85 1.35 3.15 1.3 1.35 3.15 1.35h1.45q1.85 0 3.2-1.35 1.3-1.3 1.3-3.15v-9.55q0-1.85-1.3-3.2-1.3-1.3-3.2-1.3h-1.45q-1.85 0-3.15 1.3"/></g><g transform="translate(162.15 154.85)"><animateTransform attributeName="transform" additive="replace" type="translate" dur="3.708s" keyTimes="0;1" values="0,0;0,0" fill="freeze"/><animateTransform attributeName="transform" additive="sum" type="translate" repeatCount="indefinite" dur="3.708s" keyTimes="0;0.011;0.022;0.034;0.045;0.056;0.067;0.079;0.09;0.101;0.112;0.124;0.135;0.146;0.157;0.169;0.18;0.191;0.202;0.214;0.225;0.236;0.247;0.258;0.27;0.281;0.292;0.303;0.315;0.325;0.326;1" values="162.15,154.85;162.15,156.55;162.15,158.3;162.15,160;162.15,161.75;162.15,163.45;162.15,165.2;162.15,166.9;162.15,168.65;162.15,170.35;162.15,172.1;162.15,173.8;162.15,166.25;162.15,158.7;162.15,151.2;162.15,143.65;162.15,136.1;162.15,128.55;162.15,121;162.15,113.45;162.15,105.95;162.15,98.4;162.15,90.85;162.15,90;162.15,89.15;162.15,88.25;162.15,87.4;162.15,86.55;162.15,85.7;162.15,84.8;0;0" calcMode="discrete"/><animateTransform attributeName="transform" additive="sum" type="translate" repeatCount="indefinite" dur="3.708s" keyTimes="0;0.326;0.337;0.348;0.36;0.371;0.382;0.393;0.405;0.416;0.427;0.438;0.449;0.461;0.472;0.483;0.494;0.506;0.517;0.528;0.539;0.551;0.562;0.573;0.584;0.596;0.607;0.618;0.629;0.64;0.641;1" values="0;162.15,84.8;162.15,83.95;162.15,83.1;162.15,82.25;162.15,81.35;162.15,80.5;162.15,79.65;162.15,78.8;162.15,77.9;162.15,77.05;162.15,76.2;162.15,82;162.15,87.75;162.15,93.55;162.15,99.3;162.15,105.1;162.15,110.85;162.15,116.65;162.15,122.4;162.15,128.2;162.15,133.95;162.15,139.75;162.15,145.5;162.15,151.3;162.15,157.05;162.15,162.85;162.15,162.1;162.15,161.4;162.15,160.65;0;0" calcMode="discrete"/><animateTransform attributeName="transform" additive="sum" type="translate" repeatCount="indefinite" dur="3.708s" keyTimes="0;0.641;0.652;0.663;0.674;0.685;0.697;0.708;0.719;0.73;1" values="0;162.15,160.65;162.15,159.95;162.15,159.2;162.15,158.5;162.15,157.75;162.15,157.05;162.15,156.3;162.15,155.6;162.15,154.85;162.15,154.85" calcMode="discrete"/><path fill="#E66C6C" stroke="#1A344F" stroke-width="2.5" stroke-linecap="round" stroke-linejoin="round" d="M-89.099 215.501v1.9q0 4.95 3.5 8.5 3.5 3.5 8.5 3.5h154.4q4.95 0 8.5-3.5 3.5-3.55 3.5-8.5v-1.9h-178.4"/><path fill="none" stroke="#1A344F" stroke-width="2.5" stroke-linecap="round" stroke-linejoin="round" d="M-83.299 215.501v-162.2M83.501 215.501v-162.2M-87.949 53.301h9.25l78.8-27.8 78.75 27.8h9.25"/><path fill="#F0B971" stroke="#1A344F" stroke-width="2.5" stroke-linecap="round" stroke-linejoin="round" d="M-26.149 152.201q-10.85 10.85-10.85 26.2 0 15.4 10.85 26.25 10.9 10.85 26.25 10.85t26.2-10.85q10.85-10.9 10.85-26.25t-10.85-26.2q-10.85-10.85-26.2-10.85t-26.25 10.85"/><path fill="#ECB069" stroke="#1A344F" stroke-width="2.5" stroke-linecap="round" stroke-linejoin="round" d="M24.401 178.401q0-10.05-7.1-17.15-7.15-7.15-17.2-7.15-10.1 0-17.2 7.15-7.15 7.1-7.15 17.15 0 10.1 7.15 17.2 7.1 7.15 17.2 7.15 10.05 0 17.2-7.15 7.1-7.1 7.1-17.2"/><path fill="none" stroke="#1A344F" stroke-width="2.5" stroke-linecap="round" stroke-linejoin="round" d="M5.701 186.351q-1.4 1.35-3.3 1.35h-9.25m12.55-1.35q1.35-1.4 1.35-3.3t-1.35-3.3q-1.4-1.35-3.3-1.35h-4.65q-1.9 0-3.25-1.35t-1.35-3.25q0-1.95 1.35-3.3 1.35-1.35 3.25-1.35h9.3M.101 169.151v-4.65M.101 187.701v4.6"/><path fill="#BE4D4E" d="M-64.749 217.301l-5.65-1.8q-15 .15-18.7 0-.45 6.75 5.75 11 3.1 2.15 6.25 2.9l34.45-.05q39.85-.35 67.05-1.7-40.7-.4-71.85-6.3-9.7-1.85-17.3-4.05"/><path fill="none" stroke="#1A344F" stroke-width="2.5" stroke-linecap="round" stroke-linejoin="round" d="M-89.099 215.501v1.9q0 4.95 3.5 8.5 3.5 3.5 8.5 3.5h154.4q4.95 0 8.5-3.5 3.5-3.55 3.5-8.5v-1.9h-178.4M.101 25.501v-18.5"/><path fill="#ACD28D" stroke="#1A344F" stroke-width="2.5" stroke-linecap="round" stroke-linejoin="round" d="M5.001 11.901q2.05-2.05 2.05-4.9 0-2.9-2.05-4.9Q2.951.051.101.051q-2.9 0-4.9 2.05-2.05 2-2.05 4.9 0 2.85 2.05 4.9 2 2.05 4.9 2.05 2.85 0 4.9-2.05"/></g><path fill="#99C977" stroke="#1A344F" stroke-width="2.5" stroke-linecap="round" stroke-linejoin="round" d="M347.601 87.701q-15.35 0-26.25 10.85-10.85 10.85-10.85 26.2 0 15.4 10.85 26.25 10.9 10.85 26.25 10.85t26.2-10.85q10.85-10.9 10.85-26.25t-10.85-26.2q-10.85-10.85-26.2-10.85"/><path fill="#ACD28D" stroke="#1A344F" stroke-width="2.5" stroke-linecap="round" stroke-linejoin="round" d="M347.601 103.901q-8.65 0-14.8 6.1-6.1 6.1-6.1 14.75t6.1 14.75q6.15 6.1 14.8 6.1t14.75-6.1q6.1-6.1 6.1-14.75 0-8.6-6.1-14.75-6.1-6.1-14.75-6.1"/><path fill="#8DAE68" d="M343.251 106.201q-10.55-.75-14.35 11.75-1.4 4.65-1.35 9.6.1 4.6 1.35 6.45 10.2 14.4 24.4 9.35 4.9-1.75 8.5-5.2 3.3-3.1 2.45-4.15-17.65 0-21.1-13.9-1.05-4.35-.6-9.55l.7-4.35"/><path fill="none" stroke="#1A344F" stroke-width="2.5" stroke-linecap="round" stroke-linejoin="round" d="M347.601 103.901q-8.65 0-14.8 6.1-6.1 6.1-6.1 14.75t6.1 14.75q6.15 6.1 14.8 6.1t14.75-6.1q6.1-6.1 6.1-14.75 0-8.6-6.1-14.75-6.1-6.1-14.75-6.1"/></g></svg>
