<svg id="Layer_1" xmlns="http://www.w3.org/2000/svg" viewBox="41 38.7 694.3 716.3"><style>.st1{fill:#fafafa}.st2{fill:#519959}.st5{fill:none;stroke:#cecccc;stroke-width:4;stroke-linecap:round;stroke-linejoin:round;stroke-miterlimit:10}.st7{fill:#383938}.st9{fill:#50883e}.st10{fill:#93cb77}.st11{fill:#395728}</style><path id="XMLID_3138_" d="M41 38.7h694.3V755H41V38.7z" fill="#f1f0f0"/><path id="XMLID_3137_" class="st1" d="M66.5 529h643.4v97.2H66.5V529z"/><path class="st2" d="M95.2 582.8v7.5H91v-20.6h7.9c2.4 0 4.2.6 5.6 1.8s2 2.8 2 4.8-.7 3.6-2 4.8a8.2 8.2 0 0 1-5.6 1.8l-3.7-.1zm0-3.2H99c1.2 0 2-.3 2.6-.9.6-.6.9-1.4.9-2.4s-.3-1.8-.9-2.5c-.6-.6-1.5-1-2.6-1h-3.8v6.8zm22.1-1.1h-1.5a2.4 2.4 0 0 0-2.4 1.5v10.4h-4.1v-15.3h3.7l.2 2.3c.4-.8.8-1.4 1.4-1.9.6-.4 1.2-.7 2-.7h.6l.5.1-.4 3.6zm1.2 4a8 8 0 0 1 1.9-5.6c1.3-1.5 3-2.2 5.3-2.2s4 .7 5.3 2.2a8.1 8.1 0 0 1 1.9 5.6v.3a8 8 0 0 1-1.9 5.6 6.8 6.8 0 0 1-5.3 2.2c-2.3 0-4-.7-5.3-2.2a8 8 0 0 1-1.9-5.6v-.3zm4.1.3c0 1.4.2 2.5.7 3.4.5.8 1.3 1.3 2.4 1.3s1.8-.4 2.3-1.3.7-2 .7-3.4v-.3c0-1.4-.3-2.5-.8-3.3-.5-.9-1.3-1.3-2.4-1.3s-1.8.4-2.3 1.3c-.5.9-.7 2-.7 3.3v.3h.1zm13.9 7.5v-12.4h-2.3V575h2.3v-1c0-1.9.6-3.4 1.8-4.5 1.2-1 2.8-1.6 5-1.6l2.2.2 2.5.6-.6 3.3-1.9-.5-1.9-.2c-1 0-1.7.2-2.1.7-.5.4-.7 1.1-.7 1.9v1h3v2.9h-3v12.4l-4.3.1zm13.3 0h-4.1V575h4.1v15.3zm8.3-19.1v3.8h2.6v2.9h-2.6v7.8c0 .6.1 1 .4 1.3.2.3.6.4 1 .4h.6l.6-.1.3 3-1.2.3-1.3.1c-1.4 0-2.5-.4-3.3-1.2s-1.2-2-1.2-3.7V578h-2.2v-2.9h2.2v-3.8l4.1-.1z"/><path d="M445.9 586.2c0-.8-.2-1.4-.7-1.9-.4-.5-1.2-.9-2.4-1.4-2.1-.7-3.7-1.6-4.7-2.5-1-1-1.5-2.3-1.5-4 0-1.6.5-2.9 1.5-3.9s2.4-1.6 4.2-1.8v-3h2.3v3.1c1.7.2 3 .9 4 2s1.4 2.5 1.4 4.3v.1h-4c0-1-.2-1.8-.7-2.4-.5-.6-1.1-.8-2-.8s-1.5.2-1.9.7-.6 1.1-.6 1.9c0 .7.2 1.3.6 1.7s1.2.9 2.4 1.4c2.1.7 3.7 1.5 4.7 2.5s1.6 2.3 1.6 4.1c0 1.6-.5 3-1.5 3.9-1 1-2.4 1.6-4.2 1.7v2.8H442v-2.8c-1.8-.2-3.3-.8-4.5-1.8s-1.7-2.6-1.7-4.6v-.1h4c0 1.2.3 2.1.9 2.6s1.4.8 2.3.8 1.6-.2 2.1-.7.8-1.1.8-1.9zm15.1-15.5l2.2.2c.7.1 1.4.4 2 .6l-.7 3-1.7-.5a9 9 0 0 0-1.8-.2c-1.2 0-2.2.5-2.9 1.4-.7.9-1.1 2.2-1.1 3.9v.7a5.8 5.8 0 0 1 4.5-1.7c1.8 0 3.1.6 4.1 1.9s1.5 2.9 1.5 4.9c0 2.1-.6 3.7-1.9 5s-3 1.9-5 1.9c-2.2 0-3.9-.7-5.3-2.2s-2-3.5-2-6v-4.3c0-2.6.8-4.7 2.3-6.3a8 8 0 0 1 5.8-2.3zm-.9 10.6c-.7 0-1.4.1-1.9.4a3 3 0 0 0-1.2 1v1.1c0 1.6.3 2.8.9 3.7s1.3 1.3 2.3 1.3c.9 0 1.5-.4 2.1-1.1.5-.7.8-1.6.8-2.7s-.3-2-.8-2.7c-.6-.7-1.3-1-2.2-1zm150.2 4.9c0-.8-.2-1.4-.7-1.9-.4-.5-1.2-.9-2.4-1.4-2.1-.7-3.7-1.6-4.7-2.5s-1.5-2.3-1.5-4c0-1.6.5-2.9 1.5-3.9s2.4-1.6 4.2-1.8v-3h2.3v3.1c1.7.2 3 .9 4 2s1.4 2.5 1.4 4.3v.1h-4c0-1-.2-1.8-.7-2.4-.5-.6-1.1-.8-2-.8s-1.5.2-1.9.7-.6 1.1-.6 1.9c0 .7.2 1.3.6 1.7s1.2.9 2.4 1.4c2.1.7 3.7 1.5 4.7 2.5s1.6 2.3 1.6 4.1c0 1.6-.5 3-1.5 3.9-1 1-2.4 1.6-4.2 1.7v2.8h-2.3v-2.8c-1.8-.2-3.3-.8-4.5-1.8s-1.7-2.6-1.7-4.6v-.1h4c0 1.2.3 2.1.9 2.6.6.5 1.4.8 2.3.8.9 0 1.6-.2 2.1-.7s.7-1.1.7-1.9zm15.2-15.5l2.2.2c.7.1 1.4.4 2 .6l-.7 3-1.7-.5a9 9 0 0 0-1.8-.2c-1.2 0-2.2.5-2.9 1.4s-1.1 2.2-1.1 3.9v.7a5.8 5.8 0 0 1 4.5-1.7c1.8 0 3.1.6 4.1 1.9s1.5 2.9 1.5 4.9c0 2.1-.6 3.7-1.9 5a6.8 6.8 0 0 1-5 1.9c-2.2 0-3.9-.7-5.3-2.2a8.4 8.4 0 0 1-2-6v-4.3c0-2.6.8-4.7 2.3-6.3a7.8 7.8 0 0 1 5.8-2.3zm-.9 10.6c-.7 0-1.4.1-1.9.4a3 3 0 0 0-1.2 1v1.1c0 1.6.3 2.8.9 3.7s1.3 1.3 2.3 1.3c.9 0 1.5-.4 2.1-1.1.5-.7.8-1.6.8-2.7s-.3-2-.8-2.7c-.6-.7-1.3-1-2.2-1zm23.3 2.9a8 8 0 0 1-1.9 5.7 6.6 6.6 0 0 1-5 2.1c-2.1 0-3.8-.7-5.1-2.1s-1.9-3.3-1.9-5.7v-5.7c0-2.4.6-4.3 1.9-5.7s3-2.1 5.1-2.1 3.8.7 5.1 2.1a8 8 0 0 1 1.9 5.7l-.1 5.7zm-4.1-6.1c0-1.3-.3-2.3-.8-3.1a2.5 2.5 0 0 0-2.1-1.1c-.9 0-1.6.4-2.1 1.1s-.7 1.8-.7 3.1v6.5c0 1.4.2 2.4.8 3.1.5.7 1.2 1.1 2.1 1.1.9 0 1.6-.4 2.1-1.1.5-.7.7-1.8.7-3.1v-6.5z" fill="#6cb376"/><path id="XMLID_741_" d="M66.5 431.8h643.4V529H66.5v-97.2z" fill="#fff"/><path id="XMLID_739_" class="st5" d="M66.5 529h643.4"/><path id="XMLID_650_" d="M66.5 626.2h643.4v97.2H66.5v-97.2z" fill="#dcdbdb"/><path id="XMLID_540_" class="st5" d="M66.5 626.2h643.4"/><path id="XMLID_535_" class="st5" d="M66.5 723.4h643.4"/><path class="st2" d="M106.5 486.3c.1 2.3-.6 4-2 5.3a8.5 8.5 0 0 1-5.7 1.9c-2.5 0-4.5-.8-6-2.4s-2.3-3.6-2.3-6.2v-4.2c0-2.5.7-4.6 2.2-6.2s3.4-2.4 5.8-2.4c2.5 0 4.5.6 5.9 1.8s2.1 3 2.1 5.2v.1h-4c0-1.3-.3-2.3-1-3-.6-.6-1.6-1-3-1-1.2 0-2.2.5-2.9 1.5s-1 2.3-1 3.9v4.1c0 1.6.4 2.9 1.1 3.9s1.7 1.5 3.1 1.5c1.2 0 2.2-.3 2.8-1 .6-.6.9-1.6.9-3h4v.2zm6.7-6.6c.5-.7 1.1-1.2 1.8-1.6.7-.4 1.5-.6 2.3-.6 1.6 0 2.8.5 3.8 1.6a7.5 7.5 0 0 1 1.4 4.9v9.1h-4.1V484c0-1.2-.2-2-.6-2.5s-1-.7-1.7-.7c-.6 0-1.2.1-1.6.3-.5.2-.8.5-1.1.9v11.2h-4.1v-22.1h4.1v8.6h-.2zm21.4 13.4l-.4-1.1-.2-1.2c-.4.7-1 1.4-1.7 1.9s-1.5.7-2.5.7c-1.6 0-2.8-.4-3.7-1.2-.9-.8-1.3-2-1.3-3.4 0-1.5.6-2.7 1.7-3.5a9 9 0 0 1 5.1-1.2h2.3v-1.2c0-.7-.2-1.3-.6-1.7-.4-.4-1-.6-1.7-.6s-1.2.2-1.6.5c-.4.3-.5.8-.5 1.3h-4v-.1c-.1-1.3.5-2.4 1.7-3.3a7.7 7.7 0 0 1 4.7-1.4c1.8 0 3.3.5 4.5 1.4a5 5 0 0 1 1.7 4v6.3a12.3 12.3 0 0 0 .7 3.9l-4.2-.1zm-3.8-2.8c.7 0 1.4-.2 1.9-.5s1-.8 1.2-1.2v-2.2h-2.3c-.9 0-1.5.2-2 .7-.4.4-.7 1-.7 1.6 0 .5.2.9.5 1.2.3.3.8.4 1.4.4zm14.1-12.5l.2 2.2a5.5 5.5 0 0 1 4.4-2.5c1.5 0 2.8.5 3.6 1.5.9 1 1.3 2.6 1.3 4.7v9.4h-4.1v-9.4c0-1.1-.2-1.9-.6-2.3-.4-.5-1-.7-1.7-.7-.6 0-1.2.1-1.6.3-.5.2-.9.5-1.2 1v11.1H141v-15.3h3.9zm12 7.8c0-2.4.5-4.4 1.6-5.8s2.5-2.2 4.4-2.2a4.6 4.6 0 0 1 4 2.3l.3-2h3.6v15.3c0 2-.7 3.5-2 4.6s-3.1 1.6-5.5 1.6a11.3 11.3 0 0 1-4.9-1.2l.7-3.1 2 .7c.7.2 1.4.2 2.2.2 1.1 0 2-.2 2.5-.7s.8-1.2.8-2.2v-1.4a4.8 4.8 0 0 1-3.7 1.8c-1.9 0-3.3-.7-4.4-2.1s-1.6-3.2-1.6-5.5v-.3zm4.1.3a6 6 0 0 0 .7 3.2c.4.8 1.2 1.2 2.2 1.2.6 0 1.2-.1 1.6-.3.4-.2.8-.6 1.1-1v-6.6c-.3-.5-.6-.8-1.1-1.1s-1-.4-1.6-.4c-1 0-1.7.4-2.2 1.3s-.7 2.1-.7 3.5v.2zm19.5 7.5a7 7 0 0 1-5.4-2.1 7.6 7.6 0 0 1-1.9-5.4v-.6a8 8 0 0 1 1.9-5.6c1.2-1.5 3-2.2 5.1-2.2s3.6.6 4.7 1.9c1.1 1.3 1.6 3 1.6 5.1v2.1h-9.1v.1a4 4 0 0 0 1 2.5c.6.7 1.4 1 2.5 1 .9 0 1.7-.1 2.4-.3l2-.9 1.1 2.5c-.6.5-1.4.9-2.5 1.3s-2.2.6-3.4.6zm-.3-12.7c-.8 0-1.5.3-1.9.9s-.7 1.3-.8 2.3v.1h5v-.3c0-.9-.2-1.6-.6-2.1-.3-.7-.9-.9-1.7-.9zm20.4-6.6h-4.1V471h4.1v3.1zm0 19h-4.1v-15.3h4.1v15.3zm7.2-15.3l.2 2.2c.5-.8 1.1-1.4 1.9-1.8.7-.4 1.6-.7 2.5-.7 1.5 0 2.8.5 3.6 1.5.9 1 1.3 2.6 1.3 4.7v9.4h-4.1v-9.4c0-1.1-.2-1.9-.6-2.3-.4-.5-1-.7-1.7-.7-.6 0-1.2.1-1.6.3-.5.2-.9.5-1.2 1v11.1H204v-15.3h3.8zm25.3 9.6l.3 1.4h.1l.3-1.4 2.5-9.6h4.3l-5.2 15.3h-4l-5.2-15.3h4.3l2.6 9.6zm18.1 5.7l-.4-1.1-.2-1.2c-.4.7-1 1.4-1.7 1.9s-1.5.7-2.5.7c-1.6 0-2.8-.4-3.7-1.2-.9-.8-1.3-2-1.3-3.4 0-1.5.6-2.7 1.7-3.5a9 9 0 0 1 5.1-1.2h2.3v-1.2c0-.7-.2-1.3-.6-1.7-.4-.4-1-.6-1.7-.6s-1.2.2-1.6.5c-.4.3-.5.8-.5 1.3h-4v-.1c-.1-1.3.5-2.4 1.7-3.3s2.8-1.4 4.7-1.4c1.8 0 3.3.5 4.5 1.4a5 5 0 0 1 1.7 4v6.3a12.3 12.3 0 0 0 .7 3.9l-4.2-.1zm-3.8-2.8c.7 0 1.4-.2 1.9-.5s1-.8 1.2-1.2v-2.2h-2.3c-.9 0-1.5.2-2 .7-.4.4-.7 1-.7 1.6 0 .5.2.9.5 1.2.4.3.8.4 1.4.4zm14.7 2.8H258V471h4.1v22.1zm12.8-2.3c-.5.8-1.1 1.5-1.8 1.9-.7.4-1.6.7-2.5.7-1.6 0-2.9-.5-3.8-1.6-.9-1.1-1.4-2.8-1.4-5.1v-8.9h4.1v8.9a6 6 0 0 0 .5 2.8c.4.5.9.7 1.7.7.7 0 1.2-.1 1.7-.3.5-.2.9-.5 1.2-.9v-11.1h4.1v15.3h-3.4l-.4-2.4zm13.6 2.6a7 7 0 0 1-5.4-2.1 7.6 7.6 0 0 1-1.9-5.4v-.6c0-2.3.6-4.2 1.9-5.6s3-2.2 5.1-2.2 3.6.6 4.7 1.9c1.1 1.3 1.6 3 1.6 5.1v2.1h-9.1v.1a4 4 0 0 0 1 2.5c.6.7 1.4 1 2.5 1 .9 0 1.7-.1 2.4-.3l2-.9 1.1 2.5c-.6.5-1.4.9-2.5 1.3s-2.2.6-3.4.6zm-.3-12.7c-.8 0-1.5.3-1.9.9-.4.6-.7 1.3-.8 2.3v.1h5v-.3c0-.9-.2-1.6-.6-2.1-.2-.7-.8-.9-1.7-.9zM91 687.5v-20.6h6.8c2.4 0 4.3.5 5.7 1.4s2 2.4 2 4.2c0 .9-.2 1.8-.7 2.5s-1.2 1.3-2.2 1.7c1.3.2 2.3.8 2.9 1.7s1 1.9 1 3.1c0 2-.7 3.5-2 4.5s-3.1 1.5-5.5 1.5h-8zm4.2-12H98c1.1 0 2-.2 2.5-.7s.9-1.1.9-2c0-1-.3-1.7-.9-2.1s-1.5-.7-2.7-.7h-2.6v5.5zm0 2.9v5.9H99c1.1 0 1.9-.2 2.5-.7s.9-1.2.9-2.1c0-1-.3-1.8-.8-2.3s-1.4-.8-2.6-.8h-3.8zm23 9.1l-.4-1.1-.2-1.2c-.4.7-1 1.4-1.7 1.9s-1.5.7-2.5.7c-1.6 0-2.8-.4-3.7-1.2-.9-.8-1.3-2-1.3-3.4 0-1.5.6-2.7 1.7-3.5a9 9 0 0 1 5.1-1.2h2.3v-1.2c0-.7-.2-1.3-.6-1.7s-1-.6-1.7-.6-1.2.2-1.6.5-.5.8-.5 1.3h-4v-.1c-.1-1.3.5-2.4 1.7-3.3a7.7 7.7 0 0 1 4.7-1.4c1.8 0 3.3.5 4.5 1.4s1.7 2.3 1.7 4v6.3l.2 2 .5 1.9h-4.2v-.1zm-3.8-2.8c.7 0 1.4-.2 1.9-.5s1-.8 1.2-1.2v-2.2h-2.3c-.9 0-1.5.2-2 .7-.4.4-.7 1-.7 1.6 0 .5.2.9.5 1.2.4.3.9.4 1.4.4zm14.7 2.8H125v-22.1h4.1v22.1zm12.5 0l-.4-1.1-.2-1.2c-.4.7-1 1.4-1.7 1.9s-1.5.7-2.5.7c-1.6 0-2.8-.4-3.7-1.2s-1.3-2-1.3-3.4c0-1.5.6-2.7 1.7-3.5a9 9 0 0 1 5.1-1.2h2.3v-1.2c0-.7-.2-1.3-.6-1.7s-1-.6-1.7-.6-1.2.2-1.6.5c-.4.3-.5.8-.5 1.3h-4v-.1c-.1-1.3.5-2.4 1.7-3.3a7.7 7.7 0 0 1 4.7-1.4c1.8 0 3.3.5 4.5 1.4 1.2.9 1.7 2.3 1.7 4v6.3a12.3 12.3 0 0 0 .7 3.9h-4.2v-.1zm-3.8-2.8c.7 0 1.4-.2 1.9-.5s1-.8 1.2-1.2v-2.2h-2.3c-.9 0-1.5.2-2 .7-.4.4-.7 1-.7 1.6 0 .5.2.9.5 1.2s.8.4 1.4.4zm14.1-12.5l.2 2.2c.5-.8 1.1-1.4 1.9-1.8.7-.4 1.6-.7 2.5-.7 1.5 0 2.8.5 3.6 1.5.9 1 1.3 2.6 1.3 4.7v9.4h-4.1v-9.4c0-1.1-.2-1.9-.6-2.3-.4-.5-1-.7-1.7-.7-.6 0-1.2.1-1.6.3-.5.2-.9.5-1.2 1v11.1H148v-15.3h3.9zm19 12.4c.7 0 1.3-.2 1.7-.6.4-.4.6-1 .6-1.7h3.8v.1a5 5 0 0 1-1.7 3.9 6.8 6.8 0 0 1-4.4 1.6c-2.3 0-4-.7-5.3-2.2a8.4 8.4 0 0 1-1.9-5.6v-.4c0-2.2.6-4.1 1.8-5.6 1.2-1.5 3-2.2 5.2-2.2 1.9 0 3.4.5 4.5 1.6s1.7 2.5 1.7 4.2v.1h-3.8c0-.8-.2-1.5-.6-2-.4-.5-1-.8-1.7-.8-1.1 0-1.8.4-2.3 1.3-.4.9-.7 1.9-.7 3.3v.4c0 1.4.2 2.5.7 3.3.5.9 1.3 1.3 2.4 1.3zm15.2 3.2a7 7 0 0 1-5.4-2.1 7.6 7.6 0 0 1-1.9-5.4v-.6c0-2.3.6-4.2 1.9-5.6s3-2.2 5.1-2.2 3.6.6 4.7 1.9c1.1 1.3 1.6 3 1.6 5.1v2.1H183v.1a4 4 0 0 0 1 2.5c.6.7 1.4 1 2.5 1 .9 0 1.7-.1 2.4-.3l2-.9 1.1 2.5c-.6.5-1.4.9-2.5 1.3s-2.2.6-3.4.6zm-.3-12.7c-.8 0-1.5.3-1.9.9-.4.6-.7 1.3-.8 2.3v.1h5v-.3c0-.9-.2-1.6-.6-2.1-.3-.7-.9-.9-1.7-.9zm20.4-6.6H202v-3.1h4.1l.1 3.1zm0 19H202v-15.3h4.1l.1 15.3zm7.1-15.3l.2 2.2c.5-.8 1.1-1.4 1.9-1.8.7-.4 1.6-.7 2.5-.7 1.5 0 2.8.5 3.6 1.5.9 1 1.3 2.6 1.3 4.7v9.4h-4.1v-9.4c0-1.1-.2-1.9-.6-2.3-.4-.5-1-.7-1.7-.7-.6 0-1.2.1-1.6.3-.5.2-.9.5-1.2 1v11.1h-4.1v-15.3h3.8zm28.9 15.3l-.4-1.1-.2-1.2c-.4.7-1 1.4-1.7 1.9s-1.5.7-2.5.7c-1.6 0-2.8-.4-3.7-1.2s-1.3-2-1.3-3.4c0-1.5.6-2.7 1.7-3.5a9 9 0 0 1 5.1-1.2h2.3v-1.2c0-.7-.2-1.3-.6-1.7-.4-.4-1-.6-1.7-.6s-1.2.2-1.6.5c-.4.3-.5.8-.5 1.3h-4v-.1c-.1-1.3.5-2.4 1.7-3.3a7.7 7.7 0 0 1 4.7-1.4c1.8 0 3.3.5 4.5 1.4a5 5 0 0 1 1.7 4v6.3a12.3 12.3 0 0 0 .7 3.9h-4.2v-.1zm-3.8-2.8c.7 0 1.4-.2 1.9-.5s1-.8 1.2-1.2v-2.2h-2.3c-.9 0-1.5.2-2 .7-.4.4-.7 1-.7 1.6 0 .5.2.9.5 1.2s.8.4 1.4.4zm16.7-.1c.7 0 1.3-.2 1.7-.6.4-.4.6-1 .6-1.7h3.8v.1a5 5 0 0 1-1.7 3.9 6.8 6.8 0 0 1-4.4 1.6c-2.3 0-4-.7-5.3-2.2a8.4 8.4 0 0 1-1.9-5.6v-.4c0-2.2.6-4.1 1.8-5.6s3-2.2 5.2-2.2c1.9 0 3.4.5 4.5 1.6s1.7 2.5 1.7 4.2v.1h-3.8c0-.8-.2-1.5-.6-2-.4-.5-1-.8-1.7-.8-1.1 0-1.8.4-2.3 1.3-.4.9-.7 1.9-.7 3.3v.4c0 1.4.2 2.5.7 3.3.6.9 1.3 1.3 2.4 1.3zm15 0c.7 0 1.3-.2 1.7-.6.4-.4.6-1 .6-1.7h3.8v.1a5 5 0 0 1-1.7 3.9 6.8 6.8 0 0 1-4.4 1.6c-2.3 0-4-.7-5.3-2.2a8.4 8.4 0 0 1-1.9-5.6v-.4c0-2.2.6-4.1 1.8-5.6 1.2-1.5 3-2.2 5.2-2.2 1.9 0 3.4.5 4.5 1.6s1.7 2.5 1.7 4.2v.1h-3.8c0-.8-.2-1.5-.6-2-.4-.5-1-.8-1.7-.8-1.1 0-1.8.4-2.3 1.3-.4.9-.7 1.9-.7 3.3v.4c0 1.4.2 2.5.7 3.3.5.9 1.3 1.3 2.4 1.3zm7.9-4.9a8 8 0 0 1 1.9-5.6c1.3-1.5 3-2.2 5.3-2.2s4 .7 5.3 2.2 1.9 3.3 1.9 5.6v.3a8 8 0 0 1-1.9 5.6 6.8 6.8 0 0 1-5.3 2.2c-2.3 0-4-.7-5.3-2.2a8 8 0 0 1-1.9-5.6v-.3zm4.1.3c0 1.4.2 2.5.7 3.4.5.8 1.3 1.3 2.4 1.3 1.1 0 1.8-.4 2.3-1.3s.7-2 .7-3.4v-.3c0-1.4-.3-2.5-.8-3.3-.5-.9-1.3-1.3-2.4-1.3-1.1 0-1.8.4-2.3 1.3-.5.9-.7 2-.7 3.3v.3h.1zm22.3 5.2c-.5.8-1.1 1.5-1.8 1.9-.7.4-1.6.7-2.5.7-1.6 0-2.9-.5-3.8-1.6-.9-1.1-1.4-2.8-1.4-5.1v-8.9h4.1v8.9a6 6 0 0 0 .5 2.8c.4.5.9.7 1.7.7.7 0 1.2-.1 1.7-.3s.9-.5 1.2-.9v-11.1h4.1v15.3h-3.4l-.4-2.4zm10.7-13l.2 2.2c.5-.8 1.1-1.4 1.9-1.8.7-.4 1.6-.7 2.5-.7 1.5 0 2.8.5 3.6 1.5.9 1 1.3 2.6 1.3 4.7v9.4h-4.1v-9.4c0-1.1-.2-1.9-.6-2.3-.4-.5-1-.7-1.7-.7-.6 0-1.2.1-1.6.3-.5.2-.9.5-1.2 1v11.1h-4.1v-15.3h3.8zm17.6-3.8v3.8h2.6v2.9h-2.6v7.8c0 .6.1 1 .4 1.3.2.3.6.4 1 .4h.6l.6-.1.3 3-1.2.3-1.3.1c-1.4 0-2.5-.4-3.3-1.2s-1.2-2-1.2-3.7v-7.8h-2.2v-2.9h2.2v-3.8l4.1-.1z"/><path class="st7" d="M498.2 480.6h5.1v3.6h-5.1v5.9h-3.9v-5.9h-5.1v-3.6h5.1V475h3.9v5.6zm21.3 4a8 8 0 0 1-1.9 5.7 6.6 6.6 0 0 1-5 2.1c-2.1 0-3.8-.7-5.1-2.1a8 8 0 0 1-1.9-5.7v-5.7c0-2.4.6-4.3 1.9-5.7s3-2.1 5.1-2.1c2.1 0 3.8.7 5.1 2.1s1.9 3.3 1.9 5.7l-.1 5.7zm-4.1-6.1c0-1.3-.3-2.3-.8-3.1a2.5 2.5 0 0 0-2.1-1.1c-.9 0-1.6.4-2.1 1.1s-.7 1.8-.7 3.1v6.5c0 1.4.2 2.4.8 3.1.5.7 1.2 1.1 2.1 1.1.9 0 1.6-.4 2.1-1.1s.7-1.8.7-3.1v-6.5zm11.6 13.6h-4.1v-3.6h4.1v3.6zm17.6-7.5a8 8 0 0 1-1.9 5.7 6.6 6.6 0 0 1-5 2.1c-2.1 0-3.8-.7-5.1-2.1a8 8 0 0 1-1.9-5.7v-5.7a8 8 0 0 1 1.9-5.7c1.3-1.4 3-2.1 5.1-2.1s3.8.7 5.1 2.1a8 8 0 0 1 1.9 5.7v5.7h-.1zm-4.1-6.1c0-1.3-.3-2.3-.8-3.1a2.5 2.5 0 0 0-2.1-1.1c-.9 0-1.6.4-2.1 1.1s-.7 1.8-.7 3.1v6.5c0 1.4.2 2.4.8 3.1.5.7 1.2 1.1 2.1 1.1.9 0 1.6-.4 2.1-1.1s.7-1.8.7-3.1v-6.5zm20.7 6.1a8 8 0 0 1-1.9 5.7 6.6 6.6 0 0 1-5 2.1c-2.1 0-3.8-.7-5.1-2.1a8 8 0 0 1-1.9-5.7v-5.7a8 8 0 0 1 1.9-5.7c1.3-1.4 3-2.1 5.1-2.1 2.1 0 3.8.7 5.1 2.1s1.9 3.3 1.9 5.7l-.1 5.7zm-4.1-6.1c0-1.3-.3-2.3-.8-3.1s-1.2-1.1-2.1-1.1c-.9 0-1.6.4-2.1 1.1s-.7 1.8-.7 3.1v6.5c0 1.4.2 2.4.8 3.1.5.7 1.2 1.1 2.1 1.1s1.6-.4 2.1-1.1.7-1.8.7-3.1v-6.5zm37.6 6.4a8 8 0 0 1-1.9 5.7 6.6 6.6 0 0 1-5 2.1c-2.1 0-3.8-.7-5.1-2.1s-1.9-3.3-1.9-5.7v-5.7a8 8 0 0 1 1.9-5.7c1.3-1.4 3-2.1 5.1-2.1s3.8.7 5.1 2.1 1.9 3.3 1.9 5.7l-.1 5.7zm-4.4-6.1c0-1.3-.3-2.3-.8-3.1a2.5 2.5 0 0 0-2.1-1.1c-.9 0-1.6.4-2.1 1.1s-.7 1.8-.7 3.1v6.5c0 1.4.2 2.4.8 3.1.5.7 1.2 1.1 2.1 1.1.9 0 1.6-.4 2.1-1.1s.7-1.8.7-3.1v-6.5zm-19.6 1.6c1 0 1.7-.3 2.2-.8s.7-1.2.7-2.2c0-.8-.3-1.4-.8-1.9s-1.2-.8-2.1-.8c-.8 0-1.4.2-1.9.7s-.8 1.1-.8 1.8h-4v-.1c-.1-1.6.6-2.9 1.9-4s2.9-1.6 4.8-1.6c2.1 0 3.8.5 5.1 1.5s1.9 2.4 1.9 4.3c0 .9-.3 1.8-.8 2.6s-1.3 1.4-2.2 1.9c1.1.4 1.9 1 2.5 1.8s.9 1.8.9 3c0 1.9-.7 3.4-2 4.5a8 8 0 0 1-5.2 1.6c-1.9 0-3.5-.5-4.9-1.5s-2.1-2.4-2-4.3v-.1h4c0 .8.3 1.4.8 1.9s1.2.8 2.1.8c.9 0 1.7-.3 2.3-.8.6-.6.9-1.3.9-2.1 0-1.1-.3-1.9-.8-2.4s-1.4-.8-2.4-.8h-2.3v-3.1h2.1v.1z"/><path id="XMLID_362_" class="st1" d="M66.5 334.6h643.4v97.2H66.5v-97.2z"/><path id="XMLID_361_" class="st5" d="M66.5 431.8h643.4"/><path class="st2" d="M95.2 388.4v7.5H91v-20.6h7.9c2.4 0 4.2.6 5.6 1.8s2 2.8 2 4.8-.7 3.6-2 4.8-3.2 1.8-5.6 1.8l-3.7-.1zm0-3.2H99c1.2 0 2-.3 2.6-.9s.9-1.4.9-2.4-.3-1.8-.9-2.5c-.6-.6-1.5-1-2.6-1h-3.8v6.8zm13.2 2.9a8 8 0 0 1 1.9-5.6c1.3-1.5 3-2.2 5.3-2.2s4 .7 5.3 2.2 1.9 3.3 1.9 5.6v.3c0 2.3-.6 4.2-1.9 5.6s-3 2.2-5.3 2.2-4-.7-5.3-2.2a8 8 0 0 1-1.9-5.6v-.3zm4.1.3c0 1.4.2 2.5.7 3.4.5.8 1.3 1.3 2.4 1.3s1.8-.4 2.3-1.3.7-2 .7-3.4v-.3c0-1.4-.3-2.5-.8-3.3-.5-.9-1.3-1.3-2.4-1.3s-1.8.4-2.3 1.3-.7 2-.7 3.3v.3h.1zm21.2 3.2c0-.5-.2-.8-.7-1.2-.4-.3-1.3-.6-2.4-.9-1.8-.4-3.2-.9-4.1-1.6s-1.4-1.7-1.4-3 .6-2.4 1.7-3.4a6.8 6.8 0 0 1 4.4-1.4c1.9 0 3.5.5 4.7 1.4s1.7 2.1 1.7 3.5v.1h-4a2 2 0 0 0-.6-1.5c-.4-.4-1-.6-1.7-.6s-1.2.2-1.6.5-.6.7-.6 1.2.2.9.6 1.2a6 6 0 0 0 2.4.8c1.9.4 3.3.9 4.2 1.7.9.7 1.4 1.7 1.4 3a4 4 0 0 1-1.8 3.4c-1.2.9-2.7 1.3-4.7 1.3s-3.7-.5-4.8-1.6a4.4 4.4 0 0 1-1.7-3.5v-.1h3.8c0 .8.3 1.4.8 1.8s1.2.6 2 .6 1.3-.2 1.7-.5c.5-.2.7-.6.7-1.2zm11-14.7h-4.1v-3.1h4.1v3.1zm0 19h-4.1v-15.3h4.1v15.3zm8.3-19.1v3.8h2.6v2.9H153v7.8c0 .6.1 1 .4 1.3.2.3.6.4 1 .4h.6l.6-.1.3 3-1.2.3-1.3.1c-1.4 0-2.5-.4-3.3-1.2-.8-.8-1.2-2-1.2-3.7v-7.8h-2.2v-2.9h2.2v-3.8h4.1v-.1zm9.5.1h-4.1v-3.1h4.1v3.1zm0 19h-4.1v-15.3h4.1v15.3zm2.8-7.8a8 8 0 0 1 1.9-5.6c1.3-1.5 3-2.2 5.3-2.2s4 .7 5.3 2.2 1.9 3.3 1.9 5.6v.3a8 8 0 0 1-1.9 5.6c-1.3 1.4-3 2.2-5.3 2.2s-4-.7-5.3-2.2a8 8 0 0 1-1.9-5.6v-.3zm4.1.3c0 1.4.2 2.5.7 3.4.5.8 1.3 1.3 2.4 1.3 1.1 0 1.8-.4 2.3-1.3s.7-2 .7-3.4v-.3c0-1.4-.3-2.5-.8-3.3-.5-.9-1.3-1.3-2.4-1.3-1.1 0-1.8.4-2.3 1.3s-.7 2-.7 3.3v.3h.1zm16.7-7.8l.2 2.2c.5-.8 1.1-1.4 1.9-1.8.7-.4 1.6-.7 2.5-.7 1.5 0 2.8.5 3.6 1.5.9 1 1.3 2.6 1.3 4.7v9.4h-4.1v-9.4c0-1.1-.2-1.9-.6-2.3-.4-.5-1-.7-1.7-.7-.6 0-1.2.1-1.6.3-.5.2-.9.5-1.2 1v11.1h-4.1v-15.3h3.8zm28.1 11c0-.5-.2-.8-.7-1.2-.4-.3-1.3-.6-2.4-.9-1.8-.4-3.2-.9-4.1-1.6-.9-.7-1.4-1.7-1.4-3s.6-2.4 1.7-3.4a6.8 6.8 0 0 1 4.4-1.4c1.9 0 3.5.5 4.7 1.4s1.7 2.1 1.7 3.5v.1h-4c0-.6-.2-1.1-.6-1.5s-1-.6-1.7-.6-1.2.2-1.6.5c-.4.3-.6.7-.6 1.2s.2.9.6 1.2a6 6 0 0 0 2.4.8c1.9.4 3.3.9 4.2 1.7.9.7 1.4 1.7 1.4 3 0 1.4-.6 2.5-1.8 3.4s-2.7 1.3-4.7 1.3-3.7-.5-4.8-1.6a4.4 4.4 0 0 1-1.7-3.5v-.1h3.8c0 .8.3 1.4.8 1.8s1.2.6 2 .6 1.3-.2 1.7-.5c.5-.2.7-.6.7-1.2zm11-14.7H221v-3.1h4.1l.1 3.1zm0 19H221v-15.3h4.1l.1 15.3zm8-3.2h7.6v3.2h-12.7v-2.4l7.3-9.7h-7.1v-3.2h12.3v2.4l-7.4 9.7zm16.6 3.5a7 7 0 0 1-5.4-2.1 7.6 7.6 0 0 1-1.9-5.4v-.6c0-2.3.6-4.2 1.9-5.6s3-2.2 5.1-2.2 3.6.6 4.7 1.9c1.1 1.3 1.6 3 1.6 5.1v2.1h-9.1v.1a4 4 0 0 0 1 2.5c.6.7 1.4 1 2.5 1 .9 0 1.7-.1 2.4-.3s1.3-.5 2-.9l1.1 2.5c-.6.5-1.4.9-2.5 1.3-1 .4-2.2.6-3.4.6zm-.3-12.7c-.8 0-1.5.3-1.9.9s-.7 1.3-.8 2.3v.1h5v-.3c0-.9-.2-1.6-.6-2.1-.2-.7-.8-.9-1.7-.9z"/><path class="st7" d="M91.3 417.7c.1.2.1.3 0 .4l-.3.2c-.2.1-.3.1-.4-.1a13.9 13.9 0 0 1-2.9-8.2 14 14 0 0 1 3-8.1c.1-.1.2-.2.4-.1l.3.2c.2.1.2.2.1.4a13.6 13.6 0 0 0-2.4 7.9c-.2 3 .6 5.2 2.2 7.4zm2.9-12.7c-.5 0-.8-.3-.8-.8s.4-.8.8-.8.8.3.8.8c.1.5-.3.8-.8.8zm.7 10.7c0 .2-.1.3-.3.3H94c-.2 0-.3-.1-.3-.3v-8.9c0-.2.1-.3.3-.3h.6c.2 0 .3.1.3.3v8.9zm4.1 0c0 .2-.1.3-.3.3h-.6c-.2 0-.3-.1-.3-.3v-8.9c0-.2.1-.4.3-.4h.6c.2 0 .3.1.3.4v.7c.9-.8 2.2-1.2 3.3-1.2 2.3 0 3.1 1.4 3.1 3.6v5.9c0 .2-.1.3-.3.3h-.6c-.2 0-.3-.1-.3-.3v-5.7c0-1.6-.4-2.8-2.2-2.8a5 5 0 0 0-3 1.3v7.1zm11.9-1.1l2.6-7.8c.1-.2.2-.3.4-.3h.6c.2 0 .3.1.3.3l-3.2 9c-.1.2-.2.3-.4.3h-.7c-.2 0-.4-.1-.4-.3l-3.2-9c-.1-.2 0-.3.3-.3h.7c.3 0 .4.1.4.2l2.6 7.9zm9.3.6c.9 0 1.9-.2 2.4-.4.2-.1.3 0 .4.1l.1.4c.1.2 0 .3-.2.4-.8.4-2 .6-2.9.6-3 0-4.5-2-4.5-5 0-2.8 1.7-5 4.5-5 2.4 0 3.7 1.8 3.7 4.1v.4c0 .4-.1.5-.6.5h-6.3c.1 2.1 1.2 3.9 3.4 3.9zm2.3-5.2c0-1.6-.8-2.8-2.5-2.8-1.9 0-2.9 1.5-3.1 3.2h5.6v-.4zm8.2-3.2c.2.1.2.2.1.3l-.2.5c-.1.2-.2.2-.3.1-.7-.3-1.4-.5-2-.5-1.2 0-1.9.6-1.9 1.4s.5 1.2 1.4 1.6l1.4.6c1.2.5 2 1.3 2 2.5 0 1.8-1.3 2.9-3.5 2.9-1 0-2.1-.4-2.6-.6-.1-.1-.2-.2-.1-.3l.2-.5c.1-.1.2-.2.3-.1a6 6 0 0 0 2.2.6c1.3 0 2.2-.7 2.2-1.8 0-.9-.7-1.4-1.7-1.8l-1.2-.5c-1.2-.5-2-1.2-2-2.4 0-1.7 1.4-2.5 3.2-2.5.9 0 1.7.1 2.5.5zm4.2 6.5c0 .7.1 1.3.4 1.6.2.2.6.4 1.2.4l1.2-.2c.2-.1.3 0 .3.1l.1.5c0 .2 0 .3-.2.3-.4.2-1 .3-1.6.3-.8 0-1.6-.2-2-.7-.6-.6-.6-1.4-.6-2.5v-5.7h-1.2c-.1 0-.2 0-.2-.2v-.5c0-.2.1-.2.2-.2h1.2v-2.3c0-.2 0-.3.3-.4l.7-.1h.1c.2 0 .2.1.2.3v2.5h2.4c.1 0 .2 0 .2.2v.5c0 .2-.1.2-.2.2H135v5.9h-.1zm6.1 2.4c0 .2-.1.3-.3.3h-.6c-.2 0-.3-.1-.3-.3v-8.9c0-.2.1-.4.3-.4h.6c.2 0 .3.1.3.4v.7c.9-.8 2-1.2 3.1-1.2 1 0 2 .3 2.6 1.2a5.2 5.2 0 0 1 3.3-1.2c2.3 0 3.2 1.4 3.2 3.6v5.9c0 .2-.1.3-.3.3h-.6c-.2 0-.3-.1-.3-.3v-5.7c0-1.7-.5-2.8-2.3-2.8-.9 0-1.9.4-2.6 1l.2 1.6v5.9c0 .2-.1.3-.3.3h-.6c-.2 0-.3-.1-.3-.3v-5.7c0-1.6-.4-2.8-2.2-2.8-1 0-2 .6-2.8 1.3l-.1 7.1zm19.1-.5c.9 0 1.9-.2 2.4-.4.2-.1.3 0 .4.1l.1.4c.1.2 0 .3-.2.4-.8.4-2 .6-2.9.6-3 0-4.5-2-4.5-5 0-2.8 1.7-5 4.5-5 2.4 0 3.7 1.8 3.7 4.1v.4c0 .4-.1.5-.6.5h-6.3c0 2.1 1.1 3.9 3.4 3.9zm2.2-5.2c0-1.6-.8-2.8-2.5-2.8-1.9 0-2.9 1.5-3.1 3.2h5.6v-.4zm4.6 5.7c0 .2-.1.3-.3.3h-.6c-.2 0-.3-.1-.3-.3v-8.9c0-.2.1-.4.3-.4h.6c.2 0 .3.1.3.4v.7c.9-.8 2.2-1.2 3.3-1.2 2.3 0 3.1 1.4 3.1 3.6v5.9c0 .2-.1.3-.3.3h-.6c-.2 0-.3-.1-.3-.3v-5.7c0-1.6-.4-2.8-2.2-2.8a5 5 0 0 0-3 1.3v7.1zm10.8-2.4c0 .7.1 1.3.4 1.6.2.2.6.4 1.2.4l1.2-.2c.2-.1.3 0 .3.1l.1.5c0 .2 0 .3-.2.3-.4.2-1 .3-1.6.3-.8 0-1.6-.2-2-.7-.6-.6-.6-1.4-.6-2.5v-5.7h-1.2c-.1 0-.2 0-.2-.2v-.5c0-.2.1-.2.2-.2h1.2v-2.3c0-.2 0-.3.3-.4l.7-.1h.1c.2 0 .2.1.2.3v2.5h2.4c.1 0 .2 0 .2.2v.5c0 .2-.1.2-.2.2h-2.4l-.1 5.9zm9.8 2.5c-.1.2-.3.3-.5.3h-.8c-.3 0-.3-.2-.2-.4l4.1-6.7-3.7-6.2c-.1-.2-.1-.3.2-.3h.7c.3 0 .4.1.5.2l3 5.1 2.9-5.1c.1-.2.2-.2.5-.2h.8c.3 0 .3.2.2.3l-3.7 6.1 4.1 6.8c.1.2.1.4-.2.4h-.8a.5.5 0 0 1-.5-.3l-3.3-5.7-3.3 5.7zm15.6-.1c0 .2-.1.3-.3.3h-.6c-.2 0-.3-.1-.3-.3v-13.3c0-.2 0-.3.3-.4l.7-.1c.2 0 .4 0 .4.3v13.5h-.2zm6.8-.5c.9 0 1.9-.2 2.4-.4.2-.1.3 0 .4.1l.1.4c.1.2 0 .3-.2.4-.8.4-2 .6-2.9.6-3 0-4.5-2-4.5-5 0-2.8 1.7-5 4.5-5 2.4 0 3.7 1.8 3.7 4.1v.4c0 .4-.1.5-.6.5h-6.3c0 2.1 1.1 3.9 3.4 3.9zm2.2-5.2c0-1.6-.8-2.8-2.5-2.8-1.9 0-2.9 1.5-3.1 3.2h5.6v-.4zm6.3 4.6l2.6-7.8c.1-.2.2-.3.4-.3h.6c.2 0 .3.1.3.3l-3.2 9c-.1.2-.2.3-.4.3h-.7c-.2 0-.4-.1-.4-.3l-3.2-9c-.1-.2 0-.3.3-.3h.7c.3 0 .4.1.4.2l2.6 7.9zm9.4.6c.9 0 1.9-.2 2.4-.4.2-.1.3 0 .4.1l.1.4c.1.2 0 .3-.2.4-.8.4-2 .6-2.9.6-3 0-4.5-2-4.5-5 0-2.8 1.7-5 4.5-5 2.4 0 3.7 1.8 3.7 4.1v.4c0 .4-.1.5-.6.5h-6.3c.1 2.1 1.1 3.9 3.4 3.9zm2.2-5.2c0-1.6-.8-2.8-2.5-2.8-1.9 0-2.9 1.5-3.1 3.2h5.6v-.4zm6.9-3.7l.5.1c.1 0 .2.1.2.3l-.1.6c0 .1-.1.2-.3.1l-.6-.1c-.7 0-1.5.5-2 1.3v7.1c0 .2-.1.3-.3.3h-.6c-.2 0-.3-.1-.3-.3v-8.9c0-.2.1-.4.3-.4h.6c.2 0 .3.1.3.4v.7a3 3 0 0 1 2.3-1.2zm10.4 9.6c0 .2-.1.2-.2.2h-.6c-.5 0-.7-.1-.9-.3-.3-.3-.4-.7-.4-1.1v-.3c-.4 1-1.8 1.9-3.1 1.9-2.7 0-3.9-2.3-3.9-4.8 0-3.3 1.9-5.2 4.2-5.2 1 0 2.1.4 2.7 1.3v-.7c0-.2.1-.3.4-.3h.6c.2 0 .3.1.3.3v7l.1 1.1c.1.2.2.2.4.2h.1c.2 0 .2 0 .2.2l.1.5zm-2.1-7a3 3 0 0 0-2.6-1.7c-1.7 0-3 1.5-3 4.1 0 2.5 1.3 3.8 2.7 3.8 1.5 0 2.5-1.2 2.9-2.4v-3.8zm10.6-2.1c0-.3.1-.3.4-.3h.6c.2 0 .3.1.3.4v8.8c0 3-1.2 4.8-4.2 4.8-1 0-2.1-.3-2.9-.7-.2-.1-.2-.3-.1-.4l.2-.4c.1-.2.2-.2.4-.1.8.4 1.6.6 2.4.6 2.2 0 3-1.3 3-3.6v-1c-.7.8-1.9 1.3-3 1.3-2.9 0-4.1-2.2-4.1-4.8 0-2.7 1.5-5 4.3-5 1 0 2.1.4 2.7 1.2v-.8zm-.1 2.1a3.2 3.2 0 0 0-2.7-1.6c-2 0-3.1 1.6-3.1 3.9 0 1.8.7 3.9 2.9 3.9 1.1 0 2.3-.6 2.9-1.4v-4.8zm8.1 6.3c.9 0 1.9-.2 2.4-.4.2-.1.3 0 .4.1l.1.4c.1.2 0 .3-.2.4-.8.4-2 .6-2.9.6-3 0-4.5-2-4.5-5 0-2.8 1.7-5 4.5-5 2.4 0 3.7 1.8 3.7 4.1v.4c0 .4-.1.5-.6.5h-6.3c.1 2.1 1.1 3.9 3.4 3.9zm2.3-5.2c0-1.6-.8-2.8-2.5-2.8-1.9 0-2.9 1.5-3.1 3.2h5.6v-.4zm2.7-7.4c-.1-.2-.1-.3 0-.4l.3-.2c.2-.1.3-.1.4.1 1.8 2.5 2.9 5.2 2.9 8.2a14 14 0 0 1-3 8.1c-.1.1-.2.2-.4.1l-.3-.2c-.2-.1-.2-.2-.1-.4 1.6-2.5 2.4-4.8 2.4-7.9.2-2.9-.6-5.2-2.2-7.4z"/><path id="XMLID_355_" d="M66.5 237.4h643.4v97.2H66.5v-97.2z" fill="#f9f9fa"/><path id="XMLID_354_" class="st5" d="M66.5 334.6h643.4"/><path id="XMLID_352_" class="st1" d="M66.5 140.2h643.4v97.2H66.5v-97.2z"/><path class="st2" d="M95.4 201.5h-4.1v-20.6h4.1v20.6zm7.6-15.3l.2 2.2a5.5 5.5 0 0 1 4.4-2.5c1.5 0 2.8.5 3.6 1.5.9 1 1.3 2.6 1.3 4.7v9.4h-4.1v-9.4c0-1.1-.2-1.9-.6-2.3s-1-.7-1.7-.7c-.6 0-1.2.1-1.6.3a3 3 0 0 0-1.2 1v11.1h-4.1v-15.3h3.8zm18.1 9.6l.3 1.4h.1l.3-1.4 2.5-9.6h4.3l-5.2 15.3h-4l-5.2-15.3h4.3l2.6 9.6zm15.8 6a7 7 0 0 1-5.4-2.1 7.6 7.6 0 0 1-1.9-5.4v-.6c0-2.3.6-4.2 1.9-5.6s3-2.2 5.1-2.2c2.1 0 3.6.6 4.7 1.9 1.1 1.3 1.6 3 1.6 5.1v2.1h-9.1v.1a4 4 0 0 0 1 2.5c.6.6 1.4 1 2.5 1 .9 0 1.7-.1 2.4-.3l2-.9 1.1 2.5c-.6.5-1.4.9-2.5 1.3s-2.2.6-3.4.6zm-.3-12.7c-.8 0-1.5.3-1.9.9-.4.6-.7 1.3-.8 2.3v.1h5v-.3c0-.9-.2-1.6-.6-2.1-.4-.5-.9-.9-1.7-.9zm17.1 8.1c0-.5-.2-.8-.7-1.2-.4-.3-1.3-.6-2.4-.9-1.8-.4-3.2-.9-4.1-1.6-.9-.7-1.4-1.7-1.4-3s.6-2.4 1.7-3.4a6.8 6.8 0 0 1 4.4-1.4c1.9 0 3.5.5 4.7 1.4s1.7 2.1 1.7 3.5v.1h-4a2 2 0 0 0-.6-1.5c-.4-.4-1-.6-1.7-.6s-1.2.2-1.6.5-.6.7-.6 1.2.2.9.6 1.2 1.2.6 2.4.8c1.9.4 3.3.9 4.2 1.7.9.7 1.4 1.7 1.4 3 0 1.4-.6 2.5-1.8 3.4s-2.7 1.3-4.7 1.3-3.7-.5-4.8-1.6a4.4 4.4 0 0 1-1.7-3.5v-.1h3.8c0 .8.3 1.4.8 1.8s1.2.6 2 .6 1.3-.2 1.7-.5c.5-.2.7-.6.7-1.2zm11.6-14.8v3.8h2.6v2.9h-2.6v7.8c0 .6.1 1 .4 1.3.2.3.6.4 1 .4h.6l.6-.1.3 3-1.2.3-1.3.1c-1.4 0-2.5-.4-3.3-1.2-.8-.8-1.2-2-1.2-3.7v-7.8H159v-2.9h2.2v-3.8h4.1v-.1zm9 3.8l.2 2c.5-.7 1.1-1.3 1.8-1.7s1.6-.6 2.6-.6 1.8.2 2.5.7a4 4 0 0 1 1.6 2c.5-.8 1.1-1.5 1.8-1.9.8-.5 1.6-.7 2.7-.7 1.5 0 2.7.5 3.6 1.6.9 1.1 1.3 2.7 1.3 4.9v9.1h-4.1v-9.1c0-1.2-.2-2.1-.6-2.6-.4-.5-.9-.7-1.7-.7-.6 0-1.1.1-1.5.4-.4.3-.8.6-1 1.1v11h-4.1v-9.1c0-1.2-.2-2-.6-2.5-.4-.5-.9-.7-1.7-.7-.6 0-1 .1-1.5.3-.4.2-.8.5-1 .9v11.2h-4.1v-15.3h3.8v-.3zm27.9 15.6a7 7 0 0 1-5.4-2.1 7.6 7.6 0 0 1-1.9-5.4v-.6c0-2.3.6-4.2 1.9-5.6s3-2.2 5.1-2.2 3.6.6 4.7 1.9c1.1 1.3 1.6 3 1.6 5.1v2.1h-9.1v.1a4 4 0 0 0 1 2.5c.6.7 1.4 1 2.5 1 .9 0 1.7-.1 2.4-.3l2-.9 1.1 2.5c-.6.5-1.4.9-2.5 1.3-1 .4-2.2.6-3.4.6zm-.3-12.7c-.8 0-1.5.3-1.9.9-.4.6-.7 1.3-.8 2.3v.1h5v-.3c0-.9-.2-1.6-.6-2.1s-.9-.9-1.7-.9zm12.6-2.9l.2 2.2c.5-.8 1.1-1.4 1.9-1.8.7-.4 1.6-.7 2.5-.7 1.5 0 2.8.5 3.6 1.5.9 1 1.3 2.6 1.3 4.7v9.4h-4.1v-9.4c0-1.1-.2-1.9-.6-2.3s-1-.7-1.7-.7c-.6 0-1.2.1-1.6.3a3 3 0 0 0-1.2 1v11.1h-4.1v-15.3h3.8zm17.5-3.8v3.8h2.6v2.9H232v7.8c0 .6.1 1 .4 1.3.2.3.6.4 1 .4h.6l.6-.1.3 3-1.2.3-1.3.1c-1.4 0-2.5-.4-3.3-1.2s-1.2-2-1.2-3.7v-7.8h-2.2v-2.9h2.2v-3.8h4.1v-.1zM95.2 295.5h9.2v3.2H91v-20.6h4.1l.1 17.4zm18.3 3.5c-2.3 0-4.1-.7-5.4-2.1s-1.9-3.2-1.9-5.4v-.6c0-2.3.6-4.2 1.9-5.6s3-2.2 5.1-2.2 3.6.6 4.7 1.9 1.6 3 1.6 5.1v2.1h-9.1v.1a4 4 0 0 0 1 2.5c.6.7 1.4 1 2.5 1 .9 0 1.7-.1 2.4-.3l2-.9 1.1 2.5c-.6.5-1.4.9-2.5 1.3s-2.2.6-3.4.6zm-.3-12.7c-.8 0-1.5.3-1.9.9-.4.6-.7 1.3-.8 2.3v.1h5v-.3c0-.9-.2-1.6-.6-2.1s-.9-.9-1.7-.9zm14.1 6.7l.3 1.4h.1l.3-1.4 2.5-9.6h4.3l-5.2 15.3h-4l-5.2-15.3h4.3l2.6 9.6zm15.8 6c-2.3 0-4.1-.7-5.4-2.1s-1.9-3.2-1.9-5.4v-.6c0-2.3.6-4.2 1.9-5.6s3-2.2 5.1-2.2c2.1 0 3.6.6 4.7 1.9 1.1 1.3 1.6 3 1.6 5.1v2.1H140v.1a4 4 0 0 0 1 2.5c.6.7 1.4 1 2.5 1 .9 0 1.7-.1 2.4-.3l2-.9 1.1 2.5c-.6.5-1.4.9-2.5 1.3s-2.2.6-3.4.6zm-.3-12.7c-.8 0-1.5.3-1.9.9-.4.6-.7 1.3-.8 2.3v.1h5v-.3c0-.9-.2-1.6-.6-2.1-.4-.5-.9-.9-1.7-.9zm16.9.6h-1.5a2.4 2.4 0 0 0-2.4 1.5v10.3h-4.1v-15.3h3.8l.2 2.3c.4-.8.8-1.4 1.4-1.9.6-.4 1.2-.7 2-.7h.6l.5.1-.5 3.7zm11.2 11.8l-.4-1.1-.2-1.2c-.4.7-1 1.4-1.7 1.9s-1.5.7-2.5.7c-1.6 0-2.8-.4-3.7-1.2-.9-.8-1.3-2-1.3-3.4 0-1.5.6-2.7 1.7-3.5a9 9 0 0 1 5.1-1.2h2.3v-1.2c0-.7-.2-1.3-.6-1.7-.4-.4-1-.6-1.7-.6s-1.2.2-1.6.5c-.4.3-.5.8-.5 1.3h-4v-.1c-.1-1.3.5-2.4 1.7-3.3a7.7 7.7 0 0 1 4.7-1.4c1.8 0 3.3.5 4.5 1.4a5 5 0 0 1 1.7 4v6.3a12.3 12.3 0 0 0 .7 3.9l-4.2-.1zm-3.8-2.8c.7 0 1.4-.2 1.9-.5.6-.4 1-.8 1.2-1.2V292h-2.3c-.9 0-1.5.2-2 .7-.4.4-.7 1-.7 1.6 0 .5.2.9.5 1.2s.8.4 1.4.4zm9.7-4.7c0-2.4.5-4.4 1.6-5.8a5.3 5.3 0 0 1 4.4-2.2 4.6 4.6 0 0 1 4 2.3l.3-2h3.6v15.3c0 2-.7 3.5-2 4.6s-3.1 1.6-5.5 1.6a11.3 11.3 0 0 1-4.9-1.2l.7-3.1 2 .7c.7.2 1.4.2 2.2.2 1.1 0 2-.2 2.5-.7s.8-1.2.8-2.2v-1.4a4.8 4.8 0 0 1-3.7 1.8c-1.9 0-3.3-.7-4.4-2.1s-1.6-3.2-1.6-5.5v-.3zm4.1.3a6 6 0 0 0 .7 3.2c.4.8 1.2 1.2 2.2 1.2.6 0 1.2-.1 1.6-.3.4-.2.8-.6 1.1-1V288c-.3-.5-.6-.8-1.1-1.1s-1-.4-1.6-.4c-1 0-1.7.4-2.2 1.3-.5.9-.7 2.1-.7 3.5v.2zm19.5 7.5a7 7 0 0 1-5.4-2.1 7.6 7.6 0 0 1-1.9-5.4v-.6c0-2.3.6-4.2 1.9-5.6s3-2.2 5.1-2.2 3.6.6 4.7 1.9c1.1 1.3 1.6 3 1.6 5.1v2.1h-9.1v.1a4 4 0 0 0 1 2.5c.6.7 1.4 1 2.5 1 .9 0 1.7-.1 2.4-.3s1.3-.5 2-.9l1.1 2.5c-.6.5-1.4.9-2.5 1.3-1 .4-2.2.6-3.4.6zm-.3-12.7c-.8 0-1.5.3-1.9.9-.4.6-.7 1.3-.8 2.3v.1h5v-.3c0-.9-.2-1.6-.6-2.1s-.8-.9-1.7-.9z"/><path class="st7" d="M434.5 287.2l2.4-4.9h4.7l-4.6 7.6 4.8 7.7h-4.7l-2.5-5.1-2.5 5.1h-4.7l4.8-7.7-4.6-7.6h4.6l2.3 4.9zm23 10.5h-13.8V295l6.4-7.2c1-1.1 1.6-2.1 2-2.9.4-.8.6-1.5.6-2.1 0-.8-.2-1.5-.6-2s-1.1-.8-1.9-.8c-.9 0-1.6.3-2.1 1s-.7 1.5-.7 2.5h-4v-.1c0-1.8.6-3.4 1.8-4.7 1.3-1.3 2.9-1.9 5.1-1.9s3.8.5 4.9 1.6a5.6 5.6 0 0 1 1.8 4.4c0 1.2-.3 2.4-1 3.4s-1.8 2.4-3.4 4.2l-3.4 4.1v.1h8.4l-.1 3.1zm16.4-7.5a8 8 0 0 1-1.9 5.7 6.6 6.6 0 0 1-5 2.1c-2.1 0-3.8-.7-5.1-2.1a8 8 0 0 1-1.9-5.7v-5.7a8 8 0 0 1 1.9-5.7c1.3-1.4 3-2.1 5.1-2.1s3.8.7 5.1 2.1a8 8 0 0 1 1.9 5.7v5.7h-.1zm-4.1-6.1c0-1.3-.3-2.3-.8-3.1-.5-.7-1.2-1.1-2.1-1.1s-1.6.4-2.1 1.1-.7 1.8-.7 3.1v6.5c0 1.4.2 2.4.8 3.1.5.7 1.2 1.1 2.1 1.1s1.6-.4 2.1-1.1.7-1.8.7-3.1v-6.5zM417.3 389.5c0-.8-.2-1.4-.7-1.9-.4-.5-1.2-.9-2.4-1.4-2.1-.7-3.7-1.6-4.7-2.5-1-1-1.5-2.3-1.5-4 0-1.6.5-2.9 1.5-3.9s2.4-1.6 4.2-1.8v-3h2.3v3.1c1.7.2 3 .9 4 2s1.4 2.5 1.4 4.3v.1h-4c0-1-.2-1.8-.7-2.4s-1.1-.8-2-.8-1.5.2-1.9.7-.6 1.1-.6 1.9c0 .7.2 1.3.6 1.7s1.2.9 2.4 1.4c2.1.7 3.7 1.5 4.7 2.5s1.6 2.3 1.6 4.1c0 1.6-.5 3-1.5 3.9-1 1-2.4 1.6-4.2 1.7v2.8h-2.3v-2.8c-1.8-.2-3.3-.8-4.5-1.8s-1.7-2.6-1.7-4.6v-.1h4c0 1.2.3 2.1.9 2.6s1.4.8 2.3.8 1.6-.2 2.1-.7.7-1.1.7-1.9zm21.2 5.4h-13.8v-2.7l6.4-7.2c1-1.1 1.6-2.1 2-2.9s.6-1.5.6-2.1c0-.8-.2-1.5-.6-2s-1.1-.8-1.9-.8c-.9 0-1.6.3-2.1 1s-.7 1.5-.7 2.5h-4v-.1c0-1.8.6-3.4 1.8-4.7a6.7 6.7 0 0 1 5.1-1.9c2.1 0 3.8.5 4.9 1.6a5.6 5.6 0 0 1 1.8 4.4c0 1.2-.3 2.4-1 3.4s-1.8 2.4-3.4 4.2l-3.4 4.1v.1h8.4l-.1 3.1zm23.6-7.5c0 2.4-.6 4.3-1.9 5.7s-3 2.1-5 2.1c-2.1 0-3.8-.7-5.1-2.1a8 8 0 0 1-1.9-5.7v-5.7a8 8 0 0 1 1.9-5.7c1.3-1.4 3-2.1 5.1-2.1s3.8.7 5.1 2.1 1.9 3.3 1.9 5.7v5.7h-.1zm-4.1-6.1c0-1.3-.3-2.3-.8-3.1s-1.2-1.1-2.1-1.1-1.6.4-2.1 1.1-.7 1.8-.7 3.1v6.5c0 1.4.2 2.4.8 3.1.5.7 1.2 1.1 2.1 1.1s1.6-.4 2.1-1.1.7-1.8.7-3.1v-6.5zm20.8 6.1c0 2.4-.6 4.3-1.9 5.7s-3 2.1-5 2.1c-2.1 0-3.8-.7-5.1-2.1s-1.9-3.3-1.9-5.7v-5.7a8 8 0 0 1 1.9-5.7c1.3-1.4 3-2.1 5.1-2.1s3.8.7 5.1 2.1 1.9 3.3 1.9 5.7v5.7h-.1zm-4.2-6.1c0-1.3-.3-2.3-.8-3.1-.5-.7-1.2-1.1-2.1-1.1s-1.6.4-2.1 1.1-.7 1.8-.7 3.1v6.5c0 1.4.2 2.4.8 3.1.5.7 1.2 1.1 2.1 1.1s1.6-.4 2.1-1.1.7-1.8.7-3.1v-6.5zm20.8 6.1a8 8 0 0 1-1.9 5.7 6.6 6.6 0 0 1-5 2.1c-2.1 0-3.8-.7-5.1-2.1s-1.9-3.3-1.9-5.7v-5.7c0-2.4.6-4.3 1.9-5.7s3-2.1 5.1-2.1 3.8.7 5.1 2.1a8 8 0 0 1 1.9 5.7v5.7h-.1zm-4.1-6.1c0-1.3-.3-2.3-.8-3.1-.5-.7-1.2-1.1-2.1-1.1s-1.6.4-2.1 1.1-.7 1.8-.7 3.1v6.5c0 1.4.2 2.4.8 3.1.5.7 1.2 1.1 2.1 1.1s1.6-.4 2.1-1.1.7-1.8.7-3.1v-6.5zM429.2 681.1c0-.8-.2-1.4-.7-1.9-.4-.5-1.2-.9-2.4-1.4-2.1-.7-3.7-1.6-4.7-2.5-1-1-1.5-2.3-1.5-4 0-1.6.5-2.9 1.5-3.9s2.4-1.6 4.2-1.8v-3h2.3v3.1c1.7.2 3 .9 4 2s1.4 2.5 1.4 4.3v.1h-4c0-1-.2-1.8-.7-2.4-.5-.6-1.1-.8-2-.8s-1.5.2-1.9.7-.6 1.1-.6 1.9c0 .7.2 1.3.6 1.7s1.2.9 2.4 1.4c2.1.7 3.7 1.5 4.7 2.5s1.6 2.3 1.6 4.1c0 1.6-.5 3-1.5 3.9-1 1-2.4 1.6-4.2 1.7v2.8h-2.3v-2.9c-1.8-.2-3.3-.8-4.5-1.8s-1.7-2.6-1.7-4.6v-.1h4c0 1.2.3 2.1.9 2.6s1.4.8 2.3.8 1.6-.2 2.1-.7.7-1 .7-1.8zm17 5.4H442v-17h-4.3v-3.2l8.4-.7v20.9h.1zm20.6-7.5c0 2.4-.6 4.3-1.9 5.7s-3 2.1-5 2.1c-2.1 0-3.8-.7-5.1-2.1s-1.9-3.3-1.9-5.7v-5.7c0-2.4.6-4.3 1.9-5.7s3-2.1 5.1-2.1 3.8.7 5.1 2.1 1.9 3.3 1.9 5.7v5.7h-.1zm-4.1-6.1c0-1.3-.3-2.3-.8-3.1-.5-.7-1.2-1.1-2.1-1.1s-1.6.4-2.1 1.1-.7 1.8-.7 3.1v6.5c0 1.4.2 2.4.8 3.1.5.7 1.2 1.1 2.1 1.1s1.6-.4 2.1-1.1c.5-.7.7-1.8.7-3.1v-6.5zm14.9-7.3l2.2.2c.7.1 1.4.4 2 .6l-.7 3-1.7-.5a9 9 0 0 0-1.8-.2c-1.2 0-2.2.5-2.9 1.4s-1.1 2.2-1.1 3.9v.7a5.8 5.8 0 0 1 4.5-1.7c1.8 0 3.1.6 4.1 1.9 1 1.3 1.5 2.9 1.5 4.9 0 2.1-.6 3.7-1.9 5s-3 1.9-5 1.9c-2.2 0-3.9-.7-5.3-2.2s-2-3.5-2-6v-4.3c0-2.6.8-4.7 2.3-6.3a8.2 8.2 0 0 1 5.8-2.3zm-.8 10.6c-.7 0-1.4.1-1.9.4a3 3 0 0 0-1.2 1v1.1c0 1.6.3 2.8.9 3.7s1.3 1.3 2.3 1.3c.9 0 1.5-.4 2.1-1.1.5-.7.8-1.6.8-2.7s-.3-2-.8-2.7a3 3 0 0 0-2.2-1zM599 287.2l2.4-4.9h4.7l-4.6 7.6 4.8 7.7h-4.7l-2.5-5.1-2.5 5.1h-4.7l4.8-7.7-4.6-7.6h4.6l2.3 4.9zm23 10.5h-13.8V295l6.4-7.2c1-1.1 1.6-2.1 2-2.9.4-.8.6-1.5.6-2.1 0-.8-.2-1.5-.6-2-.4-.5-1.1-.8-1.9-.8-.9 0-1.6.3-2.1 1s-.7 1.5-.7 2.5h-4v-.1c0-1.8.6-3.4 1.8-4.7 1.3-1.3 2.9-1.9 5.1-1.9s3.8.5 4.9 1.6a5.6 5.6 0 0 1 1.8 4.4c0 1.2-.3 2.4-1 3.4s-1.8 2.4-3.4 4.2l-3.4 4.1v.1h8.4l-.1 3.1zm16.4-7.5a8 8 0 0 1-1.9 5.7 6.6 6.6 0 0 1-5 2.1c-2.1 0-3.8-.7-5.1-2.1s-1.9-3.3-1.9-5.7v-5.7a8 8 0 0 1 1.9-5.7c1.3-1.4 3-2.1 5.1-2.1s3.8.7 5.1 2.1a8 8 0 0 1 1.9 5.7l-.1 5.7zm-4.1-6.1c0-1.3-.3-2.3-.8-3.1a2.5 2.5 0 0 0-2.1-1.1c-.9 0-1.6.4-2.1 1.1s-.7 1.8-.7 3.1v6.5c0 1.4.2 2.4.8 3.1.5.7 1.2 1.1 2.1 1.1.9 0 1.6-.4 2.1-1.1s.7-1.8.7-3.1v-6.5zm20.7 6.1a8 8 0 0 1-1.9 5.7 6.6 6.6 0 0 1-5 2.1c-2.1 0-3.8-.7-5.1-2.1s-1.9-3.3-1.9-5.7v-5.7a8 8 0 0 1 1.9-5.7c1.3-1.4 3-2.1 5.1-2.1s3.8.7 5.1 2.1a8 8 0 0 1 1.9 5.7l-.1 5.7zm-4.1-6.1c0-1.3-.3-2.3-.8-3.1s-1.2-1.1-2.1-1.1c-.9 0-1.6.4-2.1 1.1s-.7 1.8-.7 3.1v6.5c0 1.4.2 2.4.8 3.1.5.7 1.2 1.1 2.1 1.1.9 0 1.6-.4 2.1-1.1s.7-1.8.7-3.1v-6.5zM581.8 389.5c0-.8-.2-1.4-.7-1.9-.4-.5-1.2-.9-2.4-1.4-2.1-.7-3.7-1.6-4.7-2.5-1-1-1.5-2.3-1.5-4 0-1.6.5-2.9 1.5-3.9s2.4-1.6 4.2-1.8v-3h2.3v3.1c1.7.2 3 .9 4 2s1.4 2.5 1.4 4.3v.1h-4c0-1-.2-1.8-.7-2.4s-1.1-.8-2-.8-1.5.2-1.9.7-.6 1.1-.6 1.9c0 .7.2 1.3.6 1.7.4.4 1.2.9 2.4 1.4 2.1.7 3.7 1.5 4.7 2.5s1.6 2.3 1.6 4.1c0 1.6-.5 3-1.5 3.9-1 1-2.4 1.6-4.2 1.7v2.8H578v-2.8c-1.8-.2-3.3-.8-4.5-1.8s-1.7-2.6-1.7-4.6v-.1h4c0 1.2.3 2.1.9 2.6.6.5 1.4.8 2.3.8.9 0 1.6-.2 2.1-.7a3 3 0 0 0 .7-1.9zm21.1 5.4h-13.8v-2.7l6.4-7.2c1-1.1 1.6-2.1 2-2.9s.6-1.5.6-2.1c0-.8-.2-1.5-.6-2s-1.1-.8-1.9-.8c-.9 0-1.6.3-2.1 1s-.7 1.5-.7 2.5h-4v-.1c0-1.8.6-3.4 1.8-4.7a6.7 6.7 0 0 1 5.1-1.9c2.1 0 3.8.5 4.9 1.6a5.6 5.6 0 0 1 1.8 4.4c0 1.2-.3 2.4-1 3.4s-1.8 2.4-3.4 4.2l-3.4 4.1v.1h8.4l-.1 3.1zm16.5-7.5a8 8 0 0 1-1.9 5.7 6.6 6.6 0 0 1-5 2.1c-2.1 0-3.8-.7-5.1-2.1s-1.9-3.3-1.9-5.7v-5.7a8 8 0 0 1 1.9-5.7c1.3-1.4 3-2.1 5.1-2.1s3.8.7 5.1 2.1 1.9 3.3 1.9 5.7l-.1 5.7zm-4.2-6.1c0-1.3-.3-2.3-.8-3.1a2.5 2.5 0 0 0-2.1-1.1c-.9 0-1.6.4-2.1 1.1s-.7 1.8-.7 3.1v6.5c0 1.4.2 2.4.8 3.1.5.7 1.2 1.1 2.1 1.1.9 0 1.6-.4 2.1-1.1s.7-1.8.7-3.1v-6.5zm28 6.1a8 8 0 0 1-1.9 5.7 6.6 6.6 0 0 1-5 2.1c-2.1 0-3.8-.7-5.1-2.1s-1.9-3.3-1.9-5.7v-5.7a8 8 0 0 1 1.9-5.7c1.3-1.4 3-2.1 5.1-2.1s3.8.7 5.1 2.1 1.9 3.3 1.9 5.7l-.1 5.7zm-4.1-6.1c0-1.3-.3-2.3-.8-3.1a2.5 2.5 0 0 0-2.1-1.1c-.9 0-1.6.4-2.1 1.1s-.7 1.8-.7 3.1v6.5c0 1.4.2 2.4.8 3.1.5.7 1.2 1.1 2.1 1.1.9 0 1.6-.4 2.1-1.1s.7-1.8.7-3.1v-6.5zm20.8 6.1a8 8 0 0 1-1.9 5.7 6.6 6.6 0 0 1-5 2.1c-2.1 0-3.8-.7-5.1-2.1s-1.9-3.3-1.9-5.7v-5.7a8 8 0 0 1 1.9-5.7c1.3-1.4 3-2.1 5.1-2.1s3.8.7 5.1 2.1 1.9 3.3 1.9 5.7l-.1 5.7zm-4.2-6.1c0-1.3-.3-2.3-.8-3.1a2.5 2.5 0 0 0-2.1-1.1c-.9 0-1.6.4-2.1 1.1s-.7 1.8-.7 3.1v6.5c0 1.4.2 2.4.8 3.1.5.7 1.2 1.1 2.1 1.1.9 0 1.6-.4 2.1-1.1s.7-1.8.7-3.1v-6.5zm20.8 6.1a8 8 0 0 1-1.9 5.7 6.6 6.6 0 0 1-5 2.1c-2.1 0-3.8-.7-5.1-2.1s-1.9-3.3-1.9-5.7v-5.7c0-2.4.6-4.3 1.9-5.7s3-2.1 5.1-2.1 3.8.7 5.1 2.1 1.9 3.3 1.9 5.7l-.1 5.7zm-4.1-6.1c0-1.3-.3-2.3-.8-3.1a2.5 2.5 0 0 0-2.1-1.1c-.9 0-1.6.4-2.1 1.1s-.7 1.8-.7 3.1v6.5c0 1.4.2 2.4.8 3.1.5.7 1.2 1.1 2.1 1.1.9 0 1.6-.4 2.1-1.1s.7-1.8.7-3.1v-6.5zM602 681.1c0-.8-.2-1.4-.7-1.9-.4-.5-1.2-.9-2.4-1.4-2.1-.7-3.7-1.6-4.7-2.5-1-1-1.5-2.3-1.5-4 0-1.6.5-2.9 1.5-3.9s2.4-1.6 4.2-1.8v-3h2.3v3.1c1.7.2 3 .9 4 2s1.4 2.5 1.4 4.3v.1h-4c0-1-.2-1.8-.7-2.4-.5-.6-1.1-.8-2-.8s-1.5.2-1.9.7-.6 1.1-.6 1.9c0 .7.2 1.3.6 1.7s1.2.9 2.4 1.4c2.1.7 3.7 1.5 4.7 2.5s1.6 2.3 1.6 4.1c0 1.6-.5 3-1.5 3.9-1 1-2.4 1.6-4.2 1.7v2.8h-2.3v-2.9c-1.8-.2-3.3-.8-4.5-1.8s-1.7-2.6-1.7-4.6v-.1h4c0 1.2.3 2.1.9 2.6.6.5 1.4.8 2.3.8.9 0 1.6-.2 2.1-.7.5-.4.7-1 .7-1.8zm16.9 5.4h-4.1v-17h-4.3v-3.2l8.4-.7v20.9zm14.9-20.9l2.2.2c.7.1 1.4.4 2 .6l-.7 3-1.7-.5a9 9 0 0 0-1.8-.2c-1.2 0-2.2.5-2.9 1.4s-1.1 2.2-1.1 3.9v.7a5.8 5.8 0 0 1 4.5-1.7c1.8 0 3.1.6 4.1 1.9 1 1.3 1.5 2.9 1.5 4.9 0 2.1-.6 3.7-1.9 5s-3 1.9-5 1.9c-2.2 0-3.9-.7-5.3-2.2s-2-3.5-2-6v-4.3c0-2.6.8-4.7 2.3-6.3a7.8 7.8 0 0 1 5.8-2.3zm-.9 10.6c-.7 0-1.4.1-1.9.4a3 3 0 0 0-1.2 1v1.1c0 1.6.3 2.8.9 3.7s1.3 1.3 2.3 1.3c.9 0 1.5-.4 2.1-1.1.5-.7.8-1.6.8-2.7s-.3-2-.8-2.7c-.6-.7-1.3-1-2.2-1zm23.3 2.8a8 8 0 0 1-1.9 5.7 6.6 6.6 0 0 1-5 2.1c-2.1 0-3.8-.7-5.1-2.1s-1.9-3.3-1.9-5.7v-5.7c0-2.4.6-4.3 1.9-5.7s3-2.1 5.1-2.1 3.8.7 5.1 2.1a8 8 0 0 1 1.9 5.7l-.1 5.7zm-4.1-6.1c0-1.3-.3-2.3-.8-3.1s-1.2-1.1-2.1-1.1c-.9 0-1.6.4-2.1 1.1s-.7 1.8-.7 3.1v6.5c0 1.4.2 2.4.8 3.1.5.7 1.2 1.1 2.1 1.1.9 0 1.6-.4 2.1-1.1.5-.7.7-1.8.7-3.1v-6.5z"/><path id="XMLID_296_" class="st5" d="M66.5 140.2h643.4"/><path id="XMLID_294_" class="st5" d="M66.5 237.4h643.4"/><path id="XMLID_293_" class="st9" d="M646.2 66.2h-46.3a9.3 9.3 0 0 0-9.3 9.3v46.2c0 5.1 4.1 9.3 9.3 9.3h9.3l13.9 18.5L637 131h9.3c5.1 0 9.3-4.1 9.3-9.3V75.4a9.5 9.5 0 0 0-9.4-9.2z"/><g id="XMLID_173_"><path class="st10" d="M574.4 163.4h97.2v50.9h-97.2v-50.9z"/><path class="st11" d="M671.6 215.5h-97.2c-.7 0-1.2-.6-1.2-1.2v-50.9c0-.7.6-1.2 1.2-1.2h97.2c.7 0 1.2.6 1.2 1.2v50.9c.1.7-.5 1.2-1.2 1.2zm-95.9-2.5h94.7v-48.4h-94.7V213z"/><path id="XMLID_277_" class="st11" d="M574.4 178.5c-.7 0-1.2-.6-1.2-1.2s.6-1.2 1.2-1.2c7 0 12.6-5.7 12.6-12.6 0-.7.6-1.2 1.2-1.2s1.2.6 1.2 1.2c.2 8.2-6.6 15-15 15z"/><path id="XMLID_276_" class="st11" d="M588.3 215.5c-.7 0-1.2-.6-1.2-1.2 0-7-5.7-12.6-12.6-12.6-.7 0-1.2-.6-1.2-1.2s.6-1.2 1.2-1.2c8.3 0 15.1 6.8 15.1 15.1 0 .6-.6 1.1-1.3 1.1z"/><path id="XMLID_275_" class="st11" d="M657.7 215.5c-.7 0-1.2-.6-1.2-1.2 0-8.3 6.8-15.1 15.1-15.1.7 0 1.2.6 1.2 1.2s-.6 1.2-1.2 1.2c-7 0-12.6 5.7-12.6 12.6 0 .8-.6 1.3-1.3 1.3z"/><path id="XMLID_274_" class="st11" d="M671.6 178.5c-8.3 0-15.1-6.8-15.1-15.1 0-.7.6-1.2 1.2-1.2s1.2.6 1.2 1.2c0 7 5.7 12.6 12.6 12.6.7 0 1.2.6 1.2 1.2s-.4 1.3-1.1 1.3z"/></g><path class="st11" d="M600.8 176.4v-1.8h3.1v1.8c2.7.6 4.1 2.6 4.1 5.9v.8h-3.6v-1c0-1.7-.7-2.4-1.9-2.4s-1.9.7-1.9 2.4c0 5 7.5 5.2 7.5 12.2 0 3.3-1.4 5.4-4.1 6v1.8h-3.1v-1.8c-2.7-.6-4.1-2.7-4.1-6v-1.7h3.6v1.9c0 1.7.8 2.4 2 2.4s2-.6 2-2.4c0-5-7.5-5.2-7.5-12.2-.1-3.2 1.3-5.3 3.9-5.9zm12.2 2.8c3 0 3.6-1.4 4.2-3.1h2.6v24.3H616v-18.5h-3v-2.7zm11.1 2.8c0-3.9 2-6.1 5.8-6.1s5.8 2.2 5.8 6.1v12.7c0 3.9-2 6.1-5.8 6.1s-5.8-2.2-5.8-6.1V182zm3.8 12.9c0 1.7.8 2.4 2 2.4s2-.7 2-2.4v-13.1c0-1.7-.8-2.4-2-2.4s-2 .7-2 2.4v13.1zm10-12.9c0-3.9 2-6.1 5.8-6.1 3.7 0 5.8 2.2 5.8 6.1v12.7c0 3.9-2 6.1-5.8 6.1-3.7 0-5.8-2.2-5.8-6.1V182zm3.8 12.9c0 1.7.8 2.4 2 2.4s2-.7 2-2.4v-13.1c0-1.7-.8-2.4-2-2.4s-2 .7-2 2.4v13.1z"/><g id="XMLID_279_"><path class="st10" d="M402.4 163.4h97.2v50.9h-97.2v-50.9z"/><path class="st11" d="M499.6 215.5h-97.2c-.7 0-1.2-.6-1.2-1.2v-50.9c0-.7.6-1.2 1.2-1.2h97.2c.7 0 1.2.6 1.2 1.2v50.9c0 .7-.6 1.2-1.2 1.2zm-96-2.5h94.7v-48.4h-94.7V213z"/><path id="XMLID_312_" class="st11" d="M402.4 178.5c-.7 0-1.2-.6-1.2-1.2s.6-1.2 1.2-1.2c7 0 12.6-5.7 12.6-12.6 0-.7.6-1.2 1.2-1.2s1.2.6 1.2 1.2a15 15 0 0 1-15 15z"/><path id="XMLID_310_" class="st11" d="M416.2 215.5c-.7 0-1.2-.6-1.2-1.2 0-7-5.7-12.6-12.6-12.6-.7 0-1.2-.6-1.2-1.2s.6-1.2 1.2-1.2c8.3 0 15.1 6.8 15.1 15.1 0 .6-.6 1.1-1.3 1.1z"/><path id="XMLID_308_" class="st11" d="M485.7 215.5c-.7 0-1.2-.6-1.2-1.2 0-8.3 6.8-15.1 15.1-15.1.7 0 1.2.6 1.2 1.2s-.6 1.2-1.2 1.2c-7 0-12.6 5.7-12.6 12.6-.1.8-.6 1.3-1.3 1.3z"/><path id="XMLID_306_" class="st11" d="M499.6 178.5c-8.3 0-15.1-6.8-15.1-15.1 0-.7.6-1.2 1.2-1.2s1.2.6 1.2 1.2c0 7 5.7 12.6 12.6 12.6.7 0 1.2.6 1.2 1.2s-.5 1.3-1.1 1.3z"/></g><path class="st11" d="M428.8 176.4v-1.8h3.1v1.8c2.7.6 4.1 2.6 4.1 5.9v.8h-3.6v-1c0-1.7-.7-2.4-1.9-2.4s-1.9.7-1.9 2.4c0 5 7.5 5.2 7.5 12.2 0 3.3-1.4 5.4-4.1 6v1.8h-3.1v-1.8c-2.7-.6-4.1-2.7-4.1-6v-1.7h3.6v1.9c0 1.7.8 2.4 2 2.4s2-.6 2-2.4c0-5-7.5-5.2-7.5-12.2-.1-3.2 1.2-5.3 3.9-5.9zm12.2 2.8c3 0 3.6-1.4 4.2-3.1h2.6v24.3H444v-18.5h-3v-2.7zm11 2.8c0-3.9 2-6.1 5.8-6.1s5.8 2.2 5.8 6.1v12.7c0 3.9-2 6.1-5.8 6.1s-5.8-2.2-5.8-6.1V182zm3.9 12.9c0 1.7.8 2.4 2 2.4s2-.7 2-2.4v-13.1c0-1.7-.8-2.4-2-2.4s-2 .7-2 2.4v13.1zm9.9-12.9c0-3.9 2-6.1 5.8-6.1s5.8 2.2 5.8 6.1v12.7c0 3.9-2 6.1-5.8 6.1s-5.8-2.2-5.8-6.1V182zm3.8 12.9c0 1.7.8 2.4 2 2.4s2-.7 2-2.4v-13.1c0-1.7-.8-2.4-2-2.4s-2 .7-2 2.4v13.1z"/><path id="XMLID_273_" class="st9" d="M474.4 66.2h-46.3a9.3 9.3 0 0 0-9.3 9.3v46.2c0 5.1 4.1 9.3 9.3 9.3h9.3l13.9 18.5 13.9-18.5h9.3c5.1 0 9.3-4.1 9.3-9.3V75.4a9.5 9.5 0 0 0-9.4-9.2z"/><g id="XMLID_268_"><path id="XMLID_269_" class="st1" d="M631.1 88.9v1.3c0 3.7-1.1 6-3.6 7.2 3 1.2 4.2 3.9 4.2 7.6v2.9c0 5.5-2.9 8.5-8.5 8.5h-8.8V80.7h8.5c5.7 0 8.2 2.7 8.2 8.2zM620 85.8v9.4h2.2c2.1 0 3.4-.9 3.4-3.8v-2c0-2.5-.9-3.7-2.9-3.7l-2.7.1zm0 14.5v10.9h3.2c1.9 0 2.9-.9 2.9-3.5v-3c0-3.3-1.1-4.3-3.6-4.3l-2.5-.1z"/></g><g id="XMLID_264_"><path id="XMLID_265_" class="st1" d="M461 116.4h-5.7l-1-6.5h-6.9l-1 6.5h-5.1l5.7-35.6h8.2l5.8 35.6zm-12.7-11.3h5.4l-2.7-18-2.7 18z"/></g></svg>