<svg id="Layer_1" xmlns="http://www.w3.org/2000/svg" viewBox="0 0 695 518.8" style="enable-background:new 0 0 695 518.8"><style>.st0{fill:#fff}.st1{fill:#383938}.st2,.st3,.st4,.st5{fill:none;stroke:#383938;stroke-width:4;stroke-linecap:round;stroke-linejoin:round;stroke-miterlimit:10}.st3,.st4,.st5{stroke:#eaeaea}.st4,.st5{stroke:#ee596d}.st5{stroke:#73ccd2}</style><path id="XMLID_1524_" class="st0" d="M.4 0h694.3v518.8H.4z"/><path id="XMLID_1523_" class="st0" d="M25.8 128.4h643.4v314.7H25.8z"/><path class="st1" d="M49.7 457.6c-1 0-1.6.5-1.6 1.9v2.1h-2.9v-1.9c0-3.1 1.6-4.9 4.6-4.9s4.6 1.8 4.6 4.9c0 6.1-6.1 8.4-6.1 11.6v.4h5.8v2.8h-8.8v-2.4c0-5.7 6.1-6.7 6.1-12.3-.1-1.8-.7-2.2-1.7-2.2zM59 468.2v1.8c0 1.4.6 1.9 1.6 1.9s1.6-.5 1.6-1.9v-4.3c0-1.4-.6-1.9-1.6-1.9s-1.6.5-1.6 1.9v.6h-2.9l.6-11.3h8.1v2.8h-5.3l-.2 4.6c.6-.9 1.4-1.4 2.7-1.4 2.2 0 3.4 1.6 3.4 4.4v4.3c0 3.1-1.6 4.9-4.6 4.9s-4.6-1.8-4.6-4.9v-1.6H59zM615.5 385.5c2.4 0 2.9-1.1 3.4-2.4h2.1v19.4h-3.1v-14.8h-2.4v-2.2zM623.9 396.2l5.6-13.1h3.3v13.1h1.4v2.8h-1.4v3.5h-3V399h-5.9v-2.8zm5.9 0v-7.3l-3.1 7.3h3.1zM635.4 387.7c0-3.1 1.6-4.9 4.6-4.9 3 0 4.6 1.8 4.6 4.9v10.1c0 3.1-1.6 4.9-4.6 4.9-3 0-4.6-1.8-4.6-4.9v-10.1zm3 10.3c0 1.4.6 1.9 1.6 1.9s1.6-.5 1.6-1.9v-10.5c0-1.4-.6-1.9-1.6-1.9s-1.6.5-1.6 1.9V398zM646.4 387.7c0-3.1 1.6-4.9 4.6-4.9 3 0 4.6 1.8 4.6 4.9v10.1c0 3.1-1.6 4.9-4.6 4.9-3 0-4.6-1.8-4.6-4.9v-10.1zm3 10.3c0 1.4.6 1.9 1.6 1.9s1.6-.5 1.6-1.9v-10.5c0-1.4-.6-1.9-1.6-1.9s-1.6.5-1.6 1.9V398zM615.5 268.3c2.4 0 2.9-1.1 3.4-2.4h2.1v19.4h-3.1v-14.8h-2.4v-2.2zM627.4 279v1.8c0 1.4.6 1.9 1.6 1.9s1.6-.5 1.6-1.9v-4.3c0-1.4-.6-1.9-1.6-1.9s-1.6.5-1.6 1.9v.6h-2.9l.6-11.3h8.1v2.8h-5.3l-.2 4.6c.6-.9 1.4-1.4 2.7-1.4 2.2 0 3.4 1.6 3.4 4.4v4.3c0 3.1-1.6 4.9-4.6 4.9s-4.6-1.8-4.6-4.9V279h2.8zM635.4 270.5c0-3.1 1.6-4.9 4.6-4.9 3 0 4.6 1.8 4.6 4.9v10.1c0 3.1-1.6 4.9-4.6 4.9-3 0-4.6-1.8-4.6-4.9v-10.1zm3 10.3c0 1.4.6 1.9 1.6 1.9s1.6-.5 1.6-1.9v-10.5c0-1.4-.6-1.9-1.6-1.9s-1.6.5-1.6 1.9v10.5zM646.4 270.5c0-3.1 1.6-4.9 4.6-4.9 3 0 4.6 1.8 4.6 4.9v10.1c0 3.1-1.6 4.9-4.6 4.9-3 0-4.6-1.8-4.6-4.9v-10.1zm3 10.3c0 1.4.6 1.9 1.6 1.9s1.6-.5 1.6-1.9v-10.5c0-1.4-.6-1.9-1.6-1.9s-1.6.5-1.6 1.9v10.5zM615.5 152.1c2.4 0 2.9-1.1 3.4-2.4h2.1v19.4h-3.1v-14.8h-2.4v-2.2zM624.4 154.5c0-3.3 1.5-5.1 4.7-5.1 3 0 4.6 1.8 4.6 4.9v.5h-2.9v-.7c0-1.4-.6-1.9-1.6-1.9-1.1 0-1.7.5-1.7 2.4v3.6c.5-1.1 1.5-1.7 2.8-1.7 2.2 0 3.4 1.6 3.4 4.4v3.6c0 3.1-1.6 4.9-4.6 4.9s-4.6-1.8-4.6-4.9v-10zm3.1 6.6v3.5c0 1.4.6 1.9 1.6 1.9s1.6-.5 1.6-1.9v-3.5c0-1.4-.6-1.9-1.6-1.9s-1.6.5-1.6 1.9zM635.4 154.3c0-3.1 1.6-4.9 4.6-4.9 3 0 4.6 1.8 4.6 4.9v10.1c0 3.1-1.6 4.9-4.6 4.9-3 0-4.6-1.8-4.6-4.9v-10.1zm3 10.3c0 1.4.6 1.9 1.6 1.9s1.6-.5 1.6-1.9v-10.5c0-1.4-.6-1.9-1.6-1.9s-1.6.5-1.6 1.9v10.5zM646.4 154.3c0-3.1 1.6-4.9 4.6-4.9 3 0 4.6 1.8 4.6 4.9v10.1c0 3.1-1.6 4.9-4.6 4.9-3 0-4.6-1.8-4.6-4.9v-10.1zm3 10.3c0 1.4.6 1.9 1.6 1.9s1.6-.5 1.6-1.9v-10.5c0-1.4-.6-1.9-1.6-1.9s-1.6.5-1.6 1.9v10.5z"/><path id="XMLID_1514_" class="st2" d="M25.8 443.2h643.4"/><path id="XMLID_1513_" class="st2" d="M25.8 484.9h643.4"/><g id="XMLID_1474_"><path id="XMLID_1512_" class="st3" d="M53.6 429.3v-9.2"/><path id="XMLID_1489_" class="st3" d="M53.6 410.8v-9.3"/><path id="XMLID_1488_" class="st3" d="M53.6 392.3V383"/><path id="XMLID_1487_" class="st3" d="M53.6 373.8v-9.3"/><path id="XMLID_1486_" class="st3" d="M53.6 355.3V346"/><path id="XMLID_1485_" class="st3" d="M53.6 336.7v-9.2"/><path id="XMLID_1484_" class="st3" d="M53.6 318.2V309"/><path id="XMLID_1483_" class="st3" d="M53.6 299.7v-9.3"/><path id="XMLID_1482_" class="st3" d="M53.6 281.2v-9.3"/><path id="XMLID_1481_" class="st3" d="M53.6 262.7v-9.3"/><path id="XMLID_1480_" class="st3" d="M53.6 244.2v-9.3"/><path id="XMLID_1479_" class="st3" d="M53.6 225.6v-9.2"/><path id="XMLID_1478_" class="st3" d="M53.6 207.1v-9.2"/><path id="XMLID_1477_" class="st3" d="M53.6 188.6v-9.2"/><path id="XMLID_1476_" class="st3" d="M53.6 170.1v-9.3"/><path id="XMLID_1475_" class="st3" d="M53.6 151.6v-9.3"/></g><path class="st1" d="M167.1 457.6c-1 0-1.6.5-1.6 1.9v2.1h-2.9v-1.9c0-3.1 1.6-4.9 4.6-4.9s4.6 1.8 4.6 4.9c0 6.1-6.1 8.4-6.1 11.6v.4h5.8v2.8h-8.8v-2.4c0-5.7 6.1-6.7 6.1-12.3-.1-1.8-.7-2.2-1.7-2.2zM178 474.7c-3.1 0-4.8-1.8-4.8-4.9v-1.5c0-1.9.6-3.3 1.9-4.1-1.3-.7-1.9-2-1.9-3.9v-.6c0-3.1 1.7-4.9 4.8-4.9 3.1 0 4.8 1.8 4.8 4.9v.6c0 1.9-.6 3.2-1.9 3.9 1.3.8 1.9 2.2 1.9 4.1v1.5c0 3.1-1.7 4.9-4.8 4.9zm-1.7-13.8c0 1.6.7 2.1 1.7 2.1s1.7-.5 1.7-2.1v-1.1c0-1.8-.7-2.2-1.7-2.2s-1.7.5-1.7 2.2v1.1zm1.7 11c1 0 1.7-.5 1.7-2.2v-1.8c0-1.5-.6-2.2-1.7-2.2s-1.7.7-1.7 2.2v1.8c0 1.7.8 2.2 1.7 2.2z"/><g id="XMLID_1455_"><path id="XMLID_1471_" class="st3" d="M171.6 429.3v-9.2"/><path id="XMLID_1470_" class="st3" d="M171.6 410.8v-9.3"/><path id="XMLID_1469_" class="st3" d="M171.6 392.3V383"/><path id="XMLID_1468_" class="st3" d="M171.6 373.8v-9.3"/><path id="XMLID_1467_" class="st3" d="M171.6 355.3V346"/><path id="XMLID_1466_" class="st3" d="M171.6 336.7v-9.2"/><path id="XMLID_1465_" class="st3" d="M171.6 318.2V309"/><path id="XMLID_1464_" class="st3" d="M171.6 299.7v-9.3"/><path id="XMLID_1463_" class="st3" d="M171.6 281.2v-9.3"/><path id="XMLID_1462_" class="st3" d="M171.6 262.7v-9.3"/><path id="XMLID_1461_" class="st3" d="M171.6 244.2v-9.3"/><path id="XMLID_1460_" class="st3" d="M171.6 225.6v-9.2"/><path id="XMLID_1459_" class="st3" d="M171.6 207.1v-9.2"/><path id="XMLID_1458_" class="st3" d="M171.6 188.6v-9.2"/><path id="XMLID_1457_" class="st3" d="M171.6 170.1v-9.3"/><path id="XMLID_1456_" class="st3" d="M171.6 151.6v-9.3"/></g><path class="st1" d="M286.9 459.8c0-1.8-.6-2.2-1.6-2.2s-1.6.5-1.6 1.9v1.2h-2.9v-1.1c0-3.1 1.6-4.9 4.6-4.9 3 0 4.6 1.8 4.6 4.9v.5c0 2.1-.7 3.4-2.1 4 1.5.7 2.1 2.1 2.1 4.1v1.5c0 3.1-1.6 4.9-4.6 4.9-3 0-4.6-1.8-4.6-4.9v-1.6h2.9v1.8c0 1.4.6 1.9 1.6 1.9s1.6-.5 1.6-2.2v-1.5c0-1.8-.6-2.5-2-2.5h-1v-2.8h1.2c1.1 0 1.8-.5 1.8-2.1v-.9zM293.9 457.4c2.4 0 2.9-1.1 3.4-2.4h2.1v19.4h-3.1v-14.8h-2.4v-2.2z"/><g id="XMLID_1426_"><path id="XMLID_1452_" class="st3" d="M407.7 429.3v-9.2"/><path id="XMLID_1451_" class="st3" d="M407.7 410.8v-9.3"/><path id="XMLID_1450_" class="st3" d="M407.7 392.3V383"/><path id="XMLID_1449_" class="st3" d="M407.7 373.8v-9.3"/><path id="XMLID_1448_" class="st3" d="M407.7 355.3V346"/><path id="XMLID_1447_" class="st3" d="M407.7 336.7v-9.2"/><path id="XMLID_1446_" class="st3" d="M407.7 318.2V309"/><path id="XMLID_1445_" class="st3" d="M407.7 299.7v-9.3"/><path id="XMLID_1444_" class="st3" d="M407.7 281.2v-9.3"/><path id="XMLID_1435_" class="st3" d="M407.7 262.7v-9.3"/><path id="XMLID_1433_" class="st3" d="M407.7 244.2v-9.3"/><path id="XMLID_1432_" class="st3" d="M407.7 225.6v-9.2"/><path id="XMLID_1431_" class="st3" d="M407.7 207.1v-9.2"/><path id="XMLID_1429_" class="st3" d="M407.7 188.6v-9.2"/><path id="XMLID_1428_" class="st3" d="M407.7 170.1v-9.3"/><path id="XMLID_1427_" class="st3" d="M407.7 151.6v-9.3"/></g><g id="XMLID_1423_"><path id="XMLID_1719_" class="st3" d="M289.7 429.3v-9.2"/><path id="XMLID_1718_" class="st3" d="M289.7 410.8v-9.3"/><path id="XMLID_1717_" class="st3" d="M289.7 392.3V383"/><path id="XMLID_1716_" class="st3" d="M289.7 373.8v-9.3"/><path id="XMLID_1715_" class="st3" d="M289.7 355.3V346"/><path id="XMLID_1714_" class="st3" d="M289.7 336.7v-9.2"/><path id="XMLID_1713_" class="st3" d="M289.7 318.2V309"/><path id="XMLID_1712_" class="st3" d="M289.7 299.7v-9.3"/><path id="XMLID_1711_" class="st3" d="M289.7 281.2v-9.3"/><path id="XMLID_1710_" class="st3" d="M289.7 262.7v-9.3"/><path id="XMLID_1709_" class="st3" d="M289.7 244.2v-9.3"/><path id="XMLID_1708_" class="st3" d="M289.7 225.6v-9.2"/><path id="XMLID_1707_" class="st3" d="M289.7 207.1v-9.2"/><path id="XMLID_1706_" class="st3" d="M289.7 188.6v-9.2"/><path id="XMLID_1425_" class="st3" d="M289.7 170.1v-9.3"/><path id="XMLID_1424_" class="st3" d="M289.7 151.6v-9.3"/></g><g><path class="st1" d="M522.2 459.8c0-3.3 1.5-5.1 4.7-5.1 3 0 4.6 1.8 4.6 4.9v.5h-2.9v-.7c0-1.4-.6-1.9-1.6-1.9-1.1 0-1.7.5-1.7 2.4v3.6c.5-1.1 1.5-1.7 2.8-1.7 2.2 0 3.4 1.6 3.4 4.4v3.6c0 3.1-1.6 4.9-4.6 4.9s-4.6-1.8-4.6-4.9v-10zm3.1 6.7v3.5c0 1.4.6 1.9 1.6 1.9s1.6-.5 1.6-1.9v-3.5c0-1.4-.6-1.9-1.6-1.9s-1.6.5-1.6 1.9z"/></g><g><path class="st1" d="M390.3 459.8c0-1.8-.6-2.2-1.6-2.2s-1.6.5-1.6 1.9v1.2h-2.9v-1.1c0-3.1 1.6-4.9 4.6-4.9 3 0 4.6 1.8 4.6 4.9v.5c0 2.1-.7 3.4-2.1 4 1.5.7 2.1 2.1 2.1 4.1v1.5c0 3.1-1.6 4.9-4.6 4.9-3 0-4.6-1.8-4.6-4.9v-1.6h2.9v1.8c0 1.4.6 1.9 1.6 1.9s1.6-.5 1.6-2.2v-1.5c0-1.8-.6-2.5-2-2.5h-1v-2.8h1.2c1.1 0 1.8-.5 1.8-2.1v-.9zM402.4 460.4v14.1h-2.7V455h3.8l3.1 11.6V455h2.7v19.4h-3.1l-3.8-14zM411.3 459.7c0-3.1 1.6-4.9 4.6-4.9 3 0 4.6 1.8 4.6 4.9v10.1c0 3.1-1.6 4.9-4.6 4.9-3 0-4.6-1.8-4.6-4.9v-10.1zm3.1 10.3c0 1.4.6 1.9 1.6 1.9s1.6-.5 1.6-1.9v-10.5c0-1.4-.6-1.9-1.6-1.9s-1.6.5-1.6 1.9V470zM427.1 470.9l2.3-15.9h2.8l-3 19.4h-4.6l-3-19.4h3.1l2.4 15.9z"/></g><g id="XMLID_1401_"><path id="XMLID_1418_" class="st3" d="M525.7 429.3v-9.2"/><path id="XMLID_1417_" class="st3" d="M525.7 410.8v-9.3"/><path id="XMLID_1416_" class="st3" d="M525.7 392.3V383"/><path id="XMLID_1415_" class="st3" d="M525.7 373.8v-9.3"/><path id="XMLID_1414_" class="st3" d="M525.7 355.3V346"/><path id="XMLID_1413_" class="st3" d="M525.7 336.7v-9.2"/><path id="XMLID_1412_" class="st3" d="M525.7 318.2V309"/><path id="XMLID_1411_" class="st3" d="M525.7 299.7v-9.3"/><path id="XMLID_1410_" class="st3" d="M525.7 281.2v-9.3"/><path id="XMLID_1409_" class="st3" d="M525.7 262.7v-9.3"/><path id="XMLID_1408_" class="st3" d="M525.7 244.2v-9.3"/><path id="XMLID_1407_" class="st3" d="M525.7 225.6v-9.2"/><path id="XMLID_1406_" class="st3" d="M525.7 207.1v-9.2"/><path id="XMLID_1405_" class="st3" d="M525.7 188.6v-9.2"/><path id="XMLID_1403_" class="st3" d="M525.7 170.1v-9.3"/><path id="XMLID_1402_" class="st3" d="M525.7 151.6v-9.3"/></g><path id="XMLID_1400_" class="st4" d="M96.4 230.3l50.9-74.1L211 276.6l64.8-83.4 78.7 138.9 36.8-69.4 115.9 129.6 41.7-46.3"/><path id="XMLID_1398_" class="st2" d="M595.1 442V128.4"/><path id="XMLID_1397_" class="st2" d="M595.1 159.8h9.3"/><path id="XMLID_1396_" class="st2" d="M595.1 276.5h9.3"/><path id="XMLID_1395_" class="st2" d="M595.1 393.2h9.3"/><g><path class="st1" d="M299.4 46.3h11.8v3.5h-4v20.8h-3.8V49.8h-4v-3.5zM312.9 46.3h3.8v24.3h-3.8V46.3zM327.5 63.5l2.6-17.3h5.3v24.3h-3.6V53.2l-2.6 17.4h-3.6l-2.8-17.2v17.2h-3.3V46.3h5.3l2.7 17.2zM342.1 56.5h5.2V60h-5.2v7.1h6.6v3.5h-10.4V46.3h10.4v3.5h-6.6v6.7zM331 81l-4 11.8 4.3 12.5h-4l-3.1-9.6-3.2 9.6h-3.6l4.3-12.5-4-11.8h4l2.9 9 3-9h3.4z"/></g><g><path id="XMLID_1374_" class="st5" d="M94.6 109.9V77.5"/><path id="XMLID_1057_" class="st5" d="M103.8 93.7h165.3"/><path id="XMLID_1014_" class="st5" d="M103.8 93.7l6.7-6.6"/><path id="XMLID_999_" class="st5" d="M103.8 93.7l6.7 6.7"/></g><g><path id="XMLID_998_" class="st5" d="M551.2 77.2v32.4"/><path id="XMLID_971_" class="st5" d="M542 93.5H376.8"/><path id="XMLID_960_" class="st5" d="M542 93.5l-6.6 6.6"/><path id="XMLID_947_" class="st5" d="M542 93.5l-6.6-6.7"/></g></svg>