<?xml version="1.0"?>
<svg xmlns:xlink="http://www.w3.org/1999/xlink" xmlns="http://www.w3.org/2000/svg" baseProfile="basic" width="695" height="436" viewBox="0 0 695 436" image-rendering="optimizeSpeed" preserveAspectRatio="xMinYMin meet"><defs><symbol id="a" overflow="visible"><path fill="none" stroke="#E5E9ED" stroke-width="6" stroke-linecap="round" stroke-linejoin="round" d="M-1-17.75L-9.75-9M-1-17.75l8.75 8.8M-1-17.75V17.7"/><path fill="none" stroke="#99C978" stroke-width="6" stroke-linecap="round" stroke-linejoin="round" d="M.051-17.149v34.45M.051-17.149l8.05 8.05M.051-17.149l-8.05 8.05"/></symbol></defs><g overflow="visible"><path fill="#E5E9ED" d="M694.4 435.251v-436.3H0v436.3h694.4"/><path fill="none" stroke="#A2AAAF" stroke-opacity=".29" stroke-width="2.5" stroke-linecap="round" stroke-linejoin="round" d="M80.5 117.2h43.05M74.5 123.2h26.05M63.1 123.2h5.1M308.75 56.2h43.05M302.75 62.2h26.05M291.35 62.2h5.1M539.3 333.75h43.05M533.3 339.75h26.05M521.9 339.75h5.15"/><path fill="#D7DBDF" d="M430.301 103.351q-4.25 2.45-4.85 7.05-.4 3.05 1.05 9.05 1.6 7 1.75 9.4.25 5.05-2.6 8.05-2.45 2.6-3 5.95-.65 4.1 3.15 5.4 3.8 1.35 9.6-3.3 3.15-2.5 8.05-7.2 1.05 4.05 4.8 5.05 3.1.8 8.5-.45-1.45-1.65-5.9-5.55-4.75-4.15-6.95-6.45-7.9-8.3-5.65-14.8 1.25-3.65 4.45-4.4 2.8-.65 6.15 1.1 3.2 1.7 5.05 4.6 2 3.2 1.25 6.2 16.25-8.8 33.2 2.15 13.55 8.8 23.3 26.55 8.1-14.5 17.05-21.85 12.2-10.05 25.55-6.35 7.2 2 18.75.65 10.956-1.263 16.6-5.175 1.289-.896 2.3-1.925l-.25.1-.275.125q-6.136 2.381-7.525 2.525-4.15.3-5.75-4.8 1.1 1.65 2.85 2.3-2-6.15-3.05-9.45-1.95-6.05-1-9.7 1-3.8 6.4-9.4 5.25-5.55 6.1-9.6-10.05 7.55-18.35 9.8-6.65 1.8-10.2-3.5-1.8-2.65-2.45-3.1-1.45-1-3.75.5-.55-2.2 1.7-2.9-6.65-2-12.2-6.15 1.2.05 2.6.4-5.3-3.55-11.55-14.45-2.5-4.4-10.7-21.05-6.4-13.15-10.4-18.55-5.75-7.8-10.8-6.95-4.65 6.1-5.8 21.4-.6 8.2-1.25 11.8-1.15 6.5-3.85 11.05-5.6 10.9-10.05 18.95-8.5 15.45-11.4 16-4 .7-11-5.3-6.8-5.85-8.25-5.35-2.4.8-3.75 5.9-.7 2.7-1.65 7.1-1.95 4.9-6.75 6-2.85.45-4.4.75-2.8.6-4.85 1.8"/><path fill="#D7DBDF" d="M452.401 155.551q-3.25-1.95-5.5-5.75-5.3 5.75-6.85 13.15 5.65-2.4 9.05-1.05 2.95 1.15 2.8 4.05-.15 2.9-3.15 4.25-3.45 1.6-8.65-.45-6.05 8.75-5.15-.15.6-5.45-.1-8.05-1.1-4.35-5.75-5.7-.65 3.45-2.45 2.9-.65-.15 1.25 6.35-1.05-.15-1.05-1.35-1.15 2.3-4.15 4.05-1.1.65-5.6 2.6-7.1 3.1-7.2 7.8 0 1.1.4 6.15.3 4.1 0 6.2-1.05 6.45-9.1 4.15 9.4 16.25-5.5 38.55-11.35 17.05-30.55 30.35-74.1 33.75-59 10.05-2.55.25-4.8-.25 2.25-3.1 8.15-5.05 5.75-1.9 8.35-5.8-6.95-1.4-10.85-.1-3.3 1.1-5.35 4.55-.85 1.45-3.25 7.55-2.15 5.45-4.6 8.9-2.65 3.7-7.9 7.3-6.1 3.8-8.95 5.75-4.85 3.4-6.85 6.9-2.6 4.5-1.75 10.7-2.5-1.95-3.95-1.6-1.65.35-3.35 3.7-1.35-.05-3.4.55-1.4.4-2.65-.2.95-.65 1.7-1.45-.9-.45-3.2-.85-.65-.15-1.75-2.3-.45.4-2.7 1.95-2.15 1.45-2.3 1.65-.55-2.3-.65-4.85-1.181.64-1.775 1.275 4.48-5.08-17.525-7.375-24.3-1.5-26.8-2.05-10.1-3.4-14.3-3.85-6.7-.7-15.05 5.8-7.55 5.9-19.65 10.5-5.55 2.15-21.3 6.9.349-1.356 1.35-1.15-1.306-.456-3.55-.85-2.45-.5-4.8-.7-8.55 10.6-1.2 14.15 4.45 2.15 20.2 2.45-.55.7 2.25 3.7 3.15 3.4 2.8 6.8.6-.35 2.7-3.8 2.8-4.6 4.2-6.45 5.95-8.15 9.3-3.1 1.4 2.1 8.35 2.25 8.85.25 9.85.5l-3.2 2.4q2.15-1 3.15-1.65.85-.65 2.7-2.45.75 1.8-.25 3.45 6.8-4.3 8.15-4.05 1.4.25-2.05 2.2 1.65-.25 8.4.45 4.9.45 8.05-1.55-1.85-.1-3.2-.7 5 0 10.3-1.4-1.25-.3-1.6-1.45 7 .3 15.15 2.5 8.45 2.25 14.25 5.5 2.8 1.55-2.6 9.85-2.85 4.4-8.05 11-2.75 3.95-1.15 6.5.05.05 2.1 2.75 1.55 2 2.45 4.05 3.7 8.2 8 8.05 3.45-.1 9.85-6.45 1.6-1.55 5.25-5.4 3.4-3.45 6.1-5.3 7.27-5.004 13.925-1.625 1.318-.953.975-3.525-1.45-5.15-2.15-8.1-1.35-5.45.1-8.3 2-3.9 9.4-4.5-2.05 3.9-2.2 6.55-.1 2.1 1.1 6.75-.5-4.25 1.95-7.65 2.25 6.15 8.05 9.15-4.8.85-9.6 1.95 8.45-.25 16.5 1.75 8.3 2.05 15.3 6.35 1.9-7 8.9-10.55 7.4-3.8 12.5 1.1-3.7 1.4-5.2 4.35-1.35 2.6-.45 4.8.95 2.25 3.25 1.85 2.75-.5 5.9-4.6 6.15-8.1 9.4-10.55 6.4-4.75 6.7 5.7.9.5 1.75.2.25-6 3.15-11.25 3.75-6.9 8.95-2.45 2.65 4.05-1.9 6.65-4.5 3.05-5.35 6.2-1.1 4-4.1 7.05 4.9 3.35 9.6 1.1 3.1-1.45 7.95-6.85 5.6-6.2 8-7.9 4.8-3.4 9.65-1.9-3.3-11.75.1-20.95 1.95-5.3 10.85-18 3.2-4.55 5.15-11.7.8-3.1 2.7-13.1 3.2-16.8 9.8-22.9 1.8-.25 5.55 2 3.8 2.3 4.8 4.4 1.95-8.65 3.6-12.65 2.393-5.683 7.125-10.575-.852.937.625 1.675-.3-5.1 3.95-1.65.25-2.15.25-1.9.1.9 1.9-.1.4-2.9 1.05-4 .5-.95 2.95-4.15-3.55 1.15-5 1.55-2.55.8 8.05-4.9-.05-.8-.95-.45-1.2.5-1.85-.1l3.25-2.25q-.07-.146-.05-.6.05-1.15.55.25.8-3.8-2.2-2 3.95-6.6 3.9-15.55 0-5.55-2-16.65-2.15-11.55-2.3-17-.3-9.5 3.15-16.75-4.4-.3-7.55-2.15"/><path fill="#D7DBDF" d="M277.651 362.801q-.391-.229-.775-.425-.617.431-1.575.525-.65.35 1.05.7 1.55.25 1.3-.8M198.251 274.851q-1.3 1.95-.85 1.85 1.55-.3 3.95.55 1.3 0-.4-4.5-1.4.2-2.7 2.1M343.051 258.451l.225-.025q4.337-.304 6.725-1.425 3.15-1.55 4.7-5.2-1.85-.75-3.7-.15 2.2-3.95 4.25-8.55-5.2 1.95-7.75 6.35-2.439 5.561-4.35 8.85l-.1.15M78.951 313.651q1.05-1.05-1.7-3.95l-2.75 6.95q3.7-2.3 4.45-3M78.851 308.526q-.122.495-.2 1.025 1.25 2.65 4.4-1.6.15-.15 4.4-7-7.155 1.022-8.6 7.575M177.151 347.301q-3.25-2.4-3.8-5.95-2.7 1.5-14.5 10.15-8.55 6.35-16.05 8.25 5.25-.55 11.25-.4-.85 6.1-.25 4.85 1.2-2.5 1.6.35-2.1 1 .1 1.8-4.5 2.25-4.35 6.35.2 4.4 6.2 5.9-2.1 1.5-3.15 3.9 5.05 2.35 9.35 4-.2-6.35 4.45-11.65 4.3-4.9 10.75-6.85 6.6-2.05 12 .2 6 2.5 8.15 9.65 2.1-5.5 7.6-9.6 4.68-3.438 10.65-5.1l.225-.075q.161-.032.325-.075-2.5-6.9 1.55-13.25-4.2-.65-14-5-8.2-3.65-14.65-3.35 1.1 4.35-1.15 6.6-2 1.95-5.7 1.7-3.65-.25-6.6-2.4M128.951 347.901q-5.2-4.75-6.9-7.1-3-4.25-1.1-7.15-6.75-1.05-10.85-.35-5.65 1-9.2 5.4 1.3-.1 2.25.4-4-.4-5.8.35-.6.25-1.6 1.35-3.7.9-4.75.8-1.25-.1-3.6-2.7-.15 2.35-.5 2.5-.8-.2-1.8-.2.65 2.9 0 5.8-5.2-4.85-6.85-3.15-1.45 1.6.55 7.45 3.1-.4 4.6 2.75.4.9 2.25 7.95-3.3-1.1-4.6-3.8-.1-.25-1.85-6.35-.25 1.25-.3 8.6-.05 4.95-2.45 8.05 5.55-4 9.25-4.45 4.9-.6 2.5 6.7 3.7-1.4 4.45-3.05.6-1.2-.4-3.35-1.55-3.5-1.75-4.45-.75-3.05.35-6.15 3.2-.35 5.95 2.1 2.45 2.2 3.5 5.7 1.05 3.55-.05 6.3-1.25 3.05-4.8 3.75 3.15.8 6.05.65-1.1 1.25-9.25 8.25-5.8 5-7.9 9.45-.7 1.55-.7 4.9l.1 5.75q-.4 6.65-6.65 6.2 4.135 10.661 11.85 6.575-1.748.878 1.55-5.225.702-1.221 1.275-2.225 2.806 3.809 1.825 8.625-1 4.95-5.3 8.6 6.9-1.2 9.5-3.1 2.15-1.55 4.85-6.75 3.85-1.2 6.05 3 4.75-5.45 14.8-22.35 8.138-13.628 16.7-20.825-2.481 1.978-1.45.525 1.082-1.505 1.725-.875-.832-.9-2.025-1.425-1.2-.45-1.5-.6-.65-.4 3.2-3.1-3.45-1.45-3.45-1.5 1.35-1.35 2.35-4.5-5.8-1.3-9.65-5.65 5.3-.2 4.5-2.5-.5-1.5-4.95-5.6m-36.6 57.025q2.055-3.613 2.2-3.975-.95 2.3.25 3.7.081.122-2.45.275M48.001 358.851q-.2-2-.9.1 3.55 2.2 7.8 1.45l-.025-.05q-1.978-5.302-2.875-5.8-1.45-.9-4 4.3M64.601 346.001q-3.1 4.3-3.25 4.7-.25.85-.7 5.35l4.15-3.9q.011-.115 0-.3-.045-.743-.4-2.6-.3-1.9.2-3.25"/><path fill="#D7DBDF" d="M93.076 374.401l-.225.25q-2.55-.05-5.05 1.1.25 1.25 1.3 1.85.6.3 2.15 1.05.5-.4 1.75-2.95.983-2.138.175-1.4l-.1.1M87.051 375.101q.4-2.45-4-3.8-.6 1.85-2.05 5.1-1.3 2.9-1.5 3.75.2 1 1.2-1.25.4-.9-.6 2.95l4.2-1.35.4-.8q2.35-4.554 2.35-4.6M231.551 340.601q-6.15 2.3-8.35 5.35-1.85 2.55-.25 3.8 1.55 1.3 4.05-.75 2.95-2.4 4.55-8.4"/><path fill="#F9F9F9" d="M434.301 103.351q-4.25 2.45-4.85 7.05-.4 3.05 1.05 9.05 1.6 7 1.75 9.4.25 5.05-2.6 8.05-2.45 2.6-3 5.95-.65 4.1 3.15 5.4 3.8 1.35 9.6-3.3 3.15-2.5 8.05-7.2 1.05 4.05 4.8 5.05 3.1.8 8.5-.45-1.45-1.65-5.9-5.55-4.75-4.15-6.95-6.45-7.9-8.3-5.65-14.8 1.25-3.65 4.45-4.4 2.8-.65 6.15 1.1 3.2 1.7 5.05 4.6 2 3.2 1.25 6.2 16.25-8.8 33.2 2.15 13.55 8.8 23.3 26.55 8.1-14.5 17.05-21.85 12.2-10.05 25.55-6.35 7.2 2 18.75.65 10.956-1.263 16.6-5.175-.174.018-.2-.175-.089-.667 1.975-1.525-6.136 2.381-7.525 2.525-4.15.3-5.75-4.8 1.1 1.65 2.85 2.3-2-6.15-3.05-9.45-1.95-6.05-1-9.7 1-3.8 6.4-9.4 5.25-5.55 6.1-9.6-10.05 7.55-18.35 9.8-6.65 1.8-10.2-3.5-1.8-2.65-2.45-3.1-1.45-1-3.75.5-.55-2.2 1.7-2.9-6.65-2-12.2-6.15 1.2.05 2.6.4-5.3-3.55-11.55-14.45-2.5-4.4-10.7-21.05-6.4-13.15-10.4-18.55-5.75-7.8-10.8-6.95-4.65 6.1-5.8 21.4-.6 8.2-1.25 11.8-1.15 6.5-3.85 11.05-5.6 10.9-10.05 18.95-8.5 15.45-11.4 16-4 .7-11-5.3-6.8-5.85-8.25-5.35-2.4.8-3.75 5.9-.7 2.7-1.65 7.1-1.95 4.9-6.75 6-2.85.45-4.4.75-2.8.6-4.85 1.8"/><path fill="#F9F9F9" d="M595.651 117.201l-.275.125q-2.064.858-1.975 1.525.026.193.2.175 1.289-.896 2.3-1.925l-.25.1M450.901 149.801q-5.3 5.75-6.85 13.15 5.65-2.4 9.05-1.05 2.95 1.15 2.8 4.05-.15 2.9-3.15 4.25-3.45 1.6-8.65-.45-6.05 8.75-5.15-.15.6-5.45-.1-8.05-1.1-4.35-5.75-5.7-.65 3.45-2.45 2.9-.65-.15 1.25 6.35-1.05-.15-1.05-1.35-1.15 2.3-4.15 4.05-1.1.65-5.6 2.6-7.1 3.1-7.2 7.8 0 1.1.4 6.15.3 4.1 0 6.2-1.05 6.45-9.1 4.15 9.4 16.25-5.5 38.55-11.35 17.05-30.55 30.35-74.1 33.75-59 10.05-2.55.25-4.8-.25 2.25-3.1 8.15-5.05 5.75-1.9 8.35-5.8-6.95-1.4-10.85-.1-3.3 1.1-5.35 4.55-.85 1.45-3.25 7.55-2.15 5.45-4.6 8.9-2.65 3.7-7.9 7.3-6.1 3.8-8.95 5.75-4.85 3.4-6.85 6.9-2.6 4.5-1.75 10.7-2.5-1.95-3.95-1.6-1.65.35-3.35 3.7-1.35-.05-3.4.55-1.4.4-2.65-.2.95-.65 1.7-1.45-.9-.45-3.2-.85-.65-.15-1.75-2.3-.45.4-2.7 1.95-2.15 1.45-2.3 1.65-.55-2.3-.65-4.85-1.181.64-1.775 1.275 4.48-5.08-17.525-7.375-24.3-1.5-26.8-2.05-10.1-3.4-14.3-3.85-6.7-.7-15.05 5.8-7.55 5.9-19.65 10.5-5.55 2.15-21.3 6.9.349-1.356 1.35-1.15-1.306-.456-3.55-.85-2.45-.5-4.8-.7-8.55 10.6-1.2 14.15 4.45 2.15 20.2 2.45-.55.7 2.25 3.7 3.15 3.4 2.8 6.8.6-.35 2.7-3.8 2.8-4.6 4.2-6.45 5.95-8.15 9.3-3.1 1.4 2.1 8.35 2.25 8.85.25 9.85.5-.05 0-3.2 2.4 2.15-1 3.15-1.65.85-.65 2.7-2.45.75 1.8-.25 3.45 6.8-4.3 8.15-4.05 1.4.25-2.05 2.2 1.65-.25 8.4.45 4.9.45 8.05-1.55-1.85-.1-3.2-.7 5 0 10.3-1.4-1.25-.3-1.6-1.45 7 .3 15.15 2.5 8.45 2.25 14.25 5.5 2.8 1.55-2.6 9.85-2.85 4.4-8.05 11-2.75 3.95-1.15 6.5.05.05 2.1 2.75 1.55 2 2.45 4.05 3.7 8.2 8 8.05 3.45-.1 9.85-6.45 1.6-1.55 5.25-5.4 3.4-3.45 6.1-5.3 7.27-5.004 13.925-1.625 1.318-.953.975-3.525-1.45-5.15-2.15-8.1-1.35-5.45.1-8.3 2-3.9 9.4-4.5-2.05 3.9-2.2 6.55-.1 2.1 1.1 6.75-.5-4.25 1.95-7.65 2.25 6.15 8.05 9.15-4.8.85-9.6 1.95 8.45-.25 16.5 1.75 8.3 2.05 15.3 6.35 1.9-7 8.9-10.55 7.4-3.8 12.5 1.1-3.7 1.4-5.2 4.35-1.35 2.6-.45 4.8.95 2.25 3.25 1.85 2.75-.5 5.9-4.6 6.15-8.1 9.4-10.55 6.4-4.75 6.7 5.7.9.5 1.75.2.25-6 3.15-11.25 3.75-6.9 8.95-2.45 2.65 4.05-1.9 6.65-4.5 3.05-5.35 6.2-1.1 4-4.1 7.05 4.9 3.35 9.6 1.1 3.1-1.45 7.95-6.85 5.6-6.2 8-7.9 4.8-3.4 9.65-1.9-3.3-11.75.1-20.95 1.95-5.3 10.85-18 3.2-4.55 5.15-11.7.8-3.1 2.7-13.1 3.2-16.8 9.8-22.9 1.8-.25 5.55 2 3.8 2.3 4.8 4.4 1.95-8.65 3.6-12.65 2.393-5.683 7.125-10.575-.852.937.625 1.675-.3-5.1 3.95-1.65.25-2.15.25-1.9.1.9 1.9-.1.4-2.9 1.05-4 .5-.95 2.95-4.15-3.55 1.15-5 1.55-2.55.8 8.05-4.9-.05-.8-.95-.45-1.2.5-1.85-.1l3.25-2.25q-.07-.146-.05-.6.05-1.15.55.25.8-3.8-2.2-2 3.95-6.6 3.9-15.55 0-5.55-2-16.65-2.15-11.55-2.3-17-.3-9.5 3.15-16.75-4.4-.3-7.55-2.15-3.25-1.95-5.5-5.75"/><path fill="#F9F9F9" d="M281.651 362.801q-.391-.229-.775-.425-.617.431-1.575.525-.65.35 1.05.7 1.55.25 1.3-.8M355.001 251.651q2.2-3.95 4.25-8.55-5.2 1.95-7.75 6.35-2.439 5.561-4.35 8.85.997-1.623 1.95-2.1.85-.45 1.15.15.25.55-.45 1.2-.844.703-2.525.875 4.337-.304 6.725-1.425 3.15-1.55 4.7-5.2-1.85-.75-3.7-.15"/><path fill="#F9F9F9" d="M347.051 258.451l.225-.025q1.681-.172 2.525-.875.7-.65.45-1.2-.3-.6-1.15-.15-.953.477-1.95 2.1l-.1.15"/><path fill="#F9F9F9" stroke-width="2" stroke-linecap="round" stroke-linejoin="round" d="M202.251 274.851q-1.3 1.95-.85 1.85 1.55-.3 3.95.55 1.3 0-.4-4.5-1.4.2-2.7 2.1"/><path fill="#F9F9F9" d="M82.951 313.651q1.05-1.05-1.7-3.95l-2.75 6.95q.7-.65.8-1.1-.1.45-.8 1.1 3.7-2.3 4.45-3M91.451 300.951q-7.155 1.022-8.6 7.575-.122.495-.2 1.025 1.25 2.65 4.4-1.6.15-.15 4.4-7M181.151 347.301q-3.25-2.4-3.8-5.95-2.7 1.5-14.5 10.15-8.55 6.35-16.05 8.25 5.25-.55 11.25-.4-.85 6.1-.25 4.85 1.2-2.5 1.6.35-2.1 1 .1 1.8-4.5 2.25-4.35 6.35.2 4.4 6.2 5.9-2.1 1.5-3.15 3.9 5.05 2.35 9.35 4-.2-6.35 4.45-11.65 4.3-4.9 10.75-6.85 6.6-2.05 12 .2 6 2.5 8.15 9.65 2.1-5.5 7.6-9.6 4.68-3.438 10.65-5.1-3.588.906-2.1-.35 1.65-1.4 2.65.2-2.5-6.9 1.55-13.25-4.2-.65-14-5-8.2-3.65-14.65-3.35 1.1 4.35-1.15 6.6-2 1.95-5.7 1.7-3.65-.25-6.6-2.4"/><path fill="#F9F9F9" d="M221.151 363.151l.225-.075q.161-.032.325-.075-1-1.6-2.65-.2-1.488 1.256 2.1.35M124.951 333.651q-6.75-1.05-10.85-.35-5.65 1-9.2 5.4 1.3-.1 2.25.4-4-.4-5.8.35-.6.25-1.6 1.35-3.7.9-4.75.8-1.25-.1-3.6-2.7-.15 2.35-.5 2.5-.8-.2-1.8-.2.65 2.9 0 5.8-5.2-4.85-6.85-3.15-1.45 1.6.55 7.45 3.1-.4 4.6 2.75.4.9 2.25 7.95-3.3-1.1-4.6-3.8-.1-.25-1.85-6.35-.25 1.25-.3 8.6-.05 4.95-2.45 8.05 5.55-4 9.25-4.45 4.9-.6 2.5 6.7 3.7-1.4 4.45-3.05.6-1.2-.4-3.35-1.55-3.5-1.75-4.45-.75-3.05.35-6.15 3.2-.35 5.95 2.1 2.45 2.2 3.5 5.7 1.05 3.55-.05 6.3-1.25 3.05-4.8 3.75 3.15.8 6.05.65-1.1 1.25-9.25 8.25-5.8 5-7.9 9.45-.7 1.55-.7 4.9l.1 5.75q-.4 6.65-6.65 6.2 4.135 10.661 11.85 6.575-1.748.878 1.55-5.225.702-1.221 1.275-2.225-.33-.476-.725-.925.716-.037 1.3-.075 2.055-3.613 2.2-3.975-.95 2.3.25 3.7.081.122-2.45.275-.267.467-.575 1 2.806 3.809 1.825 8.625-1 4.95-5.3 8.6 6.9-1.2 9.5-3.1 2.15-1.55 4.85-6.75 3.85-1.2 6.05 3 4.75-5.45 14.8-22.35 8.138-13.628 16.7-20.825-2.481 1.978-1.45.525 1.082-1.505 1.725-.875-.832-.9-2.025-1.425-1.2-.45-1.5-.6-.65-.4 3.2-3.1-3.45-1.45-3.45-1.5 1.35-1.35 2.35-4.5-5.8-1.3-9.65-5.65 5.3-.2 4.5-2.5-.5-1.5-4.95-5.6-5.2-4.75-6.9-7.1-3-4.25-1.1-7.15m17.8 40q1.082-1.505 1.725-.875.036.031.075.075l-.35.275q-2.481 1.978-1.45.525m-46.4 31.275q2.055-3.613 2.2-3.975-.95 2.3.25 3.7.081.122-2.45.275"/><path fill="#F9F9F9" d="M95.776 405.926q.308-.533.575-1-.584.038-1.3.075.395.449.725.925M68.601 346.001q-3.1 4.3-3.25 4.7-.25.85-.7 5.35l4.15-3.9q-1.35.85-.65 0 .57-.646.65-.3-.045-.743-.4-2.6-.3-1.9.2-3.25"/><path fill="#F9F9F9" d="M68.801 352.151q.011-.115 0-.3-.08-.346-.65.3-.7.85.65 0M51.101 358.951q3.55 2.2 7.8 1.45-2.6.35-1.55-.5 1.034-.788 1.525.45-1.978-5.302-2.875-5.8-1.45-.9-4 4.3-.2-2-.9.1"/><path fill="#F9F9F9" d="M57.351 359.901q-1.05.85 1.55.5l-.025-.05q-.491-1.238-1.525-.45M97.001 375.701q.983-2.138.175-1.4l-.1.1-.225.25q-2.55-.05-5.05 1.1.25 1.25 1.3 1.85.6.3 2.15 1.05.5-.4 1.75-2.95M84.101 381.851l4.125-1.325q-1.021.303.375-1.575 1.313-1.706.1.75 2.35-4.554 2.35-4.6.4-2.45-4-3.8-.6 1.85-2.05 5.1-1.3 2.9-1.5 3.75.2 1 1.2-1.25.4-.9-.6 2.95"/><path fill="#F9F9F9" d="M88.226 380.526l.075-.025.4-.8q1.213-2.456-.1-.75-1.396 1.878-.375 1.575"/><path fill="#F9F9F9" stroke-width="2" stroke-linecap="round" stroke-linejoin="round" d="M226.951 349.751q1.55 1.3 4.05-.75 2.95-2.4 4.55-8.4-6.15 2.3-8.35 5.35-1.85 2.55-.25 3.8"/><path fill="none" stroke="#E1E4E5" stroke-width="2" stroke-linecap="round" stroke-linejoin="round" d="M429.451 110.401q-.4 3.05 1.05 9.05 1.6 7 1.75 9.4.25 5.05-2.6 8.05-2.45 2.6-3 5.95-.65 4.1 3.15 5.4 3.8 1.35 9.6-3.3 3.15-2.5 8.05-7.2 1.05 4.05 4.8 5.05 3.1.8 8.5-.45-1.45-1.65-5.9-5.55-4.75-4.15-6.95-6.45-7.9-8.3-5.65-14.8 1.25-3.65 4.45-4.4 2.8-.65 6.15 1.1 3.2 1.7 5.05 4.6 2 3.2 1.25 6.2 16.25-8.8 33.2 2.15 13.55 8.8 23.3 26.55 8.1-14.5 17.05-21.85 12.2-10.05 25.55-6.35 7.2 2 18.75.65 10.956-1.263 16.6-5.175 1.289-.896 2.3-1.925l-.25.1-.275.125q-6.136 2.381-7.525 2.525-4.15.3-5.75-4.8 1.1 1.65 2.85 2.3-2-6.15-3.05-9.45-1.95-6.05-1-9.7 1-3.8 6.4-9.4 5.25-5.55 6.1-9.6-10.05 7.55-18.35 9.8-6.65 1.8-10.2-3.5-1.8-2.65-2.45-3.1-1.45-1-3.75.5-.55-2.2 1.7-2.9-6.65-2-12.2-6.15 1.2.05 2.6.4-5.3-3.55-11.55-14.45-2.5-4.4-10.7-21.05-6.4-13.15-10.4-18.55-5.75-7.8-10.8-6.95-4.65 6.1-5.8 21.4-.6 8.2-1.25 11.8-1.15 6.5-3.85 11.05-5.6 10.9-10.05 18.95-8.5 15.45-11.4 16-4 .7-11-5.3-6.8-5.85-8.25-5.35-2.4.8-3.75 5.9-.7 2.7-1.65 7.1-1.95 4.9-6.75 6-2.85.45-4.4.75-2.8.6-4.85 1.8-4.25 2.45-4.85 7.05"/><path fill="none" stroke="#E1E4E5" stroke-width="2" stroke-linecap="round" stroke-linejoin="round" d="M593.601 119.026q-.174.018-.2-.175-.089-.667 1.975-1.525M453.101 161.901q-3.4-1.35-9.05 1.05m11.85 3q.15-2.9-2.8-4.05m-.35 8.3q3-1.35 3.15-4.25m-11.8 3.8q5.2 2.05 8.65.45m-13.8-.6q-.9 8.9 5.15.15m-5.25-8.2q.7 2.6.1 8.05m-5.85-13.75q4.65 1.35 5.75 5.7m-8.2-2.8q1.8.55 2.45-2.9m-1.2 9.25q-1.9-6.5-1.25-6.35m.2 5q0 1.2 1.05 1.35m-5.2 2.7q3-1.75 4.15-4.05m-9.75 6.65q4.5-1.95 5.6-2.6m-12.8 10.4q.1-4.7 7.2-7.8m-6.8 13.95q-.4-5.05-.4-6.15m.4 12.35q.3-2.1 0-6.2m-9.1 10.35q8.05 2.3 9.1-4.15m-14.6 42.7q14.9-22.3 5.5-38.55m-36.05 68.9q19.2-13.3 30.55-30.35m-89.55 40.4q-15.1 23.7 59-10.05m-63.8 9.8q2.25.5 4.8.25m3.35-5.3q-5.9 1.95-8.15 5.05m16.5-10.85q-2.6 3.9-8.35 5.8m-2.5-5.9q3.9-1.3 10.85.1m-16.2 4.45q2.05-3.45 5.35-4.55m-8.6 12.1q2.4-6.1 3.25-7.55m-7.85 16.45q2.45-3.45 4.6-8.9m-12.5 16.2q5.25-3.6 7.9-7.3m-16.85 13.05q2.85-1.95 8.95-5.75m-15.8 12.65q2-3.5 6.85-6.9m-8.6 17.6q-.85-6.2 1.75-10.7m-5.7 9.1q1.45-.35 3.95 1.6m-7.3 2.1q1.7-3.35 3.35-3.7m-6.75 4.25q2.05-.6 3.4-.55m-6.05.35q1.25.6 2.65.2m-.95-1.65q-.75.8-1.7 1.45m-1.5-2.3q2.3.4 3.2.85m-4.95-3.15q1.1 2.15 1.75 2.3m-4.45-.35q2.25-1.55 2.7-1.95m-5 3.6q.15-.2 2.3-1.65m-2.95-3.2q.1 2.55.65 4.85m-2.425-3.575q.594-.635 1.775-1.275m-19.3-6.1q22.005 2.295 17.525 7.375m-44.325-9.425q2.5.55 26.8 2.05m-41.1-5.9q4.2.45 14.3 3.85m-29.35 1.95q8.35-6.5 15.05-5.8m-34.7 16.3q12.1-4.6 19.65-10.5m-40.95 17.4q15.75-4.75 21.3-6.9m-19.95 5.75q-1.001-.206-1.35 1.15m1.35-1.15q.301.059.65.25m-4.2-1.1q2.244.394 3.55.85m-8.35-1.55q2.35.2 4.8.7m-6 13.45q-7.35-3.55 1.2-14.15m19 16.6q-15.75-.3-20.2-2.45m22.45 6.15q-2.8-3-2.25-3.7m5.05 10.5q.35-3.4-2.8-6.8m5.5 3q-2.1 3.45-2.7 3.8m6.9-10.25q-1.4 1.85-4.2 6.45m13.5-9.55q-3.35-5.05-9.3 3.1m17.65-.85q-6.95-.15-8.35-2.25m18.2 2.75q-1-.25-9.85-.5m6.65 2.9q3.15-2.4 3.2-2.4m-.05.75q-1 .65-3.15 1.65m5.85-4.1q-1.85 1.8-2.7 2.45m2.45 1q1-1.65.25-3.45m7.9-.6q-1.35-.25-8.15 4.05m6.1-1.85q3.45-1.95 2.05-2.2m6.35 2.65q-6.75-.7-8.4-.45m16.45-1.1q-3.15 2-8.05 1.55m4.85-2.25q1.35.6 3.2.7m7.1-2.1q-5.3 1.4-10.3 1.4m8.7-2.85q.35 1.15 1.6 1.45m13.55 1.05q-8.15-2.2-15.15-2.5m29.4 8q-5.8-3.25-14.25-5.5m11.65 15.35q5.4-8.3 2.6-9.85m-10.65 20.85q5.2-6.6 8.05-11m-9.2 17.5q-1.6-2.55 1.15-6.5m.95 9.25q-2.05-2.7-2.1-2.75m4.55 6.8q-.9-2.05-2.45-4.05m10.45 12.1q-4.3.15-8-8.05m17.85 1.6q-6.4 6.35-9.85 6.45m15.1-11.85q-3.65 3.85-5.25 5.4m11.35-10.7q-2.7 1.85-6.1 5.3m20.025-6.925q-6.655-3.379-13.925 1.625m12.35-1.1q.958-.094 1.575-.525m-.525 1.225q-1.7-.35-1.05-.7m2.35-.1q.25 1.05-1.3.8m.525-1.225q.384.196.775.425m.2-3.95q.343 2.572-.975 3.525m-1.175-11.625q.7 2.95 2.15 8.1m-2.05-16.4q-1.45 2.85-.1 8.3m9.5-12.8q-7.4.6-9.4 4.5m7.2 2.05q.15-2.65 2.2-6.55m-1.1 13.3q-1.2-4.65-1.1-6.75m3.05-.9q-2.45 3.4-1.95 7.65m10 1.5q-5.8-3-8.05-9.15m-1.55 11.1q4.8-1.1 9.6-1.95m6.9 3.7q-8.05-2-16.5-1.75m31.8 8.1q-7-4.3-15.3-6.35m24.2-4.2q-7 3.55-8.9 10.55m21.4-9.45q-5.1-4.9-12.5-1.1m7.3 5.45q1.5-2.95 5.2-4.35m-5.65 9.15q-.9-2.2.45-4.8m2.8 6.65q-2.3.4-3.25-1.85m9.15-2.75q-3.15 4.1-5.9 4.6m15.3-15.15q-3.25 2.45-9.4 10.55m16.1-4.85q-.3-10.45-6.7-5.7m8.45 5.9q-.85.3-1.75-.2m4.9-11.05q-2.9 5.25-3.15 11.25m12.1-13.7q-5.2-4.45-8.95 2.45m7.05 4.2q4.55-2.6 1.9-6.65m-7.25 12.85q.85-3.15 5.35-6.2m-9.45 13.25q3-3.05 4.1-7.05m5.5 8.15q-4.7 2.25-9.6-1.1m17.55-5.75q-4.85 5.4-7.95 6.85m15.95-14.75q-2.4 1.7-8 7.9m17.65-9.8q-4.85-1.5-9.65 1.9m9.75-22.85q-3.4 9.2-.1 20.95m10.95-38.95q-8.9 12.7-10.85 18m16-29.7q-1.95 7.15-5.15 11.7m7.85-24.8q-1.9 10-2.7 13.1m12.5-36q-6.6 6.1-9.8 22.9m15.35-20.9q-3.75-2.25-5.55-2m10.35 6.4q-1-2.1-4.8-4.4m8.4-8.25q-1.65 4-3.6 12.65m10.725-23.225q-4.732 4.892-7.125 10.575m7.75-8.9q-1.477-.738-.625-1.675m4.575.025q-4.25-3.45-3.95 1.65m4.2-3.55q0-.25-.25 1.9m2.15-2q-1.8 1-1.9.1m2.95-4.1q-.65 1.1-1.05 4m4-8.15q-2.45 3.2-2.95 4.15m-2.05-2.6q1.45-.4 5-1.55m3.05-3.35q-10.6 5.7-8.05 4.9m7.1-5.35q.9-.35.95.45m-2.8-.55q.65.6 1.85.1m1.4-2.35l-3.25 2.25m3.75-2.6l-.5.35m-1.7-2.35q3-1.8 2.2 2m1.7-17.55q.05 8.95-3.9 15.55m1.9-32.2q2 11.1 2 16.65m-4.3-33.65q.15 5.45 2.3 17m.85-33.75q-3.45 7.25-3.15 16.75m-4.4-18.9q3.15 1.85 7.55 2.15m-13.05-7.9q2.25 3.8 5.5 5.75m-12.35 7.4q1.55-7.4 6.85-13.15"/><path fill="none" stroke="#E1E4E5" stroke-width="2" stroke-linecap="round" stroke-linejoin="round" d="M462.901 226.001q-.07-.146-.05-.6.05-1.15.55.25M359.251 243.101q-5.2 1.95-7.75 6.35-2.439 5.561-4.35 8.85l-.1.15.225-.025q4.337-.304 6.725-1.425 3.15-1.55 4.7-5.2-1.85-.75-3.7-.15 2.2-3.95 4.25-8.55"/><path fill="none" stroke="#E1E4E5" stroke-width="2" stroke-linecap="round" stroke-linejoin="round" d="M347.151 258.301q.997-1.623 1.95-2.1.85-.45 1.15.15.25.55-.45 1.2-.844.703-2.525.875M202.251 274.851q-1.3 1.95-.85 1.85 1.55-.3 3.95.55 1.3 0-.4-4.5-1.4.2-2.7 2.1M81.251 309.701l-2.75 6.95q3.7-2.3 4.45-3 1.05-1.05-1.7-3.95M78.501 316.651q.7-.65.8-1.1M82.851 308.526q-.005-.154 0-.325.05-1.6-.2 1.35 1.25 2.65 4.4-1.6.15-.15 4.4-7-7.155 1.022-8.6 7.575M82.851 308.526q-.122.495-.2 1.025M177.351 341.351q-2.7 1.5-14.5 10.15-8.55 6.35-16.05 8.25 5.25-.55 11.25-.4-.85 6.1-.25 4.85 1.2-2.5 1.6.35-2.1 1 .1 1.8-4.5 2.25-4.35 6.35.2 4.4 6.2 5.9-2.1 1.5-3.15 3.9 5.05 2.35 9.35 4-.2-6.35 4.45-11.65 4.3-4.9 10.75-6.85 6.6-2.05 12 .2 6 2.5 8.15 9.65 2.1-5.5 7.6-9.6 4.68-3.438 10.65-5.1l.225-.075q.161-.032.325-.075-2.5-6.9 1.55-13.25-4.2-.65-14-5-8.2-3.65-14.65-3.35 1.1 4.35-1.15 6.6-2 1.95-5.7 1.7-3.65-.25-6.6-2.4-3.25-2.4-3.8-5.95"/><path fill="none" stroke="#E1E4E5" stroke-width="2" stroke-linecap="round" stroke-linejoin="round" d="M221.151 363.151q-3.588.906-2.1-.35 1.65-1.4 2.65.2M114.101 333.301q-5.65 1-9.2 5.4 1.3-.1 2.25.4-4-.4-5.8.35-.6.25-1.6 1.35-3.7.9-4.75.8-1.25-.1-3.6-2.7-.15 2.35-.5 2.5-.8-.2-1.8-.2.65 2.9 0 5.8-5.2-4.85-6.85-3.15-1.45 1.6.55 7.45 3.1-.4 4.6 2.75.4.9 2.25 7.95-3.3-1.1-4.6-3.8-.1-.25-1.85-6.35-.25 1.25-.3 8.6-.05 4.95-2.45 8.05 5.55-4 9.25-4.45 4.9-.6 2.5 6.7 3.7-1.4 4.45-3.05.6-1.2-.4-3.35-1.55-3.5-1.75-4.45-.75-3.05.35-6.15 3.2-.35 5.95 2.1 2.45 2.2 3.5 5.7 1.05 3.55-.05 6.3-1.25 3.05-4.8 3.75 3.15.8 6.05.65-1.1 1.25-9.25 8.25-5.8 5-7.9 9.45-.7 1.55-.7 4.9l.1 5.75q-.4 6.65-6.65 6.2 4.135 10.661 11.85 6.575-1.748.878 1.55-5.225.702-1.221 1.275-2.225 2.806 3.809 1.825 8.625-1 4.95-5.3 8.6 6.9-1.2 9.5-3.1 2.15-1.55 4.85-6.75 3.85-1.2 6.05 3 4.75-5.45 14.8-22.35 8.138-13.628 16.7-20.825l.35-.275q-.039-.044-.075-.075-.832-.9-2.025-1.425-1.2-.45-1.5-.6-.65-.4 3.2-3.1-3.45-1.45-3.45-1.5 1.35-1.35 2.35-4.5-5.8-1.3-9.65-5.65 5.3-.2 4.5-2.5-.5-1.5-4.95-5.6-5.2-4.75-6.9-7.1-3-4.25-1.1-7.15-6.75-1.05-10.85-.35"/><path fill="none" stroke="#E1E4E5" stroke-width="2" stroke-linecap="round" stroke-linejoin="round" d="M95.776 405.926q-.33-.476-.725-.925.716-.037 1.3-.075 2.055-3.613 2.2-3.975-.95 2.3.25 3.7.081.122-2.45.275-.267.467-.575 1m48.425-32.8q-2.481 1.978-1.45.525 1.082-1.505 1.725-.875M65.351 350.701q-.25.85-.7 5.35l4.15-3.9q.011-.115 0-.3-.045-.743-.4-2.6-.3-1.9.2-3.25-3.1 4.3-3.25 4.7"/><path fill="none" stroke="#E1E4E5" stroke-width="2" stroke-linecap="round" stroke-linejoin="round" d="M68.801 352.151q-1.35.85-.65 0 .57-.646.65-.3M58.901 360.401l-.025-.05q-1.978-5.302-2.875-5.8-1.45-.9-4 4.3-.2-2-.9.1 3.55 2.2 7.8 1.45"/><path fill="none" stroke="#E1E4E5" stroke-width="2" stroke-linecap="round" stroke-linejoin="round" d="M58.901 360.401q-2.6.35-1.55-.5 1.034-.788 1.525.45M97.076 374.401l.1-.1m-.325.35l.225-.25m-5.275 1.35q2.5-1.15 5.05-1.1m-3.75 2.95q-1.05-.6-1.3-1.85m3.45 2.9q-1.55-.75-2.15-1.05m3.9-1.9q-1.25 2.55-1.75 2.95m1.925-4.35q.808-.738-.175 1.4m.175-1.4l.425-.45M88.226 380.526l.075-.025.4-.8q2.35-4.554 2.35-4.6.4-2.45-4-3.8-.6 1.85-2.05 5.1-1.3 2.9-1.5 3.75.2 1 1.2-1.25.4-.9-.6 2.95l4.125-1.325"/><path fill="none" stroke="#E1E4E5" stroke-width="2" stroke-linecap="round" stroke-linejoin="round" d="M88.226 380.526q-1.021.303.375-1.575 1.313-1.706.1.75M226.951 349.751q1.55 1.3 4.05-.75 2.95-2.4 4.55-8.4-6.15 2.3-8.35 5.35-1.85 2.55-.25 3.8"/><path fill="#1A344F" d="M227.1 139.551q0-4.9 4.05-4.9 4.1 0 4.1 4.9v5.35h7.35v-4.85q0-6-2.95-9.25-3-3.25-8.7-3.25-5.7 0-8.7 3.25-2.95 3.25-2.95 9.25v25.9q0 6.05 2.95 9.3 3 3.25 8.7 3.25 5.75 0 8.7-3.25 2.95-3.25 2.95-9.3v-6.6h-7.35v7.1q0 4.85-4.1 4.85-4.05 0-4.05-4.85v-26.9M259.2 128.101h-11.8v49.8h7.8v-20.25h2.7q2.7 0 3.9 1.45 1.25 1.45 1.25 4.85v7.85q0 2.8.2 4.1.1.9.5 2h7.95q-.85-2.1-.85-6.05v-7.65q0-4.1-1.15-6.6-1.25-2.75-4.05-3.95v-.15q5.15-2.35 5.15-10v-3.95q0-5.8-2.75-8.6-2.85-2.85-8.85-2.85m-4 7.15h3.8q2.05 0 3 1.2.95 1.25.95 3.9v4.9q0 2.9-1.25 4.15-1.1 1.15-3.45 1.15h-3.05v-15.3M298.95 128.101h-7.4v38.45q0 4.8-4.05 4.8t-4.05-4.8v-38.45h-7.85v37.95q0 6 2.95 9.25 3 3.25 8.75 3.25 5.7 0 8.7-3.25 2.95-3.25 2.95-9.25v-37.95M316.65 128.101H304.3v49.8h12.35q11.65 0 11.65-12.3v-25.15q0-12.35-11.65-12.35m-.15 7.15q4 0 4 4.8v25.9q0 4.85-4 4.85h-4.4v-35.55h4.4M341.1 149.101v-13.85h13.55v-7.15H333.3v49.8h21.35v-7.1H341.1v-14.6h10.75v-7.1H341.1M393.6 140.051q0-6-3.05-9.25-3.1-3.25-8.85-3.25-5.7 0-8.8 3.25-3.05 3.25-3.05 9.25v25.9q0 6 3.05 9.3 3.1 3.25 8.8 3.25 5.75 0 8.85-3.25 3.05-3.3 3.05-9.3v-25.9m-11.9-5.4q4.1 0 4.1 4.9v26.9q0 4.9-4.1 4.9-4.05 0-4.05-4.9v-26.9q0-4.9 4.05-4.9M406.45 128.101h-7.8v49.8h7.8v-49.8M420 128.101h-7.85v49.8h20.7v-7.1H420v-42.7M240.1 192.951q-3.05-4-9.1-4t-9.15 4q-2.8 3.65-2.8 10v28.3q0 6.35 2.8 9.95 3.1 4 9.15 4 6.05 0 9.1-4 2.8-3.6 2.8-9.95v-6.35h-3.45v6.55q0 4.75-1.9 7.4-2.15 2.95-6.5 2.95-4.3 0-6.45-2.95-1.9-2.65-1.9-7.4v-28.75q0-4.75 1.9-7.4 2.15-3 6.45-3 4.35 0 6.5 3 1.9 2.65 1.9 7.4v4.85h3.45v-4.6q0-6.35-2.8-10M267.8 189.351h-5.3l-12.1 55.4h3.35l2.75-12.25h17.2l2.8 12.25h3.6l-12.3-55.4m-10.75 40l8-35.8 8.1 35.8h-16.1M300.2 189.451H288v55.3h12.2q6.15 0 9.3-3.8 2.95-3.55 2.95-9.95v-27.8q0-6.4-2.95-9.95-3.15-3.8-9.3-3.8m-.1 3.3q4.4 0 6.65 2.85 2.05 2.65 2.05 7.4v28.15q0 4.8-2.05 7.4-2.2 2.85-6.65 2.85h-8.45v-48.65h8.45M344.8 189.451h-3.2l-21.8 55.3h3.2l21.8-55.3M366.3 231.151v-41.7h-3.6v41.95q0 5-1.95 7.4-1.9 2.25-5.9 2.55-2.45.1-3.25.05v3.35q1.9.05 3.65 0 5.35-.3 8.05-3.3 3-3.35 3-10.3M386.3 189.451h-11.45v55.3h3.65v-22.75h6.85q6.55 0 9.7-3.25 3.1-3.25 3.1-9.9v-6q0-13.4-11.85-13.4m0 3.3q4.4 0 6.4 2.7 1.8 2.4 1.8 7.2v6.45q0 5-2.15 7.3-2.2 2.25-7 2.25h-6.85v-25.9h7.8M433.3 189.451h-3.55l-10.6 29.05-10.55-29.05h-3.8l12.4 34.05v21.25h3.6v-21.25l12.5-34.05"/><path fill="none" stroke="#1A344F" stroke-width="2.5" stroke-linecap="round" stroke-linejoin="round" d="M254.05 279.401v82.45M244.1 361.851h20"/><g style="display:none"><path fill="#FFF" stroke="#1A344F" stroke-width="2.5" stroke-linecap="round" stroke-linejoin="round" d="M332.05 325.4q.05-.5.15-.95 0-23.75-.05-46.5-10.05-2.4-22.75-2.35-6.55.1-16.3 1.5-1.75.2-3.5.45-9.4 1.45-14.65 2-1.95.2-3.4.3-9.6.55-17.45-1.7l.2 47.5q7.2 1.45 16.5.85.3 0 .65-.05 4-.3 16.6-1.75.35-.05.7-.05 9.8-1.15 18.45-1.35 13.6-.2 24.85 2.1"/><animate attributeName="display" repeatCount="indefinite" dur="1.85s" keyTimes="0;0.486;0.514;1" values="none;inline;none;none"/></g><g style="display:none"><path fill="#FFF" stroke="#1A344F" stroke-width="2.5" stroke-linecap="round" stroke-linejoin="round" d="M332.2 278.65l-.1-.9q-9.15-1.6-22.75-1.8-6.4.05-16.3 1.15-1.75.15-3.5.35-9.25 1.2-14.65 1.7-1.9.15-3.35.25-9.55.5-17.45-1.25l.2 47.5q7.3 1.05 16.45.55.3 0 .7-.05 3.85-.25 16.55-1.3.35-.05.7 0 9.75-.9 18.3-1.1h.2q13.4-.25 24.8 1.4.1-.5.25-.9 0-24.1-.05-45.6"/><animate attributeName="display" repeatCount="indefinite" dur="1.85s" keyTimes="0;0.459;0.486;0.973;1" values="none;inline;none;inline;inline"/></g><g style="display:none"><path fill="#FFF" stroke="#1A344F" stroke-width="2.5" stroke-linecap="round" stroke-linejoin="round" d="M332.25 278.35q-.1-.4-.2-.75-9.25-1.1-22.75-1.3-6.4.05-16.25.85-1.8.1-3.55.25-9.25.9-14.6 1.3-1.9.15-3.4.25-9.4.45-17.4-.8l.15 47.5q7.4.6 16.5.25.25 0 .65-.05 3.7-.15 16.55-.85h.7q9.85-.55 18.3-.8h.3q13.1-.3 24.7.65l.3-.8q.05-24.95 0-45.7"/><animate attributeName="display" repeatCount="indefinite" dur="1.85s" keyTimes="0;0.432;0.459;0.946;0.973;1" values="none;inline;none;inline;none;none"/></g><g style="display:none"><path fill="#FFF" stroke="#1A344F" stroke-width="2.5" stroke-linecap="round" stroke-linejoin="round" d="M332.3 278l-.3-.6q-9.35-.6-22.75-.75-6.35 0-16.25.5-1.8.05-3.55.15-9.25.65-14.6 1-1.85.1-3.35.2-9.35.45-17.4-.35l.15 47.45q7.4.25 16.45 0h.7q3.55-.15 16.55-.4.35-.05.7 0 9.85-.3 18.3-.55h.3q12.9-.3 24.65-.05.15-.4.4-.75.05-25.85 0-45.85"/><animate attributeName="display" repeatCount="indefinite" dur="1.85s" keyTimes="0;0.405;0.432;0.919;0.946;1" values="none;inline;none;inline;none;none"/></g><g style="display:none"><path fill="#FFF" stroke="#1A344F" stroke-width="2.5" stroke-linecap="round" stroke-linejoin="round" d="M332.35 277.7q-.2-.25-.4-.45-9.45-.1-22.75-.25-6.35-.05-16.25.2-1.8 0-3.55.05-9.25.35-14.55.6-1.85.1-3.35.2-9.25.4-17.4.1l.1 47.45q7.5-.2 16.45-.3h.75q3.35-.1 16.5.05h.7q9.9.05 18.35-.25h.3q12.65-.35 24.6-.8.2-.35.45-.65.1-26.7.05-45.95"/><animate attributeName="display" repeatCount="indefinite" dur="1.85s" keyTimes="0;0.378;0.405;0.892;0.919;1" values="none;inline;none;inline;none;none"/></g><g style="display:none"><path fill="#FFF" stroke="#1A344F" stroke-width="2.5" stroke-linecap="round" stroke-linejoin="round" d="M332.45 277.4q-.25-.15-.5-.35-9.65.45-22.8.3-6.3-.05-16.2-.15-1.85-.05-3.6-.05-9.25.05-14.55.3-1.75.1-3.35.15-9.15.35-17.35.55l.1 47.45q7.55-.6 16.45-.55.3 0 .7-.05 3.25 0 16.5.5.35 0 .7.05 10 .3 18.35.05h.4q12.4-.45 24.45-1.55l.6-.6q.1-27.55.1-46.05"/><animate attributeName="display" repeatCount="indefinite" dur="1.85s" keyTimes="0;0.351;0.378;0.865;0.892;1" values="none;inline;none;inline;none;none"/></g><g style="display:none"><path fill="#FFF" stroke="#1A344F" stroke-width="2.5" stroke-linecap="round" stroke-linejoin="round" d="M332.5 277.1l-.6-.2q-9.75.95-22.8.8-6.3-.1-16.2-.45-1.85-.1-3.6-.15-9.25-.25-14.5-.1-1.75.1-3.35.15-9.05.3-17.35 1l.05 47.45q7.65-1.05 16.45-.85.3 0 .75-.05 3.05.05 16.45.95.35.05.7.05 10.05.65 18.4.35h.4q12.15-.5 24.4-2.3.35-.25.65-.5.15-28.4.15-46.15"/><animate attributeName="display" repeatCount="indefinite" dur="1.85s" keyTimes="0;0.324;0.351;0.838;0.865;1" values="none;inline;none;inline;none;none"/></g><g style="display:none"><path fill="#FFF" stroke="#1A344F" stroke-width="2.5" stroke-linecap="round" stroke-linejoin="round" d="M332.55 276.75q-.35 0-.7-.05-9.85 1.45-22.8 1.35-6.25-.15-16.2-.8-1.85-.15-3.6-.25-9.25-.5-14.5-.4-1.7.05-3.3.1-9 .3-17.35 1.45l.05 47.4q7.65-1.4 16.4-1.1h.8q2.9.05 16.45 1.4.35 0 .7.05 10.05.9 18.4.6h.4q11.95-.5 24.35-3 .35-.25.75-.45.15-29.3.15-46.3"/><animate attributeName="display" repeatCount="indefinite" dur="1.85s" keyTimes="0;0.297;0.324;0.811;0.838;1" values="none;inline;none;inline;none;none"/></g><g style="display:none"><path fill="#FFF" stroke="#1A344F" stroke-width="2.5" stroke-linecap="round" stroke-linejoin="round" d="M332.6 276.45l-.8.1q-9.95 1.95-22.8 1.85-6.25-.15-16.15-1.1-1.9-.2-3.65-.35-9.25-.8-14.45-.8l-3.35.1q-8.85.25-17.3 1.9v47.4q7.75-1.85 16.45-1.4h.75q2.75.15 16.45 1.85.35.05.7.05 10.15 1.25 18.4.9h.5q11.65-.55 24.25-3.75.4-.15.8-.35.2-30.15.2-46.4"/><animate attributeName="display" repeatCount="indefinite" dur="1.85s" keyTimes="0;0.27;0.297;0.784;0.811;1" values="none;inline;none;inline;none;none"/></g><g style="display:none"><path fill="#FFF" stroke="#1A344F" stroke-width="2.5" stroke-linecap="round" stroke-linejoin="round" d="M332.45 322.65q.2-31 .2-46.5-10.5 2.7-21.25 2.65-6.6 0-18.4-1.5-12.05-1.5-18.2-1.55-10.55-.15-20.7 2.4v47.4q8.1-2.35 17.1-1.7 2.5.15 16.4 2.3 10.7 1.6 19.25 1.25 12.1-.5 25.6-4.75"/><animate attributeName="display" repeatCount="indefinite" dur="1.85s" keyTimes="0;0.243;0.27;0.757;0.784;1" values="none;inline;none;inline;none;none"/></g><g style="display:none"><path fill="#FFF" stroke="#1A344F" stroke-width="2.5" stroke-linecap="round" stroke-linejoin="round" d="M331.45 323.25q.5-.2.95-.4.2-30.1-.25-46.4-10.2 2-22.85 1.9-6.3-.15-16.3-1.1l-3.6-.3q-9.4-.75-14.6-.75-1.65.05-3.2.1-9 .25-17.5 1.85v47.4q7.7-1.8 16.35-1.4h.8q2.65.1 16.4 1.8l.7.1q10.25 1.15 18.55.85 11.85-.45 24.55-3.65"/><animate attributeName="display" repeatCount="indefinite" dur="1.85s" keyTimes="0;0.216;0.243;0.73;0.757;1" values="none;inline;none;inline;none;none"/></g><g style="display:none"><path fill="#FFF" stroke="#1A344F" stroke-width="2.5" stroke-linecap="round" stroke-linejoin="round" d="M331.55 323.55q.4-.25.85-.45.15-29.2-.25-46.45-10.2 1.4-22.85 1.3-6.35-.1-16.3-.7-1.8-.15-3.55-.2-9.4-.45-14.6-.35-1.7.05-3.25.1-9.1.3-17.5 1.35l.05 47.4q7.6-1.3 16.35-1.1.4 0 .75.05 2.9.05 16.45 1.3.35 0 .7.05 10.2.85 18.55.55 12.1-.45 24.6-2.85"/><animate attributeName="display" repeatCount="indefinite" dur="1.85s" keyTimes="0;0.189;0.216;0.703;0.73;1" values="none;inline;none;inline;none;none"/></g><g style="display:none"><path fill="#FFF" stroke="#1A344F" stroke-width="2.5" stroke-linecap="round" stroke-linejoin="round" d="M331.6 323.85q.4-.25.75-.55.15-28.3-.2-46.4-10.15.75-22.8.7-6.4-.1-16.3-.4l-3.6-.1q-9.4-.1-14.6.05-1.75.1-3.25.15-9.2.35-17.5.85l.05 47.45q7.55-.9 16.4-.8h.75q3.05 0 16.45.8.35.05.7.05 10.15.5 18.55.25 12.3-.4 24.6-2.05"/><animate attributeName="display" repeatCount="indefinite" dur="1.85s" keyTimes="0;0.162;0.189;0.676;0.703;1" values="none;inline;none;inline;none;none"/></g><g style="display:none"><path fill="#FFF" stroke="#1A344F" stroke-width="2.5" stroke-linecap="round" stroke-linejoin="round" d="M331.7 324.15l.6-.6q.15-27.45-.15-46.45-10.15.15-22.8.1-6.4-.05-16.3 0h-3.55q-9.4.2-14.65.4-1.75.15-3.25.2-9.3.4-17.5.35l.1 47.45q7.45-.45 16.4-.45h.75q3.2-.1 16.45.3h.7q10.1.2 18.55-.05 12.55-.4 24.65-1.25"/><animate attributeName="display" repeatCount="indefinite" dur="1.85s" keyTimes="0;0.135;0.162;0.649;0.676;1" values="none;inline;none;inline;none;none"/></g><g style="display:none"><path fill="#FFF" stroke="#1A344F" stroke-width="2.5" stroke-linecap="round" stroke-linejoin="round" d="M331.8 324.45l.5-.7q.05-26.5-.15-46.45-10.1-.5-22.8-.5-6.45 0-16.3.35-1.75.05-3.55.15-9.4.45-14.6.8-1.85.1-3.35.2-9.3.4-17.45-.15l.1 47.45q7.45.05 16.45-.15h.7q3.45-.1 16.55-.2h.7q9.95-.15 18.45-.4 12.85-.3 24.75-.4"/><animate attributeName="display" repeatCount="indefinite" dur="1.85s" keyTimes="0;0.108;0.135;0.622;0.649;1" values="none;inline;none;inline;none;none"/></g><g style="display:none"><path fill="#FFF" stroke="#1A344F" stroke-width="2.5" stroke-linecap="round" stroke-linejoin="round" d="M331.9 324.75q.15-.4.35-.75.05-25.65-.1-46.5-10.1-1.1-22.8-1.1-6.45.05-16.3.75-1.75.1-3.5.25-9.4.75-14.65 1.15-1.85.15-3.35.25-9.4.45-17.45-.65l.15 47.45q7.35.5 16.45.2h.7q3.6-.2 16.55-.7.35-.05.7-.05 9.9-.45 18.45-.7 13.1-.3 24.8.4"/><animate attributeName="display" repeatCount="indefinite" dur="1.85s" keyTimes="0;0.081;0.108;0.595;0.622;1" values="none;inline;none;inline;none;none"/></g><g style="display:none"><path fill="#FFF" stroke="#1A344F" stroke-width="2.5" stroke-linecap="round" stroke-linejoin="round" d="M331.95 325.05q.15-.4.25-.85.05-24.75-.05-46.45-10.05-1.75-22.75-1.7-6.5.05-16.3 1.05-1.75.2-3.55.35-9.4 1.1-14.65 1.55-1.9.2-3.35.3-9.5.5-17.45-1.15l.15 47.5q7.3.9 16.5.5.3 0 .7-.05 3.75-.25 16.55-1.2.35 0 .7-.05 9.85-.8 18.45-1 13.3-.25 24.8 1.2"/><animate attributeName="display" repeatCount="indefinite" dur="1.85s" keyTimes="0;0.054;0.081;0.568;0.595;1" values="none;inline;none;inline;none;none"/></g><g style="display:none"><path fill="#FFF" stroke="#1A344F" stroke-width="2.5" stroke-linecap="round" stroke-linejoin="round" d="M332.05 325.35q.05-.45.15-.9 0-23.85-.05-46.5-10.05-2.35-22.75-2.3-6.55.1-16.3 1.45-1.75.2-3.5.45-9.4 1.4-14.65 1.95-1.95.2-3.4.3-9.6.55-17.45-1.65l.2 47.5q7.2 1.4 16.5.8h.65q4-.3 16.6-1.7l.7-.1q9.8-1.1 18.45-1.3 13.55-.25 24.85 2"/><animate attributeName="display" repeatCount="indefinite" dur="1.85s" keyTimes="0;0.027;0.054;0.541;0.568;1" values="none;inline;none;inline;none;none"/></g><g><path fill="#FFF" stroke="#1A344F" stroke-width="2.5" stroke-linecap="round" stroke-linejoin="round" d="M332.15 325.65v-47.5q-11-3.25-22.75-2.9-7.65.2-19.8 2.4-13 2.35-18.05 2.65-9.7.6-17.45-2.15v47.4q7.2 1.95 16.75 1.25 3.75-.25 17.95-2.35 25.2-3.7 43.35 1.2"/><animate attributeName="display" repeatCount="indefinite" dur="1.85s" keyTimes="0;0.027;0.514;0.541;1" values="inline;none;inline;none;none"/></g><g transform="translate(292.7 301.2)"><animateTransform attributeName="transform" additive="replace" type="translate" dur="1.85s" keyTimes="0;1" values="0,0;0,0" fill="freeze"/><animateTransform attributeName="transform" additive="sum" type="translate" repeatCount="indefinite" dur="1.85s" keyTimes="0;0.027;0.054;0.081;0.108;0.135;0.162;0.189;0.216;0.243;0.27;0.297;0.324;0.351;0.378;0.405;0.432;0.459;0.486;0.514;0.541;0.568;0.595;0.622;0.649;0.676;0.703;0.73;0.757;0.783;0.784;1" values="292.7,301.2;292.7,301.45;292.7,301.7;292.7,301.95;292.7,302.2;292.7,302.45;292.7,302.7;292.7,302.95;292.7,303.2;292.7,303.45;292.7,303.25;292.7,303;292.7,302.8;292.7,302.55;292.7,302.35;292.7,302.1;292.7,301.9;292.7,301.65;292.7,301.45;292.7,301.2;292.7,301.45;292.7,301.7;292.7,301.95;292.7,302.2;292.7,302.45;292.7,302.7;292.7,302.95;292.7,303.2;292.7,303.45;292.7,303.25;0;0" calcMode="discrete"/><animateTransform attributeName="transform" additive="sum" type="translate" repeatCount="indefinite" dur="1.85s" keyTimes="0;0.784;0.811;0.838;0.865;0.892;0.919;0.946;0.973;1" values="0;292.7,303.25;292.7,303;292.7,302.8;292.7,302.55;292.7,302.35;292.7,302.1;292.7,301.9;292.7,301.65;292.7,301.45" calcMode="discrete"/><path fill="#D56871" d="M9.451 9.501q3.9-3.95 3.9-9.45 0-5.5-3.9-9.4-3.9-3.9-9.4-3.9t-9.4 3.9q-3.9 3.9-3.9 9.4t3.9 9.45q3.9 3.9 9.4 3.9t9.4-3.9"/></g><use xlink:href="#a" transform="translate(467.25 142.45)"><animateTransform attributeName="transform" additive="replace" type="translate" repeatCount="indefinite" dur="1.85s" keyTimes="0;0.027;0.054;0.081;0.108;0.135;0.162;0.189;0.216;0.243;0.27;0.297;0.324;0.351;0.378;0.405;0.432;0.459;0.486;0.514;1" values="467.25,142.45;467.25,143.45;467.25,144.45;467.25,145.45;467.25,146.45;467.25,147.45;467.25,145.9;467.25,144.35;467.25,142.75;467.25,141.2;467.25,139.65;467.25,138.1;467.25,136.5;467.25,134.95;467.25,136.2;467.25,137.45;467.25,138.7;467.25,139.95;467.25,141.2;467.25,142.45;467.25,142.45" calcMode="discrete"/><animateTransform attributeName="transform" additive="sum" type="scale" repeatCount="indefinite" dur="1.85s" keyTimes="0;0.135;0.162;0.189;0.216;0.243;0.27;0.297;0.324;0.351;0.378;0.405;0.432;0.459;0.486;0.514;1" values="1,1;1,1;1,1.019;1,1.038;1,1.056;1,1.075;1,1.094;1,1.113;1,1.131;1,1.15;1,1.125;1,1.1;1,1.075;1,1.05;1,1.025;1,1;1,1" calcMode="discrete"/></use><use xlink:href="#a" transform="translate(468.25 216.7)"><animateTransform attributeName="transform" additive="replace" type="translate" repeatCount="indefinite" dur="1.85s" keyTimes="0;0.486;0.514;0.541;0.568;0.595;0.622;0.649;0.676;0.703;0.73;0.757;0.784;0.811;0.838;0.865;0.892;0.919;0.946;0.973;1" values="468.25,216.7;468.25,216.7;468.25,217.7;468.25,218.7;468.25,219.7;468.25,220.7;468.25,221.7;468.25,220.15;468.25,218.6;468.25,217;468.25,215.45;468.25,213.9;468.25,212.35;468.25,210.75;468.25,209.2;468.25,210.45;468.25,211.7;468.25,212.95;468.25,214.2;468.25,215.45;468.25,216.7" calcMode="discrete"/><animateTransform attributeName="transform" additive="sum" type="scale" repeatCount="indefinite" dur="1.85s" keyTimes="0;0.622;0.649;0.676;0.703;0.73;0.757;0.784;0.811;0.838;0.865;0.892;0.919;0.946;0.973;1" values="1,1;1,1;1,1.019;1,1.038;1,1.056;1,1.075;1,1.094;1,1.113;1,1.131;1,1.15;1,1.125;1,1.1;1,1.075;1,1.05;1,1.025;1,1" calcMode="discrete"/></use></g></svg>
