<svg xmlns="http://www.w3.org/2000/svg" image-rendering="optimizeQuality" baseProfile="basic" width="695" height="470" viewBox="0 0 695 470" preserveAspectRatio="xMinYMin meet"><g overflow="visible"><path fill="#E56C6C" stroke="#19344F" stroke-width="2.5" stroke-linecap="round" stroke-linejoin="round" d="M-4.8 477.6l218.9 8.6L481.6-5.6H-4.8v483.2"/><path fill="#457C9E" stroke="#384861" stroke-width="2.5" stroke-linecap="round" stroke-linejoin="round" d="M709.2 477.6V-5.6H465.7L196.2 477.6h513"/><path fill="#C25B5B" d="M9.3 204.5v-.1q0-3.3-1.8-6t-4.8-4l-9.6-4-2.6-2.7v-2.4q5.7-1.6 7.8-7.2l1.2.3q1.4 0 2.4-1t1-2.4q0-1.4-1-2.4t-2.4-1h-.3v-.2q2.7-4 2.7-8.5 0-6.1-4.3-10.5-4.3-4.3-10.5-4.3h-.2l-1.3-.3h-.2l-1-.2-.8-.2h-1.2q-2.6 0-4.7.8-4.7 1.6-7.5 5.6-.4.6-.2 1.3 0 .5.2.7 1.2 1.7 2.7 3-.6 1.8-.6 4 0 3.8 1.6 6.8l.3 2q-1.2.2-2 1.2t-.8 2.2q0 1.4 1 2.4t2.3 1h.3l1-.2v.3l.3 1.6q3.5 4.2 7.5 5.2v2.4l-2.8 2.8-10 4-1 .4-.2.1-1.6 1.1-.8.8-.2.1-.5.7h-.1l-.6.8v.3l-.6.9-.4.8v.1l-.6 2v.7l-.2.3v.9H9.3m18-48.7q1 1.5 2.7 3-.6 1.8-.6 4 0 3.6 1.6 6.8l.4 2q-1.2.2-2 1.2-1 1-1 2.2 0 1.4 1 2.4t2.4 1h.4l.8-.2.1.3.3 1.6q3.5 4.1 7.4 5.2v2.4l-2.6 2.8-10.1 4-.9.4-.2.1-.7.4-.2.2-.8.5-.7.8-.3.1-.5.7h-.1l-.7 1-.3.7-.2.3-.4.8v.1l-.6 1.7v1l-.1.3v.9h45v-.1q0-3.2-1.8-6-1.8-2.7-4.8-4l-9.6-4-2.6-2.7v-2.4q2.6-.8 4.7-2.7 2.1-1.9 3.1-4.5.5.3 1.2.3 1.3 0 2.4-1 1-1 1-2.4t-1-2.4q-1-1-2.4-1h-.3v-.2q2.7-4 2.7-8.5 0-6.1-4.3-10.5-4.3-4.3-10.5-4.3H44l-.5-.2-.8-.1h-.1l-.9-.2h-.2l-.7-.2h-1.2q-2.6 0-4.7.8-4.8 1.7-7.4 5.6-.4.7-.3 1.3l.3.7m82.3-7.7l-1.3-.3h-.1l-1-.2h-.2l-.7-.2h-1.1q-2.6 0-4.8.8-4.6 1.6-7.4 5.6-.4.5-.3 1.3l.3.7q1.2 1.7 2.7 3-.7 2-.7 4 0 3.8 1.6 6.8l.4 2q-1.2.2-2 1.2t-.8 2.2q0 1.4 1 2.4t2.3 1h.3l.8-.2.2.3.3 1.6q3.3 4.2 7.4 5.2v2.4l-2.7 2.8-10 4-1 .4-.2.1-1.6 1.1-1 1-1.2 1.4-.5 1-.1.2-.4.8-.1.1-.6 2v1l-.1.9h45.1v-.1q0-3.2-1.9-6-1.7-2.7-4.8-4l-9.5-4-2.7-2.7v-2.4q5.6-1.6 8-7.2.4.3 1 .3 1.4 0 2.4-1t1-2.4q0-1.4-1-2.4t-2.4-1h-.2v-.2q2.6-3.9 2.6-8.5 0-6.1-4.3-10.5-4.3-4.3-10.5-4.3h-.2m111.2 7.7q1 1.5 2.6 3-.5 1.8-.5 4 0 3.8 1.6 6.8l.3 2q-1.2.2-2 1.2-1 1-1 2.2 0 1.4 1 2.4t2.5 1h.3l.9-.2v.3l.4 1.6q3.4 4.2 7.4 5.2v2.4l-2.7 2.8-10.1 4-.9.4-.2.1-.7.4-.2.2-.8.5-.7.8-.3.1-.5.7h-.1l-.7 1-.3.7-.2.3-.4.8v.1l-.4 1v.7l-.2.3v.7l-.1.3v.9h45v-.1q0-3.2-1.8-6-1.8-2.7-4.8-4l-9.6-4-2.6-2.7v-2.4q5.7-1.6 7.8-7.2.7.3 1.2.3 1.4 0 2.4-1t1-2.4q0-1.4-1-2.4t-2.4-1h-.3v-.2q2.7-4 2.7-8.5 0-6.1-4.3-10.5-4.3-4.3-10.5-4.3h-.2l-.4-.1h-.2l-.8-.2h-.1l-.9-.2h-.2l-.7-.2H233q-2.6 0-4.7.8-4.6 1.6-7.4 5.6-.4.7-.3 1.3l.3.7m60.5 0q1.1 1.7 2.6 3-.6 2-.6 4 0 3.4 1.6 6.8l.3 2q-1.2.2-2 1.2t-.8 2.2q0 1.4 1 2.4t2.4 1h.3l.8-.2.2.3.3 1.6q3.4 4.2 7.3 5.2v2.4l-2.6 2.8-10 4-1 .4-.3.1-1.6 1.1-1 1-1.1 1.4-.6 1v.2l-.5.8v.1l-.4 1-.2 1-.1.7v1.2h45v-.1q0-3.2-1.8-6-1.8-2.7-4.8-4l-9.5-4-2.7-2.7v-2.4q5.7-1.7 7.9-7.2.4.3 1 .3 1.4 0 2.5-1 1-1 1-2.4t-1-2.4q-1-1-2.4-1h-.3v-.2q2.7-3.9 2.7-8.5 0-6.1-4.3-10.5-4.3-4.3-10.5-4.3h-.2l-.6-.2-.7-.1h-.2l-.9-.2h-.2l-.7-.2h-1.1q-2.7 0-4.8.8-4.7 1.6-7.4 5.6-.5.5-.3 1.3l.3.7"/><path fill="#326077" d="M396.2 143.5H395q-2.7 0-4.9.8-4.8 1.7-7.7 5.7-.4.7-.2 1.4 0 .5.2.8 1.3 1.7 2.8 3-.6 1.9-.6 4.2 0 3.8 1.6 7l.4 2q-1.3.2-2.1 1.2-.9 1-.9 2.3 0 1.4 1 2.5 1 1 2.5 1h.3l.9-.2v.3l.4 1.6q3.5 4.4 7.7 5.5v2.4l-2.8 2.8-10.4 4.2-1 .5h-.2l-1.7 1.2-.7.7-.3.2-.5.7h-.1l-.8 1.1-.3.7-.2.2-.4 1-.3.8v.3l-.3 1v.6l-.1.4v.9h46.4v-.1q0-3.4-1.9-6.1-1.9-2.8-5-4.1l-9.8-4.2-2.7-2.8v-2.5q5.8-1.7 8-7.4.7.3 1.3.3 1.4 0 2.5-1 1-1 1-2.5 0-1.4-1-2.4-1.1-1-2.5-1h-.3v-.3q2.8-4 2.8-8.8 0-6.3-4.5-10.8-4.4-4.4-10.8-4.4h-.2l-.4-.1-.3-.1-.7-.2h-.2l-.9-.1-.2-.1h-.7m49.7 7.8l.3.8q1.1 1.7 2.7 3-.6 2.2-.6 4.2 0 3.5 1.6 7l.4 2q-1.3.2-2.1 1.2-.9 1-.9 2.3 0 1.4 1 2.5 1.1 1 2.5 1h.3l.9-.2.1.3.4 1.6q3.5 4.3 7.5 5.5v2.4l-2.7 2.8L447 192l-.9.5h-.2l-.8.4-.1.2-.8.6-.8.7-.2.2-.6.7h-.1l-1.1 1.8-.1.2-.4 1-.6 1.7v.4l-.2.6v1.3h46.4v-.1q0-3.3-1.9-6.1-1.8-2.8-5-4.1l-9.7-4.2-2.8-2.8v-2.5q5.9-1.7 8.1-7.4.5.3 1.2.3 1.4 0 2.4-1t1-2.5q0-1.4-1-2.4t-2.4-1h-.3v-.3q2.7-4 2.7-8.8 0-6.3-4.4-10.8-4.5-4.4-10.8-4.4h-.2l-.6-.2-.8-.2h-.1l-1-.1-.2-.1h-1.9q-2.7 0-4.8.7h-.1q-4.9 1.8-7.6 5.7-.4.8-.3 1.4m126.8.8q1.3 1.7 2.7 3-.5 1.9-.5 4.2 0 3.8 1.6 7l.3 2q-1.2.2-2 1.2-1 1-1 2.3 0 1.4 1.1 2.5 1 1 2.5 1h.3l.9-.2v.3l.4 1.6q3.5 4.4 7.6 5.5v2.4l-2.8 2.8-10.3 4.2-1 .5h-.2l-1.7 1.2-.8.7-.2.2-.5.7h-.2l-.5.9-.1.2-.6 1-.4.8v.1l-.6 2v.7l-.2.4v.9H613v-.1q0-3.4-1.8-6.1-1.9-2.8-5-4.1l-9.7-4.2-2.8-2.8v-2.5q5.8-1.7 8-7.4l1.3.3q1.4 0 2.5-1 1-1 1-2.5 0-1.4-1-2.4-1.1-1-2.5-1h-.3v-.3q2.8-4 2.8-8.8 0-6.3-4.5-10.8-4.4-4.4-10.8-4.4h-.2l-.5-.1-.9-.3h-.2l-1-.1v-.1h-2.1q-2.6 0-4.8.7-4.8 1.7-7.7 5.7-.4.7-.2 1.4l.2.8m100.5 50.1v-.1q0-3.3-1.9-6.1-1.8-2.8-4.9-4.1l-9.8-4.2-2.7-2.8v-2.5q2.7-.8 4.8-2.7 2.2-2 3.2-4.7.5.3 1.2.3 1.5 0 2.5-1t1-2.5q0-1.4-1-2.4t-2.5-1h-.2v-.3q2.8-4 2.8-8.8 0-6.3-4.5-10.8-4.4-4.4-10.8-4.4h-.3l-.6-.2-.7-.2h-.2l-1-.1v-.1h-2q-2.8 0-5 .7-4.9 1.8-7.6 5.7-.4.8-.3 1.4l.3.8q1 1.4 2.7 3-.5 1.9-.5 4.2 0 3.6 1.5 7l.4 2q-1.2.2-2 1.2-1 1-1 2.3 0 1.4 1 2.5 1.1 1 2.5 1h.4l.8-.2.2.3.3 1.6q3.5 4.3 7.6 5.5v2.4l-2.7 2.8-10.4 4.2-1 .5h-.2l-.7.4-.2.2-.8.6-.8.7-.2.2-.6.7-.8 1.1-.3.7-.2.2-.4 1-.6 1.7v1l-.2.4v.9H673.2m21-50.1q1.1 1.7 2.7 3-.7 2.2-.7 4.2 0 3.8 1.7 7l.3 2q-1.2.2-2 1.2-.9 1-.9 2.3 0 1.4 1 2.5 1 1 2.5 1h.3l.8-.2.2.3.3 1.6q3.6 4.4 7.6 5.5v2.4l-2.7 2.8L695 192l-1 .5h-.2l-1 .6-1.7 1.5-.6.7-1.2 1.8v.2l-.5 1-.6 2-.1.7v1.3h46.4v-.1q0-3.3-1.9-6.1-1.8-2.8-5-4.1l-9.8-4.2-2.8-2.8v-2.5q5.8-1.7 8.2-7.4.5.3 1.2.3 1.4 0 2.4-1t1-2.5q0-1.4-1-2.4t-2.4-1h-.3v-.3q2.7-4 2.7-8.8 0-6.3-4.4-10.8-4.5-4.4-10.8-4.4h-.3l-.5-.2-.8-.2h-.1l-1-.1-.2-.1h-1.9q-2.7 0-5 .7-4.7 1.7-7.5 5.7-.5.6-.3 1.4l.3.8"/><path fill="#D36565" d="M17.1 208.5l-1.2-.3h-.2l-.9-.2h-.1l-.8-.1h-1.2q-2.5 0-4.7.7-4.7 1.6-7.4 5.6-.4.7-.3 1.4l.3.7q.9 1.3 2.6 2.9-.5 1.7-.5 4.1 0 3.5 1.5 6.7l.4 2.1q-1.2.2-2 1.2-.9.8-.9 2.1 0 1.4 1 2.4t2.4 1h.3l.8-.1.1.2.4 1.5q3.2 4.1 7.3 5.4v2.4l-2.6 2.7-11 4.4-1 .6-.1.1-.8.6h-.2L-3 258l-.1.2-.6.8-.1.2-.3.7-.2.2-.7 1.7-.3 1V263.7l-.1.3v1h45.1v-.2q0-3.2-2-6-1.7-2.7-4.7-4l-9.5-3.9-2.7-2.7v-2.5q2.7-.8 4.7-2.6 2.1-2 3.2-4.5l1 .2q1.4 0 2.5-1 1-1 1-2.4t-1-2.4q-1-1-2.4-1h-.3v-.2q2.7-4 2.7-8.5 0-6-4.3-10.4t-10.4-4.4H17m62.5-.6h-1q-2.6 0-4.9.7-4.5 1.6-7.3 5.6-.5.6-.4 1.4l.4.7q1 1.6 2.6 2.9-.6 2-.6 4.1 0 3.6 1.6 6.7l.3 2.1q-1.2.2-2 1.2-.8.8-.8 2.1 0 1.4 1 2.4t2.3 1h.4l.8-.1.1.2.3 1.5q3.3 4.2 7.4 5.4v2.4l-2.6 2.7-11 4.4-2 1.3-.7.6-.2.3-.5.5-.1.2-.6.8-.1.2-.4.7-.1.2-.4.9H61l-.6 2v1l-.1 1h45.1v-.2q0-3.2-1.9-6-1.7-2.7-4.8-4l-9.5-3.9-2.7-2.7v-2.5q5.6-1.6 8-7h1q1.4 0 2.4-.9 1-1 1-2.4 0-1.3-1-2.4-1-1-2.4-1h-.2v-.2q2.6-3.7 2.6-8.5 0-6-4.3-10.4t-10.4-4.4h-.3l-1.3-.3h-.1l-.9-.2h-.2l-.8-.1m177.7 11.3q-.7 2-.7 4.1 0 3.3 1.6 6.7l.3 2.1q-1.2.2-2 1.2-.8.8-.8 2.1 0 1.4 1 2.4t2.4 1h.3l.8-.1.2.2.3 1.5q3.3 4.2 7.3 5.4v2.4l-2.6 2.7-11 4.4-.3.2-1.6 1.1h-.1l-.7.6-.1.3-.6.5v.2l-.6.8-.2.2-.4.7v.2l-.5.9-.6 2v1l-.2 1h45.2v-.2q0-3.2-1.9-6-1.8-2.7-4.8-4l-9.5-3.9-2.7-2.7v-2.5q5.7-1.7 7.9-7h1.1q1.4 0 2.4-.9 1-1 1-2.4 0-1.3-1-2.4-1-1-2.4-1h-.2v-.2q2.6-3.7 2.6-8.5 0-6-4.3-10.4t-10.5-4.4h-.2l-.6-.1-.7-.2h-.2l-.9-.2h-.2l-.7-.1h-1.1q-2.6 0-4.7.7h-.1q-4.6 1.6-7.4 5.6-.5.6-.3 1.4l.3.7q1.1 1.6 2.7 2.9"/><path fill="#336477" d="M387.5 221.7q0-6.3-4.5-10.8-4.4-4.5-10.8-4.5H371.6l-.3-.1-.7-.2h-.2l-.9-.2h-.2l-.7-.1h-1.2q-2.5 0-4.9.7-4.7 1.6-7.7 5.8-.4.6-.2 1.4l.2.7q1.3 1.7 2.8 3-.6 1.8-.6 4.3 0 3.7 1.6 6.8l.4 2.2q-1.3.2-2.1 1.2-1 1-1 2.2 0 1.5 1 2.5 1.2 1 2.6 1h.3l.9-.1v.3l.4 1.5q3.4 4.2 7.7 5.5v2.5l-2.8 2.8-11.3 4.5-2 1.4h-.2l-1.5 1.6-.5.8-.2.2-.3.7-.2.3-.4.9-.6 2.1v.7l-.1.2v1l.1.1H395v-.2q0-3.4-1.8-6.1-1.9-2.8-5-4.2l-9.8-4-2.7-2.8v-2.5q5.8-1.7 8-7.4l1.3.2q1.4 0 2.5-1 1-1 1-2.5 0-1.4-1-2.4-1.1-1-2.5-1h-.3v-.3q2.8-4 2.8-8.7m38.8-15.2h-.1q-4.8 1.7-7.6 5.8-.4.7-.3 1.4l.3.7q1.1 1.7 2.7 3-.6 2.1-.6 4.3 0 3.4 1.6 6.8l.4 2.2q-1.3.2-2.1 1.2-.9 1-.9 2.2 0 1.5 1 2.5 1.1 1 2.5 1h.3l.9-.1.1.3.4 1.5q3.3 4.2 7.5 5.5v2.5l-2.7 2.8-10.4 4.1-1.9 1-.1.2-.9.6h-.1l-1.4 1.4-.1.2-.6.8-.1.2-.5.7v.3l-.8 1.7-.2 1v.3l-.1.7v1.3h46.3v-.2q0-3.3-1.9-6.1-1.8-2.8-5-4.2l-9.7-4-2.8-2.8v-2.5q2.8-.9 4.9-2.8 2.1-2 3.2-4.6l1.2.2q1.4 0 2.4-1t1-2.5q0-1.4-1-2.4t-2.4-1h-.3v-.3q2.7-3.9 2.7-8.7 0-6.4-4.4-10.8-4.5-4.5-10.8-4.5h-.3l-1.3-.3h-.1l-1-.2h-.2l-.6-.1H431q-2.6 0-4.8.7m136.2 0h-.2l-2.5-.6h-.2l-.7-.1h-1.3q-2.4 0-4.8.7-4.7 1.6-7.7 5.8-.4.6-.2 1.4l.2.7q1.3 1.7 2.7 3-.5 2.3-.5 4.3 0 3.7 1.6 6.8l.3 2.2q-1.2.2-2 1.2t-.8 2.2q0 1.5 1 2.5t2.4 1h.3l.9-.1v.3l.4 1.5q3.4 4.2 7.6 5.5v2.5l-2.8 2.8-11.2 4.5-2 1.4h-.2l-1.5 1.6-1.2 2-.4.9-.6 2.1V263.5l-.2 1 .2.1h46.2v-.2q0-3.4-1.8-6.1-1.9-2.8-5-4.2l-9.7-4-2.8-2.8v-2.5q5.8-1.7 8-7.4l1.3.2q1.4 0 2.4-1t1-2.5q0-1.4-1-2.4t-2.4-1h-.4v-.3q2.8-4 2.8-8.7 0-6.3-4.4-10.8-4.5-4.5-10.8-4.5m43 5.9q-.5.7-.4 1.4l.3.7q1 1.3 2.7 3-.5 1.8-.5 4.3 0 3.7 1.6 6.8 0 .8.3 2.2-1.2.2-2 1.2-1 1-1 2.2 0 1.5 1 2.5 1.1 1 2.5 1h.4l.9-.1v.3l.4 1.5q3.4 4.2 7.6 5.5v2.5l-2.8 2.8-10.3 4.1-2 1-.1.2-.8.6h-.2l-1.4 1.4v.2l-.6.8-.2.2-.3.7-.2.3-.7 1.7-.3 1v1l-.2.2v1l.2.1h46.2v-.2q0-3.3-1.9-6.1-1.8-2.8-5-4.2l-9.7-4-2.7-2.8v-2.5q5.8-1.7 8-7.4l1.2.2q1.5 0 2.5-1t1-2.5q0-1.4-1-2.4t-2.5-1h-.2v-.3q2.8-4 2.8-8.7 0-6.3-4.5-10.8-4.4-4.5-10.8-4.5h-.3l-.6-.1-.7-.2h-.2l-1-.2-.8-.1h-1.3q-2.6 0-4.8.7h-.1q-4.8 1.7-7.6 5.8m93.7 9.4q0-6.3-4.4-10.8-4.5-4.5-10.8-4.5h-.3l-1.3-.3h-.1l-1-.2h-.2l-.7-.1H679q-2.6 0-5 .7-4.6 1.7-7.5 5.8-.5.6-.4 1.4l.4.7q1.1 1.7 2.7 3-.7 2.1-.7 4.3 0 3.7 1.7 6.8l.3 2.2q-1.2.2-2 1.2-.9 1-.9 2.2 0 1.5 1 2.5t2.5 1h.3l.8-.1.2.3.3 1.5q3.4 4.3 7.6 5.5v2.5l-2.7 2.8-11.4 4.5-1.9 1.4h-.1l-.7.6-.2.3-.5.5-.1.2-.6.8-.2.2-.4.7v.3l-.5.9-.6 2.1-.1.7v1.3h46.4v-.2q0-3.3-2-6.1-1.7-2.8-4.9-4.2l-9.8-4-2.8-2.8v-2.5q6-1.8 8.2-7.4l1.2.2q1.4 0 2.4-1t1-2.5q0-1.4-1-2.4t-2.4-1h-.3v-.3q2.7-3.9 2.7-8.7"/><path fill="#C25B5B" d="M-30.5 279.3q-.6 2-.6 4.2 0 3.6 1.6 6.6l.3 2.2q-1.2.1-2 1-.8 1-.8 2.2 0 1.4 1 2.4t2.3 1h1.2v.2l.4 1.5q3.2 4 7.4 5.3v2.4l-2.7 2.7-11 4.4-.9.6h-.2l-.8.7-.7.7-.2.2-.5.6-.1.1-.7.8v.2l-.6.9-1 3V324l-.1 1h45v-.2q0-3.2-1.8-6-1.7-2.7-4.8-4l-9.5-3.9-2.7-2.7v-2.5q5.6-1.6 8-7h1q1.4 0 2.5-.9 1-1 1-2.4 0-1.3-1-2.4-1-1-2.4-1h-.4v-.2q2.8-3.6 2.8-8.4 0-6.1-4.4-10.5-4.3-4.3-10.4-4.3h-.3l-.4-.2h-.2l-.9-.2-.8-.2h-1.2l-.9-.2q-2.2 0-4.8.8-4.5 1.6-7.3 5.6-.5.6-.4 1.4l.4.7q1 1.6 2.6 2.9m57 0q-.5 1.8-.5 4.2 0 3.6 1.6 6.6l.3 2.2q-1.2.1-2 1-.9 1-.9 2.2 0 1.4 1 2.4t2.4 1h1.2v.2l.4 1.5q3.3 4 7.4 5.3v2.4l-2.7 2.7-11 4.4-1 .7-.9.6-.1.1-1.5 1.5-.5.8-.2.2-.3.6-.2.3-.7 1.7v.3l-.2 1-.1.6v1.3h45v-.2q0-3.3-1.8-6-1.9-2.7-4.9-4l-9.5-3.9-2.7-2.7v-2.5q5.7-1.6 7.9-7H53q1.4 0 2.5-.9 1-1 1-2.4 0-1.3-1-2.4-1-1-2.5-1h-.2v-.2q2.7-3.9 2.7-8.4 0-6.1-4.3-10.5-4.4-4.3-10.5-4.3h-.3l-.4-.2H40l-.7-.2H39l-.9-.2H38l-2-.2q-2 0-4.6.8-4.6 1.6-7.5 5.6-.4.7-.2 1.4 0 .4.2.7 1.2 1.6 2.7 2.9m65.7 0q-.6 2-.6 4.2 0 3.2 1.6 6.6l.4 2.2q-1.3.1-2 1-.9 1-.9 2.2 0 1.4 1 2.4t2.4 1h1.1l.1.2.4 1.5q3.2 4 7.3 5.3v2.4l-2.6 2.7-11 4.4-1 .7-.9.6-.1.1-1.4 1.4v.1l-.6.8-.2.2-.4.6-.8 2-.2 1v.2l-.2.7v1.2h45v-.1q0-3.2-1.8-6-1.8-2.7-4.8-4l-9.5-3.9-2.8-2.7v-2.5q5.8-1.6 8-7h1q1.4 0 2.5-.9 1-1 1-2.4 0-1.3-1-2.4-1-1-2.4-1h-.3v-.2q2.7-3.7 2.7-8.4 0-6.2-4.3-10.5t-10.5-4.3h-.3l-.3-.2h-.2l-.7-.2h-.2l-.9-.2h-1.2l-.9-.2q-2.3 0-4.7.8-4.7 1.6-7.4 5.6-.4.8-.3 1.4l.3.7q1.1 1.6 2.6 2.9m127.8 0q-.6 1.8-.6 4.2 0 3.6 1.6 6.6l.3 2.2q-1.2.1-2 1-.9 1-.9 2.2 0 1.4 1 2.4t2.5 1h1.1v.2l.4 1.5q3.3 4 7.4 5.3v2.4l-2.7 2.7-11 4.4-.8.6h-.3l-.8.7-.1.1-1.5 1.5-.5.8-.1.2-.6.9-.6 1.7-.3 1.2-.1.7v1.3h45v-.2q0-3.3-1.8-6-1.9-2.7-4.8-4l-9.6-3.9-2.7-2.7v-2.5q5.7-1.6 7.9-7h1.2q1.3 0 2.4-.9 1-1 1-2.4 0-1.3-1-2.4-1-1-2.4-1h-.3v-.2q2.7-3.9 2.7-8.4 0-6.1-4.3-10.5-4.4-4.3-10.5-4.3h-.3l-.4-.2h-.2l-.9-.2-.9-.2h-.1l-2-.2q-2 0-4.6.8-4.6 1.6-7.5 5.6-.4.7-.2 1.4l.2.7q1.2 1.6 2.7 2.9"/><path fill="#3B6F84" d="M363.3 283.6q0-6.2-4.4-10.8-4.5-4.4-10.8-4.4h-.3l-.3-.2h-.2l-.8-.2h-.2l-.9-.2h-1.2l-.9-.2q-2.4 0-4.9.9-4.7 1.6-7.6 5.7-.5.6-.4 1.4l.4.8q1.1 1.6 2.7 3-.7 2-.7 4.2 0 3.4 1.7 6.9l.3 2.2q-1.2.2-2 1.1-.9 1-.9 2.3 0 1.4 1 2.4t2.5 1h1.1l.2.2.3 1.6q3.4 4.2 7.6 5.5v2.4l-2.7 2.9-11.4 4.5-.9.6h-.2l-.8.7h-.1l-.7.7-.2.2-.5.6-.1.1-.6.9-.2.1-.4.7-.5 1.2-.6 2-.1.8v1.3H371v-.2q0-3.3-2-6-1.7-2.9-4.9-4.2l-9.8-4-2.8-2.9v-2.5q6-1.7 8.2-7.3l1.1.1q1.4 0 2.5-1 1-1 1-2.4t-1-2.5q-1-1-2.5-1h-.2v-.2q2.7-4 2.7-8.8m33.9-4.3q-.6 2.3-.6 4.3 0 3.7 1.6 6.9l.4 2.2q-1.3.2-2.1 1.1-.8 1-.8 2.3 0 1.4 1 2.4t2.4 1h1.2v.2l.4 1.6q3.4 4.2 7.7 5.5v2.4l-2.8 2.9-11.3 4.5-1 .6h-.2l-1.5 1.4-.2.2-.7.7-.6.9-.1.1-.6 1-.6 1.8-.3 1v.2l-.2.7v1.3h46.4v-.2q0-3.4-1.9-6-1.9-2.9-4.9-4.2l-9.8-4-2.8-2.9v-2.5q5.8-1.7 8-7.3l1.3.1q1.4 0 2.5-1 1-1 1-2.4t-1-2.5q-1.1-1-2.5-1h-.3v-.2q2.8-3.8 2.8-8.8 0-6.2-4.5-10.8-4.4-4.4-10.8-4.4h-.2l-.4-.2h-.3l-.9-.2-.8-.2H408l-1-.2q-2.3 0-4.9.9-4.7 1.6-7.6 5.7-.5.6-.3 1.4 0 .3.3.8 1.1 1.5 2.7 3m186.9 0q-.7 2-.7 4.2 0 3.7 1.7 6.9l.3 2.2q-1.2.2-2 1.1-.9 1-.9 2.3 0 1.4 1 2.4t2.5 1h1.2l.4 1.8q3.2 4.2 7.6 5.5v2.4l-2.8 2.9-11.3 4.5-.9.6h-.2l-.9.7-.7.7-.2.2-.6.6v.1l-.7.9v.1l-.7 1-1 3v1l-.1 1h46.5v-.2q0-3.3-2-6-1.7-2.9-4.9-4.2l-9.8-4-2.8-2.9v-2.5q5.8-1.7 8.2-7.3l1.1.1q1.4 0 2.5-1 1-1 1-2.4t-1-2.5q-1-1-2.5-1h-.3v-.2q2.8-3.8 2.8-8.8 0-6.2-4.4-10.8-4.5-4.4-10.8-4.4h-.3l-.4-.2h-.2l-1.8-.4h-1.2l-1-.2q-2.2 0-4.9.9-4.7 1.6-7.5 5.7-.5.6-.4 1.4l.4.8q1.1 1.6 2.7 3m61 0q-.5 1.8-.5 4.2 0 3.7 1.6 6.9l.3 2.2q-1.2.2-2 1.1-1 1-1 2.3 0 1.4 1 2.4 1.1 1 2.5 1h1.3v.2l.4 1.6q3.4 4.2 7.7 5.5v2.4l-2.8 2.9-11.3 4.5-1 .6h-.2l-.8.7h-.2l-1.5 1.6-.5.9-.2.1-.3.7-.2.2-.4 1-.6 2v.8l-.2.3v1h46.4v-.2q0-3.4-1.8-6-1.9-2.9-5-4.2l-9.8-4-2.7-2.9v-2.5q5.8-1.7 8-7.3l1.3.1q1.4 0 2.5-1 1-1 1-2.4t-1-2.5q-1.1-1-2.5-1h-.3v-.2q2.8-4 2.8-8.8 0-6.2-4.5-10.8-4.4-4.4-10.8-4.4h-.2l-.4-.2h-.3l-.7-.2h-.2l-.9-.2h-.2l-2-.2q-2.2 0-4.8.9-4.7 1.5-7.7 5.7-.4.7-.2 1.4l.2.8q1.3 1.6 2.7 3m70.9-11.7h-1.2q-2.3 0-4.9.8-4.7 1.5-7.7 5.7-.4.7-.2 1.4l.2.8q1.3 1.6 2.8 3-.6 1.7-.6 4.2 0 3.7 1.6 6.9l.4 2.2q-1.3.2-2.1 1.1-1 1-1 2.3 0 1.4 1 2.4 1.1 1 2.5 1h1.3v.2l.4 1.6q3.4 4.2 7.7 5.5v2.4l-2.8 2.9-11.3 4.5-.3.1-.9.5-.8.7h-.2l-1.5 1.6-.5.9-.2.1-.3.7-.2.2-.7 1.9-.1.3-.1.6v.3l-.2.7v1.3h46.3v-.2q0-3.4-1.8-6-1.9-2.9-5-4.2l-9.8-4-2.7-2.9v-2.5q5.8-1.7 8-7.3l1.2.1q1.5 0 2.5-1t1-2.4-1-2.5q-1-1-2.5-1h-.2v-.2q2.8-4 2.8-8.8 0-6.2-4.5-10.8-4.4-4.4-10.8-4.4h-.2l-.4-.2h-.3l-.7-.2h-.2l-.9-.2H716"/><path fill="#6BAEDB" d="M566.5 221.8q0-14.7-11-25.2-10.8-10.5-25.7-10.5h-24.2q-14.8 0-25.2 10.5t-10.5 25.2v12.6h96.6v-12.6"/><path fill="none" stroke="#19344F" stroke-width="2.5" stroke-linecap="round" stroke-linejoin="round" d="M555.5 196.6q11 10.5 11 25.2v12.6h-96.6v-12.6q0-14.8 10.5-25.2t25.2-10.5m49.9 10.5Q544.7 186 529.8 186"/><path fill="#EAB091" stroke="#19344F" stroke-width="2.5" stroke-linecap="round" stroke-linejoin="round" d="M531 177.9l-28.1.3 9 26 5.6 13.6 13.5-40"/><path fill="#FFF" stroke="#19344F" stroke-width="2.5" stroke-linecap="round" stroke-linejoin="round" d="M517.5 217.8L524 199q-6.8 3.7-11.1 2.2-1.3-.4-2.2-1.3l-.7-.9 7.5 18.8"/><path fill="none" stroke="#19344F" stroke-width="2.5" stroke-linecap="round" stroke-linejoin="round" d="M517.5 234.4v-16.6"/><path fill="#E4C387" d="M468.3 126.5q-6.2 27.4.6 45 6.8 17.7 23.6 17.7-.4-1.7-.6-3.7-.3-4.1.7-6l52.5-2.2q-2.8 11.3-2.3 10.7l2.3-.7q3-1.1 6-2.9 9.6-5.7 16.4-16.2 10.7-16.4-4.2-60.6-1.6-4.9-5.3-5.8l-3.4.1q-1.5-4.5-6-9.2-8.9-9.6-23.2-10.9-19.5-1.8-34.1 7.9-17.3 11.5-23 36.8"/><path fill="none" stroke="#17344F" stroke-width="2.5" stroke-linecap="round" stroke-linejoin="round" d="M468.9 171.6q-6.8-17.7-.6-45.1 5.7-25.3 23-36.8 14.6-9.7 34-7.9 14.4 1.3 23.3 10.9 4.5 4.7 6 9.2l3.4-.1q3.7.9 5.3 5.8 14.9 44.2 4.2 60.6-6.8 10.5-16.4 16.2-3 1.8-6 2.9l-2.3.7q-.5.6 2.3-10.7m-76.2-5.7q6.8 17.6 23.6 17.6-.4-1.7-.6-3.7-.3-4.1.7-6"/><path fill="#E9AF90" stroke="#17344F" stroke-width="2.5" stroke-linecap="round" stroke-linejoin="round" d="M494 157.5q-.3-4.5-3.8-7.4-3.5-2.9-8-2.5-4.5.4-7.4 3.9-3 3.4-2.5 8 .4 4.5 3.9 7.4 3.4 2.9 7.9 2.5 4.5-.4 7.4-4 2.9-3.4 2.5-7.9m69-.3q-.4-4.5-4-7.4-3.4-3-8-2.5-4.4.4-7.3 3.9-3 3.4-2.5 7.9.4 4.5 3.9 7.4 3.4 2.9 7.9 2.5 4.6-.3 7.5-3.8 2.9-3.5 2.5-8"/><path fill="#E9AF90" stroke="#17344F" stroke-width="2.5" stroke-linecap="round" stroke-linejoin="round" d="M478.2 135.4l3.6 21.7q1.3 14 12 23 10.9 9.1 24.9 7.9l4.7-.5q14-1.2 23-12t7.9-24.9l-.3-22q-1-11-8-17.4-6.8-6.3-17.4-6.9-6.8-.8-10.5-.5l-9-.3q-14-1.9-23.2 8-9 9.6-7.7 23.9"/><path fill="#D5A083" d="M489.2 138.9q-3.5.7-6.8.8l-2.6-.1.6 4.6q15.5 6.2 41.8-12.5 13.1-9.4 23.1-20.1l-7-4.2q-5.5 1.3-13 6.9-5.8 4.4-17 14.7-8.1 7.6-19.1 9.9"/><path fill="#E4C387" d="M471.5 133.5l2.6 2.2q3.5 2.3 7.6 3.2 13.2 2.5 28.1-11.4 14.9-14 25.3-20.5 5.2-3.2 7.4-3.7l17.6 5.2-3.6-1.6q-16.6-7.3-24.3-9.8-2.7-1-3.6-.8l-8.8-1.5q-9-1.4-10-1.1-1.5.5-21.7 0l-16.6 39.8"/><path fill="none" stroke="#17344F" stroke-width="2.5" stroke-linecap="round" stroke-linejoin="round" d="M487.8 139.4q-6.1.4-12.4-1.8m12.4 1.8q6.4-.3 12-3.5 2.6-1.5 11-9.4 9.7-9.1 15-13 19.9-15.1 27.9-1.3"/><path fill="#E9AF90" d="M533.5 182.3h-32.6q0 3.4 4.8 5.9 4.8 2.4 11.5 2.4 6.8 0 11.6-2.4 4.7-2.5 4.7-6"/><path fill="none" stroke="#17344F" stroke-width="2.5" stroke-linecap="round" stroke-linejoin="round" d="M505.7 188.2q-4.8-2.5-4.8-6m4.8 6q4.8 2.4 11.5 2.4 6.8 0 11.6-2.4 4.7-2.5 4.7-6"/><path fill="#E4C387" d="M472.6 110q-9.9 11.5-15.5 11.5 6.5 5 8.6 5.8 6.6 2.6 17.9.4l-2.2-29.2q-3.8 5.8-8.8 11.5"/><path fill="none" stroke="#17344F" stroke-width="2.5" stroke-linecap="round" stroke-linejoin="round" d="M472.6 110q-9.9 11.5-15.5 11.5 6.5 5 8.6 5.8 6.6 2.6 17.9.4m-11-17.7q5-5.7 8.8-11.5"/><path fill="#F0A874" d="M498.4 161.6q7.6-2.4 11.8-7l-18.6 8.6 6.8-1.6"/><path fill="none" stroke="#19344F" stroke-width="2.5" stroke-linecap="round" stroke-linejoin="round" d="M498.4 161.6q7.6-2.4 11.8-7m-11.8 7l-6.8 1.6"/><path fill="#F0A874" d="M523.8 154.5q4.2 4.5 11.5 7 3.6 1.3 6.4 1.7l-17.9-8.7"/><path fill="none" stroke="#19344F" stroke-width="2.5" stroke-linecap="round" stroke-linejoin="round" d="M535.3 161.5q-7.3-2.5-11.5-7m11.5 7q3.6 1.3 6.4 1.7"/><path fill="none" stroke="#17344F" stroke-width="2.5" stroke-linecap="round" stroke-linejoin="round" d="M494.3 148h10.2m24.4 0H539"/><path fill="#17344F" d="M501.8 144.4q0-1-.7-1.7-.8-.7-1.8-.7t-1.7.7q-.7.7-.7 1.7t.7 1.8q.7.7 1.7.7t1.8-.7q.7-.8.7-1.8"/><path fill="#FFF" stroke="#17344F" stroke-width="2.5" stroke-linecap="round" stroke-linejoin="round" d="M481.7 168.9q0-2-1.3-3.3-1.4-1.4-3.4-1.4-1.9 0-3.3 1.4-1.3 1.4-1.3 3.3t1.3 3.3q1.4 1.4 3.3 1.4 2 0 3.4-1.4 1.3-1.4 1.3-3.3m82.6 0q0-2-1.4-3.3-1.4-1.4-3.3-1.4-2 0-3.3 1.4-1.4 1.4-1.4 3.3t1.4 3.3q1.4 1.4 3.3 1.4t3.3-1.4q1.4-1.4 1.4-3.3"/><path fill="#17344F" d="M534.2 142.5q-1.1 0-1.8.7-.7.8-.7 1.8t.7 1.7q.7.7 1.8.7 1 0 1.7-.7t.7-1.7-.7-1.8q-.7-.7-1.7-.7"/><path fill="none" stroke="#17344F" stroke-width="2.5" stroke-linecap="round" stroke-linejoin="round" d="M505.2 140.9l-12.4 2.4m35.4-2.4l12.4 2.4"/><path fill="#FFF" d="M510 181.6l13.7.2q-4.7-2.1-9.6-1.4l-4.1 1.2"/><path fill="none" stroke="#17344F" stroke-width="2.5" stroke-linecap="round" stroke-linejoin="round" d="M514 180.4q5-.7 9.7 1.4m-9.6-1.4l-4.1 1.2"/><path fill="#FFF" stroke="#19344F" stroke-width="2.5" stroke-linecap="round" stroke-linejoin="round" d="M528.8 163.6h-24.3q0 5 3.5 8.6 3.6 3.5 8.6 3.5t8.7-3.5q3.5-3.6 3.5-8.6"/><path fill="none" stroke="#19344F" stroke-width="2.5" stroke-linecap="round" stroke-linejoin="round" d="M511.6 133l3.6 2.6"/><path fill="#43566B" d="M184.8 172h-35.5l-29.5 11.8q-9 3.6-14.5 11.6-5.4 8-5.4 17.8v49.7h132.3v-50.1q0-9.5-5.3-17.5t-14.1-11.6l-28-11.7"/><path fill="none" stroke="#1A344F" stroke-width="2.5" stroke-linecap="round" stroke-linejoin="round" d="M184.8 172h-35.5l-29.5 11.8q-9 3.6-14.5 11.6-5.4 8-5.4 17.8v49.7m84.9-90.9l28 11.7q8.8 3.7 14 11.6 5.4 8 5.4 17.5v50"/><path fill="#FFF" d="M157.2 164.1l-8 7.9v90.9h35.6V172l-7.9-7.9h-19.7"/><path fill="none" stroke="#1A344F" stroke-width="2.5" stroke-linecap="round" stroke-linejoin="round" d="M157.2 164.1l-8 7.9v90.9m8-98.8h19.7l7.9 7.9v90.9"/><path fill="#EAB091" d="M157.2 154.2v9.9q0 4.1 2.9 7 2.8 2.9 6.9 2.9t7-3q2.9-2.8 2.9-6.9v-9.9h-19.7"/><path fill="none" stroke="#1A344F" stroke-width="2.5" stroke-linecap="round" stroke-linejoin="round" d="M157.2 154.2v9.9q0 4.1 2.9 7 2.8 2.9 6.9 2.9t7-3q2.9-2.8 2.9-6.9v-9.9h-19.7"/><path fill="none" stroke="#1A344F" stroke-width="2.5" stroke-linecap="round" stroke-linejoin="round" d="M157.2 154.2v9.9q0 4.1 2.9 7 2.8 2.9 6.9 2.9t7-3q2.9-2.8 2.9-6.9v-9.9h-19.7"/><path fill="none" stroke="#1A344F" stroke-width="2.5" stroke-linecap="round" stroke-linejoin="round" d="M157.2 154.2v9.9q0 4.1 2.9 7 2.8 2.9 6.9 2.9t7-3q2.9-2.8 2.9-6.9v-9.9h-19.7"/><path fill="#E55A3E" d="M173 179.9l-2-6h-8l-1.9 6 4 5.9h3.9l4-5.9"/><path fill="#E66C6C" stroke="#1A344F" stroke-width="2.5" stroke-linecap="round" stroke-linejoin="round" d="M173 179.9l-2-6h-8l-1.9 6 4 5.9h3.9l4-5.9"/><path fill="#E55A3E" d="M169 185.8h-4l-3.9 57.3 5.9 5.9 6-5.9-4-57.3"/><path fill="#E66C6C" stroke="#1A344F" stroke-width="2.5" stroke-linecap="round" stroke-linejoin="round" d="M169 185.8h-4l-3.9 57.3 5.9 5.9 6-5.9-4-57.3"/><path fill="none" stroke="#1A344F" stroke-width="2.5" stroke-linecap="round" stroke-linejoin="round" d="M212.4 262.9v-41.5m-92.8 41.5v-41.5m9.9-11.9l11.9 41.5m-11.9-41.5l7.9-4-7.9-7.8 7.9-9.9m59.2 17.8l7.9 3.9-11.8 41.5m3.9-45.4l7.9-8-7.9-9.8"/><path fill="#FAE5C4" stroke="#19344F" stroke-width="2.5" stroke-linecap="round" stroke-linejoin="round" d="M136 113.6l-1.3-13.3-10.7-2.8-1.1 6.3q-1.1 7.9-1.3 15.9-.6 25.5 8.4 41.8t7.7-20.8q-.4-11.6-1.7-27.1"/><path fill="#F0A874" stroke="#19344F" stroke-width="2.5" stroke-linecap="round" stroke-linejoin="round" d="M197.8 140q-3.6 3.2-3.8 8-.3 4.9 2.9 8.5 3.2 3.6 8 3.8 4.9.3 8.5-3 3.6-3.1 3.9-8 .2-4.8-3-8.4-3.2-3.6-8-3.9-4.9-.2-8.5 3m-73.5 1.2q-3.6 3.2-3.9 8-.2 4.8 3 8.4 3.2 3.6 8 3.9 4.8.3 8.4-3 3.7-3.2 3.9-8 .3-4.8-3-8.4-3.1-3.6-8-3.9-4.8-.2-8.4 3"/><path fill="#F0A874" stroke="#19344F" stroke-width="2.5" stroke-linecap="round" stroke-linejoin="round" d="M166.8 95.8q-16.8-.9-26 3.9-11 5.7-11.8 19.7l.5 23.4q-1.1 18.8 1.5 26.2 3.8 11.3 17.3 12l35.8.4q13.6.7 18.6-9.2 3.3-6.7 4.3-25.1l3.1-23.2q2.4-43.3-21.3-39.4l-22 11.3"/><path fill="#EEB770" stroke="#19344F" stroke-width="2.5" stroke-linecap="round" stroke-linejoin="round" d="M118 74.8q-.6 17.3 11.7 28 11 9.8 26.7 9.8 11.9-.1 31.8-7.3 9.9-3.6 17.4-7.2l2.8 39.3 1.6.3q1.8 0 2.3-1.2 3.3-7.7-1-46.6-.4-5.1-4.4-8.4-4-3.4-9.2-3.2l-26.5 1-5.8-6.1-47.3 1.6"/><path fill="#CB9D57" d="M185.4 105.7l17-7.5-13.7-18.8-20.2.9 16.9 25.4"/><path fill="none" stroke="#19344F" stroke-width="2.5" stroke-linecap="round" stroke-linejoin="round" d="M124.3 69.1l1.5 3.5q2.3 4.2 5.5 7.5 10.3 10.8 26.6 9.5m-7.6-5.5q1.8.4 3.8.6"/><path fill="none" stroke="#19344F" stroke-width="2.5" stroke-linecap="round" stroke-linejoin="round" d="M127.6 63l.8 2.4q1.3 2.9 3 5.5 5.8 8.6 15 12"/><path fill="#C99265" d="M129 119.4l1 42.1 3.3 12.3 10.4 6.7 10.4-.5q-13.8-5.2-20.8-33.4-2.2-8.8-3.5-19l-.8-8.2"/><path fill="none" stroke="#19344F" stroke-width="2.5" stroke-linecap="round" stroke-linejoin="round" d="M129.5 142.8q-1.1 18.8 1.5 26.2 3.8 11.3 17.3 12l35.8.4q13.6.7 18.6-9.2 3.3-6.7 4.3-25.1m-77.5-4.3l-.5-23.4"/><path fill="#F0A874" d="M176.9 182.1q4.3-2.2 4.3-5.3h-29.5q0 3 4.3 5.3 4.3 2.2 10.5 2.2 6 0 10.4-2.2"/><path fill="none" stroke="#19344F" stroke-width="2.5" stroke-linecap="round" stroke-linejoin="round" d="M181.2 176.8q0 3-4.3 5.3-4.3 2.2-10.4 2.2-6.2 0-10.5-2.2t-4.3-5.3"/><path fill="#EEB770" d="M178.9 108.4l13.2-4.6-10-19.4q-2.7-5.2-7.7-8.2-5-3-10.8-3l15.3 35.2"/><path fill="none" stroke="#19344F" stroke-width="2.5" stroke-linecap="round" stroke-linejoin="round" d="M192.1 103.8l-13.2 4.6m13.2-4.6l-10-19.4q-2.7-5.2-7.7-8.2-5-3-10.8-3m-41 83.5q2.4 3.3 6.3 4.4m-6.3-4.4q-2.4-3.4-2.2-7.5.2-3.8 2.7-6.7 2.3-2.9 5.9-3.9m31.9 12.8h14.6m-23.5-2.6q-7 6.5-7 13.4m7-13.4q3.5-3.3 7-5.2m26.8 5.2q7 6.5 7 13.4m-7-13.4q-2.2-2.1-4.8-3.8l-2.2-1.4M145 130.5q-.9.8-.9 2m.9-2q.8-1 2-1l13.9 1m32.4 0q.9.8.9 2m-.9-2q-.8-1-2.1-1l-13.8 1m-34.6-11.1q-2.1 0-3.5 1.5-1.5 1.4-1.5 3.5m5-5h3.9q3.5 0 6.8 1.4t5.8 3.9l1.2 1.1 3.9-4m29.8-2.4q2 0 3.4 1.5 1.5 1.4 1.5 3.5m-5-5h-3.8q-3.6 0-6.9 1.4-3.3 1.4-5.8 3.9l-1.1 1.1-4-4m-8.7 39.7q1.8-1.3 4.4-.4 4.1 1.5 4.3 2m-8.7-1.6l-1.4 1.6m7 5.7q-2.6 1.9-5-.5m5 .5q1.4-1 2.3-2.4m182.9 217H365"/><path fill="#7BB1DF" stroke="#384861" stroke-width="2.5" stroke-linecap="round" stroke-linejoin="round" d="M243.2 218.5H92.1v165h151.1v-165"/><path fill="none" stroke="#19344F" stroke-width="2.5" stroke-linecap="round" stroke-linejoin="round" d="M92 274.2h151.2"/><path fill="#FFF" stroke="#384861" stroke-width="2.5" stroke-linecap="round" stroke-linejoin="round" d="M243.2 370.8V231.2H92.1v139.6h151.1"/><path fill="#FFF" stroke="#384861" stroke-width="2.5" stroke-linecap="round" stroke-linejoin="round" d="M225.7 326.6V272H108.3v54.6h117.4"/><path fill="#688FC7" stroke="#384861" stroke-width="2.5" stroke-linecap="round" stroke-linejoin="round" d="M151.9 272l-43.6-.9v31.8H151l.9-30.9"/><path fill="#E56B5B" stroke="#384861" stroke-width="2.5" stroke-linecap="round" stroke-linejoin="round" d="M108.3 308.7v6.3h117.4v-6.3H108.3m48.8-12v6.2h68.6v-6.2h-68.6m0-12v6.2h68.6v-6.2h-68.6m0-12.1v6.3h68.6v-6.3h-68.6m-48.8 47.7v6.3h117.4v-6.3H108.3"/><path fill="#E8F1F9" d="M238 231.2v-8.3H98.9v35.4l139-27.1"/><path fill="none" stroke="#19344F" stroke-width="2.5" stroke-linecap="round" stroke-linejoin="round" d="M49.4 383.5h266.8"/><path fill="#E56B5B" stroke="#384861" stroke-width="2.5" stroke-linecap="round" stroke-linejoin="round" d="M253.4 231.2v-16.6H74.9v16.6h178.5"/><path fill="none" stroke="#19344F" stroke-width="2.5" stroke-linecap="round" stroke-linejoin="round" d="M81 214.6v16.6m167.1-16.6v16.6m-156 146.4h151.1"/><path fill="#7BB1DF" stroke="#384861" stroke-width="2.5" stroke-linecap="round" stroke-linejoin="round" d="M588.1 383.5v-165H436.9v165h151.2"/><path fill="none" stroke="#19344F" stroke-width="2.5" stroke-linecap="round" stroke-linejoin="round" d="M436.9 274.2h151.2"/><path fill="#FFF" stroke="#384861" stroke-width="2.5" stroke-linecap="round" stroke-linejoin="round" d="M588.1 370.8V231.2H436.9v139.6h151.2"/><path fill="#E8F1F9" d="M582.9 231.2v-8.3h-139v35.3l139-27"/><path fill="none" stroke="#19344F" stroke-width="2.5" stroke-linecap="round" stroke-linejoin="round" d="M637.5 383.5h10.4m-253.6 0h226.6"/><path fill="#E56B5B" stroke="#384861" stroke-width="2.5" stroke-linecap="round" stroke-linejoin="round" d="M598.3 231.2v-16.6H419.8v16.6h178.5"/><path fill="none" stroke="#19344F" stroke-width="2.5" stroke-linecap="round" stroke-linejoin="round" d="M426 214.6v16.6m167-16.6v16.6M436.9 377.6h151.2"/><path fill="#FFF" stroke="#384861" stroke-width="2.5" stroke-linecap="round" stroke-linejoin="round" d="M572.6 326.6V272H455.3v54.6h117.3"/><path fill="#688FC7" stroke="#384861" stroke-width="2.5" stroke-linecap="round" stroke-linejoin="round" d="M497.9 302.9l.9-30.9-43.5-.9-.1 31.8h42.7"/><path fill="#E56B5B" stroke="#384861" stroke-width="2.5" stroke-linecap="round" stroke-linejoin="round" d="M455.2 308.7v6.3h117.4v-6.3H455.2m117.4-5.8v-6.2H504v6.2h68.6m0-12v-6.2H504v6.2h68.6m0-12v-6.3H504v6.3h68.6m-117.3 41.4v6.3h117.3v-6.3H455.3"/><g><g transform="matrix(.036 0 0 .078 244.8 113.2)"><animateTransform attributeName="transform" additive="replace" type="translate" repeatCount="indefinite" dur="4.95s" keyTimes="0;0.01;0.02;0.03;0.04;0.051;0.061;0.071;0.081;0.091;0.101;0.111;0.121;0.131;0.141;0.293;0.303;0.313;0.323;0.333;0.343;0.354;0.364;0.374;0.384;0.394;0.404;1" values="241.249,112.65;241.252,112.693;241.238,112.649;241.256,112.648;241.236,112.651;241.226,112.627;241.256,112.654;241.264,112.629;241.227,112.651;241.335,112.651;241.284,112.701;241.29,112.701;241.245,112.701;241.247,112.651;241.201,112.651;241.201,112.651;241.176,112.615;241.202,112.628;241.229,112.644;241.252,112.658;241.224,112.676;241.253,112.637;241.227,112.651;241.285,112.734;241.268,112.634;241.255,112.653;241.2,112.65;241.2,112.65" calcMode="discrete"/><animateTransform attributeName="transform" additive="sum" type="scale" repeatCount="indefinite" dur="4.95s" keyTimes="0;0.01;0.02;0.03;0.04;0.051;0.061;0.071;0.081;0.091;0.101;0.111;0.121;0.131;0.141;0.293;0.303;0.313;0.323;0.333;0.343;0.354;0.364;0.374;0.384;0.394;0.404;1" values="0.036,0.078;0.169,0.206;0.302,0.334;0.435,0.461;0.568,0.589;0.701,0.717;0.834,0.845;0.967,0.972;1.1,1.1;1.083,1.083;1.067,1.067;1.05,1.05;1.033,1.033;1.017,1.017;1,1;1,1;1.014,1.014;1.029,1.029;1.043,1.043;1.057,1.057;1.071,1.071;1.086,1.086;1.1,1.1;0.826,0.826;0.551,0.553;0.277,0.279;0.003,0.005;0.003,0.005" calcMode="discrete"/><animateTransform attributeName="transform" additive="sum" type="translate" repeatCount="indefinite" dur="4.95s" keyTimes="0;0.01;0.02;0.03;0.04;0.051;0.061;0.071;0.081;0.091;0.101;0.111;0.121;0.131;0.141;0.293;0.303;0.313;0.323;0.333;0.343;0.354;0.364;0.374;0.384;0.394;0.404;1" values="97.349,6.399;97.349,6.349;97.399,6.449;97.349,6.399;97.299,6.449;97.399,6.449;97.299,6.449;97.299,6.399;96.249,5.999;96.199,5.999;96.249,5.999;96.249,5.999;96.199,5.999;96.199,5.999;96.249,5.999;96.249,5.999;96.249,6.049;96.249,6.049;96.199,5.999;96.249,5.999;96.299,5.949;96.249,5.999;96.249,5.999;96.249,5.949;96.199,5.999;96.049,5.899;99.299,9.099;99.299,9.099" calcMode="discrete"/><path fill="#FFF" stroke="#19344F" stroke-width="2.5" stroke-linecap="round" stroke-linejoin="round" d="M99.1 45.6v-91H-76.7V-22L-99-5.7h22.3v51.3H99"/><path fill="#19344F" d="M71.3 13.6H68l.5 16.3h2.4l.4-16.3m-5.6 0h-3V26l-3.4-12.6h-4.1v21h3V19.3l4 15.2h3.5v-21m-12.9 0h-3.3v21h3.3v-21m-8.7 17.3l.6 3.7H48l-3.4-21h-4.8l-3.4 21h3l.6-3.8h4.1m-.5-2.8h-3.2L42 17.2 43.6 28M68 31.4v3.2h3.2v-3.2H68m-39.3-13q0-1.1.5-1.6.4-.5 1.2-.5t1.3.5q.4.4.4 1.5v2.3h3.1v-2q0-2.5-1.3-4-1.1-1.3-3.6-1.3t-3.6 1.4q-1.3 1.4-1.3 3.9v10.9q0 2.2 1 3.5l.3.4q1.2 1.4 3.6 1.4t3.7-1.4l.3-.3q.9-1.4.9-3.6v-6.7h-4.6v3h1.5v4q0 1-.5 1.5-.4.5-1.2.4-.8.1-1.2-.4-.5-.5-.5-1.6V18.3M3.9 16.5h3.4v-3H-2.9v3H.6v18h3.3v-18m8.7 18h3l.6-3.8h4l.6 3.8h3.4l-3.4-21H16l-3.4 21m4-6.6l1.6-10.7L19.8 28h-3.2M-6.8 13.6h-4.8l-3.4 21h3l.7-3.9h4l.6 3.8h3.3l-3.4-21M-11 28l1.7-10.7L-7.8 28H-11M-16 16.6v-3h-9v21h9v-3h-5.7v-6.2h4.5v-3h-4.5v-5.8h5.7m-23.3 4v-2-.8q-.2-2-1.2-3.1-1.2-1.4-3.6-1.4t-3.7 1.4q-1 1.1-1.2 3.1V29.5q0 2.2.9 3.5l.3.4q1.2 1.4 3.6 1.4t3.7-1.4l.3-.3q1-1.4 1-3.6v-6.7H-44v3h1.5v4q0 1-.4 1.5-.5.5-1.3.4-.8.1-1.2-.4-.5-.5-.5-1.6V18.3v-.5q.2-.7.5-1 .4-.5 1.2-.5t1.3.4q.3.4.4 1.1v2.8h3.1m7.2-7h-5v21h3.3V26h1.1q1.1 0 1.7.6.5.6.5 2v4.7l.1.7.2.6h3.3l-.3-1.2V33 28.8q0-1.7-.5-2.8-.5-1.2-1.7-1.7 1.1-.5 1.6-1.6.5-1 .5-2.7v-1.6-.6q0-2-1.1-3-1.2-1.2-3.7-1.2m1.5 4.2l.1.9v2.1q0 1.2-.6 1.7-.5.5-1.4.5h-1.3v-6.4h1.6q.8 0 1.3.5.2.2.3.7M-51.9-25h-4.6v21h3v-14.8L-51.2-4h3.1l2.3-15v15h3.1v-21h-4.6l-2.2 15-2.5-15m45.4 0h-9v21h9v-3h-5.7V-13h4.5v-3h-4.5v-5.8h5.7v-3m-26.3 0h-4.8L-41-4h3l.6-3.8h4l.6 3.8h3.3l-3.3-21M-37-10.6l1.6-10.7 1.6 10.7H-37m12.4-14.3H-28v21h3.2v-6.5l1-2 3.3 8.5h3.4l-4.6-11.7 4.5-9.3h-3.2l-4.4 9.1v-9.1m62.3 0h-9v21h9v-3h-5.7v-6.2h4.5v-3h-4.5v-5.8h5.7v-3m-11.4 0h-4.6l-2.3 14.8L17-24.9h-4.6v21h2.9v-14.9L17.7-4h3.1l2.3-15v15h3.1v-21M7.5-25H2.7L-.7-4h3l.6-3.7h4L7.5-4h3.4L7.4-25M3.3-10.6l1.6-10.7 1.6 10.7H3.3m36.4-14.3v21h3.2v-8.6h1.2q1.1 0 1.6.6t.5 2v3.3l.1 1.4.1.7.1.5H50q-.3-.5-.3-1.2v-4.6q0-1.6-.6-2.8-.4-1.1-1.7-1.6 1.1-.6 1.7-1.6.2-.3.2-.7.3-.9.3-2v-1.6q0-2.5-1.2-3.6-1.1-1.3-3.7-1.3h-5m6.6 5.2v2.1q0 .7-.2 1.2l-.3.5q-.6.5-1.5.5H43v-6.4h1.6q.9 0 1.3.5t.4 1.6m30.1-5.1h-4.8L68.1-4h3l.7-3.8h4l.6 3.8h3.3l-3.4-21m-4.2 14.3l1.6-10.7 1.6 10.7h-3.2M55-24.9h-3.3v21H55v-21m3.4 1q-1.3 1.4-1.3 4V-9q0 2.5 1.3 3.9 1.2 1.4 3.6 1.4t3.7-1.4q.8-.8 1-2Q67-8 67-9v-2.8h-3v3q0 1.2-.5 1.6-.5.5-1.3.5T61-7.3q-.5-.5-.5-1.6V-20q0-1.1.5-1.6t1.3-.5 1.2.5q.5.4.5 1.5v2.3h3v-2q0-1-.2-1.9-.3-1.2-1-2-1.2-1.4-3.6-1.4t-3.7 1.3"/></g><animate attributeName="display" repeatCount="indefinite" dur="4.95s" keyTimes="0;0.414;1" values="inline;none;none"/></g><g display="none"><g transform="matrix(.02 0 0 .02 452.5 168.8)"><animateTransform attributeName="transform" additive="replace" type="translate" repeatCount="indefinite" dur="4.95s" keyTimes="0;0.505;0.515;0.525;0.535;0.545;0.556;0.566;0.576;0.586;0.596;0.606;0.616;0.626;0.636;0.646;0.798;0.808;0.818;0.828;0.838;0.848;0.859;0.869;0.879;0.889;0.899;0.909;1" values="454.45,168.95;454.45,168.95;454.453,168.95;454.453,168.95;454.458,168.95;454.454,168.95;454.445,168.95;454.457,168.95;454.482,168.95;454.484,168.955;454.441,168.954;454.457,168.953;454.414,168.902;454.478,168.952;454.439,168.951;454.45,168.95;454.45,168.95;454.461,168.929;454.474,168.96;454.483,168.938;454.444,168.914;454.455,168.946;454.467,168.926;454.484,168.955;454.473,168.887;454.436,168.952;454.451,168.948;454.45,168.95;454.45,168.95" calcMode="discrete"/><animateTransform attributeName="transform" additive="sum" type="scale" repeatCount="indefinite" dur="4.95s" keyTimes="0;0.505;0.515;0.525;0.535;0.545;0.556;0.566;0.576;0.586;0.596;0.606;0.616;0.626;0.636;0.646;0.798;0.808;0.818;0.828;0.838;0.848;0.859;0.869;0.879;0.889;0.899;0.909;1" values="0.02,0.02;0.02,0.02;0.155,0.155;0.29,0.29;0.425,0.425;0.56,0.56;0.695,0.695;0.83,0.83;0.965,0.965;1.1,1.1;1.083,1.083;1.067,1.067;1.05,1.05;1.033,1.033;1.017,1.017;1,1;1,1;1.014,1.014;1.029,1.029;1.043,1.043;1.057,1.057;1.071,1.071;1.086,1.086;1.1,1.1;0.826,0.826;0.551,0.553;0.277,0.279;0.003,0.005;0.003,0.005" calcMode="discrete"/><animateTransform attributeName="transform" additive="sum" type="translate" repeatCount="indefinite" dur="4.95s" keyTimes="0;0.505;0.515;0.525;0.535;0.545;0.556;0.566;0.576;0.586;0.596;0.606;0.616;0.626;0.636;0.798;0.808;0.818;0.828;0.838;0.848;0.859;0.869;0.879;0.889;0.899;0.909;1" values="-97.55,-10;-97.55,-10;-97.45,-10;-97.6,-10;-97.55,-10;-97.6,-10;-97.55,-10;-97.6,-10;-97.6,-10;-95.35,-9.05;-95.3,-9.05;-95.35,-9.05;-95.3,-9.05;-95.35,-9.05;-95.3,-9.05;-95.3,-9.05;-95.3,-9;-95.35,-9.1;-95.3,-9.05;-95.3,-9;-95.3,-9.05;-95.3,-9.05;-95.35,-9.05;-95.35,-9;-95.3,-9.05;-95.35,-8.95;-99.3,-9.1;-99.3,-9.1" calcMode="discrete"/><path fill="#FFF" stroke="#19344F" stroke-width="2.5" stroke-linecap="round" stroke-linejoin="round" d="M-99-45.5v91H76.8V22L99.1 5.7H76.8v-51.2H-99"/><path fill="#19344F" d="M-75.4-40.6v21.1h5.3q4.9 0 4.9-5.2v-10.7q0-5.1-5-5.2h-5.2m3.3 3h1.9q1.6 0 1.7 2v11q0 2.3-1.7 2.1h-1.9v-15.1m18.5 2q0-5-5-5.2-4.9 0-5.1 5.3v11q0 5 5 5.2 5 0 5.1-5.2v-11m-3.3-.2v11.4q0 2.2-1.7 2-1.6 0-1.7-2v-11.4q0-2.3 1.7-2.1 1.6 0 1.7 2m8.5 1l4.1 15.3h3.4v-21.1h-3v12.7l-3.4-12.7h-4.1v21.1h3v-15.3m17.3-5.8h-4.8l-3.4 21.1h3l.6-3.8h4l.7 3.8h3.3l-3.4-21.1m-4.2 14.4l1.6-10.7 1.6 10.7h-3.2m8.9-14.4v21.1h8.8v-3h-5.5v-18.1h-3.3m10 0v21.1h5.2q5 0 5-5.2v-10.7q0-5.1-5-5.2h-5.2m5.2 3q1.6 0 1.6 2v11q0 2.3-1.6 2.1h-2v-15.1h2m10.8-3v3H3v18.1h3.3v-18.1h3.5v-3H-.4m21.9 6.5v-1.6q0-4.9-4.9-4.9h-5v21.1h3.3v-8.6h1.2q2.2 0 2.2 2.7v3.4q0 2.5.3 2.5h3.3q-.4-1.1-.3-2.5v-3.3q0-3.3-2.2-4.5 2.2-1 2.1-4.3m-5-3.5q1.8 0 1.7 2.2v2q0 2.6-2 2.3h-1.3v-6.5h1.6m10.3-3h-3.3v16.1q0 5 4.9 5.3 4.9 0 5-5.3v-16.1h-3.2v16.3q0 2.3-1.7 2-1.6 0-1.7-2v-16.3m22.7 0h-4.6l-2.3 15-2.4-15h-4.6v21.1h2.9v-15l2.5 15h3l2.4-15.1v15.1h3.1v-21.1m11.9 8v-2.8q0-5.1-5-5.2h-4.8v21.1h3.3v-7.9h1.6q4.9 0 4.9-5.2m-5-5q1.7 0 1.7 2v3.2q0 2.2-1.6 2h-1.6v-7.2h1.6M-76.2-5.4q0-5.1-5-5.2h-5.2v21.1h5.2q5 0 5-5.2V-5.4m-3.4 10.9q0 2.2-1.6 2h-2V-7.6h2q1.6 0 1.6 2v11m15-11q0-5-5.1-5.2-4.8 0-5 5.3v11q0 5 5 5.2 4.9 0 5-5.2v-11m-3.2 11.2q0 2.2-1.8 2-1.5 0-1.7-2V-5.7q0-2.3 1.7-2.1 1.6 0 1.8 2V5.8m8.8-7.4v-5.9h5.7v-3h-9v21.1h9v-3h-5.7V1.3h4.5v-3h-4.5M-47-7.8q1.6 0 1.7 2v.9h3.1v-.6q0-5.1-4.9-5.3-4.8 0-4.9 5.3 0 4.5 3.3 6.2 2.4 2.3 3.2 5 0 2.2-1.7 2-1.5 0-1.7-2V4.2H-52v1.3q0 5 5 5.2 4.9 0 5-5.2 0-4.6-3.3-6.3-2.4-2.2-3.2-5 0-2.2 1.6-2m14-2.8V2.1l-3.4-12.7h-4.2v21.1h3V-4.8l4.2 15.3h3.4v-21.1h-3m5.5 3.2h1.2l-.8 3h1.3l1.5-3.3v-2.9h-3.2v3.2m5-3.2v3h3.5v18.1h3.3V-7.6h3.5v-3h-10.3m22 0h-5v21.1h3.3V1.9H-1q2.3 0 2.2 2.7V8q0 2.5.3 2.5h3.4Q4.4 9.4 4.5 8V4.7q0-3.3-2.2-4.5 2.3-1 2.2-4.3v-1.6q0-4.9-5-4.9m0 3q1.8 0 1.7 2.2v2q0 2.6-2 2.3h-1.3v-6.5h1.6m14.9 8.9v-3H9.9v-5.9h5.7v-3h-9v21.1h9v-3H9.9V1.3h4.5m6-7q0-2.3 1.7-2.1 1.6 0 1.7 2v.9h3.1v-.6q0-5.1-4.9-5.3-4.8 0-4.9 5.3 0 4.5 3.3 6.2 2.4 2.3 3.2 5 0 2.2-1.7 2-1.5 0-1.7-2V4.2H17v1.3q0 5 5 5.2 4.9 0 5-5.2 0-4.6-3.3-6.3-2.4-2.2-3.2-5m17.9 3.2v-2.8q0-5.1-5-5.2h-4.8v21.1h3.3V2.6h1.6q4.9 0 4.9-5.2m-5-5q1.7 0 1.7 2v3.2q0 2.2-1.6 2h-1.6v-7.2h1.6m9.4 5.9v-5.9h5.8v-3h-9.1v21.1h9v-3H43V1.3h4.6v-3h-4.6m12.5-6.1q1.6 0 1.7 2v2.3h3.1v-2q0-5.1-5-5.3-4.8 0-4.9 5.3v11q0 5 5 5.2 4.9 0 4.9-5.2V2.7h-3.1v3q0 2.2-1.7 2-1.6 0-1.7-2V-5.7q0-2.3 1.7-2.1m16.5.2v-3H61.6v3h3.5v18.1h3.3V-7.6h3.5m-110.8 27h-3.2l2.3 21.1h4.6l1.2-11.2 1.2 11.2h4.4l2.4-21.1h-3l-1.7 16.8-1.6-16.8h-3.2l-1.6 16.7-1.8-16.7m19.3-.2q-4.9 0-5.1 5.3v11q0 5 5 5.2 5 0 5.1-5.2v-11q0-5.1-5-5.3m1.7 5v11.5q0 2.2-1.7 2-1.6 0-1.7-2V24.3q0-2.3 1.7-2.1 1.6 0 1.7 2m19.4-4.8h-4.6l-2.3 15-2.4-15h-4.6v21.1h2.9v-15l2.5 15h3l2.4-15.1v15.1h3.1V19.4m18.2 0h-4.1v21.1h3V25.2l4.1 15.3h3.4V19.4h-3v12.7l-3.4-12.7M12 31.5v-3H7.4v-5.9h5.8v-3H4v21.1h9v-3H7.5v-6.2H12"/></g><animate attributeName="display" repeatCount="indefinite" dur="4.95s" keyTimes="0;0.505;0.919;1" values="none;inline;none;none"/></g></g></svg>