<svg xmlns:xlink="http://www.w3.org/1999/xlink" xmlns="http://www.w3.org/2000/svg" baseProfile="basic" width="695" height="444" viewBox="0 0 695 444" preserveAspectRatio="xMinYMin meet"><defs><symbol id="b" overflow="visible"><path fill="#A5CD7B" stroke="#1A344F" stroke-width="2.5" stroke-linecap="round" stroke-linejoin="round" d="M20.1-.1q.7 0 1.3-.5.5-.4.5-1.1l-.4-74q0-.7-.6-1.2-.5-.4-1.2-.4l-39.8.1q-.7 0-1.3.5-.4.5-.4 1.1l.4 74.1q0 .7.5 1.1.5.5 1.3.4L20 0"/><path fill="#F2F9FD" d="M10-67q-2.8-2.3-3.3-5.7H-7q-.5 3.5-3.3 5.8-2.8 2.4-6.6 2.6l.3 51.4q3.8.3 6.6 2.6Q-7.2-8-6.7-4.6H7.1q.5-3.4 3.2-5.8 2.8-2.3 6.7-2.6l-.3-51.4q-3.8-.2-6.7-2.6"/><path fill="#E8BA24" d="M.6-25.7q5.3-.1 8.9-3.5 3.5-3.4 3.4-8-.2-4.8-4-8t-9-3.1q-5.4.2-9 3.5-3.6 3.5-3.4 8.2.2 4.7 4 8 3.8 3 9.1 3"/><path fill="#F0B971" d="M-12.5-36.6q.1 4.6 4 7.9 3.8 3.1 9 3 5.4-.2 9-3.6 3.5-3.4 3.3-8-.1-4.7-4-8-3.8-3.2-9-3-5.3.1-8.8 3.5-3.7 3.4-3.5 8.2"/><path fill="none" stroke="#19344F" stroke-width="2.5" stroke-linecap="round" stroke-linejoin="round" d="M-12.5-36.6q.1 4.6 4 7.9 3.8 3.1 9 3 5.4-.2 9-3.6 3.5-3.4 3.3-8-.1-4.7-4-8-3.8-3.2-9-3-5.3.1-8.8 3.5-3.7 3.4-3.5 8.2"/></symbol><symbol id="a" overflow="visible"><path fill="#A5CD7B" d="M25.8 19.8l-9-43.1H-18l-7.6 43.1h51.4"/><path fill="#F2F9FD" d="M-4.3-17.1q-.3.8-1.5 1.7-2.5 1.8-7 2l-3 21.2q1.8.1 3.2.6 1.6.6 2.7 1.4 1.1.9 1.8 2.2.7 1.2.7 2.9H7.5q.1-1.7.8-3 .6-1.2 1.8-2.1 1.2-1 2.6-1.4 1.5-.5 3.3-.6l-3.2-21.2q-4.8.3-7-1.7l-1.4-2h-8.7"/><path fill="none" stroke="#1A344F" stroke-width="2.5" stroke-linecap="round" stroke-linejoin="round" d="M-4.3-17.1q-.3.8-1.5 1.7-2.5 1.8-7 2l-3 21.2q1.8.1 3.2.6 1.6.6 2.7 1.4 1.1.9 1.8 2.2.7 1.2.7 2.9H7.5q.1-1.7.8-3 .6-1.2 1.8-2.1 1.2-1 2.6-1.4 1.5-.5 3.3-.6l-3.2-21.2q-4.8.3-7-1.7l-1.4-2h-8.7"/><path fill="#ECB069" d="M3.6-8Q1.9-8.3 0-8.3q-1.9 0-3.5.3-1.8.3-3.1.9-1.3.5-2.3 1.4-1.1.9-1.4 1.9-.3 1.1.2 2.1.6 1.1 2 1.9 1.3.9 3.4 1.5 2.2.5 4.7.5 2.4 0 4.6-.5 2-.5 3.5-1.5 1.4-.8 1.9-2 .5-1 .2-2T9-5.7q-1.1-.9-2.4-1.4-1.4-.6-3-.9"/><path fill="none" stroke="#1A344F" stroke-width="2.5" stroke-linecap="round" stroke-linejoin="round" d="M3.6-8Q1.9-8.3 0-8.3q-1.9 0-3.5.3-1.8.3-3.1.9-1.3.5-2.3 1.4-1.1.9-1.4 1.9-.3 1.1.2 2.1.6 1.1 2 1.9 1.3.9 3.4 1.5 2.2.5 4.7.5 2.4 0 4.6-.5 2-.5 3.5-1.5 1.4-.8 1.9-2 .5-1 .2-2T9-5.7q-1.1-.9-2.4-1.4-1.4-.6-3-.9"/><path fill="none" stroke="#1A344F" stroke-width="2.5" stroke-linecap="round" stroke-linejoin="round" d="M25.8 19.8l-9-43.1H-18l-7.6 43.1h51.4"/><path fill="#A5CD7B" d="M-25.6 19.8v3.7h51.4v-3.7h-51.4"/><path fill="none" stroke="#1A344F" stroke-width="2.5" stroke-linecap="round" stroke-linejoin="round" d="M-25.6 19.8v3.7h51.4v-3.7h-51.4"/></symbol></defs><g overflow="visible"><path fill="#BCBCC4" d="M695.4 445V268.6H.4V445h695"/><path fill="#99C978" d="M695.4 269.6V.4H.4v269.2h695"/><path fill="none" stroke="#F2F9FD" stroke-width="2.5" stroke-linecap="round" stroke-linejoin="round" d="M567.5 222.6v6.2M570.6 225.7h-6.2"/><path fill="none" stroke="#19344F" stroke-width="2.5" stroke-linecap="round" stroke-linejoin="round" d="M423 270.9v6.2M426.2 274H420"/><path fill="none" stroke="#F2F9FD" stroke-width="2.5" stroke-linecap="round" stroke-linejoin="round" d="M584.3 204.2v6.3M587.4 207.3h-6.2M666.1 239.7v6.3M669.3 242.8H663M500 254.5v6.3M503.1 257.7H497"/><path fill="none" stroke="#1A344F" stroke-width="2.5" stroke-linecap="round" stroke-linejoin="round" d="M-.5 269.5h697.9"/><path fill="#C2E3E9" stroke="#19344F" stroke-width="2.5" stroke-linecap="round" stroke-linejoin="round" d="M335.3 154v-39.5H232.9V154h102.4"/><path fill="#7C99B2" stroke="#19344F" stroke-width="2.5" stroke-linecap="round" stroke-linejoin="round" d="M326.9 133.3q0-4.1-3-7-2.8-3-7-3h-65.6q-4.2 0-7 3-3 2.9-3 7t3 7q2.9 3 7 3h65.6q4.2 0 7-3 3-2.9 3-7"/><path fill="#C2E3E9" stroke="#19344F" stroke-width="2.5" stroke-linecap="round" stroke-linejoin="round" d="M447.6 114.4H334.4v155h113.2v-155"/><path fill="#566E84" stroke="#19344F" stroke-width="2.5" stroke-linecap="round" stroke-linejoin="round" d="M358.4 133.3q-1.1 1.2-1.1 2.9V174q0 1.7 1.1 3 1.3 1.1 3 1.1h59.2q1.7 0 3-1.2 1.1-1.2 1.1-2.9v-37.8q0-1.7-1.2-2.9t-2.9-1.2h-59.2q-1.7 0-3 1.2"/><path fill="#FFF" d="M376.5 142.5q-1.8 2-1.9 5.6v15.7q0 3.6 1.9 5.6 1.9 2 5.4 2l1.8-.2 1.5-.3q.4 1 1.5 1.4 1 .6 2.6.6h.6v-4.2h-.4l-.9-.1q-.4-.2-.5-.6.5-.8.7-1.8.3-1.1.3-2.4v-15.7q-.1-3.6-2-5.6-1.8-2-5.3-2-3.4 0-5.3 2m7.8 5.3v16.3q0 1.6-.7 2.3-.6.7-1.8.7-1.1 0-1.8-.7-.6-.7-.6-2.3v-16.3q0-1.7.7-2.3.6-.7 1.8-.7 1.1 0 1.8.7.6.7.6 2.3M396.9 157.9h6.5v-4.3h-6.5v-8.4h8.2v-4.3h-13V171h13v-4.3h-8.3v-8.9"/><path fill="#878787" d="M424.7 219.9h-64.9l-37.1 93h136.9l-34.9-93"/><path fill="none" stroke="#19344F" stroke-width="2.5" stroke-linecap="round" stroke-linejoin="round" d="M459.6 313l-34.9-93.1m34.9 93H322.7l37.1-93"/><path fill="#656666" stroke="#19344F" stroke-width="2.5" stroke-linecap="round" stroke-linejoin="round" d="M322.7 313v7.6h136.9V313H322.7"/><path fill="#FFF" fill-opacity=".5" d="M399.8 133.3h-7.4l-34 34v7.4l41.4-41.4M404.3 133.2h3.7l-43.5 43.6h-3.8l43.6-43.6"/><path fill="#A2C9CE" stroke="#19344F" stroke-width="2.5" stroke-linecap="round" stroke-linejoin="round" d="M424.7 188.9q0-1.1-.7-1.9-.8-.7-1.9-.7h-62.3q-1 0-1.8.7-.7.8-.7 1.9v28.4q0 1.1.7 1.8.7.8 1.8.8h62.3q1.1 0 1.9-.8.7-.7.7-1.8V189"/><path fill="#566E84" stroke="#19344F" stroke-width="2.5" stroke-linecap="round" stroke-linejoin="round" d="M410.5 207.3v-10.8h-39.1v10.8h39.1"/><path fill="#7C99B2" stroke="#19344F" stroke-width="2.5" stroke-linecap="round" stroke-linejoin="round" d="M415.1 192.3q0 1 .7 1.8.8.7 1.8.7t1.7-.7q.7-.8.7-1.8t-.7-1.7q-.7-.7-1.7-.7t-1.8.7q-.7.7-.7 1.7M415.1 200.7q0 1 .7 1.7.8.7 1.8.7t1.7-.7q.7-.7.7-1.7t-.7-1.8q-.7-.7-1.7-.7t-1.8.7q-.7.8-.7 1.8"/><path fill="#C2E3E9" stroke="#19344F" stroke-width="2.5" stroke-linecap="round" stroke-linejoin="round" d="M573.9 129.6h-37.4v10.7h37.4q12.2 0 21 8.7 8.7 8.7 8.7 21v98.6h10.7V170q0-16.7-11.9-28.6-11.8-11.8-28.5-11.8"/><path fill="#566E84" stroke="#19344F" stroke-width="2.5" stroke-linecap="round" stroke-linejoin="round" d="M556.6 127.2h-6.9v16.2h6.9v-16.2M617.5 172h-16.1v13.5h16.1V172"/><path fill="#C2E3E9" stroke="#19344F" stroke-width="2.5" stroke-linecap="round" stroke-linejoin="round" d="M697.4 90.4V79.7H432q-12.2 0-21-8.7-8.7-8.7-8.7-21V-4h-10.7V50q0 16.7 11.9 28.5 11.8 11.9 28.5 11.9h265.3"/><path fill="#566E84" stroke="#19344F" stroke-width="2.5" stroke-linecap="round" stroke-linejoin="round" d="M405.5 32.7V26h-16.1v6.8h16.1M447.6 77.5h-13.4v16.1h13.4V77.5"/><path fill="#C2E3E9" stroke="#19344F" stroke-width="2.5" stroke-linecap="round" stroke-linejoin="round" d="M549.6 114.5H447.3V154h102.3v-39.5"/><path fill="#7C99B2" stroke="#19344F" stroke-width="2.5" stroke-linecap="round" stroke-linejoin="round" d="M465.6 123.4q-4.1 0-7 2.8-3 3-3 7.1t3 7q3 3 7 3h65.7q4.1 0 7-3 3-2.9 3-7t-3-7q-2.9-3-7-3h-65.7"/><path fill="#C2E3E9" stroke="#19344F" stroke-width="2.5" stroke-linecap="round" stroke-linejoin="round" d="M517 184.2q4 4.1 4 10v59.4h14.2v-59.4q0-11.7-8.3-20-8.2-8.3-20-8.3h-59.3V180h59.3q6 0 10 4.2"/><path fill="#8FBEC4" d="M459.6 166h-12v14h8l4-14"/><path fill="none" stroke="#19344F" stroke-width="2.5" stroke-linecap="round" stroke-linejoin="round" d="M517 184.2q4 4.1 4 10v59.4h14.2v-59.4q0-11.7-8.3-20-8.2-8.3-20-8.3h-59.3V180h59.3q6 0 10 4.2"/><path fill="#C2E3E9" stroke="#19344F" stroke-width="2.5" stroke-linecap="round" stroke-linejoin="round" d="M535.2 240.5v-3.6H521v3.6h14.2"/><path fill="#566E84" stroke="#19344F" stroke-width="2.5" stroke-linecap="round" stroke-linejoin="round" d="M518.3 236v33.5H539V236h-20.7"/><path fill="#7C99B2" stroke="#19344F" stroke-width="2.5" stroke-linecap="round" stroke-linejoin="round" d="M343.7 105.9v10h94.8v-10h-94.8"/><path fill="#878787" stroke="#19344F" stroke-width="2.5" stroke-linecap="round" stroke-linejoin="round" d="M452 329.4H328.9v45h123v-45"/><path fill="#686565" stroke="#19344F" stroke-width="2.5" stroke-linecap="round" stroke-linejoin="round" d="M322.7 313v12.6q0 4.8 3.3 8.1 3.4 3.4 8.1 3.4h114q4.8 0 8.2-3.4 3.3-3.3 3.3-8v-12.8H322.7"/><path fill="none" stroke="#19344F" stroke-width="2.5" stroke-linecap="round" stroke-linejoin="round" d="M46.2 58h112.2"/><path fill="#90B47A" d="M236.9-39.6h-10.7v32.4H224V6.2h2.2v2q0 12.4-8.8 21.1-8.7 8.7-21 8.7h-17.3v-3h-6.8v3H-10.9v10.7h183.2V51h6.8v-2.3h17.3q16.7 0 28.6-11.9Q237 25 237 8.3v-2h3.2V-7.3H237v-32.4"/><path fill="#DBDBDD" stroke="#19344F" stroke-width="2.5" stroke-linecap="round" stroke-linejoin="round" d="M237.2 125.8h-240v17h240v-17"/><path fill="#C2E3E9" d="M-8.4 42v10.7H199q16.7 0 28.6-11.8 11.8-11.9 11.8-28.6v-54.8h-10.7v54.8q0 12.3-8.7 21T199 42H-8.4"/><path fill="none" stroke="#19344F" stroke-width="2.5" stroke-linecap="round" stroke-linejoin="round" d="M-8.4 42v10.7H199q16.7 0 28.6-11.8 11.8-11.9 11.8-28.6v-54.8m-10.7 0v54.8q0 12.3-8.7 21T199 42H-8.4"/><path fill="#566E84" stroke="#19344F" stroke-width="2.5" stroke-linecap="round" stroke-linejoin="round" d="M174.9 39v16h6.8V39h-6.8M242.7 10.2V-3.2h-16.2v13.4h16.2"/><path fill="none" stroke="#1A344F" stroke-width="2.5" stroke-linecap="round" stroke-linejoin="round" d="M61.1 376.9h223"/><path fill="#64C6D3" stroke="#1A344F" stroke-width="2.5" stroke-linecap="round" stroke-linejoin="round" d="M161.8 230.8V117.2H90.9v113.6h70.9"/><path fill="#97DFED" stroke="#1A344F" stroke-width="2.5" stroke-linecap="round" stroke-linejoin="round" d="M161.8 117.3H91v32h70.8v-32"/><path fill="#89CEDC" d="M102 121.7l-1.1-4.4h-10v31.4l61.6.6q-31-2.4-44.4-17.5-4.2-4.7-6.1-10"/><path fill="none" stroke="#1A344F" stroke-width="2.5" stroke-linecap="round" stroke-linejoin="round" d="M161.8 117.3H91v32h70.8v-32"/><path fill="#878787" stroke="#19344F" stroke-width="2.5" stroke-linecap="round" stroke-linejoin="round" d="M130.7 164.4H122v55.5h8.6v-55.5"/><path fill="none" stroke="#1A344F" stroke-width="2.5" stroke-linecap="round" stroke-linejoin="round" d="M126.5 125q4 0 6.6 2.8m-6.6-2.8q-3.8 0-6.4 2.6-2.7 2.7-2.7 6.4 0 3.8 2.7 6.4 2.6 2.7 6.4 2.7 3.5 0 6-2.3M114.6 132.4h16.2M114.6 135.8h16.2"/><path fill="#7C99B2" stroke="#19344F" stroke-width="2.5" stroke-linecap="round" stroke-linejoin="round" d="M130.6 231.9h-8.4V377h8.4V231.9"/><path fill="#486D84" d="M130.6 230.9h-8.4v10.5l8.4-5V231"/><path fill="none" stroke="#19344F" stroke-width="2.5" stroke-linecap="round" stroke-linejoin="round" d="M130.6 230.9h-8.4V376h8.4V230.9M91 149.3h70.8"/><path fill="#E9AF90" stroke="#19344F" stroke-width="2.5" stroke-linecap="round" stroke-linejoin="round" d="M244.4 364l8-1.4-2.2-13.3-8.1 1.5 2.3 13.2"/><path fill="#997254" stroke="#19344F" stroke-width="2.5" stroke-linecap="round" stroke-linejoin="round" d="M241.2 364.6l.4 9.1 27.8-5.8q-.6-3.3-3.4-5.2-2.7-2-6-1.4l-18.8 3.3"/><path fill="#E9AF90" stroke="#19344F" stroke-width="2.5" stroke-linecap="round" stroke-linejoin="round" d="M213.1 366.2l-1-13.5-8.3.6 1 13.5 8.3-.6"/><path fill="#A8A8A8" d="M192 265.2l16.3 9.2 15.4-1 10.4 38q1.8 5 2 10.2l.8 34.1 18-2.5-.4-36.6q0-1.4-.4-3l-14.8-53.5-4.6.2-.2-1.3-12 1.8h-2.2v.2l-20.7 3-3-3-4.5 4.2"/><path fill="none" stroke="#19344F" stroke-width="2.5" stroke-linecap="round" stroke-linejoin="round" d="M223.7 273.5l-15.4.9m15.4-1l10.4 38q1.8 5 2 10.2l.8 34.1 18-2.5-.4-36.6q0-1.4-.4-3l-14.8-53.5-4.6.2-.2-1.3-12 1.8h-2.2v.2l-20.7 3-3-3-4.5 4.2"/><path fill="#A8A8A8" d="M214.1 274.5l9.6-1 17.3-15.2v-1l-1.5.2-5.4-3-2.1 3.8-20.8 2.1v-.2l-2.1.5-12.2 1.2.1 1.3-4.5.9-1.2 55.6q0 1.5.3 3l8.6 35.6 18-2-7.5-33.3q-1.1-5.1-.6-10.4l4-38.1"/><path fill="none" stroke="#19344F" stroke-width="2.5" stroke-linecap="round" stroke-linejoin="round" d="M214.1 274.5l9.6-1m-9.6 1l-4 38.1q-.5 5.3.6 10.4l7.6 33.3-18.1 2-8.6-35.6q-.3-1.5-.3-3l1.2-55.6 4.5-1-.1-1.2 12.2-1.2 2-.5v.2l20.9-2.1 2.1-3.8 5.4 3 1.4-.1.1 1"/><path fill="#8C8C8C" d="M192 265.2l1.8 14 45.6-17.8-47.3 3.8"/><path fill="none" stroke="#19344F" stroke-width="2.5" stroke-linecap="round" stroke-linejoin="round" d="M214.1 274.5l9.6-1m-9.6 1l-4 38.1q-.5 5.3.6 10.4l7.6 33.3-18.1 2-8.6-35.6q-.3-1.5-.3-3l1.2-55.6 4.5-1-.1-1.2 12.2-1.2 2-.5v.2l20.9-2.1 2.1-3.8 5.4 3 1.4-.1.1 1"/><path fill="none" stroke="#19344F" stroke-width="2.5" stroke-linecap="round" stroke-linejoin="round" d="M214.1 274.5l9.6-1m-9.6 1l-4 38.1q-.5 5.3.6 10.4l7.6 33.3-18.1 2-8.6-35.6q-.3-1.5-.3-3l1.2-55.6 4.5-1-.1-1.2 12.2-1.2 2-.5v.2l20.9-2.1 2.1-3.8 5.4 3 1.4-.1.1 1"/><path fill="#E9AF90" stroke="#19344F" stroke-width="2.5" stroke-linecap="round" stroke-linejoin="round" d="M152.7 179.7q2-2.5 2-5.6 0-4-2.6-6.8-2.7-2.8-6.7-3-4 0-6.8 2.7t-2.9 6.7q0 3.6 2.3 6.4 2.3 2.7 5.9 3.2l9.3 31q.5 1.5 1.7 2.4 1.3 1 2.8 1l33.3-.1q2 0 3.4-1.4t1.4-3.4q0-1.9-1.3-3.3-1.4-1.3-3.4-1.4h-29.8l-8.6-28.4"/><path fill="#43566B" d="M243 220.2l-4.2-19.7-26.1-1.4-27 5.7-15.3.2-6.9.5-6.7-20.3-15 4.5 8.2 27.2q.7 2.1 2.4 3.4 1.9 1.3 4.1 1.2l14-.7H186l3 43.6 56.9-4-2.8-40.2"/><path fill="none" stroke="#19344F" stroke-width="2.5" stroke-linecap="round" stroke-linejoin="round" d="M156.7 185.2l-15 4.5 8.2 27.1q.7 2.2 2.5 3.4 1.8 1.3 4 1.2l14-.6h15.5l3.1 43.5 56.8-4-4-55.5m-85.1-19.6l6.8 20.3 6.9-.5 15.2-.2 27-5.8 26.1 1.4"/><path fill="#ECECEC" stroke="#19344F" stroke-width="2.5" stroke-linecap="round" stroke-linejoin="round" d="M214.2 198.4l-8.3 2.4-3.8.5 4.7 62 26.3-2-1.5-61-17.4-2"/><path fill="#E56C6C" stroke="#19344F" stroke-width="2.5" stroke-linecap="round" stroke-linejoin="round" d="M222.9 209l-3.4-3-7 .5-4.2 2.5 6.8 8 3.5-.3 4.3-7.7"/><path fill="#E56C6C" stroke="#19344F" stroke-width="2.5" stroke-linecap="round" stroke-linejoin="round" d="M218.6 216.7l-3.5.3.5 54.2 5.7 5.2 4.9-6-7.6-53.7"/><path fill="#E9AF90" stroke="#19344F" stroke-width="2.5" stroke-linecap="round" stroke-linejoin="round" d="M214.5 211.7q2.9.5 5.3-1.2 2.4-1.8 2.8-4.7l1.6-10.2-14-2.1-1.6 10.1q-.5 3 1.2 5.3 1.8 2.4 4.7 2.8"/><path fill="none" stroke="#19344F" stroke-width="2.5" stroke-linecap="round" stroke-linejoin="round" d="M214.5 211.7q2.9.5 5.3-1.2 2.4-1.8 2.8-4.7l1.6-10.2-14-2.1-1.6 10.1q-.5 3 1.2 5.3 1.8 2.4 4.7 2.8"/><path fill="#997254" stroke="#19344F" stroke-width="2.5" stroke-linecap="round" stroke-linejoin="round" d="M216.3 366l-19 1.3q-3.3.3-5.5 2.9t-2 5.9l28.4-1.3-1.9-8.9"/><path fill="#6A6155" stroke="#19344F" stroke-width="2.5" stroke-linecap="round" stroke-linejoin="round" d="M189.8 126.2l-6.5-4v19.5q.7 21.7 4.3 32.2.8 2.5 2.2-47.7"/><path fill="#E9AF90" stroke="#19344F" stroke-width="2.5" stroke-linecap="round" stroke-linejoin="round" d="M241.2 158.5q-2.9 2.7-3.1 6.6-.2 3.9 2.4 6.8 2.6 3 6.5 3.2 4 .3 6.9-2.4 3-2.7 3.2-6.6.2-4-2.4-6.8-2.7-3-6.6-3.2-4-.2-6.9 2.4M197.1 167.1q.3-4-2.3-6.8-2.7-3-6.6-3.2-4-.2-6.9 2.4-2.9 2.6-3.1 6.5-.2 4 2.4 7 2.6 2.8 6.6 3 3.9.3 6.8-2.3 3-2.7 3.1-6.6"/><path fill="#E9AF90" stroke="#19344F" stroke-width="2.5" stroke-linecap="round" stroke-linejoin="round" d="M216 122.6q-13.7-.8-21.2 3.1-9 4.6-9.6 16l.4 28.3q-.5 8.6 7.8 17.3 3.9 4 12.6 10.3 2 1.4 4.6 1.5l12.9.2q2.4 0 4.3-1.2 8.6-5.2 12.3-8.6 8.1-7.4 8.6-16l2.5-28q2-35.4-17.4-32.2l-17.8 9.3"/><path fill="#6A6155" d="M183.2 116.9q-1.5 9.5 6.8 14.5 8 4.8 17.5 4.8 9.7 0 25.8-6 8.1-2.9 14.2-5.8l2.3 31.6q-.2-3.6 1.3-18.5 1.6-15.6 1.1-19.8-.4-4.1-3.6-6.8t-7.5-2.6l-9.7 3.2L199 105q-2.7-.5-5.1 0-4.3 1.1-7.2 4.5-2.7 3-3.4 7.3"/><path fill="none" stroke="#19344F" stroke-width="2.5" stroke-linecap="round" stroke-linejoin="round" d="M207.5 136.2q-9.6 0-17.5-4.8m43.3-1.1q-16.1 5.8-25.8 5.9m40-11.8q-6 3-14.2 5.9m16.5 25.7l-2.3-31.6m2.3 31.6v.4m1.3-18.9q-1.5 14.9-1.3 18.5m2.4-38.3q.5 4.2-1.1 19.8m-2.5-26.6q3.2 2.7 3.6 6.8m-11-9.4q4.2-.1 7.4 2.6m-17.2.6l9.7-3.2M199 105l32.5 6.4m-37.6-6.4q2.4-.5 5 0m-12.2 4.5q2.9-3.4 7.2-4.5M183.2 117q.7-4.2 3.4-7.3m3.4 21.8q-8.3-5-6.8-14.5M203.9 171.9q-5.7 3.8-5.7 13.3m5.7-13.3q1.8-1.2 4-1.7l1.7-.2M231.4 171.9q5.8 3.8 5.8 13.3m-5.8-13.3q-1.7-1.2-3.9-1.7l-1.8-.2M231.4 111.5l3.6 4.5M197 150.6q5.4-2 12.2.2m-12.2-.2l-4 2.4M242 153q-1-1.7-3.6-2.8-5.3-2.1-13.4 1"/><path fill="#19344F" d="M204.7 153.4q0-.9-.6-1.5-.7-.6-1.5-.6t-1.4.6q-.6.7-.6 1.5t.6 1.4q.6.6 1.4.6.8 0 1.5-.6.6-.6.6-1.4M235 153.4q0-.9-.6-1.5t-1.5-.6q-.8 0-1.4.6-.6.6-.6 1.5 0 .8.6 1.4.6.6 1.4.6.9 0 1.5-.6t.6-1.4"/><path fill="none" stroke="#19344F" stroke-width="2.5" stroke-linecap="round" stroke-linejoin="round" d="M221.7 171.6V169m0 2.6q0 1.2-.9 2.1-.9 1-2.1 1-1.3 0-2.1-1-.9-.9-.9-2.1v-15M204.7 182.4h26.2"/><g transform="matrix(.993 0 0 .993 146.6 220)"><animateTransform attributeName="transform" additive="replace" type="translate" repeatCount="indefinite" dur="2.875s" keyTimes="0;0.014;0.029;0.043;0.058;0.072;0.087;0.101;0.116;0.623;0.638;0.652;0.667;0.681;0.696;0.71;0.725;0.739;1" values="123.266,204.312;123.31,202.73;123.236,201.164;123.263,199.645;123.296,198.152;123.309,196.593;123.296,195.055;123.253,193.468;123.326,193.466;123.326,193.466;123.253,193.468;123.306,195.067;123.385,196.622;123.337,198.169;123.311,199.632;123.242,201.164;123.27,202.737;123.266,204.312;123.266,204.312" calcMode="discrete"/><animateTransform attributeName="transform" additive="sum" type="rotate" repeatCount="indefinite" dur="2.875s" keyTimes="0;0.014;0.029;0.043;0.058;0.072;0.087;0.101;0.116;0.623;0.638;0.652;0.667;0.681;0.696;0.71;0.725;0.739;1" values="0,0,0;-9.309,0,0;-18.814,0,0;-28.327,0,0;-37.846,0,0;-47.368,0,0;-56.889,0,0;-66.246,0,0;-66.219,0,0;-66.219,0,0;-66.246,0,0;-56.889,0,0;-47.368,0,0;-37.845,0,0;-28.326,0,0;-18.813,0,0;-9.308,0,0;0,0,0;0,0,0" calcMode="discrete"/><animateTransform attributeName="transform" additive="sum" type="scale" repeatCount="indefinite" dur="2.875s" keyTimes="0;0.014;0.029;0.043;0.087;0.101;0.116;0.623;0.638;0.652;0.696;0.71;0.725;0.739;1" values="0.993,0.993;0.992,0.992;0.991,0.991;0.99,0.99;0.99,0.99;0.992,0.992;0.991,0.991;0.991,0.991;0.992,0.992;0.99,0.99;0.99,0.99;0.991,0.991;0.992,0.992;0.993,0.993;0.993,0.993" calcMode="discrete"/><animateTransform attributeName="transform" additive="sum" type="translate" repeatCount="indefinite" dur="2.875s" keyTimes="0;0.014;0.029;0.043;0.058;0.072;0.087;0.101;0.116;0.623;0.638;0.652;0.667;0.681;0.696;0.71;0.725;1" values="23.499,15.799;23.449,15.849;23.599,15.899;23.449,15.849;23.449,15.849;23.499,15.849;23.499,15.799;23.399,15.799;23.399,15.749;23.399,15.749;23.399,15.799;23.449,15.699;23.399,15.699;23.449,15.699;23.449,15.749;23.449,15.849;23.499,15.799;23.499,15.799" calcMode="discrete"/><path fill="#6A6155" d="M10.2 7.4L13.8 9V4.6l-40-24.7v5.4l36.4 22"/><path fill="none" stroke="#19344F" stroke-width="2.5" stroke-linecap="round" stroke-linejoin="round" d="M13.8 4.6V9m0-4.4l-40-24.7v5.4l36.4 22"/><path fill="#E56C6C" stroke="#19344F" stroke-width="2.5" stroke-linecap="round" stroke-linejoin="round" d="M26.3 9.1q0-4.6-3.2-7.9Q19.8-2 15-2q-4.6 0-7.9 3.2Q4 4.5 4 9.1q0 4.7 3.2 8 3.3 3.2 7.9 3.2 4.7 0 8-3.2 3.2-3.3 3.2-8"/><path fill="#D04E4E" d="M5.2 2.5Q3.3 5.3 3.3 8.7q0 4.6 3.3 7.9 3.3 3.2 7.9 3.2 3 0 5.7-1.5 2.5-1.5 4-4.1-9.7-1.6-12.2-8.8-.8-2.3-.8-4.8l.2-2.1H9.9q-3 1.3-4.7 4"/><path fill="none" stroke="#19344F" stroke-width="2.5" stroke-linecap="round" stroke-linejoin="round" d="M26.3 9.1q0-4.6-3.2-7.9Q19.8-2 15-2q-4.6 0-7.9 3.2Q4 4.5 4 9.1q0 4.7 3.2 8 3.3 3.2 7.9 3.2 4.7 0 8-3.2 3.2-3.3 3.2-8"/></g><path fill="#64C6D3" d="M124.6 164.3v-6.6H90.9v73.1h33.6l.1-3.8v-7.2h-2.5v-55.5h2.5"/><path fill="none" stroke="#1A344F" stroke-width="2.5" stroke-linecap="round" stroke-linejoin="round" d="M90.9 157.7v73.1h33.6"/><path fill="none" stroke="#19344F" stroke-width="2.5" stroke-linecap="round" stroke-linejoin="round" d="M124.6 219.8h-2.5v-55.5h2.5"/><g transform="matrix(.993 0 0 .993 209.5 229.3)"><animateTransform attributeName="transform" additive="replace" type="translate" repeatCount="indefinite" dur="2.875s" keyTimes="0;0.014;0.029;0.043;0.058;0.072;0.087;0.101;0.116;0.623;0.638;0.652;0.667;0.681;0.696;0.71;0.725;0.739;1" values="238.545,200.802;238.562,200.751;238.576,200.769;238.576,200.739;238.562,200.797;238.608,200.744;238.463,200.72;238.55,200.778;238.548,200.753;238.548,200.753;238.55,200.778;238.501,200.706;238.508,200.844;238.527,200.825;238.542,200.741;238.513,200.829;238.524,200.796;238.545,200.802;238.545,200.802" calcMode="discrete"/><animateTransform attributeName="transform" additive="sum" type="rotate" repeatCount="indefinite" dur="2.875s" keyTimes="0;0.014;0.029;0.043;0.058;0.072;0.087;0.101;0.116;0.623;0.638;0.652;0.667;0.681;0.696;0.71;0.725;0.739;1" values="0,0,0;6.51,0,0;13.024,0,0;19.542,0,0;26.064,0,0;32.589,0,0;39.117,0,0;45.698,0,0;45.645,0,0;45.645,0,0;45.698,0,0;39.116,0,0;32.589,0,0;26.063,0,0;19.541,0,0;13.024,0,0;6.51,0,0;0,0,0;0,0,0" calcMode="discrete"/><animateTransform attributeName="transform" additive="sum" type="scale" repeatCount="indefinite" dur="2.875s" keyTimes="0;0.014;0.029;0.043;0.058;0.087;0.101;0.116;0.623;0.638;0.652;0.681;0.696;0.71;0.725;0.739;1" values="0.993,0.993;0.992,0.992;0.992,0.992;0.991,0.991;0.99,0.99;0.99,0.99;0.991,0.991;0.99,0.99;0.99,0.99;0.991,0.991;0.99,0.99;0.99,0.99;0.991,0.991;0.992,0.992;0.992,0.992;0.993,0.993;0.993,0.993" calcMode="discrete"/><animateTransform attributeName="transform" additive="sum" type="translate" repeatCount="indefinite" dur="2.875s" keyTimes="0;0.014;0.029;0.043;0.058;0.072;0.087;0.101;0.116;0.623;0.638;0.652;0.667;0.681;0.696;0.71;0.725;0.739;1" values="-29.25,28.649;-29.3,28.699;-29.3,28.749;-29.25,28.699;-29.3,28.599;-29.35,28.649;-29.15,28.549;-29.3,28.699;-29.3,28.649;-29.3,28.649;-29.3,28.699;-29.25,28.649;-29.35,28.649;-29.35,28.649;-29.25,28.749;-29.35,28.699;-29.25,28.799;-29.25,28.649;-29.25,28.649" calcMode="discrete"/><path fill="#E9AF90" stroke="#19344F" stroke-width="2.5" stroke-linecap="round" stroke-linejoin="round" d="M35.6-3.8q1.3-1.6 1.2-3.7-.2-2.1-1.8-3.4-1.5-1.4-3.6-1.2-2.1.2-3.4 1.7L6.9 14.4l-29.3-3.2-.4-.7q-1.9-3.7-5.8-5-4-1.3-7.7.6-3.6 1.8-4.9 5.8-1.3 4 .6 7.7t5.9 5q3.9 1.3 7.6-.6 2.1-1.1 3.4-2.8l32.2 3.4q1.4.2 2.8-.5.9-.4 1.5-1.2L35.6-3.8"/><path fill="#43566B" d="M29-28.7L25.8-18 4.6 6.5l-23.4-2.4-2.6 20.5 33.9 4.3L41.9-5.8l-1-22.2-11.8-.7"/><path fill="none" stroke="#19344F" stroke-width="2.5" stroke-linecap="round" stroke-linejoin="round" d="M41-28l-12-.7m12 .7l.9 22.2-29.4 34.7-34-4.3L-18.7 4 4.6 6.5l21-24.4"/></g><g display="none"><use xlink:href="#a" transform="matrix(.591 0 0 .591 392.8 179.4)"><animateTransform attributeName="transform" additive="replace" type="translate" dur="2.875s" keyTimes="0;1" values="0,0;0,0" fill="freeze"/><animateTransform attributeName="transform" additive="sum" type="translate" repeatCount="indefinite" dur="2.875s" keyTimes="0;0.13;0.145;0.159;0.174;0.188;0.203;0.217;0.232;0.246;0.261;0.275;0.29;0.304;0.319;0.333;0.348;0.362;0.377;0.391;0.406;0.42;0.435;0.449;0.464;0.478;0.493;0.507;0.522;0.535;0.536;1" values="392.8,179.4;392.8,179.4;392.7,183.15;392.6,186.85;392.45,190.6;392.35,194.3;392.25,198.05;392.15,201.75;392.05,205.5;391.9,209.2;391.8,212.95;391.75,216.7;391.6,220.4;391.5,224.15;391.4,227.85;391.3,231.6;391.15,235.3;391.05,239.05;390.95,242.75;390.85,246.5;390.7,250.25;390.6,254;390.5,257.75;390.4,261.45;390.25,265.2;390.15,268.9;390.05,272.65;389.9,276.35;389.8,280.1;389.65,283.8;0;0" calcMode="discrete"/><animateTransform attributeName="transform" additive="sum" type="translate" repeatCount="indefinite" dur="2.875s" keyTimes="0;0.536;0.551;1" values="0;389.65,283.8;389.55,287.5;389.55,287.5" calcMode="discrete"/><animateTransform attributeName="transform" additive="sum" type="scale" repeatCount="indefinite" dur="2.875s" keyTimes="0;0.13;0.145;0.159;0.174;0.188;0.203;0.217;0.232;0.246;0.261;0.275;0.29;0.304;0.319;0.333;0.348;0.362;0.377;0.391;0.406;0.42;0.435;0.449;0.464;0.478;0.493;0.507;0.522;0.535;0.536;1" values="0.591,0.591;0.591,0.591;0.605,0.605;0.619,0.619;0.633,0.633;0.647,0.647;0.661,0.661;0.674,0.674;0.688,0.688;0.702,0.702;0.716,0.716;0.73,0.73;0.744,0.744;0.758,0.758;0.771,0.771;0.785,0.785;0.799,0.799;0.813,0.813;0.827,0.827;0.841,0.841;0.855,0.855;0.868,0.868;0.882,0.882;0.896,0.896;0.91,0.91;0.924,0.924;0.938,0.938;0.951,0.951;0.965,0.965;0.979,0.979;1;1" calcMode="discrete"/><animateTransform attributeName="transform" additive="sum" type="scale" repeatCount="indefinite" dur="2.875s" keyTimes="0;0.536;0.551;1" values="1;0.979,0.979;0.993,0.993;0.993,0.993" calcMode="discrete"/></use><animate attributeName="display" repeatCount="indefinite" dur="2.875s" keyTimes="0;0.13;0.565;1" values="none;inline;none;none"/><animate attributeName="mask" repeatCount="indefinite" dur="2.875s" keyTimes="0;0.13;1" values="none;url(#mask_1);url(#mask_1)"/></g><g display="none"><use xlink:href="#b" transform="matrix(.993 0 0 .993 388.7 344)"><animateTransform attributeName="transform" additive="replace" type="translate" repeatCount="indefinite" dur="2.875s" keyTimes="0;0.565;0.58;0.594;0.609;0.623;0.638;0.652;0.667;0.681;0.696;0.71;0.725;0.739;0.754;0.768;1" values="388.7,344.05;388.7,344.05;388.7,349.75;388.7,355.5;388.7,361.2;388.7,366.95;388.7,372.65;388.7,378.4;388.7,384.1;388.7,389.8;388.7,395.55;388.7,401.25;388.7,407;388.7,412.7;388.7,418.45;388.7,424.1;388.7,424.1" calcMode="discrete"/><animateTransform attributeName="transform" additive="sum" type="scale" repeatCount="indefinite" dur="2.875s" keyTimes="0;1" values="0.993,0.993;0.993,0.993" calcMode="discrete"/></use><animate attributeName="display" repeatCount="indefinite" dur="2.875s" keyTimes="0;0.565;1" values="none;inline;inline"/><animate attributeName="mask" repeatCount="indefinite" dur="2.875s" keyTimes="0;0.13;1" values="none;url(#mask_1);url(#mask_1)"/></g><g display="none"><use xlink:href="#a" transform="matrix(.591 0 0 .591 392.8 179.4)"><animateTransform attributeName="transform" additive="replace" type="translate" dur="2.875s" keyTimes="0;1" values="0,0;0,0" fill="freeze"/><animateTransform attributeName="transform" additive="sum" type="translate" repeatCount="indefinite" dur="2.875s" keyTimes="0;0.348;0.362;0.377;0.391;0.406;0.42;0.435;0.449;0.464;0.478;0.493;0.507;0.522;0.536;0.551;0.565;0.58;0.594;0.609;0.623;0.638;0.652;0.667;0.681;0.696;0.71;0.725;0.739;0.753;0.754;1" values="392.8,179.4;392.8,179.4;392.7,183.15;392.6,186.85;392.45,190.6;392.35,194.3;392.25,198.05;392.15,201.75;392.05,205.5;391.9,209.2;391.8,212.95;391.75,216.7;391.6,220.4;391.5,224.15;391.4,227.85;391.3,231.6;391.15,235.3;391.05,239.05;390.95,242.75;390.85,246.5;390.7,250.25;390.6,254;390.5,257.75;390.4,261.45;390.25,265.2;390.15,268.9;390.05,272.65;389.9,276.35;389.8,280.1;389.65,283.8;0;0" calcMode="discrete"/><animateTransform attributeName="transform" additive="sum" type="translate" repeatCount="indefinite" dur="2.875s" keyTimes="0;0.754;0.768;1" values="0;389.65,283.8;389.55,287.5;389.55,287.5" calcMode="discrete"/><animateTransform attributeName="transform" additive="sum" type="scale" repeatCount="indefinite" dur="2.875s" keyTimes="0;0.348;0.362;0.377;0.391;0.406;0.42;0.435;0.449;0.464;0.478;0.493;0.507;0.522;0.536;0.551;0.565;0.58;0.594;0.609;0.623;0.638;0.652;0.667;0.681;0.696;0.71;0.725;0.739;0.753;0.754;1" values="0.591,0.591;0.591,0.591;0.605,0.605;0.619,0.619;0.633,0.633;0.647,0.647;0.661,0.661;0.674,0.674;0.688,0.688;0.702,0.702;0.716,0.716;0.73,0.73;0.744,0.744;0.758,0.758;0.771,0.771;0.785,0.785;0.799,0.799;0.813,0.813;0.827,0.827;0.841,0.841;0.855,0.855;0.868,0.868;0.882,0.882;0.896,0.896;0.91,0.91;0.924,0.924;0.938,0.938;0.951,0.951;0.965,0.965;0.979,0.979;1;1" calcMode="discrete"/><animateTransform attributeName="transform" additive="sum" type="scale" repeatCount="indefinite" dur="2.875s" keyTimes="0;0.754;0.768;1" values="1;0.979,0.979;0.993,0.993;0.993,0.993" calcMode="discrete"/></use><animate attributeName="display" repeatCount="indefinite" dur="2.875s" keyTimes="0;0.348;0.783;1" values="none;inline;none;none"/><animate attributeName="mask" repeatCount="indefinite" dur="2.875s" keyTimes="0;0.13;1" values="none;url(#mask_);url(#mask_)"/></g><g display="none"><use xlink:href="#b" transform="matrix(.993 0 0 .993 388.7 344)"><animateTransform attributeName="transform" additive="replace" type="translate" repeatCount="indefinite" dur="2.875s" keyTimes="0;0.783;0.797;0.812;0.826;0.841;0.855;0.87;0.884;0.899;0.913;0.928;0.942;0.957;0.971;0.986;1" values="388.7,344.05;388.7,344.05;388.7,349.75;388.7,355.5;388.7,361.2;388.7,366.95;388.7,372.65;388.7,378.4;388.7,384.1;388.7,389.8;388.7,395.55;388.7,401.25;388.7,407;388.7,412.7;388.7,418.45;388.7,424.1;388.7,424.1" calcMode="discrete"/><animateTransform attributeName="transform" additive="sum" type="scale" repeatCount="indefinite" dur="2.875s" keyTimes="0;1" values="0.993,0.993;0.993,0.993" calcMode="discrete"/></use><animate attributeName="display" repeatCount="indefinite" dur="2.875s" keyTimes="0;0.783;1" values="none;inline;inline"/><animate attributeName="mask" repeatCount="indefinite" dur="2.875s" keyTimes="0;0.13;1" values="none;url(#mask_);url(#mask_)"/></g><path fill="#A5CD7B" d="M341.5 342.9l-2 4.3 57.1 27.2 2.1-4.3-57.2-27.2"/><path fill="none" stroke="#1A344F" stroke-width="2.5" stroke-linecap="round" stroke-linejoin="round" d="M341.5 342.9l-2 4.3 57.1 27.2 2.1-4.3-57.2-27.2"/><path fill="#A5CD7B" d="M343.5 338.6l-2 4.3 57.2 27.2 2-4.4-57.2-27.1"/><path fill="none" stroke="#1A344F" stroke-width="2.5" stroke-linecap="round" stroke-linejoin="round" d="M343.5 338.6l-2 4.3 57.2 27.2 2-4.4-57.2-27.1"/><path fill="#A5CD7B" d="M345.5 334.3l-2 4.3 57.3 27.1 2-4.2-57.3-27.2"/><path fill="none" stroke="#1A344F" stroke-width="2.5" stroke-linecap="round" stroke-linejoin="round" d="M345.5 334.3l-2 4.3 57.3 27.1 2-4.2-57.3-27.2"/><path fill="#A5CD7B" d="M347.6 330l-2 4.3 57.2 27.2 2-4.3-57.2-27.3"/><path fill="none" stroke="#1A344F" stroke-width="2.5" stroke-linecap="round" stroke-linejoin="round" d="M347.6 330l-2 4.3 57.2 27.2 2-4.3-57.2-27.3"/><path fill="#A5CD7B" d="M349.7 325.6l-2 4.3 57.1 27.3 2.1-4.4-57.2-27.2"/><path fill="none" stroke="#1A344F" stroke-width="2.5" stroke-linecap="round" stroke-linejoin="round" d="M349.7 325.6l-2 4.3 57.1 27.3 2.1-4.4-57.2-27.2"/><path fill="#E3EFD5" d="M365.5 331.6l-11.3 23.8 27.5 13 11.3-23.8-27.5-13"/><path fill="none" stroke="#1A344F" stroke-width="2.5" stroke-linecap="round" stroke-linejoin="round" d="M365.5 331.6l-11.3 23.8 27.5 13 11.3-23.8-27.5-13"/><path fill="#A5CD7B" d="M441.5 352l-1.8-4.3-58.4 25 2 4.3 58.2-25"/><path fill="none" stroke="#1A344F" stroke-width="2.5" stroke-linecap="round" stroke-linejoin="round" d="M441.5 352l-1.8-4.3-58.4 25 2 4.3 58.2-25"/><path fill="#A5CD7B" d="M379.5 368.3l1.8 4.3 58.4-24.9-1.9-4.4-58.3 25"/><path fill="none" stroke="#1A344F" stroke-width="2.5" stroke-linecap="round" stroke-linejoin="round" d="M379.5 368.3l1.8 4.3 58.4-24.9-1.9-4.4-58.3 25"/><path fill="#A5CD7B" d="M377.6 363.9l2 4.4 58.2-25-1.9-4.4-58.3 25"/><path fill="none" stroke="#1A344F" stroke-width="2.5" stroke-linecap="round" stroke-linejoin="round" d="M377.6 363.9l2 4.4 58.2-25-1.9-4.4-58.3 25"/><path fill="#A5CD7B" d="M375.7 359.5l2 4.4 58.2-25-1.9-4.4-58.3 25"/><path fill="none" stroke="#1A344F" stroke-width="2.5" stroke-linecap="round" stroke-linejoin="round" d="M375.7 359.5l2 4.4 58.2-25-1.9-4.4-58.3 25"/><path fill="#A5CD7B" d="M373.8 355l2 4.5 58.2-25-1.9-4.4-58.3 25"/><path fill="none" stroke="#1A344F" stroke-width="2.5" stroke-linecap="round" stroke-linejoin="round" d="M373.8 355l2 4.5 58.2-25-1.9-4.4-58.3 25"/><path fill="#E3EFD5" d="M416.8 335.2l-28 12 10.4 24.2 28-12-10.4-24.2"/><path fill="none" stroke="#1A344F" stroke-width="2.5" stroke-linecap="round" stroke-linejoin="round" d="M416.8 335.2l-28 12 10.4 24.2 28-12-10.4-24.2"/><path fill="#A5CD7B" d="M371.8 337l-4.5 1.8L390 398l4.5-1.7-22.7-59.2"/><path fill="none" stroke="#1A344F" stroke-width="2.5" stroke-linecap="round" stroke-linejoin="round" d="M371.8 337l-4.5 1.8L390 398l4.5-1.7-22.7-59.2"/><path fill="#A5CD7B" d="M376.2 335.4l-4.4 1.7 22.7 59.2 4.5-1.7-22.8-59.2"/><path fill="none" stroke="#1A344F" stroke-width="2.5" stroke-linecap="round" stroke-linejoin="round" d="M376.2 335.4l-4.4 1.7 22.7 59.2 4.5-1.7-22.8-59.2"/><path fill="#A5CD7B" d="M380.7 333.7l-4.5 1.7 22.8 59.2 4.4-1.7-22.7-59.2"/><path fill="none" stroke="#1A344F" stroke-width="2.5" stroke-linecap="round" stroke-linejoin="round" d="M380.7 333.7l-4.5 1.7 22.8 59.2 4.4-1.7-22.7-59.2"/><path fill="#A5CD7B" d="M403.4 392.9l4.5-1.7-22.7-59.2-4.5 1.7 22.7 59.2"/><path fill="none" stroke="#1A344F" stroke-width="2.5" stroke-linecap="round" stroke-linejoin="round" d="M403.4 392.9l4.5-1.7-22.7-59.2-4.5 1.7 22.7 59.2"/><path fill="#A5CD7B" d="M389.6 330.2l-4.4 1.8 22.7 59.2 4.4-1.7-22.7-59.3"/><path fill="none" stroke="#1A344F" stroke-width="2.5" stroke-linecap="round" stroke-linejoin="round" d="M389.6 330.2l-4.4 1.8 22.7 59.2 4.4-1.7-22.7-59.3"/><path fill="#E3EFD5" d="M383.3 383.4l24.6-9.5-10.9-28.4-24.6 9.5 10.9 28.4"/><path fill="none" stroke="#1A344F" stroke-width="2.5" stroke-linecap="round" stroke-linejoin="round" d="M383.3 383.4l24.6-9.5-10.9-28.4-24.6 9.5 10.9 28.4"/><path fill="#B3A58D" stroke="#19344F" stroke-width="2.5" stroke-linecap="round" stroke-linejoin="round" d="M344.6 353.6v48.6H435v-48.6h-90.5"/><path fill="#998A73" d="M344.6 363.7v20.2l90.5-20.2h-90.5"/><path fill="none" stroke="#19344F" stroke-width="2.5" stroke-linecap="round" stroke-linejoin="round" d="M344.6 353.6v48.6H435v-48.6h-90.5"/><path fill="#CABEA6" stroke="#19344F" stroke-width="2.5" stroke-linecap="round" stroke-linejoin="round" d="M344.6 353.6l-7.4 10h104.4l-6.5-10h-90.5"/><path fill="#A5CD7B" d="M587.3 319v-4.5h-58.2v4.4h58.2"/><path fill="none" stroke="#1A344F" stroke-width="2.5" stroke-linecap="round" stroke-linejoin="round" d="M587.3 319v-4.5h-58.2v4.4h58.2"/><path fill="#A5CD7B" d="M587.3 314.5v-4.4h-58.2v4.4h58.2"/><path fill="none" stroke="#1A344F" stroke-width="2.5" stroke-linecap="round" stroke-linejoin="round" d="M587.3 314.5v-4.4h-58.2v4.4h58.2"/><path fill="#A5CD7B" d="M587.3 310.1v-4.3h-58.2v4.3h58.2"/><path fill="none" stroke="#1A344F" stroke-width="2.5" stroke-linecap="round" stroke-linejoin="round" d="M587.3 310.1v-4.3h-58.2v4.3h58.2"/><path fill="#A5CD7B" d="M587.3 305.8v-4.5h-58.2v4.5h58.2"/><path fill="none" stroke="#1A344F" stroke-width="2.5" stroke-linecap="round" stroke-linejoin="round" d="M587.3 305.8v-4.5h-58.2v4.5h58.2"/><path fill="#A5CD7B" d="M587.3 301.3V297h-58.2v4.3h58.2"/><path fill="none" stroke="#1A344F" stroke-width="2.5" stroke-linecap="round" stroke-linejoin="round" d="M587.3 301.3V297h-58.2v4.3h58.2"/><path fill="#E3EFD5" d="M572.6 295.6h-28V320h28v-24.3"/><path fill="none" stroke="#1A344F" stroke-width="2.5" stroke-linecap="round" stroke-linejoin="round" d="M572.6 295.6h-28V320h28v-24.3"/><path fill="#A5CD7B" d="M587.3 296v-4.4h-58.2v4.4h58.2"/><path fill="none" stroke="#1A344F" stroke-width="2.5" stroke-linecap="round" stroke-linejoin="round" d="M587.3 296v-4.4h-58.2v4.4h58.2"/><path fill="#A5CD7B" d="M587.3 291.6v-4.4h-58.2v4.4h58.2"/><path fill="none" stroke="#1A344F" stroke-width="2.5" stroke-linecap="round" stroke-linejoin="round" d="M587.3 291.6v-4.4h-58.2v4.4h58.2"/><path fill="#A5CD7B" d="M587.3 287.2v-4.4h-58.2v4.4h58.2"/><path fill="none" stroke="#1A344F" stroke-width="2.5" stroke-linecap="round" stroke-linejoin="round" d="M587.3 287.2v-4.4h-58.2v4.4h58.2"/><path fill="#A5CD7B" d="M587.3 282.8v-4.3h-58.2v4.3h58.2"/><path fill="none" stroke="#1A344F" stroke-width="2.5" stroke-linecap="round" stroke-linejoin="round" d="M587.3 282.8v-4.3h-58.2v4.3h58.2"/><path fill="#A5CD7B" d="M587.3 278.5V274h-58.2v4.5h58.2"/><path fill="none" stroke="#1A344F" stroke-width="2.5" stroke-linecap="round" stroke-linejoin="round" d="M587.3 278.5V274h-58.2v4.5h58.2"/><path fill="#E3EFD5" d="M572.6 297v-24.3h-28V297h28"/><path fill="none" stroke="#1A344F" stroke-width="2.5" stroke-linecap="round" stroke-linejoin="round" d="M572.6 297v-24.3h-28V297h28"/><path fill="#A5CD7B" d="M587.3 273v-4.3h-58.2v4.3h58.2"/><path fill="none" stroke="#1A344F" stroke-width="2.5" stroke-linecap="round" stroke-linejoin="round" d="M587.3 273v-4.3h-58.2v4.3h58.2"/><path fill="#A5CD7B" d="M587.3 268.7v-4.4h-58.2v4.4h58.2"/><path fill="none" stroke="#1A344F" stroke-width="2.5" stroke-linecap="round" stroke-linejoin="round" d="M587.3 268.7v-4.4h-58.2v4.4h58.2"/><path fill="#A5CD7B" d="M587.3 264.3V260h-58.2v4.4h58.2"/><path fill="none" stroke="#1A344F" stroke-width="2.5" stroke-linecap="round" stroke-linejoin="round" d="M587.3 264.3V260h-58.2v4.4h58.2"/><path fill="#A5CD7B" d="M587.3 259.9v-4.4h-58.2v4.4h58.2"/><path fill="none" stroke="#1A344F" stroke-width="2.5" stroke-linecap="round" stroke-linejoin="round" d="M587.3 259.9v-4.4h-58.2v4.4h58.2"/><path fill="#A5CD7B" d="M587.3 255.5v-4.4h-58.2v4.4h58.2"/><path fill="none" stroke="#1A344F" stroke-width="2.5" stroke-linecap="round" stroke-linejoin="round" d="M587.3 255.5v-4.4h-58.2v4.4h58.2"/><path fill="#E3EFD5" d="M572.6 249.8h-28V274h28v-24.2"/><path fill="none" stroke="#1A344F" stroke-width="2.5" stroke-linecap="round" stroke-linejoin="round" d="M572.6 249.8h-28V274h28v-24.2"/><path fill="#A5CD7B" d="M587.3 314.5v4.4h58.3v-4.4h-58.3"/><path fill="none" stroke="#1A344F" stroke-width="2.5" stroke-linecap="round" stroke-linejoin="round" d="M587.3 314.5v4.4h58.3v-4.4h-58.3"/><path fill="#A5CD7B" d="M587.3 310.1v4.4h58.3v-4.4h-58.3"/><path fill="none" stroke="#1A344F" stroke-width="2.5" stroke-linecap="round" stroke-linejoin="round" d="M587.3 310.1v4.4h58.3v-4.4h-58.3"/><path fill="#A5CD7B" d="M587.3 305.8v4.3h58.3v-4.3h-58.3"/><path fill="none" stroke="#1A344F" stroke-width="2.5" stroke-linecap="round" stroke-linejoin="round" d="M587.3 305.8v4.3h58.3v-4.3h-58.3"/><path fill="#A5CD7B" d="M587.3 301.3v4.5h58.3v-4.5h-58.3"/><path fill="none" stroke="#1A344F" stroke-width="2.5" stroke-linecap="round" stroke-linejoin="round" d="M587.3 301.3v4.5h58.3v-4.5h-58.3"/><path fill="#A5CD7B" d="M587.3 297v4.3h58.3V297h-58.3"/><path fill="none" stroke="#1A344F" stroke-width="2.5" stroke-linecap="round" stroke-linejoin="round" d="M587.3 297v4.3h58.3V297h-58.3"/><path fill="#E3EFD5" d="M603 295.6V320h27.8v-24.3H603"/><path fill="none" stroke="#1A344F" stroke-width="2.5" stroke-linecap="round" stroke-linejoin="round" d="M603 295.6V320h27.8v-24.3H603"/><path fill="#A5CD7B" d="M587.3 291.6v4.4h58.3v-4.4h-58.3"/><path fill="none" stroke="#1A344F" stroke-width="2.5" stroke-linecap="round" stroke-linejoin="round" d="M587.3 291.6v4.4h58.3v-4.4h-58.3"/><path fill="#A5CD7B" d="M587.3 287.2v4.4h58.3v-4.4h-58.3"/><path fill="none" stroke="#1A344F" stroke-width="2.5" stroke-linecap="round" stroke-linejoin="round" d="M587.3 287.2v4.4h58.3v-4.4h-58.3"/><path fill="#A5CD7B" d="M587.3 282.8v4.4h58.3v-4.4h-58.3"/><path fill="none" stroke="#1A344F" stroke-width="2.5" stroke-linecap="round" stroke-linejoin="round" d="M587.3 282.8v4.4h58.3v-4.4h-58.3"/><path fill="#A5CD7B" d="M587.3 278.5v4.3h58.3v-4.3h-58.3"/><path fill="none" stroke="#1A344F" stroke-width="2.5" stroke-linecap="round" stroke-linejoin="round" d="M587.3 278.5v4.3h58.3v-4.3h-58.3"/><path fill="#A5CD7B" d="M587.3 274v4.5h58.3V274h-58.3"/><path fill="none" stroke="#1A344F" stroke-width="2.5" stroke-linecap="round" stroke-linejoin="round" d="M587.3 274v4.5h58.3V274h-58.3"/><path fill="#E3EFD5" d="M603 272.7V297h27.8v-24.3H603"/><path fill="none" stroke="#1A344F" stroke-width="2.5" stroke-linecap="round" stroke-linejoin="round" d="M603 272.7V297h27.8v-24.3H603"/><path fill="#A5CD7B" d="M587.3 268.7v4.3h58.3v-4.3h-58.3"/><path fill="none" stroke="#1A344F" stroke-width="2.5" stroke-linecap="round" stroke-linejoin="round" d="M587.3 268.7v4.3h58.3v-4.3h-58.3"/><path fill="#A5CD7B" d="M587.3 264.3v4.4h58.3v-4.4h-58.3"/><path fill="none" stroke="#1A344F" stroke-width="2.5" stroke-linecap="round" stroke-linejoin="round" d="M587.3 264.3v4.4h58.3v-4.4h-58.3"/><path fill="#A5CD7B" d="M587.3 259.9v4.4h58.3V260h-58.3"/><path fill="none" stroke="#1A344F" stroke-width="2.5" stroke-linecap="round" stroke-linejoin="round" d="M587.3 259.9v4.4h58.3V260h-58.3"/><path fill="#A5CD7B" d="M587.3 255.5v4.4h58.3v-4.4h-58.3"/><path fill="none" stroke="#1A344F" stroke-width="2.5" stroke-linecap="round" stroke-linejoin="round" d="M587.3 255.5v4.4h58.3v-4.4h-58.3"/><path fill="#A5CD7B" d="M587.3 251.1v4.4h58.3v-4.4h-58.3"/><path fill="none" stroke="#1A344F" stroke-width="2.5" stroke-linecap="round" stroke-linejoin="round" d="M587.3 251.1v4.4h58.3v-4.4h-58.3"/><path fill="#E3EFD5" d="M603 249.8V274h27.8v-24.2H603"/><path fill="none" stroke="#1A344F" stroke-width="2.5" stroke-linecap="round" stroke-linejoin="round" d="M603 249.8V274h27.8v-24.2H603"/><path fill="#B3A58D" stroke="#19344F" stroke-width="2.5" stroke-linecap="round" stroke-linejoin="round" d="M515.2 319v7h144v-7h-144M542.6 333.1v-7h-18v7h18"/><path fill="#756A58" d="M542.6 327.7V326h-18v6l18-4.3"/><path fill="#B3A58D" stroke="#19344F" stroke-width="2.5" stroke-linecap="round" stroke-linejoin="round" d="M649.8 333.1v-7h-18v7h18"/><path fill="#756A58" d="M649.8 327.7V326h-18v6l18-4.3"/><path fill="none" stroke="#19344F" stroke-width="2.5" stroke-linecap="round" stroke-linejoin="round" d="M542.6 333.1v-7h-18v7h18M649.8 333.1v-7h-18v7h18"/></g></svg>