<?xml version="1.0"?>
<svg xmlns="http://www.w3.org/2000/svg" image-rendering="optimizeQuality" baseProfile="basic" width="695" height="434" viewBox="0 0 695 434" preserveAspectRatio="xMinYMin meet"><g overflow="visible"><path fill="#EDEDED" d="M696.801 435.25V0H.051v435.25h696.75"/><path fill="none" stroke="#A2AAAF" stroke-opacity=".29" stroke-width="2.5" stroke-linecap="round" stroke-linejoin="round" d="M81.65 117.3h43.05M75.65 123.3h26.05M64.25 123.3h5.15"/><path fill="none" stroke="#1A344F" stroke-width="2.5" stroke-linecap="round" stroke-linejoin="round" d="M156.001 379.45h399.8M137.801 379.45h7M179.401 388.45h327.4"/><path fill="#9CB3C4" fill-opacity=".322" stroke="#1A344F" stroke-opacity=".322" stroke-width="2.5" stroke-linecap="round" stroke-linejoin="round" d="M525 177.25q0-12.2-8.65-20.85-8.6-8.6-20.8-8.6-12.2 0-20.8 8.6-8.65 8.65-8.65 20.85 0 12.2 8.65 20.8 8.6 8.65 20.8 8.65 12.2 0 20.8-8.65 8.65-8.6 8.65-20.8"/><path fill="#9CB3C4" fill-opacity=".322" stroke="#1A344F" stroke-opacity=".322" stroke-width="2.5" stroke-linecap="round" stroke-linejoin="round" d="M495.55 199.7q9.3 0 15.9-6.55 6.55-6.6 6.55-15.9t-6.55-15.85q-6.6-6.6-15.9-6.6t-15.85 6.6q-6.6 6.55-6.6 15.85t6.6 15.9q6.55 6.55 15.85 6.55"/><path fill="none" stroke="#1A344F" stroke-opacity=".322" stroke-width="2.5" stroke-linecap="round" stroke-linejoin="round" d="M495.55 177.25l8.4 8.4m-8.4-8.4v-15.5"/><path fill="#E1F0F2" d="M442.001 250.45V70.3h-122.7v180.15h122.7"/><path fill="#E6B480" d="M364.551 250.05v-111.9h-31.35v111.9h31.35"/><path fill="#9DC2CC" d="M431.001 250.05V167.5h-19.35v82.55h19.35M398.551 109.6h-19.35v82.55h19.35V109.6"/><path fill="#9DC2CC" d="M395.851 151.15V91.8h-13.95v59.35h13.95"/><path fill="#9DC2CC" d="M407.901 124.95h-38.05v125.1h38.05v-125.1M435.851 196.9h-10.15v53.15h10.15V196.9"/><path fill="#95CDD1" d="M328.401 194.4v55.65h13.25V194.4h-13.25"/><path fill="#FFF" fill-opacity=".42" d="M401.55 90.7H387.5q.8-1.5.8-3.25 0-2.8-2-4.8t-4.8-2h-18.85q-2.8 0-4.8 2t-2 4.8v.2h-14.7q-3.05 0-5.25 2.15-2.15 2.2-2.15 5.25t2.15 5.2q2.2 2.15 5.25 2.15h25q2.3 0 4.2-1.3 1.8-1.25 2.65-3.3h28.55q1.45 0 2.5-1.05t1.05-2.5q0-1.45-1.05-2.5t-2.5-1.05"/><path fill="#FFF" d="M441.301 123q2.45 0 4.15-1.7 1.7-1.7 1.7-4.1 0-2.45-1.7-4.15-1.7-1.7-4.15-1.7h-11.6v-.15q0-2.2-1.55-3.8-1.6-1.55-3.8-1.55h-14.85q-2.2 0-3.8 1.55-1.55 1.6-1.55 3.8 0 1.45.65 2.55h-11.1q-1.15 0-2 .8-.8.85-.8 2t.8 2q.85.8 2 .8h22.5q.65 1.65 2.1 2.65 1.5 1 3.3 1h19.7"/><path fill="#FFF" fill-opacity=".471" d="M405.1 66.2h-7.15l-86.7 86.75v7.1L405.1 66.2M435.15 66.2H411.6L311.25 166.6v13.45l3.6 3.6h2.85L435.15 66.2"/><path fill="#FFF" d="M319.301 69.6h-8.6v181.1h8.6V69.6M450.601 69.6h-8.6v181.1l8.6 3.1V69.6"/><path fill="#FFF" d="M457.551 68.5v-5.05q0-.75-.5-1.25-.55-.55-1.3-.55h-150.95q-.75 0-1.25.55-.55.5-.55 1.25v5.05q0 .75.55 1.3.5.5 1.25.5h150.95q.75 0 1.3-.5.5-.55.5-1.3M450.801 184.55V180q0-.7-.45-1.15-.5-.5-1.15-.5h-136.85q-.65 0-1.15.5-.5.5-.5 1.15v4.55q0 .7.5 1.15.5.5 1.15.5h136.85q.65 0 1.15-.5.45-.45.45-1.15"/><path fill="#9D808B" stroke="#1A344F" stroke-width="2.5" stroke-linecap="round" stroke-linejoin="round" d="M159.601 229.1v24.6h252.9v-24.6h-252.9M159.601 254.05v21.1h252.9v-21.1h-252.9"/><path fill="#8A6683" stroke="#1A344F" stroke-width="2.5" stroke-linecap="round" stroke-linejoin="round" d="M412.501 275.6h-252.9v24.65h252.9V275.6"/><path fill="#459C96" stroke="#1A344F" stroke-width="2.5" stroke-linecap="round" stroke-linejoin="round" d="M177.501 226.2v-3.65h10.75V188.6h-22.85v33.95h10.85v3.65h-7.2q-.45 0-.75.3-.35.3-.35.75t.35.75q.3.3.75.3h15.65q.45 0 .8-.3.3-.3.3-.75t-.3-.75q-.35-.3-.8-.3h-7.2"/><path fill="#C4C7CB" stroke="#1A344F" stroke-width="2.5" stroke-linecap="round" stroke-linejoin="round" d="M176.851 201q-3.2 0-5.4 2.25-2.25 2.25-2.25 5.4 0 3.2 2.25 5.45 2.2 2.25 5.4 2.25 3.15 0 5.4-2.25 2.25-2.25 2.25-5.45 0-3.15-2.25-5.4-2.25-2.25-5.4-2.25M179.401 194.6q0-1.1-.75-1.85t-1.8-.75q-1.05 0-1.8.75t-.75 1.85q0 1.05.75 1.8t1.8.75q1.05 0 1.8-.75t.75-1.8"/><path fill="#A0B9C7" stroke="#1A344F" stroke-width="2.5" stroke-linecap="round" stroke-linejoin="round" d="M396.501 226.2v-3.65h10.75V188.6h-22.9v33.95h10.85v3.65h-7.2q-.45 0-.75.3-.35.3-.35.75t.35.75q.3.3.75.3h15.65q.45 0 .8-.3.3-.3.3-.75t-.3-.75q-.35-.3-.8-.3h-7.15"/><path fill="#C4C7CB" stroke="#1A344F" stroke-width="2.5" stroke-linecap="round" stroke-linejoin="round" d="M403.451 208.65q0-3.15-2.25-5.4-2.2-2.25-5.4-2.25t-5.4 2.25q-2.25 2.25-2.25 5.4 0 3.2 2.25 5.45 2.2 2.25 5.4 2.25t5.4-2.25q2.25-2.25 2.25-5.45M398.351 194.6q0-1.1-.75-1.85t-1.8-.75q-1.05 0-1.8.75t-.75 1.85q0 1.05.75 1.8t1.8.75q1.05 0 1.8-.75t.75-1.8"/><path fill="#5B838F" stroke="#1A344F" stroke-width="2.5" stroke-linecap="round" stroke-linejoin="round" d="M255.751 224.15v5.1h67.2v-5.1h-8.35v-8.8h49.1v-77.9h-148.7v77.9h49.15v8.8h-8.4"/><path fill="#F0F3F6" stroke="#1A344F" stroke-width="2.5" stroke-linecap="round" stroke-linejoin="round" d="M221.051 141.85V201h136.65v-59.15h-136.65"/><path fill="#9CB3C4" d="M474.451 254.7v18.95q0 .7.45 1.15.5.5 1.15.5h18.95q.7 0 1.15-.5.5-.45.5-1.15V254.7q0-.65-.5-1.15-.45-.45-1.15-.45h-18.95q-.65 0-1.15.45-.45.5-.45 1.15"/><path fill="#B6BABC" d="M475.651 254.3q-.5.5-.5 1.15v17.45q0 .7.5 1.15.5.5 1.15.5h17.45q.7 0 1.15-.5.5-.45.5-1.15v-17.45q0-.65-.5-1.15-.45-.5-1.15-.5h-17.45q-.65 0-1.15.5m.2.25q.4-.4.95-.4h17.45q.55 0 .95.4.4.35.4.9v17.45q0 .55-.4.95-.4.4-.95.4h-17.45q-.55 0-.95-.4-.4-.4-.4-.95v-17.45q0-.5.4-.9"/><path fill="#7B8B8C" d="M480.601 259.6q-1.55 1.8-1.55 4.2 0 2.4 1.55 4.2 1.5 1.8 3.75 2.2v-1.05q0-.3.3-.3h1.7q.25 0 .25.3v1.05q2.35-.4 3.9-2.15 1.55-1.85 1.55-4.25t-1.55-4.25q-1.55-1.75-3.9-2.15v1q0 .3-.25.3h-1.7q-.3 0-.3-.3v-1q-2.25.4-3.75 2.2"/><path fill="#4F5A68" d="M487.351 262.75q-.45.4-.45 1.05 0 .6.45 1.05.4.4 1.05.4.6 0 1.05-.4.4-.45.4-1.05 0-.65-.4-1.05-.45-.45-1.05-.45-.65 0-1.05.45M481.451 262.75q-.45.4-.45 1.05 0 .6.45 1.05.4.4 1.05.4.6 0 1.05-.4.4-.45.4-1.05 0-.65-.4-1.05-.45-.45-1.05-.45-.65 0-1.05.45"/><path fill="#1A344F" d="M478.501 266.3q.6.6 1.45.6h10.05q.85 0 1.45-.6t.6-1.45v-1.2q0-.85-.6-1.45t-1.45-.6h-10.05q-.85 0-1.45.6t-.6 1.45v1.2q0 .85.6 1.45"/><path fill="none" stroke="#1A344F" stroke-width="2.5" stroke-linecap="round" stroke-linejoin="round" d="M428.701 261.7q2.85 2.9 6.95 2.9h46.85m-53.8-2.9q-2.9-2.85-2.9-6.95v-5.2q0-5.5-3.9-9.4-3.9-3.9-9.4-3.9M137.801 299.9h31.4M543.801 297.6h8M474.751 297.6h57.05"/><g style="display:none"><g transform="matrix(.005 0 0 .017 289.3 172.75)"><animateTransform attributeName="transform" additive="replace" type="translate" repeatCount="indefinite" dur="4.542s" keyTimes="0;0.349;0.358;0.367;0.376;0.385;0.394;1" values="289.3,172.75;289.3,172.75;289.25,172.75;289.3,172.75;289.3,172.75;289.25,172.75;289.3,172.75;289.3,172.75" calcMode="discrete"/><animateTransform attributeName="transform" additive="sum" type="scale" repeatCount="indefinite" dur="4.542s" keyTimes="0;0.312;0.321;0.33;0.339;0.349;0.358;0.367;0.376;0.385;0.394;0.404;0.413;0.422;0.431;0.44;0.45;0.908;0.917;0.927;0.936;0.945;0.954;0.963;0.972;0.982;0.991;0.999;1" values="0.005,0.017;0.005,0.017;0.133,0.143;0.252,0.261;0.363,0.371;0.465,0.471;0.558,0.563;0.642,0.646;0.717,0.72;0.783,0.786;0.841,0.843;0.889,0.891;0.929,0.93;0.96,0.961;0.982,0.983;0.996,0.996;1,1;1,1;0.9,0.902;0.801,0.803;0.701,0.705;0.602,0.607;0.502,0.508;0.403,0.41;0.303,0.312;0.204,0.213;0.104,0.115;0.005,0.017;0.005,0.017" calcMode="discrete"/><path fill="#9CB3C4" d="M-52.399-14.95v29.9h31.7v-29.9h-31.7M15.951-14.95h-31.75v29.9h31.75v-29.9M20.801 14.95h31.75v-29.9h-31.75v29.9"/><path fill="#FFF" d="M.051-10.75h-7.55v21.5h8.65l3.65-.75q3.6-1.5 3.6-5.3.05-1.05-.55-2.25Q6.751.1 3.701-.7l1.4-.95q1.35-1.4 1.35-3.35.1-1.25-.65-2.65-1.5-2.7-5.75-3.1m-.65 3.35q2.05.1 2.75 1.35.4.6.35 1.2 0 1.85-1.75 2.6l-1.8.4h-2.6V-7.4h3.05m1 8.95q2.6 0 3.6 1.4.5.7.45 1.4 0 2.05-2 2.75l-2.05.35h-4.05v-5.9h4.05M-30.799-7.65q-1.5-2.7-5.75-3.1h-7.55v21.5h8.65l3.65-.75q3.6-1.5 3.6-5.3.05-1.05-.55-2.25-1.1-2.35-4.15-3.15l1.4-.95q1.35-1.4 1.35-3.35.1-1.25-.65-2.65m-1.8 10.6q.5.7.45 1.4 0 2.05-2 2.75l-2.05.35h-4.05v-5.9h4.05q2.6 0 3.6 1.4m-1.5-7.8q0 1.85-1.75 2.6l-1.8.4h-2.6V-7.4h3.1q2 .1 2.75 1.35.35.6.3 1.2M30.451 3.65l-.9-3.65q.2-4.85 4.3-6.75 2.05-.95 4.05-.9 2.7.05 5.7 1.2 1.5.6 2.45 1.2V-9.2q-2.2-.9-4.3-1.4l-1.65-.3q-2.55-.25-4.65.1l-1.65.35q-5.3 1.65-7.3 6.2L25.551 0q.15 4.75 3.4 7.85 1.6 1.5 3.2 2.1 4.75 1.85 9.9.65 2.6-.6 4.2-1.55v-4.1q-3.05 1.95-6.05 2.5l-2.4.15q-5.35-.25-7.35-3.95"/></g><animate attributeName="display" repeatCount="indefinite" dur="4.542s" keyTimes="0;0.312;1" values="none;inline;inline"/></g><g transform="translate(348.5 224.15)"><animateTransform attributeName="transform" additive="replace" type="translate" dur="4.542s" keyTimes="0;1" values="0,0;0,0" fill="freeze"/><animateTransform attributeName="transform" additive="sum" type="translate" repeatCount="indefinite" dur="4.542s" keyTimes="0;0.128;0.138;0.147;0.156;0.165;0.174;0.183;0.193;0.202;0.211;0.22;0.477;0.486;0.495;0.505;0.514;0.523;0.532;0.541;0.55;0.56;0.569;0.816;0.826;0.835;0.844;0.853;0.862;0.87;0.871;1" values="348.5,224.15;348.5,224.15;348.5,223;348.5,221.9;348.5,220.75;348.5,219.65;348.5,218.5;348.5,217.35;348.5,216.25;348.5,215.1;348.5,214;348.5,212.85;348.5,212.85;348.5,218.4;348.5,223.9;348.5,229.45;348.5,234.95;348.5,240.5;348.5,246;348.5,251.55;348.5,257.05;348.5,262.55;348.5,268.1;348.5,268.1;348.5,263.7;348.5,259.3;348.5,254.9;348.5,250.5;348.5,246.15;348.5,241.75;0;0" calcMode="discrete"/><animateTransform attributeName="transform" additive="sum" type="translate" repeatCount="indefinite" dur="4.542s" keyTimes="0;0.871;0.881;0.89;0.899;0.908;1" values="0;348.5,241.75;348.5,237.35;348.5,232.95;348.5,228.55;348.5,224.15;348.5,224.15" calcMode="discrete"/><path fill="#FFF" d="M4.95-31.4Q.611-27.018 0-21.125q-.1.969-.1 1.975V36.5h49.4v-72.95H17.15q-7.15 0-12.2 5.05"/><path fill="#F0F3F6" stroke-width="2.5" stroke-linecap="round" stroke-linejoin="round" d="M24.6-29.65v14.55h18.5v-14.55H24.6"/><path fill="#FFF" d="M8.2-7.55h34.9H8.2M8.2-.85h34.9H8.2M8.2 5.8h34.9H8.2M8.2 12.5h23.55H8.2M-4.95-31.4q-5.05-5.05-12.2-5.05H-49.3V36.5H-.1v-55.65q0-1.006.1-1.975-.611-5.893-4.95-10.275M-39.05-26.5h27.35-27.35M-39.05-19.25h22.85-22.85M-39.05-12.05h27.35-27.35M-39.05-4.8h27.35-27.35M-39.05 2.45h27.35-27.35M-39.05 9.65h27.35-27.35M-39.05 16.9h14.45-14.45"/><path fill="none" stroke="#1A344F" stroke-width="2.5" stroke-linecap="round" stroke-linejoin="round" d="M0-21.125Q-.611-27.018-4.95-31.4q-5.05-5.05-12.2-5.05H-49.3V36.5h98.6v-72.95H17.15q-7.15 0-12.2 5.05Q.611-27.018 0-21.125"/><path fill="none" stroke="#1A344F" stroke-width="2.5" stroke-linecap="round" stroke-linejoin="round" d="M0-21.125q-.1.969-.1 1.975V36.5M24.6-29.65v14.55h18.5v-14.55H24.6M8.2-7.55h34.9M8.2-.85h34.9M8.2 5.8h34.9M8.2 12.5h23.55M-39.05-26.5h27.35M-39.05-19.25h22.85M-39.05-12.05h27.35M-39.05-4.8h27.35M-39.05 2.45h27.35M-39.05 9.65h27.35M-39.05 16.9h14.45"/></g><path fill="#1A344F" d="M209.051 346.1q-.65.65-.65 1.6v28.8q0 1 .65 1.65.7.65 1.65.65h6q.95 0 1.6-.65.65-.7.65-1.65v-28.8q0-.95-.65-1.6-.65-.65-1.6-.65h-6q-.95 0-1.65.65M453.151 346.1q-.7.65-.7 1.6v28.8q0 .95.7 1.65.65.65 1.6.65h6q.95 0 1.6-.65.7-.7.7-1.65v-28.8q0-.95-.7-1.6-.65-.65-1.6-.65h-6q-.95 0-1.6.65"/><path fill="#C4C7CB" d="M332.301 234.4q-11.05 0-18.85 7.8-7.8 7.8-7.8 18.85h88q0-11.05-7.8-18.85-7.85-7.8-18.9-7.8h-34.65"/><path fill="none" stroke="#1A344F" stroke-width="2.5" stroke-linecap="round" stroke-linejoin="round" d="M313.451 242.2q7.8-7.8 18.85-7.8h34.65q11.05 0 18.9 7.8 7.8 7.8 7.8 18.85m-80.2-18.85q-7.8 7.8-7.8 18.85"/><path fill="#CB7E8F" stroke="#1A344F" stroke-width="2.5" stroke-linecap="round" stroke-linejoin="round" d="M451.951 262.75q0-5.4-3.85-9.25-3.85-3.85-9.25-3.85h-206.55q-5.45 0-9.3 3.85-3.85 3.85-3.85 9.25v74.3q0 5.4 3.85 9.25 3.85 3.85 9.3 3.85h206.55q5.4 0 9.25-3.85 3.85-3.85 3.85-9.25v-74.3"/><path fill="#B8576A" d="M196.901 292.75q-.55.55-.55 1.3v41.1q0 .75.55 1.3t1.3.55h21v-42.95q0-.75-.55-1.3t-1.3-.55h-19.15q-.75 0-1.3.55"/><path fill="#B8576A" d="M219.201 337v.65h232.7V337h-232.7M474.751 294.05q0-.75-.55-1.3t-1.3-.55h-19.15q-.75 0-1.3.55t-.55 1.3V337h21q.75 0 1.3-.55t.55-1.3v-41.1"/><path fill="none" stroke="#1A344F" stroke-width="2.5" stroke-linecap="round" stroke-linejoin="round" d="M196.351 294.05v41.1q0 .75.55 1.3t1.3.55h21v.65h232.7V337h21q.75 0 1.3-.55t.55-1.3v-41.1q0-.75-.55-1.3t-1.3-.55h-19.15q-.75 0-1.3.55t-.55 1.3V337h-232.7v-42.95q0-.75-.55-1.3t-1.3-.55h-19.15q-.75 0-1.3.55t-.55 1.3"/><path fill="#AE4A5A" stroke="#1A344F" stroke-width="2.5" stroke-linecap="round" stroke-linejoin="round" d="M198.651 336.2q-.95 0-1.6.7-.7.65-.7 1.6V349q0 .95.7 1.6.65.7 1.6.7h273.8q.95 0 1.6-.7.7-.65.7-1.6v-10.5q0-.95-.7-1.6-.65-.7-1.6-.7h-273.8"/><path fill="none" stroke="#1A344F" stroke-width="2.5" stroke-linecap="round" stroke-linejoin="round" d="M263.601 265.25h143.9"/><g transform="rotate(-11.48 1241.59 -1614.233)"><animateTransform attributeName="transform" additive="replace" type="translate" dur="4.542s" keyTimes="0;1" values="0,0;0,0" fill="freeze"/><animateTransform attributeName="transform" additive="sum" type="translate" repeatCount="indefinite" dur="4.542s" keyTimes="0;0.009;0.119;0.128;0.138;0.147;0.156;0.165;0.174;0.183;0.193;0.202;0.211;0.22;0.229;0.468;0.477;0.486;0.495;0.505;0.514;0.523;0.532;0.541;0.55;0.56;0.569;0.578;0.587;0.595;0.596;1" values="349.86,239.853;349.831,239.791;349.831,239.791;349.86,239.853;349.853,239.874;349.909,239.775;349.812,239.848;349.856,239.768;349.856,239.799;349.811,239.831;349.854,239.87;349.798,239.912;349.807,239.867;349.78,239.799;349.778,239.824;349.778,239.824;349.78,239.799;349.78,239.85;349.874,239.81;349.861,239.867;349.749,239.846;349.845,239.853;349.847,239.81;349.844,239.839;349.833,239.874;349.926,239.856;349.832,239.776;349.828,239.805;349.823,239.866;349.872,239.882;0;0" calcMode="discrete"/><animateTransform attributeName="transform" additive="sum" type="translate" repeatCount="indefinite" dur="4.542s" keyTimes="0;0.596;0.605;0.615;0.624;0.633;0.807;0.816;0.826;0.835;0.844;0.853;0.862;0.871;0.881;0.89;0.899;0.908;1" values="0;349.872,239.882;349.814,239.839;349.864,239.898;349.816,239.849;349.804,239.849;349.804,239.849;349.816,239.849;349.786,239.889;349.859,239.87;349.787,239.839;349.865,239.899;349.881,239.842;349.948,239.838;349.838,239.913;349.854,239.84;349.908,239.824;349.86,239.853;349.86,239.853" calcMode="discrete"/><animateTransform attributeName="transform" additive="sum" type="rotate" repeatCount="indefinite" dur="4.542s" keyTimes="0;0.009;0.119;0.128;0.138;0.147;0.156;0.165;0.174;0.183;0.193;0.202;0.211;0.22;0.229;0.468;0.477;0.486;0.495;0.505;0.514;0.523;0.532;0.541;0.55;0.56;0.569;0.578;0.587;0.595;0.596;1" values="-11.443,0,0;-11.306,0,0;-11.306,0,0;-11.443,0,0;-9.053,0,0;-6.801,0,0;-4.549,0,0;-2.299,0,0;-0.048,0,0;2.013,0,0;4.264,0,0;6.515,0,0;8.767,0,0;11.051,0,0;11.019,0,0;11.019,0,0;11.051,0,0;10.281,0,0;9.543,0,0;8.805,0,0;8.255,0,0;7.515,0,0;6.78,0,0;6.04,0,0;5.303,0,0;4.753,0,0;4.015,0,0;3.277,0,0;2.54,0,0;1.802,0,0;0;0" calcMode="discrete"/><animateTransform attributeName="transform" additive="sum" type="rotate" repeatCount="indefinite" dur="4.542s" keyTimes="0;0.596;0.605;0.615;0.624;0.633;0.807;0.816;0.826;0.835;0.844;0.853;0.862;0.871;0.881;0.89;0.899;0.908;1" values="0;1.802,0,0;1.252,0,0;0.515,0,0;-0.139,0,0;-0.035,0,0;-0.035,0,0;-0.139,0,0;-1.254,0,0;-2.288,0,0;-3.508,0,0;-4.541,0,0;-5.762,0,0;-6.795,0,0;-8.017,0,0;-9.05,0,0;-10.271,0,0;-11.443,0,0;-11.443,0,0" calcMode="discrete"/><animateTransform attributeName="transform" additive="sum" type="scale" repeatCount="indefinite" dur="4.542s" keyTimes="0;0.156;0.165;0.193;0.202;0.56;0.569;0.595;0.596;1" values="0.999,0.999;0.999,0.999;1,1;1,1;0.999,0.999;0.999,0.999;1,1;1,1;1;1" calcMode="discrete"/><animateTransform attributeName="transform" additive="sum" type="scale" repeatCount="indefinite" dur="4.542s" keyTimes="0;0.596;0.844;0.853;1" values="1;1,1;1,1;0.999,0.999;0.999,0.999" calcMode="discrete"/><animateTransform attributeName="transform" additive="sum" type="translate" repeatCount="indefinite" dur="4.542s" keyTimes="0;0.009;0.119;0.128;0.138;0.147;0.156;0.165;0.174;0.183;0.193;0.202;0.211;0.22;0.229;0.468;0.477;0.495;0.505;0.514;0.523;0.532;0.541;0.55;0.56;0.569;0.578;0.587;0.595;0.596;1" values="-0.05,-26.85;-0.05,-26.8;-0.05,-26.8;-0.05,-26.85;-0.1,-26.85;-0.15,-26.85;-0.05,-26.85;-0.1,-26.75;-0.1,-26.8;-0.1,-26.85;-0.1,-26.9;-0.05,-26.95;-0.05,-26.9;-0.05,-26.8;0,-26.85;0,-26.85;-0.05,-26.8;-0.05,-26.8;-0.05,-26.85;0,-26.85;-0.05,-26.85;-0.15,-26.8;-0.05,-26.8;-0.05,-26.9;-0.15,-26.85;-0.05,-26.75;-0.15,-26.8;0,-26.85;-0.05,-26.9;0;0" calcMode="discrete"/><animateTransform attributeName="transform" additive="sum" type="translate" repeatCount="indefinite" dur="4.542s" keyTimes="0;0.596;0.605;0.615;0.624;0.816;0.826;0.835;0.844;0.853;0.862;0.871;0.881;0.89;0.899;0.908;1" values="0;-0.05,-26.9;0,-26.85;-0.05,-26.9;-0.05,-26.8;-0.05,-26.8;0,-26.8;-0.05,-26.85;0,-26.8;-0.05,-26.9;-0.05,-26.75;-0.05,-26.75;0,-26.85;0,-26.85;-0.1,-26.75;-0.05,-26.85;-0.05,-26.85" calcMode="discrete"/><path fill="#EBB192" stroke="#1A344F" stroke-width="2.5" stroke-linecap="round" stroke-linejoin="round" d="M-18.699-16.8q-4.85 6.4-3.8 14.3l.8 3.9q-1.85.9-3 2.65-1.15 1.8-1.15 3.95 0 3 2.15 5.15 2.1 2.1 5.1 2.1h.3q2.6 5.65 8.1 8.75 5.6 3.1 11.95 2.25l2.65-.35q6.3-.85 10.85-5.25 4.45-4.3 5.6-10.4 2.25-.7 3.7-2.6 1.45-1.95 1.45-4.35 0-2.5-1.55-4.5-1.55-1.95-3.95-2.55l-.25-4.45q-1.05-7.95-7.4-12.8-6.35-4.85-14.3-3.8l-4.5.6q-7.9 1.05-12.75 7.4"/><path fill="#A08B76" stroke="#1A344F" stroke-width="2.5" stroke-linecap="round" stroke-linejoin="round" d="M-22.499-2.5q2.45 0 4.15 1.75 1.75 1.7 1.75 4.15 0 2.4 1.7 4.1 1.7 1.7 4.05 1.7h22.1q2.1 0 3.6-1.5t1.5-3.6q0-2.35 1.65-4t4-1.65V-12.8q0-5.6-4-9.6-3.95-4-9.6-4h-15.75q-6.25 0-10.7 4.45-4.45 4.45-4.45 10.75v8.7"/></g></g></svg>
