<svg xmlns:xlink="http://www.w3.org/1999/xlink" xmlns="http://www.w3.org/2000/svg" baseProfile="basic" width="695" height="443" viewBox="0 0 695 443" preserveAspectRatio="xMinYMin meet"><g overflow="visible"><path fill="#DBDBDB" d="M698.401 450.751v-90.8H.051v90.8h698.35"/><path fill="#D56871" stroke="#1A344F" stroke-width="2.5" stroke-linecap="round" stroke-linejoin="round" d="M710.701 362.101V.051h-730.7v362.05h730.7"/><path fill="#CFC1B4" stroke="#1A344F" stroke-width="2.5" stroke-linecap="round" stroke-linejoin="round" d="M-125.949 76.151v11h31.35v-11h-31.35"/><path fill="#D2917A" stroke="#1A344F" stroke-width="2.5" stroke-linecap="round" stroke-linejoin="round" d="M-10.999 87.151v-11h-31.35v11h31.35"/><path fill="#CFC1B4" stroke="#1A344F" stroke-width="2.5" stroke-linecap="round" stroke-linejoin="round" d="M-136.049 100.501v11.05h31.35v-11.05h-31.35M-21.049 111.551v-11.05h-31.35v11.05h31.35M72.251 87.151v-11h-31.35v11h31.35M82.701 76.151v11h31.35v-11h-31.35M20.351 100.501h-31.35v11.05h31.35v-11.05"/><path fill="#D2917A" stroke="#1A344F" stroke-width="2.5" stroke-linecap="round" stroke-linejoin="round" d="M104.001 100.501h-31.35v11.05h31.35v-11.05"/><path fill="#CFC1B4" stroke="#1A344F" stroke-width="2.5" stroke-linecap="round" stroke-linejoin="round" d="M145.801 111.551v-11.05h-31.35v11.05h31.35M26.651 209.901v11.05h31.35v-11.05h-31.35M99.801 220.951v-11.05h-31.35v11.05h31.35M6.151 245.351v-11.05h-31.4v11.05h31.4"/><path fill="#D2917A" stroke="#1A344F" stroke-width="2.5" stroke-linecap="round" stroke-linejoin="round" d="M89.751 245.351v-11.05h-31.35v11.05h31.35"/><path fill="#CFC1B4" stroke="#1A344F" stroke-width="2.5" stroke-linecap="round" stroke-linejoin="round" d="M131.551 245.351v-11.05h-31.35v11.05h31.35"/><path fill="none" stroke="#1A344F" stroke-width="2.5" stroke-linecap="round" stroke-linejoin="round" d="M71.151 413.7h246.5M48.651 413.7h10.2M376.451 422.7h8.8M183.151 422.7h180.65"/><path fill="#B85865" d="M698.151 7.85V0H.051v7.85h698.1"/><path fill="none" stroke="#1A344F" stroke-width="2.5" stroke-linecap="round" stroke-linejoin="round" d="M363.301 15.7h56"/><path fill="#D2917A" stroke="#1A344F" stroke-width="2.5" stroke-linecap="round" stroke-linejoin="round" d="M644.001 38.651v-11h-31.35v11h31.35"/><path fill="#CFC1B4" stroke="#1A344F" stroke-width="2.5" stroke-linecap="round" stroke-linejoin="round" d="M685.801 38.651v-11h-31.35v11h31.35"/><path fill="#A2664C" stroke="#1A344F" stroke-width="2.5" stroke-linecap="round" stroke-linejoin="round" d="M320.351 62.751v-11h-31.35v11h31.35"/><path fill="#D2917A" stroke="#1A344F" stroke-width="2.5" stroke-linecap="round" stroke-linejoin="round" d="M362.151 62.751v-11h-31.35v11h31.35M310.251 87.151v-11.05h-31.35v11.05h31.35"/><path fill="#CFC1B4" stroke="#1A344F" stroke-width="2.5" stroke-linecap="round" stroke-linejoin="round" d="M320.751 76.101v11.05h31.35v-11.05h-31.35M445.401 51.751h-31.35v11h31.35v-11"/><path fill="#D2917A" stroke="#1A344F" stroke-width="2.5" stroke-linecap="round" stroke-linejoin="round" d="M529.001 51.751h-31.35v11h31.35v-11"/><path fill="#CFC1B4" stroke="#1A344F" stroke-width="2.5" stroke-linecap="round" stroke-linejoin="round" d="M403.951 76.101v11.05h31.35v-11.05h-31.35M487.601 76.101v11.05h31.35v-11.05h-31.35M612.251 51.751h-31.35v11h31.35v-11M654.051 51.751h-31.35v11h31.35v-11M529.001 76.101v11.05h31.35v-11.05h-31.35"/><path fill="#D2917A" stroke="#1A344F" stroke-width="2.5" stroke-linecap="round" stroke-linejoin="round" d="M644.001 87.151v-11.05h-31.35v11.05h31.35"/><path fill="#CFC1B4" stroke="#1A344F" stroke-width="2.5" stroke-linecap="round" stroke-linejoin="round" d="M654.451 76.101v11.05h31.35v-11.05h-31.35M208.901 51.751v11h31.35v-11h-31.35"/><path fill="#A2664C" stroke="#1A344F" stroke-width="2.5" stroke-linecap="round" stroke-linejoin="round" d="M320.351 111.251v-11.05h-31.35v11.05h31.35"/><path fill="#D2917A" stroke="#1A344F" stroke-width="2.5" stroke-linecap="round" stroke-linejoin="round" d="M362.151 100.201h-31.35v11.05h31.35v-11.05"/><path fill="#CFC1B4" stroke="#1A344F" stroke-width="2.5" stroke-linecap="round" stroke-linejoin="round" d="M195.301 124.601v11.05h31.35v-11.05h-31.35"/><path fill="#D2917A" stroke="#1A344F" stroke-width="2.5" stroke-linecap="round" stroke-linejoin="round" d="M278.901 124.601v11.05h31.35v-11.05h-31.35"/><path fill="#CFC1B4" stroke="#1A344F" stroke-width="2.5" stroke-linecap="round" stroke-linejoin="round" d="M352.101 135.651v-11.05h-31.35v11.05h31.35M445.401 100.201h-31.35v11.05h31.35v-11.05"/><path fill="#D2917A" stroke="#1A344F" stroke-width="2.5" stroke-linecap="round" stroke-linejoin="round" d="M529.001 100.201h-31.35v11.05h31.35v-11.05"/><path fill="#CFC1B4" stroke="#1A344F" stroke-width="2.5" stroke-linecap="round" stroke-linejoin="round" d="M518.951 135.651v-11.05h-31.35v11.05h31.35M529.001 124.601v11.05h31.35v-11.05h-31.35"/><path fill="#A2664C" stroke="#1A344F" stroke-width="2.5" stroke-linecap="round" stroke-linejoin="round" d="M289.001 148.701v11h31.35v-11h-31.35"/><path fill="#D2917A" stroke="#1A344F" stroke-width="2.5" stroke-linecap="round" stroke-linejoin="round" d="M362.151 159.701v-11h-31.35v11h31.35"/><path fill="#CFC1B4" stroke="#1A344F" stroke-width="2.5" stroke-linecap="round" stroke-linejoin="round" d="M195.301 173.101v11h31.35v-11h-31.35"/><path fill="#D2917A" stroke="#1A344F" stroke-width="2.5" stroke-linecap="round" stroke-linejoin="round" d="M278.901 173.101v11h31.35v-11h-31.35"/><path fill="#CFC1B4" stroke="#1A344F" stroke-width="2.5" stroke-linecap="round" stroke-linejoin="round" d="M320.751 173.101v11h31.35v-11h-31.35M445.401 148.701h-31.35v11h31.35v-11"/><path fill="#D2917A" stroke="#1A344F" stroke-width="2.5" stroke-linecap="round" stroke-linejoin="round" d="M529.001 148.701h-31.35v11h31.35v-11"/><path fill="#CFC1B4" stroke="#1A344F" stroke-width="2.5" stroke-linecap="round" stroke-linejoin="round" d="M403.951 173.101v11h31.35v-11h-31.35M487.601 173.101v11h31.35v-11h-31.35M654.051 148.701h-31.35v11h31.35v-11M529.001 173.101v11h31.35v-11h-31.35"/><path fill="#D2917A" stroke="#1A344F" stroke-width="2.5" stroke-linecap="round" stroke-linejoin="round" d="M612.651 173.101v11h31.35v-11h-31.35"/><path fill="#74A2A9" stroke="#1A344F" stroke-width="2.5" stroke-linecap="round" stroke-linejoin="round" d="M479.701 32.601v158.65h90.35V32.601h-90.35"/><path fill="none" stroke="#1A344F" stroke-width="2.5" stroke-linecap="round" stroke-linejoin="round" d="M571.051 93.851h-91.35M479.701 174.201h90.35"/><path fill="#F2E5D7" stroke="#1A344F" stroke-width="2.5" stroke-linecap="round" stroke-linejoin="round" d="M471.701 174.201v18h104.95v-18h-104.95"/><path fill="#B3FFFF" stroke="#1A344F" stroke-width="2.5" stroke-linecap="round" stroke-linejoin="round" d="M479.701 32.601v61.25h91.35v-61.25h-91.35"/><path fill="none" stroke="#19344F" stroke-width="2.5" stroke-linecap="round" stroke-linejoin="round" d="M479.701 85.05h91.35"/><path fill="#618A8E" stroke="#1A344F" stroke-width="2.5" stroke-linecap="round" stroke-linejoin="round" d="M557.301 174.05l-3-19.35h-14.35l-2 19.35h19.35"/><path fill="none" stroke="#1A344F" stroke-width="2.5" stroke-linecap="round" stroke-linejoin="round" d="M546.651 154.7v-23m0 23l-8.7-11.5M557.301 143.2l-10.65 11.5"/><path fill="#5D8889" stroke="#1A344F" stroke-width="2.5" stroke-linecap="round" stroke-linejoin="round" d="M554.201 128.65q0-2.9-2.05-4.9-2.05-2.05-4.9-2.05-2.9 0-4.9 2.05-2.05 2-2.05 4.9 0 2.85 2.05 4.9 2 2.05 4.9 2.05 2.85 0 4.9-2.05 2.05-2.05 2.05-4.9M542.901 143.2q0-2.9-2.05-4.9-2-2.05-4.9-2.05-2.85 0-4.9 2.05-2.05 2-2.05 4.9 0 2.9 2.05 4.9 2.05 2.05 4.9 2.05 2.9 0 4.9-2.05 2.05-2 2.05-4.9M565.251 142.65q0-2.9-2.05-4.9-2-2.05-4.9-2.05-2.9 0-4.9 2.05-2.05 2-2.05 4.9 0 2.85 2.05 4.9 2 2.05 4.9 2.05 2.9 0 4.9-2.05 2.05-2.05 2.05-4.9"/><path fill="#5D8889" d="M503.301 111.05h-21.6v62h21.6v-62"/><path fill="none" stroke="#1A344F" stroke-width="2.5" stroke-linecap="round" stroke-linejoin="round" d="M593.951 117.7h68.7"/><path fill="#B6B3A9" d="M704.85 363.8V245.6h-520.5v118.2h520.5"/><path fill="#A6A399" d="M444.901 264.05q-7.45-6.85-13.7-13.35l-4.75-5.1v123.3l248.85-5.1q-90.85 0-178.95-59.1-27.5-18.45-51.45-40.65"/><path fill="none" stroke="#1A344F" stroke-width="2.5" stroke-linecap="round" stroke-linejoin="round" d="M704.85 363.8V245.6h-520.5v118.2h520.5"/><path fill="#FFF" stroke="#1A344F" stroke-width="2.5" stroke-linecap="round" stroke-linejoin="round" d="M673.951 278.401h-55.3v69.35h55.3v-69.35"/><path fill="#FFF" stroke="#1A344F" stroke-width="2.5" stroke-linecap="round" stroke-linejoin="round" d="M655.301 298.751h12.15v-13.5h-12.15v13.5"/><path fill="none" stroke="#1A344F" stroke-width="2.5" stroke-linecap="round" stroke-linejoin="round" d="M632.301 285.251h16.85M632.301 289.751h16.85M632.301 294.251h16.85M632.301 298.751h11.5M623.651 336.401h46M623.651 340.401h36M654.151 311.251h14.3M654.151 315.401h14.3M654.151 319.601h14.3M654.151 323.751h14.3M654.151 327.901h11"/><path fill="#FFF" stroke="#1A344F" stroke-width="2.5" stroke-linecap="round" stroke-linejoin="round" d="M621.301 330.251h28.35v-23.15h-28.35v23.15"/><path fill="#CFC1B4" stroke="#1A344F" stroke-width="2.5" stroke-linecap="round" stroke-linejoin="round" d="M278.551 197.151h-31.4v11.05h31.4v-11.05"/><path fill="#A2664C" stroke="#1A344F" stroke-width="2.5" stroke-linecap="round" stroke-linejoin="round" d="M320.351 197.151h-31.35v11.05h31.35v-11.05"/><path fill="#D2917A" stroke="#1A344F" stroke-width="2.5" stroke-linecap="round" stroke-linejoin="round" d="M362.151 197.151h-31.35v11.05h31.35v-11.05"/><path fill="#CFC1B4" stroke="#1A344F" stroke-width="2.5" stroke-linecap="round" stroke-linejoin="round" d="M403.951 197.151h-31.35v11.05h31.35v-11.05M226.651 232.601v-11.05h-31.35v11.05h31.35"/><path fill="#A2664C" stroke="#1A344F" stroke-width="2.5" stroke-linecap="round" stroke-linejoin="round" d="M268.451 232.601v-11.05h-31.35v11.05h31.35"/><path fill="#D2917A" stroke="#1A344F" stroke-width="2.5" stroke-linecap="round" stroke-linejoin="round" d="M310.251 232.601v-11.05h-31.35v11.05h31.35"/><path fill="#CFC1B4" stroke="#1A344F" stroke-width="2.5" stroke-linecap="round" stroke-linejoin="round" d="M352.101 232.601v-11.05h-31.35v11.05h31.35M670.101 197.151h-31.35v11.05h31.35v-11.05M393.501 232.601v-11.05h-31.35v11.05h31.35M518.951 232.601v-11.05h-31.35v11.05h31.35M560.351 232.601v-11.05h-31.35v11.05h31.35"/><path fill="#E56C6C" stroke="#19344F" stroke-width="2.5" stroke-linecap="round" stroke-linejoin="round" d="M638.751 318.9v-4.45h-6.9v4.45h-2.05l5.5 6.4 5.45-6.4h-2"/><path fill="#CFC1B4" stroke="#1A344F" stroke-width="2.5" stroke-linecap="round" stroke-linejoin="round" d="M278.551 256.701v-11.05h-31.4v11.05h31.4"/><path fill="#A2664C" stroke="#1A344F" stroke-width="2.5" stroke-linecap="round" stroke-linejoin="round" d="M320.351 256.701v-11.05h-31.35v11.05h31.35"/><path fill="#D2917A" stroke="#1A344F" stroke-width="2.5" stroke-linecap="round" stroke-linejoin="round" d="M362.151 256.701v-11.05h-31.35v11.05h31.35"/><path fill="#CFC1B4" stroke="#1A344F" stroke-width="2.5" stroke-linecap="round" stroke-linejoin="round" d="M403.951 245.651h-31.35v11.05h31.35v-11.05"/><path fill="#A2664C" stroke="#1A344F" stroke-width="2.5" stroke-linecap="round" stroke-linejoin="round" d="M237.101 270.051v11h31.35v-11h-31.35"/><path fill="#D2917A" stroke="#1A344F" stroke-width="2.5" stroke-linecap="round" stroke-linejoin="round" d="M310.251 281.051v-11h-31.35v11h31.35"/><path fill="#CFC1B4" stroke="#1A344F" stroke-width="2.5" stroke-linecap="round" stroke-linejoin="round" d="M320.751 270.051v11h31.35v-11h-31.35"/><path fill="#A2664C" stroke="#1A344F" stroke-width="2.5" stroke-linecap="round" stroke-linejoin="round" d="M487.201 245.651h-31.35v11.05h31.35v-11.05"/><path fill="#D2917A" stroke="#1A344F" stroke-width="2.5" stroke-linecap="round" stroke-linejoin="round" d="M529.001 245.651h-31.35v11.05h31.35v-11.05"/><path fill="#CFC1B4" stroke="#1A344F" stroke-width="2.5" stroke-linecap="round" stroke-linejoin="round" d="M570.801 245.651h-31.35v11.05h31.35v-11.05M393.501 281.051v-11h-31.35v11h31.35M560.351 281.051v-11h-31.35v11h31.35"/><path fill="#8E7B84" stroke="#1A344F" stroke-width="2.5" stroke-linecap="round" stroke-linejoin="round" d="M385.251 262.501v-216.9h-119.5v216.9h119.5"/><path fill="#F4A276" stroke="#1A344F" stroke-width="2.5" stroke-linecap="round" stroke-linejoin="round" d="M383.051 31.001q-2.2-2.2-5.3-2.2h-104.45q-3.1 0-5.35 2.2-2.2 2.25-2.2 5.35v12.05h119.5v-12.05q0-3.1-2.2-5.35"/><path fill="#85727C" stroke="#1A344F" stroke-width="2.5" stroke-linecap="round" stroke-linejoin="round" d="M317.251 135.651v-72.9h-38.7v72.9h38.7M367.851 62.751h-38.75v72.9h38.75v-72.9M317.251 153.851h-38.7v72.85h38.7v-72.85M367.851 153.851h-38.75v72.85h38.75v-72.85"/><path fill="#7B6974" d="M297.901 76.4q9.7-10.65 19.35-13.7h-38.7l.025 69.375q.882-35.373 19.325-55.675M368.601 62.7h-38.7l.025 69.375q.882-35.373 19.325-55.675 9.7-10.65 19.35-13.7"/><path fill="none" stroke="#1A344F" stroke-width="2.5" stroke-linecap="round" stroke-linejoin="round" d="M367.851 62.7h-38.75v72.9h38.75V62.7"/><path fill="#7B6974" d="M329.901 154.7l.025 69.35q.882-35.348 19.325-55.65 9.7-10.65 19.35-13.7h-38.7"/><path fill="none" stroke="#1A344F" stroke-width="2.5" stroke-linecap="round" stroke-linejoin="round" d="M367.851 226.65V153.8h-38.75v72.85h38.75"/><path fill="#7B6974" d="M278.551 154.7l.025 69.35q.882-35.348 19.325-55.65 9.7-10.65 19.35-13.7h-38.7"/><path fill="none" stroke="#1A344F" stroke-width="2.5" stroke-linecap="round" stroke-linejoin="round" d="M278.551 153.8v72.85h38.7V153.8h-38.7M317.251 135.6V62.7h-38.7v72.9h38.7M265.751 43.2h119.5"/><path fill="#CFC1B4" stroke="#1A344F" stroke-width="2.5" stroke-linecap="round" stroke-linejoin="round" d="M278.551 294.151h-31.4v11h31.4v-11"/><path fill="#A2664C" stroke="#1A344F" stroke-width="2.5" stroke-linecap="round" stroke-linejoin="round" d="M320.351 305.151v-11h-31.35v11h31.35"/><path fill="#D2917A" stroke="#1A344F" stroke-width="2.5" stroke-linecap="round" stroke-linejoin="round" d="M362.151 294.151h-31.35v11h31.35v-11"/><path fill="#CFC1B4" stroke="#1A344F" stroke-width="2.5" stroke-linecap="round" stroke-linejoin="round" d="M403.951 294.151h-31.35v11h31.35v-11"/><path fill="#A2664C" stroke="#1A344F" stroke-width="2.5" stroke-linecap="round" stroke-linejoin="round" d="M268.451 329.551v-11.05h-31.35v11.05h31.35"/><path fill="#D2917A" stroke="#1A344F" stroke-width="2.5" stroke-linecap="round" stroke-linejoin="round" d="M278.901 318.501v11.05h31.35v-11.05h-31.35"/><path fill="#CFC1B4" stroke="#1A344F" stroke-width="2.5" stroke-linecap="round" stroke-linejoin="round" d="M352.101 329.551v-11.05h-31.35v11.05h31.35M570.801 294.151h-31.35v11h31.35v-11M393.501 329.551v-11.05h-31.35v11.05h31.35M560.351 329.551v-11.05h-31.35v11.05h31.35M385.251 295.701v-34.15h-136.05v34.15h136.05"/><path fill="#7A695C" fill-opacity=".341" d="M382.6 294.7v-7H265.7v7h116.9"/><path fill="#CFC1B4" stroke="#1A344F" stroke-width="2.5" stroke-linecap="round" stroke-linejoin="round" d="M385.251 329.801v-34.1h-136.05v34.1h136.05M385.251 363.951v-34.15h-136.05v34.15h136.05"/><path fill="#7A695C" fill-opacity=".341" d="M382.6 329.2v-7H265.7v7h116.9M382.6 363.4v-7H265.7v7h116.9"/><path fill="#F2E5D7" stroke="#1A344F" stroke-width="2.5" stroke-linecap="round" stroke-linejoin="round" d="M379.551 194.551q-2.3 2.3-2.3 5.6v168.8h49.2v-168.8q0-3.3-2.3-5.6-2.35-2.35-5.6-2.35h-33.4q-3.25 0-5.6 2.35M226.901 194.551q-2.3 2.3-2.3 5.6v168.8h49.2v-168.8q0-3.3-2.3-5.6-2.35-2.35-5.6-2.35h-33.4q-3.25 0-5.6 2.35"/><path fill="#FFF" stroke="#1A344F" stroke-width="2.5" stroke-linecap="round" stroke-linejoin="round" d="M658.701 380.751q1.95 0 3.35-1.35 1.35-1.4 1.35-3.35 0-1.95-1.35-3.3-1.4-1.4-3.35-1.4h-218.45q-1.95 0-3.3 1.4-1.4 1.35-1.4 3.3 0 1.95 1.4 3.35 1.35 1.35 3.3 1.35h218.45"/><g transform="translate(530.9 293.2)"><animateTransform attributeName="transform" additive="replace" type="translate" repeatCount="indefinite" dur="4.125s" keyTimes="0;0.01;0.02;0.03;0.04;0.051;0.061;0.071;0.081;0.091;0.101;0.111;0.667;0.677;0.687;0.697;0.707;0.717;0.727;0.737;0.747;0.758;0.768;0.778;1" values="552.4,375.75;552.37,375.289;552.285,374.729;552.198,374.268;552.151,373.73;552.155,373.271;552.104,372.712;552.042,372.224;551.982,371.716;551.919,371.207;551.9,370.727;551.941,370.67;551.941,370.67;551.9,370.727;551.919,371.157;551.982,371.716;552.042,372.224;552.104,372.712;552.155,373.221;552.201,373.73;552.198,374.268;552.285,374.729;552.37,375.289;552.4,375.75;552.4,375.75" calcMode="discrete"/><animateTransform attributeName="transform" additive="sum" type="skewY" repeatCount="indefinite" dur="4.125s" keyTimes="0;0.01;0.02;0.03;0.04;0.051;0.061;0.071;0.081;0.091;0.101;0.111;0.667;0.677;0.687;0.697;0.707;0.717;0.727;0.737;0.747;0.758;0.768;0.778;1" values="0;0.769;1.539;2.308;3.265;4.035;4.805;5.763;6.532;7.301;8.275;8.259;8.259;8.275;7.301;6.532;5.763;4.805;4.035;3.265;2.308;1.539;0.769;0;0" calcMode="discrete"/><animateTransform attributeName="transform" additive="sum" type="scale" repeatCount="indefinite" dur="4.125s" keyTimes="0;0.01;0.02;0.04;0.051;0.061;0.071;0.081;0.091;0.101;0.677;0.687;0.697;0.707;0.717;0.727;0.737;0.758;0.768;0.778;1" values="1,1;1.001,1;1.002,1;1.002,1;1.003,1;1.003,1;1.002,1;1.002,1;1.001,1;1,1;1,1;1.001,1;1.002,1;1.002,1;1.003,1;1.003,1;1.002,1;1.002,1;1.001,1;1,1;1,1" calcMode="discrete"/><animateTransform attributeName="transform" additive="sum" type="translate" repeatCount="indefinite" dur="4.125s" keyTimes="0;0.01;0.02;0.03;0.091;0.101;0.111;0.667;0.677;0.687;0.697;0.717;0.727;0.737;0.747;0.758;0.768;0.778;1" values="-21.5,-82.55;-21.5,-82.6;-21.5,-82.5;-21.5,-82.55;-21.5,-82.55;-21.5,-82.6;-21.5,-82.55;-21.5,-82.55;-21.5,-82.6;-21.5,-82.55;-21.5,-82.6;-21.5,-82.6;-21.5,-82.55;-21.5,-82.55;-21.5,-82.6;-21.5,-82.55;-21.5,-82.6;-21.5,-82.55;-21.5,-82.55" calcMode="discrete"/><use xlink:href="#a"/><use xlink:href="#a"/><use xlink:href="#a"/><use xlink:href="#a"/><use xlink:href="#a"/><path fill="#78553F" d="M-64.649 25.601l-8.75 9.25 30.25 31.45 83.75-14.55-43.25-47.3-35.8 34.55-20.45-11.2q-.75-1.65-2.4-2.3-1.7-.65-3.35.1"/><path fill="none" stroke="#19344F" stroke-width="2.5" stroke-linecap="round" stroke-linejoin="round" d="M-64.649 25.601l-8.75 9.25 30.25 31.45 83.75-14.55m-105.25-26.15q1.65-.75 3.35-.1 1.65.65 2.4 2.3l20.45 11.2 35.8-34.55"/><path fill="#997254" d="M71.601 83.951q2.3-1.55 3.6-3.95 12.05-22.05 17.2-48.6 8.25-43-5.65-84.35l-85.4 8.3-1.55 5.3q-1.7 7.05-2.45 15.45-2.55 27 4.95 58.2l-28.9 31.6-13.3-17.8q-.75-1.65-2.4-2.3-1.7-.6-3.35.1-2.2 1-5.8 4.4-4.05 3.85-3.4 5.3l35.7 39.95 70.7-15.95q1.55 3.35 4.75 5.15 3.2 1.8 6.85 1.4l3.4-.4q2.75-.3 5.05-1.8"/><path fill="none" stroke="#19344F" stroke-width="2.5" stroke-linecap="round" stroke-linejoin="round" d="M71.601 83.951q2.3-1.55 3.6-3.95 12.05-22.05 17.2-48.6 8.25-43-5.65-84.35m-15.15 136.9q-2.3 1.5-5.05 1.8l-3.4.4q-3.65.4-6.85-1.4-3.2-1.8-4.75-5.15l-70.7 15.95-35.7-39.95q-.65-1.45 3.4-5.3 3.6-3.4 5.8-4.4 1.65-.7 3.35-.1 1.65.65 2.4 2.3l13.3 17.8 28.9-31.6q-7.5-31.2-4.95-58.2.75-8.4 2.45-15.45l1.55-5.3"/><path fill="#9A7254" d="M-74.649-58.249l11.3-7.15-4.8-3.85q-2.1-1.7-4.5-.45-2.4 1.2-2.3 3.9l.3 7.55"/><path fill="none" stroke="#19344F" stroke-width="2.5" stroke-linecap="round" stroke-linejoin="round" d="M-68.149-69.249l4.8 3.85m-4.8-3.85q-2.1-1.7-4.5-.45-2.4 1.2-2.3 3.9l.3 7.55"/><path fill="#997254" d="M90.201-41.699q-.45-5.05-3.1-10.85-2.95-6.45-5.95-7.45l-35.15-21.7-47.95-13.75q-3.85.15-25.15 9.75-16.55 7.45-24.65 11.6l-16.75 8.5q-2.75 1.4-4.35 4.05-1.55 2.7-1.45 5.8l-12 16.2-2.95 6.35-2.25 11.75 6.2 9 10.65 2.15 19.15-5.4 8.45.15 137.25-26.15"/><path fill="none" stroke="#19344F" stroke-width="2.5" stroke-linecap="round" stroke-linejoin="round" d="M90.201-41.699q-.45-5.05-3.1-10.85-2.95-6.45-5.95-7.45l-35.15-21.7-47.95-13.75q-3.85.15-25.15 9.75-16.55 7.45-24.65 11.6l-16.75 8.5q-2.75 1.4-4.35 4.05-1.55 2.7-1.45 5.8l-12 16.2-2.95 6.35-2.25 11.75 6.2 9 10.65 2.15 19.15-5.4 8.45.15"/><path fill="#9A7254" d="M-58.899-62.149l11.3-7.15-4.8-3.85q-2.1-1.7-4.5-.5t-2.3 3.9l.3 7.6"/><path fill="none" stroke="#19344F" stroke-width="2.5" stroke-linecap="round" stroke-linejoin="round" d="M-52.399-73.149l4.8 3.85m-4.8-3.85q-2.1-1.7-4.5-.5t-2.3 3.9l.3 7.6"/><path fill="#69482B" fill-opacity=".302" d="M2.301 34.25l-2.85-12.4-32.35 41.65 14.6-6.6 20.6-22.65M80.95 64.95q9.7-22.05 9.2-36-2.35 9.9-7.55 21.45-10.45 23.15-24.8 31.7l-1.1 2.85 6.4 1.15 8-1.95q4.95-8.2 9.85-19.2"/><path fill="#997254" d="M28.201.551q1.35-4.35 1.25-8.75-.1-3.1-1.25-9.4-.8-4.2-4.4-11.65-4.25-8.95-4.6-9.9-1.05-2.8-6.7-1.75-6.45 1.75-8.65 1.75-3.15 0-20.1 3.95-16.7 3.8-20.9 5.4-3.35 1.25-7.25 6.85l-3.2 5.35 6.05 4.05q7 4.3 11.6 5.65 6.95 2 16.7 14.45 4.85 6.25 8.3 12.05l20.75 22.25q10.4-34 12.4-40.3"/><path fill="none" stroke="#19344F" stroke-width="2.5" stroke-linecap="round" stroke-linejoin="round" d="M-89.249-33.199l-2.9 8.4 6.85 12.35 10.65 2.15 19.15-5.4 11.8.25q.05.1 5.5 2.65 6.75 3.5 13.15 8.35Q-8.976 7.753.851 25.001"/><path fill="#A2664C" stroke="#1A344F" stroke-width="2.5" stroke-linecap="round" stroke-linejoin="round" d="M-82.799-17.349q-1.2-2.8-4.85-6.8-.85-.95-2.1-1.1-1.25-.2-2.4.45-3.25 1.75-3.2 4.2.4 9.65 10.05 8.15 4.35-.65 2.5-4.9"/><path fill="none" stroke="#1A344F" stroke-width="2.5" stroke-linecap="round" stroke-linejoin="round" d="M-69.149-47.549v5.15"/><use xlink:href="#a"/></g><g transform="rotate(83.45 86.217 453.477)"><animateTransform attributeName="transform" additive="replace" type="translate" repeatCount="indefinite" dur="4.125s" keyTimes="0;0.01;0.02;0.03;0.04;0.051;0.061;0.071;0.081;0.091;0.101;0.111;0.667;0.677;0.687;0.697;0.707;0.717;0.727;0.737;0.747;0.758;0.768;0.778;1" values="551.218,312.594;549.505,309.336;547.686,306.073;545.949,302.862;544.148,299.655;542.331,296.393;540.563,293.065;538.829,289.884;537.094,286.619;535.311,283.333;533.481,280.036;533.509,280.017;533.509,280.017;533.481,280.036;535.232,283.362;537.036,286.525;538.829,289.833;540.564,293.056;542.375,296.386;544.094,299.597;545.899,302.81;547.637,306.125;549.464,309.392;551.218,312.594;551.218,312.594" calcMode="discrete"/><animateTransform attributeName="transform" additive="sum" type="rotate" repeatCount="indefinite" dur="4.125s" keyTimes="0;0.01;0.02;0.03;0.04;0.051;0.061;0.071;0.081;0.091;0.101;0.111;0.667;0.677;0.687;0.697;0.707;0.717;0.727;0.737;0.747;0.758;0.768;0.778;1" values="83.465,0,0;86.445,0,0;89.213,0,0;91.793,0,0;94.56,0,0;97.517,0,0;100.288,0,0;103.059,0,0;106.019,0,0;108.79,0,0;111.656,0,0;111.563,0,0;111.563,0,0;111.656,0,0;108.791,0,0;106.018,0,0;103.059,0,0;100.288,0,0;97.517,0,0;94.561,0,0;91.793,0,0;89.214,0,0;86.446,0,0;83.465,0,0;83.465,0,0" calcMode="discrete"/><animateTransform attributeName="transform" additive="sum" type="scale" repeatCount="indefinite" dur="4.125s" keyTimes="0;0.03;0.04;0.071;0.081;0.091;0.101;0.111;0.667;0.677;0.687;0.697;0.707;0.737;0.747;1" values="1,1;1,1;0.999,0.999;0.999,0.999;0.998,0.998;0.998,0.998;0.999,0.999;0.998,0.998;0.998,0.998;0.999,0.999;0.998,0.998;0.998,0.998;0.999,0.999;0.999,0.999;1,1;1,1" calcMode="discrete"/><animateTransform attributeName="transform" additive="sum" type="translate" repeatCount="indefinite" dur="4.125s" keyTimes="0;0.01;0.02;0.03;0.04;0.051;0.061;0.071;0.081;0.091;0.101;0.677;0.687;0.697;0.707;0.717;0.727;0.737;0.747;0.758;0.768;0.778;1" values="0.549,24.799;0.599,24.749;0.599,24.749;0.549,24.749;0.499,24.799;0.499,24.799;0.499,24.749;0.449,24.749;0.549,24.849;0.549,24.749;0.499,24.649;0.499,24.649;0.449,24.699;0.499,24.699;0.449,24.749;0.499,24.699;0.449,24.749;0.449,24.699;0.549,24.699;0.549,24.599;0.449,24.649;0.549,24.799;0.549,24.799" calcMode="discrete"/><path fill="#997254" d="M15.45-13.45Q14.8-18 14.6-20q-13.4-2.6-33.4-8.5 3.25 5.5 5.85 11.5v.5l4.2 21.45L7.55 17.4q1.7 1.25 2 3.35l.75 5.85q.3 2.1 2 3.4.9.65 1.9.9.85.2 1.85.05.7-.1 1.4-.65.85-.8 1.65-2.4 1.2-2.5 1.2-4.3.05-1.15-.3-2.8-.4-1.85-.55-2.8l-.9-6.75q-2.1-16.5-3.1-24.7"/><path fill="none" stroke="#19344F" stroke-width="2.5" stroke-linecap="round" stroke-linejoin="round" d="M-18.8-28.5q-.75-1.25-1.5-2.45M-12.95-17q-2.6-6-5.85-11.5m5.85 12v-.5m4.2 21.95l-4.2-21.45m20.5 33.9L-8.75 4.95m18.3 15.8q-.3-2.1-2-3.35m2.75 9.2l-.75-5.85M12.3 30q-1.7-1.3-2-3.4m3.9 4.3q-1-.25-1.9-.9m3.75.95q-1 .15-1.85-.05m3.25-.6q-.7.55-1.4.65m3.05-3.05q-.8 1.6-1.65 2.4m2.85-6.7q0 1.8-1.2 4.3m.9-7.1q.35 1.65.3 2.8m-.85-5.6q.15.95.55 2.8m-1.45-9.55l.9 6.75m-4-31.45q1 8.2 3.1 24.7M14.6-20q.2 2 .85 6.55"/></g><g transform="translate(492.45 368.95)"><animateTransform attributeName="transform" additive="replace" type="translate" repeatCount="indefinite" dur="4.125s" keyTimes="0;0.01;0.02;0.03;0.04;0.051;0.061;0.071;0.081;0.091;0.101;0.677;0.687;0.697;0.707;0.717;0.727;0.737;0.747;0.758;0.768;0.778;1" values="492.45,368.95;490.95,363.1;489.45,357.25;487.9,351.35;486.4,345.5;484.9,339.65;483.4,333.8;481.9,327.95;480.35,322.05;478.85,316.2;477.35,310.35;477.35,310.35;478.85,316.2;480.35,322.05;481.9,327.95;483.4,333.8;484.9,339.65;486.4,345.5;487.9,351.35;489.45,357.25;490.95,363.1;492.45,368.95;492.45,368.95" calcMode="discrete"/><path fill="none" stroke="#19344F" stroke-width="2.5" stroke-linecap="round" stroke-linejoin="round" d="M42.301-26.799l-34.25 15.55"/><path fill="#E5C3A8" stroke="#1A344F" stroke-width="2.5" stroke-linecap="round" stroke-linejoin="round" d="M-41.949-26l-6.6-4h-10v60h95.1l6.95-3 6.35 3h8.8v-60h-96.1l-4.5 4"/><path fill="#1A344F" d="M-38.399-10.499h-2v14.75l-4.7-14.75h-2.9v20.35h2.05v-16.45l5.2 16.45h2.35v-20.35M-27.649-8.399v-2.1h-8.35v20.35h8.35v-2.05h-6.1V.551h5v-2h-5v-6.95h6.1M-18.799-1.449h-5v-6.95h6.1v-2.1h-8.35v20.35h8.35v-2.05h-6.1V.551h5v-2M-11.349-10.499h-4.75v20.35h4.75q4.8 0 4.65-5v-10.25q0-4.7-4.65-5.1m-.05 2.1q2.5 0 2.45 2.85v10.5q0 2.8-2.4 2.85h-2.5v-16.2h2.45M5.451-10.499h-3.3l-3.9 20.35h2.1l.8-4.05h5.15l.75 4.05h2.3l-3.9-20.35m-4 14.35l2.2-11.75 2.3 11.75h-4.5M14.151 7.801v2.05h1.45q3.6 0 4.3-5v-15.35h-2.25v15.5q0 3.1-2.35 2.85l-1.15-.05M30.901-5.549q0-4.7-4.7-5.15-4.65 0-4.65 5.15v10.5q0 4.65 4.65 5.1 4.75 0 4.7-5.1v-10.5m-4.7-3.05q2.5 0 2.45 2.9v10.8q0 2.8-2.45 2.9-2.4 0-2.4-2.9v-10.8q0-2.7 2.4-2.9M37.201-10.499h-4.55v20.35h4.65q4.8 0 4.65-4.75v-1.7q0-3.35-2.7-4.35 2.65-.8 2.35-4.05v-.95q0-4.5-4.4-4.55m2.2 5.95q0 3.25-2.75 2.7h-1.75v-6.55h2.25q2.4 0 2.25 2.65v1.2m-2.5 4.75q2.95 0 2.85 3.05v1.8q0 2.85-2.45 2.75h-2.4v-7.6h2"/><path fill="#FFF" stroke="#1A344F" stroke-width="2.5" stroke-linecap="round" stroke-linejoin="round" d="M-7.549-22.6h16.65V-30h-16.65v7.4"/></g><g transform="translate(94.65 310.15)"><animateTransform attributeName="transform" additive="replace" type="translate" repeatCount="indefinite" dur="4.125s" keyTimes="0;0.131;0.141;0.152;0.162;0.172;0.182;0.192;0.202;0.212;0.222;0.232;0.242;0.253;0.263;0.535;0.545;0.556;0.566;0.576;0.586;0.596;0.606;0.616;0.626;0.636;0.646;1" values="132.7,301.401;132.7,301.401;133.396,301.215;134.03,301.031;134.587,300.895;135.113,300.733;135.539,300.628;135.922,300.547;136.325,300.432;136.562,300.44;136.735,300.314;137.008,300.257;137.003,300.224;137.07,300.275;137.018,300.181;137.018,300.181;137.07,300.275;136.549,300.309;136.127,300.476;135.778,300.615;135.293,300.651;134.906,300.792;134.497,300.936;133.956,301.072;133.519,301.169;133.143,301.279;132.7,301.401;132.7,301.401" calcMode="discrete"/><animateTransform attributeName="transform" additive="sum" type="rotate" repeatCount="indefinite" dur="4.125s" keyTimes="0;0.131;0.141;0.152;0.162;0.172;0.182;0.192;0.202;0.212;0.222;0.232;0.242;0.253;0.263;0.535;0.545;0.556;0.566;0.576;0.586;0.596;0.606;0.616;0.626;0.636;0.646;1" values="0,0,0;0,0,0;3.048,0,0;6.029,0,0;8.565,0,0;11.035,0,0;13.057,0,0;14.823,0,0;16.521,0,0;17.774,0,0;18.581,0,0;19.319,0,0;19.799,0,0;19.998,0,0;19.834,0,0;19.834,0,0;19.998,0,0;17.828,0,0;15.825,0,0;13.824,0,0;11.82,0,0;9.818,0,0;7.815,0,0;5.815,0,0;3.812,0,0;1.813,0,0;0,0,0;0,0,0" calcMode="discrete"/><animateTransform attributeName="transform" additive="sum" type="scale" repeatCount="indefinite" dur="4.125s" keyTimes="0;0.141;0.152;0.182;0.192;0.242;0.253;0.263;0.535;0.545;0.556;0.576;0.586;0.616;0.626;1" values="1,1;1,1;0.999,0.999;0.999,0.999;0.998,0.998;0.998,0.998;0.999,0.999;0.998,0.998;0.998,0.998;0.999,0.999;0.998,0.998;0.998,0.998;0.999,0.999;0.999,0.999;1,1;1,1" calcMode="discrete"/><animateTransform attributeName="transform" additive="sum" type="translate" repeatCount="indefinite" dur="4.125s" keyTimes="0;0.131;0.141;0.152;0.162;0.172;0.182;0.192;0.202;0.212;0.222;0.232;0.242;0.253;0.263;0.535;0.545;0.556;0.566;0.576;0.586;0.596;0.606;0.616;0.626;0.636;1" values="-38.05,8.749;-38.05,8.749;-38.05,8.799;-38,8.749;-38.1,8.749;-38.05,8.699;-37.95,8.749;-38.05,8.799;-38.05,8.849;-38.1,8.699;-37.95,8.749;-38.05,8.849;-38,8.799;-38.05,8.749;-38,8.849;-38,8.849;-38.05,8.749;-37.95,8.799;-38.05,8.749;-38.05,8.749;-38.05,8.799;-38.05,8.849;-38.1,8.749;-38.05,8.699;-38,8.649;-38.05,8.749;-38.05,8.749" calcMode="discrete"/><path fill="none" stroke="#19344F" stroke-width="2.1" stroke-linecap="round" stroke-linejoin="round" d="M-18.349-28.499q5.2 2.25 7.35 7.55l10 24.8q3.05 7.7 10.7 10.95 7.65 3.25 15.35.15 7.7-3.1 11-10.75 3.25-7.6.15-15.35l-4.5-8m-50.05-9.35q-5.25-2.25-10.55-.1-5.3 2.15-7.5 7.4-2.25 5.2-.1 10.5l6.6 16.4"/><path fill="#BEB7A9" d="M-19.9 29.5q3.2-1.3 3.4-9.15.15-6.9-1.6-11.25-1.4-3.55-5-5.05-3.55-1.5-7.1-.1-3.55 1.45-5.05 5t-.1 7.1q1.8 4.35 6.7 9.2 5.55 5.55 8.75 4.25"/><path fill="#A2A394" d="M-33.449 6.25q-2.3 10.4 3.55 17.1 4.1 4.75 10.05 6.15 3.6.85 4.25-4.55.55-4.75-1.35-11.35-7.55 2.25-12.75-2.3-2.65-2.3-3.75-5.05"/><path fill="none" stroke="#19344F" stroke-width="2.1" stroke-linecap="round" stroke-linejoin="round" d="M-17.649 8.451q-1.65-3.45-5.3-4.7-3.6-1.3-7.1.4-3.45 1.7-4.7 5.3-1.25 3.65.45 7.1 2.05 4.25 7.25 8.75 5.95 5.15 9.05 3.65 3.1-1.55 2.75-9.35-.35-6.95-2.4-11.15"/></g><g transform="translate(180.55 279.65)"><animateTransform attributeName="transform" additive="replace" type="translate" repeatCount="indefinite" dur="4.125s" keyTimes="0;0.131;0.141;0.152;0.162;0.172;0.182;0.192;0.202;0.212;0.222;0.232;0.242;0.253;0.263;0.535;0.545;0.556;0.566;0.576;0.586;0.596;0.606;0.616;0.626;0.636;0.646;1" values="180.151,413.8;180.151,413.8;180.14,413.838;180.169,413.794;180.226,413.828;180.096,413.842;180.144,413.791;180.111,413.817;180.156,413.873;180.123,413.807;180.1,413.795;180.111,413.84;180.078,413.842;180.155,413.831;180.064,413.823;180.064,413.823;180.155,413.831;180.107,413.779;180.047,413.878;180.091,413.882;180.038,413.822;180.122,413.882;180.174,413.821;180.077,413.81;180.181,413.789;180.191,413.82;180.151,413.8;180.151,413.8" calcMode="discrete"/><animateTransform attributeName="transform" additive="sum" type="rotate" repeatCount="indefinite" dur="4.125s" keyTimes="0;0.131;0.141;0.152;0.162;0.172;0.182;0.192;0.202;0.212;0.222;0.232;0.242;0.253;0.263;0.535;0.545;0.556;0.566;0.576;0.586;0.596;0.606;0.616;0.626;0.636;0.646;1" values="0,0,0;0,0,0;0.303,0,0;0.786,0,0;1.258,0,0;1.531,0,0;1.795,0,0;2.05,0,0;2.293,0,0;2.526,0,0;2.563,0,0;2.775,0,0;2.789,0,0;2.931,0,0;2.797,0,0;2.797,0,0;2.931,0,0;2.535,0,0;2.274,0,0;2.013,0,0;1.753,0,0;1.304,0,0;1.044,0,0;0.782,0,0;0.523,0,0;0.261,0,0;0,0,0;0,0,0" calcMode="discrete"/><animateTransform attributeName="transform" additive="sum" type="skewY" repeatCount="indefinite" dur="4.125s" keyTimes="0;0.131;0.141;0.152;0.162;0.172;0.182;0.192;0.202;0.212;0.222;0.232;0.242;0.253;0.263;0.535;0.545;0.556;0.566;0.576;0.586;0.596;0.606;0.616;0.626;0.636;0.646;1" values="0;0;-0.026;-0.24;-0.451;-0.471;-0.489;-0.507;-0.518;-0.716;-0.539;-0.732;-0.735;-0.694;-0.739;-0.739;-0.694;-0.532;-0.513;-0.497;-0.48;-0.274;-0.258;-0.24;-0.223;-0.205;0;0" calcMode="discrete"/><animateTransform attributeName="transform" additive="sum" type="scale" repeatCount="indefinite" dur="4.125s" keyTimes="0;0.131;0.141;0.152;0.162;0.172;0.182;0.192;0.202;0.212;0.222;0.232;0.242;0.545;0.556;0.566;0.576;0.586;0.596;0.606;0.616;0.626;0.636;0.646;1" values="1,1;1,1;1,0.997;1,0.995;1,0.993;1,0.991;1,0.989;1,0.987;1,0.986;1,0.985;1,0.984;1,0.984;1,0.983;1,0.983;1,0.985;1,0.987;1,0.988;1,0.99;1,0.992;1,0.993;1,0.995;1,0.997;1,0.998;1,1;1,1" calcMode="discrete"/><animateTransform attributeName="transform" additive="sum" type="translate" repeatCount="indefinite" dur="4.125s" keyTimes="0;0.131;0.141;0.152;0.162;0.172;0.182;0.192;0.212;0.222;0.232;0.242;0.253;0.263;0.535;0.545;0.556;0.566;0.576;0.586;0.596;0.606;0.616;0.626;1" values="0.399,-134.15;0.399,-134.15;0.399,-134.2;0.399,-134.15;0.349,-134.15;0.399,-134.2;0.399,-134.15;0.349,-134.2;0.349,-134.2;0.399,-134.1;0.399,-134.15;0.399,-134.2;0.399,-134.15;0.449,-134.15;0.449,-134.15;0.399,-134.15;0.449,-134.15;0.499,-134.2;0.449,-134.2;0.499,-134.15;0.499,-134.15;0.449,-134.1;0.499,-134.15;0.399,-134.15;0.399,-134.15" calcMode="discrete"/><path fill="#F00" d="M57.75-115.45q-.25-.35-.55-.65l-9.8 9.8q.3.3.7.55l9.65-9.7M58.65-113.7q-.05-.15-.1-.25l-9 9q2.45 1.05 4.95.1 2.7-.95 3.9-3.55 1.25-2.6.25-5.3M49.75-117.85q-2.65 1-3.85 3.55-1.15 2.55-.3 5.15l8.75-8.75q-2.25-.75-4.6.05"/><path fill="none" stroke="#19344F" stroke-width="2.1" stroke-linecap="round" stroke-linejoin="round" d="M57.75-115.45q-.25-.35-.55-.65m-9.8 9.8q.3.3.7.55M58.65-113.7q-.05-.15-.1-.25m-9 9q2.45 1.05 4.95.1 2.7-.95 3.9-3.55 1.25-2.6.25-5.3M49.75-117.85q-2.65 1-3.85 3.55-1.15 2.55-.3 5.15m8.75-8.75q-2.25-.75-4.6.05"/><path fill="#8F897D" d="M51.851-94.449l-16.2 10q7.25 17.4 8.4 18.5.7.7 8.4 2.9 3.85 1.1 7.55 2.05l11.65-14.4-19.8-19.05"/><path fill="none" stroke="#19344F" stroke-width="2.1" stroke-linecap="round" stroke-linejoin="round" d="M51.851-94.449l-16.2 10q7.25 17.4 8.4 18.5.7.7 8.4 2.9 3.85 1.1 7.55 2.05l11.65-14.4-19.8-19.05"/><path fill="#676156" d="M28.151 31.801l-53.35-5.8-23.8 56.7 27.55 50.25h15.65l-24.5-50.25q12.6-2.1 26.15-9.55 27.2-14.8 32.3-41.35"/><path fill="none" stroke="#19344F" stroke-width="2.1" stroke-linecap="round" stroke-linejoin="round" d="M-48.999 82.701l23.8-56.7m-23.8 56.7l27.55 50.25h15.65l-24.5-50.25q12.6-2.1 26.15-9.55 27.2-14.8 32.3-41.35"/><path fill="#8F897D" d="M31-122.95q-9.15-6.6-.85.35-29.55-3.3-46.65 6.3Q-77.8-82-70.9-41.25-65-6.6-48.3 21.1q8.4 13.85 15.55 20.8l3.25 2.15L.65 49.8-14.6 77.95q-5.3 1.7-7.35 6.85-2.1 5.15.55 10.05l29.05 39 15.6.1L-.9 95l3.25-12.35q11.6-3.7 20.8-13.25 11.9-12.3 18.6-33.15Q48 16.8 43.7 8.25q-1.35-2.65-3.6-3.9l-1.95-.7q-5.1-1.5-8.75-1.95-3.15.95-5 .65-.9-.15-.5-.45.45-.3 2-.4 1.55-.05 3.5.2 1.1-.35 2.45-.9 6.95-2.75 14.6-9.3Q59.9-19.9 65.4-32.6 71.5-46.7 71-69l-.65 2.85q2.1-12.65.3-30.25-.1-.05-.15-.1-16.05-9.15-23.15-15Q36.4-119.05 31-122.95M44.75-74.7q.15-.1.25-.15.1.1.2.25l-.45-.1"/><path fill="#8F897D" d="M24.4 2.35q1.85.3 5-.65-1.95-.25-3.5-.2-1.55.1-2 .4-.4.3.5.45"/><path fill="none" stroke="#19344F" stroke-width="2.1" stroke-linecap="round" stroke-linejoin="round" d="M-16.5-116.3q17.1-9.6 46.65-6.3M-70.9-41.25Q-77.8-82-16.5-116.3M-48.3 21.1Q-65-6.6-70.9-41.25m38.15 83.15q-7.15-6.95-15.55-20.8m18.8 22.95l-3.25-2.15m33.4 7.9l-30.15-5.75m14.9 33.9L.65 49.8m-22.6 35q2.05-5.15 7.35-6.85m-6.8 16.9q-2.65-4.9-.55-10.05m29.6 49.05l-29.05-39m44.65 39.1l-15.6-.1M-.9 95l24.15 38.95m-20.9-51.3L-.9 95m24.05-25.6q-9.2 9.55-20.8 13.25m39.4-46.4q-6.7 20.85-18.6 33.15M43.7 8.25q4.3 8.55-1.95 28M40.1 4.35q2.25 1.25 3.6 3.9m-5.55-4.6l1.95.7M29.4 1.7q3.65.45 8.75 1.95M31.85.8q-1.35.55-2.45.9M46.45-8.5Q38.8-1.95 31.85.8M65.4-32.6Q59.9-19.9 46.45-8.5M71-69q.5 22.3-5.6 36.4M29.4 1.7q-3.15.95-5 .65-.9-.15-.5-.45.45-.3 2-.4 1.55-.05 3.5.2"/><path fill="#E56C6C" stroke="#19344F" stroke-width="2.5" stroke-linecap="round" stroke-linejoin="round" d="M60.251-67.499l-10.65.3-6.55 3.5 9.7 12.4 5.3-.2 7.05-11.25-4.85-4.75"/><path fill="#E56C6C" stroke="#19344F" stroke-width="2.5" stroke-linecap="round" stroke-linejoin="round" d="M58.051-51.499l-5.3.2-2.75 81.85 8.2 8.25 7.7-8.7-7.85-81.6"/><path fill="none" stroke="#19344F" stroke-width="2.1" stroke-linecap="round" stroke-linejoin="round" d="M6.051 10.951q2.9-2.1 6.5-3.8 11.5-5.4 25.35-4.75m-31.85 8.55q-1.45 1.05-2.2 1.75"/><path fill="#5E5F54" fill-opacity=".188" d="M41.401 53.45q-.85-.9-2.1-.9h-25.95V43.1q0-1.55-1.1-2.65-1.1-1.1-2.65-1.1h-19.4q-1.55 0-2.65 1.1-1.1 1.1-1.1 2.65v9.45l-26.2-.05q-1.25 0-2.1.9-.9.85-.9 2.1v48.55q0 1.25.85 2.1.9.9 2.15.9l79 .05q1.25 0 2.1-.9.9-.85.9-2.1l.05-48.55q0-1.25-.9-2.1"/><path fill="#F7D179" stroke="#1A344F" stroke-width="2.5" stroke-linecap="round" stroke-linejoin="round" d="M46.301 52.601q0-1.25-.9-2.1-.85-.9-2.1-.9l-79.05-.05q-1.25 0-2.1.9-.9.85-.9 2.1v48.55q0 1.25.85 2.1.9.9 2.15.9l79 .05q1.25 0 2.1-.9.9-.85.9-2.1l.05-48.55"/><path fill="none" stroke="#1A344F" stroke-width="2.5" stroke-linecap="round" stroke-linejoin="round" d="M46.301 52.601q0-1.25-.9-2.1-.85-.9-2.1-.9l-79.05-.05q-1.25 0-2.1.9-.9.85-.9 2.1v48.55q0 1.25.85 2.1.9.9 2.15.9l79 .05q1.25 0 2.1-.9.9-.85.9-2.1l.05-48.55M-15.899 49.601l-22.25 22.2M24.301 49.601l22.2 22.25"/><path fill="none" stroke="#1A344F" stroke-width="2.5" stroke-linecap="round" stroke-linejoin="round" d="M17.351 49.601v-9.45q0-1.55-1.1-2.65-1.1-1.1-2.65-1.1h-19.4q-1.55 0-2.65 1.1-1.1 1.1-1.1 2.65v9.45h26.9"/><path fill="#8F897D" d="M-13.149-49.099q-7 7.3-6.75 17.4.2 10.1 7.45 17.05l4.5 4.35 5.15 34.55 6.6 22.75q4.55-3.3 8.3-33 3.7-29.85-.25-33.6l-3.9-3.8 13.7-14.25-34.8-11.45"/><path fill="none" stroke="#19344F" stroke-width="2.1" stroke-linecap="round" stroke-linejoin="round" d="M-19.899-31.699q-.25-10.1 6.75-17.4m-6.75 17.4q.2 10.1 7.45 17.05l4.5 4.35 5.15 34.55 6.6 22.75q4.55-3.3 8.3-33 3.7-29.85-.25-33.6l-3.9-3.8 13.7-14.25"/><path fill="none" stroke="#1A344F" stroke-width="2.5" stroke-linecap="round" stroke-linejoin="round" d="M45.601 50.65q.7.793.7 1.9l-.05 48.55q0 1.25-.9 2.1-.85.9-2.1.9l-79-.05q-1.25 0-2.15-.9-.85-.85-.85-2.1V52.5q0-1.25.9-2.1.85-.9 2.1-.9l50.925.025"/><path fill="#FFF" fill-opacity=".322" d="M24.3 50.65h-5.8l-51.95 51.9h5.85l51.9-51.9M42.1 50.65l-51.85 51.9H-21.7l51.9-51.9h11.9"/></g><g transform="translate(220.6 157.95)"><animateTransform attributeName="transform" additive="replace" type="translate" repeatCount="indefinite" dur="4.125s" keyTimes="0;0.131;0.141;0.152;0.162;0.172;0.182;0.192;0.202;0.212;0.222;0.232;0.242;0.253;0.263;0.535;0.545;0.556;0.566;0.576;0.586;0.596;0.606;0.616;0.626;0.636;0.646;1" values="174.101,158.95;174.101,158.95;178.755,159.372;182.919,159.707;186.721,159.942;190.043,160.273;193.061,160.559;195.697,160.823;197.849,160.908;199.708,161.153;201.074,161.263;202.094,161.415;202.625,161.425;202.838,161.378;202.843,161.467;202.843,161.467;202.838,161.378;200.035,161.108;197.135,160.968;194.197,160.736;191.322,160.357;188.517,160.231;185.628,159.945;182.805,159.7;179.865,159.462;177.047,159.181;174.101,158.95;174.101,158.95" calcMode="discrete"/><animateTransform attributeName="transform" additive="sum" type="rotate" repeatCount="indefinite" dur="4.125s" keyTimes="0;0.131;0.141;0.152;0.162;0.172;0.182;0.192;0.202;0.212;0.222;0.232;0.242;0.253;0.263;0.535;0.545;0.556;0.566;0.576;0.586;0.596;0.606;0.616;0.626;0.636;0.646;1" values="0,0,0;0,0,0;2.026,0,0;4.006,0,0;5.754,0,0;7.269,0,0;8.55,0,0;9.786,0,0;10.789,0,0;11.558,0,0;12.282,0,0;12.772,0,0;13.028,0,0;13.166,0,0;13.05,0,0;13.05,0,0;13.166,0,0;11.782,0,0;10.514,0,0;9.059,0,0;7.789,0,0;6.522,0,0;5.255,0,0;3.8,0,0;2.534,0,0;1.267,0,0;0,0,0;0,0,0" calcMode="discrete"/><animateTransform attributeName="transform" additive="sum" type="scale" repeatCount="indefinite" dur="4.125s" keyTimes="0;0.152;0.162;0.606;0.616;1" values="1,1;1,1;0.999,0.999;0.999,0.999;1,1;1,1" calcMode="discrete"/><animateTransform attributeName="transform" additive="sum" type="translate" repeatCount="indefinite" dur="4.125s" keyTimes="0;0.131;0.141;0.152;0.162;0.172;0.182;0.192;0.202;0.222;0.232;0.242;0.253;0.263;0.535;0.545;0.556;0.566;0.576;0.586;0.596;0.616;0.626;0.636;0.646;1" values="46.499,-1;46.499,-1;46.449,-1;46.449,-0.95;46.449,-0.95;46.499,-0.95;46.499,-1;46.399,-1.05;46.499,-0.95;46.499,-0.95;46.499,-1;46.449,-1.05;46.499,-1.1;46.449,-1.2;46.449,-1.2;46.499,-1.1;46.499,-1;46.449,-1.1;46.599,-1.15;46.549,-1.1;46.449,-1.05;46.449,-1.05;46.499,-1.05;46.499,-1.05;46.499,-1;46.499,-1" calcMode="discrete"/><path fill="#8F897D" d="M4.7 47q-6.4 4.7-14.15 3.9H-8q7.446-.096 13.175-4.25-.225.175-.475.35M-24.85 44.3q.8.75 1.6 1.45-1.05-.7-2.65-2.45l1.05 1M-53.6 3.8q2.35 3.95.5-.3l-.5.3"/><path fill="none" stroke="#19344F" stroke-width="2.1" stroke-linecap="round" stroke-linejoin="round" d="M-53.6 3.8l.5-.3q.7-.4 1.45-.75"/><path fill="#FFF" d="M-14.499-13.249q-.5 3.1-.5 5.05-.5 3.3 2.6 5.1 2.8 1.65 6.95 1.25 4.3-.4 7.05-2.9 3.2-2.85 2.9-7.45-.65-9.6 6.9-22.65 7.5-11.15 7.15-12.15-21.1 4.6-29.45 22.15-2.6 5.5-3.6 11.6"/><path fill="none" stroke="#19344F" stroke-width="2.1" stroke-linecap="round" stroke-linejoin="round" d="M-14.499-13.249q-.5 3.1-.5 5.05-.5 3.3 2.6 5.1 2.8 1.65 6.95 1.25 4.3-.4 7.05-2.9 3.2-2.85 2.9-7.45-.65-9.6 6.9-22.65 7.5-11.15 7.15-12.15-21.1 4.6-29.45 22.15-2.6 5.5-3.6 11.6"/><path fill="#8F897D" d="M27.6-.1L6.1-20.8q-8 2.25-19.85 6.65-20.65 7.7-37.9 16.9 18.4 32.3 25.75 40.55l1.05 1q.8.75 1.6 1.45 7.35 4.45 13.8 5.15H-8q7.75-.1 13.65-4.6l.95-.8q1-.85 1.95-1.85l4.85-5.05 10.85 10.45q2.85 2.7 6.7 3.65 3.75.95 7.5-.1 3.85-1.05 6.65-3.95L55.3 38 27.85 11.55 27.6-.1"/><path fill="none" stroke="#19344F" stroke-width="2.1" stroke-linecap="round" stroke-linejoin="round" d="M-13.75-14.15Q-1.9-18.55 6.1-20.8M-51.65 2.75q17.25-9.2 37.9-16.9M-25.9 43.3l-4.1-3.9m5.15 4.9l-1.05-1m2.65 2.45q-.8-.7-1.6-1.45m15.4 6.6q-7.8-.25-13.8-5.15M-8 50.9h-1.45m15.1-4.6Q-.25 50.8-8 50.9m14.6-5.4l-.95.8m2.9-2.65q-.95 1-1.95 1.85m6.8-6.9l-4.85 5.05m15.7 5.4L13.4 38.6m17.55 14.1q-3.85-.95-6.7-3.65m14.2 3.55q-3.75 1.05-7.5.1m14.15-4.05q-2.8 2.9-6.65 3.95M55.3 38L45.1 48.65m-17.25-37.1L55.3 38M27.6-.1l.25 11.65M6.1-20.8L27.6-.1M-32.299 22.001l2.4-1.3m-2.4 1.3q-6.15 3.35-12.85 1.4-6.7-2-10.05-8.15l26.2-14.3"/><path fill="#FFF" d="M-18.199.201q3.3.15 6.75-2.1 3.6-2.35 4.95-5.85 1.5-4-.9-7.95-4.95-8.25-4.3-23.25 1.55-13.35.8-14.1-16.6 13.8-15.95 33.25.35 9.7 4 16.65 1.05 3.15 4.65 3.35"/><path fill="none" stroke="#19344F" stroke-width="2.1" stroke-linecap="round" stroke-linejoin="round" d="M-18.199.201q3.3.15 6.75-2.1 3.6-2.35 4.95-5.85 1.5-4-.9-7.95-4.95-8.25-4.3-23.25 1.55-13.35.8-14.1-16.6 13.8-15.95 33.25.35 9.7 4 16.65 1.05 3.15 4.65 3.35"/><path fill="#D7E2EB" d="M18.651 8.051q-.95-2.7-3.6-3.9-2.6-1.2-5.3-.25-4.05 1.45-4.5 5.75-.5 4.45 3.85 7.25 4.95 1.55 8.05-1.7 2.95-3.1 1.5-7.15"/><path fill="#4B4E51" stroke="#19344F" stroke-width="2.1" stroke-linecap="round" stroke-linejoin="round" d="M18.651 8.051q-.95-2.7-3.6-3.9-2.6-1.2-5.3-.25-2.65 1-3.85 3.55-1.2 2.6-.25 5.3 1 2.7 3.55 3.9 2.6 1.25 5.3.25 2.7-.95 3.9-3.55 1.25-2.6.25-5.3"/><path fill="none" stroke="#19344F" stroke-width="2.1" stroke-linecap="round" stroke-linejoin="round" d="M-19.649 6.201l24.45 4.3"/><path fill="none" stroke="#19344F" stroke-width="2.5" stroke-linecap="round" stroke-linejoin="round" d="M5.501-3.149l9.05 2.35"/><path fill="#FFF" fill-opacity=".188" d="M16.35 6.4q-.4-.45-1.1-.95-.25-.15-1.5-.65-.2-.05-.3-.1l-7 7q.15 1.1.9 2 .7.85.8.85l8.2-8.15M17.4 8.1q0 .7-.15.9l-6.6 6.6q-.4.05-.9-.05-.55-.15-.85-.45l7.85-7.9q.6.2.65.9"/></g><path fill="#B6B3A9" d="M568.001 413.9q4.1 0 6.95-2.85 2.85-2.85 2.85-6.95h-54.45q0 4.1 2.9 6.95 2.85 2.85 6.9 2.85h34.85"/><path fill="none" stroke="#1A344F" stroke-width="2.5" stroke-linecap="round" stroke-linejoin="round" d="M574.951 411.05q-2.85 2.85-6.95 2.85h-34.85q-4.05 0-6.9-2.85-2.9-2.85-2.9-6.95m51.6 6.95q2.85-2.85 2.85-6.95"/><path fill="#98958C" d="M533.501 403.5l-.75-1.15h-9.4q.1 2.85 1.35 6.65.8 2.4 6.1 3.9 2.7.75 5.2 1h32q-21.2-2.85-30.35-7.5-2.85-1.45-4.15-2.9"/><path fill="none" stroke="#1A344F" stroke-width="2.5" stroke-linecap="round" stroke-linejoin="round" d="M574.951 411.05q-2.85 2.85-6.95 2.85h-34.85q-4.05 0-6.9-2.85-2.9-2.85-2.9-6.95m51.6 6.95q2.85-2.85 2.85-6.95"/><path fill="#EEB770" stroke="#17344F" stroke-width="2.5" stroke-linecap="round" stroke-linejoin="round" d="M507.301 413.7q-1.65 0-2.8 1.2-1.2 1.15-1.2 2.8 0 1.7 1.2 2.85 1.15 1.2 2.8 1.2h6.7q1.65 0 2.85-1.2 1.2-1.15 1.2-2.85 0-1.65-1.2-2.8-1.2-1.2-2.85-1.2h-6.7M547.251 386.3q-1.65 0-2.85 1.2-1.2 1.15-1.2 2.8 0 1.7 1.2 2.85 1.2 1.2 2.85 1.2h6.7q1.65 0 2.85-1.2 1.15-1.15 1.15-2.85 0-1.65-1.15-2.8-1.2-1.2-2.85-1.2h-6.7M561.851 389.5q-1.2 1.15-1.2 2.85 0 1.65 1.2 2.85 1.15 1.15 2.85 1.15h6.65q1.7 0 2.85-1.15 1.2-1.2 1.2-2.85 0-1.7-1.2-2.85-1.15-1.2-2.85-1.2h-6.65q-1.7 0-2.85 1.2"/><path fill="#EEB770" stroke="#17344F" stroke-width="2.5" stroke-linecap="round" stroke-linejoin="round" d="M534.951 392.35q0 1.65 1.2 2.85 1.15 1.15 2.8 1.15h6.7q1.65 0 2.85-1.15 1.15-1.2 1.15-2.85 0-1.7-1.15-2.85-1.2-1.2-2.85-1.2h-6.7q-1.65 0-2.8 1.2-1.2 1.15-1.2 2.85"/><path fill="#B6B3A9" stroke="#1A344F" stroke-width="2.5" stroke-linecap="round" stroke-linejoin="round" d="M592.501 393.8q-1.5-1.45-3.55-1.45h-76.15q-2.05 0-3.55 1.45-1.45 1.45-1.45 3.55 0 2.05 1.45 3.55 1.5 1.45 3.55 1.45h76.15q2.05 0 3.55-1.45 1.45-1.5 1.45-3.55 0-2.1-1.45-3.55"/></g></svg>