<?xml version="1.0"?>
<svg xmlns:xlink="http://www.w3.org/1999/xlink" xmlns="http://www.w3.org/2000/svg" baseProfile="basic" width="695" height="436" viewBox="0 0 695 436" image-rendering="optimizeSpeed" preserveAspectRatio="xMinYMin meet"><defs><symbol id="a" overflow="visible"><path fill="none" stroke="#E5E9ED" stroke-width="6" stroke-linecap="round" stroke-linejoin="round" d="M-1-17.75L-9.75-9M-1-17.75l8.75 8.8M-1-17.75V17.7"/><path fill="none" stroke="#99C978" stroke-width="6" stroke-linecap="round" stroke-linejoin="round" d="M.051-17.149v34.45M.051-17.149l8.05 8.05M.051-17.149l-8.05 8.05"/></symbol></defs><g overflow="visible"><path fill="#E5E9ED" d="M.051.051v436.3h694.4V.051H.051"/><path fill="none" stroke="#A2AAAF" stroke-opacity=".29" stroke-width="2.5" stroke-linecap="round" stroke-linejoin="round" d="M69.15 44.3h43.05M63.15 50.3H89.2M51.75 50.3h5.1M620.45 94.85h43.05M614.45 100.85h26.05M603.05 100.85h5.1M267.75 346.95h43.05M261.75 352.95h26.05M250.35 352.95h5.1"/><path fill="#D7DBDF" d="M502.8 128.9q-.85-.85-2.5-2.05-8.1-.3-10.95-10.2-1.15-4-2.3-18.45-.6-.05-1.6.65-.65.5-.7.7-2-3.4-3.3-10.35-1.45-7.65-2.6-10.1-1.6-3.45-6.4-7.45-6.6-5.5-6.9-5.85-3.65-2-5.75-4.4-4-4.55-2.7-13.35l-1.15.25q-1.2.25-1.15.35-1.1-5.5-1.15-5.95-.3-2.05-.25-5.4-3.15-4.65-4.85-7.1-3.15-4.5-4.4-5.6-.25-.7.55-1.35.9-.75.85-1.15-.4.2-.85-.7-3.7 3.85-5.2 7.65-1.65 4.15-1.3 9.55-.05.05-.75-.4-.45-.25-.55.5-.1-1.3-.05-1.55-1.25 1.8-1.65 3.3-.4 1.55-1.25 2.8 1 .45 3.65 1.7-1.8.2-1.45.8.35.5 1.85.8-.95-.05-1.15.85-.15.8.3 1.6-.45-.15-.75-1.35-.35-1.3-.55-1.5-.2.35-.15.2.05-.3-.05-.4-2.45 5.5-3.15 17.9-1 18.25-1.35 20.8-1.55 11.25-6.2 16.25-5.85 6.25-17.7 4.4-9.7-1.5-27.3-13.8-14.5-10.15-24.4-20 2.5-2.25 4.75-6.55 2.65-5.1 4-6.7-.2-.2-1.15.85-.9.85-1.2-.1-.75-2.55 1.3-5.2 1.95-2.5 4.45-3 .837 1.427.075 3 1.249-2.412 3.625-3.6-.25-.25-.9-1.45-.6-1.1-1.1-1.45.05 0 .35.1.2.1.3.2-.05-.2.3-.55.15.1.3.5.15.3.35.45 1.8-1.85 2.5-3.75-.2.1-.35.05.4-.25 1.15-1.1.8-.9 1.2-1.2-1.2-1.65-2.8-2.25-.15.35-.3 1.3-.45-.7-.9-2.05-.6-1.85-.75-2.15-.9.3-2.8 1.25-2.4 1.2-2.4 1.7.05.45 1.2.45 1.2-.05 1.2.4.65-.2-1.85 1.55-2.5 1.7-2.3 1.3-.8-1.65-.5-2.55.55-1.1.75-2.45-.75 0-2.2 1.6-1.4 1.5-1.8 1.45.2-.65-.5-.9.5-.85 2.8-3.45-.1-.1-1 .25-.95.35-1.15.15.15-.35 1.15-1.35 1.05-1.05 1.25-1.35-.2 0-.65.6-3.75 4.45-8.75 4.6-7.05-.85-12.25-1.45-2.95-3.55-3.45-4.4-4 .8-4.5.85-1.8 0-3.3-.85-1.2-.7-3.6-3.2-.95-1.05-2.25-1.65-1.55-.65-2.5-1.15.35-1.1-.05-1.8-.5-.85-1.6-.5.65.85.55 1.9-1.25-.6-1.8-.75-.85-.25-1.4.8-.3-1.05-1.45-1.05 0 .6.35 1.45.2.5.55 1.45l-.4-.05q.15.55.1.65-.45-.9-.75-1.4-.5-.95-.95-1.25-.55-.4-1.4-.2-1.4.35-1.45.35-.25.7-.8 1.25 4.7.35 7.7 2.9 5.5 6.95 4.55 7.35-2.5 1.05-2.6 1.1-.55.65-2 1.95-.2-.1.05-.4.1-.15.3-.35-4.1-.6-6.55-1.1-4.45-.9-7.35-2.3-.15.1-.45 1.25-.35 1.2-.05 1.15-.45.35-2.45.45-1.75.1-2.9 1.55 0 .45-.05.5l.85.4q.9.4 1 .8-.55.05-.8 0 .2.1.4.35.25.35.25.65-.7-.45-.75.25 0-.3-1.75-1.45-2.15-1.45-2.2-1.5-.2 1 .55 2.45.35.7.75 1.35-.6-.15-.75.1-3.85.9-4.05 1.85-.25.95.4 6-.45.2-2.9.9-2.7.7-2.6.4-4.2 4.75-4.85 7.65-.85 3.8 3.65 5.8.3.8-1.05 2.15-.45.4 3.4.05-.4.05-1.25 1.15-.85 1.05-1.05 1.6-.1.25-.25 1.6-.15 1.05-.55 1.4-.55.55-.85-.1-.3-.6-.95.05-.2-.1-2.05-1.95-1.85-1.85-2.4-2.15.3 1.15.4 2.55.05 1.95-.55 2.4-.3-.3-.2-.5l-.6.35q-2.25-2.65-3.45-3.2-2.55-.7-6.05-2.05 0 .1.6 1.45.55 1.4.1 1.6-.3.25-.95-.3-.7-.6-.8-1.1-.6 2-.65 2.55-.1.9.35 2.75-.4-.8-1.1-1.65-.7-.9-.8-.6.6.05-1.35 3.8 3.8-8.7-3.7-15.75-2.75-2.6-6.35-4.25-3.15-1.45-4.95-1.35-.05.2-.3.25-.3.05-.45.05-.05 2.3-.4 2.7-.8.8-1.4 2.75-1.6-.7-1.1-1.8.7-1.7.7-1.75-.05-.05-3.2 2.95-.15-.1-2.05-2.75-.15-.7-.65-.85-.3.3-.9.5 0 .2.1.65.15.4.1.65l-.6-.3q.85 3.75-1.2 7.7-.2-.6-1-1.45-.9-1-1.1-1.35-.05.3-.55 1.5.55-2-.9-3.35-.85 1.35-1.25 2.05-.7 1.3-.85 2.35l-1.25-1q-.95 2.2-1.7 4.9 1.2.6 1.65 1.15.3.4.9 1.3-2.95-.95-3.1-1v1.2q-.15-.35-.6-1-.5-.65-.65-1-1.3.65-1.75 1.3-.5.7-.45 1.9.05 0 1.9-.8-1.1 1.1-1.7 1.5 3.4-.55 3.35 2.6 0-.15-2.45-.95-1.75-.6-2.8-.9.05 0-.75 1.35-.05.05-2.05.35-1.85.3-1.75.45.55.8 1.35 5.85.1 0 1.1-1.15 1-1.25 1.95-1.2-1.4 1.95-2.05 2.45-.35.25-1.55.55 1.3 1.4 1.55 1.85.4.25 4.2 2.55-4.05-.25-6.2-.6-2.65-.45-5.75-1.55.35.2.35.9V92q-.7-.6-.8-.1-.05.75-.2.8-.15-.15-.2-.1l-.15.1q-.2.05-1-.95-.75-1.1-.9-1.25-.3-.35-.5-.6-.35-.4-.65-.35-.35.05-.55.5-.3.65-.4.75.05-.05 1.05.5t1.05.8q-.4.05-.6 0 .35.15.55.6-2.4-.2-2.45-.25l.7.7q.4.45.75.7-.75-.25-1.1-.3-.9.1-1.4-.05.6.65 3.35 2.45 2.9 1.85 3.15 1.5-1.4 1.85-1.4 2.4 0 .25 1.05 2.55-.4.3-1.9-1.1-1.55-1.5-1.75-1.6 0 .25-.35-.1-.05 1.15.15 3.7.05 2.35-.45 3.9-4.1-8-4.3-8.4-1.75-3.75-2.1-5.8-.4.3-.45-.25v-.6q-1.9 1.9-2.1 2.35-.2.5-.4 2.55-2.6.2-2.65.45-.1.25-.15 1.95-3.85 2.8-4.5 5.65-.65 2.85 1.6 7.1-10.3 9.6-15.5 13.85-8.9 7.25-20.7 11.15-2.85.95-11.2 4-7.7 2.8-11.7 4.05-1.65.5-5.2.4-2.8-.05-5-.4.2-.05.6-1.45-15.25 8.95-18.95 11.4-10.95 7.35-14.35 13.2.05-1.05.05-3.75 0-2.35.25-5.2-6.5 6.2-7.2 15-.5 6.4 2.3 16.1 1.5 5.3 4.45 15.05 1.7 7.75-.75 11.75-.35-.65-1.25-3.4-.8-2.55-1.15-2.95-.25 0-.3-.05.3.4-.2 1.85-.5 1.55-.95 1.3-.55-.05-.65-.1-.75-.35-1.4-3.25l-.05 1.05q.25 1.9.6 7.7-.35-1-.55-1.45.15 1.05-.2 1.05l-.6-1.15-.1.3q4.35 6.85 11.5 22.3 5.1 11.05 7.25 16.55 5.95 14.75 6.9 17.8 3.65 11.9 1.45 18.85l.05 1.65q.15 2.7.1 4.55 0 2.15-.25 1-1 .3-3.55 2.65-1.9 1.75-5.35 1.45-.9 7.45 7.2 12.5 4.25 2.6 10.05 5 9 1.65 20.15 2.15-1.1-.75-1.3-.7.2.4.05.4-.1.1-.35-.05-.25-.2-.3-.2 3.45-1.6 10.75-5.2 6.35-2.85 10.55-3.2 3.2-6.95 25.05-7.55 5.7-.15 16.6-.25 8.65-.3 11.85-1.7 11-4.8 32.8-14.45 19.4-7.7 37.65-10.35 9.8-1.45 27.2 1.2 14.95 2.25 21.85 4.9 2.8 1.1 3.35 1.65.6.7 1.25 3.65 1.55.55 2.9.3.15-.05 1.2 2.1-.35-.45-.7-.55-.45-.15-.7.3.6.95.55 1.3-.05.25-.75 1.15 1.4.4 4 1.75 2.2 1.15 2.5 1.15.15.25 1.4.25 2.5 3.8 9.25 17.15-.55 0 .5.75-1.2-.3-1.85-.85-1.1-.95-1.6-1.25.1.15-.6.8.15.1-.25.65t-.3.55q3.7 1.85 10.65 5.1l.6-.35q-.35-.3-.35-1.55 0-1.05.3-1.3-.6.3-1.05.6-1.05.6-1.55.1 1.6-3.2 5.9-6.8 2.5-2.05 8.1-6.1 10.25-7.85 10.5-15.5.45.75.5.5 3.6 6.2-1.4 18.5-4.7 11.55-10.7 15 .1 0 .45.45 6.8.05 10.65-3.8 3.75-3.7 4.3-10.7 5.15 4.7 5.3 9.45.15 4.75-4.9 9.05 1.75-1.4 6.5-1.55 4-.15 6.95.5-1 .35-1.5.7l1.4 1.8q3.45 2.4 6.3 7 1.5 2.5 4.3 8.6t6.55 11.05q5.75 7.65 10 6.3 4.3-1.35 10-.4 3.3.55 10 2.3 12.75 2.85 21.55-4.1 0-.45.1-.55-3.95-.05-4.5-.2 6.9-2.35 7.25-1.95.25.2-3.4 4.15 2.1-.45 5.45.05 4.45.75 5.4.75-.3.15-1.05.7-.8.65-1.1.8.95.7 3.15 1.45 2.3.85 3.25 1.45 1.05.65 3.15 2.55 2 1.8 3.3 2.5.8-2.5.65-4.4-.6.8-2.25 1.55-.8-1-1.15-2.1 6.25-.15 14-2.4 5.05-1.5 13.4-4.75 10.1-3.9 11.1-4.35 6.9-3.15 9.55-6.85.35-4.15.75-8.55.85-8.9 1.3-10.35.85-2.75 3.05-5.6 2.6-3.4 4.65-3.05 0-.3-.35-3.3-.25-2.15.15-3.35.4-1.15 2.25-3.15 1.05-1.05 2.8-2.95l-1.6-.3q2-2.4 2.95-4.7l-1.3-.25q.55.05 5.1-5.1 3-3.45 5.2-6.2 8.3-5.15 12.85-22.35 1.4-5.2 3.2-14.75 1.95-10.15 2.85-13.7-.6-4.5-2.05-9-1.6-4.65-2.3-6.9-2.3-7.65-.35-17.3l-.9-.4q-.75-.35-.9-1.05-.15 2.2-.5 1.85-.85-5.15-1.5-6.05-1.7-1.5-4.1-3.8-1.6-3.35-5.35-8.15-3.9-4.95-6.4-6.65-.15 0 .45.7.65.65.4.75-.95-.5-1.05-.45-.05.2-.5.45-6.65-4.05-8.9-11-1.35-7.65-2.15-10.65-.25-.1-.25.25 0 .1-.5-.55-.3.1-.6-.1-.7-.15-.15 1.65.25.9.65 1.9-.75-.6-3.55-3.2-2.2-2-3.35-2.65-.65.35-.8.3-.2 1.4.3 2.85.55 1.5.4 3.15-1.4-1.7-2.3-2.5-1.65-1.55-2.45.6-1.9-9.4-4.3-14.05-2.45-4.65-8.2-10.05.25-.25.65-.5.3-.3-.1-.95.3-.25 1.35.3 1 .5.75.8.1-.05.85.1-.35-.35-.4-.45-.1-.15.2-.3-1.7-1.65-2.6-2.9-1.05-1.45-1.9-2.35-.75.4-1.25.2.1.1-.05.7-.2.55-.1.7-4.95-2.15-7.3-4.1-2.45-2.05-5.7-6.8-1.9.7-2.2.5M271.75 89.45q2.15-.85 2.45-1.15-1.1 1.25-.1 1.15 2.25-.3 2.8-.15-.4 1-1.95 3.25-1.05 1.55-1.8 4.7-.9-1.45-1.7-2.05-.85-.5-1.3-.95.55-2.05 1.1-3.4.45-1 .5-1.4"/><path fill="#D7DBDF" d="M405.95 94.95q1.65-.8 3.55-1.1-.3-.3 0-.3.15.05.25.1.05.05 0-.7-.1.05-.35.15-.4.1-.05-.2-3.5-.9-4.7.85-.6 1.05-.9 1.6-.55 1-1.3 1.4 1.45-.7 3.5-1.8M373.85 59.45q-.2-.05-1.05.5-.25.1-.5-1.8-.7.55-.95.65-.4.2-.85-.15-.9 1-3.1 6.75 1.1.1 4.05.2 2.65.15 3.6.35-.15-1.2-.4-1.45-.4-.35-2.35.25l-.15-1.3q.1-.3 1-1.7 1.25-1.9 1.45-2.25-.75 0-.75-.05M463.8 382.3q-.05-1.6-1.85-1.9-1.25 4.4.15 4.5.75.05 2.3-.55-.55-.25-.6-2.05M513.35 384.75q-2.75-.95-3.25-1.25 1 1.05 2.2 3.05 1.35 1.55 4.2 1.7 0-.15-.15-.3l.2-.05q-.6-1.95-3.2-3.15M298.2 34.05q2.5 1.4 4.95.75 2.3-.6 2.9-2.6.65-2.15-1.4-4.6-.25.25-.6 1.35-.4 1.15-.15 1.25-8.75-.8-10.35-1.6 1.75 3.85 4.65 5.45M296.65 35.25q-.95-1.8-1.55-2.9-1.1-2-1.95-3.15-.1.1-.35.2-.25.1-.35 0-.55 1.2-1.45 3.25-.8 1.7-1.85 2.5.9-.4 3.65-.2 1.45.1 3.85.3M516.05 412.4q.85 1.75.3.05 1.4-11.25-4.05-15.7-5.6-4.55-12.9 3.2-5.8.1-14.5-2.4-9.4-3.05-13.2-4.1-.9 6.2 2.4 12.5 2.9 5.55 7.7 8.8 0-.05.3-.15-.05 0-.3.5t-.15.55q-.5-.15-.65.3-.1.4.05.75-.35-.15-1.65-1.8-1.35-1.7-1.9-2.1 1.5 4.65 3.45 7.65 1.85 2.9 5.35 6.15-.25-.05 1.05.35 1.35.35 2.4.6l-.2.15q-.4-.45-2.25-.6.5.4.15.4-.3.05-.65-.05.55.3 1.05.9.65.8.05 1.3 7.2.9 9.95.1 3.6-1.15 2.2-5.6.4-.1 1.15 1.1.75 1.2 1.4 1.1.2-3.3.65-6.2.45.15 1.3 1 .85.85 1.2 1.4 1-.55 1.85-1.15.65-.15 3.1.85-.1.4-.05.4.05.05.65.35-.45 1.55-2.85-1 .25.35-.15.7-.3.35-.55.35.4.25 2.55 1.2 1.6.65 2.1 1.4-1.3-4.95-1.7-5 1.5-7.1 4.2-11 .25.9 1.15 2.75m-28.6 6.75q.95.05 2.05-.9 1-.4 2.45 2.2-.8 0-2.3-.65-1.55-.6-2.2-.65m.45.9q.5.1.55 0 .45.35 1.85 1.5 1.25 1.1 1.9 1.5-.55-.3-2.4-.85-1.35-.4-2.3-1.6.3-.05-.2-.65.05 0 .6.1"/><path fill="#F9F9F9" d="M491.05 98.2q-.6-.05-1.6.65-.65.5-.7.7-2-3.4-3.3-10.35-1.45-7.65-2.6-10.1-1.6-3.45-6.4-7.45-6.6-5.5-6.9-5.85-3.65-2-5.75-4.4-4-4.55-2.7-13.35l-1.15.25q-1.2.25-1.15.35-1.1-5.5-1.15-5.95-.3-2.05-.25-5.4-3.15-4.65-4.85-7.1-3.15-4.5-4.4-5.6-.25-.7.55-1.35.9-.75.85-1.15-.4.2-.85-.7-3.7 3.85-5.2 7.65-1.65 4.15-1.3 9.55-.05.05-.75-.4-.45-.25-.55.5-.1-1.3-.05-1.55-1.25 1.8-1.65 3.3-.4 1.55-1.25 2.8 1 .45 3.65 1.7-1.8.2-1.45.8.35.5 1.85.8-.95-.05-1.15.85-.15.8.3 1.6-.45-.15-.75-1.35-.35-1.3-.55-1.5-.2.35-.15.2.05-.3-.05-.4-2.45 5.5-3.15 17.9-1 18.25-1.35 20.8-1.55 11.25-6.2 16.25-5.85 6.25-17.7 4.4-9.7-1.5-27.3-13.8-14.5-10.15-24.4-20 2.5-2.25 4.75-6.55 2.65-5.1 4-6.7-.2-.2-1.15.85-.9.85-1.2-.1-.75-2.55 1.3-5.2 1.95-2.5 4.45-3 .837 1.427.075 3 1.249-2.412 3.625-3.6-.25-.25-.9-1.45-.6-1.1-1.1-1.45.05 0 .35.1.2.1.3.2-.05-.2.3-.55.15.1.3.5.15.3.35.45 1.8-1.85 2.5-3.75-.2.1-.35.05.4-.25 1.15-1.1.8-.9 1.2-1.2-1.2-1.65-2.8-2.25-.15.35-.3 1.3-.45-.7-.9-2.05-.6-1.85-.75-2.15-.9.3-2.8 1.25-2.4 1.2-2.4 1.7.05.45 1.2.45 1.2-.05 1.2.4.65-.2-1.85 1.55-2.5 1.7-2.3 1.3-.8-1.65-.5-2.55.55-1.1.75-2.45-.75 0-2.2 1.6-1.4 1.5-1.8 1.45.2-.65-.5-.9.5-.85 2.8-3.45-.1-.1-1 .25-.95.35-1.15.15.15-.35 1.15-1.35 1.05-1.05 1.25-1.35-.2 0-.65.6-3.75 4.45-8.75 4.6-7.05-.85-12.25-1.45-2.95-3.55-3.45-4.4-4 .8-4.5.85-1.8 0-3.3-.85-1.2-.7-3.6-3.2-.95-1.05-2.25-1.65-1.55-.65-2.5-1.15.35-1.1-.05-1.8-.5-.85-1.6-.5.65.85.55 1.9-1.25-.6-1.8-.75-.85-.25-1.4.8-.3-1.05-1.45-1.05 0 .6.35 1.45.2.5.55 1.45l-.4-.05q.15.55.1.65-.45-.9-.75-1.4-.5-.95-.95-1.25-.55-.4-1.4-.2-1.4.35-1.45.35-.25.7-.8 1.25 4.7.35 7.7 2.9 5.5 6.95 4.55 7.35-2.5 1.05-2.6 1.1-.55.65-2 1.95-.2-.1.05-.4.1-.15.3-.35-4.1-.6-6.55-1.1-4.45-.9-7.35-2.3-.15.1-.45 1.25-.35 1.2-.05 1.15-.45.35-2.45.45-1.75.1-2.9 1.55 0 .45-.05.5l.85.4q.9.4 1 .8-.55.05-.8 0 .2.1.4.35.25.35.25.65-.7-.45-.75.25 0-.3-1.75-1.45-2.15-1.45-2.2-1.5-.2 1 .55 2.45.35.7.75 1.35-.6-.15-.75.1-3.85.9-4.05 1.85-.25.95.4 6-.45.2-2.9.9-2.7.7-2.6.4-4.2 4.75-4.85 7.65-.85 3.8 3.65 5.8.3.8-1.05 2.15-.45.4 3.4.05-.4.05-1.25 1.15-.85 1.05-1.05 1.6-.1.25-.25 1.6-.15 1.05-.55 1.4-.55.55-.85-.1-.3-.6-.95.05-.2-.1-2.05-1.95-1.85-1.85-2.4-2.15.3 1.15.4 2.55.05 1.95-.55 2.4-.3-.3-.2-.5l-.6.35q-2.25-2.65-3.45-3.2-2.55-.7-6.05-2.05 0 .1.6 1.45.55 1.4.1 1.6-.3.25-.95-.3-.7-.6-.8-1.1-.6 2-.65 2.55-.1.9.35 2.75-.4-.8-1.1-1.65-.7-.9-.8-.6.6.05-1.35 3.8 3.8-8.7-3.7-15.75-2.75-2.6-6.35-4.25-3.15-1.45-4.95-1.35-.05.2-.3.25-.3.05-.45.05-.05 2.3-.4 2.7-.8.8-1.4 2.75-1.6-.7-1.1-1.8.7-1.7.7-1.75-.05-.05-3.2 2.95-.15-.1-2.05-2.75-.15-.7-.65-.85-.3.3-.9.5 0 .2.1.65.15.4.1.65l-.6-.3q.85 3.75-1.2 7.7-.2-.6-1-1.45-.9-1-1.1-1.35-.05.3-.55 1.5.55-2-.9-3.35-.85 1.35-1.25 2.05-.7 1.3-.85 2.35l-1.25-1q-.95 2.2-1.7 4.9 1.2.6 1.65 1.15.3.4.9 1.3-2.95-.95-3.1-1v1.2q-.15-.35-.6-1-.5-.65-.65-1-1.3.65-1.75 1.3-.5.7-.45 1.9.05 0 1.9-.8-1.1 1.1-1.7 1.5 3.4-.55 3.35 2.6 0-.15-2.45-.95-1.75-.6-2.8-.9.05 0-.75 1.35-.05.05-2.05.35-1.85.3-1.75.45.55.8 1.35 5.85.1 0 1.1-1.15 1-1.25 1.95-1.2-1.4 1.95-2.05 2.45-.35.25-1.55.55 1.3 1.4 1.55 1.85.4.25 4.2 2.55-4.05-.25-6.2-.6-2.65-.45-5.75-1.55.35.2.35.9V92q-.7-.6-.8-.1-.05.75-.2.8-.15-.15-.2-.1l-.15.1q-.2.05-1-.95-.75-1.1-.9-1.25-.3-.35-.5-.6-.35-.4-.65-.35-.35.05-.55.5-.3.65-.4.75.05-.05 1.05.5t1.05.8q-.4.05-.6 0 .35.15.55.6-2.4-.2-2.45-.25l.7.7q.4.45.75.7l-1.1-.3q-.9.1-1.4-.05.6.65 3.35 2.45 2.9 1.85 3.15 1.5-1.4 1.85-1.4 2.4 0 .25 1.05 2.55-.4.3-1.9-1.1-1.55-1.5-1.75-1.6 0 .25-.35-.1-.05 1.15.15 3.7.05 2.35-.45 3.9-4.1-8-4.3-8.4-1.75-3.75-2.1-5.8-.4.3-.45-.25v-.6q-1.9 1.9-2.1 2.35-.2.5-.4 2.55-2.6.2-2.65.45-.1.25-.15 1.95-3.85 2.8-4.5 5.65-.65 2.85 1.6 7.1-10.3 9.6-15.5 13.85-8.9 7.25-20.7 11.15-2.85.95-11.2 4-7.7 2.8-11.7 4.05-1.65.5-5.2.4-2.8-.05-5-.4.2-.05.6-1.45-15.25 8.95-18.95 11.4-10.95 7.35-14.35 13.2.05-1.05.05-3.75 0-2.35.25-5.2-6.5 6.2-7.2 15-.5 6.4 2.3 16.1 1.5 5.3 4.45 15.05 1.7 7.75-.75 11.75-.35-.65-1.25-3.4-.8-2.55-1.15-2.95-.25 0-.3-.05.3.4-.2 1.85-.5 1.55-.95 1.3-.55-.05-.65-.1-.75-.35-1.4-3.25l-.05 1.05q.25 1.9.6 7.7-.35-1-.55-1.45.15 1.05-.2 1.05l-.6-1.15-.1.3q4.35 6.85 11.5 22.3 5.1 11.05 7.25 16.55 5.95 14.75 6.9 17.8 3.65 11.9 1.45 18.85l.05 1.65q.15 2.7.1 4.55 0 2.15-.25 1-1 .3-3.55 2.65-1.9 1.75-5.35 1.45-.9 7.45 7.2 12.5 4.25 2.6 10.05 5 9 1.65 20.15 2.15-1.1-.75-1.3-.7.2.4.05.4-.1.1-.35-.05-.25-.2-.3-.2 3.45-1.6 10.75-5.2 6.35-2.85 10.55-3.2 3.2-6.95 25.05-7.55 5.7-.15 16.6-.25 8.65-.3 11.85-1.7 11-4.8 32.8-14.45 19.4-7.7 37.65-10.35 9.8-1.45 27.2 1.2 14.95 2.25 21.85 4.9 2.8 1.1 3.35 1.65.6.7 1.25 3.65 1.55.55 2.9.3.15-.05 1.2 2.1-.35-.45-.7-.55-.45-.15-.7.3.6.95.55 1.3-.05.25-.75 1.15 1.4.4 4 1.75 2.2 1.15 2.5 1.15.15.25 1.4.25 2.5 3.8 9.25 17.15-.55 0 .5.75-1.2-.3-1.85-.85-1.1-.95-1.6-1.25.1.15-.6.8.15.1-.25.65t-.3.55q3.7 1.85 10.65 5.1l.6-.35q-.35-.3-.35-1.55 0-1.05.3-1.3-.6.3-1.05.6-1.05.6-1.55.1 1.6-3.2 5.9-6.8 2.5-2.05 8.1-6.1 10.25-7.85 10.5-15.5.45.75.5.5 3.6 6.2-1.4 18.5-4.7 11.55-10.7 15 .1 0 .45.45 6.8.05 10.65-3.8 3.75-3.7 4.3-10.7 5.15 4.7 5.3 9.45.15 4.75-4.9 9.05 1.75-1.4 6.5-1.55 4-.15 6.95.5-1 .35-1.5.7l1.4 1.8q3.45 2.4 6.3 7 1.5 2.5 4.3 8.6t6.55 11.05q5.75 7.65 10 6.3 4.3-1.35 10-.4 3.3.55 10 2.3 12.75 2.85 21.55-4.1 0-.45.1-.55-3.95-.05-4.5-.2 6.9-2.35 7.25-1.95.25.2-3.4 4.15 2.1-.45 5.45.05 4.45.75 5.4.75-.3.15-1.05.7-.8.65-1.1.8.95.7 3.15 1.45 2.3.85 3.25 1.45 1.05.65 3.15 2.55 2 1.8 3.3 2.5.8-2.5.65-4.4-.6.8-2.25 1.55-.8-1-1.15-2.1 6.25-.15 14-2.4 5.05-1.5 13.4-4.75 10.1-3.9 11.1-4.35 6.9-3.15 9.55-6.85.35-4.15.75-8.55.85-8.9 1.3-10.35.85-2.75 3.05-5.6 2.6-3.4 4.65-3.05 0-.3-.35-3.3-.25-2.15.15-3.35.4-1.15 2.25-3.15 1.05-1.05 2.8-2.95l-1.6-.3q2-2.4 2.95-4.7l-1.3-.25q.55.05 5.1-5.1 3-3.45 5.2-6.2 8.3-5.15 12.85-22.35 1.4-5.2 3.2-14.75 1.95-10.15 2.85-13.7-.6-4.5-2.05-9-1.6-4.65-2.3-6.9-2.3-7.65-.35-17.3l-.9-.4q-.75-.35-.9-1.05-.15 2.2-.5 1.85-.85-5.15-1.5-6.05-1.7-1.5-4.1-3.8-1.6-3.35-5.35-8.15-3.9-4.95-6.4-6.65-.15 0 .45.7.65.65.4.75-.95-.5-1.05-.45-.05.2-.5.45-6.65-4.05-8.9-11-1.35-7.65-2.15-10.65-.25-.1-.25.25 0 .1-.5-.55-.3.1-.6-.1-.7-.15-.15 1.65.25.9.65 1.9-.75-.6-3.55-3.2-2.2-2-3.35-2.65-.65.35-.8.3-.2 1.4.3 2.85.55 1.5.4 3.15-1.4-1.7-2.3-2.5-1.65-1.55-2.45.6-1.9-9.4-4.3-14.05-2.45-4.65-8.2-10.05.25-.25.65-.5.3-.3-.1-.95.3-.25 1.35.3 1 .5.75.8.1-.05.85.1-.35-.35-.4-.45-.1-.15.2-.3-1.7-1.65-2.6-2.9-1.05-1.45-1.9-2.35-.75.4-1.25.2.1.1-.05.7-.2.55-.1.7-4.95-2.15-7.3-4.1-2.45-2.05-5.7-6.8-1.9.7-2.2.5-.85-.85-2.5-2.05-8.1-.3-10.95-10.2-1.15-4-2.3-18.45m-212.1-5.65q-1.05 1.55-1.8 4.7-.9-1.45-1.7-2.05-.85-.5-1.3-.95.55-2.05 1.1-3.4.45-1 .5-1.4 2.15-.85 2.45-1.15-1.1 1.25-.1 1.15 2.25-.3 2.8-.15-.4 1-1.95 3.25"/><path fill="#F9F9F9" stroke-width="2" stroke-linecap="round" stroke-linejoin="round" d="M408.65 93.75q-.6 1.05-.9 1.6-.55 1-1.3 1.4 1.45-.7 3.5-1.8 1.65-.8 3.55-1.1-.3-.3 0-.3.15.05.25.1.05.05 0-.7-.1.05-.35.15-.4.1-.05-.2-3.5-.9-4.7.85M376.3 58.15q-.7.55-.95.65-.4.2-.85-.15-.9 1-3.1 6.75 1.1.1 4.05.2 2.65.15 3.6.35-.15-1.2-.4-1.45-.4-.35-2.35.25l-.15-1.3q.1-.3 1-1.7 1.25-1.9 1.45-2.25-.75 0-.75-.05-.2-.05-1.05.5-.25.1-.5-1.8M468.4 384.35q-.55-.25-.6-2.05-.05-1.6-1.85-1.9-1.25 4.4.15 4.5.75.05 2.3-.55M517.35 384.75q-2.75-.95-3.25-1.25 1 1.05 2.2 3.05 1.35 1.55 4.2 1.7 0-.15-.15-.3l.2-.05q-.6-1.95-3.2-3.15M297.55 28.6q1.75 3.85 4.65 5.45 2.5 1.4 4.95.75 2.3-.6 2.9-2.6.65-2.15-1.4-4.6-.25.25-.6 1.35-.4 1.15-.15 1.25-8.75-.8-10.35-1.6M300.65 35.25q-.95-1.8-1.55-2.9-1.1-2-1.95-3.15-.45.45-.7.2-.55 1.2-1.45 3.25-.8 1.7-1.85 2.5.9-.4 3.65-.2 1.45.1 3.85.3"/><path fill="#F9F9F9" d="M518.9 409.65q2.25 5.3 1.45 2.8 1.4-11.25-4.05-15.7-5.6-4.55-12.9 3.2-5.8.1-14.5-2.4-9.4-3.05-13.2-4.1-.9 6.2 2.4 12.5 2.9 5.55 7.7 8.8 0-.05.3-.15-.05 0-.3.5t-.15.55q-.5-.15-.65.3-.1.4.05.75-.35-.15-1.65-1.8-1.35-1.7-1.9-2.1 1.5 4.65 3.45 7.65 1.85 2.9 5.35 6.15-.25-.05 1.05.35 1.35.35 2.4.6l-.2.15q-.4-.45-2.25-.6.5.4.15.4-.3.05-.65-.05.55.3 1.05.9.65.8.05 1.3 7.2.9 9.95.1 3.6-1.15 2.2-5.6.4-.1 1.15 1.1.75 1.2 1.4 1.1.2-3.3.65-6.2.45.15 1.3 1 .85.85 1.2 1.4 1-.55 1.85-1.15.65-.15 3.1.85-.1.4-.05.4.05.05.65.35-.45 1.55-2.85-1 .25.35-.15.7-.3.35-.55.35.4.25 2.55 1.2 1.6.65 2.1 1.4-1.3-4.95-1.7-5 1.5-7.1 4.2-11m-25.25 10.15q-1.55-.6-2.2-.65.95.05 2.05-.9 1-.4 2.45 2.2-.8 0-2.3-.65m-1.2.25q.45.35 1.85 1.5 1.25 1.1 1.9 1.5-.55-.3-2.4-.85-1.35-.4-2.3-1.6.3-.05-.2-.65.05 0 .6.1.5.1.55 0"/><path fill="none" stroke="#E1E4E5" stroke-width="2" stroke-linecap="round" stroke-linejoin="round" d="M491.05 98.2q-.6-.05-1.6.65-.65.5-.7.7-2-3.4-3.3-10.35-1.45-7.65-2.6-10.1-1.6-3.45-6.4-7.45-6.6-5.5-6.9-5.85-3.65-2-5.75-4.4-4-4.55-2.7-13.35l-1.15.25q-1.2.25-1.15.35-1.1-5.5-1.15-5.95-.3-2.05-.25-5.4-3.15-4.65-4.85-7.1-3.15-4.5-4.4-5.6-.25-.7.55-1.35.9-.75.85-1.15-.4.2-.85-.7-3.7 3.85-5.2 7.65-1.65 4.15-1.3 9.55-.05.05-.75-.4-.45-.25-.55.5-.1-1.3-.05-1.55-1.25 1.8-1.65 3.3-.4 1.55-1.25 2.8 1 .45 3.65 1.7-1.8.2-1.45.8.35.5 1.85.8-.95-.05-1.15.85-.15.8.3 1.6-.45-.15-.75-1.35-.35-1.3-.55-1.5-.2.35-.15.2.05-.3-.05-.4-2.45 5.5-3.15 17.9-1 18.25-1.35 20.8-1.55 11.25-6.2 16.25-5.85 6.25-17.7 4.4-9.7-1.5-27.3-13.8-14.5-10.15-24.4-20 2.5-2.25 4.75-6.55 2.65-5.1 4-6.7-.2-.2-1.15.85-.9.85-1.2-.1-.75-2.55 1.3-5.2 1.95-2.5 4.45-3 .837 1.427.075 3 1.249-2.412 3.625-3.6-.25-.25-.9-1.45-.6-1.1-1.1-1.45.05 0 .35.1.2.1.3.2-.05-.2.3-.55.15.1.3.5.15.3.35.45 1.8-1.85 2.5-3.75-.2.1-.35.05.4-.25 1.15-1.1.8-.9 1.2-1.2-1.2-1.65-2.8-2.25-.15.35-.3 1.3-.45-.7-.9-2.05-.6-1.85-.75-2.15-.9.3-2.8 1.25-2.4 1.2-2.4 1.7.05.45 1.2.45 1.2-.05 1.2.4.65-.2-1.85 1.55-2.5 1.7-2.3 1.3-.8-1.65-.5-2.55.55-1.1.75-2.45-.75 0-2.2 1.6-1.4 1.5-1.8 1.45.2-.65-.5-.9.5-.85 2.8-3.45-.1-.1-1 .25-.95.35-1.15.15.15-.35 1.15-1.35 1.05-1.05 1.25-1.35-.2 0-.65.6-3.75 4.45-8.75 4.6-7.05-.85-12.25-1.45-2.95-3.55-3.45-4.4-4 .8-4.5.85-1.8 0-3.3-.85-1.2-.7-3.6-3.2-.95-1.05-2.25-1.65-1.55-.65-2.5-1.15.35-1.1-.05-1.8-.5-.85-1.6-.5.65.85.55 1.9-1.25-.6-1.8-.75-.85-.25-1.4.8-.3-1.05-1.45-1.05 0 .6.35 1.45.2.5.55 1.45l-.4-.05q.15.55.1.65-.45-.9-.75-1.4-.5-.95-.95-1.25-.55-.4-1.4-.2-1.4.35-1.45.35-.25.7-.8 1.25 4.7.35 7.7 2.9 5.5 6.95 4.55 7.35-2.5 1.05-2.6 1.1-.55.65-2 1.95-.2-.1.05-.4.1-.15.3-.35-4.1-.6-6.55-1.1-4.45-.9-7.35-2.3-.15.1-.45 1.25-.35 1.2-.05 1.15-.45.35-2.45.45-1.75.1-2.9 1.55 0 .45-.05.5l.85.4q.9.4 1 .8-.55.05-.8 0 .2.1.4.35.25.35.25.65-.7-.45-.75.25 0-.3-1.75-1.45-2.15-1.45-2.2-1.5-.2 1 .55 2.45.35.7.75 1.35-.6-.15-.75.1-3.85.9-4.05 1.85-.25.95.4 6-.45.2-2.9.9-2.7.7-2.6.4-4.2 4.75-4.85 7.65-.85 3.8 3.65 5.8.3.8-1.05 2.15-.45.4 3.4.05-.4.05-1.25 1.15-.85 1.05-1.05 1.6-.1.25-.25 1.6-.15 1.05-.55 1.4-.55.55-.85-.1-.3-.6-.95.05-.2-.1-2.05-1.95-1.85-1.85-2.4-2.15.3 1.15.4 2.55.05 1.95-.55 2.4-.3-.3-.2-.5l-.6.35q-2.25-2.65-3.45-3.2-2.55-.7-6.05-2.05 0 .1.6 1.45.55 1.4.1 1.6-.3.25-.95-.3-.7-.6-.8-1.1-.6 2-.65 2.55-.1.9.35 2.75-.4-.8-1.1-1.65-.7-.9-.8-.6.6.05-1.35 3.8 3.8-8.7-3.7-15.75-2.75-2.6-6.35-4.25-3.15-1.45-4.95-1.35-.05.2-.3.25-.3.05-.45.05-.05 2.3-.4 2.7-.8.8-1.4 2.75-1.6-.7-1.1-1.8.7-1.7.7-1.75-.05-.05-3.2 2.95-.15-.1-2.05-2.75-.15-.7-.65-.85-.3.3-.9.5 0 .2.1.65.15.4.1.65l-.6-.3q.85 3.75-1.2 7.7-.2-.6-1-1.45-.9-1-1.1-1.35-.05.3-.55 1.5.55-2-.9-3.35-.85 1.35-1.25 2.05-.7 1.3-.85 2.35l-1.25-1q-.95 2.2-1.7 4.9 1.2.6 1.65 1.15.3.4.9 1.3-2.95-.95-3.1-1v1.2q-.15-.35-.6-1-.5-.65-.65-1-1.3.65-1.75 1.3-.5.7-.45 1.9.05 0 1.9-.8-1.1 1.1-1.7 1.5 3.4-.55 3.35 2.6 0-.15-2.45-.95-1.75-.6-2.8-.9.05 0-.75 1.35-.05.05-2.05.35-1.85.3-1.75.45.55.8 1.35 5.85.1 0 1.1-1.15 1-1.25 1.95-1.2-1.4 1.95-2.05 2.45-.35.25-1.55.55 1.3 1.4 1.55 1.85.4.25 4.2 2.55-4.05-.25-6.2-.6-2.65-.45-5.75-1.55.35.2.35.9V92q-.7-.6-.8-.1-.05.75-.2.8-.15-.15-.2-.1l-.15.1q-.2.05-1-.95-.75-1.1-.9-1.25-.3-.35-.5-.6-.35-.4-.65-.35-.35.05-.55.5-.3.65-.4.75.05-.05 1.05.5t1.05.8q-.4.05-.6 0 .35.15.55.6-2.4-.2-2.45-.25l.7.7q.4.45.75.7l-1.1-.3q-.9.1-1.4-.05.6.65 3.35 2.45 2.9 1.85 3.15 1.5-1.4 1.85-1.4 2.4 0 .25 1.05 2.55-.4.3-1.9-1.1-1.55-1.5-1.75-1.6 0 .25-.35-.1-.05 1.15.15 3.7.05 2.35-.45 3.9-4.1-8-4.3-8.4-1.75-3.75-2.1-5.8-.4.3-.45-.25v-.6q-1.9 1.9-2.1 2.35-.2.5-.4 2.55-2.6.2-2.65.45-.1.25-.15 1.95-3.85 2.8-4.5 5.65-.65 2.85 1.6 7.1-10.3 9.6-15.5 13.85-8.9 7.25-20.7 11.15-2.85.95-11.2 4-7.7 2.8-11.7 4.05-1.65.5-5.2.4-2.8-.05-5-.4.2-.05.6-1.45-15.25 8.95-18.95 11.4-10.95 7.35-14.35 13.2.05-1.05.05-3.75 0-2.35.25-5.2-6.5 6.2-7.2 15-.5 6.4 2.3 16.1 1.5 5.3 4.45 15.05 1.7 7.75-.75 11.75-.35-.65-1.25-3.4-.8-2.55-1.15-2.95-.25 0-.3-.05.3.4-.2 1.85-.5 1.55-.95 1.3-.55-.05-.65-.1-.75-.35-1.4-3.25l-.05 1.05q.25 1.9.6 7.7-.35-1-.55-1.45.15 1.05-.2 1.05l-.6-1.15-.1.3q4.35 6.85 11.5 22.3 5.1 11.05 7.25 16.55 5.95 14.75 6.9 17.8 3.65 11.9 1.45 18.85l.05 1.65q.15 2.7.1 4.55 0 2.15-.25 1-1 .3-3.55 2.65-1.9 1.75-5.35 1.45-.9 7.45 7.2 12.5 4.25 2.6 10.05 5 9 1.65 20.15 2.15-1.1-.75-1.3-.7.2.4.05.4-.1.1-.35-.05-.25-.2-.3-.2 3.45-1.6 10.75-5.2 6.35-2.85 10.55-3.2 3.2-6.95 25.05-7.55 5.7-.15 16.6-.25 8.65-.3 11.85-1.7 11-4.8 32.8-14.45 19.4-7.7 37.65-10.35 9.8-1.45 27.2 1.2 14.95 2.25 21.85 4.9 2.8 1.1 3.35 1.65.6.7 1.25 3.65 1.55.55 2.9.3.15-.05 1.2 2.1-.35-.45-.7-.55-.45-.15-.7.3.6.95.55 1.3-.05.25-.75 1.15 1.4.4 4 1.75 2.2 1.15 2.5 1.15.15.25 1.4.25 2.5 3.8 9.25 17.15-.55 0 .5.75-1.2-.3-1.85-.85-1.1-.95-1.6-1.25.1.15-.6.8.15.1-.25.65t-.3.55q3.7 1.85 10.65 5.1l.6-.35q-.35-.3-.35-1.55 0-1.05.3-1.3-.6.3-1.05.6-1.05.6-1.55.1 1.6-3.2 5.9-6.8 2.5-2.05 8.1-6.1 10.25-7.85 10.5-15.5.45.75.5.5 3.6 6.2-1.4 18.5-4.7 11.55-10.7 15 .1 0 .45.45 6.8.05 10.65-3.8 3.75-3.7 4.3-10.7 5.15 4.7 5.3 9.45.15 4.75-4.9 9.05 1.75-1.4 6.5-1.55 4-.15 6.95.5-1 .35-1.5.7l1.4 1.8q3.45 2.4 6.3 7 1.5 2.5 4.3 8.6t6.55 11.05q5.75 7.65 10 6.3 4.3-1.35 10-.4 3.3.55 10 2.3 12.75 2.85 21.55-4.1 0-.45.1-.55-3.95-.05-4.5-.2 6.9-2.35 7.25-1.95.25.2-3.4 4.15 2.1-.45 5.45.05 4.45.75 5.4.75-.3.15-1.05.7-.8.65-1.1.8.95.7 3.15 1.45 2.3.85 3.25 1.45 1.05.65 3.15 2.55 2 1.8 3.3 2.5.8-2.5.65-4.4-.6.8-2.25 1.55-.8-1-1.15-2.1 6.25-.15 14-2.4 5.05-1.5 13.4-4.75 10.1-3.9 11.1-4.35 6.9-3.15 9.55-6.85.35-4.15.75-8.55.85-8.9 1.3-10.35.85-2.75 3.05-5.6 2.6-3.4 4.65-3.05 0-.3-.35-3.3-.25-2.15.15-3.35.4-1.15 2.25-3.15 1.05-1.05 2.8-2.95l-1.6-.3q2-2.4 2.95-4.7l-1.3-.25q.55.05 5.1-5.1 3-3.45 5.2-6.2 8.3-5.15 12.85-22.35 1.4-5.2 3.2-14.75 1.95-10.15 2.85-13.7-.6-4.5-2.05-9-1.6-4.65-2.3-6.9-2.3-7.65-.35-17.3l-.9-.4q-.75-.35-.9-1.05-.15 2.2-.5 1.85-.85-5.15-1.5-6.05-1.7-1.5-4.1-3.8-1.6-3.35-5.35-8.15-3.9-4.95-6.4-6.65-.15 0 .45.7.65.65.4.75-.95-.5-1.05-.45-.05.2-.5.45-6.65-4.05-8.9-11-1.35-7.65-2.15-10.65-.25-.1-.25.25 0 .1-.5-.55-.3.1-.6-.1-.7-.15-.15 1.65.25.9.65 1.9-.75-.6-3.55-3.2-2.2-2-3.35-2.65-.65.35-.8.3-.2 1.4.3 2.85.55 1.5.4 3.15-1.4-1.7-2.3-2.5-1.65-1.55-2.45.6-1.9-9.4-4.3-14.05-2.45-4.65-8.2-10.05.25-.25.65-.5.3-.3-.1-.95.3-.25 1.35.3 1 .5.75.8.1-.05.85.1-.35-.35-.4-.45-.1-.15.2-.3-1.7-1.65-2.6-2.9-1.05-1.45-1.9-2.35-.75.4-1.25.2.1.1-.05.7-.2.55-.1.7-4.95-2.15-7.3-4.1-2.45-2.05-5.7-6.8-1.9.7-2.2.5-.85-.85-2.5-2.05-8.1-.3-10.95-10.2-1.15-4-2.3-18.45"/><path fill="none" stroke="#E1E4E5" stroke-width="2" stroke-linecap="round" stroke-linejoin="round" d="M278.95 92.55q-1.05 1.55-1.8 4.7-.9-1.45-1.7-2.05-.85-.5-1.3-.95.55-2.05 1.1-3.4.45-1 .5-1.4 2.15-.85 2.45-1.15-1.1 1.25-.1 1.15 2.25-.3 2.8-.15-.4 1-1.95 3.25M408.65 93.75q-.6 1.05-.9 1.6-.55 1-1.3 1.4 1.45-.7 3.5-1.8 1.65-.8 3.55-1.1-.3-.3 0-.3.15.05.25.1.05.05 0-.7-.1.05-.35.15-.4.1-.05-.2-3.5-.9-4.7.85M376.3 58.15q-.7.55-.95.65-.4.2-.85-.15-.9 1-3.1 6.75 1.1.1 4.05.2 2.65.15 3.6.35-.15-1.2-.4-1.45-.4-.35-2.35.25l-.15-1.3q.1-.3 1-1.7 1.25-1.9 1.45-2.25-.75 0-.75-.05-.2-.05-1.05.5-.25.1-.5-1.8M468.4 384.35q-.55-.25-.6-2.05-.05-1.6-1.85-1.9-1.25 4.4.15 4.5.75.05 2.3-.55M517.35 384.75q-2.75-.95-3.25-1.25 1 1.05 2.2 3.05 1.35 1.55 4.2 1.7 0-.15-.15-.3l.2-.05q-.6-1.95-3.2-3.15M297.55 28.6q1.75 3.85 4.65 5.45 2.5 1.4 4.95.75 2.3-.6 2.9-2.6.65-2.15-1.4-4.6-.25.25-.6 1.35-.4 1.15-.15 1.25-8.75-.8-10.35-1.6M300.65 35.25q-.95-1.8-1.55-2.9-1.1-2-1.95-3.15-.45.45-.7.2-.55 1.2-1.45 3.25-.8 1.7-1.85 2.5.9-.4 3.65-.2 1.45.1 3.85.3M518.9 409.65q2.25 5.3 1.45 2.8 1.4-11.25-4.05-15.7-5.6-4.55-12.9 3.2-5.8.1-14.5-2.4-9.4-3.05-13.2-4.1-.9 6.2 2.4 12.5 2.9 5.55 7.7 8.8 0-.05.3-.15-.05 0-.3.5t-.15.55q-.5-.15-.65.3-.1.4.05.75-.35-.15-1.65-1.8-1.35-1.7-1.9-2.1 1.5 4.65 3.45 7.65 1.85 2.9 5.35 6.15-.25-.05 1.05.35 1.35.35 2.4.6l-.2.15q-.4-.45-2.25-.6.5.4.15.4-.3.05-.65-.05.55.3 1.05.9.65.8.05 1.3 7.2.9 9.95.1 3.6-1.15 2.2-5.6.4-.1 1.15 1.1.75 1.2 1.4 1.1.2-3.3.65-6.2.45.15 1.3 1 .85.85 1.2 1.4 1-.55 1.85-1.15.65-.15 3.1.85-.1.4-.05.4.05.05.65.35-.45 1.55-2.85-1 .25.35-.15.7-.3.35-.55.35.4.25 2.55 1.2 1.6.65 2.1 1.4-1.3-4.95-1.7-5 1.5-7.1 4.2-11"/><path fill="none" stroke="#E1E4E5" stroke-width="2" stroke-linecap="round" stroke-linejoin="round" d="M493.65 419.8q-1.55-.6-2.2-.65.95.05 2.05-.9 1-.4 2.45 2.2-.8 0-2.3-.65M492.45 420.05q.45.35 1.85 1.5 1.25 1.1 1.9 1.5-.55-.3-2.4-.85-1.35-.4-2.3-1.6.3-.05-.2-.65.05 0 .6.1.5.1.55 0"/><path fill="none" stroke="#1A344F" stroke-width="2.5" stroke-linecap="round" stroke-linejoin="round" d="M148.15 107.95v82.45M138.2 190.4h20"/><g style="display:none"><path fill="#5450A9" stroke="#1A344F" stroke-width="2.5" stroke-linecap="round" stroke-linejoin="round" d="M198.8 105.1q-6 .1-14.85 1.35l-3.2.4q-8.55 1.35-13.3 1.85-1.8.15-3.1.25-8.75.5-15.85-1.55l.15 43.2q6.55 1.35 15 .8.3 0 .6-.05 3.65-.3 15.1-1.6.35-.05.65-.05 8.9-1.05 16.8-1.2 12.35-.2 22.6 1.9 0-.45.1-.9 0-21.6-.05-42.25-9.1-2.2-20.65-2.15"/><animate attributeName="display" repeatCount="indefinite" dur="1.85s" keyTimes="0;0.486;0.514;1" values="none;inline;none;none"/></g><g style="display:none"><path fill="#5450A9" stroke="#1A344F" stroke-width="2.5" stroke-linecap="round" stroke-linejoin="round" d="M219.5 107.15v-.1q-8.6-1.55-19.1-1.65h-1.55q-6 .1-14.9 1.05h-.3q-1.45.2-2.9.35-8.45 1.05-13.25 1.5l-3.15.25q-8.7.45-15.85-1.15l.15 43.1v.1q6.6.95 15 .55.25 0 .5-.05h.1q3.5-.25 15.05-1.2.35-.05.65-.05 8.95-.75 16.8-.95h.2q12-.2 22.3 1.3.05-.45.2-.85.05-.35.1-.65 0-22-.05-41.55"/><animate attributeName="display" repeatCount="indefinite" dur="1.85s" keyTimes="0;0.459;0.486;0.973;1" values="none;inline;none;inline;inline"/></g><g style="display:none"><path fill="#5450A9" stroke="#1A344F" stroke-width="2.5" stroke-linecap="round" stroke-linejoin="round" d="M219.55 106.95v-.05q-8.7-1.05-19.1-1.15h-1.6q-5.9.05-14.85.75h-.3q-1.5.1-2.95.25-8.5.8-13.25 1.2-.05 0-3.15.2-8.6.4-15.85-.75l.1 43.1v.1q6.7.6 15 .25h.65q3.35-.2 15-.8.35-.05.65-.05 9-.5 16.8-.7h.2q11.8-.25 22.2.65.1-.4.3-.75.1-.3.15-.6.05-22.75 0-41.65"/><animate attributeName="display" repeatCount="indefinite" dur="1.85s" keyTimes="0;0.432;0.459;0.946;0.973;1" values="none;inline;none;inline;none;none"/></g><g style="display:none"><path fill="#5450A9" stroke="#1A344F" stroke-width="2.5" stroke-linecap="round" stroke-linejoin="round" d="M219.6 106.75l-.05-.05q-8.8-.55-19.1-.65h-1.55q-5.9.05-14.9.45h-.3q-1.45.1-2.9.15-8.55.55-13.35.9l-3.15.2q-8.5.35-15.8-.35l.1 43.1v.1q6.75.2 15 0 .25 0 .5-.05h.1q3.25-.15 15-.35.35-.05.65 0 9.05-.25 16.75-.45h.2q11.6-.3 22.2 0 .15-.35.35-.7.1-.3.25-.55.05-23.55 0-41.75"/><animate attributeName="display" repeatCount="indefinite" dur="1.85s" keyTimes="0;0.405;0.432;0.919;0.946;1" values="none;inline;none;inline;none;none"/></g><g style="display:none"><path fill="#5450A9" stroke="#1A344F" stroke-width="2.5" stroke-linecap="round" stroke-linejoin="round" d="M219.65 106.55l-.05-.05q-8.9-.05-19.1-.1h-1.55q-5.85 0-14.9.15h-.3q-1.5 0-2.95.05-8.6.3-13.35.55-.05 0-3.15.2-8.4.3-15.8.05l.1 43.1v.1q6.8-.2 14.95-.25.3 0 .55-.05h.1q3.1-.1 14.95.05.35-.05.65 0 9.1.05 16.75-.2h.2q11.4-.3 22.1-.65.2-.3.45-.6l.3-.5q.1-24.3.05-41.85"/><animate attributeName="display" repeatCount="indefinite" dur="1.85s" keyTimes="0;0.378;0.405;0.892;0.919;1" values="none;inline;none;inline;none;none"/></g><g style="display:none"><path fill="#5450A9" stroke="#1A344F" stroke-width="2.5" stroke-linecap="round" stroke-linejoin="round" d="M219.7 106.4l-.05-.05q-9.05.45-19.15.35h-1.55q-5.8-.05-14.9-.15h-3.25q-8.6 0-13.4.25l-3.1.1q-8.35.35-15.8.5l.05 43.15q6.85-.5 15-.5h.65q2.95-.05 14.95.4.3.05.6.05 9.1.3 16.75.05h.2q11.15-.35 22-1.25.25-.3.55-.6l.4-.4q.05-25.1.05-41.9"/><animate attributeName="display" repeatCount="indefinite" dur="1.85s" keyTimes="0;0.351;0.378;0.865;0.892;1" values="none;inline;none;inline;none;none"/></g><g style="display:none"><path fill="#5450A9" stroke="#1A344F" stroke-width="2.5" stroke-linecap="round" stroke-linejoin="round" d="M219.75 106.2l-.05-.05q-9.15.95-19.15.9H199q-5.75-.1-14.9-.45h-.3q-1.55-.1-3-.1-8.65-.25-13.4-.1-.05 0-3.1.1-8.25.3-15.8.9l.05 43.15q6.9-.9 14.95-.75h.7q2.8 0 14.9.8.3.05.6.05 9.15.6 16.75.3h.2q10.95-.35 21.9-1.9.3-.25.65-.5.25-.15.45-.35.1-25.85.1-42"/><animate attributeName="display" repeatCount="indefinite" dur="1.85s" keyTimes="0;0.324;0.351;0.838;0.865;1" values="none;inline;none;inline;none;none"/></g><g style="display:none"><path fill="#5450A9" stroke="#1A344F" stroke-width="2.5" stroke-linecap="round" stroke-linejoin="round" d="M219.8 106q-.05 0-.1-.05-9.25 1.45-19.15 1.4h-1.5q-5.75-.1-14.95-.75h-.3q-1.5-.1-2.95-.2-8.7-.5-13.5-.4l-3.1.1q-8.15.25-15.75 1.3l.05 43.15q6.95-1.3 14.95-1 .3 0 .55-.05h.1q2.7.05 14.9 1.25l.6.1q9.2.85 16.7.55h.2q10.75-.4 21.9-2.55.35-.2.7-.45.25-.15.55-.3.1-26.65.1-42.1"/><animate attributeName="display" repeatCount="indefinite" dur="1.85s" keyTimes="0;0.297;0.324;0.811;0.838;1" values="none;inline;none;inline;none;none"/></g><g style="display:none"><path fill="#5450A9" stroke="#1A344F" stroke-width="2.5" stroke-linecap="round" stroke-linejoin="round" d="M219.85 105.8h-.1q-9.35 1.95-19.15 1.9h-1.55q-5.65-.15-14.9-1.05h-.3q-1.55-.2-3-.3-8.75-.75-13.5-.7l-3.1.05q-8.05.2-15.75 1.7v43.15q7.05-1.65 14.95-1.3h.7q2.55.1 14.85 1.65l.6.1q9.25 1.1 16.7.8h.2q10.55-.45 21.8-3.2.4-.15.8-.35.3-.1.6-.25.15-27.4.15-42.2"/><animate attributeName="display" repeatCount="indefinite" dur="1.85s" keyTimes="0;0.27;0.297;0.784;0.811;1" values="none;inline;none;inline;none;none"/></g><g style="display:none"><path fill="#5450A9" stroke="#1A344F" stroke-width="2.5" stroke-linecap="round" stroke-linejoin="round" d="M219.75 147.9q.15-28.2.15-42.3-9.55 2.45-19.3 2.4-6 0-16.75-1.35-10.95-1.4-16.55-1.4-9.6-.15-18.8 2.15v43.15q7.35-2.15 15.55-1.55 2.25.1 14.9 2.05 9.75 1.5 17.5 1.15 11-.45 23.3-4.3"/><animate attributeName="display" repeatCount="indefinite" dur="1.85s" keyTimes="0;0.243;0.27;0.757;0.784;1" values="none;inline;none;inline;none;none"/></g><g style="display:none"><path fill="#5450A9" stroke="#1A344F" stroke-width="2.5" stroke-linecap="round" stroke-linejoin="round" d="M219.7 148.1q.15-27.4-.45-42.1-9.2 1.7-20.45 1.6-5.75-.1-14.95-1-1.65-.15-3.3-.25-8.45-.75-13.2-.7l-3.15.1q-8.05.2-15.7 1.65v43.15q7.1-1.65 15.05-1.25h.55q2.4.05 14.9 1.6.45.05.85.05 9.2 1.1 16.65.8 10.7-.45 22.25-3.3.5-.2.95-.35"/><animate attributeName="display" repeatCount="indefinite" dur="1.85s" keyTimes="0;0.216;0.243;0.73;0.757;1" values="none;inline;none;inline;none;none"/></g><g style="display:none"><path fill="#5450A9" stroke="#1A344F" stroke-width="2.5" stroke-linecap="round" stroke-linejoin="round" d="M219.7 148.25q.1-26.55-.45-42.1-9.15 1.15-20.45 1.1-5.8-.1-14.95-.65-1.65-.1-3.25-.2-8.5-.45-13.25-.3-1.6.05-3.1.1-8.2.25-15.75 1.2l.05 43.15q7-1.25 15.05-.95h.5q2.6 0 14.9 1.15.45 0 .9.05 9.1.8 16.6.5 10.95-.4 22.35-2.55.4-.25.85-.5"/><animate attributeName="display" repeatCount="indefinite" dur="1.85s" keyTimes="0;0.189;0.216;0.703;0.73;1" values="none;inline;none;inline;none;none"/></g><g style="display:none"><path fill="#5450A9" stroke="#1A344F" stroke-width="2.5" stroke-linecap="round" stroke-linejoin="round" d="M219.65 148.45q.1-25.7-.35-42.1-9.2.6-20.5.55-5.8-.05-14.9-.35-1.65-.05-3.3-.05-8.45-.15-13.2 0-1.65.1-3.15.15-8.25.3-15.75.75l.05 43.2q6.95-.85 15.05-.7.25 0 .55-.05 2.75 0 14.9.7.45.05.85.05 9.1.5 16.65.2 11.2-.35 22.35-1.8.4-.3.75-.55"/><animate attributeName="display" repeatCount="indefinite" dur="1.85s" keyTimes="0;0.162;0.189;0.676;0.703;1" values="none;inline;none;inline;none;none"/></g><g style="display:none"><path fill="#5450A9" stroke="#1A344F" stroke-width="2.5" stroke-linecap="round" stroke-linejoin="round" d="M167.45 106.95q-1.7.1-3.2.15-8.35.35-15.75.3l.1 43.2q6.85-.45 15-.4.3 0 .6-.05 2.9-.05 14.9.25h.85q9 .2 16.6-.05Q208 150 219 149.25q.3-.3.6-.65.1-24.85-.3-42.1-9.15.05-20.5.05-5.85-.05-14.9 0h-3.25q-8.45.15-13.2.4"/><animate attributeName="display" repeatCount="indefinite" dur="1.85s" keyTimes="0;0.135;0.162;0.649;0.676;1" values="none;inline;none;inline;none;none"/></g><g style="display:none"><path fill="#5450A9" stroke="#1A344F" stroke-width="2.5" stroke-linecap="round" stroke-linejoin="round" d="M167.45 107.35q-1.75.15-3.15.2-8.45.35-15.8-.15l.1 43.2q6.8 0 15.05-.15h.55q3.05-.15 14.9-.2h.85q9-.1 16.65-.35 11.65-.3 22.5-.35.25-.4.5-.75.05-24.05-.25-42.1-9.15-.5-20.55-.55-5.85.05-14.9.35-1.6.05-3.25.15-8.45.4-13.2.7"/><animate attributeName="display" repeatCount="indefinite" dur="1.85s" keyTimes="0;0.108;0.135;0.622;0.649;1" values="none;inline;none;inline;none;none"/></g><g style="display:none"><path fill="#5450A9" stroke="#1A344F" stroke-width="2.5" stroke-linecap="round" stroke-linejoin="round" d="M167.5 107.8q-1.8.15-3.2.2-8.55.4-15.8-.6l.15 43.2q6.7.4 15 .15h.6q3.2-.2 14.9-.65.4-.05.85-.05 8.9-.4 16.6-.6 11.9-.3 22.6.35.15-.4.35-.85.05-23.2-.2-42.1-9.1-1.05-20.55-1.05-5.9.05-14.9.7l-3.2.2q-8.45.7-13.2 1.1"/><animate attributeName="display" repeatCount="indefinite" dur="1.85s" keyTimes="0;0.081;0.108;0.595;0.622;1" values="none;inline;none;inline;none;none"/></g><g style="display:none"><path fill="#5450A9" stroke="#1A344F" stroke-width="2.5" stroke-linecap="round" stroke-linejoin="round" d="M167.55 108.2q-1.85.2-3.25.25-8.6.45-15.8-1.05l.15 43.25q6.65.8 15 .4.3 0 .65-.05 3.35-.2 14.9-1.1.4 0 .8-.05 8.9-.7 16.65-.9 12.15-.25 22.6 1.1.15-.45.25-.9.05-22.35-.1-42.1-9.15-1.6-20.6-1.6-5.9.1-14.85 1-1.6.15-3.25.35-8.4 1-13.15 1.4"/><animate attributeName="display" repeatCount="indefinite" dur="1.85s" keyTimes="0;0.054;0.081;0.568;0.595;1" values="none;inline;none;inline;none;none"/></g><g style="display:none"><path fill="#5450A9" stroke="#1A344F" stroke-width="2.5" stroke-linecap="round" stroke-linejoin="round" d="M167.55 108.65q-1.85.2-3.2.25-8.75.5-15.85-1.5l.2 43.25q6.55 1.2 15 .7.3 0 .6-.05 3.55-.25 14.9-1.55.4-.05.85-.05 8.8-1 16.6-1.2 12.4-.2 22.7 1.85.05-.5.15-1.05 0-21.5-.1-42.1-9.1-2.15-20.6-2.1-5.95.1-14.85 1.35l-3.2.4q-8.45 1.3-13.2 1.8"/><animate attributeName="display" repeatCount="indefinite" dur="1.85s" keyTimes="0;0.027;0.054;0.541;0.568;1" values="none;inline;none;inline;none;none"/></g><g><path fill="#5450A9" stroke="#1A344F" stroke-width="2.5" stroke-linecap="round" stroke-linejoin="round" d="M198.8 104.75q-7 .2-18.05 2.2-11.8 2.15-16.4 2.4-8.8.55-15.85-1.95v43.15q6.55 1.75 15.2 1.1 3.4-.2 16.35-2.15 22.9-3.35 39.4 1.1v-43.2q-10-2.95-20.65-2.65"/><animate attributeName="display" repeatCount="indefinite" dur="1.85s" keyTimes="0;0.027;0.514;0.541;1" values="inline;none;inline;none;none"/></g><g transform="translate(202.7 127.15)"><animateTransform attributeName="transform" additive="replace" type="translate" dur="1.85s" keyTimes="0;1" values="0,0;0,0" fill="freeze"/><animateTransform attributeName="transform" additive="sum" type="translate" repeatCount="indefinite" dur="1.85s" keyTimes="0;0.027;0.054;0.081;0.108;0.135;0.162;0.189;0.216;0.243;0.27;0.297;0.324;0.351;0.378;0.405;0.432;0.459;0.486;0.514;0.541;0.568;0.595;0.622;0.649;0.676;0.703;0.73;0.757;0.783;0.784;1" values="202.7,127.15;202.7,127.6;202.7,128.05;202.7,128.5;202.7,128.95;202.7,129.35;202.7,129.8;202.7,130.25;202.7,130.7;202.7,131.15;202.7,130.75;202.7,130.35;202.7,129.95;202.7,129.55;202.7,129.15;202.7,128.75;202.7,128.35;202.7,127.95;202.7,127.55;202.7,127.15;202.7,127.6;202.7,128.05;202.7,128.5;202.7,128.95;202.7,129.35;202.7,129.8;202.7,130.25;202.7,130.7;202.7,131.15;202.7,130.75;0;0" calcMode="discrete"/><animateTransform attributeName="transform" additive="sum" type="translate" repeatCount="indefinite" dur="1.85s" keyTimes="0;0.784;0.811;0.838;0.865;0.892;0.919;0.946;0.973;1" values="0;202.7,130.75;202.7,130.35;202.7,129.95;202.7,129.55;202.7,129.15;202.7,128.75;202.7,128.35;202.7,127.95;202.7,127.55" calcMode="discrete"/><path fill="#FFF" d="M.551 9.451l-.45 1.5-1.5-.55.85 1.35-1.35.8 1.6.15-.25 1.55 1.1-1.15 1.1 1.15-.2-1.55 1.6-.15-1.4-.8.9-1.35-1.5.55-.5-1.5M-8.299-4.549l-.45 1.5-1.5-.55.85 1.35-1.35.8 1.6.15-.25 1.55 1.1-1.15 1.1 1.15-.2-1.55 1.6-.15-1.4-.8.9-1.35-1.5.55-.5-1.5M.551-14.149l-.45 1.55-1.5-.6.85 1.35-1.35.8 1.6.15-.25 1.55 1.1-1.15 1.1 1.15-.2-1.55 1.6-.15-1.4-.8.9-1.35-1.5.6-.5-1.55M7.351-4.649l-1.4.85 1.6.1-.2 1.6 1.1-1.15 1.1 1.15-.25-1.6 1.6-.1-1.4-.85.9-1.3-1.5.55-.45-1.5-.5 1.5-1.5-.55.9 1.3M3.251 2.851l.85-.55.85.55-.2-1 .75-.65-1-.05-.4-.95-.4.95-1 .05.8.65-.25 1"/></g><g transform="translate(167.85 119.9)"><animateTransform attributeName="transform" additive="replace" type="translate" dur="1.85s" keyTimes="0;1" values="0,0;0,0" fill="freeze"/><animateTransform attributeName="transform" additive="sum" type="translate" repeatCount="indefinite" dur="1.85s" keyTimes="0;0.027;0.054;0.081;0.108;0.135;0.162;0.189;0.216;0.243;0.27;0.297;0.324;0.351;0.378;0.405;0.432;0.459;0.486;0.514;0.541;0.568;0.595;0.622;0.649;0.676;0.703;0.73;0.757;0.783;0.784;1" values="167.85,119.9;167.9,119.55;167.85,119.15;167.95,118.85;168,118.5;168,118.15;168.05,117.85;168.1,117.5;168.05,117.15;168.15,116.85;168.05,117.15;168.05,117.4;168.05,117.75;167.95,118.1;167.95,118.35;167.9,118.65;167.9,119;167.85,119.3;167.85,119.6;167.85,119.9;167.9,119.55;167.85,119.15;167.95,118.85;168,118.5;168,118.15;168.05,117.85;168.1,117.5;168.05,117.15;168.15,116.85;168.05,117.15;0;0" calcMode="discrete"/><animateTransform attributeName="transform" additive="sum" type="translate" repeatCount="indefinite" dur="1.85s" keyTimes="0;0.784;0.811;0.838;0.865;0.892;0.919;0.946;0.973;1" values="0;168.05,117.15;168.05,117.4;168.05,117.75;167.95,118.1;167.95,118.35;167.9,118.65;167.9,119;167.85,119.3;167.85,119.6" calcMode="discrete"/><animateTransform attributeName="transform" additive="sum" type="rotate" repeatCount="indefinite" dur="1.85s" keyTimes="0;0.027;0.054;0.081;0.108;0.135;0.162;0.189;0.216;0.243;0.27;0.297;0.324;0.351;0.378;0.405;0.432;0.459;0.486;0.514;0.541;0.568;0.595;0.622;0.649;0.676;0.703;0.73;0.757;0.783;0.784;1" values="-0.949,0,0;-0.512,0,0;-0.038,0,0;0.25,0,0;0.538,0,0;1.014,0,0;1.301,0,0;1.776,0,0;2.25,0,0;2.652,0,0;2.262,0,0;1.8,0,0;1.522,0,0;1.061,0,0;0.784,0,0;0.509,0,0;0.045,0,0;-0.042,0,0;-0.522,0,0;-0.949,0,0;-0.512,0,0;-0.038,0,0;0.25,0,0;0.538,0,0;1.014,0,0;1.301,0,0;1.776,0,0;2.25,0,0;2.652,0,0;2.262,0,0;0;0" calcMode="discrete"/><animateTransform attributeName="transform" additive="sum" type="rotate" repeatCount="indefinite" dur="1.85s" keyTimes="0;0.784;0.811;0.838;0.865;0.892;0.919;0.946;0.973;1" values="0;2.262,0,0;1.8,0,0;1.522,0,0;1.061,0,0;0.784,0,0;0.509,0,0;0.045,0,0;-0.042,0,0;-0.522,0,0" calcMode="discrete"/><path fill="#FFF" d="M17.751 3.001v-5.9H3.001v-5.9h-5.9v5.9h-14.75v5.9h14.75v5.9h5.9v-5.9h14.75"/><path fill="#FFF" d="M17.701 8.901v-2l-31.4-15.7h-3.95v1.95l31.4 15.75h3.95"/><path fill="#FFF" d="M17.701-8.799h-3.95l-31.4 15.7v2h3.95l31.4-15.75v-1.95"/><path fill="#DA5F76" d="M17.701 1.801v-3.55h-15.9v-7.05h-3.55v7.05h-15.9v3.55h15.9v7.1h3.55v-7.1h15.9"/><path fill="#DA5F76" d="M17.701-8.799h-2.6l-11.8 5.9h2.65l11.75-5.9M-5.849-2.899l-11.8-5.9v1.3l9.15 4.6h2.65M8.551 3.001h-2.6l11.8 5.9v-1.35l-9.2-4.55M-17.649 8.901h2.65l11.75-5.9h-2.6l-11.8 5.9"/></g><g transform="translate(167.8 141.25)"><animateTransform attributeName="transform" additive="replace" type="translate" dur="1.85s" keyTimes="0;1" values="0,0;0,0" fill="freeze"/><animateTransform attributeName="transform" additive="sum" type="translate" repeatCount="indefinite" dur="1.85s" keyTimes="0;0.027;0.054;0.081;0.108;0.135;0.162;0.189;0.216;0.243;0.27;0.297;0.324;0.351;0.378;0.405;0.432;0.459;0.486;0.514;0.541;0.568;0.595;0.622;0.649;0.676;0.703;0.73;0.757;0.783;0.784;1" values="167.8,141.25;167.8,140.9;167.85,140.55;167.85,140.2;167.85,139.85;167.9,139.55;167.9,139.2;167.9,138.85;167.95,138.5;167.95,138.15;167.95,138.45;167.9,138.75;167.9,139.1;167.9,139.4;167.85,139.7;167.85,140;167.85,140.35;167.8,140.65;167.8,140.95;167.8,141.25;167.8,140.9;167.85,140.55;167.85,140.2;167.85,139.85;167.9,139.55;167.9,139.2;167.9,138.85;167.95,138.5;167.95,138.15;167.95,138.45;0;0" calcMode="discrete"/><animateTransform attributeName="transform" additive="sum" type="translate" repeatCount="indefinite" dur="1.85s" keyTimes="0;0.784;0.811;0.838;0.865;0.892;0.919;0.946;0.973;1" values="0;167.95,138.45;167.9,138.75;167.9,139.1;167.9,139.4;167.85,139.7;167.85,140;167.85,140.35;167.8,140.65;167.8,140.95" calcMode="discrete"/><path fill="#FFF" d="M-2.199-.199l-2.9 1.7 3.35.3-.45 3.3 2.3-2.4 2.3 2.4-.45-3.3 3.3-.3-2.85-1.7 1.85-2.75-3.15 1.15-1-3.15-1.05 3.15-3.1-1.15 1.85 2.75"/></g><path fill="#1A344F" d="M283.95 131.401q-3.55-4.6-10.55-4.6-7 0-10.55 4.6-3.2 4.15-3.2 11.5v32.65q0 7.35 3.2 11.5 3.55 4.6 10.55 4.6 7 0 10.55-4.6 3.25-4.2 3.25-11.5v-17.35h-12.5v3.85h8.45v13.75q0 5.5-2.2 8.55-2.45 3.4-7.45 3.4t-7.45-3.4q-2.2-3.05-2.2-8.55v-33.15q0-5.5 2.2-8.6 2.45-3.45 7.45-3.45t7.45 3.45q2.2 3.1 2.2 8.6v5h4.05v-4.75q0-7.3-3.25-11.5M324.7 142.901q0-7.35-3.35-11.55-3.65-4.55-10.75-4.55-6.95 0-10.6 4.55-3.35 4.25-3.35 11.55v32.65q0 7.35 3.35 11.55 3.65 4.55 10.6 4.55 7.1 0 10.75-4.55 3.35-4.2 3.35-11.55v-32.65m-21.6-8.9q2.5-3.4 7.5-3.4 5.1 0 7.65 3.4 2.3 3.1 2.3 8.65v33.15q0 5.55-2.3 8.65-2.55 3.4-7.65 3.4-5 0-7.5-3.4-2.25-3.1-2.25-8.65v-33.15q0-5.55 2.25-8.65M338.55 127.351h-4.15v63.75h24.2v-3.8h-20.05v-59.95M367.65 127.351v63.75h14q7.15 0 10.75-4.4 3.4-4.1 3.4-11.45v-32.05q0-7.35-3.4-11.45-3.6-4.4-10.75-4.4h-14m4.2 3.8h9.75q5.05 0 7.65 3.3 2.35 3.05 2.35 8.55v32.45q0 5.55-2.35 8.55-2.55 3.3-7.65 3.3h-9.75v-56.15M272.9 209.151h-8.35l-5.8 36.2H264l.95-6.55h7l1 6.55h5.75l-5.8-36.2m-7.2 24.7l2.7-18.3h.1l2.7 18.3h-5.5M286.75 209.151h-5.7v27.55q0 4.4 2.15 6.75 2.2 2.4 6.35 2.4 4.15 0 6.35-2.4 2.15-2.35 2.15-6.75v-27.55h-5.4v27.95q0 3.5-2.95 3.5t-2.95-3.5v-27.95M310.9 209.151h-9v36.2h9q8.5 0 8.5-8.95v-18.3q0-8.95-8.5-8.95m-.1 5.15q2.9 0 2.9 3.55v18.8q0 3.55-2.9 3.55h-3.2v-25.9h3.2M340.4 209.151h-4.9l-14.3 36.2h4.9l14.3-36.2M348.15 209.151h-5.7v27.55q0 4.4 2.15 6.75 2.2 2.4 6.35 2.4 4.15 0 6.35-2.4 2.15-2.35 2.15-6.75v-27.55h-5.4v27.95q0 3.5-2.95 3.5t-2.95-3.5v-27.95M364.7 211.151q-2.1 2.3-2.1 6.7 0 3.15 1.35 5.6 1.4 2.6 4.9 5.7 2.75 2.45 3.85 4.2 1 1.7 1 3.7 0 3.5-2.95 3.5t-2.95-3.5v-2.6h-5.35v2.2q0 4.4 2.15 6.75 2.15 2.4 6.3 2.4t6.35-2.4q2.15-2.35 2.15-6.75 0-3.15-1.35-5.6-1.4-2.6-4.9-5.7-2.75-2.4-3.85-4.15-1-1.7-1-3.75 0-3.55 2.85-3.55t2.85 3.55v1.5h5.35v-1.1q0-4.4-2.1-6.7-2.15-2.4-6.25-2.4-4.15 0-6.3 2.4M391.65 209.151h-9v36.2h9q8.5 0 8.5-8.95v-18.3q0-8.95-8.5-8.95m-.1 5.15q2.9 0 2.9 3.55v18.8q0 3.55-2.9 3.55h-3.2v-25.9h3.2"/><use xlink:href="#a" transform="translate(425.75 155.05)"><animateTransform attributeName="transform" additive="replace" type="translate" repeatCount="indefinite" dur="1.85s" keyTimes="0;0.027;0.054;0.081;0.108;0.135;0.162;0.189;0.216;0.243;0.27;0.297;0.324;0.351;0.378;0.405;0.432;0.459;0.486;0.514;1" values="425.75,155.05;425.75,156.05;425.75,157.05;425.75,158.05;425.75,159.05;425.75,160.05;425.75,158.5;425.75,156.95;425.75,155.35;425.75,153.8;425.75,152.25;425.75,150.7;425.75,149.1;425.75,147.55;425.75,148.8;425.75,150.05;425.75,151.35;425.75,152.55;425.75,153.8;425.75,155.05;425.75,155.05" calcMode="discrete"/><animateTransform attributeName="transform" additive="sum" type="scale" repeatCount="indefinite" dur="1.85s" keyTimes="0;0.135;0.162;0.189;0.216;0.243;0.27;0.297;0.324;0.351;0.378;0.405;0.432;0.459;0.486;0.514;1" values="1,1;1,1;1,1.019;1,1.038;1,1.056;1,1.075;1,1.094;1,1.113;1,1.131;1,1.15;1,1.125;1,1.1;1,1.075;1,1.05;1,1.025;1,1;1,1" calcMode="discrete"/></use><use xlink:href="#a" transform="translate(426.75 229.3)"><animateTransform attributeName="transform" additive="replace" type="translate" repeatCount="indefinite" dur="1.85s" keyTimes="0;0.486;0.514;0.541;0.568;0.595;0.622;0.649;0.676;0.703;0.73;0.757;0.784;0.811;0.838;0.865;0.892;0.919;0.946;0.973;1" values="426.75,229.3;426.75,229.3;426.75,230.3;426.75,231.3;426.75,232.3;426.75,233.3;426.75,234.3;426.75,232.75;426.75,231.2;426.75,229.6;426.75,228.05;426.75,226.5;426.75,224.95;426.75,223.35;426.75,221.8;426.75,223.1;426.75,224.3;426.75,225.6;426.75,226.8;426.75,228.1;426.75,229.3" calcMode="discrete"/><animateTransform attributeName="transform" additive="sum" type="scale" repeatCount="indefinite" dur="1.85s" keyTimes="0;0.622;0.649;0.676;0.703;0.73;0.757;0.784;0.811;0.838;0.865;0.892;0.919;0.946;0.973;1" values="1,1;1,1;1,1.019;1,1.038;1,1.056;1,1.075;1,1.094;1,1.113;1,1.131;1,1.15;1,1.125;1,1.1;1,1.075;1,1.05;1,1.025;1,1" calcMode="discrete"/></use></g></svg>
