<svg xmlns="http://www.w3.org/2000/svg" baseProfile="basic" width="695" height="836" viewBox="0 0 695 836" preserveAspectRatio="xMinYMin meet"><g overflow="visible"><path fill="#FFF" d="M695 1090.5V0H0v1090.5h695"/><path fill="#FBFBFB" stroke="#EFEFEF" stroke-width="4" stroke-linecap="round" stroke-linejoin="round" d="M187.2 85.4q-.9-1.7-2.8-1.8l-33.2-1.8q-1.6 0-2.8 1.2l-5.8 6.4q-1.1 1.3-3 1.2L71 82.3q-1.7-.2-3 1-1.1 1.3-.9 3l1.7 10.2q.2 1.6-.9 2.8t-2.7 1.2l-2.5-.1q-1.4 0-2.5.9-1 1-1 2.5v6.7q0 1.7 1.3 2.7l4 3.2q.6.5 1.5.7l7.5 1.4q1.8.4 3-.9 1.4-1.3 1-3.1v-.1q-.3-1.7.9-3 1-1.2 2.7-1.1l15.5 1q1.6 0 2.5 1.3l5.5 7q1 1.2.7 2.6l-1.2 9.3q-.2 1.1-1 2-.8.8-2 1l-3.9.5q-1.2.1-2 1-1 1-1 2.2L93 166q-.1 1.6 1.1 2.7l12 11q.9.7 1 1.8.3 1.1-.1 2l-1 2.6q-.6 1.3 0 2.6.7 1.4 2.1 1.7l18.6 4.8q1.5.3 2 1.6l1.7 3.2q.5 1 1.6 1.5t2.2.1q1.3-.3 2.5.3 1.1.7 1.5 2l1.1 4.7q.3 1.1 1.3 1.8t2 .6l6-.5q1.5 0 2.5 1t1.1 2.4v4.9q0 1.4-1 2.4t-2.4 1q-1.3 0-2.2.8-1 .9-1.1 2.2l-1.2 10.6q-.1 1.8 1.3 3l9.4 7.6q1.5 1.2 1.2 3l-1.5 12q-.2 1 .2 1.8.5 1 1.3 1.4l9.3 5.8q1.4 1 1.6 2.6l3 43.8q.1 2 2 2.8l3.3 1.5q1 .5 1.6 1.5.6 1 .4 2.2-2.3 11.9-1.7 12 1.3.5 14.7 7.5 1.5.7 3 0 1.6-.7 2-2.4l1.1-6.7q.3-2.1-1.4-3.4l-3.8-2.6q-1.6-1.2-1.4-3l1.7-24.6q0-1.3 1-2.2l25.8-26q1-.9 1-2.3v-12.2q0-1.6 1.2-2.6l6-4.9q1.1-1 1.1-2.5v-13q0-1.4-1-2.4L216 223q-1-1-2.3-1H204q-1.4 0-2.4-.8-.9-1-1-2.3l-.1-2.5q0-1.2-1-2.2-.8-.8-2-1l-5.6-.5q-1.3-.1-2.2-1l-5.5-6.1q-1-1.1-2.5-1.1h-29.4q-1.1 0-2-.7-1-.6-1.3-1.7l-1.4-5.2q-.5-1.5-2-2l-8.4-3.5v-4q0-1-.6-2-.7-.8-1.7-1.2l-6.4-2.3q-1.3-.5-2-1.7-.6-1.3-.1-2.6l2.1-6.3q.5-1.7 2.3-2.2l14-4q1-.4 2 0t1.7 1.3l2.6 3.7q1.2 1.8 3.4 1.4 2.1-.3 2.7-2.4l1.4-4.7q.4-1 1.5-2l22-13.9q1-.6 1.4-1.8.3-1.1 0-2.3l-2-5q-.6-1.8.5-3.3 1-1.5 3-1.4l24.1 1.2q1.6.1 2.7-1 1.1-1.2 1-2.8l-1.3-12q-.1-1.4-1.1-2.3-1-.9-2.3-.9-1.4 0-2.4-1-1-.9-1-2.3l-.2-3.3q0-1.5-1.2-2.5-1.1-1-2.7-.8l-15 1.6q-1.8.2-2.7 2l-1.8 3.9q-.5 1-1.6 1.6-1.1.5-2.3.3l-9.4-2q-1.7-.3-2.5-2-.7-1.5.2-3l1-1.8q.6-1 1.6-1.5l11.5-5q1-.4 1.7-1.5l5.8-11q1-1.6 0-3.2m-5.2-15q-.7-.4-1.5-.3-.8 0-1.4.6l-.3.4q-.8.8-.7 2l.1.7q.1 1 1 1.7 1 .6 2.1.2l1.3-.4q1.1-.4 1.5-1.7.2-.8-.1-1.5-.3-.7-1-1.1l-1-.6"/><path fill="#FBFBFB" stroke="#EFEFEF" stroke-width="4" stroke-linecap="round" stroke-linejoin="round" d="M218 63.6h-.6L196.3 66q-1.1 0-2 .9-.8.7-1 1.9l-1 5.4q-.2 1 .3 2l5 10.4q.5 1.1.2 2.3l-1.7 7.3q-.4 1.5.4 2.7.9 1.3 2.4 1.5l9.6 1.2q1.7.3 3-1 1.1-1.2.8-2.9l-1-6.4q-.3-1.6-1.6-2.4l-6.1-3.6q-1.4-.8-1.7-2.3-.2-1.5.7-2.8l1.1-1.3q.7-.8 1.6-1l17.7-6q1-.3 1.5-1l5.4-6.3q1-1.3.2-2.7-1-1.4-2.5-1l-9.6 2.8"/><path fill="#FBFBFB" stroke="#EFEFEF" stroke-width="4" stroke-linecap="round" stroke-linejoin="round" d="M225.2 81l-7.2 2q-1 .2-1.3 1.2-.3.9.2 1.7.6.7 1.5.7h6.1q.9 0 1.4.7t.5 1.4l-2 13.4v.5l2 13.6q.1.7.7 1.1.5.5 1.1.5h5q.8 0 1.4-.7l12.2-16.1q.3-.5.9-.6l27.2-10q1-.4 1.2-1.5l1.6-15q.1-.7-.3-1.3-.5-.6-1.2-.7l-28.6-5.6q-.8 0-1.4.4L234.5 75v.1l-8.7 5.6-.6.3m81 8.2l-4-.7q-1.7-.2-2.7 1.1l-.5.7q-.8 1-.4 2.3.3 1.3 1.5 1.8l3.2 1.5q1.3.5 2.5-.2l1.8-1q1.1-.7 1.4-2 .1-1.2-.7-2.2l-.3-.4q-.7-.8-1.7-1M513.7 76q-3.4-3-8-3h-50.9q-.6 0-1 .3l-10.1 6.6q-1 .6-.9 1.8l.9 8.1q0 1-.5 1.6-.7.7-1.6.6l-13.2-.9q-1 0-1.6.8l-7.8 9.6q-.5.7-1.5.7h-18.2q-.9 0-1.5-.8l-7.5-9.9q-.2-.3-.8-.6l-11.9-4.2q-.6-.2-1.2 0l-18.2 6-.7.5-13.1 12q-1 1-.5 2.3l3.5 7.2q.5 1 1.8 1h12q1 0 1.6-.6l9.3-10.9q.6-.6 1.5-.6h2q1 0 1.5.7.6.7.4 1.5l-.8 4.8q-.1.8.3 1.4t1.1.9q1.4.3 1.5 1.7 0 1.4-1.3 2l-2 .7q-.8.4-1 1.3l-2 6.7q-.3 1.3-1.6 1.5l-18.2 1.5q-.6.1-1.2-.2-.6-.4-.8-1l-1.9-6q-.1-.7-.7-1.1-.6-.4-1.3-.3l-5.4.6q-1.1.1-1.5 1.2l-4.4 10q-.5 1-1.4 1.2l-5.2 1q-.6 0-1 .5l-5.2 5.3q-.9 1-.3 2.3l2.8 5.2q.6 1 0 2-.6.9-1.7.9h-8.6q-1 0-1.6.8-.6.8-.2 1.7l4 10.9q.3 1.1 1.5 1.2l10.2 1.4q1 .1 1.7-.6.6-.6.5-1.6l-.6-4.6q-.1-.7.2-1.3.3-.6 1-.8l9.5-3.9q.5-.2 1-.1l6.2.5q1 0 1.5 1l4.5 7.5q.4.7.4 1.4 0 .8-.5 1.4l-.3.4q-.6.8-.5 1.7.1 1 .7 1.6l.9.8q.7.7 1.7.8 1 0 1.7-.6l3.7-3q.6-.5.8-1.4.2-.7 0-1.5l-3.5-8.4q-.4-.8 0-1.6.3-.8 1.1-1l.6-.2q1.2-.4 2 .6l8.7 10.6q.5.5 1.1.6.7.2 1.3-.1l9.3-4.3q1.4-.6 2.3.5l9.3 12q.6.7.3 1.7l-1.8 6q-.3 1-1.5 1.3-23.4 4-24.6 3.8l-13.2-4.4q-.7-.3-1-.8l-5.3-8.2q-.6-.8-1.6-.8l-17.7-.3q-.7 0-1.3.4l-28.9 24q-.5.5-.7 1.2l-2.5 14q-.2.6-.7 1l-4 3.6q-.7.7-.7 1.5v12.7q0 1 .7 1.6l17 13.8q.6.4 1.2.4h30q.7 0 1.1.5l7 6q.9.7.7 1.7l-1.5 10.5.2 1.2q.4.5 1 .8l9.7 4.1q1.3.6 1.1 2l-2.5 30.8q-.1 1.3 1 1.8l9.8 5.8q1.2.7 1 2l-3.6 23q0 .8.4 1.4.6.7 1.4.7l18.4 1.4q.9 0 1.5-.6l18.3-18.9q.5-.5.5-1.4l-.5-18.3q0-.9.7-1.6l12.5-10.3q.7-.5.7-1.4l.8-24q.1-3.5 2.7-5.9l17.6-15q1.8-1.6 1.5-3.9l-.6-5.5q-.2-1.8-1.4-3-1.4-1.1-3.2-1l-20.6.6q-.9 0-1.5-.5-.6-.6-.6-1.4l.3-11.4q0-.9-.7-1.5l-8.5-7.4q-.6-.6-.6-1.5l.4-9.3q.1-.6.5-1.2.5-.5 1.2-.6l4.9-.8q1-.2 1.7.6l10.4 11q.7.6.6 1.4l-.5 13.1q0 .7.4 1.2.4.6 1 .7l6.7 1.6q1.1.3 1.8-.5l14.5-15q.6-.7.6-1.5-.1-.9-.8-1.4L434 193.7q-.7-.6-.7-1.4-.1-.8.4-1.4l3.4-4q.5-.6 1.5-.6h7.1q1.2 0 1.8 1l3.2 7q.6 1.1 1.8 1.1h12.3q1 0 1.5.6.6.7.5 1.6l-1.3 9.3q-.1 1 .4 1.6.6.7 1.5.7h9q1 0 1.6.6.6.7.4 1.6l-2.3 13.3q-.1.8.4 1.5l13.4 17q.6 1 1.7 1h4.6q1.5 0 2-1.5l14.7-36q.6-1.3 2-1.3h4.5q1 0 1.6.8l9.3 10.4q.5.7.6 1.3l1.4 15.6q0 .5.4 1l4.8 7.6q.5.7 1.3 1 .7.2 1.5 0 1-.4 1.4-1.2.4-.8.1-1.7-1.2-3.8-2.8-10.1-.2-.9.2-1.7.4-.7 1.2-1l1-.3q.8-.2 1.5 0 .8.3 1.1 1l2.8 4.6q.5.8 1.5 1 1 .2 1.7-.4l8.3-6.7q.8-.6.9-1.6l.6-9.7q.2-1.6-1.1-2.7L552 207q-1.4-1.1-1.1-2.8l.5-4.4q.1-.8.7-1.4.5-.5 1.3-.6l11-.8q1.3 0 1.8-1.3l5.5-12.7q.6-1.3-.4-2.4l-7.7-8.6q-.8-1-.5-2l2.8-10.5q.2-.8.8-1.3.7-.4 1.5-.4l4.8.6q1 0 1.8-.6.7-.7.6-1.7l-1.2-34.3q0-1.2.9-2l8.4-5.7q.7-.5 1.4-.4l17.5 1.7q.9.1 1.5.7.5.7.5 1.5v15q0 .7.5 1.3.4.6 1.1.8l4.3 1.3q.8.2 1.5-.2.8-.3 1.1-1.1l8-18.6.5-.8 10-9q.6-.5 1-.5l6.4-1.7q1.1-.2 1.5-1.3.4-1.1-.3-2l-2.2-3.2q-1-1.4-2.6-2.2-1.6-.7-3.4-.6l-22.8 2q-3.3.2-5.7-2.4l-5.3-6.2q-1.6-2-4-2.2l-34-5.2q-2.6-.4-5 .2-27.8 5.7-28.8 5.4-1-.2-12.6-10.5"/><path fill="#FBFBFB" stroke="#EFEFEF" stroke-width="4" stroke-linecap="round" stroke-linejoin="round" d="M433.4 284.6q-1.7.2-2.6 1.6l-5 7.3-.5 1.1-2.7 9.6q-.5 1.7.4 3.2l2 3.1q.8 1.4 2.3 1.8 1.5.4 3-.3l4.2-2.4q1.7-1 2-2.8l3-18q.3-2-1.2-3.3-1.4-1.5-3.4-1.2l-1.5.3M328.8 112.9q0-.9-.7-1.5-.5-.6-1.3-.8h-.3q-1.2-.2-2 .6-1 .8-1 2l.2 5.6q0 .5-.3 1.3l-2.2 4q-.5 1-.2 2t1.2 1.5l2.3 1.1q.8.5 1.8.3.8-.3 1.4-1l1.8-2.6q.6-.9.5-1.7l-1.2-10.8m-11.7 7.6l-1-1.4q-.6-.7-1.6-.9-1-.2-1.7.4l-.9.5q-.8.5-1 1.5l-.7 2.6q-.1.7.2 1.5.3.7 1 1.1l1 .6q.9.6 1.9.3 1-.2 1.5-1.1l1.4-2.3q.9-1.4 0-2.8m217 126.8l-5-1.6q-1.2-.3-2.2.5-1 .8-.7 2.1l1 5.7q0 .5.4.9l4.2 5.7q.2.4.6.7l7 4.2q.4.3.9.3l10.6 1.5q1.2.1 2-.8t.5-2l-.8-3.5q-.1-.8-.8-1.3-.6-.5-1.4-.5h-6.1q-1 0-1.6-.6-.7-.7-.7-1.7t-.7-1.6q-.7-.7-1.6-.7h-.3q-1.5 0-2.1-1.4l-1.8-4.5q-.4-1-1.4-1.4m37.1 7.5q-.6-.7-1.6-1-1-.2-2 .2l-5.7 2.6q-1 .5-1.4 1.6-.5 1-.2 2l1 3q.4 1.5 2 2l11 3.4q1 .3 1.9 0l2-.7q2-.7 2-3-.2-2.2-2.3-2.7-1-.3-1.7-1l-5-6.4M550 316q.7-.7 1.8-.8l8.5-.3q1.5 0 2.3 1.2l3.4 4.6q.7 1 2 1.2l14.9 1.3q1.4.1 2.4-1l7-9q.6-.6.6-1.3l1.6-12.5q.1-.8-.3-1.6l-10.1-20q-.6-1-1.8-1.3l-.6-.2q-1.2-.3-2.2.4-1 .7-1.2 1.9l-.1 1.4q-.2 1.7-2 2.2-1.6.5-2.8-.8l-2.6-3q-1-1.2-2.7-.8l-12 3q-1 .2-1.6 1l-4.9 6.6q-.4.6-1.1.9l-11.6 4.7q-.8.4-1.3 1.1-.4.7-.4 1.6l2 23.4q0 1.3 1.2 2 1.1.8 2.3.4l6.6-2q.8-.3 1.3-1t.5-1.5q.1-1 .9-1.8m59.1-6.2q-1.6.5-1.6 2.1 0 .8-.4 1.3L605 316q-.7 1-.3 2l1 2.8q.4 1 1.5 1.2 1 .3 1.9-.3l6.3-5q1-.8.7-2.2-.3-1.4-1.7-1.6l-1-.2q-.9-.2-1.3-1l-.6-1q-.8-1.3-2.4-.9m-5.3 17.6q-.8-1.7-2.6-2-2-.2-3.2 1.1l-2.3 2.8q-.3.4-.9.7l-8.2 4.7q-1 .7-1.5 1.8-.4 1.1 0 2.3.3 1 1.2 1.7t2 .6h3q1.5 0 2.5-1.1l1.7-2q1-1.3 2.6-1.3h.4q1 0 1.9-.5.8-.6 1.2-1.4l2.1-4.5q.7-1.5 0-3"/><path fill="#F4AA73" d="M422.2 378q.1-24-8.6-61.5-4-16.8-8-29.9 3.9 15.6-5.7 53-3.2 13-7.7 27l-3.8 11.3h33.8"/><path fill="none" stroke="#1A344F" stroke-width="2.5" stroke-linecap="round" stroke-linejoin="round" d="M400 339.7q9.5-37.5 5.7-53m-13.5 79.8q4.5-14 7.7-26.8m-11.5 38.2l3.8-11.4m30 11.4h-33.8m25.2-61.4q8.7 37.5 8.6 61.4m-16.5-91.3q4 13 7.9 30m-8.8-32.8l.9 2.8"/><path fill="#F4AA73" d="M395 291q-.6-3.6-3.5-5.6-3-2.1-6.4-1.5-3.6.6-5.6 3.5-2.1 2.9-1.5 6.4l16.5 84.1h15L395 291"/><path fill="none" stroke="#1A344F" stroke-width="2.5" stroke-linecap="round" stroke-linejoin="round" d="M391.5 285.4q2.9 2 3.5 5.6l14.5 87m-18-92.6q-3-2.1-6.4-1.5-3.6.6-5.6 3.5-2.1 2.9-1.5 6.4l16.5 84.1"/><path fill="#DA6A61" d="M385.5 289.8L349 267.5 317.2 331l-6 46.8h83.3l-9-88"/><path fill="#F4AA73" d="M337.1 292.4q-.1-3.3-2.6-5.7-2.5-2.3-5.9-2.1l-75.9 2.5-2.8-71q4-2.3 6.3-6.4 2.5-4.1 2.5-8.9 0-1.6-1.3-4.6l-2.1-4.4v-22q0-3.3-1.6-5-1.6-1.5-4.9-1.5-5.8 0-5.8 8.2v11.7q-7.4.2-13.4 5.3-6.3 5.3-6.3 12.3 0 5.3 2.8 9.6t7.3 6.4l3.2 79.2q.1 3.3 2.5 5.6t5.7 2.3l82.9 5.3q3.2-.1 6.5-6.7 3-6.1 2.9-10"/><path fill="#EAB091" d="M242.6 181.3q-.7 2 .4 1.9l5.6-16.2q0-2.1.3-3.7h-1q-5.8 0-5.8 8.2v8.4q1-.4.5 1.4"/><path fill="#DB9865" d="M222.3 200.8q0 5.2 3 9.6 2.7 4.2 7.2 6.4l3.2 79.2q.1 3.3 2.5 5.6t5.7 2.3l83.8 5.3q2 0 4.5-5.5l.4-1-82.3-3.4q-3.3 0-5.6-2.3-2.4-2.3-2.6-5.6l-3-79.1q-4.7-2.2-7.5-6.4-2.8-4.4-2.8-9.6 0-6 4.9-11-5 2.3-8 6.3-3.4 4.4-3.4 9.2"/><path fill="none" stroke="#1A344F" stroke-width="2.5" stroke-linecap="round" stroke-linejoin="round" d="M337.1 292.4q-.1-3.3-2.6-5.7-2.5-2.3-5.9-2.1l-75.9 2.5-2.8-71q4-2.3 6.3-6.4 2.5-4.1 2.5-8.9 0-1.6-1.3-4.6l-2.1-4.4v-22q0-3.3-1.6-5-1.6-1.5-4.9-1.5-5.8 0-5.8 8.2v11.7q-7.4.2-13.4 5.3-6.3 5.3-6.3 12.3 0 5.3 2.8 9.6t7.3 6.4l3.2 79.2q.1 3.3 2.5 5.6t5.7 2.3l82.9 5.3q3.2-.1 6.5-6.7 3-6.1 2.9-10"/><path fill="#EAB091" d="M342.4 274.3q0 4 2.8 6.7 2.8 2.8 6.7 2.8 4 0 6.8-2.8 2.7-2.8 2.7-6.7v-9.5h-19v9.5"/><path fill="none" stroke="#1A344F" stroke-width="2.5" stroke-linecap="round" stroke-linejoin="round" d="M342.4 274.3q0 4 2.8 6.7 2.8 2.8 6.7 2.8 4 0 6.8-2.8 2.7-2.8 2.7-6.7v-9.5h-19v9.5"/><path fill="#DA6A61" d="M299 378h12.1l36.2-106.2-45.7 10.8q-2.2 15.6-3.7 35.3-2.9 39.4 1.2 60"/><path fill="none" stroke="#1A344F" stroke-width="2.5" stroke-linecap="round" stroke-linejoin="round" d="M299 378h12.1m-12 0q-4.1-20.7-1.2-60.1 1.5-19.7 3.7-35.3l45.7-10.8"/><path fill="#DA6A61" d="M404.8 283.8l-46.5-12L394.5 378h15q2.7-21.3-.8-59.8-1.7-19.3-4-34.3"/><path fill="none" stroke="#1A344F" stroke-width="2.5" stroke-linecap="round" stroke-linejoin="round" d="M358.3 271.8l46.5 12q2.2 15 4 34.3 3.4 38.5.7 59.8h-15"/><path fill="#E09762" stroke="#1A344F" stroke-width="2.5" stroke-linecap="round" stroke-linejoin="round" d="M345.2 281q2.8 2.8 6.7 2.8 4 0 6.8-2.8 2.7-2.8 2.7-6.7v-9.5h-19v9.5q0 4 2.8 6.7"/><path fill="#7AC7EE" stroke="#1A344F" stroke-width="2.5" stroke-linecap="round" stroke-linejoin="round" d="M209 81.4q-12 15.7-9.4 35.3 2.6 19.6 18.4 31.5 15.6 12 35.2 9.3 19.6-2.6 31.6-18.3 12-15.7 9.3-35.3-2.7-19.6-18.4-31.5-15.7-12-35.2-9.3-19.6 2.6-31.6 18.3"/><path fill="#99C977" d="M208.4 81.3q-12 15.8-9.4 35.5 2.7 19.7 18.5 31.7T253 158q19.8-2.6 31.8-18.5 12-15.8 9.4-35.5-2.7-19.7-18.5-31.7-15.9-12-35.5-9.4-19.7 2.6-31.8 18.5m10.8-3.2q9.4-8 21.8-9.6 11.5-1.5 22 2.9l-.3.1q-1 .2-3.1 1.2-2 1-2.6 1.5-1.7 1.6-2.6 1.7 1.1-.9 1-1.8-.3-.8-2.4-1.4-.8-.2-2.2 0l-2.4.5-.9.2q-2.4.5-4.2 1.9-1.9 1.4-3.4 4.2-.6 1-.2 1.7.3.6 1.2.7l-.2.2q-.3.3-.2.7.3 1 .2 1.3l-.3.3-.4.3q-.6 1-1.3 1.3l-1.2.3q-1.1.3-2 1.2-.7.6-.7 1-.1.7.6 1.7h-1.3l-1.3.2q-1.1.4-2.1 2-.8 1.2-.4 2.3.9 2.1 4.4 1.8l-.3.1-2.5 1q-1.3.9-1.8 2-.6 2-1 2.8-1.2 2-1.5 3.2-.4 1.3-.2 3.6v1.1q.3 3.5 1.3 5.4 1.4 2.8 4.7 4 .8.2 1.6 0 .9 0 2-.5l1.3-.5q2.7-.7 3.4-.7 2.1-.3 3.5.4.7.4 1.2 1.1l1 1.5 1.5 1.9q1 1.1 1.3 1.8.6 1.2.5 4.4 0 2.6.2 3.5.4 1.7 2 3.8l.8 1.1.7 1.4q.4 1 .9 1.3.6.4 1.7.2h.6q3.3-1 5.7-3.6 2-2.2 2.7-5.1.2-1 1.2-1.8l.7-.9-.1.7q-.5 2.3 0 3 .3.6 1 .7h.4q.9 0 2.2-1.9.3-.5.5-1.3l.1-.4q.2-.8.8-1.6l.5-1q.2 0 .4-.7.2-.8 0-1.4-.2-.4-.7-.6-1-.3-1.9.6l-.6.7-1 .4q-.5.3-.9.8.1-1-.2-2.6-.3-1.7-.2-2.5.3-1.7 2.8-4.7 1.4-1.8 2-2.9 1-1.7 1.3-3.3 0-.5 1-2.2.8-1.4.5-1.7l2.7-2q.7-.6.4-1l1-.2q1-.1-.4-2-.6-.9-1.7-2 .3 0 .1-.7-.2-.8.2-.8 2 0 2.7.4 1 .8 2.1 4.7l1.5 3.8q1 1.8 2.4 2 .7.1 1-.6.3-1 .1-2.3l-.6-2.3q-.7-2.2-.6-3.2.2-1.3.5-2 1 3.4 1.3 5.8.6 4.7.2 9.5-.8.5-.3 3 .5 2.4 0 3l-3 4.6q-1.7 2.6-4 3.8l-1 .7q-.9.6-1.3 2.4l-1 3.6q-.5 2.2.1 3-5 5.7-11.6 9.3-6.7 3.6-14.3 4.6-7.4 1-14.6-.5-7-1.5-13.3-5.4v-.4q0-1-.3-1.6-.2-.7 7.9-2.6 3.7-1 .7-1.6l-3.2-.6h-3q-2.8-.2-2.7-.6.2-1-.6-2.3l-.5-.7q-.4-.8 0-2.9.3-1.2.3-2-.1-1.2-1-2-.9-1-3.2-1.5l-1.8-.5q-1-.3-2.2-1.7-1.8-1.8-5.7-4.3l-2-1.3-.2-.1q-.8-.6-1.7-1l-.4-2.6q-1.3-9.2 1.5-18.4 1.4-1.2 4.2-2.4 3.3-1.5 4.4-2.3 1.1-.8 3-3l2.4-3.2q2.2-3.2.3-6.6-.6-1.2-1.4-2m29.1-.6v.4q.2 1 .6 1.4h.1l.4.2-.7.5q-1.8 1.2-2.5 1.4-.4-1 1.5-4.2l.6.3"/><path fill="none" stroke="#1A344F" stroke-width="2.5" stroke-linecap="round" stroke-linejoin="round" d="M208.4 81.3q-12 15.8-9.4 35.5 2.7 19.7 18.5 31.7T253 158q19.8-2.6 31.8-18.5 12-15.8 9.4-35.5-2.7-19.7-18.5-31.7-15.9-12-35.5-9.4-19.7 2.6-31.8 18.5"/><path fill="none" stroke="#1A344F" stroke-width="2.5" stroke-linecap="round" stroke-linejoin="round" d="M220.6 80.1q-.6-1.2-1.4-2 9.4-8 21.8-9.6 11.5-1.5 22 2.9l-.3.1q-1 .2-3.1 1.2-2 1-2.6 1.5-1.7 1.6-2.6 1.7 1.1-.9 1-1.8-.3-.8-2.4-1.4-.8-.2-2.2 0l-2.4.5-.9.2q-2.4.5-4.2 1.9-1.9 1.4-3.4 4.2-.6 1-.2 1.7.3.6 1.2.7l-.2.2q-.3.3-.2.7.3 1 .2 1.3l-.3.3-.4.3q-.6 1-1.3 1.3l-1.2.3q-1.1.3-2 1.2-.7.6-.7 1-.1.7.6 1.7h-1.3l-1.3.2q-1.1.4-2.1 2-.8 1.2-.4 2.3.9 2.1 4.4 1.8l-.3.1-2.5 1q-1.3.9-1.8 2-.6 2-1 2.8-1.2 2-1.5 3.2-.4 1.3-.2 3.6v1.1q.3 3.5 1.3 5.4 1.4 2.8 4.7 4 .8.2 1.6 0 .9 0 2-.5l1.3-.5q2.7-.7 3.4-.7 2.1-.3 3.5.4.7.4 1.2 1.1l1 1.5 1.5 1.9q1 1.1 1.3 1.8.6 1.2.5 4.4 0 2.6.2 3.5.4 1.7 2 3.8l.8 1.1.7 1.4q.4 1 .9 1.3.6.4 1.7.2h.6q3.3-1 5.7-3.6 2-2.2 2.7-5.1.2-1 1.2-1.8l.7-.9-.1.7q-.5 2.3 0 3 .3.6 1 .7h.4q.9 0 2.2-1.9.3-.5.5-1.3l.1-.4q.2-.8.8-1.6l.5-1q.2 0 .4-.7.2-.8 0-1.4-.2-.4-.7-.6-1-.3-1.9.6l-.6.7-1 .4q-.5.3-.9.8.1-1-.2-2.6-.3-1.7-.2-2.5.3-1.7 2.8-4.7 1.4-1.8 2-2.9 1-1.7 1.3-3.3 0-.5 1-2.2.8-1.4.5-1.7m-55.2-27q1.9 3.4-.3 6.6l-2.4 3.1q-1.9 2.3-3 3.1-1.1.8-4.4 2.3-2.8 1.2-4.2 2.4-2.8 9.2-1.5 18.4l.4 2.5 1.7 1.1h.2l2 1.4q4 2.5 5.6 4.3h.1q1.3 1.4 2.2 1.7l1.8.5q2.3.5 3.3 1.4.8.9.9 2.1 0 .8-.3 2-.4 2 0 2.9l.5.7q.8 1.3.6 2.3 0 .4 2.6.6h3l5.4-1m-5.3 1l3.2.6q3 .7-.7 1.6-8.1 2-8 2.6.3.7.3 1.6v.4q6.3 3.9 13.4 5.4 7.2 1.5 14.6.5 7.6-1 14.3-4.6 6.6-3.6 11.7-9.3-.7-.8-.2-3l1-3.6q.4-1.8 1.2-2.4l1.2-.7q2.2-1.2 4-3.8l3-4.6q.4-.6 0-3-.6-2.5.2-3 .4-4.8-.2-9.5-.3-2.4-1.2-5.8-.4.7-.6 2 0 1 .6 3.2.5 1.5.6 2.3.2 1.3-.2 2.3-.2.7-.9.6-1.4-.2-2.4-2-.6-1-1.5-3.8-1.1-4-2.1-4.7-.6-.4-2.7-.4-.4 0-.2.8.2.7-.1.6l1.7 2.1q1.3 1.9.4 2l-1 .3q.3.3-.4.8"/><path fill="none" stroke="#1A344F" stroke-width="2.5" stroke-linecap="round" stroke-linejoin="round" d="M248.3 77.5l-.6-.3q-1.8 3.2-1.5 4.2.7-.2 2.5-1.4l.7-.5-.4-.1v-.1q-.5-.4-.6-1.4v-.4"/><path fill="#FAEDED" d="M336 339q1 0 1.6.7.6.7.6 2.5 0 4-4.2 8.6-4.3 4.7-4.3 8.8v3.3h12.5V359H334v-.6q0-1.7 4.3-6.6 4.3-5 4.3-9.8 0-3.3-1.7-5-1.6-1.9-4.7-1.9-3.2 0-4.9 1.8-1.6 1.8-1.6 5.1v2.7h4v-3q0-2.7 2.3-2.7m22.3 17.4v-2.2q0-4.3-2.8-5.7 2.8-1.6 2.8-5.6v-.9q0-3.3-1.8-5-1.8-1.9-5-1.9-3.3 0-5 1.8-1.8 1.8-1.8 5.1v.9q0 4.1 2.7 5.6-2.7 1.4-2.7 5.7v2.2q0 3.3 1.7 5 1.8 1.9 5 1.9 3.3 0 5.1-1.8 1.8-1.8 1.8-5.1m-9.3-14.2q0-3.2 2.5-3.2 2.4 0 2.4 3.2v1.5q0 3-2.4 3-2.5 0-2.5-3v-1.5m0 14v-2.6q0-3 2.5-3 2.4 0 2.4 3v2.6q0 3.1-2.4 3.1-2.5 0-2.5-3m12.7-20q-1.1 1.2-1.1 3.3v9q0 4.5 4.2 4.5 4.1 0 4.1-4.4v-9q0-4.5-4.1-4.5-2 0-3.1 1.1m4.5 3.1v9.5q0 1.7-1.4 1.7-1.5 0-1.5-1.7v-9.5q0-1.7 1.5-1.7 1.4 0 1.4 1.7m9.1 7q-1 1.2-1 3.3v9q0 2.2 1 3.3t3.1 1.1q4.2 0 4.2-4.4v-9q0-4.4-4.2-4.4-2 0-3 1.1m1.6 3q0-1.6 1.4-1.6t1.4 1.7v9.4q0 1.8-1.4 1.8t-1.4-1.8v-9.4"/><path fill="#FAEDED" d="M364.8 363h2.5l10.9-27.6h-2.6l-10.8 27.5"/><path fill="#7F1E1E" d="M322.1 306.3l-.6-2.7q-4.7 1-9.5 2.4l5.4 18.6q4.7-1.3 8.3-2.1l-.6-2.7-5.4 1.3-1.4-5.5 4.4-1-.6-2.8-4.5 1.1-1.4-5.1q3.1-.9 5.9-1.5m4.9-3.8l-3.5.7 3 14.4q1 4.6 5.5 3.9 4.6-.8 4-5.5l-2-14.6-3.3.5 2.3 14.7q.3 1.8-1.3 2.1-1.6.3-2-1.5l-2.7-14.7m18.3 7.7q2.2-1.1 2-4v-1.6q-.3-4.6-5.5-4.1l-5.4.5 2.3 19.3 3.1-.4-.8-7.8h1.2q1.2-.2 1.7.3.6.5.7 1.9l.2 3q0 1.5.4 2.4l3.2-.2q-.4-.8-.5-2.3l-.1-3q-.2-3.4-2.5-4m-3.4-7q1.8 0 2 2v1.8q.2 2-1.8 2.2l-1.3.1-.6-5.9 1.7-.1m15.3-3.3q-2.8 5.7-4.4 9.6-1.6 3.9-3.7 9.8h2.7q2.2-5.9 3.9-9.8 1.7-3.8 4.6-9.5l-3-.1m7.8.3l-3.5-.2-.7 14.7q-.2 4.8 4.4 5.2 4.6.4 5.2-4.4l1.7-14.6-3.4-.4-1.3 14.9q-.2 1.9-1.9 1.7-1.7-.1-1.5-2l1-14.9m10.2 2.1q-1.5 1.1-1.8 3.4-.3 3 2.5 6.2t2.5 5q-.4 1.8-2 1.5-1.6-.3-1.3-2l.2-1.5-3.1-.4-.1 1.2q-.6 4.8 4 5.5 4.5.7 5.5-4 .5-2.9-2.2-6.1-2.8-3.3-2.5-5 .3-2 2-1.7 1.8.3 1.4 2.2l-.1.8 3.2.6.1-.6q.5-2.4-.6-3.8-1-1.5-3.6-2-2.6-.4-4 .7m20.5 8.2q.7-2.2-.3-3.8-1-1.5-3.5-2.2l-5.6-1.2-4 18.8 4.8 1.2q4.6 1.2 5.9-3.4l2.7-9.4m-4.6-3.3q1.8.4 1.3 2.2l-2.6 9.8q-.5 1.8-2 1.4l-1.8-.4 3.2-13.5 2 .5"/><path fill="#FBE6C5" stroke="#1A344F" stroke-width="2.5" stroke-linecap="round" stroke-linejoin="round" d="M316.8 182.9l-11.4-3q-2.2 10-2.5 23.7-.6 27.1 9 44.5 9.5 17.4 8.1-22.1-.6-19.8-3.2-43.1"/><path fill="#F4AA73" stroke="#1A344F" stroke-width="2.5" stroke-linecap="round" stroke-linejoin="round" d="M384.1 225.1q-3.8 3.5-4.1 8.6-.3 5.1 3.1 9 3.4 3.8 8.6 4.1 5.1.3 9-3 3.8-3.5 4-8.7.4-5.1-3-9-3.5-3.8-8.6-4-5.2-.4-9 3m-57.6 11.3q.3-5.1-3.2-9-3.4-3.9-8.6-4.1-5-.3-9 3.1-3.8 3.5-4 8.6-.4 5.1 3 9 3.5 3.8 8.7 4 5.1.4 8.9-3 3.9-3.5 4.2-8.6"/><path fill="#F4AA73" stroke="#1A344F" stroke-width="2.5" stroke-linecap="round" stroke-linejoin="round" d="M351 178.1q-17.8-1-27.6 4.1-11.7 6-12.6 21l.5 25q-1.1 20 1.6 27.9 4 12 18.4 12.8l38.2.3q14.5.8 19.8-9.8 3.5-7 4.6-26.6l3.3-24.7q2.5-46.2-22.8-42L351 178"/><path fill="#F0B971" stroke="#1A344F" stroke-width="2.5" stroke-linecap="round" stroke-linejoin="round" d="M393.8 162.8q-4.2-3.5-9.8-3.3l-28.3 1-6.1-6.5-50.5 1.6q-.7 18.5 12.4 30Q323.3 196 340 196q12.7 0 33.8-7.7 10.5-3.8 18.5-7.6l3 41.8 1.8.3q1.9.1 2.4-1.2 3.4-8.1-1-49.7-.5-5.4-4.7-9"/><path fill="#CC9E57" d="M371 188.6l18-8-14.6-20-21.5 1 18 27"/><path fill="none" stroke="#1A344F" stroke-width="2.5" stroke-linecap="round" stroke-linejoin="round" d="M305.7 149.7q2 6 7.5 11.7 11 11.4 28.4 10m-8-5.8l3.9.7"/><path fill="none" stroke="#1A344F" stroke-width="2.5" stroke-linecap="round" stroke-linejoin="round" d="M309.2 143.2q1.1 3.8 4.2 8.4 6 9.1 16 12.8"/><path fill="#DB9865" d="M311.5 223.5l-6.8 4 4.7 17.8 2.1-21.8"/><path fill="#DB9865" d="M326.5 268.3l11-.5q-14.7-5.5-22.2-35.6-3.7-15-4.5-29l1 45 3.6 13 11 7.1"/><path fill="none" stroke="#1A344F" stroke-width="2.5" stroke-linecap="round" stroke-linejoin="round" d="M389.3 259.4q3.5-7 4.6-26.6m-4.6 26.6q-5.3 10.6-19.8 9.8l-38.2-.3q-14.4-.8-18.4-12.8-2.7-8-1.6-28l-.5-24.9"/><path fill="#F4AA73" d="M339.6 270q4.6 2.4 11 2.4 6.6 0 11.2-2.4 4.6-2.3 4.6-5.7H335q0 3.4 4.7 5.7"/><path fill="none" stroke="#1A344F" stroke-width="2.5" stroke-linecap="round" stroke-linejoin="round" d="M350.7 272.4q-6.5 0-11.1-2.4-4.7-2.3-4.7-5.7m15.8 8.1q6.5 0 11.1-2.4 4.6-2.3 4.6-5.7"/><path fill="#F0B971" d="M367.4 165.9q-3-5.5-8.3-8.7-5.3-3.2-11.5-3.2l16.3 37.5 14-4.8-10.5-20.8"/><path fill="none" stroke="#1A344F" stroke-width="2.5" stroke-linecap="round" stroke-linejoin="round" d="M359.1 157.2q5.4 3.2 8.3 8.7l10.6 20.8-14 4.8m-4.9-34.3q-5.3-3.2-11.5-3.2M304 243q2.5 3.5 6.7 4.6M304 243q-2.6-3.5-2.4-8 .2-4 2.8-7.1 2.5-3 6.3-4.1m34 13.6h15.6m-25-2.8q-7.5 7-7.5 14.4m7.5-14.4q3.7-3.4 7.4-5.5m28.6 5.5q7.4 7 7.4 14.4m-7.4-14.4q-2.4-2.2-5.2-4l-2.3-1.5m-36-14q-.9 1-.9 2.2m.9-2.2q1-.9 2.2-.9l14.8 1m34.5-.1q1 1 1 2.2m-1-2.2q-1-.9-2.2-.9l-14.7 1m-40.7-10.3q-1.5 1.5-1.5 3.7m1.5-3.7q1.5-1.5 3.7-1.5h4.2q3.8 0 7.3 1.4 3.5 1.5 6.2 4.2l1.2 1.1 4.2-4.2m35.4-1q1.6 1.5 1.6 3.7m-1.6-3.7q-1.5-1.5-3.7-1.5h-4.1q-3.9 0-7.3 1.4-3.5 1.5-6.2 4.2l-1.2 1.1-4.3-4.2M76.5 378h542"/><path fill="#DA6A61" d="M306.7 371.3l.6 3 2.2-89.1q-4.2 48.2-3.6 73.5.2 7.9.8 12.6"/><path fill="none" stroke="#FFF" stroke-width="2.5" stroke-linecap="round" stroke-linejoin="round" d="M306.7 371.3l.6 3m-.6-3q-.6-4.7-.8-12.6-.6-25.3 3.6-73.5"/><path fill="#DA6A61" d="M401 374.3l.5-8q.5-10.4.5-20.9 0-33.6-4.6-57.5l3.6 86.4"/><path fill="none" stroke="#FFF" stroke-width="2.5" stroke-linecap="round" stroke-linejoin="round" d="M401.5 366.2l-.5 8.1m.5-8q.5-10.4.5-20.9 0-33.6-4.6-57.5"/><path fill="#1A344F" d="M262.1 407.5v-7h-29.8v7h10.3v32.3h9.1v-32.3h10.4m31-3q-4.7-4.6-12-4.6-7.5 0-12.1 4.7-4.7 4.7-4.7 12v7q0 7.4 4.7 12 4.7 4.8 12.1 4.8 7.5 0 12-4.8 4.7-4.6 4.7-12v-7q0-7.3-4.7-12m-6.4 5q2 2.6 2 7v7q0 4.3-2 7-2 2.8-5.6 2.8-3.7 0-5.7-2.8t-2-7v-7q0-4.3 2-7t5.7-2.7q3.6 0 5.6 2.7m16.7 30.2h9.1v-13.5h5.9q7 0 11.1-3.5 4.1-3.6 4.1-9.4 0-5.8-4-9.4-4.2-3.6-11.2-3.6h-15v39.4m9.1-32.3h5.9q3 0 4.5 1.6 1.6 1.7 1.6 4.3 0 2.7-1.6 4.2-1.5 1.7-4.5 1.7h-5.9v-11.8m70.2 5.9q0-5.8-4.1-9.4-4-3.6-11.1-3.6h-15v39.4h9v-13.5h6q7 0 11-3.5 4.2-3.5 4.2-9.4m-15.2-6q3 0 4.6 1.7 1.5 1.7 1.5 4.3 0 2.7-1.6 4.2-1.5 1.7-4.5 1.7h-6v-11.8h6m30.2-7h-5L380 439.7h9.6l2.2-7.6h11.8l2.2 7.6h9.7l-12.9-39.4h-4.9m0 12.5l3.7 12.2H394l3.6-12.2h.2m30.2-12.5h-9.2v39.4h9.2v-39.4m35.3 11.8q0-5.4-4-8.6-4-3.2-10.8-3.2h-13.7v39.4h9.2v-15h4.9q2.8 0 4.3 1.4 1.5 1.5 1.5 4.3v2.4q0 1.8.3 4 .4 2.1 1.4 2.9h9.5v-.6q-1.1-.7-1.7-2.8-.4-1.9-.4-3.5v-2.5q0-3.5-1.6-5.9-1.5-2.4-5.2-3.4 3.1-1.4 4.8-3.6 1.5-2.2 1.5-5.3m-14.8-4.7q2.7 0 4.3 1.4 1.4 1.5 1.4 4 0 2.3-1.4 3.6-1.4 1.2-4.2 1.2H444v-10.2h4.5m94.6 94h-4.3v19.3h2.7v-13.7l2.2 13.7h3l2-13.9v14h3v-19.5h-4.3l-2 13.8-2.3-13.8m17.6 0h-4.5l-3.1 19.4h2.8l.5-3.5h3.8l.5 3.5h3l-3-19.4m-3.9 13.3l1.5-9.8 1.4 9.8h-2.9m13.4-13.3h-3v14.8q0 2-1.8 2l-1-.1v2.7l1.4.1q4.4 0 4.4-4.9v-14.6m11.1 4.7q0-2.4-1.2-3.6-1.1-1.3-3.4-1.3-2.2 0-3.5 1.3-1.2 1.2-1.2 3.6v10.1q0 2.4 1.2 3.6 1.2 1.3 3.5 1.3t3.4-1.3q1.2-1.2 1.2-3.6v-10.1m-4.6-2.1q1.6 0 1.6 2v10.4q0 2-1.6 2t-1.6-2v-10.5q0-2 1.6-2m11.2-2.5h-4.6v19.4h3V513h1.1q1 0 1.5.6t.5 1.9v3q0 1.5.3 2.4h3.1q-.3-.7-.3-2.3v-3q0-3.3-2-4.2 2-.9 2-4V506q0-4.5-4.6-4.5m0 2.8q1.5 0 1.5 2v1.9q0 2-1.8 2h-1.2v-6h1.4m7.4-1.6q-1.1 1.2-1.1 3.6 0 3 3 5.7 3 2.8 3 4.6 0 1.9-1.7 1.9-1.5 0-1.5-2V515h-3v1.2q0 4.9 4.6 4.9t4.6-4.9q0-3-3-5.7-3-2.8-3-4.6 0-2 1.5-2 1.6 0 1.6 2v.8h2.9v-.6q0-2.4-1.1-3.6-1.2-1.3-3.4-1.3t-3.4 1.3M76.3 446.3V470h10.2v-3.4h-6.4v-7h5v-3.3h-5v-6.6h6.4v-3.4H76.3m16 0h-3.7v18q0 3 1.4 4.5 1.5 1.5 4.2 1.5t4.1-1.5q1.4-1.6 1.4-4.4v-18h-3.5v18.2q0 2.3-2 2.3-1.9 0-1.9-2.3v-18.3m19.8 1.4q-1.4-1.4-4.2-1.4h-5.6V470h3.7v-9.6h1.3q1.3 0 1.8.7.6.6.6 2.3v3.7q0 1.9.4 3h3.8q-.5-1-.5-3v-3.6q0-4-2.5-5 2.5-1.2 2.5-4.9v-1.8q0-2.8-1.3-4.1m-2.4 6.8q0 2.5-2.3 2.5H106v-7.3h1.8q1.9 0 1.9 2.5v2.3m17.5-8.2H124l-9.3 23.7h3.2l9.3-23.7m5.1 0h-3.7v18q0 3 1.4 4.5t4.1 1.5q2.8 0 4.2-1.5 1.4-1.6 1.4-4.4v-18h-3.5v18.2q0 2.3-2 2.3-1.9 0-1.9-2.3v-18.3m15-.2q-2.7 0-4.2 1.5-1.3 1.5-1.3 4.4 0 3.6 3.6 7 3.6 3.3 3.6 5.6 0 2.2-2 2.2-1.8 0-1.8-2.2v-1.7h-3.5v1.4q0 6 5.5 6t5.5-6q0-3.6-3.6-7-3.6-3.3-3.6-5.5 0-2.4 1.8-2.4t2 2.4v1h3.4v-.8q0-2.9-1.4-4.4-1.4-1.5-4-1.5m19 6q0-5.8-5.5-5.8h-5.9V470h5.9q5.5 0 5.5-5.8v-12m-5.6-2.5q2 0 2 2.3v12.3q0 2.3-2 2.3h-2v-17h2m-48.8 332.5q-1.2 1.2-1.2 3.6v10q0 2.4 1.2 3.7t3.4 1.3q2.3 0 3.5-1.3 1.1-1.2 1.1-3.6v-10.1q0-2.4-1.1-3.6-1.2-1.3-3.5-1.3-2.2 0-3.4 1.3m3.4 1.5q1.6 0 1.6 2V796q0 2-1.6 2t-1.6-2v-10.5q0-2 1.6-2m5.7-2.5v2.8h3.2v16.6h3.1v-16.6h3.2V781H121m20.5 0h-3.2v8.4H135V781h-3v19.4h3v-8.3h3.4v8.3h3.2V781m10.5 0h-8.3v19.4h8.3v-2.7h-5.3V792h4.3v-2.8h-4.3v-5.4h5.3V781m11 6v-1.5q0-4.5-4.5-4.5H154v19.4h3v-7.9h1.1q1 0 1.6.6.4.6.4 1.9v3q0 1.7.3 2.4h3.1q-.3-.7-.3-2.3v-3q0-3.3-2-4.2 2-.9 2-4m-3.1-1.1v1.9q0 2-1.8 2h-1.3v-6h1.5q1.6 0 1.6 2.1m10.7 4.3q-3-2.8-3-4.6 0-2 1.5-2t1.6 2v.8h2.9v-.6q0-2.4-1.1-3.6-1.2-1.3-3.4-1.3-4.5 0-4.5 4.9 0 3 3 5.7 3 2.8 3 4.6 0 1.9-1.6 1.9t-1.6-2v-1.3h-2.9v1.2q0 4.9 4.5 4.9 4.6 0 4.6-5 0-2.9-3-5.6"/><path fill="#F0B971" stroke="#1A344F" stroke-width="2.5" stroke-linecap="round" stroke-linejoin="round" d="M290 643q-3-19.3 5.2-37 8.2-18.2 25.4-28.6 23-13.9 49-7.5 26.1 6.5 40 29.5 13.4 22.2 7.8 47.5-5.5 25.2-26.9 39.6l37 61.2q22.9-14.6 38.4-36.7 14.9-21.4 20.9-47 6-25.5 2.1-51.3-4-26.8-18-50.2-14.4-23.7-36.6-39.9-21.5-15.6-47.4-22-26-6.4-52.2-2.7-27.2 4-51 18.3-37.5 22.6-54.7 62.7-17 39.2-8.5 80.9l69.6-16.9"/><path fill="#7CD8C7" stroke="#1A344F" stroke-width="2.5" stroke-linecap="round" stroke-linejoin="round" d="M220.5 659.8q4.6 23 16.9 43.5 14.3 23.7 36.5 39.9 21.6 15.6 47.5 22 25.8 6.4 52.1 2.6 27.2-3.9 51-18.2l3-1.9-37-61.2-3 2q-23 13.8-49 7.4-26-6.5-40-29.5-6.5-11-8.4-23.5l-69.6 16.9"/><path fill="none" stroke="#1A344F" stroke-width="2.5" stroke-linecap="round" stroke-linejoin="round" d="M480.8 582l49-48.9h79m-442.7-49H75m91 0l57.6 57.6M181.3 810l78.5-78.4M181.3 810h-76.1"/><path fill="#FFF" d="M428.8 600.7v4h8.6l-6.4 23.6h4.4l6.4-23.8v-3.8h-13m28.6 6.6q0-3.3-1.7-5.1-1.7-1.8-4.9-1.8t-4.8 1.8q-1.7 1.8-1.7 5v14.4q0 3.3 1.7 5.1 1.7 1.8 4.8 1.8t5-1.8q1.6-1.8 1.6-5v-14.4m-6.6-3q2.3 0 2.3 2.7v15q0 2.6-2.3 2.6-2.2 0-2.2-2.7V607q0-2.7 2.2-2.7m26.8-3.6H475l-10.9 27.6h2.6l10.9-27.6m-9.3 4.2q0-2.1-1-3.3-1.1-1-3.2-1-4.1 0-4.1 4.3v9q0 4.5 4.1 4.5 2 0 3.1-1.2t1.1-3.2v-9m-4.2-2q1.5 0 1.5 1.7v9.5q0 1.7-1.5 1.7-1.4 0-1.4-1.7v-9.5q0-1.7 1.4-1.7m13.7 7.5q-2 0-3 1.2-1.2 1.1-1.2 3.2v9.1q0 2.2 1.1 3.3t3 1.2q2.1 0 3.2-1.2t1-3.3v-9q0-2.2-1-3.3-1-1.2-3.1-1.2m0 2.5q1.4 0 1.4 1.8v9.4q0 1.7-1.4 1.7t-1.4-1.7v-9.4q0-1.8 1.4-1.8M293 707.1q-1.7-1.8-4.8-1.8-3.1 0-4.8 1.8-1.6 1.8-1.6 5.1v1.5h4V712q0-2.7 2.3-2.7 1.1 0 1.7.6.6.8.6 2.6v1.5q0 3-2.7 3h-1.6v3.8h1.4q1.5 0 2.2.8.7.9.7 2.7v2.2q0 3.1-2.3 3.1-2.2 0-2.2-2.7v-2.6h-4.1v2.3q0 3.3 1.6 5.1 1.7 1.8 4.8 1.8 3.1 0 4.8-1.8 1.7-1.8 1.7-5v-2.3q0-4.4-3-5.7 3-1.3 3-5.7v-.7q0-3.3-1.7-5m15.7 0q-1.7-1.9-4.9-1.9t-4.9 1.8q-1.7 1.8-1.7 5.1v14.3q0 3.3 1.7 5.1 1.7 1.8 5 1.8t4.8-1.8q1.6-1.8 1.6-5v-14.4q0-3.3-1.6-5m-7.2 19.6V712q0-2.7 2.3-2.7 2.2 0 2.2 2.7v15q0 2.6-2.2 2.6-2.3 0-2.3-2.7m15.6-21.4q-2 0-3.1 1.1-1 1.2-1 3.3v9q0 2.2 1 3.3 1 1.1 3 1.1t3.2-1q1-1.2 1-3.4v-9q0-2.1-1-3.3-1.1-1.1-3.1-1.1m1.4 13.6q0 1.8-1.4 1.8t-1.4-1.8v-9.4q0-1.7 1.4-1.7t1.4 1.7v9.4m12-13.4H328l-10.8 27.5h2.5l11-27.5"/><path fill="#FFF" d="M335 719.9q0-4.4-4.1-4.4-4.2 0-4.2 4.4v9q0 2.2 1 3.3 1.1 1.1 3.2 1.1 2 0 3-1.1 1.1-1.1 1.1-3.3v-9m-4.1-2q1.3 0 1.3 1.8v9.4q0 1.8-1.3 1.8-1.5 0-1.5-1.8v-9.4q0-1.7 1.5-1.7"/><path fill="none" stroke="#1A344F" stroke-width="2.5" stroke-linecap="round" stroke-linejoin="round" d="M352.6 247.6q4.3 1.6 4.5 2.2m-4.5-2.2q-2.8-1-4.8.5l-1.5 1.7m7.6 6q-3 2.1-5.4-.5m5.4.6q1.4-1 2.3-2.6"/><path fill="#D8984D" fill-opacity=".4" d="M339.1 550.7q11.8-3.2 24-3.1l9.3-59.5q-23.2-4.6-46.6-1-27.4 4-51 18.4-22.6 13.9-38.4 35.3-15.9 21.5-22.5 47.2-6.8 26.7-2.7 54l.6 3.5 60.9-9.1q.2-23 11.5-43 11.5-20.6 32-33 10.8-6.5 23-9.7"/><path fill="#D86B64" stroke="#1A344F" stroke-width="2.5" stroke-linecap="round" stroke-linejoin="round" d="M317.4 482.6q-27.4 4-51 18.4-22.6 14-38.4 35.3-15.9 21.5-22.5 47.2-6.8 26.7-2.7 54l.6 3.6 60.9-9.2q.3-23 11.5-43 11.6-20.6 32-32.9 10.8-6.6 23-9.8 11.7-3.2 23.8-3.1l9.4-59.4q-23-4.6-46.6-1.1"/><path fill="#FFF" d="M241 540.4q1 0 1.5.7.6.7.6 2.5 0 4-4.2 8.6-4.3 4.7-4.3 8.8v3.4H247v-4h-8.2v-.5q0-1.8 4.3-6.7 4.3-5 4.3-9.8 0-3.3-1.7-5-1.6-1.9-4.7-1.9-3.2 0-4.9 1.9-1.6 1.7-1.6 5v2.7h4v-3q0-2.7 2.3-2.7m8.7 3v.9q0 4.1 2.7 5.5-2.7 1.6-2.7 5.8v2.1q0 3.3 1.7 5.1 1.8 1.9 5 1.9 3.3 0 5.1-1.9 1.8-1.8 1.8-5v-2.2q0-4.2-2.7-5.8 2.7-1.4 2.7-5.5v-.9q0-3.3-1.8-5-1.8-1.9-5-1.9-3.3 0-5 1.8-1.8 1.8-1.8 5.1m4.3 1.7v-1.5q0-3.2 2.5-3.2 2.4 0 2.4 3.2v1.5q0 3-2.4 3-2.5 0-2.5-3m0 12.5v-2.5q0-3.2 2.5-3.2 2.4 0 2.4 3.2v2.5q0 3.2-2.4 3.2-2.5 0-2.5-3.2m29.4-10.9q-2 0-3 1.1-1.2 1.2-1.2 3.3v9q0 2.2 1.1 3.3 1.1 1.2 3.1 1.2 4.2 0 4.2-4.4v-9q0-4.5-4.2-4.5M282 551q0-1.7 1.4-1.7t1.4 1.7v9.5q0 1.7-1.4 1.7t-1.4-1.7v-9.5m1.2-14h-2.6l-10.8 27.5h2.5l10.9-27.6"/><path fill="#FFF" d="M266.6 537.8q-1.1 1-1.1 3.2v9q0 2.2 1 3.3 1.2 1.2 3.2 1.2 4.1 0 4.1-4.4v-9q0-4.5-4.1-4.5-2 0-3.1 1.2m3 1.3q1.5 0 1.5 1.7v9.5q0 1.7-1.4 1.7t-1.4-1.7v-9.5q0-1.7 1.4-1.7"/><path fill="#7AC7EE" stroke="#1A344F" stroke-width="2.5" stroke-linecap="round" stroke-linejoin="round" d="M276.1 72.3q-15.7-12-35.2-9.2-19.6 2.6-31.6 18.3-12 15.7-9.3 35.3 2.7 19.5 18.4 31.5t35.2 9.3q19.6-2.6 31.6-18.3 12-15.8 9.3-35.3-2.6-19.6-18.4-31.6"/><path fill="none" stroke="#1A344F" stroke-width="2.2" stroke-linecap="round" stroke-linejoin="round" d="M288.4 120.8l.5-.6q.4-.5.1-2.1-.2 1.4-.6 2.7"/><path fill="#99C977" d="M276 72.2q-15.7-12.1-35.4-9.4t-31.8 18.4q-12 15.9-9.4 35.6 2.7 19.6 18.5 31.7 15.9 12 35.5 9.4 19.8-2.7 31.8-18.5t9.4-35.5q-2.7-19.7-18.5-31.7m-3.2 4.2q14 10.7 16.4 28.2 1 6.8-.3 13.4l-.6 2.8q-3.1 12.5-12.7 21.2-9.8 8.9-23 10.6-17.5 2.4-31.6-8.3-14-10.7-16.4-28.2-2.3-17.6 8.4-31.6 10.7-14.1 28.2-16.5 17.5-2.3 31.6 8.4"/><path fill="none" stroke="#1A344F" stroke-width="2.2" stroke-linecap="round" stroke-linejoin="round" d="M276 72.2q-15.7-12.1-35.4-9.4t-31.8 18.4q-12 15.9-9.4 35.6 2.7 19.6 18.5 31.7 15.9 12 35.5 9.4 19.8-2.7 31.8-18.5t9.4-35.5q-2.7-19.7-18.5-31.7"/><path fill="none" stroke="#1A344F" stroke-width="2.2" stroke-linecap="round" stroke-linejoin="round" d="M273 76.4q14 10.7 16.3 28.2 1 6.8-.3 13.4l-.6 2.8q-3.1 12.5-12.7 21.2-9.8 8.9-23 10.6-17.5 2.4-31.5-8.3-14-10.7-16.5-28.2-2.3-17.6 8.4-31.6 10.7-14.1 28.2-16.5 17.5-2.3 31.6 8.4"/><g mask="url(#a)"><g transform="matrix(.989 0 0 .989 221.7 68.6)"><animateTransform attributeName="transform" additive="replace" type="translate" dur="2.042s" keyTimes="0;1" values="0,0;0,0" fill="freeze"/><animateTransform attributeName="transform" additive="sum" type="translate" repeatCount="indefinite" dur="2.042s" keyTimes="0;0.02;0.041;0.061;0.082;0.102;0.122;0.143;0.163;0.184;0.204;0.224;0.245;0.265;0.286;0.306;0.326;0.347;0.367;0.388;0.408;0.429;0.449;0.469;0.49;0.51;0.531;0.551;0.571;0.591;0.592;1" values="221.7,68.6;217.45,68.6;213.25,68.6;209,68.6;204.75,68.6;200.55,68.6;196.3,68.6;192.05,68.6;187.8,68.6;183.6,68.6;179.35,68.6;175.1,68.6;170.9,68.6;166.65,68.6;162.4,68.6;158.2,68.6;153.95,68.6;149.7,68.6;145.5,68.6;141.25,68.6;137,68.6;132.75,68.6;128.55,68.6;124.3,68.6;120.05,68.6;115.85,68.6;111.6,68.6;107.35,68.6;103.15,68.6;98.9,68.6;0;0" calcMode="discrete"/><animateTransform attributeName="transform" additive="sum" type="translate" repeatCount="indefinite" dur="2.042s" keyTimes="0;0.592;0.612;0.633;0.653;0.673;0.694;0.714;0.735;0.755;0.775;0.796;0.816;0.837;0.857;0.877;0.898;0.918;0.939;0.959;0.979;0.999;1" values="0;98.9,68.6;94.65,68.6;90.4,68.6;86.2,68.6;81.95,68.6;77.7,68.6;73.5,68.6;69.25,68.6;65,68.6;60.8,68.6;56.55,68.6;52.3,68.6;48.1,68.6;43.85,68.6;39.6,68.6;35.35,68.6;31.15,68.6;26.9,68.6;22.65,68.6;18.45,68.6;14.2,68.6;14.2,68.6" calcMode="discrete"/><animateTransform attributeName="transform" additive="sum" type="scale" repeatCount="indefinite" dur="2.042s" keyTimes="0;0.591;0.592;1" values="0.989,0.989;0.989,0.989;1;1" calcMode="discrete"/><animateTransform attributeName="transform" additive="sum" type="scale" repeatCount="indefinite" dur="2.042s" keyTimes="0;0.592;1" values="1;0.989,0.989;0.989,0.989" calcMode="discrete"/><path fill="#99C977" stroke="#1A344F" stroke-width="2.5" stroke-linecap="round" stroke-linejoin="round" d="M0 17.1q0 .7.5 1l1.4 1.1.5.3 2.6.4q.6.2 1-.3.5-.5.4-1v-.1q-.1-.6.3-1 .4-.5 1-.4l5.3.3q.6.1.9.5l1.8 2.4q.4.4.3.9l-.4 3.2q-.1.9-1 1l-1.4.2q-1 .2-1 1.1l-.4 9.6q0 .5.4.9l4.1 3.8q.6.6.3 1.3l-.3.9q-.3.4 0 .9.2.5.7.6l6.4 1.6q.5.1.7.6l.6 1.1q.4.8 1.3.5l.8.1q.5.3.6.7l.4 1.6q.1 1 1.1.9l2-.1q.6-.1.9.2.4.4.4.9v1.7q0 .5-.3.8-.4.3-.9.3-1 0-1.1 1.1l-.4 3.6q0 .7.4 1.1l3.3 2.6q.5.4.4 1l-.5 4.1q-.2.7.5 1.2l3.2 2q.5.3.5.9l1 15.1q.2.7.8 1l1.1.5q.8.4.7 1.3-.7 4-.6 4.1l5 2.6q.6.3 1.1 0 .6-.3.7-.8l.4-2.3q.1-.7-.5-1.2l-1.3-1q-.6-.3-.5-1l.6-8.5q0-.5.3-.7l9-9q.3-.3.3-.8v-4.2q0-.5.4-.8l2-1.7q.5-.3.5-1v-4.4q0-.4-.4-.8L54.2 56q-.3-.3-.8-.3H50q-.5 0-.8-.4-.3-.3-.4-.7v-.9q0-.4-.3-.8l-.8-.3-1.9-.2q-.4 0-.7-.3l-2-2.2q-.3-.3-.8-.3H32.3q-1 0-1.1-.9l-.6-1.7q-.1-.6-.6-.8l-3-1.1v-1.4q0-.9-.7-1.1l-2.2-.8q-.5-.1-.7-.6-.2-.5-.1-.9l.8-2.1q.1-.7.8-.8l4.8-1.4q.8-.3 1.3.5l.9 1.2q.4.7 1.1.6.8-.2 1-.9l.5-1.6q0-.4.5-.7l7.5-4.8q.9-.5.5-1.4l-.6-1.7q-.2-.7.1-1.2.4-.5 1-.5l8.4.5q.5 0 .9-.4t.3-1l-.4-4.1q-.2-1.1-1.2-1.1-.5 0-.8-.3-.3-.4-.4-.9v-1.1q0-.5-.4-.8t-1-.4l-5.1.6q-.6.1-1 .7l-.6 1.3q-.4.9-1.3.7l-3.3-.7q-.6-.1-.8-.7t0-1l.4-.7.5-.5 4-1.7q.4-.2.6-.5l2-3.8q.3-.6 0-1.1-.3-.6-1-.6l-11.4-.7q-.7 0-1 .4l-2 2.3q-.4.4-1 .4L4.2 7.4q-.6 0-1 .4t-.4 1l.6 3.5q0 .5-.3 1-.4.4-1 .4h-.8q-.5 0-.9.3t-.3.8v2.3M41.4 3.5q-.3.4-.3.8v.2q.1.4.5.6.3.2.6 0l.5-.1q.4-.1.5-.6.1-.6-.4-.9l-.3-.1q-.5-.4-1 0l-.1.2"/><path fill="#99C977" stroke="#1A344F" stroke-width="2.5" stroke-linecap="round" stroke-linejoin="round" d="M58.2 0l-3.5 1-7.3.8q-.9.1-1 1L46 4.5v.7l1.8 3.5q.2.5 0 .8l-.6 2.6q-.1.5.2 1 .3.4.8.4l3.3.4q.6.1 1-.3.5-.4.4-1l-.4-2.2q-.1-.6-.6-.8l-2.1-1.3q-.4-.3-.5-.8-.1-.5.2-.9l.4-.5q.2-.3.5-.4l6.1-2q.3 0 .6-.4L59 1.3q.4-.5 0-1-.2-.5-.8-.3"/><path fill="#99C977" stroke="#1A344F" stroke-width="2.5" stroke-linecap="round" stroke-linejoin="round" d="M65.1 2q-.2-.2-.5 0l-4 3-3 2-2.7.7q-.3.1-.4.4v.6q.2.2.6.2h2q.8 0 .7.8l-.7 4.6v.1l.7 4.7q.1.5.6.5h1.7q.4 0 .5-.2l4.3-5.5.2-.3 9.4-3.4q.4-.1.4-.5l.6-5.2q0-.6-.5-.7L65 2m20.8 8.3q-.2-.3-.5-.3l-1.5-.3q-.6-.1-.9.4l-.1.3q-.3.3-.2.7.1.5.5.7l1.1.5q.6.2.9-.1l.6-.4q.4-.2.5-.7 0-.4-.2-.7l-.2-.2m23.4 4.7q.3 0 .5.2t.2.5l-.3 1.7q-.1.6.5.8.4 0 .5.5 0 .5-.5.7l-.7.3q-.2 0-.4.4l-.6 2.4q-.1.3-.6.4l-6.2.6q-.6 0-.7-.5l-.7-2q-.2-.6-.7-.5l-1.8.2q-.4.1-.6.4l-1.5 3.5q-.1.3-.5.4l-1.8.3-.3.2-1.8 1.8q-.3.4-.1.8l1 1.8q.2.3 0 .7-.2.3-.6.3h-3q-.3 0-.5.3t-.1.6l1.4 3.8q0 .4.5.4l3.5.5q.4 0 .6-.2l.2-.6-.3-1.6q-.1-.5.4-.8l3.4-1.3h.3l2.1.1q.3 0 .6.3l1.5 2.7q.3.5 0 1l-.1.1q-.5.6 0 1.1l.3.3q.7.6 1.2.1l1.3-1q.5-.5.2-1l-1.1-3q-.3-.7.4-.9h.1q.4-.2.8.2l3 3.6q.3.4.8.2l3.2-1.5q.5-.2.8.2l3.2 4.1q.2.3 0 .6l-.5 2.1q-.2.3-.6.4-7.9 1.5-8.4 1.3l-4.6-1.5q-.3 0-.3-.3l-1.9-2.8q-.1-.3-.5-.3h-6.1l-.5.1-10 8.3-.2.4-.9 4.8-.2.4-1.4 1.2q-.2.2-.2.5V58l.2.6 5.9 4.7.4.1h10.3q.3 0 .5.2l2.4 2.1q.2.2.2.6l-.5 3.6q-.1.5.4.7L103 72q.5.2.4.7l-.8 10.6q-.1.4.3.6l3.4 2q.4.3.3.7l-1.2 8 .1.5q.2.2.5.2l6.3.5.6-.2 6.3-6.5q.2-.2.2-.5l-.2-6.3.2-.6 4.3-3.5q.3-.2.3-.5l.3-8.3q0-1.2.9-2l6-5.2q.7-.6.6-1.3l-.2-2q-.1-.6-.5-1t-1.1-.3l-7.1.2q-.7 0-.7-.7v-3.9q0-.3-.2-.5l-3-2.6-.1-.5.1-3.2q.1-.5.6-.6l1.7-.3q.4-.1.6.2l3.6 3.8q.2.2.2.5l-.2 4.5q0 .6.5.7l2.3.5q.4.1.6-.2l5-5.1q.5-.6-.1-1l-4.5-3.5q-.5-.5-.1-1l1.2-1.3q.2-.3.5-.3h2.5q.4 0 .6.4l1.1 2.4q.2.4.6.4h4.3q.3 0 .5.2t.1.5l-.4 3.3q-.1.3.1.5t.5.2h3.2q.3 0 .5.3.2.2.2.5l-.8 4.6q-.1.3.1.5l4.6 5.8q.3.4.6.4h1.6q.5 0 .7-.5l5-12.4q.3-.5.7-.5h1.6q.4 0 .5.3l3.3 3.6.2.4.4 5.4.2.3 1.6 2.6q.3.6 1 .4.7-.3.5-1l-1-3.5.1-.6.4-.3.4-.1q.6-.3.9.3l.9 1.6q.2.3.6.3.3.1.6-.1l2.8-2.3.3-.6.2-3.3q.1-.5-.3-.9l-2.3-2q-.5-.3-.4-1l.2-1.4q0-.7.7-.7l3.7-.3q.5 0 .7-.4l1.9-4.4q.1-.4-.2-.8l-2.6-3q-.3-.4-.2-.7l1-3.6q.2-.7.8-.6l1.6.2q.4 0 .6-.2.3-.2.3-.6l-.5-11.8q0-.4.3-.7l2.9-2 .5-.1 6 .6q.8 0 .8.7v5.2q0 .6.5.7l1.5.5q.6.1.9-.5l2.7-6.4.2-.3 3.5-3.1.3-.1 2.2-.6q.4-.1.5-.5.2-.4-.1-.7l-.7-1.1q-.8-1.1-2.1-1l-7.9.7q-1.1.2-2-.8l-1.7-2.1q-.6-.7-1.4-.8l-11.8-1.8h-1.7q-9.4 2.1-10 2-.3-.1-4.3-3.6-1.1-1.1-2.7-1.1h-17.6l-.3.1-3.5 2.3q-.4.3-.3.6l.3 2.8-.2.6q-.2.2-.5.2l-4.6-.3q-.4 0-.6.2l-2.6 3.3q-.3.3-.5.3h-6.3q-.3 0-.6-.3l-2.5-3.4-.3-.2-4.1-1.5h-.5l-6.2 2.1-.3.2-4.5 4.1q-.4.4-.1.8l1.2 2.5q.2.4.6.4h4.1q.3 0 .5-.2l3.3-3.8q.2-.2.5-.2h.7"/><path fill="#99C977" stroke="#1A344F" stroke-width="2.5" stroke-linecap="round" stroke-linejoin="round" d="M129.7 77.2h-.5q-.5 0-.9.6l-1.7 2.5-.2.4-1 3.3q-.1.6.2 1.1l.7 1.1q.3.4.8.6.5.1 1-.2l1.5-.8q.6-.3.7-1l1-6.1q0-.7-.4-1.2-.5-.5-1.2-.4M93.1 18q0-.6-.7-.8h-.1l-.7.2q-.3.3-.3.7v2.3l-.8 1.4q-.2.4-.1.7t.5.5l.7.4q.7.4 1.1-.2l.7-.9q.2-.3.1-.6l-.4-3.7m-5.5 2l-.3.1q-.3.2-.4.5l-.2 1q-.1.5.4.8l.4.2q.3.2.6.1.4 0 .6-.4l.4-.8q.4-.5 0-.9l-.4-.5q-.4-.6-1.1-.2M170.5 71q.3-.3.2-.7l-.3-1.2q-.1-.6-.8-.6h-2.1q-.3 0-.5-.3-.3-.2-.3-.5 0-.8-.8-.8h-.1q-.5 0-.7-.5l-.6-1.6-.5-.4-1.7-.6q-.4-.1-.8.2-.3.3-.2.7l.3 2q0 .2.2.3l1.4 2 .2.2 2.4 1.5h.3l3.7.6q.4 0 .7-.3m9.4-.5q-.1-.8-.8-1l-.6-.4-1.7-2.1q-.5-.7-1.2-.4l-2 1q-.4.1-.5.5-.2.4-.1.8l.4 1q.1.5.6.6l3.9 1.2h.6l.7-.3q.7-.2.7-1m-3.3 4.7q-.4-.5-1-.3l-4.1 1-.5.3-1.7 2.3q-.1.2-.4.3l-4 1.7q-.6.2-.5 1l.6 8q0 .4.4.7.4.3.9.1l2.2-.7q.6-.1.7-.8 0-.4.2-.6.3-.3.7-.3l2.9-.1q.5 0 .8.4l1.2 1.6q.2.4.6.4l5.2.5q.5 0 .8-.4l2.5-3.1.2-.4.5-4.3-.1-.6-3.5-6.9q-.1-.3-.6-.5h-.2q-.4-.1-.8.1t-.4.7v.4q-.1.7-.7.8-.6.2-1-.2l-.9-1.1m14 11.2q-.2-.5-.8-.3-.5.1-.5.7l-.2.4-.7 1q-.2.3-.1.7l.4.9q.1.4.5.5l.6-.2 2.2-1.7q.3-.3.2-.7-.1-.5-.5-.6l-.3-.1q-.4-.1-.5-.3l-.2-.3M188 92q-.3-.6-1-.7-.6-.1-1 .4l-.8 1-.3.2-2.8 1.6q-.8.5-.6 1.4.4.8 1.2.8h1q.6 0 .9-.4l.5-.7q.4-.4 1-.4.9 0 1.2-.7l.7-1.6q.2-.4 0-.9m22.9-74.9q0 .7.4 1l1.4 1.1.5.2 2.6.5q.6.1 1-.3.5-.5.4-1v-.1q-.1-.6.3-1 .4-.5 1-.4l5.3.3q.6.1.9.5l1.8 2.4q.4.4.3.9l-.4 3.2q-.1.9-1 1l-1.4.2q-1 .2-1 1.1l-.4 9.6q0 .5.4.9L227 41q.6.6.3 1.3l-.3.9q-.3.4 0 .9.2.5.7.6l6.4 1.6q.5.1.7.6l.6 1.1q.4.8 1.3.5l.8.1q.5.3.6.7l.4 1.6q.1 1 1.1.9l2-.2q.6 0 .9.3.4.4.4.9v1.7q0 .5-.3.8-.4.3-.9.3-1 0-1.1 1.1l-.4 3.6q0 .7.4 1.1L244 64q.5.4.4 1l-.5 4.1q-.2.7.5 1.2l3.2 2q.5.3.5.9l1 15.1q.2.7.8 1l1.1.4q.8.4.7 1.3-.7 4.1-.6 4.2l5 2.6q.6.2 1.1 0 .6-.3.7-.9l.4-2.3q.1-.7-.5-1.1l-1.3-1q-.6-.3-.5-1l.6-8.5q0-.5.3-.7l9-9q.3-.3.3-.8v-4.2q0-.5.4-.8l2-1.7q.5-.3.5-1v-4.4q0-.4-.4-.8L265 56q-.3-.3-.8-.3h-3.3q-.5 0-.8-.4-.3-.3-.4-.7v-.9q0-.4-.3-.8l-.8-.3-1.9-.2q-.4 0-.7-.3l-2-2.2q-.3-.3-.8-.3h-10.1q-1 0-1.1-.9l-.6-1.7q-.1-.6-.6-.8l-3-1.1v-1.4q0-.9-.7-1.1l-2.2-.8q-.5-.1-.7-.6-.2-.5-.1-.9l.8-2.1q.1-.7.8-.8l4.8-1.4q.8-.3 1.3.5l.9 1.2q.4.7 1.1.6.8-.2 1-.9l.5-1.6q0-.4.5-.7l7.5-4.8q.9-.5.5-1.4l-.6-1.7q-.2-.7.1-1.2.4-.5 1-.5l8.4.5q.5 0 .9-.4t.3-1l-.4-4.1q-.2-1.1-1.2-1.1-.5 0-.8-.3-.3-.4-.4-.9v-1.1q0-.5-.4-.8t-1-.4l-5.1.6q-.6.1-1 .7l-.6 1.3q-.4.9-1.3.7l-3.3-.7q-.6-.1-.8-.7t0-1l.4-.7.5-.5 4-1.7q.4-.2.6-.5l2-3.8q.3-.6 0-1.1-.3-.6-1-.6l-11.4-.7q-.7 0-1 .4l-2 2.3q-.4.4-1 .4L215 7.4q-.6 0-1 .4t-.4 1l.6 3.5q0 .5-.3 1-.4.4-1 .4h-.8q-.5 0-.9.3t-.3.8v2.3m41.3-13.6q-.3.4-.3.8v.2q.1.4.5.6.3.2.6 0l.5-.1q.4-.1.5-.6.1-.6-.4-.9l-.3-.1q-.5-.4-1 0l-.1.2"/><path fill="#99C977" stroke="#1A344F" stroke-width="2.5" stroke-linecap="round" stroke-linejoin="round" d="M269 0l-3.5 1-7.3.8q-.9.1-1 1l-.3 1.8v.7l1.8 3.5q.2.5 0 .8l-.6 2.6q-.1.5.2 1 .3.4.8.4l3.3.4q.6.1 1-.3.5-.4.4-1l-.4-2.2q-.1-.6-.6-.8l-2.1-1.3q-.4-.3-.5-.8-.1-.5.2-.9l.4-.5q.2-.3.5-.4l6.1-2q.3 0 .6-.4l1.8-2.1q.4-.5 0-1-.2-.5-.8-.3"/><path fill="#99C977" stroke="#1A344F" stroke-width="2.5" stroke-linecap="round" stroke-linejoin="round" d="M275.9 2q-.2-.2-.5 0l-4 3-3 2-2.7.7q-.3.1-.4.4v.6q.2.2.6.2h2q.8 0 .7.8l-.7 4.6v.1l.7 4.7q.1.5.6.5h1.7q.4 0 .5-.2l4.3-5.5.2-.3 9.4-3.4q.4-.1.4-.5l.6-5.2q0-.6-.5-.7L275.9 2m20.8 8.3q-.2-.3-.5-.3l-1.5-.3q-.6-.1-.9.4l-.1.3q-.3.3-.2.7.1.5.5.7l1.1.5q.6.2.9-.1l.6-.4q.4-.2.5-.7 0-.4-.2-.7l-.2-.2m23.4 4.7q.3 0 .5.2t.2.5l-.3 1.7q-.1.6.5.8.4 0 .5.5 0 .5-.5.7l-.7.3q-.2 0-.4.4l-.6 2.4q-.1.3-.6.4l-6.2.6q-.6 0-.7-.5l-.7-2q-.2-.6-.7-.5l-1.8.2q-.4.1-.6.4l-1.5 3.5q-.1.3-.5.4l-1.8.3-.3.2-1.8 1.8q-.3.4-.1.8l1 1.8q.2.3 0 .7-.2.3-.6.3h-3q-.3 0-.5.3t-.1.6l1.4 3.8q0 .4.5.4l3.5.5q.4 0 .6-.2l.2-.6-.3-1.6q-.1-.5.4-.8l3.4-1.3h.3l2.1.1q.3 0 .6.3L313 35q.3.5 0 1l-.1.1q-.5.6 0 1.1l.3.3q.7.6 1.2.1l1.3-1q.5-.5.2-1l-1.1-3q-.3-.7.4-.9h.1q.4-.2.8.2l3 3.6q.3.4.8.2l3.2-1.5q.5-.2.8.2l3.2 4.1q.2.3 0 .6l-.5 2.1q-.2.3-.6.4-7.9 1.5-8.4 1.3l-4.6-1.5q-.3 0-.3-.3l-1.9-2.8q-.1-.3-.5-.3h-6.1l-.5.1-10 8.3-.2.4-.9 4.8-.2.4-1.4 1.2q-.2.2-.2.5V58l.2.6 5.9 4.7.4.1h10.3q.3 0 .5.2l2.4 2.1q.2.2.2.6l-.5 3.6q-.1.5.4.7l3.3 1.4q.5.2.4.7l-.8 10.6q-.1.4.3.6l3.4 2q.4.3.3.7l-1.2 8 .1.5q.2.2.5.2l6.3.5.6-.2 6.3-6.5q.2-.2.2-.5l-.2-6.3.2-.6 4.3-3.5q.3-.2.3-.5l.3-8.3q0-1.2.9-2l6-5.2q.7-.6.6-1.3l-.2-2q-.1-.6-.5-1t-1.1-.3l-7.1.2q-.7 0-.7-.7v-3.9q0-.3-.2-.5l-3-2.6-.1-.5.1-3.2q.1-.5.6-.6l1.7-.3q.4-.1.6.2l3.6 3.8q.2.2.2.5l-.2 4.5q0 .6.5.7l2.3.5q.4.1.6-.2l5-5.1q.5-.6-.1-1l-4.5-3.5q-.5-.5-.1-1l1.2-1.3q.2-.3.5-.3h2.5q.4 0 .6.4L346 46q.2.4.6.4h4.3q.3 0 .5.2t.1.5l-.4 3.3q-.1.3.1.5t.5.2h3.2q.3 0 .5.3.2.2.2.5l-.8 4.6q-.1.3.1.5l4.6 5.8q.3.4.6.4h1.6q.5 0 .7-.5l5-12.4q.3-.5.7-.5h1.6q.4 0 .5.3l3.3 3.6.2.4.4 5.4.2.3 1.6 2.6q.3.6 1 .4.7-.3.5-1l-1-3.5.1-.6.4-.3.4-.1q.6-.3.9.3l.9 1.6q.2.3.6.3.3.1.6-.1l2.8-2.3.3-.6.2-3.3q.1-.5-.3-.9l-2.3-2q-.5-.3-.4-1l.2-1.4q0-.7.7-.7l3.7-.3q.5 0 .7-.4l1.9-4.4q.1-.4-.2-.8l-2.6-3q-.3-.4-.2-.7l1-3.6q.2-.7.8-.6l1.6.2q.4 0 .6-.2.3-.2.3-.6l-.5-11.8q0-.4.3-.7l2.9-2 .5-.1 6 .6q.8 0 .8.7v5.2q0 .6.5.7l1.5.5q.6.1.9-.5l2.7-6.4.2-.3 3.5-3.1.3-.1 2.2-.6q.4-.1.5-.5.2-.4-.1-.7l-.7-1.1q-.8-1.1-2.1-1l-7.9.7q-1.1.2-2-.8L397 9.5q-.6-.7-1.4-.8l-11.8-1.8H382q-9.4 2.1-10 2-.3-.1-4.3-3.6-1.1-1.1-2.7-1.1h-17.6l-.3.1-3.5 2.3q-.4.3-.3.6l.3 2.8-.2.6q-.2.2-.5.2l-4.6-.3q-.4 0-.6.2l-2.6 3.3q-.3.3-.5.3h-6.3q-.3 0-.6-.3l-2.5-3.4-.3-.2-4.1-1.5h-.5l-6.2 2.1-.3.2-4.5 4.1q-.4.4-.1.8l1.2 2.5q.2.4.6.4h4.1q.3 0 .5-.2l3.3-3.8q.2-.2.5-.2h.7"/><path fill="#99C977" stroke="#1A344F" stroke-width="2.5" stroke-linecap="round" stroke-linejoin="round" d="M340.5 77.2h-.5q-.5 0-.9.6l-1.7 2.5-.2.4-1 3.3q-.1.6.2 1.1l.7 1.1q.3.4.8.6.5.1 1-.2l1.5-.8q.6-.3.7-1l1-6.1q0-.7-.4-1.2-.5-.5-1.2-.4M303.9 18q0-.6-.7-.8h-.1l-.7.2q-.3.3-.3.7v2.3l-.8 1.4q-.2.4-.1.7t.5.5l.7.4q.7.4 1.1-.2l.7-.9q.2-.3.1-.6l-.4-3.7m-5.5 2l-.3.1q-.3.2-.4.5l-.2 1q-.1.5.4.8l.4.2q.3.2.6.1.4 0 .6-.4l.4-.8q.4-.5 0-.9l-.4-.5q-.4-.6-1.1-.2M381.3 71q.3-.3.2-.7l-.3-1.2q-.1-.6-.8-.6h-2.1q-.3 0-.5-.3-.3-.2-.3-.5 0-.8-.8-.8h-.1q-.5 0-.7-.5l-.6-1.6-.5-.4-1.7-.6q-.4-.1-.8.2-.3.3-.2.7l.3 2q0 .2.2.3l1.4 2 .2.2 2.4 1.5h.3l3.7.6q.4 0 .7-.3m9.4-.5q-.1-.8-.8-1l-.6-.4-1.7-2.1q-.5-.7-1.2-.4l-2 1q-.4.1-.5.5-.2.4-.1.8l.4 1q.1.5.6.6l3.9 1.2h.6l.7-.3q.7-.2.7-1m-2.4 5.8l-.9-1.1q-.4-.4-1-.3l-4.1 1q-.3.1-.5.4l-1.7 2.3q-.1.2-.4.3l-4 1.6q-.6.3-.5 1l.6 8q0 .5.4.7.4.3.9.2l2.2-.8q.6-.1.7-.8 0-.4.2-.6.3-.3.7-.3l2.9-.1q.5 0 .8.4l1.2 1.6q.2.4.6.4l5.2.5q.5 0 .8-.4l2.5-3.1.2-.4.5-4.3-.1-.6-3.5-6.9q-.1-.3-.6-.5h-.2q-.4-.1-.8.1t-.4.7v.4q-.1.7-.7.8-.6.2-1-.2m13.2 10q-.3-.5-.9-.3-.5.2-.5.7 0 .3-.2.5l-.7 1q-.2.3-.1.7l.4.9q.1.4.5.5l.6-.2 2.2-1.7q.3-.3.2-.7-.1-.5-.5-.6l-.3-.1q-.4-.1-.5-.3l-.2-.3m-3.6 5q-.7-.1-1.1.4l-.8 1-.3.2-2.8 1.6q-.8.5-.6 1.4.4.8 1.2.8h1q.6 0 .9-.4l.5-.7q.4-.4 1-.4.9 0 1.2-.7l.7-1.6q.2-.4 0-.9-.3-.6-1-.7"/></g></g><mask id="a"><path fill="#FFF" d="M241.4 68.8q-17.3 2.2-27.8 16-10.5 13.9-8.2 31.1 2.3 17.2 16.2 27.8 13.8 10.6 31 8.2 13-1.6 22.6-10.4 9.5-8.6 12.6-21l.5-2.6q1.3-6.6.3-13.2-2.2-17.3-16-27.8-14-10.5-31.2-8.2"/></mask><path fill="#7F7941" fill-opacity=".4" d="M281.9 142.4q4.7-4.6 4.8-4.5-51.5 4.8-69.4-26.5-5.6-9.7-7.2-22-.8-6-.4-10.2-6.4 8.2-9.1 18.7-2.7 10.7-.9 21.3 4.2 24.4 28.2 35.6 21.1 9.8 41.8-2.8 6.1-3.8 12.2-9.6"/><path fill="none" stroke="#1A344F" stroke-width="2.5" stroke-linecap="round" stroke-linejoin="round" d="M170.5 111.2q-1-7.6 9.2-15.5 10-7.7 27.5-13.3m-36.7 28.8q.6 4 4.4 7.4m9.5 5.4l-2.3-1m124.8-17.3q-8.5 7.4-24.6 13.2-16.5 6-36.5 8.8-16 2-30.6 1.6-14.2-.5-24.8-3.4"/></g></svg>