<svg xmlns="http://www.w3.org/2000/svg" baseProfile="basic" width="695" height="436" viewBox="0 0 695 436" preserveAspectRatio="xMinYMin meet"><g overflow="visible"><path fill="#E5E9ED" d="M694.451 436.351V.051H.051v436.3h694.4"/><path fill="none" stroke="#A2AAAF" stroke-opacity=".29" stroke-width="2.5" stroke-linecap="round" stroke-linejoin="round" d="M69.1 44.3h43.05M63.1 50.3h26.05M51.7 50.3h5.1M607.6 100.85h43.05M601.6 106.85h26.05M590.2 106.85h5.1M505.7 389.9h43.05M499.7 395.9h26.05M488.3 395.9h5.15"/><path fill="#D7DBDF" d="M663.401 193.501l-3.05-4.95-1.55-1.6v-.05l-.75-.5-.8-.15-.85.15-4.25 2.45-3.7 4.25-2.55 4.9-.1 4.05-3.65.15-2.85-.75-2.4.45-2.25 3.75-.7 2.75-.1 1.8-.4 1.65-1.55 2.2-6.4 3.25-3.8 1.1-3.05-.15-6.35-2-3.35-1.95-5.65-5.4-15.75-5.1-3.65-2.75-1.85-2.7-.3-2 .5-2.3.35-5.05.65-2.05v-1.25l-.55-.7-.95.1-.65-.55.3-2.45-27.85-8.8-2.45-.35-7.7.95-2.75-.7-3.05.95-8.95-1.5-3.35-1-.15-2 1.7-2.3 2.25-2.35 1.4-2.85-.05-4.6-4-10.1.4-7.3 2.5-7.3 7.2-12.1 5-6.05.55-1.5.8-3.8.65-1.95 5.7-7.2 1.45-3.3.1-9.2-4.2-3.7-5.45-2.5-4.35-6.55-1.1-5.15-40.4-25.15-5.7-1.3h-5.5l-2-3.1h-8.15l-16.4-1.85-2.8 1.1-2.3 2.55-5.4 1.7-5.75.55-3.6-.95-4.25-3.2-2.2-2.15v-1.55l2.65-.65-3.75-3.6-4.85-2.8-3.95-.15-1.3 4.25 1.2 1.35-7.8.1-.65-3.05-1.15-1.45-.65-1.8.5-1.4 1.95-2.95.4-.85-1-2.2-1.4-.25-1.65.3-1.55-.3-1.05-1.75-1.15-2.55-1.4-2.15-1.95-.65-1.3 1.45-.75 4.75-1.8 1.2-1.5-1.1-.55-2.65-.3-4.4-2.75-1.25-3.65-.2-2.35 1.35 1.35 3.45-2.2 1.15-7.95 1.55-1.6-.05-1.15.7-2 2.9-.75 1.6-1.1 4.35-1.55 1.5-3.7 2.05-1.45 1.65-.15 1.6.6 1.6.4 1.85-1 2.35 2.35.85.7.15 3.8 2.85 3.05 1.75 2.6-.15 2.2-1.1 2-1.45 2.2-1.1 7.2-1.25 2 .35 2.4 1 1.3.1-.8 5.15-.95-.45-.1-1.35-.2-.35h-.6l-.75.3-.55.5-.35 1.15.25 1 .35.85.05.8-.15 1.45.05 1.55-.15 1.6-1 1.7-1.95.7-3.4-4.95-2.25-2.15-4.4.45-4.5 2.95-1.7 3.75-.2 1.05-4.55.75-9.4-.05-5.6-1.5-1.4-.95-1.85-4.2-.8-.9-1.7-.2-3.8-1.15h-2.7l-7.95 1.35-.75.5-.7 1.05-1 1.05-2.7.8-3.2 1.75-1.2.9-1.25 1.45-.55 1.1-.7.95-1.4.95-6.65 1.5h-19.15l-.4-.95-.75-4.05-.9-.95-9.45-.55-2.1-1.1-2.7 4.2-2.35 2.8-2.75 1.6-12.25 2.55-3.2-.45-7.65-4h3.85l1.6-1.5 1.9-5.45-3.35.35-7.3 2.2-.25.2-5.2 1.85-3.5 1.95-6.45 5.25.35.15 2.45 1.9h.5l.05 2.15-.65 1.25-1.15.4-1.55-.35-.85.45-.2.7.35.9 1 1.45.2.55-.05.6-.2.6-.25.35-2.25 2.05-1.9-.3-1.95-1.2-2.25-.8-1.7.5v1.35l.75 1.3.5.55.7 1 .25 1.2-.45 2.05-2.9 3.8-4.15 1.65-10.2-.45-3.9.85-5.55 2.4-.95.2-1.2-.5-1-1.55-.6-.45-4.3-1.4-3.2-1.9-.85-3.55 2.65-6.15-3.95.4-2-.3-1.9-1.1-3.45-.75-7.35 1.3-3.8-.55-1.35-1.05-1.35-.35-1.3.35-1.35 1.05-2.75.8.4 2.45 1.5 3 .75 2.55-1.15 1.85-2.15 1.9-2.4 1.35-3.85.85-.25 4.1-3.75 2.25-2.2 2.8-1.8 3.4-.75 2.8 17.5-1.75 2.7-1.3 4.4 3.8 1.55 2.2-1.15 2.35-1.35.9-1.55.4-1.5.9-2.2 2.9-.75.35-1.35.15-2.75 2.85-1 4.45.65 5.35-10 7.3-4.3 4.45-2.75 4.6-9.65 8.9-4.45 1.55.2 3.7-2.15 1.1-.5.35-.55 1.4-3.7 1.3-1.4 1.35-2 3.45 1.8 4-3.35 4.85-9.85 7.45-15.85 5-7.1 4.1-2.2 7.55.6 1.95 2 3.75.45 2.35-.25 3-.8 2.05-1.05 1.85-2.3 6.95-.2 1.05.4 1.2.75 1.05 1.1 1.2.05 3.6-.55 1.8-1.65 2.1-1.55 1.15-4.9 2.6-3.85 4.35-1.45 1.25-10.55 5.75-19.8 18.15-1.95 2.6.45 2.8 3.55 3.95-5.2 6.6-5.1 8.8-1.7 1.8-.6 1.3v1.05l.7 1.9.1.65v1.6l.3 1.5-.3 1.35-1.65 1.65 7.9 4.85 2.2 2.35 1.75 3.2.25 2.35-4.75 10.65-.55 1.65-1 6.05-.1 2.25.15 2-.65 1.4-3.25 1-.85.1-.9-.1-1.15-.35-.25-.05-.5.1-8.8 4.35-3.6 2.25-.55 2.55 1.55 2.9 2.6 3.25-.5 1.85-3.05 6.7 3.55-2.1 6.65-1.6 6.7-.25 5.05 2.25 4.75-2.45 7.5-8.8 9.45-6.25 3.8-4-.8-4.9-1-.45-2.45 1.15-1.55-.8-.65-.9-1.4-3.5-.05-.9-2-5.7.8-2.9 7.3-9.75 4.8-4.15 4.5-1.5 4.85-.2 4.8-1.2 12.55-8.6 9.4-1.9 9.8.3 21.95 5.7 2.2 1.1 1.4 2.1.3 4.05-1.05 3.55-3.9 4.55-.75 2.45 2.8 4.85 5.2 5.55 3.35 5.75-5.25 10.15-2.5 7.6-1.35 7.25 1.3 3.55 11.7 2.6 2.2 2.15-.15 1.6-1 1.65-1.2 1.45-.65 1.1.4-.25.3 4.35-.25.2.1 1.65-.3.85.1.65 1.3 1 1.35.2 1.15-.85 1.05-1.1 1.2-.5 3.4 1.45 9.95 11.3.7.45.5 2.25 2.75 8.25.8 2.1 1 1.75 6.6 7.35 3.45 2.05 4.5.9 4.85-.05 4.4-.85 9.05-3.7 4.15-2.6 1.95-.65 11.05 1.2 4.75-1.65 8.7-6.4 4.35-1.9 3.1-.35 3.05-4.55 2.45-1.25 15 3.75 2.3 1.35 2.25 2.05 2.75 4 .2.55 1.85.65 1.2-.3 1.1-.55 1.45-.15 7.1 2.6 4-.1 2.65.8.85.05 1.85-1 .35-.7-.15-1.1.45-2.2 3.45-6.5 3.9-2.75 11.85-2.75 1.05-.9 1.85-2.4.1-.45 1.45-3.15.25-.4 1.1-10.85 1.05-2.15 1.45-1.15 3.1-.35 1.55-.5 6.45-5.6 3.2-6.85-.4-7.75-4.4-8.4-3.4-3-.5-.85.6-1.75 1.5-2.1 2.85-2.9 3.2-1.45 6.4-1.45 3-2.15 7.25-9.5 4.15-2.15 1.7-1.3 1.5-1.75.9-1.95-.1-2.1-.95-.75-.6-.9 1.25-2.7 3.15-3.35 3.95-2.15 8.25-1.8 4.2.75 2.05 2.95.6 4.8.05 6.4-.5 6.15-2.4 11-.45 5.45.55 5.2 1.65 3.4 2.65 2.25 7.95 3.55 4.15 4.3 9.3 13.75 1.45.7 2.8 1 6.85 4 2.6.15 1.1-.6 2.3-2.05.9-.4 1.2.45 1.1 1.95 1.1.8 2.35.3 4.5-.1 2.2.8 3.75 4.9-2.15 5-4.2 5.1-2.6 5.95-.55 1-.25.6 2.5.1 2.3.85 8.4 4.5 1.05.8.9 1.35 5.25 10.65.8 2.75.3 3.65-1.5 5.1-.55 3.25 5.8-1.8 4.85 2.2 4.4.8 4.7-5.75 3.7-7.15.55-3.6-1.65-3.5-1.45-.85-3.15-.65-1.45-.85-1.35-1.95-1.2-3.85-1.6-1.6-.3-.55-.1-.5.1-.55.3-.5 4.85-4.5-2.6-7.35.65-2.4 3.75-2.9 3.2-1.05 1.4-.8 1.15-2 .5-2.6-.3-4.75.55-2.75 2.75-4.05 10.65-7.25 1.15-2.2 1.55-4.5 1.6-1.2 1.75-.85 1.7-1.6 1.35-2.15 2.2-7.55 4.3-9 .9-4.7-.2-2.75-1.95-7.5-.05-3.05.4-2.7-.3-2.1-1.95-1.4-1.45-2.85 1.15-5.2 2.6-5.15 2.8-2.6 7.15-.9 2.95.8.1 2.6 3.75 3.6 1.1.5 1.65-.65.7-1.3.5-1.5 1-1.35 2.35-1.75 1.2-.25.45 1.3.9 20.45-.25 3.25.3 1.15 1.1 1.05 3.2 1.85 1.35 1.05 2.9 7.65 1.85 2.6 3.15 2.1 3.4 1.25 16.9.2 2.75-1.1 2.25-3.1.05-1.7-.2-2.4.3-2.45 1.55-1.8 1.65.05 3.55 2.15 1.85.45 3.1-1 9.8-5.05 6.4-1.1 2.9.2 3 .8 3.65 2.4 1 3.45.05 4.25 1 4.6 2.1 2.95 5.85 5.15 1.45 3.6.15 4.8 4.85.1 6.2-2.35 4.15-2.6 1.9-4.05-1.85-3.8-6.1-6.15-1.3-2.4-.6-1.8.05-1.9.8-2.9 1.1-2.05 3.05-2.8 1.1-1.4 1.1-4.65-1.1-2.35-2.55-1.05-6.6-1.25-4.3-1.7-2.3-2.9 2.6-4.4-1.3-.85-.7-1.2-.35-1.55-.2-1.95.65-2.3v-4.65l.25-1.55 1.25-1.9 3.2-3.15 1.2-1.65 1.8-6.95.65-1.6 1.45-.75 13.9-4.05h3.8l2.35 1.9.25 2.4-.75 4.4.6 2.3 6.1 2.1 1.15 1.05.75 1.05.95 1 1.65.75 1.9.3 5.1-.5 10.55 2.8 2.65-.5 2.1-3.4 1.15-5.3.1-5.5-1.15-4.15-3.05-2.55-6.25-.7-2.65-3.1-1.25-4.1.7-2 1.6-1.5 1.4-2.55.35-3.05-.15-2.45.6-1.95 2.5-1.6 1.75-2.7-.35-2.95-1.05-3.1-.3-3.2 3.25-3.85.85-1.35.5-1.95.8-6.9-.35-4.6 1.85-7.3-.8-3.6-1.3-1.55-5.05-4"/><path fill="#F9F9F9" stroke="#E1E4E5" stroke-width="2" stroke-linecap="round" stroke-linejoin="round" d="M660.401 186.401l-4.25 2.45-3.7 4.25-2.55 4.9-.1 4.05-3.65.15-2.85-.75-2.4.45-2.25 3.75-.7 2.75-.1 1.8-.4 1.65-1.55 2.2-6.4 3.25-3.8 1.1-3.05-.15-6.35-2-3.35-1.95-5.65-5.4-15.75-5.1-3.65-2.75-1.85-2.7-.3-2 .5-2.3.35-5.05.65-2.05v-1.25l-.55-.7-.95.1-.65-.55.3-2.45-27.85-8.8-2.45-.35-7.7.95-2.75-.7-3.05.95-8.95-1.5-3.35-1-.15-2 1.7-2.3 2.25-2.35 1.4-2.85-.05-4.6-2.8-6.55-1.2-3.55.4-7.3 2.5-7.3 7.2-12.1 5-6.05.55-1.5.8-3.8.65-1.95 5.7-7.2 1.45-3.3.1-9.2-4.2-3.7-5.45-2.5-4.35-6.55-1.1-5.15-40.4-25.15-5.7-1.3h-5.5l-2-3.1h-8.15l-16.4-1.85-2.8 1.1-2.3 2.55-5.4 1.7-5.75.55-3.6-.95-4.25-3.2-2.2-2.15v-1.55l2.65-.65-3.75-3.6-4.85-2.8-3.95-.15-1.3 4.25 1.2 1.35-7.8.1-.65-3.05-1.15-1.45-.65-1.8.5-1.4 1.95-2.95.4-.85-1-2.2-1.4-.25-1.65.3-1.55-.3-1.05-1.75-1.15-2.55-1.4-2.15-1.95-.65-1.3 1.45-.75 4.75-1.8 1.2-1.5-1.1-.55-2.65-.3-4.4-2.75-1.25-3.65-.2-2.35 1.35 1.35 3.45-2.2 1.15-7.95 1.55-1.6-.05-1.15.7-2 2.9-.75 1.6-1.1 4.35-1.55 1.5-3.7 2.05-1.45 1.65-.15 1.6.6 1.6.4 1.85-1 2.35 2.35.85.7.15 3.8 2.85 3.05 1.75 2.6-.15 2.2-1.1 2-1.45 2.2-1.1 7.2-1.25 2 .35 2.4 1 1.3.1-.8 5.15-.95-.45-.1-1.35-.2-.35h-.6l-.75.3-.55.5-.35 1.15.25 1 .35.85.05.8-.15 1.45.05 1.55-.15 1.6-1 1.7-1.95.7-3.4-4.95-2.25-2.15-4.4.45-4.5 2.95-1.7 3.75-.2 1.05-4.55.75-9.4-.05-5.6-1.5-1.4-.95-1.85-4.2-.8-.9-1.7-.2-3.8-1.15h-2.7l-7.95 1.35-.75.5-.7 1.05-1 1.05-2.7.8-3.2 1.75-1.2.9-1.25 1.45-.55 1.1-.7.95-1.4.95-6.65 1.5h-19.15l-.4-.95-.75-4.05-.9-.95-9.45-.55-2.1-1.1-2.7 4.2-2.35 2.8-2.75 1.6-12.25 2.55-3.2-.45-7.65-4h3.85l1.6-1.5 1.9-5.45-3.35.35-7.3 2.2-.25.2-5.2 1.85-3.5 1.95-6.45 5.25.35.15 2.45 1.9h.5l.05 2.15-.65 1.25-1.15.4-1.55-.35-.85.45-.2.7.35.9 1 1.45.2.55-.05.6-.2.6-.25.35-2.25 2.05-1.9-.3-1.95-1.2-2.25-.8-1.7.5v1.35l.75 1.3.5.55.7 1 .25 1.2-.45 2.05-2.9 3.8-4.15 1.65-10.2-.45-3.9.85-5.55 2.4-.95.2-1.2-.5-1-1.55-.6-.45-4.3-1.4-3.2-1.9-.85-3.55 2.65-6.15-3.95.4-2-.3-1.9-1.1-3.45-.75-7.35 1.3-3.8-.55-1.35-1.05-1.35-.35-1.3.35-1.35 1.05-2.75.8.4 2.45 1.5 3 .75 2.55-1.15 1.85-2.15 1.9-2.4 1.35-3.85.85-.25 4.1-3.75 2.25-2.2 2.8-1.8 3.4-.75 2.8 17.5-1.75 2.7-1.3 4.4 3.8 1.55 2.2-1.15 2.35-1.35.9-1.55.4-1.5.9-2.2 2.9-.75.35-1.35.15-2.75 2.85-1 4.45.65 5.35-10 7.3-4.3 4.45-2.75 4.6-9.65 8.9-4.45 1.55.2 3.7-2.15 1.1-.5.35-.55 1.4-3.7 1.3-1.4 1.35-2 3.45 1.8 4-3.35 4.85-9.85 7.45-15.85 5-7.1 4.1-2.2 7.55.6 1.95 2 3.75.45 2.35-.25 3-.8 2.05-1.05 1.85-2.3 6.95-.2 1.05.4 1.2.75 1.05 1.1 1.2.05 3.6-.55 1.8-1.65 2.1-1.55 1.15-4.9 2.6-3.85 4.35-1.45 1.25-10.55 5.75-19.8 18.15-1.95 2.6.45 2.8 3.55 3.95-5.2 6.6-5.1 8.8-1.7 1.8-.6 1.3v1.05l.7 1.9.1.65v1.6l.3 1.5-.3 1.35-1.65 1.65 7.9 4.85 2.2 2.35 1.75 3.2.25 2.35-4.75 10.65-.55 1.65-1 6.05-.1 2.25.15 2-.65 1.4-3.25 1-.85.1-.9-.1-1.15-.35-.25-.05-.5.1-8.8 4.35-3.6 2.25-.55 2.55 1.55 2.9 2.6 3.25-.5 1.85-3.05 6.7 3.55-2.1 6.65-1.6 6.7-.25 5.05 2.25 4.75-2.45 7.5-8.8 9.45-6.25 3.8-4-.8-4.9-1-.45-2.45 1.15-1.55-.8-.65-.9-1.4-3.5-.05-.9-2-5.7.8-2.9 7.3-9.75 4.8-4.15 4.5-1.5 4.85-.2 4.8-1.2 12.55-8.6 9.4-1.9 9.8.3 21.95 5.7 2.2 1.1 1.4 2.1.3 4.05-1.05 3.55-3.9 4.55-.75 2.45 2.8 4.85 5.2 5.55 3.35 5.75-5.25 10.15-2.5 7.6-1.35 7.25 1.3 3.55 11.7 2.6 2.2 2.15-.15 1.6-1 1.65-1.2 1.45-.65 1.1.4-.25.3 4.35-.25.2.1 1.65-.3.85.1.65 1.3 1 1.35.2 1.15-.85 1.05-1.1 1.2-.5 3.4 1.45 9.95 11.3.7.45.5 2.25 2.75 8.25.8 2.1 1 1.75 6.6 7.35 3.45 2.05 4.5.9 4.85-.05 4.4-.85 9.05-3.7 4.15-2.6 1.95-.65 11.05 1.2 4.75-1.65 8.7-6.4 4.35-1.9 3.1-.35 3.05-4.55 2.45-1.25 15 3.75 2.3 1.35 2.25 2.05 2.75 4 .2.55 1.85.65 1.2-.3 1.1-.55 1.45-.15 7.1 2.6 4-.1 2.65.8.85.05 1.85-1 .35-.7-.15-1.1.45-2.2 3.45-6.5 3.9-2.75 11.85-2.75 1.05-.9 1.85-2.4.1-.45 1.45-3.15.25-.4 1.1-10.85 1.05-2.15 1.45-1.15 3.1-.35 1.55-.5 6.45-5.6 3.2-6.85-.4-7.75-4.4-8.4-3.4-3-.5-.85.6-1.75 1.5-2.1 2.85-2.9 3.2-1.45 6.4-1.45 3-2.15 7.25-9.5 4.15-2.15 1.7-1.3 1.5-1.75.9-1.95-.1-2.1-.95-.75-.6-.9 1.25-2.7 3.15-3.35 3.95-2.15 8.25-1.8 4.2.75 2.05 2.95.6 4.8.05 6.4-.5 6.15-2.4 11-.45 5.45.55 5.2 1.65 3.4 2.65 2.25 7.95 3.55 4.15 4.3 9.3 13.75 1.45.7 2.8 1 6.85 4 2.6.15 1.1-.6 2.3-2.05.9-.4 1.2.45 1.1 1.95 1.1.8 2.35.3 4.5-.1 2.2.8 3.75 4.9-2.15 5-4.2 5.1-2.6 5.95-.55 1-.25.6 2.5.1 2.3.85 8.4 4.5 1.05.8.9 1.35 5.25 10.65.8 2.75.3 3.65-1.5 5.1-.55 3.25 5.8-1.8 4.85 2.2 4.4.8 4.7-5.75 3.7-7.15.55-3.6-1.65-3.5-1.45-.85-3.15-.65-1.45-.85-1.35-1.95-1.2-3.85-1.6-1.6-.3-.55-.1-.5.1-.55.3-.5 4.85-4.5-2.6-7.35.65-2.4 3.75-2.9 3.2-1.05 1.4-.8 1.15-2 .5-2.6-.3-4.75.55-2.75 2.75-4.05 10.65-7.25 1.15-2.2 1.55-4.5 1.6-1.2 1.75-.85 1.7-1.6 1.35-2.15 2.2-7.55 4.3-9 .9-4.7-.2-2.75-1.95-7.5-.05-3.05.4-2.7-.3-2.1-1.95-1.4-1.45-2.85 1.15-5.2 2.6-5.15 2.8-2.6 7.15-.9 2.95.8.1 2.6 3.75 3.6 1.1.5 1.65-.65.7-1.3.5-1.5 1-1.35 2.35-1.75 1.2-.25.45 1.3.9 20.45-.25 3.25.3 1.15 1.1 1.05 3.2 1.85 1.35 1.05 2.9 7.65 1.85 2.6 3.15 2.1 3.4 1.25 16.9.2 2.75-1.1 2.25-3.1.05-1.7-.2-2.4.3-2.45 1.55-1.8 1.65.05 3.55 2.15 1.85.45 3.1-1 9.8-5.05 6.4-1.1 2.9.2 3 .8 3.65 2.4 1 3.45.05 4.25 1 4.6 2.1 2.95 5.85 5.15 1.45 3.6.15 4.8 4.85.1 6.2-2.35 4.15-2.6 1.9-4.05-1.85-3.8-6.1-6.15-1.3-2.4-.6-1.8.05-1.9.8-2.9 1.1-2.05 3.05-2.8 1.1-1.4 1.1-4.65-1.1-2.35-2.55-1.05-6.6-1.25-4.3-1.7-2.3-2.9 2.6-4.4-1.3-.85-.7-1.2-.35-1.55-.2-1.95.65-2.3v-4.65l.25-1.55 1.25-1.9 3.2-3.15 1.2-1.65 1.8-6.95.65-1.6 1.45-.75 13.9-4.05h3.8l2.35 1.9.25 2.4-.75 4.4.6 2.3 6.1 2.1 1.15 1.05.75 1.05.95 1 1.65.75 1.9.3 5.1-.5 10.55 2.8 2.65-.5 2.1-3.4 1.15-5.3.1-5.5-1.15-4.15-3.05-2.55-6.25-.7-2.65-3.1-1.25-4.1.7-2 1.6-1.5 1.4-2.55.35-3.05-.15-2.45.6-1.95 2.5-1.6 1.75-2.7-.35-2.95-1.05-3.1-.3-3.2 3.25-3.85.85-1.35.5-1.95.8-6.9-.35-4.6 1.85-7.3-.8-3.6-1.3-1.55-5.05-4-3.05-4.95-1.55-1.6v-.05l-.75-.5-.8-.15-.85.15"/><path fill="none" stroke="#1A344F" stroke-width="2.5" stroke-linecap="round" stroke-linejoin="round" d="M171.251 264.551v82.45M161.301 347.001h20"/><g style="display:none"><path fill="#D56871" stroke="#1A344F" stroke-width="2.5" stroke-linecap="round" stroke-linejoin="round" d="M187.25 265.3q-9.4.5-17.05-1.7l.2 46.3q7.05 1.4 16.1.85.3 0 .65-.05 3.9-.3 16.15-1.75.35-.05.7-.05 9.55-1.1 17.95-1.3 13.25-.2 24.2 2.05.05-.5.15-.9 0-23.15-.05-45.3-9.75-2.35-22.15-2.3-6.4.1-15.9 1.45-1.7.2-3.4.45-9.15 1.4-14.25 1.95-1.9.2-3.3.3"/><animate attributeName="display" repeatCount="indefinite" dur="1.85s" keyTimes="0;0.486;0.514;1" values="none;inline;none;none"/></g><g style="display:none"><path fill="#D56871" stroke="#1A344F" stroke-width="2.5" stroke-linecap="round" stroke-linejoin="round" d="M246.3 264.15l-.1-.9q-9-1.6-22.1-1.75-6.4.05-15.9 1.1-1.75.15-3.45.35-9 1.15-14.25 1.65-1.85.15-3.25.25-9.35.5-17.05-1.25l.2 46v.3q7.15 1 16.1.55h.3q.15 0 .35-.05 3.75-.2 15.75-1.2l.4-.1h.7q9.25-.8 17.95-1.05 13.05-.25 24.15 1.35.1-.5.25-.85 0-23.45-.05-44.4"/><animate attributeName="display" repeatCount="indefinite" dur="1.85s" keyTimes="0;0.459;0.486;0.973;1" values="none;inline;none;inline;inline"/></g><g style="display:none"><path fill="#D56871" stroke="#1A344F" stroke-width="2.5" stroke-linecap="round" stroke-linejoin="round" d="M246.35 263.85q-.1-.4-.2-.75-9.1-1.15-22.1-1.25-6.35 0-15.85.8-1.75.1-3.45.25-9.05.85-14.25 1.3-1.85.15-3.3.2-9.2.45-17-.8l.15 46.05.1.2q7.15.6 16.05.3h.7q3.65-.2 15.7-.8.2-.05.4-.05.35-.05.7 0 9.35-.55 18-.8 12.8-.3 24.05.6.15-.4.3-.75.05-24.3 0-44.5"/><animate attributeName="display" repeatCount="indefinite" dur="1.85s" keyTimes="0;0.432;0.459;0.946;0.973;1" values="none;inline;none;inline;none;none"/></g><g style="display:none"><path fill="#D56871" stroke="#1A344F" stroke-width="2.5" stroke-linecap="round" stroke-linejoin="round" d="M246.4 263.5l-.3-.6q-9.2-.6-22.05-.75-6.3 0-15.9.5-1.75.05-3.45.15l-14.25.95q-1.8.15-3.25.25-9.15.4-17-.4l.15 46.05.1.2q7.25.2 16.1.05h.3q.15 0 .35-.05 3.55-.1 15.7-.35.2 0 .4-.05h.7q9.4-.25 18-.5 12.6-.35 24-.1.2-.4.4-.7.05-25.15 0-44.65"/><animate attributeName="display" repeatCount="indefinite" dur="1.85s" keyTimes="0;0.405;0.432;0.919;0.946;1" values="none;inline;none;inline;none;none"/></g><g style="display:none"><path fill="#D56871" stroke="#1A344F" stroke-width="2.5" stroke-linecap="round" stroke-linejoin="round" d="M246.45 263.2q-.2-.25-.4-.45-9.3-.1-22.05-.25-6.25-.05-15.85.2-1.75 0-3.45.05-9.05.3-14.25.6-1.8.1-3.25.2-9.05.35-17 .05l.1 46.1.2.1q7.25-.15 16.05-.2h.3q.15 0 .4-.05 3.45 0 15.65.1h1.1q9.45 0 18-.25 12.4-.4 23.95-.85.25-.3.45-.6.1-26 .05-44.75"/><animate attributeName="display" repeatCount="indefinite" dur="1.85s" keyTimes="0;0.378;0.405;0.892;0.919;1" values="none;inline;none;inline;none;none"/></g><g style="display:none"><path fill="#D56871" stroke="#1A344F" stroke-width="2.5" stroke-linecap="round" stroke-linejoin="round" d="M246.55 262.9q-.25-.15-.5-.35-9.4.4-22.05.3-6.25-.05-15.85-.15-1.8-.05-3.5-.05-9.05.1-14.25.3-1.7.1-3.25.15-8.95.35-16.95.5l.1 46.1.2.1q7.35-.6 16.05-.5h.7q3.35 0 15.6.5h.5q.35 0 .7.05 9.5.3 18-.05 12.1-.4 23.9-1.5.2-.3.5-.5.1-26.85.1-44.9"/><animate attributeName="display" repeatCount="indefinite" dur="1.85s" keyTimes="0;0.351;0.378;0.865;0.892;1" values="none;inline;none;inline;none;none"/></g><g style="display:none"><path fill="#D56871" stroke="#1A344F" stroke-width="2.5" stroke-linecap="round" stroke-linejoin="round" d="M246.6 262.6l-.6-.2q-9.5.9-22.05.8-6.2-.1-15.8-.45-1.8-.1-3.5-.15-9.1-.2-14.25-.05-1.7.05-3.25.1-8.85.3-16.95.95l.05 46.15h.3q7.35-.95 16-.75h.75q3.25.1 15.55.95.25 0 .5.05.35 0 .7.05 9.55.55 18 .2 11.9-.45 23.85-2.25.25-.2.55-.4.15-27.7.15-45"/><animate attributeName="display" repeatCount="indefinite" dur="1.85s" keyTimes="0;0.324;0.351;0.838;0.865;1" values="none;inline;none;inline;none;none"/></g><g style="display:none"><path fill="#D56871" stroke="#1A344F" stroke-width="2.5" stroke-linecap="round" stroke-linejoin="round" d="M246.65 262.25q-.35 0-.7-.05-9.6 1.45-22 1.3-6.15-.1-15.85-.75-1.8-.15-3.5-.25-9.05-.45-14.25-.4-1.65.05-3.2.15-8.8.25-16.95 1.35l.05 46.15h.3q7.45-1.35 16.05-1h.3q.15 0 .4-.05 3.15.2 15.55 1.4.25.05.5.05.35.05.7.05 9.6.85 18 .5 11.7-.5 23.8-2.95.3-.2.65-.35.15-28.55.15-45.15"/><animate attributeName="display" repeatCount="indefinite" dur="1.85s" keyTimes="0;0.297;0.324;0.811;0.838;1" values="none;inline;none;inline;none;none"/></g><g style="display:none"><path fill="#D56871" stroke="#1A344F" stroke-width="2.5" stroke-linecap="round" stroke-linejoin="round" d="M246.7 261.95l-.8.1q-9.7 1.9-22 1.8-6.1-.15-15.8-1.05-1.8-.2-3.5-.35-9.1-.75-14.25-.75l-3.25.1q-8.65.2-16.9 1.8v46.2l.4-.1q7.45-1.75 16-1.25h.75q3.05.2 15.5 1.8l.5.1q.35 0 .7.05 9.7 1.1 18.05.75 11.45-.55 23.7-3.7.35-.1.7-.25.2-29.4.2-45.25"/><animate attributeName="display" repeatCount="indefinite" dur="1.85s" keyTimes="0;0.27;0.297;0.784;0.811;1" values="none;inline;none;inline;none;none"/></g><g style="display:none"><path fill="#D56871" stroke="#1A344F" stroke-width="2.5" stroke-linecap="round" stroke-linejoin="round" d="M190.4 261.3q-10.3-.15-20.2 2.3v46.2q7.9-2.3 16.7-1.65 2.4.15 15.95 2.25 10.45 1.55 18.75 1.2 11.8-.5 24.95-4.6.2-30.25.2-45.35-10.25 2.65-20.7 2.6-6.45 0-17.95-1.45-11.7-1.45-17.7-1.5"/><animate attributeName="display" repeatCount="indefinite" dur="1.85s" keyTimes="0;0.243;0.27;0.757;0.784;1" values="none;inline;none;inline;none;none"/></g><g style="display:none"><path fill="#D56871" stroke="#1A344F" stroke-width="2.5" stroke-linecap="round" stroke-linejoin="round" d="M187.3 261.85q-8.8.2-17.1 1.75v46.2h.1q7.55-1.8 16.65-1.35 2.55.1 15.95 1.8.45 0 .9.05 9.85 1.15 17.85.8 11.5-.45 23.75-3.4l1.1-.5q.2-29.4-.25-45.25-10 1.95-22 1.85-6.25-.1-16.15-1-1.75-.15-3.4-.3-9.2-.75-14.3-.75-1.6.05-3.1.1"/><animate attributeName="display" repeatCount="indefinite" dur="1.85s" keyTimes="0;0.216;0.243;0.73;0.757;1" values="none;inline;none;inline;none;none"/></g><g style="display:none"><path fill="#D56871" stroke="#1A344F" stroke-width="2.5" stroke-linecap="round" stroke-linejoin="round" d="M187.3 262.3q-8.9.25-17.1 1.3v46.2h.1q7.5-1.35 16.65-1.05 2.75.05 16 1.3.45.05.85.05 9.8.85 17.85.5 11.75-.4 23.85-2.65l1-.6q.15-28.45-.25-45.2-9.95 1.35-22.05 1.3-6.25-.1-16.1-.7l-3.4-.2q-9.2-.45-14.3-.35-1.6.05-3.1.1"/><animate attributeName="display" repeatCount="indefinite" dur="1.85s" keyTimes="0;0.189;0.216;0.703;0.73;1" values="none;inline;none;inline;none;none"/></g><g style="display:none"><path fill="#D56871" stroke="#1A344F" stroke-width="2.5" stroke-linecap="round" stroke-linejoin="round" d="M187.3 262.8q-9 .3-17.1.8v46.15l.05.05q7.45-.85 16.75-.7 2.9 0 16 .8h.85q9.75.5 17.85.25 12-.45 23.9-1.9.4-.35.85-.7.15-27.6-.2-45.2-9.95.75-22.05.7-6.25-.05-16.1-.3l-3.35-.1q-9.25-.15-14.35 0-1.65.1-3.1.15"/><animate attributeName="display" repeatCount="indefinite" dur="1.85s" keyTimes="0;0.162;0.189;0.676;0.703;1" values="none;inline;none;inline;none;none"/></g><g style="display:none"><path fill="#D56871" stroke="#1A344F" stroke-width="2.5" stroke-linecap="round" stroke-linejoin="round" d="M187.3 263.3q-9.1.35-17.1.3v46.15l.05.05q7.4-.4 16.8-.4 3.05-.05 16 .3h.85q9.7.2 17.85-.05 12.25-.4 23.95-1.15l.7-.8q.15-26.65-.15-45.15-9.9.15-22.05.15-6.3-.05-16.1 0-1.7 0-3.35.05-9.25.15-14.35.35-1.7.1-3.1.2"/><animate attributeName="display" repeatCount="indefinite" dur="1.85s" keyTimes="0;0.135;0.162;0.649;0.676;1" values="none;inline;none;inline;none;none"/></g><g style="display:none"><path fill="#D56871" stroke="#1A344F" stroke-width="2.5" stroke-linecap="round" stroke-linejoin="round" d="M187.25 263.75q-9.1.4-17.05-.15v46.15l.05.05q7.3.05 16.8-.1 3.3-.1 16-.15h.85q9.65-.15 17.85-.4 12.5-.35 24.1-.35.25-.45.55-.9.05-25.8-.15-45.1-9.9-.5-22.1-.5-6.3.05-16.05.4l-3.35.1q-9.2.45-14.3.8-1.75.1-3.2.15"/><animate attributeName="display" repeatCount="indefinite" dur="1.85s" keyTimes="0;0.108;0.135;0.622;0.649;1" values="none;inline;none;inline;none;none"/></g><g style="display:none"><path fill="#D56871" stroke="#1A344F" stroke-width="2.5" stroke-linecap="round" stroke-linejoin="round" d="M187.25 264.25q-9.2.45-17.05-.65v46.15l.05.05q7.25.5 16.85.2 3.45-.15 16-.65h.85q9.6-.45 17.85-.7 12.75-.3 24.15.4l.4-1q.05-24.85-.1-45.05-9.85-1.1-22.1-1.05-6.35.05-16.05.7-1.65.1-3.35.25-9.2.75-14.3 1.15-1.8.1-3.2.2"/><animate attributeName="display" repeatCount="indefinite" dur="1.85s" keyTimes="0;0.081;0.108;0.595;0.622;1" values="none;inline;none;inline;none;none"/></g><g style="display:none"><path fill="#D56871" stroke="#1A344F" stroke-width="2.5" stroke-linecap="round" stroke-linejoin="round" d="M187.25 264.75q-9.3.5-17.05-1.15v46.2q7.2 1 16.95.55 3.6-.2 16-1.15.4-.05.85-.05 9.55-.8 17.85-.95 13-.35 24.2 1.15.1-.55.25-1.1.05-24-.05-45.05-9.85-1.7-22.1-1.65-6.35.1-16.05 1.1-1.65.15-3.3.35-9.25 1.05-14.35 1.5-1.85.15-3.2.25"/><animate attributeName="display" repeatCount="indefinite" dur="1.85s" keyTimes="0;0.054;0.081;0.568;0.595;1" values="none;inline;none;inline;none;none"/></g><g style="display:none"><path fill="#D56871" stroke="#1A344F" stroke-width="2.5" stroke-linecap="round" stroke-linejoin="round" d="M187.25 265.2q-9.4.55-17.05-1.6v46.2q7.15 1.45 16.95.85 3.8-.25 16.05-1.65.4 0 .8-.05 9.5-1.1 17.85-1.25 13.25-.3 24.3 1.9.05-.6.15-1.2 0-23.05-.05-45-9.8-2.3-22.15-2.2-6.35.1-16 1.4-1.6.2-3.3.45-9.25 1.35-14.35 1.9-1.85.15-3.2.25"/><animate attributeName="display" repeatCount="indefinite" dur="1.85s" keyTimes="0;0.027;0.054;0.541;0.568;1" values="none;inline;none;inline;none;none"/></g><g><path fill="#D56871" stroke="#1A344F" stroke-width="2.5" stroke-linecap="round" stroke-linejoin="round" d="M187.25 265.7q-9.5.6-17.05-2.1v46.2q7.05 1.9 16.35 1.2 3.65-.2 17.5-2.25 24.55-3.65 42.2 1.15v-46.3q-10.7-3.15-22.15-2.8-7.45.2-19.3 2.35-12.65 2.25-17.55 2.55"/><animate attributeName="display" repeatCount="indefinite" dur="1.85s" keyTimes="0;0.027;0.514;0.541;1" values="inline;none;inline;none;none"/></g><g transform="translate(208.2 285.35)"><animateTransform attributeName="transform" additive="replace" type="translate" dur="1.85s" keyTimes="0;1" values="0,0;0,0" fill="freeze"/><animateTransform attributeName="transform" additive="sum" type="translate" repeatCount="indefinite" dur="1.85s" keyTimes="0;0.027;0.054;0.081;0.108;0.135;0.162;0.189;0.216;0.243;0.27;0.297;0.324;0.351;0.378;0.405;0.432;0.459;0.486;0.514;0.541;0.568;0.595;0.622;0.649;0.676;0.703;0.73;0.757;0.783;0.784;1" values="208.2,285.35;208.2,285.65;208.2,285.95;208.2,286.25;208.2,286.55;208.2,286.9;208.2,287.2;208.2,287.5;208.2,287.8;208.2,288.1;208.2,287.8;208.2,287.55;208.2,287.25;208.2,287;208.2,286.7;208.2,286.45;208.2,286.15;208.2,285.9;208.2,285.6;208.2,285.35;208.2,285.65;208.2,285.95;208.2,286.25;208.2,286.55;208.2,286.9;208.2,287.2;208.2,287.5;208.2,287.8;208.2,288.1;208.2,287.8;0;0" calcMode="discrete"/><animateTransform attributeName="transform" additive="sum" type="translate" repeatCount="indefinite" dur="1.85s" keyTimes="0;0.784;0.811;0.838;0.865;0.892;0.919;0.946;0.973;1" values="0;208.2,287.8;208.2,287.55;208.2,287.25;208.2,287;208.2,286.7;208.2,286.45;208.2,286.15;208.2,285.9;208.2,285.6" calcMode="discrete"/><path fill="#FFF" d="M4.151 13.551v-9.45h9.4v-8.1h-9.4v-9.45h-8.15v9.45h-9.4v8.1h9.4v9.45h8.15"/></g><path fill="#1A344F" d="M273.6 127.301q-7 0-10.55 4.65-3.2 4.15-3.2 11.5v32.6q0 7.35 3.2 11.55 3.55 4.6 10.55 4.6 7 0 10.55-4.6 3.2-4.2 3.2-11.55v-17.3H274.9v3.85h8.45v13.75q0 5.5-2.2 8.55-2.45 3.4-7.45 3.4t-7.45-3.4q-2.2-3.05-2.2-8.55v-33.2q0-5.45 2.2-8.55 2.45-3.45 7.45-3.45t7.45 3.45q2.2 3.1 2.2 8.55v5.05h4v-4.75q0-7.35-3.2-11.5-3.55-4.65-10.55-4.65M321.55 131.901q-3.7-4.6-10.75-4.6-7 0-10.6 4.6-3.35 4.2-3.35 11.55v32.6q0 7.35 3.35 11.55 3.6 4.6 10.6 4.6 7.05 0 10.75-4.6 3.35-4.2 3.35-11.55v-32.6q0-7.35-3.35-11.55m-18.25 2.65q2.45-3.4 7.5-3.4 5.1 0 7.6 3.4 2.3 3.1 2.3 8.6v33.2q0 5.5-2.3 8.6-2.5 3.4-7.6 3.4-5.05 0-7.5-3.4-2.25-3.1-2.25-8.6v-33.2q0-5.5 2.25-8.6M338.75 127.851h-4.2v63.8h24.25v-3.85h-20.05v-59.95M381.85 127.851h-14v63.8h14q7.15 0 10.75-4.4 3.4-4.1 3.4-11.45v-32.1q0-7.35-3.4-11.45-3.65-4.4-10.75-4.4m-.1 3.85q5.1 0 7.65 3.3 2.4 3 2.4 8.55v32.45q0 5.5-2.35 8.55-2.55 3.25-7.7 3.25H372v-56.1h9.75M278.6 209.701h-5.4v27.9q0 3.55-2.95 3.55-2.9 0-2.9-3.55v-27.9h-5.7v27.55q0 4.4 2.15 6.75 2.15 2.35 6.3 2.35t6.35-2.35q2.15-2.35 2.15-6.75v-27.55M281.75 218.351q0 3.15 1.35 5.65 1.4 2.6 4.9 5.7 2.75 2.4 3.85 4.15 1.05 1.7 1.05 3.7 0 3.55-2.95 3.55t-2.95-3.55v-2.55h-5.4v2.2q0 4.4 2.15 6.75 2.2 2.35 6.35 2.35 4.15 0 6.35-2.35 2.15-2.35 2.15-6.75 0-3.15-1.35-5.65-1.4-2.6-4.95-5.7-2.75-2.4-3.8-4.15-1.05-1.7-1.05-3.7 0-3.55 2.85-3.55t2.85 3.55v1.5h5.35v-1.15q0-4.35-2.1-6.7-2.15-2.4-6.25-2.4t-6.3 2.4q-2.1 2.35-2.1 6.7M319.3 218.651q0-8.95-8.45-8.95h-9v36.2h9q8.45 0 8.45-8.95v-18.3m-8.55-3.8q2.9 0 2.9 3.5v18.85q0 3.5-2.9 3.5h-3.25v-25.85h3.25M340.35 209.701h-4.95l-14.25 36.2h4.9l14.3-36.2M347.9 218.001q0-3.55 2.95-3.55t2.95 3.55v3.9h5.35v-3.55q0-4.35-2.15-6.7-2.2-2.4-6.35-2.4-4.1 0-6.3 2.4-2.15 2.35-2.15 6.7v18.85q0 4.4 2.15 6.75 2.15 2.35 6.3 2.35t6.35-2.35q2.15-2.35 2.15-6.75v-4.8h-5.35v5.15q0 3.55-2.95 3.55t-2.95-3.55v-19.55M368.3 230.401h6.5v15.5h5.8v-36.2h-5.8v15.5h-6.5v-15.5h-5.7v36.2h5.7v-15.5M390.4 225.751v-10.9h9.35v-5.15H384.7v36.2h5.7v-14.95h7.35v-5.2h-7.35"/><g transform="translate(424 229.6)"><animateTransform attributeName="transform" additive="replace" type="translate" repeatCount="indefinite" dur="1.85s" keyTimes="0;0.486;0.514;0.541;0.568;0.595;0.622;0.649;0.676;0.703;0.73;0.757;0.784;0.811;0.838;0.865;0.892;0.919;0.946;0.973;1" values="424,229.6;424,229.6;424,228.6;424,227.6;424,226.6;424,225.6;424,224.6;424,226.15;424,227.75;424,229.3;424,230.85;424,232.4;424,234;424,235.55;424,237.1;424,235.9;424,234.65;424,233.4;424,232.15;424,230.9;424,229.6" calcMode="discrete"/><animateTransform attributeName="transform" additive="sum" type="scale" repeatCount="indefinite" dur="1.85s" keyTimes="0;0.622;0.649;0.676;0.703;0.73;0.757;0.784;0.811;0.838;0.865;0.892;0.919;0.946;0.973;1" values="1,1;1,1;1,1.019;1,1.038;1,1.056;1,1.075;1,1.094;1,1.113;1,1.131;1,1.15;1,1.125;1,1.1;1,1.075;1,1.05;1,1.025;1,1" calcMode="discrete"/><path fill="none" stroke="#E5E9ED" stroke-width="6" stroke-linecap="round" stroke-linejoin="round" d="M-1 17.75L-9.75 9M-1 17.75V-17.7m0 35.45l8.75-8.8"/><path fill="none" stroke="#D56871" stroke-width="6" stroke-linecap="round" stroke-linejoin="round" d="M1.051 17.801v-35.45M1.051 17.801l-8.75-8.75M1.051 17.801l8.75-8.8"/></g><g transform="translate(425 161.3)"><animateTransform attributeName="transform" additive="replace" type="translate" repeatCount="indefinite" dur="1.85s" keyTimes="0;0.027;0.054;0.081;0.108;0.135;0.162;0.189;0.216;0.243;0.27;0.297;0.324;0.351;0.378;0.405;0.432;0.459;0.486;0.514;1" values="425,161.3;425,162.3;425,163.3;425,164.3;425,165.3;425,166.3;425,164.75;425,163.2;425,161.6;425,160.05;425,158.5;425,156.95;425,155.35;425,153.8;425,155.05;425,156.3;425,157.5;425,158.8;425,160.05;425,161.3;425,161.3" calcMode="discrete"/><animateTransform attributeName="transform" additive="sum" type="scale" repeatCount="indefinite" dur="1.85s" keyTimes="0;0.135;0.162;0.189;0.216;0.243;0.27;0.297;0.324;0.351;0.378;0.405;0.432;0.459;0.486;0.514;1" values="1,1;1,1;1,1.019;1,1.038;1,1.056;1,1.075;1,1.094;1,1.113;1,1.131;1,1.15;1,1.125;1,1.1;1,1.075;1,1.05;1,1.025;1,1;1,1" calcMode="discrete"/><path fill="none" stroke="#E5E9ED" stroke-width="6" stroke-linecap="round" stroke-linejoin="round" d="M-1-17.75L-9.75-9M-1-17.75l8.75 8.8M-1-17.75V17.7"/><path fill="none" stroke="#99C978" stroke-width="6" stroke-linecap="round" stroke-linejoin="round" d="M.051-17.149v34.45M.051-17.149l8.05 8.05M.051-17.149l-8.05 8.05"/></g></g></svg>