<svg xmlns:xlink="http://www.w3.org/1999/xlink" xmlns="http://www.w3.org/2000/svg" baseProfile="basic" width="695" height="444" viewBox="0 0 695 444" preserveAspectRatio="xMinYMin meet"><defs><symbol id="c" overflow="visible"><path fill="#82A464" stroke="#1A344F" stroke-width="2.5" stroke-linecap="round" stroke-linejoin="round" d="M-14.8-44.3q-.5-.5-1.3-.4-.8 0-1.3.6L-45-13q-.5.6-.4 1.4 0 .8.6 1.3L20 47q.5.5 1.3.4.8 0 1.3-.6l27.6-31.1q.5-.6.4-1.3 0-.8-.6-1.3l-64.9-57.5"/><path fill="#99C977" stroke="#1A344F" stroke-width="2.5" stroke-linecap="round" stroke-linejoin="round" d="M22.3 40.4q.7-.1 1.2-.8l24-33.9q.5-.6.3-1.4-.1-.7-.7-1.2L-23.6-47q-.6-.4-1.4-.3-.7.1-1.2.7l-24 34q-.5.6-.3 1.3 0 .8.7 1.2l70.7 50.2q.6.4 1.4.3"/><path fill="#F2F9FD" d="M13 28.2q2.6-3.1 6.5-3.9 3.9-.8 7.5 1.1l8.3-11.7q-3-2.7-3.5-6.6-.6-4 1.5-7.5l-49-34.8q-2.6 3.1-6.5 3.9-4 .8-7.5-1.1L-38-20.7q3 2.8 3.5 6.7.6 4-1.5 7.4l49 34.8"/><path fill="none" stroke="#1A344F" stroke-width="2.5" stroke-linecap="round" stroke-linejoin="round" d="M13 28.2q2.6-3.1 6.5-3.9 3.9-.8 7.5 1.1l8.3-11.7q-3-2.7-3.5-6.6-.6-4 1.5-7.5l-49-34.8q-2.6 3.1-6.5 3.9-4 .8-7.5-1.1L-38-20.7q3 2.8 3.5 6.7.6 4-1.5 7.4l49 34.8"/><path fill="none" stroke="#1A344F" stroke-width="2.5" stroke-linecap="round" stroke-linejoin="round" d="M22.3 40.4q.7-.1 1.2-.8l24-33.9q.5-.6.3-1.4-.1-.7-.7-1.2L-23.6-47q-.6-.4-1.4-.3-.7.1-1.2.7l-24 34q-.5.6-.3 1.3 0 .8.7 1.2l70.7 50.2q.6.4 1.4.3"/></symbol><symbol id="b" overflow="visible"><path fill="#99C977" stroke="#1A344F" stroke-width="2.5" stroke-linecap="round" stroke-linejoin="round" d="M41-28.2q-.2-.7-.8-1.2-.6-.4-1.4-.3l-85.3 15q-.8 0-1.2.7-.4.7-.3 1.4l7.2 41q0 .7.7 1.2.6.4 1.4.3l85.3-15q.8-.1 1.3-.7.4-.7.3-1.4l-7.2-41"/><path fill="#F2F9FD" d="M30.8-16.1q-3.2-2.4-4.1-6.3L-32.6-12q.4 4-1.8 7.4-2.2 3.3-6 4.5l2.5 14.1q4-.1 7.2 2.3t4.2 6.3l59.2-10.4q-.4-4 1.8-7.4 2.2-3.3 6-4.5L38-13.8q-4 .1-7.2-2.3"/><path fill="none" stroke="#1A344F" stroke-width="2.5" stroke-linecap="round" stroke-linejoin="round" d="M30.8-16.1q-3.2-2.4-4.1-6.3L-32.6-12q.4 4-1.8 7.4-2.2 3.3-6 4.5l2.5 14.1q4-.1 7.2 2.3t4.2 6.3l59.2-10.4q-.4-4 1.8-7.4 2.2-3.3 6-4.5L38-13.8q-4 .1-7.2-2.3"/><path fill="none" stroke="#1A344F" stroke-width="2.5" stroke-linecap="round" stroke-linejoin="round" d="M41-28.2q-.2-.7-.8-1.2-.6-.4-1.4-.3l-85.3 15q-.8 0-1.2.7-.4.7-.3 1.4l7.2 41q0 .7.7 1.2.6.4 1.4.3l85.3-15q.8-.1 1.3-.7.4-.7.3-1.4l-7.2-41"/></symbol><symbol id="a" overflow="visible"><path fill="#2C596D" fill-opacity="0" d="M-349.9-447.4V0H350v-447.4H-350"/><path fill="#F0B971" stroke="#1A344F" stroke-width="2.5" stroke-linecap="round" stroke-linejoin="round" d="M92.4-369.5q2.2-8.2-2-15.4-4.3-7.3-12.4-9.5-8.2-2.2-15.5 2-7.3 4.3-9.5 12.5-2.1 8.2 2.1 15.4 4.3 7.3 12.4 9.5 8.2 2.2 15.5-2.1 7.3-4.2 9.4-12.4"/><path fill="#ECB069" stroke="#1A344F" stroke-width="2.5" stroke-linecap="round" stroke-linejoin="round" d="M85.7-371.3q1.4-5.3-1.4-10.1t-8.1-6.2q-5.4-1.4-10.2 1.3-4.7 2.8-6.2 8.2-1.4 5.3 1.4 10.1t8.1 6.2q5.4 1.5 10.2-1.3 4.8-2.8 6.2-8.2"/><path fill="none" stroke="#1A344F" stroke-width="2.5" stroke-linecap="round" stroke-linejoin="round" d="M70.9-379.7q-1 .5-1.2 1.6-.3 1 .3 1.9.5.9 1.5 1.2l2.5.6q1 .3 1.5 1.2.6.9.3 1.9-.3 1-1.2 1.6-1 .5-2 .2l-4.9-1.3m3.2-9q.9-.4 1.9-.2l4.9 1.4m-3.6-1l.6-2.5m-3.3 12.3l-.6 2.5"/><path fill="#A2C3C3" d="M314.7-152.2q-2.3-.7-5-.7-6.4 0-11.6 4-5.1 4-6.8 10.2-2 7.7 1.9 14.5 4 6.9 11.7 8.9 2.3.7 4.9.7 6.5 0 11.6-4 5.2-4 6.9-10.2 2-7.7-2-14.6-4-6.8-11.6-8.8m-1.2 4.3q5.9 1.6 8.9 6.8 3 5.3 1.5 11-1.2 4.9-5.2 7.9t-9 3q-1.9 0-3.7-.4-5.9-1.6-8.9-6.8-3-5.3-1.5-11.1 1.3-4.8 5.2-7.8 4-3.1 9-3.1 1.9 0 3.7.5"/><path fill="#7EA9BC" d="M328.5-144.6q-2.2-3.8-5.6-6.4-3.4-2.5-7.6-3.7-2.9-.7-5.5-.7-7.4 0-13.2 4.5t-7.7 11.6q-2.3 8.7 2.2 16.4 4.5 7.8 13.1 10 2.9.8 5.6.8 7.3 0 13.2-4.5t7.7-11.6q1-4.2.5-8.4t-2.7-8m-1.1.6q4.3 7.3 2 15.5-2.1 8.1-9.4 12.4-7.3 4.2-15.4 2-8.2-2.1-12.4-9.4-4.3-7.3-2.1-15.5 2.1-8.1 9.4-12.4 7.3-4.2 15.5-2.1 8.2 2.2 12.4 9.5"/><path fill="#7EA9BC" d="M327.4-144q-4.2-7.3-12.4-9.5-8.2-2.1-15.5 2.1-7.3 4.3-9.4 12.4-2.2 8.2 2 15.5 4.3 7.3 12.5 9.4 8.1 2.2 15.4-2 7.3-4.3 9.5-12.4 2.2-8.2-2.1-15.5m.9 15.2q-1.7 6.2-6.9 10.2-5.1 4-11.6 4-2.6 0-5-.7-7.6-2-11.6-8.9-4-6.8-2-14.5 1.8-6.2 6.9-10.2 5.2-4 11.7-4 2.6 0 4.9.7 7.6 2 11.6 8.8 4 6.9 2 14.6"/><path fill="#A9C6C2" d="M312.9-145.5q-1.6-.4-3.1-.4-4.1 0-7.4 2.5-3.3 2.6-4.3 6.5-1.3 4.8 1.2 9.2 2.5 4.4 7.4 5.7 1.6.4 3 .4 4.2 0 7.5-2.5 3.2-2.5 4.3-6.5 1.3-4.9-1.2-9.2-2.6-4.4-7.4-5.7m0 4.7l-.3 1.2 2.5.7q.5.1.8.6.2.4 0 .9 0 .5-.5.8-.4.2-1 .1l-4.9-1.3q-.5-.1-1 .1-.4.3-.6.8-.1.6.2 1 .3.5.8.6l2.4.7q1.5.4 2.3 1.7.8 1.4.4 2.9t-1.7 2.3q-.9.5-2 .5l-1-.1-.3 1.3q-.2.9-1.2.9l-.3-.1q-.5-.1-.8-.5-.2-.5-.1-1l.3-1.2-2.4-.7q-.5-.1-.8-.6-.3-.4-.1-1 0-.4.5-.7.5-.2 1-.1l4.9 1.3q.6.1 1-.1.5-.3.6-.8.1-.6-.1-1-.3-.5-.8-.6l-2.5-.7q-1.5-.4-2.3-1.7-.8-1.4-.4-3 .4-1.4 1.8-2.2 1.4-.8 2.9-.4l.3-1.3q.2-.5.6-.7.5-.3 1-.1.5 0 .7.5.3.5.1 1"/><path fill="#7EA9BC" d="M322.4-141.1q-3-5.2-8.9-6.8-1.8-.5-3.7-.5-5 0-9 3-3.9 3-5.2 7.9-1.5 5.8 1.5 11 3 5.3 8.9 6.9 1.8.5 3.8.5 5 0 8.9-3.1 4-3 5.2-7.8 1.6-5.8-1.5-11.1m-9.2-5.6q5.4 1.5 8.1 6.2 2.8 4.8 1.4 10.2-1.4 5.3-6.2 8.1-4.8 2.8-10.2 1.4-5.3-1.4-8.1-6.2-2.8-4.8-1.4-10.2 1.5-5.3 6.3-8.1t10.1-1.4"/><path fill="#7EA9BC" d="M313.2-146.7q-5.3-1.4-10.1 1.4t-6.3 8.1q-1.4 5.4 1.4 10.2 2.8 4.8 8.1 6.2 5.4 1.4 10.2-1.4 4.8-2.8 6.2-8.1 1.4-5.4-1.4-10.2-2.7-4.7-8.1-6.2m-.3 1.2q4.8 1.3 7.4 5.7 2.5 4.3 1.2 9.2-1.1 4-4.3 6.5-3.3 2.5-7.4 2.5-1.5 0-3.1-.4-4.9-1.3-7.4-5.7t-1.2-9.2q1-4 4.3-6.5t7.4-2.5q1.5 0 3 .4"/><path fill="#7EA9BC" d="M315.9-138.3q-.3-.5-.8-.6l-2.5-.7-.3 1.2q-.3 1-1.2 1l-.3-.1q-.5-.1-.8-.5-.3-.5-.1-1l.3-1.2q-1.5-.4-3 .4-1.3.8-1.7 2.3-.4 1.5.4 2.9.8 1.3 2.3 1.7l2.5.7q.5.1.8.6.2.4.1 1-.1.5-.6.8-.4.2-1 0l-5-1.2q-.4-.1-.9.1-.4.3-.5.8-.2.5 0 .9.4.5.9.6l2.4.7.4-1.2q0-.5.5-.8.5-.3 1-.1.5 0 .8.5.2.5 0 1l-.2 1.2 1 .1q1 0 1.9-.5 1.3-.8 1.7-2.3.4-1.5-.4-2.9-.8-1.3-2.3-1.7l-2.4-.7q-.5-.1-.8-.6-.3-.4-.2-1 .2-.5.6-.8.5-.2 1-.1l5 1.3q.5.1.9-.1.5-.3.6-.8.1-.5-.1-1"/><path fill="#7EA9BC" d="M312.6-139.6l.3-1.2q.2-.5-.1-1-.2-.4-.7-.5-.5-.2-1 0-.4.3-.6.8l-.3 1.3 2.4.6M310-138q.3.4.8.5h.3q.9 0 1.2-.9l.3-1.2-2.4-.6-.3 1.2q-.2.5 0 1m-3 10l-.3 1.3q-.1.5.1 1 .3.4.8.5h.3q1 0 1.2-.8l.4-1.3-2.5-.6"/><path fill="#7EA9BC" d="M309.6-129.5q-.3-.4-.8-.5-.5-.2-1 0-.4.4-.5.9l-.4 1.2 2.5.6.3-1.2q.1-.5-.1-1"/><path fill="#A2C3C3" d="M249.7-37.3q-3-2.3-6.7-3.3-2.7-.6-5-.6-6.5 0-11.6 4-5.2 3.9-6.8 10.2-1 3.8-.5 7.5t2.4 7q1.9 3.4 5 5.7 3 2.2 6.7 3.2 2.6.7 4.9.7 6.5 0 11.6-4 5.2-4 6.8-10.3 1-3.7.5-7.4t-2.4-7.1q-2-3.3-5-5.6m-7.8 1q5.8 1.6 8.9 6.9 3 5.2 1.5 11-1.3 4.9-5.2 7.9t-9 3q-1.7 0-3.7-.4-5.8-1.6-8.9-6.8-3-5.2-1.5-11.1 1.3-4.8 5.2-7.9 4-3 8.9-3 1.7 0 3.8.5"/><path fill="#7EA9BC" d="M251.2-39.3q-3.4-2.6-7.6-3.7-2.7-.7-5.6-.7-7.3 0-13.1 4.5-5.9 4.5-7.8 11.6-1.1 4.2-.5 8.4.6 4.2 2.8 8t5.5 6.3q3.4 2.6 7.6 3.7 2.7.8 5.6.8 7.3 0 13.2-4.5t7.7-11.6q1-4.2.5-8.4-.6-4.3-2.7-8-2.2-3.8-5.6-6.4m-8-2.5q8.2 2.2 12.5 9.5 4.2 7.3 2 15.4-2.1 8.2-9.4 12.5-7.3 4.2-15.5 2t-12.4-9.4q-4.2-7.4-2-15.5 2.1-8.2 9.4-12.4 7.3-4.2 15.5-2.1"/><path fill="#7EA9BC" d="M243.3-41.8q-8.2-2.1-15.5 2-7.3 4.3-9.4 12.5-2.2 8.1 2 15.5 4.3 7.2 12.4 9.4 8.2 2.2 15.5-2 7.3-4.3 9.5-12.5 2.1-8.1-2.1-15.4-4.3-7.3-12.4-9.5m6.4 4.5q3 2.3 4.9 5.6 1.9 3.3 2.4 7 .5 3.8-.5 7.5-1.6 6.3-6.8 10.3-5.1 4-11.6 4-2.3 0-5-.7-3.6-1-6.6-3.2-3.1-2.3-5-5.7-2-3.3-2.4-7-.5-3.7.5-7.5 1.6-6.3 6.8-10.2 5.1-4 11.6-4 2.3 0 5 .6 3.7 1 6.7 3.3"/><path fill="#A9C6C2" d="M249.8-19q1.3-4.8-1.3-9.2-2.5-4.3-7.3-5.6-1.6-.4-3.2-.4-4.1 0-7.3 2.5-3.3 2.6-4.4 6.5-1.2 4.9 1.3 9.2 2.5 4.4 7.3 5.6 1.6.5 3.2.5 4 0 7.4-2.6 3.2-2.5 4.3-6.5m-5.5-6.7q-.2.5-.6.8-.5.2-1 0l-4.9-1.2q-.5-.2-1 .1-.4.3-.6.8-.1.5.2 1 .2.5.7.6l2.5.6q1.6.5 2.3 1.8.8 1.4.4 2.9t-1.8 2.3q-.8.5-1.9.5l-1-.1-.3 1.2q-.2 1-1.2 1l-.3-.1q-.5-.1-.8-.6-.2-.4-.1-1l.3-1.2-2.5-.6q-.5-.2-.7-.6-.3-.5-.2-1 .2-.5.6-.7.5-.3 1-.1l4.9 1.3q.5.1 1-.2.5-.2.6-.8.1-.4-.1-1-.4-.5-.8-.5l-2.5-.7q-1.5-.4-2.3-1.8-.8-1.3-.4-2.8.4-1.6 1.8-2.3 1.3-.8 2.9-.4l.3-1.3q.1-.5.6-.7.4-.3.9-.2.6.2.8.6.3.5.1 1l-.3 1.2 2.5.7q.5 0 .7.5.3.5.2 1"/><path fill="#7EA9BC" d="M241.8-36.2q-2.1-.5-3.8-.5-5 0-8.9 3-3.9 3-5.2 7.9-1.5 5.9 1.5 11 3 5.3 8.9 6.9 2 .5 3.8.5 4.9 0 8.9-3.1t5.2-7.8q1.5-5.9-1.5-11.1-3.1-5.3-8.9-6.8m3 25.7q-4.8 2.8-10.2 1.4-5.3-1.4-8.1-6.3-2.8-4.8-1.4-10.1 1.5-5.3 6.2-8.1 4.8-2.8 10.2-1.4 5.3 1.4 8.1 6.2 2.8 4.8 1.4 10.1-1.4 5.4-6.2 8.2"/><path fill="#7EA9BC" d="M251-18.7q1.4-5.3-1.4-10.1t-8.1-6.2q-5.4-1.4-10.2 1.4-4.7 2.8-6.2 8-1.4 5.4 1.4 10.2 2.8 4.9 8.1 6.3 5.4 1.4 10.2-1.4 4.8-2.8 6.2-8.2m-1.2-.3q-1.1 4-4.3 6.5-3.3 2.6-7.4 2.6-1.6 0-3.2-.5-4.8-1.2-7.3-5.6-2.5-4.3-1.3-9.2 1-4 4.4-6.5 3.2-2.5 7.3-2.5 1.6 0 3.2.4 4.8 1.3 7.3 5.6 2.6 4.4 1.3 9.2"/><path fill="#7EA9BC" d="M238.2-27.3l.3-1.2q-1.6-.4-3 .4-1.3.7-1.7 2.3-.4 1.5.4 2.8.8 1.4 2.3 1.8l2.5.7q.4 0 .8.6.2.5 0 .9 0 .6-.5.8-.5.3-1 .2l-1.2-.4q.5.2.7.6.3.5.2 1l-.4 1.2 1 .1q1 0 1.9-.5 1.4-.8 1.8-2.3.4-1.5-.4-2.9-.7-1.3-2.3-1.8l-2.5-.6q-.5-.1-.7-.6-.3-.5-.2-1 .2-.5.6-.8.5-.3 1-.1l1.2.3q-.5-.2-.7-.6-.3-.4-.1-1"/><path fill="#7EA9BC" d="M232-17.5q.2.4.7.6l2.5.6.3-1.2q.2-.5.6-.7.5-.3 1-.2l-3.7-1q-.5-.1-1 .2-.4.2-.6.7-.1.5.2 1m12.3-8.2l-.2-1q-.2-.4-.7-.5l-2.5-.7-.3 1.2q-.3.9-1.2.9h-.4l3.7 1q.5.1 1-.1.4-.3.6-.8m-3.4-2.2l.3-1.2q.2-.5-.1-1-.2-.4-.8-.6-.5-.1-1 .2-.4.2-.5.7l-.3 1.3 2.4.6"/><path fill="#7EA9BC" d="M239.4-25.8q.9 0 1.2-.9l.3-1.2-2.4-.6-.3 1.2q-.2.5 0 .9.3.5.8.6h.4m-4.2 9.5l-.3 1.3q-.1.5.1.9.3.5.8.6h.3q1 0 1.2-.9l.3-1.2-2.4-.7M237.8-17.8q-.2-.4-.7-.6-.5-.1-1 .2-.4.2-.6.7l-.3 1.2 2.4.7.4-1.2-.2-1"/><path fill="#A2C3C3" d="M69.2-259.3q-3.1-2.4-6.8-3.3-2.6-.7-4.9-.7-6.5 0-11.6 4-5.2 4-6.9 10.3-1 3.7-.4 7.4.5 3.8 2.4 7 4 7 11.6 9 2.3.6 5 .6 6.5 0 11.6-4 5.2-4 6.8-10.2 2-7.8-2-14.5-1.8-3.3-4.8-5.6m2.5 18.9q-1.3 4.8-5.2 7.9-4 3-9 3-1.6 0-3.7-.5-5.9-1.5-9-6.8-3-5.2-1.4-11.1 1.3-4.8 5.2-7.8 4-3 8.9-3 2 0 3.8.4 5.8 1.6 8.9 6.8 3 5.2 1.5 11.1"/><path fill="#7EA9BC" d="M63-265q-2.6-.8-5.5-.8-7.3 0-13.2 4.5-5.8 4.5-7.7 11.6-1.1 4.2-.5 8.5.6 4.2 2.7 7.9 2.2 3.8 5.6 6.4 3.4 2.6 7.6 3.7 2.8.7 5.6.7 7.3 0 13.1-4.5 5.9-4.5 7.7-11.6 1.1-4.2.6-8.4-.6-4.2-2.8-8-2.1-3.7-5.5-6.3-3.4-2.6-7.6-3.7M77.2-239q-2.1 8.2-9.4 12.4-7.3 4.3-15.5 2-8.1-2.1-12.4-9.4-4.2-7.3-2.1-15.4 2.2-8.2 9.5-12.4 7.3-4.3 15.5-2.1 8.1 2.2 12.4 9.5 4.2 7.3 2 15.4"/><path fill="#7EA9BC" d="M75.2-254.3q-4.3-7.3-12.4-9.5-8.2-2.2-15.5 2-7.3 4.3-9.5 12.5-2.1 8.1 2.1 15.4 4.3 7.3 12.4 9.5 8.2 2.2 15.5-2.1 7.3-4.2 9.4-12.4 2.2-8.1-2-15.4m.8 15q-1.6 6.4-6.8 10.4-5.1 3.9-11.6 3.9-2.7 0-5-.6-7.6-2-11.6-9-2-3.2-2.4-7t.4-7.4q1.7-6.3 6.9-10.3 5.1-4 11.6-4 2.3 0 4.9.7 3.7.9 6.8 3.3 3 2.3 4.9 5.6 4 6.7 1.9 14.5"/><path fill="#A9C6C2" d="M68-250.2q-2.6-4.4-7.4-5.6-1.3-.4-3.1-.4-4.1 0-7.4 2.5-3.2 2.5-4.3 6.5-1.2 4.8 1.3 9.2t7.3 5.6q1.7.4 3.1.4 4.2 0 7.4-2.5 3.3-2.5 4.4-6.5 1.2-5-1.3-9.2m-7.4-2q.2.5.1 1l-.3 1.3 2.5.6q.5.2.7.6.3.5.1 1-.1.5-.5.7-.5.3-1 .1l-5-1.3q-.4-.1-.9.2-.5.3-.6.8-.1.5.1 1 .3.4.8.5l2.5.7q1.5.4 2.3 1.8.8 1.3.4 2.8-.4 1.3-1.4 2-1 .9-2.3.9l-1-.2-.3 1.3q-.3.9-1.2.9h-.3q-.5-.1-.8-.6-.3-.4-.1-1l.3-1.2-2.5-.7q-.5-.1-.7-.5-.3-.5-.2-1 .2-.5.6-.8.5-.2 1-.1l4.9 1.3q.5.2 1-.1.4-.3.6-.8.1-.5-.2-1-.2-.4-.7-.6l-2.5-.6q-1.5-.4-2.3-1.8-.8-1.4-.4-2.9t1.8-2.3q1.3-.8 2.8-.4l.4-1.2q.1-.5.6-.8.4-.2.9-.1t.8.6"/><path fill="#7EA9BC" d="M70.2-251.5q-3.1-5.2-9-6.8-1.7-.4-3.7-.4-5 0-8.9 3-3.9 3-5.2 7.8-1.5 5.9 1.5 11.1 3 5.3 8.9 6.8 2 .5 3.7.5 5 0 9-3 3.9-3.1 5.2-7.9 1.5-5.9-1.5-11.1m.3 10.8q-1.5 5.4-6.2 8.2-4.8 2.7-10.2 1.3-5.3-1.4-8.1-6.2-2.8-4.8-1.4-10.1 1.5-5.4 6.2-8.2 4.8-2.7 10.2-1.3 5.3 1.4 8.1 6.2 2.8 4.8 1.4 10.1"/><path fill="#7EA9BC" d="M69.1-250.8q-2.8-4.8-8.1-6.2-5.4-1.4-10.2 1.3-4.7 2.8-6.2 8.2-1.4 5.3 1.4 10.1t8.1 6.2q5.4 1.4 10.2-1.3 4.7-2.8 6.2-8.2 1.4-5.3-1.4-10.1m.2 9.8q-1.1 4-4.4 6.5-3.2 2.5-7.4 2.5-1.4 0-3.1-.4-4.8-1.3-7.3-5.6-2.5-4.4-1.3-9.2 1-4 4.3-6.5t7.4-2.5q1.8 0 3.1.4 4.8 1.2 7.4 5.6 2.5 4.3 1.3 9.2"/><path fill="#7EA9BC" d="M55.6-240.3q.5-.2 1-.1l-3.7-1q-.5-.1-1 .1-.4.3-.6.8-.1.5.2 1 .2.4.7.5l2.5.7.3-1.2q.2-.5.6-.8"/><path fill="#7EA9BC" d="M61.8-240.4q.4-1.5-.4-2.8-.8-1.4-2.3-1.8l-2.5-.7q-.5-.1-.8-.5-.2-.5-.1-1t.6-.8q.5-.3 1-.2l1 .3-.5-.5q-.3-.5-.2-1l.4-1.2h-.1q-1.5-.4-2.8.4-1.4.8-1.8 2.3-.4 1.5.4 2.9t2.3 1.8l2.5.6q.5.2.7.6.3.5.2 1-.2.5-.6.8-.5.3-1 .1l-1.2-.3q.5.1.7.6.3.4.1.9l-.3 1.2 1 .2q1.3 0 2.3-.8 1-.8 1.4-2.1"/><path fill="#7EA9BC" d="M63.6-248.7q-.2-.4-.7-.6l-2.5-.6-.3 1.2q-.3.9-1.3.9l3.4.9q.5.2 1-.1.4-.2.5-.7.2-.5-.1-1M60.4-250l.3-1.2q.1-.5-.1-1-.3-.4-.8-.5-.5-.1-1 .1-.4.3-.5.8l-.3 1.2 2.4.7"/><path fill="#7EA9BC" d="M60-248.7l.4-1.2-2.4-.7-.4 1.2q-.1.5.2 1 .2.4.7.6h.3q1 0 1.3-1m-5.4 10.5l-.3 1.2q-.2.6 0 1 .4.5.9.6h.3q.9 0 1.2-1l.3-1.2-2.4-.6m2.6-1.5q-.2-.5-.7-.6-.5-.1-1 .1-.4.3-.6.8l-.3 1.2 2.4.6.3-1.2q.2-.5-.1-1"/><path fill="#A2C3C3" d="M171.2-412.1q2-7.6-2-14.5t-11.6-8.9q-2.3-.6-5-.6-6.4 0-11.6 4-5.1 3.9-6.8 10.2-1 3.7-.5 7.5.5 3.7 2.4 7 4.1 6.9 11.7 8.9 2.7.7 4.9.7 6.5 0 11.7-4 5.1-4 6.8-10.3m-14.8-19q5.9 1.5 8.9 6.8 3 5.2 1.5 11-1.2 4.9-5.2 7.9t-8.9 3q-1.9 0-3.8-.4-5.7-1.6-8.9-6.8-3-5.3-1.4-11.1 1.3-4.8 5.2-7.9 3.9-3 8.9-3 1.7 0 3.7.5"/><path fill="#7EA9BC" d="M173.6-411.4q2.3-8.7-2.2-16.4-4.5-7.8-13.2-10.1-2.7-.7-5.5-.7-7.4 0-13.2 4.5-5.8 4.5-7.7 11.6-1.1 4.2-.6 8.4.6 4.2 2.8 8t5.6 6.3q3.3 2.6 7.5 3.7 2.8.8 5.6.8 7.3 0 13.2-4.5 5.8-4.5 7.7-11.6m-1.2-.4q-2.2 8.2-9.5 12.5-7.3 4.2-15.4 2-8.2-2.1-12.4-9.4-4.3-7.3-2.1-15.5 2.2-8.2 9.5-12.4 7.3-4.2 15.4-2.1 8.2 2.2 12.4 9.5 4.2 7.3 2 15.4"/><path fill="#7EA9BC" d="M172.4-411.8q2.1-8.1-2.1-15.4-4.2-7.3-12.4-9.5-8.1-2.1-15.4 2-7.3 4.3-9.5 12.5t2 15.5q4.3 7.3 12.5 9.4 8.1 2.2 15.4-2 7.3-4.3 9.5-12.5m-1.2-.3q-1.7 6.3-6.8 10.3-5.2 4-11.7 4-2.2 0-5-.7-7.5-2-11.6-8.9-1.9-3.3-2.4-7t.5-7.5q1.7-6.3 6.8-10.2 5.2-4 11.7-4 2.6 0 4.9.6 7.6 2 11.6 8.9t2 14.5"/><path fill="#A9C6C2" d="M163.2-423.1q-2.5-4.3-7.4-5.6-1.7-.4-3.1-.4-4.1 0-7.4 2.5-3.3 2.5-4.3 6.5-1.3 4.9 1.2 9.2t7.4 5.6q1.4.4 3.1.4 4.1 0 7.4-2.5 3.3-2.5 4.3-6.5 1.3-4.8-1.2-9.2m-11.7 2.2q-.5.3-.6.8-.2.5 0 1 .4.4.9.6l2.4.6q1.6.4 2.4 1.8.7 1.4.3 2.9-.4 1.5-1.7 2.3-1 .5-2 .5l-1-.1-.3 1.2q-.2 1-1.2 1l-.3-.1q-.5-.1-.8-.6-.2-.4-.1-1l.4-1.2-2.5-.6q-.5-.2-.8-.6-.2-.5-.1-1t.6-.7q.4-.3.9-.1l4.9 1.3q.6.1 1-.2.5-.2.6-.8.2-.5-.1-1-.3-.4-.8-.5l-2.5-.7q-1.6-.5-2.3-1.8-.8-1.3-.4-2.8.4-1.6 1.8-2.3 1.4-.8 2.9-.4l.3-1.3q.2-.5.6-.7.5-.3 1-.2.5.2.7.6.3.5.2 1l-.4 1.2 2.5.7q.5 0 .8.5.2.5.1 1t-.6.8q-.4.2-1 0l-4.9-1.2q-.5-.2-1 .1"/><path fill="#7EA9BC" d="M165.3-424.3q-3-5.3-8.9-6.8-2-.5-3.7-.5-5 0-9 3-3.8 3-5.1 7.9-1.6 5.8 1.4 11 3.2 5.3 8.9 6.9 1.9.4 3.8.4 5 0 8.9-3 4-3 5.2-7.8 1.6-5.9-1.5-11.1m-1 .6q2.8 4.8 1.3 10.1-1.4 5.4-6.2 8.2-4.8 2.8-10.1 1.3-5.4-1.4-8.2-6.2-2.7-4.8-1.3-10.1 1.4-5.4 6.2-8.1 4.8-2.8 10.1-1.4 5.4 1.4 8.2 6.2"/><path fill="#7EA9BC" d="M164.3-423.7q-2.8-4.8-8.2-6.2-5.3-1.4-10.1 1.4-4.8 2.7-6.2 8-1.4 5.4 1.3 10.2 2.8 4.8 8.2 6.2 5.3 1.5 10.1-1.3t6.2-8.2q1.5-5.3-1.3-10.1m-8.5-5q4.9 1.3 7.4 5.6 2.5 4.4 1.2 9.2-1 4-4.3 6.5t-7.4 2.5q-1.7 0-3.1-.4-4.9-1.2-7.4-5.6t-1.2-9.2q1-4 4.3-6.5t7.4-2.5q1.4 0 3.1.4"/><path fill="#7EA9BC" d="M150.2-423q-1.4.7-1.8 2.3-.4 1.5.4 2.8.7 1.3 2.3 1.8l2.5.7q.5 0 .8.5.3.5.1 1-.1.6-.6.8-.4.3-1 .2l-1-.3q.4.2.6.5.2.5 0 1l-.2 1.2 1 .1q.9 0 1.9-.5 1.3-.8 1.7-2.3.4-1.5-.3-2.9-.8-1.4-2.4-1.8l-2.4-.6q-.5-.2-.8-.6-.3-.5-.1-1 0-.5.6-.8.4-.3.9-.1l1 .2q-.3-.1-.5-.5t-.1-1l.3-1.1q-1.5-.4-2.9.4"/><path fill="#7EA9BC" d="M154-420.7h-.3l3.7 1q.5.1.9-.1.5-.3.6-.8.1-.5-.1-1-.3-.4-.8-.5l-2.5-.7-.3 1.2q-.2.9-1.2.9m-4.1 9.5l.3-1.2q.1-.5.6-.7.3-.2.7-.2l-3.5-1q-.5-.1-1 .2-.4.2-.5.7-.1.5.1 1 .3.4.8.6l2.5.6"/><path fill="#7EA9BC" d="M155.5-422.8l.4-1.2-.2-1q-.2-.4-.7-.6-.5-.1-1 .2-.4.2-.6.7l-.3 1.3 2.4.6m-2.6 1.5q.3.5.8.6h.3q1 0 1.2-.9l.3-1.2-2.4-.6-.3 1.2q-.1.5.1.9m-3 10.1l-.4 1.3q-.1.5.1.9.3.5.8.6h.3q1 0 1.2-.9l.4-1.2-2.4-.7m2.6-1.5q-.3-.4-.8-.6-.5-.1-1 .2-.4.2-.5.7l-.3 1.2 2.4.7.3-1.2q.1-.5-.1-1"/><path fill="#BEC175" d="M-319-295.5q-2.2-.6-4.8-.6-6.5 0-11.7 4-5.2 3.9-6.8 10.2-1 3.7-.5 7.5.5 3.7 2.4 7 4 6.8 11.7 8.9 2.4.6 4.9.6 6.5 0 11.6-4 5.2-4 6.9-10.2 2-7.6-2-14.5t-11.6-8.9m-1.2 4.4q5.9 1.5 8.9 6.8 3 5.2 1.5 11-1.2 4.9-5.2 7.9t-9 3q-2 0-3.7-.5-5.8-1.5-8.9-6.7-3-5.3-1.5-11.1 1.3-4.8 5.2-7.9 4-3 9-3 1.9 0 3.7.5"/><path fill="#89A56E" d="M-318.3-297.9q-2.7-.7-5.5-.7-7.4 0-13.2 4.5-5.8 4.5-7.7 11.6-1.1 4.2-.6 8.4.6 4.2 2.8 8t5.5 6.3q3.4 2.6 7.6 3.7 2.5.7 5.6.7 7.3 0 13.2-4.5 5.8-4.4 7.7-11.5 2.3-8.7-2.2-16.4-4.5-7.8-13.2-10.1m-25.2 15.7q2.1-8.2 9.4-12.4 7.3-4.2 15.5-2.1 8.1 2.2 12.4 9.5 4.3 7.3 2 15.4-2.1 8.2-9.4 12.4-7.3 4.3-15.5 2.1-8.1-2.2-12.4-9.4-4.2-7.4-2-15.5"/><path fill="#89A66F" d="M-343.5-282.2q-2.2 8.1 2 15.5 4.3 7.2 12.4 9.4 8.2 2.2 15.5-2.1 7.3-4.2 9.5-12.4 2.2-8.1-2.1-15.4-4.3-7.3-12.4-9.5-8.2-2.1-15.5 2-7.3 4.3-9.4 12.5m24.6-13.3q7.6 2 11.6 8.9t2 14.5q-1.7 6.3-6.9 10.3-5.1 3.9-11.6 3.9-2.5 0-5-.6-7.6-2.1-11.6-8.9-1.9-3.3-2.4-7t.5-7.5q1.6-6.3 6.8-10.2 5.2-4 11.7-4 2.6 0 4.9.6"/><path fill="#BEC175" d="M-334.3-270.9q2.6 4.4 7.4 5.6 1.3.4 3 .4 4.2 0 7.5-2.5 3.2-2.5 4.3-6.5 1.3-4.8-1.3-9.2-2.5-4.3-7.3-5.6-1.6-.4-3.1-.4-4.1 0-7.4 2.5-3.3 2.5-4.4 6.5-1.2 4.9 1.3 9.2m8-12.2q1.4-.8 2.9-.3l.3-1.3q.1-.5.6-.8.4-.2.9-.1t.8.6q.3.4.1.9l-.3 1.3 2.5.7q.5 0 .8.5.2.5 0 1-.1.5-.5.8-.5.2-1 0l-3.6-1h-.1l-1.2-.2q-.5-.2-1 0-.4.4-.6.9-.1.5.2 1 .3.4.8.6l2.4.6q1.5.4 2.3 1.8.8 1.4.4 2.9-.3 1.5-1.7 2.3-1 .5-2 .5l-1-.1-.3 1.2q-.2.9-1.2.9h-.3q-.5-.1-.8-.6-.2-.4-.1-1l.3-1.2-2.5-.6q-.5-.2-.7-.6-.3-.5-.1-1 0-.5.5-.7.5-.3 1-.2l4.9 1.4q.6 0 1-.2.5-.3.6-.8.1-.5-.1-1-.3-.4-.8-.6l-2.5-.6q-1.5-.4-2.3-1.8-.8-1.3-.4-2.9.4-1.5 1.8-2.3"/><path fill="#8BA46F" d="M-320.1-291.1q-1.8-.5-3.7-.5-5 0-9 3-3.9 3-5.2 7.9-1.5 5.8 1.5 11 3 5.3 8.9 6.8 1.7.5 3.8.5 4.9 0 8.9-3t5.2-7.8q1.6-5.9-1.5-11.1t-8.9-6.8m-16.7 10.7q1.5-5.4 6.3-8.2 4.7-2.7 10-1.3 5.4 1.4 8.2 6.2 2.8 4.8 1.4 10.1-1.4 5.4-6.2 8.2-4.8 2.8-10.2 1.3-5.3-1.4-8.1-6.2-2.8-4.8-1.4-10.1"/><path fill="#89A66F" d="M-336.8-280.4q-1.4 5.3 1.4 10.1t8.1 6.2q5.4 1.5 10.2-1.3 4.8-2.8 6.2-8.2 1.4-5.3-1.4-10.1t-8.1-6.2q-5.4-1.4-10.1 1.3-4.8 2.8-6.3 8.2m2.5 9.5q-2.5-4.3-1.3-9.2 1.1-4 4.4-6.5 3.3-2.5 7.4-2.5 1.5 0 3 .4 4.9 1.3 7.4 5.6 2.6 4.4 1.3 9.2-1.1 4-4.3 6.5-3.3 2.5-7.4 2.5-1.8 0-3.1-.4-4.8-1.2-7.4-5.6"/><path fill="#89A46E" d="M-321.3-281.6q-.3.9-1.2.9h-.3l3.6 1q.5.1 1-.1.4-.3.6-.8.1-.5-.1-1-.3-.4-.8-.5l-2.5-.7-.3 1.2"/><path fill="#89A66F" d="M-325.5-279.1q-.3-.5-.2-1 .2-.5.6-.8.5-.3 1-.1l1 .2q-.3-.1-.5-.5-.3-.4-.1-1l.3-1.1q-1.5-.5-3 .3-1.3.8-1.7 2.3-.4 1.6.4 2.9.8 1.4 2.3 1.8l2.5.6q.5.2.8.6.2.5 0 1 0 .5-.5.8-.4.3-1 .2l-1.2-.4q.5.2.7.6.3.5.2 1l-.4 1.2 1 .1q1 0 2-.5 1.4-.8 1.7-2.3.4-1.5-.4-3-.8-1.3-2.3-1.7l-2.4-.6q-.5-.2-.8-.6"/><path fill="#89A46E" d="M-328.5-274.3q-.5-.1-1 .2-.4.2-.5.7-.2.5 0 1 .3.4.8.6l2.5.6.4-1.2q0-.5.5-.7.5-.3 1-.2l-3.7-1m7.5-8.5l.3-1.3q.2-.5-.1-1-.3-.4-.8-.5-.5-.1-1 .1-.4.3-.5.8l-.3 1.3 2.4.6"/><path fill="#8EA36F" d="M-322.5-280.7q.9 0 1.2-.9l.3-1.2-2.4-.6-.3 1.2q-.2.5 0 .9.3.5.8.6h.4"/><path fill="#89A46E" d="M-326.7-271.2l-.3 1.3q-.1.5.1.9.3.5.8.6h.3q1 0 1.2-.9l.3-1.2-2.4-.7m2.6-1.5q-.2-.4-.7-.6-.5-.1-1 .2-.4.2-.5.7l-.4 1.2 2.4.7.4-1.2-.2-1"/><path fill="#BEC175" d="M-287.4-86.6q-5.1 4-6.8 10.2-2 7.7 2 14.5 4 6.9 11.6 8.9 2.3.7 4.9.7 6.5 0 11.7-4 5.1-4 6.8-10.3 1-3.6.5-7.4-.5-3.7-2.5-7.1-1.9-3.3-4.9-5.6-3-2.3-6.7-3.3-2.4-.6-5-.6-6.4 0-11.6 4m15.5 1q5.8 1.6 8.9 6.8 3 5.2 1.4 11-1.2 4.9-5.2 7.9t-8.9 3q-2 0-3.7-.4-5.9-1.6-9-6.8-3-5.3-1.4-11.1 1.3-4.8 5.2-7.8 3.9-3.1 8.9-3.1 2 0 3.8.5"/><path fill="#89A76F" d="M-288.9-88.6q-5.8 4.5-7.7 11.6-2.3 8.6 2.2 16.4 4.5 7.8 13.2 10 2.8.8 5.5.8 7.4 0 13.2-4.5t7.7-11.6q1.1-4.2.6-8.4-.6-4.3-2.8-8t-5.6-6.4q-3.4-2.5-7.6-3.7-2.5-.7-5.5-.7-7.4 0-13.2 4.5m18.4-2.6q8.2 2.2 12.4 9.5 4.3 7.3 2.1 15.5-2.2 8.1-9.4 12.4-7.4 4.2-15.5 2-8.2-2.1-12.4-9.4-4.2-7.3-2.1-15.5 2.2-8.1 9.5-12.4 7.2-4.2 15.4-2.1"/><path fill="#89A66F" d="M-286-89.1q-7.2 4.3-9.4 12.4-2.1 8.2 2 15.5 4.3 7.3 12.5 9.4 8.1 2.2 15.5-2 7.2-4.3 9.4-12.4 2.2-8.2-2.1-15.5-4.2-7.3-12.4-9.5-8.2-2.1-15.4 2.1m15.1-.9q3.7 1 6.7 3.3t4.9 5.6q2 3.4 2.5 7.1.5 3.8-.5 7.4-1.7 6.3-6.8 10.3-5.2 4-11.7 4-2.6 0-4.9-.7-7.6-2-11.6-8.9-4-6.8-2-14.5 1.7-6.2 6.8-10.2 5.2-4 11.7-4 2.5 0 4.9.6"/><path fill="#BEC175" d="M-275.7-83.6q-4.1 0-7.4 2.5-3.3 2.6-4.3 6.5-1.3 4.9 1.2 9.2t7.4 5.7q1.7.4 3.1.4 4.2 0 7.4-2.5 3.3-2.6 4.3-6.6 1.3-4.8-1.2-9.1t-7.4-5.7q-1.7-.4-3.1-.4m3 4.1q.3.5.2 1l-.4 1.2 2.5.7q.5.1.8.6.2.4.1.9t-.6.8q-.4.2-1 .1l-4.8-1.3q-.6-.1-1 .1-.5.3-.6.8-.2.5.1 1 .3.5.8.6l2.5.7q1.5.4 2.3 1.7.8 1.4.4 2.9-.5 1.6-1.8 2.3-.8.5-2 .5l-.9-.1-.3 1.2q-.3 1-1.3 1l-.3-.1q-.5-.1-.7-.5-.3-.5-.2-1l.4-1.2-2.5-.7q-.5-.1-.8-.6-.2-.4-.1-1 .1-.4.6-.7.4-.2.9-.1l5 1.3q.4.1.9-.1.5-.3.6-.8.2-.5-.1-1-.3-.5-.8-.6l-2.4-.7q-1.6-.4-2.3-1.7-.8-1.4-.4-3 .4-1.4 1.7-2.2 1.4-.8 2.9-.4l.4-1.3q0-.5.5-.7.5-.3 1-.2.5.2.7.6"/><path fill="#8EA36F" d="M-284.6-83q-4 3-5.2 7.8-1.6 5.8 1.5 11t8.9 6.9q1.7.5 3.7.5 5 0 8.9-3.1t5.2-7.8q1.6-5.9-1.4-11.1-3.1-5.2-9-6.8-1.7-.5-3.7-.5-5 0-9 3m12.4-1.3q5.4 1.5 8.2 6.2 2.8 4.8 1.3 10.2-1.4 5.3-6.2 8.1-4.8 2.8-10.1 1.4-5.4-1.4-8.2-6.2-2.7-4.8-1.3-10.2 1.4-5.3 6.2-8.1 4.8-2.8 10.1-1.4"/><path fill="#89A66F" d="M-282.4-83q-4.8 2.8-6.2 8.1-1.4 5.4 1.3 10.2 2.8 4.8 8.2 6.2 5.3 1.4 10.1-1.4t6.2-8.1q1.5-5.4-1.3-10.2-2.8-4.7-8.2-6.2-5.3-1.4-10.1 1.4m17.2 5.5q2.5 4.3 1.2 9.1-1 4-4.3 6.6-3.2 2.5-7.4 2.5-1.4 0-3.1-.4-4.9-1.3-7.4-5.7-2.5-4.3-1.2-9.2 1-4 4.3-6.5t7.4-2.5q1.4 0 3.1.4 4.9 1.4 7.4 5.7"/><path fill="#89A66F" d="M-275.3-78q-1.5-.3-2.9.5t-1.7 2.3q-.4 1.5.4 2.9.7 1.3 2.3 1.7l2.4.7q.5.1.8.6.3.5.1 1t-.6.8q-.5.2-1 0l-1.1-.2q.4 0 .7.5.2.5.1 1l-.3 1.2 1 .1q1 0 1.9-.5 1.3-.7 1.8-2.3.4-1.5-.4-2.9-.8-1.3-2.3-1.7l-2.5-.7q-.5-.1-.8-.6-.3-.5-.1-1t.6-.8q.4-.2 1-.1l1 .2q-.4-.1-.6-.5-.2-.4-.1-1l.3-1.1"/><path fill="#89A66F" d="M-269.6-76q-.3-.5-.8-.6l-2.5-.7-.3 1.2q-.2 1-1.2 1h-.1l3.5.9q.5.1.9-.1.5-.3.6-.8.1-.5-.1-1m-8 8.5q.4-.3.8-.2l-3.6-1-1 .2q-.4.3-.5.8-.1.5.1.9.3.5.8.6l2.5.7.3-1.3q.1-.5.6-.7"/><path fill="#89A46E" d="M-272.9-77.3l.4-1.2-.2-1q-.2-.4-.7-.6-.5-.1-1 .2-.4.2-.5.7l-.4 1.3 2.4.6"/><path fill="#89A66F" d="M-275.5-75.8q.3.5.8.6h.3q1 0 1.2-.9l.3-1.2-2.4-.6-.3 1.2q-.1.5.1.9"/><path fill="#89A46E" d="M-278.5-65.6l-.4 1.2q-.1.5.2 1 .2.4.7.5h.3q1 0 1.3-.9l.3-1.2-2.4-.6"/><path fill="#89A66F" d="M-276-67.2q-.2-.4-.7-.5-.5-.2-1 0-.4.3-.5.8l-.3 1.3 2.4.6.3-1.2q.1-.5-.1-1"/><path fill="#A2C3C3" d="M283.8-302.5q-2.3-.6-5-.6-6.4 0-11.6 3.9-5.1 4-6.8 10.3-2 7.6 1.9 14.5 4 6.9 11.7 8.9 2.3.6 4.9.6 6.5 0 11.6-4 5.2-4 6.9-10.2 2-7.6-2-14.5t-11.6-8.9m-1.2 4.4q5.9 1.5 8.9 6.8 3 5.2 1.5 11-1.2 4.9-5.2 7.9t-9 3q-1.9 0-3.7-.5-5.9-1.5-8.9-6.8-3-5.2-1.5-11 1.3-4.9 5.2-7.9 4-3 9-3 1.9 0 3.7.5"/><path fill="#7EA9BC" d="M297.6-294.9q-2.2-3.7-5.6-6.3-3.4-2.6-7.6-3.7-2.9-.7-5.5-.7-7.4 0-13.2 4.5t-7.7 11.6q-2.3 8.6 2.2 16.4 4.5 7.7 13.1 10 2.9.7 5.6.7 7.3 0 13.2-4.5t7.7-11.6q1-4.1.5-8.4t-2.7-8m1 16.1q-2.2 8.2-9.5 12.4-7.3 4.3-15.4 2-8.2-2.1-12.4-9.4-4.3-7.3-2.1-15.4 2.1-8.2 9.4-12.4 7.3-4.3 15.5-2.1 8.2 2.2 12.4 9.5t2 15.4"/><path fill="#7EA9BC" d="M296.5-294.2q-4.2-7.3-12.4-9.5t-15.5 2q-7.3 4.3-9.4 12.5-2.2 8.1 2 15.4 4.3 7.3 12.5 9.5 8.1 2.2 15.4-2.1 7.3-4.2 9.5-12.4 2.2-8.1-2.1-15.4m.9 15.1q-1.7 6.3-6.9 10.3-5.1 3.9-11.6 3.9-2.6 0-5-.6-7.6-2-11.6-9-4-6.8-2-14.4 1.8-6.3 6.9-10.3 5.2-4 11.7-4 2.6 0 4.9.7 7.6 2 11.6 8.9t2 14.5"/><path fill="#A9C6C2" d="M282-295.7q-1.6-.4-3.1-.4-4.1 0-7.4 2.5-3.3 2.5-4.3 6.5-1.3 4.8 1.2 9.2 2.5 4.3 7.4 5.6 1.6.4 3 .4 4.2 0 7.5-2.5 3.2-2.5 4.3-6.5 1.3-4.8-1.2-9.2-2.6-4.3-7.4-5.6m0 4.6l-.3 1.3 2.5.6q.5.2.8.6.2.5 0 1 0 .5-.5.7-.4.3-1 .2l-4.9-1.3q-.5-.2-1 0-.4.4-.6.9-.1.5.2 1 .3.4.8.6l2.4.6q1.5.4 2.3 1.8.8 1.4.4 2.9t-1.7 2.3q-.9.5-2 .5l-1-.1-.3 1.2q-.2.9-1.2.9h-.3q-.5-.1-.8-.6-.2-.4-.1-1l.3-1.2-2.4-.6q-.5-.2-.8-.6-.3-.5-.1-1 0-.5.5-.7.5-.3 1-.2l4.9 1.3q.6.2 1-.1.5-.2.6-.8.1-.5-.1-1-.3-.4-.8-.6l-2.5-.6q-1.5-.4-2.3-1.8-.8-1.3-.4-2.9.4-1.5 1.8-2.3 1.4-.7 2.9-.4l.3-1.2q.2-.5.6-.8.5-.2 1-.1t.7.6q.3.4.1.9"/><path fill="#7EA9BC" d="M291.5-291.3q-3-5.3-8.9-6.8-1.8-.5-3.7-.5-5 0-9 3-3.9 3-5.2 7.9-1.5 5.8 1.5 11 3 5.3 8.9 6.8 1.8.5 3.8.5 5 0 8.9-3 4-3 5.2-7.9 1.6-5.8-1.5-11m-9.2-5.6q5.4 1.4 8.1 6.2 2.8 4.8 1.4 10.1-1.4 5.4-6.2 8.2-4.8 2.8-10.2 1.3-5.3-1.4-8.1-6.2-2.8-4.8-1.4-10.1 1.5-5.4 6.3-8.2 4.8-2.7 10.1-1.3"/><path fill="#7EA9BC" d="M282.3-297q-5.3-1.3-10.1 1.4-4.8 2.8-6.3 8.2-1.4 5.3 1.4 10.1t8.1 6.2q5.4 1.5 10.2-1.3 4.8-2.8 6.2-8.2 1.4-5.3-1.4-10.1-2.7-4.8-8.1-6.2m-.3 1.2q4.8 1.3 7.4 5.6 2.5 4.4 1.2 9.2-1.1 4-4.3 6.5-3.3 2.5-7.4 2.5-1.5 0-3.1-.4-4.9-1.3-7.4-5.6-2.5-4.4-1.2-9.2 1-4 4.3-6.5t7.4-2.5q1.5 0 3 .4"/><path fill="#7EA9BC" d="M285-288.6q-.3-.4-.8-.6l-2.5-.6-.3 1.2q-.3.9-1.2.9h-.3q-.5-.1-.8-.6-.3-.4-.1-1l.3-1.2q-1.5-.3-3 .4-1.3.8-1.7 2.3-.4 1.6.4 2.9.8 1.4 2.3 1.8l2.5.6q.5.2.8.6.2.5.1 1-.1.6-.6.8-.4.3-1 .1l-5-1.3q-.4-.1-.9.2-.4.2-.5.7-.2.5 0 1 .4.4.9.6l2.4.6.4-1.2q0-.5.5-.8.5-.2 1-.1t.8.6q.2.4 0 .9l-.2 1.3h1q1 0 1.9-.4 1.3-.8 1.7-2.3.4-1.5-.4-3-.8-1.3-2.3-1.7l-2.4-.6q-.5-.2-.8-.6-.3-.5-.2-1 .2-.5.6-.8.5-.3 1-.1l5 1.3q.5 0 .9-.2.5-.2.6-.7.1-.5-.1-1"/><path fill="#7EA9BC" d="M281.7-289.8l.3-1.3q.2-.5-.1-1-.2-.4-.7-.5-.5-.1-1 .1-.4.3-.6.8l-.3 1.2 2.4.7m-2.6 1.5q.3.5.8.6h.3q.9 0 1.2-1l.3-1.1-2.4-.7-.3 1.3q-.2.5 0 .9m-3 10.1l-.3 1.3q-.1.5.1.9.3.5.8.6h.3q1 0 1.2-.9l.4-1.2-2.5-.7m2.7-1.5q-.3-.5-.8-.6-.5-.1-1 .1-.4.3-.5.8l-.4 1.2 2.5.7.3-1.3q.1-.5-.1-1"/><path fill="#BEC175" d="M-47.1-438q-2.3-.6-4.9-.6-6.5 0-11.7 4-5.1 4-6.8 10.3-1 3.7-.4 7.4.5 3.8 2.4 7 3.9 6.9 11.6 9 2.4.6 4.9.6 6.5 0 11.7-4 5.1-4 6.8-10.2 2-7.7-2-14.5t-11.6-9m-1.1 4.4q5.8 1.6 8.9 6.8 3 5.3 1.5 11.1-1.3 4.8-5.3 7.9-4 3-8.9 3-2 0-3.7-.5-5.9-1.6-9-6.8-3-5.3-1.4-11.1 1.3-4.8 5.2-7.8 3.9-3.1 8.9-3.1 2 0 3.8.5"/><path fill="#89A56E" d="M-46.4-440.3q-2.8-.8-5.6-.8-7.3 0-13.2 4.5-5.8 4.5-7.7 11.6-1.1 4.2-.5 8.5.5 4.2 2.7 7.9t5.6 6.4q3.4 2.6 7.6 3.7 2.5.7 5.5.7 7.4 0 13.2-4.5 5.9-4.5 7.7-11.6 2.3-8.6-2.2-16.4-4.5-7.7-13.1-10m-25.3 15.6q2.2-8.1 9.5-12.4 7.3-4.2 15.4-2 8.2 2.1 12.5 9.4 4.2 7.3 2 15.5-2.1 8.1-9.4 12.4-7.3 4.2-15.5 2-8.2-2.1-12.4-9.4-4.2-7.3-2.1-15.5"/><path fill="#89A66F" d="M-71.7-424.7q-2.1 8.2 2 15.5 4.3 7.3 12.5 9.5 8.2 2.1 15.5-2.1 7.3-4.3 9.4-12.4 2.2-8.2-2-15.5-4.3-7.3-12.5-9.4-8.1-2.2-15.4 2-7.3 4.3-9.5 12.4m24.6-13.2q7.7 2 11.7 8.9 4 6.8 1.9 14.5-1.7 6.2-6.8 10.2-5.2 4-11.7 4-2.5 0-4.9-.6-7.7-2.1-11.6-9-2-3.2-2.4-7t.4-7.4q1.7-6.3 6.8-10.3 5.2-4 11.7-4 2.6 0 4.9.7"/><path fill="#BEC175" d="M-62.5-413.3q2.6 4.4 7.4 5.6 1.4.4 3.1.4 4.1 0 7.4-2.5 3.3-2.5 4.3-6.5 1.3-4.9-1.2-9.2-2.5-4.4-7.4-5.7-1.6-.4-3.1-.4-4.1 0-7.4 2.5-3.2 2.6-4.3 6.6-1.3 4.8 1.2 9.2m8-12.2q1.5-.8 2.9-.4l.4-1.2q0-.5.5-.8.5-.3 1-.1.5 0 .8.5.2.5 0 1l-.3 1.2 2.5.7q.5.1.8.6.3.4.1.9-.1.6-.6.8-.4.3-1 .1l-3.6-1-1.2-.3q-.5-.1-1 .1-.5.3-.6.8-.1.6.1 1 .3.5.8.6l2.5.7q1.5.4 2.3 1.7.8 1.4.4 2.9t-1.8 2.3q-1 .6-2 .6l-.9-.2-.3 1.3q-.3.9-1.2.9h-.4q-.5-.2-.7-.6-.3-.5-.2-1l.4-1.2-2.5-.7q-.5-.1-.8-.6-.2-.4-.1-1 .1-.4.6-.7.4-.2.9-.1l5 1.3q.5.1 1-.1.4-.3.5-.8.2-.5-.1-1-.2-.5-.8-.6l-2.4-.7q-1.6-.3-2.3-1.7-.8-1.4-.4-3 .4-1.4 1.7-2.2"/><path fill="#8BA46F" d="M-48.2-433.6q-1.8-.5-3.8-.5-5 0-9 3-3.8 3.1-5.1 7.9-1.6 5.8 1.5 11.1 3 5.2 8.9 6.8 1.7.5 3.7.5 5 0 8.9-3 4-3.1 5.3-7.9 1.5-5.8-1.5-11.1t-9-6.8m-16.6 10.7q1.4-5.3 6.2-8.1 4.8-2.8 10.1-1.4 5.4 1.5 8.2 6.2 2.8 4.8 1.3 10.2-1.4 5.3-6.2 8.1-4.8 2.8-10.1 1.4-5.4-1.4-8.2-6.2-2.7-4.8-1.3-10.2"/><path fill="#89A66F" d="M-65-422.9q-1.3 5.4 1.4 10.2 2.8 4.8 8.2 6.2 5.3 1.4 10.1-1.4t6.2-8.1q1.5-5.4-1.3-10.2-2.8-4.7-8.2-6.2-5.3-1.4-10.1 1.4t-6.2 8.1m2.4 9.6q-2.5-4.4-1.2-9.2 1-4 4.3-6.6 3.3-2.5 7.4-2.5 1.5 0 3.1.4 4.9 1.3 7.4 5.7 2.5 4.3 1.2 9.2-1 4-4.3 6.5t-7.4 2.5q-1.7 0-3.1-.4-4.8-1.2-7.4-5.6"/><path fill="#89A46E" d="M-50.7-423.1l-.3-.1 3.7 1q.5.2.9-.1.5-.2.6-.8.2-.5-.1-1-.3-.4-.8-.5l-2.5-.7-.3 1.3q-.2.9-1.2.9"/><path fill="#89A66F" d="M-53.7-421.6q-.2-.4-.1-1 .1-.5.6-.8.5-.2 1-.1l1 .3q-.4-.2-.6-.5-.2-.5-.1-1l.3-1.2q-1.4-.4-2.9.4-1.3.8-1.7 2.3-.4 1.5.4 2.9.7 1.4 2.3 1.7l2.4.7q.6.1.8.6.3.5.1 1-.1.5-.5.8-.5.2-1 .1l-1.3-.3q.5.1.8.6.2.4.1.9l-.3 1.2 1 .2q1 0 1.9-.6 1.4-.8 1.8-2.3.4-1.5-.4-2.9-.8-1.3-2.3-1.7l-2.5-.7q-.5-.1-.8-.6"/><path fill="#89A46E" d="M-57.6-416.6q-.5.3-.6.8-.1.5.1.9.3.5.8.6l2.5.7.3-1.2q.1-.5.6-.8.4-.2.9-.1l-3.7-1q-.5-.1-1 .1m8.5-8.7l.4-1.2q.1-.5-.1-1-.3-.4-.8-.5-.5-.2-1 0-.4.4-.5.9l-.4 1.2 2.4.6"/><path fill="#8EA36F" d="M-50.7-423.1q1 0 1.2-1l.3-1.2-2.4-.6-.3 1.2q-.1.5.1 1 .3.4.8.5h.3"/><path fill="#89A46E" d="M-54.8-413.6l-.4 1.2q-.1.5.2 1 .2.4.7.6h.4q.9 0 1.2-1l.3-1.2-2.4-.6m2.6-1.5q-.3-.5-.8-.6-.5-.1-1 .1-.4.3-.5.8l-.3 1.2 2.4.6.3-1.2q.1-.5-.1-1"/><path fill="#BEC175" d="M-163-161.7q-2.2-.7-4.8-.7-6.5 0-11.7 4-5.2 4-6.8 10.3-1 3.7-.5 7.4.5 3.8 2.4 7 4 6.9 11.7 9 2.4.6 4.9.6 6.5 0 11.6-4 5.2-4 6.9-10.2 2-7.7-2-14.5t-11.6-9m-1.2 4.4q5.9 1.6 8.9 6.8 3 5.3 1.5 11.1-1.2 4.8-5.2 7.9-4 3-9 3-2 0-3.7-.5-5.8-1.6-8.9-6.8-3-5.3-1.5-11.1 1.3-4.8 5.2-7.8 4-3.1 9-3.1 1.9 0 3.7.5"/><path fill="#89A56E" d="M-162.3-164.1q-2.7-.8-5.5-.8-7.4 0-13.2 4.5-5.8 4.5-7.7 11.6-1.1 4.2-.6 8.5.6 4.2 2.8 7.9t5.5 6.4q3.4 2.6 7.6 3.7 2.5.7 5.6.7 7.3 0 13.2-4.5 5.8-4.5 7.7-11.6 2.3-8.6-2.2-16.4-4.5-7.7-13.2-10m-25.2 15.6q2.1-8.1 9.4-12.4 7.3-4.2 15.5-2 8.1 2.1 12.4 9.4 4.3 7.3 2 15.5-2.1 8.1-9.4 12.4-7.3 4.2-15.5 2-8.1-2.1-12.4-9.4-4.2-7.3-2-15.5"/><path fill="#89A66F" d="M-187.5-148.5q-2.2 8.2 2 15.5 4.3 7.3 12.4 9.5 8.2 2.1 15.5-2.1 7.3-4.3 9.5-12.4 2.2-8.2-2.1-15.5-4.3-7.3-12.4-9.4-8.2-2.2-15.5 2-7.3 4.3-9.4 12.4m24.6-13.2q7.6 2 11.6 8.9 4 6.8 2 14.5-1.7 6.2-6.9 10.2-5.1 4-11.6 4-2.5 0-5-.6-7.6-2.1-11.6-9-1.9-3.2-2.4-7t.5-7.4q1.6-6.3 6.8-10.3 5.2-4 11.7-4 2.6 0 4.9.7"/><path fill="#BEC175" d="M-178.3-137.1q2.6 4.4 7.4 5.6 1.3.4 3 .4 4.2 0 7.5-2.5 3.2-2.5 4.3-6.5 1.3-4.9-1.3-9.2-2.5-4.4-7.3-5.7-1.6-.4-3.1-.4-4.1 0-7.4 2.5-3.3 2.6-4.4 6.6-1.2 4.8 1.3 9.2m8-12.2q1.4-.8 2.9-.4l.3-1.2q.1-.5.6-.8.4-.3.9-.1.5 0 .8.5.3.5.1 1l-.3 1.2 2.5.7q.5.1.8.6.2.4 0 .9-.1.6-.5.8-.5.3-1 .1l-3.6-1h-.1l-1.2-.3q-.5-.1-1 .1-.4.3-.6.8-.1.6.2 1 .3.5.8.6l2.4.7q1.5.4 2.3 1.7.8 1.4.4 2.9-.3 1.5-1.7 2.3-1 .6-2 .6l-1-.2-.3 1.3q-.2.9-1.2.9h-.3q-.5-.2-.8-.6-.2-.5-.1-1l.3-1.2-2.5-.7q-.5-.1-.7-.6-.3-.4-.1-1 0-.4.5-.7.5-.2 1-.1l4.9 1.3q.6.1 1-.1.5-.3.6-.8.1-.5-.1-1-.3-.5-.8-.6l-2.5-.7q-1.5-.3-2.3-1.7-.8-1.4-.4-3 .4-1.4 1.8-2.2"/><path fill="#8BA46F" d="M-164.1-157.4q-1.8-.5-3.7-.5-5 0-9 3-3.9 3.1-5.2 7.9-1.5 5.8 1.5 11.1 3 5.2 8.9 6.8 1.7.5 3.8.5 4.9 0 8.9-3 4-3.1 5.2-7.9 1.6-5.8-1.5-11.1t-8.9-6.8m-16.7 10.7q1.5-5.3 6.3-8.1 4.7-2.8 10-1.4 5.4 1.5 8.2 6.2 2.8 4.8 1.4 10.2-1.4 5.3-6.2 8.1-4.8 2.8-10.2 1.4-5.3-1.4-8.1-6.2-2.8-4.8-1.4-10.2"/><path fill="#89A66F" d="M-174.5-154.8q-4.8 2.8-6.3 8.1-1.4 5.4 1.4 10.2 2.8 4.8 8.1 6.2 5.4 1.4 10.2-1.4 4.8-2.8 6.2-8.1 1.4-5.4-1.4-10.2-2.8-4.7-8.1-6.2-5.4-1.4-10.1 1.4m-3.8 17.7q-2.5-4.4-1.3-9.2 1.1-4 4.4-6.6 3.3-2.5 7.4-2.5 1.5 0 3 .4 4.9 1.3 7.4 5.7 2.6 4.3 1.3 9.2-1.1 4-4.3 6.5-3.3 2.5-7.4 2.5-1.8 0-3.1-.4-4.8-1.2-7.4-5.6"/><path fill="#89A46E" d="M-165-149.1l-.3 1.3q-.3.9-1.2.9l-.3-.1 3.6 1q.5.2 1-.1.4-.2.6-.8.1-.5-.1-1-.3-.4-.8-.5l-2.5-.7"/><path fill="#89A66F" d="M-169.5-145.4q-.3-.4-.2-1 .2-.5.6-.8.5-.2 1-.1l1 .3-.5-.5q-.3-.5-.1-1l.3-1.2q-1.5-.4-3 .4-1.3.8-1.7 2.3-.4 1.5.4 2.9t2.3 1.7l2.5.7q.5.1.8.6.2.5 0 1 0 .5-.5.8-.4.2-1 .1l-1.2-.3q.5.1.7.6.3.4.2.9l-.4 1.2 1 .2q1 0 2-.6 1.4-.8 1.7-2.3.4-1.5-.4-2.9-.8-1.3-2.3-1.7l-2.4-.7q-.5-.1-.8-.6"/><path fill="#89A46E" d="M-174-139.6q-.2.5 0 .9.3.5.8.6l2.5.7.4-1.2q0-.5.5-.8.5-.2 1-.1l-3.7-1q-.5-.1-1 .1-.4.3-.5.8m9-9.5l.3-1.2q.2-.5-.1-1-.3-.4-.8-.5-.5-.2-1 0-.4.4-.5.9l-.3 1.2 2.4.6"/><path fill="#8EA36F" d="M-166.5-147q.9 0 1.2-.8l.3-1.3-2.4-.6-.3 1.2q-.2.5 0 1 .3.4.8.5h.4"/><path fill="#89A46E" d="M-170.7-137.4l-.3 1.2q-.1.5.1 1 .3.4.8.6h.3q1 0 1.2-1l.3-1.2-2.4-.6"/><path fill="#89A46E" d="M-168.1-139q-.2-.4-.7-.5-.5-.1-1 .1-.4.3-.5.8l-.4 1.2 2.4.6.4-1.2-.2-1"/><path fill="#A2C3C3" d="M60.9-62.4q-3-2.2-6.7-3.2-2.7-.7-5-.7-6.4 0-11.6 4-5.1 4-6.8 10.3-1 3.7-.5 7.4.5 3.8 2.5 7 1.9 3.4 4.9 5.7 3 2.3 6.7 3.3 2.6.6 4.9.6 6.5 0 11.7-4 5.1-4 6.8-10.2 1-3.7.5-7.5t-2.5-7q-1.9-3.3-4.9-5.7m-7.8 1.1q5.8 1.6 8.9 6.8 3 5.3 1.4 11.1-1.2 4.8-5.2 7.9t-8.9 3q-1.7 0-3.7-.5-5.9-1.5-9-6.8-3-5.2-1.4-11.1 1.3-4.8 5.2-7.8 3.9-3.1 8.9-3.1 1.7 0 3.8.5"/><path fill="#7EA9BC" d="M62.4-64.3Q59-67 54.9-68q-2.8-.8-5.6-.8-7.3 0-13.2 4.5-5.8 4.5-7.7 11.6-1.1 4.2-.5 8.5.5 4.2 2.7 7.9t5.6 6.4q3.4 2.6 7.6 3.7 2.7.7 5.5.7 7.4 0 13.2-4.5t7.7-11.6q1.1-4.2.6-8.4-.6-4.2-2.8-8-2.2-3.7-5.6-6.3m-7.9-2.5q8.2 2.1 12.4 9.4 4.3 7.3 2.1 15.5-2.1 8.2-9.4 12.4-7.4 4.3-15.5 2t-12.4-9.4q-4.2-7.3-2.1-15.5 2.2-8.1 9.5-12.4 7.3-4.2 15.4-2"/><path fill="#7EA9BC" d="M54.5-66.8q-8.1-2.2-15.4 2-7.3 4.3-9.5 12.4-2.1 8.2 2 15.5 4.3 7.3 12.5 9.5 8.1 2.2 15.5-2.1 7.3-4.2 9.4-12.4 2.2-8.2-2.1-15.5-4.2-7.3-12.4-9.4m6.4 4.4q3 2.4 4.9 5.7 2 3.3 2.5 7 .5 3.8-.5 7.5Q66-36 61-32 55.8-28 49.3-28q-2.3 0-4.9-.6-3.7-1-6.7-3.3t-5-5.6q-1.9-3.3-2.4-7.1-.5-3.7.5-7.4 1.7-6.3 6.8-10.3 5.2-4 11.7-4 2.2 0 4.9.7 3.7 1 6.7 3.2"/><path fill="#A9C6C2" d="M61-44q1.3-4.9-1.2-9.2-2.5-4.4-7.4-5.6-1.5-.5-3.1-.5-4.1 0-7.4 2.6-3.3 2.5-4.3 6.5-1.3 4.9 1.2 9.2 2.5 4.3 7.4 5.6 1.6.4 3.1.4 4.1 0 7.4-2.5Q60-40 61-44m-5.5-6.8q-.1.6-.6.8-.4.3-1 .1l-4.8-1.3q-.5-.1-1 .2-.5.2-.6.8-.2.5.1.9.3.5.8.6l2.5.7q1.6.5 2.3 1.8.8 1.3.4 2.8-.5 1.6-1.8 2.3-.9.6-2 .6l-.9-.2-.3 1.3q-.3.9-1.3.9H47q-.5-.2-.7-.6-.3-.5-.2-1l.4-1.2L44-42q-.5-.1-.8-.6-.2-.4-.1-1 .1-.4.6-.7.4-.2.9-.1l5 1.3q.5.2.9-.1.5-.3.6-.8.2-.5-.1-1-.3-.5-.8-.6l-2.4-.6q-1.6-.4-2.3-1.8-.8-1.4-.4-2.9t1.7-2.3q1.4-.8 2.9-.4l.4-1.2q0-.5.5-.8.5-.2 1-.1t.8.6q.2.4 0 .9l-.3 1.3 2.5.6q.5.1.8.6.2.4.1.9"/><path fill="#7EA9BC" d="M53-61.3q-2-.5-3.7-.5-5 0-9 3-3.8 3.1-5.1 7.9-1.6 5.9 1.5 11.1 3 5.3 8.9 6.8 2 .5 3.7.5 5 0 8.9-3t5.2-7.9Q65-49.2 62-54.5q-3.1-5.2-9-6.8m3 25.7q-4.8 2.8-10.1 1.4-5.4-1.4-8.2-6.2-2.7-4.8-1.3-10.2 1.4-5.3 6.2-8.1 4.8-2.8 10.1-1.4 5.4 1.5 8.2 6.3 2.8 4.7 1.3 10-1.4 5.4-6.2 8.2"/><path fill="#7EA9BC" d="M62.2-43.7q1.5-5.4-1.3-10.1-2.8-4.8-8.2-6.3-5.3-1.4-10.1 1.4t-6.2 8.1q-1.4 5.4 1.3 10.2 2.8 4.8 8.2 6.2 5.3 1.4 10.1-1.4t6.2-8.1M61-44q-1 4-4.3 6.5T49.3-35q-1.5 0-3.1-.4-4.9-1.3-7.4-5.6t-1.2-9.2q1-4 4.3-6.5 3.3-2.6 7.4-2.6 1.6 0 3.1.5 4.9 1.2 7.4 5.6Q62.3-49 61-44"/><path fill="#7EA9BC" d="M48-51q.6-.3 1-.2l1.2.4q-.5-.2-.7-.6-.2-.5-.1-1l.3-1.2q-1.5-.4-2.9.4-1.3.8-1.7 2.3-.4 1.5.4 2.9.7 1.4 2.3 1.8l2.4.6q.5 0 .8.6.3.5.1 1-.1.5-.6.8-.4.3-1 .1l-1.2-.3q.5.1.8.6.2.4.1.9l-.3 1.2 1 .2q1 0 1.9-.6 1.3-.7 1.8-2.3.4-1.5-.4-2.8-.7-1.3-2.3-1.8l-2.5-.7q-.5-.1-.8-.6-.3-.4-.1-1 .1-.5.6-.7"/><path fill="#7EA9BC" d="M43.2-42.6q.3.5.8.6l2.5.7.3-1.2q.1-.5.6-.8.4-.2.9-.1l-3.7-1q-.5-.1-1 .1-.4.3-.5.8-.1.5.1.9m12.3-8.2q.1-.5-.1-1-.3-.4-.8-.5l-2.5-.6-.3 1.2q-.2.9-1.2.9h-.3l3.7.9q.5.2.9-.1.5-.2.6-.8m-3.4-2.1l.4-1.3q.1-.5-.1-1-.3-.4-.8-.5-.5-.1-1 .1-.4.3-.5.8l-.4 1.2 2.4.7"/><path fill="#7EA9BC" d="M50.6-50.8q1 0 1.2-1l.3-1.1-2.4-.7-.3 1.2q-.1.5.1 1 .3.4.8.6h.3m-4.1 9.5l-.4 1.2q-.1.5.2 1 .2.4.7.6h.3q1 0 1.3-1l.3-1.2-2.4-.6m2.6-1.5q-.3-.5-.8-.6-.5-.1-1 .1-.4.3-.5.8l-.3 1.2 2.4.6.3-1.2q.1-.5-.1-1"/><path fill="#BEC175" d="M-191.1-393.4q-2.3-.6-5-.6-6.4 0-11.6 4-5.2 3.9-6.8 10.2-1 3.7-.5 7.5.5 3.7 2.4 7 4 6.8 11.7 8.9 2.4.6 4.9.6 6.5 0 11.6-4 5.2-4 6.9-10.2 2-7.6-2-14.5t-11.6-8.9m-1.2 4.4q5.9 1.5 8.9 6.8 3 5.2 1.5 11-1.2 4.9-5.2 7.9t-9 3q-2 0-3.7-.5-5.8-1.5-8.9-6.7-3-5.3-1.5-11.1 1.3-4.8 5.2-7.9 4-3 9-3 1.9 0 3.7.5"/><path fill="#89A56E" d="M-190.5-395.8q-2.7-.7-5.5-.7-7.4 0-13.2 4.5-5.8 4.5-7.7 11.6-1.1 4.2-.6 8.4.6 4.2 2.8 8t5.5 6.3q3.4 2.6 7.6 3.7 2.5.7 5.6.7 7.3 0 13.2-4.5 5.8-4.4 7.7-11.5 2.3-8.7-2.2-16.4-4.5-7.8-13.2-10.1m-25.2 15.7q2.1-8.2 9.4-12.4 7.3-4.2 15.5-2.1 8.1 2.2 12.4 9.5 4.3 7.3 2 15.4-2.1 8.2-9.4 12.4-7.3 4.3-15.5 2.1-8.1-2.2-12.4-9.4-4.2-7.4-2-15.5"/><path fill="#89A66F" d="M-215.7-380.1q-2.2 8.1 2 15.5 4.3 7.2 12.4 9.4 8.2 2.2 15.5-2.1 7.3-4.2 9.5-12.4 2.2-8.1-2.1-15.4-4.3-7.3-12.4-9.5-8.2-2.1-15.5 2-7.3 4.3-9.4 12.5m24.6-13.3q7.6 2 11.6 8.9t2 14.5q-1.7 6.3-6.9 10.3-5.1 3.9-11.6 3.9-2.5 0-5-.6-7.6-2.1-11.6-8.9-1.9-3.3-2.4-7t.5-7.5q1.6-6.3 6.8-10.2 5.2-4 11.7-4 2.6 0 4.9.6"/><path fill="#BEC175" d="M-206.5-368.8q2.6 4.4 7.4 5.6 1.3.4 3 .4 4.2 0 7.5-2.5 3.2-2.5 4.3-6.5 1.3-4.8-1.3-9.2-2.5-4.3-7.3-5.6-1.6-.4-3.1-.4-4.1 0-7.4 2.5-3.3 2.5-4.4 6.5-1.2 4.9 1.3 9.2m8-12.2q1.4-.8 2.9-.3l.3-1.3q.1-.5.6-.8.4-.2.9-.1t.8.6q.3.4.1.9l-.3 1.3 2.5.7q.5 0 .8.5.2.5 0 1-.1.5-.5.8-.5.2-1 0l-3.6-1h-.1l-1.2-.2q-.5-.2-1 0-.4.4-.6.9-.1.5.2 1 .3.4.8.6l2.4.6q1.5.4 2.3 1.8.8 1.4.4 2.9-.3 1.5-1.7 2.3-1 .5-2 .5l-1-.1-.3 1.2q-.2.9-1.2.9h-.3q-.5-.1-.8-.6-.2-.4-.1-1l.3-1.2-2.5-.6q-.5-.2-.7-.6-.3-.5-.1-1 0-.5.5-.7.5-.3 1-.2l4.9 1.4q.6 0 1-.2.5-.3.6-.8.1-.5-.1-1-.3-.4-.8-.6l-2.5-.6q-1.5-.4-2.3-1.8-.8-1.3-.4-2.9.4-1.5 1.8-2.3"/><path fill="#8BA46F" d="M-192.3-389q-1.8-.5-3.7-.5-5 0-9 3-3.9 3-5.2 7.9-1.5 5.8 1.5 11 3 5.3 8.9 6.8 1.7.5 3.8.5 4.9 0 8.9-3t5.2-7.8q1.6-5.9-1.5-11.1t-8.9-6.8m-16.7 10.7q1.5-5.4 6.3-8.2 4.7-2.7 10-1.3 5.4 1.4 8.2 6.2 2.8 4.8 1.4 10.1-1.4 5.4-6.2 8.2-4.8 2.8-10.2 1.3-5.3-1.4-8.1-6.2-2.8-4.8-1.4-10.1"/><path fill="#89A66F" d="M-202.7-386.5q-4.8 2.8-6.3 8.2-1.4 5.3 1.4 10.1t8.1 6.2q5.4 1.5 10.2-1.3 4.8-2.8 6.2-8.2 1.4-5.3-1.4-10.1t-8.1-6.2q-5.4-1.4-10.1 1.3m-3.8 17.7q-2.5-4.3-1.3-9.2 1.1-4 4.4-6.5 3.3-2.5 7.4-2.5 1.5 0 3 .4 4.9 1.3 7.4 5.6 2.6 4.4 1.3 9.2-1.1 4-4.3 6.5-3.3 2.5-7.4 2.5-1.8 0-3.1-.4-4.8-1.2-7.4-5.6"/><path fill="#89A46E" d="M-193.5-379.5q-.3.9-1.2.9h-.3l3.6 1q.5.1 1-.1.4-.3.6-.8.1-.5-.1-1-.3-.4-.8-.5l-2.5-.7-.3 1.2"/><path fill="#89A66F" d="M-197.7-377q-.3-.5-.2-1 .2-.5.6-.8.5-.3 1-.1l1 .2q-.3-.1-.5-.5-.3-.4-.1-1l.3-1.1q-1.5-.5-3 .3-1.3.8-1.7 2.3-.4 1.6.4 2.9.8 1.4 2.3 1.8l2.5.6q.5.2.8.6.2.5 0 1 0 .5-.5.8-.4.3-1 .2l-1.2-.4q.5.2.7.6.3.5.2 1l-.4 1.2 1 .1q1 0 2-.5 1.4-.8 1.7-2.3.4-1.5-.4-3-.8-1.3-2.3-1.7l-2.4-.6q-.5-.2-.8-.6"/><path fill="#89A46E" d="M-202.1-370.3q.2.4.7.6l2.5.6.4-1.2q0-.5.5-.7.5-.3 1-.2l-3.7-1q-.5-.1-1 .2-.4.2-.5.7-.2.5 0 1m9-10.4l.3-1.3q.2-.5-.1-1-.3-.4-.8-.5-.5-.1-1 .1-.4.3-.5.8l-.3 1.3 2.4.6"/><path fill="#8EA36F" d="M-194.7-378.6q.9 0 1.2-.9l.3-1.2-2.4-.6-.3 1.2q-.2.5 0 .9.3.5.8.6h.4"/><path fill="#89A46E" d="M-198.9-369.1l-.3 1.3q-.1.5.1.9.3.5.8.6h.3q1 0 1.2-.9l.3-1.2-2.4-.7m2.6-1.5q-.2-.4-.7-.6-.5-.1-1 .2-.4.2-.5.7l-.4 1.2 2.4.7.4-1.2-.2-1"/><path fill="#F0B971" stroke="#1A344F" stroke-width="2.5" stroke-linecap="round" stroke-linejoin="round" d="M212.8-381q-8.2-2.2-15.5 2-7.3 4.3-9.4 12.5-2.2 8.1 2 15.4 4.3 7.3 12.4 9.5 8.2 2.2 15.5-2.1 7.3-4.2 9.5-12.4 2.1-8.2-2.1-15.5-4.3-7.3-12.4-9.4"/><path fill="#ECB069" stroke="#1A344F" stroke-width="2.5" stroke-linecap="round" stroke-linejoin="round" d="M219.1-368q-2.8-4.8-8.1-6.3-5.4-1.4-10.2 1.4-4.7 2.8-6.2 8.1-1.4 5.4 1.4 10.2 2.8 4.8 8.1 6.2 5.4 1.4 10.2-1.4 4.8-2.7 6.2-8.1 1.4-5.3-1.4-10.1"/><path fill="none" stroke="#1A344F" stroke-width="2.5" stroke-linecap="round" stroke-linejoin="round" d="M205.7-366.3q-1 .5-1.2 1.5t.3 2q.5.9 1.5 1.1l2.5.7q1 .3 1.6 1.2.5.9.2 1.9-.3 1-1.2 1.6-1 .5-2 .2l-4.8-1.3m3.1-9q.9-.4 1.9-.2l5 1.3m-3.7-1l.6-2.4m-3.2 12.3l-.7 2.5"/><path fill="#F0B971" stroke="#1A344F" stroke-width="2.5" stroke-linecap="round" stroke-linejoin="round" d="M321.5-419.7q-8.2-2.2-15.5 2-7.3 4.3-9.5 12.5-2.1 8.1 2.1 15.4 4.3 7.3 12.4 9.5 8.2 2.1 15.5-2.1 7.2-4.2 9.4-12.4 2.2-8.1-2-15.4-4.3-7.3-12.4-9.5"/><path fill="#ECB069" stroke="#1A344F" stroke-width="2.5" stroke-linecap="round" stroke-linejoin="round" d="M329.2-396.6q1.4-5.3-1.4-10.1t-8.1-6.2q-5.4-1.4-10.2 1.3-4.8 2.8-6.2 8.2-1.4 5.3 1.4 10.1t8.1 6.2q5.4 1.5 10.2-1.3 4.8-2.8 6.2-8.2"/><path fill="none" stroke="#1A344F" stroke-width="2.5" stroke-linecap="round" stroke-linejoin="round" d="M313.2-403.5q-.3 1 .2 2 .6.9 1.6 1.2l2.5.6q1 .3 1.5 1.2.5.9.3 1.9-.3 1-1.2 1.6-1 .5-2 .2l-4.9-1.3m2-7.4q.2-1 1.2-1.5.9-.5 1.9-.3l4.9 1.3m-3.7-1l.7-2.4m-3.3 12.3l-.6 2.5"/><path fill="#F0B971" stroke="#1A344F" stroke-width="2.5" stroke-linecap="round" stroke-linejoin="round" d="M129-105.1q2.2-8.1-2-15.4-4.3-7.3-12.4-9.5-8.2-2.1-15.5 2-7.3 4.3-9.5 12.5-2.1 8.1 2.1 15.5 4.2 7.3 12.4 9.4 8.2 2.2 15.5-2.1 7.3-4.2 9.4-12.4"/><path fill="#ECB069" stroke="#1A344F" stroke-width="2.5" stroke-linecap="round" stroke-linejoin="round" d="M122.3-106.9q1.4-5.3-1.4-10.1t-8.1-6.2q-5.4-1.4-10.2 1.3-4.8 2.8-6.2 8.2-1.4 5.3 1.4 10.1 2.7 4.8 8 6.2 5.4 1.5 10.2-1.3 4.9-2.8 6.3-8.2"/><path fill="none" stroke="#1A344F" stroke-width="2.5" stroke-linecap="round" stroke-linejoin="round" d="M106.5-111.8q.6.9 1.6 1.2l2.5.6q1 .3 1.5 1.2.5.9.3 1.9-.3 1-1.2 1.6-1 .5-2 .3l-4.9-1.3m2.2-5.5q-.5-1-.2-2t1.2-1.5q.9-.5 1.9-.2l4.9 1.3m-3.7-1l.7-2.5m-3.3 12.3l-.6 2.5"/><path fill="#F0B971" stroke="#1A344F" stroke-width="2.5" stroke-linecap="round" stroke-linejoin="round" d="M334.8-69.8q-8.2-2.2-15.4 2-7.3 4.3-9.5 12.4-2.1 8.2 2 15.5 4.3 7.3 12.5 9.5 8.2 2.1 15.5-2.1 7.3-4.3 9.4-12.4 2.2-8.2-2.1-15.5-4.2-7.3-12.4-9.4"/><path fill="#ECB069" stroke="#1A344F" stroke-width="2.5" stroke-linecap="round" stroke-linejoin="round" d="M342.5-46.7q1.5-5.4-1.3-10.2-2.8-4.7-8.2-6.2-5.3-1.4-10.1 1.4t-6.2 8.1q-1.4 5.4 1.3 10.2 2.8 4.8 8.2 6.2 5.3 1.4 10.1-1.4t6.2-8.1"/><path fill="none" stroke="#1A344F" stroke-width="2.5" stroke-linecap="round" stroke-linejoin="round" d="M329.7-55.4q-1-.3-2 .3-.9.5-1.1 1.5-.3 1 .2 2 .6.9 1.6 1.1l2.4.7q1 .2 1.6 1.2.5.9.2 1.9-.2 1-1.1 1.6-1 .5-2 .2l-4.9-1.3m5-9.2l5 1.3m-3.7-1l.7-2.4m-3.3 12.3l-.7 2.4"/><path fill="#F0B971" stroke="#1A344F" stroke-width="2.5" stroke-linecap="round" stroke-linejoin="round" d="M-247.3-364.6q2.2-8.1-2.1-15.4-4.2-7.3-12.4-9.5-8.1-2.1-15.4 2-7.3 4.3-9.5 12.5t2 15.5q4.3 7.3 12.5 9.4 8.1 2.2 15.4-2 7.3-4.3 9.5-12.5"/><path fill="#ECB069" stroke="#1A344F" stroke-width="2.5" stroke-linecap="round" stroke-linejoin="round" d="M-254.1-366.4q1.5-5.3-1.3-10.1t-8.2-6.2q-5.3-1.4-10.1 1.4-4.8 2.7-6.2 8-1.4 5.4 1.3 10.2 2.8 4.9 8.2 6.3 5.3 1.4 10.1-1.4t6.2-8.2"/><path fill="none" stroke="#1A344F" stroke-width="2.5" stroke-linecap="round" stroke-linejoin="round" d="M-264.2-368.3q.5 1 .2 2t-1.1 1.5q-1 .5-2 .3l-5-1.3m7.9-2.5q-.6-.9-1.6-1.2l-2.4-.6q-1-.3-1.6-1.2-.5-1-.2-2 .2-1 1.2-1.5.9-.5 1.9-.2l4.9 1.3m-3.7-1l.7-2.5m-3.3 12.3l-.7 2.5"/><path fill="#F0B971" stroke="#1A344F" stroke-width="2.5" stroke-linecap="round" stroke-linejoin="round" d="M-49.5-327.1q2.2-8.2-2.1-15.4-4.2-7.3-12.4-9.5t-15.4 2q-7.4 4.3-9.5 12.5-2.2 8.2 2 15.5 4.3 7.3 12.5 9.4 8.2 2.2 15.4-2.1 7.3-4.2 9.5-12.4"/><path fill="#ECB069" stroke="#1A344F" stroke-width="2.5" stroke-linecap="round" stroke-linejoin="round" d="M-56.3-328.9q1.5-5.3-1.3-10.1t-8.2-6.2q-5.3-1.4-10.1 1.3-4.8 2.8-6.2 8.2-1.4 5.3 1.3 10.1 2.8 4.8 8.2 6.2 5.3 1.5 10.1-1.3t6.2-8.2"/><path fill="none" stroke="#1A344F" stroke-width="2.5" stroke-linecap="round" stroke-linejoin="round" d="M-67.3-327.3q-1 .5-2 .3l-5-1.4m7 1.1q.9-.5 1.1-1.6.3-1-.2-1.9-.6-1-1.6-1.2l-2.4-.6q-1-.3-1.6-1.2-.5-1-.2-2 .2-1 1.2-1.5.9-.5 1.9-.3l4.9 1.4m-3.7-1l.7-2.5m-3.3 12.3l-.7 2.5"/><path fill="#F0B971" stroke="#1A344F" stroke-width="2.5" stroke-linecap="round" stroke-linejoin="round" d="M-266.8-175.5q-8.1-2.2-15.4 2-7.3 4.3-9.5 12.5-2.2 8.1 2 15.4 4.3 7.3 12.5 9.5 8.1 2.1 15.4-2.1 7.3-4.2 9.5-12.4t-2.1-15.4q-4.2-7.3-12.4-9.5"/><path fill="#ECB069" stroke="#1A344F" stroke-width="2.5" stroke-linecap="round" stroke-linejoin="round" d="M-268.6-168.7q-5.3-1.4-10.1 1.3-4.8 2.8-6.2 8.2-1.4 5.3 1.3 10.1 2.8 4.8 8.2 6.2 5.3 1.4 10.1-1.3 4.8-2.8 6.2-8.2 1.5-5.3-1.3-10.1t-8.2-6.2"/><path fill="none" stroke="#1A344F" stroke-width="2.5" stroke-linecap="round" stroke-linejoin="round" d="M-270.8-155.5q1 .3 1.6 1.2.5.9.2 1.9-.2 1-1.1 1.6-1 .5-2 .2l-5-1.3m6.3-3.6l-2.4-.6q-1-.3-1.6-1.2-.5-1-.2-2 .2-1 1.2-1.5.9-.5 1.9-.3l4.9 1.3m-3.7-1l.7-2.4m-3.3 12.3l-.7 2.5"/><path fill="#F0B971" stroke="#1A344F" stroke-width="2.5" stroke-linecap="round" stroke-linejoin="round" d="M-24.2-40q2.1-8.2-2.1-15.5-4.2-7.2-12.4-9.4-8.1-2.2-15.4 2-7.3 4.3-9.5 12.5-2.2 8.1 2 15.4 4.3 7.3 12.5 9.5 8.1 2.2 15.4-2.1 7.3-4.3 9.5-12.4"/><path fill="#ECB069" stroke="#1A344F" stroke-width="2.5" stroke-linecap="round" stroke-linejoin="round" d="M-31-41.8q1.5-5.3-1.3-10.1t-8.2-6.3q-5.3-1.4-10.1 1.4t-6.2 8.1q-1.4 5.4 1.3 10.2 2.8 4.8 8.2 6.2 5.3 1.4 10.1-1.4t6.2-8.1"/><path fill="none" stroke="#1A344F" stroke-width="2.5" stroke-linecap="round" stroke-linejoin="round" d="M-41.1-43.7q.5.9.2 1.9-.2 1-1.1 1.6-1 .5-2 .2l-5-1.3m7.9-2.4q-.6-1-1.6-1.2l-2.4-.6q-1.1-.3-1.6-1.2-.5-1-.3-2 .3-1 1.2-1.5 1-.5 2-.3l4.9 1.3m-3.7-1l.6-2.4m-3.2 12.3l-.7 2.5"/><path fill="#F0B971" stroke="#1A344F" stroke-width="2.5" stroke-linecap="round" stroke-linejoin="round" d="M-188-24.5q2.2-8.2-2.1-15.5-4.2-7.3-12.4-9.5-8.1-2.1-15.4 2.1-7.3 4.3-9.5 12.4-2.1 8.2 2 15.5 4.3 7.3 12.5 9.4 8.1 2.2 15.5-2 7.2-4.3 9.4-12.4"/><path fill="#ECB069" stroke="#1A344F" stroke-width="2.5" stroke-linecap="round" stroke-linejoin="round" d="M-194.8-26.3q1.5-5.4-1.3-10.2-2.8-4.7-8.2-6.2-5.3-1.4-10.1 1.4t-6.2 8.1q-1.4 5.4 1.3 10.2 2.8 4.8 8.2 6.2 5.3 1.4 10.1-1.4t6.2-8.1"/><path fill="none" stroke="#1A344F" stroke-width="2.5" stroke-linecap="round" stroke-linejoin="round" d="M-209-30.1l2.5.7q1 .2 1.6 1.2.5.9.3 1.9-.3 1-1.2 1.5-1 .6-2 .3l-4.9-1.3m3.8-4.3q-1-.2-1.6-1.2-.5-.9-.2-2 .2-1 1.2-1.5.9-.5 1.9-.2l4.9 1.3m-3.7-1l.7-2.4m-3.3 12.3l-.6 2.4"/><path fill="#ECB069" stroke="#1A344F" stroke-width="2.5" stroke-linecap="round" stroke-linejoin="round" d="M-31-41.8q1.5-5.3-1.3-10.1t-8.2-6.3q-5.3-1.4-10.1 1.4t-6.2 8.1q-1.4 5.4 1.3 10.2 2.8 4.8 8.2 6.2 5.3 1.4 10.1-1.4t6.2-8.1"/><path fill="none" stroke="#1A344F" stroke-width="2.5" stroke-linecap="round" stroke-linejoin="round" d="M-40.9-41.8q-.2 1-1.1 1.6-1 .5-2 .2l-5-1.3m8.1-.5q.3-1-.2-1.9-.6-1-1.6-1.2l-2.4-.6q-1.1-.3-1.6-1.2-.5-1-.3-2 .3-1 1.2-1.5 1-.5 2-.3l4.9 1.3m-3.7-1l.6-2.4m-3.2 12.3l-.7 2.5"/><path fill="#F0B971" stroke="#1A344F" stroke-width="2.5" stroke-linecap="round" stroke-linejoin="round" d="M-61.1-158.5q2.2-8.2-2.1-15.4-4.2-7.4-12.4-9.5-8.1-2.2-15.4 2-7.3 4.3-9.5 12.5-2.1 8.1 2 15.4 4.3 7.3 12.5 9.5 8.1 2.1 15.5-2.1 7.2-4.2 9.4-12.4"/><path fill="#ECB069" stroke="#1A344F" stroke-width="2.5" stroke-linecap="round" stroke-linejoin="round" d="M-67.9-160.3q1.5-5.3-1.3-10.1t-8.2-6.2q-5.3-1.4-10.1 1.3-4.8 2.8-6.2 8.2-1.4 5.3 1.3 10.1 2.8 4.8 8.2 6.2 5.3 1.5 10.1-1.3t6.2-8.2"/><path fill="none" stroke="#1A344F" stroke-width="2.5" stroke-linecap="round" stroke-linejoin="round" d="M-82-164l2.4.6q1 .3 1.6 1.2.5.9.3 1.9-.3 1-1.2 1.6-1 .5-2 .2l-4.9-1.3m3.8-4.2q-1-.3-1.6-1.2-.5-1-.2-2 .2-1 1.2-1.5.9-.5 1.9-.3l4.9 1.3m-3.7-1l.7-2.4m-3.3 12.3l-.6 2.5"/><path fill="#F0B971" stroke="#1A344F" stroke-width="2.5" stroke-linecap="round" stroke-linejoin="round" d="M191.4-229.6q2.2-8.1-2-15.4-4.3-7.3-12.4-9.5-8.2-2.1-15.5 2-7.3 4.3-9.5 12.5-2.1 8.1 2.1 15.5 4.2 7.3 12.4 9.4 8.2 2.2 15.5-2.1 7.3-4.2 9.4-12.4"/><path fill="#ECB069" stroke="#1A344F" stroke-width="2.5" stroke-linecap="round" stroke-linejoin="round" d="M184.7-231.4q1.4-5.3-1.4-10.1t-8.1-6.2q-5.4-1.4-10.2 1.3-4.8 2.8-6.2 8.2-1.4 5.3 1.4 10.1 2.7 4.8 8 6.2 5.4 1.5 10.2-1.3 4.9-2.8 6.3-8.2"/><path fill="none" stroke="#1A344F" stroke-width="2.5" stroke-linecap="round" stroke-linejoin="round" d="M168.9-236.3q.6.9 1.6 1.2l2.5.6q1 .3 1.5 1.2.5.9.3 1.9-.3 1-1.2 1.6-1 .5-2 .3l-4.9-1.3m2.2-5.5q-.5-1-.2-2t1.2-1.5q.9-.5 1.9-.2l4.9 1.3m-3.7-1l.7-2.5m-3.3 12.3l-.6 2.5"/><path fill="#F0B971" stroke="#1A344F" stroke-width="2.5" stroke-linecap="round" stroke-linejoin="round" d="M-131.6-259.2q2.2-8.2-2.1-15.4-4.2-7.4-12.4-9.5-8.1-2.2-15.4 2-7.3 4.3-9.5 12.5-2.1 8.1 2 15.4 4.3 7.3 12.5 9.5 8.1 2.1 15.5-2.1 7.2-4.2 9.4-12.4"/><path fill="#ECB069" stroke="#1A344F" stroke-width="2.5" stroke-linecap="round" stroke-linejoin="round" d="M-138.4-261q1.5-5.3-1.3-10.1t-8.2-6.2q-5.3-1.4-10.1 1.3-4.8 2.8-6.2 8.2-1.4 5.3 1.3 10.1 2.8 4.8 8.2 6.2 5.3 1.5 10.1-1.3t6.2-8.2"/><path fill="none" stroke="#1A344F" stroke-width="2.5" stroke-linecap="round" stroke-linejoin="round" d="M-152.5-264.7l2.4.6q1 .3 1.6 1.2.5.9.3 1.9-.3 1-1.2 1.6-1 .5-2 .2l-4.9-1.3m3.8-4.2q-1-.3-1.6-1.2-.5-1-.2-2 .2-1 1.2-1.5.9-.5 1.9-.3l4.9 1.3m-3.7-1l.7-2.4m-3.3 12.3l-.6 2.5"/><path fill="#F0B971" stroke="#1A344F" stroke-width="2.5" stroke-linecap="round" stroke-linejoin="round" d="M232.1-116.1q-8.2-2.2-15.4 2-7.3 4.3-9.5 12.4-2.1 8.2 2 15.5 4.3 7.3 12.5 9.5 8.2 2.1 15.5-2.1 7.3-4.3 9.4-12.4 2.2-8.2-2.1-15.5-4.2-7.3-12.4-9.4"/><path fill="#ECB069" stroke="#1A344F" stroke-width="2.5" stroke-linecap="round" stroke-linejoin="round" d="M239.8-93q1.5-5.4-1.3-10.2-2.8-4.7-8.2-6.2-5.3-1.4-10.1 1.4T214-100q-1.4 5.4 1.3 10.2 2.8 4.8 8.2 6.2 5.3 1.4 10.1-1.4t6.2-8.1"/><path fill="none" stroke="#1A344F" stroke-width="2.5" stroke-linecap="round" stroke-linejoin="round" d="M227-101.7q-1-.3-2 .3-.9.5-1.1 1.5-.3 1 .2 2 .6.9 1.6 1.1l2.4.7q1 .2 1.6 1.2.5.9.2 1.9-.2 1-1.1 1.6-1 .5-2 .2l-4.9-1.3m5-9.2l5 1.3m-3.7-1l.7-2.4m-3.3 12.3l-.7 2.4"/></symbol></defs><g overflow="visible"><path fill="#A5CD7B" d="M348 445.5V-2H-2v447.4h350"/><path fill="#81D2F6" d="M697.9 445.5V-2H348v447.4h349.9"/><path fill="none" stroke="#19344F" stroke-width="3" stroke-linecap="round" stroke-linejoin="round" d="M348-2v447.5"/><use xlink:href="#a" transform="translate(347.9 445.4)"><animateTransform attributeName="transform" additive="replace" type="translate" dur="3.917s" keyTimes="0;1" values="0,0;0,0" fill="freeze"/><animateTransform attributeName="transform" additive="sum" type="translate" repeatCount="indefinite" dur="3.917s" keyTimes="0;0.011;0.021;0.032;0.043;0.053;0.064;0.074;0.085;0.096;0.106;0.117;0.128;0.138;0.149;0.16;0.17;0.181;0.191;0.202;0.213;0.223;0.234;0.245;0.255;0.266;0.277;0.287;0.298;0.307;0.308;1" values="347.9,445.4;347.9,450.15;347.9,454.9;347.9,459.7;347.9,464.45;347.9,469.2;347.9,473.95;347.9,478.7;347.9,483.5;347.9,488.25;347.9,493;347.9,497.75;347.9,502.5;347.9,507.25;347.9,512.05;347.9,516.8;347.9,521.55;347.9,526.3;347.9,531.05;347.9,535.85;347.9,540.6;347.9,545.35;347.9,550.1;347.9,554.85;347.9,559.65;347.9,564.4;347.9,569.15;347.9,573.9;347.9,578.65;347.9,583.45;0;0" calcMode="discrete"/><animateTransform attributeName="transform" additive="sum" type="translate" repeatCount="indefinite" dur="3.917s" keyTimes="0;0.308;0.319;0.33;0.34;0.351;0.362;0.372;0.383;0.394;0.404;0.415;0.425;0.436;0.447;0.457;0.468;0.479;0.489;0.5;0.511;0.521;0.532;0.543;0.553;0.564;0.574;0.585;0.596;0.605;0.606;1" values="0;347.9,583.45;347.9,588.2;347.9,592.95;347.9,597.7;347.9,602.45;347.9,607.25;347.9,612;347.9,616.75;347.9,621.5;347.9,626.25;347.9,631;347.9,635.8;347.9,640.55;347.9,645.3;347.9,650.05;347.9,654.8;347.9,659.6;347.9,664.35;347.9,669.1;347.9,673.85;347.9,678.6;347.9,683.4;347.9,688.15;347.9,692.9;347.9,697.65;347.9,702.4;347.9,707.2;347.9,711.95;347.9,716.7;0;0" calcMode="discrete"/><animateTransform attributeName="transform" additive="sum" type="translate" repeatCount="indefinite" dur="3.917s" keyTimes="0;0.606;0.617;0.628;0.638;0.649;0.66;0.67;0.681;0.691;0.702;0.713;0.723;0.734;0.745;0.755;0.766;0.777;0.787;0.798;0.808;0.819;0.83;0.84;0.851;0.862;0.872;0.883;0.894;0.903;0.904;1" values="0;347.9,716.7;347.9,721.45;347.9,726.2;347.9,730.95;347.9,735.75;347.9,740.5;347.9,745.25;347.9,750;347.9,754.75;347.9,759.55;347.9,764.3;347.9,769.05;347.9,773.8;347.9,778.55;347.9,783.35;347.9,788.1;347.9,792.85;347.9,797.6;347.9,802.35;347.9,807.15;347.9,811.9;347.9,816.65;347.9,821.4;347.9,826.15;347.9,830.95;347.9,835.7;347.9,840.45;347.9,845.2;347.9,849.95;0;0" calcMode="discrete"/><animateTransform attributeName="transform" additive="sum" type="translate" repeatCount="indefinite" dur="3.917s" keyTimes="0;0.904;0.915;0.925;0.936;0.947;0.957;0.968;0.979;0.989;0.999;1" values="0;347.9,849.95;347.9,854.7;347.9,859.5;347.9,864.25;347.9,869;347.9,873.75;347.9,878.5;347.9,883.3;347.9,888.05;347.9,892.8;347.9,892.8" calcMode="discrete"/></use><use xlink:href="#a" transform="translate(347.9 -2)"><animateTransform attributeName="transform" additive="replace" type="translate" dur="3.917s" keyTimes="0;1" values="0,0;0,0" fill="freeze"/><animateTransform attributeName="transform" additive="sum" type="translate" repeatCount="indefinite" dur="3.917s" keyTimes="0;0.011;0.021;0.032;0.043;0.053;0.064;0.074;0.085;0.096;0.106;0.117;0.128;0.138;0.149;0.16;0.17;0.181;0.191;0.202;0.213;0.223;0.234;0.245;0.255;0.266;0.277;0.287;0.298;0.307;0.308;1" values="347.9,-1.999;347.9,2.75;347.9,7.5;347.9,12.3;347.9,17.05;347.9,21.8;347.9,26.55;347.9,31.3;347.9,36.1;347.9,40.85;347.9,45.6;347.9,50.35;347.9,55.1;347.9,59.85;347.9,64.65;347.9,69.4;347.9,74.15;347.9,78.9;347.9,83.65;347.9,88.45;347.9,93.2;347.9,97.95;347.9,102.7;347.9,107.45;347.9,112.25;347.9,117;347.9,121.75;347.9,126.5;347.9,131.25;347.9,136.05;0;0" calcMode="discrete"/><animateTransform attributeName="transform" additive="sum" type="translate" repeatCount="indefinite" dur="3.917s" keyTimes="0;0.308;0.319;0.33;0.34;0.351;0.362;0.372;0.383;0.394;0.404;0.415;0.425;0.436;0.447;0.457;0.468;0.479;0.489;0.5;0.511;0.521;0.532;0.543;0.553;0.564;0.574;0.585;0.596;0.605;0.606;1" values="0;347.9,136.05;347.9,140.8;347.9,145.55;347.9,150.3;347.9,155.05;347.9,159.85;347.9,164.6;347.9,169.35;347.9,174.1;347.9,178.85;347.9,183.6;347.9,188.4;347.9,193.15;347.9,197.9;347.9,202.65;347.9,207.4;347.9,212.2;347.9,216.95;347.9,221.7;347.9,226.45;347.9,231.2;347.9,236;347.9,240.75;347.9,245.5;347.9,250.25;347.9,255;347.9,259.8;347.9,264.55;347.9,269.3;0;0" calcMode="discrete"/><animateTransform attributeName="transform" additive="sum" type="translate" repeatCount="indefinite" dur="3.917s" keyTimes="0;0.606;0.617;0.628;0.638;0.649;0.66;0.67;0.681;0.691;0.702;0.713;0.723;0.734;0.745;0.755;0.766;0.777;0.787;0.798;0.808;0.819;0.83;0.84;0.851;0.862;0.872;0.883;0.894;0.903;0.904;1" values="0;347.9,269.3;347.9,274.05;347.9,278.8;347.9,283.55;347.9,288.35;347.9,293.1;347.9,297.85;347.9,302.6;347.9,307.35;347.9,312.15;347.9,316.9;347.9,321.65;347.9,326.4;347.9,331.15;347.9,335.95;347.9,340.7;347.9,345.45;347.9,350.2;347.9,354.95;347.9,359.75;347.9,364.5;347.9,369.25;347.9,374;347.9,378.75;347.9,383.55;347.9,388.3;347.9,393.05;347.9,397.8;347.9,402.55;0;0" calcMode="discrete"/><animateTransform attributeName="transform" additive="sum" type="translate" repeatCount="indefinite" dur="3.917s" keyTimes="0;0.904;0.915;0.925;0.936;0.947;0.957;0.968;0.979;0.989;0.999;1" values="0;347.9,402.55;347.9,407.3;347.9,412.1;347.9,416.85;347.9,421.6;347.9,426.35;347.9,431.1;347.9,435.9;347.9,440.65;347.9,445.4;347.9,445.4" calcMode="discrete"/></use><use xlink:href="#b" transform="rotate(-5.5 -405.2 -756.5)"><animateTransform attributeName="transform" additive="replace" type="translate" dur="3.917s" keyTimes="0;1" values="0,0;0,0" fill="freeze"/><animateTransform attributeName="transform" additive="sum" type="translate" repeatCount="indefinite" dur="3.917s" keyTimes="0;0.011;0.021;0.032;0.043;0.053;0.064;0.074;0.085;0.096;0.106;0.117;0.128;0.138;0.149;0.16;0.17;0.181;0.191;0.202;0.213;0.223;0.234;0.245;0.255;0.266;0.277;0.287;0.298;0.307;0.308;1" values="70.75,-42.399;70.75,-31.899;70.75,-21.399;70.75,-10.899;70.7,-0.399;70.75,10.05;70.7,20.65;70.75,31.2;70.7,41.65;70.75,52.15;70.75,62.6;70.75,73.1;70.7,83.65;70.7,94.15;70.75,104.65;70.7,115.15;70.75,125.65;70.75,136.15;70.7,146.7;70.75,157.25;70.75,167.7;70.75,178.2;70.75,188.7;70.7,199.55;70.7,210.55;70.7,221.4;70.7,232.3;70.7,243.2;70.65,254.1;70.65,264.95;0;0" calcMode="discrete"/><animateTransform attributeName="transform" additive="sum" type="translate" repeatCount="indefinite" dur="3.917s" keyTimes="0;0.308;0.319;0.33;0.34;0.351;0.362;0.372;0.383;0.394;0.404;0.415;0.425;0.436;0.447;0.457;0.468;0.479;0.489;0.5;0.511;0.521;1" values="0;70.65,264.95;70.7,275.95;70.7,286.8;70.7,297.75;70.7,308.65;70.7,319.55;70.75,330.45;70.65,341.35;70.7,352.15;70.7,363.1;70.65,374;70.7,384.9;70.65,395.8;70.75,406.75;70.7,417.6;70.7,428.5;70.7,439.4;70.7,450.35;70.75,461.2;70.7,472.1;70.75,482.95;70.75,482.95" calcMode="discrete"/><animateTransform attributeName="transform" additive="sum" type="rotate" repeatCount="indefinite" dur="3.917s" keyTimes="0;0.011;0.021;0.032;0.043;0.053;0.064;0.074;0.085;0.096;0.106;0.117;0.128;0.138;0.149;0.16;0.17;0.181;0.191;0.202;0.213;0.223;0.234;0.245;0.255;0.266;0.277;0.287;0.298;0.307;0.308;1" values="-5.492,0,0;-2.811,0,0;-0.31,0,0;2,0,0;4.501,0,0;7.003,0,0;9.316,0,0;11.819,0,0;14.322,0,0;16.826,0,0;19.33,0,0;21.835,0,0;24.34,0,0;26.846,0,0;29.354,0,0;31.861,0,0;34.368,0,0;36.873,0,0;39.382,0,0;41.89,0,0;44.398,0,0;46.906,0,0;49.471,0,0;47.358,0,0;45.116,0,0;42.873,0,0;40.63,0,0;38.575,0,0;36.332,0,0;34.091,0,0;0;0" calcMode="discrete"/><animateTransform attributeName="transform" additive="sum" type="rotate" repeatCount="indefinite" dur="3.917s" keyTimes="0;0.308;0.319;0.33;0.34;0.351;0.362;0.372;0.383;0.394;0.404;0.415;0.425;0.436;0.447;0.457;0.468;0.479;0.489;0.5;0.511;0.521;1" values="0;34.091,0,0;31.848,0,0;29.607,0,0;27.552,0,0;25.311,0,0;23.071,0,0;20.83,0,0;18.778,0,0;16.539,0,0;14.298,0,0;12.06,0,0;10.009,0,0;7.772,0,0;5.534,0,0;3.298,0,0;1.062,0,0;-0.797,0,0;-3.034,0,0;-5.27,0,0;-7.506,0,0;-9.71,0,0;-9.71,0,0" calcMode="discrete"/><animateTransform attributeName="transform" additive="sum" type="scale" repeatCount="indefinite" dur="3.917s" keyTimes="0;0.032;0.043;0.074;0.085;0.128;0.138;0.223;0.234;0.245;0.307;0.308;1" values="1,1;1,1;0.999,0.999;0.999,0.999;0.998,0.998;0.998,0.998;0.997,0.997;0.997,0.997;0.998,0.998;0.997,0.997;0.997,0.997;1;1" calcMode="discrete"/><animateTransform attributeName="transform" additive="sum" type="scale" repeatCount="indefinite" dur="3.917s" keyTimes="0;0.308;0.351;0.362;0.404;0.415;0.447;0.457;0.489;0.5;1" values="1;0.997,0.997;0.997,0.997;0.998,0.998;0.998,0.998;0.999,0.999;0.999,0.999;1,1;1,1;0.999,0.999;0.999,0.999" calcMode="discrete"/></use><g display="none"><use xlink:href="#b" transform="rotate(-5.5 -226 -4481.7)"><animateTransform attributeName="transform" additive="replace" type="translate" dur="3.917s" keyTimes="0;1" values="0,0;0,0" fill="freeze"/><animateTransform attributeName="transform" additive="sum" type="translate" repeatCount="indefinite" dur="3.917s" keyTimes="0;0.33;0.34;0.351;0.362;0.372;0.383;0.394;0.404;0.415;0.425;0.436;0.447;0.457;0.468;0.479;0.489;0.5;0.511;0.521;0.532;0.543;0.553;0.564;0.574;0.585;0.596;0.606;0.617;0.627;0.628;1" values="429.2,-42.399;429.2,-42.399;429.2,-31.949;429.2,-21.449;429.2,-10.949;429.2,-0.449;429.15,10.1;429.2,20.65;429.15,31.15;429.25,41.65;429.25,52.1;429.25,62.6;429.2,73.05;429.15,83.6;429.2,94.15;429.2,104.6;429.2,115.1;429.25,125.6;429.2,136.15;429.15,146.7;429.2,157.15;429.25,167.7;429.2,178.15;429.2,188.7;429.2,199.55;429.2,210.5;429.2,221.35;429.2,232.25;429.2,243.15;429.15,254.05;0;0" calcMode="discrete"/><animateTransform attributeName="transform" additive="sum" type="translate" repeatCount="indefinite" dur="3.917s" keyTimes="0;0.628;0.638;0.649;0.66;0.67;0.681;0.691;0.702;0.713;0.723;0.734;0.745;0.755;0.766;0.777;0.787;0.798;0.808;0.819;0.83;0.84;0.851;1" values="0;429.15,254.05;429.15,265;429.15,275.9;429.2,286.75;429.2,297.65;429.2,308.55;429.2,319.5;429.2,330.45;429.2,341.3;429.2,352.2;429.15,363;429.2,373.95;429.15,384.9;429.15,395.75;429.15,406.7;429.2,417.55;429.2,428.45;429.15,439.35;429.15,450.3;429.2,461.2;429.2,472.05;429.2,482.95;429.2,482.95" calcMode="discrete"/><animateTransform attributeName="transform" additive="sum" type="rotate" repeatCount="indefinite" dur="3.917s" keyTimes="0;0.33;0.34;0.351;0.362;0.372;0.383;0.394;0.404;0.415;0.425;0.436;0.447;0.457;0.468;0.479;0.489;0.5;0.511;0.521;0.532;0.543;0.553;0.564;0.574;0.585;0.596;0.606;0.617;0.627;0.628;1" values="-5.492,0,0;-5.492,0,0;-2.811,0,0;-0.31,0,0;2,0,0;4.501,0,0;7.003,0,0;9.316,0,0;11.819,0,0;14.322,0,0;16.826,0,0;19.33,0,0;21.835,0,0;24.34,0,0;26.846,0,0;29.354,0,0;31.861,0,0;34.368,0,0;36.873,0,0;39.382,0,0;41.89,0,0;44.398,0,0;46.906,0,0;49.471,0,0;47.358,0,0;45.116,0,0;42.873,0,0;40.63,0,0;38.575,0,0;36.332,0,0;0;0" calcMode="discrete"/><animateTransform attributeName="transform" additive="sum" type="rotate" repeatCount="indefinite" dur="3.917s" keyTimes="0;0.628;0.638;0.649;0.66;0.67;0.681;0.691;0.702;0.713;0.723;0.734;0.745;0.755;0.766;0.777;0.787;0.798;0.808;0.819;0.83;0.84;0.851;1" values="0;36.332,0,0;34.091,0,0;31.848,0,0;29.607,0,0;27.552,0,0;25.311,0,0;23.071,0,0;20.83,0,0;18.778,0,0;16.539,0,0;14.298,0,0;12.06,0,0;10.009,0,0;7.772,0,0;5.534,0,0;3.298,0,0;1.062,0,0;-0.797,0,0;-3.034,0,0;-5.27,0,0;-7.506,0,0;-9.71,0,0;-9.71,0,0" calcMode="discrete"/><animateTransform attributeName="transform" additive="sum" type="scale" repeatCount="indefinite" dur="3.917s" keyTimes="0;0.362;0.372;0.404;0.415;0.457;0.468;0.553;0.564;0.574;0.627;0.628;1" values="1,1;1,1;0.999,0.999;0.999,0.999;0.998,0.998;0.998,0.998;0.997,0.997;0.997,0.997;0.998,0.998;0.997,0.997;0.997,0.997;1;1" calcMode="discrete"/><animateTransform attributeName="transform" additive="sum" type="scale" repeatCount="indefinite" dur="3.917s" keyTimes="0;0.628;0.681;0.691;0.734;0.745;0.777;0.787;0.819;0.83;1" values="1;0.997,0.997;0.997,0.997;0.998,0.998;0.998,0.998;0.999,0.999;0.999,0.999;1,1;1,1;0.999,0.999;0.999,0.999" calcMode="discrete"/></use><animate attributeName="display" repeatCount="indefinite" dur="3.917s" keyTimes="0;0.33;1" values="none;inline;inline"/></g><g display="none"><use xlink:href="#c" transform="translate(218.2 -60)"><animateTransform attributeName="transform" additive="replace" type="translate" dur="3.917s" keyTimes="0;1" values="0,0;0,0" fill="freeze"/><animateTransform attributeName="transform" additive="sum" type="translate" repeatCount="indefinite" dur="3.917s" keyTimes="0;0.479;0.489;0.5;0.511;0.521;0.532;0.543;0.553;0.564;0.574;0.585;0.596;0.606;0.617;0.628;0.638;0.649;0.66;0.67;0.681;0.691;0.702;0.713;0.723;0.734;0.745;0.755;0.766;0.776;0.777;1" values="218.2,-59.999;218.2,-59.999;218.2,-48.549;218.2,-37.099;218.2,-25.649;218.2,-14.199;218.2,-2.799;218.2,8.65;218.2,20.1;218.2,31.55;218.2,43;218.2,54.45;218.2,65.9;218.2,77.35;218.2,88.75;218.2,100.2;218.2,111.65;218.2,123.1;218.2,134.55;218.2,146;218.2,157.45;218.2,168.9;218.2,180.3;218.2,191.75;218.2,203.2;218.2,214.65;218.2,226.1;218.2,237.4;218.25,248.7;218.25,260.1;0;0" calcMode="discrete"/><animateTransform attributeName="transform" additive="sum" type="translate" repeatCount="indefinite" dur="3.917s" keyTimes="0;0.777;0.787;0.798;0.808;0.819;0.83;0.84;0.851;0.862;0.872;0.883;0.894;0.904;0.915;0.925;0.936;0.947;0.957;0.968;0.979;0.989;0.999;1" values="0;218.25,260.1;218.2,271.4;218.25,282.7;218.25,294;218.25,305.35;218.25,316.7;218.3,328.05;218.2,339.35;218.2,350.65;218.25,362;218.25,373.35;218.25,384.7;218.25,396;218.25,407.3;218.25,418.6;218.25,430;218.25,441.3;218.2,452.6;218.25,463.95;218.3,475.3;218.25,486.6;218.2,497.9;218.2,497.9" calcMode="discrete"/><animateTransform attributeName="transform" additive="sum" type="rotate" repeatCount="indefinite" dur="3.917s" keyTimes="0;0.479;0.489;0.5;0.511;0.521;0.532;0.543;0.553;0.564;0.574;0.585;0.596;0.606;0.617;0.628;0.638;0.649;0.66;0.67;0.681;0.691;0.702;0.713;0.723;0.734;0.745;0.755;0.766;0.776;0.777;1" values="0,0,0;0,0,0;-2.51,0,0;-5.02,0,0;-7.532,0,0;-10.044,0,0;-12.557,0,0;-15.07,0,0;-17.772,0,0;-20.287,0,0;-22.802,0,0;-25.318,0,0;-27.835,0,0;-30.351,0,0;-33.056,0,0;-35.574,0,0;-38.091,0,0;-40.609,0,0;-43.126,0,0;-45.645,0,0;-48.163,0,0;-50.869,0,0;-53.387,0,0;-55.905,0,0;-58.422,0,0;-60.938,0,0;-63.467,0,0;-60.913,0,0;-58.182,0,0;-55.637,0,0;0;0" calcMode="discrete"/><animateTransform attributeName="transform" additive="sum" type="rotate" repeatCount="indefinite" dur="3.917s" keyTimes="0;0.777;0.787;0.798;0.808;0.819;0.83;0.84;0.851;0.862;0.872;0.883;0.894;0.904;0.915;0.925;0.936;0.947;0.957;0.968;0.979;0.989;0.999;1" values="0;-55.637,0,0;-52.906,0,0;-50.173,0,0;-47.627,0,0;-44.895,0,0;-42.352,0,0;-39.618,0,0;-37.074,0,0;-34.341,0,0;-31.609,0,0;-29.066,0,0;-26.336,0,0;-23.793,0,0;-21.063,0,0;-18.521,0,0;-15.793,0,0;-13.064,0,0;-10.525,0,0;-7.799,0,0;-5.261,0,0;-2.536,0,0;0,0,0;0,0,0" calcMode="discrete"/><animateTransform attributeName="transform" additive="sum" type="scale" repeatCount="indefinite" dur="3.917s" keyTimes="0;0.489;0.5;0.532;0.543;0.574;0.585;0.734;0.745;0.755;0.776;0.777;1" values="1,1;1,1;0.999,0.999;0.999,0.999;0.998,0.998;0.998,0.998;0.997,0.997;0.997,0.997;0.999,0.999;0.997,0.997;0.997,0.997;1;1" calcMode="discrete"/><animateTransform attributeName="transform" additive="sum" type="scale" repeatCount="indefinite" dur="3.917s" keyTimes="0;0.777;0.894;0.904;0.936;0.947;0.979;0.989;1" values="1;0.997,0.997;0.997,0.997;0.998,0.998;0.998,0.998;0.999,0.999;0.999,0.999;1,1;1,1" calcMode="discrete"/></use><animate attributeName="display" repeatCount="indefinite" dur="3.917s" keyTimes="0;0.479;1" values="none;inline;inline"/></g><g display="none"><use xlink:href="#c" transform="translate(607.9 -60)"><animateTransform attributeName="transform" additive="replace" type="translate" dur="3.917s" keyTimes="0;1" values="0,0;0,0" fill="freeze"/><animateTransform attributeName="transform" additive="sum" type="translate" repeatCount="indefinite" dur="3.917s" keyTimes="0;0.074;0.085;0.096;0.106;0.117;0.128;0.138;0.149;0.16;0.17;0.181;0.191;0.202;0.213;0.223;0.234;0.245;0.255;0.266;0.277;0.287;0.298;0.308;0.319;0.33;0.34;0.351;0.362;0.371;0.372;1" values="607.9,-59.999;607.9,-59.999;607.9,-48.549;607.9,-37.099;607.9,-25.649;607.9,-14.199;607.9,-2.799;607.9,8.65;607.9,20.1;607.9,31.55;607.9,43;607.9,54.45;607.9,65.9;607.9,77.35;607.85,88.75;607.85,100.2;607.9,111.7;607.9,123.1;607.9,134.55;607.9,146;607.9,157.5;607.85,168.9;607.9,180.3;607.9,191.75;607.9,203.25;607.9,214.65;607.9,226.1;607.95,240.4;607.95,254.65;607.95,269;0;0" calcMode="discrete"/><animateTransform attributeName="transform" additive="sum" type="translate" repeatCount="indefinite" dur="3.917s" keyTimes="0;0.372;0.383;0.394;0.404;0.415;0.425;0.436;0.447;0.457;0.468;0.479;0.489;0.5;0.511;0.521;0.532;0.543;1" values="0;607.95,269;607.9,283.3;607.9,297.65;607.95,311.95;607.85,326.25;607.95,340.5;607.9,354.8;607.9,369.2;607.9,383.5;607.9,397.75;607.9,412.05;607.9,426.45;607.9,440.75;607.9,455;607.95,469.3;607.95,483.65;607.9,497.9;607.9,497.9" calcMode="discrete"/><animateTransform attributeName="transform" additive="sum" type="rotate" repeatCount="indefinite" dur="3.917s" keyTimes="0;0.074;0.085;0.096;0.106;0.117;0.128;0.138;0.149;0.16;0.17;0.181;0.191;0.202;0.213;0.223;0.234;0.245;0.255;0.266;0.277;0.287;0.298;0.308;0.319;0.33;0.34;0.351;0.362;0.371;0.372;1" values="0,0,0;0,0,0;-2.51,0,0;-5.02,0,0;-7.532,0,0;-10.044,0,0;-12.557,0,0;-15.07,0,0;-17.772,0,0;-20.287,0,0;-22.802,0,0;-25.318,0,0;-27.835,0,0;-30.351,0,0;-33.056,0,0;-35.574,0,0;-38.091,0,0;-40.609,0,0;-43.126,0,0;-45.645,0,0;-48.163,0,0;-50.869,0,0;-53.387,0,0;-55.905,0,0;-58.422,0,0;-60.938,0,0;-63.467,0,0;-60.173,0,0;-56.89,0,0;-53.421,0,0;0;0" calcMode="discrete"/><animateTransform attributeName="transform" additive="sum" type="rotate" repeatCount="indefinite" dur="3.917s" keyTimes="0;0.372;0.383;0.394;0.404;0.415;0.425;0.436;0.447;0.457;0.468;0.479;0.489;0.5;0.511;0.521;0.532;0.543;1" values="0;-53.421,0,0;-50.136,0,0;-46.854,0,0;-43.382,0,0;-40.098,0,0;-36.627,0,0;-33.345,0,0;-30.063,0,0;-26.593,0,0;-23.312,0,0;-20.033,0,0;-16.564,0,0;-13.288,0,0;-10.01,0,0;-6.547,0,0;-3.271,0,0;0,0,0;0,0,0" calcMode="discrete"/><animateTransform attributeName="transform" additive="sum" type="scale" repeatCount="indefinite" dur="3.917s" keyTimes="0;0.085;0.096;0.128;0.138;0.17;0.181;0.33;0.34;0.351;0.371;0.372;1" values="1,1;1,1;0.999,0.999;0.999,0.999;0.998,0.998;0.998,0.998;0.997,0.997;0.997,0.997;0.999,0.999;0.997,0.997;0.997,0.997;1;1" calcMode="discrete"/><animateTransform attributeName="transform" additive="sum" type="scale" repeatCount="indefinite" dur="3.917s" keyTimes="0;0.372;0.457;0.468;0.5;0.511;0.521;0.532;1" values="1;0.997,0.997;0.997,0.997;0.998,0.998;0.998,0.998;0.999,0.999;0.999,0.999;1,1;1,1" calcMode="discrete"/></use><animate attributeName="display" repeatCount="indefinite" dur="3.917s" keyTimes="0;0.074;1" values="none;inline;inline"/></g><path fill="#E0BA9D" stroke="#19344F" stroke-width="3" stroke-linecap="round" stroke-linejoin="round" d="M252.2 310.9q2.5-7 4.6-14.2l1.5-5.7q-14.6-1.1-39.1 1.9-49.2 5.9-98.9 26.3 21.6 30.8 70 32.2 24.3.8 44.2-4.7 9.7-13.3 17.7-35.8"/><path fill="#F8F7EE" stroke="#19344F" stroke-width="3" stroke-linecap="round" stroke-linejoin="round" d="M282.5 153q-6.1.4-15.9 12.8-9.4 11.9-15.8 26.4-7 15.7-5.5 24.3 1.6 10 14.8 6.5 13.2-3.6 21.7-15.4 7.4-10.1 9.8-23.8 2.3-12.5-.3-21.7-2.7-9.4-8.8-9.1M85.2 141l-4.5 14.2q-4.6 17-5 31.5-1.1 46.2 40.6 49.3 21.2 1.6 21.9-12.2.6-11.1-12-31.4-9-14.6-23.5-32.3l-12.8-14.9-4.7-4.1"/><path fill="#F6D2B2" stroke="#19344F" stroke-width="3" stroke-linecap="round" stroke-linejoin="round" d="M239.8 229.4q-7.8 7-8.4 17.4-.6 11.6 6.4 25 7.7 14.7 17.4 15.2 9.7.6 18.3-13.1 7.7-12.4 8.4-24.2.6-10.5-6.4-18.3-7-7.8-17.4-8.4-10.5-.6-18.3 6.4m-150.1 2.5q-7.8 7-8.4 17.4-.7 11.6 6.4 25 7.7 14.7 17.4 15.2t18.3-13.1q7.7-12.4 8.4-24.2.6-10.5-6.4-18.3-7-7.8-17.5-8.4-10.4-.6-18.2 6.4"/><path fill="#F6D2B2" stroke="#19344F" stroke-width="3" stroke-linecap="round" stroke-linejoin="round" d="M222.1 109.1l-66.9-.7q-30.5-1.7-46.6 21-14 19.5-16 55.3l-1.3 65.7q-4.8 30.2 7.4 51.7 5.6 10 14 15.6 8.8 5.7 19 5.7l85.6 3.1q30.4 1.7 42.5-23.2 10.3-21.2 6.2-58.5l2.4-50.2q2.3-40.3-6-61.8-11-28.6-40.3-23.7"/><path fill="#F6D2B2" d="M131.7 304v10q0 6.8 12.4 11.6t29.7 4.8q14.2 0 27.6-4.8 14.4-5.1 14.4-11.5v-9.9l-84.1-.2"/><path fill="none" stroke="#19344F" stroke-width="3" stroke-linecap="round" stroke-linejoin="round" d="M131.7 314v-10m0 10q0 6.8 12.4 11.6t29.7 4.8q14.2 0 27.6-4.8 14.4-5.1 14.4-11.5v-9.9m-58.9-61.5q5.4 5.4 13 5.4t13-5.4q5.4-5.4 5.4-13m-31.4 13q-5.4-5.4-5.4-13m-32.6 33.8q-.1 3.5 3.3 8l6.3 7.1 2.3 8m-11.9-23.1q0-2.6 3.1-6.4 3.7-4 5-6l16.6-15.1m80.7 23.2q1.7 2.2 1.5 5-.3 3.1-3.8 7.7l-5.9 6.7-.2 8m8.4-27.4q-3.1-3.2-5.7-6.2-3.4-3.8-9.4-7.7-7-4.2-10.3-6.4m-64.3 28q.8-1 2.4-2.1 3-2.3 6.6-3 11.4-2.2 23.6-2.4 16.6-.3 31.5 3.2 1.6.3 4.5 2 3 1.9 4.5 2.3"/><path fill="#F8F7EE" stroke="#19344F" stroke-width="3" stroke-linecap="round" stroke-linejoin="round" d="M181 117.6q19.2 1.7 40.3 7.3 10.5 2.7 17.2 5.2Q225 105.7 195.8 94q-27-10.8-56.6-7.3-15.5 1.9-28 7.8-14.2 6.8-22.5 17.9-4.2 5.8-5 15-.7 8.4 1.5 15.7 2.2 7.4 5.9 9 4.1 1.7 8.1-5.2 20.3-34.8 81.8-29.3"/><path fill="#F8F7EE" d="M285 155q-.2-8.6-3.5-17.1-3.3-8.5-8.5-13.8-10.9-11-23.5-15-13.3-4-27.4 0l9.3 10-17.8 4q35.9 8.5 48 28 4.5 7 6 16.2.7 4 1.3 14 8.3-2.8 12.5-10.3 3.7-6.7 3.6-16"/><path fill="none" stroke="#19344F" stroke-width="3" stroke-linecap="round" stroke-linejoin="round" d="M285 155q-.2-8.6-3.5-17.1-3.3-8.5-8.5-13.8-10.9-11-23.5-15-13.3-4-27.4 0l9.3 10M285 155q0 9.3-3.6 16-4.2 7.5-12.5 10.4-.6-10.1-1.3-14.1-1.5-9.1-6-16.2-12.1-19.5-48-28"/><path fill="#F8F7EE" stroke="#19344F" stroke-width="3.1" stroke-linecap="round" stroke-linejoin="round" d="M123.4 182q-8.4-.2-14.5-4.6 1.4 1.1 4.5 5.8 2.4 3.6 6.8 4.8 2.9.7 6.7.5l6.6-.7q.6 0 15 2.9 11.8 2.3 12.4-.3 1.6-6.1-6-8.7-6.1-2-15-1.1-14.6 1.4-16.5 1.4m108.4 1.2q3.2-4.8 4.7-5.9-6.2 4.5-14.6 4.7-1.9 0-16.5-1.4-9-.9-15 1.1-7.6 2.6-6 8.7.6 2.6 12.4.3 14.4-3 14.9-2.9l6.7.7q3.8.2 6.6-.5 4.4-1.2 6.8-4.8"/><path fill="#DDECF7" fill-opacity=".4" d="M227 234.4q9.3-1.9 14.7-8.4 7-8.2 4.2-20.8-2-9.1-17.1-13.6-13.9-4.2-28.7-2.1-11 1.5-15.8 7.1-2.6 3-1.2 11.4 1.1 7.2 3.8 11.8 5.4 9.7 17.1 13.6 11 3.7 23 1m-67-37.8q-4.8-5.7-15.8-7.2-14.7-2-28.6 2.2-15.2 4.5-17.1 13.6-2.8 12.7 4.1 20.9 5.5 6.4 14.7 8.3 12 2.6 23-1 11.8-4 17.2-13.6 2.6-4.6 3.8-11.8 1.3-8.4-1.3-11.4"/><path fill="none" stroke="#19344F" stroke-width="3" stroke-linecap="round" stroke-linejoin="round" d="M246 205.3q-2-9.1-17.1-13.6-13.9-4.2-28.7-2.2-11 1.6-15.8 7.2-2.6 3-1.2 11.4 1.1 7.2 3.7 11.8 5.5 9.6 17.2 13.5 11 3.7 23 1.1 9.2-2 14.7-8.4 6.9-8.2 4.2-20.8m-128.6 29.2q12 2.6 23-1.1 11.8-3.9 17.2-13.5 2.6-4.6 3.8-11.8 1.3-8.4-1.3-11.4-4.8-5.7-15.8-7.2-14.8-2-28.6 2.2-15.2 4.5-17.2 13.6-2.7 12.6 4.2 20.8 5.5 6.5 14.7 8.4m44.5-31.2h20.2"/><path fill="#19344F" d="M130.3 206.6q0-2.1-1.4-3.6-1.5-1.4-3.6-1.4t-3.5 1.4q-1.5 1.5-1.5 3.6 0 2 1.5 3.5t3.5 1.5 3.6-1.5q1.4-1.4 1.4-3.5m82.6 0q0-2.1-1.5-3.6-1.5-1.4-3.5-1.4t-3.6 1.4q-1.4 1.5-1.4 3.6 0 2 1.4 3.5 1.5 1.5 3.6 1.5t3.5-1.5q1.5-1.4 1.5-3.5"/><path fill="#E0BA9D" d="M186.2 342.4q10 6.5 13.7 6.4l-23-13 9.3 6.6"/><path fill="none" stroke="#19344F" stroke-width="3" stroke-linecap="round" stroke-linejoin="round" d="M186.2 342.4q10 6.5 13.7 6.4m-13.7-6.4l-9.3-6.5"/><path fill="#E0BA9D" d="M203 334.1q1.8 1.9 5 3.4 10.2 4.7 30.5 3.8l-36.6-8.7 1.1 1.5"/><path fill="none" stroke="#19344F" stroke-width="3" stroke-linecap="round" stroke-linejoin="round" d="M203 334.1q1.8 1.9 5 3.4 10.2 4.7 30.5 3.8m-35.5-7.2l-1.1-1.5"/><path fill="#F8F7EE" stroke="#19344F" stroke-width="3" stroke-linecap="round" stroke-linejoin="round" d="M121.9 323.4l10 45.5 23.7-10.4q22.3-10.8 15.4-12.3-15.3-3.5-28.3-9.7-12.2-5.8-20.8-13.1m71 23.3q-7.5.2 17 11.2 12.4 5.5 26.2 11l11.9-43.5q-6.8 5.2-17.1 10.5-20.6 10.5-38 10.8"/><path fill="#457C9E" stroke="#19344F" stroke-width="3.3" stroke-linecap="round" stroke-linejoin="round" d="M207 356.4l-24-14.7-24.6 13.9 23.2 29.4 25.4-28.6"/><path fill="#D8D8D8" stroke="#19344F" stroke-width="3" stroke-linecap="round" stroke-linejoin="round" d="M562.9 113.3l1 2.6q1.5 3.1 3.6 5.9 6.6 8.9 16.8 11.3 10.2 2.3 15 42.3 2.4 20 2.8 39.6 19.9-25.2 16.4-54.7-1.4-11.5-6.2-21.3-4.4-8.9-9.9-13.3-10.4-8.4-26-11.2-5-1-9.7-1.1l-3.8-.1"/><path fill="#E0BA9D" stroke="#19344F" stroke-width="3" stroke-linecap="round" stroke-linejoin="round" d="M455.4 278.7l-7.6.2 3.5 19.9q4.8 22.5 11.4 35.8l11.6 2.7q14.3 2.5 28 2 44-1.4 65.6-32.2-49.7-20.4-89.9-26.3-12.5-1.9-22.6-2.1"/><path fill="#DDB597" stroke="#19344F" stroke-width="3" stroke-linecap="round" stroke-linejoin="round" d="M462.3 223.1q-8.9-8.2-19.3-7.6-10.1.6-16.4 9.7-6 8.5-5.3 19.5.6 11 8.3 20.1 8.2 9.7 18.2 9.1 10.1-.5 17.5-11.1 7-10 6.5-21-.6-10.5-9.5-18.7"/><path fill="#F6D2B2" stroke="#19344F" stroke-width="3" stroke-linecap="round" stroke-linejoin="round" d="M607.5 219.8q-7.8-7-18.3-6.4-10.4.6-17.4 8.4-7 7.8-6.4 18.3.7 11.9 8.4 24.2 8.6 13.7 18.3 13.1 9.7-.5 17.4-15.1 7-13.4 6.4-25.1-.6-10.4-8.4-17.4"/><path fill="#F6D2B2" stroke="#19344F" stroke-width="3" stroke-linecap="round" stroke-linejoin="round" d="M539.8 107l-2.1-.1q0 .2-2.1.1h-1.1l-1.1.1q-.7 0-5.5-4.3-5.1-4.6-5.5-4.8l-33.6 6.1q-30.6-5.1-47.2 20.2-14.8 22.6-12.8 58.2l9.4 50.3q1.8 32.7 14.8 53.4 13 20.8 32 20.7l77.8-.6q8.4-.8 15.8-7.8 7.3-6.8 12.6-18.3 11.5-24.6 9.7-57l3.7-50.6q-.7-11.1-4.1-19.5-4.5-10.8-15.8-23.2-12-13.3-21.8-16.6l-11.4-3.8q-6.9-2-11.7-2.4"/><path fill="#F6D2B2" d="M471 286.6q0 11 15.4 18.9 15.3 7.9 37 7.9t37-7.9q15.4-7.8 15.4-18.9H471"/><path fill="none" stroke="#19344F" stroke-width="3" stroke-linecap="round" stroke-linejoin="round" d="M471 286.6q0 11 15.4 18.9 15.3 7.9 37 7.9t37-7.9q15.4-7.8 15.4-18.9"/><path fill="#19344F" d="M512.7 180.8q-.4.4-.5 1l-4.8 35.6v.2q0 8.3 5.8 14.1 5.9 5.8 14 5.8 7.8 0 12.9-5.6 5-5.6 5-14.3 0-.6-.4-1-.4-.5-1-.5-.7 0-1.1.5-.4.4-.4 1 0 7.5-4.2 12.2-4.2 4.7-10.7 4.7-7 0-11.9-5-5-4.8-5-11.8l4.7-35.5q.1-.6-.3-1.1-.3-.5-1-.6-.6 0-1.1.3"/><path fill="#F8F7EE" stroke="#19344F" stroke-width="3" stroke-linecap="round" stroke-linejoin="round" d="M544.6 324.4q-13.1 6.2-28.3 9.7-6.9 1.6 15.5 12.3 11.1 5.3 23.7 10.4l9.9-45.4q-8.6 7.2-20.8 13"/><path fill="#F8F7EE" stroke="#19344F" stroke-width="3" stroke-linecap="round" stroke-linejoin="round" d="M459.2 316.6l-5-3.2 13.9 43.4 26.1-11q24.6-11 17-11.2-17.3-.3-39-10.8-6.6-3.3-13-7.2"/><path fill="#E66C6C" stroke="#19344F" stroke-width="3" stroke-linecap="round" stroke-linejoin="round" d="M533.4 347.2l-22.2-12.6-21.7 13.3 23 25.9 20.9-26.6"/><path fill="#EAE9E5" stroke="#19344F" stroke-width="3" stroke-linecap="round" stroke-linejoin="round" d="M469.2 120q16.8-11.8 44.7-13.3 29.6-1.6 55 12.2 12.7 6.9 19.4 14.2-13.7-19.2-15.8-21.4-7-7.6-17.2-14.1-21.4-13.8-46.6-13.6-24 .2-47.2 12.7-56.7 30.7-39 112.9.5 2 6.9 9 6.5 7.1 7.1 5.3l10.6-33.1q.7-2.3-.1-4.6-5.8-15.3-3.1-30.1.9-4.7 2.5-8.8l1.4-3.1q10.8-16.7 21.4-24.2"/><path fill="none" stroke="#19344F" stroke-width="3" stroke-linecap="round" stroke-linejoin="round" d="M511.5 270.2H540m-49-73.3q-14.3 4.7-23.5 16.5m23.5-16.5q7.2-2.3 12.5-2.3m61.6 5.3q13.4 6.4 18.2 15.5m-18.2-15.5q-4.2-2-8.8-3.5l-3.7-1.1m-109.2-22.7l-12.7 20.7m15.7-48q-3.5 2.6-8.1 7.2-9.1 9.1-14.8 18.9m-307.4 92.5q-4.1-.5-11.6-4.9m11.6 4.9q2.1.3 2.7-.4m112.3-1.2q6.5-.2 10.8-3.3m-10.8 3.3l-5.6-.5m-75.4 11.3l14.5-1.6q16.4-.8 26.6 3.6m-70.2-59.4q10.6 1.4 17.1-2.1m-17.1 2.1l-9.3-2.1m94.2 2.1q10.6 1.4 17.1-2.1m-17.1 2.1l-9.4-2.1m299.7 81.8l5.4-2q6.7-2.2 13.5-3.3 22-3.5 37.4 5.3m-61.8-67.5Q472 249.3 472 271.4m18.7-43.5q9.3-10.7 18.7-17m48.5 15.8q15.1 20.7 18.9 38.8M558 226.7q-4.7-6.5-10-12.4l-4.3-4.7"/><path fill="#E88B8C" stroke="#19344F" stroke-width="3" stroke-linecap="round" stroke-linejoin="round" d="M495.7 251l-6.1 2.2q23.5 8 47.6 4.8 12-1.6 18.1-4.8-18.4-9.5-44-5.7-8 1.2-15.6 3.5"/><path fill="#F8F7EE" stroke="#19344F" stroke-width="3" stroke-linecap="round" stroke-linejoin="round" d="M503.6 250q0 1.8 1.4 3.2 1.3 1.3 3.2 1.3H540q1.9 0 3.2-1.3 1.4-1.4 1.4-3.2v-.4q-5.4-1.8-13.3-2.6-15.7-1.7-27.8 3"/><path fill="none" stroke="#19344F" stroke-width="3" stroke-linecap="round" stroke-linejoin="round" d="M487.2 253.1q-4 8.8 2.4 13.8m-2.4-13.8q1.2-2.7 3.3-5.5l1.8-2.2m64.2 3.9q3 8-1.2 13.7m1.2-13.7q-1-2.5-2.5-5l-1.4-1.9m2.7-82.5q11.1-1.4 19.8 1.1m-19.8-1.1q-8.3 1.1-17.3 4.3m-61.4-3.4q4.6-1.7 9.4-2.8 15.5-3.4 28.2 1.6m-37.6 1.2l-3.5 1.6m16.5-17.6q4.9-.5 10 0 16.4 1.5 28.2 11.8 10.6-7.8 21-8.9 5.7-.6 12.5.4m-71.7-3.3l-4 .5m.2 38q11-1.8 17.5 2.6m-17.5-2.6q-3.4.5-7 1.6l-2.8 1"/><path fill="#19344F" d="M495.7 188.9q0-2-1.5-3.5t-3.5-1.5-3.6 1.5q-1.4 1.5-1.4 3.5 0 2.1 1.4 3.6 1.5 1.4 3.6 1.4t3.5-1.4q1.5-1.5 1.5-3.6"/><path fill="none" stroke="#19344F" stroke-width="3" stroke-linecap="round" stroke-linejoin="round" d="M564 183.6q9.6 1.3 13.4 4.8m-13.3-4.8l-8.8-.7"/><path fill="#19344F" d="M568.9 188.9q0-2-1.5-3.5t-3.5-1.5q-2.1 0-3.6 1.5-1.4 1.5-1.4 3.5 0 2.1 1.4 3.6 1.5 1.4 3.6 1.4 2 0 3.5-1.4 1.5-1.5 1.5-3.6"/></g></svg>