<svg xmlns:xlink="http://www.w3.org/1999/xlink" xmlns="http://www.w3.org/2000/svg" image-rendering="optimizeQuality" baseProfile="basic" width="695" height="444" viewBox="0 0 695 444" preserveAspectRatio="xMinYMin meet"><defs><symbol id="a" overflow="visible"><path fill="#E9AF90" d="M5.601-28.3l3.5 7.45 18.45-18.8q2.75 1 5.45-.1 2.75-1.05 4.05-3.7 1.45-2.9.4-6-1.1-3.05-4.05-4.45-2.75-1.25-5.7-.25t-4.4 3.7q-1.15 2.25-.75 4.9L5.601-28.3"/><path fill="none" stroke="#19344F" stroke-width="2.5" stroke-linecap="round" stroke-linejoin="round" d="M33.001-39.75q-2.7 1.1-5.45.1l-18.45 18.8m23.9-18.9q2.75-1.05 4.05-3.7 1.45-2.9.4-6-1.1-3.05-4.05-4.45-2.75-1.25-5.7-.25t-4.4 3.7q-1.15 2.25-.75 4.9L5.601-28.3"/></symbol><symbol id="b" overflow="visible"><path fill="#43566B" d="M-14.399-10.55l10.15 7.95 5.45-6.9 23.55-23.15-10.1-11.05-23.6 26.25-5.45 6.9"/><path fill="none" stroke="#19344F" stroke-width="2.5" stroke-linecap="round" stroke-linejoin="round" d="M1.201-9.5l-5.45 6.9m5.45-6.9l23.55-23.15-10.1-11.05-23.6 26.25-5.45 6.9"/></symbol><symbol id="c" overflow="visible"><path fill="#CDC8C0" stroke="#1A344F" stroke-width="2.5" stroke-linecap="round" stroke-linejoin="round" d="M28.051-85.95q-1.1.55-1.5 1.75-.35 1.15.2 2.3l28.45 56.15q.55 1.15 1.75 1.5 1.2.4 2.3-.15l34.1-17.3q1.1-.55 1.5-1.75.35-1.2-.2-2.3l-28.45-56.15q-.55-1.1-1.75-1.5-1.15-.4-2.3.15l-34.1 17.3"/><path fill="none" stroke="#1A344F" stroke-width="2.5" stroke-linecap="round" stroke-linejoin="round" d="M48.151-39.6l24.25 7.95M33.451-68.7l7.9-24.2M36.001-63.65l-6.2 3.15q-1.4.7-1.85 2.2-.5 1.45.2 2.85l6.45 12.75q.7 1.4 2.2 1.9 1.45.45 2.85-.25l6.2-3.15-9.85-19.45"/></symbol><symbol id="d" overflow="visible"><path fill="#ECE6DA" d="M-25.249-33.65l-3.95 1.25 12.85-.75q-4.15-1.45-8.9-.5"/><path fill="none" stroke="#1A344F" stroke-width="2.5" stroke-linecap="round" stroke-linejoin="round" d="M-29.199-32.4l3.95-1.25q4.75-.95 8.9.5"/></symbol><symbol id="e" overflow="visible"><path fill="none" stroke="#19344F" stroke-width="2.5" stroke-linecap="round" stroke-linejoin="round" d="M-31.149-57.3l-1.1 4"/></symbol><symbol id="f" overflow="visible"><path fill="none" stroke="#19344F" stroke-width="2.5" stroke-linecap="round" stroke-linejoin="round" d="M-6.249-51.75l-1.1 4"/></symbol><symbol id="g" overflow="visible"><path fill="none" stroke="#19344F" stroke-width="2.5" stroke-linecap="round" stroke-linejoin="round" d="M-34.049-61.15q3.75-2.9 7.25-1.5"/></symbol><symbol id="h" overflow="visible"><path fill="none" stroke="#19344F" stroke-width="2.5" stroke-linecap="round" stroke-linejoin="round" d="M-4.299-56.7q2.2 1.45 2.75 3.95m-2.75-3.95q-.85-.55-2.6-1.15"/></symbol></defs><g overflow="visible"><path fill="#81D2F6" d="M695.039 444.21V-.007H.041V444.21h694.998"/><path fill="#A5CD7B" d="M695.039 444.21v-36.592H.041v36.592h694.998"/><path fill="none" stroke="#1A344F" stroke-opacity=".271" stroke-width="2.5" stroke-linecap="round" stroke-linejoin="round" d="M573.607 368.245l7.746-4.617v-12.065l-20.456-6.703m12.71 23.385l.149 12.214 14.995-12.214v-22.888l-17.924-11.221M492.43 362.734q3.326-2.284 6.901-6.057 7.15-7.497 8.49-14.696m-15.391 20.753v34.06q3.029.943 5.163 3.575 1.093 1.291 1.54 2.383h10.575l-8.838-8.887v-29.393q5.809-1.688 13.803-9.781 3.972-4.022 6.802-7.746"/><path fill="none" stroke="#1A344F" stroke-opacity=".271" stroke-width="2.5" stroke-linecap="round" stroke-linejoin="round" d="M585.722 297.246q1.142 1.291 4.419 1.44 1.737.099 4.468-.099 1.192 0 3.029-3.575.894-1.837 1.589-3.625-3.426-7.05-11.172-13.852-4.418-3.922-14.299-10.774-.645-.447-1.589-.844-2.134-.894-5.113-.943-2.533-.05-5.114.546-8.937 1.986-14.002 13.554-4.617 13.853-7.844 19.165-7.746 12.81-34.06 6.901-11.37-2.532-16.831-2.73-12.016-.447-18.123 5.66-6.057 6.057-4.965 14.299.646 4.915 4.32 15.59 1.787 7.001-1.936 13.753-1.887 3.376-4.121 5.362v39.571q3.426.546 5.114 3.674.794 1.589.943 3.029h10.824l-8.937-10.824v-30.137q15.838-2.086 22.64-11.618 4.171-5.909 4.171-12.81 11.717 6.256 27.059 9.235 7.695 1.539 13.008 1.787v47.664q3.972.645 5.511 3.724.745 1.539.695 2.979h11.171l-8.788-9.831v-31.13q5.611-3.873 9.384-10.824 3.222-5.877 1.937-5.958 8.484-1.841 12.064-9.533 3.923-8.391.696-21.498-2.781-11.271-3.823-18.371l-.447-4.816q4.915 0 11.022 2.135 5.61 1.986 7.1 3.724M559.11 345.605q-.221.055-.447.099"/><path fill="none" stroke="#1A344F" stroke-opacity=".271" stroke-width="2.5" stroke-linecap="round" stroke-linejoin="round" d="M467.059 301.119q-3.922-1.043-8.54-.646-5.759.497-10.724 4.121-4.518 3.277-7.795 8.59-1.937 3.177-5.462 10.724-3.475 6.603-7.298 9.284-5.362 3.774-10.327 1.738-2.48-.991-3.923-2.78.245.319-.149 3.028.149 3.724 1.738 6.654 2.979 5.411 10.526 7 7.547 1.589 12.462-2.184 3.028-2.334 5.312-6.902 1.142-2.433 3.178-8.192 4.518-12.71 7.944-17.228 6.206-8.143 16.384-6.405l.695.149m-4.021-6.951q4.816 1.34 6.901 4.667M574.005 255.391l-1.838 10.526m1.838-10.526L561.94 265.52M129.408 353.278q5.213-8.54 5.958-14.796m-5.958 14.796q-5.809 9.582-6.107 10.476-.894 3.029 10.029 21.747 5.461 9.383 11.121 18.122h7.994q-4.17-7.249-8.043-15.491-7.795-16.434-6.455-21.3 1.391-4.865 8.093-14.398l6.405-8.59M194.945 354.867q1.44-11.42-.695-19.264m.695 19.264q-.794 5.958-2.333 13.405-.348 3.029 2.78 19.066 1.539 7.993 3.178 15.391h7.05q-1.887-6.703-2.979-16.384-2.085-19.314 2.085-33.961 4.171-14.696 5.462-24.626l.447-7.001"/><path fill="none" stroke="#1A344F" stroke-opacity=".271" stroke-width="2.5" stroke-linecap="round" stroke-linejoin="round" d="M197.031 250.006l-2.582-1.34 2.184-.447q2.582-.596 4.767-1.639 6.901-3.326 6.752-9.334-1.44-1.142-3.872-2.035-4.916-1.788-10.03-.447m2.781 15.242q3.177 1.937 6.156 5.114 9.583 10.178 13.604 28.648 4.667 23.336-8.49 40.216-6.554 8.391-14.051 11.619-3.525 13.455-7.944 24.725-2.234 5.66-3.773 8.639l2.333 33.762h-5.064l-7.398-33.563q2.235-7.15 1.986-12.015-.695-6.306-.695-12.363-22.193.893-34.904-4.618-3.972-1.688-6.504-3.872l-1.737-1.788-1.192 3.078q-1.539 3.724-3.575 7.1-6.454 10.625-14.895 13.108-8.49 2.482-12.66 8.44-2.135 2.979-2.533 5.462v31.031h-6.504v-44.933q11.072-4.816 14.15-13.952 1.142-3.425 1.49-8.39.248-5.809.447-8.689.198-6.554.546-9.93.645-5.958 2.88-9.334 4.617-7.001 12.362-9.583 7.845-2.581 15.541.447 5.263 2.085 11.866 2.681 5.064.447 12.214.05 7.994-.447 15.242-4.618 10.377-6.007 10.377-16.682 0-10.228-6.752-14.994-2.135-1.539-4.667-2.284l-2.135-.497q-13.257 0-18.073-4.17-1.489-1.291-1.986-2.88l-.149-1.291 24.18-14.795"/><path fill="none" stroke="#1A344F" stroke-opacity=".271" stroke-width="2.5" stroke-linecap="round" stroke-linejoin="round" d="M230.147 181.241q0 23.931-16.881 40.862-16.93 16.931-40.862 16.931-19.214 0-34.556-11.469-15.044-11.271-20.605-29.145"/><path fill="none" stroke="#1A344F" stroke-opacity=".271" stroke-width="2.5" stroke-linecap="round" stroke-linejoin="round" d="M202.691 226.621q-12.413 12.413-29.939 12.413-14.101 0-25.371-8.391-11.022-8.292-15.094-21.399m70.404 17.377q12.412-12.412 12.412-29.939"/><path fill="#9C7C64" stroke="#19344F" stroke-width="2.5" stroke-linecap="round" stroke-linejoin="round" d="M214.876 339.548l-1.738-1.241-16.136 17.377 8.391-1.837q9.632-13.554 9.483-14.299"/><path fill="#8BBF5E" stroke="#19344F" stroke-width="2.5" stroke-linecap="round" stroke-linejoin="round" d="M235.332 311.744q-7.15-4.568-15.392-2.731-8.241 1.788-12.859 8.888-4.568 7.149-2.78 15.391 1.787 8.292 8.887 12.859 7.15 4.568 15.391 2.781 8.292-1.837 12.86-8.937 4.568-7.15 2.78-15.392-1.787-8.291-8.887-12.859"/><path fill="#9C7C64" stroke="#19344F" stroke-width="2.5" stroke-linecap="round" stroke-linejoin="round" d="M180.618 339.647l-1.937 1.887 17.03 24.477v-10.823q-14.1-15.491-15.093-15.541"/><path fill="#BC987A" d="M201.719 315.865q-.745-.695-1.688-1.092-1.887-.795-2.88.794-1.241 21.052-2.631 54.019-1.341 30.882-1.192 33.166l11.767.05q.894-39.372-1.142-67.077-1.042-13.852-2.234-19.86"/><path fill="none" stroke="#19344F" stroke-width="2.5" stroke-linecap="round" stroke-linejoin="round" d="M200.031 314.773q.943.397 1.688 1.092 1.192 6.008 2.234 19.86 2.036 27.705 1.142 67.077m-5.064-88.029q-1.887-.795-2.88.794-1.241 21.052-2.631 54.019-1.341 30.882-1.192 33.166"/><path fill="none" stroke="#19344F" stroke-width="2.5" stroke-linecap="round" stroke-linejoin="round" d="M200.031 314.773q-1.887-.795-2.88.794-1.241 21.052-2.631 54.019-1.341 30.882-1.192 33.166l11.767.05q.894-39.372-1.142-67.077-1.042-13.852-2.234-19.86-.745-.695-1.688-1.092"/><path fill="#7EA65A" stroke="#19344F" stroke-width="2.5" stroke-linecap="round" stroke-linejoin="round" d="M229.721 270.684q-10.327-10.327-24.973-10.327-14.647 0-24.974 10.327t-10.327 24.924q0 14.597 10.327 24.974 10.327 10.327 24.974 10.327 14.646 0 24.973-10.327 10.328-10.377 10.328-24.974t-10.328-24.924"/><path fill="#75954F" d="M169.596 299.282q.496 2.483 2.333 6.901 2.135 5.164 3.029 8.342 2.284 8.39 16.285 13.206 7 2.433 13.505 3.178-2.235-25.619-16.385-42.202-7.1-8.242-13.753-11.42-6.405 14.25-5.014 21.995"/><path fill="none" stroke="#19344F" stroke-width="2.5" stroke-linecap="round" stroke-linejoin="round" d="M229.721 270.684q-10.327-10.327-24.973-10.327-14.647 0-24.974 10.327t-10.327 24.924q0 14.597 10.327 24.974 10.327 10.327 24.974 10.327 14.646 0 24.973-10.327 10.328-10.377 10.328-24.974t-10.328-24.924"/><path fill="#8BBF5E" stroke="#19344F" stroke-width="2.5" stroke-linecap="round" stroke-linejoin="round" d="M188.313 307.077q-7.546-7.547-18.221-7.547t-18.221 7.547q-7.547 7.497-7.547 18.172t7.547 18.221q7.546 7.547 18.221 7.547t18.221-7.547q7.547-7.546 7.547-18.221 0-10.625-7.547-18.172"/><path fill="#72964A" d="M156.091 315.021q0-7.348 3.823-13.505-7.001 2.979-11.221 9.334-4.369 6.505-4.369 14.349 0 10.675 7.547 18.222 7.546 7.547 18.221 7.547 6.802 0 12.71-3.377 5.76-3.277 9.186-8.887-4.767 2.085-10.129 2.085-10.675 0-18.221-7.546-7.547-7.547-7.547-18.222"/><path fill="none" stroke="#19344F" stroke-width="2.5" stroke-linecap="round" stroke-linejoin="round" d="M188.313 307.077q-7.546-7.547-18.221-7.547t-18.221 7.547q-7.547 7.497-7.547 18.172t7.547 18.221q7.546 7.547 18.221 7.547t18.221-7.547q7.547-7.546 7.547-18.221 0-10.625-7.547-18.172"/><path fill="#9C7C64" stroke="#19344F" stroke-width="2.5" stroke-linecap="round" stroke-linejoin="round" d="M401.162 343.024l-1.787 1.241q-.05.447 4.717 7.447 2.383 3.476 4.766 6.852l8.391 1.837-16.087-17.377M435.619 346.251l-1.936-1.887q-.993.05-15.143 15.54v10.824l17.079-24.477"/><path fill="#BC987A" d="M414.27 319.49l-1.688 1.092q-1.192 6.007-2.235 19.86-2.085 27.704-1.191 67.077l11.817-.05q.148-2.185-1.192-33.166-1.39-32.62-2.632-54.019-.993-1.589-2.879-.794"/><path fill="none" stroke="#19344F" stroke-width="2.5" stroke-linecap="round" stroke-linejoin="round" d="M414.27 319.49l-1.688 1.092q-1.192 6.007-2.235 19.86-2.085 27.704-1.191 67.077m5.114-88.029q1.886-.795 2.879.794 1.242 21.399 2.632 54.019 1.34 30.981 1.192 33.166"/><path fill="none" stroke="#19344F" stroke-width="2.5" stroke-linecap="round" stroke-linejoin="round" d="M417.149 320.284q-.993-1.589-2.879-.794l-1.688 1.092q-1.192 6.007-2.235 19.86-2.085 27.704-1.191 67.077l11.817-.05q.148-2.185-1.192-33.166-1.39-32.62-2.632-54.019"/><path fill="#7EA65A" stroke="#19344F" stroke-width="2.5" stroke-linecap="round" stroke-linejoin="round" d="M434.477 275.401q-10.327-10.328-24.924-10.328-14.647 0-24.974 10.328-10.327 10.277-10.327 24.924 0 14.646 10.327 24.974 10.327 10.327 24.974 10.327 14.597 0 24.924-10.327 10.327-10.328 10.327-24.974 0-14.647-10.327-24.924"/><path fill="#75954F" d="M442.372 310.9q1.837-4.369 2.283-6.901 1.44-7.795-5.014-22.045-6.653 3.178-13.704 11.469-14.199 16.583-16.384 42.203l4.121-.695q5.015-.944 9.384-2.483 13.951-4.816 16.285-13.207.894-3.177 3.029-8.341"/><path fill="none" stroke="#19344F" stroke-width="2.5" stroke-linecap="round" stroke-linejoin="round" d="M434.477 275.401q-10.327-10.328-24.924-10.328-14.647 0-24.974 10.328-10.327 10.277-10.327 24.924 0 14.646 10.327 24.974 10.327 10.327 24.974 10.327 14.597 0 24.924-10.327 10.327-10.328 10.327-24.974 0-14.647-10.327-24.924"/><path fill="#8BBF5E" stroke="#19344F" stroke-width="2.5" stroke-linecap="round" stroke-linejoin="round" d="M462.43 311.794q-7.547-7.547-18.221-7.547-10.675 0-18.222 7.547-7.547 7.497-7.547 18.172 0 10.674 7.547 18.221 7.547 7.547 18.222 7.547 10.674 0 18.221-7.547 7.547-7.547 7.547-18.221 0-10.625-7.547-18.172"/><path fill="#567738" d="M469.913 329.933q0-7.845-4.369-14.349-4.27-6.355-11.27-9.334 3.872 6.256 3.872 13.505 0 10.674-7.546 18.221-7.547 7.547-18.222 7.547-5.312 0-10.178-2.085 3.475 5.61 9.185 8.887 5.909 3.376 12.76 3.376 10.675 0 18.222-7.547 7.546-7.546 7.546-18.221"/><path fill="none" stroke="#19344F" stroke-width="2.5" stroke-linecap="round" stroke-linejoin="round" d="M462.43 311.794q-7.547-7.547-18.221-7.547-10.675 0-18.222 7.547-7.547 7.497-7.547 18.172 0 10.674 7.547 18.221 7.547 7.547 18.222 7.547 10.674 0 18.221-7.547 7.547-7.547 7.547-18.221 0-10.625-7.547-18.172"/><path fill="#D6B667" stroke="#19344F" stroke-width="2.5" stroke-linecap="round" stroke-linejoin="round" d="M102.767 331.157l-9.384-6.951-9.433 6.951v76.411h18.817v-76.411M112.2 324.206l-9.433 6.951v76.411h18.867v-76.411l-9.434-6.951M140.451 331.157l-9.433-6.951-9.384 6.951v76.411h18.817v-76.411M149.835 324.206l-9.384 6.951v76.411h18.817v-76.411l-9.433-6.951"/><path fill="#D6B667" stroke="#19344F" stroke-width="2.5" stroke-linecap="round" stroke-linejoin="round" d="M178.086 331.157l-9.384-6.951-9.434 6.951v76.411h18.818v-76.411M187.519 324.206l-9.433 6.951v76.411h18.817v-76.411l-9.384-6.951M215.77 331.157l-9.434-6.951-9.433 6.951v76.411h18.867v-76.411"/><path fill="#D6B667" stroke="#19344F" stroke-width="2.5" stroke-linecap="round" stroke-linejoin="round" d="M234.587 331.157l-9.433-6.951-9.384 6.951v76.411h18.817v-76.411M253.404 331.157l-9.433-6.951-9.384 6.951v76.411h18.817v-76.411"/><path fill="#D6B667" stroke="#19344F" stroke-width="2.5" stroke-linecap="round" stroke-linejoin="round" d="M272.222 331.157l-9.384-6.951-9.434 6.951v76.411h18.818v-76.411M291.039 331.157l-9.384-6.951-9.433 6.951v76.411h18.817v-76.411M309.906 331.157l-9.434-6.951-9.433 6.951v76.411h18.867v-76.411M328.723 331.157l-9.433-6.951-9.384 6.951v76.411h18.817v-76.411M347.54 331.157l-9.433-6.951-9.384 6.951v76.411h18.817v-76.411"/><path fill="#D6B667" stroke="#19344F" stroke-width="2.5" stroke-linecap="round" stroke-linejoin="round" d="M366.358 331.157l-9.384-6.951-9.434 6.951v76.411h18.818v-76.411M385.175 331.157l-9.384-6.951-9.433 6.951v76.411h18.817v-76.411M394.608 324.206l-9.433 6.951v76.411h18.867v-76.411l-9.434-6.951"/><path fill="#D6B667" stroke="#19344F" stroke-width="2.5" stroke-linecap="round" stroke-linejoin="round" d="M422.859 331.157l-9.433-6.951-9.384 6.951v76.411h18.817v-76.411M441.676 407.568v-76.411l-9.433-6.951-9.384 6.951v76.411h18.817M460.494 331.157l-9.384-6.951-9.434 6.951v76.411h18.818v-76.411M469.927 324.206l-9.433 6.951v76.411h18.817v-76.411l-9.384-6.951"/><path fill="#D6B667" stroke="#19344F" stroke-width="2.5" stroke-linecap="round" stroke-linejoin="round" d="M498.178 331.157l-9.434-6.951-9.433 6.951v76.411h18.867v-76.411M507.562 324.206l-9.384 6.951v76.411h18.817v-76.411l-9.433-6.951M535.813 331.157l-9.384-6.951-9.434 6.951v76.411h18.818v-76.411M554.63 331.157l-9.384-6.951-9.433 6.951v76.411h18.817v-76.411M573.497 331.157l-9.434-6.951-9.433 6.951v76.411h18.867v-76.411M592.314 331.157l-9.433-6.951-9.384 6.951v76.411h18.817v-76.411M611.131 331.157l-9.433-6.951-9.384 6.951v76.411h18.817v-76.411"/><path fill="none" stroke="#19344F" stroke-width="2.5" stroke-linecap="round" stroke-linejoin="round" d="M22.731 407.618h643.313"/><path fill="#FFF" stroke="#19344F" stroke-width="2.5" stroke-linecap="round" stroke-linejoin="round" d="M139.309 150.73l9.682-3.724-12.81-10.277-25.222 3.376q-2.036.298-4.27.794-4.369 1.043-5.014 2.135-.696 1.092.297 4.866l1.142 3.525 36.195-.695"/><path fill="#FFF" d="M153.956 128.437q-7.894-6.504-18.172-6.504-10.873 0-17.924 4.766-7.447 5.065-9.234 14.746l55.16 3.277q-2.035-9.83-9.83-16.285"/><path fill="none" stroke="#19344F" stroke-width="2.5" stroke-linecap="round" stroke-linejoin="round" d="M135.784 121.933q10.278 0 18.172 6.504 7.795 6.455 9.83 16.285m-28.002-22.789q-10.873 0-17.924 4.766-7.447 5.065-9.234 14.746"/><path fill="#FFF" d="M98.547 139.509q-4.916 4.965-4.916 11.916l28.201-12.413q-4.915-4.418-11.369-4.418-6.951 0-11.916 4.915"/><path fill="none" stroke="#19344F" stroke-width="2.5" stroke-linecap="round" stroke-linejoin="round" d="M93.631 151.425q0-6.951 4.916-11.916 4.965-4.915 11.916-4.915 6.454 0 11.369 4.418"/><path fill="#FFF" d="M177.4 144.75q-4.65-4.65-11.15-4.65-4.85 0-8.85 2.7l-57.95 3.65q-4.1-3.6-9.55-3.3-5.4.25-9.1 4.3-3.7 4.05-3.7 9.5 0 1.85 1.3 3.1 1.3 1.3 3.1 1.3h97.4q1.3 0 2.2-.9.9-.95.9-2.2v-2.4q0-6.5-4.6-11.1"/><path fill="#E2E5EC" d="M98.325 161.271q-12.31-.386-11.692-9.085.298-4.568 3.277-9.136-5.412.248-9.136 4.32-3.674 4.021-3.674 9.483 0 1.837 1.291 3.128 1.291 1.29 3.128 1.29h16.806"/><path fill="none" stroke="#19344F" stroke-width="2.5" stroke-linecap="round" stroke-linejoin="round" d="M181.164 160.461q-.943.894-2.234.894H81.566q-1.837 0-3.128-1.291-1.29-1.291-1.29-3.128 0-5.461 3.674-9.483 3.723-4.071 9.135-4.32 5.412-.297 9.533 3.327m81.674 14.001q.894-.943.894-2.234v-2.383q0-6.504-4.618-11.122-4.667-4.617-11.171-4.617-4.816 0-8.838 2.681M153.41 134.246q1.291 1.341 2.085 2.483"/><path fill="#FFF" d="M135.139 126.352l15.391 5.263q-3.128-2.483-6.901-3.823-4.072-1.44-8.49-1.44"/><path fill="none" stroke="#19344F" stroke-width="2.5" stroke-linecap="round" stroke-linejoin="round" d="M143.629 127.792q3.773 1.34 6.901 3.823m-6.901-3.823q-4.072-1.44-8.49-1.44"/><path fill="#FFF" stroke="#19344F" stroke-width="2.5" stroke-linecap="round" stroke-linejoin="round" d="M556.268 76.901q-2.035.297-4.27.794-4.369 1.043-5.064 2.135-.695 1.092.298 4.866l1.142 3.525 36.195-.695 9.681-3.724-12.809-10.278-25.173 3.377"/><path fill="#FFF" d="M581.043 58.729q-10.873 0-17.873 4.766-7.498 5.064-9.285 14.746l55.161 3.277q-2.036-9.831-9.831-16.285-7.894-6.504-18.172-6.504"/><path fill="none" stroke="#19344F" stroke-width="2.5" stroke-linecap="round" stroke-linejoin="round" d="M563.17 63.495q7-4.766 17.873-4.766 10.278 0 18.172 6.504 7.795 6.454 9.831 16.285M563.17 63.495q-7.498 5.064-9.285 14.746"/><path fill="#FFF" d="M555.722 71.389q-6.951 0-11.916 4.916-4.915 4.965-4.915 11.916l28.201-12.413q-4.915-4.419-11.37-4.419"/><path fill="none" stroke="#19344F" stroke-width="2.5" stroke-linecap="round" stroke-linejoin="round" d="M543.806 76.305q4.965-4.916 11.916-4.916 6.455 0 11.37 4.419m-23.286.497q-4.915 4.965-4.915 11.916"/><path fill="#FFF" d="M622.65 81.5q-4.65-4.6-11.15-4.6-4.85 0-8.85 2.7l-57.95 3.65q-3.9-3.55-9.5-3.3-5.45.25-9.15 4.3t-3.7 9.5q0 1.85 1.3 3.1 1.3 1.3 3.15 1.3h97.35q1.3 0 2.25-.9.9-.9.9-2.15v-2.4q0-6.55-4.65-11.2"/><path fill="#E2E5EC" d="M543.625 98.071q-12.313-.387-11.742-9.085.298-4.568 3.277-9.136-5.412.248-9.136 4.32-3.674 4.021-3.674 9.483 0 1.837 1.291 3.128 1.291 1.29 3.128 1.29h16.856"/><path fill="none" stroke="#19344F" stroke-width="2.5" stroke-linecap="round" stroke-linejoin="round" d="M535.217 79.929q5.61-.248 9.532 3.327m-9.532-3.327q-5.412.248-9.136 4.32-3.674 4.021-3.674 9.483 0 1.837 1.291 3.128 1.291 1.291 3.128 1.291h97.363q1.291 0 2.234-.894.894-.894.894-2.185v-2.383q0-6.554-4.617-11.171-4.667-4.617-11.172-4.617-4.816 0-8.837 2.681M598.669 71.042q.993 1.092 2.085 2.482"/><path fill="#FFF" d="M580.448 63.148l15.341 5.262q-2.978-2.333-6.901-3.823-4.021-1.439-8.44-1.439"/><path fill="none" stroke="#19344F" stroke-width="2.5" stroke-linecap="round" stroke-linejoin="round" d="M588.888 64.587q3.923 1.49 6.901 3.823m-6.901-3.823q-4.021-1.439-8.44-1.439"/><g style="display:none"><g transform="matrix(.549 -.827 .827 .549 579.55 372.5)"><animateTransform attributeName="transform" additive="replace" type="translate" repeatCount="indefinite" dur="1.417s" keyTimes="0;0.706;0.735;0.765;0.794;0.823;0.853;0.882;0.912;0.941;0.97;0.999;1" values="579.55,372.5;579.55,372.5;592.65,331.95;605.75,291.4;618.85,250.9;631.95,210.35;645,169.8;658.1,129.25;671.2,88.7;684.3,48.2;697.4,7.65;710.5,-32.899;710.5,-32.899" calcMode="discrete"/><animateTransform attributeName="transform" additive="sum" type="rotate" repeatCount="indefinite" dur="1.417s" keyTimes="0;0.706;0.735;0.97;0.999;1" values="-56.425,0,0;-56.425,0,0;-56.424,0,0;-56.424,0,0;-56.425,0,0;-56.425,0,0" calcMode="discrete"/><animateTransform attributeName="transform" additive="sum" type="scale" repeatCount="indefinite" dur="1.417s" keyTimes="0;0.706;0.735;0.97;0.999;1" values="0.992,0.992;0.992,0.992;0.99,0.99;0.99,0.99;0.992,0.992;0.992,0.992" calcMode="discrete"/><path fill="none" stroke="#1A344F" stroke-width="2.5" stroke-linecap="round" stroke-linejoin="round" d="M2.351 3.1l3.6-.55M-23.899 7.45l18.1-3M-32.349.95l28.6-4.65"/><path fill="#8F897D" stroke="#1A344F" stroke-width="2.5" stroke-linecap="round" stroke-linejoin="round" d="M28.501-13.25q-3.35 0-4.7.6-1.95.85-1.95 3.35 0 2.75 1.95 4.65 1.95 1.95 4.7 1.95t4.7-1.95q1.95-1.9 1.95-4.65 0-2.5-1.95-3.35-1.35-.6-4.7-.6M-25.199-18.3q0-2.05-1.45-3.5-1.4-1.45-3.45-1.45-2.05 0-3.45 1.45-1.45 1.45-1.45 3.5 0 1.85 1.45 2.45 1 .45 3.45.45t3.45-.45q1.45-.6 1.45-2.45M5.301 18.35q0-2-1.45-3.45-1.4-1.45-3.45-1.45-1.85 0-2.5 1.45-.45 1-.45 3.45 0 2.5.45 3.5.65 1.45 2.5 1.45 2.05 0 3.45-1.45 1.45-1.45 1.45-3.5"/></g><animate attributeName="display" repeatCount="indefinite" dur="1.417s" keyTimes="0;0.706;1" values="none;inline;inline"/></g><g transform="matrix(.993 0 0 .993 341.1 180.55)"><animateTransform attributeName="transform" additive="replace" type="translate" dur="1.417s" keyTimes="0;1" values="0,0;0,0" fill="freeze"/><animateTransform attributeName="transform" additive="sum" type="translate" repeatCount="indefinite" dur="1.417s" keyTimes="0;0.029;0.059;0.088;0.118;0.147;0.176;0.206;0.235;0.265;0.294;0.323;0.353;0.382;0.412;0.441;0.47;0.5;0.529;0.559;0.588;0.618;0.647;0.676;0.706;0.735;0.765;0.794;0.823;0.852;0.853;1" values="447.897,356.807;448.1,356.693;448.371,356.526;448.607,356.456;448.808,356.322;449.065,356.305;449.29,356.125;449.47,356.017;445.031,354.045;440.544,352.091;436.09,350.182;431.581,348.115;440.807,353.428;450.02,358.621;459.18,363.767;468.357,369.051;477.589,374.227;481.876,372.131;486.202,370.042;490.49,367.847;494.867,365.878;499.084,363.773;503.398,361.647;507.694,359.595;511.959,357.441;490.356,358.34;468.726,359.316;447.097,360.191;425.503,361.177;403.947,362.083;0;0" calcMode="discrete"/><animateTransform attributeName="transform" additive="sum" type="translate" repeatCount="indefinite" dur="1.417s" keyTimes="0;0.853;0.882;0.912;0.941;0.97;0.999;1" values="0;403.947,362.083;413.193,361.402;422.522,360.656;431.817,359.895;441.095,359.104;450.347,358.357;450.347,358.357" calcMode="discrete"/><animateTransform attributeName="transform" additive="sum" type="rotate" repeatCount="indefinite" dur="1.417s" keyTimes="0;0.029;0.059;0.088;0.118;0.147;0.176;0.206;0.235;0.265;0.294;0.323;0.353;0.382;0.412;0.441;0.47;0.5;0.529;0.559;0.588;0.618;0.647;0.676;0.706;0.735;0.765;0.794;0.823;0.852;0.853;1" values="0,0,0;-1.009,0,0;-2.018,0,0;-3.027,0,0;-4.036,0,0;-5.045,0,0;-6.055,0,0;-7.249,0,0;-0.765,0,0;5.534,0,0;12.027,0,0;18.513,0,0;20.561,0,0;22.786,0,0;24.826,0,0;27.055,0,0;29.2,0,0;28.07,0,0;27.044,0,0;25.83,0,0;24.806,0,0;23.593,0,0;22.566,0,0;21.542,0,0;20.472,0,0;23.536,0,0;26.558,0,0;29.58,0,0;32.603,0,0;35.751,0,0;0;0" calcMode="discrete"/><animateTransform attributeName="transform" additive="sum" type="rotate" repeatCount="indefinite" dur="1.417s" keyTimes="0;0.853;0.882;0.912;0.941;0.97;0.999;1" values="0;35.751,0,0;28.567,0,0;21.325,0,0;14.275,0,0;7.039,0,0;0,0,0;0,0,0" calcMode="discrete"/><animateTransform attributeName="transform" additive="sum" type="scale" repeatCount="indefinite" dur="1.417s" keyTimes="0;0.118;0.147;0.176;0.206;0.235;0.265;0.294;0.323;0.353;0.441;0.47;0.5;0.588;0.618;0.676;0.706;0.735;0.823;0.852;0.853;1" values="0.993,0.993;0.993,0.993;0.992,0.992;0.992,0.992;0.993,0.993;0.993,0.993;0.992,0.992;0.991,0.991;0.992,0.992;0.99,0.99;0.99,0.99;0.992,0.992;0.99,0.99;0.99,0.99;0.991,0.991;0.991,0.991;0.992,0.992;0.99,0.99;0.99,0.99;0.991,0.991;1;1" calcMode="discrete"/><animateTransform attributeName="transform" additive="sum" type="scale" repeatCount="indefinite" dur="1.417s" keyTimes="0;0.853;0.882;0.912;0.941;0.97;0.999;1" values="1;0.991,0.991;0.99,0.99;0.99,0.99;0.991,0.991;0.992,0.992;0.993,0.993;0.993,0.993" calcMode="discrete"/><animateTransform attributeName="transform" additive="sum" type="translate" repeatCount="indefinite" dur="1.417s" keyTimes="0;0.029;0.059;0.088;0.118;0.147;0.176;0.206;0.235;0.265;0.294;0.323;0.353;0.382;0.412;0.441;0.47;0.5;0.529;0.559;0.588;0.618;0.647;0.676;0.706;0.735;0.765;0.794;0.823;0.852;0.853;1" values="-107.55,-177.5;-107.4,-177.45;-107.55,-177.45;-107.5,-177.55;-107.6,-177.5;-107.55,-177.5;-107.6,-177.45;-107.55,-177.55;-107.55,-177.55;-107.6,-177.55;-107.5,-177.55;-107.45,-177.6;-107.5,-177.55;-107.45,-177.65;-107.5,-177.55;-107.5,-177.5;-107.5,-177.55;-107.4,-177.6;-107.45,-177.55;-107.35,-177.5;-107.55,-177.5;-107.5,-177.55;-107.55,-177.6;-107.55,-177.55;-107.5,-177.55;-107.5,-177.6;-107.55,-177.55;-107.45,-177.55;-107.5,-177.6;-107.5,-177.6;0;0" calcMode="discrete"/><animateTransform attributeName="transform" additive="sum" type="translate" repeatCount="indefinite" dur="1.417s" keyTimes="0;0.853;0.882;0.912;0.941;0.97;0.999;1" values="0;-107.5,-177.6;-107.5,-177.65;-107.5,-177.6;-107.6,-177.65;-107.55,-177.55;-107.55,-177.5;-107.55,-177.5" calcMode="discrete"/><path fill="#E9AF90" stroke="#19344F" stroke-width="2.5" stroke-linecap="round" stroke-linejoin="round" d="M-26.399 34.5l-13.3 37.25 31.2 28.4 5.2-5.7-27.4-24.95 11.6-32.4-7.3-2.6"/><path fill="#CBCAC9" d="M-18.999 37.15l.25-1-9.65-2.4-1.65-.55-.05.15-16.55-4.05-1.3-3.3-4.7 1.85-1.1-.25-.2.75-2.5 3.95-5.25 25.55 16.4-16.3 11.3 2.8-8.45 23.65q-.8 2.2-.25 4.5.6 2.3 2.3 3.85l14.65 13.35 10.4-11.45-10.85-9.85 10.7-30-3.5-1.25"/><path fill="none" stroke="#19344F" stroke-width="2.5" stroke-linecap="round" stroke-linejoin="round" d="M-18.999 37.15l.25-1-9.65-2.4-1.65-.55-.05.15-16.55-4.05-1.3-3.3-4.7 1.85-1.1-.25-.2.75m34.95 8.8l3.5 1.25-10.7 30 10.85 9.85-10.4 11.45-14.65-13.35q-1.7-1.55-2.3-3.85-.55-2.3.25-4.5l8.45-23.65-11.3-2.8-16.4 16.3 5.25-25.55"/><path fill="#FFF" stroke="#19344F" stroke-width="2.5" stroke-linecap="round" stroke-linejoin="round" d="M-23.599 96.25q-2.45 2-2.85 5.15l18.7 2.2 9.05-7.2-5.8-5.25-5.5 4.4-7.9-.9q-3.2-.35-5.7 1.6"/><path fill="#E9AF90" d="M-9.149 1.1l1.1-7.65h-.1q-1.6-.2-2.8.75-1.25 1-1.45 2.55-.2 1.6.75 2.85.95 1.3 2.5 1.5"/><path fill="none" stroke="#19344F" stroke-width="2.5" stroke-linecap="round" stroke-linejoin="round" d="M-10.949-5.8q1.2-.95 2.8-.75m-2.8.75q-1.25 1-1.45 2.55-.2 1.6.75 2.85.95 1.3 2.5 1.5"/><path fill="#B1AEB2" d="M-19.499 48.2l4-9.8-42.55-8.95 38.55 18.75"/><path fill="#43566B" d="M-45.699-18l-5.6 15.45-6.75 34 45.3 9.55 8.45-43.65q.4-2.6-.95-4.85-1.35-2.25-3.8-3.15l-15.45-5.55-21.2-1.8"/><path fill="none" stroke="#19344F" stroke-width="2.5" stroke-linecap="round" stroke-linejoin="round" d="M-45.699-18l21.2 1.8 15.45 5.55q2.45.9 3.8 3.15 1.35 2.25.95 4.85L-12.749 41l-45.3-9.55 6.75-34"/><path fill="#ECECEC" stroke="#19344F" stroke-width="2.5" stroke-linecap="round" stroke-linejoin="round" d="M-35.549-17.25l-3.25-.2-5.7 49.75 20.3 4.45 10.1-49.2-14.1-5.45-7.35.65"/><path fill="#E9AF90" stroke="#19344F" stroke-width="2.5" stroke-linecap="round" stroke-linejoin="round" d="M-31.649-7.7q1.6 1.5 3.8 1.45h.95q2.2-.05 3.75-1.6 1.5-1.6 1.5-3.8l-.15-8.85-11.6.2.15 8.85q.05 2.2 1.6 3.75"/><path fill="#997254" d="M-29.399-92.3q-11.5 6.25-15.2 18.75-3.7 12.5 2.55 23.95 6.2 11.5 18.7 15.2 12.5 3.7 24-2.5 11.5-6.25 15.2-18.75 3.7-12.5-2.55-24-6.2-11.5-18.75-15.2-12.5-3.7-23.95 2.55"/><path fill="none" stroke="#19344F" stroke-width="2.5" stroke-linecap="round" stroke-linejoin="round" d="M-29.399-92.3q-11.5 6.25-15.2 18.75-3.7 12.5 2.55 23.95 6.2 11.5 18.7 15.2 12.5 3.7 24-2.5 11.5-6.25 15.2-18.75 3.7-12.5-2.55-24-6.2-11.5-18.75-15.2-12.5-3.7-23.95 2.55"/><path fill="none" stroke="#19344F" stroke-width="2.5" stroke-linecap="round" stroke-linejoin="round" d="M-29.399-92.3q-11.5 6.25-15.2 18.75-3.7 12.5 2.55 23.95 6.2 11.5 18.7 15.2 12.5 3.7 24-2.5 11.5-6.25 15.2-18.75 3.7-12.5-2.55-24-6.2-11.5-18.75-15.2-12.5-3.7-23.95 2.55"/><path fill="#ED9872" d="M-39.449-45.15q.85-2.85-.55-5.45-1.45-2.6-4.3-3.45-2.8-.85-5.4.6-2.65 1.4-3.5 4.25-.8 2.85.6 5.45t4.25 3.45q2.85.85 5.45-.6 2.65-1.4 3.45-4.25"/><path fill="#E9AF90" stroke="#19344F" stroke-width="2.5" stroke-linecap="round" stroke-linejoin="round" d="M-40.049-45.3q.85-2.85-.55-5.45-1.45-2.65-4.3-3.5-2.8-.85-5.4.6-2.65 1.4-3.5 4.25-.85 2.85.6 5.45 1.4 2.65 4.25 3.45 2.85.85 5.45-.55 2.6-1.45 3.45-4.25"/><path fill="#ED9872" d="M10.451-30.35q.85-2.85-.55-5.45-1.45-2.65-4.3-3.5-2.85-.8-5.45.6t-3.45 4.25q-.85 2.85.6 5.45 1.4 2.65 4.25 3.45 2.85.85 5.45-.55 2.6-1.45 3.45-4.25"/><path fill="#E9AF90" stroke="#19344F" stroke-width="2.5" stroke-linecap="round" stroke-linejoin="round" d="M10.451-30.35q.85-2.85-.55-5.45-1.45-2.65-4.3-3.5-2.85-.8-5.45.6t-3.45 4.25q-.85 2.85.6 5.45 1.4 2.65 4.25 3.45 2.85.85 5.45-.55 2.6-1.45 3.45-4.25"/><path fill="#E9AF90" d="M-2.049-75.9l-16.5-4.9q-6.8-2-13.05 1.4-6.25 3.35-8.3 10.2l-5.7 19.25q-3.05 10.25 2.05 19.65 5.1 9.35 15.35 12.4 10.25 3.05 19.65-2.05 9.35-5.1 12.4-15.35l5.7-19.25q2.05-6.8-1.35-13.05-3.4-6.25-10.25-8.3"/><path fill="none" stroke="#19344F" stroke-width="2.5" stroke-linecap="round" stroke-linejoin="round" d="M-2.049-75.9l-16.5-4.9q-6.8-2-13.05 1.4-6.25 3.35-8.3 10.2l-5.7 19.25q-3.05 10.25 2.05 19.65 5.1 9.35 15.35 12.4 10.25 3.05 19.65-2.05 9.35-5.1 12.4-15.35l5.7-19.25q2.05-6.8-1.35-13.05-3.4-6.25-10.25-8.3"/><path fill="#C99477" d="M-44.349-56.35q-.15.6-2.4 20.25 7.05 17.2 22.25 18.9 7.6.85 13.8-1.75-27.3-7.95-28.8-32.3-.7-12.15 4-22.75-6.3 4.7-8.85 17.65"/><path fill="none" stroke="#19344F" stroke-width="2.5" stroke-linecap="round" stroke-linejoin="round" d="M-2.049-75.9l-16.5-4.9q-6.8-2-13.05 1.4-6.25 3.35-8.3 10.2l-5.7 19.25q-3.05 10.25 2.05 19.65 5.1 9.35 15.35 12.4 10.25 3.05 19.65-2.05 9.35-5.1 12.4-15.35l5.7-19.25q2.05-6.8-1.35-13.05-3.4-6.25-10.25-8.3"/><path fill="none" stroke="#19344F" stroke-width="2.5" stroke-linecap="round" stroke-linejoin="round" d="M-17.749-41.1q-1.05.6-2.15.25l-2.75-.8q-1.15-.35-1.7-1.4-.6-1.05-.25-2.2m6.85 4.15q1.05-.55 1.4-1.7"/><path fill="#997254" d="M-44.499-89.15q2.4 7.25 7.8 12.6 5.6 5.5 13.2 7.75 8.25 2.45 16.55.35 8.05-2 14.1-7.75-2-8.05-7.65-14.15-5.85-6.25-14.05-8.7-7.6-2.25-15.3-.65-7.45 1.55-13.4 6.3-.95.75-1.3 1.9-.3 1.2.05 2.35"/><path fill="none" stroke="#19344F" stroke-width="2.5" stroke-linecap="round" stroke-linejoin="round" d="M-44.499-89.15q2.4 7.25 7.8 12.6 5.6 5.5 13.2 7.75 8.25 2.45 16.55.35 8.05-2 14.1-7.75-2-8.05-7.65-14.15-5.85-6.25-14.05-8.7-7.6-2.25-15.3-.65-7.45 1.55-13.4 6.3-.95.75-1.3 1.9-.3 1.2.05 2.35"/><path fill="#7F593D" d="M-24.749-100.3q-9.95 1.7-15.9 5.75-1.9 1.25-3.15 2.6l-.85 1.1q5.4 15.1 19.5 20.7 7.05 2.8 13.05 2.55-15.15-9.2-15.4-21.85-.15-6.35 2.75-10.85"/><path fill="none" stroke="#19344F" stroke-width="2.5" stroke-linecap="round" stroke-linejoin="round" d="M-44.499-89.15q2.4 7.25 7.8 12.6 5.6 5.5 13.2 7.75 8.25 2.45 16.55.35 8.05-2 14.1-7.75m-51.65-12.95q-.35-1.15-.05-2.35.35-1.15 1.3-1.9 5.95-4.75 13.4-6.3 7.7-1.6 15.3.65 5.9 1.75 10.65 5.55 4.65 3.7 7.6 8.85M.251-79.8l1.1 2.4"/><path fill="none" stroke="#19344F" stroke-width="2.5" stroke-linecap="round" stroke-linejoin="round" d="M-8.549-90.7q3.95 3.2 6.85 7.65m-6.85-7.65l-3.4-2.35"/><path fill="#E56C6C" stroke="#19344F" stroke-width="2.5" stroke-linecap="round" stroke-linejoin="round" d="M-24.249-9.8l-6-.65-2 4.3 2.45 4.8 3 .35 3.5-4.15-.95-4.65"/><path fill="#E56C6C" stroke="#19344F" stroke-width="2.5" stroke-linecap="round" stroke-linejoin="round" d="M-26.799-1l-3-.35-8 43 4 5 5-3.95 2-43.7"/><path fill="#E9AF90" d="M-67.099 11.8l-1.4-8.1-14.25 11.05q-2.35-1.7-5.3-1.35-2.9.3-4.85 2.5-2.15 2.4-1.95 5.6.15 3.15 2.55 5.3 2.35 2.15 5.55 1.95 3.2-.15 5.35-2.55 1.65-1.8 1.9-4.4l12.4-10"/><path fill="none" stroke="#19344F" stroke-width="2.5" stroke-linecap="round" stroke-linejoin="round" d="M-82.749 14.75l14.25-11.05m-14.25 11.05q-2.35-1.7-5.3-1.35-2.9.3-4.85 2.5-2.15 2.4-1.95 5.6.15 3.15 2.55 5.3 2.35 2.15 5.55 1.95 3.2-.15 5.35-2.55 1.65-1.8 1.9-4.4l12.4-10"/><path fill="#43566B" d="M-78.549 8.6l7.6 12.9 20.05-18.1 4.5-21.15-12.75 11.3-19.4 15.05"/><path fill="none" stroke="#19344F" stroke-width="2.5" stroke-linecap="round" stroke-linejoin="round" d="M-70.949 21.5l-7.6-12.9 19.4-15.05 12.75-11.3m-24.55 39.25l20.05-18.1M-91.349 50.4q3.75 27.5 17.7 46.95m-17.7-46.95q-1.85-13.75-.95-23.6M-80.249 33.05q3.15 10.85 13.15 30.8m-13.15-30.8q-1.55-5.4-1.15-6.85"/><use xlink:href="#a"/><use xlink:href="#b"/><use xlink:href="#c"/><use xlink:href="#d"/><use xlink:href="#e"/><use xlink:href="#f"/><use xlink:href="#g"/><use xlink:href="#h"/></g><g transform="matrix(.993 0 0 .993 361.35 256.7)"><animateTransform attributeName="transform" additive="replace" type="translate" dur="1.417s" keyTimes="0;1" values="0,0;0,0" fill="freeze"/><animateTransform attributeName="transform" additive="sum" type="translate" repeatCount="indefinite" dur="1.417s" keyTimes="0;0.029;0.059;0.088;0.118;0.147;0.176;0.206;0.235;0.265;0.294;0.323;0.353;0.382;0.412;0.441;0.47;0.5;0.529;0.559;0.588;0.618;0.647;0.676;0.706;0.735;0.765;0.794;0.823;0.852;0.853;1" values="447.84,356.695;447.854,355.572;447.789,354.295;447.798,353.052;447.777,351.801;447.876,350.686;447.894,349.369;447.856,348.17;435.35,350.463;422.879,352.754;410.525,355.004;398.11,357.246;385.619,359.515;373.137,361.783;360.775,364.029;348.362,366.433;335.851,368.691;335.919,367.977;335.912,367.244;335.834,366.519;335.87,365.811;335.862,365.204;335.978,364.561;335.873,363.82;335.829,363.155;347.21,362.647;358.686,362.104;370.123,361.721;381.528,361.203;393.072,360.754;0;0" calcMode="discrete"/><animateTransform attributeName="transform" additive="sum" type="translate" repeatCount="indefinite" dur="1.417s" keyTimes="0;0.853;0.882;0.912;0.941;0.97;0.999;1" values="0;393.072,360.754;404.491,360.205;415.857,359.748;427.412,359.272;438.87,358.74;450.29,358.294;450.29,358.294" calcMode="discrete"/><animateTransform attributeName="transform" additive="sum" type="rotate" repeatCount="indefinite" dur="1.417s" keyTimes="0;0.029;0.059;0.088;0.118;0.147;0.176;0.206;0.235;0.265;0.294;0.323;0.353;0.382;0.412;0.441;0.47;0.5;0.529;0.559;0.588;0.618;0.647;0.676;0.706;0.735;0.765;0.794;0.823;0.852;0.853;1" values="0,0,0;-0.505,0,0;-1.012,0,0;-1.518,0,0;-2.024,0,0;-2.531,0,0;-3.037,0,0;-3.672,0,0;5.784,0,0;15.308,0,0;24.841,0,0;34.571,0,0;44.115,0,0;53.658,0,0;63.199,0,0;72.922,0,0;82.308,0,0;82.721,0,0;82.994,0,0;83.453,0,0;83.725,0,0;84.186,0,0;84.457,0,0;84.729,0,0;85.016,0,0;76.679,0,0;68.163,0,0;59.642,0,0;51.116,0,0;42.588,0,0;0;0" calcMode="discrete"/><animateTransform attributeName="transform" additive="sum" type="rotate" repeatCount="indefinite" dur="1.417s" keyTimes="0;0.853;0.882;0.912;0.941;0.97;0.999;1" values="0;42.588,0,0;34.059,0,0;25.535,0,0;17.016,0,0;8.503,0,0;0,0,0;0,0,0" calcMode="discrete"/><animateTransform attributeName="transform" additive="sum" type="skewY" repeatCount="indefinite" dur="1.417s" keyTimes="0;0.029;0.059;0.088;0.118;0.147;0.176;0.206;0.235;0.265;0.294;0.323;0.353;0.382;0.412;0.441;0.47;0.5;0.529;0.559;0.588;0.618;0.647;0.676;0.706;0.735;0.765;0.794;0.823;0.852;0.853;1" values="0;-0.503;-1.008;-1.513;-2.017;-2.521;-3.025;-3.615;-3.534;-3.54;-3.546;-3.74;-3.745;-3.746;-3.56;-3.747;-3.725;-3.48;-3.025;-2.757;-2.488;-2.222;-1.765;-1.497;-1.169;-1.202;-0.986;-0.958;-0.741;-0.713;0;0" calcMode="discrete"/><animateTransform attributeName="transform" additive="sum" type="skewY" repeatCount="indefinite" dur="1.417s" keyTimes="0;0.853;0.882;0.912;0.941;0.97;0.999;1" values="0;-0.713;-0.492;-0.463;-0.247;-0.217;0;0" calcMode="discrete"/><animateTransform attributeName="transform" additive="sum" type="scale" repeatCount="indefinite" dur="1.417s" keyTimes="0;0.029;0.059;0.088;0.118;0.147;0.176;0.206;0.235;0.265;0.294;0.323;0.353;0.382;0.412;0.441;0.47;0.5;0.676;0.706;0.735;0.823;0.852;0.853;1" values="0.993,0.993;0.994,0.992;0.995,0.991;0.996,0.99;0.997,0.989;0.998,0.989;0.998,0.988;0.999,0.987;0.998,0.987;0.996,0.987;0.995,0.987;0.993,0.988;0.992,0.988;0.991,0.989;0.99,0.989;0.989,0.99;0.989,0.992;0.989,0.991;0.989,0.991;0.99,0.992;0.989,0.991;0.989,0.991;0.99,0.991;1;1" calcMode="discrete"/><animateTransform attributeName="transform" additive="sum" type="scale" repeatCount="indefinite" dur="1.417s" keyTimes="0;0.853;0.882;0.912;0.941;0.97;0.999;1" values="1;0.99,0.991;0.99,0.991;0.991,0.991;0.991,0.992;0.992,0.992;0.993,0.993;0.993,0.993" calcMode="discrete"/><animateTransform attributeName="transform" additive="sum" type="translate" repeatCount="indefinite" dur="1.417s" keyTimes="0;0.029;0.059;0.088;0.118;0.147;0.176;0.206;0.235;0.265;0.294;0.323;0.353;0.382;0.412;0.441;0.47;0.5;0.529;0.559;0.588;0.618;0.647;0.676;0.706;0.735;0.765;0.794;0.823;0.852;0.853;1" values="-87.1,-100.7;-87.1,-100.7;-87.05,-100.65;-87.05,-100.7;-87.05,-100.7;-87.1,-100.75;-87.1,-100.65;-87.1,-100.7;-87.05,-100.75;-87.05,-100.7;-87.1,-100.7;-87.15,-100.7;-87.1,-100.7;-87.05,-100.7;-87.05,-100.65;-87.2,-100.65;-87.2,-100.85;-87.25,-100.75;-87.15,-100.75;-87.15,-100.8;-87.1,-100.8;-87.2,-100.8;-87.2,-100.75;-87.2,-100.75;-87.15,-100.85;-87.1,-100.85;-87.1,-100.9;-87.15,-100.9;-87.1,-100.95;-87.2,-100.9;0;0" calcMode="discrete"/><animateTransform attributeName="transform" additive="sum" type="translate" repeatCount="indefinite" dur="1.417s" keyTimes="0;0.853;0.882;0.912;0.941;0.97;0.999;1" values="0;-87.2,-100.9;-87.15,-100.85;-87.05,-100.9;-87.15,-100.85;-87.15,-100.85;-87.1,-100.75;-87.1,-100.75" calcMode="discrete"/><path fill="#908A7D" d="M-22.399 101.75q-6.1-2.05-11.65 1.35-5.5 3.4-6.4 9.75l-6.65 46.3 20.4 6.85 5.3-38.8 6.95 2.35q11.15 3.75 21.7-1.5 10.55-5.2 14.3-16.35l-33.7-20.55-4.25 12.6-6-2"/><path fill="none" stroke="#1A344F" stroke-width="2.5" stroke-linecap="round" stroke-linejoin="round" d="M-22.399 101.75q-6.1-2.05-11.65 1.35-5.5 3.4-6.4 9.75l-6.65 46.3 20.4 6.85 5.3-38.8 6.95 2.35q11.15 3.75 21.7-1.5 10.55-5.2 14.3-16.35m-43.95-9.95l6 2 4.25-12.6M-64.499 117.7q-4.5-.1-7.75 3.05m7.75-3.05q4.5.1 7.65 3.35 3.1 3.25 3 7.8-.1 4.5-3.35 7.6-3.25 3.1-7.75 3-4.55-.1-7.65-3.35"/><path fill="#FFF" d="M-112.899 64.75q-2.1-3.55-5.9-3-9.15-.1-19.4 4.75-20.45 9.65-25.9 34.2 1.15.4 14.2-8.3 15.15-8.7 26.35-7.95 5.35.35 8.7-3.35 2.9-3.2 3.45-8.2.45-4.8-1.5-8.15"/><path fill="none" stroke="#1A344F" stroke-width="2.5" stroke-linecap="round" stroke-linejoin="round" d="M-112.899 64.75q-2.1-3.55-5.9-3-9.15-.1-19.4 4.75-20.45 9.65-25.9 34.2 1.15.4 14.2-8.3 15.15-8.7 26.35-7.95 5.35.35 8.7-3.35 2.9-3.2 3.45-8.2.45-4.8-1.5-8.15"/><path fill="#908A7D" d="M53.801 32.2q2.2-8.8.55-13.85l-24.5 49.95q19.45-18.55 23.95-36.1"/><path fill="none" stroke="#1A344F" stroke-width="2.5" stroke-linecap="round" stroke-linejoin="round" d="M54.351 18.35q1.65 5.05-.55 13.85-4.5 17.55-23.95 36.1"/><path fill="#908A7D" d="M-38.599 102.7q-4.5-17.25-5.75-18.6-1.25-1.3-21.5-9.85l-11.75 18.85 22.15 23.15q15.85-12.6 16.85-13.55"/><path fill="none" stroke="#1A344F" stroke-width="2.5" stroke-linecap="round" stroke-linejoin="round" d="M-38.599 102.7q-4.5-17.25-5.75-18.6-1.25-1.3-21.5-9.85l-11.75 18.85 22.15 23.15q15.85-12.6 16.85-13.55"/><path fill="#7B766C" d="M115.301-86.35q-6.4.9-9.8 6.4-3.4 5.5-1.4 11.65l2 6-42.6 14.15q3.45 11.8 1.25 29.8-4.35 36.1-32.65 67.45l81.75-73.45q11.15-3.7 16.45-14.25 5.25-10.5 1.55-21.65l-2.3-6.95 41.6-4.4-6.75-20.45-49.1 5.7"/><path fill="none" stroke="#1A344F" stroke-width="2.5" stroke-linecap="round" stroke-linejoin="round" d="M105.501-79.95q3.4-5.5 9.8-6.4l49.1-5.7 6.75 20.45-41.6 4.4 2.3 6.95q3.7 11.15-1.55 21.65-5.3 10.55-16.45 14.25m-8.35-55.6q-3.4 5.5-1.4 11.65l2 6-42.6 14.15q3.45 11.8 1.25 29.8-4.35 36.1-32.65 67.45"/><path fill="#908A7D" d="M126.501-6.25l5.3-5.05 21.25 32.85 15.6-14.85-25.7-39.1q-3.5-5.4-9.95-6.15-6.45-.7-11.1 3.75l-4.6 4.35-31-32.45q-9.2 6.1-26.5 10.85-34.55 9.4-74.9 2.45-26.1-4.5-50.55 15.7-19.55 16.15-37.15 47.3-12.55 22.3-22.9 49.8l-7.8 23.1 24.05 25.2 13.6.3 30.7 32.1 12.45-11.85q3.4-3.25 4.65-7.75 1.2-4.35.15-8.75-1.1-4.55-4.3-7.8l-12.1-12.65 5.95-5.7q2.21-2.129 3.85-4.5l6.6 30.65q16.75 8.7 35.15-2.7 9.15-5.65 15-13.1l59.6-56.9q19.45-18.6 23.95-36.15 2.2-8.8.55-13.85 8.1 8.5 19.85 8.8 11.8.25 20.3-7.9m-181 91.15l6.6 30.65q-1.1-4.55-4.3-7.8l-12.1-12.65 5.95-5.7q2.21-2.129 3.85-4.5"/><path fill="#868174" d="M158.451 11.4l2.05 1.15 7.35-7.05q-4.8-10.95-11.85-21.95-14.05-21.95-25.1-22.15-5.6 2.4-9.1 6.25l-2.4 3.4-33.1-33.95-18.75 10.3 3.7 5.45q4.65 6.55 9.55 11.8 15.75 16.85 28.1 14.85 8.85-1.45 13.6-1.35 6.7.1 11.95 2.8 11.8 6 24 30.45M-54.349 83.1q-2.5 4.75-6.45 8.85l-3.5 3.15q12.1 12.65 10.95 11.4 15.2-22.85 7.65-41.05-3.75-9.1-10.6-13.65 9.9 16.05 1.95 31.3"/><path fill="none" stroke="#1A344F" stroke-width="2.5" stroke-linecap="round" stroke-linejoin="round" d="M131.801-11.3l21.25 32.85 15.6-14.85-25.7-39.1q-3.5-5.4-9.95-6.15-6.45-.7-11.1 3.75l-4.6 4.35-31-32.45q-9.2 6.1-26.5 10.85-34.55 9.4-74.9 2.45-26.1-4.5-50.55 15.7-19.55 16.15-37.15 47.3-12.55 22.3-22.9 49.8l-7.8 23.1 24.05 25.2 13.6.3 30.7 32.1 12.45-11.85q3.4-3.25 4.65-7.75 1.2-4.35.15-8.75 16.75 8.7 35.15-2.7 9.15-5.65 15-13.1l59.6-56.9q19.45-18.6 23.95-36.15 2.2-8.8.55-13.85 8.1 8.5 19.85 8.8 11.8.25 20.3-7.9l5.3-5.05"/><path fill="none" stroke="#1A344F" stroke-width="2.5" stroke-linecap="round" stroke-linejoin="round" d="M-47.899 115.55q-1.1-4.55-4.3-7.8l-12.1-12.65 5.95-5.7q8.2-7.9 8.45-19.25.25-11.4-7.6-19.65l-5.7-5.95"/><path fill="#868174" d="M-81.899 35.3q-.65 4-2.6 8.1l-1.8 3.3 3.95 1.05q11.05-16.45 2.15-26.25-2.75-3.05-7.2-5.1l-3.9-1.4q11.55 7.4 9.4 20.3"/><path fill="none" stroke="#1A344F" stroke-width="2.5" stroke-linecap="round" stroke-linejoin="round" d="M-83.499 41.75l-1.55 2.8m1.55-2.8q3.9-7.15 1.6-15-2.25-7.8-9.4-11.75l-16.75 30.55"/><path fill="#FFF" d="M-112.899 52.65q-8.1-4.3-19.4-4.7-22.6-.9-38.75 18.4.85.9 16.45-.85 17.45-.75 27.05 5.1 4.6 2.8 9.25 1.05 4.05-1.5 6.85-5.75 2.65-4 2.45-7.85-.25-4.15-3.9-5.4"/><path fill="none" stroke="#1A344F" stroke-width="2.5" stroke-linecap="round" stroke-linejoin="round" d="M-112.899 52.65q-8.1-4.3-19.4-4.7-22.6-.9-38.75 18.4.85.9 16.45-.85 17.45-.75 27.05 5.1 4.6 2.8 9.25 1.05 4.05-1.5 6.85-5.75 2.65-4 2.45-7.85-.25-4.15-3.9-5.4M95.451-171.7q-4.9-4.45-11.55-4.15-6.65.35-11.1 5.25-4.45 4.9-4.15 11.55.3 6.6 5.2 11.05l23.05 21q7.75 7.05 9.45 13.85 1.95 7.75-4.2 14.5-6.9 6-12.35 13.45-10.9 14.95-3.5 22.3m9.15-108.8l15.25 13.85"/><path fill="#C0B8AA" d="M105.601-174.05q-4.5.2-7.5 3.55-3 3.3-2.8 7.8.2 4.45 3.5 7.45 4.1 3.7 11.7 6.3 8.6 3 11.35 0 2.7-3-1.1-11.3-3.35-7.35-7.4-11-3.3-3-7.75-2.8"/><path fill="#958E7E" d="M96.851-162.5q1 7.85 9.4 11.85 10.6 5 15.2 1.25 4.9-3.95-2.8-14.9-2.25 1.15-5.95.95-7.4-.45-14.6-7.15-.55.6-1 2.7-.6 2.65-.25 5.3"/><path fill="none" stroke="#1A344F" stroke-width="2.5" stroke-linecap="round" stroke-linejoin="round" d="M105.601-174.05q-4.5.2-7.5 3.55-3 3.3-2.8 7.8.2 4.45 3.5 7.45 4.1 3.7 11.7 6.3 8.6 3 11.35 0 2.7-3-1.1-11.3-3.35-7.35-7.4-11-3.3-3-7.75-2.8"/><path fill="#FFF" d="M-110.849 89.7q-.1 3.15 2.05 5.45 3.3 3.4 7.8 2 4.7-1.45 5.55-7.05-.6-5.65-5.25-7.35-4.45-1.6-7.85 1.65-2.25 2.15-2.3 5.3"/><path fill="none" stroke="#1A344F" stroke-width="2.5" stroke-linecap="round" stroke-linejoin="round" d="M-110.849 89.7q-.1 3.15 2.05 5.45 3.3 3.4 7.8 2 4.7-1.45 5.55-7.05-.6-5.65-5.25-7.35-4.45-1.6-7.85 1.65-2.25 2.15-2.3 5.3M-103.449 82.35l1.25-20.9"/><path fill="#908A7D" d="M-28.999 117.95q-4.25 4.9-3.25 11.3l7.4 46.15 21.55.5-6.45-38.65 7.3.15q11.75.3 20.3-7.85 8.5-8.1 8.75-19.9l-38.3-9.55-.3 13.3-6.3-.15q-6.45-.15-10.7 4.7"/><path fill="#908A7D" d="M-28.999 117.95q-4.25 4.9-3.25 11.3l7.4 46.15 21.55.5-6.45-38.65 7.3.15q11.75.3 20.3-7.85 8.5-8.1 8.75-19.9v-35.4l-38.3 25.85-.3 13.3-6.3-.15q-6.45-.15-10.7 4.7"/><path fill="none" stroke="#1A344F" stroke-width="2.5" stroke-linecap="round" stroke-linejoin="round" d="M-28.999 117.95q-4.25 4.9-3.25 11.3l7.4 46.15 21.55.5-6.45-38.65 7.3.15q11.75.3 20.3-7.85 8.5-8.1 8.75-19.9v-35.4m-55.6 43.7q4.25-4.85 10.7-4.7l6.3.15.3-13.3"/></g><g transform="matrix(.993 0 0 .993 341.1 180.55)"><animateTransform attributeName="transform" additive="replace" type="translate" dur="1.417s" keyTimes="0;1" values="0,0;0,0" fill="freeze"/><animateTransform attributeName="transform" additive="sum" type="translate" repeatCount="indefinite" dur="1.417s" keyTimes="0;0.029;0.059;0.088;0.118;0.147;0.176;0.206;0.235;0.265;0.294;0.323;0.353;0.382;0.412;0.441;0.47;0.5;0.529;0.559;0.588;0.618;0.647;0.676;0.706;0.735;0.765;0.794;0.823;0.852;0.853;1" values="447.897,356.807;448.1,356.693;448.371,356.526;448.607,356.456;448.808,356.322;449.065,356.305;449.29,356.125;449.47,356.017;445.031,354.045;440.544,352.091;436.09,350.182;431.581,348.115;440.807,353.428;450.02,358.621;459.18,363.767;468.357,369.051;477.589,374.227;481.876,372.131;486.202,370.042;490.49,367.847;494.867,365.878;499.084,363.773;503.398,361.647;507.694,359.595;511.959,357.441;490.356,358.34;468.726,359.316;447.097,360.191;425.503,361.177;403.947,362.083;0;0" calcMode="discrete"/><animateTransform attributeName="transform" additive="sum" type="translate" repeatCount="indefinite" dur="1.417s" keyTimes="0;0.853;0.882;0.912;0.941;0.97;0.999;1" values="0;403.947,362.083;413.193,361.402;422.522,360.656;431.817,359.895;441.095,359.104;450.347,358.357;450.347,358.357" calcMode="discrete"/><animateTransform attributeName="transform" additive="sum" type="rotate" repeatCount="indefinite" dur="1.417s" keyTimes="0;0.029;0.059;0.088;0.118;0.147;0.176;0.206;0.235;0.265;0.294;0.323;0.353;0.382;0.412;0.441;0.47;0.5;0.529;0.559;0.588;0.618;0.647;0.676;0.706;0.735;0.765;0.794;0.823;0.852;0.853;1" values="0,0,0;-1.009,0,0;-2.018,0,0;-3.027,0,0;-4.036,0,0;-5.045,0,0;-6.055,0,0;-7.249,0,0;-0.765,0,0;5.534,0,0;12.027,0,0;18.513,0,0;20.561,0,0;22.786,0,0;24.826,0,0;27.055,0,0;29.2,0,0;28.07,0,0;27.044,0,0;25.83,0,0;24.806,0,0;23.593,0,0;22.566,0,0;21.542,0,0;20.472,0,0;23.536,0,0;26.558,0,0;29.58,0,0;32.603,0,0;35.751,0,0;0;0" calcMode="discrete"/><animateTransform attributeName="transform" additive="sum" type="rotate" repeatCount="indefinite" dur="1.417s" keyTimes="0;0.853;0.882;0.912;0.941;0.97;0.999;1" values="0;35.751,0,0;28.567,0,0;21.325,0,0;14.275,0,0;7.039,0,0;0,0,0;0,0,0" calcMode="discrete"/><animateTransform attributeName="transform" additive="sum" type="scale" repeatCount="indefinite" dur="1.417s" keyTimes="0;0.118;0.147;0.176;0.206;0.235;0.265;0.294;0.323;0.353;0.441;0.47;0.5;0.588;0.618;0.676;0.706;0.735;0.823;0.852;0.853;1" values="0.993,0.993;0.993,0.993;0.992,0.992;0.992,0.992;0.993,0.993;0.993,0.993;0.992,0.992;0.991,0.991;0.992,0.992;0.99,0.99;0.99,0.99;0.992,0.992;0.99,0.99;0.99,0.99;0.991,0.991;0.991,0.991;0.992,0.992;0.99,0.99;0.99,0.99;0.991,0.991;1;1" calcMode="discrete"/><animateTransform attributeName="transform" additive="sum" type="scale" repeatCount="indefinite" dur="1.417s" keyTimes="0;0.853;0.882;0.912;0.941;0.97;0.999;1" values="1;0.991,0.991;0.99,0.99;0.99,0.99;0.991,0.991;0.992,0.992;0.993,0.993;0.993,0.993" calcMode="discrete"/><animateTransform attributeName="transform" additive="sum" type="translate" repeatCount="indefinite" dur="1.417s" keyTimes="0;0.029;0.059;0.088;0.118;0.147;0.176;0.206;0.235;0.265;0.294;0.323;0.353;0.382;0.412;0.441;0.47;0.5;0.529;0.559;0.588;0.618;0.647;0.676;0.706;0.735;0.765;0.794;0.823;0.852;0.853;1" values="-107.55,-177.5;-107.4,-177.45;-107.55,-177.45;-107.5,-177.55;-107.6,-177.5;-107.55,-177.5;-107.6,-177.45;-107.55,-177.55;-107.55,-177.55;-107.6,-177.55;-107.5,-177.55;-107.45,-177.6;-107.5,-177.55;-107.45,-177.65;-107.5,-177.55;-107.5,-177.5;-107.5,-177.55;-107.4,-177.6;-107.45,-177.55;-107.35,-177.5;-107.55,-177.5;-107.5,-177.55;-107.55,-177.6;-107.55,-177.55;-107.5,-177.55;-107.5,-177.6;-107.55,-177.55;-107.45,-177.55;-107.5,-177.6;-107.5,-177.6;0;0" calcMode="discrete"/><animateTransform attributeName="transform" additive="sum" type="translate" repeatCount="indefinite" dur="1.417s" keyTimes="0;0.853;0.882;0.912;0.941;0.97;0.999;1" values="0;-107.5,-177.6;-107.5,-177.65;-107.5,-177.6;-107.6,-177.65;-107.55,-177.55;-107.55,-177.5;-107.55,-177.5" calcMode="discrete"/><path fill="#E9AF90" stroke="#19344F" stroke-width="2.5" stroke-linecap="round" stroke-linejoin="round" d="M-26.399 34.5l-13.3 37.25 31.2 28.4 5.2-5.7-27.4-24.95 11.6-32.4-7.3-2.6"/><path fill="#CBCAC9" d="M-19.05 37.15l.25-1-9.65-2.4-1.65-.55-.05.15-16.55-4.05L-48 26l-4.7 1.85-1.1-.25-.2.75-2.5 3.95 2.35 7.4 20.1 4.65L-42.5 68q-.8 2.2-.25 4.5.6 2.3 2.3 3.85L-25.8 89.7l10.4-11.45-10.85-9.85 10.7-30-3.5-1.25"/><path fill="none" stroke="#19344F" stroke-width="2.5" stroke-linecap="round" stroke-linejoin="round" d="M-30.1 33.2l-.05.15-16.55-4.05L-48 26l-4.7 1.85-1.1-.25-.2.75m23.9 4.85l1.65.55 9.65 2.4-.25 1 3.5 1.25-10.7 30 10.85 9.85-10.4 11.45-14.65-13.35q-1.7-1.55-2.3-3.85-.55-2.3.25-4.5l8.45-23.65-11.3-2.8"/><path fill="#FFF" stroke="#19344F" stroke-width="2.5" stroke-linecap="round" stroke-linejoin="round" d="M-23.599 96.25q-2.45 2-2.85 5.15l18.7 2.2 9.05-7.2-5.8-5.25-5.5 4.4-7.9-.9q-3.2-.35-5.7 1.6"/><path fill="#E9AF90" d="M-9.149 1.1l1.1-7.65h-.1q-1.6-.2-2.8.75-1.25 1-1.45 2.55-.2 1.6.75 2.85.95 1.3 2.5 1.5"/><path fill="none" stroke="#19344F" stroke-width="2.5" stroke-linecap="round" stroke-linejoin="round" d="M-10.949-5.8q1.2-.95 2.8-.75m-2.8.75q-1.25 1-1.45 2.55-.2 1.6.75 2.85.95 1.3 2.5 1.5"/><path fill="#B1AEB2" d="M-19.499 48.2l4-9.8-42.55-8.95 38.55 18.75"/><path fill="#43566B" d="M-45.699-18l-5.6 15.45-6.75 34 45.3 9.55 8.45-43.65q.4-2.6-.95-4.85-1.35-2.25-3.8-3.15l-15.45-5.55-21.2-1.8"/><path fill="none" stroke="#19344F" stroke-width="2.5" stroke-linecap="round" stroke-linejoin="round" d="M-45.699-18l21.2 1.8 15.45 5.55q2.45.9 3.8 3.15 1.35 2.25.95 4.85L-12.749 41l-45.3-9.55 6.75-34"/><path fill="#ECECEC" stroke="#19344F" stroke-width="2.5" stroke-linecap="round" stroke-linejoin="round" d="M-35.549-17.25l-3.25-.2-5.7 49.75 20.3 4.45 10.1-49.2-14.1-5.45-7.35.65"/><path fill="#E9AF90" stroke="#19344F" stroke-width="2.5" stroke-linecap="round" stroke-linejoin="round" d="M-31.649-7.7q1.6 1.5 3.8 1.45h.95q2.2-.05 3.75-1.6 1.5-1.6 1.5-3.8l-.15-8.85-11.6.2.15 8.85q.05 2.2 1.6 3.75"/><path fill="#997254" d="M-29.399-92.3q-11.5 6.25-15.2 18.75-3.7 12.5 2.55 23.95 6.2 11.5 18.7 15.2 12.5 3.7 24-2.5 11.5-6.25 15.2-18.75 3.7-12.5-2.55-24-6.2-11.5-18.75-15.2-12.5-3.7-23.95 2.55"/><path fill="none" stroke="#19344F" stroke-width="2.5" stroke-linecap="round" stroke-linejoin="round" d="M-29.399-92.3q-11.5 6.25-15.2 18.75-3.7 12.5 2.55 23.95 6.2 11.5 18.7 15.2 12.5 3.7 24-2.5 11.5-6.25 15.2-18.75 3.7-12.5-2.55-24-6.2-11.5-18.75-15.2-12.5-3.7-23.95 2.55"/><path fill="none" stroke="#19344F" stroke-width="2.5" stroke-linecap="round" stroke-linejoin="round" d="M-29.399-92.3q-11.5 6.25-15.2 18.75-3.7 12.5 2.55 23.95 6.2 11.5 18.7 15.2 12.5 3.7 24-2.5 11.5-6.25 15.2-18.75 3.7-12.5-2.55-24-6.2-11.5-18.75-15.2-12.5-3.7-23.95 2.55"/><path fill="#ED9872" d="M-39.449-45.15q.85-2.85-.55-5.45-1.45-2.6-4.3-3.45-2.8-.85-5.4.6-2.65 1.4-3.5 4.25-.8 2.85.6 5.45t4.25 3.45q2.85.85 5.45-.6 2.65-1.4 3.45-4.25"/><path fill="#E9AF90" stroke="#19344F" stroke-width="2.5" stroke-linecap="round" stroke-linejoin="round" d="M-40.049-45.3q.85-2.85-.55-5.45-1.45-2.65-4.3-3.5-2.8-.85-5.4.6-2.65 1.4-3.5 4.25-.85 2.85.6 5.45 1.4 2.65 4.25 3.45 2.85.85 5.45-.55 2.6-1.45 3.45-4.25"/><path fill="#ED9872" d="M10.451-30.35q.85-2.85-.55-5.45-1.45-2.65-4.3-3.5-2.85-.8-5.45.6t-3.45 4.25q-.85 2.85.6 5.45 1.4 2.65 4.25 3.45 2.85.85 5.45-.55 2.6-1.45 3.45-4.25"/><path fill="#E9AF90" stroke="#19344F" stroke-width="2.5" stroke-linecap="round" stroke-linejoin="round" d="M10.451-30.35q.85-2.85-.55-5.45-1.45-2.65-4.3-3.5-2.85-.8-5.45.6t-3.45 4.25q-.85 2.85.6 5.45 1.4 2.65 4.25 3.45 2.85.85 5.45-.55 2.6-1.45 3.45-4.25"/><path fill="#E9AF90" d="M-2.049-75.9l-16.5-4.9q-6.8-2-13.05 1.4-6.25 3.35-8.3 10.2l-5.7 19.25q-3.05 10.25 2.05 19.65 5.1 9.35 15.35 12.4 10.25 3.05 19.65-2.05 9.35-5.1 12.4-15.35l5.7-19.25q2.05-6.8-1.35-13.05-3.4-6.25-10.25-8.3"/><path fill="none" stroke="#19344F" stroke-width="2.5" stroke-linecap="round" stroke-linejoin="round" d="M-2.049-75.9l-16.5-4.9q-6.8-2-13.05 1.4-6.25 3.35-8.3 10.2l-5.7 19.25q-3.05 10.25 2.05 19.65 5.1 9.35 15.35 12.4 10.25 3.05 19.65-2.05 9.35-5.1 12.4-15.35l5.7-19.25q2.05-6.8-1.35-13.05-3.4-6.25-10.25-8.3"/><path fill="#C99477" d="M-44.349-56.35q-.15.6-2.4 20.25 7.05 17.2 22.25 18.9 7.6.85 13.8-1.75-27.3-7.95-28.8-32.3-.7-12.15 4-22.75-6.3 4.7-8.85 17.65"/><path fill="none" stroke="#19344F" stroke-width="2.5" stroke-linecap="round" stroke-linejoin="round" d="M-2.049-75.9l-16.5-4.9q-6.8-2-13.05 1.4-6.25 3.35-8.3 10.2l-5.7 19.25q-3.05 10.25 2.05 19.65 5.1 9.35 15.35 12.4 10.25 3.05 19.65-2.05 9.35-5.1 12.4-15.35l5.7-19.25q2.05-6.8-1.35-13.05-3.4-6.25-10.25-8.3"/><path fill="none" stroke="#19344F" stroke-width="2.5" stroke-linecap="round" stroke-linejoin="round" d="M-17.749-41.1q-1.05.6-2.15.25l-2.75-.8q-1.15-.35-1.7-1.4-.6-1.05-.25-2.2m6.85 4.15q1.05-.55 1.4-1.7"/><path fill="#997254" d="M-44.499-89.15q2.4 7.25 7.8 12.6 5.6 5.5 13.2 7.75 8.25 2.45 16.55.35 8.05-2 14.1-7.75-2-8.05-7.65-14.15-5.85-6.25-14.05-8.7-7.6-2.25-15.3-.65-7.45 1.55-13.4 6.3-.95.75-1.3 1.9-.3 1.2.05 2.35"/><path fill="none" stroke="#19344F" stroke-width="2.5" stroke-linecap="round" stroke-linejoin="round" d="M-44.499-89.15q2.4 7.25 7.8 12.6 5.6 5.5 13.2 7.75 8.25 2.45 16.55.35 8.05-2 14.1-7.75-2-8.05-7.65-14.15-5.85-6.25-14.05-8.7-7.6-2.25-15.3-.65-7.45 1.55-13.4 6.3-.95.75-1.3 1.9-.3 1.2.05 2.35"/><path fill="#7F593D" d="M-24.749-100.3q-9.95 1.7-15.9 5.75-1.9 1.25-3.15 2.6l-.85 1.1q5.4 15.1 19.5 20.7 7.05 2.8 13.05 2.55-15.15-9.2-15.4-21.85-.15-6.35 2.75-10.85"/><path fill="none" stroke="#19344F" stroke-width="2.5" stroke-linecap="round" stroke-linejoin="round" d="M-44.499-89.15q2.4 7.25 7.8 12.6 5.6 5.5 13.2 7.75 8.25 2.45 16.55.35 8.05-2 14.1-7.75m-51.65-12.95q-.35-1.15-.05-2.35.35-1.15 1.3-1.9 5.95-4.75 13.4-6.3 7.7-1.6 15.3.65 5.9 1.75 10.65 5.55 4.65 3.7 7.6 8.85M.251-79.8l1.1 2.4"/><path fill="none" stroke="#19344F" stroke-width="2.5" stroke-linecap="round" stroke-linejoin="round" d="M-8.549-90.7q3.95 3.2 6.85 7.65m-6.85-7.65l-3.4-2.35"/><path fill="#E56C6C" stroke="#19344F" stroke-width="2.5" stroke-linecap="round" stroke-linejoin="round" d="M-24.249-9.8l-6-.65-2 4.3 2.45 4.8 3 .35 3.5-4.15-.95-4.65"/><path fill="#E56C6C" stroke="#19344F" stroke-width="2.5" stroke-linecap="round" stroke-linejoin="round" d="M-26.799-1l-3-.35-8 43 4 5 5-3.95 2-43.7"/><path fill="#E9AF90" d="M-67.099 11.8l-1.4-8.1-14.25 11.05q-2.35-1.7-5.3-1.35-2.9.3-4.85 2.5-2.15 2.4-1.95 5.6.15 3.15 2.55 5.3 2.35 2.15 5.55 1.95 3.2-.15 5.35-2.55 1.65-1.8 1.9-4.4l12.4-10"/><path fill="none" stroke="#19344F" stroke-width="2.5" stroke-linecap="round" stroke-linejoin="round" d="M-82.749 14.75l14.25-11.05m-14.25 11.05q-2.35-1.7-5.3-1.35-2.9.3-4.85 2.5-2.15 2.4-1.95 5.6.15 3.15 2.55 5.3 2.35 2.15 5.55 1.95 3.2-.15 5.35-2.55 1.65-1.8 1.9-4.4l12.4-10"/><path fill="#43566B" d="M-78.549 8.6l7.6 12.9 20.05-18.1 4.5-21.15-12.75 11.3-19.4 15.05"/><path fill="none" stroke="#19344F" stroke-width="2.5" stroke-linecap="round" stroke-linejoin="round" d="M-70.949 21.5l-7.6-12.9 19.4-15.05 12.75-11.3m-24.55 39.25l20.05-18.1"/><use xlink:href="#a"/><use xlink:href="#b"/><use xlink:href="#c"/><use xlink:href="#d"/><use xlink:href="#e"/><use xlink:href="#f"/><use xlink:href="#g"/><use xlink:href="#h"/></g><g><g transform="matrix(.201 0 0 .201 311.8 402)"><animateTransform attributeName="transform" additive="replace" type="translate" repeatCount="indefinite" dur="1.417s" keyTimes="0;0.029;0.059;0.088;0.118;0.147;0.176;0.206;0.235;0.265;0.294;0.323;1" values="306.95,397.05;307.539,397.307;308.086,397.513;308.738,397.755;309.297,397.991;309.871,398.196;310.473,398.392;311.07,398.643;311.651,398.926;312.142,399.02;312.762,399.296;313.372,399.62;313.372,399.62" calcMode="discrete"/><animateTransform attributeName="transform" additive="sum" type="rotate" repeatCount="indefinite" dur="1.417s" keyTimes="0;0.029;0.059;0.088;0.118;0.147;0.176;0.206;0.235;0.265;0.294;0.323;1" values="0,0,0;-1.756,0,0;-3.511,0,0;-5.267,0,0;-7.023,0,0;-8.781,0,0;-10.539,0,0;-12.296,0,0;-14.053,0,0;-15.811,0,0;-17.57,0,0;-19.486,0,0;-19.486,0,0" calcMode="discrete"/><animateTransform attributeName="transform" additive="sum" type="scale" repeatCount="indefinite" dur="1.417s" keyTimes="0;0.029;0.059;0.088;0.118;0.147;0.176;0.206;0.235;0.265;0.294;0.323;1" values="0.201,0.201;0.273,0.273;0.345,0.345;0.417,0.417;0.489,0.489;0.56,0.56;0.632,0.632;0.704,0.704;0.776,0.776;0.848,0.848;0.919,0.919;0.992,0.992;0.992,0.992" calcMode="discrete"/><animateTransform attributeName="transform" additive="sum" type="translate" repeatCount="indefinite" dur="1.417s" keyTimes="0;0.029;0.059;0.088;0.118;0.147;0.176;0.206;0.235;0.265;0.294;0.323;1" values="24.149,24.649;24.049,24.549;24.249,24.699;24.149,24.749;24.199,24.649;24.249,24.599;24.149,24.849;24.049,24.649;24.149,24.599;24.099,24.749;24.199,24.649;24.199,24.599;24.199,24.599" calcMode="discrete"/><path fill="#FFF" d="M14.151-19.25q-5.95.4-9.9 4.95Q.351-9.8.801-3.85l-25.1-22.45 8.25 21.5q-5.95.4-9.85 4.9-3.9 4.5-3.5 10.45.4 5.95 4.9 9.9 4.55 3.9 10.45 3.45 3.35-.2 6.25-1.9 2.75-1.6 4.6-4.25 1.5 4.05 5.1 6.4 3.7 2.45 8.15 2.15 5.45-.4 9-4.5 3.6-4.1 3.2-9.55-.15-2.15-1-4.1 4-1.85 6.25-5.65 2.35-3.85 2-8.35-.4-5.95-4.9-9.9-4.5-3.9-10.45-3.5"/><path fill="none" stroke="#1A344F" stroke-width="2.5" stroke-linecap="round" stroke-linejoin="round" d="M14.151-19.25q-5.95.4-9.9 4.95Q.351-9.8.801-3.85l-25.1-22.45 8.25 21.5q-5.95.4-9.85 4.9-3.9 4.5-3.5 10.45.4 5.95 4.9 9.9 4.55 3.9 10.45 3.45 3.35-.2 6.25-1.9 2.75-1.6 4.6-4.25 1.5 4.05 5.1 6.4 3.7 2.45 8.15 2.15 5.45-.4 9-4.5 3.6-4.1 3.2-9.55-.15-2.15-1-4.1 4-1.85 6.25-5.65 2.35-3.85 2-8.35-.4-5.95-4.9-9.9-4.5-3.9-10.45-3.5"/></g><animate attributeName="display" repeatCount="indefinite" dur="1.417s" keyTimes="0;0.353;1" values="inline;none;none"/></g></g></svg>