<svg id="Layer_1" data-name="Layer 1" xmlns="http://www.w3.org/2000/svg" viewBox="0 0 695 513.1"><defs><style>.cls-2{fill:#1a344f}.cls-3{fill:#da6a61}</style></defs><path d="M695 513.1V0H0v513.1h695" fill="#fff"/><path class="cls-2" d="M189.9 128.3l.2-.1 13.6 39.8h9.7l13.8-40.4.2.1V168H242v-62.6h-19.2l-14.2 43.8h-.2l-14-43.8h-19.1V168h14.5v-39.7m95.7 27.5l3.6 12.2h15.3L284 105.4h-15.6L248 168h15.3l3.6-12.2h18.6m-9.5-30.5h.3l5.8 19.4h-12l5.9-19.4m28.6 23.8c-.2 6.5 1.8 11.4 5.9 14.8s9.7 5 16.7 5c6.1 0 11.2-1.9 15.1-5.7s5.9-8.9 5.9-15.3v-42.5h-14.5v42.5c0 3.1-.6 5.6-1.8 7.2a5.44 5.44 0 0 1-4.6 2.6 8.87 8.87 0 0 1-6.1-2.1c-1.5-1.4-2.3-3.7-2.3-6.8h-14.2l-.1.3m105.5-6.8v-11.2c0-7.7-2.5-14-7.4-19s-11.2-7.5-19.1-7.5-14.4 2.5-19.3 7.5-7.4 11.4-7.4 19v11.2a26.41 26.41 0 0 0 7.4 19.1c5 5 11.4 7.5 19.3 7.5s14.2-2.5 19.1-7.5 7.4-11.4 7.4-19.1m-14.5 0c0 4.6-1 8.3-3.1 11.1a10 10 0 0 1-8.8 4.3c-4 0-7-1.4-9-4.3a18.47 18.47 0 0 1-3.2-11.1V131c0-4.5 1-8.1 3.1-11a11.46 11.46 0 0 1 17.9 0c2.1 2.9 3.1 6.6 3.1 11v11.3m58.7-4.1a18.66 18.66 0 0 0 7.5-5.7 13.61 13.61 0 0 0 2.5-8.3c0-5.9-2.1-10.5-6.4-13.8-4.1-3.4-9.9-5-17.2-5H419V168h14.5v-24h7.8q4.5 0 6.9 2.4a9.25 9.25 0 0 1 2.4 6.8v3.8a47 47 0 0 0 .5 6.3c.4 2.3 1.1 3.8 2.3 4.7h15v-.9c-1.2-.8-2-2.3-2.6-4.5a24.4 24.4 0 0 1-.7-5.6v-3.9c0-3.9-.8-7.1-2.5-9.5s-4.4-4.3-8.3-5.4m-6.7-7.4c-1.6 1.4-3.9 2-6.8 2h-7.3v-16.3h7.2a9.25 9.25 0 0 1 6.8 2.4 8.21 8.21 0 0 1 2.4 6.1 7.24 7.24 0 0 1-2.3 5.8m25.7 17.1l-.1.2c-.2 7.1 2.2 12.4 7.2 15.8a32 32 0 0 0 18 5c7.1 0 12.8-1.5 17.1-4.6a15 15 0 0 0 6.4-12.9c0-5.5-1.9-9.7-5.6-12.7s-9.1-5.7-16.4-7.9a41.44 41.44 0 0 1-8.7-4.2 5.14 5.14 0 0 1-2.4-4.4 6.47 6.47 0 0 1 2.3-4.8 9.2 9.2 0 0 1 6.2-1.9c3.3 0 5.7.7 7.3 2s2.4 3.5 2.4 6.4h14.2l.1-.2c.1-6.2-2-10.9-6.4-14.2s-10-5-17.2-5c-6.7 0-12.3 1.6-16.7 4.9a15 15 0 0 0-6.5 12.7q0 8 5.7 12.3c3.7 2.9 9.5 5.6 17.3 8.1 3.8 1.4 6.5 2.6 7.9 3.8a6.19 6.19 0 0 1 2.2 5.2 5.82 5.82 0 0 1-2.3 4.7c-1.5 1.2-3.8 1.8-6.8 1.8-3.7 0-6.4-.8-8.3-2.3s-2.7-4.2-2.7-7.8h-14.2m-337.5 94.4h-8.3v-10.8H138V226h-16.5v38.5H138V259h-10.5v-11.2h8.3v-5.5m23.6 13V226h-5.7v29.7c0 2.5-1 3.8-3.1 3.8s-3.1-1.3-3.1-3.8V226h-6.1v29.3c0 6.4 3 9.7 9 9.7 2.9 0 5.2-.8 6.8-2.5s2.2-4 2.2-7.2m22.2-17.4v-3c0-3-.7-5.3-2.1-6.7s-3.7-2.2-6.8-2.2h-9.1v38.5h6.1v-15.6h2.1a3.78 3.78 0 0 1 3 1.1 6 6 0 0 1 .9 3.8l.1 7.9a9.82 9.82 0 0 0 .2 2.1l.2.7h6.1a14.91 14.91 0 0 1-.6-4.7v-5.9c0-4.4-1.3-7.1-4-8.2q3.9-1.8 3.9-7.8m-6.1-2.5v3.9c0 2.7-1.2 4.1-3.6 4.1h-2.4v-11.9h2.9c2.1 0 3.1 1.3 3.1 3.9"/><path class="cls-3" d="M204.2 226h-5.3l-15.2 38.5h5.2l15.3-38.5"/><path class="cls-2" d="M224.4 255.3V226h-5.7v29.7c0 2.5-1 3.8-3.1 3.8s-3.1-1.3-3.1-3.8V226h-6.1v29.3a10.54 10.54 0 0 0 2.3 7.2c1.5 1.7 3.7 2.5 6.7 2.5 6 0 9-3.2 9-9.7m12.4-24.2c2 0 3.1 1.3 3.1 3.8v1.6h5.7v-1.2c0-6.4-3-9.7-9-9.7s-8.9 3.2-8.9 9.7a11.42 11.42 0 0 0 .9 4.8 19.92 19.92 0 0 0 5 6.5l2.8 2.7c2 2.1 3.1 4.3 3.1 6.4 0 2.5-1 3.8-3.1 3.8s-3.1-1.3-3.1-3.8v-2.8h-5.7v2.4c0 3.1.8 5.6 2.3 7.2s3.8 2.5 6.8 2.5 5.2-.8 6.7-2.5a12.53 12.53 0 0 0 1.4-11.9 19.91 19.91 0 0 0-5-6.6 23.93 23.93 0 0 1-2.8-2.8c-2-2-3.1-4.1-3.1-6.3-.1-2.5.9-3.8 2.9-3.8m30.9 4.4c0-6.3-3-9.5-9-9.5h-9.6v38.5h9.6c6 0 9-3.2 9-9.5v-19.5m-9.1 23.5h-3.5v-27.5h3.5c2 0 3.1 1.3 3.1 3.8v20c-.1 2.5-1.1 3.7-3.1 3.7m-122.7 35a7.62 7.62 0 0 0-6.4-2.8c-2.8 0-5 .9-6.4 2.8a11.41 11.41 0 0 0-2 7v19.7a11.1 11.1 0 0 0 2 6.9c1.4 1.9 3.5 2.8 6.4 2.8s5-.9 6.4-2.8a11.08 11.08 0 0 0 1.9-6.9v-10.5h-7.5v2.3h5.2v8.3c0 4.8-2 7.2-5.9 7.2s-5.8-2.4-5.8-7.2v-20.1c0-4.8 1.9-7.2 5.8-7.2s5.9 2.4 5.9 7.2v3.1h2.4V301c-.1-3-.7-5.3-2-7m22.4 11.2V301c0-6.2-2.8-9.4-8.3-9.4h-8v38.5h2.5v-15.8h4.8c6 0 9-3.1 9-9.1m-8.2-11.3c3.8 0 5.7 2.3 5.7 6.8v4.6c0 2.3-.5 4-1.5 5a6.68 6.68 0 0 1-4.9 1.6h-4.8v-18h5.5m20.1-2.3h-8.1v38.5h8.3c5.6 0 8.4-3 8.4-8.9v-3.4c0-4.7-1.9-7.5-5.7-8.3a5.74 5.74 0 0 0 3.9-2.5 9.75 9.75 0 0 0 1.1-5v-2.2c0-2.8-.6-4.8-1.8-6.1s-3.3-2.1-6.1-2.1m-.1 2.3c2 0 3.4.5 4.2 1.6.8.9 1.2 2.4 1.2 4.6v2.4c0 2.4-.6 4-1.7 4.9-.9.8-2.6 1.3-5 1.3h-4.3V294h5.6m6.2 23.7v3.5c0 4.5-2 6.7-5.9 6.7h-5.7V311h4.8q3.6 0 5.1 1.5c1.1.9 1.7 2.7 1.7 5.2"/><path class="cls-3" d="M199.6 291.6h-2.2l-15.3 38.5h2.3l15.2-38.5"/><path class="cls-2" d="M205.7 291.6h-2.5v29.2a11.08 11.08 0 0 0 1.9 6.9 7.6 7.6 0 0 0 6.4 2.8c2.8 0 4.9-.9 6.3-2.8a11.08 11.08 0 0 0 1.9-6.9v-29.2h-2.4v29.2c0 4.9-1.9 7.3-5.8 7.3s-5.7-2.4-5.7-7.3l-.1-29.2m32.7 2.4a7.62 7.62 0 0 0-6.4-2.8c-2.7.1-4.8.9-6.2 2.7a10.7 10.7 0 0 0-2 6.9c0 3.7 2.3 7.2 7 10.6s6.9 6.6 6.9 9.5c0 4.7-1.9 7.1-5.8 7.1s-5.8-2.4-5.8-7.1v-2.1h-2.4v2a11.1 11.1 0 0 0 2 6.9 7.62 7.62 0 0 0 6.4 2.8c2.8 0 5-.9 6.4-2.8 1.3-1.6 1.9-3.9 1.9-6.9q0-5.4-6.9-10.5c-4.7-3.4-7-6.6-7-9.6 0-4.7 1.9-7.1 5.7-7.1s5.7 2.4 5.7 7.2v.9h2.4v-.8a11.76 11.76 0 0 0-1.9-6.9m21 .2a7.89 7.89 0 0 0-6.5-2.7h-8.5V330h8.5c5.7 0 8.5-3.2 8.5-9.5v-19.4a11.77 11.77 0 0 0-2-6.9m-6.6 33.6h-5.9v-33.9h5.9c4 0 6.1 2.4 6.1 7.2v19.6c-.1 4.7-2.1 7.1-6.1 7.1m-115.1 29.3h-2.4v29.2c0 4.9-1.9 7.3-5.8 7.3s-5.7-2.4-5.7-7.3v-29.2h-2.5v29.1a11.08 11.08 0 0 0 1.9 6.9 7.6 7.6 0 0 0 6.4 2.8c2.8 0 4.9-.9 6.3-2.8a11.08 11.08 0 0 0 1.9-6.9v-29.1m12.3-.4c-2.7.1-4.8.9-6.2 2.7a10.7 10.7 0 0 0-2 6.9c0 3.7 2.3 7.3 7 10.7s6.9 6.5 6.9 9.4c0 4.8-1.9 7.2-5.8 7.2s-5.8-2.4-5.8-7.2v-2.1h-2.4v2a11.1 11.1 0 0 0 2 6.9 7.62 7.62 0 0 0 6.4 2.8c2.8 0 5-.9 6.4-2.8 1.3-1.6 1.9-3.9 1.9-6.9q0-5.4-6.9-10.5c-4.7-3.4-7-6.6-7-9.6 0-4.7 1.9-7.1 5.7-7.1s5.7 2.4 5.7 7.2v.9h2.4v-.8a11.08 11.08 0 0 0-1.9-6.9 7.89 7.89 0 0 0-6.4-2.8m27.3 3.1a7.82 7.82 0 0 0-6.4-2.7h-8.5v38.4h8.5a7.93 7.93 0 0 0 6.4-2.6c1.4-1.7 2-4 2-6.9v-19.4a10.59 10.59 0 0 0-2-6.8m-.5 6.8v19.6c0 4.8-2 7.2-6.1 7.2h-5.9v-33.9h5.9c4.1-.1 6.1 2.3 6.1 7.1"/><path class="cls-3" d="M200.3 357.1h-2.2l-15.3 38.4h2.3l15.2-38.4"/><path class="cls-2" d="M213.7 357.1h-2.6v29.2c0 2.3-.4 4-1.3 5.1a5.45 5.45 0 0 1-4.1 1.8 19.42 19.42 0 0 1-2.2.1v2.3a10.45 10.45 0 0 0 2.5 0c5.1-.2 7.7-3.3 7.7-9.4v-29.1m20.5 9.4c0-6.2-2.8-9.4-8.3-9.4h-8v38.4h2.5v-15.8h4.8c6 0 9-3 9-9.1v-4.1m-4.1 9.4a6.68 6.68 0 0 1-4.9 1.6h-4.8v-18h5.5c3.8 0 5.7 2.3 5.7 6.8v4.6a7.29 7.29 0 0 1-1.5 5m26.9-18.8h-2.4l-7.4 20.2-7.4-20.2h-2.7l8.6 23.7v14.8h2.6v-14.8l8.7-23.7m179.1-101.9V226h-2.5v29.1a11.08 11.08 0 0 0 1.9 6.9 7.6 7.6 0 0 0 6.4 2.8c2.8 0 4.9-.9 6.3-2.8a11.08 11.08 0 0 0 1.9-6.9V226h-2.4v29.2c0 4.9-1.9 7.3-5.8 7.3s-5.8-2.4-5.8-7.3m34.5-19.9a10.59 10.59 0 0 0-2-6.8 7.55 7.55 0 0 0-6.3-2.8c-5.5.1-8.2 3.2-8.2 9.6 0 3.7 2.3 7.2 7 10.6s6.9 6.5 6.9 9.5c0 4.7-1.9 7.1-5.8 7.1s-5.8-2.4-5.8-7.1v-2.2H454v2a10.59 10.59 0 0 0 2 6.8 7.62 7.62 0 0 0 6.4 2.8c2.8 0 4.9-.9 6.3-2.8a10.59 10.59 0 0 0 2-6.8q0-5.4-6.9-10.5c-4.7-3.4-7-6.6-7-9.6q0-7.2 5.7-7.2t5.7 7.2v1h2.4v-.8m21.1 19.6v-19.3a11.1 11.1 0 0 0-2-6.9 7.82 7.82 0 0 0-6.4-2.7h-8.5v38.5h8.5c2.8 0 5-.9 6.4-2.7a10.7 10.7 0 0 0 2-6.9m-8.6-26.6c4 0 6.1 2.4 6.1 7.1v19.7c0 4.8-2 7.2-6.1 7.2h-5.9v-33.9l5.9-.1"/><path class="cls-3" d="M512.6 226h-2.3l-15.2 38.5h2.3l15.2-38.5"/><path class="cls-2" d="M532.8 235.4c0-3-.6-5.3-1.9-7a7.62 7.62 0 0 0-6.4-2.8c-2.9 0-5 .9-6.4 2.8a11.41 11.41 0 0 0-2 7v19.7a11.21 11.21 0 0 0 2 7 7.62 7.62 0 0 0 6.4 2.8c2.9 0 5-.9 6.4-2.8 1.3-1.7 1.9-4 1.9-7v-4.4h-2.4v4.6c0 4.8-2 7.2-5.9 7.2s-5.8-2.4-5.8-7.2v-20c0-4.9 1.9-7.3 5.8-7.3s5.9 2.4 5.9 7.3v3.3h2.4v-3.2m4.1-9.4v38.5h2.5v-18.1h12v18.1h2.5V226h-2.5v18.1h-12V226h-2.5m34 18.8H561v-16.4h12.1V226h-14.7v38.5h2.6V247h9.9v-2.2m-122 49.1v-2.4h-15.2V330h15.2v-2.3h-12.7v-16h10.5v-2.4h-10.5v-15.5h12.7m6.5-2.2h-2.5v29.2a11.08 11.08 0 0 0 1.9 6.9 7.6 7.6 0 0 0 6.4 2.8c2.8 0 4.9-.9 6.3-2.8a11.08 11.08 0 0 0 1.9-6.9v-29.2H467v29.2c0 4.9-1.9 7.3-5.7 7.3s-5.8-2.4-5.8-7.3l-.1-29.2m18.3 0v38.5h2.5v-17.2h4c2.4 0 4.1.4 5.3 1.3s2 2.8 2 5.3v6.1a10.22 10.22 0 0 0 .8 4.6h2.7a8.6 8.6 0 0 1-.9-4.6v-6.1c0-4.5-1.9-7.1-5.6-7.9 3.7-.8 5.6-3.5 5.6-7.9v-3.4c0-5.8-2.8-8.7-8.3-8.7h-8.1m8 2.3c3.9 0 5.8 2.2 5.8 6.6v3.6c0 2.5-.6 4.2-1.9 5.2a9.15 9.15 0 0 1-5.3 1.3h-4.1v-16.7h5.5"/><path class="cls-3" d="M511.7 291.6h-2.3l-15.2 38.5h2.2l15.3-38.5"/><path class="cls-2" d="M525 291.6h-2.5v29.2c0 2.3-.4 4-1.3 5.1a5.51 5.51 0 0 1-4.2 1.8 19.42 19.42 0 0 1-2.2.1v2.3a10.45 10.45 0 0 0 2.5 0c5.1-.2 7.7-3.3 7.7-9.4v-29.1m12.2 0h-7.9v38.5h2.5v-15.8h4.8c5.9 0 8.9-3 8.9-9.1V301c0-6.3-2.8-9.4-8.3-9.4m-5.4 20.3v-18h5.4c3.8 0 5.7 2.3 5.7 6.8v4.6c0 2.3-.5 4-1.5 5a6.85 6.85 0 0 1-4.9 1.6h-4.7m19.3-20.3h-2.6l8.6 23.7v14.8h2.5v-14.8l8.6-23.7h-2.4l-7.4 20.3-7.3-20.3M450 357.1h-2.4v29.2c0 4.9-1.9 7.3-5.8 7.3s-5.7-2.4-5.7-7.3v-29.2h-2.5v29.1a11.08 11.08 0 0 0 1.9 6.9 7.6 7.6 0 0 0 6.4 2.8c2.8 0 4.9-.9 6.3-2.8a11.08 11.08 0 0 0 1.9-6.9l-.1-29.1m6.2 2.3a10.7 10.7 0 0 0-2 6.9c0 3.7 2.3 7.3 7 10.7s6.9 6.5 6.9 9.4c0 4.8-1.9 7.2-5.8 7.2s-5.8-2.4-5.8-7.2v-2.1h-2.4v2a11.1 11.1 0 0 0 2 6.9 7.62 7.62 0 0 0 6.4 2.8c2.8 0 4.9-.9 6.3-2.8a11.1 11.1 0 0 0 2-6.9q0-5.4-6.9-10.5c-4.7-3.4-7-6.6-7-9.6 0-4.7 1.9-7.1 5.7-7.1s5.7 2.4 5.7 7.2v.9h2.4v-.8a11.1 11.1 0 0 0-2-6.9 7.55 7.55 0 0 0-6.3-2.8 8 8 0 0 0-6.2 2.7m33.5.4a7.82 7.82 0 0 0-6.4-2.7h-8.5v38.4h8.5a7.93 7.93 0 0 0 6.4-2.6c1.4-1.7 2-4 2-6.9v-19.4a10.59 10.59 0 0 0-2-6.8m-.5 6.8v19.6c0 4.8-2 7.2-6.1 7.2h-5.9v-33.9h5.9c4.1-.1 6.1 2.3 6.1 7.1"/><path class="cls-3" d="M512.6 357.1h-2.3l-15.2 38.4h2.3l15.2-38.4"/><path class="cls-2" d="M518.1 359.6a11.1 11.1 0 0 0-2 6.9v19.7a11.1 11.1 0 0 0 2 6.9c1.4 1.9 3.5 2.8 6.4 2.8s5-.9 6.4-2.8a11.08 11.08 0 0 0 1.9-6.9v-4.4h-2.4v4.6c0 4.8-2 7.2-5.9 7.2s-5.8-2.4-5.8-7.2v-20.1c0-4.8 1.9-7.2 5.8-7.2s5.9 2.4 5.9 7.2v3.4h2.4v-3.2a11.08 11.08 0 0 0-1.9-6.9c-1.4-1.9-3.5-2.8-6.4-2.8a7.23 7.23 0 0 0-6.4 2.8m30.4-2.5h-3.7l-8.4 38.5h2.3l2-8.5h12l2 8.5h2.5l-8.7-38.5m-7.5 27.8l5.5-24.9 5.7 24.9H541m36.9-18.2a10.59 10.59 0 0 0-2-6.8 7.82 7.82 0 0 0-6.4-2.7H561v38.4h8.5a7.93 7.93 0 0 0 6.4-2.6c1.4-1.7 2-4 2-6.9v-19.4m-8.6-7.3c4 0 6.1 2.4 6.1 7.2v19.6c0 4.8-2 7.2-6.1 7.2h-5.9v-33.9h5.9"/><path d="M119.2 189.6h454.2" stroke="#1a344f" fill="none" stroke-linecap="round" stroke-linejoin="round" stroke-width="2.5"/><path d="M349.6 229.4v177.1" stroke="#b0b7bc" fill="none" stroke-linecap="round" stroke-linejoin="round" stroke-width="2.5"/></svg>