<svg xmlns:xlink="http://www.w3.org/1999/xlink" xmlns="http://www.w3.org/2000/svg" baseProfile="basic" width="695" height="444" viewBox="0 0 695 444" preserveAspectRatio="xMinYMin meet"><defs><symbol id="a" overflow="visible"><path fill="#B89F78" stroke="#1A344F" stroke-width="2.5" stroke-linecap="round" stroke-linejoin="round" d="M34.401.351q-1.55 0-2.7 1.1-1.1 1.15-1.1 2.7v30.05q0 1.6 1.1 2.7 1.15 1.1 2.7 1.1h30.05q1.6 0 2.7-1.1t1.1-2.7V4.151q0-1.55-1.1-2.7-1.1-1.1-2.7-1.1h-30.05"/><path fill="#D2B58F" d="M72.301 1.751q0-2.25-1.55-3.85-1.6-1.6-3.85-1.6h-34.9q-2.25 0-3.85 1.6t-1.6 3.85v34.85q0 2.25 1.6 3.85t3.85 1.6h34.9q2.25 0 3.85-1.6 1.55-1.6 1.55-3.85V1.751m-4.05 2.55v30.3l-15.15-15.15 15.15-15.15m-22.75 15.15l-14.9 14.9v-29.8l14.9 14.9m19.1-19.1l-15.3 15.3-15.25-15.3h30.55m-30.05 37.65l14.75-14.75 14.75 14.75h-29.5"/><path fill="none" stroke="#1A344F" stroke-width="2.5" stroke-linecap="round" stroke-linejoin="round" d="M72.301 1.751q0-2.25-1.55-3.85-1.6-1.6-3.85-1.6h-34.9q-2.25 0-3.85 1.6t-1.6 3.85v34.85q0 2.25 1.6 3.85t3.85 1.6h34.9q2.25 0 3.85-1.6 1.55-1.6 1.55-3.85V1.751"/><path fill="none" stroke="#1A344F" stroke-width="2.5" stroke-linecap="round" stroke-linejoin="round" d="M68.251 4.301v30.3l-15.15-15.15 15.15-15.15M45.501 19.451l-14.9 14.9v-29.8l14.9 14.9M64.601.351l-15.3 15.3-15.25-15.3h30.55M34.551 38.001l14.75-14.75 14.75 14.75h-29.5"/><path fill="#B89F78" stroke="#1A344F" stroke-width="2.5" stroke-linecap="round" stroke-linejoin="round" d="M22.551 4.151q0-1.55-1.15-2.7-1.1-1.1-2.7-1.1h-30q-1.6 0-2.7 1.1-1.15 1.15-1.15 2.7v30.05q0 1.55 1.15 2.7 1.1 1.1 2.7 1.1h30q1.6 0 2.7-1.1 1.15-1.15 1.15-2.7V4.151"/><path fill="#D2B58F" d="M25.001-2.099q-1.6-1.6-3.85-1.6h-34.9q-2.25 0-3.8 1.6-1.6 1.6-1.6 3.85v34.85q0 2.25 1.6 3.85 1.55 1.6 3.8 1.6h34.9q2.25 0 3.85-1.6 1.55-1.6 1.55-3.85V1.751q0-2.25-1.55-3.85m-21.45 17.75l-15.25-15.3h30.55l-15.3 15.3m19-11.35v29.9l-.05.4-15.15-15.15 15.2-15.15m-37.7 29.9V4.551l14.9 14.9-14.85 14.9-.05-.15m33.5 3.8h-29.55l14.75-14.75 14.8 14.75"/><path fill="none" stroke="#1A344F" stroke-width="2.5" stroke-linecap="round" stroke-linejoin="round" d="M25.001-2.099q-1.6-1.6-3.85-1.6h-34.9q-2.25 0-3.8 1.6-1.6 1.6-1.6 3.85v34.85q0 2.25 1.6 3.85 1.55 1.6 3.8 1.6h34.9q2.25 0 3.85-1.6 1.55-1.6 1.55-3.85V1.751q0-2.25-1.55-3.85"/><path fill="none" stroke="#1A344F" stroke-width="2.5" stroke-linecap="round" stroke-linejoin="round" d="M3.551 15.651l-15.25-15.3h30.55l-15.3 15.3M22.551 4.301v29.9l-.05.4-15.15-15.15 15.2-15.15M-15.149 34.201V4.551l14.9 14.9-14.85 14.9-.05-.15M18.351 38.001h-29.55l14.75-14.75 14.8 14.75"/><path fill="#B89F78" stroke="#1A344F" stroke-width="2.5" stroke-linecap="round" stroke-linejoin="round" d="M11.551-42.249q-1.55 0-2.7 1.1-1.1 1.15-1.1 2.7v30.05q0 1.6 1.1 2.7 1.15 1.1 2.7 1.1h30.05q1.6 0 2.7-1.1t1.1-2.7v-30.05q0-1.55-1.1-2.7-1.1-1.1-2.7-1.1h-30.05"/><path fill="#D2B58F" d="M5.301-44.699q-1.6 1.6-1.6 3.8v34.9q0 2.25 1.6 3.85t3.85 1.6h34.85q2.25 0 3.85-1.6t1.6-3.85v-34.9q0-2.2-1.6-3.8-1.6-1.6-3.85-1.6H9.151q-2.25 0-3.85 1.6m5.85 2.45h30.55l-15.25 15.3-15.3-15.3m11.5 19.1l-14.9 14.85v-29.75l14.9 14.9m22.75-15.2v30.3l-15.15-15.1 15.15-15.2m-33.75 33.75l14.8-14.75 14.75 14.75h-29.55"/><path fill="none" stroke="#1A344F" stroke-width="2.5" stroke-linecap="round" stroke-linejoin="round" d="M5.301-44.699q-1.6 1.6-1.6 3.8v34.9q0 2.25 1.6 3.85t3.85 1.6h34.85q2.25 0 3.85-1.6t1.6-3.85v-34.9q0-2.2-1.6-3.8-1.6-1.6-3.85-1.6H9.151q-2.25 0-3.85 1.6"/><path fill="none" stroke="#1A344F" stroke-width="2.5" stroke-linecap="round" stroke-linejoin="round" d="M11.151-42.249h30.55l-15.25 15.3-15.3-15.3M22.651-23.149l-14.9 14.85v-29.75l14.9 14.9M45.401-38.349v30.3l-15.15-15.1 15.15-15.2M11.651-4.599l14.8-14.75 14.75 14.75h-29.55"/><path fill="#B89F78" stroke="#1A344F" stroke-width="2.5" stroke-linecap="round" stroke-linejoin="round" d="M-34.249-42.249q-1.6 0-2.7 1.1-1.15 1.15-1.15 2.7v30.05q0 1.55 1.15 2.7 1.1 1.1 2.7 1.1h30q1.6 0 2.75-1.1 1.1-1.1 1.1-2.7v-30.05q0-1.6-1.1-2.7-1.15-1.1-2.75-1.1h-30"/><path fill="#D2B58F" d="M-40.499-44.699q-1.6 1.6-1.6 3.8v34.9q0 2.25 1.6 3.85 1.55 1.6 3.8 1.6h34.9q2.25 0 3.85-1.6 1.55-1.6 1.55-3.85v-34.9q0-2.2-1.55-3.8-1.6-1.6-3.85-1.6h-34.9q-2.25 0-3.8 1.6m5.85 2.45h30.55l-15.3 15.3-15.25-15.3m11.45 19.1l-14.85 14.85-.05-.1v-29.65l14.9 14.9m22.8-15.2v29.95l-.05.35-15.15-15.1 15.2-15.2m-33.75 33.75l14.75-14.75 14.8 14.75h-29.55"/><path fill="none" stroke="#1A344F" stroke-width="2.5" stroke-linecap="round" stroke-linejoin="round" d="M-40.499-44.699q-1.6 1.6-1.6 3.8v34.9q0 2.25 1.6 3.85 1.55 1.6 3.8 1.6h34.9q2.25 0 3.85-1.6 1.55-1.6 1.55-3.85v-34.9q0-2.2-1.55-3.8-1.6-1.6-3.85-1.6h-34.9q-2.25 0-3.8 1.6"/><path fill="none" stroke="#1A344F" stroke-width="2.5" stroke-linecap="round" stroke-linejoin="round" d="M-34.649-42.249h30.55l-15.3 15.3-15.25-15.3M-23.199-23.149l-14.85 14.85-.05-.1v-29.65l14.9 14.9M-.399-38.349v29.95l-.05.35-15.15-15.1 15.2-15.2M-34.149-4.599l14.75-14.75 14.8 14.75h-29.55"/><path fill="#B89F78" stroke="#1A344F" stroke-width="2.5" stroke-linecap="round" stroke-linejoin="round" d="M-65.649 4.151q0-1.55-1.1-2.7-1.1-1.1-2.7-1.1h-30.05q-1.55 0-2.7 1.1-1.1 1.15-1.1 2.7v30.05q0 1.6 1.1 2.7 1.15 1.1 2.7 1.1h30.05q1.6 0 2.7-1.1t1.1-2.7V4.151"/><path fill="#D2B58F" d="M-63.199-2.099q-1.6-1.6-3.8-1.6h-34.9q-2.25 0-3.85 1.6t-1.6 3.85v34.85q0 2.25 1.6 3.85t3.85 1.6h34.9q2.2 0 3.8-1.6 1.6-1.6 1.6-3.85V1.751q0-2.25-1.6-3.85m-21.4 17.75l-15.25-15.3h30.55l-15.3 15.3m18.95-11.35v30.3l-15.15-15.15 15.15-15.15m-4.2 33.7h-29.5l14.75-14.75 14.75 14.75m-33.45-33.45l14.9 14.9-14.9 14.9v-29.8"/><path fill="none" stroke="#1A344F" stroke-width="2.5" stroke-linecap="round" stroke-linejoin="round" d="M-63.199-2.099q-1.6-1.6-3.8-1.6h-34.9q-2.25 0-3.85 1.6t-1.6 3.85v34.85q0 2.25 1.6 3.85t3.85 1.6h34.9q2.2 0 3.8-1.6 1.6-1.6 1.6-3.85V1.751q0-2.25-1.6-3.85"/><path fill="none" stroke="#1A344F" stroke-width="2.5" stroke-linecap="round" stroke-linejoin="round" d="M-84.599 15.651l-15.25-15.3h30.55l-15.3 15.3M-65.649 4.301v30.3l-15.15-15.15 15.15-15.15M-69.849 38.001h-29.5l14.75-14.75 14.75 14.75M-103.299 4.551l14.9 14.9-14.9 14.9v-29.8"/><path fill="#B89F78" stroke="#1A344F" stroke-width="2.5" stroke-linecap="round" stroke-linejoin="round" d="M-19.899 4.151q0-1.55-1.1-2.7-1.1-1.1-2.7-1.1h-30.05q-1.55 0-2.7 1.1-1.1 1.15-1.1 2.7v30.05q0 1.6 1.1 2.7 1.15 1.1 2.7 1.1h30.05q1.6 0 2.7-1.1t1.1-2.7V4.151"/><path fill="#D2B58F" d="M-17.449-2.099q-1.6-1.6-3.85-1.6h-34.85q-2.25 0-3.85 1.6t-1.6 3.85v34.85q0 2.25 1.6 3.85t3.85 1.6h34.85q2.25 0 3.85-1.6t1.6-3.85V1.751q0-2.25-1.6-3.85m-21.4 17.75l-15.3-15.3h30.6l-15.3 15.3m18.95-11.35v30.3l-15.15-15.15 15.15-15.15m-4.2 33.7h-29.5l14.75-14.75 14.75 14.75m-33.45-33.45l14.9 14.9-14.9 14.9v-29.8"/><path fill="none" stroke="#1A344F" stroke-width="2.5" stroke-linecap="round" stroke-linejoin="round" d="M-17.449-2.099q-1.6-1.6-3.85-1.6h-34.85q-2.25 0-3.85 1.6t-1.6 3.85v34.85q0 2.25 1.6 3.85t3.85 1.6h34.85q2.25 0 3.85-1.6t1.6-3.85V1.751q0-2.25-1.6-3.85"/><path fill="none" stroke="#1A344F" stroke-width="2.5" stroke-linecap="round" stroke-linejoin="round" d="M-38.849 15.651l-15.3-15.3h30.6l-15.3 15.3M-19.899 4.301v30.3l-15.15-15.15 15.15-15.15M-24.099 38.001h-29.5l14.75-14.75 14.75 14.75M-57.549 4.551l14.9 14.9-14.9 14.9v-29.8"/><path fill="#D56871" stroke="#1A344F" stroke-width="2.5" stroke-linecap="round" stroke-linejoin="round" d="M188.751-34.049h-13.85v45.8h13.85v-45.8"/><path fill="#99C978" stroke="#1A344F" stroke-width="2.5" stroke-linecap="round" stroke-linejoin="round" d="M239.601 73.401q14.4-14.35 14.4-34.7v-1.1h-328.45q-11.3 0-19.25-8-8-7.95-8-19.25v-1.3h-151.45v5.6q0 21.7 15.35 37.05 15.3 15.35 37 15.35 8.6 0 14.65 6.1 6.1 6.05 6.1 14.65h384.95q20.35 0 34.7-14.4"/><path fill="#80B855" d="M249.551 59.151l4.45-20.45q-121.7-.95-329.7-.15-11.3.1-19.25-7.9-8-7.95-8-19.25v-1.05l-150.2-1.3-.75 2.15q-.2 2.75 2.65 5.7 9.05 9.35 45 17.2 115.1 25.05 455.8 25.05"/><path fill="none" stroke="#1A344F" stroke-width="2.5" stroke-linecap="round" stroke-linejoin="round" d="M239.601 73.401q14.4-14.35 14.4-34.7v-1.1h-328.45q-11.3 0-19.25-8-8-7.95-8-19.25v-1.3h-151.45v5.6q0 21.7 15.35 37.05 15.3 15.35 37 15.35 8.6 0 14.65 6.1 6.1 6.05 6.1 14.65h384.95q20.35 0 34.7-14.4M243.701 68.751h-434.3M234.351 77.951h-415.7"/><path fill="#74CBE9" stroke="#1A344F" stroke-width="2.5" stroke-linecap="round" stroke-linejoin="round" d="M191.801 72.301q4.15 0 7.05-2.9 2.9-2.9 2.9-7.05t-2.9-7.05q-2.95-2.95-7.05-2.95t-7.05 2.95q-2.95 2.95-2.95 7.05t2.95 7.05q2.9 2.9 7.05 2.9M140.201 62.351q0 4.15 2.9 7.05 2.95 2.9 7.05 2.9 4.15 0 7.1-2.9 2.9-2.9 2.9-7.05t-2.9-7.05q-2.95-2.95-7.1-2.95-4.1 0-7.05 2.95-2.9 2.9-2.9 7.05M115.601 69.401q2.95-2.95 2.95-7.05t-2.95-7.05q-2.9-2.95-7.05-2.95-4.1 0-7.05 2.95t-2.95 7.05q0 4.1 2.95 7.05 2.9 2.9 7.05 2.9t7.05-2.9M56.951 62.351q0 4.15 2.9 7.05 2.95 2.9 7.1 2.9 4.15 0 7.05-2.9 2.9-2.9 2.9-7.05t-2.9-7.05q-2.95-2.95-7.05-2.95-4.15 0-7.1 2.95-2.9 2.9-2.9 7.05M32.351 69.401q2.95-2.95 2.95-7.05t-2.95-7.05q-2.9-2.95-7.05-2.95-4.1 0-7.05 2.95-2.9 2.9-2.9 7.05t2.9 7.05q2.95 2.9 7.05 2.9 4.15 0 7.05-2.9M-26.299 62.351q0 4.1 2.95 7.05 2.9 2.9 7.05 2.9t7.05-2.9q2.9-2.9 2.9-7.05t-2.9-7.05q-2.95-2.95-7.05-2.95t-7.05 2.95q-2.95 2.95-2.95 7.05M-50.849 69.401q2.9-2.9 2.9-7.05t-2.9-7.05q-2.95-2.95-7.1-2.95-4.1 0-7.05 2.95-2.9 2.9-2.9 7.05t2.9 7.05q2.95 2.9 7.05 2.9 4.15 0 7.1-2.9"/><path fill="#FFF" d="M-198.6 49.15V47h-6.45v-7.6h5.25v-2.1h-5.25V30h6.45v-2.15h-8.8v21.3h8.8M-185.25 27.85h-2.2l-3.35 8.5-3.3-8.5h-2.45l4.05 10.3-4.3 11h2.25l3.55-9.2 3.55 9.2h2.5l-4.3-11 4-10.3M-183.2 27.85v21.3h2.35v-8.4h2.15q5.05 0 4.95-5.15v-2.55q0-4.85-4.8-5.2h-4.65m4.65 2.15q2.65 0 2.45 2.9v2.85q0 3.1-2.6 2.85h-2.15V30h2.3M-162.5 33q0-4.95-4.9-5.4-4.85 0-4.9 5.4v11q0 4.9 4.9 5.35 4.95 0 4.9-5.35V33m-4.9-3.2q2.65 0 2.5 3.05v11.3q0 2.95-2.5 3.05-2.55 0-2.55-3.05v-11.3q0-2.85 2.55-3.05M-150.45 34.45V32.7q0-4.7-4.75-4.85h-4.75v21.3h2.35v-9.1h1.7q3 0 3.1 3.2v3.35q0 2.1.4 2.55h2.4q-.6-1.05-.4-2.55v-3.3q0-3.45-2.7-4.45 2.8-.9 2.65-4.4m-2.35-1.55v2.05q0 3.55-3 2.95h-1.8V30h2.35q2.65 0 2.45 2.9M-144.75 30v19.15h2.4V30h3.9v-2.15h-10.25V30h3.95M-129.75 33.55h2.25v-.6q0-4.85-4.75-5.35-4.8 0-4.75 5.35 0 4.5 3.6 6.05 2.65 2.2 3.55 5.15 0 2.95-2.5 3.05-2.55 0-2.5-3.05v-1.3h-2.25v1.2q0 4.9 4.8 5.3 4.9 0 4.8-5.3 0-4.5-3.55-6.05-2.7-2.2-3.6-5.2 0-2.85 2.45-3 2.55 0 2.45 3.05v.7"/><path fill="#848484" stroke="#1A344F" stroke-width="2.5" stroke-linecap="round" stroke-linejoin="round" d="M208.601 38.201v-43.25H98.551v43.25h110.05"/><path fill="#BCBCBE" stroke="#1A344F" stroke-width="2.5" stroke-linecap="round" stroke-linejoin="round" d="M208.601 9.051v-14.1H98.551v14.1h110.05"/><path fill="none" stroke="#1A344F" stroke-width="2.5" stroke-linecap="round" stroke-linejoin="round" d="M208.601 16.601H98.551"/><path fill="#D56871" stroke="#1A344F" stroke-width="2.5" stroke-linecap="round" stroke-linejoin="round" d="M160.151-50.849h-13.85v45.8h13.85v-45.8"/></symbol></defs><g overflow="visible"><path fill="#B3EDF4" d="M696.85 445.451v-447.4H-3v447.4h699.85"/><path fill="#55B0FE" d="M696.85 445.451v-316.35H-3v316.35h699.85"/><path fill="none" stroke="#1A344F" stroke-width="2.5" stroke-linecap="round" stroke-linejoin="round" d="M476.2 408.901h166.35M432.55 414.401h177.4M72.7 208.901h174.35M46 214.401h149.05M170.751 29.451h182.55M246.901 21.351h-137.7"/><path fill="#FFF" stroke="#19344F" stroke-width="2.5" stroke-linecap="round" stroke-linejoin="round" d="M74.7 74.151q-1.75.25-3.6.7-3.75.85-4.3 1.8-.55.9.25 4.1.45 1.6.95 3l30.75-.6 8.2-3.15-10.85-8.7-21.4 2.85"/><path fill="#FFF" d="M80.55 62.801q-6.35 4.3-7.85 12.5l46.8 2.8q-1.75-8.35-8.35-13.8-6.7-5.55-15.4-5.55-9.25 0-15.2 4.05"/><path fill="none" stroke="#19344F" stroke-width="2.5" stroke-linecap="round" stroke-linejoin="round" d="M72.7 75.301q1.5-8.2 7.85-12.5 5.95-4.05 15.2-4.05 8.7 0 15.4 5.55 6.6 5.45 8.35 13.8"/><path fill="#FFF" d="M74.25 69.501q-5.9 0-10.1 4.2Q60 77.851 60 83.751l23.9-10.5q-4.05-3.75-9.65-3.75"/><path fill="none" stroke="#19344F" stroke-width="2.5" stroke-linecap="round" stroke-linejoin="round" d="M64.15 73.701q4.2-4.2 10.1-4.2 5.6 0 9.65 3.75m-19.75.45Q60 77.851 60 83.751"/><path fill="#FFF" d="M64.95 79.551q-3.35-3.05-8.05-2.8-4.6.2-7.75 3.6-3.15 3.4-3.15 8.05 0 1.55 1.1 2.7 1.1 1.1 2.65 1.1h82.6q1.1 0 1.85-.8.75-.75.75-1.85v-2q0-5.55-3.9-9.45-3.9-3.95-9.45-3.95-4.1 0-7.5 2.3l-49.15 3.1"/><path fill="none" stroke="#19344F" stroke-width="2.5" stroke-linecap="round" stroke-linejoin="round" d="M56.9 76.751q4.7-.25 8.05 2.8m-8.05-2.8q-4.6.2-7.75 3.6-3.15 3.4-3.15 8.05 0 1.55 1.1 2.7 1.1 1.1 2.65 1.1h82.6q1.1 0 1.85-.8.75-.75.75-1.85v-2q0-5.55-3.9-9.45-3.9-3.95-9.45-3.95-4.1 0-7.5 2.3M110.7 69.201q.8.8 1.75 2.1"/><path fill="#FFF" d="M95.2 62.501l13.05 4.45q-2.7-2.1-5.9-3.2-3.45-1.25-7.15-1.25"/><path fill="none" stroke="#19344F" stroke-width="2.5" stroke-linecap="round" stroke-linejoin="round" d="M102.35 63.751q3.2 1.1 5.9 3.2m-5.9-3.2q-3.45-1.25-7.15-1.25"/><path fill="#FFF" stroke="#19344F" stroke-width="2.5" stroke-linecap="round" stroke-linejoin="round" d="M561.6 40.701q-1.85.25-3.8.7-3.9.95-4.5 1.9-.6.95.3 4.35.45 1.65 1 3.15l32.2-.6 8.65-3.35-11.4-9.1-22.45 2.95"/><path fill="#FFF" d="M567.75 28.801q-6.7 4.5-8.25 13.1l49.1 2.95q-1.8-8.75-8.7-14.5-7.05-5.8-16.2-5.8-9.7 0-15.95 4.25"/><path fill="none" stroke="#19344F" stroke-width="2.5" stroke-linecap="round" stroke-linejoin="round" d="M559.5 41.901q1.55-8.6 8.25-13.1 6.25-4.25 15.95-4.25 9.15 0 16.2 5.8 6.9 5.75 8.7 14.5"/><path fill="#FFF" d="M561.15 35.801q-6.2 0-10.6 4.4-4.4 4.4-4.4 10.6l25.1-11.05q-4.25-3.95-10.1-3.95"/><path fill="none" stroke="#19344F" stroke-width="2.5" stroke-linecap="round" stroke-linejoin="round" d="M550.55 40.201q4.4-4.4 10.6-4.4 5.85 0 10.1 3.95m-20.7.45q-4.4 4.4-4.4 10.6"/><path fill="#FFF" d="M534.75 47.251q-3.3 3.6-3.3 8.45 0 1.65 1.15 2.8 1.2 1.15 2.8 1.15h86.7q1.15 0 1.95-.8t.8-1.95v-2.15q0-5.8-4.1-9.95-4.15-4.1-9.95-4.1-4.25 0-7.85 2.4-25.8 1.6-51.55 3.25-3.65-3.15-8.5-2.95-4.8.25-8.15 3.85"/><path fill="none" stroke="#19344F" stroke-width="2.5" stroke-linecap="round" stroke-linejoin="round" d="M531.45 55.701q0-4.85 3.3-8.45 3.35-3.6 8.15-3.85 4.85-.2 8.5 2.95m-19.95 9.35q0 1.65 1.15 2.8 1.2 1.15 2.8 1.15h86.7q1.15 0 1.95-.8t.8-1.95v-2.15q0-5.8-4.1-9.95-4.15-4.1-9.95-4.1-4.25 0-7.85 2.4M599.4 35.501q.85.9 1.85 2.25"/><path fill="#FFF" d="M583.15 28.501l13.65 4.65q-2.9-2.2-6.15-3.35-3.6-1.3-7.5-1.3"/><path fill="none" stroke="#19344F" stroke-width="2.5" stroke-linecap="round" stroke-linejoin="round" d="M590.65 29.801q3.25 1.15 6.15 3.35m-6.15-3.35q-3.6-1.3-7.5-1.3"/><g transform="translate(-262.649 112.85)"><animateTransform attributeName="transform" additive="replace" type="translate" dur="6.95s" keyTimes="0;1" values="0,0;0,0" fill="freeze"/><animateTransform attributeName="transform" additive="sum" type="translate" repeatCount="indefinite" dur="6.95s" keyTimes="0;0.007;0.014;0.022;0.029;0.036;0.043;0.05;0.058;0.065;0.072;0.079;0.086;0.094;0.101;0.108;0.115;0.122;0.129;0.137;0.144;0.151;0.158;0.165;0.173;0.18;0.187;0.194;0.201;0.208;0.209;1" values="-262.649,112.85;-253.899,112.85;-245.149,112.85;-236.399,112.85;-227.649,112.85;-218.899,112.85;-210.149,112.85;-201.399,112.85;-192.649,112.85;-183.899,112.85;-175.149,112.85;-166.399,112.85;-157.649,112.85;-148.899,112.85;-140.149,112.85;-131.399,112.85;-122.599,112.85;-113.899,112.85;-105.099,112.85;-96.399,112.85;-87.599,112.85;-78.849,112.85;-70.099,112.85;-61.349,112.85;-52.599,112.85;-43.849,112.85;-35.099,112.85;-26.349,112.85;-17.599,112.85;-8.849,112.85;0;0" calcMode="discrete"/><animateTransform attributeName="transform" additive="sum" type="translate" repeatCount="indefinite" dur="6.95s" keyTimes="0;0.209;0.216;0.223;0.23;0.237;0.245;0.252;0.259;0.266;0.273;0.281;0.288;0.295;0.302;0.309;0.317;0.324;0.331;0.338;0.345;0.353;0.36;0.367;0.374;0.381;0.388;0.396;0.403;0.409;0.41;1" values="0;-8.849,112.85;-0.099,112.85;8.65,112.85;17.4,112.85;26.15,112.85;34.9,112.85;43.65,112.85;52.4,112.85;61.15,112.85;69.9,112.85;78.65,112.85;87.4,112.85;96.15,112.85;104.9,112.85;113.65,112.85;122.4,112.85;131.15,112.85;139.9,112.85;148.65,112.85;157.4,112.85;166.2,112.85;174.9,112.85;183.7,112.85;192.4,112.85;201.2,112.85;209.95,112.85;218.7,112.85;227.45,112.85;236.15,112.85;0;0" calcMode="discrete"/><animateTransform attributeName="transform" additive="sum" type="translate" repeatCount="indefinite" dur="6.95s" keyTimes="0;0.41;0.417;0.424;0.432;0.439;0.446;0.453;0.46;0.468;0.475;0.482;0.489;0.496;0.504;0.511;0.518;0.525;0.532;0.54;0.547;0.554;0.561;0.568;0.576;0.583;0.59;0.597;0.604;0.611;0.612;1" values="0;236.15,112.85;244.95,112.85;253.65,112.85;262.45,112.85;271.2,112.85;279.95,112.85;288.7,112.85;297.45,112.85;306.2,112.85;314.95,112.85;323.7,112.85;332.45,112.85;341.2,112.85;349.95,112.85;358.7,112.85;367.45,112.85;376.2,112.85;384.95,112.85;393.7,112.85;402.45,112.85;411.2,112.85;419.95,112.85;428.7,112.85;437.45,112.85;446.2,112.85;455,112.85;463.7,112.85;472.45,112.85;481.2,112.85;0;0" calcMode="discrete"/><animateTransform attributeName="transform" additive="sum" type="translate" repeatCount="indefinite" dur="6.95s" keyTimes="0;0.612;0.619;0.626;0.633;0.64;0.647;0.655;0.662;0.669;0.676;0.683;0.691;0.698;0.705;0.712;0.719;0.727;0.734;0.741;0.748;0.755;0.763;0.77;0.777;0.784;0.791;0.799;0.806;0.812;0.813;1" values="0;481.2,112.85;489.95,112.85;498.75,112.85;507.45,112.85;516.25,112.85;524.95,112.85;533.75,112.85;542.45,112.85;551.25,112.85;560,112.85;568.75,112.85;577.5,112.85;586.25,112.85;595,112.85;603.75,112.85;612.5,112.85;621.25,112.85;630,112.85;638.75,112.85;647.5,112.85;656.25,112.85;665,112.85;673.75,112.85;682.5,112.85;691.25,112.85;700,112.85;708.75,112.85;717.5,112.85;726.25,112.85;0;0" calcMode="discrete"/><animateTransform attributeName="transform" additive="sum" type="translate" repeatCount="indefinite" dur="6.95s" keyTimes="0;0.813;0.82;0.827;0.835;0.842;0.849;0.856;0.863;0.871;0.878;0.885;0.892;0.899;0.906;0.914;0.921;0.928;0.935;0.942;0.95;0.957;0.964;0.971;0.978;0.986;0.993;1" values="0;726.25,112.85;735,112.85;743.75,112.85;752.5,112.85;761.25,112.85;770,112.85;778.75,112.85;787.55,112.85;796.25,112.85;805.05,112.85;813.75,112.85;822.55,112.85;831.25,112.85;840.05,112.85;848.8,112.85;857.55,112.85;866.3,112.85;875.05,112.85;883.8,112.85;892.55,112.85;901.3,112.85;910.05,112.85;918.8,112.85;927.55,112.85;936.3,112.85;945.05,112.85;953.8,112.85" calcMode="discrete"/><path fill="#B89F78" stroke="#1A344F" stroke-width="2.5" stroke-linecap="round" stroke-linejoin="round" d="M-34.299-2.899h-30.05q-1.55 0-2.7 1.1-1.1 1.15-1.1 2.7v30.05q0 1.6 1.1 2.7 1.15 1.1 2.7 1.1h30.05q1.6 0 2.7-1.1t1.1-2.7V.901q0-1.55-1.1-2.7-1.1-1.1-2.7-1.1"/><path fill="#D2B58F" d="M-31.899-6.949h-34.85q-2.25 0-3.85 1.6t-1.6 3.85v34.9q0 2.2 1.6 3.8 1.6 1.6 3.85 1.6h34.85q2.25 0 3.85-1.6t1.6-3.8v-34.9q0-2.25-1.6-3.85t-3.85-1.6m-36.25 8l15.15 15.15-15.15 15.15v-30.3m18.95 11.35l-15.3-15.3h30.55l-15.25 15.3m-14.75 22.35l14.75-14.75 14.75 14.75h-29.5m33.45-3.65l-14.9-14.9 14.9-14.9v29.8"/><path fill="none" stroke="#1A344F" stroke-width="2.5" stroke-linecap="round" stroke-linejoin="round" d="M-31.899-6.949h-34.85q-2.25 0-3.85 1.6t-1.6 3.85v34.9q0 2.2 1.6 3.8 1.6 1.6 3.85 1.6h34.85q2.25 0 3.85-1.6t1.6-3.8v-34.9q0-2.25-1.6-3.85t-3.85-1.6"/><path fill="none" stroke="#1A344F" stroke-width="2.5" stroke-linecap="round" stroke-linejoin="round" d="M-68.149 1.051l15.15 15.15-15.15 15.15v-30.3M-49.199 12.401l-15.3-15.3h30.55l-15.25 15.3M-63.949 34.751l14.75-14.75 14.75 14.75h-29.5M-30.499 31.101l-14.9-14.9 14.9-14.9v29.8"/><path fill="#B89F78" stroke="#1A344F" stroke-width="2.5" stroke-linecap="round" stroke-linejoin="round" d="M15.251 30.951V.901q0-1.55-1.1-2.7-1.1-1.1-2.7-1.1h-30.05q-1.55 0-2.7 1.1-1.1 1.15-1.1 2.7v30.05q0 1.6 1.1 2.7 1.15 1.1 2.7 1.1h30.05q1.6 0 2.7-1.1t1.1-2.7"/><path fill="#D2B58F" d="M19.301-1.499q0-2.25-1.6-3.85t-3.85-1.6h-34.9q-2.25 0-3.8 1.6-1.6 1.6-1.6 3.85v34.9q0 2.2 1.6 3.8 1.55 1.6 3.8 1.6h34.9q2.25 0 3.85-1.6t1.6-3.8v-34.9m-4.05 32.6l-14.9-14.9 14.9-14.9v29.8m-22.5-14.9l-15.15 15.15v-30.3l15.15 15.15m-11.5-19.1h30.55l-15.25 15.3-15.3-15.3m.5 37.65l14.8-14.75 14.75 14.75h-29.55"/><path fill="none" stroke="#1A344F" stroke-width="2.5" stroke-linecap="round" stroke-linejoin="round" d="M19.301-1.499q0-2.25-1.6-3.85t-3.85-1.6h-34.9q-2.25 0-3.8 1.6-1.6 1.6-1.6 3.85v34.9q0 2.2 1.6 3.8 1.55 1.6 3.8 1.6h34.9q2.25 0 3.85-1.6t1.6-3.8v-34.9"/><path fill="none" stroke="#1A344F" stroke-width="2.5" stroke-linecap="round" stroke-linejoin="round" d="M15.251 31.101l-14.9-14.9 14.9-14.9v29.8M-7.249 16.201l-15.15 15.15v-30.3l15.15 15.15M-18.749-2.899h30.55l-15.25 15.3-15.3-15.3M-18.249 34.751l14.8-14.75 14.75 14.75h-29.55"/><path fill="#B89F78" stroke="#1A344F" stroke-width="2.5" stroke-linecap="round" stroke-linejoin="round" d="M-41.499-45.499q-1.55 0-2.7 1.1-1.1 1.15-1.1 2.7v30.05q0 1.6 1.1 2.7 1.15 1.1 2.7 1.1h30.05q1.6 0 2.7-1.1t1.1-2.7v-30.05q0-1.55-1.1-2.7-1.1-1.1-2.7-1.1h-30.05"/><path fill="#D2B58F" d="M-43.899-49.549q-2.25 0-3.85 1.6t-1.6 3.85v34.85q0 2.25 1.6 3.85t3.85 1.6h34.9q2.25 0 3.85-1.6 1.55-1.6 1.55-3.85v-34.85q0-2.25-1.55-3.85-1.6-1.6-3.85-1.6h-34.9m-1.4 37.9v-29.9l15.15 15.15-15.1 15.15-.05-.4m37.65-29.65v29.8l-14.9-14.9 14.9-14.9m-18.7 11.1l-15.25-15.3h30.55l-15.3 15.3m14.8 22.35h-29.55l14.75-14.75 14.8 14.75"/><path fill="none" stroke="#1A344F" stroke-width="2.5" stroke-linecap="round" stroke-linejoin="round" d="M-43.899-49.549q-2.25 0-3.85 1.6t-1.6 3.85v34.85q0 2.25 1.6 3.85t3.85 1.6h34.9q2.25 0 3.85-1.6 1.55-1.6 1.55-3.85v-34.85q0-2.25-1.55-3.85-1.6-1.6-3.85-1.6h-34.9"/><path fill="none" stroke="#1A344F" stroke-width="2.5" stroke-linecap="round" stroke-linejoin="round" d="M-45.299-11.649v-29.9l15.15 15.15-15.1 15.15-.05-.4M-7.649-41.299v29.8l-14.9-14.9 14.9-14.9M-26.349-30.199l-15.25-15.3h30.55l-15.3 15.3M-11.549-7.849h-29.55l14.75-14.75 14.8 14.75"/><path fill="#B89F78" stroke="#1A344F" stroke-width="2.5" stroke-linecap="round" stroke-linejoin="round" d="M4.351-45.499q-1.55 0-2.7 1.1-1.1 1.15-1.1 2.7v30.05q0 1.6 1.1 2.7 1.15 1.1 2.7 1.1h30q1.6 0 2.75-1.1 1.1-1.1 1.1-2.7v-30.05q0-1.6-1.1-2.7-1.15-1.1-2.75-1.1h-30"/><path fill="#D2B58F" d="M1.901-49.549q-2.25 0-3.8 1.6-1.6 1.6-1.6 3.85v34.85q0 2.25 1.6 3.85 1.55 1.6 3.8 1.6h34.9q2.25 0 3.85-1.6 1.55-1.6 1.55-3.85v-34.85q0-2.25-1.55-3.85-1.6-1.6-3.85-1.6h-34.9m36.3 8.25v29.8l-14.9-14.9 14.9-14.9m-18.7 11.1l-15.3-15.3h30.55l-15.25 15.3m-3.8 3.8L.551-11.249v-30.3l15.15 15.15m-11 18.55l14.8-14.75 14.75 14.75H4.701"/><path fill="none" stroke="#1A344F" stroke-width="2.5" stroke-linecap="round" stroke-linejoin="round" d="M1.901-49.549q-2.25 0-3.8 1.6-1.6 1.6-1.6 3.85v34.85q0 2.25 1.6 3.85 1.55 1.6 3.8 1.6h34.9q2.25 0 3.85-1.6 1.55-1.6 1.55-3.85v-34.85q0-2.25-1.55-3.85-1.6-1.6-3.85-1.6h-34.9"/><path fill="none" stroke="#1A344F" stroke-width="2.5" stroke-linecap="round" stroke-linejoin="round" d="M38.201-41.299v29.8l-14.9-14.9 14.9-14.9M19.501-30.199l-15.3-15.3h30.55l-15.25 15.3M15.701-26.399L.551-11.249v-30.3l15.15 15.15M4.701-7.849l14.8-14.75 14.75 14.75H4.701"/><path fill="#B89F78" stroke="#1A344F" stroke-width="2.5" stroke-linecap="round" stroke-linejoin="round" d="M103.401 30.951V.901q0-1.55-1.1-2.7-1.1-1.1-2.7-1.1h-30.05q-1.55 0-2.7 1.1-1.1 1.15-1.1 2.7v30.05q0 1.6 1.1 2.7 1.15 1.1 2.7 1.1h30.05q1.6 0 2.7-1.1t1.1-2.7"/><path fill="#D2B58F" d="M107.451-1.499q0-2.25-1.6-3.85t-3.85-1.6h-34.85q-2.25 0-3.85 1.6t-1.6 3.85v34.9q0 2.2 1.6 3.8 1.6 1.6 3.85 1.6h34.85q2.25 0 3.85-1.6t1.6-3.8v-34.9m-4.05 32.6l-14.9-14.9 14.9-14.9v29.8m-22.5-14.9l-15.15 15.15v-30.3l15.15 15.15m-11.5-19.1h30.6l-15.3 15.3-15.3-15.3m.55 37.65l14.75-14.75 14.75 14.75h-29.5"/><path fill="none" stroke="#1A344F" stroke-width="2.5" stroke-linecap="round" stroke-linejoin="round" d="M107.451-1.499q0-2.25-1.6-3.85t-3.85-1.6h-34.85q-2.25 0-3.85 1.6t-1.6 3.85v34.9q0 2.2 1.6 3.8 1.6 1.6 3.85 1.6h34.85q2.25 0 3.85-1.6t1.6-3.8v-34.9"/><path fill="none" stroke="#1A344F" stroke-width="2.5" stroke-linecap="round" stroke-linejoin="round" d="M103.401 31.101l-14.9-14.9 14.9-14.9v29.8M80.901 16.201l-15.15 15.15v-30.3l15.15 15.15M69.401-2.899h30.6l-15.3 15.3-15.3-15.3M69.951 34.751l14.75-14.75 14.75 14.75h-29.5"/><path fill="#B89F78" stroke="#1A344F" stroke-width="2.5" stroke-linecap="round" stroke-linejoin="round" d="M57.651 30.951V.901q0-1.55-1.1-2.7-1.1-1.1-2.7-1.1h-30.05q-1.55 0-2.7 1.1-1.1 1.15-1.1 2.7v30.05q0 1.6 1.1 2.7 1.15 1.1 2.7 1.1h30.05q1.6 0 2.7-1.1t1.1-2.7"/><path fill="#D2B58F" d="M61.701-1.499q0-2.25-1.6-3.85t-3.8-1.6h-34.9q-2.25 0-3.85 1.6t-1.6 3.85v34.9q0 2.2 1.6 3.8 1.6 1.6 3.85 1.6h34.9q2.2 0 3.8-1.6 1.6-1.6 1.6-3.8v-34.9m-4.05 32.6l-14.9-14.9 14.9-14.9v29.8m-22.5-14.9l-15.15 15.15v-30.3l15.15 15.15m-11.45-19.1h30.55l-15.3 15.3-15.25-15.3m15.25 22.9l14.8 14.75h-29.55l14.75-14.75"/><path fill="none" stroke="#1A344F" stroke-width="2.5" stroke-linecap="round" stroke-linejoin="round" d="M61.701-1.499q0-2.25-1.6-3.85t-3.8-1.6h-34.9q-2.25 0-3.85 1.6t-1.6 3.85v34.9q0 2.2 1.6 3.8 1.6 1.6 3.85 1.6h34.9q2.2 0 3.8-1.6 1.6-1.6 1.6-3.8v-34.9"/><path fill="none" stroke="#1A344F" stroke-width="2.5" stroke-linecap="round" stroke-linejoin="round" d="M57.651 31.101l-14.9-14.9 14.9-14.9v29.8M35.151 16.201l-15.15 15.15v-30.3l15.15 15.15M23.701-2.899h30.55l-15.3 15.3-15.25-15.3M38.951 20.001l14.8 14.75h-29.55l14.75-14.75"/><path fill="#D56871" stroke="#1A344F" stroke-width="2.5" stroke-linecap="round" stroke-linejoin="round" d="M-174.749-37.299h-13.9v45.8h13.9v-45.8M-253.899 34.351v1.1q0 20.35 14.4 34.7 14.4 14.4 34.75 14.4h384.9q0-8.6 6.1-14.65 6.05-6.1 14.65-6.1 21.7 0 37.05-15.35 15.3-15.3 15.3-37v-5.65h-151.45v1.3q0 11.3-8 19.25-7.95 8-19.25 8h-328.45"/><path fill="#C75564" d="M253.95 7.9l-.75-2.15L103 7.05V8.1q0 11.3-8 19.25-7.95 8-19.25 7.95-212.2-.85-329.7.1l4.45 20.45q340.7 0 455.8-25.05 35.95-7.85 45-17.2 2.85-2.95 2.65-5.7"/><path fill="none" stroke="#1A344F" stroke-width="2.5" stroke-linecap="round" stroke-linejoin="round" d="M-253.899 34.351v1.1q0 20.35 14.4 34.7 14.4 14.4 34.75 14.4h384.9q0-8.6 6.1-14.65 6.05-6.1 14.65-6.1 21.7 0 37.05-15.35 15.3-15.3 15.3-37v-5.65h-151.45v1.3q0 11.3-8 19.25-7.95 8-19.25 8h-328.45M-243.599 65.501h434.3M-234.249 74.751h415.7"/><path fill="#74CBE9" stroke="#1A344F" stroke-width="2.5" stroke-linecap="round" stroke-linejoin="round" d="M-198.749 52.051q-2.9 2.9-2.9 7.05t2.9 7.05q2.95 2.95 7.05 2.95 4.15 0 7.05-2.95 2.95-2.9 2.95-7.05 0-4.1-2.95-7.05-2.9-2.95-7.05-2.95-4.1 0-7.05 2.95M-157.149 52.051q-2.9 2.9-2.9 7.05t2.9 7.05q2.95 2.95 7.1 2.95 4.1 0 7.05-2.95 2.9-2.9 2.9-7.05t-2.9-7.05q-2.95-2.95-7.05-2.95-4.15 0-7.1 2.95M-98.449 59.101q0-4.1-2.95-7.05-2.9-2.95-7.05-2.95-4.1 0-7.05 2.95-2.9 2.9-2.9 7.05t2.9 7.05q2.95 2.95 7.05 2.95 4.15 0 7.05-2.95 2.95-2.9 2.95-7.05M-73.899 52.051q-2.9 2.9-2.9 7.05t2.9 7.05q2.95 2.95 7.05 2.95 4.15 0 7.1-2.95 2.9-2.9 2.9-7.05t-2.9-7.05q-2.95-2.95-7.1-2.95-4.1 0-7.05 2.95M-32.249 52.051q-2.95 2.95-2.95 7.05 0 4.15 2.95 7.05 2.95 2.95 7.05 2.95 4.15 0 7.05-2.95 2.95-2.9 2.95-7.05 0-4.1-2.95-7.05-2.9-2.95-7.05-2.95-4.1 0-7.05 2.95M26.401 59.101q0-4.15-2.9-7.05-2.95-2.95-7.1-2.95-4.1 0-7.05 2.95-2.9 2.9-2.9 7.05t2.9 7.05q2.95 2.95 7.05 2.95 4.15 0 7.1-2.95 2.9-2.9 2.9-7.05M68.001 59.101q0-4.15-2.9-7.05-2.95-2.95-7.05-2.95t-7.05 2.95q-2.95 2.95-2.95 7.05 0 4.15 2.95 7.05 2.95 2.95 7.05 2.95t7.05-2.95q2.9-2.9 2.9-7.05"/><path fill="#FFF" d="M122.15 45.95v-21.3h-2.35v21.3h2.35M128.15 24.65h-3.35v21.3h2.1v-17l3.55 17h2.25l3.4-17.15v17.15h2.25v-21.3h-3.3l-3.4 17-3.5-17M150.4 32.4v-2.55q0-4.85-4.8-5.2h-4.65v21.3h2.35v-8.4h2.15q5.05 0 4.95-5.15m-4.8-5.6q2.65 0 2.45 2.9v2.85q0 3.1-2.6 2.85h-2.15v-8.6h2.3M151.9 40.8q0 4.9 4.9 5.35 4.95 0 4.9-5.35v-11q0-4.95-4.9-5.4-4.85 0-4.9 5.4v11m4.9-14.2q2.65 0 2.5 3.05v11.3q0 2.95-2.5 3.05-2.55 0-2.55-3.05v-11.3q0-2.85 2.55-3.05M168.95 24.65h-4.75v21.3h2.35v-9.1h1.7q3 0 3.1 3.2v3.35q0 2.1.4 2.55h2.4q-.6-1.05-.4-2.55v-3.3q0-3.45-2.7-4.45 2.8-.9 2.65-4.4V29.5q0-4.7-4.75-4.85m2.4 5.05v2.05q0 3.55-3 2.95h-1.8v-7.9h2.35q2.65 0 2.45 2.9M179.4 26.8v19.15h2.4V26.8h3.9v-2.15h-10.25v2.15h3.95M194.45 30.35h2.25v-.6q0-4.85-4.75-5.35-4.8 0-4.75 5.35 0 4.5 3.6 6.05 2.65 2.2 3.55 5.15 0 2.95-2.5 3.05-2.55 0-2.5-3.05v-1.3h-2.25v1.2q0 4.9 4.8 5.3 4.9 0 4.8-5.3 0-4.5-3.55-6.05-2.7-2.2-3.6-5.2 0-2.85 2.45-3 2.55 0 2.45 3.05v.7"/><path fill="#848484" stroke="#1A344F" stroke-width="2.5" stroke-linecap="round" stroke-linejoin="round" d="M-208.499-8.299v43.25h110.05v-43.25h-110.05"/><path fill="#BCBCBE" stroke="#1A344F" stroke-width="2.5" stroke-linecap="round" stroke-linejoin="round" d="M-208.499-8.299v14.1h110.05v-14.1h-110.05"/><path fill="none" stroke="#1A344F" stroke-width="2.5" stroke-linecap="round" stroke-linejoin="round" d="M-208.499 13.351h110.05"/><path fill="#D56871" stroke="#1A344F" stroke-width="2.5" stroke-linecap="round" stroke-linejoin="round" d="M-146.149-54.099h-13.9v45.8h13.9v-45.8"/></g><g style="display:none"><use xlink:href="#a" transform="translate(953.65 308.8)"><animateTransform attributeName="transform" additive="replace" type="translate" dur="6.95s" keyTimes="0;1" values="0,0;0,0" fill="freeze"/><animateTransform attributeName="transform" additive="sum" type="translate" repeatCount="indefinite" dur="6.95s" keyTimes="0;0.504;0.511;0.518;0.525;0.532;0.54;0.547;0.554;0.561;0.568;0.576;0.583;0.59;0.597;0.604;0.612;0.619;0.626;0.633;0.64;0.647;0.655;0.662;0.669;0.676;0.683;0.691;0.698;0.704;0.705;1" values="953.65,308.8;953.65,308.8;944.95,308.8;936.2,308.8;927.5,308.8;918.8,308.8;910.05,308.8;901.35,308.8;892.6,308.8;883.9,308.8;875.2,308.8;866.45,308.8;857.75,308.8;849.05,308.8;840.3,308.8;831.6,308.8;822.9,308.8;814.15,308.8;805.45,308.8;796.75,308.8;788,308.8;779.3,308.8;770.55,308.8;761.85,308.8;753.15,308.8;744.4,308.8;735.7,308.8;726.95,308.8;718.25,308.8;709.55,308.8;0;0" calcMode="discrete"/><animateTransform attributeName="transform" additive="sum" type="translate" repeatCount="indefinite" dur="6.95s" keyTimes="0;0.705;0.712;0.719;0.727;0.734;0.741;0.748;0.755;0.763;0.77;0.777;0.784;0.791;0.799;0.806;0.813;0.82;0.827;0.835;0.842;0.849;0.856;0.863;0.871;0.878;0.885;0.892;0.899;0.905;0.906;1" values="0;709.55,308.8;700.85,308.8;692.1,308.8;683.4,308.8;674.65,308.8;665.95,308.8;657.25,308.8;648.5,308.8;639.8,308.8;631.1,308.8;622.35,308.8;613.65,308.8;604.9,308.8;596.2,308.8;587.5,308.8;578.75,308.8;570.05,308.8;561.35,308.8;552.6,308.8;543.9,308.8;535.2,308.8;526.45,308.8;517.75,308.8;509,308.8;500.3,308.8;491.6,308.8;482.85,308.8;474.15,308.8;465.45,308.8;0;0" calcMode="discrete"/><animateTransform attributeName="transform" additive="sum" type="translate" repeatCount="indefinite" dur="6.95s" keyTimes="0;0.906;0.914;0.921;0.928;0.935;0.942;0.95;0.957;0.964;0.971;0.978;0.986;0.993;1" values="0;465.45,308.8;456.7,308.8;448,308.8;439.3,308.8;430.55,308.8;421.85,308.8;413.15,308.8;404.4,308.8;395.7,308.8;386.95,308.8;378.25,308.8;369.55,308.8;360.8,308.8;352.1,308.8" calcMode="discrete"/></use><animate attributeName="display" repeatCount="indefinite" dur="6.95s" keyTimes="0;0.504;1" values="none;inline;inline"/></g><use xlink:href="#a" transform="translate(352.1 308.8)"><animateTransform attributeName="transform" additive="replace" type="translate" dur="6.95s" keyTimes="0;1" values="0,0;0,0" fill="freeze"/><animateTransform attributeName="transform" additive="sum" type="translate" repeatCount="indefinite" dur="6.95s" keyTimes="0;0.007;0.014;0.022;0.029;0.036;0.043;0.05;0.058;0.065;0.072;0.079;0.086;0.094;0.101;0.108;0.115;0.122;0.129;0.137;0.144;0.151;0.158;0.165;0.173;0.18;0.187;0.194;0.201;0.208;0.209;1" values="352.1,308.8;343.35,308.8;334.6,308.8;325.85,308.8;317.1,308.8;308.35,308.8;299.6,308.8;290.8,308.8;282.05,308.8;273.3,308.8;264.55,308.8;255.8,308.8;247.05,308.8;238.3,308.8;229.55,308.8;220.8,308.8;212.05,308.8;203.3,308.8;194.55,308.8;185.8,308.8;177.05,308.8;168.25,308.8;159.5,308.8;150.75,308.8;142,308.8;133.25,308.8;124.5,308.8;115.75,308.8;107,308.8;98.25,308.8;0;0" calcMode="discrete"/><animateTransform attributeName="transform" additive="sum" type="translate" repeatCount="indefinite" dur="6.95s" keyTimes="0;0.209;0.216;0.223;0.23;0.237;0.245;0.252;0.259;0.266;0.273;0.281;0.288;0.295;0.302;0.309;0.317;0.324;0.331;0.338;0.345;0.353;0.36;0.367;0.374;0.381;0.388;0.396;0.403;0.409;0.41;1" values="0;98.25,308.8;89.5,308.8;80.75,308.8;72,308.8;63.25,308.8;54.5,308.8;45.75,308.8;36.95,308.8;28.2,308.8;19.45,308.8;10.7,308.8;1.95,308.8;-6.799,308.8;-15.549,308.8;-24.299,308.8;-33.049,308.8;-41.799,308.8;-50.549,308.8;-59.299,308.8;-68.049,308.8;-76.799,308.8;-85.599,308.8;-94.349,308.8;-103.099,308.8;-111.849,308.8;-120.599,308.8;-129.349,308.8;-138.099,308.8;-146.849,308.8;0;0" calcMode="discrete"/><animateTransform attributeName="transform" additive="sum" type="translate" repeatCount="indefinite" dur="6.95s" keyTimes="0;0.41;0.417;0.424;0.432;0.439;0.446;0.453;0.46;0.468;0.475;0.482;0.489;0.496;0.504;1" values="0;-146.849,308.8;-155.599,308.8;-164.349,308.8;-173.099,308.8;-181.849,308.8;-190.599,308.8;-199.349,308.8;-208.149,308.8;-216.899,308.8;-225.649,308.8;-234.399,308.8;-243.149,308.8;-251.899,308.8;-260.649,308.8;-260.649,308.8" calcMode="discrete"/></use></g></svg>