<svg xmlns="http://www.w3.org/2000/svg" image-rendering="optimizeQuality" baseProfile="basic" width="695" height="470" viewBox="0 0 695 470" preserveAspectRatio="xMinYMin meet"><g overflow="visible"><path fill="#BC987A" d="M699.701 478.201v-484h-711.95v484h711.95"/><path fill="#9FA7A6" stroke="#19344F" stroke-width="2.5" stroke-linecap="round" stroke-linejoin="round" d="M602.451 592.551l47.65-196.35-133.2-32.3-47.6 196.3 133.15 32.35"/><path fill="#686868" stroke="#19344F" stroke-width="2.5" stroke-linecap="round" stroke-linejoin="round" d="M598.301 551.201l21.45-88.5-105.35-25.55-21.5 88.45 105.4 25.6"/><path fill="#E56C6C" stroke="#19344F" stroke-width="2.5" stroke-linecap="round" stroke-linejoin="round" d="M528.801 560.451l3.55-14.6-41.9-10.15-3.55 14.6 41.9 10.15"/><path fill="#555656" stroke="#19344F" stroke-width="2.5" stroke-linecap="round" stroke-linejoin="round" d="M633.101 404.451l-103.85-25.2-10.5 43.25 103.85 25.2 10.5-43.25"/><path fill="#FFF" d="M579 401.25l-1.7-.4-6.2 25.55 1.7.4 6.2-25.55M583.6 402.4l-1.7-.4-6.2 25.55 9.7 2.35.35-1.55-8-1.95 5.85-24M571.95 400.25q-1.05-1.15-3-1.6-1.95-.5-3.4.05-1.4.5-2.35 1.8-.95 1.35-1.4 3.25l-3.2 13.05q-.45 1.9-.2 3.45.25 1.6 1.25 2.7 1.05 1.15 3 1.65 1.95.45 3.4-.1 1.45-.5 2.4-1.8t1.4-3.2l3.2-13.05q.45-1.9.2-3.5t-1.3-2.7m-.6 5.7l-3.2 13.25q-.55 2.15-1.75 3.2-1.25 1.15-3.4.7-2.05-.55-2.7-2.15-.6-1.5 0-3.65l3.2-13.25q.5-2.15 1.7-3.25 1.25-1.1 3.4-.65 2.05.55 2.7 2.1.6 1.55.05 3.7"/><path fill="#625447" d="M123.151 196.951l-212.7-49.4-33.5 144.3 212.7 49.4 33.5-144.3"/><path fill="#8B745E" stroke="#19344F" stroke-linecap="round" stroke-linejoin="round" d="M806.901 176.301l-212.7-49.4-33.5 144.3 212.7 49.4 33.5-144.3"/><path fill="#8B745E" d="M494.751-72.699l-114.5-93.95-138.45 168.85 114.45 93.95 138.5-168.85"/><path fill="#EAC367" d="M134.701 159.101l-217.95-13.75-9.35 147.85 217.95 13.75 9.35-147.85"/><path fill="none" stroke="#19344F" stroke-width="2.5" stroke-linecap="round" stroke-linejoin="round" d="M134.701 159.101l-217.95-13.75-9.35 147.85 217.95 13.75 9.35-147.85"/><path fill="#E56C6C" stroke="#19344F" stroke-width="2.5" stroke-linecap="round" stroke-linejoin="round" d="M56.251 170.201l-98.25-6.2-7.35 117 98.2 6.2 7.4-117M-53.149 163.301l-16.25-1.05-2.95 46.5 16.25 1.05 2.95-46.5"/><path fill="#BC987A" stroke="#19344F" stroke-width="2.5" stroke-linecap="round" stroke-linejoin="round" d="M120.701 175.101l-48.05-3-7.25 115.3 48 3 7.3-115.3"/><path fill="#FFF" d="M106.3 204.7q-1.55-.7-3.65-.85l-14.5-.9q-2.05-.15-3.7.35-1.6.55-2.65 1.85-1 1.3-1.2 3.45-.05 2.15.75 3.55.85 1.4 2.4 2.15 1.6.7 3.65.85l7.7.45.35-5.5-1.7-.1-.25 3.75-6.1-.35q-2.3-.15-3.75-1.25-1.4-1.1-1.3-3.4.2-2.3 1.75-3.2 1.55-.9 3.85-.75l14.7.9q2.35.15 3.8 1.25 1.4 1.1 1.25 3.4-.15 2.3-1.7 3.2-1.55.9-3.9.75l-2.2-.15-.1 1.75 2.1.15q2.1.15 3.7-.35 1.65-.55 2.65-1.85 1.05-1.3 1.15-3.45.15-2.15-.7-3.55-.8-1.4-2.4-2.15M105.35 219.95q-1.55-.75-3.65-.9l-14.5-.9q-2.05-.15-3.7.4-1.7.55-2.65 1.85-1 1.35-1.2 3.5-.05 2.15.75 3.6.8 1.45 2.4 2.2 1.55.75 3.6.9l14.5.9q2.1.15 3.75-.4t2.65-1.9q1.05-1.35 1.15-3.5.15-2.15-.7-3.6-.85-1.4-2.4-2.15m.15 2.2q1.4 1.1 1.25 3.45-.15 2.35-1.7 3.25-1.5.95-3.85.8l-14.75-.9q-2.35-.15-3.75-1.3-1.45-1.1-1.35-3.45.2-2.35 1.8-3.25 1.5-.9 3.85-.75l14.75.9q2.35.15 3.75 1.25M107.55 236.95l.1-1.9-28.35-1.8-.7 10.75 1.7.1.6-8.85 26.65 1.7M104.15 259.5q2-1.4 2.25-4.65l.4-6.25-28.35-1.8-.4 6.25q-.15 3.25 1.65 4.9 1.8 1.65 5 1.85l14.25.9q3.15.2 5.2-1.2m.55-4.8q-.2 2.35-1.7 3.3-1.5 1-3.8.8l-14.45-.9q-2.4-.1-3.75-1.3-1.35-1.1-1.25-3.5l.3-4.3 24.95 1.6-.3 4.3"/><path fill="#B2DCD3" stroke="#384861" stroke-width="2.5" stroke-linecap="round" stroke-linejoin="round" d="M160.351 136.551l-88.65-118.7-174.95 130.75 88.7 118.65 174.9-130.7"/><path fill="#87B7AC" stroke="#19344F" stroke-width="2.5" stroke-linecap="round" stroke-linejoin="round" d="M19.151 77.101l-78.85 58.95 70.15 93.9 78.85-58.95-70.15-93.9"/><path fill="#E56C6C" stroke="#19344F" stroke-width="2.5" stroke-linecap="round" stroke-linejoin="round" d="M-68.699 142.751l-13 9.7 27.85 37.35 13.05-9.75-27.9-37.3"/><path fill="#9FA7A6" stroke="#19344F" stroke-width="2.5" stroke-linecap="round" stroke-linejoin="round" d="M102.001 160.451l38.55-28.75-69.15-92.6-38.55 28.8 69.15 92.55"/><path fill="#FFF" d="M86.4 81.85q-1.7.4-3.35 1.65L71.4 92.2q-1.65 1.25-2.55 2.75-.9 1.5-.85 3.1.15 1.7 1.35 3.4 1.35 1.75 2.9 2.25 1.6.65 3.3.15 1.65-.4 3.3-1.65l11.65-8.7q1.65-1.25 2.6-2.75.9-1.45.75-3.15-.1-1.65-1.35-3.45-1.3-1.65-2.9-2.2-1.5-.55-3.2-.1m4.7 3.35q1.4 1.9.85 3.65-.55 1.65-2.45 3.1l-11.85 8.8q-1.9 1.45-3.65 1.5-1.85.05-3.3-1.85-1.35-1.85-.75-3.55.55-1.65 2.45-3.1l11.85-8.8q1.9-1.45 3.65-1.5 1.8-.1 3.2 1.75M86 78.65l1.35-1.05-8.05-10.8-1.35 1.05 3.45 4.65L60 88.45l1.1 1.5L82.5 74l3.5 4.65M97.15 95.75q1.8-.05 3.2 1.8 1.35 1.85.8 3.55-.65 1.7-2.5 3.1l-2 1.45 1.05 1.4 1.9-1.4q1.65-1.25 2.6-2.7.95-1.45.8-3.1-.05-1.6-1.3-3.4-1.35-1.65-2.9-2.2-1.5-.55-3.2-.1-1.65.45-3.3 1.7l-11.65 8.7q-1.65 1.25-2.6 2.7-.9 1.45-.85 3.1.1 1.7 1.35 3.4 1.35 1.75 2.85 2.2 1.6.55 3.25.1 1.65-.45 3.3-1.7l2.6-1.95-1.05-1.4-2.7 2q-1.85 1.4-3.6 1.5-1.8.1-3.2-1.75-1.35-1.85-.8-3.6.6-1.65 2.45-3.05l11.85-8.8q1.85-1.4 3.65-1.55M66.55 61q1.8-1.35 3.6-1.5 1.75-.05 3.1 1.75 1.35 1.85.75 3.55-.6 1.6-2.45 3l-.6.4 1.1 1.45.5-.35q1.65-1.25 2.5-2.65.95-1.5.9-3.1-.1-1.6-1.35-3.35-1.95-2.45-4.3-2.5-2.4-.05-4.95 1.9-1.9 1.45-2.5 3.2-.7 1.75-.7 3.7-.05 1.9 0 3.8.05 1.85-.5 3.5-.5 1.65-2.05 2.85-1.85 1.45-3.6 1.5-1.75.1-3.2-1.75-1.3-1.9-.75-3.6.55-1.65 2.4-3l1.25-.95-1.05-1.45-1.15.9q-1.65 1.25-2.6 2.7-.85 1.45-.8 3.1.1 1.65 1.35 3.35 1.35 1.75 2.85 2.25 1.55.55 3.2.1 1.65-.45 3.3-1.7 1.85-1.4 2.45-3.2.65-1.7.7-3.6 0-1.95-.05-3.8 0-1.9.5-3.6.55-1.6 2.15-2.9M116.1 119q-2.4-.05-4.95 1.9-1.9 1.45-2.5 3.2-.7 1.75-.7 3.7-.05 1.9 0 3.8.05 1.85-.5 3.5-.5 1.65-2.05 2.85-1.85 1.45-3.6 1.5-1.75.1-3.2-1.75-1.3-1.9-.75-3.6.55-1.65 2.4-3l1.25-.95-1.05-1.45-1.15.9q-1.65 1.25-2.6 2.7-.85 1.45-.8 3.1.1 1.65 1.35 3.35 1.35 1.75 2.85 2.25 1.55.55 3.2.1 1.65-.45 3.3-1.7 1.85-1.4 2.45-3.2.65-1.7.7-3.6 0-1.95-.05-3.8 0-1.9.5-3.6.55-1.6 2.15-2.9 1.8-1.35 3.6-1.5 1.75-.05 3.1 1.75 1.35 1.85.75 3.55-.6 1.6-2.45 3l-.6.4 1.1 1.45.5-.35q1.65-1.25 2.5-2.65.95-1.5.9-3.1-.1-1.6-1.35-3.35-1.95-2.45-4.3-2.5M108.1 105.45l-1.15-1.5-22.75 17 1.15 1.5 8.2-6.15 3.65-.3-6 14.3 1.15 1.55 7-16.05 15.45-1.4-1.2-1.55-17.55 1.6 12.05-9"/><path fill="#4C9DC5" stroke="#19344F" stroke-width="2.5" stroke-linecap="round" stroke-linejoin="round" d="M635.351 37.501l-97.95 111.1 163.8 144.4 97.95-111.1-163.8-144.4"/><path fill="#E9C160" d="M683.701 99.951l-77.55 87.95 73.85 65.1 77.5-87.95-73.8-65.1"/><path fill="none" stroke="#19344F" stroke-width="2.5" stroke-linecap="round" stroke-linejoin="round" d="M683.701 99.951l-77.55 87.95 73.85 65.1 77.5-87.95-73.8-65.1M625.351 186.251l59.35-68.55M633.851 193.801l59.35-68.6M642.401 201.301l59.35-68.55M650.901 208.801l59.35-68.55M659.451 216.351l59.35-68.55M667.951 223.851l59.35-68.55M676.501 231.401l59.35-68.6"/><path fill="#E56C6C" stroke="#19344F" stroke-width="2.5" stroke-linecap="round" stroke-linejoin="round" d="M688.401 260.401l12.2 10.75 30.8-34.95-12.2-10.75-30.8 34.95"/><path fill="#294D5E" stroke="#19344F" stroke-width="2.5" stroke-linecap="round" stroke-linejoin="round" d="M670.751 89.701l-36.1-31.8-76.4 86.65 36.1 31.8 76.4-86.65"/><path fill="#FFF" d="M651.7 98.15l1.35-1.55-21.3-18.8-1.15 1.25 18 15.9-23.6-9.5-1.65 1.85 21.3 18.8 1.15-1.3-19-16.75 24.9 10.1M621.2 89.75l-1.25 1.4 21.3 18.8 1.25-1.4-21.3-18.8M623.15 98.05q-1.55-1.35-3.2-1.95-1.65-.55-3.25-.1-1.6.45-3.1 2-1.35 1.7-1.6 3.3-.25 1.65.6 3.2.75 1.55 2.3 2.9l10.9 9.6q1.55 1.4 3.2 2 1.65.6 3.2.15 1.65-.4 3.1-2.05 1.4-1.6 1.6-3.25.3-1.65-.55-3.25-.75-1.55-2.3-2.95l-10.9-9.6m7.5 19.45q-1.8-.2-3.5-1.75l-11.1-9.75q-1.8-1.6-2.2-3.3-.45-1.8 1.05-3.55 1.6-1.75 3.4-1.5 1.8.15 3.5 1.75l11.1 9.75q1.8 1.55 2.2 3.3.4 1.75-1.1 3.55-1.6 1.7-3.35 1.5M608.2 109.05q1.75.25 3.5 1.85l1.85 1.6 1.2-1.35-1.75-1.55q-1.55-1.35-3.15-1.95-1.65-.6-3.25-.2-1.6.4-3.05 2-1.4 1.65-1.6 3.3-.2 1.6.6 3.15.8 1.5 2.35 2.85l10.9 9.6q1.55 1.4 3.15 2 1.6.6 3.2.25 1.6-.45 3.1-2.05 1.35-1.65 1.55-3.25.2-1.65-.55-3.2-.8-1.5-2.35-2.9l-2.45-2.15-1.2 1.35 2.55 2.25q1.75 1.5 2.2 3.2.45 1.75-1.1 3.5-1.5 1.75-3.3 1.5-1.75-.2-3.45-1.75l-11.1-9.75q-1.8-1.55-2.25-3.3-.4-1.75 1.05-3.5 1.6-1.75 3.35-1.5M614.45 140.35l1.2-1.4-20-17.65 3.85-4.35-1.3-1.15-8.85 10.05 1.3 1.15 3.8-4.3 20 17.65M607.9 147.8l1.25-1.4-21.3-18.8-1.25 1.4 21.3 18.8M584.55 133.7q-2.05-.05-4.15 2.3l-3.95 4.5 21.3 18.8 4.05-4.6q2.15-2.4 1.8-4.7-.3-2.25-2.65-4.3l-1.85-1.65q-1.8-1.6-3.65-1.9-1.85-.3-3.7 1.1 1.05-1.85.55-3.45-.55-1.55-2.3-3.05l-1.2-1.1q-2.25-1.95-4.25-1.95m-5.55 6.55l2.7-3.05q1.45-1.7 2.9-1.6 1.45.1 3.05 1.55l1.4 1.25q1.3 1.15 1.7 2.2.45 1.05 0 2.15-.45 1.05-1.55 2.25l-2.1 2.4-8.1-7.15m15.05 3.5q1.65-.15 3.7 1.65l1.95 1.7q1.8 1.55 2.05 3.15.3 1.55-1.25 3.3l-2.8 3.2-9.3-8.2 2.35-2.65q1.6-1.95 3.3-2.15"/><path fill="#9D8369" d="M308.101 249.101l22.5-106.55-163.95-8.35v132.05l141.45-17.15"/><g transform="translate(345.7 142.5)"><animateTransform attributeName="transform" additive="replace" type="translate" dur="2.875s" keyTimes="0;1" values="0,0;0,0" fill="freeze"/><animateTransform attributeName="transform" additive="sum" type="translate" repeatCount="indefinite" dur="2.875s" keyTimes="0;0.014;0.029;0.043;0.058;0.072;0.087;0.101;0.116;0.13;0.145;0.159;0.174;0.188;0.203;0.217;0.478;0.493;0.507;0.522;0.536;0.551;0.565;0.58;0.594;0.609;0.623;0.638;0.652;0.666;0.667;1" values="346.7,144.05;346.764,140.721;346.879,137.444;346.993,134.166;347.057,130.889;347.118,127.611;347.286,124.337;347.35,121.005;347.409,117.727;347.522,114.399;347.636,111.071;347.715,107.844;347.771,104.566;347.886,101.238;348,97.96;348,97.91;348,97.91;348,97.96;347.888,100.642;347.876,103.323;347.765,106.055;347.703,108.729;347.591,111.412;347.579,114.201;347.468,116.932;347.406,119.614;347.349,122.296;347.286,125.078;347.117,127.756;347.109,130.491;0;0" calcMode="discrete"/><animateTransform attributeName="transform" additive="sum" type="translate" repeatCount="indefinite" dur="2.875s" keyTimes="0;0.667;0.681;0.696;0.71;0.725;0.739;1" values="0;347.109,130.491;346.997,133.121;346.935,135.855;346.874,138.636;346.761,141.368;346.7,144.05;346.7,144.05" calcMode="discrete"/><animateTransform attributeName="transform" additive="sum" type="scale" repeatCount="indefinite" dur="2.875s" keyTimes="0;0.014;0.029;0.043;0.058;0.072;0.087;0.101;0.116;0.13;0.145;0.159;0.174;0.188;0.203;0.493;0.507;0.522;0.536;0.551;0.565;0.58;0.594;0.609;0.623;0.638;0.652;0.666;0.667;1" values="1,1;1.014,1.014;1.029,1.029;1.043,1.043;1.057,1.057;1.071,1.071;1.086,1.086;1.1,1.1;1.114,1.114;1.129,1.129;1.143,1.143;1.157,1.157;1.171,1.171;1.186,1.186;1.2,1.2;1.2,1.2;1.188,1.188;1.176,1.176;1.165,1.165;1.153,1.153;1.141,1.141;1.129,1.129;1.118,1.118;1.106,1.106;1.094,1.094;1.082,1.082;1.071,1.071;1.059,1.059;1;1" calcMode="discrete"/><animateTransform attributeName="transform" additive="sum" type="scale" repeatCount="indefinite" dur="2.875s" keyTimes="0;0.667;0.681;0.696;0.71;0.725;0.739;1" values="1;1.059,1.059;1.047,1.047;1.035,1.035;1.024,1.024;1.012,1.012;1,1;1,1" calcMode="discrete"/><animateTransform attributeName="transform" additive="sum" type="translate" repeatCount="indefinite" dur="2.875s" keyTimes="0;0.014;0.029;0.058;0.072;0.087;0.101;0.116;0.145;0.159;0.174;0.536;0.551;0.565;0.58;0.609;0.623;0.638;0.652;0.666;0.667;1" values="-1,-1.55;-0.95,-1.5;-1,-1.55;-1,-1.55;-0.95,-1.55;-1,-1.6;-1,-1.55;-0.95,-1.55;-0.95,-1.55;-1.05,-1.55;-1,-1.55;-1,-1.55;-1,-1.5;-1,-1.5;-1,-1.55;-1,-1.55;-1.05,-1.55;-1.05,-1.55;-0.95,-1.5;-1,-1.55;0;0" calcMode="discrete"/><animateTransform attributeName="transform" additive="sum" type="translate" repeatCount="indefinite" dur="2.875s" keyTimes="0;0.667;0.681;0.696;0.71;0.725;0.739;1" values="0;-1,-1.55;-1,-1.5;-1,-1.55;-1,-1.55;-0.95,-1.55;-1,-1.55;-1,-1.55" calcMode="discrete"/><path fill="#FFF" d="M.2 225.15V0h-172.3v225.15H.2"/><path fill="#EFEFEF" d="M-1.049.051h-12.75v225.5h12.75V.051"/><path fill="none" stroke="#19344F" stroke-width="2.5" stroke-linecap="round" stroke-linejoin="round" d="M.2 225.15V0h-172.3v225.15H.2"/><path fill="#D7D7D7" d="M-172.299 149.851q-.55 18.55.3 19.65.85 1.15 12.05 28.2 5.6 13.5 11.05 26.8h76.8l-12.35-30.3-24-10.85-17.9-2.5-45.2-49.35-.75 18.35"/><path fill="#FFF" d="M148.3 22.7L148.25 0H.2v225.15h172.25V22.7H148.3"/><path fill="#D7D7D7" d="M13.001.051H.251v225.5h12.75V.051"/><path fill="none" stroke="#19344F" stroke-width="2.5" stroke-linecap="round" stroke-linejoin="round" d="M148.3 22.7L148.25 0H.2v225.15h172.25V22.7H148.3"/><path fill="#E9AF90" stroke="#19344F" stroke-width="2.5" stroke-linecap="round" stroke-linejoin="round" d="M-175.449 123.001q-4.25.65-7.75 2.25-11.3 5.1-11.3 17.8l7 20.8-1.5.75q-1.75 1.15-2.7 3.25-3.1 6.65 2.45 20l-1.4 1.7q-1.5 2.25-2.25 5.1-2.45 9.15 3.65 20.75l20.7 45.15h.75q-1.75 57.75-5.1 171.4-4.05 137.4-4.8 167.25h78l-4.4-342.2q5.45-3.05 10-8.85 8.1-10.4 9.65-25.65v-71.15q0-3.6-2.2-6.7-3.4-4.85-10.75-4.85-7.15 0-9.8 6-1.35 3-1.25 6v36.05q-5.85.45-12.15.65-12.65.4-14.85-.75-2.25-1.1-19.6-20.55l-16.95-19.25.05-25.25q-1.4 0-3.5.3"/><path fill="#EFD1C1" stroke="#19344F" stroke-width="2.5" stroke-linecap="round" stroke-linejoin="round" d="M-91.399 147.151q-2.15-2.2-5.25-2.2t-5.3 2.2q-2.2 2.15-2.2 5.25v4.85q0 3.1 2.2 5.25 2.2 2.2 5.3 2.2 3.1 0 5.25-2.2 2.2-2.15 2.2-5.25v-4.85q0-3.05-2.2-5.25"/><path fill="#E56C6C" stroke="#19344F" stroke-width="2.5" stroke-linecap="round" stroke-linejoin="round" d="M-93.549 282.751h-92.45l-.4 322.4h93.15l-.3-322.4"/><path fill="#B95D5D" d="M-93.549 269.301h-36.55v335.85h36.85l-.3-335.85"/><path fill="none" stroke="#19344F" stroke-width="2.5" stroke-linecap="round" stroke-linejoin="round" d="M-93.549 282.751h-92.45l-.4 322.4h93.15l-.3-322.4"/><path fill="#FFF" d="M-185.999 269.301v13.45h92.45v-13.45h-92.45"/><path fill="none" stroke="#19344F" stroke-width="2.5" stroke-linecap="round" stroke-linejoin="round" d="M-185.999 269.301v13.45h92.45v-13.45h-92.45"/><path fill="#D9D9D9" d="M-130.099 269.301v13.15h27.25q4.85 0 9.35 1.5l-.05-14.65h-36.55"/><path fill="none" stroke="#19344F" stroke-width="2.5" stroke-linecap="round" stroke-linejoin="round" d="M-185.999 269.301v13.45h92.45v-13.45h-92.45"/><path fill="#FCEEA9" stroke="#19344F" stroke-width="2.5" stroke-linecap="round" stroke-linejoin="round" d="M-165.749 296.651q0-2.6-1.85-4.45-1.8-1.85-4.4-1.85-2.6 0-4.45 1.85t-1.85 4.45q0 2.6 1.85 4.4 1.85 1.85 4.45 1.85t4.4-1.85q1.85-1.8 1.85-4.4"/><path fill="none" stroke="#19344F" stroke-width="2.5" stroke-linecap="round" stroke-linejoin="round" d="M-157.799 37.251h138.3M-157.799 47.201h138.3M-157.799 57.151h138.3M-157.799 67.101h138.3M-157.799 77.051h138.3M-157.799 87.001h138.3M-157.799 96.901h138.3M-157.799 106.851h138.3M-157.799 116.801h45.35"/><path fill="#457C9E" stroke="#19344F" stroke-width="2.5" stroke-linecap="round" stroke-linejoin="round" d="M21.001 13.601v48.1h115.55v-48.1H21.001"/><path fill="#FFF" d="M101.35 22.9v-2.05h-13.4V54.9h13.4v-2.05H90.2v-14.2h9.25v-2H90.2V22.9h11.15M107.45 20.85h-2.35l7.15 16.4-7.7 17.65h2.2l6.9-15.85 6.9 15.85h2.4l-7.65-17.65 7.15-16.4h-2.15l-6.45 14.65-6.4-14.65M83.6 45.55q0-2.8-1.15-4.6-1.2-1.8-3.8-2.4 2.55-.55 3.75-2.3 1.2-1.75 1.2-4.7v-3q0-3.65-1.7-5.65-1.75-2-5.6-2.05h-7.1V54.9h2.25V39.7H75q1.95-.05 3.35.5 1.45.5 2.2 1.75.8 1.25.8 3.55v5.3q0 1.4.15 2.35.15 1 .6 1.75h2.3q-.5-.85-.7-1.9-.15-1.1-.1-2.2v-5.25m-2.25-13.6q0 2.3-.75 3.5-.75 1.25-2.15 1.75-1.4.45-3.4.45h-3.6V22.9h4.8q2.75.05 3.95 1.55 1.15 1.55 1.15 4.3v3.2M58 20.6q-2.6 0-4.25 1.1t-2.4 3.05q-.8 1.95-.8 4.45v17.4q0 2.5.8 4.4.75 1.95 2.4 3.05 1.65 1.1 4.25 1.15 2.6-.05 4.25-1.15 1.7-1.1 2.45-3.05.8-1.9.8-4.4V29.2q0-2.5-.8-4.45-.75-1.95-2.45-3.05-1.65-1.1-4.25-1.1m0 2.05q2.8 0 4.05 1.8 1.25 1.75 1.2 4.6v17.7q.05 2.8-1.2 4.55-1.25 1.8-4.05 1.85-2.8-.05-4.05-1.85-1.2-1.75-1.15-4.55v-17.7q-.05-2.85 1.15-4.6 1.25-1.8 4.05-1.8M47.25 22.9v-2.05h-12.9V54.9h2.25V39.5h8.8v-2.05h-8.8V22.9h10.65"/><path fill="#D7D7D7" d="M151.001.051h-6v27.1h27.5v-4.4l-21.5-22.7"/><path fill="#FFF" stroke="#19344F" stroke-width="2.5" stroke-linecap="round" stroke-linejoin="round" d="M148.301.051l.05 22.7h24.15l-24.2-22.7"/><path fill="none" stroke="#19344F" stroke-width="2.5" stroke-linecap="round" stroke-linejoin="round" d="M20.501 77.051h116.05M20.501 88.001h116.05M20.501 98.901h116.05M20.501 109.901h51.15M20.501 120.701h51.15M20.501 131.551h51.15M20.501 142.351h51.15M20.501 153.151h51.15"/><path fill="#B2DCD3" stroke="#19344F" stroke-width="2.5" stroke-linecap="round" stroke-linejoin="round" d="M136.551 154.201v-45.25h-57.75v45.25h57.75"/><path fill="#D7E0DE" stroke="#19344F" stroke-width="2.5" stroke-linecap="round" stroke-linejoin="round" d="M-19.499 159.101v-30.9h-39.45v30.9h39.45M-19.499 168.851h-39.45v30.9h39.45v-30.9M-108.949 25.701v-12.1h-48.85v12.1h48.85M-88.649 25.701v-12.1h-13.5v12.1h13.5"/><path fill="#D7D7D7" d="M178.651 159.001l-6.15-9.35-56.2 45.35 32.05.7 30.3-36.7"/><path fill="#E9AF90" stroke="#19344F" stroke-width="2.5" stroke-linecap="round" stroke-linejoin="round" d="M187.701 171.051l6.9-20.45q0-12.5-11.05-17.5-3.5-1.55-7.65-2.2l-3.45-.3.05 24.8q-8.1 9.35-16.65 18.9-17.1 19.15-19.3 20.25-2.2 1.1-14.6.7l-12-.65v-31.4q.1-2.95-1.2-5.9-2.6-5.9-9.6-5.9-7.25 0-10.6 4.75-2.15 3.05-2.15 6.55v66q1.5 15 9.5 25.2 4.55 5.8 9.85 8.7l-4.35 336.5h76.65q-1.15-47.2-9.7-333l.75.05 20.35-44.45q6-11.45 3.6-20.4-.75-2.8-2.25-5.05l-1.35-1.65q5.45-13.1 2.4-19.65-.95-2-2.65-3.15l-1.5-.75"/><path fill="#E56C6C" stroke="#19344F" stroke-width="2.5" stroke-linecap="round" stroke-linejoin="round" d="M184.401 328.801h-92.45l-.4 322.4h93.15l-.3-322.4"/><path fill="#FFF" d="M91.9 317.25v13.5h92.45v-13.5H91.9"/><path fill="#D9D9D9" d="M147.901 317.301v13.175l36.55.05v-13.225h-36.55"/><path fill="none" stroke="#19344F" stroke-width="2.5" stroke-linecap="round" stroke-linejoin="round" d="M184.401 330.801v-13.5h-92.45v13.5h92.45"/><path fill="#EFD1C1" stroke="#19344F" stroke-width="2.5" stroke-linecap="round" stroke-linejoin="round" d="M98.401 175.901q3.1 0 5.25-2.15t2.15-5.25v-4.7q0-3.05-2.15-5.25-2.15-2.15-5.25-2.15-3.05 0-5.2 2.15-2.15 2.2-2.15 5.25v4.7q0 3.05 2.15 5.25 2.15 2.15 5.2 2.15"/><path fill="#D6B667" d="M173.95 303.901v-15.35H98.6v15.35h75.35"/><path fill="none" stroke="#19344F" stroke-width="2.5" stroke-linecap="round" stroke-linejoin="round" d="M173.95 303.901v-15.35H98.6v15.35h75.35"/><path fill="#B19351" d="M170.2 295.751q0-7.3-4.1-12.5-4.15-5.15-10-5.15t-10 5.15q-4.15 5.2-4.15 12.5t4.15 12.5q4.15 5.15 10 5.15t10-5.15q4.1-5.2 4.1-12.5"/><path fill="none" stroke="#19344F" stroke-width="2.5" stroke-linecap="round" stroke-linejoin="round" d="M170.2 295.751q0-7.3-4.1-12.5-4.15-5.15-10-5.15t-10 5.15q-4.15 5.2-4.15 12.5t4.15 12.5q4.15 5.15 10 5.15t10-5.15q4.1-5.2 4.1-12.5"/><path fill="#EBD089" d="M174.85 295.751q0-7.3-4.1-12.5-4.15-5.15-10-5.15t-10 5.15q-4.15 5.2-4.15 12.5t4.15 12.5q4.15 5.15 10 5.15t10-5.15q4.1-5.2 4.1-12.5"/><path fill="none" stroke="#19344F" stroke-width="2.5" stroke-linecap="round" stroke-linejoin="round" d="M174.85 295.751q0-7.3-4.1-12.5-4.15-5.15-10-5.15t-10 5.15q-4.15 5.2-4.15 12.5t4.15 12.5q4.15 5.15 10 5.15t10-5.15q4.1-5.2 4.1-12.5"/><path fill="#FEFEFE" d="M170.2 295.751q0-4.9-2.75-8.4-2.8-3.45-6.7-3.45-3.95 0-6.7 3.45-2.75 3.5-2.75 8.4t2.75 8.4q2.75 3.45 6.7 3.45 3.9 0 6.7-3.45 2.75-3.5 2.75-8.4"/><path fill="none" stroke="#19344F" stroke-width="2.5" stroke-linecap="round" stroke-linejoin="round" d="M170.2 295.751q0-4.9-2.75-8.4-2.8-3.45-6.7-3.45-3.95 0-6.7 3.45-2.75 3.5-2.75 8.4t2.75 8.4q2.75 3.45 6.7 3.45 3.9 0 6.7-3.45 2.75-3.5 2.75-8.4"/><path fill="#B08E47" d="M108.05 302.701v-13H99.7v13h8.35"/><path fill="#ECD9B5" d="M110.3 302.701v-13h-2.25v13h2.25"/><path fill="none" stroke="#19344F" stroke-width="2.5" stroke-linecap="round" stroke-linejoin="round" d="M160.75 295.751l4.55 3.65m-4.55-3.65v-7.2"/><path fill="#E66C6C" stroke="#19344F" stroke-width="2.2" stroke-linecap="round" stroke-linejoin="round" d="M108.05 130.301l10.5-10.45q-4.35-4.35-10.5-4.35v14.8"/><path fill="#FFF" stroke="#19344F" stroke-width="2.2" stroke-linecap="round" stroke-linejoin="round" d="M122.85 130.301q0-6.15-4.3-10.45l-10.5 10.45 10.5 10.45q4.3-4.4 4.3-10.45"/><path fill="#FCEEA9" stroke="#19344F" stroke-width="2.2" stroke-linecap="round" stroke-linejoin="round" d="M108.05 130.301v-14.8q-6.1 0-10.45 4.35-4.3 4.3-4.3 10.45 0 6.1 4.3 10.45 4.35 4.35 10.45 4.35 6.05 0 10.5-4.35l-10.5-10.45"/></g></g></svg>