<svg xmlns:xlink="http://www.w3.org/1999/xlink" xmlns="http://www.w3.org/2000/svg" image-rendering="optimizeQuality" baseProfile="basic" width="695" height="445" viewBox="0 0 695 445" preserveAspectRatio="xMinYMin meet"><defs><symbol id="k" overflow="visible"><path fill="#99C977" stroke="#1A344F" stroke-width="2.5" stroke-linecap="round" stroke-linejoin="round" d="M241-101q-.5.4-.2.9l6.7 12.5q.2.5.8.2l26-13.9q.5-.3.2-.8l-6.6-12.5q-.3-.6-.9-.3L241-101"/><path fill="none" stroke="#1A344F" stroke-width="2.5" stroke-linecap="round" stroke-linejoin="round" d="M241-101q-.5.4-.2.9l6.7 12.5q.2.5.8.2l26-13.9q.5-.3.2-.8l-6.6-12.5q-.3-.6-.9-.3L241-101"/><path fill="#F0B971" stroke="#1A344F" stroke-width="2.5" stroke-linecap="round" stroke-linejoin="round" d="M238.9-115.4q-4 2.2-5.1 6.6-1.1 4.4 1.1 8.3 2.3 4 6.7 5.1 4.4 1.2 8.3-1.1 3.9-2.3 5-6.7 1.2-4.4-1-8.3-2.3-4-6.7-5.1-4.4-1.1-8.3 1.2"/><path fill="#ECB069" stroke="#1A344F" stroke-width="2.5" stroke-linecap="round" stroke-linejoin="round" d="M237.4-107.8q-.7 2.9.8 5.4 1.5 2.6 4.3 3.4 2.9.7 5.5-.8 2.6-1.4 3.3-4.3.8-3-.7-5.5-1.5-2.6-4.4-3.3-2.9-.8-5.4.7-2.6 1.5-3.4 4.4"/><path fill="none" stroke="#1A344F" stroke-width="2.5" stroke-linecap="round" stroke-linejoin="round" d="M243.7-106.1l1.4.3q.5.1.8.6.3.5.1 1t-.6.9q-.5.3-1 .1l-2.7-.7m2-2.2q-.5-.2-.8-.7-.3-.5-.1-1t.6-.9q.5-.2 1-.1l2.7.7m-2-.5l.3-1.3m-1.7 6.6l-.4 1.3"/><path fill="#CBCAC9" stroke="#19344F" stroke-width="2.5" stroke-linecap="round" stroke-linejoin="round" d="M217.8-101.4q-5.7.7-4.6 4.5 1 3.7 8.6 14.7 3.8 5.5 7.4 10.2-13.7 9.3-26.8 22.7Q176-22.5 178.7-1.6q2.7 20.9 39.5 26.8 18.5 2.9 36.4 1.7l6-.8q7.2-1.4 12.6-4.7 17.4-10.6 10.7-36-5.4-20.6-22.4-39.7-5.4-6-11.2-11.1l-4.8-4L268.9-93q-.8-1.3-2.2-2.5-2.8-2.4-5.7-2-.3-3.1-2.9-6.2-5.2-6.3-16.9-6.4-19.3-.3-17.4 8.9-3.1-.4-6-.1"/><path fill="none" stroke="#19344F" stroke-width="2.5" stroke-linecap="round" stroke-linejoin="round" d="M254.2-90.3l6.8-7.3m-37.2-3.7l3 8.3"/><path fill="#CBCAC9" d="M268.3 14.5L247.2 27q12.4-1.5 18-7.2 2.8-2.9 3-5.4"/><path fill="none" stroke="#19344F" stroke-width="2.5" stroke-linecap="round" stroke-linejoin="round" d="M265.2 19.9q-5.6 5.7-18 7.2m18-7.2q2.8-2.9 3-5.4"/><path fill="#CBCAC9" d="M222.6 25.8l-3.6-8.9-.3 2.9q.4 3.4 3.9 6"/><path fill="none" stroke="#19344F" stroke-width="2.5" stroke-linecap="round" stroke-linejoin="round" d="M218.7 19.8q.4 3.4 3.9 6m-3.9-6l.3-2.9"/><path fill="#CBCAC9" d="M193.6 6q-.4 2.6-.1 4.9.9 7.4 8.9 10.5l-8.3-17.3-.5 2"/><path fill="none" stroke="#19344F" stroke-width="2.5" stroke-linecap="round" stroke-linejoin="round" d="M193.6 6q-.4 2.6-.1 4.9.9 7.4 8.9 10.5m-8.8-15.3l.5-2"/><path fill="#B1AAA4" d="M260.3-55.6l2.2 9q2.1 11.2 1.9 22-.6 34.4-24.3 51.7l6.8.3q8 0 15-1.8 22.1-5.7 23.8-26.7-3-30.5-25.4-54.5"/><path fill="none" stroke="#19344F" stroke-width="2.5" stroke-linecap="round" stroke-linejoin="round" d="M217.8-101.4q-5.7.7-4.6 4.5 1 3.7 8.6 14.7 3.8 5.5 7.4 10.2-13.7 9.3-26.8 22.7Q176-22.5 178.7-1.6q2.7 20.9 39.5 26.8 18.5 2.9 36.4 1.7l6-.8q7.2-1.4 12.6-4.7 17.4-10.6 10.7-36-5.4-20.6-22.4-39.7-5.4-6-11.2-11.1l-4.8-4L268.9-93q-.8-1.3-2.2-2.5-2.8-2.4-5.7-2-.3-3.1-2.9-6.2-5.2-6.3-16.9-6.4-19.3-.3-17.4 8.9-3.1-.4-6-.1"/><path fill="#EACD69" stroke="#19344F" stroke-width="2.5" stroke-linecap="round" stroke-linejoin="round" d="M251.8-71.6q-.5-.5-1.3-.6l-25.6-2.6q-.8-.1-1.4.4-.5.5-.6 1.3h-.1q0 .8.4 1.4.5.6 1.3.7l25.6 2.5q.8.1 1.4-.4.6-.5.6-1.2v-.1q.1-.8-.3-1.4m-.5 4.3q-.5-.6-1.3-.7l-25.5-2.6q-.8 0-1.4.4-.6.5-.7 1.3 0 .8.4 1.4.5.6 1.3.7l25.6 2.6q.7 0 1.3-.4.7-.5.7-1.3.1-.8-.4-1.4"/><path fill="none" stroke="#1A344F" stroke-width="2.5" stroke-linecap="round" stroke-linejoin="round" d="M227.6-49.2q-1.8 1.2-2.2 3.3-.4 2.1.8 3.9 1.2 1.8 3.3 2.2l5 1q2.2.4 3.4 2.2 1.2 1.7.8 3.8-.4 2.1-2.2 3.3-1.8 1.2-3.9.8l-10.1-2m5-18.5q1.9-1.2 4-.8l10.1 2m-7.5-1.4l1-5.1m-5 25.4l-.9 5"/></symbol><symbol id="l" overflow="visible"><path fill="#E9AF90" d="M189.6-8.8l-.1-9.7L218.8-8q2.5-2.4 6-2.7 3.3-.2 6.1 2 3 2.3 3.5 6.1t-2 6.8q-2.3 2.8-6 3.3-3.7.4-6.6-1.8-2.4-1.8-3.3-4.8l-27-9.7"/><path fill="none" stroke="#19344F" stroke-width="2.5" stroke-linecap="round" stroke-linejoin="round" d="M224.7-10.7q-3.4.3-5.9 2.7l-29.3-10.5m35.2 7.8q3.4-.2 6.2 2 3 2.3 3.5 6.1t-2 6.8q-2.3 2.8-6 3.3-3.7.4-6.6-1.8-2.4-1.8-3.3-4.8l-27-9.7"/></symbol><symbol id="m" overflow="visible"><path fill="#43566B" d="M159.2-17.4l6.7-13.7 9.3 4.5 37 12.6-5 17-38.7-15.9-9.3-4.5"/><path fill="none" stroke="#19344F" stroke-width="2.5" stroke-linecap="round" stroke-linejoin="round" d="M175.3-26.6l-9.4-4.5m9.3 4.5l37 12.6-5 17-38.7-15.9-9.3-4.5"/></symbol><symbol id="d" overflow="visible"><path fill="#E9AF90" d="M162.3-23.8l-.2-9.1h.1q1.9 0 3.2 1.2 1.3 1.3 1.4 3.2 0 1.9-1.3 3.2-1.3 1.4-3.2 1.5"/><path fill="none" stroke="#19344F" stroke-width="2.5" stroke-linecap="round" stroke-linejoin="round" d="M165.4-31.7q-1.3-1.2-3.2-1.2m3.2 1.2q1.3 1.3 1.4 3.2 0 1.9-1.3 3.2-1.3 1.4-3.2 1.5"/></symbol><symbol id="e" overflow="visible"><path fill="#E9AF90" d="M260.6-17.5q2.2-2.7 5.6-3.1 3.5-.5 6.4 1.5 3.1 2.1 3.8 5.8.8 3.7-1.3 6.8-2.1 3.2-5.9 3.9-3.7.7-6.8-1.4-2.5-1.6-3.5-4.5l-17-8-.8-9.6 19.5 8.6"/><path fill="none" stroke="#19344F" stroke-width="2.5" stroke-linecap="round" stroke-linejoin="round" d="M266.2-20.6q-3.4.4-5.6 3L241-26m25.1 5.5q3.5-.5 6.4 1.5 3.1 2.1 3.8 5.8.8 3.7-1.3 6.8-2.1 3.2-5.9 3.9-3.7.7-6.8-1.4-2.5-1.6-3.5-4.5l-17-8"/></symbol><symbol id="f" overflow="visible"><path fill="#43566B" stroke="#19344F" stroke-width="2.5" stroke-linecap="round" stroke-linejoin="round" d="M157.3-29q-.2-3.1 1.7-5.6 2-2.5 5-3.2l18.9-4.4 25.1.7 18.4 8.2 27.3 10.1-4 17.2-37.2-16.5 3.6 38.5-54.6 5.1-4.2-50.1"/></symbol><symbol id="g" overflow="visible"><path fill="#ECECEC" stroke="#19344F" stroke-width="2.5" stroke-linecap="round" stroke-linejoin="round" d="M196-41.9l3.7.3v59.3L175.2 20 170-39l17.3-4.5L196-42"/><path fill="#E9AF90" d="M179.2-38q-.4 2.8 1.4 5 1.7 2.3 4.5 2.7 2.8.4 5-1.4 2.3-1.6 2.7-4.5L194-46l-13.7-1.8-1.2 9.8"/><path fill="#D79A7A" d="M179.8-43.7l13.1-.5-14.2 11.5 1-11"/><path fill="none" stroke="#19344F" stroke-width="2.5" stroke-linecap="round" stroke-linejoin="round" d="M179.2-38q-.4 2.8 1.4 5 1.7 2.3 4.5 2.7 2.8.4 5-1.4 2.3-1.6 2.7-4.5L194-46l-13.7-1.8-1.2 9.8"/></symbol><symbol id="h" overflow="visible"><path fill="#997254" d="M171-137.1q15.2-2.7 27.9 6.2 12.6 8.9 15.3 24 2.6 15.3-6.2 28-9 12.6-24.2 15.3Q168.7-61 156-70q-12.7-8.8-15.3-24-2.6-15.3 6.2-28 9-12.6 24.2-15.2"/><path fill="none" stroke="#19344F" stroke-width="2.5" stroke-linecap="round" stroke-linejoin="round" d="M171-137.1q15.2-2.7 27.9 6.2 12.6 8.9 15.3 24 2.6 15.3-6.2 28-9 12.6-24.2 15.3Q168.7-61 156-70q-12.7-8.8-15.3-24-2.6-15.3 6.2-28 9-12.6 24.2-15.2"/><path fill="none" stroke="#19344F" stroke-width="2.5" stroke-linecap="round" stroke-linejoin="round" d="M171-137.1q15.2-2.7 27.9 6.2 12.6 8.9 15.3 24 2.6 15.3-6.2 28-9 12.6-24.2 15.3Q168.7-61 156-70q-12.7-8.8-15.3-24-2.6-15.3 6.2-28 9-12.6 24.2-15.2"/><path fill="#ED9872" d="M211.2-83.9q3.4-.6 6.3 1.4T221-77q.6 3.4-1.4 6.3t-5.5 3.5q-3.5.6-6.4-1.4-2.8-2-3.5-5.5-.5-3.5 1.5-6.3 2-3 5.5-3.5"/><path fill="#E9AF90" stroke="#19344F" stroke-width="2.5" stroke-linecap="round" stroke-linejoin="round" d="M211.9-84q3.5-.6 6.3 1.4 2.9 2 3.5 5.5.6 3.4-1.4 6.3-2 2.8-5.5 3.5-3.4.6-6.4-1.4-2.8-2-3.4-5.5-.6-3.4 1.4-6.3t5.5-3.5"/><path fill="#ED9872" d="M156.8-71.9q2.9 2 3.5 5.5.6 3.4-1.5 6.3-2 2.9-5.4 3.5-3.5.6-6.4-1.4-2.8-2-3.4-5.5-.6-3.5 1.4-6.3 2-3 5.5-3.5 3.4-.7 6.3 1.4"/><path fill="#E9AF90" stroke="#19344F" stroke-width="2.5" stroke-linecap="round" stroke-linejoin="round" d="M156.8-71.9q2.9 2 3.5 5.5.6 3.4-1.5 6.3-2 2.9-5.4 3.5-3.5.6-6.4-1.4-2.8-2-3.4-5.5-.6-3.5 1.4-6.3 2-3 5.5-3.5 3.4-.7 6.3 1.4"/><path fill="#E9AF90" d="M148.2-92.1l4.2 23.4q2 12.5 12.4 19.7 10.3 7.3 22.8 5.1 12.4-2.2 19.8-12.5 7.2-10.3 5-22.8l-4-23.4q-1.5-8.3-8.4-13.2-6.9-4.8-15.2-3.4l-20 3.5q-8.4 1.5-13.2 8.3-4.9 7-3.4 15.3"/><path fill="#C99477" d="M211.5-86.6l.1 24.1Q201-43.2 183-43.3q-9 0-16-3.9 33.2-5.6 38.3-34 1.5-8.9 0-19l-1.7-8.4q6.8 6.5 8 22"/><path fill="none" stroke="#19344F" stroke-width="2.5" stroke-linecap="round" stroke-linejoin="round" d="M208.1-102.3l4 23.4q2.3 12.4-5 22.8t-19.8 12.5q-12.4 2.2-22.8-5.1-10.3-7.2-12.4-19.7l-4.2-23.4q-1.5-8.3 3.5-15.2 4.8-6.9 13.1-8.4l20-3.4q8.3-1.5 15.2 3.4 7 4.8 8.4 13"/><path fill="none" stroke="#19344F" stroke-width="2.5" stroke-linecap="round" stroke-linejoin="round" d="M208.1-102.3l4 23.4q2.3 12.4-5 22.8t-19.8 12.5q-12.4 2.2-22.8-5.1-10.3-7.2-12.4-19.7l-4.2-23.4q-1.5-8.3 3.5-15.2 4.8-6.9 13.1-8.4l20-3.4q8.3-1.5 15.2 3.4 7 4.8 8.4 13"/><path fill="none" stroke="#19344F" stroke-width="2.5" stroke-linecap="round" stroke-linejoin="round" d="M187.3-89q-.8 1-.6 2.4m.6-2.5q.8-1 2.2-1.3 1.4-.3 2.5.6 1.1.7 1.4 2m-26 2.3q-1 1-.7 2.5m.6-2.5q.8-1.2 2.1-1.4 1.5-.3 2.6.5t1.4 2.2"/><path fill="#FFF" d="M175.2-63.9l16.7-2.9q.7 3.5-1.4 6.4-2 2.8-5.5 3.4-3.4.7-6.3-1.4-2.9-2-3.5-5.5"/><path fill="none" stroke="#19344F" stroke-width="2.5" stroke-linecap="round" stroke-linejoin="round" d="M175.2-63.9l16.7-2.9q.7 3.5-1.4 6.4-2 2.8-5.5 3.4-3.4.7-6.3-1.4-2.9-2-3.5-5.5m11-9.7q.9-1.2.6-2.6m-.6 2.6q-.7 1-2.1 1.3l-3.4.6q-1.4.3-2.5-.6-1.1-.8-1.4-2.2"/><path fill="#997254" d="M200.7-139.8q-8.8-2.9-18.1-1.4-10 1.7-17.8 8.3-7.4 6.5-10.8 15.7 6.3 7.6 15.5 11 9.5 3.5 19.5 1.8 9.3-1.5 16.6-7.3 7-5.6 10.9-13.8.6-1.2.3-2.7-.2-1.4-1.3-2.5-6.3-6.3-14.8-9.1"/><path fill="#7F593D" d="M175.4-104.5q7 1 15.7-1.3 17.4-4.5 25.7-21.6l-4.2-4.9q-6.5-5.6-17.9-9l1.3 3.8q1.1 4.7.5 9.3-2 15-21 23.6"/><path fill="none" stroke="#19344F" stroke-width="2.5" stroke-linecap="round" stroke-linejoin="round" d="M164.6-132.5q7.7-6.6 17.8-8.4 9.2-1.5 18 1.4 8.5 2.8 14.9 9.2 1 1 1.2 2.4.3 1.4-.3 2.7-3.8 8.2-11 13.8-7.2 5.7-16.5 7.3-10 1.7-19.5-1.8-9.1-3.4-15.5-11 3.5-9.2 10.9-15.6"/><path fill="none" stroke="#19344F" stroke-width="2.5" stroke-linecap="round" stroke-linejoin="round" d="M182.4-140.9q9.2-1.5 18 1.4 8.5 2.8 14.9 9.2 1 1 1.2 2.4.3 1.4-.3 2.7-3.8 8.2-11 13.8-7.2 5.7-16.5 7.3-10 1.7-19.5-1.8-9.1-3.4-15.5-11m28.7-24q-7.2 1.3-13.3 5.1-6 3.8-10.2 9.4m3.4 6.2l-1.6 2.6"/><path fill="none" stroke="#19344F" stroke-width="2.5" stroke-linecap="round" stroke-linejoin="round" d="M174.2-131.9q-5.1 3.3-9.2 8m9.2-8l4.2-2.2"/></symbol><symbol id="i" overflow="visible"><path fill="#E56C6C" stroke="#19344F" stroke-width="2.5" stroke-linecap="round" stroke-linejoin="round" d="M180-29.4l1.7-5.3h7.1l1.8 5.3L187-24h-3.5l-3.6-5.4"/></symbol><symbol id="j" overflow="visible"><path fill="#E56C6C" stroke="#19344F" stroke-width="2.5" stroke-linecap="round" stroke-linejoin="round" d="M183.5-24h3.5l3.6 51.6-5.3 5.3-5.4-5.3 3.6-51.6"/></symbol><symbol id="c" overflow="visible"><path fill="#CBCAC9" d="M209.9 13.3l1.4.8v-1l-1.4.2"/><path fill="#43566B" d="M211.3 14l-1.4-.7-5.3-2.9-2 3.8-20 2.5v-.2l-2 .4-11.7 1.5.1 1.2-4.2 1L166 26q9.8 7.2 19.7 4.1l10.2-1.3 4.3-.6 3.6-.7 1.6-.2q9.6-11 9.5-11.3l-.3-.1-.3-.2-.3-.1-2.8-1.6"/><path fill="#CBCAC9" d="M200.3 28.2l-4.3.6 3.4-.4q.5 0 .9-.2"/><path fill="none" stroke="#19344F" stroke-width="2.5" stroke-linecap="round" stroke-linejoin="round" d="M204.6 10.4l5.3 2.9m-7.3.9l2-3.8m-22 6.3l20-2.5m-20 2.3v.2m-2 .2l2-.5m-13.7 2l11.8-1.5M169 19.6l-.2-1.2m-4.2 2.2l4.4-1m-3 6.4l-1.3-5.4m31.2 8.2l-10.3 1.3m18.2-2.5l-3.6.6m14.4-12.3l1.1.5m-1.4-.7l.3.2m-.6-.4l.3.2m-3.1-1.6l2.8 1.5m-4.2-2.3l1.4.8M196 28.8l4.3-.6"/></symbol><symbol id="w" overflow="visible"><use xlink:href="#a" transform="matrix(-1.209 0 0 1.217 222 46.8)"/><use xlink:href="#b" transform="matrix(-1.292 0 0 1.292 242.3 87.5)"/><use xlink:href="#c"/><use xlink:href="#a" transform="matrix(-.848 -.975 -.975 .848 166.5 57.2)"/><use xlink:href="#b" transform="matrix(-1.28 -.169 -.169 1.28 154 94.8)"/><use xlink:href="#d"/><use xlink:href="#e"/><use xlink:href="#f"/><use xlink:href="#g"/><use xlink:href="#h"/><use xlink:href="#i"/><use xlink:href="#j"/><use xlink:href="#k"/><use xlink:href="#l"/><use xlink:href="#m"/></symbol><symbol id="v" overflow="visible"><use xlink:href="#a" transform="matrix(-1.197 -.169 -.118 1.222 219 47.9)"/><use xlink:href="#b" transform="matrix(-1.291 -.041 -.041 1.291 235 88.3)"/><use xlink:href="#c"/><use xlink:href="#a" transform="matrix(-.934 -.898 -.858 .967 169.8 57.6)"/><use xlink:href="#b" transform="matrix(-1.283 -.147 -.147 1.283 163 95.7)"/><use xlink:href="#d"/><use xlink:href="#e"/><use xlink:href="#f"/><use xlink:href="#g"/><use xlink:href="#h"/><use xlink:href="#i"/><use xlink:href="#j"/><use xlink:href="#k"/><use xlink:href="#l"/><use xlink:href="#m"/></symbol><symbol id="u" overflow="visible"><use xlink:href="#a" transform="matrix(-1.16 -.339 -.242 1.215 215.8 48.8)"/><use xlink:href="#b" transform="scale(-1.29 1.29) rotate(-3.8 959 2709.8)"/><use xlink:href="#c"/><use xlink:href="#a" transform="matrix(-1.017 -.813 -.727 1.074 173.5 57.9)"/><use xlink:href="#b" transform="matrix(-1.285 -.125 -.125 1.285 171.9 96.5)"/><use xlink:href="#d"/><use xlink:href="#e"/><use xlink:href="#f"/><use xlink:href="#g"/><use xlink:href="#h"/><use xlink:href="#i"/><use xlink:href="#j"/><use xlink:href="#k"/><use xlink:href="#l"/><use xlink:href="#m"/></symbol><symbol id="t" overflow="visible"><use xlink:href="#a" transform="matrix(-1.1 -.497 -.361 1.196 212.6 49.2)"/><use xlink:href="#b" transform="matrix(-1.284 -.13 -.13 1.284 220.3 90)"/><use xlink:href="#c"/><use xlink:href="#a" transform="matrix(-1.09 -.724 -.582 1.163 177.1 57.5)"/><use xlink:href="#b" transform="scale(-1.29 1.29) rotate(-4.8 838.2 1724.5)"/><use xlink:href="#d"/><use xlink:href="#e"/><use xlink:href="#f"/><use xlink:href="#g"/><use xlink:href="#h"/><use xlink:href="#i"/><use xlink:href="#j"/><use xlink:href="#k"/><use xlink:href="#l"/><use xlink:href="#m"/></symbol><symbol id="s" overflow="visible"><use xlink:href="#a" transform="matrix(-1.017 -.65 -.483 1.164 209 49.3)"/><use xlink:href="#b" transform="scale(-1.29 1.29) rotate(-7.8 433.4 1246)"/><use xlink:href="#c"/><use xlink:href="#a" transform="matrix(-1.154 -.628 -.431 1.232 180.6 56.9)"/><use xlink:href="#b" transform="matrix(-1.288 -.087 -.087 1.288 189.8 98.2)"/><use xlink:href="#d"/><use xlink:href="#e"/><use xlink:href="#f"/><use xlink:href="#g"/><use xlink:href="#h"/><use xlink:href="#i"/><use xlink:href="#j"/><use xlink:href="#k"/><use xlink:href="#l"/><use xlink:href="#m"/></symbol><symbol id="r" overflow="visible"><use xlink:href="#a" transform="matrix(-.916 -.786 -.598 1.121 205.5 49.1)"/><use xlink:href="#b" transform="scale(-1.29 1.29) rotate(-9.8 326.1 965.8)"/><use xlink:href="#c"/><use xlink:href="#a" transform="matrix(-1.213 -.523 -.267 1.282 184.1 55.8)"/><use xlink:href="#b" transform="scale(-1.29 1.29) rotate(-3 1339.3 2944.9)"/><use xlink:href="#d"/><use xlink:href="#e"/><use xlink:href="#f"/><use xlink:href="#g"/><use xlink:href="#h"/><use xlink:href="#i"/><use xlink:href="#j"/><use xlink:href="#k"/><use xlink:href="#l"/><use xlink:href="#m"/></symbol><symbol id="q" overflow="visible"><use xlink:href="#a" transform="matrix(-.794 -.909 -.714 1.065 202 48.4)"/><use xlink:href="#b" transform="scale(-1.29 1.29) rotate(-11.8 254.6 776)"/><use xlink:href="#c"/><use xlink:href="#a" transform="matrix(-1.26 -.416 -.098 1.31 187.6 54.3)"/><use xlink:href="#b" transform="matrix(-1.29 -.051 -.051 1.29 206 94.5)"/><use xlink:href="#d"/><use xlink:href="#e"/><use xlink:href="#f"/><use xlink:href="#g"/><use xlink:href="#h"/><use xlink:href="#i"/><use xlink:href="#j"/><use xlink:href="#k"/><use xlink:href="#l"/><use xlink:href="#m"/></symbol><symbol id="p" overflow="visible"><use xlink:href="#a" transform="matrix(-.655 -1.014 -.82 .999 198.6 47.5)"/><use xlink:href="#b" transform="scale(-1.29 1.29) rotate(-13.8 205.3 642.9)"/><use xlink:href="#c"/><use xlink:href="#a" transform="matrix(-1.299 -.301 .069 1.315 190.8 52.4)"/><use xlink:href="#b" transform="matrix(-1.291 -.034 -.034 1.291 214.2 92.6)"/><use xlink:href="#d"/><use xlink:href="#e"/><use xlink:href="#f"/><use xlink:href="#g"/><use xlink:href="#h"/><use xlink:href="#i"/><use xlink:href="#j"/><use xlink:href="#k"/><use xlink:href="#l"/><use xlink:href="#m"/></symbol><symbol id="o" overflow="visible"><use xlink:href="#a" transform="matrix(-.507 -1.096 -.924 .92 195.2 46)"/><use xlink:href="#b" transform="matrix(-1.242 -.351 -.351 1.242 182.8 86)"/><use xlink:href="#c"/><use xlink:href="#a" transform="matrix(-1.327 -.187 .236 1.299 194 50)"/><use xlink:href="#b" transform="scale(-1.291 1.291) rotate(-.8 5252 13111)"/><use xlink:href="#d"/><use xlink:href="#e"/><use xlink:href="#f"/><use xlink:href="#g"/><use xlink:href="#h"/><use xlink:href="#i"/><use xlink:href="#j"/><use xlink:href="#k"/><use xlink:href="#l"/><use xlink:href="#m"/></symbol><symbol id="n" overflow="visible"><use xlink:href="#a" transform="matrix(-.347 -1.158 -1.021 .833 192 44.1)"/><use xlink:href="#b" transform="matrix(-1.229 -.398 -.398 1.229 175.4 85)"/><use xlink:href="#c"/><use xlink:href="#a" transform="matrix(-1.345 -.069 .407 1.261 197 47.5)"/><use xlink:href="#b" transform="matrix(-1.292 0 0 1.292 230.4 88.8)"/><use xlink:href="#d"/><use xlink:href="#e"/><use xlink:href="#f"/><use xlink:href="#g"/><use xlink:href="#h"/><use xlink:href="#i"/><use xlink:href="#j"/><use xlink:href="#k"/><use xlink:href="#l"/><use xlink:href="#m"/></symbol><symbol id="F" overflow="visible"><use xlink:href="#a" transform="matrix(-.492 -1.103 -.933 .913 195 45.7)"/><use xlink:href="#b" transform="scale(-1.29 1.29) rotate(-15.8 170 545)"/><use xlink:href="#c"/><use xlink:href="#a" transform="matrix(-1.329 -.175 .253 1.296 194.4 49.9)"/><use xlink:href="#b" transform="matrix(-1.291 -.017 -.017 1.291 222.7 90.8)"/><use xlink:href="#d"/><use xlink:href="#e"/><use xlink:href="#f"/><use xlink:href="#g"/><use xlink:href="#h"/><use xlink:href="#i"/><use xlink:href="#j"/><use xlink:href="#k"/><use xlink:href="#l"/><use xlink:href="#m"/></symbol><symbol id="E" overflow="visible"><use xlink:href="#a" transform="matrix(-.628 -1.031 -.843 .983 198 47)"/><use xlink:href="#b" transform="scale(-1.29 1.29) rotate(-13.8 205.6 643.9)"/><use xlink:href="#c"/><use xlink:href="#a" transform="matrix(-1.305 -.278 .104 1.314 191.6 52)"/><use xlink:href="#b" transform="matrix(-1.291 -.034 -.034 1.291 214.9 92.5)"/><use xlink:href="#d"/><use xlink:href="#e"/><use xlink:href="#f"/><use xlink:href="#g"/><use xlink:href="#h"/><use xlink:href="#i"/><use xlink:href="#j"/><use xlink:href="#k"/><use xlink:href="#l"/><use xlink:href="#m"/></symbol><symbol id="D" overflow="visible"><use xlink:href="#a" transform="matrix(-.753 -.943 -.748 1.045 201 48)"/><use xlink:href="#b" transform="scale(-1.29 1.29) rotate(-11.8 255.3 776.8)"/><use xlink:href="#c"/><use xlink:href="#a" transform="matrix(-1.274 -.379 -.047 1.314 188.7 53.8)"/><use xlink:href="#b" transform="matrix(-1.29 -.051 -.051 1.29 207 94.5)"/><use xlink:href="#d"/><use xlink:href="#e"/><use xlink:href="#f"/><use xlink:href="#g"/><use xlink:href="#h"/><use xlink:href="#i"/><use xlink:href="#j"/><use xlink:href="#k"/><use xlink:href="#l"/><use xlink:href="#m"/></symbol><symbol id="C" overflow="visible"><use xlink:href="#a" transform="matrix(-.87 -.837 -.644 1.101 204.3 48.7)"/><use xlink:href="#b" transform="scale(-1.29 1.29) rotate(-9.8 326.7 966.7)"/><use xlink:href="#c"/><use xlink:href="#a" transform="matrix(-1.233 -.481 -.2 1.296 185.6 55.3)"/><use xlink:href="#b" transform="scale(-1.29 1.29) rotate(-3 1338.7 2966.2)"/><use xlink:href="#d"/><use xlink:href="#e"/><use xlink:href="#f"/><use xlink:href="#g"/><use xlink:href="#h"/><use xlink:href="#i"/><use xlink:href="#j"/><use xlink:href="#k"/><use xlink:href="#l"/><use xlink:href="#m"/></symbol><symbol id="B" overflow="visible"><use xlink:href="#a" transform="matrix(-.969 -.72 -.541 1.144 207.4 49.1)"/><use xlink:href="#b" transform="scale(-1.29 1.29) rotate(-7.8 433.4 1246)"/><use xlink:href="#c"/><use xlink:href="#a" transform="matrix(-1.186 -.574 -.35 1.259 182.5 56.5)"/><use xlink:href="#b" transform="matrix(-1.288 -.087 -.087 1.288 191.4 98.2)"/><use xlink:href="#d"/><use xlink:href="#e"/><use xlink:href="#f"/><use xlink:href="#g"/><use xlink:href="#h"/><use xlink:href="#i"/><use xlink:href="#j"/><use xlink:href="#k"/><use xlink:href="#l"/><use xlink:href="#m"/></symbol><symbol id="A" overflow="visible"><use xlink:href="#a" transform="matrix(-1.053 -.591 -.435 1.178 210.5 49.1)"/><use xlink:href="#b" transform="matrix(-1.283 -.136 -.136 1.283 218.8 90)"/><use xlink:href="#c"/><use xlink:href="#a" transform="matrix(-1.13 -.667 -.49 1.208 179.2 57.3)"/><use xlink:href="#b" transform="matrix(-1.287 -.102 -.102 1.287 183.8 97.5)"/><use xlink:href="#d"/><use xlink:href="#e"/><use xlink:href="#f"/><use xlink:href="#g"/><use xlink:href="#h"/><use xlink:href="#i"/><use xlink:href="#j"/><use xlink:href="#k"/><use xlink:href="#l"/><use xlink:href="#m"/></symbol><symbol id="z" overflow="visible"><use xlink:href="#a" transform="matrix(-1.121 -.449 -.324 1.203 213.6 49)"/><use xlink:href="#b" transform="matrix(-1.287 -.102 -.102 1.287 224.7 89.4)"/><use xlink:href="#c"/><use xlink:href="#a" transform="matrix(-1.069 -.751 -.627 1.139 176 57.8)"/><use xlink:href="#b" transform="scale(-1.29 1.29) rotate(-5.3 743.3 1517.5)"/><use xlink:href="#d"/><use xlink:href="#e"/><use xlink:href="#f"/><use xlink:href="#g"/><use xlink:href="#h"/><use xlink:href="#i"/><use xlink:href="#j"/><use xlink:href="#k"/><use xlink:href="#l"/><use xlink:href="#m"/></symbol><symbol id="y" overflow="visible"><use xlink:href="#a" transform="matrix(-1.169 -.304 -.216 1.217 216.6 48.5)"/><use xlink:href="#b" transform="scale(-1.29 1.29) rotate(-3 1214.2 3421.7)"/><use xlink:href="#c"/><use xlink:href="#a" transform="matrix(-.999 -.833 -.754 1.054 172.8 58)"/><use xlink:href="#b" transform="matrix(-1.284 -.135 -.135 1.284 169 96.2)"/><use xlink:href="#d"/><use xlink:href="#e"/><use xlink:href="#f"/><use xlink:href="#g"/><use xlink:href="#h"/><use xlink:href="#i"/><use xlink:href="#j"/><use xlink:href="#k"/><use xlink:href="#l"/><use xlink:href="#m"/></symbol><symbol id="x" overflow="visible"><use xlink:href="#a" transform="matrix(-1.199 -.153 -.107 1.222 219.3 47.6)"/><use xlink:href="#b" transform="matrix(-1.291 -.034 -.034 1.291 236.3 88.1)"/><use xlink:href="#c"/><use xlink:href="#a" transform="matrix(-.926 -.906 -.871 .955 169.7 57.6)"/><use xlink:href="#b" transform="matrix(-1.282 -.152 -.152 1.282 161.4 95.5)"/><use xlink:href="#d"/><use xlink:href="#e"/><use xlink:href="#f"/><use xlink:href="#g"/><use xlink:href="#h"/><use xlink:href="#i"/><use xlink:href="#j"/><use xlink:href="#k"/><use xlink:href="#l"/><use xlink:href="#m"/></symbol><symbol id="b" overflow="visible"><path fill="#FFF" stroke="#19344F" stroke-width="2.5" stroke-linecap="round" stroke-linejoin="round" d="M-5.2-3.5q-2.9 0-5 2.1t-2.1 5h24.8l-1.2-7.1H-5.2"/></symbol><symbol id="a" overflow="visible"><path fill="#E9AF90" stroke="#19344F" stroke-width="2.5" stroke-linecap="round" stroke-linejoin="round" d="M-7.5-5.6l-7.4-4.7 2.2 40h7L-7.4-5.6"/><path fill="#43566B" d="M18.3-15.8q-8.9-3.4-11.5-9.8l-21.4 11.3q-1.8 1-2.9 2.8-1 1.7-.8 3.8l1.4 26 14-.8-1-21.4 22.2-11.8"/><path fill="none" stroke="#19344F" stroke-width="2.5" stroke-linecap="round" stroke-linejoin="round" d="M6.8-25.6l7.1-3.8m-28.5 15.1L6.8-25.6m-24.2 14q1-1.7 2.8-2.7m-3.7 6.6q-.1-2 .9-3.8m.5 29.8l-1.4-26m15.5 25.2l-14.1.8M-4-4l1 21.4m21.2-33.3L-4-3.8"/></symbol></defs><g overflow="visible"><path fill="#FFF" d="M700 448.7V.1H0v448.6h700"/><path fill="#99C978" d="M700 448.7V315.3H0v133.4h700"/><path fill="#E56C6C" d="M149.1 183l-2.6-.4q-3.2-.7-6.5-1.7l-.7-.2 1.3 3.4q.1.4-.1.9-.1.4-.6.6h-.4q-.8 0-1-.7l-8.9-23.6H84.1L76 184.9q-.2.7-1 .7h-.4q-.4-.2-.6-.6-.2-.4-.1-.8l1.3-3.8-.8.3q-3.7 1.2-7.1 1.9l-2.7.5.6.5q5.9 5.3 13.5 7.5l3 .7q3.5.7 6.9.7h36.5q3.4 0 6.9-.7l3-.7q7.6-2.2 13.5-7.5l.6-.5"/><path fill="#EEB770" d="M81.4 203.9v3.8h12.2v-3.8H81.4m50.9-2.3V194l-.5.1q-3.3.6-6.7.6H88.6q-3.3 0-6.7-.6l-.5-.1v7.6h50.9m-36.5-42.5h10v-3.8h-10v3.8m24.3 48.6h12.2v-3.8h-12.2v3.8m-24.3 0h10v-3.8h-10v3.8m12.2 0h9.9v-3.8h-10v3.8m-20.4-52.4v3.8h6.1v-3.8h-6.1m17.7-84.8q-1.5.6-2.4 1.8-.9 1.3-.9 2.9t.9 2.9q.9 1.3 2.4 1.8l1.7.2 1.6-.2q1.5-.5 2.4-1.8.9-1.4.9-3 0-1.5-.9-2.8-1-1.2-2.4-1.8-.8-.3-1.6-.3-1 0-1.7.3m9.3 27.9l-2.4-10h-10.4l-2.5 10h15.3m-5.2-37.5q1-1 1-2.4t-1-2.5q-1-1-2.4-1t-2.5 1q-1 1-1 2.5 0 1.4 1 2.4t2.5 1q1.4 0 2.4-1m10.8 98.2h6.2v-3.8H120v3.8m-32.6-10.2v4.1h38.8v-4.1h-.5q-1.7.3-3.8.3H91.7q-2 0-3.8-.2l-.4-.1"/><path fill="#E56C6C" d="M71.4 138.8l1 .9q5.3 4.7 12.3 6.4l3.1.6q2.2.3 3.9.3H122q1.7 0 3.9-.3l3-.6q7-1.7 12.4-6.4l1-1h-3.2v-.1h-.2q-3.2-.8-6.6-2l-.8-.2.7 2.2v.4q0 .8-.7 1h-.3q-1 0-1.1-.7l-6.6-20.5H90.2l-6.6 20.5q-.2.8-1 .8l-.4-.1q-.6-.2-.7-.9v-.5l.7-2.2-.7.3q-3.5 1.2-6.7 1.9h-.2l-.2.2h-3m47.6-16.1q.9 0 1 .9l3.1 15.2v.2q-.1.9-.8 1h-.3q-.9 0-1-.8l-3-15.2q-.2-.4.1-.8.2-.4.7-.5h.2m-6.2 0q1 0 1.2.9l1.5 15.3v.2q-.1.8-1 .9-1 0-1.1-.9l-1.5-15.2v-.6q.3-.6.9-.6m-11 .6v.6l-1.5 15q-.1 1.1-1 1.1h-.1q-.9-.1-1-.9v-.3l1.5-15.1q.1-1 1-1 .8 0 1 .6m5.9-.3q.3.3.3.8V139q-.1 1-1 1-1 0-1.1-.9v-15.3q0-.5.3-.8.3-.3.8-.3t.7.3m-12.9-.3h.2q.5.1.7.5.3.4.2.8l-3.1 15.2q-.1.8-1 .8h-.2q-.8-.1-.9-.9v-.3l3-15.2q.2-.9 1.1-.9"/><path fill="#EEB770" d="M108 159.1h9.9v-3.8h-10v3.8m61.6 118.5v-7h-28.1v7h28.1m-95-25.1v3.8h7v-3.8h-7m0 18.2v6.9h64.7v-7H74.6"/><path fill="#E56C6C" d="M37.7 258.5l-5 10h6.2v-2q0-.4.4-.7.3-.4.7-.4.5 0 .8.4.4.3.4.7v2H45v-2q0-.4.4-.7.3-.4.7-.4t.8.4q.3.3.3.7v2h3.9v-2q0-.4.3-.7.3-.4.8-.4t.8.4q.3.3.3.7v2h3.9v-2q0-.4.3-.7.3-.4.8-.4t.8.4q.3.3.3.7v2h3.8v-2q0-.4.4-.7.3-.4.7-.4.5 0 .8.4.4.3.4.7v2h3.8v-2q0-.4.4-.7.3-.4.7-.4t.8.4q.3.3.3.7v2h3.9v-2q0-.4.3-.7.3-.4.8-.4t.8.4q.3.3.3.7v2h3.9v-2q0-.4.3-.7.3-.4.8-.4t.8.4q.3.3.3.7v2h3.8v-2q0-.4.4-.7.3-.4.7-.4.5 0 .8.4.4.3.4.7v2h3.8v-2q0-.4.4-.7.3-.4.7-.4t.8.4q.3.3.3.7v2h3.9v-2q0-.4.3-.7.3-.4.8-.4t.8.4q.3.3.3.7v2h3.9v-2q0-.4.3-.7.3-.4.8-.4.4 0 .8.4.3.3.3.7v2h3.8v-2q0-.4.4-.7.3-.4.7-.4t.8.4q.3.3.3.7v2h3.9v-2q0-.4.3-.7.3-.4.8-.4t.8.4q.3.3.3.7v2h3.9v-2q0-.4.3-.7.3-.4.8-.4t.8.4q.3.3.3.7v2h3.8v-2q0-.4.4-.7.3-.4.8-.4.4 0 .8.4.3.3.3.7v2h3.8v-2q0-.4.4-.7.3-.4.7-.4t.8.4q.3.3.3.7v2h3.9v-2q0-.4.3-.7.3-.4.8-.4t.8.4q.3.3.3.7v2h3.9v-2q0-.4.3-.7.3-.4.8-.4t.8.4q.3.3.3.7v2h3.8v-2q0-.4.4-.7.3-.4.8-.4.4 0 .8.4.3.3.3.7v2h3.8v-2q0-.4.4-.7.3-.4.7-.4t.8.4q.3.3.3.7v2h3.9v-2q0-.4.3-.7.3-.4.8-.4t.8.4q.3.3.3.7v2h3.9v-2q0-.4.3-.7.3-.4.8-.4t.8.4q.3.3.3.7v2h6.2l-5-10H37.7M156.4 233l-3-.6q-3-.6-6.5-1.6l-.8-.2 2 5.2q.2.3 0 .8-.1.4-.6.6h-.4q-.8 0-1-.6l-10.4-26.7H78l-9.6 26.6q-.2.8-1 .8l-.4-.1q-.5-.1-.6-.6-.2-.3-.1-.8l2-5.4-.8.2q-3.4 1-7.1 1.8l-3.1.6.6.5q6 5.5 13.9 8.3l3 .9q5.4 1.5 10.8 1.5h42.5q5.4 0 10.8-1.5l3-.9q7.9-2.8 13.9-8.3l.6-.5"/><path fill="#EEB770" d="M44.2 270.7v6.9h28.1v-7H44.2m88-14.3h7v-3.8h-7v3.8m-12.1 0h9.9v-3.8h-9.9v3.8m19-6.1V245l-.4.1q-5.1 1.3-10.6 1.3H85.6q-5.5 0-10.5-1.3l-.5-.1v5.2h64.6m-55.5 6.1h9.9v-3.8h-10v3.8m24.4 0h9.9v-3.8h-10v3.8m-12.1 0h10v-3.8h-10v3.8"/><path fill="#19344F" d="M118.1 123.2q-.3.4-.1.8l3 15.2q.1.8 1 .8h.3q.7-.1.8-1v-.2l-3-15.2q-.2-.9-1.1-.9h-.2q-.5.1-.7.5"/><path fill="#19344F" d="M102.8 54.5q-1.6 1.6-1.6 4 0 1.9 1.2 3.5 1.1 1.5 3 2h.4v4l-.4.1q-2.5.6-4.1 2.5-1.6 2-1.6 4.6t1.6 4.5q1.6 2 4.1 2.5h.4v4h-5q-1 0-1.1.9l-3 12.1q-.2.5.2 1 .3.4.9.4h8v3.8h-9.6q-.4 0-.7.4-.4.3-.4.8 0 .4.4.8.3.3.7.3h9.6v3.8H94.7q-.4 0-.7.4-.4.3-.4.7t.4.8q.3.3.7.3h11v3.9H89.5q-.8 0-1.1.8l-5.2 16.2-.1.1h-.1Q72.4 138 61.3 138q-.5 0-.8.3-.3.3-.3.8t.3.8q.3.3.8.3 3.8 0 7.7-.5h.1l.3.4q6.5 6.5 15.5 8.5h.3v4.5h-1.9q-.4 0-.7.4-.4.3-.4.8 0 .4.4.8.3.3.7.3h1.9v3.8h-1.9q-.8 0-1 .8l-6.1 17.7-.1.2h-.2q-11.4 4-23.7 4-.5 0-.8.4-.3.3-.3.8t.3.8q.3.3.8.3 4.9 0 9.6-.6l.3.2q7 7.1 16.8 9.8h.3v8.1h-2q-.4 0-.7.4-.4.3-.4.7 0 .5.4.8.3.4.7.4h2v3.8h-2q-.7 0-1 .7l-7 19.2v.2H69Q56.3 232 43 232q-.4 0-.7.3-.3.3-.3.8t.3.8q.3.3.8.3 5.6 0 11.3-.8h.1l.2.1q7.4 7.5 17.4 10.7l.2.1v5.9h-1.9q-.4 0-.7.4-.4.3-.4.7 0 .5.4.8.3.4.7.4h1.9v3.8H37q-.7 0-1 .6l-6.1 12.2q-.2.6 0 1 .4.6 1 .6h11v68.7q0 .5.4.8.3.3.8.3t.8-.3q.3-.3.3-.8v-59.6H48v59.6q0 .5.4.8.3.3.8.3.4 0 .8-.3.3-.3.3-.8v-59.6H54v59.6q0 .5.4.8.3.3.7.3t.8-.3q.3-.3.3-.8v-59.6h3.9v59.6q0 .5.3.8.3.3.8.3t.8-.3q.3-.3.3-.8v-59.6h3.9v59.6q0 .5.3.8.3.3.8.3t.8-.3q.3-.3.3-.8v-59.6h3.8v59.6q0 .5.4.8.3.3.8.3.4 0 .8-.3.3-.3.3-.8v-59.6h6.9v5q0 .4.3.8.3.3.8.3t.8-.3q.3-.4.3-.8v-5h3.8v5q0 .4.4.8.3.3.7.3.5 0 .8-.3.4-.4.4-.8v-5h3.8v5q0 .4.4.8.3.3.7.3t.8-.3q.3-.4.3-.8v-5h6.9v59.6q0 .5.4.8.3.3.7.3t.8-.3q.3-.3.3-.8v-59.6h3.9v59.6q0 .5.3.8.3.3.8.3t.8-.3q.3-.3.3-.8v-59.6h6.9v5q0 .4.3.8.3.3.8.3t.8-.3q.3-.4.3-.8v-5h3.9v5q0 .4.3.8.3.3.8.3t.8-.3q.3-.4.3-.8v-5h3.8v5q0 .4.4.8.3.3.8.3.4 0 .8-.3.3-.4.3-.8v-5h6.9v59.6q0 .5.3.8.3.3.8.3t.8-.3q.3-.3.3-.8v-59.6h3.8v59.6q0 .5.4.8.3.3.7.3.5 0 .8-.3.4-.3.4-.8v-59.6h3.8v59.6q0 .5.4.8.3.3.7.3t.8-.3q.3-.3.3-.8v-59.6h3.9v59.6q0 .5.3.8.3.3.8.3t.8-.3q.3-.3.3-.8v-59.6h3.9v59.6q0 .5.3.8.3.3.8.3t.8-.3q.3-.3.3-.8v-59.6h3.8v59.6q0 .5.4.8.3.3.7.3.5 0 .8-.3.4-.3.4-.8v-68.7h11q.5 0 .8-.3.3-.4.3-.8l-.2-.7-6-12q-.3-.6-1-.6h-35.3v-3.8h1.9q.5 0 .8-.4.3-.3.3-.8 0-.4-.3-.7-.3-.4-.8-.4h-2v-5.9l.4-.1q10-3.3 17.3-10.7l.2-.1h.2q5.5.8 11.2.8.5 0 .8-.3.4-.4.4-.8 0-.5-.4-.8-.3-.3-.8-.3-12.9 0-25.4-4h-.1l-7.6-19.6q-.3-.7-1-.7h-2v-3.8h2q.4 0 .8-.4.3-.3.3-.8 0-.4-.3-.7-.4-.4-.8-.4h-2v-8.1h.4l.5-2.5h-.3l-3.1.8q-3.5.7-7 .7H88.7q-3.4 0-6.9-.7l-3-.7q-7.6-2.2-13.5-7.5l-.6-.5 2.7-.5q3.4-.7 7.1-2l.8-.2-1.3 3.8q-.1.4 0 .8.3.4.7.6h.4q.8 0 1-.7l8.1-23.6h45.5l7.8 20.8.9-4.1-6.9-18.2q-.2-.7-1-.7h-2v-3.8h2q.5 0 .8-.3.3-.4.3-.8 0-.5-.3-.8-.3-.4-.8-.4h-2v-4.5h.4q8.9-2 15.5-8.5l.2-.3.2-.1h.2q3.7.5 7.5.5.5 0 .8-.3.3-.4.3-.8 0-.5-.3-.8-.3-.3-.8-.3-11 0-21.7-4.1l-.1-.1-5.2-16.3q-.3-.8-1.1-.8H108v-3.9h11q.5 0 .8-.3.3-.3.3-.8 0-.4-.3-.7-.3-.4-.8-.4h-11v-3.8h9.5q.5 0 .8-.3.3-.4.3-.8 0-.5-.3-.8-.3-.4-.8-.4H108v-3.8h8q.5 0 .9-.4.3-.5.2-1L114 87.1q-.2-.9-1.1-.9h-5v-4h.4q2.5-.5 4.1-2.5 1.6-2 1.6-4.5t-1.6-4.6q-1.6-2-4.1-2.5h-.3V64h.3q1.9-.5 3-2 1.2-1.6 1.2-3.5 0-2.3-1.6-4-1.7-1.7-4-1.7t-4.1 1.7m.6 4q0-1.4 1-2.5 1-1 2.5-1 1.4 0 2.4 1t1 2.5q0 1.4-1 2.4t-2.4 1q-1.4 0-2.5-1-1-1-1-2.4m5.1 12q1.5.6 2.4 1.8.9 1.3.9 2.9t-.9 2.9q-1 1.3-2.4 1.8l-1.6.2-1.7-.2q-1.5-.5-2.4-1.8-.9-1.3-.9-3 0-1.5.9-2.8t2.4-1.8q.8-.3 1.7-.3.8 0 1.6.3m6 27.9H99.2l2.5-10H112l2.4 10m-39.9 40.3v-.1h.2q3.2-.7 6.7-2l.7-.2-.7 2.2v.5q0 .7.7.9h.4q.8 0 1-.7l6.6-20.5h33.3l6.6 20.5q.2.8 1 .8l.4-.1q.7-.2.8-1l-.1-.4-.7-2.2.8.3q3.4 1.1 6.6 1.9h.2v.2h3.3l-1.1.9q-5.4 4.7-12.3 6.4l-3.1.6q-2.2.3-3.9.3H91.7q-1.7 0-3.9-.3l-3.1-.6q-7-1.7-12.3-6.4l-1-1h3.2M87.9 149q1.8.2 3.8.2H122q2.1 0 3.8-.2l.5-.1v4.1H87.5v-4.1h.4m-.4 6.4h6.1v3.8h-6.1v-3.8m8.3 0h10v3.8h-10v-3.8m22 0v3.8H108v-3.8h9.9m8.4 0v3.8H120v-3.8h6.2M37.7 258.5H176l5 10h-6.2v-2q0-.4-.3-.7-.4-.4-.8-.4-.5 0-.8.4-.3.3-.3.7v2h-3.9v-2q0-.4-.3-.7-.3-.4-.8-.4t-.8.4q-.3.3-.3.7v2h-3.9v-2q0-.4-.3-.7-.3-.4-.8-.4-.4 0-.7.4-.4.3-.4.7v2h-3.8v-2q0-.4-.3-.7-.4-.4-.8-.4-.5 0-.8.4-.4.3-.4.7v2h-3.8v-2q0-.4-.3-.7-.4-.4-.8-.4-.5 0-.8.4-.3.3-.3.7v2h-3.9v-2q0-.4-.3-.7-.3-.4-.8-.4t-.8.4q-.3.3-.3.7v2h-3.9v-2q0-.4-.3-.7-.3-.4-.8-.4-.4 0-.7.4-.4.3-.4.7v2h-3.8v-2q0-.4-.3-.7-.4-.4-.8-.4-.5 0-.8.4-.4.3-.4.7v2h-3.8v-2q0-.4-.3-.7-.4-.4-.8-.4-.5 0-.8.4-.3.3-.3.7v2H120v-2q0-.4-.3-.7-.3-.4-.8-.4t-.8.4q-.3.3-.3.7v2H114v-2q0-.4-.3-.7-.3-.4-.8-.4-.4 0-.7.4-.4.3-.4.7v2H108v-2q0-.4-.3-.7-.4-.4-.8-.4-.5 0-.8.4-.3.3-.3.7v2h-3.9v-2q0-.4-.3-.7-.3-.4-.8-.4t-.8.4q-.3.3-.3.7v2h-3.9v-2q0-.4-.3-.7-.3-.4-.8-.4-.4 0-.7.4-.4.3-.4.7v2h-3.8v-2q0-.4-.4-.7-.3-.4-.8-.4-.4 0-.7.4-.4.3-.4.7v2h-3.8v-2q0-.4-.3-.7-.4-.4-.8-.4-.5 0-.8.4-.3.3-.3.7v2h-3.9v-2q0-.4-.3-.7-.3-.4-.8-.4t-.8.4q-.3.3-.3.7v2h-3.9v-2q0-.4-.3-.7-.3-.4-.8-.4-.4 0-.7.4-.4.3-.4.7v2h-3.8v-2q0-.4-.4-.7-.3-.4-.8-.4-.4 0-.7.4-.4.3-.4.7v2h-3.8v-2q0-.4-.3-.7-.4-.4-.8-.4-.5 0-.8.4-.3.3-.3.7v2h-3.9v-2q0-.4-.3-.7-.3-.4-.8-.4t-.8.4q-.3.3-.3.7v2h-3.9v-2q0-.4-.3-.7-.3-.4-.8-.4-.4 0-.7.4-.4.3-.4.7v2h-3.8v-2q0-.4-.4-.7-.3-.4-.8-.4-.4 0-.7.4-.4.3-.4.7v2h-6.2l5-10m94.6-64.5v7.6h-51V194l.6.1q3.4.6 6.7.6h36.5q3.4 0 6.7-.6l.5-.1m-12.2 9.9h12.2v3.8h-12.2v-3.8m36.3 29l-.6.6q-6 5.5-13.9 8.3l-3 .9q-5.4 1.5-10.8 1.5H85.6q-5.4 0-10.7-1.5l-3.1-.9q-7.8-2.8-13.9-8.3l-.6-.5 3-.6q3.8-.7 7.2-1.8l.8-.2-2 5.4q-.1.5 0 .8.2.5.7.6h.4q.8 0 1-.7l9.6-26.6h57.7l10.4 26.7q.2.7 1 .7l.4-.1q.5-.2.6-.6.2-.5 0-.8l-2-5.2.8.2q3.5 1 6.5 1.6l3 .6m-17.2 12v5.2H74.6V245l.5.1q5 1.3 10.5 1.3h42.5q5.5 0 10.6-1.3l.5-.1m-19.1 7.5h9.9v3.8h-9.9v-3.8m19 0v3.8h-6.8v-3.8h6.9m-57.8-48.6h12.2v3.8H81.4v-3.8m14.4 0h10v3.8h-10v-3.8m22 0v3.8H108v-3.8h9.9m-43.3 48.6h6.9v3.8h-7v-3.8m9.2 0h9.9v3.8h-10v-3.8m12.2 0h10v3.8h-10v-3.8m22 0v3.8H108v-3.8h9.9m-45.6 25H44.2v-6.8h28.1v6.9m2.3-7h64.6v7H74.6v-7m94.9 7h-28.1v-7h28.1v7"/><path fill="#19344F" d="M148.5 183.6l.6-.5-2.6-.5q-3.2-.7-6.5-1.7l-.7-.2 1.3 3.4q.1.4-.1.9-.1.4-.6.6h-.4q-.8 0-1-.7l-1.1-2.8-2 8.9q7.3-2.2 13.1-7.4m-35.7-60.9q-.6 0-.8.6l-.1.6 1.5 15.2q.2.9 1 .9h.2q.8-.1.9-1v-.1l-1.5-15.3q-.1-.9-1.2-.9m-17 1.3l-.2-.8q-.2-.4-.7-.5h-.2q-.9 0-1 .9l-3.1 15.2v.3q.1.8.9.9h.2q.9 0 1-.8l3-15.2m10.1 15.1q.1.9 1 .9 1 0 1.1-1v-15.2q0-.5-.3-.8t-.7-.3q-.5 0-.8.3-.3.3-.3.8V139m-4-15.8q-.3-.5-1-.6-1 0-1.1 1l-1.5 15.1v.3q.1.8 1 .9 1 0 1.1-1l1.6-15.1-.1-.6"/><path fill="none" stroke="#19344F" stroke-width="2.5" stroke-linecap="round" stroke-linejoin="round" d="M255 243.7h9.6v-52.3H141.9v13.3l3 4.5-3 4.4v30.1h105.5l3.7-2.2 4 2.2"/><path fill="#BFCCDB" d="M206.9 350.3v-107h-15v107h15"/><path fill="none" stroke="#19344F" stroke-width="2.5" stroke-linecap="round" stroke-linejoin="round" d="M206.9 350.3v-107h-15v107h15"/><path fill="#EAF0F8" d="M247.4 243.7l3.7-2.2 4 2.2h9.5v-52.3H147.8v-19.1l-51.6 44.4 51.6 44.5v-17.5h99.6"/><path fill="none" stroke="#19344F" stroke-width="2.5" stroke-linecap="round" stroke-linejoin="round" d="M247.4 243.7l3.7-2.2 4 2.2h9.5v-52.3H147.8v-19.1l-51.6 44.4 51.6 44.5v-17.5h99.6"/><path fill="#D0D8E2" d="M253.7 191.4l-1.6 8.2q-3 9.8-9.8 18-20.8 24.8-69 26l74 .1 3.8-2.2 4 2.2h9.5v-52.3h-11"/><path fill="#19344F" d="M157.7 225.1v2h1.4q3.4 0 4-4.8v-14.7h-2v14.8q0 3-2.4 2.7h-1m13.7-17.4h-3.1l-3.8 19.4h2l.8-4h4.9l.8 4h2.1l-3.7-19.4m.5 13.6h-4.4l2.2-11.2 2.1 11.2m13.7-6.6v-2.3q0-4.3-4.4-4.8h-4.2v19.5h2.1v-7.6h2q4.6 0 4.5-4.7m-2.1.1q0 2.8-2.4 2.6h-2v-7.8h2.1q2.4 0 2.3 2.6v2.6m9.3-7.3h-3.1l-3.8 19.5h2l.7-4h5l.7 4h2.2l-3.7-19.4m.5 13.6h-4.4l2.2-11.2 2.1 11.2m12.3-13.7v14.1l-4.5-14h-2.8V227h2v-15.7l5 15.7h2.2v-19.4h-1.9m11.5 3.5V227h2.1v-19.4h-1.4q-.8 2.1-3.4 2.6v1.8q1.6-.1 2.7-.8m10.3 5.6v-6.1q0-2.7-2.8-3.1-2.9 0-2.8 3.1v6.1q0 2.9 2.8 3.1 2.9 0 2.8-3.1m-4.2-6.2q0-1.5 1.4-1.7 1.4 0 1.4 1.7v6.4q0 1.6-1.4 1.7-1.5 0-1.4-1.7v-6.4m13.7 7.3q0-2.8-2.8-3.1-2.8 0-2.8 3.1v6.1q0 2.8 2.8 3.1 2.9 0 2.8-3v-6.2m-1.4 0v6.2q0 1.7-1.4 1.8-1.5 0-1.4-1.8V218q0-1.6 1.4-1.8 1.5 0 1.4 1.8m-1.8-10.3h-1.2l-7.7 19.5h1.3l7.7-19.4"/><path fill="none" stroke="#19344F" stroke-width="2.5" stroke-linecap="round" stroke-linejoin="round" d="M247.4 243.7l3.7-2.2 4 2.2h9.5v-52.3H147.8v-19.1l-51.6 44.4 51.6 44.5v-17.5h99.6m-97 107.5H239"/><path fill="#B3EDF4" d="M600.4 276.5l-9.8-9.6q-1.2-.8-20-5.8l-27.6 2.4-45 11-12-2.5-13.6 11.9 9.9 30.3 159.5 2.7-.5-24.3-10.7-4.2-9.4-1.5q-9.6-1.6-10.6-1.5-1 .1-10.2-9"/><path fill="none" stroke="#1A344F" stroke-width="2.5" stroke-linecap="round" stroke-linejoin="round" d="M600.4 276.5l-9.8-9.6q-1.2-.8-20-5.8l-27.6 2.4-45 11-12-2.5-13.6 11.9 9.9 30.3 159.5 2.7-.5-24.3-10.7-4.2-9.4-1.5q-9.6-1.6-10.6-1.5-1 .1-10.2-9"/><path fill="#FFF" d="M480.8 252.7l2 2.9q2.6 3.9 4.8 8.8 7 15.5 8.6 34.8l6.5-8.8q8.4-9.6 17.6-13.8l-3.3-14q-7.6-8.1-22.6-9.8-4.8-.5-9.6-.4l-4 .3"/><path fill="none" stroke="#1A344F" stroke-width="2.5" stroke-linecap="round" stroke-linejoin="round" d="M482.9 255.6l-2.1-2.9 4-.3q4.8-.1 9.6.4 15 1.7 22.6 9.9m-34.1-7.1q2.5 3.9 4.7 8.8 7 15.5 8.6 34.8l6.5-8.8q8.4-9.6 17.6-13.8"/><path fill="#FFF" stroke="#1A344F" stroke-width="2.5" stroke-linecap="round" stroke-linejoin="round" d="M463.6 265.2l10.7 27.3 15.3-21.3-26-6"/><path fill="#FFF" d="M614.7 304.4q4.1-10.6 12.4-17.3-3.1-2.4-6.8-4.1-5.5-2.6-11.8-3.6l-5.2-.5 11.4 25.5m25.9-24.8q-7.8 2.7-13.5 7.5 11.4 8.5 14 24.8l16.9-35.4q-8-.3-17.4 3"/><path fill="none" stroke="#1A344F" stroke-width="2.5" stroke-linecap="round" stroke-linejoin="round" d="M627 287q11.5 8.6 14 24.9l17-35.4q-8-.3-17.4 3-7.8 2.8-13.5 7.6-3.1-2.4-6.8-4.1-5.5-2.6-11.8-3.6l-5.2-.5 11.4 25.5q4.1-10.6 12.4-17.3"/><path fill="#BCBCBE" d="M641.8 322.9v-11h-14l-5.9-6H503.1l-13.5-13.4h-36.7v11l29.1 19.4h159.8"/><path fill="none" stroke="#1A344F" stroke-width="2.5" stroke-linecap="round" stroke-linejoin="round" d="M641.8 311.9v11H482m159.8-11h-14l-5.9-6H503.1l-13.5-13.4h-36.7v11"/><path fill="#BCBCBE" stroke="#1A344F" stroke-width="2.5" stroke-linecap="round" stroke-linejoin="round" d="M443 304.4v18.5h39l-18.4-18.5H443"/><path fill="#E4E8EE" d="M568.5 260.6l-3.6 13.9q-3.2 16.5-2 29.9l5.6-43.8"/><path fill="none" stroke="#1A344F" stroke-width="2.5" stroke-linecap="round" stroke-linejoin="round" d="M568.5 260.6l-3.6 13.9q-3.2 16.5-2 29.9"/><path fill="none" stroke="#1A344F" stroke-width="2.5" stroke-linecap="round" stroke-linejoin="round" d="M537.3 286.6l25.3 8.8 23.8-8.8m-62.5 7.6l-19.3-5.9m-9.7 0l-13.5-5.8m135.8 16.7H637m-113.2 15h83.2m-119-15l15.8 15.8"/><path fill="#FFF" d="M595.4 295q2.8-6.6 6.2-13.1 11.1-21 24.4-32.6-26-8.8-57.4 11.2 14.1 16.5 24.6 40 .7-2.1 2.2-5.4M525.1 300.5L534 290q11.2-12.2 23.1-21.4 5.8-4.6 11.5-8.2-14.3-16.6-32.3-26.1-11.2-5.9-22.6-8.3l-9.1-1.2 1.5 2.7q1.9 4 4.2 10.9 7.1 21.6 14.8 62"/><path fill="none" stroke="#1A344F" stroke-width="2.5" stroke-linecap="round" stroke-linejoin="round" d="M601.6 281.9q11.1-21 24.4-32.6-26-8.8-57.4 11.2-14.3-16.6-32.3-26.1-11.2-5.9-22.6-8.3l-9.1-1.2 1.5 2.7q1.9 4 4.2 10.9 7.1 21.6 14.8 62L534 290q11.2-12.2 23.1-21.4 5.8-4.6 11.5-8.2 14.1 16.5 24.6 40 .7-2.1 2.2-5.4 2.8-6.7 6.2-13.2"/><path fill="#D0D8E2" d="M434.4 105H422v59h10.8l4.5-2.6 4.1 2.5H525q-54.5-1.4-77.8-29.4-7.7-9.3-11-20.3-1.1-3.5-1.6-6.7l-.3-2.5"/><path fill="none" stroke="#19344F" stroke-width="2.5" stroke-linecap="round" stroke-linejoin="round" d="M553.5 183.6l58.3-50-58.3-50.1V105H422v59h10.8l4.5-2.6 4.1 2.5h112.2v19.7"/><path fill="none" stroke="#19344F" stroke-width="2.5" stroke-linecap="round" stroke-linejoin="round" d="M560.2 120l-3.3 5 3.3 5v34h-6.7m0-59h6.7v15"/><path fill="#EAF0F8" d="M553.5 164v19.6l58.3-50-58.3-50.1V105H422v59h10.8l4.5-2.6 4.1 2.5h112.2"/><path fill="#D0D8E2" d="M434.3 105l1.8 9.2q3.3 11 11 20.3 23.3 28 77.6 29.3h-83.3l-4.2-2.4-4.5 2.5H422V105h12.3"/><path fill="none" stroke="#19344F" stroke-width="2.5" stroke-linecap="round" stroke-linejoin="round" d="M553.6 83.5v21.6H422.1V164h10.7l4.6-2.5 4 2.5h112.2v19.7l58.3-50.1-58.3-50.1"/><path fill="#19344F" d="M442.3 123.5h-3.6l-4.1 21.8h2.2l.8-4.4h5.6l.8 4.4h2.5l-4.2-21.9m.5 15.5H438l2.4-12.7 2.4 12.7m7.6-15.5h-2.3V140q0 5 4.8 5.5 5 0 4.9-5.5v-16.5h-2.3v16.7q0 3-2.5 3.2-2.7 0-2.5-3.3v-16.6m11.8 5q0-2.8 2.5-3 2.5 0 2.5 3.1v.7h2.3v-.6q0-5-4.9-5.4-4.8 0-4.8 5.4 0 4.6 3.7 6.3 2.7 2.2 3.6 5.2 0 3-2.6 3.2-2.6 0-2.6-3.2v-1.3h-2.2v1.2q0 5 4.9 5.4 5 0 4.9-5.4 0-4.6-3.7-6.2-2.7-2.3-3.6-5.3m13 16.7h2.4v-19.6h4v-2.2h-10.4v2.2h4v19.6m14.8-10.6q2.8-.8 2.7-4.4v-1.9q0-4.8-4.8-5h-4.9v21.9h2.4V136h1.8q3 0 3.1 3.3v3.3q0 2.3.4 2.7h2.5q-.6-1-.4-2.6v-3.4q0-3.5-2.8-4.5m-2.8-1h-1.8v-8.1h2.4q2.7 0 2.5 3v2.1q0 3.5-3 3m14.8-10.4h-3.5l-4.2 21.9h2.3l.8-4.4h5.5l.8 4.4h2.5l-4.2-21.9m-1.9 2.8l2.5 12.7h-4.9l2.4-12.7m7.8 19.1h8.7v-2.2h-6.2v-19.6H508v21.8m12.4-21.9h-2.4v21.9h2.4v-21.9m9.7 0h-3.5l-4.2 21.9h2.3l.8-4.4h5.5l.8 4.4h2.5l-4.2-21.9m.6 15.5h-4.9l2.4-12.7 2.5 12.7m12.6-3.8q.3-2.4 2.5-2.4 2.6 0 2.6 3.3v4.1q0 3-2.6 3.2-2.6 0-2.6-3.2v-1.6h-2.2v1.5q0 5 4.9 5.5 4.9 0 4.9-5.5v-4.3q0-4.6-4.1-5.1-2.1 0-3.2 1.8l.3-6.7h6.5v-2.2h-8.7l-.6 12.1h2.3v-.5m23-11.6H565l-8.7 21.8h1.6l8.6-21.9m.4 8.2q-3.2 0-3.1 3.4v6.9q0 3.1 3 3.5 3.3 0 3.2-3.5V135q0-3-3.1-3.5m0 1.5q1.6 0 1.5 2v7q0 1.8-1.6 2-1.6 0-1.5-2v-7q0-1.9 1.6-2m-7.6.8v-7q0-3-3.2-3.5-3.1 0-3.1 3.5v7q0 3.2 3.1 3.5 3.3 0 3.1-3.5m-1.5.1q0 1.8-1.6 2-1.6 0-1.6-2v-7.1q0-1.8 1.6-2 1.6 0 1.6 2v7.1"/><path fill="#BFCCDB" d="M498.7 165.4h-15v185.9h15v-186"/><path fill="none" stroke="#19344F" stroke-width="2.5" stroke-linecap="round" stroke-linejoin="round" d="M498.7 165.4h-15v185.9h15v-186m-83.2 185.9h191.6"/><g display="none"><use xlink:href="#n" transform="matrix(1.03 0 0 1.03 565.9 256.4)"/><animate attributeName="display" repeatCount="indefinite" dur="4.542s" keyTimes="0;1;1" values="none;inline;inline"/></g><g display="none"><use xlink:href="#o" transform="matrix(1.03 0 0 1.03 565.9 256.4)"/><animate attributeName="display" repeatCount="indefinite" dur="4.542s" keyTimes="0;0.991;1" values="none;inline;inline"/></g><g display="none"><use xlink:href="#p" transform="matrix(1.03 0 0 1.03 565.9 256.4)"/><animate attributeName="display" repeatCount="indefinite" dur="4.542s" keyTimes="0;0.982;0.991;1" values="none;inline;none;none"/></g><g display="none"><use xlink:href="#q" transform="matrix(1.03 0 0 1.03 565.9 256.4)"/><animate attributeName="display" repeatCount="indefinite" dur="4.542s" keyTimes="0;0.972;0.982;1" values="none;inline;none;none"/></g><g display="none"><use xlink:href="#r" transform="matrix(1.03 0 0 1.03 565.9 256.4)"/><animate attributeName="display" repeatCount="indefinite" dur="4.542s" keyTimes="0;0.963;0.972;1" values="none;inline;none;none"/></g><g display="none"><use xlink:href="#s" transform="matrix(1.03 0 0 1.03 565.9 256.4)"/><animate attributeName="display" repeatCount="indefinite" dur="4.542s" keyTimes="0;0.954;0.963;1" values="none;inline;none;none"/></g><g display="none"><use xlink:href="#t" transform="matrix(1.03 0 0 1.03 565.9 256.4)"/><animate attributeName="display" repeatCount="indefinite" dur="4.542s" keyTimes="0;0.945;0.954;1" values="none;inline;none;none"/></g><g display="none"><use xlink:href="#u" transform="matrix(1.03 0 0 1.03 565.9 256.4)"/><animate attributeName="display" repeatCount="indefinite" dur="4.542s" keyTimes="0;0.936;0.945;1" values="none;inline;none;none"/></g><g display="none"><use xlink:href="#v" transform="matrix(1.03 0 0 1.03 565.9 256.4)"/><animate attributeName="display" repeatCount="indefinite" dur="4.542s" keyTimes="0;0.927;0.936;1" values="none;inline;none;none"/></g><g display="none"><use xlink:href="#w" transform="matrix(1.03 0 0 1.03 565.9 256.4)"/><animate attributeName="display" repeatCount="indefinite" dur="4.542s" keyTimes="0;0.908;0.927;1" values="none;inline;none;none"/></g><g display="none"><use xlink:href="#x" transform="matrix(1.03 0 0 1.03 557.1 256.4)"/><animate attributeName="display" repeatCount="indefinite" dur="4.542s" keyTimes="0;0.899;0.908;1" values="none;inline;none;none"/></g><g display="none"><use xlink:href="#y" transform="matrix(1.03 0 0 1.03 548.3 256.4)"/><animate attributeName="display" repeatCount="indefinite" dur="4.542s" keyTimes="0;0.89;0.899;1" values="none;inline;none;none"/></g><g display="none"><use xlink:href="#z" transform="matrix(1.03 0 0 1.03 539.5 256.4)"/><animate attributeName="display" repeatCount="indefinite" dur="4.542s" keyTimes="0;0.881;0.89;1" values="none;inline;none;none"/></g><g display="none"><use xlink:href="#A" transform="matrix(1.03 0 0 1.03 530.7 256.4)"/><animate attributeName="display" repeatCount="indefinite" dur="4.542s" keyTimes="0;0.872;0.881;1" values="none;inline;none;none"/></g><g display="none"><use xlink:href="#B" transform="matrix(1.03 0 0 1.03 521.9 256.4)"/><animate attributeName="display" repeatCount="indefinite" dur="4.542s" keyTimes="0;0.862;0.872;1" values="none;inline;none;none"/></g><g display="none"><use xlink:href="#C" transform="matrix(1.03 0 0 1.03 513.1 256.4)"/><animate attributeName="display" repeatCount="indefinite" dur="4.542s" keyTimes="0;0.853;0.862;1" values="none;inline;none;none"/></g><g display="none"><use xlink:href="#D" transform="matrix(1.03 0 0 1.03 504.3 256.4)"/><animate attributeName="display" repeatCount="indefinite" dur="4.542s" keyTimes="0;0.844;0.853;1" values="none;inline;none;none"/></g><g display="none"><use xlink:href="#E" transform="matrix(1.03 0 0 1.03 495.5 256.4)"/><animate attributeName="display" repeatCount="indefinite" dur="4.542s" keyTimes="0;0.835;0.844;1" values="none;inline;none;none"/></g><g display="none"><use xlink:href="#F" transform="matrix(1.03 0 0 1.03 486.7 256.4)"/><animate attributeName="display" repeatCount="indefinite" dur="4.542s" keyTimes="0;0.826;0.835;1" values="none;inline;none;none"/></g><g display="none"><use xlink:href="#n" transform="matrix(1.03 0 0 1.03 477.9 256.4)"/><animate attributeName="display" repeatCount="indefinite" dur="4.542s" keyTimes="0;0.817;0.826;1" values="none;inline;none;none"/></g><g display="none"><use xlink:href="#o" transform="matrix(1.03 0 0 1.03 469.1 256.4)"/><animate attributeName="display" repeatCount="indefinite" dur="4.542s" keyTimes="0;0.807;0.817;1" values="none;inline;none;none"/></g><g display="none"><use xlink:href="#p" transform="matrix(1.03 0 0 1.03 460.3 256.4)"/><animate attributeName="display" repeatCount="indefinite" dur="4.542s" keyTimes="0;0.798;0.807;1" values="none;inline;none;none"/></g><g display="none"><use xlink:href="#q" transform="matrix(1.03 0 0 1.03 451.5 256.4)"/><animate attributeName="display" repeatCount="indefinite" dur="4.542s" keyTimes="0;0.789;0.798;1" values="none;inline;none;none"/></g><g display="none"><use xlink:href="#r" transform="matrix(1.03 0 0 1.03 442.7 256.4)"/><animate attributeName="display" repeatCount="indefinite" dur="4.542s" keyTimes="0;0.78;0.789;1" values="none;inline;none;none"/></g><g display="none"><use xlink:href="#s" transform="matrix(1.03 0 0 1.03 433.9 256.4)"/><animate attributeName="display" repeatCount="indefinite" dur="4.542s" keyTimes="0;0.771;0.78;1" values="none;inline;none;none"/></g><g display="none"><use xlink:href="#t" transform="matrix(1.03 0 0 1.03 425.1 256.4)"/><animate attributeName="display" repeatCount="indefinite" dur="4.542s" keyTimes="0;0.761;0.771;1" values="none;inline;none;none"/></g><g display="none"><use xlink:href="#u" transform="matrix(1.03 0 0 1.03 416.3 256.4)"/><animate attributeName="display" repeatCount="indefinite" dur="4.542s" keyTimes="0;0.752;0.761;1" values="none;inline;none;none"/></g><g display="none"><use xlink:href="#v" transform="matrix(1.03 0 0 1.03 407.5 256.4)"/><animate attributeName="display" repeatCount="indefinite" dur="4.542s" keyTimes="0;0.743;0.752;1" values="none;inline;none;none"/></g><g display="none"><use xlink:href="#w" transform="matrix(1.03 0 0 1.03 398.7 256.4)"/><animate attributeName="display" repeatCount="indefinite" dur="4.542s" keyTimes="0;0.734;0.743;1" values="none;inline;none;none"/></g><g display="none"><use xlink:href="#w" transform="matrix(1.03 0 0 1.03 390 256.4)"/><animate attributeName="display" repeatCount="indefinite" dur="4.542s" keyTimes="0;0.725;0.734;1" values="none;inline;none;none"/></g><g display="none"><use xlink:href="#x" transform="matrix(1.03 0 0 1.03 381.1 256.4)"/><animate attributeName="display" repeatCount="indefinite" dur="4.542s" keyTimes="0;0.716;0.725;1" values="none;inline;none;none"/></g><g display="none"><use xlink:href="#y" transform="matrix(1.03 0 0 1.03 372.4 256.4)"/><animate attributeName="display" repeatCount="indefinite" dur="4.542s" keyTimes="0;0.706;0.716;1" values="none;inline;none;none"/></g><g display="none"><use xlink:href="#z" transform="matrix(1.03 0 0 1.03 363.6 256.4)"/><animate attributeName="display" repeatCount="indefinite" dur="4.542s" keyTimes="0;0.697;0.706;1" values="none;inline;none;none"/></g><g display="none"><use xlink:href="#A" transform="matrix(1.03 0 0 1.03 354.8 256.4)"/><animate attributeName="display" repeatCount="indefinite" dur="4.542s" keyTimes="0;0.688;0.697;1" values="none;inline;none;none"/></g><g display="none"><use xlink:href="#B" transform="matrix(1.03 0 0 1.03 346 256.4)"/><animate attributeName="display" repeatCount="indefinite" dur="4.542s" keyTimes="0;0.679;0.688;1" values="none;inline;none;none"/></g><g display="none"><use xlink:href="#C" transform="matrix(1.03 0 0 1.03 337.1 256.4)"/><animate attributeName="display" repeatCount="indefinite" dur="4.542s" keyTimes="0;0.67;0.679;1" values="none;inline;none;none"/></g><g display="none"><use xlink:href="#D" transform="matrix(1.03 0 0 1.03 328.4 256.4)"/><animate attributeName="display" repeatCount="indefinite" dur="4.542s" keyTimes="0;0.661;0.67;1" values="none;inline;none;none"/></g><g display="none"><use xlink:href="#E" transform="matrix(1.03 0 0 1.03 319.6 256.4)"/><animate attributeName="display" repeatCount="indefinite" dur="4.542s" keyTimes="0;0.651;0.661;1" values="none;inline;none;none"/></g><g display="none"><use xlink:href="#F" transform="matrix(1.03 0 0 1.03 310.8 256.4)"/><animate attributeName="display" repeatCount="indefinite" dur="4.542s" keyTimes="0;0.642;0.651;1" values="none;inline;none;none"/></g><g display="none"><use xlink:href="#n" transform="matrix(1.03 0 0 1.03 302 256.4)"/><animate attributeName="display" repeatCount="indefinite" dur="4.542s" keyTimes="0;0.633;0.642;1" values="none;inline;none;none"/></g><g display="none"><use xlink:href="#o" transform="matrix(1.03 0 0 1.03 293.1 256.4)"/><animate attributeName="display" repeatCount="indefinite" dur="4.542s" keyTimes="0;0.624;0.633;1" values="none;inline;none;none"/></g><g display="none"><use xlink:href="#p" transform="matrix(1.03 0 0 1.03 284.4 256.4)"/><animate attributeName="display" repeatCount="indefinite" dur="4.542s" keyTimes="0;0.615;0.624;1" values="none;inline;none;none"/></g><g display="none"><use xlink:href="#q" transform="matrix(1.03 0 0 1.03 275.6 256.4)"/><animate attributeName="display" repeatCount="indefinite" dur="4.542s" keyTimes="0;0.606;0.615;1" values="none;inline;none;none"/></g><g display="none"><use xlink:href="#r" transform="matrix(1.03 0 0 1.03 266.8 256.4)"/><animate attributeName="display" repeatCount="indefinite" dur="4.542s" keyTimes="0;0.596;0.606;1" values="none;inline;none;none"/></g><g display="none"><use xlink:href="#s" transform="matrix(1.03 0 0 1.03 258 256.4)"/><animate attributeName="display" repeatCount="indefinite" dur="4.542s" keyTimes="0;0.587;0.596;1" values="none;inline;none;none"/></g><g display="none"><use xlink:href="#t" transform="matrix(1.03 0 0 1.03 249.2 256.4)"/><animate attributeName="display" repeatCount="indefinite" dur="4.542s" keyTimes="0;0.578;0.587;1" values="none;inline;none;none"/></g><g display="none"><use xlink:href="#u" transform="matrix(1.03 0 0 1.03 240.3 256.4)"/><animate attributeName="display" repeatCount="indefinite" dur="4.542s" keyTimes="0;0.569;0.578;1" values="none;inline;none;none"/></g><g display="none"><use xlink:href="#v" transform="matrix(1.03 0 0 1.03 231.6 256.4)"/><animate attributeName="display" repeatCount="indefinite" dur="4.542s" keyTimes="0;0.56;0.569;1" values="none;inline;none;none"/></g><g display="none"><use xlink:href="#w" transform="matrix(1.03 0 0 1.03 222.8 256.4)"/><animate attributeName="display" repeatCount="indefinite" dur="4.542s" keyTimes="0;0.55;0.56;1" values="none;inline;none;none"/></g><g display="none"><use xlink:href="#w" transform="matrix(1.03 0 0 1.03 214 256.4)"/><animate attributeName="display" repeatCount="indefinite" dur="4.542s" keyTimes="0;0.541;0.55;1" values="none;inline;none;none"/></g><g display="none"><use xlink:href="#x" transform="matrix(1.03 0 0 1.03 205.2 256.4)"/><animate attributeName="display" repeatCount="indefinite" dur="4.542s" keyTimes="0;0.532;0.541;1" values="none;inline;none;none"/></g><g display="none"><use xlink:href="#y" transform="matrix(1.03 0 0 1.03 196.3 256.4)"/><animate attributeName="display" repeatCount="indefinite" dur="4.542s" keyTimes="0;0.523;0.532;1" values="none;inline;none;none"/></g><g display="none"><use xlink:href="#z" transform="matrix(1.03 0 0 1.03 187.6 256.4)"/><animate attributeName="display" repeatCount="indefinite" dur="4.542s" keyTimes="0;0.514;0.523;1" values="none;inline;none;none"/></g><g display="none"><use xlink:href="#A" transform="matrix(1.03 0 0 1.03 178.8 256.4)"/><animate attributeName="display" repeatCount="indefinite" dur="4.542s" keyTimes="0;0.505;0.514;1" values="none;inline;none;none"/></g><g display="none"><use xlink:href="#B" transform="matrix(1.03 0 0 1.03 170 256.4)"/><animate attributeName="display" repeatCount="indefinite" dur="4.542s" keyTimes="0;0.495;0.505;1" values="none;inline;none;none"/></g><g display="none"><use xlink:href="#C" transform="matrix(1.03 0 0 1.03 161.2 256.4)"/><animate attributeName="display" repeatCount="indefinite" dur="4.542s" keyTimes="0;0.486;0.495;1" values="none;inline;none;none"/></g><g display="none"><use xlink:href="#D" transform="matrix(1.03 0 0 1.03 152.3 256.4)"/><animate attributeName="display" repeatCount="indefinite" dur="4.542s" keyTimes="0;0.477;0.486;1" values="none;inline;none;none"/></g><g display="none"><use xlink:href="#E" transform="matrix(1.03 0 0 1.03 143.6 256.4)"/><animate attributeName="display" repeatCount="indefinite" dur="4.542s" keyTimes="0;0.468;0.477;1" values="none;inline;none;none"/></g><g display="none"><use xlink:href="#F" transform="matrix(1.03 0 0 1.03 134.8 256.4)"/><animate attributeName="display" repeatCount="indefinite" dur="4.542s" keyTimes="0;0.459;0.468;1" values="none;inline;none;none"/></g><g display="none"><use xlink:href="#n" transform="matrix(1.03 0 0 1.03 126 256.4)"/><animate attributeName="display" repeatCount="indefinite" dur="4.542s" keyTimes="0;0.45;0.459;1" values="none;inline;none;none"/></g><g display="none"><use xlink:href="#o" transform="matrix(1.03 0 0 1.03 117.2 256.4)"/><animate attributeName="display" repeatCount="indefinite" dur="4.542s" keyTimes="0;0.44;0.45;1" values="none;inline;none;none"/></g><g display="none"><use xlink:href="#p" transform="matrix(1.03 0 0 1.03 108.4 256.4)"/><animate attributeName="display" repeatCount="indefinite" dur="4.542s" keyTimes="0;0.431;0.44;1" values="none;inline;none;none"/></g><g display="none"><use xlink:href="#q" transform="matrix(1.03 0 0 1.03 99.6 256.4)"/><animate attributeName="display" repeatCount="indefinite" dur="4.542s" keyTimes="0;0.422;0.431;1" values="none;inline;none;none"/></g><g display="none"><use xlink:href="#r" transform="matrix(1.03 0 0 1.03 90.8 256.4)"/><animate attributeName="display" repeatCount="indefinite" dur="4.542s" keyTimes="0;0.413;0.422;1" values="none;inline;none;none"/></g><g display="none"><use xlink:href="#s" transform="matrix(1.03 0 0 1.03 82 256.4)"/><animate attributeName="display" repeatCount="indefinite" dur="4.542s" keyTimes="0;0.404;0.413;1" values="none;inline;none;none"/></g><g display="none"><use xlink:href="#t" transform="matrix(1.03 0 0 1.03 73.2 256.4)"/><animate attributeName="display" repeatCount="indefinite" dur="4.542s" keyTimes="0;0.394;0.404;1" values="none;inline;none;none"/></g><g display="none"><use xlink:href="#u" transform="matrix(1.03 0 0 1.03 64.4 256.4)"/><animate attributeName="display" repeatCount="indefinite" dur="4.542s" keyTimes="0;0.385;0.394;1" values="none;inline;none;none"/></g><g display="none"><use xlink:href="#v" transform="matrix(1.03 0 0 1.03 55.6 256.4)"/><animate attributeName="display" repeatCount="indefinite" dur="4.542s" keyTimes="0;0.376;0.385;1" values="none;inline;none;none"/></g><g display="none"><use xlink:href="#w" transform="matrix(1.03 0 0 1.03 46.8 256.4)"/><animate attributeName="display" repeatCount="indefinite" dur="4.542s" keyTimes="0;0.367;0.376;1" values="none;inline;none;none"/></g><g display="none"><use xlink:href="#w" transform="matrix(1.03 0 0 1.03 38 256.4)"/><animate attributeName="display" repeatCount="indefinite" dur="4.542s" keyTimes="0;0.358;0.367;1" values="none;inline;none;none"/></g><g display="none"><use xlink:href="#x" transform="matrix(1.03 0 0 1.03 29.2 256.4)"/><animate attributeName="display" repeatCount="indefinite" dur="4.542s" keyTimes="0;0.349;0.358;1" values="none;inline;none;none"/></g><g display="none"><use xlink:href="#y" transform="matrix(1.03 0 0 1.03 20.4 256.4)"/><animate attributeName="display" repeatCount="indefinite" dur="4.542s" keyTimes="0;0.339;0.349;1" values="none;inline;none;none"/></g><g display="none"><use xlink:href="#z" transform="matrix(1.03 0 0 1.03 11.6 256.4)"/><animate attributeName="display" repeatCount="indefinite" dur="4.542s" keyTimes="0;0.33;0.339;1" values="none;inline;none;none"/></g><g display="none"><use xlink:href="#A" transform="matrix(1.03 0 0 1.03 2.8 256.4)"/><animate attributeName="display" repeatCount="indefinite" dur="4.542s" keyTimes="0;0.321;0.33;1" values="none;inline;none;none"/></g><g display="none"><use xlink:href="#B" transform="matrix(1.03 0 0 1.03 -6 256.4)"/><animate attributeName="display" repeatCount="indefinite" dur="4.542s" keyTimes="0;0.312;0.321;1" values="none;inline;none;none"/></g><g display="none"><use xlink:href="#C" transform="matrix(1.03 0 0 1.03 -14.8 256.4)"/><animate attributeName="display" repeatCount="indefinite" dur="4.542s" keyTimes="0;0.303;0.312;1" values="none;inline;none;none"/></g><g display="none"><use xlink:href="#D" transform="matrix(1.03 0 0 1.03 -23.6 256.4)"/><animate attributeName="display" repeatCount="indefinite" dur="4.542s" keyTimes="0;0.294;0.303;1" values="none;inline;none;none"/></g><g display="none"><use xlink:href="#E" transform="matrix(1.03 0 0 1.03 -32.4 256.4)"/><animate attributeName="display" repeatCount="indefinite" dur="4.542s" keyTimes="0;0.284;0.294;1" values="none;inline;none;none"/></g><g display="none"><use xlink:href="#F" transform="matrix(1.03 0 0 1.03 -41.2 256.4)"/><animate attributeName="display" repeatCount="indefinite" dur="4.542s" keyTimes="0;0.275;0.284;1" values="none;inline;none;none"/></g><g display="none"><use xlink:href="#n" transform="matrix(1.03 0 0 1.03 -50 256.4)"/><animate attributeName="display" repeatCount="indefinite" dur="4.542s" keyTimes="0;0.266;0.275;1" values="none;inline;none;none"/></g><g display="none"><use xlink:href="#o" transform="matrix(1.03 0 0 1.03 -58.8 256.4)"/><animate attributeName="display" repeatCount="indefinite" dur="4.542s" keyTimes="0;0.257;0.266;1" values="none;inline;none;none"/></g><g display="none"><use xlink:href="#p" transform="matrix(1.03 0 0 1.03 -67.6 256.4)"/><animate attributeName="display" repeatCount="indefinite" dur="4.542s" keyTimes="0;0.248;0.257;1" values="none;inline;none;none"/></g><g display="none"><use xlink:href="#q" transform="matrix(1.03 0 0 1.03 -76.4 256.4)"/><animate attributeName="display" repeatCount="indefinite" dur="4.542s" keyTimes="0;0.239;0.248;1" values="none;inline;none;none"/></g><g display="none"><use xlink:href="#r" transform="matrix(1.03 0 0 1.03 -85.2 256.4)"/><animate attributeName="display" repeatCount="indefinite" dur="4.542s" keyTimes="0;0.229;0.239;1" values="none;inline;none;none"/></g><g display="none"><use xlink:href="#s" transform="matrix(1.03 0 0 1.03 -94 256.4)"/><animate attributeName="display" repeatCount="indefinite" dur="4.542s" keyTimes="0;0.22;0.229;1" values="none;inline;none;none"/></g><g display="none"><use xlink:href="#t" transform="matrix(1.03 0 0 1.03 -102.7 256.4)"/><animate attributeName="display" repeatCount="indefinite" dur="4.542s" keyTimes="0;0.211;0.22;1" values="none;inline;none;none"/></g><g display="none"><use xlink:href="#u" transform="matrix(1.03 0 0 1.03 -111.6 256.4)"/><animate attributeName="display" repeatCount="indefinite" dur="4.542s" keyTimes="0;0.202;0.211;1" values="none;inline;none;none"/></g><g display="none"><use xlink:href="#v" transform="matrix(1.03 0 0 1.03 -120.4 256.4)"/><animate attributeName="display" repeatCount="indefinite" dur="4.542s" keyTimes="0;0.193;0.202;1" values="none;inline;none;none"/></g><g display="none"><use xlink:href="#w" transform="matrix(1.03 0 0 1.03 -129.1 256.4)"/><animate attributeName="display" repeatCount="indefinite" dur="4.542s" keyTimes="0;0.183;0.193;1" values="none;inline;none;none"/></g><g display="none"><use xlink:href="#w" transform="matrix(1.03 0 0 1.03 -138 256.4)"/><animate attributeName="display" repeatCount="indefinite" dur="4.542s" keyTimes="0;0.174;0.183;1" values="none;inline;none;none"/></g><g display="none"><use xlink:href="#x" transform="matrix(1.03 0 0 1.03 -146.8 256.4)"/><animate attributeName="display" repeatCount="indefinite" dur="4.542s" keyTimes="0;0.165;0.174;1" values="none;inline;none;none"/></g><g display="none"><use xlink:href="#y" transform="matrix(1.03 0 0 1.03 -155.5 256.4)"/><animate attributeName="display" repeatCount="indefinite" dur="4.542s" keyTimes="0;0.156;0.165;1" values="none;inline;none;none"/></g><g display="none"><use xlink:href="#z" transform="matrix(1.03 0 0 1.03 -164.3 256.4)"/><animate attributeName="display" repeatCount="indefinite" dur="4.542s" keyTimes="0;0.147;0.156;1" values="none;inline;none;none"/></g><g display="none"><use xlink:href="#A" transform="matrix(1.03 0 0 1.03 -173.1 256.4)"/><animate attributeName="display" repeatCount="indefinite" dur="4.542s" keyTimes="0;0.138;0.147;1" values="none;inline;none;none"/></g><g display="none"><use xlink:href="#B" transform="matrix(1.03 0 0 1.03 -182 256.4)"/><animate attributeName="display" repeatCount="indefinite" dur="4.542s" keyTimes="0;0.128;0.138;1" values="none;inline;none;none"/></g><g display="none"><use xlink:href="#C" transform="matrix(1.03 0 0 1.03 -190.7 256.4)"/><animate attributeName="display" repeatCount="indefinite" dur="4.542s" keyTimes="0;0.119;0.128;1" values="none;inline;none;none"/></g><g display="none"><use xlink:href="#D" transform="matrix(1.03 0 0 1.03 -199.5 256.4)"/><animate attributeName="display" repeatCount="indefinite" dur="4.542s" keyTimes="0;0.11;0.119;1" values="none;inline;none;none"/></g><g display="none"><use xlink:href="#E" transform="matrix(1.03 0 0 1.03 -208.3 256.4)"/><animate attributeName="display" repeatCount="indefinite" dur="4.542s" keyTimes="0;0.101;0.11;1" values="none;inline;none;none"/></g><g display="none"><use xlink:href="#F" transform="matrix(1.03 0 0 1.03 -217.1 256.4)"/><animate attributeName="display" repeatCount="indefinite" dur="4.542s" keyTimes="0;0.092;0.101;1" values="none;inline;none;none"/></g><g display="none"><use xlink:href="#n" transform="matrix(1.03 0 0 1.03 -226 256.4)"/><animate attributeName="display" repeatCount="indefinite" dur="4.542s" keyTimes="0;0.083;0.092;1" values="none;inline;none;none"/></g><g display="none"><use xlink:href="#o" transform="matrix(1.03 0 0 1.03 -234.7 256.4)"/><animate attributeName="display" repeatCount="indefinite" dur="4.542s" keyTimes="0;0.073;0.083;1" values="none;inline;none;none"/></g><g display="none"><use xlink:href="#p" transform="matrix(1.03 0 0 1.03 -243.5 256.4)"/><animate attributeName="display" repeatCount="indefinite" dur="4.542s" keyTimes="0;0.064;0.073;1" values="none;inline;none;none"/></g><g display="none"><use xlink:href="#q" transform="matrix(1.03 0 0 1.03 -252.3 256.4)"/><animate attributeName="display" repeatCount="indefinite" dur="4.542s" keyTimes="0;0.055;0.064;1" values="none;inline;none;none"/></g><g display="none"><use xlink:href="#r" transform="matrix(1.03 0 0 1.03 -261.1 256.4)"/><animate attributeName="display" repeatCount="indefinite" dur="4.542s" keyTimes="0;0.046;0.055;1" values="none;inline;none;none"/></g><g display="none"><use xlink:href="#s" transform="matrix(1.03 0 0 1.03 -270 256.4)"/><animate attributeName="display" repeatCount="indefinite" dur="4.542s" keyTimes="0;0.037;0.046;1" values="none;inline;none;none"/></g><g display="none"><use xlink:href="#t" transform="matrix(1.03 0 0 1.03 -278.7 256.4)"/><animate attributeName="display" repeatCount="indefinite" dur="4.542s" keyTimes="0;0.028;0.037;1" values="none;inline;none;none"/></g><g display="none"><use xlink:href="#u" transform="matrix(1.03 0 0 1.03 -287.5 256.4)"/><animate attributeName="display" repeatCount="indefinite" dur="4.542s" keyTimes="0;0.018;0.028;1" values="none;inline;none;none"/></g><g display="none"><use xlink:href="#v" transform="matrix(1.03 0 0 1.03 -296.3 256.4)"/><animate attributeName="display" repeatCount="indefinite" dur="4.542s" keyTimes="0;0.009;0.018;1" values="none;inline;none;none"/></g><g><use xlink:href="#w" transform="matrix(1.03 0 0 1.03 -305.1 256.4)"/><animate attributeName="display" repeatCount="indefinite" dur="4.542s" keyTimes="0;0.009;1" values="inline;none;none"/></g></g></svg>