<svg xmlns="http://www.w3.org/2000/svg" baseProfile="basic" width="695" height="545" viewBox="0 0 695 545" preserveAspectRatio="xMinYMin meet"><g overflow="visible"><path fill="#FFF" d="M696.2-1H.1v549.9h696.1V-1"/><path fill="#99C978" d="M699.2 548.9V430.6H-2v118.3h701"/><path fill="none" stroke="#19344F" stroke-width="2.5" stroke-linecap="round" stroke-linejoin="round" d="M291.7 458h-29.4m41-4.8h-25.5"/><path fill="#E8E5DF" stroke="#1A344F" stroke-width="2.5" stroke-linecap="round" stroke-linejoin="round" d="M163.9 87.7q-.6.9.2 4.2l1 3 31.3-.6 8.4-3.2-11.1-8.9-21.8 2.9q-7.1 1-8 2.6"/><path fill="#E8E5DF" d="M217.6 89.1q-1.8-8.5-8.5-14-6.9-5.7-15.7-5.7-9.4 0-15.5 4.1-6.5 4.4-8 12.7l47.7 2.9"/><path fill="none" stroke="#1A344F" stroke-width="2.5" stroke-linecap="round" stroke-linejoin="round" d="M209 75q6.8 5.6 8.6 14.1m-8.5-14q-6.9-5.7-15.7-5.7-9.4 0-15.5 4.1-6.5 4.4-8 12.7"/><path fill="#E8E5DF" d="M161.2 84.6q-4.3 4.3-4.3 10.3l24.4-10.8q-4.2-3.8-9.8-3.8-6.1 0-10.3 4.3"/><path fill="none" stroke="#1A344F" stroke-width="2.5" stroke-linecap="round" stroke-linejoin="round" d="M156.9 94.9q0-6 4.3-10.3 4.2-4.2 10.3-4.2 5.6 0 9.8 3.8"/><path fill="#E8E5DF" d="M233.3 98.8q0-5.7-4-9.7-4-4-9.7-4-4.1 0-7.6 2.4l-50.1 3.1q-3.5-3-8.2-2.9-4.7.3-8 3.7-3.1 3.5-3.1 8.2 0 1.7 1.1 2.8 1.2 1.1 2.7 1.1h84.2q1.1 0 1.9-.8.8-.8.8-1.9v-2"/><path fill="#D2D0CC" d="M161 103.5q-10.7-.3-10.2-7.9.3-4 2.9-7.9-4.7.2-8 3.7-3.1 3.5-3.1 8.2 0 1.6 1 2.7 1.2 1.2 2.8 1.2h14.5"/><path fill="none" stroke="#1A344F" stroke-width="2.5" stroke-linecap="round" stroke-linejoin="round" d="M153.8 87.8q4.7-.2 8.2 2.8m-8.2-2.9q-4.7.3-8 3.7-3.2 3.5-3.2 8.2 0 1.7 1.2 2.8 1.1 1.1 2.7 1.1h84.2q1 0 1.8-.8t.8-1.9v-2q0-5.7-4-9.7-4-4-9.6-4-4.2 0-7.6 2.4m-3.5-7.5l1.8 2.2"/><path fill="#E8E5DF" d="M192.8 73.2l13.3 4.6q-2.8-2.2-6-3.3-3.5-1.3-7.3-1.3"/><path fill="none" stroke="#1A344F" stroke-width="2.5" stroke-linecap="round" stroke-linejoin="round" d="M200.1 74.5q3.2 1.1 6 3.3m-6-3.3q-3.5-1.3-7.3-1.3"/><path fill="#E8E5DF" stroke="#1A344F" stroke-width="2.5" stroke-linecap="round" stroke-linejoin="round" d="M302.4 206.3l8.3-3.3-11-8.8-21.8 2.9q-1.8.2-3.7.7-3.8.8-4.4 1.7-.5 1 .3 4.3.4 1.6 1 3l31.3-.5"/><path fill="#E8E5DF" d="M323.5 201q-1.7-8.4-8.5-14-6.8-5.7-15.7-5.7-9.4 0-15.5 4.1-6.4 4.4-8 12.8l47.7 2.9"/><path fill="none" stroke="#1A344F" stroke-width="2.5" stroke-linecap="round" stroke-linejoin="round" d="M315 187q6.8 5.5 8.5 14m-8.5-14q-6.8-5.7-15.7-5.7-9.4 0-15.5 4.1-6.4 4.4-8 12.8"/><path fill="#E8E5DF" d="M262.9 206.8l24.3-10.7q-4.1-3.8-9.8-3.8-6 0-10.3 4.2-4.2 4.3-4.2 10.3"/><path fill="none" stroke="#1A344F" stroke-width="2.5" stroke-linecap="round" stroke-linejoin="round" d="M277.4 192.3q5.7 0 9.8 3.8m-9.8-3.8q-6 0-10.3 4.3-4.2 4.2-4.2 10.3"/><path fill="#E8E5DF" d="M338.4 214.7q.9-.8.9-2v-2q0-5.7-4-9.7t-9.7-4q-4.2 0-7.6 2.3l-50.1 3.2q-3.5-3-8.3-2.9-4.6.3-7.9 3.8-3.2 3.4-3.2 8.2 0 1.6 1.1 2.7 1.2 1.1 2.8 1.1h84.1q1.1 0 2-.8"/><path fill="#D2D0CC" d="M267 215.4q-10.7-.3-10.2-7.9.3-3.9 2.9-7.9-4.7.2-8 3.8-3.1 3.4-3.1 8.2 0 1.6 1 2.7 1.2 1.1 2.8 1.1h14.5"/><path fill="none" stroke="#1A344F" stroke-width="2.5" stroke-linecap="round" stroke-linejoin="round" d="M338.5 214.7q-.8.8-1.9.8h-84.1q-1.6 0-2.8-1.2-1.1-1.1-1.1-2.7 0-4.7 3.2-8.2 3.3-3.5 7.9-3.7 4.8-.2 8.3 2.9m70.5 12q.8-.7.8-1.8v-2.1q0-5.6-4-9.6t-9.6-4q-4.2 0-7.6 2.3m-3.5-7.5l1.8 2.2"/><path fill="#E8E5DF" d="M298.8 185.2l13.3 4.5q-2.7-2.1-6-3.3-3.5-1.3-7.3-1.3"/><path fill="none" stroke="#1A344F" stroke-width="2.5" stroke-linecap="round" stroke-linejoin="round" d="M306 186.4q3.4 1.2 6 3.3m-6-3.3q-3.4-1.3-7.2-1.3"/><path fill="#D8D8D8" d="M378.3 207.4l-5.4-23.6-5.4 23.6-1.1 7.2-4.3-18.8-10.6 46.8h-.5v142.1h-8.1v47.8h60v-47.8h-8.1V242.7h-.5l-10.7-46.8-4.2 18.8-1.1-7.1"/><path fill="#D8D8D8" d="M460.7 432.7V313.6h-86.5v119.1h86.5m-107-119.6h-86.5v119.2h86.5V313.1"/><path fill="#D8D8D8" d="M325.1 432.3v-157h-86.5v157h86.5"/><path fill="#99C978" stroke="#17344F" stroke-width="2.5" stroke-linecap="round" stroke-linejoin="round" d="M296.3 387.1q0-4.8-3.3-8.2-3.4-3.3-8.2-3.3-4.8 0-8.2 3.4-3.4 3.4-3.4 8.1 0 4.8 3.4 8.2 3.4 3.4 8.2 3.4 4.8 0 8.2-3.4 3.3-3.4 3.3-8.2"/><path fill="#99C978" stroke="#17344F" stroke-width="2.5" stroke-linecap="round" stroke-linejoin="round" d="M295 406.1q3.8 0 6.4-2.6 2.6-2.6 2.6-6.3v-3.5q0-3.6-2.6-6.3-2.6-2.6-6.3-2.6h-20.6q-3.7 0-6.3 2.6-2.6 2.6-2.6 6.3v3.5q0 3.7 2.6 6.3 2.6 2.6 6.3 2.6H295"/><path fill="none" stroke="#19344F" stroke-width="2.5" stroke-linecap="round" stroke-linejoin="round" d="M284.8 389.9V432m-8.6-26l8.6 7.7m0-16l4.3-4.2m-50.5 38.8h53.8"/><path fill="#D8D8D8" d="M277.5 278.8h32.9L294 232.9l-16.5 45.9"/><path fill="#F4D66D" stroke="#19344F" stroke-width="2.5" stroke-linecap="round" stroke-linejoin="round" d="M566.4 131.4L525.6 114l-40.7 17.5v339.1h81.5v-339"/><path fill="#FFF" stroke="#19344F" stroke-width="2.5" stroke-linecap="round" stroke-linejoin="round" d="M605.6 157.7h-39.2v312.9h39.2v-313"/><path fill="#EDC756" stroke="#19344F" stroke-width="2.5" stroke-linecap="round" stroke-linejoin="round" d="M605.6 157.7h-39.2v312.9h39.2v-313"/><path fill="#FFF" stroke="#19344F" stroke-width="2.5" stroke-linecap="round" stroke-linejoin="round" d="M547.4 194v-13.1h-45.1V194h45.1"/><path fill="#FFF" stroke="#19344F" stroke-width="2.5" stroke-linecap="round" stroke-linejoin="round" d="M547.4 194v-13.1h-45.1V194h45.1m0 26.2v-13.1h-45.1v13.1h45.1"/><path fill="#FFF" stroke="#19344F" stroke-width="2.5" stroke-linecap="round" stroke-linejoin="round" d="M547.4 220.2v-13.1h-45.1v13.1h45.1m-45.1-65.5v13.1h45.1v-13.1h-45.1"/><path fill="#FFF" stroke="#19344F" stroke-width="2.5" stroke-linecap="round" stroke-linejoin="round" d="M502.3 154.7v13.1h45.1v-13.1h-45.1m0 78.6v13.1h45.1v-13.1h-45.1"/><path fill="#FFF" stroke="#19344F" stroke-width="2.5" stroke-linecap="round" stroke-linejoin="round" d="M502.3 233.3v13.1h45.1v-13.1h-45.1m45.1 26.2h-45.1v13.1h45.1v-13.1"/><path fill="#FFF" stroke="#19344F" stroke-width="2.5" stroke-linecap="round" stroke-linejoin="round" d="M547.4 259.5h-45.1v13.1h45.1v-13.1m0 39.3v-13.1h-45.1v13.1h45.1"/><path fill="#FFF" stroke="#19344F" stroke-width="2.5" stroke-linecap="round" stroke-linejoin="round" d="M547.4 298.8v-13.1h-45.1v13.1h45.1m0 26.2v-13.1h-45.1V325h45.1"/><path fill="#FFF" stroke="#19344F" stroke-width="2.5" stroke-linecap="round" stroke-linejoin="round" d="M547.4 325v-13.1h-45.1V325h45.1m-45.1 13.1v13.1h45.1v-13.1h-45.1"/><path fill="#FFF" stroke="#19344F" stroke-width="2.5" stroke-linecap="round" stroke-linejoin="round" d="M502.3 338.1v13.1h45.1v-13.1h-45.1m45.1 26.2h-45.1v13.1h45.1v-13.1"/><path fill="#FFF" stroke="#19344F" stroke-width="2.5" stroke-linecap="round" stroke-linejoin="round" d="M547.4 364.3h-45.1v13.1h45.1v-13.1m0 39.3v-13.1h-45.1v13.1h45.1m43.7-206.7v-16h-10.2v16h10.2"/><path fill="#FFF" stroke="#19344F" stroke-width="2.5" stroke-linecap="round" stroke-linejoin="round" d="M591 197v-16.1H581v16h10.2m0 10.2h-10.2v16h10.2v-16"/><path fill="#FFF" stroke="#19344F" stroke-width="2.5" stroke-linecap="round" stroke-linejoin="round" d="M591 207.1H581v16h10.2v-16m0 42.2v-16h-10.2v16h10.2"/><path fill="#FFF" stroke="#19344F" stroke-width="2.5" stroke-linecap="round" stroke-linejoin="round" d="M591 249.3v-16H581v16h10.2m0 10.2h-10.2v16h10.2v-16"/><path fill="#FFF" stroke="#19344F" stroke-width="2.5" stroke-linecap="round" stroke-linejoin="round" d="M591 259.5H581v16h10.2v-16m0 42.2v-16h-10.2v16h10.2"/><path fill="#FFF" stroke="#19344F" stroke-width="2.5" stroke-linecap="round" stroke-linejoin="round" d="M591 301.7v-16H581v16h10.2m0 10.2h-10.2v16h10.2v-16"/><path fill="#FFF" stroke="#19344F" stroke-width="2.5" stroke-linecap="round" stroke-linejoin="round" d="M591 311.9H581v16h10.2v-16m0 42.2v-16h-10.2v16h10.2"/><path fill="#FFF" stroke="#19344F" stroke-width="2.5" stroke-linecap="round" stroke-linejoin="round" d="M591 354.1v-16H581v16h10.2m0 10.2h-10.2v16h10.2v-16"/><path fill="#FFF" stroke="#19344F" stroke-width="2.5" stroke-linecap="round" stroke-linejoin="round" d="M591 364.3H581v16h10.2v-16m0 42.2v-16h-10.2v16h10.2"/><path fill="#FFF" stroke="#19344F" stroke-width="2.5" stroke-linecap="round" stroke-linejoin="round" d="M591 406.5v-16H581v16h10.2m0 10.2h-10.2v16h10.2v-16"/><path fill="#FFF" stroke="#19344F" stroke-width="2.5" stroke-linecap="round" stroke-linejoin="round" d="M591 416.7H581v16h10.2v-16m-106.2-259h-39.3v312.9h39.3v-313"/><path fill="#D8D8D8" d="M419.7 315.2h33l-16.5-45.9-16.5 45.9"/><path fill="#EDC756" stroke="#19344F" stroke-width="2.5" stroke-linecap="round" stroke-linejoin="round" d="M484.9 157.7h-39.3v312.9h39.3v-313"/><path fill="#FFF" stroke="#19344F" stroke-width="2.5" stroke-linecap="round" stroke-linejoin="round" d="M470.3 197v-16.1H460v16h10.2"/><path fill="#FFF" stroke="#19344F" stroke-width="2.5" stroke-linecap="round" stroke-linejoin="round" d="M470.3 197v-16.1H460v16h10.2m0 10.2H460v16h10.2v-16"/><path fill="#FFF" stroke="#19344F" stroke-width="2.5" stroke-linecap="round" stroke-linejoin="round" d="M470.3 207.1H460v16h10.2v-16m0 42.2v-16H460v16h10.2"/><path fill="#FFF" stroke="#19344F" stroke-width="2.5" stroke-linecap="round" stroke-linejoin="round" d="M470.3 249.3v-16H460v16h10.2m0 10.2H460v16h10.2v-16"/><path fill="#FFF" stroke="#19344F" stroke-width="2.5" stroke-linecap="round" stroke-linejoin="round" d="M470.3 259.5H460v16h10.2v-16m0 42.2v-16H460v16h10.2"/><path fill="#FFF" stroke="#19344F" stroke-width="2.5" stroke-linecap="round" stroke-linejoin="round" d="M470.3 301.7v-16H460v16h10.2m0 10.2H460v16h10.2v-16"/><path fill="#FFF" stroke="#19344F" stroke-width="2.5" stroke-linecap="round" stroke-linejoin="round" d="M470.3 311.9H460v16h10.2v-16m0 42.2v-16H460v16h10.2"/><path fill="#FFF" stroke="#19344F" stroke-width="2.5" stroke-linecap="round" stroke-linejoin="round" d="M470.3 354.1v-16H460v16h10.2m0 10.2H460v16h10.2v-16"/><path fill="#FFF" stroke="#19344F" stroke-width="2.5" stroke-linecap="round" stroke-linejoin="round" d="M470.3 364.3H460v16h10.2v-16m0 42.2v-16H460v16h10.2"/><path fill="#FFF" stroke="#19344F" stroke-width="2.5" stroke-linecap="round" stroke-linejoin="round" d="M470.3 406.5v-16H460v16h10.2m0 10.2H460v16h10.2v-16"/><path fill="#FFF" stroke="#19344F" stroke-width="2.5" stroke-linecap="round" stroke-linejoin="round" d="M470.3 416.7H460v16h10.2v-16"/><path fill="#D1AE4E" stroke="#19344F" stroke-width="2.5" stroke-linecap="round" stroke-linejoin="round" d="M547.4 419h-45.1v51.9h45.1V419"/><path fill="none" stroke="#19344F" stroke-width="2.5" stroke-linecap="round" stroke-linejoin="round" d="M527.9 469.9h-3m33.7 5.1h60"/><path fill="#424242" fill-opacity=".1" d="M550.9 114.1q0-12-8.6-20.6-8.5-8.5-20.5-8.5t-20.6 8.6q-8.6 8.5-8.6 20.5t8.6 20.6q8.5 8.6 20.6 8.6 12 0 20.6-8.6 8.5-8.5 8.5-20.6"/><path fill="#F5E6C0" stroke="#19344F" stroke-width="2.5" stroke-linecap="round" stroke-linejoin="round" d="M554 112.1q0-12-8.6-20.6-8.5-8.5-20.6-8.5t-20.5 8.6q-8.6 8.5-8.6 20.5t8.6 20.6q8.5 8.6 20.5 8.6 12.1 0 20.6-8.6 8.6-8.5 8.6-20.6"/><path fill="#ECD165" d="M538.5 104.8q0-4-3.3-6-2.5-1.6-5.7-1.6V91H526v6.2h-5V91h-3.6v6.2h-6.2v3.9q1.3 0 1.9.6.5.5.5 1.6V123q0 1.1-.5 1.6-.6.5-1.9.6v3.9h6.2v6.2h3.6v-6.2h5v6.2h3.5v-6.2q3.6 0 6.8-1.8 4.5-2.5 4.5-7.4 0-3.7-2.8-5.7-2.4-1.8-6.3-1.9v-.1q3-.7 4.8-2.6 2-2 2-4.8m-5.2 14.9q0 5.3-7.9 5.3H521v-10.3h4.8q3.9 0 5.9 1.6 1.6 1.3 1.6 3.4m-8.1-18.5q2.9 0 4.6 1.2 1.5 1.1 1.5 3 0 2.1-1.3 3.5-1.8 1.7-5.4 1.7H521v-9.4h4.2"/><path fill="none" stroke="#19344F" stroke-width="2.5" stroke-linecap="round" stroke-linejoin="round" d="M538.5 104.8q0-4-3.3-6-2.5-1.6-5.7-1.6V91H526v6.2h-5V91h-3.6v6.2h-6.2v3.9q1.3 0 1.9.6.5.5.5 1.6V123q0 1.1-.5 1.6-.6.5-1.9.6v3.9h6.2v6.2h3.6v-6.2h5v6.2h3.5v-6.2q3.6 0 6.8-1.8 4.5-2.5 4.5-7.4 0-3.7-2.8-5.7-2.4-1.8-6.3-1.9v-.1q3-.7 4.8-2.6 2-2 2-4.8"/><path fill="none" stroke="#19344F" stroke-width="2.5" stroke-linecap="round" stroke-linejoin="round" d="M533.3 119.7q0 5.3-7.9 5.3H521v-10.3h4.8q3.9 0 5.9 1.6 1.6 1.3 1.6 3.4m-8.1-18.5q2.9 0 4.6 1.2 1.5 1.1 1.5 3 0 2.1-1.3 3.5-1.8 1.7-5.4 1.7H521v-9.3h4.2"/><path fill="#FFF" fill-opacity=".3" d="M566 289.1l-.5-11.6-79.2 79.3q-.2 9.7-.7 20.9l80.4-80.4V289m-.6-17.1l-79 79 .2-6 78.7-78.7.1 5.7m.6-81.8l-.5-11.6-79.2 79.2q-.2 9.8-.7 21l80.4-80.5v-8.1m-.6-17.1l-79 79 .2-6 78.7-78.7.1 5.7"/><path fill="#9C7C64" stroke="#19344F" stroke-width="2.5" stroke-linecap="round" stroke-linejoin="round" d="M602 411.3l-1.7-1.3-16.2 17.6 8.4-1.9q9.7-13.7 9.6-14.4"/><path fill="#8BBF5E" stroke="#19344F" stroke-width="2.5" stroke-linecap="round" stroke-linejoin="round" d="M628.8 411.8q4.6-7.2 2.8-15.6-1.8-8.2-9-12.9-7.1-4.6-15.4-2.8-8.4 1.9-13 9-4.6 7.2-2.8 15.5 1.8 8.3 9 13 7.2 4.5 15.5 2.7 8.3-1.8 12.9-9"/><path fill="#73AF3D" d="M624.7 384.6q-1.2-5.3-4.8-9.4-3.5-3.8-8.5-5.6 2.5 3.4 3.4 7.6 1.8 8.4-2.8 15.5t-13 9q-5.7 1.2-11.1-.7 3.5 4.9 9.1 7.2 5.8 2.3 12 .9 8.3-1.8 12.9-9 4.6-7.1 2.8-15.4"/><path fill="#9C7C64" stroke="#19344F" stroke-width="2.5" stroke-linecap="round" stroke-linejoin="round" d="M567.6 411.4l-2 1.9 17.2 24.6v-10.8q-3.5-4-7.2-7.9-7.4-7.8-8-7.8"/><path fill="#BC987A" d="M591 407.4q-.6-8.8-1.4-15.2l-.8-4.8q-.7-.6-1.7-1-1.9-.9-2.9.7-1.2 21.2-2.6 54.4-1.4 31.1-1.2 33.4l11.8.1q1-39.7-1.1-67.6"/><path fill="none" stroke="#19344F" stroke-width="2.5" stroke-linecap="round" stroke-linejoin="round" d="M589.6 392.2q.8 6.5 1.5 15.2 2 27.9 1.1 67.6m-2.6-82.8l-.8-4.8q-.7-.6-1.7-1-1.9-.9-2.9.7-1.2 21.2-2.6 54.4-1.4 31.1-1.2 33.4"/><path fill="#7C614C" fill-opacity=".5" d="M585.8 396.4q-.8 2.9-1.4 6.5-.4 1.7.4 4.3 1.4 5.2 6.4 9.9-1.5-17.5-2.9-23.3-.8-3.3-2.5 2.6m-1.5 36.3l-1-33.7-3 75.5q.9.4 2.2.6 2.6.3 4.6-.4-1.6-7-2.9-42"/><path fill="none" stroke="#19344F" stroke-width="2.5" stroke-linecap="round" stroke-linejoin="round" d="M589.6 392.2q.8 6.5 1.5 15.2 2 27.9 1.1 67.6m-2.6-82.8l-.8-4.8q-.7-.6-1.7-1-1.9-.9-2.9.7-1.2 21.2-2.6 54.4-1.4 31.1-1.2 33.4"/><path fill="#7EA65A" stroke="#19344F" stroke-width="2.5" stroke-linecap="round" stroke-linejoin="round" d="M627.4 367q0-14.7-10.4-25.1-10.4-10.4-25.1-10.4-14.7 0-25.1 10.4-10.5 10.4-10.5 25.2 0 14.6 10.5 25.1 10.4 10.4 25 10.4 14.8 0 25.2-10.4 10.4-10.4 10.4-25.1"/><path fill="#689044" d="M565.8 351.1l-4.3-2.6q-6.4 14.3-5 22.2.5 2.5 2.3 7 2.2 5.2 3 8.4 2.4 8.4 16.5 13.3 7 2.5 13.6 3.2-2.2-25.8-16.5-42.6-4.5-5.2-9.6-8.9"/><path fill="none" stroke="#19344F" stroke-width="2.5" stroke-linecap="round" stroke-linejoin="round" d="M627.4 367q0-14.7-10.4-25.1-10.4-10.4-25.1-10.4-14.7 0-25.1 10.4-10.5 10.4-10.5 25.2 0 14.6 10.5 25.1 10.4 10.4 25 10.4 14.8 0 25.2-10.4 10.4-10.4 10.4-25.1"/><path fill="#8BBF5E" stroke="#19344F" stroke-width="2.5" stroke-linecap="round" stroke-linejoin="round" d="M557 371q-10.8 0-18.4 7.5-7.6 7.7-7.6 18.4 0 10.8 7.6 18.4 7.6 7.6 18.4 7.6 10.7 0 18.3-7.6 7.6-7.6 7.6-18.4 0-10.7-7.6-18.3-7.6-7.7-18.3-7.7"/><path fill="#668A45" d="M550.4 405q-7.6-7.7-7.6-18.4 0-7.4 3.9-13.6-7 3-11.4 9.4-4.3 6.5-4.3 14.4 0 10.8 7.6 18.3 7.6 7.6 18.3 7.6 6.9 0 12.9-3.3 5.7-3.3 9.2-9-4.9 2.1-10.2 2.1-10.8 0-18.4-7.6"/><path fill="none" stroke="#19344F" stroke-width="2.5" stroke-linecap="round" stroke-linejoin="round" d="M557 371q-10.8 0-18.4 7.5-7.6 7.7-7.6 18.4 0 10.8 7.6 18.4 7.6 7.6 18.4 7.6 10.7 0 18.3-7.6 7.6-7.6 7.6-18.4 0-10.7-7.6-18.3-7.6-7.7-18.3-7.7"/><g><g transform="translate(229.5 452.5)"><animateTransform attributeName="transform" additive="replace" type="translate" dur="3.95s" keyTimes="0;1" values="0,0;0,0" fill="freeze"/><animateTransform attributeName="transform" additive="sum" type="translate" repeatCount="indefinite" dur="3.95s" keyTimes="0;0.013;0.025;0.038;0.051;0.063;0.076;0.089;0.101;0.114;0.127;0.139;0.152;0.165;0.177;0.19;0.203;0.215;0.228;0.241;0.253;0.266;0.278;0.291;0.304;0.316;0.329;0.342;0.354;0.366;0.367;1" values="229.5,452.5;233,451.35;236.55,450.85;239.4,450.7;240.7,451.1;244.35,451.65;247.85,452.4;251.35,453.35;254.75,454.35;258.1,455.4;261.65,455.85;265.25,455;268.7,454;272.1,452.95;275.5,452.15;279,451.65;282.5,451.5;286,451.8;289.45,452.6;292.75,453.9;296.1,454.8;299.75,454.7;303.35,453.6;306.8,452.35;310.15,451.15;313.5,450.15;316.9,449.4;320.4,448.95;324,449.15;327.45,450.35;0;0" calcMode="discrete"/><animateTransform attributeName="transform" additive="sum" type="translate" repeatCount="indefinite" dur="3.95s" keyTimes="0;0.367;0.38;0.392;0.405;0.418;0.43;0.443;0.456;0.468;0.481;0.494;0.506;0.519;0.532;0.544;0.557;0.57;0.582;0.595;0.608;0.62;1" values="0;327.45,450.35;330.7,451.75;334.15,452.7;337.7,453;341.15,452.1;344.45,450.5;347.7,448.95;351,447.65;354.4,446.65;357.9,445.95;361.45,445.65;364.95,445.7;368.45,446.1;371.85,446.9;375.25,447.6;378.75,448.45;382.1,449.9;385.4,451.2;388.85,451.75;392.6,452.2;396.15,452.6;396.15,452.6" calcMode="discrete"/><path fill="#9FA7A6" d="M4-26q-2.6-1.7-5.7-1.2-3.2.6-5 3.2-1.8 2.6-1.3 5.7.4 2.4 2.1 4.1l.2 1.2q.6 2.9 3.1 4.4 1.3.7 2.6.8v.4l-3.2.7q-.7.2-1 .7-.4.5-.4 1.1l-.3 13-.3 4q-.5.4-.7 1-.2.8.3 1.4.4.7 1.2.9.8.2 1.4-.3v1.5h-7.5v7.3h8l-.1 1.7h-.5l-.4 1.9H8.9q0-.8-.5-1.4T7 25.6H5l.1-2.1h.9V6.3h.5V2.6l-.2-3.7-.1-2.4.1 2.4.1 3.7.3 6.9h.6v1.8q-.5.4-.5 1-.1.8.3 1.4.5.6 1.3.8.7 0 1.4-.4.6-.5.7-1.2.1-.7-.3-1.3-.4-.6-1.1-.8V9.5h.9L7.2-6q-.1-.6-.6-1t-1.1-.4l-2.7-.1.1-.7q2.2-.9 3.7-3.6v-.7q.3-1.4.1-2.7l-.1-1.3q1-2.1.6-4.4-.6-3.2-3.2-5m-7.3 37.6v-.2h.3v.4l-.3-.2m6.1-3.2v15h.5l-.1 2h-.5l-.1.6q-.7-.5-1.3-.5h-2l.1-1.7h2.2v-7.3H.3V8.5h2.5"/><path fill="none" stroke="#19344F" stroke-width="2.5" stroke-linecap="round" stroke-linejoin="round" d="M-1.7-27.2q-3.2.6-5 3.2-1.8 2.6-1.3 5.7.4 2.4 2.1 4.1l.2 1.2q.6 2.9 3.1 4.4 1.3.7 2.6.8v.4l-3.2.7q-.7.2-1 .7-.4.5-.4 1.1l-.3 13-.3 4q-.5.4-.7 1-.2.8.3 1.4.4.7 1.2.9.8.2 1.4-.3v1.5h-7.5v7.3h8l-.1 1.7h-.5l-.4 1.9H8.9q0-.8-.5-1.4T7 25.6H5l.1-2.1h.9V6.3h.5V2.6l.2 6.9h.6v1.8q-.5.4-.5 1-.1.8.3 1.4.5.6 1.3.8.7 0 1.4-.4.6-.5.7-1.2.1-.7-.3-1.3-.4-.6-1.1-.8V9.5h.9L7.2-6q-.1-.6-.6-1t-1.1-.4l-2.7-.1.1-.7q2.2-.9 3.7-3.6v-.7q.3-1.4.1-2.7l-.1-1.3q1-2.1.6-4.4-.6-3.2-3.2-5-2.6-1.8-5.7-1.3"/><path fill="none" stroke="#19344F" stroke-width="2.5" stroke-linecap="round" stroke-linejoin="round" d="M6.5 2.6l-.1-3.7-.1-2.4m-9.6 15.2v-.2h.3v.4l-.3-.2m6.1-3.2v15h.5l-.1 2h-.5l-.1.6q-.7-.5-1.3-.5h-2l.1-1.7h2.2v-7.3H.3V8.5h2.5"/></g><animate attributeName="display" repeatCount="indefinite" dur="3.95s" keyTimes="0;0.633;1" values="inline;none;none"/></g><g display="none"><g transform="translate(229.5 452.5)"><animateTransform attributeName="transform" additive="replace" type="translate" dur="3.95s" keyTimes="0;1" values="0,0;0,0" fill="freeze"/><animateTransform attributeName="transform" additive="sum" type="translate" repeatCount="indefinite" dur="3.95s" keyTimes="0;0.203;0.215;0.228;0.241;0.253;0.266;0.278;0.291;0.304;0.316;0.329;0.342;0.354;0.367;0.38;0.392;0.405;0.418;0.43;0.443;0.456;0.468;0.481;0.494;0.506;0.519;0.532;0.544;0.556;0.557;1" values="229.5,452.5;229.5,452.5;233,451.35;236.55,450.85;239.4,450.7;240.7,451.1;244.35,451.65;247.85,452.4;251.35,453.35;254.75,454.35;258.1,455.4;261.65,455.85;265.25,455;268.7,454;272.1,452.95;275.5,452.15;279,451.65;282.5,451.5;286,451.8;289.45,452.6;292.75,453.9;296.1,454.8;299.75,454.7;303.35,453.6;306.8,452.35;310.15,451.15;313.5,450.15;316.9,449.4;320.4,448.95;324,449.15;0;0" calcMode="discrete"/><animateTransform attributeName="transform" additive="sum" type="translate" repeatCount="indefinite" dur="3.95s" keyTimes="0;0.557;0.57;0.582;0.595;0.608;0.62;0.633;0.646;0.658;0.671;0.684;0.696;0.709;0.722;0.734;0.747;0.759;0.772;0.785;0.797;0.81;0.823;1" values="0;324,449.15;327.45,450.35;330.7,451.75;334.15,452.7;337.7,453;341.15,452.1;344.45,450.5;347.7,448.95;351,447.6;354.4,446.65;357.9,445.95;361.45,445.65;364.95,445.7;368.45,446.1;371.85,446.9;375.25,447.6;378.75,448.45;382.1,449.9;385.4,451.2;388.85,451.75;392.55,452.3;396.1,452.85;396.1,452.85" calcMode="discrete"/><path fill="#50585F" d="M7.1-21Q6.6-24 4-26q-2.6-1.7-5.8-1.2-3.1.6-5 3.2-1.7 2.6-1.2 5.7.4 2.5 2.1 4.1l.2 1.2q.6 2.9 3 4.4h.1q1.2.7 2.6.8v.4l-3.2.7q-.7.2-1 .7-.4.5-.4 1.1v1l-.6 16q-.5.4-.7 1-.2.8.3 1.4.4.7 1.1.9.9.2 1.5-.3v1.5h-7.5v7.3h8l-.1 1.7h-.5l-.4 1.9H8.9q0-.8-.5-1.4T7 25.6H5l.2-2.1h.9V6.3h.5V2.6l-.2-3.7-.1-2.4.1 2.4q0 1.9.2 3.7l.2 6.9h.6v1.8q-.5.4-.5 1-.1.8.3 1.4.5.6 1.3.8.7 0 1.4-.4.6-.5.7-1.2.1-.7-.3-1.3-.4-.6-1.1-.8V9.5h.9L7.2-6q-.1-.6-.6-1t-1.1-.4l-2.7-.1.1-.7q2.2-.9 3.7-3.6v-.7q.3-1.4.1-2.7l-.1-1.3q.9-2.3.5-4.4M-3.3 11.5h.3v.4l-.3-.2v-.2m6.1-3v15h.5l-.1 2h-.6v.6q-.7-.5-1.4-.5h-2l.2-1.7h2.1v-7.3H.3V8.5h2.5"/><path fill="none" stroke="#19344F" stroke-width="2.5" stroke-linecap="round" stroke-linejoin="round" d="M4-26q-2.6-1.7-5.8-1.2-3.1.6-5 3.2-1.7 2.6-1.2 5.7.4 2.5 2.1 4.1l.2 1.2q.6 2.9 3 4.4h.1q1.2.7 2.6.8v.4l-3.2.7q-.7.2-1 .7-.4.5-.4 1.1v1l-.6 16q-.5.4-.7 1-.2.8.3 1.4.4.7 1.1.9.9.2 1.5-.3v1.5h-7.5v7.3h8l-.1 1.7h-.5l-.4 1.9H8.9q0-.8-.5-1.4T7 25.6H5l.2-2.1h.9V6.3h.5V2.6l.2 6.9h.6v1.8q-.5.4-.5 1-.1.8.3 1.4.5.6 1.3.8.7 0 1.4-.4.6-.5.7-1.2.1-.7-.3-1.3-.4-.6-1.1-.8V9.5h.9L7.2-6q-.1-.6-.6-1t-1.1-.4l-2.7-.1.1-.7q2.2-.9 3.7-3.6v-.7q.3-1.4.1-2.7l-.1-1.3q.9-2.3.5-4.4-.5-3.2-3.1-5"/><path fill="none" stroke="#19344F" stroke-width="2.5" stroke-linecap="round" stroke-linejoin="round" d="M6.6 2.6l-.2-3.7-.1-2.4m-9.6 15h.3v.4l-.3-.2v-.2m6.1-3v15h.5l-.1 2h-.6v.6q-.7-.5-1.4-.5h-2l.2-1.7h2.1v-7.3H.3V8.5h2.5"/></g><animate attributeName="display" repeatCount="indefinite" dur="3.95s" keyTimes="0;0.203;0.835;1" values="none;inline;none;none"/></g><path fill="#50585F" d="M400.3 427q-2.6-1.9-5.8-1.4-3.1.6-5 3.2-1.7 2.6-1.2 5.7.4 2.5 2.1 4.1l.2 1.2q.6 3 3 4.4h.1q1.2.8 2.6.8v.4l-3.2.8q-.6.1-1 .7-.4.4-.4 1.1v1l-.3 12h-.1l-.2 3.9q-.5.4-.7 1-.2.8.3 1.5.4.6 1.1.8.9.2 1.5-.3v1.5h-7.5v7.3h8l-.1 1.7h-.6l-.3 1.9h12.4q0-.8-.5-1.3t-1.4-.6h-2l.2-2.1h.9v-17.2h.5v-3.7l-.2-3.7-.1-2.4.1 2.4.1 3.7.3 6.9h.6v1.8q-.4.4-.5 1-.1.8.3 1.4.5.7 1.3.8.7.1 1.3-.4.7-.4.8-1.2 0-.7-.3-1.3-.4-.6-1.1-.8v-1.3h.9l-2.9-15.5q-.3-1.3-1.7-1.4l-2.7-.1.1-.7q2.2-.9 3.7-3.6v-.7q.3-1.4.1-2.7v-.3l-.1-1q.9-2.3.5-4.4-.5-3.1-3.1-5m-7.4 37.7v-.3h.4v.4l-.4-.1m6.2-3.3v15h.5l-.1 2.1h-.6v.5q-.6-.5-1.4-.5h-2l.2-1.7h2.1v-7.3h-1.2v-8h2.5"/><path fill="none" stroke="#19344F" stroke-width="2.5" stroke-linecap="round" stroke-linejoin="round" d="M394.5 425.6q-3.1.6-5 3.2-1.7 2.6-1.2 5.7.4 2.5 2.1 4.1l.2 1.2q.6 3 3 4.4h.1q1.2.8 2.6.8v.4l-3.2.8q-.6.1-1 .7-.4.4-.4 1.1v1l-.3 12h-.1l-.2 3.9q-.5.4-.7 1-.2.8.3 1.5.4.6 1.1.8.9.2 1.5-.3v1.5h-7.5v7.3h8l-.1 1.7h-.6l-.3 1.9h12.4q0-.8-.5-1.3t-1.4-.6h-2l.2-2.1h.9v-17.2h.5v-3.7l.2 6.9h.6v1.8q-.4.4-.5 1-.1.8.3 1.4.5.7 1.3.8.7.1 1.3-.4.7-.4.8-1.2 0-.7-.3-1.3-.4-.6-1.1-.8v-1.3h.9l-2.9-15.5q-.3-1.3-1.7-1.4l-2.7-.1.1-.7q2.2-.9 3.7-3.6v-.7q.3-1.4.1-2.7v-.3l-.1-1q.9-2.3.5-4.4-.5-3.1-3.1-5-2.6-1.8-5.8-1.3"/><path fill="none" stroke="#19344F" stroke-width="2.5" stroke-linecap="round" stroke-linejoin="round" d="M402.8 455.4l-.1-3.6-.1-2.5m-9.7 15.3v-.3h.4v.5l-.4-.2m6.2-3.3v15h.5l-.1 2.1h-.6v.6q-.6-.6-1.4-.6h-2l.2-1.6h2.1v-7.4h-1.2v-8h2.5"/><path fill="#50585F" d="M508.4 428.8q-.4-3.1-3.1-5-2.6-1.8-5.8-1.2-3 .5-4.9 3.1-1.8 2.6-1.3 5.8.5 2.5 2.1 4l.3 1.2q.5 3 3 4.4 1.3.8 2.7.8l-.1.4-3.2.8q-.7.1-1 .6-.4.5-.4 1.2v1l-.6 15.9q-.5.4-.6 1-.2.8.2 1.5.4.6 1.2.8.8.3 1.5-.2v1.5h-7.5v7.3h8l-.1 1.6h-.6l-.3 1.9h12.4q0-.8-.6-1.3t-1.4-.6h-1.9l.1-2.1h.9V456h.6l-.1-3.6-.1-3.7-.2-2.5.1 2.5.2 3.7.3 6.8h.5v1.8q-.4.4-.5 1-.1.8.3 1.5.5.6 1.3.7.8.1 1.4-.3.6-.5.8-1.3 0-.7-.4-1.3-.4-.6-1-.8l-.1-1.3h.9l-2.9-15.5q-.1-.6-.6-1t-1.1-.4l-2.7-.1.1-.7q2.2-.8 3.7-3.5v-.8q.3-1.3.1-2.6v-1.4q.8-2.2.4-4.4M498 461.3h.3v.4l-.3-.2v-.2m6.2-3v14.9h.4v2.1h-.7v.6q-.7-.6-1.4-.6h-1.9l.1-1.6h2.1v-7.3h-1.2v-8.1h2.5"/><path fill="none" stroke="#19344F" stroke-width="2.5" stroke-linecap="round" stroke-linejoin="round" d="M505.3 423.8q-2.6-1.8-5.8-1.2-3 .5-4.9 3.1-1.8 2.6-1.3 5.8.5 2.5 2.1 4l.3 1.2q.5 3 3 4.4 1.3.8 2.7.8l-.1.4-3.2.8q-.7.1-1 .6-.4.5-.4 1.2v1l-.6 15.9q-.5.4-.6 1-.2.8.2 1.5.4.6 1.2.8.8.3 1.5-.2v1.5h-7.5v7.3h8l-.1 1.6h-.6l-.3 1.9h12.4q0-.8-.6-1.3t-1.4-.6h-1.9l.1-2.1h.9V456h.6l-.1-3.6.3 6.8h.5v1.8q-.4.4-.5 1-.1.8.3 1.5.5.6 1.3.7.8.1 1.4-.3.6-.5.8-1.3 0-.7-.4-1.3-.4-.6-1-.8l-.1-1.3h.9l-2.9-15.5q-.1-.6-.6-1t-1.1-.4l-2.7-.1.1-.7q2.2-.8 3.7-3.5v-.8q.3-1.3.1-2.6v-1.4q.8-2.2.4-4.4-.5-3.1-3.1-5"/><path fill="none" stroke="#19344F" stroke-width="2.5" stroke-linecap="round" stroke-linejoin="round" d="M507.9 452.4l-.1-3.7-.2-2.5m-9.6 15h.3v.5l-.3-.2v-.2m6.1-3v14.9h.5v2.1h-.7v.6q-.7-.6-1.4-.6h-1.9l.1-1.6h2.1v-7.3h-1.2v-8.1h2.5"/><path fill="#485056" d="M539.8 428.8q-.5-3.2-3.1-5-2.6-1.9-5.8-1.3t-5 3.1q-1.8 2.6-1.2 5.8.3 2.4 2 4.1l.3 1.1q.5 3 3 4.4 1.4.8 2.7.8l-.1.4-3.2.8q-.6.1-1 .6t-.3 1.2v1l-.3 12h-.1l-.3 4q-.4.3-.6 1-.2.7.2 1.4.4.6 1.2.8.8.3 1.5-.2v1.5h-7.5v7.3h8l-.1 1.6h-.6l-.3 2h12.4q0-.9-.5-1.4t-1.4-.6h-2l.2-2h.8v-17.3h.6l-.1-2.4V451l-.2-4.9.1 5 .1 2.4.3 5.6h.6v1.8q-.4.4-.6 1.1-.1.7.4 1.4.5.6 1.2.7.8.1 1.4-.3.7-.5.8-1.3 0-.7-.3-1.3-.4-.6-1.1-.8v-1.3h.9l-3-15.5q0-.6-.5-1t-1.1-.4h-2.7v-.8q2.3-.8 3.8-3.5v-.8q.4-1.3.1-2.6l-.1-.4v-1q.9-2 .5-4.4m-4.3 29.5v15h.5l-.1 2h-.6l-.1.6q-.6-.6-1.3-.6h-2l.2-1.6h2.1v-7.3h-1.3v-8.1h2.6m-6.2 3h.4v.4l-.4-.2v-.2"/><path fill="none" stroke="#19344F" stroke-width="2.5" stroke-linecap="round" stroke-linejoin="round" d="M536.7 423.8q-2.6-1.9-5.8-1.3t-5 3.1q-1.8 2.6-1.2 5.8.3 2.4 2 4.1l.3 1.1q.5 3 3 4.4 1.4.8 2.7.8l-.1.4-3.2.8q-.6.1-1 .6t-.3 1.2v1l-.3 12h-.1l-.3 4q-.4.3-.6 1-.2.7.2 1.4.4.6 1.2.8.8.3 1.5-.2v1.5h-7.5v7.3h8l-.1 1.6h-.6l-.3 2h12.4q0-.9-.5-1.4t-1.4-.6h-2l.2-2h.8v-17.3h.6l-.1-2.4.3 5.6h.6v1.8q-.4.4-.6 1.1-.1.7.4 1.4.5.6 1.2.7.8.1 1.4-.3.7-.5.8-1.3 0-.7-.3-1.3-.4-.6-1.1-.8v-1.3h.9l-3-15.5q0-.6-.5-1t-1.1-.4h-2.7v-.8q2.3-.8 3.8-3.5v-.8q.4-1.3.1-2.6l-.1-.4v-1q.9-2 .5-4.4-.5-3.1-3.1-5"/><path fill="none" stroke="#19344F" stroke-width="2.5" stroke-linecap="round" stroke-linejoin="round" d="M539.2 453.5V451l-.2-4.8m-3.5 12v15h.5l-.1 2h-.6l-.1.6q-.6-.6-1.3-.6h-2l.2-1.6h2.1v-7.3h-1.3v-8.1h2.6m-6.2 3h.4v.4l-.4-.2v-.2"/><path fill="#9FA7A6" d="M442.3 426.8q-2.7-1.8-5.8-1.3-3.1.6-5 3.2-1.8 2.6-1.3 5.8.5 2.3 2.2 4l.2 1.2q.5 3 3 4.4 1.4.7 2.7.8l-.1.4-3.2.7q-.6.2-1 .7-.4.5-.3 1.1l-.3 13h-.1l-.3 4q-.5.4-.6 1-.2.8.2 1.4.4.7 1.2.9.8.2 1.5-.3v1.5h-7.5v7.3h8l-.1 1.7h-.6l-.3 1.9h12.4q0-.8-.6-1.4t-1.3-.5h-2l.2-2.1h.8V459h.6l-.1-3.7-.1-3.7-.1-2.4v2.5l.2 3.6.3 6.9h.5v1.8q-.4.4-.5 1-.1.8.4 1.5.4.5 1.2.7.8.1 1.4-.3.7-.6.8-1.3 0-.7-.3-1.3-.4-.6-1.1-.8v-1.3h.8l-2.8-15.5q-.2-.6-.7-1-.4-.4-1.1-.4l-2.6-.1v-.7q2.3-.9 3.8-3.6v-.7q.3-1.4 0-2.7v-1.3q.9-2.1.5-4.4-.5-3.2-3.1-5m-1.2 34.4v15h.5l-.1 2.1h-.6l-.1.5q-.6-.5-1.3-.5h-2l.2-1.7h2.1v-7.3h-1.3v-8h2.6m-6.2 3.1v-.2h.4v.4l-.4-.2"/><path fill="none" stroke="#19344F" stroke-width="2.5" stroke-linecap="round" stroke-linejoin="round" d="M436.5 425.6q-3.1.5-5 3.1-1.8 2.6-1.3 5.8.5 2.3 2.2 4l.2 1.2q.5 3 3 4.4 1.4.7 2.7.8l-.1.4-3.2.7q-.6.2-1 .7-.4.5-.3 1.1l-.3 13h-.1l-.3 4q-.5.4-.6 1-.2.8.2 1.4.4.7 1.2.9.8.2 1.5-.3v1.5h-7.5v7.3h8l-.1 1.7h-.6l-.3 1.9h12.4q0-.8-.6-1.4t-1.3-.5h-2l.2-2.1h.8V459h.6l-.1-3.7.3 6.9h.5v1.8q-.4.4-.5 1-.1.8.4 1.5.4.5 1.2.7.8.1 1.4-.3.7-.6.8-1.3 0-.7-.3-1.3-.4-.6-1.1-.8v-1.3h.8l-2.8-15.5q-.2-.6-.7-1-.4-.4-1.1-.4l-2.6-.1v-.7q2.3-.9 3.8-3.6v-.7q.3-1.4 0-2.7v-1.3q.9-2.1.5-4.4-.5-3.2-3.1-5-2.7-1.8-5.8-1.3"/><path fill="none" stroke="#19344F" stroke-width="2.5" stroke-linecap="round" stroke-linejoin="round" d="M444.8 455.3l-.1-3.7-.1-2.4m-3.5 12v15h.5l-.1 2.1h-.6l-.1.6q-.6-.6-1.3-.6h-2l.2-1.6h2.1v-7.3h-1.3v-8.1h2.6m-6.2 3.1v-.1h.4v.3l-.4-.2"/><path fill="#50585F" stroke="#19344F" stroke-width="2.5" stroke-linecap="round" stroke-linejoin="round" d="M410.4 436.1q.4 2.6 2.3 4.5v.2h-.1q-.8.1-1.2.8-.5.7-.4 1.4.2.9.8 1.3.7.5 1.5.3l.6-.3q1 1.7 2.4 2.5 1.3.7 2.9.8v.4l-3.6.9q-.7.2-1.1.8-.4.5-.4 1.2l1 11.4.8-.1 1.9 8.3-3.2 2.3.6.9-3.6 2.6-.3-.3-1.7 1.2 2.2 2.2h5q0-.8-.6-1.5-.6-.6-1.4-.6h-1.1l2.7-1.9.6.8 4.3-3.1q1.2-.8.8-2.2l-1.4-6.1.5-.5 2.5-.3 6.6 3.4-.4 6.4h1l-.1 3.5h-.6l-.4 2.1h7.3q0-.8-.6-1.5-.7-.6-1.5-.6h-2.2l.2-3.4h1l.5-7.5q0-1.3-1.1-2l-6.1-3.2h.2l-.3-3.7.4.2q.2.7.8 1 .6.6 1.5.5.8-.1 1.3-.7t.5-1.6q-.1-.9-.8-1.4-.7-.5-1.4-.4-.8 0-1.4.6l-1.2-.4-.2-2.9 8.4 3.8.4-1.5 1.7.9q.3.6.8 1 .7.5 1.6.3.8-.2 1.3-.9t.3-1.5q-.1-.9-.8-1.4-.7-.4-1.5-.3-.8.1-1.3.7l-1.7-.7.1-.6-10.3-4.1-2.8-.1-.6-.1.1-.7q2.5-1 4-3.9l.1-.8v-.3h.7q.8-.1 1.3-.8.4-.6.3-1.4-.1-.8-.8-1.3-.6-.4-1.4-.3h-.1v-.3q1-2.5.6-4.9-.3-1.3-.8-2.3.7-.7 1.2-1.8l.1-.5q0-.5-.3-.8-2-1.9-4.7-2.3l-1.7-.1h-1.1l-1.5.5h-.1l-.6.3-.2.1h-.1q-3.5.6-5.5 3.5t-1.4 6.3"/><path fill="#3D4449" d="M366.6 428l-1.7-.2-1 .1v.1l-.7.1-.8.3h-.1l-.7.3-.2.1h-.1q-3.5.6-5.5 3.5t-1.4 6.3q.5 2.6 2.4 4.5v.2h-.2q-.8.1-1.2.8-.5.7-.3 1.4.1.9.8 1.3.6.5 1.4.3l.6-.2q1 1.6 2.5 2.4 1.3.7 2.9.9l-.1.4-3.5.8q-.7.2-1.1.8-.5.5-.4 1.2l.9 11.4.8-.1 1.9 8.3-3.2 2.4.6.8-3.6 2.6-.3-.3-1.7 1.2 2.2 2.2h5q0-.8-.5-1.5-.7-.6-1.5-.6h-1l2.6-1.9.6.8 4.4-3.1q1-.8.8-2.1l-1.5-6.2.5-.5 2.5-.3 6.6 3.5-.3 6.3h1l-.2 3.5h-.6l-.4 2.1h7.3q0-.8-.6-1.5-.6-.6-1.5-.6h-2.1l.2-3.4h1l.4-7.5q0-1.3-1.1-2l-6-3.2h.1l-.3-3.7-.2-.6-1.3-8.8-2.7-.1-.6-.1v-.7q2.5-1 4.1-3.9v-1.1h.8q.7-.1 1.2-.8.4-.6.3-1.4-.1-.8-.8-1.3-.6-.4-1.4-.3l-.1-.3q1-2.4.6-4.9-.2-1.1-.7-2.3.8-1 1.2-1.8v-.5q0-.6-.2-.8-2-1.9-4.8-2.3"/><path fill="none" stroke="#19344F" stroke-width="2.5" stroke-linecap="round" stroke-linejoin="round" d="M371.4 430.4q.2.2.3.7l-.1.5q-.4.8-1.2 1.8.5 1.2.7 2.3.5 2.5-.6 4.9v.3q.9-.1 1.5.3.7.5.8 1.3.1.8-.3 1.4-.5.7-1.2.8h-.7l-.1.3v.8q-1.6 2.9-4 3.9l-.1.7h.6l2.7.2m1.7-20.2q-2-2-4.8-2.4l-1.7-.1h-1v.1l-.7.2-.8.2h-.1l-.7.3-.2.1h-.1q-3.5.6-5.5 3.5t-1.4 6.3q.5 2.7 2.4 4.6v.1h-.2q-.8.2-1.2.8-.5.7-.3 1.5.1.8.8 1.2.6.5 1.4.3l.6-.2q1 1.6 2.5 2.4 1.3.7 2.9.9l-.1.4-3.5.8q-.7.2-1.1.8-.5.5-.4 1.2l.9 11.4.8-.1 1.9 8.4-3.2 2.3.6.8-3.6 2.6-.3-.3-1.7 1.2 2.2 2.2h5q0-.8-.5-1.5-.7-.6-1.5-.6h-1l2.6-1.9.6.8 4.4-3.1q1-.8.8-2.1l-1.5-6.2.5-.5 2.5-.3 6.6 3.5-.3 6.3h1l-.2 3.5h-.6l-.4 2.1h7.3q0-.8-.6-1.5-.6-.6-1.5-.6h-2.1l.2-3.4h1l.4-7.5q0-1.3-1.1-2l-6-3.2h.1l-.3-3.7-.2-.6"/><path fill="#9FA7A6" stroke="#19344F" stroke-width="2.5" stroke-linecap="round" stroke-linejoin="round" d="M557.3 437.3q.4-.7.3-1.4-.1-.8-.8-1.3-.6-.5-1.4-.3h-.1v-.3q1-2.4.6-4.9-.1-1-.7-2.3l1.2-1.9v-.4q0-.5-.3-.8-2-1.9-4.7-2.4h-2.7l-1 .3-.5.2h-.2l-.6.3-.2.1h-.1q-3.5.6-5.5 3.5t-1.4 6.3q.5 2.6 2.4 4.5v.2h-.2q-.8.1-1.2.8-.5.7-.3 1.4 0 .9.7 1.3.7.5 1.5.3l.6-.3q1 1.6 2.5 2.5 1.2.7 2.8.8v.4l-3.5.9q-.7.2-1.1.7-.5.6-.4 1.3l.9 11.4.8-.1 1.9 8.3-3.2 2.3.6.9-3.6 2.6-.3-.3-1.7 1.2.3.3 1.9 1.9h5q0-.9-.5-1.5-.7-.6-1.5-.6h-1.1l2.7-1.9.6.8 4.4-3.1q1-.8.8-2.2l-1.5-6.2.5-.4 2.5-.3 6.6 3.4-.4 6.3 1 .1-.1 3.5h-.6l-.4 2.1h7.3q0-.8-.6-1.5-.6-.6-1.5-.6h-2.1l.1-3.4h1l.5-7.5q0-1.4-1.1-2l-6.1-3.2h.2l-.3-3.7.4.2q.2.6.8 1 .6.6 1.5.5.8-.1 1.3-.8.6-.6.5-1.5-.1-.9-.8-1.4-.6-.5-1.4-.4-.8 0-1.3.6l-1.2-.5-.3-2.8 8.5 3.8.3-1.5 1.8.9q.1.5.7 1 .7.5 1.6.3.8-.2 1.3-.9t.4-1.5q-.2-.9-1-1.4-.6-.4-1.4-.3-.7.1-1.3.7l-1.7-.7.2-.6-10.4-4.1-2.8-.1-.5-.1v-.7q2.5-1 4.1-4v-1h.7q.8-.1 1.3-.8"/><path fill="#9FA7A6" d="M484.5 443.2l-6-.7-6 .8.3 12.9h1.3l-2 11.5v.7l.6 7.8h.9l-.2 1.9-1.6-.1q-.7-.1-1.3.4-.5.5-.6 1.2l6 .6v-1.9h-.7l-.5-.1h.5l.1-2 1.3.1-.5-7.3q-.1-1.1.2-2.1l1.4-8.3h2.1l1.6 8q.2 1 0 2.3l-.8 7.2h1.2v2h-.6l-.3 1.9 6.1-.3q0-.7-.5-1.2-.6-.6-1.3-.5H482.1h1.5v-1.9h.9l1-8.3-1.2-11v-.7h-.1v-.2h.7l-.1-4.2 3-1.4-.3-.7.5-.2q.5.3.9.3.8.2 1.5-.4.7-.6.8-1.4.2-1-.5-1.7h.3q1.1-.1 1.3-1.1l1.2-6-.8-.1.2-1.2q.8-.2 1.2-.8.5-.6.4-1.4-.1-.9-.8-1.4-.7-.5-1.5-.4-.8.1-1.4.8-.5.6-.4 1.5 0 .6.6 1.1l-.3 1.4-.5-.1-1 4.4h-1.5l-3.2.3m1.4 3.3l1.6-.1q-.4.3-.5 1v.1l-.5.3-.6-1.3m-1.2.1l.7-.1-.7.4v-.3"/><path fill="none" stroke="#19344F" stroke-width="2.5" stroke-linecap="round" stroke-linejoin="round" d="M478.6 442.5l-6.1.8.3 12.9h1.3l-2 11.5v.7l.6 7.8h.9l-.2 1.9-1.6-.1q-.7-.1-1.3.4-.5.5-.6 1.2l6 .6v-1.9h-.7l.1-2h1.3l-.5-7.3q-.1-1.1.2-2.1l1.4-8.3h2.1l1.6 8q.2 1 0 2.3l-.8 7.2h1.2v2h-.6l-.3 1.9 6.1-.3q0-.7-.5-1.2-.6-.6-1.3-.5h-2.3.7v-1.9h.9l1-8.3-1.2-11v-.7h-.1v-.2h.7l-.1-4.2 3-1.4-.3-.7.5-.2q.5.3.9.3.8.2 1.5-.4.7-.6.8-1.4.2-1-.5-1.7h.3q1.1-.1 1.3-1.1l1.2-6-.8-.1.2-1.2q.8-.2 1.2-.8.5-.6.4-1.4-.1-.9-.8-1.4-.7-.5-1.5-.4-.8.1-1.4.8-.5.6-.4 1.5 0 .6.6 1.1l-.3 1.4-.5-.1-1 4.4h-1.5l-3.2.3-6-.7m-3.3 35.8l-.5-.1m8.2-.2h-.8"/><path fill="none" stroke="#19344F" stroke-width="2.5" stroke-linecap="round" stroke-linejoin="round" d="M485.9 446.5l1.6-.1q-.4.3-.5 1v.1l-.5.3-.6-1.3m-1.2.1l.7-.1-.7.3v-.2"/><path fill="#9FA7A6" stroke="#19344F" stroke-width="2.5" stroke-linecap="round" stroke-linejoin="round" d="M483.5 429.5q-1.6-4-6.7-3.9-5 .1-6.7 3.4-1.2 2.6.1 5.5l.1 1.4q-.6.2-1 .7-.3.6-.3 1.2 0 .8.6 1.4.6.6 1.4.5h.4q.8 1.3 2.2 2.1 1.5.8 3.1.8h.9q1.9 0 3.5-1.2 1.5-1.1 2.1-2.9h.2q.8 0 1.4-.6.6-.6.6-1.4-.1-.8-.5-1.3-.5-.5-1.2-.6v-1.2q.5-2.3-.2-3.9"/><g transform="translate(476.4 452.3)"><animateTransform attributeName="transform" additive="replace" type="translate" dur="3.95s" keyTimes="0;1" values="0,0;0,0" fill="freeze"/><animateTransform attributeName="transform" additive="sum" type="translate" repeatCount="indefinite" dur="3.95s" keyTimes="0;0.013;0.025;0.038;0.051;0.063;0.076;0.089;0.101;0.114;0.127;0.139;0.152;0.165;0.177;0.19;0.203;0.215;0.228;0.241;0.253;0.266;0.278;0.291;0.304;0.316;0.329;0.342;0.354;0.366;0.367;1" values="476.35,482.05;476.35,482.017;476.35,482.084;476.35,482.051;476.35,482.02;476.35,482.036;476.35,482.053;476.35,482.069;476.35,482.038;476.35,482.055;476.35,482.022;476.35,482.039;476.35,482.057;476.35,482.071;476.35,482.088;476.35,482.058;476.35,482.026;476.35,482.046;476.35,482.06;476.35,482.027;476.35,482.099;476.35,482.076;476.35,482.052;476.35,482.128;476.35,482.058;476.35,482.081;476.35,482.107;476.35,482.036;476.4,482.06;476.4,482.086;0;0" calcMode="discrete"/><animateTransform attributeName="transform" additive="sum" type="translate" repeatCount="indefinite" dur="3.95s" keyTimes="0;0.367;0.38;0.392;0.405;0.418;0.43;0.443;0.456;0.468;0.481;0.494;0.506;0.519;0.532;0.544;0.557;0.57;0.582;0.595;0.608;0.62;0.633;0.646;0.658;0.671;0.684;0.696;0.709;0.721;0.722;1" values="0;476.4,482.086;476.4,482.017;476.4,482.089;476.35,482.116;476.35,482.092;476.35,482.068;476.35,482.094;476.35,482.021;476.35,482.097;476.35,482.074;476.35,482.05;476.35,482.024;476.35,482.097;476.35,482.022;476.35,482.046;476.35,482.068;476.35,482.043;476.35,482.067;476.35,482.089;476.35,482.017;476.35,482.038;476.35,482.062;476.35,482.039;476.35,482.06;476.35,482.081;476.35,482.058;476.35,482.078;476.35,482.056;476.35,482.079;0;0" calcMode="discrete"/><animateTransform attributeName="transform" additive="sum" type="translate" repeatCount="indefinite" dur="3.95s" keyTimes="0;0.722;0.734;0.747;0.759;0.772;0.785;0.797;0.81;0.823;0.835;0.848;0.861;0.873;0.886;0.899;0.911;0.924;0.937;0.949;0.962;0.975;0.987;1" values="0;476.35,482.079;476.35,482.053;476.35,482.027;476.35,482.099;476.35,482.076;476.35,482.052;476.35,482.128;476.35,482.058;476.35,482.081;476.35,482.107;476.35,482.036;476.4,482.06;476.4,482.086;476.4,482.017;476.4,482.089;476.35,482.116;476.35,482.092;476.35,482.068;476.35,482.094;476.35,482.021;476.35,482.097;476.35,482.074;476.35,482.05" calcMode="discrete"/><animateTransform attributeName="transform" additive="sum" type="scale" repeatCount="indefinite" dur="3.95s" keyTimes="0;0.013;0.025;0.038;0.051;0.063;0.076;0.089;0.101;0.114;0.127;0.139;0.152;0.165;0.177;0.19;0.203;0.215;0.228;0.241;0.253;0.266;0.278;0.291;0.304;0.316;0.329;0.342;0.354;0.366;0.367;1" values="1,1;1.001,0.996;1.002,0.991;1.004,0.987;1.005,0.982;1.006,0.978;1.007,0.973;1.009,0.969;1.01,0.964;1.011,0.96;1.012,0.955;1.014,0.951;1.015,0.946;1.016,0.942;1.017,0.938;1.019,0.933;1.02,0.929;1.021,0.924;1.022,0.92;1.023,0.915;1.022,0.919;1.021,0.924;1.02,0.928;1.019,0.932;1.018,0.936;1.016,0.941;1.015,0.945;1.014,0.949;1.013,0.953;1.012,0.958;1;1" calcMode="discrete"/><animateTransform attributeName="transform" additive="sum" type="scale" repeatCount="indefinite" dur="3.95s" keyTimes="0;0.367;0.38;0.392;0.405;0.418;0.43;0.443;0.456;0.468;0.481;0.494;0.506;0.519;0.532;0.544;0.557;0.57;0.582;0.595;0.608;0.62;0.633;0.646;0.658;0.671;0.684;0.696;0.709;0.721;0.722;1" values="1;1.012,0.958;1.011,0.962;1.009,0.966;1.008,0.97;1.007,0.975;1.006,0.979;1.005,0.983;1.004,0.987;1.002,0.992;1.001,0.996;1,1;1.001,0.996;1.002,0.992;1.004,0.987;1.005,0.983;1.006,0.979;1.007,0.975;1.008,0.97;1.009,0.966;1.011,0.962;1.012,0.958;1.013,0.953;1.014,0.949;1.015,0.945;1.016,0.941;1.018,0.936;1.019,0.932;1.02,0.928;1.021,0.924;1;1" calcMode="discrete"/><animateTransform attributeName="transform" additive="sum" type="scale" repeatCount="indefinite" dur="3.95s" keyTimes="0;0.722;0.734;0.747;0.759;0.772;0.785;0.797;0.81;0.823;0.835;0.848;0.861;0.873;0.886;0.899;0.911;0.924;0.937;0.949;0.962;0.975;0.987;1" values="1;1.021,0.924;1.022,0.919;1.023,0.915;1.022,0.919;1.021,0.924;1.02,0.928;1.019,0.932;1.018,0.936;1.016,0.941;1.015,0.945;1.014,0.949;1.013,0.953;1.012,0.958;1.011,0.962;1.009,0.966;1.008,0.97;1.007,0.975;1.006,0.979;1.005,0.983;1.004,0.987;1.002,0.992;1.001,0.996;1,1" calcMode="discrete"/><animateTransform attributeName="transform" additive="sum" type="translate" repeatCount="indefinite" dur="3.95s" keyTimes="0;0.013;0.025;0.038;0.051;0.063;0.076;0.089;0.101;0.152;0.165;0.177;0.19;0.203;0.215;0.228;0.241;0.253;0.291;0.304;0.316;0.329;0.342;0.354;0.366;0.367;1" values="0,-29.75;0,-29.7;0,-29.8;0,-29.75;0,-29.7;0,-29.75;0,-29.75;0,-29.8;0,-29.75;0,-29.75;0,-29.8;0,-29.8;0,-29.75;0,-29.75;0,-29.7;0,-29.75;0,-29.75;0,-29.8;0,-29.8;0,-29.75;0,-29.8;0,-29.8;0,-29.75;0,-29.8;0,-29.8;0;0" calcMode="discrete"/><animateTransform attributeName="transform" additive="sum" type="translate" repeatCount="indefinite" dur="3.95s" keyTimes="0;0.367;0.38;0.392;0.443;0.456;0.468;0.481;0.494;0.506;0.519;0.532;0.544;0.557;0.57;0.582;0.595;0.608;0.62;0.633;0.646;0.658;0.671;0.684;0.696;0.709;0.721;0.722;1" values="0;0,-29.8;0,-29.7;0,-29.8;0,-29.8;0,-29.75;0,-29.8;0,-29.75;0,-29.75;0,-29.7;0,-29.8;0,-29.7;0,-29.7;0,-29.8;0,-29.75;0,-29.75;0,-29.8;0,-29.7;0,-29.75;0,-29.75;0,-29.7;0,-29.75;0,-29.8;0,-29.75;0,-29.8;0,-29.75;0,-29.75;0;0" calcMode="discrete"/><animateTransform attributeName="transform" additive="sum" type="translate" repeatCount="indefinite" dur="3.95s" keyTimes="0;0.722;0.747;0.759;0.797;0.81;0.823;0.835;0.848;0.861;0.873;0.886;0.899;0.949;0.962;0.975;0.987;1" values="0;0,-29.75;0,-29.75;0,-29.8;0,-29.8;0,-29.75;0,-29.8;0,-29.8;0,-29.75;0,-29.8;0,-29.8;0,-29.7;0,-29.8;0,-29.8;0,-29.75;0,-29.8;0,-29.75;0,-29.75" calcMode="discrete"/><path fill="#50585F" d="M-12.3-25.4q-2.6-1.8-5.7-1.3-3.1.6-5 3.2-1.8 2.6-1.3 5.7.5 2.5 2.2 4.1l.2 1.2q.5 2.9 3 4.4 1.3.7 2.7.8l-.1.4-3.2.7q-.6.2-1 .7-.4.5-.4 1.1v1l-.3 12-.3 4q-.5.4-.6 1-.2.8.2 1.4.4.7 1.2.9.8.2 1.5-.3v1.5h-7.5v7.3h7.9v1.7h-.6l-.3 1.9h12.4q0-.8-.6-1.4t-1.3-.5h-2l.2-2.1h.8V6.8h.6V5.4L-9.8 4l-.1-4.6L-10-3v2.4l.2 4.6v1.4l.2 4.6h.6v1.8q-.4.4-.5 1-.1.8.4 1.4.4.6 1.2.8.8 0 1.4-.4.6-.5.7-1.2.1-.7-.3-1.3-.3-.6-1-.8l-.1-1.3h.9L-9-5.5q-.2-.6-.7-1-.4-.4-1.1-.4l-2.6-.1v-.7q2.3-.9 3.8-3.6v-.7q.3-1.4 0-2.7V-16q.9-2.3.5-4.4-.5-3.2-3.2-5m-7.3 37.6V12h.4v.4l-.4-.2m6.2-3.2v15h.5l-.1 2h-.6l-.1.6q-.6-.5-1.3-.5h-2l.1-1.7h2.2v-7.3H-16V9h2.6"/><path fill="none" stroke="#19344F" stroke-width="2.5" stroke-linecap="round" stroke-linejoin="round" d="M-18-26.7q-3.1.6-5 3.2-1.8 2.6-1.3 5.7.5 2.5 2.2 4.1l.2 1.2q.5 2.9 3 4.4 1.3.7 2.7.8l-.1.4-3.2.7q-.6.2-1 .7-.4.5-.4 1.1v1l-.3 12-.3 4q-.5.4-.6 1-.2.8.2 1.4.4.7 1.2.9.8.2 1.5-.3v1.5h-7.5v7.3h7.9v1.7h-.6l-.3 1.9h12.4q0-.8-.6-1.4t-1.3-.5h-2l.2-2.1h.8V6.8h.6V5.4l.1 4.6h.6v1.8q-.4.4-.5 1-.1.8.4 1.4.4.6 1.2.8.8 0 1.4-.4.6-.5.7-1.2.1-.7-.3-1.3-.3-.6-1-.8l-.1-1.3h.9L-9-5.5q-.2-.6-.7-1-.4-.4-1.1-.4l-2.6-.1v-.7q2.3-.9 3.8-3.6v-.7q.3-1.4 0-2.7V-16q.9-2.3.5-4.4-.5-3.2-3.2-5-2.6-1.8-5.7-1.3"/><path fill="none" stroke="#19344F" stroke-width="2.5" stroke-linecap="round" stroke-linejoin="round" d="M-9.7 5.4V4l-.1-4.6L-10-3m-9.7 15.2V12h.4v.4l-.4-.2m6.2-3.2v15h.5l-.1 2h-.6l-.1.6q-.6-.5-1.3-.5h-2l.1-1.7h2.2v-7.3H-16V9h2.6"/><path fill="#50585F" d="M90.6-9.7l-6.1.8.3 12.9 1.4-.1L84 15.5v.6l.6 7.8h.9l-.2 2-1.6-.2q-.7 0-1.2.5-.6.4-.6 1.1l6 .7-.1-2h-1.1.4l.1-2h1.3l-.5-7.2q-.1-1.2.2-2.2l1.5-8.3h2l1.6 8q.3 1.3.1 2.3l-1 7.2h1.3v2h-.6l-.2 2 6-.3q0-.7-.5-1.2-.5-.6-1.2-.5H94h1.5v-2h.9l1-7.7q.2-.3 0-.6l-1.2-11V4l-.1-.1v-.1h.8l-.1-4.2L99.8-2l-.3-.6.5-.2q.5.3.9.3.8 0 1.6-.4.7-.6.8-1.4.1-1-.6-1.8h.3q1-.1 1.3-1.1l1.2-6-.8-.1.2-1.2q.8-.2 1.2-.8.5-.6.4-1.4-.1-.8-.8-1.3-.6-.5-1.5-.5-.8.1-1.3.8-.5.7-.4 1.5 0 .6.5 1.1l-.3 1.4-.5-.1-1 4.5-4.7.3-5.9-.7m7.9 5.2l-.6-1.3 1.6-.1q-.3.4-.4 1v.2l-.6.2m-1.8-1.1l.7-.1-.7.3v-.2"/><path fill="none" stroke="#19344F" stroke-width="2.5" stroke-linecap="round" stroke-linejoin="round" d="M84.5-8.9L84.8 4l1.4-.1L84 15.5v.6l.6 7.8h.9l-.2 2-1.6-.2q-.7 0-1.2.5-.6.4-.6 1.1l6 .7-.1-2h-1.1.4l.1-2h1.3l-.5-7.2q-.1-1.2.2-2.2l1.5-8.3h2l1.6 8q.3 1.3.1 2.3l-1 7.2h1.3v2h-.6l-.2 2 6-.3q0-.7-.5-1.2-.5-.6-1.2-.5h-2.4.7v-2h.9l1-7.7q.2-.3 0-.6l-1.2-11V4l-.1-.1v-.1h.8l-.1-4.2L99.8-2l-.3-.6.5-.2q.5.3.9.3.8 0 1.6-.4.7-.6.8-1.4.1-1-.6-1.8h.3q1-.1 1.3-1.1l1.2-6-.8-.1.2-1.2q.8-.2 1.2-.8.5-.6.4-1.4-.1-.8-.8-1.3-.6-.5-1.5-.5-.8.1-1.3.8-.5.7-.4 1.5 0 .6.5 1.1l-.3 1.4-.5-.1-1 4.5-4.7.3-5.9-.7-6.1.8m10.4 34.7H94"/><path fill="none" stroke="#19344F" stroke-width="2.5" stroke-linecap="round" stroke-linejoin="round" d="M98.5-4.5l-.6-1.3 1.6-.1q-.3.4-.4 1v.2l-.6.2m-1.8-1.1l.7-.1-.7.3v-.2"/><path fill="#50585F" stroke="#19344F" stroke-width="2.5" stroke-linecap="round" stroke-linejoin="round" d="M88.8-26.6q-5 0-6.6 3.4-1.3 2.6 0 5.5l.2 1.4q-.6.2-1 .7-.4.5-.4 1.2 0 .8.6 1.4.6.6 1.4.5h.4q.9 1.3 2.3 2.1t3 .8h.9q1.9-.1 3.5-1.2 1.5-1.2 2.2-3h.2q.8 0 1.4-.5.5-.6.5-1.4 0-.8-.5-1.3t-1.2-.6V-19q.5-2-.2-3.8-1.6-4-6.7-3.9"/><path fill="#50585F" d="M-80.9-14.8q0-.9-.7-1.4-.7-.5-1.5-.4-.9.1-1.4.8-.5.6-.4 1.5 0 .5.5 1.1l-.2 1.4-.5-.1-1 4.4h-1.5l-3.3.3-5.8-.7-6.1.9.2 12.8h1.4l-2 11.5-.1.7.7 7.8h.8l-.1 1.9-1.6-.1q-.7-.1-1.3.4-.5.5-.6 1.2l6 .7-.1-2h-.7l-.4-.1h.4l.2-2 1.3.1-.5-7.2q-.1-1.2.2-2.2l1.4-8.3h2l1.7 8q.2 1.2 0 2.3l-.9 7.2h1.3v2h-.7l-.2 1.9 6-.3q0-.7-.4-1.2-.6-.5-1.3-.5H-93.2h1.5v-1.9h.8l1.1-7.7v-.6l-1.2-11v-.6l-.1-.1v-.1h.7l-.1-4.2 2.9-1.5-.3-.6.6-.3.8.4q.9 0 1.6-.5.7-.5.8-1.4.2-1-.5-1.7h.3q1-.1 1.3-1.1l1.2-6-.8-.1.2-1.2q.7-.2 1.2-.8.4-.6.3-1.4m-9.7 11l.7-.1-.7.4v-.3m2.3.8v.1l-.5.3-.7-1.3 1.6-.1q-.3.4-.4 1"/><path fill="#50585F" d="M-100.2 27.9l-.4-.1h.4"/><path fill="none" stroke="#19344F" stroke-width="2.5" stroke-linecap="round" stroke-linejoin="round" d="M-81.6-16.2q-.7-.5-1.5-.4-.9.1-1.4.8-.5.6-.4 1.5 0 .5.5 1.1l-.2 1.4-.5-.1-1 4.4h-1.5l-3.3.3-5.8-.7-6.1.9.2 12.8h1.4l-2 11.5-.1.7.7 7.8h.8l-.1 1.9-1.6-.1q-.7-.1-1.3.4-.5.5-.6 1.2l6 .7-.1-2h-.7l.2-2h1.3l-.5-7.2q-.1-1.2.2-2.2l1.4-8.3h2l1.7 8q.2 1.2 0 2.3l-.9 7.2h1.3v2h-.7l-.2 1.9 6-.3q0-.7-.4-1.2-.6-.5-1.3-.5h-2.4.8v-1.9h.8l1.1-7.7v-.6l-1.2-11v-.6l-.1-.1v-.1h.7l-.1-4.2 2.9-1.5-.3-.6.6-.3.8.4q.9 0 1.6-.5.7-.5.8-1.4.2-1-.5-1.7h.3q1-.1 1.3-1.1l1.2-6-.8-.1.2-1.2q.7-.2 1.2-.8.4-.6.3-1.4 0-.9-.7-1.4"/><path fill="none" stroke="#19344F" stroke-width="2.5" stroke-linecap="round" stroke-linejoin="round" d="M-100.2 27.8h-.4.4m7.7-.2h-.7m2.6-31.4l.7-.1-.7.4v-.3m2.3.8v.1l-.5.3-.7-1.3 1.6-.1q-.3.4-.4 1"/><path fill="#50585F" stroke="#19344F" stroke-width="2.5" stroke-linecap="round" stroke-linejoin="round" d="M-91.6-17q.4-2.1-.2-3.9-1.6-4-6.7-3.8-5 0-6.7 3.4-1.3 2.6 0 5.4l.2 1.4q-.6.2-1 .8t-.3 1.2q0 .8.6 1.4.6.5 1.4.5l.3-.1q.9 1.4 2.3 2.2 1.5.8 3.1.7h.9q1.9 0 3.5-1.2 1.5-1.1 2.1-2.9h.2q.9 0 1.4-.6.6-.6.5-1.4 0-.7-.5-1.2-.4-.6-1.1-.7V-17"/><path fill="#9FA7A6" d="M54.2-21.2q-.6-.5-1.5-.4-.8 0-1.3.7t-.5 1.5q.1.7.6 1.2l-.3 1.3h-.5l-1 4.4h-1.5l-3.2.3-6-.7-6 .9.3 12.8h1.3l-2 11.5v.7l.6 7.8h.9l-.2 1.9-1.6-.1q-.7-.1-1.3.4-.5.5-.6 1.2l6 .6v-2h-1.1.4l.1-2 1.3.1-.5-7.2q-.1-1 .2-2.3l1.4-8.2h2.1l1.6 8q.2 1 0 2.2l-.8 7.3h1.2v2h-.6l-.3 1.9 6.1-.3q0-.7-.5-1.2-.6-.5-1.3-.5H42.6h1.5v-1.9h.9l1-7.7v-.7L44.9 1.4V.8l-.1-.1V.6l.7-.1-.1-4.2 3-1.4-.3-.6.5-.3q.4.3.9.3.8.1 1.5-.4t.8-1.4q.2-1-.5-1.7h.3q1.1-.1 1.3-1.2l1.2-5.9-.8-.2.2-1.1q.8-.2 1.2-.8.5-.6.4-1.4-.1-.8-.8-1.4M45.9-8.9l-.7.4v-.3l.7-.1m2-.2l-.4 1v.2l-.5.3-.6-1.3 1.6-.2"/><path fill="none" stroke="#19344F" stroke-width="2.5" stroke-linecap="round" stroke-linejoin="round" d="M52.7-21.6q-.8 0-1.3.7t-.5 1.5q.1.7.6 1.2l-.3 1.3h-.5l-1 4.4h-1.5l-3.2.3-6-.7-6 .9.3 12.8h1.3l-2 11.5v.7l.6 7.8h.9l-.2 1.9-1.6-.1q-.7-.1-1.3.4-.5.5-.6 1.2l6 .6v-2h-1.1.4l.1-2 1.3.1-.5-7.2q-.1-1 .2-2.3l1.4-8.2h2.1l1.6 8q.2 1 0 2.2l-.8 7.3h1.2v2h-.6l-.3 1.9 6.1-.3q0-.7-.5-1.2-.6-.5-1.3-.5h-2.3.7v-1.9h.9l1-7.7v-.7L44.9 1.4V.8l-.1-.1V.6l.7-.1-.1-4.2 3-1.4-.3-.6.5-.3q.4.3.9.3.8.1 1.5-.4t.8-1.4q.2-1-.5-1.7h.3q1.1-.1 1.3-1.2l1.2-5.9-.8-.2.2-1.1q.8-.2 1.2-.8.5-.6.4-1.4-.1-.8-.8-1.4-.6-.5-1.5-.4m-9.3 44.2h-.8"/><path fill="none" stroke="#19344F" stroke-width="2.5" stroke-linecap="round" stroke-linejoin="round" d="M45.9-8.9l-.7.4v-.3l.7-.1m2-.2l-.4 1v.2l-.5.3-.6-1.3 1.6-.2"/><path fill="#9FA7A6" stroke="#19344F" stroke-width="2.5" stroke-linecap="round" stroke-linejoin="round" d="M41.6-14q1.5-1.1 2.1-2.9h.2q.8 0 1.4-.6.6-.6.6-1.4-.1-.7-.5-1.3-.5-.5-1.2-.6V-22q.5-2.2-.2-3.9-1.6-4-6.7-3.8-5 0-6.7 3.4-1.2 2.6.1 5.4l.2 1.4q-1.4.4-1.4 1.9 0 .9.6 1.4.6.6 1.4.6l.4-.1q.8 1.4 2.2 2.2 1.5.8 3.2.7h.8q2 0 3.5-1.2"/></g><path fill="#C3E5EF" stroke="#19344F" stroke-width="2.5" stroke-linecap="round" stroke-linejoin="round" d="M158.6 123.5l-40.7 17.4V480h81.5V140.9l-40.8-17.5"/><path fill="#FFF" stroke="#19344F" stroke-width="2.5" stroke-linecap="round" stroke-linejoin="round" d="M238.7 167.1h-39.3V480h39.3V167.1"/><path fill="#A7D6E2" stroke="#19344F" stroke-width="2.5" stroke-linecap="round" stroke-linejoin="round" d="M238.7 167.1h-39.3V480h39.3V167.1"/><path fill="#FFF" stroke="#19344F" stroke-width="2.5" stroke-linecap="round" stroke-linejoin="round" d="M180.5 203.5v-13.1h-45.2v13.1h45.2"/><path fill="#98BDC4" stroke="#19344F" stroke-width="2.5" stroke-linecap="round" stroke-linejoin="round" d="M180.5 203.5v-13.1h-45.2v13.1h45.2"/><path fill="#FFF" stroke="#19344F" stroke-width="2.5" stroke-linecap="round" stroke-linejoin="round" d="M180.5 229.7v-13.1h-45.2v13h45.2"/><path fill="#98BDC4" stroke="#19344F" stroke-width="2.5" stroke-linecap="round" stroke-linejoin="round" d="M180.5 229.7v-13.1h-45.2v13h45.2"/><path fill="#FFF" stroke="#19344F" stroke-width="2.5" stroke-linecap="round" stroke-linejoin="round" d="M180.5 164.2h-45.2v13.1h45.2v-13.1"/><path fill="#98BDC4" stroke="#19344F" stroke-width="2.5" stroke-linecap="round" stroke-linejoin="round" d="M180.5 164.2h-45.2v13.1h45.2v-13.1"/><path fill="#FFF" stroke="#19344F" stroke-width="2.5" stroke-linecap="round" stroke-linejoin="round" d="M180.5 255.8v-13h-45.2v13h45.2"/><path fill="#98BDC4" stroke="#19344F" stroke-width="2.5" stroke-linecap="round" stroke-linejoin="round" d="M180.5 255.8v-13h-45.2v13h45.2"/><path fill="#FFF" stroke="#19344F" stroke-width="2.5" stroke-linecap="round" stroke-linejoin="round" d="M180.5 282v-13h-45.2v13h45.2"/><path fill="#98BDC4" stroke="#19344F" stroke-width="2.5" stroke-linecap="round" stroke-linejoin="round" d="M180.5 282v-13h-45.2v13h45.2"/><path fill="#FFF" stroke="#19344F" stroke-width="2.5" stroke-linecap="round" stroke-linejoin="round" d="M135.3 295.1v13.1h45.2v-13h-45.2"/><path fill="#98BDC4" stroke="#19344F" stroke-width="2.5" stroke-linecap="round" stroke-linejoin="round" d="M135.3 295.1v13.1h45.2v-13h-45.2"/><path fill="#FFF" stroke="#19344F" stroke-width="2.5" stroke-linecap="round" stroke-linejoin="round" d="M135.3 321.4v13h45.2v-13h-45.2"/><path fill="#98BDC4" stroke="#19344F" stroke-width="2.5" stroke-linecap="round" stroke-linejoin="round" d="M135.3 321.4v13h45.2v-13h-45.2"/><path fill="#FFF" stroke="#19344F" stroke-width="2.5" stroke-linecap="round" stroke-linejoin="round" d="M135.3 347.6v13h45.2v-13h-45.2"/><path fill="#98BDC4" stroke="#19344F" stroke-width="2.5" stroke-linecap="round" stroke-linejoin="round" d="M135.3 347.6v13h45.2v-13h-45.2"/><path fill="#FFF" stroke="#19344F" stroke-width="2.5" stroke-linecap="round" stroke-linejoin="round" d="M180.5 386.9v-13.1h-45.2v13h45.2"/><path fill="#98BDC4" stroke="#19344F" stroke-width="2.5" stroke-linecap="round" stroke-linejoin="round" d="M180.5 386.9v-13.1h-45.2v13h45.2m0 26.3v-13.2h-45.2v13.2h45.2"/><path fill="#FFF" stroke="#19344F" stroke-width="2.5" stroke-linecap="round" stroke-linejoin="round" d="M224.1 206.4v-16h-10.2v16h10.2"/><path fill="#98BDC4" stroke="#19344F" stroke-width="2.5" stroke-linecap="round" stroke-linejoin="round" d="M224.1 206.4v-16h-10.2v16h10.2"/><path fill="#FFF" stroke="#19344F" stroke-width="2.5" stroke-linecap="round" stroke-linejoin="round" d="M224.1 216.6h-10.2v16h10.2v-16"/><path fill="#98BDC4" stroke="#19344F" stroke-width="2.5" stroke-linecap="round" stroke-linejoin="round" d="M224.1 216.6h-10.2v16h10.2v-16"/><path fill="#FFF" stroke="#19344F" stroke-width="2.5" stroke-linecap="round" stroke-linejoin="round" d="M224.1 258.8v-16h-10.2v16h10.2"/><path fill="#98BDC4" stroke="#19344F" stroke-width="2.5" stroke-linecap="round" stroke-linejoin="round" d="M224.1 258.8v-16h-10.2v16h10.2"/><path fill="#FFF" stroke="#19344F" stroke-width="2.5" stroke-linecap="round" stroke-linejoin="round" d="M224.1 269h-10.2v16h10.2v-16"/><path fill="#98BDC4" stroke="#19344F" stroke-width="2.5" stroke-linecap="round" stroke-linejoin="round" d="M224.1 269h-10.2v16h10.2v-16"/><path fill="#FFF" stroke="#19344F" stroke-width="2.5" stroke-linecap="round" stroke-linejoin="round" d="M224.1 311.1v-16h-10.2v16h10.2"/><path fill="#7CA4AF" stroke="#19344F" stroke-width="2.5" stroke-linecap="round" stroke-linejoin="round" d="M224.1 311.1v-16h-10.2v16h10.2"/><path fill="#FFF" stroke="#19344F" stroke-width="2.5" stroke-linecap="round" stroke-linejoin="round" d="M224.1 337.4v-16h-10.2v16h10.2"/><path fill="#7CA4AF" stroke="#19344F" stroke-width="2.5" stroke-linecap="round" stroke-linejoin="round" d="M224.1 337.4v-16h-10.2v16h10.2"/><path fill="#FFF" stroke="#19344F" stroke-width="2.5" stroke-linecap="round" stroke-linejoin="round" d="M224.1 363.6v-16h-10.2v16h10.2"/><path fill="#7CA4AF" stroke="#19344F" stroke-width="2.5" stroke-linecap="round" stroke-linejoin="round" d="M224.1 363.6v-16h-10.2v16h10.2"/><path fill="#FFF" stroke="#19344F" stroke-width="2.5" stroke-linecap="round" stroke-linejoin="round" d="M224.1 389.8v-16h-10.2v16h10.2"/><path fill="#98BDC4" stroke="#19344F" stroke-width="2.5" stroke-linecap="round" stroke-linejoin="round" d="M224.1 389.8v-16h-10.2v16h10.2"/><path fill="#FFF" stroke="#19344F" stroke-width="2.5" stroke-linecap="round" stroke-linejoin="round" d="M224.1 416v-16h-10.2v16h10.2"/><path fill="#98BDC4" stroke="#19344F" stroke-width="2.5" stroke-linecap="round" stroke-linejoin="round" d="M224.1 416v-16h-10.2v16h10.2"/><path fill="#FFF" stroke="#19344F" stroke-width="2.5" stroke-linecap="round" stroke-linejoin="round" d="M224.1 442.1v-16h-10.2v16h10.2"/><path fill="#7CA4AF" stroke="#19344F" stroke-width="2.5" stroke-linecap="round" stroke-linejoin="round" d="M224.1 442.1v-16h-10.2v16h10.2"/><path fill="#FFF" stroke="#19344F" stroke-width="2.5" stroke-linecap="round" stroke-linejoin="round" d="M117.9 167.1H78.6V480h39.3V167.1"/><path fill="#A7D6E2" stroke="#19344F" stroke-width="2.5" stroke-linecap="round" stroke-linejoin="round" d="M117.9 167.1H78.6V480h39.3V167.1"/><path fill="#FFF" stroke="#19344F" stroke-width="2.5" stroke-linecap="round" stroke-linejoin="round" d="M103.3 206.4v-16H93.1v16h10.2"/><path fill="#7CA4AF" stroke="#19344F" stroke-width="2.5" stroke-linecap="round" stroke-linejoin="round" d="M103.3 206.4v-16H93.1v16h10.2"/><path fill="#FFF" stroke="#19344F" stroke-width="2.5" stroke-linecap="round" stroke-linejoin="round" d="M103.3 216.6H93.1v16h10.2v-16"/><path fill="#98BDC4" stroke="#19344F" stroke-width="2.5" stroke-linecap="round" stroke-linejoin="round" d="M103.3 216.6H93.1v16h10.2v-16"/><path fill="#FFF" stroke="#19344F" stroke-width="2.5" stroke-linecap="round" stroke-linejoin="round" d="M103.3 258.8v-16H93.1v16h10.2"/><path fill="#7CA4AF" stroke="#19344F" stroke-width="2.5" stroke-linecap="round" stroke-linejoin="round" d="M103.3 258.8v-16H93.1v16h10.2"/><path fill="#FFF" stroke="#19344F" stroke-width="2.5" stroke-linecap="round" stroke-linejoin="round" d="M103.3 269H93.1v16h10.2v-16"/><path fill="#7CA4AF" stroke="#19344F" stroke-width="2.5" stroke-linecap="round" stroke-linejoin="round" d="M103.3 269H93.1v16h10.2v-16"/><path fill="#FFF" stroke="#19344F" stroke-width="2.5" stroke-linecap="round" stroke-linejoin="round" d="M103.3 311.1v-16H93.1v16h10.2"/><path fill="#98BDC4" stroke="#19344F" stroke-width="2.5" stroke-linecap="round" stroke-linejoin="round" d="M103.3 311.1v-16H93.1v16h10.2"/><path fill="#FFF" stroke="#19344F" stroke-width="2.5" stroke-linecap="round" stroke-linejoin="round" d="M103.3 337.4v-16H93.1v16h10.2"/><path fill="#98BDC4" stroke="#19344F" stroke-width="2.5" stroke-linecap="round" stroke-linejoin="round" d="M103.3 337.4v-16H93.1v16h10.2"/><path fill="#FFF" stroke="#19344F" stroke-width="2.5" stroke-linecap="round" stroke-linejoin="round" d="M103.3 363.6v-16H93.1v16h10.2"/><path fill="#98BDC4" stroke="#19344F" stroke-width="2.5" stroke-linecap="round" stroke-linejoin="round" d="M103.3 363.6v-16H93.1v16h10.2"/><path fill="#FFF" stroke="#19344F" stroke-width="2.5" stroke-linecap="round" stroke-linejoin="round" d="M103.3 389.8v-16H93.1v16h10.2"/><path fill="#98BDC4" stroke="#19344F" stroke-width="2.5" stroke-linecap="round" stroke-linejoin="round" d="M103.3 389.8v-16H93.1v16h10.2"/><path fill="#FFF" stroke="#19344F" stroke-width="2.5" stroke-linecap="round" stroke-linejoin="round" d="M103.3 416v-16H93.1v16h10.2"/><path fill="#98BDC4" stroke="#19344F" stroke-width="2.5" stroke-linecap="round" stroke-linejoin="round" d="M103.3 416v-16H93.1v16h10.2"/><path fill="#FFF" stroke="#19344F" stroke-width="2.5" stroke-linecap="round" stroke-linejoin="round" d="M103.3 442.1v-16H93.1v16h10.2"/><path fill="#98BDC4" stroke="#19344F" stroke-width="2.5" stroke-linecap="round" stroke-linejoin="round" d="M103.3 442.1v-16H93.1v16h10.2"/><path fill="#6C9FAC" stroke="#19344F" stroke-width="2.5" stroke-linecap="round" stroke-linejoin="round" d="M180.5 480.3v-51.9h-45.2v51.9h45.2"/><path fill="#E8E5DF" stroke="#1A344F" stroke-width="2.5" stroke-linecap="round" stroke-linejoin="round" d="M94.2 170l8.3-3.1-11-8.9-21.8 2.9q-7.1 1-8.1 2.5-.6 1 .3 4.2.4 1.7 1 3.1l31.3-.6"/><path fill="#E8E5DF" d="M115.3 164.9q-1.7-8.5-8.5-14.1-6.8-5.7-15.7-5.7-9.4 0-15.5 4.2-6.4 4.4-8 12.8l47.7 2.8"/><path fill="none" stroke="#1A344F" stroke-width="2.5" stroke-linecap="round" stroke-linejoin="round" d="M106.8 150.8q6.8 5.6 8.5 14.1m-8.5-14.1q-6.8-5.7-15.7-5.7-9.4 0-15.5 4.2-6.4 4.4-8 12.8"/><path fill="#E8E5DF" d="M54.7 170.7L79 159.9q-4-3.8-9.8-3.8-6 0-10.3 4.3-4.2 4.2-4.2 10.3"/><path fill="none" stroke="#1A344F" stroke-width="2.5" stroke-linecap="round" stroke-linejoin="round" d="M69.2 156.2q5.8 0 9.8 3.8m-9.8-3.8q-6 0-10.3 4.2-4.2 4.3-4.2 10.3"/><path fill="#E8E5DF" d="M51.5 163.5q-4.7.3-8 3.8-3.1 3.4-3.1 8.1 0 1.6 1 2.7 1.2 1.1 2.8 1.1h84.2q1 0 1.9-.8.8-.7.8-1.8v-2.1q0-5.6-4-9.6t-9.7-4q-4.1 0-7.6 2.3l-50.1 3.1q-3.5-3-8.2-2.8"/><path fill="#D2D0CC" d="M58.7 179.2q-10.6-.3-10.1-7.9.3-4 2.9-7.9-4.7.2-8 3.7-3.1 3.5-3.1 8.2 0 1.6 1 2.7 1.2 1.2 2.8 1.2h14.5"/><path fill="none" stroke="#1A344F" stroke-width="2.5" stroke-linecap="round" stroke-linejoin="round" d="M109.8 163.2q3.5-2.3 7.7-2.3 5.6 0 9.6 4t4 9.6v2.1q0 1.1-.8 1.8-.8.8-1.9.8H44.2q-1.5 0-2.7-1-1.1-1.2-1.1-2.8 0-4.7 3.2-8.2 3.2-3.4 7.9-3.7 4.7-.2 8.3 2.9m46.6-10.6l1.8 2.2"/><path fill="#E8E5DF" d="M90.6 149l13.3 4.5q-2.7-2-6-3.2-3.6-1.3-7.3-1.3"/><path fill="none" stroke="#1A344F" stroke-width="2.5" stroke-linecap="round" stroke-linejoin="round" d="M97.9 150.3q3.3 1.1 6 3.2m-6-3.2q-3.6-1.3-7.3-1.3"/><path fill="none" stroke="#19344F" stroke-width="2.5" stroke-linecap="round" stroke-linejoin="round" d="M91.7 455l-4.8-4.7m4.8 4.7l-4.3 4.4 8 8v12m7.9-19.2l-7.5 7.5m110.5-81.9v102.5"/><path fill="#EA919A" stroke="#19344F" stroke-width="2.5" stroke-linecap="round" stroke-linejoin="round" d="M230.8 389.8h-24.3v74h24.3v-74"/><path fill="none" stroke="#19344F" stroke-width="2.5" stroke-linecap="round" stroke-linejoin="round" d="M246.3 385.8v102.5"/><path fill="#EA919A" stroke="#19344F" stroke-width="2.5" stroke-linecap="round" stroke-linejoin="round" d="M246.6 389.8v74h24.3v-74h-24.3"/><path fill="#19344F" d="M266.4 419.4v-1.7h-5.1l-1.6-.9 6.8-3.3v-1.8l-8.5 4-7-3.8v1.7l7.5 4.1H251v1.8h15.5m-3.8-15.7q-2.3 0-4.6 2.5-2.3 2.7-3.5 2.7-2.1 0-2.2-1.8 0-1.8 2.2-1.7h.5v-1.7h-.4q-3.5 0-3.9 3.5 0 3.4 3.9 3.4 2.2 0 4.1-2.5 2-2.6 4-2.7 2.2-.1 2.3 1.8 0 2-2.3 1.8h-1v1.7h1q3.5 0 3.8-3.5 0-3.5-3.9-3.5m0 16.8h-1.9v1.6h2q2.1 0 2.3 1.9 0 1.8-2.3 1.7h-8.2q-2 0-2.2-1.7 0-1.9 2.2-1.9h1.5v-1.6h-1.4q-3.5 0-3.9 3.5 0 3.5 3.9 3.5h8q3.6 0 3.9-3.5 0-3.6-3.9-3.5m0 8.8h-8q-3.5 0-3.9 3.7 0 3.5 3.9 3.4h8q3.6 0 3.9-3.4 0-3.7-3.9-3.7m.1 1.8q2.2 0 2.3 1.9 0 1.7-2.3 1.7h-8.2q-2 0-2.2-1.7 0-2 2.2-1.9h8.2m-11.9 6.4v7.4h1.6v-2.8h14v-1.7h-14v-2.9H251M263 451h-1v1.7h.9q3.5 0 3.9-3.5 0-3.5-3.9-3.5-2.4 0-4.7 2.5-2.2 2.7-3.4 2.7-2.2 0-2.3-1.8 0-1.8 2.3-1.8h.4v-1.6h-.3q-3.6 0-4 3.5 0 3.4 4 3.4 2.1 0 4-2.5 2-2.6 4.1-2.7 2.1-.1 2.2 1.8 0 2-2.2 1.8m-37-34h-1.5v4.7H219v-3.9h-1.6v3.8h-5.3V417h-1.6v6.4H226V417m0-8.1v-1.8l-7.9 3.1-7.5-2.9v1.6l6.2 2.5-6.3 2.3v1.8l7.6-2.9 8 3.1v-1.6l-6.7-2.6 6.7-2.6m-10.8 16.6h-1.2q-3.5 0-3.5 3.5v3.4H226v-1.8h-6.6v-1.2q0-2.1 2.3-2.2h2.5q1.6 0 1.9-.3v-1.8q-.8.5-1.9.3h-2.4q-2.5 0-3.3 2-.6-2-3.2-1.9m.4 1.7q2.6 0 2.2 2.2v1.3h-5.8V429q0-2 2.2-1.8h1.4m-3.5 15h-1.6v6.2H226v-1.8h-6.7V443h-1.6v3.6h-5.7v-4.4m2.2-.7h8q3.6 0 3.9-3.5 0-3.6-3.8-3.6h-8.1q-3.5 0-3.9 3.6 0 3.5 3.9 3.5m8.1-5.3q2.2 0 2.3 1.8 0 1.8-2.3 1.8h-8.2q-2 0-2.2-1.8 0-2 2.2-1.9h8.2"/></g></svg>