<svg xmlns:xlink="http://www.w3.org/1999/xlink" xmlns="http://www.w3.org/2000/svg" baseProfile="basic" width="695" height="471" viewBox="0 0 695 471" preserveAspectRatio="xMinYMin meet"><defs><symbol id="a" overflow="visible"><path fill="#EAB091" d="M-10.2.8q2.6.9 5.5 1.3 9 1.4 17.1-2h-24.6l2 .7"/><path fill="none" stroke="#19344F" stroke-width="2.5" stroke-linecap="round" stroke-linejoin="round" d="M-10.2.8q2.6.9 5.5 1.3 9 1.4 17.1-2m-22.6.7l-2-.7"/></symbol><symbol id="d" overflow="visible"><use xlink:href="#a"/></symbol><symbol id="b" overflow="visible"><path fill="#B83436" d="M10.7.3L2.1 1.6q-2.7-.8-5.3.5-5.3-.9-7-1.6-2.9-1-3-.2 0 3 3.6 6.6 4.3 4.4 9.7 4.4 5.4 0 9.6-4.4 3.5-3.7 3.5-6.5 0-.8-2.5-.2"/></symbol><symbol id="c" overflow="visible"><use xlink:href="#b"/></symbol></defs><g overflow="visible"><path fill="#D7EDF4" d="M702.7 474V0H.1v474h702.6"/><path fill="#ECB069" stroke="#1A344F" stroke-width="2.5" stroke-linecap="round" stroke-linejoin="round" d="M670.2 191.6q-8.6-16.2-24.2-25.7-16.1-9.9-35-9.9H40.2q-27.8 0-47.4 19.7Q-27 195.3-27 223v282.1H708V367.7l-37.8-176.2"/><path fill="#7AC7EE" stroke="#19344F" stroke-width="2.5" stroke-linecap="round" stroke-linejoin="round" d="M699.6 329.1L679.2 235h-79.5q-19.5 0-33.3 13.8-13.8 13.7-13.8 33.3 0 19.5 13.8 33.3 13.8 13.8 33.3 13.8h99.9"/><path fill="#FFF" d="M125.6 275.1q0-20.6-14.6-35.2-14.6-14.6-35.2-14.6t-35.3 14.6q-14.6 14.6-14.6 35.2t14.6 35.3Q55.2 325 75.8 325q20.6 0 35.2-14.6 14.6-14.6 14.6-35.3"/><path fill="#E66F26" stroke="#1A344F" stroke-width="2.5" stroke-linecap="round" stroke-linejoin="round" d="M61.1 256.3q-1.5-3.9-5.1-4.8-3.6-.9-6.6 1.7-2.4 2.1-2.4 5.5 0 3.9 3.6 6.3L71 278.8l-9.9-22.6"/><path fill="#BD264B" stroke="#1A344F" stroke-width="2.5" stroke-linecap="round" stroke-linejoin="round" d="M74 242.5q-2.3-2.3-5.5-1.9-3 .1-5.1 2.8-2.5 3.1-1 7.3l10.2 24 3.6-25.3q.6-4.3-2.1-6.9"/><path fill="#6561A8" stroke="#1A344F" stroke-width="2.5" stroke-linecap="round" stroke-linejoin="round" d="M91 243.6q-2.2-3-5.4-3-3-.3-5.3 1.7-2.6 2.2-2.5 6.1l3.8 26.3 10.2-24.1q1.5-3.8-.8-7"/><path fill="#3589CE" stroke="#1A344F" stroke-width="2.5" stroke-linecap="round" stroke-linejoin="round" d="M92.9 256.5l-9.6 22.4 20.4-14.1q3.3-2.3 3.4-5.9.1-3.2-2.1-5.3-2.2-2.5-5.8-2.2-4.3.3-6.3 5.1"/><path fill="#42AF4C" stroke="#1A344F" stroke-width="2.5" stroke-linecap="round" stroke-linejoin="round" d="M107.4 284.1q3.6 0 5.7-3 2-3.1.9-6.6-1.1-3.2-4.2-4.5-3.4-1.5-6.8.7l-19.1 13.4h23.5"/><path fill="#F4B71E" stroke="#1A344F" stroke-width="2.5" stroke-linecap="round" stroke-linejoin="round" d="M40.1 273.1Q39 277 41.3 280q2.2 2.9 6 2.9h23.2l-19.2-13.3q-3.3-2.2-6.5-1.1-3.3 1-4.7 4.6"/><path fill="#1A344F" d="M54.8 290.4q0-1.1-1.2-2-1.7-1.3-5.2-1.3T43 289q-1.3 1.3-1.3 2.9 0 1.7 1.3 3 1.8 1.8 5.4 1.8 3.2 0 5-1.3 1.4-1 1.4-2H51l-.3.7q-.6.7-2 .7t-2.1-1q-.6-.9-.6-1.9t.6-1.7q.7-1 2.1-1 1.4 0 2 .6.3.3.3.6h3.8m28-1.4q-1.3 1.3-1.3 2.9 0 1.7 1.3 3 1.8 1.8 5.4 1.8 3.2 0 5-1.3 1.4-1 1.4-2h-3.8l-.3.7q-.7.7-2 .7-1.4 0-2.2-1-.5-.9-.5-1.9t.5-1.7q.8-1 2.2-1 1.3 0 2 .6.3.3.3.6h3.8q0-1.1-1.2-2-1.7-1.2-5.2-1.2t-5.4 1.8m-23.6 7.4v-5.8l4.4 5.8h5v-9.1h-3.4v5.8l-4.4-5.8h-5v9.2h3.4m10.5-9.2v9.2h6.8q4.6 0 4.6-2.9 0-1-1.1-1.6l-1.1-.4q.6 0 1.2-.6.7-.6.7-1.5 0-1.3-1.9-1.9-1.2-.3-2.4-.3h-6.8m3.6 1.8H76q.9 0 .9.6 0 .7-.9.7h-2.7v-1.3m0 5.1v-1.6H76q.5 0 .8.2.3.2.3.6 0 .8-1.1.8h-2.8m26-3.3h-4.1v1.7h4.2v-1.7m4 2.2l-.1-.7h9.2q-.1-1.4-.4-2.2-.9-2.2-4-2.9-.9-.2-2-.2-2 0-3.5.7-1.7.8-2.3 2.4-.3.9-.3 1.8 0 1.8 1 2.8.5.6 1 .9 1.6 1 4 1 3.9 0 5.6-2l.7-1.1h-3.5l-.5.5q-.6.7-2 .7-1.1 0-1.9-.5-.8-.4-1-1.3m5.7-2.2h-5.8l.3-.8q.4-.7 1.3-1 .5-.2 1.3-.2 1.8 0 2.6 1.1l.3.9"/><path fill="none" stroke="#1A344F" stroke-width="2.5" stroke-linecap="round" stroke-linejoin="round" d="M-14.9 185.8h683"/><path fill="#99C977" d="M336.4 201.5q-5.5 5.5-5.5 13.3v289.6h151.8V214.8q0-7.8-5.5-13.3-5.5-5.5-13.3-5.5H349.7q-7.8 0-13.3 5.5"/><path fill="none" stroke="#19344F" stroke-width="2.5" stroke-linecap="round" stroke-linejoin="round" d="M330.9 214.8q0-7.8 5.5-13.3 5.5-5.5 13.3-5.5h114.2q7.8 0 13.3 5.5 5.5 5.5 5.5 13.3v289.6M330.9 214.8v289.6"/><path fill="#C3CCB2" stroke="#1A344F" stroke-width="2.5" stroke-linecap="round" stroke-linejoin="round" d="M405.3 384q-1.1 0-1.8.8-.7.6-.7 1.7v7.2q0 1 .7 1.8.7.7 1.8.7h48.5q1 0 1.8-.7.8-.8.8-1.8v-7.2q0-1-.8-1.8-.7-.7-1.8-.7h-48.5"/><path fill="#555F68" stroke="#1A344F" stroke-width="2.5" stroke-linecap="round" stroke-linejoin="round" d="M656.6 488.3q0-18.8-13.2-32Q630 443 611.3 443h-64q-18.7 0-32 13.3t-13.2 32v16.9h154.5v-17"/><path fill="#33404C" stroke="#1A344F" stroke-width="2.5" stroke-linecap="round" stroke-linejoin="round" d="M629.9 576.4q19.7-19.7 19.7-47.6 0-28-19.7-47.7t-47.7-19.8q-28 0-47.6 19.8-19.8 19.8-19.8 47.6 0 28 19.8 47.7 19.7 19.8 47.6 19.8 27.9 0 47.7-19.8"/><path fill="#C4C7CB" stroke="#1A344F" stroke-width="3" stroke-linecap="round" stroke-linejoin="round" d="M611.9 528.8q0-12.3-8.7-21t-21-8.7q-12.3 0-21 8.7-8.6 8.7-8.6 21t8.7 21q8.6 8.6 20.9 8.6 12.3 0 21-8.7t8.7-21"/><path fill="#555F68" stroke="#1A344F" stroke-width="2.5" stroke-linecap="round" stroke-linejoin="round" d="M192 488.3q0-18.8-13.3-32t-32-13.3h-64q-18.8 0-32 13.3-13.3 13.2-13.3 32v16.9H192v-17"/><path fill="#33404C" stroke="#1A344F" stroke-width="2.5" stroke-linecap="round" stroke-linejoin="round" d="M164.5 576.4q19.8-19.7 19.8-47.6 0-28-19.8-47.7-19.7-19.8-47.6-19.8-28 0-47.7 19.8t-19.7 47.6q0 28 19.7 47.7 19.8 19.8 47.7 19.8 27.9 0 47.6-19.8"/><path fill="#C4C7CB" stroke="#1A344F" stroke-width="3" stroke-linecap="round" stroke-linejoin="round" d="M146.5 528.8q0-12.3-8.6-21-8.7-8.7-21-8.7t-21 8.7-8.7 21q0 12.3 8.7 21 8.7 8.6 21 8.6t21-8.7q8.6-8.7 8.6-21"/><path fill="none" stroke="#1A344F" stroke-width="2.5" stroke-linecap="round" stroke-linejoin="round" d="M-26.9 367.7h357.8m151.8 0H708"/><path fill="#C3CCB2" stroke="#1A344F" stroke-width="2.5" stroke-linecap="round" stroke-linejoin="round" d="M453 239q0-2.3-1.5-3.9-1.6-1.5-3.9-1.5h-80q-2.2 0-3.8 1.6-1.6 1.5-1.6 3.8v89.2q0 2.2 1.6 3.8t3.8 1.6h80q2.3 0 3.9-1.6t1.6-3.9V239m-159.4 0q0-2.3-1.6-3.9-1.6-1.5-3.8-1.5h-80q-2.3 0-3.9 1.6-1.6 1.5-1.6 3.8v89.2q0 2.2 1.6 3.8t3.9 1.6h80q2.2 0 3.8-1.6t1.6-3.9V239"/><path fill="none" stroke="#1A344F" stroke-width="2.5" stroke-linecap="round" stroke-linejoin="round" d="M-5.6 426h25.9m-26 12.8h26m-26 12.8h26"/><path fill="#FFF" stroke="#1A344F" stroke-width="2.5" stroke-linecap="round" stroke-linejoin="round" d="M585.6 46.9q0-3.9-2.7-6.6-2.8-2.8-6.6-2.8H98.8q-3.8 0-6.6 2.8-2.7 2.7-2.7 6.6v74q0 3.9 2.7 6.6 2.8 2.8 6.6 2.8h429l11.4 33.2 10.5-33.2h24.5q4.7 0 8-3.4 3.4-3.3 3.4-8v-72"/><path fill="#6BAEDB" d="M377.6 195.4q-3.2-.5-5.8 1.6l-88.5 68.8q-7.4 5.7-16.6 6.2-9.1.6-17.2-4.2l-55-33q-2.8-1.7-6-.9-3 .8-4.7 3.6-1.7 2.8-.9 6 .8 3.1 3.6 4.7l55 33q10.9 6.6 23.5 6.6 7.4 0 14.5-2.4 7.2-2.5 13.4-7.2l88.5-68.8q2.6-2 3-5.2.4-3.2-1.6-5.8-2-2.6-5.2-3"/><path fill="none" stroke="#19344F" stroke-width="2.5" stroke-linecap="round" stroke-linejoin="round" d="M377.6 195.4q-3.2-.5-5.8 1.6l-88.5 68.8q-7.4 5.7-16.6 6.2-9.1.6-17.2-4.2l-55-33q-2.8-1.7-6-.9-3 .8-4.7 3.6-1.7 2.8-.9 6 .8 3.1 3.6 4.7l55 33q10.9 6.6 23.5 6.6 7.4 0 14.5-2.4 7.2-2.5 13.4-7.2l88.5-68.8q2.6-2 3-5.2.4-3.2-1.6-5.8-2-2.6-5.2-3"/><path fill="#C4C7CB" stroke="#1A344F" stroke-width="2.5" stroke-linecap="round" stroke-linejoin="round" d="M363 176.3q0-4.2-3-7.1-2.8-2.9-7-2.9H224.7q-4.1 0-7 2.9-3 3-3 7v67.9q0 4.1 3 7 2.9 2.9 7 2.9H353q4.2 0 7-2.9 3-3 3-7v-67.8"/><path fill="#C4C7CB" stroke="#1A344F" stroke-width="2.5" stroke-linecap="round" stroke-linejoin="round" d="M350.6 243.6v-66.3H226v66.3h124.5"/><path fill="#C4C7CB" stroke="#1A344F" stroke-width="2.5" stroke-linecap="round" stroke-linejoin="round" d="M251.3 190.8q0-2.5-1.8-4.3-1.8-1.8-4.4-1.8h-5.6q-2.6 0-4.4 1.8-1.8 1.8-1.8 4.3v23.4q0 2.6 1.8 4.4 1.8 1.8 4.4 1.8h5.6q2.6 0 4.4-1.8 1.8-1.8 1.8-4.4v-23.4"/><path fill="#A1A8A7" stroke="#19344F" stroke-width="2.5" stroke-linecap="round" stroke-linejoin="round" d="M324.4 194.7v-28.4h-59v28.4h59M435 235v-21.7h-41.4V235H435"/><path fill="#A1A8A7" stroke="#19344F" stroke-width="2.5" stroke-linecap="round" stroke-linejoin="round" d="M393.4 239.8q2.5 0 4.4-1.8 1.8-1.8 1.8-4.3v-20q0-2.5-1.8-4.3-1.9-1.9-4.4-1.9h-8.7v32.3h8.7"/><path fill="#91BA6A" d="M337.3 293.9q-.8-11.4-.8-22.1l.2-8.4h-5.8v207.7h151.8q.4-2.6.6-5.5.5-5.9-.6-7.6-54.3.2-89.4-30.2-28.1-24.4-42.8-67-10.5-30.4-13.2-67"/><path fill="none" stroke="#19344F" stroke-width="2.5" stroke-linecap="round" stroke-linejoin="round" d="M330.9 214.8q0-7.8 5.5-13.3 5.5-5.5 13.3-5.5h114.2q7.8 0 13.3 5.5 5.5 5.5 5.5 13.3v289.6M330.9 214.8v289.6"/><path fill="#A1A8A7" stroke="#19344F" stroke-width="2.5" stroke-linecap="round" stroke-linejoin="round" d="M385 197.7q-3.9-3.9-9.3-3.9H265.4V254h110.3q5.4 0 9.3-3.9 3.9-3.8 3.9-9.2V207q0-5.5-3.9-9.3"/><path fill="#A1A8A7" stroke="#19344F" stroke-width="2.5" stroke-linecap="round" stroke-linejoin="round" d="M324.4 166.3v27.6H363v-18.4q0-3.8-2.7-6.5t-6.5-2.7h-29.4"/><path fill="#A1A8A7" stroke="#19344F" stroke-width="2.5" stroke-linecap="round" stroke-linejoin="round" d="M353 233q4.1 0 7-3 3-2.9 3-7v-29.3h-76.2V223q0 4.1 2.9 7 3 3 7.1 3H353m5 28.6q2 0 3.6-1.4 1.4-1.5 1.4-3.5V253q0-2-1.4-3.5-1.5-1.5-3.6-1.5h-66.2q-2.1 0-3.5 1.5-1.5 1.4-1.5 3.5v3.5q0 2.1 1.5 3.6 1.4 1.4 3.5 1.4H358m98.5-21.8v-32.3h-17.3q-4 0-6.8 2.9-2.8 2.8-2.8 6.8v13q0 4 2.8 6.8t6.8 2.8h17.3"/><path fill="none" stroke="#1A344F" stroke-width="2.5" stroke-linecap="round" stroke-linejoin="round" d="M446.8 207.6v32.2m-25.2-19.4h3.5m-19.7 0h9.8m-102.9-47.6h3.8m-44.8 0h33.4"/><path fill="#1A344F" d="M245 194.7q0-1.1-.7-2-.9-.7-2-.7t-2 .7q-.8.9-.8 2t.8 2q.8.8 2 .8t2-.8q.8-.8.8-2m113.4 60.2q0-1.1-.8-2-.8-.8-2-.8t-2 .8q-.7.8-.7 2t.8 2q.8.8 2 .8t1.9-.8q.8-.8.8-2m-23.3-72.2q-.8.8-.8 2 0 1.1.8 2 .8.7 1.9.7t2-.8q.8-.8.8-2t-.8-1.9q-.8-.8-2-.8-1.1 0-2 .8m17.9 2q0-1.2-.8-2t-2-.8q-1.1 0-2 .8-.7.9-.7 2t.8 2q.8.8 1.9.8t2-.8q.8-.9.8-2"/><path fill="none" stroke="#1A344F" stroke-width="2.5" stroke-linecap="round" stroke-linejoin="round" d="M257.8 228.7v4.3m0-45.6v34.3"/><path fill="none" stroke="#19344F" stroke-width="2.5" stroke-linecap="round" stroke-linejoin="round" d="M363 176.7h27.9"/><path fill="#EF6365" stroke="#1A344F" stroke-width="2.5" stroke-linecap="round" stroke-linejoin="round" d="M386.8 169.6v16.3h33.6q2.5 0 4.3-1.8 1.8-1.8 1.8-4.3v-4.2q0-2.5-1.8-4.3-1.8-1.8-4.3-1.8h-33.6"/><path fill="none" stroke="#474747" stroke-width="2.5" stroke-linecap="round" stroke-linejoin="round" d="M206.4 425.1v221"/><path fill="#A1A8A7" stroke="#19344F" stroke-width="2.5" stroke-linecap="round" stroke-linejoin="round" d="M196.2 382q-19 0-32.3 10.6-13.4 10.5-13.4 25.4 0 9.2 5.5 17.1 5.2 7.8 14.4 12.7v232.5q0 4.3 3 7.4 3 3 7.3 3t7.4-3q3-3.1 3-7.4V454l5.1.1q18.9 0 32.3-10.5 13.4-10.6 13.4-25.6 0-14.9-13.4-25.5-13.4-10.5-32.3-10.5"/><path fill="none" stroke="#474747" stroke-width="3" stroke-linecap="round" stroke-linejoin="round" d="M216.4 680.9l.2 8.6m-10.7-8.6l.2 8.6"/><path fill="#A1A8A7" d="M228.8 392.6Q215.5 382 196.5 382v72.2q1.8 0 5-.3v226.4q0 4.3 3.1 7.4 3 3 7.4 3t7.3-3q3-3.1 3-7.4V447.8q9.2-5 14.5-12.7 5.4-8 5.4-17 0-15-13.4-25.6"/><path fill="none" stroke="#19344F" stroke-width="2.5" stroke-linecap="round" stroke-linejoin="round" d="M228.8 392.6Q215.5 382 196.5 382m32.3 10.6q13.4 10.5 13.4 25.4 0 9.2-5.4 17.1-5.3 7.8-14.4 12.7v232.5q0 4.3-3.1 7.4-3 3-7.3 3t-7.4-3q-3-3.1-3-7.4V454l-5.1.1"/><path fill="#4E97D1" d="M260.3 686.8q0-5-3.4-8.5-3.5-3.5-8.5-3.5h-53.3v23.9h53.3q5 0 8.5-3.5 3.4-3.5 3.4-8.4"/><path fill="none" stroke="#474747" stroke-width="3" stroke-linecap="round" stroke-linejoin="round" d="M260.3 686.8q0-5-3.4-8.5-3.5-3.5-8.5-3.5h-53.3v23.9h53.3q5 0 8.5-3.5 3.4-3.5 3.4-8.4"/><path fill="#4E97D1" d="M226.8 678.3q-3.5-3.5-8.4-3.5H165v23.9h53.3q5 0 8.5-3.5 3.4-3.5 3.5-8.4 0-5-3.5-8.5"/><path fill="none" stroke="#474747" stroke-width="3" stroke-linecap="round" stroke-linejoin="round" d="M226.8 678.3q-3.5-3.5-8.4-3.5H165v23.9h53.3q5 0 8.5-3.5 3.4-3.5 3.5-8.4 0-5-3.5-8.5"/><path fill="#DE5A4B" stroke="#474747" stroke-width="3" stroke-linecap="round" stroke-linejoin="round" d="M165 661.8v13h32.6v-13H165"/><path fill="#DE5A4B" stroke="#474747" stroke-width="3" stroke-linecap="round" stroke-linejoin="round" d="M227.7 674.8v-13h-32.6v13h32.6"/><path fill="#6BAEDB" d="M245.8 269.4q0-13.2-9.2-22.7t-22.4-9.6l-32.1-.3q-13.2 0-22.6 9.2-9.5 9.4-9.6 22.6l.7 149.6 93.9 1 1.3-149.8"/><path fill="none" stroke="#19344F" stroke-width="2.5" stroke-linecap="round" stroke-linejoin="round" d="M245.8 269.4q0-13.2-9.2-22.7t-22.4-9.6l-32.1-.3q-13.2 0-22.6 9.2-9.5 9.4-9.6 22.6l.7 149.6 93.9 1 1.3-149.8"/><path fill="#6FA7D2" d="M155 254.9q-4.4 8-5.1 13.8 22.7 18.2 53.2 8.8 15.2-4.7 26-13.1-14.7-5.5-30.2-10.7-31-10.4-34.8-9.1-4.3 1.4-9.1 10.3"/><path fill="#669DC9" d="M163.8 321q-.5-5.1-.5-9.9l.2-3.8-15.1 110.4 96.1 1.5.2-14.1q-55.1-6.9-73.7-53-5.8-14.4-7.2-31"/><path fill="none" stroke="#19344F" stroke-width="2.5" stroke-linecap="round" stroke-linejoin="round" d="M245.8 269.4q0-13.2-9.2-22.7t-22.4-9.6l-32.1-.3q-13.2 0-22.6 9.2-9.5 9.4-9.6 22.6l.7 149.6 93.9 1 1.3-149.8"/><path fill="none" stroke="#1A344F" stroke-width="2.5" stroke-linecap="round" stroke-linejoin="round" d="M244.6 410.6l-90.1-1.6"/><path fill="#6BAEDB" d="M166 282l-15.7-17.3-18 175.7H150l16.2-158.5"/><path fill="none" stroke="#19344F" stroke-width="2.5" stroke-linecap="round" stroke-linejoin="round" d="M132.4 440.4h17.5l16.2-158.5m-33.7 158.5l17.9-175.7"/><path fill="#EAB091" stroke="#1A344F" stroke-width="2.5" stroke-linecap="round" stroke-linejoin="round" d="M146 456.8q2.5-2.3 2.8-5.7l1.1-10.8-17.5.1-1 9q-.3 3.7 2 6.5t5.9 3.1h.8q3.4 0 5.9-2.2"/><path fill="none" stroke="#474747" stroke-width="2.5" stroke-linecap="round" stroke-linejoin="round" d="M560.9 475.4v221"/><path fill="#A1A8A7" stroke="#19344F" stroke-width="2.5" stroke-linecap="round" stroke-linejoin="round" d="M572.7 428.8q-12.8-10.1-30.7-10.1-19.8 0-31.2 5.7-13.3 6.6-13.3 20 0 14.9 13.3 28.5 13.9 14.3 31.2 14.3l4.8-.1v215q0 4.2 2.9 7 2.9 2.9 7 2.9t6.9-2.9q2.9-2.9 2.9-7l10.2-189.3q7.2-4 8.6-27.8.5-7.9.3-18.6l-.2-13.4q0-14.2-12.7-24.3"/><path fill="none" stroke="#474747" stroke-width="3" stroke-linecap="round" stroke-linejoin="round" d="M527.1 695.3l-.2 7.7m9.5-7.7l-.2 7.7"/><path fill="#A1A8A7" d="M541.7 487.3v-68.6q-19.7 0-31.1 5.7-13.1 6.6-13.1 20l-.4 14q-.4 11.9-.2 20.2.7 26 7.9 30L517 702q0 4.1 2.9 7 2.9 2.9 7 2.9t6.9-2.9q2.9-2.9 2.9-7v-215l4.9.1"/><path fill="none" stroke="#19344F" stroke-width="2.5" stroke-linecap="round" stroke-linejoin="round" d="M496.9 478.6q-.2-8.3.2-20.2l.4-14q0-13.4 13.1-20 11.4-5.7 31-5.7M497 478.6q.7 26 7.9 30L517 702q0 4.1 2.9 7 2.9 2.9 7 2.9t6.9-2.9q2.9-2.9 2.9-7v-215l4.9.1"/><path fill="#4E97D1" d="M491.3 693q-3.1 3.1-3.1 7.5t3 7.5q3.2 3.1 7.5 3.1h47.2v-21.2h-47.2q-4.3 0-7.4 3.1"/><path fill="none" stroke="#474747" stroke-width="3" stroke-linecap="round" stroke-linejoin="round" d="M491.3 693q-3.1 3.1-3.1 7.5t3 7.5q3.2 3.1 7.5 3.1h47.2v-21.2h-47.2q-4.3 0-7.4 3.1"/><path fill="#4E97D1" d="M517.9 693q-3.1 3.1-3.1 7.5t3.1 7.5q3.1 3.1 7.5 3.1h47.2v-21.2h-47.2q-4.4 0-7.5 3.1"/><path fill="none" stroke="#474747" stroke-width="3" stroke-linecap="round" stroke-linejoin="round" d="M517.9 693q-3.1 3.1-3.1 7.5t3.1 7.5q3.1 3.1 7.5 3.1h47.2v-21.2h-47.2q-4.4 0-7.5 3.1"/><path fill="#DE5A4B" stroke="#474747" stroke-width="3" stroke-linecap="round" stroke-linejoin="round" d="M572.6 689.9v-11.4h-29v11.4h29"/><path fill="#DE5A4B" stroke="#474747" stroke-width="3" stroke-linecap="round" stroke-linejoin="round" d="M545.9 689.9v-11.4H517v11.4H546"/><path fill="#EDC69D" stroke="#1A344F" stroke-width="2.5" stroke-linecap="round" stroke-linejoin="round" d="M457.8 341.1l-6.1-9.3q-1.8-2.8-5.2-3.5-3.4-.8-6.4 1.1-2.9 1.9-3.6 5.3-.7 3.5 1.2 6.4l7 10.8 13-10.8"/><path fill="#D2E4E5" stroke="#1A344F" stroke-width="2.5" stroke-linecap="round" stroke-linejoin="round" d="M457.8 341.1l-13 10.8 30.5 47q1.2 1.8 3 2.8 1.9 1 4 1l1.4-.1q2.5-.4 4.3-2.1 1.8-1.7 2.4-4.2l9.9-44.3-2.7 99.6.1-1.4 93.9-1 .3 9.3.4-141.1q-.1-13.3-9.5-22.6t-22.7-9.2l-32 .2q-7.2.1-13.6 3.2-6.2 3-10.7 8.4-2.5.3-4.5 2t-2.6 4.3l-17.8 70-21.1-32.6"/><path fill="#B5C6C8" d="M524 287.8l-9.2 1-17.1 18.6 23.8 14.9L511 349l28.7 68-10.1-68.7-5.6-60.6"/><path fill="#FFF" stroke="#1A344F" stroke-width="2.5" stroke-linecap="round" stroke-linejoin="round" d="M555.7 295.8q3.2-4 5-8H524l1.1 2.5q1.6 3 3.5 5.5 6 8 13.3 8 7.2 0 13.7-8"/><path fill="#D2E4E5" d="M591.9 313.4l-13.8 24.8 3.6 157.4 16.9-4.5-6.7-177.7"/><path fill="none" stroke="#1A344F" stroke-width="2.5" stroke-linecap="round" stroke-linejoin="round" d="M598.6 491.1l-17 4.5-3.5-157.4m20.5 153l-6.7-177.8"/><path fill="#EF6365" stroke="#1A344F" stroke-width="2.5" stroke-linecap="round" stroke-linejoin="round" d="M318.8 214.3q0-4.8-3.5-8.3-3.4-3.5-8.3-3.5-4.8 0-8.2 3.5-3.5 3.5-3.5 8.3 0 4.9 3.5 8.3 3.4 3.5 8.2 3.5t8.3-3.5q3.5-3.4 3.5-8.3"/><path fill="#ACAEAF" stroke="#1A344F" stroke-width="2.5" stroke-linecap="round" stroke-linejoin="round" d="M434.8 341.6q-1.2 1.2-1.2 3t1.2 3.1q1.3 1.3 3.1 1.3t3-1.3l31.9-32-6.1-6.2-31.9 32"/><path fill="#51B470" stroke="#1A344F" stroke-width="2.5" stroke-linecap="round" stroke-linejoin="round" d="M484.3 279q-8.5 0-14.5 6-6.1 6.2-6.1 14.7t6 14.6q6 6 14.6 6t14.5-6q6-6.1 6-14.6t-6-14.6q-6-6.1-14.5-6.1"/><path fill="none" stroke="#1A344F" stroke-width="2.5" stroke-linecap="round" stroke-linejoin="round" d="M468.2 280.7l36.2 36.4"/><path fill="#ACAEAF" stroke="#1A344F" stroke-width="2.5" stroke-linecap="round" stroke-linejoin="round" d="M480.1 319.4q0-1.4-1-2.4l-13.2-13.4q-1-1-2.5-1-1.4 0-2.4 1-1.1 1-1.1 2.5t1 2.5l13.3 13.3q1 1 2.5 1t2.4-1q1-1 1-2.5"/><path fill="#5F6361" stroke="#1A344F" stroke-width="2.5" stroke-linecap="round" stroke-linejoin="round" d="M457.1 303.8l-15.5 15.6 23.2 23.3 15.5-15.6-23.2-23.3"/><path fill="#EF6365" stroke="#1A344F" stroke-width="2.5" stroke-linecap="round" stroke-linejoin="round" d="M454.2 316.5q-2.5 2.5-2.5 6.1 0 3.5 2.5 6 2.5 2.6 6.1 2.6 3.6 0 6-2.5 2.6-2.5 2.6-6.1 0-3.6-2.5-6.1-2.5-2.5-6.1-2.5-3.6 0-6.1 2.5"/><path fill="#A3D8D6" stroke="#1A344F" stroke-width="2.5" stroke-linecap="round" stroke-linejoin="round" d="M522.6 319.1l-7.8 20.8 24.9 73.7L524 287.8l-16 14.8 14.5 16.5M569.9 339.9l-7.8-20.8 14.6-16.5-16-14.8-21 125.7 30.2-73.6"/><path fill="none" stroke="#1A344F" stroke-width="2.5" stroke-linecap="round" stroke-linejoin="round" d="M539.7 413.6l1 36.1"/><path fill="#1A344F" d="M534.4 438.9q0-1.4-1-2.3-.9-1-2.2-1-1.4 0-2.3 1-1 1-1 2.3 0 1.4 1 2.4.9.9 2.3.9 1.3 0 2.3-1 .9-1 .9-2.3m0-13q0-1.4-1-2.3-.9-1-2.2-1-1.4 0-2.3 1-1 1-1 2.3 0 1.4 1 2.4.9.9 2.3.9 1.3 0 2.3-1 .9-.9.9-2.3"/><path fill="#F8D68F" d="M576.6 180q-10.3-11-26.9-12.6-22.5-2-39.4 9.1-20.1 13.3-26.7 42.7-7 31 .9 47.3 7.5 15.6 27.5 15.6l58.3-1.4 2.6.7q3.3.6 6.7 0 11-1.8 18.9-14 8.1-12.3 3.5-39-2.3-13-8.4-31.2-1.8-5.6-6.1-6.6-1.4-.3-2.8-.1l-1.1.2q-1.8-5.2-7-10.7"/><path fill="none" stroke="#19344F" stroke-width="2.5" stroke-linecap="round" stroke-linejoin="round" d="M549.7 167.4q16.6 1.6 26.9 12.6 5.2 5.5 7 10.8l1.1-.3q1.4-.1 2.8.1 4.3 1 6.1 6.7 6.1 18.1 8.4 31.1 4.6 26.6-3.5 39-8 12.3-18.9 14-3.4.6-6.7 0l-2.6-.7m-20.6-113.2q-22.5-2.2-39.4 9-20.1 13.3-26.7 42.7-7 31 .9 47.3 7.5 15.6 27.5 15.6"/><path fill="#EAB091" stroke="#19344F" stroke-width="2.5" stroke-linecap="round" stroke-linejoin="round" d="M509 246.6q-4.1-3.4-9.3-3-5.2.5-8.6 4.5-3.4 4-2.9 9.3.5 5.2 4.5 8.6 4 3.3 9.3 2.9 5.2-.5 8.6-4.5 3.3-4 2.8-9.3-.4-5.2-4.4-8.5m79.8-.4q-4.1-3.4-9.3-3-5.2.6-8.6 4.6-3.4 4-2.9 9.2.5 5.2 4.5 8.6 4 3.4 9.3 2.9 5.2-.5 8.6-4.5 3.3-4 2.8-9.2-.4-5.2-4.4-8.6"/><path fill="#EAB091" stroke="#19344F" stroke-width="2.5" stroke-linecap="round" stroke-linejoin="round" d="M553.5 193.6q-8-1-12.3-.7l-10.4-.3q-16.1-2.2-26.8 9.3-10.4 11.1-9 27.6l4.2 25.1q1.5 16.3 14 26.8 12.5 10.4 28.8 9l5.4-.5q16.3-1.4 26.8-14t9-28.8l-.4-25.3q-1.1-12.8-9.3-20.3-7.8-7.3-20-8"/><path fill="none" stroke="#19344F" stroke-width="2.5" stroke-linecap="round" stroke-linejoin="round" d="M516.7 229.2l.1 7.8m43.5-8.8l.1 7.8m-15.6 12.7q-2 2.4-5 2.6-3.1.3-5.5-1.7-2.3-2-2.6-5m13.1 4.1q2-2.4 1.7-5.5"/><path fill="#F8D68F" d="M531.7 182.5q-1.8.6-25.2 0l-18.3 45.1 2.9 2.8q3.8 2.8 8.5 3.9 14.8 3.4 32-12.7 17.3-16.2 29.4-23.3 6-3.6 8.6-3.9l20.3 5.2-4.2-1.8q-19.2-8.6-28.1-11.4-3.3-1-4.1-.9l-10.2-1.7q-10.5-1.7-11.6-1.3"/><path fill="none" stroke="#19344F" stroke-width="2.5" stroke-linecap="round" stroke-linejoin="round" d="M520.1 230q-6.4 3.8-13.9 4.2-7 .4-14.4-2.1m28.3-2q3-1.7 12.7-10.8 11.3-10.6 17.4-15.2 23-17.4 32.3-1.5"/><path fill="#B69A8B" d="M214.5 123l-6.7-1.4q-24.8-4.9-38.4 8-4.3 4-6.9 9.3l-1.8 4.5h-12.4l8.7 7.2q-9.6 13.9-5.2 29.8 2.1 8 6.2 13.1l87.6-3.1q4.3-8.8 5.3-13.3 2.1-9.8-2.3-18.6l8.7 3q-4.4-21.8-27.4-33-7.2-3.5-15.4-5.5"/><path fill="none" stroke="#1A344F" stroke-width="2.5" stroke-linecap="round" stroke-linejoin="round" d="M207.8 121.6l6.7 1.4q8.2 2 15.4 5.5 23 11.3 27.4 33l-8.7-3q4.4 8.8 2.3 18.6-1 4.5-5.3 13.3m-37.8-68.8q-24.8-4.9-38.4 8-4.3 4-6.9 9.3l-1.8 4.5h-12.4l8.7 7.2q-9.6 13.9-5.2 29.8 2.1 8 6.2 13.1"/><path fill="#EAB091" stroke="#1A344F" stroke-width="2.5" stroke-linecap="round" stroke-linejoin="round" d="M171.1 202.4q-4-3.4-9.2-3-5.3.6-8.6 4.6-3.4 4-3 9.3.5 5.2 4.5 8.6 4 3.3 9.3 2.9 5.2-.5 8.6-4.5 3.4-4.1 2.9-9.3-.5-5.2-4.5-8.6m80-.4q-4.1-3.4-9.3-2.9-5.2.5-8.6 4.5-3.4 4-2.9 9.3.5 5.2 4.5 8.5 4 3.4 9.3 3 5.2-.5 8.6-4.5 3.4-4 2.9-9.3-.5-5.2-4.5-8.6"/><path fill="#EAB091" stroke="#1A344F" stroke-width="2.5" stroke-linecap="round" stroke-linejoin="round" d="M166.2 157.6q-10.5 11.2-9 27.8l4.2 25.1q1.4 16.3 14 26.8 12.6 10.4 28.8 9l5.5-.5q16.3-1.4 26.8-14 10.5-12.5 9-28.8l-.3-25.4q-1.4-15.2-13.5-21-10.2-5-28.4-3.3l-10.3-5q-16.1-2.1-26.8 9.3"/><path fill="#A0887A" d="M194.5 121.5q-10.5-.3-13.8 1.1l-1.2 7.5q-.5 9.3 2.7 18.6l5.7-.7q-.3-3.9.3-9.1 1.3-10.4 6.3-17.4"/><path fill="none" stroke="#1A344F" stroke-width="2.5" stroke-linecap="round" stroke-linejoin="round" d="M207.8 121.6l6.7 1.4q8.2 2 15.4 5.5 23 11.3 27.4 33l-8.7-3q4.4 8.8 2.3 18.6-1 4.5-5.3 13.3m-37.8-68.8q-24.8-4.9-38.4 8-4.3 4-6.9 9.3l-1.8 4.5h-12.4l8.7 7.2q-9.6 13.9-5.2 29.8 2.1 8 6.2 13.1"/><path fill="#DEC6BB" stroke="#1A344F" stroke-width="2.5" stroke-linecap="round" stroke-linejoin="round" d="M210.7 118.3l-4.4 1.6 4.1-6.6q-19.8 5.4-23.1 20.6-1.7 7.6.6 14.1 25.2 12.3 47.2 2.7 11-4.8 17-12l-4.7-1.8 5.7-5q-12.7-15.4-31.1-15.2-5.7 0-11.3 1.6"/><path fill="none" stroke="#1A344F" stroke-width="2.5" stroke-linecap="round" stroke-linejoin="round" d="M178.8 185l.2 7.8m43.5-8.7l.2 7.7m-26.1 13.6q-2.4-2-2.7-5m2.7 5q2.3 2 5.4 1.8 3.1-.3 5-2.6 2-2.4 1.8-5.5"/><path fill="#C8A896" d="M245.4 203.3l.2-.6h-.1l-.1.2v.3"/><path fill="#C8A896" d="M245.4 203.3l-3.2 7.4q-2.5 5.8-3 8.2-24.4-6.7-50.6-4-8.2.8-15.6 2.5l-5.7 1.5q-.5-2.4-3-8.2l-3.1-7.5q-.2 3.7-1.4 13.6-1.2 8.7-.7 14 .5 6.2 2.7 12.2 2.2 6.2 5.9 11.1 6.6 8.8 16.9 13.3 9.8 4.2 20.8 3.5 11.1-.5 20.5-6 9.9-5.6 15.4-15.4 6-10.7 6.4-22.2.2-4.4-1-12.2-1.2-8-1.3-11.8m-84.4-.6q0 .3.2.5v-.3q0-.2-.2-.3-.1 0 0 .2"/><path fill="none" stroke="#1A344F" stroke-width="2.5" stroke-linecap="round" stroke-linejoin="round" d="M245.6 202.8l-.1-.2-.1.3v.3l-3.2 7.6q-2.5 5.7-3 8.1-24.4-6.7-50.6-4-8.2.8-15.6 2.5l-5.7 1.5q-.5-2.4-3-8.2l-3.1-7.5v-.3q0-.2-.2-.3-.1 0 0 .2l.2.4q-.2 3.7-1.4 13.6-1.2 8.7-.7 14 .5 6.2 2.7 12.2 2.2 6.2 5.9 11.1 6.6 8.8 16.9 13.3 9.8 4.2 20.8 3.5 11.1-.5 20.5-6 9.9-5.6 15.4-15.4 6-10.7 6.4-22.2.2-4.4-1-12.2-1.2-8-1.3-11.8 0-.3.2-.5"/><path fill="none" stroke="#1A344F" stroke-width="2.5" stroke-linecap="round" stroke-linejoin="round" d="M193 225.6q2.7.8 5.5 1.3 9.2 1.4 17.2-2.1m-22.6.8l-2.1-.8"/><path fill="#B19685" d="M171.2 217.8l-4 1.1-4.4-11.8q-4.2 9.6-4 21.8.3 24.2 21.9 36.6 21.6 12.3 42.8.2 10.5-6 16.8-14.5-34.1 11.4-55-9.8-6.5-6.6-11-15.7l-3.1-7.8"/><path fill="none" stroke="#1A344F" stroke-width="2.5" stroke-linecap="round" stroke-linejoin="round" d="M161.2 202.8l-.2-.2q-.1 0 0 .2l.2.4q-.2 3.7-1.4 13.6-1.2 8.7-.7 14 .5 6.2 2.7 12.2 2.2 6.2 5.9 11.1 6.6 8.8 16.9 13.3 9.8 4.2 20.8 3.5 11.1-.5 20.5-6 9.9-5.6 15.4-15.4 6-10.7 6.4-22.2.2-4.4-1-12.2-1.2-8.1-1.3-11.9l.2-.4-.1-.1-.1.2v.3l-3.2 7.6q-2.5 5.7-3 8.1-24.4-6.7-50.6-4-8.2.8-15.6 2.5l-5.7 1.5q-.5-2.4-3-8.1l-3.1-7.6v-.3"/><use xlink:href="#c" transform="matrix(1 0 0 .169 541 269)"><animateTransform attributeName="transform" additive="replace" type="translate" dur="4.458s" keyTimes="0;1" values="0,0;0,0" fill="freeze"/><animateTransform attributeName="transform" additive="sum" type="translate" repeatCount="indefinite" dur="4.458s" keyTimes="0;0.009;0.019;0.028;0.037;0.047;0.056;0.065;0.075;0.084;0.093;0.103;0.112;0.122;0.131;0.14;0.15;0.224;0.234;0.243;0.252;0.262;0.271;0.28;0.29;0.299;0.542;0.551;0.561;0.569;0.57;1" values="541.05,269.346;541.05,269.604;541.05,269.828;541.05,270.135;541.05,270.401;541.05,270.65;541.05,270.204;541.05,269.809;541.05,269.346;541.05,269.604;541.05,269.828;541.05,270.135;541.05,270.401;541.05,270.65;541.05,270.204;541.05,269.809;541.05,269.346;541.05,269.346;541.05,269.604;541.05,269.828;541.05,270.135;541.05,270.401;541.05,270.65;541.05,270.204;541.05,269.809;541.05,269.346;541.05,269.346;541.05,269.604;541.05,269.828;541.05,270.135;0;0" calcMode="discrete"/><animateTransform attributeName="transform" additive="sum" type="translate" repeatCount="indefinite" dur="4.458s" keyTimes="0;0.57;0.579;0.589;0.598;0.608;0.617;0.626;0.636;0.645;0.654;0.664;0.673;0.682;0.692;0.701;0.71;0.72;0.729;0.738;0.748;0.757;0.766;0.776;0.785;0.794;0.804;0.813;0.822;0.831;0.832;1" values="0;541.05,270.135;541.05,270.401;541.05,270.65;541.05,270.204;541.05,269.809;541.05,269.346;541.05,269.346;541.05,269.604;541.05,269.828;541.05,270.135;541.05,270.401;541.05,270.65;541.05,270.204;541.05,269.809;541.05,269.346;541.05,269.346;541.05,269.604;541.05,269.828;541.05,270.135;541.05,270.401;541.05,270.65;541.05,270.204;541.05,269.809;541.05,269.346;541.05,269.604;541.05,269.828;541.05,270.135;541.05,270.401;541.05,270.65;0;0" calcMode="discrete"/><animateTransform attributeName="transform" additive="sum" type="translate" repeatCount="indefinite" dur="4.458s" keyTimes="0;0.832;0.841;0.851;0.86;1" values="0;541.05,270.65;541.05,270.204;541.05,269.809;541.05,269.346;541.05,269.346" calcMode="discrete"/><animateTransform attributeName="transform" additive="sum" type="scale" repeatCount="indefinite" dur="4.458s" keyTimes="0;0.009;0.019;0.028;0.037;0.047;0.056;0.065;0.075;0.084;0.093;0.103;0.112;0.122;0.131;0.14;0.15;0.224;0.234;0.243;0.252;0.262;0.271;0.28;0.29;0.299;0.542;0.551;0.561;0.569;0.57;1" values="1,0.169;1,0.335;1,0.501;1,0.668;1,0.834;1,1;1,0.723;1,0.446;1,0.169;1,0.335;1,0.501;1,0.668;1,0.834;1,1;1,0.723;1,0.446;1,0.169;1,0.169;1,0.335;1,0.501;1,0.668;1,0.834;1,1;1,0.723;1,0.446;1,0.169;1,0.169;1,0.335;1,0.501;1,0.668;1;1" calcMode="discrete"/><animateTransform attributeName="transform" additive="sum" type="scale" repeatCount="indefinite" dur="4.458s" keyTimes="0;0.57;0.579;0.589;0.598;0.608;0.617;0.626;0.636;0.645;0.654;0.664;0.673;0.682;0.692;0.701;0.71;0.72;0.729;0.738;0.748;0.757;0.766;0.776;0.785;0.794;0.804;0.813;0.822;0.831;0.832;1" values="1;1,0.668;1,0.834;1,1;1,0.723;1,0.446;1,0.169;1,0.169;1,0.335;1,0.501;1,0.668;1,0.834;1,1;1,0.723;1,0.446;1,0.169;1,0.169;1,0.335;1,0.501;1,0.668;1,0.834;1,1;1,0.723;1,0.446;1,0.169;1,0.335;1,0.501;1,0.668;1,0.834;1,1;1;1" calcMode="discrete"/><animateTransform attributeName="transform" additive="sum" type="scale" repeatCount="indefinite" dur="4.458s" keyTimes="0;0.832;0.841;0.851;0.86;1" values="1;1,1;1,0.723;1,0.446;1,0.169;1,0.169" calcMode="discrete"/><animateTransform attributeName="transform" additive="sum" type="translate" repeatCount="indefinite" dur="4.458s" keyTimes="0;0.009;0.019;0.028;0.037;0.047;0.056;0.065;0.075;0.084;0.093;0.103;0.112;0.122;0.131;0.14;0.15;0.224;0.234;0.243;0.252;0.262;0.271;0.28;0.29;0.299;0.542;0.551;0.561;0.569;0.57;1" values="0,-2.05;0,-1.95;0,-2.05;0,-2;0,-2.1;0,-2.1;0,-2.15;0,-2.15;0,-2.05;0,-1.95;0,-2.05;0,-2;0,-2.1;0,-2.1;0,-2.15;0,-2.15;0,-2.05;0,-2.05;0,-1.95;0,-2.05;0,-2;0,-2.1;0,-2.1;0,-2.15;0,-2.15;0,-2.05;0,-2.05;0,-1.95;0,-2.05;0,-2;0;0" calcMode="discrete"/><animateTransform attributeName="transform" additive="sum" type="translate" repeatCount="indefinite" dur="4.458s" keyTimes="0;0.57;0.579;0.589;0.598;0.608;0.617;0.626;0.636;0.645;0.654;0.664;0.673;0.682;0.692;0.701;0.71;0.72;0.729;0.738;0.748;0.757;0.766;0.776;0.785;0.794;0.804;0.813;0.822;0.831;0.832;1" values="0;0,-2;0,-2.1;0,-2.1;0,-2.15;0,-2.15;0,-2.05;0,-2.05;0,-1.95;0,-2.05;0,-2;0,-2.1;0,-2.1;0,-2.15;0,-2.15;0,-2.05;0,-2.05;0,-1.95;0,-2.05;0,-2;0,-2.1;0,-2.1;0,-2.15;0,-2.15;0,-2.05;0,-1.95;0,-2.05;0,-2;0,-2.1;0,-2.1;0;0" calcMode="discrete"/><animateTransform attributeName="transform" additive="sum" type="translate" repeatCount="indefinite" dur="4.458s" keyTimes="0;0.832;0.841;0.851;0.86;1" values="0;0,-2.1;0,-2.15;0,-2.15;0,-2.05;0,-2.05" calcMode="discrete"/></use><use xlink:href="#d" transform="translate(541 268.9)"><animateTransform attributeName="transform" additive="replace" type="translate" dur="4.458s" keyTimes="0;1" values="0,0;0,0" fill="freeze"/><animateTransform attributeName="transform" additive="sum" type="translate" repeatCount="indefinite" dur="4.458s" keyTimes="0;0.009;0.019;0.028;0.037;0.047;0.056;0.065;0.075;0.084;0.093;0.103;0.112;0.122;0.131;0.14;0.15;0.224;0.234;0.243;0.252;0.262;0.271;0.28;0.29;0.299;0.542;0.551;0.561;0.569;0.57;1" values="541.05,270.1;541.05,270;541.05,269.85;541.05,269.8;541.05,269.6;541.05,269.5;541.05,269.717;541.05,269.926;541.05,270.1;541.05,270;541.05,269.85;541.05,269.8;541.05,269.6;541.05,269.5;541.05,269.717;541.05,269.926;541.05,270.1;541.05,270.1;541.05,270;541.05,269.85;541.05,269.8;541.05,269.6;541.05,269.5;541.05,269.717;541.05,269.926;541.05,270.1;541.05,270.1;541.05,270;541.05,269.85;541.05,269.8;0;0" calcMode="discrete"/><animateTransform attributeName="transform" additive="sum" type="translate" repeatCount="indefinite" dur="4.458s" keyTimes="0;0.57;0.579;0.589;0.598;0.608;0.617;0.626;0.636;0.645;0.654;0.664;0.673;0.682;0.692;0.701;0.71;0.72;0.729;0.738;0.748;0.757;0.766;0.776;0.785;0.794;0.804;0.813;0.822;0.831;0.832;1" values="0;541.05,269.8;541.05,269.6;541.05,269.5;541.05,269.717;541.05,269.926;541.05,270.1;541.05,270.1;541.05,270;541.05,269.85;541.05,269.8;541.05,269.6;541.05,269.5;541.05,269.717;541.05,269.926;541.05,270.1;541.05,270.1;541.05,270;541.05,269.85;541.05,269.8;541.05,269.6;541.05,269.5;541.05,269.717;541.05,269.926;541.05,270.1;541.05,270;541.05,269.85;541.05,269.8;541.05,269.6;541.05,269.5;0;0" calcMode="discrete"/><animateTransform attributeName="transform" additive="sum" type="translate" repeatCount="indefinite" dur="4.458s" keyTimes="0;0.832;0.841;0.851;0.86;1" values="0;541.05,269.5;541.05,269.717;541.05,269.926;541.05,270.1;541.05,270.1" calcMode="discrete"/><animateTransform attributeName="transform" additive="sum" type="scale" repeatCount="indefinite" dur="4.458s" keyTimes="0;0.009;0.019;0.028;0.037;0.047;0.056;0.065;0.075;0.084;0.093;0.103;0.112;0.122;0.131;0.14;0.15;0.224;0.234;0.243;0.252;0.262;0.271;0.28;0.29;0.299;0.542;0.551;0.561;0.569;0.57;1" values="1,1;1,0.917;1,0.833;1,0.75;1,0.667;1,0.583;1,0.722;1,0.861;1,1;1,0.917;1,0.833;1,0.75;1,0.667;1,0.583;1,0.722;1,0.861;1,1;1,1;1,0.917;1,0.833;1,0.75;1,0.667;1,0.583;1,0.722;1,0.861;1,1;1,1;1,0.917;1,0.833;1,0.75;1;1" calcMode="discrete"/><animateTransform attributeName="transform" additive="sum" type="scale" repeatCount="indefinite" dur="4.458s" keyTimes="0;0.57;0.579;0.589;0.598;0.608;0.617;0.626;0.636;0.645;0.654;0.664;0.673;0.682;0.692;0.701;0.71;0.72;0.729;0.738;0.748;0.757;0.766;0.776;0.785;0.794;0.804;0.813;0.822;0.831;0.832;1" values="1;1,0.75;1,0.667;1,0.583;1,0.722;1,0.861;1,1;1,1;1,0.917;1,0.833;1,0.75;1,0.667;1,0.583;1,0.722;1,0.861;1,1;1,1;1,0.917;1,0.833;1,0.75;1,0.667;1,0.583;1,0.722;1,0.861;1,1;1,0.917;1,0.833;1,0.75;1,0.667;1,0.583;1;1" calcMode="discrete"/><animateTransform attributeName="transform" additive="sum" type="scale" repeatCount="indefinite" dur="4.458s" keyTimes="0;0.832;0.841;0.851;0.86;1" values="1;1,0.583;1,0.722;1,0.861;1,1;1,1" calcMode="discrete"/><animateTransform attributeName="transform" additive="sum" type="translate" repeatCount="indefinite" dur="4.458s" keyTimes="0;0.056;0.065;0.075;0.131;0.14;0.15;0.28;0.29;0.299;0.569;0.57;1" values="0,-1.2;0,-1.2;0,-1.25;0,-1.2;0,-1.2;0,-1.25;0,-1.2;0,-1.2;0,-1.25;0,-1.2;0,-1.2;0;0" calcMode="discrete"/><animateTransform attributeName="transform" additive="sum" type="translate" repeatCount="indefinite" dur="4.458s" keyTimes="0;0.57;0.598;0.608;0.617;0.682;0.692;0.701;0.766;0.776;0.785;0.831;0.832;1" values="0;0,-1.2;0,-1.2;0,-1.25;0,-1.2;0,-1.2;0,-1.25;0,-1.2;0,-1.2;0,-1.25;0,-1.2;0,-1.2;0;0" calcMode="discrete"/><animateTransform attributeName="transform" additive="sum" type="translate" repeatCount="indefinite" dur="4.458s" keyTimes="0;0.832;0.841;0.851;0.86;1" values="0;0,-1.2;0,-1.2;0,-1.25;0,-1.2;0,-1.2" calcMode="discrete"/></use><g display="none"><path fill="#1A344F" d="M135.3 91.7V74.3h-4v17.4h4m14.8-14.3v-3.1h-13.2v3.1h4.6v14.3h4V77.4h4.6m4.6.4v-3.5h-3.5v6.9h2.3l1.2-3.4m15 1.7v-.1q.2-2.5-1.7-4-2-1.4-4.8-1.4t-4.6 1.4q-1.8 1.3-1.8 3.5t1.5 3.4q1.6 1.2 4.8 2.3 1.7.6 2.2 1 .6.6.6 1.5 0 .8-.6 1.3-.5.5-1.9.5-1.6 0-2.2-.7-.8-.6-.8-2.1h-4v.1q0 3 2 4.3 2 1.4 5 1.4 2.9 0 4.8-1.3 1.8-1.2 1.8-3.6 0-2.2-1.6-3.5-1.5-1.3-4.5-2.2-1.7-.6-2.5-1.1-.6-.5-.6-1.3t.6-1.3q.7-.5 1.7-.5 1.4 0 2 .5.7.6.7 1.8h3.9m23 5.1v-3q0-3.2-2-5.3-2.1-2.1-5.4-2.1-3.2 0-5.3 2-2.1 2.2-2.1 5.4v3q0 3.2 2 5.3 2.2 2.1 5.5 2.1 1 0 1.8-.2.9-.2 1.7-.6l2.5 2.5 2.6-2-2.6-2.6 1-2q.3-1.4.3-2.5m-4 0q0 1.9-.9 3.1-.9 1.2-2.4 1.2-1.7 0-2.6-1.2-.8-1.2-.8-3v-3.2q0-1.8.8-3 .9-1.2 2.5-1.2t2.5 1.2q.9 1.2.9 3v3.1m21-10.2h-4v11.3q0 1.6-.8 2.4-.8.8-2.3.8-1.4 0-2.3-.8-.8-.8-.8-2.4V74.3h-4.1v11.3q0 3 2 4.7 2 1.7 5.2 1.7 3.3 0 5.2-1.7 2-1.7 2-4.7V74.3m6.9 17.4V74.3h-4v17.4h4m14.8-14.3v-3.1h-13.2v3.1h4.6v14.3h4V77.4h4.6m1.6-3.1v17.4h11.4v-3.1h-7.3v-4.3h6v-3.1h-6v-3.8h7.3v-3.1h-11.4m28.4 0h-4.3l-5.7 17.4h4.3l1-3.4h5.2l1 3.4h4.2l-5.7-17.4m-2.2 5.5l1.7 5.4h-3.3l1.6-5.4m15.2-5.5v17.4h4V85h2.2q1.3 0 2 .7.6.6.6 1.9l.2 2.8q.1 1 .6 1.3h4.2v-.3q-.6-.4-.8-1.2l-.2-1.6v-1q0-1.6-.7-2.6-.7-1.1-2.3-1.6 1.5-.6 2.1-1.6.8-.9.8-2.2 0-2.4-1.8-3.9-1.8-1.4-4.8-1.4h-6.1m8.6 5.5q0 1-.6 1.6-.6.6-1.9.6h-2v-4.6h2q1.1 0 1.9.7.6.6.6 1.7m16.1 8.5l1 3.4h4.3l-5.7-17.4h-4.3l-5.7 17.4h4.3l1-3.4h5.1m-2.5-8.5l1.6 5.4H295l1.6-5.4m13.2 8.8V74.3h-4.1v17.4h11.5v-3.1h-7.4m13.6 0V74.3h-4v17.4h11.5v-3.1h-7.5m12.7-6.7l-3.5-7.6h-4.3l5.8 11.1v6.3h4v-6.1l5.9-11.3h-4.4l-3.4 7.6h-.1m19.3 9.8v-7h6.4v-3.1h-6.4v-4.2h7.6v-3.1h-11.6v17.4h4m24-7.2v-3q0-3.3-2-5.3-2-2.1-5.3-2.1t-5.3 2q-2.1 2.2-2.1 5.4v3q0 3.2 2 5.3 2.2 2.1 5.4 2.1 3.4 0 5.4-2 2-2.1 2-5.4m-4 0q0 1.9-.9 3.1-.9 1.2-2.5 1.2t-2.5-1.2q-.8-1.1-.8-3v-3.2q0-1.9.8-3 .9-1.2 2.5-1.2t2.5 1.2q.9 1.2.9 3v3.1m19-5q0-2.4-1.7-3.8-1.8-1.4-4.8-1.4h-6v17.4h4V85h2.2q1.2 0 1.9.7.6.6.6 1.9l.2 2.8q.1 1 .6 1.3h4.2v-.3q-.6-.4-.7-1.2l-.2-1.6v-1q0-1.5-.7-2.6-.8-1.1-2.3-1.6 1.4-.6 2-1.6.8-1 .8-2.2m-4.1.2q0 1-.6 1.6-.6.6-1.9.6h-2v-4.6h2q1.1 0 1.9.7.6.6.6 1.7m22-2q.7.6.7 1.9h3.8v-.1q0-2.5-1.7-4-1.6-1.5-5-1.5-3 0-5 2t-2 5.1v3.6q0 3.2 2 5.2t5.3 2q2.6 0 4.2-.8 1.7-.8 2.6-1.9v-6.9h-7.2v2.7h3.1v3.1q-.3.3-1 .5-.6.2-1.7.2-1.6 0-2.4-1.1-.9-1.2-.9-3v-3.6q0-1.8.9-2.9.9-1.1 2.2-1.1 1.4 0 2.1.6m19.4 7.2q-.7-1.1-2.3-1.6 1.4-.6 2-1.6.8-.8.8-2.2 0-2.4-1.8-3.9-1.8-1.4-4.8-1.4h-6v17.4h4v-6.6h2.2q1.3 0 1.9.6.7.8.7 1.9l.1 2.8q0 .9.6 1.3h4.2v-.2q-.5-.4-.7-1.3-.2-.7-.2-1.5v-1.1q0-1.5-.7-2.6m-3.5-5.2q0 1-.7 1.6-.6.6-1.8.6h-2.1v-4.6h2q1.2 0 1.9.7t.7 1.7m7-5.5v17.4h11.3v-3.1h-7.3v-4.3h6.1v-3.1h-6.1v-3.8h7.4v-3.1h-11.4m23.8 10v-3.1H453v-3.8h7.3v-3.1H449v17.4h11.4v-3.1H453v-4.3h6m18-10h-4v10.9l-6.4-10.9h-4v17.4h4V80.8l6.4 10.9h4V74.3m16 12.3q0-1.4-.7-2.5-.7-1-2.3-1.4 1.3-.5 1.8-1.4.6-1 .6-2.2 0-2.4-1.8-3.6-1.8-1.2-5.1-1.2h-5.7v17.4h6.6q3.2 0 4.9-1.3 1.7-1.4 1.7-3.9m-4 0q0 1.1-.6 1.6t-2 .5H484v-4.3h2.7q1.3 0 1.9.6.5.5.5 1.6m-5.1-9.1h1.6q1.4 0 2.1.5.7.5.7 1.6 0 1-.7 1.6-.7.5-2.2.5H484v-4.2m20.2-3.1h-4.3l-5.7 17.4h4.2l1-3.4h5.2l1 3.4h4.3l-5.7-17.4m-2.2 5.5l1.7 5.4h-3.3l1.6-5.4m8.7 1.4v3.6q0 3.2 1.9 5.2 2 2 5.2 2t4.9-1.6q1.7-1.5 1.7-4.5h-4.1q0 1.6-.5 2.3-.6.7-2 .7-1.5 0-2.3-1.1-.8-1.2-.8-3v-3.6q0-1.8.7-3 .8-1 2.1-1 1.5 0 2.2.7.7.7.7 2.3h4V80q0-2.9-1.8-4.5-1.7-1.5-5.1-1.5-3.1 0-5 2-1.8 1.9-1.8 5.1m24.7-6.9l-4 6.8h-.8v-6.8h-4v17.4h4v-7h1.1l4 7h5.2l-6-9.5 5.6-7.9h-5.1"/><animate attributeName="display" repeatCount="indefinite" dur="4.458s" keyTimes="0;0.308;0.542;1" values="none;inline;none;none"/></g><g display="none"><path fill="#1A344F" d="M135.3 91.7V74.3h-4v17.4h4m14.8-14.3v-3.1h-13.2v3.1h4.6v14.3h4V77.4h4.6m4.6.4v-3.5h-3.5v6.9h2.3l1.2-3.4m15 1.7v-.1q.2-2.5-1.7-4-2-1.4-4.8-1.4t-4.6 1.4q-1.8 1.3-1.8 3.5t1.5 3.4q1.6 1.2 4.8 2.3 1.7.6 2.2 1 .6.6.6 1.5 0 .8-.6 1.3-.5.5-1.9.5-1.6 0-2.2-.7-.8-.6-.8-2.1h-4v.1q0 3 2 4.3 2 1.4 5 1.4 2.9 0 4.8-1.3 1.8-1.2 1.8-3.6 0-2.2-1.6-3.5-1.5-1.3-4.5-2.2-1.7-.6-2.5-1.1-.6-.5-.6-1.3t.6-1.3q.7-.5 1.7-.5 1.4 0 2 .5.7.6.7 1.8h3.9m23 5.1v-3q0-3.2-2-5.3-2.1-2.1-5.4-2.1-3.2 0-5.3 2-2.1 2.2-2.1 5.4v3q0 3.2 2 5.3 2.2 2.1 5.5 2.1 1 0 1.8-.2.9-.2 1.7-.6l2.5 2.5 2.6-2-2.6-2.6 1-2q.3-1.4.3-2.5m-4 0q0 1.9-.9 3.1-.9 1.2-2.4 1.2-1.7 0-2.6-1.2-.8-1.2-.8-3v-3.2q0-1.8.8-3 .9-1.2 2.5-1.2t2.5 1.2q.9 1.2.9 3v3.1m21-10.2h-4v11.3q0 1.6-.8 2.4-.8.8-2.3.8-1.4 0-2.3-.8-.8-.8-.8-2.4V74.3h-4.1v11.3q0 3 2 4.7 2 1.7 5.2 1.7 3.3 0 5.2-1.7 2-1.7 2-4.7V74.3m6.9 17.4V74.3h-4v17.4h4m14.8-14.3v-3.1h-13.2v3.1h4.6v14.3h4V77.4h4.6m1.6-3.1v17.4h11.4v-3.1h-7.3v-4.3h6v-3.1h-6v-3.8h7.3v-3.1h-11.4m28.4 0h-4.3l-5.7 17.4h4.3l1-3.4h5.2l1 3.4h4.2l-5.7-17.4m-2.2 5.5l1.7 5.4h-3.3l1.6-5.4m15.2-5.5v17.4h4V85h2.2q1.3 0 2 .7.6.6.6 1.9l.2 2.8q.1 1 .6 1.3h4.2v-.3q-.6-.4-.8-1.2l-.2-1.6v-1q0-1.6-.7-2.6-.7-1.1-2.3-1.6 1.5-.6 2.1-1.6.8-.9.8-2.2 0-2.4-1.8-3.9-1.8-1.4-4.8-1.4h-6.1m8.6 5.5q0 1-.6 1.6-.6.6-1.9.6h-2v-4.6h2q1.1 0 1.9.7.6.6.6 1.7m16.1 8.5l1 3.4h4.3l-5.7-17.4h-4.3l-5.7 17.4h4.3l1-3.4h5.1m-2.5-8.5l1.6 5.4H295l1.6-5.4m13.2 8.8V74.3h-4.1v17.4h11.5v-3.1h-7.4m13.6 0V74.3h-4v17.4h11.5v-3.1h-7.5m12.7-6.7l-3.5-7.6h-4.3l5.8 11.1v6.3h4v-6.1l5.9-11.3h-4.4l-3.4 7.6h-.1m19.3 9.8v-7h6.4v-3.1h-6.4v-4.2h7.6v-3.1h-11.6v17.4h4m24-7.2v-3q0-3.3-2-5.3-2-2.1-5.3-2.1t-5.3 2q-2.1 2.2-2.1 5.4v3q0 3.2 2 5.3 2.2 2.1 5.4 2.1 3.4 0 5.4-2 2-2.1 2-5.4m-4 0q0 1.9-.9 3.1-.9 1.2-2.5 1.2t-2.5-1.2q-.8-1.1-.8-3v-3.2q0-1.9.8-3 .9-1.2 2.5-1.2t2.5 1.2q.9 1.2.9 3v3.1m19-5q0-2.4-1.7-3.8-1.8-1.4-4.8-1.4h-6v17.4h4V85h2.2q1.2 0 1.9.7.6.6.6 1.9l.2 2.8q.1 1 .6 1.3h4.2v-.3q-.6-.4-.7-1.2l-.2-1.6v-1q0-1.5-.7-2.6-.8-1.1-2.3-1.6 1.4-.6 2-1.6.8-1 .8-2.2m-4.1.2q0 1-.6 1.6-.6.6-1.9.6h-2v-4.6h2q1.1 0 1.9.7.6.6.6 1.7"/><animate attributeName="display" repeatCount="indefinite" dur="4.458s" keyTimes="0;0.243;0.308;1" values="none;inline;none;none"/></g><g display="none"><path fill="#1A344F" d="M135.3 91.7V74.3h-4v17.4h4m14.8-14.3v-3.1h-13.2v3.1h4.6v14.3h4V77.4h4.6m4.6.4v-3.5h-3.5v6.9h2.3l1.2-3.4m15 1.7v-.1q.2-2.5-1.7-4-2-1.4-4.8-1.4t-4.6 1.4q-1.8 1.3-1.8 3.5t1.5 3.4q1.6 1.2 4.8 2.3 1.7.6 2.2 1 .6.6.6 1.5 0 .8-.6 1.3-.5.5-1.9.5-1.6 0-2.2-.7-.8-.6-.8-2.1h-4v.1q0 3 2 4.3 2 1.4 5 1.4 2.9 0 4.8-1.3 1.8-1.2 1.8-3.6 0-2.2-1.6-3.5-1.5-1.3-4.5-2.2-1.7-.6-2.5-1.1-.6-.5-.6-1.3t.6-1.3q.7-.5 1.7-.5 1.4 0 2 .5.7.6.7 1.8h3.9m23 5.1v-3q0-3.2-2-5.3-2.1-2.1-5.4-2.1-3.2 0-5.3 2-2.1 2.2-2.1 5.4v3q0 3.2 2 5.3 2.2 2.1 5.5 2.1 1 0 1.8-.2.9-.2 1.7-.6l2.5 2.5 2.6-2-2.6-2.6 1-2q.3-1.4.3-2.5m-4 0q0 1.9-.9 3.1-.9 1.2-2.4 1.2-1.7 0-2.6-1.2-.8-1.2-.8-3v-3.2q0-1.8.8-3 .9-1.2 2.5-1.2t2.5 1.2q.9 1.2.9 3v3.1m21-10.2h-4v11.3q0 1.6-.8 2.4-.8.8-2.3.8-1.4 0-2.3-.8-.8-.8-.8-2.4V74.3h-4.1v11.3q0 3 2 4.7 2 1.7 5.2 1.7 3.3 0 5.2-1.7 2-1.7 2-4.7V74.3m6.9 17.4V74.3h-4v17.4h4m14.8-14.3v-3.1h-13.2v3.1h4.6v14.3h4V77.4h4.6m1.6-3.1v17.4h11.4v-3.1h-7.3v-4.3h6v-3.1h-6v-3.8h7.3v-3.1h-11.4m28.4 0h-4.3l-5.7 17.4h4.3l1-3.4h5.2l1 3.4h4.2l-5.7-17.4m-2.2 5.5l1.7 5.4h-3.3l1.6-5.4m15.2-5.5v17.4h4V85h2.2q1.3 0 2 .7.6.6.6 1.9l.2 2.8q.1 1 .6 1.3h4.2v-.3q-.6-.4-.8-1.2l-.2-1.6v-1q0-1.6-.7-2.6-.7-1.1-2.3-1.6 1.5-.6 2.1-1.6.8-.9.8-2.2 0-2.4-1.8-3.9-1.8-1.4-4.8-1.4h-6.1m8.6 5.5q0 1-.6 1.6-.6.6-1.9.6h-2v-4.6h2q1.1 0 1.9.7.6.6.6 1.7m16.1 8.5l1 3.4h4.3l-5.7-17.4h-4.3l-5.7 17.4h4.3l1-3.4h5.1m-2.5-8.5l1.6 5.4H295l1.6-5.4m13.2 8.8V74.3h-4.1v17.4h11.5v-3.1h-7.4m13.6 0V74.3h-4v17.4h11.5v-3.1h-7.5m12.7-6.7l-3.5-7.6h-4.3l5.8 11.1v6.3h4v-6.1l5.9-11.3h-4.4l-3.4 7.6h-.1"/><animate attributeName="display" repeatCount="indefinite" dur="4.458s" keyTimes="0;0.196;0.243;1" values="none;inline;none;none"/></g><g display="none"><path fill="#1A344F" d="M135.3 91.7V74.3h-4v17.4h4m14.8-14.3v-3.1h-13.2v3.1h4.6v14.3h4V77.4h4.6m4.6.4v-3.5h-3.5v6.9h2.3l1.2-3.4m15 1.7v-.1q.2-2.5-1.7-4-2-1.4-4.8-1.4t-4.6 1.4q-1.8 1.3-1.8 3.5t1.5 3.4q1.6 1.2 4.8 2.3 1.7.6 2.2 1 .6.6.6 1.5 0 .8-.6 1.3-.5.5-1.9.5-1.6 0-2.2-.7-.8-.6-.8-2.1h-4v.1q0 3 2 4.3 2 1.4 5 1.4 2.9 0 4.8-1.3 1.8-1.2 1.8-3.6 0-2.2-1.6-3.5-1.5-1.3-4.5-2.2-1.7-.6-2.5-1.1-.6-.5-.6-1.3t.6-1.3q.7-.5 1.7-.5 1.4 0 2 .5.7.6.7 1.8h3.9m23 5.1v-3q0-3.2-2-5.3-2.1-2.1-5.4-2.1-3.2 0-5.3 2-2.1 2.2-2.1 5.4v3q0 3.2 2 5.3 2.2 2.1 5.5 2.1 1 0 1.8-.2.9-.2 1.7-.6l2.5 2.5 2.6-2-2.6-2.6 1-2q.3-1.4.3-2.5m-4 0q0 1.9-.9 3.1-.9 1.2-2.4 1.2-1.7 0-2.6-1.2-.8-1.2-.8-3v-3.2q0-1.8.8-3 .9-1.2 2.5-1.2t2.5 1.2q.9 1.2.9 3v3.1m21-10.2h-4v11.3q0 1.6-.8 2.4-.8.8-2.3.8-1.4 0-2.3-.8-.8-.8-.8-2.4V74.3h-4.1v11.3q0 3 2 4.7 2 1.7 5.2 1.7 3.3 0 5.2-1.7 2-1.7 2-4.7V74.3m6.9 17.4V74.3h-4v17.4h4m14.8-14.3v-3.1h-13.2v3.1h4.6v14.3h4V77.4h4.6m1.6-3.1v17.4h11.4v-3.1h-7.3v-4.3h6v-3.1h-6v-3.8h7.3v-3.1h-11.4m28.4 0h-4.3l-5.7 17.4h4.3l1-3.4h5.2l1 3.4h4.2l-5.7-17.4m-2.2 5.5l1.7 5.4h-3.3l1.6-5.4"/><animate attributeName="display" repeatCount="indefinite" dur="4.458s" keyTimes="0;0.15;0.196;1" values="none;inline;none;none"/></g><g display="none"><path fill="#1A344F" d="M135.3 91.7V74.3h-4v17.4h4m14.8-14.3v-3.1h-13.2v3.1h4.6v14.3h4V77.4h4.6m4.6.4v-3.5h-3.5v6.9h2.3l1.2-3.4m15 1.7v-.1q.2-2.5-1.7-4-2-1.4-4.8-1.4t-4.6 1.4q-1.8 1.3-1.8 3.5t1.5 3.4q1.6 1.2 4.8 2.3 1.7.6 2.2 1 .6.6.6 1.5 0 .8-.6 1.3-.5.5-1.9.5-1.6 0-2.2-.7-.8-.6-.8-2.1h-4v.1q0 3 2 4.3 2 1.4 5 1.4 2.9 0 4.8-1.3 1.8-1.2 1.8-3.6 0-2.2-1.6-3.5-1.5-1.3-4.5-2.2-1.7-.6-2.5-1.1-.6-.5-.6-1.3t.6-1.3q.7-.5 1.7-.5 1.4 0 2 .5.7.6.7 1.8h3.9m23 5.1v-3q0-3.2-2-5.3-2.1-2.1-5.4-2.1-3.2 0-5.3 2-2.1 2.2-2.1 5.4v3q0 3.2 2 5.3 2.2 2.1 5.5 2.1 1 0 1.8-.2.9-.2 1.7-.6l2.5 2.5 2.6-2-2.6-2.6 1-2q.3-1.4.3-2.5m-4 0q0 1.9-.9 3.1-.9 1.2-2.4 1.2-1.7 0-2.6-1.2-.8-1.2-.8-3v-3.2q0-1.8.8-3 .9-1.2 2.5-1.2t2.5 1.2q.9 1.2.9 3v3.1m21-10.2h-4v11.3q0 1.6-.8 2.4-.8.8-2.3.8-1.4 0-2.3-.8-.8-.8-.8-2.4V74.3h-4.1v11.3q0 3 2 4.7 2 1.7 5.2 1.7 3.3 0 5.2-1.7 2-1.7 2-4.7V74.3m6.9 17.4V74.3h-4v17.4h4m14.8-14.3v-3.1h-13.2v3.1h4.6v14.3h4V77.4h4.6m1.6-3.1v17.4h11.4v-3.1h-7.3v-4.3h6v-3.1h-6v-3.8h7.3v-3.1h-11.4"/><animate attributeName="display" repeatCount="indefinite" dur="4.458s" keyTimes="0;0.103;0.15;1" values="none;inline;none;none"/></g><g display="none"><path fill="#1A344F" d="M135.3 91.7V74.3h-4v17.4h4m14.8-14.3v-3.1h-13.2v3.1h4.6v14.3h4V77.4h4.6m4.6.4v-3.5h-3.5v6.9h2.3l1.2-3.4m15 1.7v-.1q.2-2.5-1.7-4-2-1.4-4.8-1.4t-4.6 1.4q-1.8 1.3-1.8 3.5t1.5 3.4q1.6 1.2 4.8 2.3 1.7.6 2.2 1 .6.6.6 1.5 0 .8-.6 1.3-.5.5-1.9.5-1.6 0-2.2-.7-.8-.6-.8-2.1h-4v.1q0 3 2 4.3 2 1.4 5 1.4 2.9 0 4.8-1.3 1.8-1.2 1.8-3.6 0-2.2-1.6-3.5-1.5-1.3-4.5-2.2-1.7-.6-2.5-1.1-.6-.5-.6-1.3t.6-1.3q.7-.5 1.7-.5 1.4 0 2 .5.7.6.7 1.8h3.9"/><animate attributeName="display" repeatCount="indefinite" dur="4.458s" keyTimes="0;0.056;0.103;1" values="none;inline;none;none"/></g><g display="none"><path fill="#1A344F" d="M146.2 88.1V74.3h-3.9v16.8h11.2v-3h-7.3m23-3.9v-3q0-3.1-2-5.1-2-2-5.1-2-3.2 0-5.2 2t-2 5.1v3q0 3 2 5.2 2.1 2 5.2 2 3 0 5.2-2 1.9-2 1.9-5.2m-3.9 0q0 1.9-.8 3t-2.4 1.1q-1.6 0-2.4-1.1-.9-1.3-.9-3v-3q0-1.8.9-3 .8-1.1 2.4-1.1 1.5 0 2.4 1.1.8 1.3.8 3v3M178.4 74q-3.1 0-5.1 2.1-2 2-2 5.1v3q0 3.1 2 5.1 2 2 5.1 2 3.2 0 5.2-2t2-5.1v-3q0-3.1-2-5.1-2.1-2-5.2-2m0 3q1.6 0 2.4 1.1.9 1.3.9 3v3q0 1.8-.9 3-.8 1.1-2.4 1.1-1.5 0-2.4-1.1-.8-1.3-.8-3v-3q0-1.8.8-3 .9-1.1 2.4-1.1m19.7-2.8v10.6h-.1l-6.2-10.6h-3.9v16.8h3.9V80.6h.1l6.2 10.5h3.8V74.3h-3.8m10.6 16.8V74.3h-3.8v16.8h3.8m12.8-7.2v-3h-6v-3.6h7.2v-3h-11v16.8h11v-3h-7.1v-4.2h5.9m17.6-9.6h-4.2l-5.4 16.8h4l1-3.3h5l1 3.3h4.1l-5.5-16.8m-3.7 10.6l1.6-5.3 1.6 5.3h-3.2M256 74.3h-3l-2.8 10.9-2.1-10.9h-4l3.9 16.8h3.7l2.8-10.3 2.9 10.3h3.7l3.8-16.8h-4l-2 10.9-2.9-10.9m18.3 0h-4.2l-5.5 16.8h4.2l.9-3.3h5l1 3.3h4.1l-5.5-16.8m-3.7 10.6l1.6-5.3 1.6 5.3h-3.2m14.5 6.2V74.3h-3.8v16.8h3.8m14.3-13.8v-3h-12.7v3h4.4v13.8h3.9V77.3h4.4m7.4-.3q1.2 0 1.9.6.7.5.7 1.7h3.7v-.1q.1-2.4-1.6-3.8-1.7-1.4-4.7-1.4-2.7 0-4.4 1.4-1.8 1.3-1.8 3.4t1.5 3.3q1.5 1.1 4.7 2.2 1.4.5 2 1 .7.5.7 1.4 0 .8-.6 1.2-.6.5-1.8.5-1.5 0-2.3-.6-.7-.7-.7-2.1h-3.8q0 3 1.9 4.3t4.9 1.4q2.7 0 4.5-1.3 1.8-1.3 1.8-3.5 0-2.1-1.5-3.4-1.7-1.3-4.4-2.1-1.9-.7-2.4-1.1-.6-.4-.6-1.2t.6-1.3q.5-.5 1.7-.5m24.4 6.9v-3h-6v-3.6h7.2v-3h-11v16.8h11v-3h-7.1v-4.2h5.9m7.3 4.2V74.3h-4v16.8h11.2v-3h-7.2m19-4.2v-3h-5.8v-3.6h7v-3h-11v16.8h11v-3h-7v-4.2h5.9m7.7 3.4q-.8-1.2-.8-2.9V81q0-1.7.7-2.8.8-1 2-1 1.5 0 2.2.7.7.6.7 2.2h3.8v-.1q0-2.8-1.7-4.3-1.8-1.5-5-1.5-2.9 0-4.7 1.9-1.9 2-1.9 5v3.5q0 3 1.9 5 1.9 1.9 5 1.9 3 0 4.8-1.5 1.7-1.5 1.6-4.4H370q0 1.6-.6 2.2-.6.7-2 .7t-2.2-1.1m22-10v-3h-12.6v3h4.4v13.8h3.8V77.3h4.5m5.7 13.8V74.3h-3.9v16.8h3.9m16.9-6.9v-3q0-3.1-2-5.1-2-2-5.1-2-3.2 0-5.2 2t-2 5.1v3q0 3.1 2 5.2 2 2 5.2 2 3.1 0 5.1-2 2-2 2-5.2m-4 0q0 1.9-.7 3-1 1.1-2.4 1.1-1.6 0-2.5-1.1-.8-1.3-.8-3v-3q0-1.8.8-3 .9-1.1 2.5-1.1 1.5 0 2.3 1.1.9 1.1.9 3v3m20.3 6.9V74.3h-4v10.6l-6.1-10.6h-4v16.8h4V80.6l6.2 10.5h3.9m22.3-16.8h-4.1L441 87.1l-.1-.6-3.3-12.2h-4.1l5.4 16.8h4.2l5.5-16.8m11.1 9.6v-3h-5.9v-3.6h7.1v-3h-11v16.8h11v-3h-7.1v-4.2h5.9m11.2 1.4q.7.6.7 1.9l.1 2.6q.2.9.6 1.3h4v-.3q-.5-.3-.6-1.2-.2-.7-.2-1.5v-1q0-1.4-.7-2.5-.7-1-2.2-1.5 1.3-.6 2-1.5t.7-2.3q0-2.3-1.7-3.7t-4.7-1.3h-5.8v16.8h3.9v-6.5h2q1.3 0 1.9.7m-.1-7.3q.6.6.6 1.6t-.6 1.5q-.6.6-1.8.6h-2v-4.4h1.9q1.2 0 1.9.7m20.5 6.2v-3q0-3.1-2-5t-5-1.9h-6.1v16.8h6.1q3 0 5-2 2-1.8 2-4.9m-4.8 2.8q-.9 1.1-2.2 1.1h-2.2V77.3h2.2q1.3 0 2.2 1.1.9 1.1.9 2.7v3.1q0 1.7-.9 2.8m11.2 4.1V74.3h-3.9v16.8h3.9m4.5-15.1q-1.9 1.9-1.9 5v3.5q0 3 1.9 5 1.9 1.9 5 1.9 3 0 4.8-1.5 1.7-1.5 1.6-4.4h-3.8q0 1.6-.6 2.2-.6.7-2 .7t-2.2-1.1q-.8-1.1-.8-2.8v-3.6q0-1.7.7-2.8.8-1 2-1 1.5 0 2.2.7.7.6.7 2.2h3.8v-.1q0-2.8-1.7-4.3-1.8-1.5-5-1.5-2.9 0-4.7 1.9m24.9 1.3v-3h-12.7v3h4.3v13.8h3.9V77.3h4.5"/><animate attributeName="display" repeatCount="indefinite" dur="4.458s" keyTimes="0;0.822;1" values="none;inline;inline"/></g><g display="none"><path fill="#1A344F" d="M146.2 88.1V74.3h-3.9v16.8h11.2v-3h-7.3m23-3.9v-3q0-3.1-2-5.1-2-2-5.1-2-3.2 0-5.2 2t-2 5.1v3q0 3 2 5.2 2.1 2 5.2 2 3 0 5.2-2 1.9-2 1.9-5.2m-3.9 0q0 1.9-.8 3t-2.4 1.1q-1.6 0-2.4-1.1-.9-1.3-.9-3v-3q0-1.8.9-3 .8-1.1 2.4-1.1 1.5 0 2.4 1.1.8 1.3.8 3v3m8-8.1q-2 2-2 5.1v3q0 3.1 2 5.1 2 2 5.1 2 3.2 0 5.2-2t2-5.1v-3q0-3.1-2-5.1-2.1-2-5.2-2t-5.1 2m5.1 1q1.6 0 2.4 1.1.9 1.3.9 3v3q0 1.8-.9 3-.8 1.1-2.4 1.1-1.5 0-2.4-1.1-.8-1.3-.8-3v-3q0-1.8.8-3 .9-1.1 2.4-1.1m19.7-2.8v10.6h-.1l-6.2-10.6h-3.9v16.8h3.9V80.6h.1l6.2 10.5h3.8V74.3h-3.8m10.6 16.8V74.3h-3.8v16.8h3.8m12.8-7.2v-3h-6v-3.6h7.2v-3h-11v16.8h11v-3h-7.1v-4.2h5.9m17.6-9.6h-4.2l-5.4 16.8h4l1-3.3h5l1 3.3h4.1l-5.5-16.8m-3.7 10.6l1.6-5.3 1.6 5.3h-3.2M256 74.3h-3l-2.8 10.9-2.1-10.9h-4l3.9 16.8h3.7l2.8-10.3 2.9 10.3h3.7l3.8-16.8h-4l-2 10.9-2.9-10.9m18.3 0h-4.2l-5.5 16.8h4.2l.9-3.3h5l1 3.3h4.1l-5.5-16.8m-3.7 10.6l1.6-5.3 1.6 5.3h-3.2m14.5 6.2V74.3h-3.8v16.8h3.8m14.3-13.8v-3h-12.7v3h4.4v13.8h3.9V77.3h4.4m9.3.3q.7.5.7 1.7h3.7v-.1q.1-2.4-1.6-3.8-1.7-1.4-4.7-1.4-2.7 0-4.4 1.4-1.8 1.3-1.8 3.4t1.5 3.3q1.5 1.1 4.7 2.2 1.4.5 2 1 .7.5.7 1.4 0 .8-.6 1.2-.6.5-1.8.5-1.5 0-2.3-.6-.7-.7-.7-2.1h-3.8q0 3 1.9 4.3t4.9 1.4q2.7 0 4.5-1.3 1.8-1.3 1.8-3.5 0-2.1-1.5-3.4-1.7-1.3-4.4-2.1-1.9-.7-2.4-1.1-.6-.4-.6-1.2t.6-1.3q.5-.5 1.7-.5t1.9.6m22.5 6.3v-3h-6v-3.6h7.2v-3h-11v16.8h11v-3h-7.1v-4.2h5.9m7.3 4.2V74.3h-4v16.8h11.2v-3h-7.2m19-4.2v-3h-5.8v-3.6h7v-3h-11v16.8h11v-3h-7v-4.2h5.9m7.7 3.4q-.8-1.2-.8-2.9V81q0-1.7.7-2.8.8-1 2-1 1.5 0 2.2.7.7.6.7 2.2h3.8v-.1q0-2.8-1.7-4.3-1.8-1.5-5-1.5-2.9 0-4.7 1.9-1.9 2-1.9 5v3.5q0 3 1.9 5 1.9 1.9 5 1.9 3 0 4.8-1.5 1.7-1.5 1.6-4.4H370q0 1.6-.6 2.2-.6.7-2 .7t-2.2-1.1m22-10v-3h-12.6v3h4.4v13.8h3.8V77.3h4.5m5.7 13.8V74.3h-3.9v16.8h3.9m16.9-6.9v-3q0-3.1-2-5.1-2-2-5.1-2-3.2 0-5.2 2t-2 5.1v3q0 3.1 2 5.2 2 2 5.2 2 3.1 0 5.1-2 2-2 2-5.2m-4 0q0 1.9-.7 3-1 1.1-2.4 1.1-1.6 0-2.5-1.1-.8-1.3-.8-3v-3q0-1.8.8-3 .9-1.1 2.5-1.1 1.5 0 2.3 1.1.9 1.1.9 3v3m20.3 6.9V74.3h-4v10.6l-6.1-10.6h-4v16.8h4V80.6l6.2 10.5h3.9m22.3-16.8h-4.1L441 87.1l-.1-.6-3.3-12.2h-4.1l5.4 16.8h4.2l5.5-16.8m11.1 9.6v-3h-5.9v-3.6h7.1v-3h-11v16.8h11v-3h-7.1v-4.2h5.9m11.2 1.4q.7.6.7 1.9l.1 2.6q.2.9.6 1.3h4v-.3q-.5-.3-.6-1.2-.2-.7-.2-1.5v-1q0-1.4-.7-2.5-.7-1-2.2-1.5 1.3-.6 2-1.5t.7-2.3q0-2.3-1.7-3.7t-4.7-1.3h-5.8v16.8h3.9v-6.5h2q1.3 0 1.9.7m.5-5.7q0 1-.6 1.5-.6.6-1.8.6h-2v-4.4h1.9q1.2 0 1.9.7.6.6.6 1.6m19.9 1.6q0-3.1-2-5t-5-1.9h-6.1v16.8h6.1q3 0 5-2 2-1.8 2-4.9v-3m-4.8 5.8q-.9 1.1-2.2 1.1h-2.2V77.3h2.2q1.3 0 2.2 1.1.9 1.1.9 2.7v3.1q0 1.7-.9 2.8m11.2 4.1V74.3h-3.9v16.8h3.9m4.5-15.1q-1.9 1.9-1.9 5v3.5q0 3 1.9 5 1.9 1.9 5 1.9 3 0 4.8-1.5 1.7-1.5 1.6-4.4h-3.8q0 1.6-.6 2.2-.6.7-2 .7t-2.2-1.1q-.8-1.1-.8-2.8v-3.6q0-1.7.7-2.8.8-1 2-1 1.5 0 2.2.7.7.6.7 2.2h3.8v-.1q0-2.8-1.7-4.3-1.8-1.5-5-1.5-2.9 0-4.7 1.9m24.9 1.3v-3h-12.7v3h4.3v13.8h3.9V77.3h4.5"/><animate attributeName="display" repeatCount="indefinite" dur="4.458s" keyTimes="0;0.766;0.822;1" values="none;inline;none;none"/></g><g display="none"><path fill="#1A344F" d="M146.2 88.1V74.3h-3.9v16.8h11.2v-3h-7.3m23-3.9v-3q0-3.1-2-5.1-2-2-5.1-2-3.2 0-5.2 2t-2 5.1v3q0 3 2 5.2 2.1 2 5.2 2 3 0 5.2-2 1.9-2 1.9-5.2m-3.9 0q0 1.9-.8 3t-2.4 1.1q-1.6 0-2.4-1.1-.9-1.3-.9-3v-3q0-1.8.9-3 .8-1.1 2.4-1.1 1.5 0 2.4 1.1.8 1.3.8 3v3m6-3v3q0 3.1 2 5.2 2 2 5.1 2 3.2 0 5.2-2t2-5.2v-3q0-3.1-2-5.1-2.1-2-5.2-2t-5.1 2q-2 2-2 5.1m3.9 3v-3q0-1.8.8-3 .9-1.1 2.4-1.1 1.6 0 2.4 1.1.9 1.3.9 3v3q0 1.8-.9 3-.8 1.1-2.4 1.1-1.5 0-2.4-1.1-.8-1.3-.8-3m22.9-9.9v10.6h-.1l-6.2-10.6h-3.9v16.8h3.9V80.6h.1l6.2 10.5h3.8V74.3h-3.8m10.6 16.8V74.3h-3.8v16.8h3.8m12.8-7.2v-3h-6v-3.6h7.2v-3h-11v16.8h11v-3h-7.1v-4.2h5.9m17.6-9.6h-4.2l-5.4 16.8h4l1-3.3h5l1 3.3h4.1l-5.5-16.8m-2.1 5.3l1.6 5.3h-3.2l1.6-5.3m19-5.3h-3l-2.8 10.9-2.1-10.9h-4l3.9 16.8h3.7l2.8-10.3 2.9 10.3h3.7l3.8-16.8h-4l-2 10.9-2.9-10.9m18.3 0h-4.2l-5.5 16.8h4.2l.9-3.3h5l1 3.3h4.1l-5.5-16.8m-2.1 5.3l1.6 5.3h-3.2l1.6-5.3M285 91.1V74.3h-3.8v16.8h3.8m14.3-13.8v-3h-12.7v3h4.4v13.8h3.9V77.3h4.4m9.3.3q.7.5.7 1.7h3.7v-.1q.1-2.4-1.6-3.8-1.7-1.4-4.7-1.4-2.7 0-4.4 1.4-1.8 1.3-1.8 3.4t1.5 3.3q1.5 1.1 4.7 2.2 1.4.5 2 1 .7.5.7 1.4 0 .8-.6 1.2-.6.5-1.8.5-1.5 0-2.3-.6-.7-.7-.7-2.1h-3.8q0 3 1.9 4.3t4.9 1.4q2.7 0 4.5-1.3 1.8-1.3 1.8-3.5 0-2.1-1.5-3.4-1.7-1.3-4.4-2.1-1.9-.7-2.4-1.1-.6-.4-.6-1.2t.6-1.3q.5-.5 1.7-.5t1.9.6m22.5 6.3v-3h-6v-3.6h7.2v-3h-11v16.8h11v-3h-7.1v-4.2h5.9m7.3 4.2V74.3h-4v16.8h11.2v-3h-7.2m19-4.2v-3h-5.8v-3.6h7v-3h-11v16.8h11v-3h-7v-4.2h5.9m7.7 3.4q-.8-1.2-.8-2.9V81q0-1.7.7-2.8.8-1 2-1 1.5 0 2.2.7.7.6.7 2.2h3.8v-.1q0-2.8-1.7-4.3-1.8-1.5-5-1.5-2.9 0-4.7 1.9-1.9 2-1.9 5v3.5q0 3 1.9 5 1.9 1.9 5 1.9 3 0 4.8-1.5 1.7-1.5 1.6-4.4H370q0 1.6-.6 2.2-.6.7-2 .7t-2.2-1.1m22-10v-3h-12.6v3h4.4v13.8h3.8V77.3h4.5m5.7 13.8V74.3h-3.9v16.8h3.9m16.9-6.9v-3q0-3.1-2-5.1-2-2-5.1-2-3.2 0-5.2 2t-2 5.1v3q0 3.1 2 5.2 2 2 5.2 2 3.1 0 5.1-2 2-2 2-5.2m-4 0q0 1.9-.7 3-1 1.1-2.4 1.1-1.6 0-2.5-1.1-.8-1.3-.8-3v-3q0-1.8.8-3 .9-1.1 2.5-1.1 1.5 0 2.3 1.1.9 1.1.9 3v3m20.3 6.9V74.3h-4v10.6l-6.1-10.6h-4v16.8h4V80.6l6.2 10.5h3.9"/><animate attributeName="display" repeatCount="indefinite" dur="4.458s" keyTimes="0;0.692;0.766;1" values="none;inline;none;none"/></g><g display="none"><path fill="#1A344F" d="M146.2 88.1V74.3h-3.9v16.8h11.2v-3h-7.3m23-3.9v-3q0-3.1-2-5.1-2-2-5.1-2-3.2 0-5.2 2t-2 5.1v3q0 3 2 5.2 2.1 2 5.2 2 3 0 5.2-2 1.9-2 1.9-5.2m-3.9 0q0 1.9-.8 3t-2.4 1.1q-1.6 0-2.4-1.1-.9-1.3-.9-3v-3q0-1.8.9-3 .8-1.1 2.4-1.1 1.5 0 2.4 1.1.8 1.3.8 3v3M178.4 74q-3.1 0-5.1 2.1-2 2-2 5.1v3q0 3.1 2 5.1 2 2 5.1 2 3.2 0 5.2-2t2-5.1v-3q0-3.1-2-5.1-2.1-2-5.2-2m-3.2 7q0-1.8.8-2.9.9-1.2 2.4-1.2 1.6 0 2.4 1.2.9 1.2.9 3v3q0 1.7-.9 3-.8 1.1-2.4 1.1-1.5 0-2.4-1.1-.8-1.3-.8-3v-3m22.9-6.9v10.6h-.1l-6.2-10.6h-3.9v16.8h3.9V80.6h.1l6.2 10.5h3.8V74.3h-3.8m10.6 16.8V74.3h-3.8v16.8h3.8m12.8-7.2v-3h-6v-3.6h7.2v-3h-11v16.8h11v-3h-7.1v-4.2h5.9m17.6-9.6h-4.2l-5.4 16.8h4l1-3.3h5l1 3.3h4.1l-5.5-16.8m-2 5.3l1.5 5.3h-3.2l1.6-5.3m19-5.3h-3l-2.8 10.9-2.1-10.9h-4l3.9 16.8h3.7l2.8-10.3 2.9 10.3h3.7l3.8-16.8h-4l-2 10.9-2.9-10.9m18.3 0h-4.2l-5.5 16.8h4.2l.9-3.3h5l1 3.3h4.1l-5.5-16.8m-2 5.3l1.5 5.3h-3.2l1.6-5.3m12.9 11.5V74.3h-3.8v16.8h3.8m14.3-13.8v-3h-12.7v3h4.4v13.8h3.9V77.3h4.4m9.3.3q.7.5.7 1.7h3.7v-.1q.1-2.4-1.6-3.8-1.7-1.4-4.7-1.4-2.7 0-4.4 1.4-1.8 1.3-1.8 3.4t1.5 3.3q1.5 1.1 4.7 2.2 1.4.5 2 1 .7.5.7 1.4 0 .8-.6 1.2-.6.5-1.8.5-1.5 0-2.3-.6-.7-.7-.7-2.1h-3.8q0 3 1.9 4.3t4.9 1.4q2.7 0 4.5-1.3 1.8-1.3 1.8-3.5 0-2.1-1.5-3.4-1.7-1.3-4.4-2.1-1.9-.7-2.4-1.1-.6-.4-.6-1.2t.6-1.3q.5-.5 1.7-.5t1.9.6"/><animate attributeName="display" repeatCount="indefinite" dur="4.458s" keyTimes="0;0.607;0.692;1" values="none;inline;none;none"/></g><g display="none"><path fill="#1A344F" d="M146.2 88.1V74.3h-3.9v16.8h11.2v-3h-7.3m23-3.9v-3q0-3.1-2-5.1-2-2-5.1-2-3.2 0-5.2 2t-2 5.1v3q0 3 2 5.2 2.1 2 5.2 2 3 0 5.2-2 1.9-2 1.9-5.2m-3.9 0q0 1.9-.8 3t-2.4 1.1q-1.6 0-2.4-1.1-.9-1.3-.9-3v-3q0-1.8.9-3 .8-1.1 2.4-1.1 1.5 0 2.4 1.1.8 1.3.8 3v3m8-8.1q-2 2-2 5.1v3q0 3.1 2 5.1 2 2 5.1 2 3.2 0 5.2-2t2-5.1v-3q0-3.1-2-5.1-2.1-2-5.2-2t-5.1 2m2.7 2.1q.9-1.2 2.4-1.2 1.6 0 2.4 1.2.9 1.2.9 3v3q0 1.7-.9 3-.8 1.1-2.4 1.1-1.5 0-2.4-1.1-.8-1.3-.8-3v-3q0-1.9.8-3m22-3.9v10.6l-6.2-10.6h-3.9v16.8h3.9V80.6h.1l6.2 10.5h3.8V74.3h-3.8m10.6 16.8V74.3h-3.8v16.8h3.8m12.8-7.2v-3h-6v-3.6h7.2v-3h-11v16.8h11v-3h-7.1v-4.2h5.9"/><animate attributeName="display" repeatCount="indefinite" dur="4.458s" keyTimes="0;0.542;0.607;1" values="none;inline;none;none"/></g></g></svg>