<svg xmlns="http://www.w3.org/2000/svg" baseProfile="basic" width="695" height="436" viewBox="0 0 695 436" preserveAspectRatio="xMinYMin meet"><g overflow="visible"><g><path fill="#E5E9ED" d="M694.4 436.3V0H0v436.3h694.4"/><animate attributeName="display" repeatCount="indefinite" dur="1.85s" keyTimes="0;1" values="inline;inline"/></g><g><path fill="none" stroke="#A2AAAF" stroke-opacity=".3" stroke-width="2.5" stroke-linecap="round" stroke-linejoin="round" d="M80.5 118.3h43m-49 6h26m-37.4 0h5.1m536.4-23.5h43.1m-49 6h26m-37.5 0h5.1m-53 228h43m-49 6h26m-37.4 0h5.2"/><animate attributeName="display" repeatCount="indefinite" dur="1.85s" keyTimes="0;1" values="inline;inline"/></g><g><path fill="#D7DBDF" d="M222.5 10.5q-2.3-1.3-3.4-.9t-1.9 2.9l-1.6 5.5-1.8 5.5q-.2.6-1.3 1l-1.8 1-.9-1.7-.7-1.8q-.1-.3.4-1l.8-1.2-9.1-4-.5 1.9q-.3 1-.7 1.4-2.1 1.8-1.9 4 .2 1.5 1.7 4 1 1.7 1.7 2.5 1 1.1 2.6 1.5.4 0 .9.7l.8 1-1.6 1-1 .7q-2.6 2.3-5.1 1.9-2.5-.3-4.8-3.1-.3-.5-1-.8-.8-.4-1.1-.3-1.2.6-3.4.8l-3.5.4q-4 .9-4.7 5.2l-.4.4-1.5 2.5-1.3 2.6q-.2.6 0 1.5.1.8.5 1.1.9.7 2.8.2l1.6-.7 1.5-.6q.3-.1.8.2l.8.4q-.7 1-1 1.2l-9 7.1 2.3 2.9q1.1 1.6 1.6 2.8l.7 1.9q.4.8 1.5 1.2.4.2 1 .9l1.6 1.4-3.7 1.9q-2 1-3.4 1.3-4 .7-10.6.5-.9 0-2.3-.7l-2.3-1-6.4-1.6-.4 1.2 7.5 4.5q2 1.4 4.8 1.7 1.7.3 5 .2l9.9-.1h9.8q.5-3 7-4.6 6.5-1.7 10.2.2l-3.3.9q-2 .5-3.1 1.1-1.2.6-2.6 1.9l-2.6 2.2q3.3 2.3 8 2.3 4.9-.1 7.2-2.4l1.7 1.4q.9.8.9 1.3-.2 2.9 1.4 5.5.9 1.5 3.4 4 3.7 3.8 5.5 6.4 2.5 3.6 3.3 7.5.4 2 1.7 5.7.9 3.3.1 5.9-.4 1.5-.3 3.7l.2 3.3 6.1-4 .9 1-2.2 2-1.7 1q-1.1.6-1 .9.1 1.3-.3 3.2l-.8 3.2q-.7 3.8 2.5 5.9l1.5-4q.7.8 1.2 2.4.6 1.6 1 2.2.8 1.4.7 2.8-.1.9-.8 2.9-.9 2.6-.4 6 .2 1.2 1.1 3.9.9 2.5 1 3.9.4 5.3-1 8.5l-.9 2.4q-.2 1.2.4 2.3 1.9 3.9 7.7 14.6l-.6 1.6-.4 1.9q-.9 10.9-5.8 21.6-2.3 5.2-4.3 11.6l-1.7 5.9q-.8 3.4-.8 5.9 0 3.3.9 7.8l1.6 7.7q.3 1.5 1.2 4l1.3 4 3.4 13.7q.2.8 1.1 1.4l3.2 2q1.9 1.3 3 2.3 2.9 2.4 4.2 4.1 1.9 2.5 2.6 5.5 2.2 10.4 3.1 13.4 2.4 7.3 6.8 12 1.3 1.5 1.5 3 .3 1.7-1 3-.4.6-1.9.6l-2.6.2 3.5 3.6q2.2 2.1 3.9 3.3 3.6 2.4 5 4.3 2.2 2.7 1.9 6.4-.1 2 .1 3 .4 1.8 2.1 2.6 5 2.2 8.4 8.9 3-1 1.4-3.3l-3.3-4q-1-1.2-1.4-2.5l-.6-2.2-.6-2.1q-3.6-8.3-6.2-13.7l-3.4-7.2q-2.1-4-4-6.7-1.7-2.4-2.1-5.9l-.6-6q-.1-.4.4-1 .5-.5.9-.5 1.9-.1 4.5 1.8 2.5 2 3 3.9.9 3.8 2.4 11.6.2.8 1.4 2l3.8 3.7q2.3 2.1 3.7 3.7 1 1 2.4 3.2l2.4 3.4 1.4 2q.5 1.1.1 2.5-.2.6.2 1.6.4.9 1 1.5l3.6 3.7 3.6 3.6 4.6 5q2.6 3 4.2 5.4 2 3 2.8 5.2 1 3 0 5.9-2.2 6.9 3 10 2.6 1.6 7.4 4.9 4.3 2.8 8 3.5 1.1.1 2 .8 5.5 3.8 13.4 6.5l14.3 4.1q2.9.9 5 .8 2.8-.1 5-1.5 4.3-2.8 9.2-.4 3.6 1.8 10.3 6.2l2.7 1.7q1.6 1 2.7 1.3 9 2.2 17.9 3.6 1.3.2 3.4-.2l3.7-.6.8 1.5q.6 1.1 1.3 1.6l4.5 3.1 4.5 3q1.7 1.3 2.2 2.6.6 1.7-.7 3.9l3 .5q1.6.3 2.7.7 3.3 1 8.3 3.1l2.4 1.3q1.4.8 2.3 1 1 .3 3 .4l3 .3q1.3.2 4.1.3 2.4.3 3.5 1.2 1.8 1.6 3.4 1.2.7-.2 2.9-1.7l-2.5-3.6 2-1.6 1.7-1.7q2-2.5 3.8-2.6 1.7-.1 3.9 2.3 2.4 2.6 6.9 8 1.5 1.6 2.2 1.6h14v-22.3q0-1.5.6-2.1.5-.5 2-.5 6.2.2 11.6 0 .6-.1 1.5-.6.8-.5.8-.9.3-4 .2-5.9-.1-3.3-2.7-5.2l-.6-.8-.3-.6 3.9-4.8-1.1-1.1-1.5.8q-1 .4-1.4.9l-1.1 1.8q-.6 1.2-1.2 1.6-1.6 1.3-4.1 3l-4.3 2.8q-5.2 3.5-6.6 4.6-.6.4-1 1.1-.3.8-.3 1.5 0 5.4-4.5 10.5-2.9 3.2-4.3 3.6-1.6.4-5.6-1-3.7-1.3-6.8-1.2-3.5.2-6.7 2.4-4.8 3.4-10.3 3.1-5.1-.2-10.3-3.4-2.7-1.6-3.8-3.2-1.6-2.4-.8-5.4.3-1.3.2-3.3v-3.5q.3-5 .2-7.4v-3.1q-.1-1.8-.8-2.3-3.3-2.6-7.6-3-2-.2-4.6.2l-4.7.8q-8 1.9-12.1 2.7-.8.1-2.1-.1l-2.6-.4q3-3.4 3.3-8.3-.3-5.5-.1-8.2 1.8-1.8 1.9-3l.5-5.6q.6-3.2 2.2-5.3.4-.4.5-1.6l.2-2.5-14.2 3.6q-4.5 1.2-4.7 5.8-.4 5.9-4.8 10.5-1 1.1-3.2 1.6-3.4.7-8.7 1.5l-3.8.6q-2.2.4-3.6.1-5.6-1-10-5.3-3-3-6.5-9.1-2.8-4.8-3.6-9.5-.3-2.3-.2-5.7l.2-5.8.1-2.5q.2-1.4.7-2 1.6-1.6 1.6-3.9 0-.9-.7-4-1-4.7.5-7.7 1.4-3 5.7-5 4-2 5.4-4.3 1.4-2.4 4.2-3.1 1.6-.5 4.9-.8 1.5-.3 3.8-.3h5.3q.9 0 1.4.3 2.4 1.9 4.8 1.3 1.9-.5 4.6-2.9l-5-1.6q1.3-1.6 2.6-1.8l13-2 4.9-.5q2.8-.2 4.7.4 3 .9 4.3.9 2.2 0 4-1.7.4-.4 1.7-.3 1.9.1 4.9 3 2.9 2.8 3.5 4.8l1.1 3.7q.8 2 1.8 3.3 1.8 2.2 4.8 5l5 4.8q2.2-1.7 2.7-5 .6-3.2-1-6.3-4.1-8.3-7.4-12.8-3.5-5-3.2-10.8.4-6 4.7-10.1l2-2.6 4.6-6.4q2.7-3.8 4.7-6.3l1.5-1.9q.7-1 .5-2.4-.2-1.2 0-3.4.3-2.6.2-3.5-.1-3-1.1-3.9-1.4-1-2-2.7-.3-1-.6-3.2v-1.1l.3-1.1 1.2.5q.7.2 1 .6.4.3.7.9l.4.9q2.5-5.8-1.6-9.3 2.7-1 3.6-2.4 1-1.4 1-4.7 0-3.4 3.1-5.5 1.3-1 3.5-3.3l5-4.3.8-.6q.4-.4.4-.7l-.2-.8q-.2-.5-.6-.8-3.5-2.8-3.7-6.2t2.8-6.7q3.5-3.7 5-5.8l7.9-11.3.9.3v2.6l-.7 2.2q-.5 1.4-.3 2.2.2.8 1 1.9l1.7 1.8 1.3-1.1q.8-.8 1-1.4.7-1.8 1.3-2.5.9-1.1 2.5-1.2.5-.1 1-.9.7-.7.7-1.3.1-2.4 1.6-4.9.8-1.4 2.8-4.2 2.4-3.7 2-6.2-.2-1.2-1.7-2.8l-2.8-3.1v10.2l-3.5.4-.6-2.5-8 1.7 2.7 1.9q-2.3 1.3-4 .1-1.5-1.1-4.1-6l-3 .4q.1-.8.8-1.6 1.1-1.2 1.6-3.6.4-2.4-.5-2.6-2.8-.6-5.5.7-1 .4-2.1 1.6l-2 2-5.8 6.7q-.3-2.7 2.5-9 2.7-6.1 4.7-7.6 1.8-1.3 3.3-2.1 7.7-4.2 9.7-5.1 5.7-2.6 6.9-8.7.4-2 .8-3 1.4-3.6 4.9-4l3.5 24.6 14.9-9.1-.5 5h.7l2-9.1 2.7 3.6v-4.3l-1.5 1.2-1.7-4q-2-1.3-3.1-3-2.2-3.3-4.1-.4-1.4 1.9-2.8 2.2-1.4.2-3.2-1.4l-1.5 2.9-.8-.1-1.2-11-3.2.1q-1.2-9.7-10.7-10.2-.6-.1-1.4-.5l-1.4-.6-1.7-.6q-1-.4-1.5-.3-7.3 1.5-13.4-3.2-7.4-5.9-11.2-8.7l-5-3.4-5.7-3.6.5 4.9.2 4q-.1 6.5-5.1 5.7-6.7-1-8.7-7.4-.5-1.9-1.5-2.6-1.1-1-3-.9-1 0-2.6-.4l-2.5-.8-3.2-1.2q-2-.7-3.1-.5-2.3.3-5.4 1.3l-5.2 1.7 2.4 9.4q0 .2.7.6 3 2 2.2 6.8-.8 5 3.4 7.4 4.5 2.4 5.7 6.8 2 7.3-3.3 13.8-.7.8-1 1.9-.4 1.3-.1 1.9.8 1.8 2.7 4.7l2.8 4.7q1.2 2.3 1 4.9-.3 2.6-2.2 3.8-1.8 1.2-3.5-.2l-5.2-4.1q-2.6-1.9-4.1-5.6l-2.1-6.6q-.7-2-1.7-2.8-1.1-.8-3.1-.4-6.8 1-14.6-3-5.6-3-8.2-3.7-4.7-1.4-9 .3l-1.5-4-1.8-3.6q-1.3-1.7-3.5-2.1-.4 0-.9-.9l-.6-1.4q-1.4-6.6.9-12.9 1.9-5.2 6.8-10.9 1-1.3.9-1.7-1-2.1.4-3.3.8-.7 2.8-1.9l1.9-1.4q1.1-1 1.3-1.7.6-2.6 1.2-6.5l1-7h.6q.7-.1 1.1.1 2.4 1.2 4-.2.4-.2 2.5-3 2.4-3.4-.4-6.7-2-2.4-1.5-3.4.8-2 0-3.5-.4-1-2.3-2.6-1.2-1.1-2.6-1-.8 0-2.4.8-.4.2-.5 1.4l-.1 2-.4 6.3q-.1 1.6-.5 3.5l-.7 2-1.3-.4q-.8-.3-.9-.6l-2-6.3q-.7-3.1-3.5-1.4-.5.2-1.4.9l-1-2q-.6-1.1-1.1-1.2-1.6-.2-2.3-1.4l-.9-2.4q-1.4-4.3-2.4-5.9-1.7-2.4-2.1-3.4-.9-2-.5-4l-.3-.6-.6-.6-.6.7q-.4.4-.4.8-1.1 5.2-1.2 7.4-.3 3.3.3 5.4.7 2.8 3 4.7 1.2.9 1.8 2.7.7 1.7.5 3.1-.2 1.4-1.4 3.3-1.5 2-2.1 3.1l-2.8-5.6 1.3-2.4q.6-1.3.4-1.9-.4-.9-1.7-1.9l-2.1-1.6-3.2 4.3q1.8.9 2.3 1.8.7 1 0 2.9-.7 2.1-2.3 2.7-1.1.4-3.3.2-4.1-.4-5.7-1-3-1-4.4-4-.6-1.3-1.8-1.6-1-.2-2.6.2-1.5.4-2.1 1.1-.7.8-.5 2.3 0 .8-.4 1.8l-4.9-.6q-2.6-.3-4.4-.7-1.3-.3-3.2-1l-3.5-1.3 3-3.3-2.9-2.3q-5.7-3.9-8.1-6.2-2.1-2-3.2-2.5-1.8-.8-4 .3l-1.1-3-2.9 1.5-2.2-6.2-2.8.6q-1.6.4-2.2 1-1.7 1.7-3.1 2-1.6.3-3.4-1l-1.2-.8q-.7-.5-1-1-1.3-3.1-4-2.1-2 .8-3-.2-.4-.4-1.5-2.6l-3.2-6q-2-3.5-4.1-5.2-2.2-1.9-4.5-6-2.6-4.6-4-6.1-1-1.1-2-3.4l-1.4-3.9q-1.1-2.2-3.5-3.7-2.5-1.4-5.1-1.3-1.6 0-2-.4-1.2-1.3-3.2-1.6l-3.6-.1q-2.1-.1-3.8-1"/><path fill="#F9F9F9" stroke="#E1E4E5" stroke-width="2" stroke-linecap="round" stroke-linejoin="round" d="M225.5 10.5q-2.3-1.3-3.4-.9t-1.9 2.9l-1.6 5.5-1.8 5.5q-.2.6-1.3 1l-1.8 1-.9-1.7-.7-1.8q-.1-.3.4-1l.8-1.2-9.1-4-.5 1.9q-.3 1-.7 1.4-2.1 1.8-1.9 4 .2 1.5 1.7 4 1 1.7 1.7 2.5 1 1.1 2.6 1.5.4 0 .9.7l.8 1-1.6 1-1 .7q-2.6 2.3-5.1 1.9-2.5-.3-4.8-3.1-.3-.5-1-.8-.8-.4-1.1-.3-1.2.6-3.4.8l-3.5.4q-4 .9-4.7 5.2l-.4.4-1.5 2.5-1.3 2.6q-.2.6 0 1.5.1.8.5 1.1.9.7 2.8.2l1.6-.7 1.5-.6q.3-.1.8.2l.8.4q-.7 1-1 1.2l-9 7.1 2.3 2.9q1.1 1.6 1.6 2.8l.7 1.9q.4.8 1.5 1.2.4.2 1 .9l1.6 1.4-3.7 1.9q-2 1-3.4 1.3-4 .7-10.6.5-.9 0-2.3-.7l-2.3-1-6.4-1.6-.4 1.2 7.5 4.5q2 1.4 4.8 1.7 1.7.3 5 .2l9.9-.1h9.8q.5-3 7-4.6 6.5-1.7 10.2.2l-3.3.9q-2 .5-3.1 1.1-1.2.6-2.6 1.9l-2.6 2.2q3.3 2.3 8 2.3 4.9-.1 7.2-2.4l1.7 1.4q.9.8.9 1.3-.2 2.9 1.4 5.5.9 1.5 3.4 4 3.7 3.8 5.5 6.4 2.5 3.6 3.3 7.5.4 2 1.7 5.7.9 3.3.1 5.9-.4 1.5-.3 3.7l.2 3.3 6.1-4 .9 1-2.2 2-1.7 1q-1.1.6-1 .9.1 1.3-.3 3.2l-.8 3.2q-.7 3.8 2.5 5.9l1.5-4q.7.8 1.2 2.4.6 1.6 1 2.2.8 1.4.7 2.8-.1.9-.8 2.9-.9 2.6-.4 6 .2 1.2 1.1 3.9.9 2.5 1 3.9.4 5.3-1 8.5l-.9 2.4q-.2 1.2.4 2.3 1.9 3.9 7.7 14.6l-.6 1.6-.4 1.9q-.9 10.9-5.8 21.6-2.3 5.2-4.3 11.6l-1.7 5.9q-.8 3.4-.8 5.9 0 3.3.9 7.8l1.6 7.7q.3 1.5 1.2 4l1.3 4 3.4 13.7q.2.8 1.1 1.4l3.2 2q1.9 1.3 3 2.3 2.9 2.4 4.2 4.1 1.9 2.5 2.6 5.5 2.2 10.4 3.1 13.4 2.4 7.3 6.8 12 1.3 1.5 1.5 3 .3 1.7-1 3-.4.6-1.9.6l-2.6.2 3.5 3.6q2.2 2.1 3.9 3.3 3.6 2.4 5 4.3 2.2 2.7 1.9 6.4-.1 2 .1 3 .4 1.8 2.1 2.6 5 2.2 8.4 8.9 3-1 1.4-3.3l-3.3-4q-1-1.2-1.4-2.5l-.6-2.2-.6-2.1q-3.6-8.3-6.2-13.7l-3.4-7.2q-2.1-4-4-6.7-1.7-2.4-2.1-5.9l-.6-6q-.1-.4.4-1 .5-.5.9-.5 1.9-.1 4.5 1.8 2.5 2 3 3.9.9 3.8 2.4 11.6.2.8 1.4 2l3.8 3.7q2.3 2.1 3.7 3.7 1 1 2.4 3.2l2.4 3.4 1.4 2q.5 1.1.1 2.5-.2.6.2 1.6.4.9 1 1.5l3.6 3.7 3.6 3.6 4.6 5q2.6 3 4.2 5.4 2 3 2.8 5.2 1 3 0 5.9-2.2 6.9 3 10 2.6 1.6 7.4 4.9 4.3 2.8 8 3.5 1.1.1 2 .8 5.5 3.8 13.4 6.5l14.3 4.1q2.9.9 5 .8 2.8-.1 5-1.5 4.3-2.8 9.2-.4 3.6 1.8 10.3 6.2l2.7 1.7q1.6 1 2.7 1.3 9 2.2 17.9 3.6 1.3.2 3.4-.2l3.7-.6.8 1.5q.6 1.1 1.3 1.6l4.5 3.1 4.5 3q1.7 1.3 2.2 2.6.6 1.7-.7 3.9l3 .5q1.6.3 2.7.7 3.3 1 8.3 3.1l2.4 1.3q1.4.8 2.3 1 1 .3 3 .4l3 .3q1.3.2 4.1.3 2.4.3 3.5 1.2 1.8 1.6 3.4 1.2.7-.2 2.9-1.7l-2.5-3.6 2-1.6 1.7-1.7q2-2.5 3.8-2.6 1.7-.1 3.9 2.3 2.4 2.6 6.9 8 1.5 1.6 2.2 1.6h14v-22.3q0-1.5.6-2.1.5-.5 2-.5 6.2.2 11.6 0 .6-.1 1.5-.6.8-.5.8-.9.3-4 .2-5.9-.1-3.3-2.7-5.2l-.6-.8-.3-.6 3.9-4.8-1.1-1.1-1.5.8q-1 .4-1.4.9l-1.1 1.8q-.6 1.2-1.2 1.6-1.6 1.3-4.1 3l-4.3 2.8q-5.2 3.5-6.6 4.6-.6.4-1 1.1-.3.8-.3 1.5 0 5.4-4.5 10.5-2.9 3.2-4.3 3.6-1.6.4-5.6-1-3.7-1.3-6.8-1.2-3.5.2-6.7 2.4-4.8 3.4-10.3 3.1-5.1-.2-10.3-3.4-2.7-1.6-3.8-3.2-1.6-2.4-.8-5.4.3-1.3.2-3.3v-3.5q.3-5 .2-7.4v-3.1q-.1-1.8-.8-2.3-3.3-2.6-7.6-3-2-.2-4.6.2l-4.7.8q-8 1.9-12.1 2.7-.8.1-2.1-.1l-2.6-.4q3-3.4 3.3-8.3-.3-5.5-.1-8.2 1.8-1.8 1.9-3l.5-5.6q.6-3.2 2.2-5.3.4-.4.5-1.6l.2-2.5-14.2 3.6q-4.5 1.2-4.7 5.8-.4 5.9-4.8 10.5-1 1.1-3.2 1.6-3.4.7-8.7 1.5l-3.8.6q-2.2.4-3.6.1-5.6-1-10-5.3-3-3-6.5-9.1-2.8-4.8-3.6-9.5-.3-2.3-.2-5.7l.2-5.8.1-2.5q.2-1.4.7-2 1.6-1.6 1.6-3.9 0-.9-.7-4-1-4.7.5-7.7 1.4-3 5.7-5 4-2 5.4-4.3 1.4-2.4 4.2-3.1 1.6-.5 4.9-.8 1.5-.3 3.8-.3h5.3q.9 0 1.4.3 2.4 1.9 4.8 1.3 1.9-.5 4.6-2.9l-5-1.6q1.3-1.6 2.6-1.8l13-2 4.9-.5q2.8-.2 4.7.4 3 .9 4.3.9 2.2 0 4-1.7.4-.4 1.7-.3 1.9.1 4.9 3 2.9 2.8 3.5 4.8l1.1 3.7q.8 2 1.8 3.3 1.8 2.2 4.8 5l5 4.8q2.2-1.7 2.7-5 .6-3.2-1-6.3-4.1-8.3-7.4-12.8-3.5-5-3.2-10.8.4-6 4.7-10.1l2-2.6 4.6-6.4q2.7-3.8 4.7-6.3l1.5-1.9q.7-1 .5-2.4-.2-1.2 0-3.4.3-2.6.2-3.5-.1-3-1.1-3.9-1.4-1-2-2.7-.3-1-.6-3.2v-1.1l.3-1.1 1.2.5q.7.2 1 .6.4.3.7.9l.4.9q2.5-5.8-1.6-9.3 2.7-1 3.6-2.4 1-1.4 1-4.7 0-3.4 3.1-5.5 1.3-1 3.5-3.3l5-4.3.8-.6q.4-.4.4-.7l-.2-.8q-.2-.5-.6-.8-3.5-2.8-3.7-6.2t2.8-6.7q3.5-3.7 5-5.8l7.9-11.3.9.3v2.6l-.7 2.2q-.5 1.4-.3 2.2.2.8 1 1.9l1.7 1.8 1.3-1.1q.8-.8 1-1.4.7-1.8 1.3-2.5.9-1.1 2.5-1.2.5-.1 1-.9.7-.7.7-1.3.1-2.4 1.6-4.9.8-1.4 2.8-4.2 2.4-3.7 2-6.2-.2-1.2-1.7-2.8l-2.8-3.1v10.2l-3.5.4-.6-2.5-8 1.7 2.7 1.9q-2.3 1.3-4 .1-1.5-1.1-4.1-6l-3 .4q.1-.8.8-1.6 1.1-1.2 1.6-3.6.4-2.4-.5-2.6-2.8-.6-5.5.7-1 .4-2.1 1.6l-2 2-5.8 6.7q-.3-2.7 2.5-9 2.7-6.1 4.7-7.6 1.8-1.3 3.3-2.1 7.7-4.2 9.7-5.1 5.7-2.6 6.9-8.7.4-2 .8-3 1.4-3.6 4.9-4l3.5 24.6 14.9-9.1-.5 5h.7l2-9.1 2.7 3.6v-4.3l-1.5 1.2-1.7-4q-2-1.3-3.1-3-2.2-3.3-4.1-.4-1.4 1.9-2.8 2.2-1.4.2-3.2-1.4l-1.5 2.9-.8-.1-1.2-11-3.2.1q-1.2-9.7-10.7-10.2-.6-.1-1.4-.5l-1.4-.6-1.7-.6q-1-.4-1.5-.3-7.3 1.5-13.4-3.2-7.4-5.9-11.2-8.7l-5-3.4-5.7-3.6.5 4.9.2 4q-.1 6.5-5.1 5.7-6.7-1-8.7-7.4-.5-1.9-1.5-2.6-1.1-1-3-.9-1 0-2.6-.4l-2.5-.8-3.2-1.2q-2-.7-3.1-.5-2.3.3-5.4 1.3l-5.2 1.7 2.4 9.4q0 .2.7.6 3 2 2.2 6.8-.8 5 3.4 7.4 4.5 2.4 5.7 6.8 2 7.3-3.3 13.8-.7.8-1 1.9-.4 1.3-.1 1.9.8 1.8 2.7 4.7l2.8 4.7q1.2 2.3 1 4.9-.3 2.6-2.2 3.8-1.8 1.2-3.5-.2l-5.2-4.1q-2.6-1.9-4.1-5.6l-2.1-6.6q-.7-2-1.7-2.8-1.1-.8-3.1-.4-6.8 1-14.6-3-5.6-3-8.2-3.7-4.7-1.4-9 .3l-1.5-4-1.8-3.6q-1.3-1.7-3.5-2.1-.4 0-.9-.9l-.6-1.4q-1.4-6.6.9-12.9 1.9-5.2 6.8-10.9 1-1.3.9-1.7-1-2.1.4-3.3.8-.7 2.8-1.9l1.9-1.4q1.1-1 1.3-1.7.6-2.6 1.2-6.5l1-7h.6q.7-.1 1.1.1 2.4 1.2 4-.2.4-.2 2.5-3 2.4-3.4-.4-6.7-2-2.4-1.5-3.4.8-2 0-3.5-.4-1-2.3-2.6-1.2-1.1-2.6-1-.8 0-2.4.8-.4.2-.5 1.4l-.1 2-.4 6.3q-.1 1.6-.5 3.5l-.7 2-1.3-.4q-.8-.3-.9-.6l-2-6.3q-.7-3.1-3.5-1.4-.5.2-1.4.9l-1-2q-.6-1.1-1.1-1.2-1.6-.2-2.3-1.4l-.9-2.4q-1.4-4.3-2.4-5.9-1.7-2.4-2.1-3.4-.9-2-.5-4l-.3-.6-.6-.6-.6.7q-.4.4-.4.8-1.1 5.2-1.2 7.4-.3 3.3.3 5.4.7 2.8 3 4.7 1.2.9 1.8 2.7.7 1.7.5 3.1-.2 1.4-1.4 3.3-1.5 2-2.1 3.1l-2.8-5.6 1.3-2.4q.6-1.3.4-1.9-.4-.9-1.7-1.9l-2.1-1.6-3.2 4.3q1.8.9 2.3 1.8.7 1 0 2.9-.7 2.1-2.3 2.7-1.1.4-3.3.2-4.1-.4-5.7-1-3-1-4.4-4-.6-1.3-1.8-1.6-1-.2-2.6.2-1.5.4-2.1 1.1-.7.8-.5 2.3 0 .8-.4 1.8l-4.9-.6q-2.6-.3-4.4-.7-1.3-.3-3.2-1l-3.5-1.3 3-3.3-2.9-2.3q-5.7-3.9-8.1-6.2-2.1-2-3.2-2.5-1.8-.8-4 .3l-1.1-3-2.9 1.5-2.2-6.2-2.8.6q-1.6.4-2.2 1-1.7 1.7-3.1 2-1.6.3-3.4-1l-1.2-.8q-.7-.5-1-1-1.3-3.1-4-2.1-2 .8-3-.2-.4-.4-1.5-2.6l-3.2-6q-2-3.5-4.1-5.2-2.2-1.9-4.5-6-2.6-4.6-4-6.1-1-1.1-2-3.4l-1.4-3.9q-1.1-2.2-3.5-3.7-2.5-1.4-5.1-1.3-1.6 0-2-.4-1.2-1.3-3.2-1.6l-3.6-.1q-2.1-.1-3.8-1"/><animate attributeName="display" repeatCount="indefinite" dur="1.85s" keyTimes="0;1" values="inline;inline"/></g><g><path fill="none" stroke="#1A344F" stroke-width="2.5" stroke-linecap="round" stroke-linejoin="round" d="M336.1 280.1v82.5m-9.8 0h20"/><animate attributeName="display" repeatCount="indefinite" dur="1.85s" keyTimes="0;1" values="inline;inline"/></g><g display="none"><path fill="#D56871" stroke="#1A344F" stroke-width="2.5" stroke-linecap="round" stroke-linejoin="round" d="M353.8 279.9q-9.7.5-17.5-1.7l.2 47.5q7.2 1.4 16.5.8h.7q4-.3 16.5-1.8h.8q9.7-1.2 18.4-1.4 13.6-.2 24.9 2.1l.1-1V278q-10.1-2.4-22.8-2.4-6.6.1-16.3 1.5l-3.5.5q-9.4 1.4-14.7 2l-3.4.2"/><animate attributeName="display" repeatCount="indefinite" dur="1.85s" keyTimes="0;0.486;0.514;1" values="none;inline;none;none"/></g><g display="none"><path fill="#D56871" stroke="#1A344F" stroke-width="2.5" stroke-linecap="round" stroke-linejoin="round" d="M414.4 278.6l-.1-.9q-9.2-1.5-22.8-1.7-6.4 0-16.3 1.1l-3.5.3q-9.2 1.3-14.6 1.8l-3.4.2q-9.5.5-17.4-1.3l.2 47.5q7.3 1.1 16.4.6h.7l16.6-1.4h.7q9.7-.9 18.3-1h.2q13.4-.3 24.8 1.3l.2-.9v-45.6"/><animate attributeName="display" repeatCount="indefinite" dur="1.85s" keyTimes="0;0.459;0.486;0.973;1" values="none;inline;none;inline;inline"/></g><g display="none"><path fill="#D56871" stroke="#1A344F" stroke-width="2.5" stroke-linecap="round" stroke-linejoin="round" d="M414.4 278.4l-.1-.8q-9.3-1.1-22.8-1.3-6.4 0-16.3.8l-3.5.3-14.6 1.3-3.4.3q-9.4.4-17.4-.8l.1 47.5q7.5.6 16.6.2h.6l16.5-.9h.7q9.9-.6 18.3-.8h.3q13.2-.3 24.8.7l.2-.9v-45.7"/><animate attributeName="display" repeatCount="indefinite" dur="1.85s" keyTimes="0;0.432;0.459;0.946;0.973;1" values="none;inline;none;inline;none;none"/></g><g display="none"><path fill="#D56871" stroke="#1A344F" stroke-width="2.5" stroke-linecap="round" stroke-linejoin="round" d="M414.5 278l-.3-.6q-9.3-.6-22.8-.8-6.3 0-16.2.5l-3.5.2-14.7 1-3.3.2q-9.4.4-17.4-.4l.1 47.5q7.4.2 16.5 0h.7q3.5-.2 16.5-.4h.7l18.3-.6h.3q13-.3 24.7 0l.4-.8V278"/><animate attributeName="display" repeatCount="indefinite" dur="1.85s" keyTimes="0;0.405;0.432;0.919;0.946;1" values="none;inline;none;inline;none;none"/></g><g display="none"><path fill="#D56871" stroke="#1A344F" stroke-width="2.5" stroke-linecap="round" stroke-linejoin="round" d="M414.6 277.7l-.5-.5-22.7-.2-16.2.2h-3.6l-14.6.7q-1.8 0-3.3.2-9.3.3-17.4 0l.1 47.5 16.5-.3h17.9q9.9.1 18.4-.2h.3q12.6-.3 24.6-.8l.4-.7v-45.9"/><animate attributeName="display" repeatCount="indefinite" dur="1.85s" keyTimes="0;0.378;0.405;0.892;0.919;1" values="none;inline;none;inline;none;none"/></g><g display="none"><path fill="#D56871" stroke="#1A344F" stroke-width="2.5" stroke-linecap="round" stroke-linejoin="round" d="M414.6 277.4l-.5-.3q-9.6.4-22.8.2l-16.2-.1h-3.6q-9.2 0-14.5.2l-3.4.2-17.3.5.1 47.5q7.5-.6 16.4-.6h.7l16.5.5h.7q10 .3 18.4.1h.4q12.4-.5 24.4-1.6l.6-.6.1-46"/><animate attributeName="display" repeatCount="indefinite" dur="1.85s" keyTimes="0;0.351;0.378;0.865;0.892;1" values="none;inline;none;inline;none;none"/></g><g display="none"><path fill="#D56871" stroke="#1A344F" stroke-width="2.5" stroke-linecap="round" stroke-linejoin="round" d="M414.7 277.1l-.6-.2q-9.8 1-22.8.8l-16.2-.4-3.6-.2q-9.3-.2-14.5-.1l-3.4.2q-9 .3-17.3 1v47.4q7.7-1 16.5-.8l.7-.1q3.1 0 16.5 1h.7q10 .7 18.4.3h.4q12.1-.4 24.4-2.2l.6-.6.2-46.1"/><animate attributeName="display" repeatCount="indefinite" dur="1.85s" keyTimes="0;0.324;0.351;0.838;0.865;1" values="none;inline;none;inline;none;none"/></g><g display="none"><path fill="#D56871" stroke="#1A344F" stroke-width="2.5" stroke-linecap="round" stroke-linejoin="round" d="M414.8 276.8l-.8-.1q-9.8 1.4-22.7 1.4-6.3-.2-16.3-.9l-3.5-.2q-9.3-.5-14.6-.4l-3.2.1q-9 .3-17.4 1.5v47.4q7.7-1.5 16.4-1.2h.8q3 .1 16.5 1.5h.7q10 .9 18.4.6h.4q12-.5 24.3-3l.8-.5.1-46.2"/><animate attributeName="display" repeatCount="indefinite" dur="1.85s" keyTimes="0;0.297;0.324;0.811;0.838;1" values="none;inline;none;inline;none;none"/></g><g display="none"><path fill="#D56871" stroke="#1A344F" stroke-width="2.5" stroke-linecap="round" stroke-linejoin="round" d="M414.8 276.4l-.8.2q-10 1.9-22.8 1.8-6.3-.1-16.1-1.1l-3.7-.3q-9.2-.9-14.4-.9l-3.4.1q-8.8.3-17.3 2v47.3q7.8-1.8 16.4-1.4h.8q2.8.2 16.4 1.9h.8q10.1 1.3 18.3 1h.5q11.7-.6 24.3-3.8l.8-.3.2-46.5"/><animate attributeName="display" repeatCount="indefinite" dur="1.85s" keyTimes="0;0.27;0.297;0.784;0.811;1" values="none;inline;none;inline;none;none"/></g><g display="none"><path fill="#D56871" stroke="#1A344F" stroke-width="2.5" stroke-linecap="round" stroke-linejoin="round" d="M357 275.8q-10.6-.2-20.7 2.3v47.4q8.1-2.3 17.1-1.7 2.5.2 16.4 2.3 10.7 1.6 19.3 1.3 12-.5 25.5-4.8l.3-46.5q-10.5 2.7-21.3 2.7-6.6 0-18.4-1.5-12-1.5-18.2-1.6"/><animate attributeName="display" repeatCount="indefinite" dur="1.85s" keyTimes="0;0.243;0.27;0.757;0.784;1" values="none;inline;none;inline;none;none"/></g><g display="none"><path fill="#D56871" stroke="#1A344F" stroke-width="2.5" stroke-linecap="round" stroke-linejoin="round" d="M353.8 276.3q-9 .3-17.5 1.9v47.4q7.7-1.9 16.4-1.5h.8q2.6.2 16.4 1.9h.7q10.2 1.2 18.5.9 11.8-.4 24.6-3.6l.9-.4q.2-30.1-.3-46.4-10.1 2-22.8 1.9-6.3-.2-16.3-1.1l-3.6-.3q-9.4-.8-14.6-.8l-3.2.1"/><animate attributeName="display" repeatCount="indefinite" dur="1.85s" keyTimes="0;0.216;0.243;0.73;0.757;1" values="none;inline;none;inline;none;none"/></g><g display="none"><path fill="#D56871" stroke="#1A344F" stroke-width="2.5" stroke-linecap="round" stroke-linejoin="round" d="M353.8 276.8q-9.1.3-17.5 1.4v47.4q7.7-1.4 16.4-1.2l.8.1q2.9 0 16.4 1.3h.7q10.2.9 18.6.6 12-.4 24.6-2.8l.8-.5q.2-29.2-.2-46.5-10.2 1.5-22.9 1.4-6.3-.1-16.3-.7l-3.5-.2q-9.4-.5-14.6-.4l-3.3.1"/><animate attributeName="display" repeatCount="indefinite" dur="1.85s" keyTimes="0;0.189;0.216;0.703;0.73;1" values="none;inline;none;inline;none;none"/></g><g display="none"><path fill="#D56871" stroke="#1A344F" stroke-width="2.5" stroke-linecap="round" stroke-linejoin="round" d="M353.8 277.3q-9.2.3-17.5.8v47.5q7.6-.9 16.5-.8h.7q3 0 16.4.8h.8q10.1.6 18.5.3 12.3-.4 24.6-2l.8-.6q.1-28.3-.3-46.4-10.1.8-22.7.7l-16.4-.4-3.5-.1H357l-3.2.2"/><animate attributeName="display" repeatCount="indefinite" dur="1.85s" keyTimes="0;0.162;0.189;0.676;0.703;1" values="none;inline;none;inline;none;none"/></g><g display="none"><path fill="#D56871" stroke="#1A344F" stroke-width="2.5" stroke-linecap="round" stroke-linejoin="round" d="M353.8 277.8q-9.3.4-17.5.3l.1 47.5q7.5-.5 16.4-.5h.8l16.4.4h.7q10.1.2 18.6-.1 12.5-.4 24.6-1.2l.6-.6q.1-27.5-.1-46.5l-22.8.1h-19.9l-14.7.4-3.2.2"/><animate attributeName="display" repeatCount="indefinite" dur="1.85s" keyTimes="0;0.135;0.162;0.649;0.676;1" values="none;inline;none;inline;none;none"/></g><g display="none"><path fill="#D56871" stroke="#1A344F" stroke-width="2.5" stroke-linecap="round" stroke-linejoin="round" d="M353.8 278.3q-9.4.4-17.5-.1l.1 47.4 16.5-.1h.7l16.5-.2h.7l18.4-.4 24.8-.4.5-.7-.1-46.5q-10.1-.5-22.8-.5-6.5 0-16.4.4l-3.5.1-14.6.8-3.4.2"/><animate attributeName="display" repeatCount="indefinite" dur="1.85s" keyTimes="0;0.108;0.135;0.622;0.649;1" values="none;inline;none;inline;none;none"/></g><g display="none"><path fill="#D56871" stroke="#1A344F" stroke-width="2.5" stroke-linecap="round" stroke-linejoin="round" d="M353.8 278.8q-9.5.5-17.5-.7l.1 47.5q7.4.5 16.5.2h.7l16.5-.7h.7l18.5-.8q13.1-.2 24.8.5l.3-.8v-46.5q-10.2-1.1-22.9-1.1-6.4 0-16.3.8l-3.5.2-14.6 1.1-3.4.3"/><animate attributeName="display" repeatCount="indefinite" dur="1.85s" keyTimes="0;0.081;0.108;0.595;0.622;1" values="none;inline;none;inline;none;none"/></g><g display="none"><path fill="#D56871" stroke="#1A344F" stroke-width="2.5" stroke-linecap="round" stroke-linejoin="round" d="M353.8 279.3q-9.6.5-17.5-1.1l.1 47.5q7.4.9 16.6.5l.6-.1 16.6-1.2h.7q9.8-.8 18.4-1 13.3-.3 24.8 1.2l.3-.9v-46.5q-10.1-1.7-22.8-1.6-6.5 0-16.3 1l-3.6.3q-9.4 1.2-14.6 1.6l-3.4.3"/><animate attributeName="display" repeatCount="indefinite" dur="1.85s" keyTimes="0;0.054;0.081;0.568;0.595;1" values="none;inline;none;inline;none;none"/></g><g display="none"><path fill="#D56871" stroke="#1A344F" stroke-width="2.5" stroke-linecap="round" stroke-linejoin="round" d="M353.8 279.8q-9.7.6-17.5-1.6l.2 47.5q7.2 1.4 16.5.8h.7q4-.3 16.5-1.7l.8-.1q9.7-1.1 18.4-1.3 13.6-.3 24.9 2l.1-1V278q-10.1-2.4-22.8-2.3-6.6 0-16.3 1.4l-3.5.5-14.7 1.9-3.4.3"/><animate attributeName="display" repeatCount="indefinite" dur="1.85s" keyTimes="0;0.027;0.054;0.541;0.568;1" values="none;inline;none;inline;none;none"/></g><g><path fill="#D56871" stroke="#1A344F" stroke-width="2.5" stroke-linecap="round" stroke-linejoin="round" d="M353.8 280.3q-9.8.6-17.5-2.1v47.4q7.2 1.9 16.8 1.2 3.7-.3 17.9-2.4 25.2-3.6 43.4 1.3V278q-11-3.2-22.8-2.9-7.7.3-19.8 2.5-13 2.3-18 2.6"/><animate attributeName="display" repeatCount="indefinite" dur="1.85s" keyTimes="0;0.027;0.514;0.541;1" values="inline;none;inline;none;none"/></g><g mask="url(#a)"><g display="none"><path fill="#FFF" stroke="#1A344F" stroke-width="2.5" stroke-linecap="round" stroke-linejoin="round" d="M353.8 279.9q-9.7.5-17.5-1.7l.2 47.5q7.2 1.4 16.5.8h.7q4-.3 16.5-1.8h.8q9.7-1.2 18.4-1.4 13.6-.2 24.9 2.1l.1-1V278q-10.1-2.4-22.8-2.4-6.6.1-16.3 1.5l-3.5.5q-9.4 1.4-14.7 2l-3.4.2"/><animate attributeName="display" repeatCount="indefinite" dur="1.85s" keyTimes="0;0.486;0.514;1" values="none;inline;none;none"/></g><g display="none"><path fill="#FFF" stroke="#1A344F" stroke-width="2.5" stroke-linecap="round" stroke-linejoin="round" d="M414.4 278.6l-.1-.9q-9.2-1.5-22.8-1.7-6.4 0-16.3 1.1l-3.5.3q-9.2 1.3-14.6 1.8l-3.4.2q-9.5.5-17.4-1.3l.2 47.5q7.3 1.1 16.4.6h.7l16.6-1.4h.7q9.7-.9 18.3-1h.2q13.4-.3 24.8 1.3l.2-.9v-45.6"/><animate attributeName="display" repeatCount="indefinite" dur="1.85s" keyTimes="0;0.459;0.486;0.973;1" values="none;inline;none;inline;inline"/></g><g display="none"><path fill="#FFF" stroke="#1A344F" stroke-width="2.5" stroke-linecap="round" stroke-linejoin="round" d="M414.4 278.4l-.1-.8q-9.3-1.1-22.8-1.3-6.4 0-16.3.8l-3.5.3-14.6 1.3-3.4.3q-9.4.4-17.4-.8l.1 47.5q7.5.6 16.6.2h.6l16.5-.9h.7q9.9-.6 18.3-.8h.3q13.2-.3 24.8.7l.2-.9v-45.7"/><animate attributeName="display" repeatCount="indefinite" dur="1.85s" keyTimes="0;0.432;0.459;0.946;0.973;1" values="none;inline;none;inline;none;none"/></g><g display="none"><path fill="#FFF" stroke="#1A344F" stroke-width="2.5" stroke-linecap="round" stroke-linejoin="round" d="M414.5 278l-.3-.6q-9.3-.6-22.8-.8-6.3 0-16.2.5l-3.5.2-14.7 1-3.3.2q-9.4.4-17.4-.4l.1 47.5q7.4.2 16.5 0h.7q3.5-.2 16.5-.4h.7l18.3-.6h.3q13-.3 24.7 0l.4-.8V278"/><animate attributeName="display" repeatCount="indefinite" dur="1.85s" keyTimes="0;0.405;0.432;0.919;0.946;1" values="none;inline;none;inline;none;none"/></g><g display="none"><path fill="#FFF" stroke="#1A344F" stroke-width="2.5" stroke-linecap="round" stroke-linejoin="round" d="M414.6 277.7l-.5-.5-22.7-.2-16.2.2h-3.6l-14.6.7q-1.8 0-3.3.2-9.3.3-17.4 0l.1 47.5 16.5-.3h17.9q9.9.1 18.4-.2h.3q12.6-.3 24.6-.8l.4-.7v-45.9"/><animate attributeName="display" repeatCount="indefinite" dur="1.85s" keyTimes="0;0.378;0.405;0.892;0.919;1" values="none;inline;none;inline;none;none"/></g><g display="none"><path fill="#FFF" stroke="#1A344F" stroke-width="2.5" stroke-linecap="round" stroke-linejoin="round" d="M414.6 277.4l-.5-.3q-9.6.4-22.8.2l-16.2-.1h-3.6q-9.2 0-14.5.2l-3.4.2-17.3.5.1 47.5q7.5-.6 16.4-.6h.7l16.5.5h.7q10 .3 18.4.1h.4q12.4-.5 24.4-1.6l.6-.6.1-46"/><animate attributeName="display" repeatCount="indefinite" dur="1.85s" keyTimes="0;0.351;0.378;0.865;0.892;1" values="none;inline;none;inline;none;none"/></g><g display="none"><path fill="#FFF" stroke="#1A344F" stroke-width="2.5" stroke-linecap="round" stroke-linejoin="round" d="M414.7 277.1l-.6-.2q-9.8 1-22.8.8l-16.2-.4-3.6-.2q-9.3-.2-14.5-.1l-3.4.2q-9 .3-17.3 1v47.4q7.7-1 16.5-.8l.7-.1q3.1 0 16.5 1h.7q10 .7 18.4.3h.4q12.1-.4 24.4-2.2l.6-.6.2-46.1"/><animate attributeName="display" repeatCount="indefinite" dur="1.85s" keyTimes="0;0.324;0.351;0.838;0.865;1" values="none;inline;none;inline;none;none"/></g><g display="none"><path fill="#FFF" stroke="#1A344F" stroke-width="2.5" stroke-linecap="round" stroke-linejoin="round" d="M414.8 276.8l-.8-.1q-9.8 1.4-22.7 1.4-6.3-.2-16.3-.9l-3.5-.2q-9.3-.5-14.6-.4l-3.2.1q-9 .3-17.4 1.5v47.4q7.7-1.5 16.4-1.2h.8q3 .1 16.5 1.5h.7q10 .9 18.4.6h.4q12-.5 24.3-3l.8-.5.1-46.2"/><animate attributeName="display" repeatCount="indefinite" dur="1.85s" keyTimes="0;0.297;0.324;0.811;0.838;1" values="none;inline;none;inline;none;none"/></g><g display="none"><path fill="#FFF" stroke="#1A344F" stroke-width="2.5" stroke-linecap="round" stroke-linejoin="round" d="M414.8 276.4l-.8.2q-10 1.9-22.8 1.8-6.3-.1-16.1-1.1l-3.7-.3q-9.2-.9-14.4-.9l-3.4.1q-8.8.3-17.3 2v47.3q7.8-1.8 16.4-1.4h.8q2.8.2 16.4 1.9h.8q10.1 1.3 18.3 1h.5q11.7-.6 24.3-3.8l.8-.3.2-46.5"/><animate attributeName="display" repeatCount="indefinite" dur="1.85s" keyTimes="0;0.27;0.297;0.784;0.811;1" values="none;inline;none;inline;none;none"/></g><g display="none"><path fill="#FFF" stroke="#1A344F" stroke-width="2.5" stroke-linecap="round" stroke-linejoin="round" d="M357 275.8q-10.6-.2-20.7 2.3v47.4q8.1-2.3 17.1-1.7 2.5.2 16.4 2.3 10.7 1.6 19.3 1.3 12-.5 25.5-4.8l.3-46.5q-10.5 2.7-21.3 2.7-6.6 0-18.4-1.5-12-1.5-18.2-1.6"/><animate attributeName="display" repeatCount="indefinite" dur="1.85s" keyTimes="0;0.243;0.27;0.757;0.784;1" values="none;inline;none;inline;none;none"/></g><g display="none"><path fill="#FFF" stroke="#1A344F" stroke-width="2.5" stroke-linecap="round" stroke-linejoin="round" d="M353.8 276.3q-9 .3-17.5 1.9v47.4q7.7-1.9 16.4-1.5h.8q2.6.2 16.4 1.9h.7q10.2 1.2 18.5.9 11.8-.4 24.6-3.6l.9-.4q.2-30.1-.3-46.4-10.1 2-22.8 1.9-6.3-.2-16.3-1.1l-3.6-.3q-9.4-.8-14.6-.8l-3.2.1"/><animate attributeName="display" repeatCount="indefinite" dur="1.85s" keyTimes="0;0.216;0.243;0.73;0.757;1" values="none;inline;none;inline;none;none"/></g><g display="none"><path fill="#FFF" stroke="#1A344F" stroke-width="2.5" stroke-linecap="round" stroke-linejoin="round" d="M353.8 276.8q-9.1.3-17.5 1.4v47.4q7.7-1.4 16.4-1.2l.8.1q2.9 0 16.4 1.3h.7q10.2.9 18.6.6 12-.4 24.6-2.8l.8-.5q.2-29.2-.2-46.5-10.2 1.5-22.9 1.4-6.3-.1-16.3-.7l-3.5-.2q-9.4-.5-14.6-.4l-3.3.1"/><animate attributeName="display" repeatCount="indefinite" dur="1.85s" keyTimes="0;0.189;0.216;0.703;0.73;1" values="none;inline;none;inline;none;none"/></g><g display="none"><path fill="#FFF" stroke="#1A344F" stroke-width="2.5" stroke-linecap="round" stroke-linejoin="round" d="M353.8 277.3q-9.2.3-17.5.8v47.5q7.6-.9 16.5-.8h.7q3 0 16.4.8h.8q10.1.6 18.5.3 12.3-.4 24.6-2l.8-.6q.1-28.3-.3-46.4-10.1.8-22.7.7l-16.4-.4-3.5-.1H357l-3.2.2"/><animate attributeName="display" repeatCount="indefinite" dur="1.85s" keyTimes="0;0.162;0.189;0.676;0.703;1" values="none;inline;none;inline;none;none"/></g><g display="none"><path fill="#FFF" stroke="#1A344F" stroke-width="2.5" stroke-linecap="round" stroke-linejoin="round" d="M353.8 277.8q-9.3.4-17.5.3l.1 47.5q7.5-.5 16.4-.5h.8l16.4.4h.7q10.1.2 18.6-.1 12.5-.4 24.6-1.2l.6-.6q.1-27.5-.1-46.5l-22.8.1h-19.9l-14.7.4-3.2.2"/><animate attributeName="display" repeatCount="indefinite" dur="1.85s" keyTimes="0;0.135;0.162;0.649;0.676;1" values="none;inline;none;inline;none;none"/></g><g display="none"><path fill="#FFF" stroke="#1A344F" stroke-width="2.5" stroke-linecap="round" stroke-linejoin="round" d="M353.8 278.3q-9.4.4-17.5-.1l.1 47.4 16.5-.1h.7l16.5-.2h.7l18.4-.4 24.8-.4.5-.7-.1-46.5q-10.1-.5-22.8-.5-6.5 0-16.4.4l-3.5.1-14.6.8-3.4.2"/><animate attributeName="display" repeatCount="indefinite" dur="1.85s" keyTimes="0;0.108;0.135;0.622;0.649;1" values="none;inline;none;inline;none;none"/></g><g display="none"><path fill="#FFF" stroke="#1A344F" stroke-width="2.5" stroke-linecap="round" stroke-linejoin="round" d="M353.8 278.8q-9.5.5-17.5-.7l.1 47.5q7.4.5 16.5.2h.7l16.5-.7h.7l18.5-.8q13.1-.2 24.8.5l.3-.8v-46.5q-10.2-1.1-22.9-1.1-6.4 0-16.3.8l-3.5.2-14.6 1.1-3.4.3"/><animate attributeName="display" repeatCount="indefinite" dur="1.85s" keyTimes="0;0.081;0.108;0.595;0.622;1" values="none;inline;none;inline;none;none"/></g><g display="none"><path fill="#FFF" stroke="#1A344F" stroke-width="2.5" stroke-linecap="round" stroke-linejoin="round" d="M353.8 279.3q-9.6.5-17.5-1.1l.1 47.5q7.4.9 16.6.5l.6-.1 16.6-1.2h.7q9.8-.8 18.4-1 13.3-.3 24.8 1.2l.3-.9v-46.5q-10.1-1.7-22.8-1.6-6.5 0-16.3 1l-3.6.3q-9.4 1.2-14.6 1.6l-3.4.3"/><animate attributeName="display" repeatCount="indefinite" dur="1.85s" keyTimes="0;0.054;0.081;0.568;0.595;1" values="none;inline;none;inline;none;none"/></g><g display="none"><path fill="#FFF" stroke="#1A344F" stroke-width="2.5" stroke-linecap="round" stroke-linejoin="round" d="M353.8 279.8q-9.7.6-17.5-1.6l.2 47.5q7.2 1.4 16.5.8h.7q4-.3 16.5-1.7l.8-.1q9.7-1.1 18.4-1.3 13.6-.3 24.9 2l.1-1V278q-10.1-2.4-22.8-2.3-6.6 0-16.3 1.4l-3.5.5-14.7 1.9-3.4.3"/><animate attributeName="display" repeatCount="indefinite" dur="1.85s" keyTimes="0;0.027;0.054;0.541;0.568;1" values="none;inline;none;inline;none;none"/></g><g><path fill="#FFF" stroke="#1A344F" stroke-width="2.5" stroke-linecap="round" stroke-linejoin="round" d="M353.8 280.3q-9.8.6-17.5-2.1v47.4q7.2 1.9 16.8 1.2 3.7-.3 17.9-2.4 25.2-3.6 43.4 1.3V278q-11-3.2-22.8-2.9-7.7.3-19.8 2.5-13 2.3-18 2.6"/><animate attributeName="display" repeatCount="indefinite" dur="1.85s" keyTimes="0;0.027;0.514;0.541;1" values="inline;none;inline;none;none"/></g></g><mask id="a"><g><path fill="#FFF" d="M395.6 269H356v67.5h39.5V269"/><animate attributeName="display" repeatCount="indefinite" dur="1.85s" keyTimes="0;1" values="inline;inline"/></g></mask><g transform="translate(375.5 301)"><animateTransform attributeName="transform" additive="replace" type="translate" dur="1.85s" keyTimes="0;1" values="0,0;0,0" fill="freeze"/><animateTransform attributeName="transform" additive="sum" type="translate" repeatCount="indefinite" dur="1.85s" keyTimes="0;0.027;0.054;0.081;0.108;0.135;0.162;0.189;0.216;0.243;0.27;0.297;0.324;0.351;0.378;0.405;0.432;0.459;0.486;0.514;0.541;0.568;0.595;0.622;0.649;0.676;0.703;0.73;0.757;0.783;0.784;1" values="375.5,301;375.5,301.15;375.5,301.35;375.5,301.5;375.5,301.65;375.5,301.85;375.5,302;375.5,302.15;375.5,302.35;375.5,302.5;375.5,302.35;375.5,302.2;375.5,302.05;375.5,301.9;375.5,301.75;375.5,301.6;375.5,301.45;375.5,301.3;375.5,301.15;375.5,301;375.5,301.15;375.5,301.35;375.5,301.5;375.5,301.65;375.5,301.85;375.5,302;375.5,302.15;375.5,302.35;375.5,302.5;375.5,302.35;0;0" calcMode="discrete"/><animateTransform attributeName="transform" additive="sum" type="translate" repeatCount="indefinite" dur="1.85s" keyTimes="0;0.784;0.811;0.838;0.865;0.892;0.919;0.946;0.973;1" values="0;375.5,302.35;375.5,302.2;375.5,302.05;375.5,301.9;375.5,301.75;375.5,301.6;375.5,301.45;375.5,301.3;375.5,301.15" calcMode="discrete"/><path fill="#D56871" d="M6-12.7l-1.9 1q-.9.7-1.3-.1L0-17l-2.7 5.2q-.4.7-1.3.1l-2-1 1.5 7.9q.2 1-.3 1.2-.4.2-.9-.3l-3.3-4-.6 2q-.1.6-.7.5l-4.3-1 1.1 4.3.3 1q-.1.4-.5.6l-1.5.7 7.3 6.2q.5.4.3 1l-.6 2.2 7.3-.8.4.1.2.3-.4 8H.7l-.2-8 .2-.3q.2-.2.3-.1l7.3.8-.6-2.2q-.2-.6.3-1L15.3.2l-1.5-.7q-.4-.2-.5-.6l.3-1 1-4.2-4.2.9q-.6.1-.7-.5l-.6-2-3.3 4q-.4.5-.9.3t-.3-1.2l1.5-7.9"/></g><g display="none"><path fill="#1A344F" d="M195.7 141.6q0-6-3-9.3-3-3.3-8.6-3.3-5.8 0-8.8 3.3-3 3.3-3 9.3v25.9q0 6 3 9.3 3 3.2 8.8 3.2 5.7 0 8.7-3.2 2.9-3.3 2.9-9.3v-6.6h-7.4v7q0 4.9-4 4.9t-4.1-4.8v-27q0-4.8 4-4.8t4.1 4.9v5.3h7.4v-4.8m28.2-.5q0-5.8-2.8-8.6-2.8-2.9-8.8-2.9h-11.9v49.8h7.9v-20.2h2.7q2.7 0 3.9 1.4 1.2 1.5 1.2 4.9v7.8q0 2.7.2 4.1l.5 2h8q-.9-2-.9-6v-7.7q0-4.1-1.1-6.6-1.3-2.8-4-4v-.1q5-2.4 5-10v-4m-7.8 5.8q0 2.8-1.2 4.1-1.2 1.1-3.5 1.1h-3v-15.2h3.7q2.1 0 3.1 1.1 1 1.3 1 4v4.8m36-17.1h-7.4v38.5q0 4.8-4.1 4.8t-4.1-4.8v-38.5h-7.8v38q0 6 3 9.2 3 3.3 8.6 3.3 5.8 0 8.8-3.3 3-3.3 3-9.3v-37.9m29.3 12.3q0-6-2.9-9.1-3-3.2-8.8-3.2h-12.3v49.8h12.4q5.7 0 8.7-3.2 2.9-3.1 2.9-9.1v-25.2m-7.8-.4v26q0 4.8-4 4.8h-4.4v-35.6h4.4q2 0 2.9 1.1 1 1.2 1 3.7m20.7 9.1v-13.8h13.5v-7.2h-21.4v49.8h21.4v-7.1h-13.5v-14.6H305v-7.1h-10.8m49.4 26.2q3.1-3.4 3.1-9.4v-25.9q0-6-3-9.2-3.2-3.3-8.9-3.3t-8.8 3.3q-3 3.2-3 9.2v26q0 6 3 9.2 3 3.3 8.8 3.3 5.7 0 8.8-3.3m-4.8-35.6V168q0 4.9-4 4.9t-4-5v-26.8q0-5 4-5t4 5m20.8-11.5h-7.9v49.8h7.9v-49.8m13.4 42.7v-42.7h-7.7v49.8h20.6v-7.1h-12.8m-195.9 18.4h-3.4v39.7q0 6 2.6 9.4 2.9 3.9 8.7 3.9 5.7 0 8.6-3.9 2.5-3.4 2.5-9.4v-39.7H193v39.9q0 4.5-1.8 7-2 3-6.1 3t-6.1-3q-1.8-2.5-1.8-7v-39.9m29.7 3.2q-2.8 3.3-2.8 9.4 0 4.9 3 8.7 1.9 2.4 6.5 5.8 5 3.6 6.6 5.4 3 3.4 3 7.6 0 9.6-8 9.6t-8-9.6v-3H204v2.7q0 6.1 2.6 9.5 2.9 3.7 8.7 3.7 5.8 0 8.7-3.7 2.6-3.4 2.6-9.5 0-4.8-3-8.6-1.8-2.4-6.5-5.8-4.9-3.5-6.5-5.4-3-3.4-3-7.6 0-4.5 1.8-7 2-2.7 6-2.7 4.1 0 6.1 2.8 1.8 2.5 1.8 7v1.3h3.3v-1.1q0-6-2.6-9.4-3-3.8-8.6-3.8-5.7.1-8.5 3.6m50.7 10q0-6.1-2.8-9.5-3-3.6-8.8-3.6h-11.6v52.5H246q5.8 0 8.8-3.6 2.8-3.4 2.8-9.4v-26.4m-11.7-10q4.2 0 6.3 2.7 2 2.6 2 7.1v26.8q0 4.5-2 7-2.1 2.7-6.3 2.7h-8v-46.3h8m42.5-3.1h-3.1l-20.8 52.5h3.2l20.7-52.5m18.4-.4q-5.8 0-8.8 3.7-2.6 3.5-2.6 9.6v26.8q0 6 2.7 9.5 2.9 3.8 8.6 3.8 5.8 0 8.7-3.8 2.6-3.5 2.6-9.5v-6h-3.3v6.3q0 4.5-1.8 7-2 2.8-6.1 2.8t-6.2-2.8q-1.8-2.5-1.8-7v-27.4q0-4.5 1.8-7 2.1-2.9 6.2-2.9t6.1 2.9q1.8 2.5 1.8 7v4.6h3.3v-4.3q0-6.1-2.6-9.5-2.9-3.8-8.7-3.8m35 .3h-5l-11.5 52.7h3.1l2.7-11.7h16.4l2.6 11.7h3.4l-11.7-52.7m5.1 38h-15.3l7.6-34 7.7 34m25.6-37.9H361v52.5h11.6q5.8 0 8.8-3.6 2.8-3.4 2.8-9.4v-26.4q0-6.1-2.8-9.5-3-3.6-8.9-3.6m0 3.1q4.2 0 6.3 2.7 2 2.6 2 7.1v26.8q0 4.5-2 7-2.1 2.7-6.3 2.7h-8v-46.3h8"/><animate attributeName="display" repeatCount="indefinite" dur="1.85s" keyTimes="0;0.514;1" values="none;inline;inline"/></g><g><path fill="#1A344F" d="M195.7 141.6q0-6-3-9.3-3-3.3-8.6-3.3-5.8 0-8.8 3.3-3 3.3-3 9.3v25.9q0 6 3 9.3 3 3.2 8.8 3.2 5.7 0 8.7-3.2 2.9-3.3 2.9-9.3v-6.6h-7.4v7q0 4.9-4 4.9t-4.1-4.8v-27q0-4.8 4-4.8t4.1 4.9v5.3h7.4v-4.8m28.2-.5q0-5.8-2.8-8.6-2.8-2.9-8.8-2.9h-11.9v49.8h7.9v-20.2h2.7q2.7 0 3.9 1.4 1.2 1.5 1.2 4.9v7.8q0 2.7.2 4.1l.5 2h8q-.9-2-.9-6v-7.7q0-4.1-1.1-6.6-1.3-2.8-4-4v-.1q5-2.4 5-10v-4m-9 9.9q-1.2 1.1-3.5 1.1h-3v-15.2h3.7q2.1 0 3.1 1.1 1 1.3 1 4v4.8q0 2.9-1.3 4.2m37.3-21.3h-7.4v38.5q0 4.8-4.1 4.8t-4.1-4.8v-38.5h-7.8v38q0 6 3 9.2 3 3.3 8.6 3.3 5.8 0 8.8-3.3 3-3.3 3-9.3v-37.9m29.3 12.3q0-6-2.9-9.1-3-3.2-8.8-3.2h-12.3v49.8h12.4q5.7 0 8.7-3.2 2.9-3.1 2.9-9.1v-25.2m-7.8-.4v26q0 4.8-4 4.8h-4.4v-35.6h4.4q2 0 2.9 1.1 1 1.2 1 3.7m20.7 9.1v-13.8h13.5v-7.2h-21.4v49.8h21.4v-7.1h-13.5v-14.6H305v-7.1h-10.8m49.4 26.2q3.1-3.4 3.1-9.4v-25.9q0-6-3-9.2-3.2-3.3-8.9-3.3t-8.8 3.3q-3 3.2-3 9.2v26q0 6 3 9.2 3 3.3 8.8 3.3 5.7 0 8.8-3.3m-4.8-35.6V168q0 4.9-4 4.9t-4-5v-26.8q0-5 4-5t4 5m20.8-11.5h-7.9v49.8h7.9v-49.8m13.4 42.7v-42.7h-7.7v49.8h20.6v-7.1h-12.8m-195.9 18.4h-3.4v39.7q0 6 2.6 9.4 2.9 3.9 8.7 3.9 5.7 0 8.6-3.9 2.5-3.4 2.5-9.4v-39.7H193v39.9q0 4.5-1.8 7-2 3-6.1 3t-6.1-3q-1.8-2.5-1.8-7v-39.9m29.7 3.2q-2.8 3.3-2.8 9.4 0 4.9 3 8.7 1.9 2.4 6.5 5.8 5 3.6 6.6 5.4 3 3.4 3 7.6 0 9.6-8 9.6t-8-9.6v-3H204v2.7q0 6.1 2.6 9.5 2.9 3.7 8.7 3.7 5.8 0 8.7-3.7 2.6-3.4 2.6-9.5 0-4.8-3-8.6-1.8-2.4-6.5-5.8-4.9-3.5-6.5-5.4-3-3.4-3-7.6 0-4.5 1.8-7 2-2.7 6-2.7 4.1 0 6.1 2.8 1.8 2.5 1.8 7v1.3h3.3v-1.1q0-6-2.6-9.4-3-3.8-8.6-3.8-5.7.1-8.5 3.6m50.7 10q0-6.1-2.8-9.5-3-3.6-8.8-3.6h-11.6v52.5H246q5.8 0 8.8-3.6 2.8-3.4 2.8-9.4v-26.4m-11.7-10q4.2 0 6.3 2.7 2 2.6 2 7.1v26.8q0 4.5-2 7-2.1 2.7-6.3 2.7h-8v-46.3h8m42.5-3.1h-3.1l-20.8 52.5h3.2l20.7-52.5m18.4-.4q-5.8 0-8.8 3.7-2.6 3.5-2.6 9.6v26.8q0 6 2.7 9.5 2.9 3.8 8.6 3.8 5.8 0 8.7-3.8 2.6-3.5 2.6-9.5v-6h-3.3v6.3q0 4.5-1.8 7-2 2.8-6.1 2.8t-6.2-2.8q-1.8-2.5-1.8-7v-27.4q0-4.5 1.8-7 2.1-2.9 6.2-2.9t6.1 2.9q1.8 2.5 1.8 7v4.6h3.3v-4.3q0-6.1-2.6-9.5-2.9-3.8-8.7-3.8m35 .3h-5l-11.5 52.7h3.1l2.7-11.7h16.4l2.6 11.7h3.4l-11.7-52.7m5.1 38h-15.3l7.6-34 7.7 34m25.6-37.9H361v52.5h11.6q5.8 0 8.8-3.6 2.8-3.4 2.8-9.4v-26.4q0-6.1-2.8-9.5-3-3.6-8.9-3.6m0 3.1q4.2 0 6.3 2.7 2 2.6 2 7.1v26.8q0 4.5-2 7-2.1 2.7-6.3 2.7h-8v-46.3h8"/><animate attributeName="display" repeatCount="indefinite" dur="1.85s" keyTimes="0;0.514;1" values="inline;none;none"/></g><g transform="translate(418 220.8)"><animateTransform attributeName="transform" additive="replace" type="translate" repeatCount="indefinite" dur="1.85s" keyTimes="0;0.486;0.514;0.541;0.568;0.595;0.622;0.649;0.676;0.703;0.73;0.757;0.784;0.811;0.838;0.865;0.892;0.919;0.946;0.973;1" values="418,220.85;418,220.85;418,219.85;418,218.85;418,217.85;418,216.85;418,215.85;418,217.4;418,219;418,220.55;418,222.1;418,223.65;418,225.25;418,226.8;418,228.35;418,227.15;418,225.85;418,224.6;418,223.35;418,222.15;418,220.85" calcMode="discrete"/><animateTransform attributeName="transform" additive="sum" type="scale" repeatCount="indefinite" dur="1.85s" keyTimes="0;0.622;0.649;0.676;0.703;0.73;0.757;0.784;0.811;0.838;0.865;0.892;0.919;0.946;0.973;1" values="1,1;1,1;1,1.019;1,1.038;1,1.056;1,1.075;1,1.094;1,1.113;1,1.131;1,1.15;1,1.125;1,1.1;1,1.075;1,1.05;1,1.025;1,1" calcMode="discrete"/><path fill="none" stroke="#E5E9ED" stroke-width="6" stroke-linecap="round" stroke-linejoin="round" d="M-1 17.8L-9.8 9m8.8 8.8v-35.5m0 35.5l8.8-8.9"/><path fill="none" stroke="#D56871" stroke-width="6" stroke-linecap="round" stroke-linejoin="round" d="M1 17.8v-35.4m0 35.4l-8.7-8.7m8.8 8.7L9.8 9"/></g><g transform="translate(419 148)"><animateTransform attributeName="transform" additive="replace" type="translate" repeatCount="indefinite" dur="1.85s" keyTimes="0;0.027;0.054;0.081;0.108;0.135;0.162;0.189;0.216;0.243;0.27;0.297;0.324;0.351;0.378;0.405;0.432;0.459;0.486;0.514;1" values="419,148.05;419,149.05;419,150.05;419,151.05;419,152.05;419,153.05;419,151.5;419,149.95;419,148.35;419,146.8;419,145.25;419,143.7;419,142.1;419,140.55;419,141.85;419,143.1;419,144.35;419,145.6;419,146.8;419,148.05;419,148.05" calcMode="discrete"/><animateTransform attributeName="transform" additive="sum" type="scale" repeatCount="indefinite" dur="1.85s" keyTimes="0;0.135;0.162;0.189;0.216;0.243;0.27;0.297;0.324;0.351;0.378;0.405;0.432;0.459;0.486;0.514;1" values="1,1;1,1;1,1.019;1,1.038;1,1.056;1,1.075;1,1.094;1,1.113;1,1.131;1,1.15;1,1.125;1,1.1;1,1.075;1,1.05;1,1.025;1,1;1,1" calcMode="discrete"/><path fill="none" stroke="#E5E9ED" stroke-width="6" stroke-linecap="round" stroke-linejoin="round" d="M-1-17.8L-9.8-9m8.8-8.8l8.8 8.9M-1-17.8v35.4"/><path fill="none" stroke="#99C978" stroke-width="6" stroke-linecap="round" stroke-linejoin="round" d="M0-17.1v34.4m0-34.4l8.1 8m-8-8l-8.1 8"/></g></g></svg>