<svg xmlns="http://www.w3.org/2000/svg" image-rendering="optimizeQuality" baseProfile="basic" width="695" height="469" viewBox="0 0 695 469" preserveAspectRatio="xMinYMin meet"><g overflow="visible"><path fill="#9E7284" d="M694.6 470.8V.8H351.7v470h343"/><path fill="#FBF2C4" d="M351.7.9H-.6v470h352.3V.9"/><g transform="matrix(.996 0 0 .996 351.8 470.8)"><animateTransform attributeName="transform" additive="replace" type="translate" repeatCount="indefinite" dur="4.95s" keyTimes="0;0.404;0.414;0.424;0.434;0.455;0.465;0.899;0.909;0.919;0.929;0.939;1" values="351.75,470.75;351.75,470.75;351.75,470.8;351.75,470.75;351.75,470.8;351.75,470.8;351.75,470.75;351.75,470.75;351.75,470.7;351.7,470.75;351.8,470.75;351.75,470.75;351.75,470.75" calcMode="discrete"/><animateTransform attributeName="transform" additive="sum" type="rotate" repeatCount="indefinite" dur="4.95s" keyTimes="0;0.313;0.343;0.354;0.364;0.374;0.384;0.394;0.404;0.414;0.424;0.434;0.444;0.455;0.465;0.475;0.485;0.495;0.848;0.859;0.869;0.879;0.889;0.899;0.909;0.919;0.929;0.939;0.949;0.959;0.96;1" values="0;0,0,0;0,0,0;-23.078,0,0;-44.855,0,0;-64.916,0,0;-83.235,0,0;-99.817,0,0;-115.084,0,0;-128.835,0,0;-140.875,0,0;-151.194,0,0;-159.978,0,0;-167.228,0,0;-172.946,0,0;-176.949,0,0;-179.238,0,0;-180,0,0;-180,0,0;-203.078,0,0;-224.855,0,0;-244.916,0,0;-263.235,0,0;-279.817,0,0;-295.083,0,0;-308.836,0,0;-320.875,0,0;-331.194,0,0;-339.978,0,0;-347.229,0,0;0;0" calcMode="discrete"/><animateTransform attributeName="transform" additive="sum" type="rotate" repeatCount="indefinite" dur="4.95s" keyTimes="0;0.96;0.97;0.98;0.99;1" values="0;-347.229,0,0;-352.947,0,0;-356.949,0,0;-359.238,0,0;-360,0,0" calcMode="discrete"/><animateTransform attributeName="transform" additive="sum" type="scale" repeatCount="indefinite" dur="4.95s" keyTimes="0;0.343;0.354;0.364;0.374;0.384;0.394;0.404;0.434;0.444;0.455;0.465;0.475;0.848;0.859;0.869;0.879;0.889;0.899;0.909;0.939;0.949;0.959;0.96;1" values="0.996,0.996;0.996,0.996;0.994,0.994;0.993,0.993;0.993,0.993;0.995,0.995;0.995,0.995;0.993,0.993;0.993,0.993;0.994,0.994;0.995,0.995;0.995,0.995;0.996,0.996;0.996,0.996;0.994,0.994;0.993,0.993;0.993,0.993;0.995,0.995;0.995,0.995;0.993,0.993;0.993,0.993;0.994,0.994;0.995,0.995;1;1" calcMode="discrete"/><animateTransform attributeName="transform" additive="sum" type="scale" repeatCount="indefinite" dur="4.95s" keyTimes="0;0.96;0.97;0.98;1" values="1;0.995,0.995;0.995,0.995;0.996,0.996;0.996,0.996" calcMode="discrete"/><path fill="#FBF2C4" d="M16.4-602.2q-8-.3-16.3-.3-249.8 0-426.3 176.5Q-602.6-249.4-602.6.1t176.4 426.2q176.5 176.4 426 176.4 249.9 0 426.3-176.4 34-33.9 61.5-70.8Q602.4 201.9 602.6 1V.2q0-249.6-176.4-426.2Q255.4-596.6 16.4-602.2"/><path fill="#9E7284" d="M602.6 1V.2H-602.6q0 249.5 176.4 426.1 176.5 176.4 426 176.4 249.9 0 426.3-176.4 34-33.9 61.5-70.8Q602.4 201.9 602.6 1"/><path fill="#EBD089" d="M-145.8 343.9q6.6 0 12.3-3.3-5.6-3.3-8.9-8.9-3.4-5.8-3.4-12.5 0-6.8 3.4-12.6 3.3-5.6 9-8.8-5.9-3.3-12.4-3.3-10.2 0-17.5 7.2-7.2 7.2-7.2 17.5 0 10.2 7.2 17.4 7.3 7.3 17.5 7.3"/><path fill="none" stroke="#19344F" stroke-width="2.5" stroke-linecap="round" stroke-linejoin="round" d="M-145.8 343.9q6.6 0 12.3-3.3-5.6-3.3-8.9-8.9-3.4-5.8-3.4-12.5 0-6.8 3.4-12.6 3.3-5.6 9-8.8-5.9-3.3-12.4-3.3-10.2 0-17.5 7.2-7.2 7.2-7.2 17.5 0 10.2 7.2 17.4 7.3 7.3 17.5 7.3"/><path fill="#EBD089" d="M-92.2-298q-5-5-12-5t-12 5q-5 5-5 12t5 12q5 5 12 5t12-5q5-5 5-12t-5-12"/><path fill="none" stroke="#19344F" stroke-width="2.5" stroke-linecap="round" stroke-linejoin="round" d="M-92.2-298q-5-5-12-5t-12 5q-5 5-5 12t5 12q5 5 12 5t12-5q5-5 5-12t-5-12"/></g><path fill="#FFF" stroke="#19344F" stroke-width="2.5" stroke-linecap="round" stroke-linejoin="round" d="M536.3 150.7l7.4-2.8-9.7-7.9-19.4 2.6q-6.2 1-7 2.2-.9 1.3 1 6.5l27.7-.6"/><path fill="#FFF" d="M555 146.2q-1.5-7.6-7.4-12.5-6-5-14-5-8.2 0-13.6 3.7-5.8 3.8-7.1 11.2l42.1 2.6"/><path fill="none" stroke="#19344F" stroke-width="2.5" stroke-linecap="round" stroke-linejoin="round" d="M547.6 133.7q5.9 5 7.4 12.4m-7.4-12.4q-6-5-14-5-8.2 0-13.6 3.7-5.8 3.8-7.1 11.2"/><path fill="#FFF" d="M514.2 138.4q-5.3 0-9 3.8-3.8 3.8-3.8 9l21.6-9.4q-3.7-3.4-8.8-3.4"/><path fill="none" stroke="#19344F" stroke-width="2.5" stroke-linecap="round" stroke-linejoin="round" d="M505.1 142.2q3.8-3.8 9.1-3.8 5 0 8.8 3.4m-17.9.4q-3.7 3.8-3.7 9"/><path fill="#FFF" d="M505.9 147.4q-3.2-2.7-7.3-2.5-4.1.2-7 3.3-2.9 3-2.9 7.3 0 1.4 1 2.4t2.5 1h74.4q1 0 1.7-.7t.7-1.7v-1.8q0-5-3.5-8.5-3.5-3.6-8.5-3.6-3.7 0-6.8 2l-44.3 2.8"/><path fill="none" stroke="#19344F" stroke-width="2.5" stroke-linecap="round" stroke-linejoin="round" d="M498.6 145q4-.3 7.3 2.4m-7.3-2.5q-4.1.2-7 3.3-2.9 3-2.9 7.3 0 1.4 1 2.4t2.5 1h74.4q1 0 1.7-.7t.7-1.7v-1.8q0-5-3.5-8.5-3.5-3.6-8.5-3.6-3.7 0-6.8 2m-3-6.5l1.5 2"/><path fill="#FFF" d="M533.2 132l11.7 4q-2.5-1.8-5.3-2.8-3-1.1-6.4-1.1"/><path fill="none" stroke="#19344F" stroke-width="2.5" stroke-linecap="round" stroke-linejoin="round" d="M539.6 133.2q2.8 1 5.3 2.9m-5.3-2.9q-3-1.1-6.4-1.1"/><path fill="#FFF" stroke="#19344F" stroke-width="2.5" stroke-linecap="round" stroke-linejoin="round" d="M562.2 199.8l27.6-.6 7.5-2.8-9.8-7.9-19.3 2.6q-6.3.9-7.1 2.2-.9 1.4 1 6.5"/><path fill="#FFF" d="M573.5 180.9q-5.8 3.8-7.1 11.2l42.2 2.6q-1.6-7.6-7.6-12.5-6-5-13.8-5-8.4 0-13.7 3.7"/><path fill="none" stroke="#19344F" stroke-width="2.5" stroke-linecap="round" stroke-linejoin="round" d="M566.4 192.1q1.3-7.4 7-11.2 5.4-3.7 13.8-3.7 7.8 0 13.8 5 6 5 7.6 12.5"/><path fill="#FFF" d="M576.5 190.3q-3.7-3.4-8.7-3.4-5.3 0-9.1 3.8t-3.8 9l21.6-9.4"/><path fill="none" stroke="#19344F" stroke-width="2.5" stroke-linecap="round" stroke-linejoin="round" d="M567.8 186.9q5 0 8.7 3.4m-8.7-3.4q-5.3 0-9.1 3.8t-3.8 9"/><path fill="#FFF" d="M552 193.4q-4 .2-6.9 3.3-2.8 3-2.8 7.3 0 1.4 1 2.4t2.4 1h74.5q1 0 1.7-.7t.7-1.7v-1.8q0-5-3.6-8.6-3.5-3.5-8.5-3.5-3.7 0-6.8 2l-44.3 2.8q-3.2-2.7-7.3-2.5"/><path fill="none" stroke="#19344F" stroke-width="2.5" stroke-linecap="round" stroke-linejoin="round" d="M545.1 196.7q2.9-3 7-3.3 4.1-.2 7.3 2.5m-14.3.8q-2.8 3-2.8 7.3 0 1.4 1 2.4t2.4 1h74.5q1 0 1.7-.7t.7-1.7v-1.8q0-5-3.6-8.6-3.5-3.5-8.5-3.5-3.7 0-6.8 2m-3-6.5q.9 1 1.5 2"/><path fill="#FFF" d="M586.7 180.6l11.8 4q-2.5-2-5.4-2.9-3-1.1-6.4-1.1"/><path fill="none" stroke="#19344F" stroke-width="2.5" stroke-linecap="round" stroke-linejoin="round" d="M593.1 181.7q2.9 1 5.4 2.9m-5.4-2.9q-3-1.1-6.4-1.1"/><path fill="#FFF" stroke="#19344F" stroke-width="2.5" stroke-linecap="round" stroke-linejoin="round" d="M178.5 151.8l7.4-2.9-9.7-7.8-19.3 2.5q-6.3 1-7.1 2.3-.9 1.3 1 6.4l27.7-.5"/><path fill="#FFF" d="M162.2 133.4q-5.8 3.9-7.2 11.3l42.3 2.5q-1.6-7.5-7.5-12.5-6-5-14-5-8.3 0-13.6 3.7"/><path fill="none" stroke="#19344F" stroke-width="2.5" stroke-linecap="round" stroke-linejoin="round" d="M155 144.7q1.4-7.4 7.2-11.3 5.3-3.7 13.7-3.7 7.8 0 13.9 5 6 5 7.5 12.5"/><path fill="#FFF" d="M165.2 142.8q-3.7-3.4-8.7-3.4-5.3 0-9.1 3.8t-3.8 9.1l21.6-9.5"/><path fill="none" stroke="#19344F" stroke-width="2.5" stroke-linecap="round" stroke-linejoin="round" d="M156.5 139.4q5 0 8.7 3.4m-8.7-3.4q-5.3 0-9.1 3.8t-3.8 9.1"/><path fill="#FFF" d="M208.8 159.9q1 0 1.7-.7t.7-1.7v-1.8q0-5-3.5-8.6-3.6-3.5-8.5-3.5-3.7 0-6.8 2.1l-44.3 2.8q-3.1-2.7-7.3-2.5-4.1.2-7 3.2-2.8 3.1-2.8 7.3 0 1.5 1 2.4 1 1 2.4 1h74.4"/><path fill="none" stroke="#19344F" stroke-width="2.5" stroke-linecap="round" stroke-linejoin="round" d="M210.5 159.2q-.7.7-1.7.7h-74.4q-1.4 0-2.4-1t-1-2.4q0-4.2 2.8-7.3 2.9-3 7-3.2 4.2-.2 7.3 2.5m62.4 10.7q.7-.7.7-1.7v-1.8q0-5-3.5-8.6-3.6-3.5-8.5-3.5-3.7 0-6.8 2.1m-3-6.6q1 1.1 1.5 2"/><path fill="#FFF" d="M175.4 133.1l11.7 4q-2.5-2-5.3-2.9-3.1-1.1-6.4-1.1"/><path fill="none" stroke="#19344F" stroke-width="2.5" stroke-linecap="round" stroke-linejoin="round" d="M181.8 134.2q2.8 1 5.3 3m-5.3-3q-3.1-1.1-6.4-1.1"/><path fill="#EDEDED" fill-opacity=".4" d="M160.1 275.4q5.2 0 8.8 3.6 3.6 3.7 3.6 8.8h-24.8q0-5.1 3.6-8.8 3.7-3.6 8.8-3.6m-12.4 37.2v-24.8h24.8V313l9.5.1v3.3h-43.8v-4l9.5.1M138.2 323.6v-7.1H182v7.1h-43.8m3.8 0h36.2l.3 6.6H142h36.5l4.2 88.2h-45.2l.9-18.6.1-3.2.5-10.6 3-62.4"/><path fill="#CDEBEF" fill-opacity=".4" d="M139 386l-.5 10.6-1 3.2h-41l13.7-13.8H139"/><path fill="#EDEDED" fill-opacity=".4" d="M142 323.6h36.2l.3 6.6H142h36.5l4.2 88.2h-45.2l.9-18.6.1-3.2.5-10.6 3-62.4m13.2 50h8.6V386h-8.6v-12.4m0-31.8h8.6v12.4h-8.6v-12.4"/><path fill="#EDEDED" fill-opacity=".4" stroke-opacity=".4" stroke-width="2.5" stroke-linecap="round" stroke-linejoin="round" d="M155.2 373.6h8.6V386h-8.6v-12.4m0-31.8h8.6v12.4h-8.6v-12.4"/><path fill="#EDEDED" fill-opacity=".4" d="M138.4 399.8l-1 18.6h-41v-18.6h42"/><path fill="none" stroke="#19344F" stroke-opacity=".4" stroke-width="2.5" stroke-linecap="round" stroke-linejoin="round" d="M147.7 287.8q0-5.1 3.6-8.8m-3.6 8.8H142m5.7 24.8v-24.8m-9.5 28.7v-4m0 11.1v-7.1m3.8 7.1h-3.8m.8 62.4l3-62.4M110.2 386H139m-42.6 13.8l13.8-13.8m-13.8 32.4v-18.6m41 18.6h-41m86.3 0h-45.2m41-88.2l4.2 88.2m-4.5-94.8l.3 6.6m3.5-6.6h-3.8m3.8-7.1v7.1m0-10.4v3.3m-9.5-28.7V313m0-25.3h5.7m-9.3-8.8q3.6 3.7 3.6 8.8m-12.4-12.4q5.2 0 8.8 3.6m-17.6 0q3.7-3.6 8.8-3.6"/><path fill="none" fill-opacity=".4" stroke="#19344F" stroke-opacity=".4" stroke-width="2.5" stroke-linecap="round" stroke-linejoin="round" d="M147.7 287.8h24.8m-34.3 28.7H182m-40 7.1h36.2m-39.7 73l.5-10.6m-42.6 13.8h41m41.1-69.6H142m-3.6 69.6l-1 18.6m1.1-21.8l-.1 3.2m16.8-26.2h8.6V386h-8.6v-12.4m0-31.8h8.6v12.4h-8.6v-12.4m-16.8 58h-1"/><path fill="none" stroke="#19344F" stroke-opacity=".4" stroke-width="2.5" stroke-linecap="round" stroke-linejoin="round" d="M160.5 274.5v-16.4"/><path fill="#C8A3B4" fill-opacity=".2" stroke="#19344F" stroke-opacity=".2" stroke-width="2.5" stroke-linecap="round" stroke-linejoin="round" d="M467 309.7h-30.6v56.5H467v-56.5"/><path fill="#C8A3B4" fill-opacity=".2" stroke="#19344F" stroke-opacity=".2" stroke-linecap="round" stroke-linejoin="round" d="M493.6 239.5l-2.5-20.3h-19.7l-2.4 20.3h-5.6l2.5 28.9h9.7v7h-3.9v3.6h3.9v86.7h-35.2l1.2 51.2H476v-.4q0-.5.3-.9.3-.3.8-.3h7.2q.5 0 .9.3.3.4.3.9v.4h34.3V366h-34.3v-87h4.2v-3.5h-4.2v-7.1h11.3l2.6-29h-5.8"/><path fill="none" stroke="#19344F" stroke-opacity=".2" stroke-width="2.5" stroke-linecap="round" stroke-linejoin="round" d="M493.6 239.4l-2.4-20.2h-19.8l-2.4 20.2h-5.6l2.6 29h9.6v7h-3.9v3.6h3.9v86.6h-35.1l1.2 51.3H476v-.4q0-.6.3-1 .4-.3.9-.3h7.1q.5 0 .9.4.3.4.3.9v.4h34.3v-51h-34.3v-87h4.2v-3.5h-4.2v-7h11.3l2.6-29h-5.8"/><path fill="#C8A3B4" fill-opacity=".2" stroke="#19344F" stroke-opacity=".2" stroke-width="2.5" stroke-linecap="round" stroke-linejoin="round" d="M556.8 416.9v-20.2h-26v20.2h26"/><path fill="#997D60" d="M258.2 279.2q2.2-5.2-1.7-9.2-3-3.3-7.5-3.4-4.5-.2-7.7 2.9-3.2 3-3.4 7.5-.1 4.5 2.9 7.7 3.5 3.8 8.5 2.5l8.9-8"/><path fill="none" stroke="#19344F" stroke-width="2.5" stroke-linecap="round" stroke-linejoin="round" d="M256.5 270q4 4 1.7 9.2m-1.7-9.2q-3-3.3-7.5-3.4-4.5-.2-7.7 2.9-3.2 3-3.4 7.5-.1 4.5 2.9 7.7 3.5 3.8 8.5 2.5"/><path fill="#BC987A" d="M252.6 267.9l-2.8-.8q-3-.2-3.7 2.5 8.1 30 21.6 77 12.6 44 13.8 47l16.6-5.4q-17.2-55.7-33-93.5-8-19-12.5-26.8"/><path fill="none" stroke="#19344F" stroke-width="2.5" stroke-linecap="round" stroke-linejoin="round" d="M249.8 267.1l2.8.8q4.5 7.8 12.4 26.8 16 37.8 33 93.5m-48.2-121q-3-.3-3.7 2.4 8.1 30 21.6 77 12.6 44 13.8 47"/><path fill="#8B6C55" d="M247.6 269.1l1 9.7q.4 2.5 2.6 5.8 4.4 6.6 13.6 10.8l-5.7-12.8q-6.3-13.6-9.2-18.1-2.8-4.3-2.3 4.6"/><path fill="none" stroke="#19344F" stroke-width="2.5" stroke-linecap="round" stroke-linejoin="round" d="M249.8 267.1l2.8.8q4.5 7.8 12.4 26.8 16 37.8 33 93.5m-48.2-121q-3-.3-3.7 2.4 8.1 30 21.6 77 12.6 44 13.8 47"/><path fill="#997D60" d="M257.4 265.2l-8.6 5.2q-1.6 2.6-2 5.2-.7 3.3.8 5.5 2.6 3.6 7 4.5 4.4.8 8-1.8 3.7-2.5 4.5-6.9.8-4.4-1.7-8-3-4.4-8-3.7"/><path fill="none" stroke="#19344F" stroke-width="2.5" stroke-linecap="round" stroke-linejoin="round" d="M246.7 275.6q.5-2.6 2-5.2m-2 5.2q-.6 3.3 1 5.5 2.5 3.6 6.8 4.5 4.5.8 8.2-1.8 3.6-2.5 4.4-6.9.8-4.4-1.7-8-3-4.4-8-3.7"/><path fill="#F7F6DF" d="M312.7 417.9l-4.5-27.7-14.6-.4q-18.3 0-37 1.7-60 5.5-101.6 26.4h157.7"/><path fill="none" stroke="#19344F" stroke-width="2.5" stroke-linecap="round" stroke-linejoin="round" d="M312.7 417.9l-4.5-27.7-14.6-.4q-18.3 0-37 1.7-60 5.5-101.6 26.4h157.7"/><g transform="matrix(.996 0 0 .996 252.2 271.3)"><animateTransform attributeName="transform" additive="replace" type="translate" dur="4.95s" keyTimes="0;1" values="0,0;0,0" fill="freeze"/><animateTransform attributeName="transform" additive="sum" type="translate" repeatCount="indefinite" dur="4.95s" keyTimes="0;0.01;0.02;0.03;0.04;0.051;0.061;0.071;0.081;0.091;0.101;0.111;0.121;0.131;0.141;0.152;0.162;0.172;0.182;0.192;0.202;0.212;0.222;0.232;0.242;0.253;0.263;0.273;0.283;0.292;0.293;1" values="248.815,266.42;248.786,266.456;248.807,266.441;248.829,266.427;248.8,266.413;248.819,266.498;248.741,266.481;248.816,266.421;248.836,266.456;248.756,266.49;248.828,266.478;248.802,266.465;248.824,266.452;248.845,266.441;248.814,266.478;248.743,266.405;248.808,266.451;248.788,266.382;248.806,266.422;248.828,266.459;248.801,266.442;248.769,266.429;248.796,266.421;248.824,266.404;248.785,266.446;248.809,266.528;248.792,266.472;248.803,266.509;248.831,266.504;248.804,266.486;0;0" calcMode="discrete"/><animateTransform attributeName="transform" additive="sum" type="translate" repeatCount="indefinite" dur="4.95s" keyTimes="0;0.293;0.303;0.313;0.323;0.333;0.343;0.354;0.364;0.374;0.384;0.394;0.404;0.414;0.424;0.434;0.444;0.455;0.465;0.475;0.485;0.495;0.505;0.515;0.525;0.535;0.545;0.556;0.566;0.575;0.576;1" values="0;248.804,266.486;248.772,266.467;248.849,266.469;248.774,266.444;248.796,266.489;248.812,266.527;248.849,266.475;248.759,266.547;248.789,266.494;248.812,266.433;248.737,266.464;248.858,266.52;248.832,266.501;248.846,266.498;248.762,266.568;248.852,266.479;248.767,266.508;248.792,266.538;248.705,266.526;248.827,266.526;248.771,266.425;248.874,266.497;248.814,266.437;248.838,266.468;248.856,266.516;248.794,266.418;248.801,266.535;248.895,266.457;248.882,266.409;0;0" calcMode="discrete"/><animateTransform attributeName="transform" additive="sum" type="translate" repeatCount="indefinite" dur="4.95s" keyTimes="0;0.576;0.586;0.596;0.606;0.616;0.626;0.636;0.646;0.657;0.667;0.677;0.687;0.697;0.707;0.717;0.727;0.737;0.747;0.758;0.768;0.778;0.788;0.798;0.808;0.818;0.828;0.838;0.848;0.858;0.859;1" values="0;248.882,266.409;248.849,266.478;248.836,266.422;248.862,266.441;248.88,266.409;248.808,266.454;248.885,266.423;248.869,266.435;248.833,266.487;248.775,266.444;248.899,266.375;248.871,266.43;248.799,266.385;248.826,266.447;248.859,266.409;248.88,266.477;248.809,266.428;248.841,266.396;248.863,266.463;248.891,266.425;248.829,266.384;248.851,266.405;248.825,266.458;248.902,266.429;248.777,266.434;248.809,266.401;248.84,266.414;248.865,266.48;248.796,266.437;0;0" calcMode="discrete"/><animateTransform attributeName="transform" additive="sum" type="translate" repeatCount="indefinite" dur="4.95s" keyTimes="0;0.859;0.869;0.879;0.889;0.899;0.909;0.919;0.929;0.939;0.949;0.96;0.97;0.98;0.99;1" values="0;248.796,266.437;248.924,266.456;248.85,266.467;248.876,266.48;248.805,266.489;248.887,266.357;248.916,266.421;248.891,266.484;248.871,266.448;248.8,266.412;248.829,266.476;248.908,266.391;248.837,266.405;248.766,266.42;248.815,266.42" calcMode="discrete"/><animateTransform attributeName="transform" additive="sum" type="rotate" repeatCount="indefinite" dur="4.95s" keyTimes="0;0.01;0.02;0.03;0.04;0.051;0.061;0.071;0.081;0.091;0.101;0.111;0.121;0.131;0.141;0.152;0.162;0.172;0.182;0.192;0.202;0.212;0.222;0.232;0.242;0.253;0.263;0.273;0.283;0.292;0.293;1" values="0,0,0;0.251,0,0;0.502,0,0;0.753,0,0;1.002,0,0;1.253,0,0;1.504,0,0;1.756,0,0;2.006,0,0;2.257,0,0;2.508,0,0;2.758,0,0;3.01,0,0;3.26,0,0;3.512,0,0;3.763,0,0;4.013,0,0;4.264,0,0;4.515,0,0;4.766,0,0;5.017,0,0;5.268,0,0;5.519,0,0;5.771,0,0;6.021,0,0;6.271,0,0;6.523,0,0;6.774,0,0;7.025,0,0;7.276,0,0;0;0" calcMode="discrete"/><animateTransform attributeName="transform" additive="sum" type="rotate" repeatCount="indefinite" dur="4.95s" keyTimes="0;0.293;0.303;0.313;0.323;0.333;0.343;0.354;0.364;0.374;0.384;0.394;0.404;0.414;0.424;0.434;0.444;0.455;0.465;0.475;0.485;0.495;0.505;0.515;0.525;0.535;0.545;0.556;0.566;0.575;0.576;1" values="0;7.276,0,0;7.527,0,0;7.777,0,0;8.029,0,0;8.28,0,0;8.53,0,0;8.782,0,0;9.033,0,0;9.285,0,0;9.535,0,0;9.786,0,0;10.038,0,0;10.288,0,0;10.54,0,0;10.79,0,0;11.042,0,0;11.294,0,0;11.544,0,0;11.795,0,0;12.046,0,0;12.406,0,0;12.048,0,0;11.799,0,0;11.548,0,0;11.298,0,0;11.048,0,0;10.799,0,0;10.548,0,0;10.298,0,0;0;0" calcMode="discrete"/><animateTransform attributeName="transform" additive="sum" type="rotate" repeatCount="indefinite" dur="4.95s" keyTimes="0;0.576;0.586;0.596;0.606;0.616;0.626;0.636;0.646;0.657;0.667;0.677;0.687;0.697;0.707;0.717;0.727;0.737;0.747;0.758;0.768;0.778;0.788;0.798;0.808;0.818;0.828;0.838;0.848;0.858;0.859;1" values="0;10.298,0,0;10.049,0,0;9.8,0,0;9.549,0,0;9.3,0,0;9.05,0,0;8.8,0,0;8.549,0,0;8.3,0,0;8.051,0,0;7.8,0,0;7.551,0,0;7.301,0,0;7.051,0,0;6.803,0,0;6.551,0,0;6.302,0,0;6.053,0,0;5.804,0,0;5.553,0,0;5.305,0,0;5.055,0,0;4.803,0,0;4.555,0,0;4.305,0,0;4.057,0,0;3.805,0,0;3.556,0,0;3.307,0,0;0;0" calcMode="discrete"/><animateTransform attributeName="transform" additive="sum" type="rotate" repeatCount="indefinite" dur="4.95s" keyTimes="0;0.859;0.869;0.879;0.889;0.899;0.909;0.919;0.929;0.939;0.949;0.96;0.97;0.98;0.99;1" values="0;3.307,0,0;3.056,0,0;2.807,0,0;2.558,0,0;2.308,0,0;2.059,0,0;1.81,0,0;1.558,0,0;1.31,0,0;1.061,0,0;0.81,0,0;0.561,0,0;0.311,0,0;0.062,0,0;0,0,0" calcMode="discrete"/><animateTransform attributeName="transform" additive="sum" type="scale" repeatCount="indefinite" dur="4.95s" keyTimes="0;0.172;0.182;0.292;0.293;1" values="0.996,0.996;0.996,0.996;0.995,0.995;0.995,0.995;1;1" calcMode="discrete"/><animateTransform attributeName="transform" additive="sum" type="scale" repeatCount="indefinite" dur="4.95s" keyTimes="0;0.293;0.575;0.576;1" values="1;0.995,0.995;0.995,0.995;1;1" calcMode="discrete"/><animateTransform attributeName="transform" additive="sum" type="scale" repeatCount="indefinite" dur="4.95s" keyTimes="0;0.576;0.808;0.818;0.858;0.859;1" values="1;0.995,0.995;0.995,0.995;0.996,0.996;0.996,0.996;1;1" calcMode="discrete"/><animateTransform attributeName="transform" additive="sum" type="scale" repeatCount="indefinite" dur="4.95s" keyTimes="0;0.859;1" values="1;0.996,0.996;0.996,0.996" calcMode="discrete"/><animateTransform attributeName="transform" additive="sum" type="translate" repeatCount="indefinite" dur="4.95s" keyTimes="0;0.01;0.02;0.03;0.04;0.051;0.061;0.071;0.081;0.091;0.101;0.111;0.121;0.131;0.141;0.152;0.162;0.172;0.182;0.192;0.202;0.212;0.222;0.232;0.242;0.253;0.263;0.273;0.283;0.292;0.293;1" values="3.399,4.849;3.399,4.799;3.399,4.799;3.399,4.849;3.399,4.849;3.399,4.749;3.499,4.749;3.399,4.899;3.399,4.849;3.449,4.799;3.399,4.799;3.399,4.849;3.399,4.849;3.349,4.849;3.349,4.799;3.499,4.899;3.349,4.799;3.449,4.899;3.399,4.849;3.399,4.849;3.449,4.849;3.449,4.799;3.399,4.849;3.449,4.899;3.399,4.799;3.449,4.799;3.399,4.899;3.399,4.799;3.349,4.849;3.399,4.849;0;0" calcMode="discrete"/><animateTransform attributeName="transform" additive="sum" type="translate" repeatCount="indefinite" dur="4.95s" keyTimes="0;0.293;0.303;0.313;0.323;0.333;0.343;0.354;0.364;0.374;0.384;0.394;0.404;0.414;0.424;0.434;0.444;0.455;0.465;0.475;0.485;0.495;0.505;0.515;0.525;0.535;0.545;0.556;0.566;0.575;0.576;1" values="0;3.399,4.849;3.449,4.799;3.349,4.849;3.449,4.849;3.399,4.849;3.399,4.799;3.349,4.899;3.449,4.799;3.399,4.849;3.399,4.849;3.449,4.849;3.349,4.849;3.399,4.849;3.349,4.799;3.449,4.749;3.349,4.849;3.399,4.799;3.449,4.799;3.449,4.749;3.399,4.749;3.349,4.849;3.299,4.749;3.399,4.799;3.299,4.799;3.349,4.749;3.399,4.799;3.349,4.699;3.299,4.799;3.349,4.849;0;0" calcMode="discrete"/><animateTransform attributeName="transform" additive="sum" type="translate" repeatCount="indefinite" dur="4.95s" keyTimes="0;0.576;0.586;0.596;0.606;0.616;0.626;0.636;0.646;0.657;0.667;0.677;0.687;0.697;0.707;0.717;0.727;0.737;0.747;0.758;0.768;0.778;0.788;0.798;0.808;0.818;0.828;0.838;0.848;0.858;0.859;1" values="0;3.349,4.849;3.299,4.799;3.399,4.849;3.349,4.849;3.299,4.799;3.399,4.799;3.349,4.799;3.349,4.849;3.399,4.749;3.449,4.849;3.299,4.849;3.349,4.799;3.399,4.799;3.399,4.799;3.399,4.849;3.349,4.799;3.449,4.799;3.399,4.849;3.349,4.799;3.349,4.799;3.399,4.899;3.299,4.849;3.399,4.799;3.299,4.799;3.399,4.749;3.349,4.799;3.349,4.849;3.299,4.799;3.399,4.849;0;0" calcMode="discrete"/><animateTransform attributeName="transform" additive="sum" type="translate" repeatCount="indefinite" dur="4.95s" keyTimes="0;0.859;0.869;0.879;0.889;0.899;0.909;0.919;0.929;0.939;0.949;0.96;0.97;0.98;0.99;1" values="0;3.399,4.849;3.299,4.849;3.349,4.799;3.349,4.749;3.449,4.749;3.349,4.849;3.349,4.849;3.349,4.749;3.349,4.799;3.399,4.799;3.399,4.799;3.349,4.799;3.299,4.799;3.399,4.799;3.399,4.849" calcMode="discrete"/><path fill="#99C978" stroke="#19344F" stroke-width="2.5" stroke-linecap="round" stroke-linejoin="round" d="M-30.8-55q-7.2-2.2-13-2 1.8 8.5 7.6 18.8 11.5 20.6 31.6 29l1.7-1.5q1.8-2 2.5-4.9 2.3-9.1-7.4-23-8.3-11.9-23-16.4"/><path fill="#75B046" d="M-9.3-12.2l4.2 2.2 3.6-17-.7-2q-.9-1.7-1.6-1.1-9 5.5-22.9-3.3-7-4.3-12.1-9.8 4.8 13.3 19.7 24.6 4.7 3.5 9.8 6.5"/><path fill="none" stroke="#19344F" stroke-width="2.5" stroke-linecap="round" stroke-linejoin="round" d="M-30.8-55q-7.2-2.2-13-2 1.8 8.5 7.6 18.8 11.5 20.6 31.6 29l1.7-1.5q1.8-2 2.5-4.9 2.3-9.1-7.4-23-8.3-11.9-23-16.4"/><path fill="#99C978" d="M-10.2-5.3l6.8-2.6q-24.1-20.3-49.9-9.8-12.9 5.3-21 14.7 22.4 9 40.1 5 1-.2 2.5-2.8 1.6-2.5 2.4-2.8.6-.1 1.9 1.8 1.3 1.8 1.8 1.6 7.1-2.1 15.4-5.1"/><path fill="none" stroke="#19344F" stroke-width="2.5" stroke-linecap="round" stroke-linejoin="round" d="M-10.2-5.3l6.8-2.6q-24.1-20.3-49.9-9.8-12.9 5.3-21 14.7 22.4 9 40.1 5 1-.2 2.5-2.8 1.6-2.5 2.4-2.8.6-.1 1.9 1.8 1.3 1.8 1.8 1.6 7.1-2.1 15.4-5.1"/><path fill="#75B046" d="M-6.6-10.5q-4.2-3-8.7-5.3-14.4-7.4-27-4.9 4.2.7 9.8 3.1 11.3 4.9 18.3 13.7.7.3 5.8-1.8l5-2.2-3.2-2.6"/><path fill="none" stroke="#19344F" stroke-width="2.5" stroke-linecap="round" stroke-linejoin="round" d="M-10.2-5.3l6.8-2.6q-24.1-20.3-49.9-9.8-12.9 5.3-21 14.7 22.4 9 40.1 5 1-.2 2.5-2.8 1.6-2.5 2.4-2.8.6-.1 1.9 1.8 1.3 1.8 1.8 1.6 7.1-2.1 15.4-5.1"/><path fill="none" stroke="#19344F" stroke-width="2.5" stroke-linecap="round" stroke-linejoin="round" d="M-55.8-6.7q7.8-2.1 18.2-3.5 20.8-2.6 33.4 1.5"/><path fill="#99C978" d="M-3.4-7.9l-10.8 4q-22.4 16.6-26.9 40.5-1.4 7.5-.8 14.7l.8 5.8q22.3-16.6 32.3-42.5 5-12.9 5.4-22.5"/><path fill="none" stroke="#19344F" stroke-width="2.5" stroke-linecap="round" stroke-linejoin="round" d="M-3.4-7.9q-.5 9.6-5.5 22.6-9.9 25.8-32.3 42.4l-.7-5.8q-.6-7.2.8-14.7 4.6-23.8 26.9-40.5"/><path fill="#75B046" d="M-5.8-8L-11.3-5Q-18-.6-24.3 5q-13.6 14.6-16.6 34.6-1 6.2-.8 12.2l.4 4.8 7-5.1q-3-19.3 12.4-41.4Q-17 3.2-10.9-3l5-5"/><path fill="none" stroke="#19344F" stroke-width="2.5" stroke-linecap="round" stroke-linejoin="round" d="M-3.4-7.9q-.5 9.6-5.5 22.6-9.9 25.8-32.3 42.4l-.7-5.8q-.6-7.2.8-14.7 4.6-23.8 26.9-40.5"/></g><g transform="matrix(.996 0 0 .996 247.2 261.3)"><animateTransform attributeName="transform" additive="replace" type="translate" dur="4.95s" keyTimes="0;1" values="0,0;0,0" fill="freeze"/><animateTransform attributeName="transform" additive="sum" type="translate" repeatCount="indefinite" dur="4.95s" keyTimes="0;0.01;0.02;0.03;0.04;0.051;0.061;0.071;0.081;0.091;0.101;0.111;0.121;0.131;0.141;0.152;0.162;0.172;0.182;0.192;0.202;0.212;0.222;0.232;0.242;0.253;0.263;0.273;0.283;0.292;0.293;1" values="251.881,263.64;251.891,263.62;251.901,263.649;251.862,263.628;251.873,263.657;251.933,263.686;251.892,263.666;251.901,263.645;251.861,263.624;251.918,263.602;251.88,263.632;251.894,263.658;251.898,263.638;251.907,263.616;251.917,263.598;251.879,263.577;251.881,263.556;251.894,263.588;251.911,263.593;251.865,263.577;251.873,263.555;251.891,263.628;251.899,263.602;251.902,263.586;251.905,263.615;251.868,263.593;251.882,263.621;251.835,263.606;251.898,263.627;251.899,263.606;0;0" calcMode="discrete"/><animateTransform attributeName="transform" additive="sum" type="translate" repeatCount="indefinite" dur="4.95s" keyTimes="0;0.293;0.303;0.313;0.323;0.333;0.343;0.354;0.364;0.374;0.384;0.394;0.404;0.414;0.424;0.434;0.444;0.455;0.465;0.475;0.485;0.495;0.505;0.515;0.525;0.535;0.545;0.556;0.566;0.575;0.576;1" values="0;251.899,263.606;251.864,263.59;251.865,263.619;251.864,263.591;251.886,263.618;251.871,263.549;251.908,263.604;251.914,263.573;251.905,263.511;251.879,263.538;251.876,263.567;251.883,263.544;251.88,263.523;251.953,263.58;251.959,263.607;251.908,263.506;251.874,263.582;251.908,263.552;251.913,263.53;251.869,263.507;251.918,263.534;251.917,263.546;251.913,263.58;251.859,263.562;251.902,263.574;251.935,263.538;251.889,263.559;251.844,263.64;251.879,263.564;0;0" calcMode="discrete"/><animateTransform attributeName="transform" additive="sum" type="translate" repeatCount="indefinite" dur="4.95s" keyTimes="0;0.576;0.586;0.596;0.606;0.616;0.626;0.636;0.646;0.657;0.667;0.677;0.687;0.697;0.707;0.717;0.727;0.737;0.747;0.758;0.768;0.778;0.788;0.798;0.808;0.818;0.828;0.838;0.848;0.858;0.859;1" values="0;251.879,263.564;251.903,263.429;251.965,263.499;251.951,263.473;251.855,263.561;251.848,263.683;251.884,263.506;251.934,263.619;251.87,263.542;251.87,263.613;251.821,263.685;251.898,263.551;251.85,263.586;251.941,263.595;251.933,263.61;251.92,263.533;251.918,263.631;251.849,263.609;251.907,263.624;251.839,263.602;251.881,263.524;251.818,263.596;251.861,263.576;251.856,263.589;251.898,263.61;251.885,263.578;251.881,263.603;251.919,263.571;251.86,263.596;0;0" calcMode="discrete"/><animateTransform attributeName="transform" additive="sum" type="translate" repeatCount="indefinite" dur="4.95s" keyTimes="0;0.859;0.869;0.879;0.889;0.899;0.909;0.919;0.929;0.939;0.949;0.96;0.97;0.98;0.99;1" values="0;251.86,263.596;251.904,263.567;251.948,263.685;251.934,263.557;251.929,263.678;251.968,263.7;251.907,263.623;251.898,263.643;251.939,263.663;251.929,263.635;251.87,263.608;251.91,263.578;251.901,263.649;251.841,263.62;251.881,263.64" calcMode="discrete"/><animateTransform attributeName="transform" additive="sum" type="rotate" repeatCount="indefinite" dur="4.95s" keyTimes="0;0.01;0.02;0.03;0.04;0.051;0.061;0.071;0.081;0.091;0.101;0.111;0.121;0.131;0.141;0.152;0.162;0.172;0.182;0.192;0.202;0.212;0.222;0.232;0.242;0.253;0.263;0.273;0.283;0.292;0.293;1" values="0,0,0;-0.254,0,0;-0.507,0,0;-0.761,0,0;-1.013,0,0;-1.267,0,0;-1.522,0,0;-1.776,0,0;-2.03,0,0;-2.282,0,0;-2.535,0,0;-2.79,0,0;-3.044,0,0;-3.298,0,0;-3.551,0,0;-3.806,0,0;-4.059,0,0;-4.312,0,0;-4.754,0,0;-5.008,0,0;-5.261,0,0;-5.515,0,0;-5.77,0,0;-6.023,0,0;-6.276,0,0;-6.53,0,0;-6.785,0,0;-7.039,0,0;-7.292,0,0;-7.546,0,0;0;0" calcMode="discrete"/><animateTransform attributeName="transform" additive="sum" type="rotate" repeatCount="indefinite" dur="4.95s" keyTimes="0;0.293;0.303;0.313;0.323;0.333;0.343;0.354;0.364;0.374;0.384;0.394;0.404;0.414;0.424;0.434;0.444;0.455;0.465;0.475;0.485;0.495;0.505;0.515;0.525;0.535;0.545;0.556;0.566;0.575;0.576;1" values="0;-7.546,0,0;-7.8,0,0;-8.054,0,0;-8.307,0,0;-8.561,0,0;-8.816,0,0;-9.257,0,0;-9.512,0,0;-9.764,0,0;-10.018,0,0;-10.272,0,0;-10.526,0,0;-10.78,0,0;-11.035,0,0;-11.289,0,0;-11.542,0,0;-11.796,0,0;-12.05,0,0;-12.304,0,0;-12.558,0,0;-12.964,0,0;-12.56,0,0;-12.307,0,0;-12.055,0,0;-11.802,0,0;-11.55,0,0;-11.297,0,0;-11.045,0,0;-10.792,0,0;0;0" calcMode="discrete"/><animateTransform attributeName="transform" additive="sum" type="rotate" repeatCount="indefinite" dur="4.95s" keyTimes="0;0.576;0.586;0.596;0.606;0.616;0.626;0.636;0.646;0.657;0.667;0.677;0.687;0.697;0.707;0.717;0.727;0.737;0.747;0.758;0.768;0.778;0.788;0.798;0.808;0.818;0.828;0.838;0.848;0.858;0.859;1" values="0;-10.792,0,0;-10.539,0,0;-10.287,0,0;-10.033,0,0;-9.78,0,0;-9.529,0,0;-9.275,0,0;-9.022,0,0;-8.771,0,0;-8.518,0,0;-8.266,0,0;-8.012,0,0;-7.761,0,0;-7.508,0,0;-7.255,0,0;-7.003,0,0;-6.562,0,0;-6.31,0,0;-6.058,0,0;-5.805,0,0;-5.552,0,0;-5.3,0,0;-5.047,0,0;-4.795,0,0;-4.543,0,0;-4.291,0,0;-4.038,0,0;-3.784,0,0;-3.533,0,0;0;0" calcMode="discrete"/><animateTransform attributeName="transform" additive="sum" type="rotate" repeatCount="indefinite" dur="4.95s" keyTimes="0;0.859;0.869;0.879;0.889;0.899;0.909;0.919;0.929;0.939;0.949;0.96;0.97;0.98;0.99;1" values="0;-3.533,0,0;-3.279,0,0;-3.028,0,0;-2.775,0,0;-2.521,0,0;-2.271,0,0;-2.019,0,0;-1.766,0,0;-1.514,0,0;-1.262,0,0;-1.008,0,0;-0.756,0,0;-0.504,0,0;-0.253,0,0;0,0,0" calcMode="discrete"/><animateTransform attributeName="transform" additive="sum" type="scale" repeatCount="indefinite" dur="4.95s" keyTimes="0;0.172;0.182;0.292;0.293;1" values="0.996,0.996;0.996,0.996;0.995,0.995;0.995,0.995;1;1" calcMode="discrete"/><animateTransform attributeName="transform" additive="sum" type="scale" repeatCount="indefinite" dur="4.95s" keyTimes="0;0.293;0.575;0.576;1" values="1;0.995,0.995;0.995,0.995;1;1" calcMode="discrete"/><animateTransform attributeName="transform" additive="sum" type="scale" repeatCount="indefinite" dur="4.95s" keyTimes="0;0.576;0.818;0.828;0.858;0.859;1" values="1;0.995,0.995;0.995,0.995;0.996,0.996;0.996,0.996;1;1" calcMode="discrete"/><animateTransform attributeName="transform" additive="sum" type="scale" repeatCount="indefinite" dur="4.95s" keyTimes="0;0.859;1" values="1;0.996,0.996;0.996,0.996" calcMode="discrete"/><animateTransform attributeName="transform" additive="sum" type="translate" repeatCount="indefinite" dur="4.95s" keyTimes="0;0.01;0.02;0.03;0.04;0.051;0.061;0.081;0.091;0.101;0.111;0.121;0.131;0.141;0.152;0.162;0.172;0.182;0.192;0.202;0.212;0.222;0.232;0.242;0.253;0.263;0.273;0.283;0.292;0.293;1" values="-4.7,-2.4;-4.7,-2.4;-4.75,-2.4;-4.7,-2.4;-4.7,-2.45;-4.75,-2.45;-4.7,-2.4;-4.7,-2.4;-4.75,-2.35;-4.7,-2.4;-4.75,-2.5;-4.75,-2.4;-4.75,-2.4;-4.7,-2.4;-4.7,-2.45;-4.7,-2.35;-4.65,-2.4;-4.7,-2.4;-4.65,-2.35;-4.65,-2.35;-4.7,-2.45;-4.75,-2.45;-4.7,-2.4;-4.7,-2.35;-4.7,-2.4;-4.7,-2.45;-4.65,-2.4;-4.7,-2.45;-4.7,-2.4;0;0" calcMode="discrete"/><animateTransform attributeName="transform" additive="sum" type="translate" repeatCount="indefinite" dur="4.95s" keyTimes="0;0.293;0.303;0.313;0.323;0.333;0.343;0.354;0.364;0.374;0.384;0.394;0.404;0.414;0.424;0.434;0.444;0.455;0.465;0.485;0.495;0.505;0.515;0.525;0.535;0.545;0.556;0.566;0.575;0.576;1" values="0;-4.7,-2.4;-4.65,-2.45;-4.65,-2.4;-4.7,-2.35;-4.7,-2.45;-4.7,-2.3;-4.7,-2.45;-4.75,-2.45;-4.7,-2.35;-4.7,-2.45;-4.7,-2.4;-4.7,-2.4;-4.7,-2.35;-4.8,-2.45;-4.8,-2.45;-4.7,-2.4;-4.7,-2.45;-4.75,-2.35;-4.75,-2.35;-4.75,-2.3;-4.8,-2.35;-4.75,-2.35;-4.7,-2.35;-4.75,-2.35;-4.8,-2.3;-4.8,-2.35;-4.75,-2.4;-4.75,-2.35;0;0" calcMode="discrete"/><animateTransform attributeName="transform" additive="sum" type="translate" repeatCount="indefinite" dur="4.95s" keyTimes="0;0.576;0.586;0.596;0.606;0.616;0.626;0.636;0.646;0.657;0.667;0.677;0.687;0.697;0.707;0.717;0.727;0.737;0.747;0.758;0.768;0.778;0.788;0.798;0.808;0.818;0.828;0.838;0.848;0.858;0.859;1" values="0;-4.75,-2.35;-4.8,-2.25;-4.8,-2.35;-4.8,-2.3;-4.7,-2.35;-4.7,-2.35;-4.7,-2.3;-4.75,-2.35;-4.75,-2.3;-4.75,-2.35;-4.75,-2.4;-4.8,-2.3;-4.7,-2.35;-4.8,-2.35;-4.85,-2.35;-4.85,-2.3;-4.8,-2.4;-4.75,-2.3;-4.8,-2.45;-4.75,-2.35;-4.75,-2.35;-4.75,-2.3;-4.65,-2.3;-4.75,-2.35;-4.75,-2.35;-4.8,-2.3;-4.75,-2.35;-4.8,-2.3;-4.75,-2.3;0;0" calcMode="discrete"/><animateTransform attributeName="transform" additive="sum" type="translate" repeatCount="indefinite" dur="4.95s" keyTimes="0;0.859;0.869;0.879;0.889;0.899;0.909;0.919;0.929;0.939;0.949;0.96;0.97;0.98;0.99;1" values="0;-4.75,-2.3;-4.75,-2.35;-4.8,-2.4;-4.8,-2.3;-4.8,-2.4;-4.8,-2.35;-4.75,-2.3;-4.8,-2.3;-4.85,-2.35;-4.8,-2.3;-4.7,-2.3;-4.75,-2.3;-4.75,-2.35;-4.75,-2.35;-4.7,-2.4" calcMode="discrete"/><path fill="#7EA65A" stroke="#19344F" stroke-width="2.5" stroke-linecap="round" stroke-linejoin="round" d="M9.5-10.6L4.6 3.5q7 3.1 19.9 4.8 25.6 3 54.3-4.9L74 .2q-6.3-3.7-13.8-6.5Q36.5-15 9.5-10.6"/><path fill="#649442" d="M44.2-10l-9.6-1.8-28.8 13 23.1 3.1q2.5-1.4 5.6-3.9 6.3-5 9.7-10.4"/><path fill="none" stroke="#19344F" stroke-width="2.5" stroke-linecap="round" stroke-linejoin="round" d="M9.5-10.6L4.6 3.5q7 3.1 19.9 4.8 25.6 3 54.3-4.9L74 .2q-6.3-3.7-13.8-6.5Q36.5-15 9.5-10.6"/><path fill="#99C978" d="M23.3-36.1q-1.3.7-2.2 3.8-1 3.2-1.9 4-1 .7-4 .5-3-.1-3.7.7-8.1 8.2-10.1 16Q.8-8.6.5-5L0-.3l.8 1.6q22.3.4 43.6-22.6 7-7.6 12.5-16.3 4.5-7 4.3-7.8-22.5.5-37.9 9.2"/><path fill="none" stroke="#19344F" stroke-width="2.5" stroke-linecap="round" stroke-linejoin="round" d="M23.3-36.1q-1.3.7-2.2 3.8-1 3.2-1.9 4-1 .7-4 .5-3-.1-3.7.7-8.1 8.2-10.1 16Q.8-8.6.5-5L0-.3m23.3-35.9q15.4-8.7 38-9.2.2.8-4.4 7.8-5.5 8.8-12.5 16.3Q23.1 1.8.8 1.4"/><path fill="#99C978" stroke="#19344F" stroke-width="2.5" stroke-linecap="round" stroke-linejoin="round" d="M45.8 43.1q1.6.4 4.8-1.5 3.2-2 4.6-1.9 1.4.1 4 2.9t3.6 2.8q7 .1 13.6-.8l5.3-1Q68.8 16 34 6.6q-17.4-4.8-32.3-4Q8.6 20.4 21.4 31q10.4 8.8 24.5 12.2"/><path fill="none" stroke="#19344F" stroke-width="2.5" stroke-linecap="round" stroke-linejoin="round" d="M1.8 2.5Q7.8-4 16-12q16.6-16 27.6-22.6"/><path fill="#75B046" d="M20.5 3.8L2.4 2l.4 3.3q9.7 21.2 28 31.7 5.8 3.3 11.7 5l4.7 1.2 4.8-2.5Q36.3 29.3 26.8 15.4q-4.7-7-6.3-11.7"/><path fill="none" stroke="#19344F" stroke-width="2.5" stroke-linecap="round" stroke-linejoin="round" d="M45.8 43.1q1.6.4 4.8-1.5 3.2-2 4.6-1.9 1.4.1 4 2.9t3.6 2.8q7 .1 13.6-.8l5.3-1Q68.8 16 34 6.6q-17.4-4.8-32.3-4Q8.6 20.4 21.4 31q10.4 8.8 24.5 12.2"/><path fill="none" stroke="#19344F" stroke-width="2.5" stroke-linecap="round" stroke-linejoin="round" d="M2.4 2q8.3 5.8 20.4 12.8 24.2 14 43 20.6"/></g><path fill="#E56C6C" d="M287 309q-12.8 5.2-20.6 16.6-7.7 11.5-7.7 25.3l188.8 48.7v-49.2q0-13.6-7.6-25-7.5-11.3-20.1-16.6l-51.2-16.6h-28.2L287.1 309"/><path fill="none" stroke="#19344F" stroke-width="2.5" stroke-linecap="round" stroke-linejoin="round" d="M266.4 325.6q7.8-11.4 20.7-16.6l53.3-16.8h28.2l51.2 16.6q12.6 5.3 20.1 16.6 7.6 11.4 7.6 25v49.2m-181-74q-7.8 11.5-7.8 25.3"/><path fill="#E9AF90" d="M340.4 290q0 5.8 4.2 9.9 4.1 4.1 10 4.1 5.8 0 9.9-4.1 4.1-4.1 4.1-10v-14h-28.2v14"/><path fill="none" stroke="#19344F" stroke-width="2.5" stroke-linecap="round" stroke-linejoin="round" d="M340.4 290q0 5.8 4.2 9.9 4.1 4.1 10 4.1 5.8 0 9.9-4.1 4.1-4.1 4.1-10v-14h-28.2v14"/><path fill="none" stroke="#19344F" stroke-width="2.5" stroke-linecap="round" stroke-linejoin="round" d="M340.4 290q0 5.8 4.2 9.9 4.1 4.1 10 4.1 5.8 0 9.9-4.1 4.1-4.1 4.1-10v-14h-28.2v14"/><path fill="#997254" d="M398.4 229.5q18-18.2 18-43.9t-18-43.8q-18.2-18.2-43.9-18.2t-43.8 18.2q-18.2 18.1-18.2 43.8 0 25.7 18.2 44 18.1 18 43.8 18 25.7 0 43.9-18"/><path fill="none" stroke="#19344F" stroke-width="2.5" stroke-linecap="round" stroke-linejoin="round" d="M398.4 229.5q18-18.2 18-43.9t-18-43.8q-18.2-18.2-43.9-18.2t-43.8 18.2q-18.2 18.1-18.2 43.8 0 25.7 18.2 44 18.1 18 43.8 18 25.7 0 43.9-18"/><path fill="none" stroke="#19344F" stroke-width="2.5" stroke-linecap="round" stroke-linejoin="round" d="M398.4 229.5q18-18.2 18-43.9t-18-43.8q-18.2-18.2-43.9-18.2t-43.8 18.2q-18.2 18.1-18.2 43.8 0 25.7 18.2 44 18.1 18 43.8 18 25.7 0 43.9-18"/><path fill="#D19B81" d="M341.6 281.5v14l25.8-15.1-25.8 1"/><path fill="none" stroke="#19344F" stroke-width="2.5" stroke-linecap="round" stroke-linejoin="round" d="M340.4 290q0 5.8 4.2 9.9 4.1 4.1 10 4.1 5.8 0 9.9-4.1 4.1-4.1 4.1-10v-14h-28.2v14"/><path fill="#E9AF90" d="M371.5 157.5h-33.9q-14 0-23.9 9.9t-10 23.9v39.4q0 21 15 36 14.8 14.8 35.8 14.8 21 0 35.9-14.9 14.8-14.9 14.8-35.9v-39.4q0-14-9.9-24-9.8-9.8-23.8-9.8"/><path fill="none" stroke="#19344F" stroke-width="2.5" stroke-linecap="round" stroke-linejoin="round" d="M371.5 157.5h-33.9q-14 0-23.9 9.9t-10 23.9v39.4q0 21 15 36 14.8 14.8 35.8 14.8 21 0 35.9-14.9 14.8-14.9 14.8-35.9v-39.4q0-14-9.9-24-9.8-9.8-23.8-9.8"/><path fill="none" stroke="#19344F" stroke-width="2.5" stroke-linecap="round" stroke-linejoin="round" d="M371.5 157.5h-33.9q-14 0-23.9 9.9t-10 23.9v39.4q0 21 15 36 14.8 14.8 35.8 14.8 21 0 35.9-14.9 14.8-14.9 14.8-35.9v-39.4q0-14-9.9-24-9.8-9.8-23.8-9.8"/><path fill="none" stroke="#19344F" stroke-width="2.5" stroke-linecap="round" stroke-linejoin="round" d="M334 207q1.7 1.6 1.7 4m-1.7-4q-1.7-1.6-4-1.6t-4 1.6q-1.6 1.7-1.6 4m58.7-4q1.7 1.6 1.7 4m-1.7-4q-1.7-1.6-4-1.6t-4 1.6q-1.6 1.6-1.6 4"/><path fill="#FFF" d="M364.5 254.8q4.1-4.1 4.1-10h-28.2q0 5.9 4.2 10 4.1 4.1 10 4.1 5.8 0 9.9-4"/><path fill="none" stroke="#19344F" stroke-width="2.5" stroke-linecap="round" stroke-linejoin="round" d="M364.5 254.8q4.1-4.1 4.1-10h-28.2q0 5.9 4.2 10 4.1 4.1 10 4.1 5.8 0 9.9-4m-3.1-23q-1.7 1.6-4 1.6h-5.7q-2.3 0-4-1.6-1.6-1.6-1.6-4m15.3 4q1.6-1.6 1.6-4"/><path fill="#60717C" stroke="#19344F" stroke-width="2.5" stroke-linecap="round" stroke-linejoin="round" d="M352.6 118.6h-2.1q-14.6.9-27.7 7.1-13.1 6.3-23.2 17.3-10.3 11.3-15.5 25.6-5.3 14.4-4.8 29.8 0 1.5 1 2.4 1 1 2.5 1h.1q1.5 0 2.5-1 1-1.2.9-2.6-.5-14.1 4.3-27.2 4.8-13 14.2-23.3 9.3-10.2 21.4-15.9 12.2-5.7 25.6-6.3 13.5-.2 26 4.7 12.4 4.9 22.3 14.5 10 9.6 15.6 22.3 5.7 12.8 6.1 26.9 0 1.4 1.1 2.4t2.5 1q1.4-.1 2.4-1.2 1-1 1-2.4-.5-15.6-6.7-29.5-6.1-14-17.2-24.6-10.7-10.3-24.2-15.8-13.5-5.4-28-5.2"/><path fill="#997254" d="M366.3 129.4q-14.5-8.6-31.4-8.6-15.5 0-29.2 7.3-13.2 7-21.7 19.3-1.4 2-1.4 4.4 0 2.4 1.4 4.4 8.5 12.3 21.7 19.3 13.7 7.3 29.2 7.3 17 0 31.4-8.6 14.1-8.2 22.3-22.4-8.2-14.2-22.3-22.4"/><path fill="none" stroke="#19344F" stroke-width="2.5" stroke-linecap="round" stroke-linejoin="round" d="M366.3 129.4q-14.5-8.6-31.4-8.6-15.5 0-29.2 7.3-13.2 7-21.7 19.3-1.4 2-1.4 4.4 0 2.4 1.4 4.4 8.5 12.3 21.7 19.3 13.7 7.3 29.2 7.3 17 0 31.4-8.6 14.1-8.2 22.3-22.4-8.2-14.2-22.3-22.4"/><path fill="none" stroke="#19344F" stroke-width="2.5" stroke-linecap="round" stroke-linejoin="round" d="M358.2 125.3q-11.1-4.5-23.3-4.5-15.5 0-29.2 7.3-13.2 7-21.7 19.3-1.4 2-1.4 4.4 0 2.4 1.4 4.4 8.5 12.3 21.7 19.3 13.7 7.3 29.2 7.3 17 0 31.4-8.6 14.1-8.2 22.3-22.4m-30.4-26.5q10.8 4.4 19.2 12.4"/><path fill="#87614B" d="M331 181.2q9.4.8 18.7-.7l7.4-1.8q-33.6-8.8-41.2-32.6-3.8-11.9-.9-22-17.7 8.8-26.8 19.8-4.5 5.4-5.5 9.2 18.6 25.5 48.4 28.1"/><path fill="none" stroke="#19344F" stroke-width="2.5" stroke-linecap="round" stroke-linejoin="round" d="M373.7 148.8q2 2.2 3.3 4m-26-19.6q9.3 3.8 17.2 10.5M351 133.2q-4.7-2-7.7-2.5"/><path fill="#BD7B67" fill-opacity=".1" d="M305 186.6q-9 12.1-4.7 34.8 1.3 6.4 4.8 18.8 3.4 12 4.3 17.3 23 28.5 52.5 23.2 14.8-2.6 25-11-56 .4-74.5-41.3-5.8-13-7.2-28.8-.7-7.8-.2-13"/><path fill="none" stroke="#19344F" stroke-width="2.5" stroke-linecap="round" stroke-linejoin="round" d="M390.4 266.6q-14.8 14.9-35.9 14.9m35.9-14.9q14.8-14.9 14.8-35.9v-39.4m-50.7 90.2q-21 0-35.9-14.9-14.8-14.9-14.8-35.9v-44.1m62.5-57.2q-14.5-8.6-31.4-8.6-15.5 0-29.2 7.3-13.2 7-21.7 19.3-1.4 2-1.4 4.4 0 2.4 1.4 4.4 8.5 12.3 21.7 19.3 13.7 7.3 29.2 7.3 17 0 31.4-8.6 14.1-8.2 22.3-22.4-8.2-14.2-22.3-22.4"/><path fill="#60717C" stroke="#19344F" stroke-width="2.5" stroke-linecap="round" stroke-linejoin="round" d="M288 220l-2-26-7.2.5 2.2 26.1 7-.5"/><path fill="#C5CBD1" d="M273.7 209.8q-5.8 6.9-5.1 15.9.7 9 7.6 14.8 6.9 5.8 15.9 5.1l-3.5-43.4q-9 .7-14.9 7.6"/><path fill="none" stroke="#19344F" stroke-width="2.5" stroke-linecap="round" stroke-linejoin="round" d="M268.6 225.7q-.7-9 5.1-16 5.8-6.8 14.9-7.5m-20 23.5q.7 9 7.6 14.8 6.9 5.8 15.9 5.1"/><path fill="#60717C" stroke="#19344F" stroke-width="2.5" stroke-linecap="round" stroke-linejoin="round" d="M300.2 204q-.2-2.4-1.9-3.9t-4-1.3q-2.3.2-3.8 2-1.5 1.7-1.3 4l3.2 40.2q.2 2.2 2 3.7 1.7 1.5 4 1.3 2.3-.2 3.8-2 1.4-1.7 1.2-4l-3.2-40"/><path fill="#D96D98" stroke="#19344F" stroke-width="2.5" stroke-linecap="round" stroke-linejoin="round" d="M288.6 239.7l-.5-6.6-4.8.3.5 6.7 4.8-.4"/><path fill="#60717C" stroke="#19344F" stroke-width="2.5" stroke-linecap="round" stroke-linejoin="round" d="M421.6 192.1l2.2 26.1 7-.5-2-26.2-7.2.6"/><path fill="#C5CBD1" d="M440.2 224.1q1.3-9-4-16.1-5.5-7.3-14.4-8.6l-6.3 43.2q9 1.3 16.2-4.1 7.2-5.4 8.5-14.4"/><path fill="none" stroke="#19344F" stroke-width="2.5" stroke-linecap="round" stroke-linejoin="round" d="M440.2 224.1q1.3-9-4-16.1-5.5-7.3-14.4-8.6m18.4 24.7q-1.3 9-8.5 14.4t-16.2 4"/><path fill="#60717C" stroke="#19344F" stroke-width="2.5" stroke-linecap="round" stroke-linejoin="round" d="M412.2 196.8q-1.8 1.3-2.2 3.6l-5.7 39.9q-.4 2.3 1 4 1.4 1.9 3.7 2.2 2.2.3 4-1 1.8-1.4 2.2-3.6l5.7-40q.4-2.2-1-4-1.4-1.8-3.6-2.2-2.3-.3-4 1.1"/><path fill="#D96D98" stroke="#19344F" stroke-width="2.5" stroke-linecap="round" stroke-linejoin="round" d="M420.3 230.3l-1 6.6 4.8.7 1-6.6-4.8-.7"/><path fill="none" stroke="#19344F" stroke-width="2.5" stroke-linecap="round" stroke-linejoin="round" d="M342.9 208.5q0-6-4.2-10.1-4.1-4.2-10-4.2t-10.2 4.2q-4.1 4.2-4.1 10.1 0 5.9 4.1 10 4.2 4.2 10.1 4.2t10.1-4.1q4.2-4.2 4.2-10.1"/><path fill="#CBCAC9" stroke="#19344F" stroke-width="2.5" stroke-linecap="round" stroke-linejoin="round" d="M269.5 349.3q-8.6 0-14.6 6t-6 14.6l9.8 48h197l7.7-48q0-8.5-6-14.5-6-6.1-14.6-6.1H269.5"/><path fill="#FFF" d="M338.2 320h-8v19.3h3v-8h4v-2.8h-4v-5.8h5v-2.8m1.5 4.6v10.2q0 4.6 4.6 4.8 4.5 0 4.6-4.8v-10.2q0-4.6-4.6-4.8-4.5 0-4.6 4.8m3-.1q0-2 1.6-2 1.5 0 1.6 2v10.5q0 2.1-1.6 1.9-1.4 0-1.6-1.9v-10.5m12.7-4.5h-4.6v19.4h3v-7.9h1q2.2 0 2.1 2.5v3q0 2.4.3 2.4h3q-.4-1-.3-2.3v-3q0-3-2-4.1 2-1 2-4v-1.5q0-4.5-4.5-4.5m0 2.8q1.6 0 1.5 2v1.9q0 2.3-1.9 2h-1.2v-5.9h1.5m6.3-2.8v19.4h8.3v-2.7h-5.2v-5.7h4.2V328h-4.2v-5.4h5.3v-2.8h-8.4m20.1 0h-2.8l-2.4 7.2-2.3-7.2H371l3.2 9.5-3.4 10h2.8l2.6-7.7 2.5 7.6h3.2l-3.4-10 3.2-9.4"/><path fill="none" stroke="#19344F" stroke-width="2.5" stroke-linecap="round" stroke-linejoin="round" d="M392.9 208.5q0-6-4.2-10.1-4.1-4.2-10-4.2-6 0-10.1 4.2-4.2 4.2-4.2 10.1 0 6 4.2 10 4.2 4.2 10 4.2 6 0 10.1-4.1 4.2-4.2 4.2-10.1m-50 0h21.5m60.9 147h8.9m-157.2 0h135.6m161 62.4h8.8m-505.2 0h488.5m-160.5-175l-25.4 9M299 425.3h117.5"/><path fill="#BDBCBC" d="M273.6 349.3q-13.9 0-20.7 10.3-3.4 5.2-4 10.3l9.8 48 100.7-.1q-67.4-2-83.6-34.2-5.4-10.8-4.3-23.6.5-6.4 2.1-10.7"/><path fill="none" stroke="#19344F" stroke-width="2.5" stroke-linecap="round" stroke-linejoin="round" d="M269.5 349.3q-8.6 0-14.6 6t-6 14.6l9.8 48h197l7.7-48q0-8.5-6-14.5-6-6.1-14.6-6.1H269.5m155.8 76h22.2"/></g></svg>