<svg xmlns:xlink="http://www.w3.org/1999/xlink" xmlns="http://www.w3.org/2000/svg" baseProfile="basic" width="695" height="443" viewBox="0 0 695 443" preserveAspectRatio="xMinYMin meet"><defs><symbol id="b" overflow="visible"><path fill="#EEB770" d="M-22.3-14.7l-3.4 12.4 6-.2q7.2 0 13.2.9 19.2 2.8 19.7 12.7.4 10 6.6-6.5l6-18.5Q21.7-10 13.7-8q-16.2 3.8-36-6.7"/><path fill="none" stroke="#19344F" stroke-width="2.5" stroke-linecap="round" stroke-linejoin="round" d="M-19.7-2.5q7.2 0 13.2.9 19.2 2.8 19.7 12.7.4 10 6.6-6.5l6-18.5Q21.7-10 13.7-8q-16.2 3.8-36-6.7m2.6 12.2l-6 .2"/></symbol><symbol id="a" overflow="visible"><path fill="#EEB770" stroke="#19344F" stroke-width="2.5" stroke-linecap="round" stroke-linejoin="round" d="M22.7-13.8q1.8-3.4-1.5-1.5-5.6 3.3-20 7.4l-13.3 3.4q-1.5 1.6-3.3 4-3.8 4.8-5.8 8.4-6.3 11.5 7.8 6.9Q1.3 10 15.6-4.9q5.3-5.5 7-9"/></symbol></defs><g overflow="visible"><path fill="#F2FCFF" d="M695.4.5h-.4V443H.5v1.2h694.9V.4"/><path fill="#F2FCFF" d="M695 443V.4H.5V443H695"/><path fill="none" stroke="#1A344F" stroke-width="4" stroke-linecap="round" stroke-linejoin="round" d="M0 0h695M0 443V0m.5 443H0M695 0v.5m0 0V443H.5"/><path fill="#E4F2F7" stroke="#CDCCCC" stroke-width="2.5" stroke-linecap="round" stroke-linejoin="round" d="M211.7 47.2q-16-16-38.7-16-22.7 0-38.8 16-16 16-16 38.7 0 22.7 16 38.7 16 16 38.8 16 22.7 0 38.7-16 16-16 16-38.7 0-22.7-16-38.7"/><path fill="none" stroke="#CDCCCC" stroke-width="2.5" stroke-linecap="round" stroke-linejoin="round" d="M214.7 85.9q0-17.3-12.2-29.6-12.2-12.2-29.5-12.2-17.4 0-29.6 12.2-12.2 12.3-12.2 29.6t12.2 29.5q12.2 12.2 29.6 12.2 17.3 0 29.5-12.2T214.7 86"/><path fill="none" stroke="#CDCCCC" stroke-width="2.5" stroke-linecap="round" stroke-linejoin="round" d="M173 57V86l15.6 15.6m45.3 59h-56v69.8h56v-69.8"/><path fill="none" stroke="#CDCCCC" stroke-width="2.5" stroke-linecap="round" stroke-linejoin="round" d="M227.7 166.7h-43.5V224h43.5v-57.4m-33.4 35h15.5m-15.5-6.3H219m-18.6-9.3h12.4m-3 28h9.2"/><path fill="none" stroke="#CDCCCC" stroke-width="2.5" stroke-linecap="round" stroke-linejoin="round" d="M206.7 176.8q7 0 12.1 5m-12-5q-7.2 0-12.2 5m-81.2-21.3v69.8h55.9v-69.8h-55.9"/><path fill="none" stroke="#CDCCCC" stroke-width="2.5" stroke-linecap="round" stroke-linejoin="round" d="M163 224.1v-57.4h-43.3V224H163m-33.4-22.5h15.6m-15.6-6.2h24.9m-18.7-9.3h12.4m-3 28h9.3"/><path fill="none" stroke="#CDCCCC" stroke-width="2.5" stroke-linecap="round" stroke-linejoin="round" d="M142.1 176.8q7.1 0 12.1 5m-12-5q-7.1 0-12.1 5"/><path fill="#F2FCFF" stroke="#CDCCCC" stroke-width="2.5" stroke-linecap="round" stroke-linejoin="round" d="M501 175.8q-1.2 0-2.1.9-1 .9-1 2.1v132.3q0 1.3 1 2.1.9 1 2.1 1h91q1.3 0 2.2-1 .8-.8.8-2.1V178.8q0-1.2-.8-2.1-.9-.9-2.2-.9h-91"/><path fill="#F2FCFF" stroke="#CDCCCC" stroke-width="2.5" stroke-linecap="round" stroke-linejoin="round" d="M595.2 223v-1.6h-97.4v1.5h97.4m0 44.7V266h-97.4v1.5h97.4M532 187.9H561q1.3 0 2.1-1 1-.8 1-2v-3h-35.3v3q0 1.2 1 2 .8 1 2 1"/><path fill="#F2FCFF" stroke="#CDCCCC" stroke-width="2.5" stroke-linecap="round" stroke-linejoin="round" d="M564.1 225.5v-3H529v3q0 1.2 1 2 .8 1 2 1H561q1.3 0 2.1-1 1-.8 1-2m0 44.3v-3h-35.3v3q0 1.3 1 2.1.8 1 2 1H561q1.3 0 2.1-1 1-.8 1-2m-66-99.6q-1.3 0-2.2 1-.8.8-.8 2v4.6q0 1.2.8 2 1 1 2.2 1h96.7q1.2 0 2-1 1-.8 1-2v-4.5q0-1.3-1-2.2-.8-.9-2-.9h-96.7"/><path fill="#CCE8ED" fill-opacity=".3" d="M102.2 264.9q0 .6.4 1 .5.3.9.3h64q.6 0 .6.5v7.1q0 .5-.5.5h-64.1q-.5 0-.9.4t-.4 1v2.2q0 .5.4.9l.2.1q.3.3.7.3h64q2.3 0 3.9-1.6t1.6-3.8v-7.2q0-2.1-1.6-3.7t-3.8-1.6h-64.1q-.5 0-.9.4t-.4 1v2.2"/><path fill="#ECECEC" d="M108.8 266.2l.1.6.4 1.6q.6 2.7.6 5.2h-1.3v.7h59q.5 0 .5-.5v-7.2q0-.4-.5-.4h-58.8m-10.5 25.3q0 .4.5.4h58.9l-.6-2.3v-.1q-.4-1.8-.5-3.2v-.3q.3-1.2.9-2.2H98.8q-.6 0-.6.5v7.2"/><path fill="#F1E8C3" fill-opacity=".3" d="M98.8 292h64q.6 0 1 .3.3.4.3 1v2.1q0 .6-.4 1-.3.4-.7.4H98.8q-2.3 0-3.8-1.6-1.6-1.6-1.6-3.8v-7.1q0-2.3 1.6-3.8 1.6-1.6 3.8-1.6h4q.3.3.7.3h60.1l.1.1q.5.4.5 1v2.1q0 .6-.4 1t-1 .4h-64q-.6 0-.6.5v7.1q0 .5.6.5"/><path fill="#E6DDD8" fill-opacity=".3" d="M102.6 297.2q.3-.4.8-.4h64.1q2.3 0 3.9 1.6t1.6 3.8v7.1q0 2.3-1.6 3.9-1.6 1.5-3.8 1.5h-64.1q-.5 0-.9-.3-.4-.4-.4-1v-2.2q0-.6.4-1 .4-.3.9-.3h64q.6 0 .6-.6v-7.1q0-.5-.5-.5h-64.1q-.5 0-.9-.3-.4-.4-.4-1v-2.2q0-.6.4-1"/><path fill="#ECECEC" d="M109.1 301.7l.2.7v.5q.6 2.8.5 5.3v1.6h57.8q.5 0 .5-.5v-7.1q0-.5-.5-.5H109"/><path fill="#E7EFF0" d="M342.4 343.1q-.6-.6-1.5-.6h-23.7q-.9 0-1.5.6-.6.7-.6 1.5v23.8q0 .8.6 1.4t1.5.6h23.7q.9 0 1.5-.6t.6-1.4v-23.8q0-.8-.6-1.5"/><path fill="#F8F7EE" stroke="#19344F" stroke-width="2.5" stroke-linecap="round" stroke-linejoin="round" d="M341.5 344q-.7-.5-1.5-.5h-21.9q-.8 0-1.5.6-.6.6-.6 1.5v21.8q0 .9.6 1.5.7.6 1.5.6H340q.8 0 1.5-.6.6-.6.6-1.5v-21.8q0-.9-.6-1.5"/><path fill="#CECECE" stroke="#19344F" stroke-width="2.5" stroke-linecap="round" stroke-linejoin="round" d="M327.7 349.2V348q-3 .5-4.9 2.8-2 2.3-2 5.3t2 5.3q2 2.3 4.9 2.8v-1.4q0-.4.3-.4h2.2q.3 0 .3.4v1.3q2.9-.5 4.8-2.8 2-2.2 2-5.2t-2-5.2q-2-2.3-4.8-2.8v1.2q0 .4-.3.4H328q-.3 0-.3-.4"/><path fill="#4F5A68" d="M327.3 356q0-.8-.5-1.3-.6-.6-1.4-.6-.7 0-1.2.6-.6.5-.6 1.3t.6 1.3q.5.5 1.3.5.7 0 1.3-.5.5-.5.5-1.3m7.4 0q0-.8-.5-1.3-.6-.6-1.4-.6-.7 0-1.2.6-.6.5-.6 1.3t.6 1.3q.5.5 1.2.5.8 0 1.4-.5.5-.5.5-1.3"/><path fill="#8F897D" stroke="#19344F" stroke-width="2.5" stroke-linecap="round" stroke-linejoin="round" d="M338.4 354.8q-.6-1.6-2.4-1.6h-12.5q-1.1 0-1.9.7-.7.8-.7 1.9v1.5q0 1.1.7 1.9.8.7 1.9.7H336q1.5 0 2.3-1.3h47.6q8.6 0 14.7-6 6-6.2 6-14.7v-14.6q0-.8-.5-1.3t-1.3-.6q-.8 0-1.3.6-.6.5-.6 1.3V338q0 7-5 12t-12 4.9h-47.5"/><path fill="#A5CD7B" d="M626.1 316.7q-1.4-1.5-3.4-1.5H52.8q-2 0-3.4 1.5Q48 318 48 320t1.4 3.4q1.4 1.5 3.4 1.5h569.9q2 0 3.4-1.5 1.5-1.4 1.5-3.4t-1.5-3.4"/><path fill="none" stroke="#1A344F" stroke-width="2.5" stroke-linecap="round" stroke-linejoin="round" d="M626.1 316.7q-1.4-1.5-3.4-1.5H52.8q-2 0-3.4 1.5Q48 318 48 320t1.4 3.4q1.4 1.5 3.4 1.5h569.9q2 0 3.4-1.5 1.5-1.4 1.5-3.4t-1.5-3.4"/><path fill="#A5CD7B" d="M443.2 324.9v28q0 5.8 4 9.9t9.9 4h136q5.8 0 9.8-4t4.1-9.9v-28H443.2"/><path fill="none" stroke="#1A344F" stroke-width="2.5" stroke-linecap="round" stroke-linejoin="round" d="M443.2 324.9v28q0 5.8 4 9.9t9.9 4h136q5.8 0 9.8-4t4.1-9.9v-28H443.2m50.6 16.1h63.6"/><path fill="#1A344F" fill-opacity=".3" d="M106.5 267.5l.3 1.4q.5 2.2.6 4.2h2.5q-.1-2.3-.6-4.8l-.2-.8h-2.6m-3-7.5h64.1q2.8 0 4.8 2 1.8 2 1.8 4.6v7.2q0 2.8-1.8 4.7-2 2-4.8 2h-2.1v2q0 1-.8 1.8t-1.9.8H99.6v5.5h63.3q1 0 1.8.8t.8 1.9v2.2h2q2.9 0 4.8 2t1.9 4.7v7.1q0 2.8-1.9 4.8-2 1.9-4.8 1.9h-64q-1.1 0-1.8-.8t-.8-1.8v-2.3q0-1 .8-1.8t1.8-.8h63.3V303h-63.4q-1 0-1.8-.8-.7-.7-.7-1.8v-2.3h-2.1q-2.7 0-4.7-2-2-1.9-2-4.7v-7.1q0-2.8 2-4.7 2-2 4.7-2h2.2v-2q0-1 .7-1.8t1.8-.8h63.4v-5.5h-63.4q-1 0-1.8-.8-.8-.7-.8-1.8v-2.3q0-1 .8-1.8t1.8-.8"/><path fill="#19344F" fill-opacity=".3" d="M103.5 260h64.1q2.8 0 4.8 2 1.8 2 1.8 4.6v7.2q0 2.8-1.8 4.7-2 2-4.8 2h-2.1v2q0 1-.8 1.8t-1.9.8H99.6v5.5h63.3q1 0 1.8.8t.8 1.9v2.2h2q2.9 0 4.8 2t1.9 4.7v7.1q0 2.8-1.9 4.8-2 1.9-4.8 1.9h-64q-1.1 0-1.8-.8t-.8-1.8v-2.3q0-1 .8-1.8t1.8-.8h63.3V303h-63.4q-1 0-1.8-.8-.7-.7-.7-1.8v-2.3h-2.1q-2.7 0-4.7-2-2-1.9-2-4.7v-7.1q0-2.8 2-4.7 2-2 4.7-2h2.2v-2q0-1 .7-1.8t1.8-.8h63.4v-5.5h-63.4q-1 0-1.8-.8-.8-.7-.8-1.8v-2.3q0-1 .8-1.8t1.8-.8m0 2.6h64.1q1.7 0 2.9 1.2 1.1 1.2 1.1 2.8v7.2q0 1.7-1.2 2.9-1.1 1.2-2.8 1.2h-3.5q-.6-.3-1.3-.3h-59.3v-2h64.1q.8 0 1.3-.5.5-.6.5-1.3v-7.2q0-.7-.5-1.2-.6-.5-1.3-.5h-64.1v-2.3m-6 20.4q-.6.5-.6 1.3v7.1q0 .8.6 1.3.5.5 1.3.5h64v2.2h-64q-1.7 0-2.9-1.1-1.2-1.2-1.2-2.9v-7.1q0-1.7 1.2-2.9t2.9-1.2h3.5q.6.3 1.2.3h59.4v2H98.8q-.8 0-1.3.5m6 15.1h64q1.8 0 2.9 1.2 1.2 1.2 1.2 2.9v7.1q0 1.7-1.2 2.9-1.1 1.2-2.9 1.2h-64v-2.3h64q.8 0 1.4-.5.5-.5.5-1.3v-7.1q0-.8-.5-1.3-.6-.5-1.3-.5h-64.1v-2.3m-3.9-13h57.3l-.3.8v.4q.1 1.5.5 3.2l.3 1.1H99.5v-5.5m9.8 17.9q.5 2.8.4 5.2v.4h-2.5v-.4q.1-2.4-.5-5.2h2.6"/><path fill="#1A344F" fill-opacity=".3" d="M157.1 289.6v-.1q-.4-1.8-.5-3.2v-.3l.3-.9h2.7l-.5 1.2q.1 1.2.5 2.7l.3 1.6h-2.5l-.3-1M109.4 303q.5 2.8.5 5.2v.3h-2.5v-.3q0-2.4-.5-5.2h2.5"/><g display="none"><path fill="#DEE0DF" stroke="#1A344F" stroke-width="2.5" stroke-linecap="round" stroke-linejoin="round" d="M393.9 273.3h-45v29.6h45v-29.6"/><path fill="#F26060" stroke="#1A344F" stroke-width="2.5" stroke-linecap="round" stroke-linejoin="round" d="M481 116.3q-2.3-2.3-5.6-2.3H269q-3.3 0-5.6 2.3-2.3 2.4-2.3 5.6v122.7h222.4V122q0-3.2-2.3-5.6"/><path fill="#E9EDEA" stroke="#1A344F" stroke-width="2.5" stroke-linecap="round" stroke-linejoin="round" d="M475.4 276.4q3.3 0 5.7-2.3 2.3-2.3 2.3-5.6v-23.9H261v23.9q0 3.3 2.3 5.6t5.6 2.3h206.5"/><path fill="#E9EDEA" stroke="#1A344F" stroke-width="2.5" stroke-linecap="round" stroke-linejoin="round" d="M377.5 260.5q0-2.2-1.6-3.7-1.5-1.6-3.7-1.6t-3.8 1.6q-1.5 1.5-1.5 3.7t1.5 3.8q1.6 1.5 3.8 1.5 2.2 0 3.7-1.5 1.6-1.6 1.6-3.8m-44.2 40.6l-3.5 14.1h84.8l-3.6-14h-77.7"/><animate attributeName="display" repeatCount="indefinite" dur="5.375s" keyTimes="0;0.434;0.744;1" values="none;inline;none;none"/></g><g display="none"><path fill="#DEE0DF" stroke="#1A344F" stroke-width="2.5" stroke-linecap="round" stroke-linejoin="round" d="M393.9 273.3h-45v29.6h45v-29.6"/><path fill="#BDE8F7" stroke="#1A344F" stroke-width="2.5" stroke-linecap="round" stroke-linejoin="round" d="M481 116.3q-2.3-2.3-5.6-2.3H269q-3.3 0-5.6 2.3-2.3 2.4-2.3 5.6v122.7h222.4V122q0-3.2-2.3-5.6"/><path fill="#E9EDEA" stroke="#1A344F" stroke-width="2.5" stroke-linecap="round" stroke-linejoin="round" d="M475.4 276.4q3.3 0 5.7-2.3 2.3-2.3 2.3-5.6v-23.9H261v23.9q0 3.3 2.3 5.6t5.6 2.3h206.5"/><path fill="#E9EDEA" stroke="#1A344F" stroke-width="2.5" stroke-linecap="round" stroke-linejoin="round" d="M377.5 260.5q0-2.2-1.6-3.7-1.5-1.6-3.7-1.6t-3.8 1.6q-1.5 1.5-1.5 3.7t1.5 3.8q1.6 1.5 3.8 1.5 2.2 0 3.7-1.5 1.6-1.6 1.6-3.8m-44.2 40.6l-3.5 14.1h84.8l-3.6-14h-77.7"/><animate attributeName="display" repeatCount="indefinite" dur="5.375s" keyTimes="0;0.186;0.434;1" values="none;inline;none;none"/></g><g><path fill="#DEE0DF" stroke="#1A344F" stroke-width="2.5" stroke-linecap="round" stroke-linejoin="round" d="M393.9 273.3h-45v29.6h45v-29.6"/><path fill="#A5CD7B" stroke="#1A344F" stroke-width="2.5" stroke-linecap="round" stroke-linejoin="round" d="M481 116.3q-2.3-2.3-5.6-2.3H269q-3.3 0-5.6 2.3-2.3 2.4-2.3 5.6v122.7h222.4V122q0-3.2-2.3-5.6"/><path fill="#E9EDEA" stroke="#1A344F" stroke-width="2.5" stroke-linecap="round" stroke-linejoin="round" d="M475.4 276.4q3.3 0 5.7-2.3 2.3-2.3 2.3-5.6v-23.9H261v23.9q0 3.3 2.3 5.6t5.6 2.3h206.5"/><path fill="#E9EDEA" stroke="#1A344F" stroke-width="2.5" stroke-linecap="round" stroke-linejoin="round" d="M377.5 260.5q0-2.2-1.6-3.7-1.5-1.6-3.7-1.6t-3.8 1.6q-1.5 1.5-1.5 3.7t1.5 3.8q1.6 1.5 3.8 1.5 2.2 0 3.7-1.5 1.6-1.6 1.6-3.8m-44.2 40.6l-3.5 14.1h84.8l-3.6-14h-77.7"/><animate attributeName="display" repeatCount="indefinite" dur="5.375s" keyTimes="0;0.186;0.744;1" values="inline;none;inline;inline"/></g><g display="none"><path fill="#1A344F" d="M358 159.7v-4.1h3.8v-2h-6.1v14.3h6.1v-2h-3.9v-4.3h3.1v-2h-3m-4-6h-3l-1.6 10.2-1.7-10.3h-3.1V168h2v-10.1l1.6 10.1h2.2l1.5-10.3V168h2.1v-14.3m9.2 0v14.3h2v-10.4l2.9 10.4h2.2v-14.3h-2v8.6l-2.3-8.6h-2.8m-19.6 2v-2h-7v2h2.4v12.3h2.3v-12.3h2.3m-7.6 1.8v-.4q0-1.8-.8-2.7-.8-.9-2.5-1-1.7.1-2.5 1-.8 1-.8 2.7 0 1.3.5 2.1.3.8 1 1.5t1.3 1.3q.7.5 1.1 1.2.5.7.5 1.5t-.3 1.1q-.4.3-.9.3t-.9-.3q-.3-.3-.3-1v-1.1h-2.1v.9q0 1.7.8 2.6.9 1 2.5 1 1.7 0 2.6-1 .8-.9.8-2.6 0-1.3-.4-2.1l-1.1-1.6-1.4-1.2-1-1.2q-.5-.7-.5-1.6 0-.7.3-1 .3-.4.8-.4t.9.3q.3.4.3 1.1v.6h2.1m-11.6-1.8h3.9v-2H322v14.3h6.1v-2h-3.8v-4.3h3v-2h-3v-4m15.8 23.8q-1.9-2-5.5-2t-5.4 2q-2 2-2 5.8v16.2q0 3.7 2 5.8 1.8 2 5.4 2 3.6 0 5.5-2 1.9-2.1 2-5.8v-16.1q-.1-3.9-2-5.9m-3.6 3.1q.6.7.6 2.4v16.8q0 1.6-.6 2.3-.7.7-1.9.7t-1.8-.7q-.7-.7-.7-2.3V185q0-1.6.7-2.4.6-.7 1.8-.6 1.2-.1 1.9.7m-12.2 3.5v-.8q0-3.9-1.8-5.9-1.9-2-5.5-2-3.5 0-5.4 2-1.8 2-1.8 5.8v1.8h4.6v-2q0-1.8.7-2.5t1.8-.7q1.2 0 1.9.8t.7 2.8v1.8q0 1.8-.9 2.5-.7.8-2.1.7h-1.9v4.5h1.7q1.6 0 2.4.8.8 1 .8 3.1v2.5q0 2-.8 2.7-.6.8-1.8.8-1.1 0-1.8-.8-.7-.6-.7-2.2v-3h-4.6v2.6q0 3.7 1.9 5.8t5.3 2q3.6 0 5.5-2 1.8-2.1 1.8-5.8v-2.5q0-2.3-.8-4-.8-1.6-2.6-2.5 1.8-.7 2.6-2.3.8-1.6.8-4m25.4-8.5q-2.4 0-3.6 1.3-1.1 1.3-1.1 3.6v10.3q0 2.3 1.1 3.6 1.2 1.3 3.6 1.3 2.2 0 3.4-1.3 1.2-1.3 1.3-3.6v-10.3q-.1-2.3-1.3-3.6-1.2-1.3-3.5-1.4m-1.1 3.4q.3-.5 1.1-.5t1.2.5q.5.4.5 1.4V193q0 1-.5 1.5-.4.5-1.1.5-.9 0-1.3-.5-.3-.5-.3-1.5v-10.7q0-1 .4-1.4m13 9.3q-1.2 1.3-1.2 3.7v10.2q0 2.4 1.3 3.7 1.1 1.2 3.4 1.2t3.5-1.2q1.2-1.3 1.2-3.7v-10.2q0-2.5-1.2-3.7-1.2-1.3-3.5-1.3t-3.5 1.3m2.3 2q.5-.5 1.3-.5.6 0 1 .5.5.5.5 1.4v10.7q0 1-.5 1.5-.3.4-1 .4-.9 0-1.3-.4-.3-.5-.3-1.5v-10.7q0-1 .3-1.4m36.7-38.6v14.3h6v-2h-3.8v-12.3h-2.2m-22.3 2v-2h-7v2h2.4v12.3h2.2v-12.3h2.4m-13.4 22.2H362l-12.3 31h2.9l12.3-31m79.2-24.3h-3.3l-2.3 14.4h2l.5-2.5h2.7l.4 2.5h2.3l-2.4-14.3m-2.8 9.8l1.1-7.3 1.1 7.3h-2.1m-4.1-3.6q.3-.7.3-1.8v-1.1q.1-1.7-.7-2.6-.8-.8-2.5-.8h-3.5V168h2.3V162h.8q.8 0 1.1.4.4.5.4 1.5V167l.1.5.1.4h2.3l-.2-.8-.1-.9v-2.3q0-1-.3-1.9-.3-.8-1.1-1.1.7-.4 1-1m-4.1-4.3h1.1q.6 0 .9.3.3.4.3 1.2v1.4q0 .8-.4 1.2-.3.3-1 .3h-.9v-4.4m-7.6 4v-4h3.9v-2h-6.1v14.3h6.1v-2h-3.8v-4.3h3v-2h-3m-3.4-6h-2l-1.8 11.7-1.7-11.8h-2.2l2.1 14.4h3.4l2.2-14.3m-8.6 2v-2h-6v14.3h6v-2h-3.9v-4.3h3.2v-2h-3.1v-4h3.8m4.9 42.2v-21h-5.3l-8.8 21v4.4h9.3v5.7h4.8v-5.7h2.3v-4.4h-2.3m-4.8 0h-4.9l5-11.7v11.7m10.8-19.4q-2 2.1-2 5.8v16.2q0 3.7 2 5.8t5.4 2q3.7 0 5.6-2 1.8-2.1 1.8-5.8v-16.1q0-3.8-1.8-5.9-2-2-5.6-2-3.5 0-5.4 2m3.6 3.1q.7-.7 1.9-.6 1.1 0 1.8.6.7.7.7 2.4v16.8q0 1.7-.7 2.3-.6.7-1.8.7-1.2 0-1.9-.7-.6-.6-.6-2.3V184q0-1.6.6-2.4m11.7-4.7l5 15.1-5.3 16h4.5l4-12.4 4 12.3h5.2l-5.5-15.9 5.2-15.1h-4.6l-3.7 11.4-3.7-11.4h-5.1m17.8-17.2v-4h3.9v-2h-6.2v14.3h6.2v-2h-3.9v-4.3h3v-2h-3m-4.6-5.3q-.8-.9-2.5-1-1.6.1-2.5 1-.8 1-.8 2.7v7.5q0 1.8.8 2.6.8 1 2.5 1t2.5-1q.8-.8.8-2.6V160h-3.1v2h1v2.6q0 .8-.3 1.1-.3.3-.8.3t-.8-.3q-.4-.3-.4-1v-7.9q0-.7.3-1 .4-.4.9-.4t.8.3q.3.4.3 1.1v1.6h2.2V157q0-1.8-.9-2.7m-132-.8H319l-1.8 11.8-1.6-11.8h-2.3l2.2 14.4h3.4l2.2-14.3m-8.9 0h-2v8.6l-2.2-8.6H305v14.3h2v-10.4l2.8 10.4h2.4v-14.3m-11 14.3h2.2v-14.3h-2.2v14.3"/><animate attributeName="display" repeatCount="indefinite" dur="5.375s" keyTimes="0;0.434;0.744;1" values="none;inline;none;none"/></g><g display="none"><path fill="#1A344F" d="M358 159.7v-4.1h3.8v-2h-6.1v14.3h6.1v-2h-3.9v-4.3h3.1v-2h-3m-4-6h-3l-1.6 10.2-1.7-10.3h-3.1V168h2v-10.1l1.6 10.1h2.2l1.5-10.3V168h2.1v-14.3m9.2 0v14.3h2v-10.4l2.9 10.4h2.2v-14.3h-2v8.6l-2.3-8.6h-2.8m-19.6 2v-2h-7v2h2.4v12.3h2.3v-12.3h2.3m-7.6 1.8v-.4q0-1.8-.8-2.7-.8-.9-2.5-1-1.7.1-2.5 1-.8 1-.8 2.7 0 1.3.5 2.1.3.8 1 1.5t1.3 1.3q.7.5 1.1 1.2.5.7.5 1.5t-.3 1.1q-.4.3-.9.3t-.9-.3q-.3-.3-.3-1v-1.1h-2.1v.9q0 1.7.8 2.6.9 1 2.5 1 1.7 0 2.6-1 .8-.9.8-2.6 0-1.3-.4-2.1l-1.1-1.6-1.4-1.2-1-1.2q-.5-.7-.5-1.6 0-.7.3-1 .3-.4.8-.4t.9.3q.3.4.3 1.1v.6h2.1m-11.6-1.8h3.9v-2H322v14.3h6.1v-2h-3.8v-4.3h3v-2h-3v-4m10.4 21.8q-3.7 0-5.6 2-1.8 2-1.8 5.9v16.1q0 3.7 1.9 5.8 1.8 2 5.4 2 3.6 0 5.5-2 1.9-2.1 2-5.8v-16.1q-.1-3.8-2-5.8t-5.5-2.1m0 4.5q1.3-.1 1.9.6.6.7.7 2.4v16.8q-.1 1.6-.7 2.3-.7.7-1.9.7-1.1 0-1.8-.7t-.7-2.3V185q0-1.6.7-2.4.7-.7 1.9-.6m15-4.3q-2.4 0-3.6 1.3-1.1 1.3-1.1 3.6v10.3q0 2.3 1.1 3.6 1.2 1.3 3.6 1.3 2.2 0 3.4-1.3 1.2-1.3 1.3-3.6v-10.3q-.1-2.3-1.3-3.6-1.2-1.3-3.5-1.4m-1.1 3.4q.3-.5 1.1-.5t1.2.5q.5.4.5 1.4V193q0 1-.5 1.5-.4.5-1.1.5-.9 0-1.3-.5-.3-.5-.3-1.5v-10.7q0-1 .4-1.4m13 9.3q-1.2 1.3-1.2 3.7v10.2q0 2.4 1.3 3.7 1.1 1.2 3.4 1.2t3.5-1.2q1.2-1.3 1.2-3.7v-10.2q0-2.5-1.2-3.7-1.2-1.3-3.5-1.3t-3.5 1.3m2.3 2q.5-.5 1.3-.5.6 0 1 .5.5.5.5 1.4v10.7q0 1-.5 1.5-.3.4-1 .4-.9 0-1.3-.4-.3-.5-.3-1.5v-10.7q0-1 .3-1.4m36.7-38.6v14.3h6v-2h-3.8v-12.3h-2.2m-22.3 2v-2h-7v2h2.4v12.3h2.2v-12.3h2.4m-13.4 22.2H362l-12.3 31h2.9l12.3-31m79.2-24.3h-3.3l-2.3 14.4h2l.5-2.5h2.7l.4 2.5h2.3l-2.4-14.3m-2.8 9.8l1.1-7.3 1.1 7.3h-2.1m-4.1-3.6q.3-.7.3-1.8v-1.1q.1-1.7-.7-2.6-.8-.8-2.5-.8h-3.5V168h2.3V162h.8q.8 0 1.1.4.4.5.4 1.5V167l.1.5.1.4h2.3l-.2-.8-.1-.9v-2.3q0-1-.3-1.9-.3-.8-1.1-1.1.7-.4 1-1m-4.1-4.3h1.1q.6 0 .9.3.3.4.3 1.2v1.4q0 .8-.4 1.2-.3.3-1 .3h-.9v-4.4m-7.6 4v-4h3.9v-2h-6.1v14.3h6.1v-2h-3.8v-4.3h3v-2h-3m-3.4-6h-2l-1.8 11.7-1.7-11.8h-2.2l2.1 14.4h3.4l2.2-14.3m-8.6 2v-2h-6v14.3h6v-2h-3.9v-4.3h3.2v-2h-3.1v-4h3.8m6.1 28.7q0-3.8-1.8-5.9-1.9-2-5.4-2-3.6 0-5.4 2-1.9 2.1-1.9 5.8v1.8h4.6v-2q0-1.8.7-2.5t1.9-.6q1.2 0 1.8.7.7.7.7 2.8v1.7q0 1.9-.8 2.6-.8.8-2.1.7h-2v4.5h1.7q1.7 0 2.5.9.7.8.7 3v2.4q0 2.1-.7 2.8-.6.8-1.8.7-1.2 0-1.9-.7-.7-.6-.7-2.3v-2.9h-4.5v2.6q0 3.7 1.8 5.7 1.8 2.1 5.4 2.1 3.5 0 5.4-2 1.9-2.1 1.9-5.8v-2.5q0-2.4-.9-4-.7-1.7-2.5-2.5 1.7-.7 2.5-2.3.9-1.6.9-4v-.9m4.8-5.8q-2 2.1-2 5.8v16.2q0 3.7 2 5.8t5.4 2q3.7 0 5.6-2 1.8-2.1 1.8-5.8v-16.1q0-3.8-1.8-5.9-2-2-5.6-2-3.5 0-5.4 2m8 5.5v16.8q0 1.7-.7 2.3-.6.7-1.8.7-1.2 0-1.9-.7-.6-.6-.6-2.3V184q0-1.6.6-2.4.7-.6 1.9-.6 1.1 0 1.8.7t.7 2.3m7.3-7.1l5 15.1-5.3 16h4.5l4-12.4 4 12.3h5.2l-5.5-15.9 5.2-15.1h-4.6l-3.7 11.4-3.7-11.4h-5.1m17.8-17.2v-4h3.9v-2h-6.2v14.3h6.2v-2h-3.9v-4.3h3v-2h-3m-4.6-5.3q-.8-.9-2.5-1-1.6.1-2.5 1-.8 1-.8 2.7v7.5q0 1.8.8 2.6.8 1 2.5 1t2.5-1q.8-.8.8-2.6V160h-3.1v2h1v2.6q0 .8-.3 1.1-.3.3-.8.3t-.8-.3q-.4-.3-.4-1v-7.9q0-.7.3-1 .4-.4.9-.4t.8.3q.3.4.3 1.1v1.6h2.2V157q0-1.8-.9-2.7m-128.9 54.5v-4.4h-9.1l-.1-.3v-.4q0-1.4 1-2.9l2.4-3 2.9-3.3q1.4-1.8 2.3-4.1 1-2.3 1.1-5.2 0-3.7-1.8-5.7-1.9-2-5.5-2.1-3.5 0-5.4 2-1.9 2-1.9 5.8v3h4.7V185q0-1.6.7-2.4.6-.7 1.8-.6 1.1-.1 1.8.7.7.8.7 2.8 0 2.7-1 4.6-1 2-2.4 3.5l-2.9 3.3q-1.4 1.5-2.4 3.5t-1 4.7v3.9h14.1m-3.1-55.3H319l-1.8 11.7-1.6-11.8h-2.3l2.2 14.4h3.4l2.2-14.3m-8.9 0h-2v8.6l-2.2-8.6H305v14.3h2v-10.4l2.8 10.4h2.4v-14.3m-11 14.3h2.2v-14.3h-2.2v14.3"/><animate attributeName="display" repeatCount="indefinite" dur="5.375s" keyTimes="0;0.186;0.434;1" values="none;inline;none;none"/></g><g><path fill="#1A344F" d="M358 159.7v-4.1h3.8v-2h-6.1v14.3h6.1v-2h-3.9v-4.3h3.1v-2h-3m-4-6h-3l-1.6 10.2-1.7-10.3h-3.1V168h2v-10.1l1.6 10.1h2.2l1.5-10.3V168h2.1v-14.3m9.2 0v14.3h2v-10.4l2.9 10.4h2.2v-14.3h-2v8.6l-2.3-8.6h-2.8m-19.6 2v-2h-7v2h2.4v12.3h2.3v-12.3h2.3m-7.6 1.8v-.4q0-1.8-.8-2.7-.8-.9-2.5-1-1.7.1-2.5 1-.8 1-.8 2.7 0 1.3.5 2.1.3.8 1 1.5t1.3 1.3q.7.5 1.1 1.2.5.7.5 1.5t-.3 1.1q-.4.3-.9.3t-.9-.3q-.3-.3-.3-1v-1.1h-2.1v.9q0 1.7.8 2.6.9 1 2.5 1 1.7 0 2.6-1 .8-.9.8-2.6 0-1.3-.4-2.1l-1.1-1.6-1.4-1.2-1-1.2q-.5-.7-.5-1.6 0-.7.3-1 .3-.4.8-.4t.9.3q.3.4.3 1.1v.6h2.1m-11.6-1.8h3.9v-2H322v14.3h6.1v-2h-3.8v-4.3h3v-2h-3v-4m12.5 27q0-2.4-1.3-3.7-1.2-1.3-3.5-1.4-2.3.1-3.4 1.4-1.2 1.3-1.2 3.6v10.3q0 2.3 1.2 3.6 1.1 1.3 3.5 1.3 2.2 0 3.4-1.3 1.2-1.3 1.3-3.6v-10.3m-3.1-.2V193q0 1-.5 1.5-.4.5-1.1.5-.8 0-1.2-.5-.4-.5-.4-1.5v-10.7q0-1 .4-1.4.4-.5 1.2-.5.7 0 1.1.5.5.4.5 1.4m10.3 7.9q-1.2 1.3-1.3 3.7v10.2q.1 2.4 1.3 3.7 1.1 1.2 3.5 1.2 2.2 0 3.4-1.2 1.2-1.3 1.2-3.7v-10.2q0-2.5-1.1-3.7-1.3-1.3-3.6-1.3t-3.4 1.3m3.5 1.5q.7 0 1.1.5.5.5.5 1.4v10.7q0 1-.5 1.5-.4.4-1.1.4-.9 0-1.3-.4-.3-.5-.3-1.5v-10.7q0-1 .4-1.4.4-.5 1.2-.5m-.4-13.9h-2.8l-12.3 31h3l12.1-31m53.4-24.3V168h6v-2h-3.8v-12.3h-2.2m-24.7 2h2.4v-2h-7v2h2.3v12.3h2.3v-12.3m68.2-2h-3.3l-2.3 14.3h2l.5-2.5h2.7l.4 2.5h2.3l-2.4-14.3m-2.8 9.8l1.1-7.3 1.1 7.3h-2.1m-4.1-3.6q.3-.7.3-1.8v-1.1q.1-1.7-.7-2.6-.8-.8-2.5-.8h-3.5V168h2.3V162h.8q.8 0 1.1.4.4.5.4 1.5V167l.1.5.1.4h2.3l-.2-.8-.1-.9v-2.3q0-1-.3-1.9-.3-.8-1.1-1.1.7-.4 1-1m-4.1-4.3h1.1q.6 0 .9.3.3.4.3 1.2v1.4q0 .8-.4 1.2-.3.3-1 .3h-.9v-4.4m-7.6 4v-4h3.9v-2h-6.1v14.3h6.1v-2h-3.8v-4.3h3v-2h-3m-3.4-6h-2l-1.8 11.7-1.7-11.8h-2.2l2.1 14.4h3.4l2.2-14.3m-8.6 2v-2h-6v14.3h6v-2h-3.9v-4.3h3.2v-2h-3.1v-4h3.8m11 22.8q-2 2.1-2 5.8v16.2q0 3.7 2 5.8t5.4 2q3.7 0 5.6-2 1.8-2.1 1.8-5.8v-16.1q0-3.8-1.8-5.9-2-2-5.6-2-3.5 0-5.4 2m8 5.5v16.8q0 1.7-.7 2.3-.6.7-1.8.7-1.2 0-1.9-.7-.6-.6-.6-2.3V184q0-1.6.6-2.4.7-.6 1.9-.6 1.1 0 1.8.7t.7 2.3m-24.2.3h3.9v23.7h4.8v-31.1h-3.2l-.9 2q-.5.8-1.6 1.3-1 .6-3 .6v3.5m31.5-7.4l5 15.1-5.3 16h4.5l4-12.4 4 12.3h5.2l-5.5-15.9 5.2-15.1h-4.6l-3.7 11.4-3.7-11.4h-5.1m17.8-17.2v-4h3.9v-2h-6.2v14.3h6.2v-2h-3.9v-4.3h3v-2h-3m-4.6-5.3q-.8-.9-2.5-1-1.6.1-2.5 1-.8 1-.8 2.7v7.5q0 1.8.8 2.6.8 1 2.5 1t2.5-1q.8-.8.8-2.6V160h-3.1v2h1v2.6q0 .8-.3 1.1-.3.3-.8.3t-.8-.3q-.4-.3-.4-1v-7.9q0-.7.3-1 .4-.4.9-.4t.8.3q.3.4.3 1.1v1.6h2.2V157q0-1.8-.9-2.7m-128.9 54.5v-4.4h-9.1l-.1-.3v-.4q0-1.4 1-2.9l2.4-3 2.9-3.3q1.4-1.8 2.3-4.1 1-2.3 1.1-5.2 0-3.7-1.8-5.7-1.9-2-5.5-2.1-3.5 0-5.4 2-1.9 2-1.9 5.8v3h4.7V185q0-1.6.7-2.4.6-.7 1.8-.6 1.1-.1 1.8.7.7.8.7 2.8 0 2.7-1 4.6-1 2-2.4 3.5l-2.9 3.3q-1.4 1.5-2.4 3.5t-1 4.7v3.9h14.1m-3.1-55.3H319l-1.8 11.7-1.6-11.8h-2.3l2.2 14.4h3.4l2.2-14.3m-8.9 0h-2v8.6l-2.2-8.6H305v14.3h2v-10.4l2.8 10.4h2.4v-14.3m-11 14.3h2.2v-14.3h-2.2v14.3"/><animate attributeName="display" repeatCount="indefinite" dur="5.375s" keyTimes="0;0.186;0.744;1" values="inline;none;inline;inline"/></g><path fill="#F2FCFF" fill-opacity=".5" d="M481.8 142.6q-.2-.6-.2-1.3l.3-4.5V129v-1.9L366 242.9h15.3l100.4-100.3m-7.4-27.4L346.7 242.9H316l127.6-127.7h30.6M352.6 271.6l-.6-.6h1.3l-.7.6"/><path fill="#F8F7EE" stroke="#19344F" stroke-width="2.5" stroke-linecap="round" stroke-linejoin="round" d="M502.7 394.9l-7.2-3-12.3 3-4.3 11.8 1.1 4.8q1.4 4.8 3.2 4.8h18.2q1.5 0 11.2 1.5 5.6.9 5.9-1.5.3-2.6.1-7.2l-.1-4.1q.6-.7.5-1.6-.3-2-4.3-3.5l-12-5"/><path fill="#F8F7EE" stroke="#19344F" stroke-width="2.5" stroke-linecap="round" stroke-linejoin="round" d="M539.3 386.2q-4.7-2-5.8-.5l-11.4 14-8.4 7.8q-4.1 3.7-2.5 5.5 3 2.9 8.8 7l1 1.5q1.6 1 5.3-1.1 6-3.4 18.4-9.8l5.4-11.4-6.4-10.9q-2-1.2-4.4-2.1"/><path fill="#CECECE" stroke="#19344F" stroke-width="2.5" stroke-linecap="round" stroke-linejoin="round" d="M550.8 444.2l6.2-33.1h-82.2l6.2 33.1h69.8"/><path fill="none" stroke="#19344F" stroke-width="2.5" stroke-linecap="round" stroke-linejoin="round" d="M482.7 420.7h66.4"/><path fill="none" stroke="#19344F" stroke-width="3" stroke-linecap="round" stroke-linejoin="round" d="M550 399.2l-12.5 4.2"/><path fill="#8F897D" d="M316.7 391.4q-1.5-2.6-4.4-3.5-3-.9-5.6.5L274 405v39.3l24.7-16.2q2.7-1.8 6-1 3 .8 4.7 3.6l5.6 13.6h32.8l-31.2-53"/><path fill="none" stroke="#19344F" stroke-width="2.5" stroke-linecap="round" stroke-linejoin="round" d="M312.3 388q2.9.8 4.4 3.4l31.2 52.9H315l-5.6-13.6q-1.6-2.8-4.8-3.6-3.2-.8-5.9 1l-24.7 16.2m38.2-56.4q-3-.9-5.6.5L274 405"/><path fill="#E9AF90" stroke="#19344F" stroke-width="2.5" stroke-linecap="round" stroke-linejoin="round" d="M205.5 338.8q3.3.8 6.2-1 2.9-1.9 3.7-5.2l4.8-20.9-23.6-5.5-4.9 20.9q-.7 3.3 1 6.2 1.8 3 5.2 3.7l7.6 1.8"/><path fill="#CC9276" stroke="#19344F" stroke-width="2.5" stroke-linecap="round" stroke-linejoin="round" d="M179 265.7q0-6.8-4.7-11.7-4.7-4.8-11.5-4.9-6.8 0-11.7 4.8-4.8 4.7-4.9 11.5 0 6.8 4.7 11.6 4.8 4.9 11.6 5 6.8 0 11.6-4.8 4.9-4.8 5-11.5m75-3.6q-4.8 4.8-4.9 11.6 0 6.8 4.8 11.6 4.7 4.8 11.5 4.9 6.8.1 11.7-4.7 4.8-4.7 4.9-11.5 0-6.8-4.7-11.7-4.8-4.8-11.6-4.9-6.8 0-11.6 4.7"/><path fill="#EEB770" stroke="#19344F" stroke-width="2.5" stroke-linecap="round" stroke-linejoin="round" d="M281.7 201l-15.2 3-2.6 12.3q-2.7 14.1-4 24.1-3.6 32 10.4 9.9 14-22.2 14.1-37.9 0-5-1.3-8.6l-1.4-2.7"/><path fill="#E9AF90" stroke="#19344F" stroke-width="2.5" stroke-linecap="round" stroke-linejoin="round" d="M192 177q-18.7-4.4-27 13.7-6.2 13.6-6.5 39.7l2.3 32.8q-.2 21.1 14.7 36.2 14.8 15 36 15.3h7q21.1.2 36.2-14.6 15-14.9 15.3-36l2.7-32.7q.2-19.7-14.8-28.7-12.5-7.6-36-7.8L192 177"/><path fill="#CC9276" d="M172.7 263.5q-3-5-6.2-9.3-6.2-8.6-6.5-4.9-.3 4.9 1.5 17.2 2 13 4.1 19 16.6 23.5 40.1 27.6 11.8 2.1 20.2-.6-27.4-6.5-43-28.4-5-6.8-8-14.4l-2.2-6.2"/><path fill="none" stroke="#19344F" stroke-width="2.5" stroke-linecap="round" stroke-linejoin="round" d="M192 177q-18.7-4.4-27 13.7-6.2 13.6-6.5 39.7l2.3 32.8q-.2 21.1 14.7 36.2 14.8 15 36 15.3h7q21.1.2 36.2-14.6 15-14.9 15.3-36l2.7-32.7q.2-19.7-14.8-28.7-12.5-7.6-36-7.8L192 177"/><path fill="#EEB770" stroke="#19344F" stroke-width="2.5" stroke-linecap="round" stroke-linejoin="round" d="M170.2 177.3q-4.9 2.4-7.6 7-1.7 3-2.2 6-2 12-2.9 19-1.4 12.4-1.3 23.9.1 13.9 9.3 24.2 9.3 10.4 23 11.9 29.3 3.3 46.4 4.5 9.7.7 20.2-8 9.6-8 18.2-22.2 8.2-13.5 13.3-29 5.2-15.6 5.5-28.4l-111.5-10.8q-5.5-.6-10.4 1.9"/><path fill="#EEB770" d="M151.4 195.6q-2.5-.8-3.2-.8-1 0-2 1.6 5.2 5.2 11.3 13.5 3.5 4.7 5.8 8.4l9-24.1q-13.6 3.1-21 1.4"/><path fill="none" stroke="#19344F" stroke-width="2.5" stroke-linecap="round" stroke-linejoin="round" d="M148.2 194.8q.7 0 3.2.8 7.3 1.7 20.9-1.4m-24 .6q-1 0-2 1.6 5.1 5.2 11.2 13.5 3.5 4.7 5.8 8.4"/><path fill="#EEB770" d="M206.9 174.6l-25 .8 43.3 13.9q.6-4.4 9.5-12 4.5-3.7 8.9-6.6-9.8 2.6-36.7 4"/><path fill="none" stroke="#19344F" stroke-width="2.5" stroke-linecap="round" stroke-linejoin="round" d="M182 175.4l24.9-.8q27-1.3 36.7-3.9-4.4 3-8.8 6.7-9 7.5-9.6 11.9"/><path fill="#EEB770" d="M280.5 195.6q4.1-5 2.5-14-.5-2.9-1.5-5.7l-1-2.4q-5.8 4.3-16.6 9.3l-9.6 4 26.2 8.8"/><path fill="none" stroke="#19344F" stroke-width="2.5" stroke-linecap="round" stroke-linejoin="round" d="M283 181.6q1.6 9-2.5 14m2.5-14q-.5-2.9-1.5-5.7l-1-2.4q-5.8 4.3-16.6 9.3l-9.6 4"/><g display="none"><use xlink:href="#a" transform="rotate(-17 845.1 -730)"><animateTransform attributeName="transform" additive="replace" type="translate" repeatCount="indefinite" dur="5.375s" keyTimes="0;0.504;0.512;0.519;0.527;0.535;0.543;0.55;0.558;0.566;0.574;0.581;0.589;0.597;0.605;0.612;0.62;0.628;0.636;0.643;0.651;0.659;1" values="248.25,213.5;248.25,213.5;260,217.55;271.8,221.6;283.6,225.7;295.3,229.7;307.1,233.85;318.85,237.9;320.3,254;321.85,270.1;323.35,286.2;324.85,302.35;326.35,318.45;327.9,334.55;329.4,350.65;330.9,366.75;332.45,382.85;333.95,398.95;335.45,415.1;336.95,431.2;338.5,447.3;340.05,463.4;340.05,463.4" calcMode="discrete"/><animateTransform attributeName="transform" additive="sum" type="rotate" repeatCount="indefinite" dur="5.375s" keyTimes="0;0.504;0.512;0.519;0.527;0.535;0.543;0.55;0.558;0.651;0.659;1" values="-16.961,0,0;-16.961,0,0;-11.062,0,0;-5.31,0,0;0.25,0,0;5.812,0,0;11.566,0,0;17.476,0,0;17.324,0,0;17.324,0,0;17.476,0,0;17.476,0,0" calcMode="discrete"/><animateTransform attributeName="transform" additive="sum" type="scale" repeatCount="indefinite" dur="5.375s" keyTimes="0;0.519;0.527;0.535;0.55;0.558;0.651;0.659;1" values="0.992,0.992;0.992,0.992;0.993,0.993;0.992,0.992;0.992,0.992;0.991,0.991;0.991,0.991;0.992,0.992;0.992,0.992" calcMode="discrete"/></use><animate attributeName="display" repeatCount="indefinite" dur="5.375s" keyTimes="0;0.504;1" values="none;inline;inline"/></g><g display="none"><use xlink:href="#b" transform="matrix(.993 0 0 .993 165.9 225.5)"><animateTransform attributeName="transform" additive="replace" type="translate" repeatCount="indefinite" dur="5.375s" keyTimes="0;0.504;0.512;0.519;0.527;0.535;0.543;0.55;0.558;0.566;0.574;0.581;0.589;0.597;0.605;0.612;0.62;0.628;0.636;0.643;0.651;0.659;1" values="165.9,225.5;165.9,225.5;156.65,229.25;147.4,232.95;138.15,236.7;128.85,240.4;119.6,244.15;110.35,247.85;109.3,263.95;108.2,280;107.15,296.05;106.05,312.15;105,328.2;103.9,344.25;102.85,360.3;101.8,376.35;100.7,392.4;99.65,408.45;98.55,424.55;97.5,440.6;96.4,456.65;95.35,472.65;95.35,472.65" calcMode="discrete"/><animateTransform attributeName="transform" additive="sum" type="rotate" repeatCount="indefinite" dur="5.375s" keyTimes="0;0.504;0.512;0.519;0.527;0.535;0.543;0.55;0.558;0.651;0.659;1" values="0,0,0;0,0,0;-7.313,0,0;-14.819,0,0;-22.333,0,0;-29.85,0,0;-37.368,0,0;-44.943,0,0;-44.892,0,0;-44.892,0,0;-44.943,0,0;-44.943,0,0" calcMode="discrete"/><animateTransform attributeName="transform" additive="sum" type="scale" repeatCount="indefinite" dur="5.375s" keyTimes="0;0.504;0.512;0.519;0.527;0.535;0.543;0.55;0.558;0.651;0.659;1" values="0.993,0.993;0.993,0.993;0.992,0.992;0.991,0.991;0.991,0.991;0.99,0.99;0.99,0.99;0.991,0.991;0.99,0.99;0.99,0.99;0.991,0.991;0.991,0.991" calcMode="discrete"/></use><animate attributeName="display" repeatCount="indefinite" dur="5.375s" keyTimes="0;0.504;1" values="none;inline;inline"/></g><g display="none"><use xlink:href="#a" transform="rotate(-17 845.1 -730)"><animateTransform attributeName="transform" additive="replace" type="translate" repeatCount="indefinite" dur="5.375s" keyTimes="0;0.589;0.597;0.605;0.612;0.62;0.628;0.636;0.643;0.651;0.659;0.667;0.674;0.682;0.69;0.698;0.705;0.713;0.721;0.729;0.736;0.744;1" values="248.25,213.5;248.25,213.5;260,217.55;271.8,221.6;283.6,225.7;295.3,229.7;307.1,233.85;318.85,237.9;320.3,254;321.85,270.1;323.35,286.2;324.85,302.35;326.35,318.45;327.9,334.55;329.4,350.65;330.9,366.75;332.45,382.85;333.95,398.95;335.45,415.1;336.95,431.2;338.5,447.3;340.05,463.4;340.05,463.4" calcMode="discrete"/><animateTransform attributeName="transform" additive="sum" type="rotate" repeatCount="indefinite" dur="5.375s" keyTimes="0;0.589;0.597;0.605;0.612;0.62;0.628;0.636;0.643;0.736;0.744;1" values="-16.961,0,0;-16.961,0,0;-11.062,0,0;-5.31,0,0;0.25,0,0;5.812,0,0;11.566,0,0;17.476,0,0;17.324,0,0;17.324,0,0;17.476,0,0;17.476,0,0" calcMode="discrete"/><animateTransform attributeName="transform" additive="sum" type="scale" repeatCount="indefinite" dur="5.375s" keyTimes="0;0.605;0.612;0.62;0.636;0.643;0.736;0.744;1" values="0.992,0.992;0.992,0.992;0.993,0.993;0.992,0.992;0.992,0.992;0.991,0.991;0.991,0.991;0.992,0.992;0.992,0.992" calcMode="discrete"/></use><animate attributeName="display" repeatCount="indefinite" dur="5.375s" keyTimes="0;0.589;1" values="none;inline;inline"/></g><g display="none"><use xlink:href="#b" transform="matrix(.993 0 0 .993 165.9 225.5)"><animateTransform attributeName="transform" additive="replace" type="translate" repeatCount="indefinite" dur="5.375s" keyTimes="0;0.589;0.597;0.605;0.612;0.62;0.628;0.636;0.643;0.651;0.659;0.667;0.674;0.682;0.69;0.698;0.705;0.713;0.721;0.729;0.736;0.744;1" values="165.9,225.5;165.9,225.5;156.65,229.25;147.4,232.95;138.15,236.7;128.85,240.4;119.6,244.15;110.35,247.85;109.3,263.95;108.2,280;107.15,296.05;106.05,312.15;105,328.2;103.9,344.25;102.85,360.3;101.8,376.35;100.7,392.4;99.65,408.45;98.55,424.55;97.5,440.6;96.4,456.65;95.35,472.65;95.35,472.65" calcMode="discrete"/><animateTransform attributeName="transform" additive="sum" type="rotate" repeatCount="indefinite" dur="5.375s" keyTimes="0;0.589;0.597;0.605;0.612;0.62;0.628;0.636;0.643;0.736;0.744;1" values="0,0,0;0,0,0;-7.313,0,0;-14.819,0,0;-22.333,0,0;-29.85,0,0;-37.368,0,0;-44.943,0,0;-44.892,0,0;-44.892,0,0;-44.943,0,0;-44.943,0,0" calcMode="discrete"/><animateTransform attributeName="transform" additive="sum" type="scale" repeatCount="indefinite" dur="5.375s" keyTimes="0;0.589;0.597;0.605;0.612;0.62;0.628;0.636;0.643;0.736;0.744;1" values="0.993,0.993;0.993,0.993;0.992,0.992;0.991,0.991;0.991,0.991;0.99,0.99;0.99,0.99;0.991,0.991;0.99,0.99;0.99,0.99;0.991,0.991;0.991,0.991" calcMode="discrete"/></use><animate attributeName="display" repeatCount="indefinite" dur="5.375s" keyTimes="0;0.589;1" values="none;inline;inline"/></g><g transform="rotate(99.2 -14.7 303) scale(.993)"><animateTransform attributeName="transform" additive="replace" type="translate" dur="5.375s" keyTimes="0;1" values="0,0;0,0" fill="freeze"/><animateTransform attributeName="transform" additive="sum" type="translate" repeatCount="indefinite" dur="5.375s" keyTimes="0;0.008;0.186;0.194;0.202;0.209;0.217;0.225;0.233;0.24;0.248;0.256;0.264;0.271;0.279;0.434;0.442;0.45;0.457;0.465;0.473;0.481;0.488;0.496;0.504;0.512;0.519;0.527;0.535;0.542;0.543;1" values="256.01,323.444;256.046,323.331;256.046,323.331;256.01,323.444;254.545,323.034;253.026,322.675;251.787,322.433;250.627,322.177;249.614,322.001;248.809,321.878;248.156,321.747;247.61,321.586;247.305,321.507;247.049,321.464;247.019,321.471;247.019,321.471;246.643,321.713;246.35,321.97;245.996,322.157;245.667,322.384;245.375,322.63;244.977,322.866;244.635,323.002;244.383,323.191;244.026,323.444;243.935,323.577;243.953,323.521;243.956,323.435;243.87,323.443;243.936,323.415;0;0" calcMode="discrete"/><animateTransform attributeName="transform" additive="sum" type="translate" repeatCount="indefinite" dur="5.375s" keyTimes="0;0.543;0.55;0.558;0.566;0.574;0.581;0.589;0.597;0.605;0.612;0.62;0.628;0.636;0.643;0.651;0.659;0.667;0.674;0.682;0.69;0.783;0.791;0.798;0.806;0.814;0.822;0.829;0.837;0.844;0.845;1" values="0;243.936,323.415;243.993,323.399;243.916,323.385;243.988,323.384;244.008,323.519;243.988,323.473;244.026,323.444;243.935,323.577;243.953,323.521;243.956,323.435;243.87,323.443;243.936,323.415;243.993,323.399;243.924,323.5;243.987,323.345;244.006,323.534;244.097,323.471;244.019,323.428;244.026,323.444;244.053,323.463;244.053,323.463;244.026,323.444;244.43,323.483;244.892,323.477;245.296,323.479;245.783,323.577;246.219,323.532;246.628,323.569;247.029,323.535;0;0" calcMode="discrete"/><animateTransform attributeName="transform" additive="sum" type="translate" repeatCount="indefinite" dur="5.375s" keyTimes="0;0.845;0.853;0.86;0.868;0.876;0.884;0.891;0.899;0.907;0.915;0.922;0.93;0.938;0.946;0.953;0.961;0.969;0.977;0.984;0.992;1" values="0;247.029,323.535;247.578,323.483;247.981,323.552;248.439,323.506;248.899,323.458;249.271,323.472;249.787,323.442;250.2,323.491;250.614,323.418;251.021,323.397;251.521,323.39;252.012,323.432;252.335,323.442;252.879,323.388;253.286,323.401;253.726,323.379;254.221,323.436;254.574,323.35;255.021,323.285;255.57,323.368;256.01,323.444" calcMode="discrete"/><animateTransform attributeName="transform" additive="sum" type="rotate" repeatCount="indefinite" dur="5.375s" keyTimes="0;0.008;0.186;0.194;0.202;0.209;0.217;0.225;0.233;0.24;0.248;0.256;0.264;0.271;0.279;0.434;0.442;0.45;0.457;0.465;0.473;0.481;0.488;0.496;0.504;0.512;0.519;0.527;0.535;0.542;0.543;1" values="99.198,0,0;99.055,0,0;99.055,0,0;99.198,0,0;81.993,0,0;66.447,0,0;52.424,0,0;40.121,0,0;29.549,0,0;20.334,0,0;13.038,0,0;7.285,0,0;3.257,0,0;0.768,0,0;0,0,0;0,0,0;-1.77,0,0;-3.541,0,0;-5.312,0,0;-7.27,0,0;-9.043,0,0;-10.814,0,0;-12.775,0,0;-14.547,0,0;-16.472,0,0;-9.814,0,0;-3.312,0,0;2.81,0,0;9.313,0,0;15.82,0,0;0;0" calcMode="discrete"/><animateTransform attributeName="transform" additive="sum" type="rotate" repeatCount="indefinite" dur="5.375s" keyTimes="0;0.543;0.55;0.558;0.566;0.574;0.581;0.589;0.597;0.605;0.612;0.62;0.628;0.636;0.643;0.651;0.659;0.667;0.674;0.682;0.69;0.783;0.791;0.798;0.806;0.814;0.822;0.829;0.837;0.844;0.845;1" values="0;15.82,0,0;22.466,0,0;14.555,0,0;6.786,0,0;-0.786,0,0;-8.55,0,0;-16.472,0,0;-9.814,0,0;-3.312,0,0;2.81,0,0;9.313,0,0;15.82,0,0;22.466,0,0;15.819,0,0;9.314,0,0;2.811,0,0;-3.311,0,0;-9.814,0,0;-16.472,0,0;-16.32,0,0;-16.32,0,0;-16.472,0,0;-12.055,0,0;-7.791,0,0;-3.53,0,0;0.541,0,0;4.801,0,0;9.062,0,0;13.514,0,0;0;0" calcMode="discrete"/><animateTransform attributeName="transform" additive="sum" type="rotate" repeatCount="indefinite" dur="5.375s" keyTimes="0;0.845;0.853;0.86;0.868;0.876;0.884;0.891;0.899;0.907;0.915;0.922;0.93;0.938;0.946;0.953;0.961;0.969;0.977;0.984;0.992;1" values="0;13.514,0,0;17.779,0,0;22.046,0,0;26.316,0,0;30.586,0,0;34.858,0,0;39.128,0,0;43.59,0,0;47.862,0,0;52.135,0,0;56.406,0,0;60.678,0,0;64.948,0,0;69.216,0,0;73.483,0,0;77.937,0,0;82.199,0,0;86.462,0,0;90.533,0,0;94.792,0,0;99.198,0,0" calcMode="discrete"/><animateTransform attributeName="transform" additive="sum" type="scale" repeatCount="indefinite" dur="5.375s" keyTimes="0;0.008;0.186;0.194;0.202;0.209;0.217;0.233;0.24;0.248;0.256;0.264;0.45;0.457;0.488;0.496;0.504;0.512;0.519;0.527;0.535;0.542;0.543;1" values="0.993,0.993;0.992,0.992;0.992,0.992;0.993,0.993;0.992,0.992;0.991,0.991;0.99,0.99;0.99,0.99;0.991,0.991;0.992,0.992;0.992,0.992;0.993,0.993;0.993,0.993;0.992,0.992;0.992,0.992;0.991,0.991;0.992,0.992;0.992,0.992;0.993,0.993;0.993,0.993;0.992,0.992;0.991,0.991;1;1" calcMode="discrete"/><animateTransform attributeName="transform" additive="sum" type="scale" repeatCount="indefinite" dur="5.375s" keyTimes="0;0.543;0.55;0.558;0.566;0.574;0.581;0.597;0.605;0.612;0.62;0.628;0.636;0.643;0.651;0.659;0.667;0.674;0.682;0.69;0.783;0.791;0.806;0.814;0.822;0.829;0.844;0.845;1" values="1;0.991,0.991;0.992,0.992;0.991,0.991;0.992,0.992;0.993,0.993;0.992,0.992;0.992,0.992;0.993,0.993;0.993,0.993;0.992,0.992;0.991,0.991;0.992,0.992;0.991,0.991;0.992,0.992;0.993,0.993;0.993,0.993;0.992,0.992;0.992,0.992;0.991,0.991;0.991,0.991;0.992,0.992;0.992,0.992;0.993,0.993;0.993,0.993;0.992,0.992;0.992,0.992;1;1" calcMode="discrete"/><animateTransform attributeName="transform" additive="sum" type="scale" repeatCount="indefinite" dur="5.375s" keyTimes="0;0.845;0.853;0.86;0.868;0.93;0.938;0.953;0.961;0.969;0.977;0.984;0.992;1" values="1;0.992,0.992;0.991,0.991;0.991,0.991;0.99,0.99;0.99,0.99;0.991,0.991;0.991,0.991;0.992,0.992;0.992,0.992;0.993,0.993;0.993,0.993;0.992,0.992;0.993,0.993" calcMode="discrete"/><animateTransform attributeName="transform" additive="sum" type="translate" repeatCount="indefinite" dur="5.375s" keyTimes="0;0.194;0.202;0.209;0.217;0.225;0.233;0.24;0.248;0.256;0.264;0.271;0.279;0.434;0.442;0.45;0.457;0.465;0.473;0.481;0.488;0.496;0.504;0.512;0.519;0.527;0.535;0.542;0.543;1" values="38.149,-32.75;38.149,-32.75;38.199,-32.65;38.249,-32.75;38.199,-32.7;38.249,-32.65;38.299,-32.75;38.149,-32.7;38.249,-32.65;38.249,-32.65;38.149,-32.65;38.249,-32.7;38.249,-32.75;38.249,-32.75;38.299,-32.75;38.249,-32.8;38.349,-32.85;38.299,-32.8;38.249,-32.8;38.349,-32.85;38.249,-32.75;38.249,-32.75;38.249,-32.8;38.399,-32.8;38.299,-32.85;38.349,-32.8;38.299,-32.75;38.299,-32.75;0;0" calcMode="discrete"/><animateTransform attributeName="transform" additive="sum" type="translate" repeatCount="indefinite" dur="5.375s" keyTimes="0;0.543;0.55;0.558;0.566;0.574;0.581;0.589;0.597;0.605;0.612;0.62;0.628;0.636;0.643;0.651;0.659;0.667;0.674;0.682;0.69;0.783;0.791;0.798;0.806;0.814;0.822;0.829;0.837;0.844;0.845;1" values="0;38.299,-32.75;38.349,-32.7;38.399,-32.7;38.399,-32.75;38.349,-32.75;38.399,-32.75;38.249,-32.8;38.399,-32.8;38.299,-32.85;38.349,-32.8;38.299,-32.75;38.299,-32.75;38.349,-32.7;38.349,-32.8;38.299,-32.65;38.399,-32.8;38.299,-32.75;38.399,-32.7;38.249,-32.8;38.149,-32.75;38.149,-32.75;38.249,-32.8;38.349,-32.8;38.299,-32.75;38.399,-32.75;38.299,-32.85;38.299,-32.8;38.349,-32.8;38.349,-32.8;0;0" calcMode="discrete"/><animateTransform attributeName="transform" additive="sum" type="translate" repeatCount="indefinite" dur="5.375s" keyTimes="0;0.845;0.853;0.86;0.868;0.876;0.884;0.891;0.899;0.907;0.915;0.922;0.93;0.938;0.946;0.953;0.961;0.969;0.977;0.984;0.992;1" values="0;38.349,-32.8;38.249,-32.8;38.249,-32.8;38.199,-32.8;38.249,-32.75;38.349,-32.75;38.299,-32.75;38.249,-32.8;38.349,-32.8;38.349,-32.8;38.399,-32.8;38.299,-32.8;38.349,-32.8;38.349,-32.75;38.299,-32.8;38.299,-32.8;38.299,-32.7;38.349,-32.8;38.349,-32.75;38.349,-32.8;38.149,-32.75" calcMode="discrete"/><path fill="#E9AF90" d="M31.3-2.3v-.1Q33-4.5 33-7.2q0-2.6-1.5-4.8l-32-45.5q3-5.3 1.9-11.3Q0-75-5-78.7q-5.4-4-12-3-6.7.9-10.8 6.3-4 5.4-3.1 12.1 1 6.7 6.4 10.7 4.3 3.2 9.7 3.2L14.7-7.6l-31.5 40.1-.1.2q-2 2.7-1.6 6 .5 3.3 3 5.3 2.7 2 6 1.7 3.4-.4 5.5-3.1L31.3-2.3"/><path fill="none" stroke="#19344F" stroke-width="2.5" stroke-linecap="round" stroke-linejoin="round" d="M31.3-2.3v-.1Q33-4.5 33-7.2q0-2.6-1.5-4.8l-32-45.5q3-5.3 1.9-11.3Q0-75-5-78.7q-5.4-4-12-3-6.7.9-10.8 6.3-4 5.4-3.1 12.1 1 6.7 6.4 10.7 4.3 3.2 9.7 3.2L14.7-7.6l-31.5 40.1-.1.2q-2 2.7-1.6 6 .5 3.3 3 5.3 2.7 2 6 1.7 3.4-.4 5.5-3.1L31.3-2.3"/><path fill="#43566B" d="M-14.3-39.9L-.8-19.1q3.2 5 2.9 11-.4 5.9-4.4 10.5L-35 30.8l-5.8 2.3H-42Q-29.7 46-31.4 77.2L37.9 6.3Q41.8 1.7 42-4.5q.3-6-3.1-11L10.8-56.3l-25.1 16.4"/><path fill="none" stroke="#19344F" stroke-width="2.5" stroke-linecap="round" stroke-linejoin="round" d="M-14.3-39.9L-.8-19.1q3.2 5 2.9 11-.4 5.9-4.4 10.5L-35 30.8l-5.8 2.3m9.5 44.1L37.9 6.3Q41.8 1.7 42-4.5q.3-6-3.1-11L10.8-56.3l-25.1 16.4"/></g><g mask="url(#c)"><g transform="rotate(-165.9 112 160.4) scale(.993)"><animateTransform attributeName="transform" additive="replace" type="translate" dur="5.375s" keyTimes="0;1" values="0,0;0,0" fill="freeze"/><animateTransform attributeName="transform" additive="sum" type="translate" repeatCount="indefinite" dur="5.375s" keyTimes="0;0.008;0.186;0.194;0.202;0.209;0.217;0.225;0.233;0.24;0.248;0.256;0.264;0.271;0.279;0.434;0.442;0.45;0.457;0.465;0.473;0.481;0.488;0.496;0.504;0.512;0.519;0.527;0.535;0.542;0.543;1" values="153.745,317.083;153.771,317.053;153.771,317.053;153.745,317.083;154.737,317.167;155.621,317.16;156.558,317.15;157.188,317.21;157.914,317.238;158.431,317.241;158.8,317.298;159.236,317.244;159.452,317.269;159.659,317.28;159.715,317.32;159.715,317.32;160.262,317.388;160.943,317.49;161.485,317.679;162.13,317.724;162.723,317.885;163.324,317.921;163.947,318.074;164.517,318.226;165.242,318.302;165.199,318.236;165.066,318.265;165.1,318.296;165.143,318.305;165.116,318.362;0;0" calcMode="discrete"/><animateTransform attributeName="transform" additive="sum" type="translate" repeatCount="indefinite" dur="5.375s" keyTimes="0;0.543;0.55;0.558;0.566;0.574;0.581;0.589;0.597;0.605;0.612;0.62;0.628;0.636;0.643;0.651;0.659;0.667;0.674;0.682;0.69;0.783;0.791;0.798;0.806;0.814;0.822;0.829;0.837;0.844;0.845;1" values="0;165.116,318.362;165.086,318.325;165.188,318.313;165.269,318.205;165.206,318.337;165.211,318.273;165.242,318.302;165.199,318.236;165.066,318.265;165.1,318.296;165.143,318.305;165.116,318.362;165.086,318.325;165.12,318.331;165.207,318.365;165.121,318.406;165.067,318.315;165.188,318.328;165.242,318.302;165.092,318.34;165.092,318.34;165.242,318.302;164.746,318.202;164.363,318.258;163.926,318.215;163.478,318.139;163.08,318.083;162.695,318.076;162.115,317.996;0;0" calcMode="discrete"/><animateTransform attributeName="transform" additive="sum" type="translate" repeatCount="indefinite" dur="5.375s" keyTimes="0;0.845;0.853;0.86;0.868;0.876;0.884;0.891;0.899;0.907;0.915;0.922;0.93;0.938;0.946;0.953;0.961;0.969;0.977;0.984;0.992;1" values="0;162.115,317.996;161.731,318.042;161.401,317.961;160.935,317.896;160.516,317.924;160.065,317.699;159.627,317.773;159.197,317.649;158.845,317.674;158.393,317.62;157.946,317.474;157.638,317.471;157.166,317.361;156.71,317.328;156.292,317.426;155.799,317.346;155.413,317.257;155.078,317.232;154.603,317.144;154.247,317.082;153.745,317.083" calcMode="discrete"/><animateTransform attributeName="transform" additive="sum" type="rotate" repeatCount="indefinite" dur="5.375s" keyTimes="0;0.008;0.186;0.194;0.202;0.209;0.217;0.225;0.233;0.24;0.248;0.256;0.264;0.271;0.279;0.434;0.442;0.45;0.457;0.465;0.473;0.481;0.488;0.496;0.504;0.512;0.519;0.527;0.535;0.542;0.543;1" values="-165.868,0,0;-165.956,0,0;-165.956,0,0;-165.868,0,0;-137.122,0,0;-111.033,0,0;-87.746,0,0;-67.203,0,0;-49.383,0,0;-34.313,0,0;-21.821,0,0;-12.279,0,0;-5.309,0,0;-1.279,0,0;0,0,0;0,0,0;1.519,0,0;3.04,0,0;4.56,0,0;6.268,0,0;7.789,0,0;9.31,0,0;11.019,0,0;12.541,0,0;14.208,0,0;7.014,0,0;-0.028,0,0;-7.259,0,0;-14.307,0,0;-21.548,0,0;0;0" calcMode="discrete"/><animateTransform attributeName="transform" additive="sum" type="rotate" repeatCount="indefinite" dur="5.375s" keyTimes="0;0.543;0.55;0.558;0.566;0.574;0.581;0.589;0.597;0.605;0.612;0.62;0.628;0.636;0.643;0.651;0.659;0.667;0.674;0.682;0.69;0.783;0.791;0.798;0.806;0.814;0.822;0.829;0.837;0.844;0.845;1" values="0;-21.548,0,0;-28.756,0,0;-20.062,0,0;-11.525,0,0;-2.806,0,0;5.529,0,0;14.208,0,0;7.014,0,0;-0.028,0,0;-7.259,0,0;-14.307,0,0;-21.548,0,0;-28.756,0,0;-21.547,0,0;-14.307,0,0;-7.258,0,0;-0.027,0,0;7.013,0,0;14.208,0,0;14.062,0,0;14.062,0,0;14.208,0,0;7.512,0,0;0.78,0,0;-5.763,0,0;-12.314,0,0;-19.054,0,0;-25.8,0,0;-32.36,0,0;0;0" calcMode="discrete"/><animateTransform attributeName="transform" additive="sum" type="rotate" repeatCount="indefinite" dur="5.375s" keyTimes="0;0.845;0.853;0.86;0.868;0.876;0.884;0.891;0.899;0.907;0.915;0.922;0.93;0.938;0.946;0.953;0.961;0.969;0.977;0.984;0.992;1" values="0;-32.36,0,0;-39.111,0,0;-45.864,0,0;-52.426,0,0;-59.178,0,0;-65.925,0,0;-72.481,0,0;-79.222,0,0;-85.957,0,0;-92.501,0,0;-99.048,0,0;-105.787,0,0;-112.531,0,0;-119.09,0,0;-125.838,0,0;-132.59,0,0;-139.155,0,0;-145.906,0,0;-152.655,0,0;-159.213,0,0;-165.868,0,0" calcMode="discrete"/><animateTransform attributeName="transform" additive="sum" type="scale" repeatCount="indefinite" dur="5.375s" keyTimes="0;0.008;0.186;0.194;0.202;0.209;0.217;0.225;0.233;0.24;0.248;0.256;0.264;0.271;0.45;0.457;0.512;0.519;0.527;0.535;0.542;0.543;1" values="0.992,0.992;0.991,0.991;0.991,0.991;0.992,0.992;0.99,0.99;0.991,0.991;0.993,0.993;0.991,0.991;0.99,0.99;0.99,0.99;0.991,0.991;0.992,0.992;0.992,0.992;0.993,0.993;0.993,0.993;0.992,0.992;0.992,0.992;0.993,0.993;0.992,0.992;0.991,0.991;0.991,0.991;1;1" calcMode="discrete"/><animateTransform attributeName="transform" additive="sum" type="scale" repeatCount="indefinite" dur="5.375s" keyTimes="0;0.543;0.55;0.558;0.566;0.574;0.581;0.597;0.605;0.612;0.62;0.628;0.636;0.643;0.651;0.659;0.667;0.674;0.682;0.69;0.783;0.791;0.798;0.806;0.814;0.822;0.829;0.837;0.844;0.845;1" values="1;0.991,0.991;0.992,0.992;0.991,0.991;0.992,0.992;0.993,0.993;0.992,0.992;0.992,0.992;0.993,0.993;0.992,0.992;0.991,0.991;0.991,0.991;0.992,0.992;0.991,0.991;0.991,0.991;0.992,0.992;0.993,0.993;0.992,0.992;0.992,0.992;0.991,0.991;0.991,0.991;0.992,0.992;0.992,0.992;0.993,0.993;0.992,0.992;0.992,0.992;0.991,0.991;0.99,0.99;0.99,0.99;1;1" calcMode="discrete"/><animateTransform attributeName="transform" additive="sum" type="scale" repeatCount="indefinite" dur="5.375s" keyTimes="0;0.845;0.876;0.884;0.891;0.899;0.907;0.915;0.922;0.93;0.938;0.946;0.984;0.992;1" values="1;0.99,0.99;0.99,0.99;0.991,0.991;0.991,0.991;0.992,0.992;0.993,0.993;0.993,0.993;0.992,0.992;0.991,0.991;0.991,0.991;0.99,0.99;0.99,0.99;0.991,0.991;0.992,0.992" calcMode="discrete"/><animateTransform attributeName="transform" additive="sum" type="translate" repeatCount="indefinite" dur="5.375s" keyTimes="0;0.008;0.186;0.194;0.202;0.209;0.217;0.225;0.233;0.24;0.248;0.256;0.271;0.279;0.434;0.442;0.45;0.457;0.465;0.473;0.481;0.488;0.496;0.504;0.512;0.519;0.527;0.535;0.542;0.543;1" values="-33.5,-18.65;-33.55,-18.7;-33.55,-18.7;-33.5,-18.65;-33.55,-18.6;-33.55,-18.6;-33.55,-18.7;-33.5,-18.65;-33.55,-18.7;-33.6,-18.65;-33.45,-18.7;-33.6,-18.65;-33.6,-18.65;-33.6,-18.6;-33.6,-18.6;-33.65,-18.6;-33.6,-18.5;-33.6,-18.65;-33.55,-18.6;-33.6,-18.7;-33.55,-18.6;-33.6,-18.55;-33.6,-18.65;-33.6,-18.65;-33.6,-18.5;-33.55,-18.6;-33.6,-18.6;-33.6,-18.65;-33.6,-18.7;0;0" calcMode="discrete"/><animateTransform attributeName="transform" additive="sum" type="translate" repeatCount="indefinite" dur="5.375s" keyTimes="0;0.543;0.55;0.558;0.566;0.574;0.581;0.589;0.597;0.605;0.612;0.62;0.628;0.636;0.651;0.659;0.667;0.674;0.682;0.69;0.783;0.791;0.798;0.806;0.814;0.822;0.829;0.837;0.844;0.845;1" values="0;-33.6,-18.7;-33.55,-18.7;-33.7,-18.75;-33.7,-18.55;-33.55,-18.6;-33.6,-18.65;-33.6,-18.65;-33.6,-18.5;-33.55,-18.6;-33.6,-18.6;-33.6,-18.65;-33.6,-18.7;-33.55,-18.7;-33.55,-18.7;-33.5,-18.75;-33.55,-18.65;-33.55,-18.6;-33.6,-18.65;-33.5,-18.65;-33.5,-18.65;-33.6,-18.65;-33.6,-18.55;-33.65,-18.65;-33.65,-18.6;-33.6,-18.6;-33.7,-18.6;-33.65,-18.65;-33.55,-18.6;0;0" calcMode="discrete"/><animateTransform attributeName="transform" additive="sum" type="translate" repeatCount="indefinite" dur="5.375s" keyTimes="0;0.845;0.853;0.86;0.868;0.876;0.884;0.891;0.899;0.907;0.915;0.922;0.93;0.938;0.946;0.953;0.961;0.969;0.977;0.984;0.992;1" values="0;-33.55,-18.6;-33.55,-18.6;-33.65,-18.6;-33.55,-18.65;-33.5,-18.55;-33.65,-18.55;-33.5,-18.55;-33.6,-18.55;-33.55,-18.6;-33.55,-18.6;-33.6,-18.7;-33.6,-18.65;-33.6,-18.55;-33.65,-18.6;-33.55,-18.55;-33.6,-18.55;-33.7,-18.6;-33.65,-18.6;-33.55,-18.65;-33.55,-18.7;-33.5,-18.65" calcMode="discrete"/><path fill="#E9AF90" stroke="#19344F" stroke-width="2.5" stroke-linecap="round" stroke-linejoin="round" d="M10.5-86.9q-5 3.8-6.2 9.9Q3-71 6-65.7l-32 45.5q-1.5 2.2-1.5 4.8 0 2.7 1.6 4.8l.2.2L9.6 34.4q2 2.7 5.4 3 3.4.5 6-1.6 2.6-2 3-5.3.5-3.3-1.5-6l-.1-.1-31.5-40.1 29.4-41.8q5.4 0 9.7-3.3 5.4-4 6.4-10.7.9-6.7-3.1-12.1-4-5.4-10.7-6.3-6.7-1-12.1 3"/><path fill="#43566B" d="M7.8-4.8Q4-9.3 3.5-15.2q-.4-6 2.9-11L20-47-5.1-63.3l-28.3 40.7q-3.4 5-3.1 11.1.4 6.1 4.3 10.7l51.4 59.5 3.2-7q7.7-31.2 12.4-33L7.8-4.8"/><path fill="none" stroke="#19344F" stroke-width="2.5" stroke-linecap="round" stroke-linejoin="round" d="M7.8-4.8Q4-9.3 3.5-15.2q-.4-6 2.9-11L20-47-5.1-63.3l-28.3 40.7q-3.4 5-3.1 11.1.4 6.1 4.3 10.7l51 59.7M7.8-4.7l27 23.3"/></g></g><mask id="c"><g display="none"><path fill="#FFF" d="M221.7 181q-.8-3.7-1.4-5.6-.8-3.4-2-5.7-3.5-6.7-13.2-10.5-17-6.8-24.6-8.6-4.2-1-23.6-3.5h-26q-23.6 11.5-34.8 30-4.3 7-7.5 16.3l-5 15.6q-1.6 5.2-9.3 15-4 5.1-13.9 16.4-6.3 7-12.4 16.3-2.6 3.9-9.8 15.6v61.9q-1.2 12.4-1.4 18.1l-.1 15.4-.4 8q-.2 8 .5 12.1 1.1 7.1 2.2 9.9 2.3 5.6 8.4 10.7 7.6 6.4 10.4 9 6.4 5.7 10.4 10.3 6.7 7.6 9.7 10.1 7.7 6.7 16.5 8.9h13.5l1.9-.4 14.6-.1q20.8-8 35.5-24 2.4-2.5 11.1-13 6.5-7.9 11.4-12.3 10.8-9.6 13.9-13.1 6.2-6.9 6.8-12.7.4-3.5 3-13 2.1-8.1 2.1-13 0-2.6-3.5-12.3-4.3-11.6-8.3-11.6l-4 .3q-4.9-2-12-2-37.8-3.1-22.5-2.2l-.3-5q8.4-17.8 12-22.8 9-12.3 24.1-20.7 6.3-3.5 9-4.3 1.1-.4 9.6-1.6 6.5-.8 8.3-2.5 2.8-2.5 2.9-6.3-.4-4-.3-5.7.3-4.9.2-14.4l-.2-9.4q0-10-.4-23.7-.4-17.6-1.1-20"/><animate attributeName="display" repeatCount="indefinite" dur="5.375s" keyTimes="0;0.86;1" values="none;inline;inline"/></g><g display="none"><path fill="#FFF" d="M220.3 175.4q-.8-3.4-2-5.7-3.5-6.7-13.2-10.5-17-6.8-24.6-8.6-4.2-1-23.6-3.5h-26q-23.6 11.5-34.8 30-4.3 7-7.5 16.3l-5 15.6q-1.6 5.2-9.3 15-4 5.1-13.9 16.4-6.3 7-12.4 16.3-2.6 3.9-9.8 15.6v61.9q-1.2 12.4-1.4 18.1l-.1 15.4-.4 8q-.2 8 .5 12.1 1.1 7.1 2.2 9.9 2.3 5.6 8.4 10.7 7.6 6.4 10.4 9 6.4 5.7 10.4 10.3 6.7 7.6 9.7 10.1 7.7 6.7 16.5 8.9h13.5l1.9-.4 14.6-.1q20.8-8 35.5-24 2.4-2.5 11.1-13 6.5-7.9 11.4-12.3 10.8-9.6 13.9-13.1 6.2-6.9 6.8-12.7.4-3.5 3-13 2.1-8.1 2.1-13 0-2.6-3.5-12.3-4.3-11.6-8.3-11.6l-4 .3q-4.9-2-12-2l-14.3-1.1q-.1-24 3.5-28.9 9-12.3 24.1-20.7 6.3-3.5 9-4.3 1.1-.4 9.6-1.6 6.5-.8 8.3-2.5 2.8-2.5 2.9-6.3-.4-4-.3-5.7.3-4.9.2-14.4l-.2-9.4q0-10-.4-23.7-.4-17.6-1.1-20l-1.4-5.4M162.5 318q-15.3-1.4-4.5-.8l4.5.8"/><animate attributeName="display" repeatCount="indefinite" dur="5.375s" keyTimes="0;0.434;0.86;1" values="none;inline;none;none"/></g><g><path fill="#FFF" d="M218.3 169.7q-3.5-6.7-13.2-10.5-17-6.8-24.5-8.6-4.3-1-23.7-3.5h-26q-23.6 11.5-34.8 30-4.3 7-7.5 16.3l-5 15.6q-1.6 5.2-9.3 15-4 5.1-13.9 16.4-6.3 7-12.4 16.3-2.6 3.9-9.8 15.6v61.9q-1.2 12.4-1.4 18.1l-.1 15.4-.4 8q-.2 8 .5 12.1 1.1 7.1 2.2 9.9 2.3 5.6 8.4 10.7 7.6 6.4 10.4 9 6.4 5.7 10.4 10.3 6.7 7.6 9.7 10.1 7.7 6.7 16.5 8.9h13.5l1.9-.4 14.6-.1q20.8-8 35.5-24 2.4-2.5 11.1-13 6.5-7.9 11.4-12.3 10.8-9.6 13.9-13.1 6.2-6.9 6.8-12.7.4-3.5 3-13 2.1-8.1 2.1-13 0-2.6-3.5-12.3-4.3-11.6-8.3-11.6l-4 .3q-4.9-2-12-2-37.8-3.1-22.5-2.2l-.3-5q8.4-17.8 12-22.8 9-12.3 24.1-20.7 6.3-3.5 9-4.3 1.1-.4 9.6-1.6 6.5-.8 8.3-2.5 2.8-2.5 2.9-6.3-.4-4-.3-5.7.3-4.9.2-14.4l-.2-9.4q0-10-.4-23.7-.4-17.6-1.1-20l-1.4-5.4q-.8-3.4-2-5.8"/><animate attributeName="display" repeatCount="indefinite" dur="5.375s" keyTimes="0;0.434;1" values="inline;none;none"/></g></mask><path fill="#43566B" d="M144.5 349q7.5 19.2-7.6 17.6l14.7 57.5 97.1.4.3-52.8 14-1.8-8.5-48.9q-45.6 3.8-101.3-4.7l-8.7 32.7"/><path fill="none" stroke="#19344F" stroke-width="2.5" stroke-linecap="round" stroke-linejoin="round" d="M136.9 366.6l14.7 57.5 97.1.4.3-52.8 14-1.8m-8.5-48.9q-45.6 3.8-101.3-4.7"/><path fill="#E9EDEA" stroke="#19344F" stroke-width="2.5" stroke-linecap="round" stroke-linejoin="round" d="M135.6 353.5q-8.7 8.7-8.7 21v109.3H279V374.5q0-12.3-8.7-21t-21-8.7h-92.8q-12.3 0-21 8.7"/><path fill="#C7CACC" d="M128.3 369q-2 5.6-1.4 9.2l-2.5 118.6q55.2-2.7 96.6-5.5 82.9-5.5 13.8-5.5-41.1-10.5-69.8-74.8-9-20.1-15.6-43.2l-4.9-19q-12.2 9.3-16.2 20.2"/><path fill="none" stroke="#19344F" stroke-width="2.5" stroke-linecap="round" stroke-linejoin="round" d="M135.6 353.5q-8.7 8.7-8.7 21v109.3H279V374.5q0-12.3-8.7-21t-21-8.7h-92.8q-12.3 0-21 8.7m26.8 20.4h82.4m-65.6 8.9H224"/><path fill="none" stroke="#1A344F" stroke-width="4" stroke-linecap="round" stroke-linejoin="round" d="M695 443V0H0v443h695"/></g></svg>