<?xml version="1.0"?>
<svg xmlns:xlink="http://www.w3.org/1999/xlink" xmlns="http://www.w3.org/2000/svg" baseProfile="basic" width="695" height="431" viewBox="0 0 695 431" image-rendering="optimizeSpeed" preserveAspectRatio="xMinYMin meet"><defs><symbol id="b" overflow="visible"><path fill="#99C977" stroke="#19344F" stroke-width="2.5" stroke-linecap="round" stroke-linejoin="round" d="M-57.199-29.899q-1 0-1.75.7-.7.75-.7 1.75v55q0 1 .7 1.75.75.7 1.75.7l114.55-.05q1 0 1.75-.7.7-.75.7-1.75v-55q0-1-.7-1.75-.75-.7-1.75-.7l-114.55.05"/><path fill="#F2F9FD" d="M-43.699 14.051q3.65 3.9 4 9.2l79.55-.05q.35-5.3 4-9.15 3.6-3.85 8.85-4.55v-18.95q-5.25-.7-8.85-4.55-3.65-3.9-4-9.2l-79.55.05q-.35 5.3-4 9.2-3.65 3.85-8.9 4.5l.05 18.95q5.25.7 8.85 4.55"/><path fill="none" stroke="#19344F" stroke-width="2.5" stroke-linecap="round" stroke-linejoin="round" d="M-43.699 14.051q3.65 3.9 4 9.2l79.55-.05q.35-5.3 4-9.15 3.6-3.85 8.85-4.55v-18.95q-5.25-.7-8.85-4.55-3.65-3.9-4-9.2l-79.55.05q-.35 5.3-4 9.2-3.65 3.85-8.9 4.5l.05 18.95q5.25.7 8.85 4.55"/><path fill="#7FA75B" stroke="#19344F" stroke-width="2.5" stroke-linecap="round" stroke-linejoin="round" d="M.401-3.199v14.35h4.1v-18.1h-3.5l-4.8 2.25.7 3.15 3.45-1.65h.05"/><path fill="#7FA75B" d="M10.501 2.151q.05 4.1 1.65 6.55 1.8 2.75 5.15 2.75 3.35 0 5.15-2.6 1.7-2.5 1.7-6.85 0-4.05-1.55-6.5-1.75-2.75-5.15-2.75-3.4 0-5.25 2.75-1.7 2.5-1.7 6.65m5-4.65q.65-1.55 1.85-1.55 2.6 0 2.6 6.15t-2.55 6.15q-2.65 0-2.6-6.1-.05-3.05.7-4.65"/><path fill="none" stroke="#19344F" stroke-width="2.5" stroke-linecap="round" stroke-linejoin="round" d="M10.501 2.151q.05 4.1 1.65 6.55 1.8 2.75 5.15 2.75 3.35 0 5.15-2.6 1.7-2.5 1.7-6.85 0-4.05-1.55-6.5-1.75-2.75-5.15-2.75-3.4 0-5.25 2.75-1.7 2.5-1.7 6.65"/><path fill="none" stroke="#19344F" stroke-width="2.5" stroke-linecap="round" stroke-linejoin="round" d="M15.501-2.499q.65-1.55 1.85-1.55 2.6 0 2.6 6.15t-2.55 6.15q-2.65 0-2.6-6.1-.05-3.05.7-4.65"/><path fill="#7FA75B" d="M-21.999-6.599q-.7.7-1.2 1.85-.45 1.05-.45 2.35 0 1.95 1.15 3.4t3.65 2.15l.4.1v3.55l-.4-.4q-.25-.5-.35-1.75-.1-.65-.8-.65h-3.25q-.8 0-.8.75 0 3.75 2.4 5.4 1.2.75 3.2 1.05v1.75q0 .3.25.55.25.25.55.25h1.15q.8 0 .8-.8v-1.75q1.6-.25 2.85-1 2.6-1.65 2.6-5.1 0-2.7-1.9-4.2-1.25-.9-3.55-1.7v-3l.2.25q.2.65.25 1.3.1.7.75.7h3.2q.3 0 .55-.25.25-.25.25-.55-.15-3.35-2.45-4.85-1.1-.75-2.75-1v-.95q0-.3-.25-.55-.2-.2-.55-.2h-1.15q-.8 0-.8.75v.9q-1.1.2-1.3.3-1.25.4-2.25 1.35m3.55 2.7v2.15l-.05-.05q-.45-.35-.45-1t.3-.95l.2-.15m2.75 10.75v-2.55l.15.1q.4.35.4 1.05 0 1-.4 1.3l-.15.1"/><path fill="none" stroke="#19344F" stroke-width="2.5" stroke-linecap="round" stroke-linejoin="round" d="M-21.999-6.599q-.7.7-1.2 1.85-.45 1.05-.45 2.35 0 1.95 1.15 3.4t3.65 2.15l.4.1v3.55l-.4-.4q-.25-.5-.35-1.75-.1-.65-.8-.65h-3.25q-.8 0-.8.75 0 3.75 2.4 5.4 1.2.75 3.2 1.05v1.75q0 .3.25.55.25.25.55.25h1.15q.8 0 .8-.8v-1.75q1.6-.25 2.85-1 2.6-1.65 2.6-5.1 0-2.7-1.9-4.2-1.25-.9-3.55-1.7v-3l.2.25q.2.65.25 1.3.1.7.75.7h3.2q.3 0 .55-.25.25-.25.25-.55-.15-3.35-2.45-4.85-1.1-.75-2.75-1v-.95q0-.3-.25-.55-.2-.2-.55-.2h-1.15q-.8 0-.8.75v.9q-1.1.2-1.3.3-1.25.4-2.25 1.35"/><path fill="none" stroke="#19344F" stroke-width="2.5" stroke-linecap="round" stroke-linejoin="round" d="M-18.449-3.899v2.15l-.05-.05q-.45-.35-.45-1t.3-.95l.2-.15M-15.699 6.851v-2.55l.15.1q.4.35.4 1.05 0 1-.4 1.3l-.15.1"/></symbol></defs><g overflow="visible"><path fill="#DBCCA7" d="M697.25.051H.051v432.05H697.25V.051"/><path fill="none" stroke="#CCBE99" stroke-width="2.5" stroke-linecap="round" stroke-linejoin="round" d="M162.4 119.2q0-2.45 1.7-4.15m-1.7 4.95v-.8m0 12V120m0 16.45v-5.25m-74.95 5.25h74.95m-74.95 0v-38.1m0 44.6v-6.5m0 44.4v-37.9m0 44.95v-7.05m0 27.2V187.9m0 20.15v9.2m33.55-9.2H87.45m33.55 0v12.45m35.1-12.45H121m35.1 0v12.45m34.6-12.45h-34.6m34.6 0v12.45m0-32.6v20.15m0-27.2v7.05m0-44.95v37.9m6.5-37.9h-6.5m6.5 0v77.55m0-77.55h39.6m-39.6-6.5v6.5m0-6.5h49.7m-49.7 0V85m-6.5 51.45h6.5m-6.5 0V32.65m-9.8 103.8h9.8m-9.8-17.25v17.25m-1.75-21.4q1.75 1.7 1.75 4.15m-5.9-5.85q2.45 0 4.15 1.7m-4.6-1.7h.45m-.45-6.5v6.5m-6.5-6.5h6.5m-6.5 6.5v-6.5m-3.95 8.2q1.65-1.65 3.95-1.7M162.4 120h11.15v11.2H162.4m0 5.25h18.5m-6.35-23.1h-6.5M87.45 142.95H190.7v-6.5M190.7 180.85H87.45m0 7.05H190.7M175.3 159.55v21.3m-55.65 0v-10.2h35.95v10.2m5.1 0v-21.3h14.6M104.35 150.65H97.9v6.45q-2.3.05-3.95 1.75-1.75 1.7-1.75 4.15v17.25h18.5V163q0-2.45-1.7-4.15-1.7-1.75-4.15-1.75h-.5v-6.45M97.9 157.1h6.45"/><path fill="none" stroke="#CCBE99" stroke-width="2.5" stroke-linecap="round" stroke-linejoin="round" d="M92.2 163.8h11.2V175H92.2M121 208.05V187.9M156.1 208.05v-18.9M78.8 109.7v107.55"/><path fill="#A08B76" d="M446.75 161.751q-3.15-16.8-11.5-27.3-10-12.6-25.5-13.1-16-.5-26.85 9.85-9.6 9.2-13.7 25.3-3.8 14.8-2.05 31.1 1.75 16.1 8.2 27.25l67.55 5.7q6.55-11.55 6.9-28.85.2-12.8-3.05-29.95"/><path fill="none" stroke="#19344F" stroke-width="2.5" stroke-linecap="round" stroke-linejoin="round" d="M435.25 134.451q8.35 10.5 11.5 27.3 3.25 17.15 3.05 29.95-.35 17.3-6.9 28.85m-7.65-86.1q-10-12.6-25.5-13.1-16-.5-26.85 9.85-9.6 9.2-13.7 25.3-3.8 14.8-2.05 31.1 1.75 16.1 8.2 27.25"/><path fill="#7F7F7F" stroke="#19344F" stroke-width="2.5" stroke-linecap="round" stroke-linejoin="round" d="M398.4 198.951l-.05 2.95q-11.15 0-19 7.85-7.9 7.85-7.9 19v12h72.8v-12q0-11.05-8.25-19-8.2-7.85-19.4-7.85v-3.4l-18.2.45"/><path fill="#EAB091" stroke="#19344F" stroke-width="2.5" stroke-linecap="round" stroke-linejoin="round" d="M386.5 171.901q-2.55-2.15-5.9-1.85-3.3.3-5.45 2.85-2.15 2.55-1.85 5.9.3 3.35 2.85 5.45 2.55 2.15 5.9 1.85 3.35-.3 5.45-2.85 2.15-2.55 1.85-5.9-.3-3.3-2.85-5.45M440.2 177.151q-.3-3.35-2.85-5.5-2.6-2.15-5.9-1.85-3.35.3-5.45 2.85-2.15 2.55-1.85 5.9.25 3.35 2.85 5.45 2.55 2.15 5.85 1.85 3.35-.3 5.5-2.85 2.15-2.55 1.85-5.85"/><path fill="#EAB091" stroke="#19344F" stroke-width="2.5" stroke-linecap="round" stroke-linejoin="round" d="M433.8 172.251l-.25-16.15q-.7-8.1-5.9-12.9-5-4.6-12.8-5.05-5.05-.65-7.75-.4l-6.65-.2q-10.25-1.4-17.05 5.9-6.65 7.1-5.75 17.65l2.65 15.95q.95 10.35 8.9 17 8 6.7 18.35 5.75l3.45-.3q10.35-.95 17.05-8.9 6.65-7.95 5.75-18.35"/><path fill="none" stroke="#19344F" stroke-width="2.5" stroke-linecap="round" stroke-linejoin="round" d="M391.4 162.851l.1 2.95M419.2 162.251l.1 2.95"/><path fill="#D4E7FF" fill-opacity=".639" d="M413.55 157q-2.45 2.45-2.45 5.95t2.45 5.95q2.5 2.5 6 2.5t5.95-2.5q2.5-2.45 2.5-5.95t-2.5-5.95q-2.45-2.5-5.95-2.5t-6 2.5"/><path fill="none" stroke="#19344F" stroke-width="2.5" stroke-linecap="round" stroke-linejoin="round" d="M411.1 163.001q0 3.5 2.45 5.95 2.5 2.5 6 2.5t5.95-2.5q2.5-2.45 2.5-5.95t-2.5-5.95q-2.45-2.5-5.95-2.5t-6 2.5q-2.45 2.45-2.45 5.95"/><path fill="#D4E7FF" fill-opacity=".639" d="M385.55 157q-2.5 2.45-2.5 5.95t2.5 5.95q2.45 2.5 5.95 2.5t6-2.5q2.5-2.45 2.5-5.95t-2.5-5.95q-2.5-2.5-6-2.5t-5.95 2.5"/><path fill="none" stroke="#19344F" stroke-width="2.5" stroke-linecap="round" stroke-linejoin="round" d="M397.5 157.051q-2.5-2.5-6-2.5t-5.95 2.5q-2.5 2.45-2.5 5.95t2.5 5.95q2.45 2.5 5.95 2.5t6-2.5q2.5-2.45 2.5-5.95t-2.5-5.95M402.7 173.851q-1.55-1.25-1.7-3.2m1.7 3.2q1.5 1.3 3.45 1.1 1.95-.2 3.2-1.7 1.3-1.5 1.1-3.45"/><path fill="#EAB091" d="M414.85 186.151h-15.7l4.8 1.3q5.8.9 10.9-1.3"/><path fill="none" stroke="#19344F" stroke-width="2.5" stroke-linecap="round" stroke-linejoin="round" d="M403.95 187.451q5.8.9 10.9-1.3m-10.9 1.3l-4.8-1.3"/><path fill="#A08B76" d="M433.55 156.101q3.5-9.5-3.6-16.6-8.3-8.35-27.2-6.65-17.25 1.55-22.95 12.55-2.85 5.5-2.25 10.7h56"/><path fill="none" stroke="#19344F" stroke-width="2.5" stroke-linecap="round" stroke-linejoin="round" d="M433.55 156.101q-.05-4.7-2.45-8.7l-2.35-3.05m4.8 11.75h-56q-.05-4.8 4.9-10.75l4.9-4.95"/><path fill="none" stroke="#1A344F" stroke-width="2.5" stroke-linecap="round" stroke-linejoin="round" d="M411.1 163.001H400M448.6 173.051h-17.95"/><path fill="#E5E5E5" stroke="#1A344F" stroke-width="2.5" stroke-linecap="round" stroke-linejoin="round" d="M459.5 224.951v-43.25h-12v43.25h12"/><path fill="#E5E5E5" stroke="#1A344F" stroke-width="2.5" stroke-linecap="round" stroke-linejoin="round" d="M476.45 176.801v-3.7q0-4.35-3.1-7.45-3.1-3.1-7.45-3.1h-25.85q-4.4 0-7.5 3.1-3.1 3.1-3.1 7.45v3.7q0 4.7 3.35 8 3.35 3.35 8.05 3.35h24.25q4.7 0 8-3.35 3.35-3.3 3.35-8"/><path fill="#D2EAEE" stroke="#1A344F" stroke-width="2.5" stroke-linecap="round" stroke-linejoin="round" d="M471.45 176.801v-3.7q0-2.3-1.65-3.9-1.6-1.65-3.9-1.65h-25.85q-2.3 0-3.95 1.65-1.65 1.6-1.65 3.9v3.7q0 2.65 1.85 4.5 1.9 1.85 4.55 1.85h24.25q2.65 0 4.5-1.85t1.85-4.5"/><path fill="#E5E5E5" stroke="#1A344F" stroke-width="2.5" stroke-linecap="round" stroke-linejoin="round" d="M420.4 209.801q-3.4 0-5.8 2.4t-2.4 5.75v21.7h66.9v-29.85h-58.7"/><g transform="translate(119.7 203.55)"><animateTransform attributeName="transform" additive="replace" type="translate" repeatCount="indefinite" dur="4.95s" keyTimes="0;0.01;0.02;0.03;0.04;0.051;0.061;0.071;0.081;0.091;0.101;0.111;0.121;0.131;0.141;0.152;0.162;0.172;0.182;0.192;0.202;0.212;0.879;0.889;1" values="119.7,203.55;146,203.55;171,203.55;194.75,203.6;217.2,203.6;238.35,203.6;258.25,203.6;276.85,203.6;294.15,203.6;310.2,203.6;324.95,203.6;338.4,203.65;350.6,203.65;361.5,203.65;371.1,203.65;379.45,203.65;386.5,203.65;392.3,203.65;396.8,203.65;400,203.65;401.9,203.65;402.55,203.65;402.55,203.65;119.7,203.55;119.7,203.55" calcMode="discrete"/><path fill="#BBE49B" stroke="#19344F" stroke-width="2.5" stroke-linecap="round" stroke-linejoin="round" d="M16.151 10.651q-1.1 1.8-1.1 3.85 0 3.05 2.15 5.2 2.15 2.15 5.2 2.15 1.85 0 3.4-.85.6 2.4 2.6 4 1.95 1.55 4.5 1.55 1.3 0 2.4-.45 2.2 3.1 6 3.1 2.3 0 4.2-1.3 1.85-1.35 2.65-3.45l1 .1q3.55 0 5.8-2.85.75.15 1.55.15 3.05 0 5.15-2.15 2.15-2.15 2.15-5.2 0-3.05-2.15-5.2-2.1-2.15-5.15-2.15 0-3.05-2.15-5.15-2.15-2.15-5.2-2.15-1.9 0-3.5.9-1.6.85-2.6 2.35l-.35-.15v-.45q0-3.05-2.15-5.15-2.1-2.15-5.15-2.15-3.05 0-5.2 2.15-2.15 2.1-2.15 5.15v.3q-1.2-.3-2-.3-2.5 0-4.5 1.55-1.95 1.55-2.55 3.95-1.8.95-2.85 2.65"/><path fill="#F0B971" stroke="#1A344F" stroke-width="2.5" stroke-linecap="round" stroke-linejoin="round" d="M10.401 18.901q-4.25 0-7.3 3.05t-3.05 7.3l6.2 6.45h53l6.4-6.45q0-4.3-3-7.3-3.05-3.05-7.3-3.05h-44.95"/><path fill="none" stroke="#1A344F" stroke-width="2.5" stroke-linecap="round" stroke-linejoin="round" d="M16.801 18.901v8.4M28.151 18.901v8.4M39.451 18.901v8.4M50.751 18.901v8.4"/><path fill="#71B0B8" stroke="#1A344F" stroke-width="2.5" stroke-linecap="round" stroke-linejoin="round" d="M109.001-10.399h-32.9v45.2h32.9v-45.2"/><path fill="#B9916A" stroke="#1A344F" stroke-width="2.5" stroke-linecap="round" stroke-linejoin="round" d="M74.951-3.899q1.4 1.4 3.4 1.4h28.75q2 0 3.4-1.4 1.4-1.45 1.4-3.45t-1.4-3.4q-1.4-1.4-3.4-1.4h-28.75q-2 0-3.4 1.4-1.45 1.4-1.45 3.4t1.45 3.45M85.551 6.501q-2.8 2.8-2.8 6.75 0 4 2.8 6.8 2.85 2.8 6.8 2.8 3.95 0 6.75-2.8t2.8-6.8q0-3.95-2.8-6.75t-6.75-2.8q-3.95 0-6.8 2.8"/><path fill="none" stroke="#1A344F" stroke-width="2.5" stroke-linecap="round" stroke-linejoin="round" d="M109.001 29.951h-32.9"/><path fill="#99C977" stroke="#19344F" stroke-width="2.5" stroke-linecap="round" stroke-linejoin="round" d="M52.701 13.551q-1.4 3.3-.35 6.6 1.05 3.25 4.1 5.15 3.2 1.9 6.3.9 3.1-1.05 4.6-4.45 1.45-3.3.4-6.55-1.05-3.25-4.1-5.1-3.2-1.95-6.3-.95-3.15 1-4.65 4.4"/><path fill="#D2EAEE" stroke="#1A344F" stroke-width="2.5" stroke-linecap="round" stroke-linejoin="round" d="M79.701-30.599h-10.95v6.85l-4.75 11.05h20.45l-4.75-11.05v-6.85"/><path fill="#FFF" stroke="#1A344F" stroke-width="2.5" stroke-linecap="round" stroke-linejoin="round" d="M61.351-6.599q-1.15 2.7-1.15 5.55v27.95q0 3.8 2.7 6.45 2.65 2.65 6.45 2.65h9.75q3.8 0 6.45-2.65 2.7-2.65 2.7-6.45v-27.95q0-2.85-1.15-5.55l-2.65-6.1h-20.45l-2.65 6.1"/><path fill="#DF7176" stroke="#1A344F" stroke-width="2.5" stroke-linecap="round" stroke-linejoin="round" d="M67.151-29.499q.85.8 2 .8h9.5q1.2 0 2.05-.8.85-.85.85-2.05 0-1.15-.85-2-.85-.85-2.05-.85h-9.5q-1.15 0-2 .85-.85.85-.85 2 0 1.2.85 2.05"/><path fill="#66A4C5" stroke="#1A344F" stroke-width="2.5" stroke-linecap="round" stroke-linejoin="round" d="M60.201-1.049v24.5h13.7v-24.5h-13.7"/><path fill="#DF7176" stroke="#1A344F" stroke-width="2.5" stroke-linecap="round" stroke-linejoin="round" d="M61.701 19.301q-3.3 1.3-4.9 4.35-1.55 3.1-.7 6.55.85 3.6 3.8 5.1 2.9 1.5 6.35.15 3.4-1.3 4.95-4.35 1.55-3.05.7-6.55-.9-3.6-3.8-5.1-2.95-1.5-6.4-.15"/><path fill="#99C977" stroke="#19344F" stroke-width="2.5" stroke-linecap="round" stroke-linejoin="round" d="M51.901 18.401q-3.15 1.05-4.65 4.45-1.4 3.3-.35 6.55 1.05 3.25 4.1 5.15 3.2 1.9 6.3.9 3.15-1 4.6-4.4 1.45-3.3.4-6.6-1.05-3.25-4.1-5.1-3.2-1.95-6.3-.95"/><path fill="#997254" stroke="#1A344F" stroke-width="2.5" stroke-linecap="round" stroke-linejoin="round" d="M104.601-17.299q-2.45 1.05-3.9 3.2-1.5 2.25-1.5 4.95v44.55h17.7v-44.55q0-2.7-1.5-4.95-1.45-2.15-3.9-3.2v-17.8h-6.9v17.8"/><path fill="#F0B971" stroke="#1A344F" stroke-width="2.5" stroke-linecap="round" stroke-linejoin="round" d="M112.451-35.299q-.7-.65-1.6-.65h-5.6q-.95 0-1.6.65-.65.65-.65 1.6v.35q0 .95.65 1.6.65.65 1.6.65h5.6q.9 0 1.6-.65.65-.65.65-1.6v-.35q0-.95-.65-1.6"/><path fill="#DF7176" stroke="#1A344F" stroke-width="2.5" stroke-linecap="round" stroke-linejoin="round" d="M99.201 8.351v10.4h17.7v-10.4h-17.7"/></g><path fill="#F7EDD2" d="M530.9 261.75v-10.9l-418.25.35q0 4.5 3.2 7.7 3.15 3.2 7.7 3.2h16.95l365.25-.35h25.15"/><path fill="#FFF" d="M530.9 250.85v-10.9l-407.35.35q-4.55 0-7.7 3.2-3.2 3.15-3.2 7.7l418.25-.35"/><path fill="#E5E5E5" d="M502.2 324.3q3.55-3.5 3.55-8.5v-54.05l-365.25.35v66.1H158l328-.35h8.05q4.771-.123 8.15-3.55"/><path fill="#E5E5E5" d="M493.7 327.85H486v10.45h10.45v-10.45h-2.75M158 328.2h-10.4v10.45H158V328.2"/><path fill="none" stroke="#1A344F" stroke-width="2.5" stroke-linecap="round" stroke-linejoin="round" d="M530.9 250.85v-10.9l-407.35.35q-4.55 0-7.7 3.2-3.2 3.15-3.2 7.7 0 4.5 3.2 7.7 3.15 3.2 7.7 3.2h16.95v66.1h7.1v10.45H158V328.2l328-.35v10.45h10.45v-10.45h-2.4q4.771-.123 8.15-3.55 3.55-3.5 3.55-8.5v-54.05h25.15v-10.9M530.9 250.85l-418.25.35m27.85 10.9l365.25-.35M147.6 328.2H158m328-.35h8.05"/><path fill="#E9AF90" stroke="#19344F" stroke-width="2.5" stroke-linecap="round" stroke-linejoin="round" d="M221 208.901q1.1-1.25 2.75-1.4 1.65-.15 2.95.95 1.25 1.05 1.4 2.7.15 1.65-.9 2.9l-16.8 19.85 6.3 22.75.65.15q3.15 1 4.7 4 1.5 2.95.5 6.1-1 3.15-3.95 4.65-3 1.5-6.15.45-3.15-1-4.7-3.95-1.5-2.95-.5-6.1.45-1.55 1.75-3l-6.9-25q-.3-1.2.05-2.25.2-.75.75-1.35l18.1-21.45"/><path fill="#606F89" d="M199.15 231.601q.45-1.6 1.6-2.8l27.35-26.9 8.1 7.75-2.85 5.25-16.5 19.8 5 18.15-15.85 4.7-6.75-22.7q-.5-1.6-.1-3.25"/><path fill="none" stroke="#19344F" stroke-width="2.5" stroke-linecap="round" stroke-linejoin="round" d="M199.15 231.601q.45-1.6 1.6-2.8l27.35-26.9 8.1 7.75m-37.05 21.95q-.4 1.65.1 3.25l6.75 22.7 15.85-4.7-5-18.15 16.5-19.8"/><path fill="#A08B76" stroke="#19344F" stroke-width="2.5" stroke-linecap="round" stroke-linejoin="round" d="M352.5 212.501q.55.9.3 1.95-.25 1.05-1.15 1.6-.9.55-1.95.3-1.05-.2-1.6-1.15-.55-.9-.3-1.95.2-1.05 1.15-1.6.9-.55 1.95-.3 1.05.25 1.6 1.15"/><path fill="#BCBCBC" stroke="#19344F" stroke-width="2.5" stroke-linecap="round" stroke-linejoin="round" d="M311.05 220.101q-.6-.9-.35-1.9l5.1-21.2 30.6 12.65q1.25.05 1.65.1.6.05.4.85l-3.4 15.65q-.25 1.05-1.15 1.65-.95.6-1.95.35l-29.35-7q-1-.2-1.55-1.15"/><path fill="#BCBCBC" d="M317.2 194.851q.95-.45 2.25-.2l29.95 7.2-1.275 5.45-29.975-7.15q-1.25-.3-1.9-1.35-.6-1.1-.35-2.3.3-1.15 1.3-1.65M348.125 207.301l1.075.25-1.3.7.225-.95"/><path fill="#BCBCBC" d="M317.2 194.851q.95-.45 2.25-.2l29.95 7.2-1.275 5.45-29.975-7.15q-1.25-.3-1.9-1.35-.6-1.1-.35-2.3.3-1.15 1.3-1.65"/><path fill="none" stroke="#19344F" stroke-width="2.5" stroke-linecap="round" stroke-linejoin="round" d="M349.4 201.851l-29.95-7.2m28.675 12.65l1.275-5.45m-1.275 5.45l1.075.25m-1.075-.25l-.225.95m-29.75-8.1l29.975 7.15m-31.875-8.5q.65 1.05 1.9 1.35m-2.25-3.65q-.25 1.2.35 2.3m.95-3.95q-1 .5-1.3 1.65m3.55-1.85q-1.3-.25-2.25.2"/><path fill="#BCBCBC" d="M331.35 225.751l-13.75-25.75 31.05 7.4q1.2.3 1.85 1.35.65 1.05.35 2.25l-3.65 15.35q-.3 1.25-1.4 1.9-1.05.65-2.35.4l-12.1-2.9"/><path fill="none" stroke="#19344F" stroke-width="2.5" stroke-linecap="round" stroke-linejoin="round" d="M347.2 226.351q-.3 1.25-1.4 1.9-1.05.65-2.35.4l-12.1-2.9m15.85.6l3.65-15.35q.3-1.2-.35-2.25-.65-1.05-1.85-1.35l-31.05-7.4"/><path fill="#A3A3A3" d="M338.4 215.301q.1-.6.65-.9.5-.35 1.1-.2l9.1 2.15q1.25.3 2.3-.35.941-.556 1.3-1.55l-1.15 4.85q-.25 1.1-1.25 1.7-.95.55-2.05.3l-9.4-2.25q-.6-.1-.95-.65-.3-.5-.15-1.1l.5-2"/><path fill="#A3A3A3" d="M338.4 215.301q.1-.6.65-.9.5-.35 1.1-.2l9.1 2.15q1.25.3 2.3-.35.941-.556 1.3-1.55l-1.15 4.85q-.25 1.1-1.25 1.7-.95.55-2.05.3l-9.4-2.25q-.6-.1-.95-.65-.3-.5-.15-1.1l.5-2"/><path fill="none" stroke="#19344F" stroke-width="2.5" stroke-linecap="round" stroke-linejoin="round" d="M340.15 214.201q-.6-.15-1.1.2m10.2 1.95l-9.1-2.15m11.4 1.8q-1.05.65-2.3.35m3.6-1.9q-.359.994-1.3 1.55m1.3-1.55q.057-.169.1-.35m-1.25 5.2l1.15-4.85m-2.4 6.55q1-.6 1.25-1.7m-3.3 2q1.1.25 2.05-.3m-11.45-1.95l9.4 2.25m-10.35-2.9q.35.55.95.65m-1.1-1.75q-.15.6.15 1.1m.35-3.1l-.5 2m1.15-2.9q-.55.3-.65.9"/><path fill="#E9AF90" stroke="#19344F" stroke-width="2.5" stroke-linecap="round" stroke-linejoin="round" d="M274.4 212.651q1.1-1.25 2.75-1.4 1.6-.15 2.9.9l19.85 16.8 22.75-6.3.15-.65q1-3.15 3.95-4.7 2.95-1.5 6.1-.5 3.15 1 4.65 3.95 1.5 2.95.5 6.15-1 3.15-3.95 4.7-2.95 1.5-6.1.5-1.55-.45-3-1.75l-25 6.9q-1.2.3-2.25-.05-.75-.2-1.35-.75l-21.45-18.1q-1.25-1.1-1.4-2.75-.15-1.65.9-2.95"/><path fill="#606F89" d="M275.6 203.151l3.65.45 21.45 18.9 18.15-5 4.7 15.85-22.7 6.75q-1.6.5-3.25.1-1.6-.45-2.8-1.6l-26.9-27.35 7.7-8.1"/><path fill="none" stroke="#19344F" stroke-width="2.5" stroke-linecap="round" stroke-linejoin="round" d="M279.25 203.601l21.45 18.9 18.15-5 4.7 15.85-22.7 6.75q-1.6.5-3.25.1-1.6-.45-2.8-1.6l-26.9-27.35 7.7-8.1"/><path fill="#E9AF90" stroke="#19344F" stroke-width="2.5" stroke-linecap="round" stroke-linejoin="round" d="M282.2 175.551q2.75-1.8 6-1.1 3.2.7 5 3.45 1.75 2.75 1.1 5.95-.7 3.25-3.45 5-2.8 1.8-6 1.1-3.2-.65-5-3.4-1.8-2.8-1.1-6 .65-3.2 3.45-5M229.15 173.701q.65-3.2 3.45-5 2.75-1.8 6-1.15 3.2.7 5 3.45 1.75 2.8 1.1 6-.65 3.2-3.45 5-2.75 1.8-6 1.1-3.2-.65-5-3.45-1.8-2.75-1.1-5.95"/><path fill="#E9AF90" stroke="#19344F" stroke-width="2.5" stroke-linecap="round" stroke-linejoin="round" d="M235.9 170.301l2.15-15.8q3.65-17.05 27.85-11.9l10.95.25q9.95-.15 13.85 6.5 3.65 6.15 1.45 16.7l-4.5 15.25q-2.15 10-10.75 15.6t-18.6 3.45l-3.35-.7q-10-2.15-15.6-10.75-5.55-8.6-3.45-18.6"/><path fill="#F0B971" stroke="#1A344F" stroke-width="2.5" stroke-linecap="round" stroke-linejoin="round" d="M254.65 133.301q7.95-1.75 16.45.15 8.75 2 14.7 7.25 6.55 5.8 7.75 14.15.75 5.2-.95 10.95-1.55 5.3-4.85 9.9l-1.5 1.4q-1.95 1.65-4.4 3.1-7.8 4.55-17.35 4.9-8.05.35-14.85-4.25-6.35-4.25-9.95-11.45-3.6-7.2-3.2-14.75.4-8.1 5.4-14.1 4.45-5.35 12.75-7.25"/><path fill="#E9AF90" stroke="#19344F" stroke-width="2.5" stroke-linecap="round" stroke-linejoin="round" d="M225.3 343.251l-2.2 12.75-7.8-1.35 2.2-12.75 7.8 1.35"/><path fill="#C4C7CB" stroke="#19344F" stroke-width="2.5" stroke-linecap="round" stroke-linejoin="round" d="M208.2 353.401l17.95 3.1-.35 8.7-26.65-5.45q.55-3.2 3.2-5.05 2.65-1.85 5.85-1.3"/><path fill="#E9AF90" stroke="#19344F" stroke-width="2.5" stroke-linecap="round" stroke-linejoin="round" d="M253 358.001l1-12.85 7.85.6-.95 12.85-7.9-.6"/><path fill="#9D808B" d="M227.95 256.451l4.4.15.2-1.2 11.55 1.7 2.05.1-.05.2 19.85 2.9 2.9-3 4.3 4.05-15.5 8.8-14.8-.9-9.95 36.4q-1.8 4.8-1.85 9.75l-.85 32.65-17.3-2.4.5-35.1q0-1.35.4-2.8l14.15-51.3"/><path fill="none" stroke="#19344F" stroke-width="2.5" stroke-linecap="round" stroke-linejoin="round" d="M232.35 256.601l-4.4-.15-14.15 51.3q-.4 1.45-.4 2.8l-.5 35.1 17.3 2.4.85-32.65q.05-4.95 1.85-9.75l9.95-36.4 14.8.9m-25.3-13.55l.2-1.2 11.55 1.7 2.05.1-.05.2 19.85 2.9 2.9-3 4.3 4.05"/><path fill="#9D808B" d="M227.7 254.001l5.2-2.9 2 3.65 19.95 2.05.05-.2 2 .4 11.65 1.2-.15 1.2 4.3.9 1.15 53.25q.05 1.45-.3 2.8l-8.15 34.1-17.35-1.85 7.2-31.9q1.15-4.9.6-9.9l-3.8-36.6-9.2-.95-16.6-14.45.1-.95 1.35.15"/><path fill="none" stroke="#19344F" stroke-width="2.5" stroke-linecap="round" stroke-linejoin="round" d="M227.7 254.001l5.2-2.9 2 3.65 19.95 2.05.05-.2 2 .4 11.65 1.2-.15 1.2 4.3.9 1.15 53.25q.05 1.45-.3 2.8l-8.15 34.1-17.35-1.85 7.2-31.9q1.15-4.9.6-9.9l-3.8-36.6-9.2-.95m-15.15-15.25l-1.35-.15-.1.95"/><path fill="none" stroke="#19344F" stroke-width="2.5" stroke-linecap="round" stroke-linejoin="round" d="M227.7 254.001l5.2-2.9 2 3.65 19.95 2.05.05-.2 2 .4 11.65 1.2-.15 1.2 4.3.9 1.15 53.25q.05 1.45-.3 2.8l-8.15 34.1-17.35-1.85 7.2-31.9q1.15-4.9.6-9.9l-3.8-36.6-9.2-.95m-15.15-15.25l-1.35-.15-.1.95"/><path fill="none" stroke="#19344F" stroke-width="2.5" stroke-linecap="round" stroke-linejoin="round" d="M227.7 254.001l5.2-2.9 2 3.65 19.95 2.05.05-.2 2 .4 11.65 1.2-.15 1.2 4.3.9 1.15 53.25q.05 1.45-.3 2.8l-8.15 34.1-17.35-1.85 7.2-31.9q1.15-4.9.6-9.9l-3.8-36.6-9.2-.95m-15.15-15.25l-1.35-.15-.1.95"/><path fill="#606F89" d="M227.9 201.551q2.4-2.35 5.75-2.5l9.15-.45q10.45-.5 21 1.7l15.45 3.3-.3 15.25-2.95 47.75-54.35-3.85 3.55-55.55q.25-3.35 2.7-5.65"/><path fill="none" stroke="#19344F" stroke-width="2.5" stroke-linecap="round" stroke-linejoin="round" d="M227.9 201.551q2.4-2.35 5.75-2.5l9.15-.45q10.45-.5 21 1.7l15.45 3.3m-51.35-2.05q-2.45 2.3-2.7 5.65l-3.55 55.55 54.35 3.85 2.95-47.75"/><path fill="#C4C7CB" stroke="#19344F" stroke-width="2.5" stroke-linecap="round" stroke-linejoin="round" d="M268.1 359.151q3.2.25 5.3 2.7 2.1 2.45 1.9 5.7l-27.15-1.25 1.75-8.5 18.2 1.35"/><g transform="translate(104.8 76.45)"><animateTransform attributeName="transform" additive="replace" type="translate" repeatCount="indefinite" dur="4.95s" keyTimes="0;0.101;0.111;0.121;0.141;0.152;0.162;0.172;0.182;0.192;1" values="104.8,76.45;104.8,76.45;104.8,76.5;104.8,76.45;104.8,76.45;104.75,76.4;104.8,76.4;104.8,76.4;104.75,76.4;104.8,76.45;104.8,76.45" calcMode="discrete"/><animateTransform attributeName="transform" additive="sum" type="scale" repeatCount="indefinite" dur="4.95s" keyTimes="0;0.061;0.071;0.081;0.091;0.101;0.111;0.121;0.131;0.141;0.152;0.162;0.172;0.182;0.192;1" values="1,1;1,1;0.933,0.933;0.867,0.867;0.8,0.8;0.87,0.87;0.94,0.94;1.01,1.01;1.08,1.08;1.15,1.15;1.12,1.12;1.09,1.09;1.06,1.06;1.03,1.03;1,1;1,1" calcMode="discrete"/><path fill="#B89F78" stroke="#1A344F" stroke-width="2.5" stroke-linecap="round" stroke-linejoin="round" d="M37.251-26.399q0-2.3-1.65-3.95-1.6-1.65-3.95-1.65h-63.2q-2.3 0-3.9 1.65-1.65 1.65-1.65 3.95v10.55h74.35v-10.55"/><path fill="#FFF" stroke="#1A344F" stroke-width="2.5" stroke-linecap="round" stroke-linejoin="round" d="M-35.449 30.501q1.6 1.65 3.9 1.65h63.2q2.35 0 3.95-1.65 1.65-1.6 1.65-3.95v-42.4h-74.35v42.4q0 2.3 1.65 3.95"/><path fill="#1A344F" d="M-13.699.851q0-4.65-4.6-5.1-4.65 0-4.5 5.1v1.65h2.1V.751q0-2.7 2.35-3 2.55 0 2.4 3.2 0 4.3-3.4 6.45-2.6 2.75-3.45 7.05v1.7h8.85v-2.05h-6.65v-.3q.05-3.5 3.45-5.95 2.6-2.8 3.45-7M-6.649-4.249q-4.65 0-4.65 5.05v10.45q0 4.65 4.65 5.1 4.65 0 4.65-5.1V.801q0-4.65-4.65-5.05m2.4 4.95v10.7q0 2.7-2.4 2.9-2.45 0-2.4-2.9V.701q0-2.75 2.4-2.95 2.5 0 2.4 2.95M5.101-4.249q-4.65 0-4.65 5.05v10.45q0 4.65 4.65 5.1 4.65 0 4.65-5.1V.801q0-4.65-4.65-5.05m2.4 4.95v10.7q0 2.7-2.4 2.9-2.45 0-2.4-2.9V.701q0-2.75 2.4-2.95 2.5 0 2.4 2.95M13.701.451q1.65-.05 2.8-.85v16.55h2.25v-20.2h-1.55q-.8 2.1-3.5 2.65v1.85"/></g><g mask="url(#a)"><path fill="#CBD2DD" d="M695.1 432.05V0H0v432.05h695.1"/><path fill="#B7B7B7" fill-opacity=".188" d="M421.4 38.35H0V338.3h421.4V38.35"/><path fill="none" stroke="#1A344F" stroke-width="2.5" stroke-linecap="round" stroke-linejoin="round" d="M674.851 338.351H24.501"/></g><g mask="url(#a)"><path fill="#787D96" d="M426.601 127.351q-10.75-7.1-25.1-5.8-10.6.95-17.15 8-3.3 3.55-4.45 6.85-1.1-.4-2.45-.05-2.7.6-3.9 4.15-3.9 11.7-5.3 19.85-3 17 2.15 24.9 5.05 7.75 12 8.9 3.5.55 5.95-.45l37.15.85q12.75 0 17.55-9.9 5-10.4.55-30.15-4.2-18.7-17-27.15"/><path fill="none" stroke="#19344F" stroke-width="2.5" stroke-linecap="round" stroke-linejoin="round" d="M426.601 127.351q-10.75-7.1-25.1-5.8-10.6.95-17.15 8-3.3 3.55-4.45 6.85-1.1-.4-2.45-.05-2.7.6-3.9 4.15-3.9 11.7-5.3 19.85-3 17 2.15 24.9 5.05 7.75 12 8.9 3.5.55 5.95-.45m38.25-66.35q12.8 8.45 17 27.15 4.45 19.75-.55 30.15-4.8 9.9-17.55 9.9"/><path fill="#F06792" d="M369.701 228.751v12h72.8v-12q0-11.15-7.9-19-7.85-7.85-19-7.85h-18.2q-11.2 0-19.4 7.85-8.3 7.95-8.3 19"/><path fill="none" stroke="#19344F" stroke-width="2.5" stroke-linecap="round" stroke-linejoin="round" d="M369.701 228.751v12h72.8v-12q0-11.15-7.9-19-7.85-7.85-19-7.85m-45.9 26.85q0-11.05 8.3-19 8.2-7.85 19.4-7.85"/><path fill="#EAB091" stroke="#19344F" stroke-width="2.5" stroke-linecap="round" stroke-linejoin="round" d="M417.701 195.901l-21.25-.2 10.15 30.1 4.3-10.3 6.8-19.6"/><path fill="#FFF" stroke="#19344F" stroke-width="2.5" stroke-linecap="round" stroke-linejoin="round" d="M401.751 211.651l4.85 14.15 5.65-14.2q-.55 1.1-2.15 1.7-3.2 1.1-8.35-1.65"/><path fill="none" stroke="#19344F" stroke-width="2.5" stroke-linecap="round" stroke-linejoin="round" d="M406.601 238.251v-12.45"/><path fill="#EAB091" stroke="#19344F" stroke-width="2.5" stroke-linecap="round" stroke-linejoin="round" d="M438.801 172.901q-2.15-2.55-5.45-2.85-3.35-.3-5.9 1.85-2.55 2.15-2.85 5.45-.3 3.35 1.85 5.9 2.1 2.55 5.45 2.85 3.35.3 5.9-1.85 2.55-2.1 2.85-5.45.3-3.35-1.85-5.9M376.651 171.651q-2.6 2.15-2.85 5.5-.3 3.3 1.85 5.85 2.1 2.55 5.45 2.85 3.3.3 5.9-1.85 2.55-2.1 2.85-5.45.3-3.35-1.85-5.9-2.15-2.55-5.5-2.85-3.3-.3-5.85 1.85"/><path fill="#CC977A" d="M399.851 203.951l13.35 3.15 3.4-10.3-19.3-.85 2.55 8"/><path fill="#EAB091" stroke="#19344F" stroke-width="2.5" stroke-linecap="round" stroke-linejoin="round" d="M380.401 156.101l-.2 16.15q-.95 10.4 5.75 18.35 6.65 7.95 17 8.9l3.45.3q10.35.95 18.35-5.75 7.95-6.65 8.9-17l2.65-15.95q.9-10.55-5.75-17.65-6.8-7.3-17.05-5.9l-6.6.2q-1.65-.15-4 .05-3.45.35-3.8.35-7.75.4-12.75 5.05-5.2 4.8-5.95 12.9"/><path fill="#D6A183" d="M434.651 167.551l.45-3.4q-2.85.3-6.9-.55-8.15-1.65-14.2-7.3-8.15-7.55-12.45-10.8-5.5-4.1-9.6-5.1l-5.2 3.15 4.9 4.8q6.15 5.65 12.2 9.95 19.35 13.85 30.8 9.25"/><path fill="none" stroke="#19344F" stroke-width="2.5" stroke-linecap="round" stroke-linejoin="round" d="M422.551 160.851l-.1 4.95M394.801 160.251l-.15 4.95M411.301 173.851q1.5-1.25 1.65-3.2m-1.65 3.2q-1.5 1.3-3.5 1.1-1.95-.2-3.2-1.7-1.25-1.5-1.1-3.45"/><path fill="#EAB091" d="M414.801 186.151h-15.7q5.15 2.2 10.95 1.3 2.9-.4 4.75-1.3"/><path fill="none" stroke="#19344F" stroke-width="2.5" stroke-linecap="round" stroke-linejoin="round" d="M410.051 187.451q-5.8.9-10.95-1.3m10.95 1.3q2.9-.4 4.75-1.3"/><path fill="#787D96" d="M385.401 137.101l-9.5 4.15 12.95-3.85 5.45 2.7q7.7 4.8 18.65 15.1 11 10.3 20.75 8.4 4.85-.95 7.5-3.95l-12.2-29.35q-14.9.4-16.05 0-.7-.25-7.35.85l-6.5 1.1q-.6-.1-2.65.55-3.55 1.15-11.05 4.3"/><path fill="none" stroke="#19344F" stroke-width="2.5" stroke-linecap="round" stroke-linejoin="round" d="M412.201 154.501q6.2 5.8 8.1 6.9 8.1 4.65 18.05 1.25m-26.15-8.15q-7.1-6.7-11.05-9.65-14.65-11.05-20.55-.9"/></g><g mask="url(#a)"><path fill="#D4E7FF" d="M538.4 242.1q-3.2-3.2-7.7-3.2l-414.5.75v10.9l425.35-.75q0-4.55-3.15-7.7"/><path fill="#E7CDDF" d="M530.7 260.7q4.5 0 7.7-3.2 3.15-3.2 3.15-7.7l-425.35.75v10.9h25.15l372.4-.75h16.95"/><path fill="#E7CDDF" d="M513.75 337.25V260.7l-372.4.75V338l372.4-.75"/><path fill="none" stroke="#1A344F" stroke-width="2.5" stroke-linecap="round" stroke-linejoin="round" d="M116.2 239.65l414.5-.75m-414.5 11.65v-10.9m0 21.8v-10.9m25.15 10.9H116.2M141.35 338v-76.55m372.4-.75v76.55m16.95-76.55h-16.95m24.65-3.2q-3.2 3.2-7.7 3.2m10.85-10.9q0 4.5-3.15 7.7m0-15.4q3.15 3.15 3.15 7.7m-10.85-10.9q4.5 0 7.7 3.2M116.2 250.55l425.35-.75M141.35 261.45l372.4-.75"/><path fill="#EAD8E6" d="M377.551 262.601h-29.15l118.8 74.05h29.1l-118.75-74.05M325.601 262.601h-14.55l118.75 74.05h14.55l-118.75-74.05"/><path fill="none" stroke="#1A344F" stroke-width="2.5" stroke-linecap="round" stroke-linejoin="round" d="M513.75 337.25l-372.4.75"/></g><g mask="url(#a)" stroke="#1A344F" stroke-width="2.5" stroke-linecap="round" stroke-linejoin="round"><path fill="#E1F6FC" d="M358.501 261.801v45.6h107.75v-45.6h-107.75"/><path fill="#BFEFFC" d="M386.751 268.401h-22.25v16.2h22.25v-16.2"/><path fill="none" d="M394.651 269.401h65.1M394.651 276.501h65.1M394.651 283.601h65.1M394.651 290.701h65.1M394.651 297.801h38.25"/></g><g mask="url(#a)"><g transform="translate(160.15 220.55)"><animateTransform attributeName="transform" additive="replace" type="translate" repeatCount="indefinite" dur="4.95s" keyTimes="0;0.495;0.505;0.515;0.525;0.535;0.545;0.556;0.566;0.576;0.586;0.596;0.606;0.616;0.626;0.636;0.646;0.657;0.667;0.677;0.687;0.697;0.707;0.717;0.727;0.737;1" values="160.15,220.55;160.15,220.55;188,220.55;214.6,220.55;239.95,220.55;264.05,220.55;286.95,220.55;308.6,220.55;329,220.55;348.2,220.55;366.1,220.55;382.8,220.55;398.3,220.55;412.5,220.55;425.5,220.55;437.25,220.55;447.75,220.55;457.05,220.55;465.1,220.55;471.9,220.55;477.45,220.55;481.8,220.55;484.85,220.55;486.75,220.55;487.35,220.55;487.9,220.55;487.9,220.55" calcMode="discrete"/><path fill="#E5E4E3" d="M-12.55-5.2l-6.2-7.3-5.7 7.3v23.85l.75-.55h-.4v-3.95h5.775Q6.142 19.645 3.95 6.05 6.249-12.586-12.55-5.2"/><path fill="#FFF" stroke="#19344F" stroke-width="2.5" stroke-linecap="round" stroke-linejoin="round" d="M-30.799-13.499l6.2 7.3h27.45l-7.3-7.3h-26.35"/><path fill="#66A4C5" d="M2.401 13.151h-5.05q-.15 1.1-1 1.55-1.2.7-2.35.15-1.05-.5-1.3-1.7h-17.3v3.95h27v-3.95"/><path fill="none" stroke="#19344F" stroke-width="2.5" stroke-linecap="round" stroke-linejoin="round" d="M2.401 13.151h-5.05q-.15 1.1-1 1.55-1.2.7-2.35.15-1.05-.5-1.3-1.7h-17.3v3.95h27v-3.95"/><path fill="#E5E4E3" stroke="#19344F" stroke-width="2.5" stroke-linecap="round" stroke-linejoin="round" d="M-30.85-13.55l-5.7 7.3V17.6h11.9v-.55H-36.2V13.1h11.55V-6.25l-6.2-7.3"/><path fill="#E5E4E3" stroke="#19344F" stroke-width="2.5" stroke-linecap="round" stroke-linejoin="round" d="M-36.149 13.151v3.95h11.55v-3.95h-11.55"/><path fill="#FFF" stroke="#19344F" stroke-width="2.5" stroke-linecap="round" stroke-linejoin="round" d="M-4.449-13.499v-5.15h-26.35v5.15h26.35M-5.999 14.851q1.15.55 2.35-.15.85-.45 1-1.55h-4.65q.25 1.2 1.3 1.7M-.349 10.801v-.6q0-.95-.65-1.6-.7-.7-1.65-.7l2.3 2.9"/><path fill="none" stroke="#19344F" stroke-width="2.5" stroke-linecap="round" stroke-linejoin="round" d="M2.851-6.199v19.35"/><path fill="#F0B971" stroke="#1A344F" stroke-width="2.5" stroke-linecap="round" stroke-linejoin="round" d="M26.301 2.001H2.451q-4.3 0-7.35 3.05-3 3-3 7.3l6.45 6.45h31.9l6.15-6.45q0-4.3-3-7.3-3.05-3.05-7.3-3.05"/><path fill="none" stroke="#1A344F" stroke-width="2.5" stroke-linecap="round" stroke-linejoin="round" d="M19.851 2.001v8.4M8.551 2.001v8.4"/></g></g><g mask="url(#a)"><path fill="#E9AF90" stroke="#19344F" stroke-width="2.5" stroke-linecap="round" stroke-linejoin="round" d="M221 208.901q1.1-1.25 2.75-1.4 1.65-.15 2.95.95 1.25 1.05 1.4 2.7.15 1.65-.9 2.9l-16.8 19.85 6.3 22.75.65.15q3.15 1 4.7 4 1.5 2.95.5 6.1-1 3.15-3.95 4.65-3 1.5-6.15.45-3.15-1-4.7-3.95-1.5-2.95-.5-6.1.45-1.55 1.75-3l-6.9-25q-.3-1.2.05-2.25.2-.75.75-1.35l18.1-21.45"/><path fill="#75C3DD" d="M199.15 231.601q.45-1.6 1.6-2.8l27.35-26.9 8.1 7.75-2.85 5.25-16.5 19.8 5 18.15-15.85 4.7-6.75-22.7q-.5-1.6-.1-3.25"/><path fill="none" stroke="#19344F" stroke-width="2.5" stroke-linecap="round" stroke-linejoin="round" d="M199.15 231.601q.45-1.6 1.6-2.8l27.35-26.9 8.1 7.75m-37.05 21.95q-.4 1.65.1 3.25l6.75 22.7 15.85-4.7-5-18.15 16.5-19.8"/><path fill="#A08B76" stroke="#19344F" stroke-width="2.5" stroke-linecap="round" stroke-linejoin="round" d="M352.5 212.501q.55.9.3 1.95-.25 1.05-1.15 1.6-.9.55-1.95.3-1.05-.2-1.6-1.15-.55-.9-.3-1.95.2-1.05 1.15-1.6.9-.55 1.95-.3 1.05.25 1.6 1.15"/><path fill="#8A6683" stroke="#19344F" stroke-width="2.5" stroke-linecap="round" stroke-linejoin="round" d="M311.05 220.101q-.6-.9-.35-1.9l5.1-21.2 30.6 12.65q1.25.05 1.65.1.6.05.4.85l-3.4 15.65q-.25 1.05-1.15 1.65-.95.6-1.95.35l-29.35-7q-1-.2-1.55-1.15"/><path fill="#8A6683" d="M315.9 196.501q.3-1.15 1.3-1.65.95-.45 2.25-.2l29.95 7.2-1.275 5.45-29.975-7.15q-1.25-.3-1.9-1.35-.6-1.1-.35-2.3M348.125 207.301l1.075.25-1.3.7.225-.95"/><path fill="none" stroke="#19344F" stroke-width="2.5" stroke-linecap="round" stroke-linejoin="round" d="M319.45 194.651q-1.3-.25-2.25.2m32.2 7l-29.95-7.2m28.675 12.65l1.275-5.45m-1.275 5.45l1.075.25m-1.075-.25l-.225.95m-29.75-8.1l29.975 7.15m-31.875-8.5q.65 1.05 1.9 1.35m-2.25-3.65q-.25 1.2.35 2.3m.95-3.95q-1 .5-1.3 1.65"/><path fill="#8A6683" d="M331.35 225.751l-13.75-25.75 31.05 7.4q1.2.3 1.85 1.35.65 1.05.35 2.25l-3.65 15.35q-.3 1.25-1.4 1.9-1.05.65-2.35.4l-12.1-2.9"/><path fill="none" stroke="#19344F" stroke-width="2.5" stroke-linecap="round" stroke-linejoin="round" d="M347.2 226.351q-.3 1.25-1.4 1.9-1.05.65-2.35.4l-12.1-2.9m15.85.6l3.65-15.35q.3-1.2-.35-2.25-.65-1.05-1.85-1.35l-31.05-7.4"/><path fill="#BF92B9" d="M338.4 215.301q.1-.6.65-.9.5-.35 1.1-.2l9.1 2.15q1.25.3 2.3-.35.941-.556 1.3-1.55l-1.15 4.85q-.25 1.1-1.25 1.7-.95.55-2.05.3l-9.4-2.25q-.6-.1-.95-.65-.3-.5-.15-1.1l.5-2"/><path fill="none" stroke="#19344F" stroke-width="2.5" stroke-linecap="round" stroke-linejoin="round" d="M340.15 214.201q-.6-.15-1.1.2m10.2 1.95l-9.1-2.15m11.4 1.8q-1.05.65-2.3.35m3.6-1.9q-.359.994-1.3 1.55m1.3-1.55q.057-.169.1-.35m-1.25 5.2l1.15-4.85m-2.4 6.55q1-.6 1.25-1.7m-3.3 2q1.1.25 2.05-.3m-11.45-1.95l9.4 2.25m-10.35-2.9q.35.55.95.65m-1.1-1.75q-.15.6.15 1.1m.35-3.1l-.5 2m1.15-2.9q-.55.3-.65.9"/><path fill="#E9AF90" stroke="#19344F" stroke-width="2.5" stroke-linecap="round" stroke-linejoin="round" d="M274.4 212.651q1.1-1.25 2.75-1.4 1.6-.15 2.9.9l19.85 16.8 22.75-6.3.15-.65q1-3.15 3.95-4.7 2.95-1.5 6.1-.5 3.15 1 4.65 3.95 1.5 2.95.5 6.15-1 3.15-3.95 4.7-2.95 1.5-6.1.5-1.55-.45-3-1.75l-25 6.9q-1.2.3-2.25-.05-.75-.2-1.35-.75l-21.45-18.1q-1.25-1.1-1.4-2.75-.15-1.65.9-2.95"/><path fill="#83CDEC" d="M275.6 203.151l3.65.45 21.45 18.9 18.15-5 4.7 15.85-22.7 6.75q-1.6.5-3.25.1-1.6-.45-2.8-1.6l-26.9-27.35 7.7-8.1"/><path fill="none" stroke="#19344F" stroke-width="2.5" stroke-linecap="round" stroke-linejoin="round" d="M279.25 203.601l21.45 18.9 18.15-5 4.7 15.85-22.7 6.75q-1.6.5-3.25.1-1.6-.45-2.8-1.6l-26.9-27.35 7.7-8.1"/><path fill="#E9AF90" stroke="#19344F" stroke-width="2.5" stroke-linecap="round" stroke-linejoin="round" d="M282.2 175.551q2.75-1.8 6-1.1 3.2.7 5 3.45 1.75 2.75 1.1 5.95-.7 3.25-3.45 5-2.8 1.8-6 1.1-3.2-.65-5-3.4-1.8-2.8-1.1-6 .65-3.2 3.45-5M229.15 173.701q.65-3.2 3.45-5 2.75-1.8 6-1.15 3.2.7 5 3.45 1.75 2.8 1.1 6-.65 3.2-3.45 5-2.75 1.8-6 1.1-3.2-.65-5-3.45-1.8-2.75-1.1-5.95"/><path fill="#E9AF90" stroke="#19344F" stroke-width="2.5" stroke-linecap="round" stroke-linejoin="round" d="M235.9 170.301l2.15-15.8q3.65-17.05 27.85-11.9l10.95.25q9.95-.15 13.85 6.5 3.65 6.15 1.45 16.7l-4.5 15.25q-2.15 10-10.75 15.6t-18.6 3.45l-3.35-.7q-10-2.15-15.6-10.75-5.55-8.6-3.45-18.6"/><path fill="#F0B971" stroke="#1A344F" stroke-width="2.5" stroke-linecap="round" stroke-linejoin="round" d="M254.65 133.301q7.95-1.75 16.45.15 8.75 2 14.7 7.25 6.55 5.8 7.75 14.15.75 5.2-.95 10.95-1.55 5.3-4.85 9.9l-1.5 1.4q-1.95 1.65-4.4 3.1-7.8 4.55-17.35 4.9-8.05.35-14.85-4.25-6.35-4.25-9.95-11.45-3.6-7.2-3.2-14.75.4-8.1 5.4-14.1 4.45-5.35 12.75-7.25"/><path fill="#E9AF90" stroke="#19344F" stroke-width="2.5" stroke-linecap="round" stroke-linejoin="round" d="M225.3 343.251l-2.2 12.75-7.8-1.35 2.2-12.75 7.8 1.35"/><path fill="#83CDEC" stroke="#19344F" stroke-width="2.5" stroke-linecap="round" stroke-linejoin="round" d="M202.35 354.701q2.65-1.85 5.85-1.3l17.95 3.1-.35 8.7-26.65-5.45q.55-3.2 3.2-5.05"/><path fill="#E9AF90" stroke="#19344F" stroke-width="2.5" stroke-linecap="round" stroke-linejoin="round" d="M253 358.001l1-12.85 7.85.6-.95 12.85-7.9-.6"/><path fill="#E6F0F4" d="M227.95 256.451l4.4.15.2-1.2 11.55 1.7 2.05.1-.05.2 19.85 2.9 2.9-3 4.3 4.05-15.5 8.8-14.8-.9-9.95 36.4q-1.8 4.8-1.85 9.75l-.85 32.65-17.3-2.4.5-35.1q0-1.35.4-2.8l14.15-51.3"/><path fill="none" stroke="#19344F" stroke-width="2.5" stroke-linecap="round" stroke-linejoin="round" d="M232.35 256.601l-4.4-.15-14.15 51.3q-.4 1.45-.4 2.8l-.5 35.1 17.3 2.4.85-32.65q.05-4.95 1.85-9.75l9.95-36.4 14.8.9m-25.3-13.55l.2-1.2 11.55 1.7 2.05.1-.05.2 19.85 2.9 2.9-3 4.3 4.05"/><path fill="#E6F0F4" d="M227.7 254.001l5.2-2.9 2 3.65 19.95 2.05.05-.2 2 .4 11.65 1.2-.15 1.2 4.3.9 1.15 53.25q.05 1.45-.3 2.8l-8.15 34.1-17.35-1.85 7.2-31.9q1.15-4.9.6-9.9l-3.8-36.6-9.2-.95-16.6-14.45.1-.95 1.35.15"/><path fill="none" stroke="#19344F" stroke-width="2.5" stroke-linecap="round" stroke-linejoin="round" d="M227.7 254.001l5.2-2.9 2 3.65 19.95 2.05.05-.2 2 .4 11.65 1.2-.15 1.2 4.3.9 1.15 53.25q.05 1.45-.3 2.8l-8.15 34.1-17.35-1.85 7.2-31.9q1.15-4.9.6-9.9l-3.8-36.6-9.2-.95m-15.15-15.25l-1.35-.15-.1.95"/><path fill="none" stroke="#19344F" stroke-width="2.5" stroke-linecap="round" stroke-linejoin="round" d="M227.7 254.001l5.2-2.9 2 3.65 19.95 2.05.05-.2 2 .4 11.65 1.2-.15 1.2 4.3.9 1.15 53.25q.05 1.45-.3 2.8l-8.15 34.1-17.35-1.85 7.2-31.9q1.15-4.9.6-9.9l-3.8-36.6-9.2-.95m-15.15-15.25l-1.35-.15-.1.95"/><path fill="none" stroke="#19344F" stroke-width="2.5" stroke-linecap="round" stroke-linejoin="round" d="M227.7 254.001l5.2-2.9 2 3.65 19.95 2.05.05-.2 2 .4 11.65 1.2-.15 1.2 4.3.9 1.15 53.25q.05 1.45-.3 2.8l-8.15 34.1-17.35-1.85 7.2-31.9q1.15-4.9.6-9.9l-3.8-36.6-9.2-.95m-15.15-15.25l-1.35-.15-.1.95"/><path fill="#83CDEC" d="M227.9 201.551q2.4-2.35 5.75-2.5l9.15-.45q10.45-.5 21 1.7l15.45 3.3-.3 15.25-2.95 47.75-54.35-3.85 3.55-55.55q.25-3.35 2.7-5.65"/><path fill="none" stroke="#19344F" stroke-width="2.5" stroke-linecap="round" stroke-linejoin="round" d="M227.9 201.551q2.4-2.35 5.75-2.5l9.15-.45q10.45-.5 21 1.7l15.45 3.3m-51.35-2.05q-2.45 2.3-2.7 5.65l-3.55 55.55 54.35 3.85 2.95-47.75"/><path fill="#83CDEC" stroke="#19344F" stroke-width="2.5" stroke-linecap="round" stroke-linejoin="round" d="M268.1 359.151q3.2.25 5.3 2.7 2.1 2.45 1.9 5.7l-27.15-1.25 1.75-8.5 18.2 1.35"/></g><g mask="url(#a)"><g transform="translate(104.8 76.45)"><animateTransform attributeName="transform" additive="replace" type="translate" repeatCount="indefinite" dur="4.95s" keyTimes="0;0.576;0.586;0.596;0.616;0.626;0.636;0.646;0.657;0.667;1" values="104.8,76.45;104.8,76.45;104.8,76.5;104.8,76.45;104.8,76.45;104.75,76.4;104.8,76.4;104.8,76.4;104.75,76.4;104.8,76.45;104.8,76.45" calcMode="discrete"/><animateTransform attributeName="transform" additive="sum" type="scale" repeatCount="indefinite" dur="4.95s" keyTimes="0;0.535;0.545;0.556;0.566;0.576;0.586;0.596;0.606;0.616;0.626;0.636;0.646;0.657;0.667;1" values="1,1;1,1;0.933,0.933;0.867,0.867;0.8,0.8;0.87,0.87;0.94,0.94;1.01,1.01;1.08,1.08;1.15,1.15;1.12,1.12;1.09,1.09;1.06,1.06;1.03,1.03;1,1;1,1" calcMode="discrete"/><path fill="#E7CDDF" stroke="#1A344F" stroke-width="2.5" stroke-linecap="round" stroke-linejoin="round" d="M35.601-30.349q-1.65-1.65-3.95-1.65h-63.2q-2.3 0-3.9 1.65-1.65 1.65-1.65 3.95v10.55h74.3v-10.55q0-2.35-1.6-3.95"/><path fill="#FFF" stroke="#1A344F" stroke-width="2.5" stroke-linecap="round" stroke-linejoin="round" d="M37.201 26.551v-42.4h-74.3v42.4q0 2.3 1.65 3.95 1.6 1.65 3.9 1.65h63.2q2.3 0 3.95-1.65 1.6-1.6 1.6-3.95"/><path fill="#1A344F" d="M-13.749.851q0-4.65-4.6-5.1-4.65 0-4.5 5.1v1.65h2.1V.751q0-2.7 2.35-3 2.55 0 2.4 3.2 0 4.3-3.4 6.45-2.6 2.75-3.45 7.05v1.7h8.85v-2.05h-6.65v-.3q.05-3.5 3.45-5.95 2.6-2.8 3.45-7M-6.699-4.249q-4.65 0-4.65 5.05v10.45q0 4.65 4.65 5.1 4.65 0 4.65-5.1V.801q0-4.65-4.65-5.05m2.4 4.95v10.7q0 2.7-2.4 2.9-2.45 0-2.4-2.9V.701q0-2.75 2.4-2.95 2.5 0 2.4 2.95M6.951-4.049h-1.55q-.8 2.1-3.5 2.65v1.85q1.65-.05 2.8-.85v16.55h2.25v-20.2M11.201-2.049h6.85l-5.15 18.2h2.25l5.2-18.25v-1.95h-9.15v2"/></g></g><mask id="a"><g transform="matrix(.02 0 0 1 -17.799 216)"><animateTransform attributeName="transform" additive="replace" type="translate" repeatCount="indefinite" dur="4.95s" keyTimes="0;0.434;0.444;0.455;0.485;0.495;0.889;0.899;0.909;0.919;0.929;0.939;0.949;0.96;0.97;0.98;0.99;1" values="-17.799,217.25;-17.799,217.25;-17.749,217.25;-17.799,217.25;-17.799,217.25;-17.806,217.25;-17.806,217.25;47.557,217.25;112.871,217.25;178.235,217.25;243.549,217.25;308.884,217.25;374.229,217.25;439.611,217.25;504.956,217.25;570.25,217.25;635.6,217.25;700.95,217.25" calcMode="discrete"/><animateTransform attributeName="transform" additive="sum" type="scale" repeatCount="indefinite" dur="4.95s" keyTimes="0;0.394;0.404;0.414;0.424;0.434;0.444;0.455;0.465;0.475;0.485;0.495;0.889;0.899;0.909;0.919;0.929;0.939;0.949;0.96;0.97;0.98;0.99;1" values="0.02,1;0.02,1;0.123,1;0.226,1;0.329,1;0.432,1;0.535,1;0.638,1;0.741,1;0.845,1;0.948,1;1.051,1;1.051,1;0.957,1;0.863,1;0.769,1;0.675,1;0.581,1;0.486,1;0.392,1;0.298,1;0.204,1;0.11,1;0.016,1" calcMode="discrete"/><animateTransform attributeName="transform" additive="sum" type="translate" repeatCount="indefinite" dur="4.95s" keyTimes="0;0.485;0.495;0.929;0.939;0.949;0.96;0.97;0.98;1" values="0,-1.25;0,-1.25;0.149,-1.25;0.149,-1.25;0.199,-1.25;0.249,-1.25;0.099,-1.25;0.149,-1.25;0,-1.25;0,-1.25" calcMode="discrete"/><path fill="#FFF" d="M.061-215.949v432.05h695.103v-432.05H.061"/></g></mask><g style="display:none"><use xlink:href="#b" transform="matrix(.677 -.797 .763 .643 484.75 55.6)"><animateTransform attributeName="transform" additive="replace" type="translate" repeatCount="indefinite" dur="4.95s" keyTimes="0;0.737;0.747;0.758;0.768;0.778;0.788;0.798;0.808;0.818;0.828;0.838;0.848;0.859;0.869;0.879;1" values="469.609,120.653;469.609,120.653;469.289,121.17;469.002,121.713;468.822,122.114;468.616,122.33;468.561,122.671;468.368,122.861;468.341,122.918;468.353,122.991;468.414,122.941;468.32,122.974;468.384,122.957;468.393,122.972;468.287,122.999;468.351,122.95;468.351,122.95" calcMode="discrete"/><animateTransform attributeName="transform" additive="sum" type="rotate" repeatCount="indefinite" dur="4.95s" keyTimes="0;0.737;0.747;0.758;0.768;0.778;0.788;0.798;0.808;0.818;0.828;0.838;0.848;0.859;0.869;0.879;1" values="-49.877,0,0;-49.877,0,0;-35.069,0,0;-22.065,0,0;-11.261,0,0;-2.277,0,0;4.519,0,0;9.514,0,0;12.318,0,0;13.481,0,0;11.065,0,0;8.814,0,0;6.561,0,0;4.312,0,0;2.062,0,0;0,0,0;0,0,0" calcMode="discrete"/><animateTransform attributeName="transform" additive="sum" type="skewX" repeatCount="indefinite" dur="4.95s" keyTimes="0;0.788;0.798;0.808;0.818;1" values="0;0;0.003;-0.001;0;0" calcMode="discrete"/><animateTransform attributeName="transform" additive="sum" type="skewY" repeatCount="indefinite" dur="4.95s" keyTimes="0;0.737;0.747;0.758;0.768;0.778;0.788;0.798;1" values="0.246;0.246;0.236;0.035;0.213;0.016;0.007;0;0" calcMode="discrete"/><animateTransform attributeName="transform" additive="sum" type="scale" repeatCount="indefinite" dur="4.95s" keyTimes="0;0.737;0.747;0.758;0.768;0.778;0.788;0.798;0.808;0.848;0.859;1" values="1.046,0.998;1.046,0.998;1.033,0.997;1.025,0.998;1.017,0.999;1.011,0.999;1.006,0.999;1.002,0.999;0.999,0.999;0.999,0.999;1,1;1,1" calcMode="discrete"/><animateTransform attributeName="transform" additive="sum" type="translate" repeatCount="indefinite" dur="4.95s" keyTimes="0;0.737;0.747;0.758;0.768;0.778;0.788;0.798;0.808;0.818;0.828;0.838;0.848;0.859;0.869;1" values="56.899,-30.65;56.899,-30.65;56.899,-30.55;56.899,-30.65;56.899,-30.65;56.899,-30.55;56.899,-30.7;56.999,-30.7;56.899,-30.6;57.499,-31.65;57.549,-31.5;57.599,-31.6;57.449,-31.55;57.499,-31.55;57.549,-31.6;57.549,-31.6" calcMode="discrete"/></use><animate attributeName="display" repeatCount="indefinite" dur="4.95s" keyTimes="0;0.737;0.929;1" values="none;inline;none;none"/></g><g style="display:none"><use xlink:href="#b" transform="matrix(.677 -.797 .763 .643 484.75 55.6)"><animateTransform attributeName="transform" additive="replace" type="translate" repeatCount="indefinite" dur="4.95s" keyTimes="0;0.242;0.253;0.263;0.273;0.283;0.293;0.303;0.313;0.323;0.333;0.343;0.354;0.364;0.374;0.384;1" values="469.609,120.653;469.609,120.653;469.289,121.17;469.002,121.713;468.822,122.114;468.616,122.33;468.561,122.671;468.368,122.861;468.341,122.918;468.353,122.991;468.414,122.941;468.32,122.974;468.384,122.957;468.393,122.972;468.287,122.999;468.351,122.95;468.351,122.95" calcMode="discrete"/><animateTransform attributeName="transform" additive="sum" type="rotate" repeatCount="indefinite" dur="4.95s" keyTimes="0;0.242;0.253;0.263;0.273;0.283;0.293;0.303;0.313;0.323;0.333;0.343;0.354;0.364;0.374;0.384;1" values="-49.877,0,0;-49.877,0,0;-35.069,0,0;-22.065,0,0;-11.261,0,0;-2.277,0,0;4.519,0,0;9.514,0,0;12.318,0,0;13.481,0,0;11.065,0,0;8.814,0,0;6.561,0,0;4.312,0,0;2.062,0,0;0,0,0;0,0,0" calcMode="discrete"/><animateTransform attributeName="transform" additive="sum" type="skewX" repeatCount="indefinite" dur="4.95s" keyTimes="0;0.293;0.303;0.313;0.323;1" values="0;0;0.003;-0.001;0;0" calcMode="discrete"/><animateTransform attributeName="transform" additive="sum" type="skewY" repeatCount="indefinite" dur="4.95s" keyTimes="0;0.242;0.253;0.263;0.273;0.283;0.293;0.303;1" values="0.246;0.246;0.236;0.035;0.213;0.016;0.007;0;0" calcMode="discrete"/><animateTransform attributeName="transform" additive="sum" type="scale" repeatCount="indefinite" dur="4.95s" keyTimes="0;0.242;0.253;0.263;0.273;0.283;0.293;0.303;0.313;0.354;0.364;1" values="1.046,0.998;1.046,0.998;1.033,0.997;1.025,0.998;1.017,0.999;1.011,0.999;1.006,0.999;1.002,0.999;0.999,0.999;0.999,0.999;1,1;1,1" calcMode="discrete"/><animateTransform attributeName="transform" additive="sum" type="translate" repeatCount="indefinite" dur="4.95s" keyTimes="0;0.242;0.253;0.263;0.273;0.283;0.293;0.303;0.313;0.323;0.333;0.343;0.354;0.364;0.374;1" values="56.899,-30.65;56.899,-30.65;56.899,-30.55;56.899,-30.65;56.899,-30.65;56.899,-30.55;56.899,-30.7;56.999,-30.7;56.899,-30.6;57.499,-31.65;57.549,-31.5;57.599,-31.6;57.449,-31.55;57.499,-31.55;57.549,-31.6;57.549,-31.6" calcMode="discrete"/></use><animate attributeName="display" repeatCount="indefinite" dur="4.95s" keyTimes="0;0.242;0.455;1" values="none;inline;none;none"/></g><path fill="none" stroke="#1A344F" stroke-width="2.5" stroke-linecap="round" stroke-linejoin="round" d="M480.651 367.551h-268.85"/><path fill="none" stroke="#19344F" stroke-width="2.5" stroke-linecap="round" stroke-linejoin="round" d="M409.601 376.551h-165.7"/></g></svg>
