<svg xmlns:xlink="http://www.w3.org/1999/xlink" xmlns="http://www.w3.org/2000/svg" baseProfile="basic" width="695" height="470" viewBox="0 0 695 470" preserveAspectRatio="xMinYMin meet"><defs><symbol id="a" overflow="visible"><path fill="#4EAFAF" fill-opacity="0" d="M697 471.8H0v471.9h697V471.8"/><path fill="#373737" d="M122.3 814q-3.2 0-3.5.3-.3.4-.3 3.6 0 3.1.3 3.5.3.3 3.5.3t3.5-.4q.3-.3.3-3.5 0-3.1-.3-3.4-.3-.3-3.5-.4"/><path fill="#343535" d="M126.2 841.6q-.1-3-.4-3.3-.3-.3-3.4-.3-3.3 0-3.6.3-.3.4-.3 3.7 0 3 .3 3.4.4.3 3.4.3 3.3 0 3.6-.4.3-.3.4-3.6"/><path fill="#393939" d="M122.5 790q-3.4 0-3.6.3-.4.4-.4 3.6 0 3.1.3 3.4.3.3 3.4.3 3.2 0 3.6-.3.3-.2.3-3.5 0-3.1-.3-3.4-.3-.4-3.3-.4m3.7 111.6q-.1-3.3-.4-3.5-.3-.4-3.4-.4-3 0-3.5.5t-.4 3.4q0 3.1.3 3.5.3.3 3.5.3t3.5-.3q.3-.3.3-3.5"/><path fill="#3B3C3C" d="M125.8 773.4q.3-.3.3-3.6v-1.5q0-1.4-.5-1.8-.3-.4-1.8-.4l-1.2-.1q-3.5 0-3.8.4-.3.3-.3 3.7 0 2.9.3 3.3.3.3 3.4.3 3.3 0 3.6-.3"/><path fill="#373737" d="M119 874.2q-.6.5-.5 3.4 0 3.2.3 3.5.3.3 3.5.3t3.5-.3q.3-.3.3-3.5v-.3q0-2.7-.4-3.1-.5-.5-3.3-.5-2.9 0-3.4.5"/><path fill="#3B3C3C" d="M122.3 921.7q-3.2 0-3.5.3-.3.4-.3 3.5v1.5q0 1.7.3 2 .3.3 1.9.4h2.8q1.4-.1 1.9-.4.4-.4.6-1.7l.1-1.8q0-2.8-.4-3.3-.5-.5-3.4-.5"/><path fill="#3C3D3D" d="M122.3 761.5h1.2q2-.1 2.3-.4.3-.3.3-2.1v-2.6q0-1.5-.3-1.8-.3-.2-1.6-.3h-3.6q-1.5 0-1.8.4-.3.2-.3 1.8v1q0 3.3.3 3.6.3.3 3.5.4"/><path fill="#3A3A3A" d="M122.5 778.3h-2.3q-1.9-.1-1.7 1.6v1.3q0 3.6.3 3.9.3.3 3.9.3 2.7 0 3.1-.3.3-.3.3-3.1 0-3-.3-3.4-.3-.3-3.3-.3"/><path fill="#383838" d="M122.3 809.4h2q1.9.1 1.9-1.8v-3.8q0-1.6-1.6-1.6h-3.8q-1.7.1-2 .4-.3.3-.3 2v1q0 3.2.3 3.5.3.3 3.5.3"/><path fill="#353636" d="M122 833.4h.8q2.7 0 3-.3.3-.4.3-3 0-3.2-.3-3.5-.3-.4-3.5-.4-3.1 0-3.5.3-.3.3-.3 3.3t.3 3.2q.3.4 3.3.4"/><path fill="#343535" d="M122.5 850.3h-2.1q-1.3 0-1.6.3-.2.2-.3 1.5v1q0 3.6.4 4 .3.2 3.8.3 2.8 0 3.1-.3.4-.4.4-3.2-.1-3-.4-3.3-.3-.4-3.3-.4"/><path fill="#353636" d="M125.8 868.8q.3-.3.3-1.6v-1q0-3.6-.3-3.9-.3-.3-3.9-.3-2.8 0-3.1.3-.3.4-.3 3.1 0 3 .3 3.4.3.3 3.4.4l2-.1q1.3 0 1.6-.3"/><path fill="#383838" d="M122 886q-2.8 0-3.2.3-.3.4-.3 3.1 0 3 .3 3.4.3.3 3.4.3h2q1.3 0 1.6-.3.3-.3.3-1.6v-1q0-3.6-.3-3.9-.3-.3-3.9-.3"/><path fill="#3A3A3A" d="M122.3 910h-2q-1.9-.2-1.9 1.7l.1 4q0 1.3 1.2 1.3l4.8.1q1.6 0 1.6-1.6v-1.8q0-3.1-.3-3.4-.3-.3-3.5-.4"/><path fill="#373737" d="M150.9 684.5q3.2 0 3.5-.3.3-.3.3-3.5t-.3-3.5q-.3-.3-3.5-.3t-3.5.3q-.3.3-.3 3.5 0 3.1.3 3.5.3.3 3.5.3"/><path fill="#3C3D3D" d="M154.7 560.8q0-3.2-.3-3.5-.4-.4-3.5-.4-3.2 0-3.5.3-.4.3-.4 3.5t.4 3.5q.3.3 3.4.3 3.2 0 3.6-.3.3-.3.3-3.5"/><path fill="#343535" d="M154.4 653.2q-.3-.3-3.8-.3-2.9 0-3.2.3-.3.3-.3 3.3 0 3.4.3 3.7.3.3 3.8.3 2.9 0 3.2-.3.3-.3.3-3.3 0-3.4-.3-3.7"/><path fill="#393939" d="M154.4 701.2q-.3-.3-3.6-.3-3 0-3.4.3-.3.3-.3 3.3 0 3.4.3 3.6.3.4 3.5.4t3.5-.3q.3-.3.3-3.4 0-3.3-.3-3.6"/><path fill="#3A3A3A" d="M152.8 580.9h-1.5q-3.6 0-3.9.3-.3.3-.3 3.8 0 2.9.3 3.2.3.3 3.3.3h2.5q1.6.1 1.5-1.5v-4.3q0-1.8-1.9-1.8"/><path fill="#353636" d="M150.9 636.5q3.1 0 3.5-.3.3-.3.3-3.5 0-2.9-.5-3.4t-3.4-.4q-3.1 0-3.5.3-.2.3-.2 3.5t.3 3.5q.3.3 3.5.3"/><path fill="#383838" d="M150.8 612.5q3.2 0 3.5-.3.4-.3.4-3.6 0-2.8-.5-3.3-.4-.4-3.2-.4-3.3 0-3.6.3-.3.3-.4 3.6 0 3.1.4 3.4.3.3 3.3.3"/><path fill="#3B3C3C" d="M154.2 725.4q-.5-.6-3.3-.6-3.2 0-3.5.4-.3.3-.4 3.5.1 3.2.4 3.5.3.3 3.4.3h.3q2.7 0 3.1-.4.5-.5.5-3.3 0-2.9-.5-3.4"/><path fill="#373737" d="M154.4 617.5q-.3-.3-2-.3-1.6-.1-3.2 0-1.5 0-1.8.2-.3.3-.3 1.7v3q0 1.4.4 1.9.4.4 1.7.7l1.8.1q2.8 0 3.3-.5.4-.4.4-3.3v-1.5q0-1.7-.3-2"/><path fill="#3B3C3C" d="M154.7 573.4q.1-2.8-.6-3.5-.7-.7-3.5-.7t-3.2.3q-.3.3-.3 3.2v2q0 1.3.4 1.6.4.5 1.7.5h3q2 .2 2.3-1.7.2-.8.2-1.8"/><path fill="#393939" d="M154.7 597q0-3.2-.3-3.5-.4-.3-3.5-.3-3.2 0-3.5.3-.3.3-.4 3.5 0 2.4.4 2.9t2.8.9h.6q2.4.2 3.2-.5.7-.6.7-3.1v-.3"/><path fill="#343535" d="M154.3 641.5q-.2-.3-4-.3-2.5-.1-2.9.4-.4.4-.4 2.8.1 3.3.4 3.6.3.3 3.6.3h2.3q1.4 0 1.4-1.4v-1.3q0-3.9-.3-4.2"/><path fill="#353636" d="M154.3 665.5q-.3-.3-3.8-.4-2.8 0-3.1.3-.3.4-.3 3.2 0 3 .3 3.4.3.3 3.4.3h2q1.3-.1 1.6-.3.3-.3.3-1.6v-1.1q0-3.5-.3-3.8"/><path fill="#383838" d="M151 689.1h-1.6q-1.7 0-2 .3-.3.3-.4 2v3q0 2 1.8 1.9h3.5q1.8-.1 2-.3.3-.3.4-2v-1q0-3.2-.3-3.5-.4-.3-3.5-.4"/><path fill="#3A3A3A" d="M154.4 713.4q-.3-.3-3.8-.3-2.9 0-3.1.3-.5.3-.5 3 .1 3.2.4 3.5.3.3 3.5.3h.8q2.3 0 2.6-.4.4-.3.4-2.6 0-3.5-.3-3.8"/><path fill="#3C3D3D" d="M151 737.1h-2q-1.4 0-1.6.3-.3.3-.3 1.6v1q0 3.6.3 3.9.3.3 3.9.3 2.7 0 3-.3.4-.3.4-3.1 0-3-.3-3.4-.4-.3-3.4-.3"/><path fill="#7B9C65" d="M175 919.7q-3.4 0-3.6.3-.3.3-.3 3.6 0 3 .3 3.4.3.3 3.4.3 3.2 0 3.5-.3.3-.3.3-3.6 0-3.1-.2-3.4-.3-.3-3.4-.3"/><path fill="#3B3B3B" d="M175.1 823.7q-3.4 0-3.8.3-.3.4-.3 3.9 0 2.8.4 3.2.3.3 3.2.3 3.4-.1 3.8-.4.3-.3.3-3.8 0-2.9-.3-3.1-.4-.4-3.3-.4"/><path fill="#484E46" d="M178.7 851.6q0-3.3-.3-3.6-.4-.3-3.7-.3-3 0-3.3.3-.3.3-.3 3.3 0 3.3.3 3.7.3.3 3.6.3 3 0 3.4-.3.3-.3.3-3.4"/><path fill="#6C845C" d="M173.2 895.7q-1.5 0-1.8.3t-.3 1.6v2.3q0 2.5.4 3 .4.4 3 .4h.2q3.1 0 3.6-.5.4-.4.4-3.6V898q0-1.7-.3-2-.3-.3-2-.3h-3.3"/><path fill="#343535" d="M177 843.1q1.8.1 1.7-1.8v-1q0-3.7-.3-4-.3-.3-4-.3-2.7-.1-3 .3-.3.3-.3 3 0 3.2.3 3.5.3.3 3.5.3h2"/><path fill="#515C4B" d="M176.9 867.1q1.9 0 1.8-1.8v-3.8q0-1.6-1.5-1.5h-3.8q-1.7 0-2 .3-.3.3-.3 1.9v1q0 3.3.3 3.6.3.3 3.5.3h2"/><path fill="#637656" d="M174.3 883.9q-2.6 0-2.9.3-.3.4-.3 3 0 3.2.3 3.5.3.3 3.5.4h2q1.2-.1 1.5-.3t.3-1.7v-.7q0-3.9-.3-4.1-.3-.3-4.1-.4"/><path fill="#749161" d="M174.7 907.9q-3 0-3.3.3-.3.3-.3 3.4 0 2.8.3 3.2.3.3 3.2.3 3.4 0 3.7-.3.4-.3.3-3 0-3.3-.3-3.6-.3-.3-3.6-.3"/><path fill="#86AC6D" d="M178.3 938.8q.3-.3.3-3.3t-.2-3.4q-.4-.3-3.4-.3h-.5q-2.8 0-3.1.4-.3.2-.3 3 0 3.3.3 3.6.2.3 3.7.3 3 0 3.2-.3"/><path fill="#535E4C" d="M178.7 875.5q0-3.1-.3-3.5-.4-.3-3.5-.3-3.2 0-3.5.3-.4.3-.4 3.5t.4 3.5q.3.3 3.5.3 3.1 0 3.5-.3.3-.3.3-3.5"/><path fill="#5A6A51" d="M178.2 875.6q0-2.7-.3-3-.4-.4-3.2-.4-2.3 0-2.7.4-.5.4-.5 2.7 0 2.8.4 3.1.3.4 3.1.4 2.4 0 2.8-.4.4-.4.4-2.8"/><path fill="#393939" d="M194.6 740q-.1 2.4.3 2.8.4.4 2.8.4 3.3 0 3.6-.3.3-.3.3-3.6V737q.2-1.4-1.3-1.4H199q-3.8 0-4.1.3-.3.3-.3 4"/><path fill="#3B3C3C" d="M201.7 715.5v-1.6q0-1.7-.3-2-.4-.3-2.2-.3h-.5q-3.5 0-3.9.3-.3.3-.3 3.9 0 2.8.4 3.1.3.3 3.1.3 3 0 3.3-.3.3-.3.3-3.4"/><path fill="#373737" d="M201.7 763.5v-1.6q0-1.7-.3-2-.3-.3-2-.3h-2.8q-1.4 0-1.8.3-.2.3-.3 1.7v3.5q.1 1.5.3 1.8.3.3 1.7.3h1.3q3.3 0 3.5-.3.4-.3.4-3.4"/><path fill="#343535" d="M194.6 788.6q0 1.9.3 2.3.3.3 2.2.3h.8q3.2 0 3.5-.3.3-.3.3-3.5v-2q.1-2-1.8-1.8h-3.8q-1.6-.1-1.5 1.5v3.5"/><path fill="#353636" d="M201.3 814.9q.3-.4.3-3.7v-2.3q0-1.4-1.3-1.3l-1.3-.1q-3.9.1-4.2.4-.2.3-.3 4.1 0 2.4.4 2.8.4.4 2.8.4 3.4 0 3.7-.3"/><path fill="#383838" d="M194.6 835.9q-.1 2.6.3 3 .3.3 3 .3 3.1 0 3.5-.4.2-.3.2-3.5 0-3.1-.2-3.5-.4-.3-3.4-.3-2.8 0-3.2.3-.3.3-.3 3.3v.8"/><path fill="#393939" d="M194.5 849.1q0 1.9 1.9 1.8h4q1.3 0 1.3-1.3v-4.5q0-1-1.1-1.4-1.1-.4-2-.5-2.7 0-3.4.6-.6.6-.6 3.4l-.1 2"/><path fill="#353636" d="M198.2 771.8q-3 0-3.4.3-.3.3-.3 3.4 0 2.8.3 3.1.4.3 3.2.3 3 0 3.4-.3.2-.3.2-3.4.1-2.8-.2-3.1-.4-.3-3.2-.3"/><path fill="#343535" d="M198.1 803q3-.1 3.3-.4.2-.3.2-3.3 0-2.8-.2-3.2-.4-.3-3.3-.3t-3.3.4q-.3.3-.3 3.2 0 2.9.3 3.2.4.3 3.3.4"/><path fill="#383838" d="M201.7 751.4q0-3-.3-3.2-.4-.4-3.3-.4t-3.3.3q-.3.3-.3 3.3 0 2.9.3 3.2.4.3 3.3.3t3.3-.3q.2-.3.2-3.3"/><path fill="#373737" d="M198 826.9q3 0 3.3-.3.3-.3.3-3.4.1-2.8-.3-3.1-.3-.3-3-.3-3.1 0-3.4.3-.4.3-.4 3.4 0 2.8.3 3 .4.4 3.1.4"/><path fill="#3C3D3D" d="M201.7 703.3q0-2.8-.3-3.1-.4-.4-3.2-.4-3 0-3.3.4-.3.3-.3 3.3-.1 2.8.3 3.1.3.3 3 .3 3.1 0 3.4-.2.3-.4.3-3.4"/><path fill="#3A3A3A" d="M201.7 727.5q0-3-.4-3.4-.3-.3-3.4-.3-2.7 0-3 .3-.4.4-.3 3.2 0 3 .3 3.4.3.2 3.4.2 2.7 0 3-.3.3-.3.3-3.1m-3.4 128q-3 0-3.4.3-.3.4-.3 3.4 0 2.8.3 3.1.4.4 3.2.4 3 0 3.4-.4.2-.3.2-3.3.1-2.8-.2-3.1-.4-.4-3.2-.4"/><path fill="#3B3C3C" d="M201.7 871.4q0-3-.3-3.3-.4-.3-3.3-.3t-3.3.3q-.3.3-.3 3.2 0 3 .3 3.3.4.3 3.3.3t3.3-.3q.2-.3.2-3.2"/><path fill="#515C4B" d="M223.7 487.6l-.1-2q0-1.4-.3-1.7-.3-.2-1.6-.2h-1q-3.6 0-3.9.3-.3.3-.3 3.8 0 2.8.3 3.1.3.4 3.1.4 3 0 3.4-.3.3-.4.3-3.4"/><path fill="#637656" d="M223.7 509.6q-.1-1.4-.4-1.6-.3-.3-1.6-.3h-1q-3.6 0-3.9.3-.3.3-.3 3.9 0 2.7.3 3 .3.4 3.1.4 3.1 0 3.4-.3.3-.3.3-3.4v-2"/><path fill="#749161" d="M223.7 535.6v-.5q0-2.8-.3-3.1-.4-.3-3.1-.3-3.3 0-3.6.3-.2.3-.3 3.6 0 3 .3 3.3.3.3 3.2.3 3.1 0 3.4-.3.3-.3.3-3.3"/><path fill="#86AC6C" d="M223.7 559.4q0-3-.3-3.4-.3-.3-3.4-.3-3 0-3.3.3-.2.3-.3 3.4.1 3.3.3 3.5.3.3 3.5.3 3 0 3.2-.4.3-.3.3-3.4"/><path fill="#97C777" d="M216.4 583.3v.5q0 2.9.3 3.1.4.3 3.2.3 3.2 0 3.5-.3.3-.3.3-3.5 0-3.1-.2-3.5-.3-.3-3.3-.3-3.1 0-3.4.3-.3.3-.4 3.4"/><path fill="#8FBA72" d="M223.7 607.5v-.8q0-2.5-.3-2.8-.4-.3-2.9-.3-3.5 0-3.8.3t-.3 3.8q0 2.8.3 3.1.3.4 3.3.4 3.1 0 3.4-.4.3-.2.3-3.3"/><path fill="#7C9E66" d="M220 635.1q3.1 0 3.4-.3.3-.3.3-3.4 0-3.2-.3-3.5-.3-.3-3.5-.3-2.8 0-3.1.3-.3.3-.3 3.3 0 3.3.2 3.6.3.3 3.4.3"/><path fill="#6C845C" d="M223.7 655.5v-1.1q0-2.1-.4-2.4-.3-.4-2.4-.4h-.5q-3.3 0-3.6.3-.3.3-.3 3.7 0 2.9.3 3.2.3.4 3.2.4 3 0 3.4-.4.3-.3.3-3.3"/><path fill="#5A6A51" d="M223.7 679.5v-2q-.1-1.3-.4-1.6-.3-.2-1.6-.3h-1q-3.6 0-3.9.3-.3.3-.4 3.8 0 2.8.4 3.1.3.4 3.1.4 3.1 0 3.4-.3.3-.3.3-3.4"/><path fill="#484E46" d="M223.6 703.5v-2q0-1.3-.3-1.6-.3-.3-1.6-.3h-1q-3.6 0-3.9.3-.3.3-.3 3.9 0 2.7.3 3 .3.4 3.1.4 3 0 3.4-.3.3-.4.3-3.4"/><path fill="#3B3B3B" d="M216.5 727.4v2q-.1 1.9 1.7 1.8h3.9q1.6 0 1.5-1.5V726q0-1.9-.3-2.2-.3-.3-2.2-.4h-.8q-3.2 0-3.5.4-.3.3-.3 3.5"/><path fill="#87AD6D" d="M216.8 622.8q.3.2 3.4.2 2.9 0 3.2-.3.3-.3.3-3.3t-.3-3.3q-.3-.3-3.4-.3-3 0-3.2.3-.3.3-.3 3.3t.3 3.4"/><path fill="#759261" d="M216.8 646.6q.3.3 3.5.3 2.7 0 3-.3.4-.3.3-3 0-3.2-.2-3.5-.4-.3-3.5-.3-2.8 0-3.1.3-.3.3-.3 3 0 3.3.3 3.6"/><path fill="#7D9F66" d="M216.8 550.8q.3.3 3.1.3 3.2 0 3.5-.4.3-.3.3-3.3 0-2.9-.3-3.2-.3-.3-3.2-.3-3.1 0-3.4.3-.3.2-.3 3.3 0 3 .3 3.3"/><path fill="#515C4B" d="M216.8 694.6q.3.3 3.2.3 3 0 3.3-.3.3-.3.3-3.2 0-3-.3-3.3-.3-.3-3.4-.3-2.8 0-3.1.3-.3.3-.3 3.1 0 3.1.3 3.4"/><path fill="#343535" d="M220 719q3-.1 3.3-.4.3-.3.3-3.3 0-2.8-.3-3.2-.3-.3-3.3-.3-2.8 0-3.2.3-.3.3-.3 3.3 0 2.9.3 3.2.3.3 3.3.3"/><path fill="#6C845C" d="M219.9 527q3.1 0 3.4-.3.3-.3.3-3.3 0-2.9-.2-3.2-.4-.3-3.3-.3-3 0-3.3.3-.3.3-.4 3.4 0 2.8.4 3.1.3.4 3.1.4"/><path fill="#5A6A51" d="M219.8 503q3.1 0 3.4-.2.5-.4.5-3.4 0-2.8-.4-3.2-.3-.3-3.2-.3-3 0-3.3.3-.3.4-.3 3.4 0 2.8.3 3.1.3.4 3 .4"/><path fill="#90BB73" d="M220.1 567.9q-3 0-3.3.2-.4.3-.4 3.1 0 3.3.3 3.5.3.3 3.5.3 2.9 0 3.2-.3.3-.3.3-3.2 0-3-.3-3.4-.3-.3-3.3-.3"/><path fill="#99C978" d="M219.8 599q3.4 0 3.6-.3.2-.3.3-3.6v-.8q0-1.8-.3-2.2-.3-.3-2.2-.3h-.8q-3.4 0-3.7.3-.2.2-.2 3.5 0 2.8.2 3.1.3.3 3.2.3"/><path fill="#637656" d="M223.7 667.5q-.1-3.1-.4-3.4-.3-.3-3.5-.3-2.7 0-3 .3-.4.3-.4 3.2 0 3 .4 3.4.3.2 3.3.2 2.8 0 3.2-.3.3-.3.3-3"/><path fill="#484E46" d="M220.1 471.9q-3 0-3.3.3-.3.4-.3 3.2 0 3 .3 3.3.3.3 3.2.3 3 0 3.3-.3.3-.3.3-3.2 0-3-.3-3.3-.4-.3-3.2-.3"/><path fill="#3B3C3C" d="M235.9 645.5q0 2.8.3 3.1.4.3 3.1.3 3 0 3.4-.3.3-.3.3-3.4v-2q0-1.3-.3-1.6-.3-.3-1.6-.3h-1q-3.6 0-3.9.3-.3.3-.3 3.9"/><path fill="#393939" d="M243 669.1v-1.5q0-1.7-.3-2-.3-.3-1.9-.3H238q-1.5 0-1.8.3-.3.2-.3 1.6v3.6q0 1.6.3 1.8.3.2 1.9.3h1q3.3 0 3.6-.3.3-.4.3-3.5"/><path fill="#373737" d="M235.8 695q.1 1.3.4 1.6.3.2 1.6.3h1.3q3.3 0 3.6-.4.3-.3.3-3.6v-2.6q0-1-1-1l-2.9-.2q-1.8-.1-2.8.5-.7.5-.6 1.8l.2 2.3v1.3"/><path fill="#343535" d="M243 717.1v-1.5q0-1.8-.3-2-.3-.3-2.1-.3h-.5q-3.6 0-3.9.3-.3.3-.3 3.9 0 2.8.3 3.1.4.3 3.2.3 3 0 3.3-.3.3-.4.3-3.4m-.3 8.1q-.3-.2-1.9-.3h-2.9q-1.4 0-1.7.3-.3.3-.3 1.6v3.6q0 1.5.3 1.8.3.3 1.9.3h1q3.3 0 3.6-.3.3-.3.3-3.5v-1.5q0-1.7-.3-2"/><path fill="#373737" d="M243 750.6q.1-1.7-1.6-1.7h-1.3q-3.6.1-3.9.4-.3.3-.3 3.9 0 2.7.2 3 .4.4 3.2.4 3 0 3.3-.3.4-.3.4-3.3v-2.3"/><path fill="#393939" d="M242.7 773.3q-.3-.3-3-.3-3.2 0-3.5.3-.3.3-.3 3.5 0 3.1.3 3.5.3.3 3.3.3 2.8 0 3.1-.3.4-.3.4-3.3v-.7q0-2.7-.3-3"/><path fill="#3B3C3C" d="M243 799.7q0-2-.3-2.4-.4-.3-2.5-.3-3.6 0-4 .3-.3.3-.3 3.8 0 2.8.3 3.1.3.4 3 .4 3.2 0 3.5-.3.3-.3.3-3.6v-1"/><path fill="#353636" d="M243 740.8q0-2.9-.3-3.2-.3-.4-3.3-.4-2.9 0-3.2.4-.3.3-.3 3.3 0 2.8.3 3.2.3.3 3.3.3 2.9 0 3.2-.4.3-.3.3-3.3"/><path fill="#383838" d="M239.7 677.5q-3.2 0-3.5.3-.3.4-.3 3.6 0 2.6.3 2.9.4.3 3 .3 3.2 0 3.5-.3.3-.3.3-3.5 0-2.6-.3-3-.3-.3-3-.3"/><path fill="#3A3A3A" d="M239.3 792.4q3 0 3.4-.3.3-.4.3-3.4 0-2.8-.3-3.1-.3-.4-3.1-.4-3 0-3.4.3-.3.4-.3 3.4 0 2.8.3 3.1.3.4 3.1.4"/><path fill="#353636" d="M243 705.3q0-3.1-.3-3.5-.3-.3-3.5-.3-2.7 0-3 .3-.3.4-.3 3 0 3.2.3 3.5.3.3 3.5.3 2.7 0 3-.3.3-.3.3-3"/><path fill="#3C3D3D" d="M239.3 816.4q3-.1 3.4-.4.3-.3.3-3.4 0-2.8-.3-3-.3-.4-3.1-.4-3 0-3.4.3-.3.3-.3 3.4 0 2.8.3 3.1.3.3 3.1.3"/><path fill="#383838" d="M243 764.9q0-3-.3-3.3-.3-.4-3.2-.4-3 0-3.3.3-.3.4-.3 3.3t.3 3.2q.3.4 3.2.4 3 0 3.2-.3.4-.4.4-3.2"/><path fill="#3C3D3D" d="M239.3 636.7q3 0 3.4-.3.3-.3.3-3.4 0-2.8-.3-3.1-.3-.4-3.1-.3-3 0-3.4.3-.3.3-.3 3.3 0 2.8.3 3.1.3.4 3.1.4"/><path fill="#3A3A3A" d="M243 657.4q0-3.2-.3-3.5-.3-.3-3.5-.4-2.7 0-3 .3-.3.4-.3 3 0 3.2.3 3.6.3.3 3.5.3 2.6 0 3-.4.3-.2.3-3"/><path fill="#739060" d="M255.3 895.9q-.5.5-.5 3.5 0 2.8.5 3.3.5.4 3.3.4 3.2 0 3.5-.3.3-.3.3-3.4 0-3.2-.2-3.5-.3-.3-3.5-.4-3 0-3.4.4"/><path fill="#85AA6C" d="M255.3 919.9q-.4.3-.5 2.2v1q0 3.3.5 3.7.3.3 3.6.3 2.9 0 3.2-.3.3-.3.3-3.3 0-3.4-.3-3.6-.3-.3-3.6-.3h-1q-1.9 0-2.3.3"/><path fill="#505B4B" d="M262.4 851.3q0-3.1-.3-3.5-.3-.3-3.5-.3-2.9 0-3.4.4-.5.5-.5 3.3 0 3 .5 3.4.5.5 3.4.5 3.2 0 3.5-.3.3-.3.3-3.5"/><path fill="#627555" d="M262.4 875.5q0-3.4-.3-3.6-.3-.4-3.6-.4-2.8 0-3.3.5-.4.5-.4 3.3 0 2.9.5 3.4.4.4 3.3.4 3.1 0 3.4-.3.4-.3.4-3.3"/><path fill="#343535" d="M255.6 823.9q-.3.3-.3 3.9 0 2.7.3 3 .3.4 3.1.4 3 0 3.4-.4.3-.3.3-3.4v-2q0-1.3-.3-1.6-.3-.2-1.6-.3h-1q-3.6 0-3.9.3"/><path fill="#5A6A51" d="M258.5 866.9q3.3 0 3.6-.3.3-.4.3-3.7v-1.5q.2-1.7-1.6-1.6H257q-1.4 0-1.8.4-.3.3-.4 1.8v1.3q0 3 .3 3.3.3.3 3.4.3"/><path fill="#7C9E66" d="M255.4 908q-.6.4-.6 3.4 0 2.9.4 3.3.3.2 3.3.2h.4q2.9 0 3.2-.3.3-.3.3-3.1 0-3.2-.3-3.5-.3-.3-3.5-.3-2.9 0-3.2.3"/><path fill="#8FBA72" d="M255.4 931.9q-.6.4-.5 3.4 0 3 .3 3.4.3.2 3.4.2 3.3 0 3.5-.3.3-.3.3-3.4 0-3-.3-3.3-.3-.3-3.5-.3-2.9 0-3.2.3"/><path fill="#6B835C" d="M262 884q-.2-.2-4.5-.3-1.9 0-2.3.4-.3.4-.4 2.2v.8q0 3.2.3 3.5.4.3 3.5.3h1q2.1 0 2.5-.3.3-.4.3-2.5 0-3.8-.3-4.1"/><path fill="#484E46" d="M258.9 835.8h-.8q-2.5 0-3 .4-.4.4-.4 3 0 2.8.5 3.3.5.4 3.4.4 3.1 0 3.4-.3.4-.3.4-3.2t-.3-3.3q-.4-.3-3.2-.3"/><path fill="#3B3B3B" d="M255.6 812.1q-.3.3-.3 3.1 0 3 .3 3.4.3.3 3.4.3 2.8 0 3.1-.3.3-.4.3-3.2 0-3-.3-3.3-.4-.3-3.5-.3-2.7 0-3 .3"/><path fill="#343535" d="M297 497.2q-3.3 0-3.6.3-.3.3-.3 3.5 0 3.1.2 3.5.4.3 3.5.3 3.2 0 3.5-.3.4-.3.4-3.4 0-3.3-.3-3.5-.3-.4-3.5-.4"/><path fill="#7C9E64" d="M300.4 660.2q.3-.3.3-3.3-.1-3.4-.3-3.7-.3-.3-3.8-.3h-.3q-2.6 0-3 .4-.2.3-.2 3 0 3.6.3 3.9.3.3 3.8.3 2.9 0 3.2-.3"/><path fill="#789863" d="M300.4 684.2q.3-.3.3-3.6 0-3-.3-3.4-.3-.3-3.3-.3-3.5 0-3.7.3-.3.3-.3 3.5 0 3.1.2 3.4.4.4 3.4.4 3.4 0 3.7-.3"/><path fill="#505B4B" d="M300.3 528.4q.4-.5.4-3.4 0-3.2-.3-3.5-.4-.3-3.5-.3-3.2 0-3.5.3-.3.3-.3 3.4 0 3 .4 3.5.5.5 3.4.5t3.4-.5"/><path fill="#627555" d="M300.7 548.9q0-3.1-.3-3.4-.4-.3-3.4-.3-3.4 0-3.6.3-.4.3-.4 3.6 0 2.8.5 3.3.5.4 3.3.4 3 0 3.4-.5.5-.5.5-3.4"/><path fill="#97C677" d="M300.4 624.3q.3-.3.3-3.4-.1-3.2-.3-3.5t-3.5-.3q-3.3.1-3.5.3t-.3 3.5q0 3 .3 3.3.4.5 3.4.5 3.2 0 3.5-.4"/><path fill="#739060" d="M300.3 576.3q.4-.4.3-3.5 0-3-.3-3.3-.3-.3-3.4-.3-3.2 0-3.5.3-.3.3-.4 3.7v.7q.1 2.1.4 2.5.4.4 2.5.4h.7q3.3 0 3.7-.5"/><path fill="#96C576" d="M300.4 636.2q.2-.3.3-3.4 0-3.1-.3-3.4-.4-.4-3.6-.4-3 0-3.4.4-.3.3-.3 3.3 0 3.2.3 3.5.3.3 3.4.3 3.3 0 3.5-.3"/><path fill="#718D5F" d="M296.8 700.9q-3.2 0-3.5.3-.2.3-.2 3.3 0 3.4.2 3.6.4.3 3.6.4 2.8 0 3.3-.5t.5-3.3q0-3-.5-3.5-.4-.4-3.4-.4"/><path fill="#86AB6C" d="M300.6 596.8q0-3.1-.3-3.4-.3-.3-3.3-.3-3.4.1-3.6.3-.3.3-.3 3.6 0 2.9.3 3.3.4.4 3.4.5 3.1 0 3.5-.5.3-.4.3-3.5"/><path fill="#3B3B3B" d="M297.4 485.4h-2.6q-1.9-.1-1.8 1.9v1q.1 3.6.4 4 .3.2 4 .3 2.6 0 3-.3.3-.4.3-3 0-3.2-.3-3.5-.3-.3-3-.3"/><path fill="#484E46" d="M299.6 516.5q1 0 1-.9l.3-3q0-1.7-.6-2.7-.5-.7-1.8-.6l-2.3.1h-1.3q-1.3.1-1.6.4-.2.2-.3 1.6v1.3q0 3.2.4 3.6.3.3 3.6.3h2.6"/><path fill="#5A6A51" d="M297.5 880.5q-3.9.1-4.2.4-.2.3-.2 4.1-.1 2.4.3 2.8.5.4 2.9.4 3.2 0 3.5-.4.4-.3.4-3.6v-2.3q0-1.4-1.4-1.3h-1.3m1.3-340q1.3-.1 1.5-.4.4-.2.4-1.5v-1q0-3.6-.3-4-.3-.2-3.9-.3-2.8 0-3.1.3-.3.3-.3 3.1 0 3.2.2 3.5.3.3 3.4.3h2"/><path fill="#484E46" d="M298.6 912.1q1.6.1 1.6-1.5v-3q0-2.3-.4-2.7-.3-.4-2.7-.4h-.3q-3.1 0-3.4.4-.3.3-.3 3.5v2q-.2 1.9 1.7 1.8h3.9"/><path fill="#3B3B3B" d="M300.2 932.4v-2.1q.1-2-1.8-1.8h-3.8q-1.6-.1-1.6 1.5v3.9q.1 1.7.3 2 .3.2 2 .3h1q3.2-.1 3.5-.4.3-.3.4-3.4"/><path fill="#6C835C" d="M300.4 564.3q.3-.3.3-3.1 0-3.2-.4-3.5-.3-.3-3.6-.3-3 0-3.3.3-.3.3-.3 3.2 0 3 .3 3.4.3.3 3.3.3h.5q2.8 0 3.2-.3"/><path fill="#7C9E66" d="M298.1 588.5q2 0 2.2-.3.3-.3.3-2.2v-.5q0-3.6-.3-3.9-.3-.3-3.8-.3-2.8 0-3.1.4-.3.2-.3 3v2.1q-.2 1.9 1.7 1.8h3.3"/><path fill="#8FBA73" d="M300.4 612.3q.2-.3.3-3.5 0-2.9-.4-3.2-.3-.3-3.5-.3-3.1 0-3.4.3-.3.2-.3 3.3 0 3.1.3 3.3.3.3 3.4.3 3.3 0 3.6-.2m0 35.8q.3-.3.3-3.4 0-3-.3-3.4-.3-.2-3.5-.2t-3.5.3q-.3.3-.3 3.5 0 2.9.3 3.2.3.2 3.3.3 3.4-.1 3.7-.3"/><path fill="#688455" d="M300.4 672q.3-.3.3-3.1 0-3.2-.3-3.5-.3-.3-3.5-.3t-3.5.3q-.3.3-.3 3.3t.3 3.3q.3.3 3.4.3h.5q2.8 0 3-.3"/><path fill="#749161" d="M300.3 696q.3-.3.3-3.8v-.8q0-1.7-.2-2-.3-.2-2-.3h-2q-2.7 0-3 .3-.3.4-.3 3.2 0 3 .2 3.4.4.3 3.4.3 3.4 0 3.6-.3"/><path fill="#728E60" d="M296.7 720.3h.5q2.8 0 3.1-.3.3-.4.3-3.1 0-3.2-.3-3.5-.3-.3-3.5-.3-3.1 0-3.4.2-.3.3-.3 3.3t.2 3.3q.4.3 3.4.3"/><path fill="#749161" d="M296.6 724.9q-3 0-3.3.3-.3.3-.3 3.4 0 3.2.2 3.5.4.4 3.2.4 3.2 0 3.5-.3.3-.4.3-3.5 0-3.2-.3-3.5-.3-.3-3.3-.3"/><path fill="#799B63" d="M296.6 748.9H295q-1.4 0-1.6.3-.3.2-.3 1.5v4.1q0 1.7 1.6 1.6h1.6q3.4 0 3.7-.3.3-.4.3-3.8 0-2.9-.3-3.2-.3-.2-3.3-.3"/><path fill="#8FBA73" d="M296.8 772.9q-3.3 0-3.6.2-.2.3-.2 3.5 0 3.1.3 3.4.2.3 3.3.3 3 0 3.4-.3.2-.3.3-3.4-.1-3.2-.3-3.5-.3-.3-3.2-.3m-3.8 39.6q0 3.2.3 3.5.3.3 3.5.3 2.9 0 3.2-.4.3-.3.3-3.5 0-3-.3-3.3-.3-.4-3.4-.4t-3.4.4q-.2.2-.2 3.3"/><path fill="#7C9E66" d="M293 836.3v.5q0 2.8.3 3 .3.3 3.1.3 3.2 0 3.5-.3.3-.3.3-3.5 0-3-.3-3.4-.3-.3-3.2-.3-3 0-3.4.3-.3.3-.3 3.4"/><path fill="#6C835C" d="M296.8 856.5q-3.1 0-3.5.4-.3.3-.3 3.5 0 3.1.3 3.4.3.4 3.3.4t3.3-.3q.3-.4.3-3.4v-.5q0-2.8-.3-3.1-.3-.3-3.1-.3"/><path fill="#99C978" d="M293 788.5q0 3.2.2 3.5.3.2 3.4.2t3.4-.3q.3-.2.3-3.3 0-3-.4-3.4-.2-.3-3.4-.3-3 0-3.3.4-.2.2-.2 3.2"/><path fill="#789763" d="M296.4 737q-2.8 0-3.1.4-.3.3-.3 3.1 0 3.1.3 3.4.3.3 3.3.3t3.3-.3q.4-.3.3-3.1 0-3.1-.3-3.4-.3-.3-3.5-.3"/><path fill="#99C978" d="M296.6 796.8q-3 0-3.4.3-.2.2-.2 3.3 0 3.1.3 3.3.3.3 3.4.3 3 0 3.3-.3.2-.2.2-3.2v-.3q0-2.9-.2-3.2t-3.4-.2"/><path fill="#759261" d="M296.4 844.8q-2.8 0-3.1.3-.3.3-.3 3.1 0 3.1.3 3.5.3.3 3.5.3 2.7 0 3.1-.3.3-.3.3-3.2 0-3.1-.3-3.4-.3-.3-3.5-.3"/><path fill="#637656" d="M296.6 868.8q-3 0-3.3.3-.3.3-.3 3.4 0 2.8.3 3.1.4.3 3.1.3 3.2 0 3.5-.2.3-.4.3-3.3 0-3-.3-3.3-.4-.3-3.3-.3"/><path fill="#86AC6C" d="M296.6 761q-3 0-3.3.3-.3.3-.3 3.3t.3 3.3q.3.3 3.4.3 3 0 3.3-.3.2-.3.2-3.3t-.3-3.3q-.3-.3-3.4-.3"/><path fill="#515C4B" d="M296.6 892.8q-2.9 0-3.3.3-.2.3-.2 3.2 0 3 .2 3.3.4.3 3.3.3 3 0 3.3-.3.3-.3.3-3.3 0-2.9-.3-3.2-.4-.3-3.3-.3"/><path fill="#343535" d="M299.9 923.5q.3-.3.3-3 0-3.1-.3-3.4-.3-.4-3.4-.4-2.8 0-3.1.4-.3.3-.3 3.1 0 3 .2 3.3.4.4 3.4.4 2.8 0 3.1-.3"/><path fill="#87AD6D" d="M296.7 820.8q-3.1 0-3.4.3-.3.3-.3 3.3t.3 3.3q.3.3 3.3.3t3.3-.3q.3-.3.4-3.4-.1-3-.4-3.2-.2-.3-3.2-.3"/><path fill="#3B3B3B" d="M338.1 728h-1q-3.6 0-3.9.3-.3.3-.3 3.9 0 2.8.3 3 .3.4 3.1.4 3 0 3.4-.3.3-.3.3-3.3v-2.1q0-1.3-.3-1.6-.3-.2-1.6-.3"/><path fill="#484E46" d="M338.4 484q1.6 0 1.6-1.6V479q0-1.9-.3-2.3-.4-.3-2.3-.3h-.7q-3.2 0-3.5.3-.3.3-.3 3.5v2.1q-.2 1.9 1.7 1.8h3.8"/><path fill="#596951" d="M338.2 500.3h-3.8q-1.6 0-1.6 1.6v3.5q0 1.9.3 2.3.4.3 2.3.3h.8q3.1 0 3.5-.3.3-.4.3-3.5V502q.1-1.9-1.8-1.8"/><path fill="#6B835C" d="M332.9 528v.5q0 2.8.3 3.1.3.3 3 .3 3.3 0 3.6-.3.2-.3.3-3.7 0-3-.3-3.3-.4-.3-3.2-.3-3.1 0-3.4.3-.3.3-.3 3.3"/><path fill="#7C9E66" d="M340 552.3v-.5q0-2.8-.2-3.1-.4-.4-3.2-.4-3.2 0-3.5.3-.3.3-.3 3.7 0 3 .3 3.3.3.2 3.2.2 3.1 0 3.4-.3.3-.3.3-3.3"/><path fill="#8FBA72" d="M340.1 576.3q0-3.4-.3-3.7-.3-.3-3.4-.3-3 0-3.3.3-.3.3-.3 3.4 0 3.2.3 3.5.3.3 3.5.3 2.8 0 3.2-.3.2-.3.3-3.3"/><path fill="#8FB972" d="M336.5 608.1q-3.1 0-3.4.3-.3.3-.3 3.4 0 3.3.3 3.6.3.3 3.4.3 3 0 3.3-.4.3-.2.3-3.4 0-3.1-.3-3.5-.3-.3-3.3-.3"/><path fill="#7C9E65" d="M336.2 639.6h1.6q1.6 0 2-.3.2-.2.2-1.9v-3q0-1.7-.2-2-.4-.3-2-.3h-.8q-3.5 0-3.8.3-.3.3-.3 3.8-.1 2.8.2 3.1.3.3 3.1.3"/><path fill="#6B835C" d="M340 660v-2.1q0-1.3-.3-1.5-.3-.3-1.6-.4h-1.3q-3.4 0-3.7.4-.3.3-.3 3.7 0 2.9.3 3.2.4.3 3.3.4 3 0 3.4-.4.2-.3.2-3.3"/><path fill="#596951" d="M340 684v-2q0-1.4-.3-1.6t-1.6-.4h-1q-3.6 0-3.9.3-.3.4-.3 3.9 0 2.7.2 3.1.4.3 3.1.3 3.2 0 3.5-.3.3-.3.3-3.3"/><path fill="#484E46" d="M338 704h-1q-3.5 0-3.8.3-.3.3-.3 3.9 0 2.8.3 3.1.3.4 3.1.3 3 0 3.4-.3.3-.3.3-3.4v-2q0-1.3-.3-1.6-.3-.2-1.6-.3"/><path fill="#87AD6D" d="M336.4 620.3q-3 0-3.3.3-.3.2-.3 3.4 0 2.9.3 3.2.3.3 3.3.3t3.4-.3q.3-.3.2-3.2 0-3.1-.2-3.5-.3-.3-3.4-.3"/><path fill="#637656" d="M337.2 512.5h-.8q-3 0-3.2.4-.4.3-.4 3.4 0 2.8.3 3.1.4.3 3.1.3 3.2 0 3.5-.3.3-.3.3-3.5v-.5q0-2.1-.3-2.5-.4-.3-2.5-.3"/><path fill="#87AD6D" d="M339.8 567.4q.2-.3.2-3.4 0-2.9-.2-3.2-.4-.3-3.3-.3-3 0-3.4.3-.3.3-.3 3.4 0 2.9.3 3.2.3.3 3.3.3 3.1 0 3.4-.3"/><path fill="#759261" d="M339.7 651.1q.3-.3.3-3 0-3.3-.3-3.6-.3-.3-3.4-.3-2.9 0-3.1.3-.3.3-.3 3.1 0 3.2.3 3.5.3.3 3.4.3 2.8 0 3.1-.3m-3.1-114.6q-3.1 0-3.5.3-.2.4-.2 3.5-.1 2.8.3 3.1.3.4 3 .3 3.2 0 3.5-.3.3-.3.4-3.4 0-2.8-.4-3.1-.3-.4-3.1-.4"/><path fill="#99C978" d="M339.8 591.4q.3-.3.3-3.4v-.2q0-2.8-.3-3.1-.3-.3-3.1-.3-3.3 0-3.6.3-.3.3-.3 3.5 0 3 .3 3.2t3.3.3q3.2 0 3.4-.3"/><path fill="#637656" d="M340 672q0-3.1-.3-3.4-.3-.3-3.3-.3h-.3q-2.6 0-3 .3-.3.3-.3 3 0 3.2.3 3.5.3.3 3.5.3 2.7 0 3.1-.4.3-.3.3-3"/><path fill="#99C978" d="M336.4 596.3q-3 0-3.3.3-.3.2-.3 3.2 0 3.1.4 3.5.3.2 3.5.3 2.8 0 3.1-.4.3-.3.3-3.1 0-3.3-.3-3.5-.2-.3-3.4-.3"/><path fill="#515C4B" d="M336.4 692.3h-.3q-2.5-.1-2.9.3-.3.3-.3 3 0 3.1.3 3.4.3.3 3.5.4 2.7 0 3-.4.3-.3.3-3.1 0-3-.3-3.3-.3-.3-3.3-.3"/><path fill="#343535" d="M336.6 716.2q-3.1 0-3.4.3-.3.4-.3 3.4 0 2.8.2 3.2.4.3 3.1.3 3.2 0 3.5-.3.3-.4.3-3.4 0-2.8-.3-3.1-.3-.4-3.1-.4"/><path fill="#515C4B" d="M340 492.1q0-2.9-.3-3.2-.4-.3-3.3-.3-2.8 0-3.2.3-.3.3-.3 3.3t.3 3.2q.3.3 3.2.3 3 0 3.3-.3.3-.3.3-3.3"/><path fill="#393939" d="M348.4 495.7h3.8q1.6 0 1.6-1.6v-3.8q0-1.7-.4-2-.2-.3-1.9-.3h-1q-3.2 0-3.5.3-.4.3-.4 3.5v2q-.1 2 1.8 1.9"/><path fill="#3B3C3C" d="M353.8 515.9v-1.5q0-1.7-.3-2-.4-.3-2-.4h-3q-2-.1-1.9 1.8v3.5q0 1.7.3 2 .4.3 2 .3h1q3.2 0 3.5-.3.4-.3.4-3.4"/><path fill="#3C3D3D" d="M353.8 527.8q0-2.9-.3-3.2-.4-.3-3.4-.3-2.8 0-3.2.3-.2.3-.2 3.3 0 2.9.3 3.2.3.3 3.3.3 2.8 0 3.1-.3.4-.4.4-3.4"/><path fill="#383838" d="M350.4 476.3q-3.1 0-3.4.3-.3.3-.3 3.4 0 2.8.2 3.1.4.3 3.2.3 3 0 3.3-.3.4-.3.4-3.4 0-2.7-.3-3.1-.4-.3-3.1-.3"/><path fill="#3A3A3A" d="M353.8 503.9q0-3-.3-3.3-.4-.3-3.5-.4-2.7 0-3 .4-.4.3-.4 3.1 0 3 .4 3.4.3.3 3.4.3 2.8 0 3-.3.4-.4.4-3.2"/><path fill="#515C4B" d="M369.6 512.2q-3.5 0-3.8.3-.3.3-.4 3.9 0 2.8.4 3.1.3.3 3.1.3 3 0 3.4-.3.3-.4.3-3.4v-2q0-1.4-.4-1.6-.2-.3-1.6-.3h-1"/><path fill="#343535" d="M372.6 538q.1-1.9-1.8-1.8H367q-1.6 0-1.6 1.5v3q0 2.3.5 2.7.3.4 2.6.4h.3q3.2 0 3.5-.3.3-.2.3-3V538"/><path fill="#637656" d="M372.3 488.5q-.3-.3-3.2-.3-3 0-3.4.3-.2.4-.2 3.5v1.4q0 1.8.3 2.1.3.3 2.1.3h.6q3.5 0 3.8-.3.3-.3.3-3.9 0-2.8-.3-3.1"/><path fill="#6C845C" d="M372.6 480.2q0-3.1-.3-3.4-.3-.3-3.3-.3-2.9 0-3.3.2-.2.4-.2 3.3 0 3 .3 3.3.3.3 3.4.3 2.8 0 3.1-.3.3-.3.3-3.1"/><path fill="#5A6A51" d="M372.3 500.8q-.4-.4-3.2-.4-3 0-3.3.4-.4.3-.4 3.3v.3q0 2.6.4 2.9.3.3 3 .3 3.2 0 3.5-.3.3-.4.3-3.5 0-2.7-.4-3"/><path fill="#484E46" d="M372.6 528q0-3-.3-3.3-.3-.3-3.3-.3-2.9 0-3.2.3-.3.4-.3 3.3t.3 3.2q.3.3 3.3.3t3.1-.2q.4-.4.4-3.3"/><path fill="#3B3B3B" d="M369 555.5q3 0 3.3-.3.3-.4.3-3.4 0-2.8-.3-3.1-.4-.3-3.2-.3-3 0-3.3.3-.3.3-.3 3.4 0 2.8.3 3.1.3.3 3.1.3"/><path fill="#333" d="M394.4 472.4q-.3.2-.3 4-.1 2.6.3 2.9.4.3 3 .3 3.2 0 3.5-.2.3-.3.3-3v-2.6q.2-2-1.8-1.8h-1q-3.7 0-4 .3"/><path fill="#313131" d="M401.2 500v-2.1q0-1.3-.3-1.6-.3-.2-1.7-.3h-1q-3.5 0-3.8.3-.3.3-.4 3.9 0 2.8.4 3.1.3.3 3.1.3 3 0 3.3-.3.4-.3.4-3.4m0 10.2q0-1.7-.3-2-.3-.3-2-.3h-1q-3.2 0-3.5.2-.3.4-.3 3.5v1.6q0 1.7.2 2 .3.2 2 .3h3q2 .1 1.9-1.8v-3.5"/><path fill="#2F3030" d="M401.2 535.6v-1.5q0-1.8-.3-2-.3-.3-2-.3h-2.7q-1.6 0-1.9.3-.2.2-.3 1.6v3.6q.1 1.5.3 1.8.3.2 1.7.3h1.3q3.2 0 3.5-.3.3-.4.4-3.5"/><path fill="#2E2F2F" d="M401.2 558.3q0-1.9-.3-2.3-.4-.3-2.3-.3h-.7q-3.2 0-3.5.3-.3.3-.3 3.5v2q-.2 2 1.7 1.8h3.8q1.6.1 1.6-1.5v-3.5"/><path fill="#2F3030" d="M396 575.1h1.3q3.3 0 3.6-.3.3-.3.3-3.7v-2.5q0-1.1-1-1.1l-3-.2q-1.6-.1-2.6.6-.7.4-.7 1.8l.2 2.2v1.3q0 1.3.3 1.6.3.2 1.6.3"/><path fill="#303030" d="M401.2 595.4v-1.6q0-1.7-.3-2-.4-.3-2.2-.3h-.5q-3.5 0-3.9.3-.2.3-.3 3.9 0 2.8.4 3.1.3.3 3.1.3 3 0 3.4-.3.3-.3.3-3.4m-7.1 23.8v1.6q0 1.7.2 2 .4.3 2 .3h2.8q1.4 0 1.8-.3.3-.3.3-1.7v-3.5q0-1.5-.3-1.8-.2-.3-1.7-.3H398q-3.3 0-3.6.3-.3.3-.3 3.4"/><path fill="#313232" d="M397.1 634.9h.3q3.2-.1 3.5-.4.3-.3.3-3.5v-2q.2-1.9-1.8-1.8h-3.8q-1.6 0-1.6 1.5v3.1q0 2.3.5 2.7.3.3 2.6.4"/><path fill="#353636" d="M401.2 654.6q0-2.8-.3-3.1-.4-.3-3.2-.3-3 0-3.3.3-.4.3-.4 3.4v2q.1 1.4.4 1.6.2.3 1.5.3h1q3.6 0 4-.3.2-.4.3-3.9"/><path fill="#373838" d="M396.3 682.8h1q3.2 0 3.5-.3.4-.3.4-3.5v-1.5q0-1.7-.3-2-.3-.3-2-.3h-2.7q-1.5 0-1.8.2-.3.3-.3 1.7v3.6q0 1.5.3 1.8.3.2 1.9.3"/><path fill="#3B3C3C" d="M401.2 703v-2q.1-2-1.8-1.8h-3.8q-1.6-.1-1.6 1.5v3.8q.1 1.7.3 2 .3.3 2 .3h1q3.2 0 3.5-.3.3-.3.4-3.5"/><path fill="#303030" d="M397.7 603.7q-3 0-3.4.3-.3.4-.3 3.4 0 2.8.4 3.2.3.3 3.1.3 3 0 3.4-.4.3-.3.3-3.4 0-2.8-.3-3.1-.4-.3-3.2-.3"/><path fill="#2E2F2F" d="M397.6 551.1q3 0 3.2-.3.4-.3.4-3.2t-.3-3.3q-.4-.3-3.3-.3t-3.2.3q-.3.4-.3 3.3t.3 3.2q.3.3 3.3.3"/><path fill="#333434" d="M401.2 643.1q0-3-.3-3.3-.4-.3-3.4-.4-2.8 0-3.1.3-.4.4-.4 3.1 0 3.1.4 3.4.3.3 3.3.3 2.8 0 3.1-.2.4-.4.4-3.1"/><path fill="#303030" d="M401.2 583.4q0-3-.3-3.4-.4-.3-3.4-.3-2.8 0-3.1.3-.4.4-.4 3.1 0 3.1.4 3.4.3.3 3.3.3 2.8 0 3.1-.3.4-.3.4-3.1"/><path fill="#373838" d="M401.2 667q0-2.9-.3-3.3-.4-.3-3.3-.3t-3.2.3q-.3.3-.3 3.2 0 3 .3 3.3.3.3 3.2.3 3 0 3.2-.2.4-.4.4-3.2"/><path fill="#303030" d="M397.7 520q-3 0-3.4.3-.3.4-.3 3.4 0 2.8.4 3.1.3.4 3.1.4 3 0 3.4-.4.3-.3.3-3.4 0-2.7-.3-3.1-.4-.3-3.2-.3"/><path fill="#393A3A" d="M401.2 691.1q0-3-.3-3.4-.4-.3-3.4-.3-2.8 0-3.1.3-.4.3-.4 3.1 0 3.1.4 3.4.3.3 3.3.3 2.8 0 3.1-.3.4-.3.4-3.1"/><path fill="#3C3D3D" d="M401.2 715.1q0-3-.3-3.4-.3-.3-3.4-.3-2.8 0-3.1.3-.3.3-.3 3.1 0 3 .2 3.4.4.3 3.4.3 2.8 0 3.1-.3.4-.3.4-3"/><path fill="#313131" d="M401.2 488q0-3.1-.3-3.5-.4-.2-3.5-.2-2.7 0-3 .3-.4.3-.4 3.1 0 3 .4 3.4.3.3 3.4.3 2.7 0 3.1-.3.3-.3.3-3.1"/><path fill="#353636" d="M440.5 492q0-3.2-.3-3.6-.4-.3-3.7-.3-3 0-3.3.3-.4.3-.4 3.4 0 3.3.3 3.6.3.3 3.6.3 3.1 0 3.4-.3.4-.3.4-3.3"/><path fill="#3A3A3A" d="M440.5 575.6q0-3.2-.3-3.5-.4-.3-3.5-.3-3.2 0-3.5.3-.4.3-.4 3.5 0 3.1.4 3.5.3.3 3.5.3 3.1 0 3.4-.3.3-.3.4-3.5"/><path fill="#383838" d="M440.5 551.5q0-3-.3-3.4-.4-.3-3.6-.3-3.1 0-3.5.3-.3.3-.3 3.5t.4 3.5q.3.3 3.5.3t3.5-.3q.2-.3.3-3.6"/><path fill="#353636" d="M440.5 526q0-1.4-.5-1.8-.3-.3-1.8-.4h-1.3q-3 0-3.5.5t-.6 3.5q0 3 .4 3.4.3.2 3.4.2 3.2 0 3.5-.3.4-.3.4-3.6V526"/><path fill="#373737" d="M440.5 480.1q0-3.2-.3-3.5-.4-.3-3.5-.3h-2q-2 0-1.9 1.8v3.8q0 1.6 1.5 1.6h3.8q1.7 0 2-.4.3-.3.4-1.9v-1"/><path fill="#343535" d="M433.1 507.1q.4.3 3.4.3h2.3q1.8.2 1.7-1.5v-1.3q0-3.7-.3-4-.4-.2-3.9-.3-2.8 0-3.1.3-.3.3-.3 3.1 0 3.1.2 3.4m7.4 10.1v-1q0-3.5-.3-3.8-.4-.3-4-.3-2.7 0-3 .3-.4.3-.4 3.1 0 3 .4 3.4.3.3 3.4.3h2q1.3 0 1.6-.3.3-.3.3-1.6"/><path fill="#373737" d="M440.5 539.5q0-2.8-.3-3.1-.4-.3-3.4-.3h-.7q-2.6 0-3 .3-.3.3-.3 3 0 3.1.4 3.5.3.3 3.5.3 3.1 0 3.5-.3.3-.3.3-3.4"/><path fill="#393939" d="M436.8 560h-1.6q-1.7.1-2 .4-.3.3-.3 2.1v.5q0 3.5.3 3.9.3.3 3.9.3 2.7 0 3.1-.4.3-.3.3-3.1 0-3-.3-3.4-.4-.2-3.5-.2"/><path fill="#3B3C3C" d="M440.5 587.9q0-3.3-.3-3.5-.4-.3-3.5-.4h-1.5q-1.7 0-2 .3-.3.4-.3 2v3q-.2 2 1.7 1.9h3.5q1.7 0 2-.3.3-.3.4-2v-1"/><path fill="#343535" d="M498.9 515.4q-3.1 0-3.4.3-.4.3-.4 3.3 0 3.4.3 3.7.4.3 3.6.3 3.1 0 3.4-.3.4-.3.4-3.3 0-3.4-.3-3.6-.3-.4-3.6-.4"/><path fill="#505B4B" d="M502.4 546.7q.4-.3.4-3.6 0-3-.4-3.4-.3-.3-3.4-.3-3.3 0-3.6.4-.3.3-.3 3.6 0 3 .3 3.4.4.3 3.5.3 3.2 0 3.5-.4"/><path fill="#637656" d="M502.4 570.7q.4-.3.4-3.5 0-3.1-.4-3.5-.2-.3-3.4-.3-3.3 0-3.6.3-.2.3-.2 3.5t.2 3.5q.4.3 3.6.3t3.4-.3"/><path fill="#85AA6C" d="M499.1 611.4q-3.4 0-3.7.3-.2.3-.2 3.8 0 2.9.2 3.2.4.3 3.4.3 3.3 0 3.6-.3.3-.3.3-3.8 0-2.8-.3-3.1-.2-.3-3.2-.4"/><path fill="#759261" d="M499.1 587.4q-3.4 0-3.6.3-.3.3-.3 3.6 0 3.1.3 3.4.3.3 3.3.3 3.3 0 3.6-.3.3-.3.4-3.6 0-3-.3-3.4-.3-.3-3.4-.3"/><path fill="#97C677" d="M502.4 642.6q.3-.3.3-3.2 0-3.4-.3-3.6-.2-.3-3.5-.4-3.2 0-3.5.3-.2.2-.2 3.3 0 3.3.2 3.6.3.2 3.5.3h.3q3 0 3.2-.3"/><path fill="#6B825B" d="M499 707.3q-3.2 0-3.5.3-.4.3-.4 3.6v1.3q.1 1.6.4 2 .4.3 2 .4h1.2q3.2 0 3.6-.4.4-.4.4-3.6 0-3-.3-3.3-.3-.3-3.4-.3"/><path fill="#343535" d="M502.4 774.4q.4-.3.4-3.5 0-2.9-.5-3.3-.5-.5-3.3-.5-2.9 0-3.4.5-.5.4-.5 3.3 0 3.2.3 3.5.4.3 3.6.3t3.5-.3"/><path fill="#7C9D65" d="M499.1 683.4q-3.4 0-3.7.3t-.2 3.7q0 2.6.4 3 .4.5 3 .5 3.3 0 3.8-.5.3-.3.3-3.6 0-2.9-.3-3.1-.3-.4-3.3-.4"/><path fill="#8FB972" d="M502.4 666.5q.3-.3.3-3.4 0-3.2-.3-3.5t-3.5-.3q-3.2.1-3.5.4t-.2 3.4q0 3 .2 3.3.5.5 3.5.5 3.1 0 3.5-.4"/><path fill="#505B4B" d="M502.4 750.4q.3-.3.3-3.6 0-2.8-.4-3.3-.5-.5-3.3-.5-2.9 0-3.4.5t-.5 3.4q0 3.1.3 3.4.4.4 3.4.4 3.3 0 3.6-.3"/><path fill="#3B3B3B" d="M497.2 503.6q-1.4.1-1.8.3-.2.4-.3 1.8v1.2q0 3.3.3 3.5.4.4 3.5.4h1.5q1.8 0 2-.3.3-.3.3-2 .2-1.3 0-2.7 0-1.5-.2-1.8-.3-.3-1.7-.3h-3.6"/><path fill="#484E46" d="M498.5 527.6q-2.8 0-3.1.4-.3.3-.3 3.1 0 3 .3 3.4.4.3 3.5.3h1.5q1.8 0 2-.3.4-.4.4-2.2v-.5q-.1-3.5-.4-3.9-.3-.2-3.9-.3"/><path fill="#5A6A51" d="M501 558.8q1.9.1 1.8-1.8v-4.1q0-1.3-1.3-1.3h-3.6q-2 0-2.4.4-.3.3-.4 2.5v.5q0 3.2.3 3.5.4.3 3.6.3h2"/><path fill="#6B835C" d="M502.4 582.5q.3-.3.3-3 0-3.3-.3-3.6-.3-.2-3.6-.3-3 0-3.3.3-.3.4-.3 3.2 0 3 .2 3.4.4.3 3.4.3h.4q2.9 0 3.2-.3"/><path fill="#7C9E66" d="M499 606.8h.7q2.4 0 2.8-.3.2-.3.2-2.8 0-3.6-.3-3.8-.3-.3-3.9-.3-2.7 0-3 .3-.4.3-.4 3.1 0 3.1.3 3.5.3.3 3.5.3"/><path fill="#8FBA73" d="M499 623.5q-3.3.1-3.5.3-.3.3-.4 3.5 0 3 .4 3.2.3.3 3.5.3 3.1 0 3.4-.3.3-.3.3-3.4 0-3-.3-3.3-.3-.2-3.4-.2"/><path fill="#98C877" d="M502.4 654.5q.3-.3.3-2.5v-.5q0-3.5-.3-3.8-.3-.2-3.8-.3-2.8 0-3.1.4-.4.3-.3 3.1 0 3.3.2 3.5t3.5.3h1q2.2 0 2.5-.3"/><path fill="#86AC6D" d="M502.4 678.5q.4-.3.3-3.1 0-3.3-.3-3.6-.3-.3-3.6-.3-3 0-3.4.3-.2.3-.2 3.2 0 3.2.2 3.5.3.2 3.4.3h.5q2.9-.1 3.1-.3"/><path fill="#749161" d="M499 695.5q-3.2 0-3.5.3-.3.3-.3 3.5 0 2.8.2 3.1.4.3 3.4.3 3.3 0 3.6-.3.3-.3.3-3.3t-.3-3.3q-.3-.3-3.4-.3"/><path fill="#637656" d="M499.4 719.5H497q-2-.1-1.8 1.8v1.1q.1 3.7.3 4 .4.2 4 .3 2.7 0 3-.3.4-.4.4-3 0-3.3-.3-3.6-.3-.3-3-.3"/><path fill="#5A6A51" d="M499.1 731.3q-3.3 0-3.6.3-.4.2-.4 3.1 0 3.1.3 3.4.4.3 3.6.3 3.1 0 3.4-.3.3-.3.3-3.3 0-2.9-.2-3.2-.4-.3-3.4-.3"/><path fill="#484E46" d="M500.6 762.5q1.5-.1 1.8-.3.3-.3.4-1.7v-1.3q0-3.3-.4-3.5-.3-.4-3.4-.4h-1.6q-1.6 0-2 .3-.2.3-.3 2v2.8q0 1.4.3 1.7.3.3 1.7.3h3.5"/><path fill="#3B3B3B" d="M498.4 779.3q-2.4 0-2.9.3-.4.4-.4 2.8 0 3.4.3 3.6.4.4 3.6.4h2.3q1.5.1 1.5-1.4v-1.2q-.1-3.9-.3-4.2-.3-.3-4.1-.3"/><path fill="#484E46" d="M510.9 488.1q-3.4 0-3.7.3-.3.4-.3 3.6 0 3.1.3 3.5.3.3 3.5.3 2.9 0 3.3-.5.5-.5.5-3.5t-.3-3.3q-.3-.4-3.4-.4"/><path fill="#515C4B" d="M510.3 476.4q-2.8 0-3.1.3-.3.4-.3 3.1 0 3 .3 3.4.3.3 3.4.3h2q1.3 0 1.5-.3.3-.3.4-1.6v-1q0-3.6-.3-3.9-.4-.3-3.9-.3"/><path fill="#343535" d="M514 504q0-3-.3-3.3-.4-.3-3.3-.3t-3.2.3q-.3.3-.3 3.1 0 3 .3 3.3.3.4 3.2.4 3 0 3.3-.3.3-.4.3-3.3"/><path fill="#3B3B3B" d="M506.9 515.4q0 3.2.3 3.5.3.3 3.5.3 2.7 0 3-.3.3-.3.3-3 0-3.1-.3-3.5-.3-.3-3.5-.3-2.6 0-3 .3-.3.3-.3 3"/><path fill="#3C3D3D" d="M525.8 413.6q-.1-1.3-.4-1.5-.3-.3-1.6-.4h-1q-3.6.1-3.9.4-.3.3-.3 3.8 0 2.8.3 3.2.4.3 3.1.3 3 0 3.4-.3.3-.4.4-3.4v-2"/><path fill="#3B3C3C" d="M525.4 431.3q.3-.3.3-3.3v-.7q0-2.6-.3-3-.3-.3-3-.3-3.1 0-3.5.3-.3.3-.3 3.5t.3 3.5q.3.3 3.3.3 2.8 0 3.2-.3"/><path fill="#3A3A3A" d="M525.4 436.1q-.4-.4-2.7-.3-3.5 0-3.8.3-.3.3-.3 3.8 0 2.8.3 3.1.3.4 3 .4 3.2 0 3.5-.3.3-.4.3-3.6v-.8q0-2.2-.4-2.6"/><path fill="#383838" d="M525.8 463.5v-.8q0-2.3-.4-2.6-.4-.4-2.8-.4-3.4 0-3.7.3-.3.4-.3 3.9 0 2.8.3 3.1.3.4 3 .3 3.2 0 3.5-.3.3-.3.3-3.5"/><path fill="#353636" d="M525.8 487.6v-2.1q0-1.9-1.8-1.8h-3.8q-1.6 0-1.6 1.5v3.9q0 1.6.3 2 .3.2 2 .2h1q3.2 0 3.5-.2.3-.4.4-3.6"/><path fill="#343535" d="M525.8 511.6V510q-.1-1.6-.3-2-.3-.2-2-.3h-3q-2 0-1.9 1.8v3.5q0 1.8.3 2 .3.3 2 .3h1q3.2 0 3.5-.3.3-.3.3-3.5"/><path fill="#373737" d="M525.4 532q-.3-.3-3.1-.3-3 0-3.4.3-.3.3-.3 3.3v2.1q0 1.3.3 1.6.3.3 1.6.3h1q3.6 0 3.9-.3.3-.3.3-3.9 0-2.7-.3-3"/><path fill="#393939" d="M525.8 559.5v-2q.1-1.9-1.8-1.8h-4.1q-1.3 0-1.3 1.3v3.5q0 2.1.3 2.5.4.3 2.5.4h.5q3.2-.1 3.5-.4.3-.3.4-3.5"/><path fill="#3B3C3C" d="M525.5 587q.3-.3.3-3.5 0-3.1-.3-3.5-.4-.3-3.3-.3-3 0-3.2.3-.4.3-.4 3.3v.8q0 2.5.3 2.9.4.3 3 .3 3.2 0 3.6-.3"/><path fill="#373737" d="M525.8 475.4q0-2.8-.4-3.1-.3-.4-3.1-.4l-2.3.1q-.6 0-1 .3-.5.3-.5 3.3t.5 3.3q2.5 1.4 5.9.1.9-.3.9-1.4v-2.3"/><path fill="#343535" d="M518.6 499.4q0 3 .3 3.4.3.3 3.4.3 2.8 0 3.1-.3.3-.4.3-3.2 0-3-.3-3.3-.3-.4-3.4-.4-2.7 0-3 .4-.4.3-.4 3.1"/><path fill="#3C3D3D" d="M525.8 595.5q-.1-3-.4-3.3-.3-.3-3.1-.3-3 0-3.3.3-.4.3-.4 3.2 0 3 .3 3.3.4.3 3.2.3 3 0 3.3-.3.3-.3.3-3.2"/><path fill="#3A3A3A" d="M525.8 571.5q-.1-3-.4-3.3-.3-.3-3.1-.3-3 0-3.3.4-.4.3-.4 3.2 0 2.9.3 3.2.4.3 3.2.3 3 0 3.3-.2.3-.4.3-3.2"/><path fill="#383838" d="M525.8 547.5q-.1-2.9-.4-3.3-.3-.3-3.2-.3-3 0-3.3.4-.3.3-.3 3.2 0 2.9.3 3.3.3.3 3.2.3 3 0 3.3-.3.3-.3.3-3.2"/><path fill="#353636" d="M525.8 523.8q-.1-3.2-.4-3.5-.3-.3-3.5-.3-2.6 0-3 .3-.3.3-.3 3 0 3.1.3 3.5.3.3 3.5.3 2.7 0 3-.3.3-.4.3-3"/><path fill="#393939" d="M522.3 448q-3 0-3.4.3-.3.4-.3 3.4 0 2.8.3 3.1.4.4 3.2.3 3 0 3.3-.3.3-.3.4-3.4 0-2.7-.4-3.1-.3-.3-3.1-.3m54.1 113.3q-3.1 0-3.5.3-.3.3-.3 3.4 0 3.2.3 3.5.3.4 3.5.4t3.5-.3q.3-.4.3-3.6 0-3.1-.3-3.5-.3-.3-3.5-.3"/><path fill="#373737" d="M576.6 585.2q-3.4 0-3.7.3-.3.4-.3 3.9 0 2.9.3 3.2.3.3 3.3.3 3.4 0 3.7-.3.3-.3.3-3.8 0-2.9-.3-3.2-.3-.3-3.3-.4"/><path fill="#353636" d="M576.5 633.2q-3.2 0-3.6.3-.3.4-.3 3.5 0 3.2.4 3.5.3.4 3.4.4 3.2 0 3.5-.3.4-.4.4-3.5t-.3-3.5q-.4-.3-3.5-.4"/><path fill="#3B3C3C" d="M576.5 692.9q-3.2 0-3.6.3-.3.3-.3 3.5t.4 3.5q.3.3 3.4.3 3.2 0 3.5-.3.4-.3.4-3.5t-.3-3.5q-.4-.3-3.5-.3"/><path fill="#343535" d="M580.3 613q-.1-3.1-.4-3.5-.3-.3-3.5-.3-3.1 0-3.5.3-.3.3-.3 3.5t.3 3.5q.3.3 3.5.3t3.5-.3q.3-.3.3-3.5"/><path fill="#3B3C3C" d="M580.3 541.1q-.1-3.2-.4-3.5-.3-.3-3.5-.3t-3.5.3q-.3.3-.3 3.4 0 3.3.3 3.5.3.4 3.4.4 3.2 0 3.6-.3.3-.3.3-3.5"/><path fill="#383838" d="M576.5 657.2q-3.3 0-3.6.3-.3.4-.3 3.7 0 3 .3 3.4.4.3 3.4.3 3.3 0 3.6-.4.3-.3.4-3.6 0-3-.4-3.4-.3-.3-3.4-.3"/><path fill="#393939" d="M572.6 673q0 3 .3 3.3.4.3 3.4.3 3.3 0 3.6-.3.3-.4.4-3.7v-1.8q0-1.4-1.5-1.7l-2-.1q-3.1-.1-3.6.5-.6.5-.6 3.5"/><path fill="#3A3A3A" d="M578.5 556.6q1.8.1 1.7-1.6v-1.3q0-3.6-.3-3.9-.3-.3-3.9-.3-2.8 0-3 .3-.5.3-.4 3.1 0 3 .3 3.4.3.3 3.3.3h2.3"/><path fill="#383838" d="M572.6 576.9q0 3 .3 3.4.3.3 3.4.3h2q1.4 0 1.6-.3.3-.2.3-1.5v-1.1q0-3.6-.3-3.9-.3-.3-3.9-.3-2.8 0-3.1.3-.3.4-.3 3.1"/><path fill="#353636" d="M579.9 597.8q-.3-.3-3.4-.3h-2q-1.3 0-1.6.3-.3.3-.3 1.6v1q0 3.6.3 3.9.4.3 3.9.3 2.8 0 3.1-.3.4-.3.4-3.1 0-3-.4-3.4"/><path fill="#343535" d="M572.6 624.8q0 3.2.3 3.5.4.3 3.5.3h2q1.9.1 1.9-1.8V623q0-1.6-1.5-1.6h-3.9q-1.7.1-2 .4-.2.3-.3 2v1"/><path fill="#373737" d="M578.8 652.6q1.4 0 1.4-1.4V650q0-3.8-.3-4.1-.3-.3-4.1-.3-2.4 0-2.8.4-.5.4-.4 2.7 0 3.3.3 3.6.3.3 3.6.4h2.3"/><path fill="#3A3A3A" d="M576.6 688.3h2.5q1-.1 1-.9l.3-3q.1-1.8-.6-2.8-.4-.7-1.7-.6l-2.3.2h-1.3q-1.3 0-1.6.3-.2.3-.3 1.6v1.3q0 3.3.4 3.6.3.3 3.6.3"/><path fill="#3C3D3D" d="M579.9 705.5q-.3-.3-3.5-.3h-2q-1.9-.2-1.8 1.7v4.1q0 1.3 1.3 1.3h3.6q2 0 2.4-.3.3-.4.4-2.5v-.5q-.1-3.2-.4-3.5"/><path fill="#373737" d="M598.6 743.6q0 3.4.3 3.7.4.3 3.9.4 2.9 0 3.2-.4.3-.3.3-3.3 0-3.4-.3-3.7-.3-.3-3.8-.3-2.9 0-3.2.4-.3.3-.4 3.2"/><path fill="#3C3D3D" d="M606 620.4q-.4-.3-3.5-.3-3.2 0-3.5.3-.4.3-.4 3.5t.3 3.5q.4.3 3.5.3 3.2 0 3.6-.3.3-.3.3-3.5t-.3-3.5"/><path fill="#343535" d="M606.3 719.8q0-3.1-.3-3.5-.3-.3-3.5-.3t-3.5.3q-.4.3-.4 3.5t.3 3.5q.4.3 3.6.3 3.1 0 3.5-.3.3-.3.3-3.5"/><path fill="#383838" d="M606.3 672q0-3-.5-3.5t-3.4-.5q-3.2 0-3.5.3-.3.4-.3 3.5 0 3.2.3 3.5.3.3 3.4.4 3.2 0 3.6-.4.3-.3.3-3.3"/><path fill="#353636" d="M602.3 699.6q3.4 0 3.7-.3.3-.2.3-3.7 0-2.7-.5-3.1-.5-.5-3.3-.5-3.3 0-3.6.3-.3.4-.3 3.7 0 3 .3 3.3.3.4 3.3.4"/><path fill="#3A3A3A" d="M602.7 644q-3.5.1-3.8.4-.2.3-.3 3.6 0 3 .3 3.3.4.3 3.4.4 3.3 0 3.7-.4.3-.3.3-3.6v-1.5q-.1-1.4-.5-1.7-.4-.4-1.8-.5h-1.3"/><path fill="#393939" d="M598.6 767.8q0 3.2.3 3.5.4.3 3.5.3 2.9 0 3.4-.5.5-.4.5-3.3 0-3.1-.3-3.5-.4-.3-3.5-.3t-3.5.3q-.3.3-.4 3.4"/><path fill="#3B3C3C" d="M605.9 788.3q-.3-.3-3.4-.3H600q-1.4 0-1.4 1.4v1.3q.1 4.3.3 4.6.3.3 5 .3 1.3 0 1.8-.4.4-.5.5-1.8v-1.8q0-3-.3-3.3"/><path fill="#3C3D3D" d="M602.4 807.4q3.2 0 3.5-.3.3-.3.3-3.4.1-3-.4-3.5t-3.4-.5q-2.9 0-3.3.5-.5.5-.5 3.3 0 3.3.3 3.5.4.3 3.5.3"/><path fill="#3B3C3C" d="M605.6 633q-.7-.7-3.5-.7-2.9 0-3.2.3-.3.3-.3 3.2v2.1q.1 1.3.4 1.6.4.4 1.8.4h2.8q1.4 0 1.9-.4t.7-1.8v-1q.1-2.9-.6-3.7"/><path fill="#393939" d="M606.3 657.8q0-1.6-1.5-1.5h-4.6q-1.6 0-1.6 1.5v3.5q-.1 2.1 1.7 2.3l1.8.3q2.8.2 3.5-.5.7-.6.7-3.3v-2.3"/><path fill="#373737" d="M602.6 680.3h-2q-1.4 0-1.6.3-.3.3-.4 1.6v1q0 3.6.3 3.9.4.3 3.9.3 2.8 0 3.2-.3.3-.4.3-3.1 0-3-.3-3.4-.4-.3-3.4-.3"/><path fill="#343535" d="M602.5 704.3h-1.6q-1.6 0-2 .3-.2.2-.3 1.9v3.1q-.1 2 1.8 1.8h3.5q1.8 0 2-.3.3-.3.3-2v-1q0-3.2-.3-3.5-.3-.3-3.4-.3"/><path fill="#353636" d="M606.3 733.6v-3.8q0-1.6-1.5-1.6H601q-1.7.1-2 .4-.3.3-.4 2v1q0 3.2.3 3.5.4.3 3.5.3h2q2 .2 1.9-1.7"/><path fill="#383838" d="M606.3 757.6v-3.9q0-1.5-1.6-1.5h-3q-2.3 0-2.7.4-.4.4-.4 2.7v.3q0 3.1.4 3.4.3.3 3.5.4h2q1.9.1 1.8-1.8"/><path fill="#3A3A3A" d="M605.9 776.7q-.5-.5-4.1-.5-2.4 0-2.8.4-.4.4-.4 2.8 0 3.3.4 3.6.3.3 3.5.4h1.3q1.9 0 2.2-.3.3-.4.3-2.3 0-3.6-.4-4.1"/><path fill="#373737" d="M122.3 545.2q-3.2 0-3.5.3-.3.4-.3 3.6 0 3.1.3 3.5.3.3 3.5.3t3.5-.4q.3-.3.3-3.5 0-3.1-.3-3.4-.3-.3-3.5-.4"/><path fill="#343535" d="M126.2 572.9q-.1-3-.4-3.4-.3-.3-3.4-.3-3.3 0-3.6.3-.3.4-.3 3.7 0 3 .3 3.4.4.3 3.4.3 3.3 0 3.6-.4.3-.3.4-3.6"/><path fill="#393939" d="M122.5 521.2q-3.4 0-3.6.3-.4.4-.4 3.6 0 3.1.3 3.4.3.3 3.4.3 3.2 0 3.6-.2.3-.3.3-3.6 0-3.1-.3-3.4-.3-.4-3.3-.4m3.7 111.6q-.1-3.3-.4-3.5-.3-.4-3.4-.4-3 0-3.5.5t-.4 3.4q0 3.1.3 3.5.3.3 3.5.3t3.5-.4q.3-.3.3-3.4"/><path fill="#3B3C3C" d="M125.8 504.6q.3-.4.3-3.7v-1.4q0-1.5-.5-1.9-.3-.3-1.8-.4h-1.2q-3.5 0-3.8.3-.3.4-.3 3.8 0 2.9.3 3.2.3.4 3.4.4 3.3 0 3.6-.3"/><path fill="#373737" d="M119 605.4q-.6.5-.5 3.4 0 3.2.3 3.5.3.3 3.5.3t3.5-.3q.3-.3.3-3.5v-.3q0-2.7-.4-3.1-.5-.5-3.3-.5-2.9 0-3.4.5"/><path fill="#3B3C3C" d="M122.3 652.9q-3.2 0-3.5.3-.3.3-.3 3.5v1.5q0 1.7.3 2 .3.3 1.9.3h2.8q1.4 0 1.9-.3.4-.4.6-1.7l.1-1.8q0-2.8-.4-3.3-.5-.5-3.4-.5"/><path fill="#3C3D3D" d="M122.3 492.6h1.2q2 0 2.3-.3.3-.3.3-2.2v-2.5q0-1.5-.3-1.8-.3-.3-1.6-.3h-3.6q-1.5 0-1.8.3-.3.3-.3 1.9v1q0 3.3.3 3.6.3.3 3.5.3"/><path fill="#3A3A3A" d="M122.5 509.5h-2.3q-1.9-.2-1.7 1.6v1.2q0 3.7.3 4 .3.3 3.9.3 2.7 0 3.1-.3.3-.3.3-3.1 0-3-.3-3.4-.3-.3-3.3-.3"/><path fill="#383838" d="M122.3 540.6h2q1.9.1 1.9-1.8V535q0-1.6-1.6-1.6h-3.8q-1.7.1-2 .4-.3.3-.3 2v1q0 3.2.3 3.5.3.3 3.5.3"/><path fill="#353636" d="M122 564.6h.8q2.7 0 3-.3.3-.4.3-3 0-3.2-.3-3.5-.3-.3-3.5-.3-3.1 0-3.5.2-.3.3-.3 3.3t.3 3.2q.3.4 3.3.4"/><path fill="#343535" d="M122.5 581.5h-2.1q-1.3 0-1.6.3-.2.3-.3 1.6v1q0 3.6.4 3.9.3.3 3.8.3 2.8 0 3.1-.3.4-.4.4-3.1-.1-3.1-.4-3.4-.3-.3-3.3-.3"/><path fill="#353636" d="M125.8 600q.3-.3.3-1.6v-1q0-3.6-.3-3.9-.3-.3-3.9-.3-2.8 0-3.1.3-.3.4-.3 3.1 0 3 .3 3.4.3.3 3.4.4l2-.1q1.3 0 1.6-.3"/><path fill="#383838" d="M122 617.1q-2.8 0-3.2.4-.3.3-.3 3.1 0 3 .3 3.4.3.3 3.4.3h2q1.3 0 1.6-.3.3-.3.3-1.6v-1q0-3.6-.3-3.9-.3-.3-3.9-.3"/><path fill="#3A3A3A" d="M122.3 641.1h-2q-1.9-.1-1.9 1.8l.1 4q0 1.3 1.2 1.3l4.8.1q1.6 0 1.6-1.6v-1.8q0-3.1-.3-3.4-.3-.3-3.5-.4"/><path fill="#484E46" d="M174.8 603.5q-3.1 0-3.5.3-.2.3-.2 3.5t.3 3.5q.3.3 3.5.3t3.5-.3q.3-.3.3-3.6 0-3.1-.3-3.5-.3-.3-3.6-.3"/><path fill="#3B3B3B" d="M174.8 627.4q-3.1 0-3.4.3-.3.3-.3 3.5t.3 3.5q.3.3 3.5.3 3.1 0 3.5-.3.3-.3.3-3.5t-.3-3.5q-.3-.3-3.5-.3"/><path fill="#8EB872" d="M178.7 475.6q-.1-3.3-.3-3.6-.3-.2-3.5-.2-3.3 0-3.5.3-.3.2-.3 3.4t.3 3.5q.3.3 3.5.3t3.4-.3q.3-.3.3-3.5"/><path fill="#596951" d="M178.3 586.9q.4-.4.4-3.1 0-3.5-.4-3.9-.5-.5-4.1-.5-2.3 0-2.7.5-.4.4-.4 2.7v.5q0 3.4.3 3.6.3.3 3.6.4 3 0 3.3-.3"/><path fill="#6B825B" d="M178.3 562.8q.3-.3.4-3.5 0-2.9-.5-3.3-.5-.5-3.5-.5-2.7 0-3.2.5t-.5 3.3q.1 3.1.4 3.5.3.3 3.5.3t3.4-.3"/><path fill="#8EB972" d="M175.3 507.6q-3.5 0-3.9.3-.3.4-.3 3.7 0 3 .3 3.2.3.3 3.3.3 3.4 0 3.7-.3t.2-3.8q0-2.7-.2-3-.4-.5-3.1-.5"/><path fill="#7B9D65" d="M175 531.5q-3.2 0-3.6.5-.4.4-.3 3.4 0 3.1.3 3.4.3.3 3.3.3 3.4 0 3.7-.3.3-.3.3-3.5 0-3-.3-3.3-.5-.5-3.4-.5"/><path fill="#98C877" d="M178.3 490.8q.3-.3.3-2.4v-.5q0-3.4-.2-3.7t-3.9-.3q-2.8 0-3.1.3-.3.3-.3 3.1 0 3.3.3 3.6.2.3 3.4.3h1q2.1 0 2.5-.4m.3 8.6q0-3.1-.2-3.4t-3.4-.3h-.8q-2.5 0-2.8.3-.3.4-.3 2.9 0 3.5.3 3.8.3.3 3.7.3 3 0 3.3-.3.2-.3.2-3.3"/><path fill="#86AC6D" d="M174.8 527h.4q2.9 0 3.2-.3.2-.4.2-3.2 0-3.2-.2-3.5-.3-.3-3.6-.3-3.2 0-3.4.3-.3.3-.3 3.5 0 2.9.3 3.2.3.3 3.3.3"/><path fill="#749161" d="M175 543.7h-.5q-2.8 0-3.1.3-.3.3-.3 3.1 0 3.2.3 3.5.3.3 3.5.3 3.1 0 3.4-.3.3-.3.3-3.3t-.2-3.2q-.4-.3-3.4-.4"/><path fill="#637656" d="M176.9 574.9q1.9 0 1.8-1.8v-3.6q.1-2-1.7-1.8h-3.3q-2 0-2.3.3-.3.3-.3 2.3v.7q0 3.3.3 3.5.3.3 3.5.3l2 .1"/><path fill="#515C4B" d="M178.3 598.5q.4-.3.4-3 0-3.2-.3-3.5-.4-.3-3.6-.3-3.1 0-3.4.3-.4.3-.4 3.3 0 2.9.4 3.2.3.3 3.2.3h.8q2.6 0 3-.3"/><path fill="#343535" d="M173.4 615.7q-1.7 0-2 .3-.3.3-.3 1.9v1q0 3.3.3 3.6.3.3 3.4.3h1.6q1.7 0 2-.3.3-.3.3-1.9v-2.8q0-1.5-.3-1.8-.3-.3-2-.3h-3m49.9 316q-.3-.3-3.1-.3-3 0-3.3.3-.4.3-.4 3.3v2q0 1.4.3 1.6.3.3 1.6.4h1q3.6 0 3.9-.3.3-.4.3-3.9 0-2.8-.3-3.1"/><path fill="#3B3B3B" d="M223.6 923.3q0-3-.3-3.4-.4-.3-3.4-.3-2.8 0-3.1.3-.4.4-.3 3.1 0 3.1.3 3.4.3.3 3.3.3 2.8 0 3.1-.3.4-.3.4-3.1"/><path fill="#484E46" d="M262.4 595.6q0-3.3-.3-3.6-.4-.3-3.6-.3-3.1 0-3.4.3-.3.3-.4 3.5 0 2.9.5 3.3.5.5 3.5.5t3.4-.3q.3-.3.3-3.3"/><path fill="#7B9C65" d="M255.3 520.1q-.4.3-.5 2.1v1q0 3.2.4 3.6.5.5 3.6.5 3 0 3.4-.4.2-.3.2-3.4 0-3.2-.3-3.5-.3-.3-3.6-.3h-1q-1.9 0-2.2.4"/><path fill="#97C677" d="M262.4 475.7q0-3.4-.3-3.6-.3-.3-3.6-.3-2.9 0-3.2.2-.4.4-.4 3.5 0 3.2.4 3.5.3.3 3.4.3t3.4-.3q.3-.3.3-3.3"/><path fill="#8EB872" d="M262.4 499.5q0-3.2-.3-3.5-.3-.3-3.5-.3-3 0-3.3.3-.4.3-.5 3.6 0 3 .5 3.4.3.3 3.3.3 3.2 0 3.5-.4.2-.2.3-3.4"/><path fill="#6B825B" d="M256.9 543.6q-1.4.1-1.7.4-.3.4-.4 1.8v3.3q.1 1.4.4 1.8.4.3 1.9.4h1.2q3.2 0 3.7-.5.4-.4.4-3.5 0-3-.3-3.3-.4-.3-3.4-.4h-1.8"/><path fill="#596951" d="M262.4 571.3v-2q.1-1.7-1.7-1.6h-4q-2 0-1.9 1.8v3.6q0 1.4.4 1.8.4.3 1.9.4h1.2q3.1 0 3.6-.5t.5-3.5"/><path fill="#97C777" d="M258.8 483.9h-.5q-2.8 0-3 .3-.4.3-.4 3.1 0 3.3.3 3.5.3.3 3.7.3 3 0 3.3-.3.2-.2.2-3.2 0-3.1-.2-3.4-.3-.3-3.4-.3"/><path fill="#86AC6C" d="M262.1 514.9q.3-.3.3-3.4 0-3-.3-3.3-.3-.3-3.4-.3-3.2 0-3.5.3-.3.3-.3 3.4 0 2.9.3 3.2.3.3 3.3.3 3.3 0 3.6-.3"/><path fill="#749161" d="M255.2 532.2q-.3.3-.4 3.4 0 2.9.3 3.2.4.3 3.3.3h.8q2.6 0 2.9-.3.3-.3.3-3 0-3.3-.3-3.6-.3-.3-3.7-.3-2.9 0-3.2.3"/><path fill="#637656" d="M256.6 555.9q-1.3.1-1.5.3-.3.3-.3 1.6v1q0 3.7.3 4 .3.2 3.9.3 2.7 0 3.1-.4.3-.3.3-3.1 0-3-.3-3.4-.4-.3-3.4-.3h-2"/><path fill="#515C4B" d="M258.4 587h2.1q1.3 0 1.6-.3.2-.3.3-1.6v-1q0-3.5-.3-3.9-.4-.3-3.9-.3-2.8 0-3.1.3-.3.4-.3 3.1 0 3.1.3 3.4.3.3 3.4.3"/><path fill="#3B3B3B" d="M256.8 615.6q-1.6 0-1.6 1.6v3q0 2.3.5 2.7.4.4 2.7.4h.2q3.1 0 3.5-.4.3-.3.3-3.5v-2q.2-1.9-1.8-1.8h-3.8"/><path fill="#343535" d="M262.4 607.6q0-3-.3-3.4-.4-.3-3.4-.3-2.8 0-3.1.3-.4.3-.4 3.1.1 3 .4 3.4.3.3 3.3.3 2.8 0 3.1-.3.4-.3.4-3.1"/><path fill="#3B3B3B" d="M339.6 926.9q.3-.3.4-3.9 0-2.8-.3-3.1-.4-.3-3.2-.3-3 0-3.3.3-.4.4-.4 3.4v2q.1 1.4.4 1.6.2.3 1.6.3h1q3.5 0 3.8-.3"/><path fill="#343535" d="M339.7 938.6q.3-.3.3-3.3 0-2.8-.3-3.1-.4-.4-3.4-.4-2.8 0-3.1.4-.3.3-.3 3.3 0 2.9.3 3.2.3.3 3.3.3 2.9 0 3.2-.3"/><path fill="#3C3D3D" d="M353.8 602.9v-2q0-1.9-1.8-1.8h-4.1q-1.3 0-1.3 1.3v3.5q0 2.1.4 2.5.3.3 2.5.4h.4q3.3-.1 3.6-.4.2-.3.3-3.5"/><path fill="#3B3C3C" d="M346.6 615v2.1q.1 1.3.3 1.5.4.3 1.7.4h1q3.5 0 3.9-.4.3-.3.3-3.9 0-2.7-.3-3-.4-.4-3.2-.4-3 0-3.3.4-.3.3-.3 3.3"/><path fill="#3A3A3A" d="M353.8 627v-1.6q0-1.7-.3-2-.4-.3-2-.3h-2.7q-1.6 0-1.9.3-.2.3-.2 1.7v3.5q0 1.5.2 1.8.3.3 1.7.3h1.3q3.2 0 3.5-.3.4-.3.4-3.5"/><path fill="#383838" d="M353.8 653.2v-3.8q0-1.7-.4-2-.2-.3-1.9-.3h-1q-3.2 0-3.5.3-.4.3-.4 3.5v2q0 2 1.8 1.8h3.8q1.6.1 1.6-1.5"/><path fill="#353636" d="M353.8 675.5v-2.7q0-1.9-1.9-1.7h-1q-3.6 0-4 .3-.2.3-.2 4-.1 2.7.2 3 .4.3 3 .3 3.3 0 3.6-.2.2-.3.2-3"/><path fill="#343535" d="M353.8 698.9v-1.5q0-1.7-.3-2-.3-.3-2-.3h-2.7q-1.6 0-1.9.2-.2.3-.2 1.7v3.6q0 1.4.2 1.7.3.3 1.7.4h1.3q3.3 0 3.5-.4.4-.3.4-3.4"/><path fill="#373737" d="M353.8 723v-2q-.1-1.3-.4-1.6-.2-.3-1.5-.3l-1-.1q-3.7 0-4 .4-.2.3-.2 3.8-.1 2.8.2 3.2.4.3 3.2.3 3 0 3.3-.3.4-.4.4-3.4"/><path fill="#393939" d="M348.4 750.7h3.8q1.6 0 1.6-1.5v-3.8q0-1.7-.4-2-.2-.3-1.9-.4h-1q-3.2 0-3.5.4-.4.3-.4 3.4v2q-.1 2 1.8 1.9"/><path fill="#3B3C3C" d="M353.8 770.9v-1.5q0-1.7-.3-2-.4-.3-2-.4h-3q-2-.1-1.9 1.8v3.5q0 1.7.3 2 .4.3 2 .3h1q3.2 0 3.5-.3.4-.3.4-3.4"/><path fill="#3C3D3D" d="M353.8 782.8q0-2.9-.3-3.2-.4-.3-3.4-.3-2.8 0-3.2.3-.2.3-.2 3.3 0 2.9.3 3.2.3.3 3.3.3 2.8 0 3.1-.3.4-.4.4-3.4"/><path fill="#373737" d="M353.8 662.9q0-3-.3-3.3-.4-.3-3.3-.3t-3.3.3q-.2.3-.2 3.2 0 3 .2 3.3.4.3 3.3.3t3.3-.3q.2-.3.3-3.2"/><path fill="#343535" d="M353.8 686.8q0-2.9-.3-3.1-.4-.4-3.4-.4-2.8 0-3.2.3-.2.3-.2 3.3 0 2.9.3 3.2.3.3 3.3.3 2.8 0 3.1-.3.4-.3.4-3.3"/><path fill="#383838" d="M350.4 731.3q-3.1 0-3.4.3-.3.3-.3 3.4 0 2.8.2 3.1.4.3 3.2.3 3 0 3.3-.3.4-.3.4-3.4 0-2.8-.3-3.1-.4-.3-3.1-.3"/><path fill="#393939" d="M353.8 639.1q0-3.2-.3-3.5-.4-.3-3.6-.3-2.6 0-3 .3-.3.4-.2 3 0 3.2.2 3.5.4.3 3.6.3 2.6 0 3-.3.3-.3.3-3"/><path fill="#3A3A3A" d="M353.8 758.9q0-3-.3-3.3-.4-.3-3.5-.3-2.7 0-3 .3-.4.3-.4 3.1 0 3 .4 3.4.3.3 3.4.3 2.8 0 3-.3.4-.4.4-3.2"/><path fill="#353636" d="M353.8 710.8q0-2.9-.3-3.2-.4-.3-3.4-.3-2.8 0-3.2.3-.2.3-.2 3.3 0 2.9.3 3.2.3.3 3.3.3 2.8 0 3.1-.3.4-.3.4-3.3"/><path fill="#455041" d="M372.6 779.5q0-3.1-.3-3.4-.3-.4-3.4-.4t-3.4.5q-.6.5-.6 3.4t.6 3.3q.4.5 3.2.5 2.8 0 3.4-.6.5-.6.5-3.3"/><path fill="#3B3C3C" d="M372.6 671.5q0-2.8-.3-3.1-.3-.4-3.1-.4-3 0-3.4.3-.3.4-.4 3.4v2q.2 1.4.4 1.6.3.3 1.6.4h1q3.6-.1 3.9-.4.3-.3.3-3.8"/><path fill="#393939" d="M372.6 695.8v-2.3q0-1.5-1.4-1.5H370q-3.9 0-4.2.3-.3.3-.3 4.1 0 2.5.3 2.9.4.4 2.8.4 3.3 0 3.6-.4.4-.2.4-3.5"/><path fill="#373737" d="M372.6 719.8v-2q.1-2-1.8-1.8h-1q-3.7 0-4 .3-.3.4-.3 4.1 0 2.6.3 2.9.3.3 3 .3 3.2 0 3.5-.3.3-.3.3-3.5"/><path fill="#313131" d="M372.6 744.4v-2.6q.1-2-1.8-1.8h-1q-3.7 0-4 .3-.3.4-.3 4 0 2.7.3 3 .3.4 3 .4 3.2-.1 3.5-.3.3-.3.3-3"/><path fill="#2B2C2C" d="M372.6 755.7v-2q0-1.3-.3-1.6-.3-.3-1.6-.3h-1q-3.6 0-3.9.3-.3.3-.3 3.8 0 2.8.3 3.2.3.3 3.1.3 3 0 3.4-.3.3-.3.3-3.4"/><path fill="#3D423B" d="M372.6 768v-2.1q0-1.3-.3-1.6-.3-.2-1.6-.3h-1q-3.6 0-3.9.3-.3.3-.3 3.9 0 2.8.3 3.1.3.4 3.1.4 3-.1 3.4-.4.3-.3.3-3.3"/><path fill="#586A4D" d="M365.8 800q-.3.3-.4 4 0 2.7.4 3 .3.3 3 .3 3.2 0 3.5-.2.3-.3.3-3v-2.6q.1-2-1.8-1.8h-1q-3.8 0-4 .3"/><path fill="#6C875B" d="M365.7 824q-.3.3-.3 3.7 0 3 .4 3.2.2.4 3.1.4 3.1 0 3.4-.3.3-.3.3-3.3v-.5q0-2.8-.3-3.1-.3-.4-3-.4-3.3 0-3.6.3"/><path fill="#81A669" d="M365.4 851.3v.6q0 2.7.3 3 .3.4 3.1.3 3.3 0 3.5-.3.3-.3.4-3.7 0-2.9-.3-3.2-.3-.3-3.3-.3t-3.4.3q-.3.3-.3 3.3"/><path fill="#93C274" d="M365.7 872q-.3.3-.3 3.9 0 2.8.2 3 .3.4 3.2.4 3.2-.1 3.5-.3.3-.3.3-3.5v-.8q0-2.4-.3-2.7-.3-.3-2.7-.3-3.7 0-3.9.3"/><path fill="#96C576" d="M372.6 887.4q0-3.3-.3-3.5-.2-.3-3.4-.3-3-.1-3.3.3-.3.3-.3 3.4 0 3.2.3 3.5.3.3 3.3.3 3.2 0 3.5-.3.2-.3.2-3.4"/><path fill="#86AC6C" d="M372.6 911v-1.7q.2-2-1.7-1.8h-1q-3.9 0-4.2.3-.3.3-.3 4 0 2.6.3 3 .3.2 2.9.2 3.4 0 3.7-.3.3-.2.4-3.7"/><path fill="#749161" d="M365.4 935.5q0 2.9.3 3.2.3.3 3.2.3 3.1 0 3.4-.2.3-.3.3-3.3v-1.1q0-2.3-.3-2.6-.3-.4-2.8-.3-3.5 0-3.8.3-.3.3-.3 3.7"/><path fill="#3C3D3D" d="M372.3 656.6q-.3-.3-3.2-.3-3 0-3.3.3-.3.3-.3 3.2 0 3 .3 3.3.3.3 3.2.3 3 0 3.3-.3.3-.3.3-3.2 0-3-.3-3.3"/><path fill="#779761" d="M369.1 835.9q-3 0-3.4.3-.3.3-.3 3.3t.3 3.3q.4.3 3.3.3 3 0 3.3-.3.3-.3.3-3.3t-.3-3.3q-.3-.3-3.2-.3"/><path fill="#90BB73" d="M365.4 899.3q0 3 .3 3.3.3.3 3.4.3 3 0 3.2-.3.3-.3.3-3.3 0-3.1-.3-3.4-.2-.3-3.3-.3t-3.3.3q-.3.3-.3 3.4"/><path fill="#353636" d="M369.1 728.3q-3 0-3.3.3-.3.3-.4 3.4 0 2.7.4 3 .3.4 3.1.4 3 0 3.4-.3.3-.3.3-3.4 0-2.8-.4-3.1-.3-.3-3-.3"/><path fill="#7D9F66" d="M369 919.6q-3 0-3.3.3-.3.3-.3 3.2 0 3.1.3 3.4.3.3 3.4.3 2.9 0 3.2-.2.4-.3.4-3.2-.1-3.1-.3-3.4-.4-.3-3.4-.3"/><path fill="#383838" d="M369.1 704.3q-3 0-3.3.3-.3.3-.4 3.4 0 2.7.4 3 .3.4 3.1.4 3 0 3.4-.3.3-.3.3-3.4 0-2.8-.4-3.1-.3-.3-3-.3"/><path fill="#627954" d="M372.6 815.6q0-3-.3-3.3-.3-.3-3.4-.3h-.2q-2.6 0-3 .3-.2.3-.2 3 0 3.1.3 3.5.3.3 3.5.3 2.7 0 3-.4.3-.3.3-3"/><path fill="#3A3A3A" d="M372.6 684q0-3-.3-3.4-.3-.3-3.4-.3-2.7 0-3.1.3-.3.3-.3 3.1 0 3 .3 3.4.3.3 3.4.3 2.8 0 3-.3.4-.3.4-3.1"/><path fill="#8EB871" d="M369.3 859.9q-3.3 0-3.6.3-.3.2-.3 3.3 0 3 .3 3.3.3.3 3.2.3 3.2 0 3.5-.3.2-.3.2-3.5 0-2.8-.3-3.1-.3-.3-3-.4"/><path fill="#505E47" d="M368.9 795.1q3 0 3.4-.3.3-.3.3-3.3 0-2.9-.3-3.2-.3-.3-3.2-.3-3 0-3.4.3-.2.4-.2 3.4 0 2.8.3 3 .3.4 3 .4"/><path fill="#3B3C3C" d="M396.3 855.5h1q3.3 0 3.6-.3.3-.4.3-3.5v-2.1q.2-2-1.7-1.8h-3.9q-1.6 0-1.6 1.5v3.9q.1 1.7.4 2 .3.2 1.9.3"/><path fill="#393939" d="M401.2 875.2q0-2.8-.3-3.1-.4-.3-3.2-.3-3 0-3.4.4-.3.3-.3 3.3v2q.1 1.4.4 1.6.3.3 1.6.3h1q3.5 0 3.9-.3.3-.3.3-3.9"/><path fill="#353636" d="M398.3 895.8q-3.6 0-3.9.3-.3.3-.3 3.8 0 2.8.2 3.2.4.3 3.2.3 3 0 3.4-.3.3-.4.3-3.3v-2.3q.1-1.9-1.6-1.7h-1.3"/><path fill="#333434" d="M401.2 923.5v-.7q0-2.3-.4-2.6-.4-.5-2.7-.5-3.4.1-3.8.4-.2.3-.2 3.8 0 2.9.2 3.1.4.4 3.1.4 3.2 0 3.5-.3.3-.3.3-3.5"/><path fill="#3A3A3A" d="M400.9 860.4q-.3-.3-3.3-.3-2.9 0-3.2.3-.3.3-.3 3.3t.3 3.1q.4.4 3.3.4t3.2-.3q.3-.3.3-3.3 0-2.9-.3-3.2"/><path fill="#323333" d="M394 935.4q.1 3.1.4 3.5.4.3 3.5.3 2.6 0 3-.4.3-.3.3-3 0-3.1-.3-3.4-.3-.3-3.6-.4-2.6 0-2.9.3-.3.4-.3 3.1"/><path fill="#353535" d="M401.2 911.4q0-2.7-.3-3-.4-.4-3-.3-3.2 0-3.5.3-.3.3-.3 3.5 0 2.6.3 3 .3.3 3 .3 3.1 0 3.5-.4.2-.2.3-3.4"/><path fill="#373838" d="M397.6 884q-2.9 0-3.2.4-.3.3-.3 3.2 0 3 .3 3.3.3.3 3.2.3 3 0 3.2-.3.4-.3.4-3.2 0-3-.3-3.4-.4-.2-3.3-.2"/><path fill="#3C3D3D" d="M401.2 839.9q0-3.2-.3-3.5-.4-.3-3.6-.3-2.6 0-2.9.3-.3.3-.3 3 0 3.1.3 3.5.3.3 3.5.3 2.6 0 3-.4.3-.3.3-3"/><path fill="#3B3B3B" d="M417.6 911.7q0 3.4.3 3.7.3.3 3.8.3 2.9 0 3.2-.3.3-.3.3-3.2 0-3.1-.5-3.6t-3.4-.5q-3.1 0-3.4.3-.3.3-.3 3.3"/><path fill="#484E46" d="M417.9 884.4q-.3.3-.3 3.5t.2 3.5q.4.3 3.5.3 3.2 0 3.5-.3.4-.3.4-3.4 0-3-.5-3.5-.4-.5-3.3-.5-3.2.1-3.5.4"/><path fill="#8EB872" d="M421.3 760q3 0 3.5-.4.3-.3.3-3.5 0-3.1-.3-3.4-.3-.3-3.4-.3-3.2 0-3.5.3-.4.3-.4 3.5t.3 3.5q.3.3 3.5.3"/><path fill="#3B3B3B" d="M417.9 632.8q-.3.3-.3 3.4 0 3.2.2 3.5.4.3 3.7.4h1.5q1.4 0 1.8-.5.3-.4.4-1.8v-1.3q0-3-.5-3.5t-3.5-.5q-3 0-3.4.3"/><path fill="#484E46" d="M421.5 664.1h1q1.8 0 2.3-.5.3-.4.4-2.1v-1q0-3-.5-3.5-.5-.6-3.5-.5-3 0-3.4.3-.3.3-.3 3.4 0 3.3.4 3.6.3.3 3.6.3"/><path fill="#97C677" d="M421.6 783.9h.3q2.4 0 2.8-.4.4-.5.4-3 0-3-.5-3.6-.6-.6-3.6-.5-2.9 0-3.1.3-.3.2-.3 3.1 0 3.4.2 3.7.4.4 3.8.4"/><path fill="#5A6A51" d="M425.1 684.1q0-2.8-.4-3.2-.5-.5-3.4-.5-3.2 0-3.5.3-.3.3-.3 3.5t.3 3.5q.3.3 3.5.3 2.9 0 3.3-.5.5-.4.5-3.4"/><path fill="#6B825B" d="M421.2 843.8q3.4-.1 3.6-.3.3-.4.3-3.6 0-2.8-.4-3.3-.5-.5-3.4-.5t-3.3.5q-.5.5-.5 3.4 0 3.1.3 3.4.3.3 3.4.3"/><path fill="#596951" d="M421.1 867.8q3.4-.1 3.7-.3.3-.4.3-3.6.1-2.8-.4-3.3t-3.3-.5q-2.9 0-3.4.5t-.5 3.4q0 3 .4 3.4.3.3 3.3.3"/><path fill="#7B9C65" d="M417.6 732.1q0 3.3.3 3.6.3.2 3.6.3h1q1.9 0 2.3-.4.3-.4.4-2.2v-1q0-3.2-.4-3.6-.5-.4-3.6-.3-3 0-3.3.3-.3.3-.3 3.4"/><path fill="#343535" d="M421.2 651.9h2.3q1.8 0 1.7-1.7v-1.3q0-3.5-.3-3.8-.4-.4-3.9-.4-2.8 0-3.1.3-.4.3-.4 3.1 0 3 .3 3.4.4.3 3.4.3"/><path fill="#515C4B" d="M421.2 675.8h2.3q1.8.1 1.7-1.6v-1.3q0-3.6-.3-3.9-.4-.3-3.9-.3-2.8 0-3.2.3-.3.3-.3 3.1 0 3 .3 3.3.4.4 3.4.4"/><path fill="#627656" d="M417.9 693q-.3.3-.3 2.2v.8q0 3.2.2 3.5.4.3 3.5.3h2q2 .2 1.9-1.7v-3.6q.1-2-1.8-1.8h-3.3q-1.9 0-2.3.3"/><path fill="#749161" d="M418 716.9q-.5.3-.5 3.1 0 3.2.4 3.5.3.3 3.5.3 3.1 0 3.4-.3.3-.3.3-3.3t-.3-3.3q-.3-.2-3.4-.2-3.2 0-3.4.2"/><path fill="#86AC6D" d="M421.1 747.8q3.4 0 3.6-.3.4-.2.4-3.3t-.3-3.4q-.3-.2-3.4-.2-3.3 0-3.5.3-.4.3-.4 3.4 0 2.9.3 3.2.3.3 3.3.3"/><path fill="#98C877" d="M421.1 771.8q3.4 0 3.6-.3.4-.2.4-3.3 0-3-.3-3.4-.3-.3-3.5-.3-3.1 0-3.4.3-.3.3-.3 3.5 0 3 .2 3.2.4.3 3.4.3"/><path fill="#8FBA72" d="M417.9 788.9q-.3.3-.3 3.4 0 2.9.2 3.2.4.3 3.4.3l3.6-.2q.3-.3.3-3.4t-.3-3.4q-.3-.3-3.5-.3-3.1 0-3.4.4"/><path fill="#86AC6D" d="M417.9 800.6q-.3.3-.3 3.3t.2 3.4q.4.3 3.5.3h1.4q1.8 0 2-.3.4-.3.4-2v-1q0-3.4-.3-3.7-.3-.2-3.8-.2-2.9 0-3.1.2"/><path fill="#7C9E65" d="M417.9 812.9q-.3.3-.3 3.2 0 3 .2 3.4.3.2 3.4.3h.5q2.8 0 3.1-.3.3-.3.3-3.2 0-3.1-.3-3.4-.4-.3-3.5-.3t-3.4.3"/><path fill="#749161" d="M417.9 824.6q-.3.3-.3 3.1 0 3.2.2 3.5.3.3 3.5.3h.7q2.4 0 2.7-.3.4-.4.4-2.6 0-3.6-.3-4-.3-.2-3.8-.2-2.8 0-3.1.3"/><path fill="#627555" d="M421.3 855.5h1.8q1.4 0 1.7-.3.3-.3.3-1.6v-.8q0-3.8-.2-4.1-.3-.3-4.1-.3-2.7-.1-3 .3-.3.3-.2 3 0 3.2.2 3.5.4.3 3.5.3"/><path fill="#505B4B" d="M421.2 879.5h2q1.4 0 1.7-.3.3-.3.3-1.6v-1q0-3.6-.3-4-.3-.2-3.9-.2-2.8-.1-3.1.3-.4.3-.3 3 0 3.1.2 3.5.4.3 3.4.3"/><path fill="#343535" d="M417.9 896.6q-.3.4-.3 2.2v.8q0 3.2.3 3.5.3.3 3.5.3h2q1.9.2 1.8-1.7v-3.9q0-1.5-1.5-1.5H420q-1.9 0-2.3.3"/><path fill="#5E7254" d="M417.9 704.8q-.3.3-.4 3.7 0 3 .4 3.3.3.3 3.4.3 3.2 0 3.5-.4.4-.3.4-3.6 0-3-.3-3.4-.3-.3-3.3-.3-3.5 0-3.8.3"/><path fill="#6C845C" d="M418.4 705.3q-.3.3-.3 1.9 0 3.8.3 4 .3.3 4 .3 1.7 0 2-.3.2-.3.3-1.9v-1q0-2.7-.3-3-.4-.4-3-.4h-1q-1.7 0-2 .3"/><path fill="#353636" d="M440.5 683q0-3.3-.3-3.6-.4-.3-3.7-.4-3 0-3.3.3-.4.4-.4 3.4 0 3.3.3 3.6.3.4 3.6.4 3.1 0 3.4-.4.4-.3.4-3.3"/><path fill="#3C3D3D" d="M440.1 607.4q-.3-.3-3.8-.3-2.8 0-3.1.3-.3.3-.3 3.3 0 3.4.3 3.7.3.3 3.8.3 2.9 0 3.2-.3.3-.3.3-3.3 0-3.4-.3-3.8"/><path fill="#3A3A3A" d="M436.9 631q-3.4.1-3.7.3-.3.4-.3 3.6 0 3.1.3 3.4.3.4 3.3.4 3.4 0 3.7-.3.3-.3.3-3.6 0-3.1-.3-3.4-.3-.3-3.3-.3m3.6 135.4q0-3.2-.3-3.5-.4-.3-3.5-.3-3.2 0-3.5.3-.4.3-.4 3.5t.4 3.5q.3.3 3.5.3 3.1 0 3.4-.3.3-.3.4-3.5"/><path fill="#383838" d="M440.5 742.5q0-3.1-.3-3.5-.4-.3-3.6-.3-3.1 0-3.5.4-.3.3-.3 3.5 0 3.1.4 3.5.3.3 3.5.3t3.5-.3q.2-.4.3-3.6m0-83.8q0-3-.3-3.4-.4-.2-3.5-.2-3.2 0-3.5.3-.4.3-.4 3.7 0 3 .4 3.3.3.3 3.4.3 3.2 0 3.6-.3.3-.3.3-3.7"/><path fill="#353636" d="M440.5 717q0-1.4-.5-1.8-.3-.3-1.8-.5h-1.3q-3 0-3.5.5t-.6 3.5q0 3 .4 3.4.3.3 3.4.3 3.2 0 3.5-.3.4-.4.4-3.7V717"/><path fill="#3B3C3C" d="M440.5 623.5q0-3.5-.3-3.9-.4-.3-3.9-.3-2.8 0-3.1.3-.4.4-.4 3.1 0 3.1.4 3.4.3.3 3.3.3h2q1.4 0 1.6-.3.3-.3.4-1.6v-1"/><path fill="#393939" d="M436.6 650.5h2q1.3-.1 1.5-.4.4-.3.4-1.6v-1q0-3.6-.3-3.9-.3-.3-3.9-.3-2.8 0-3.1.3-.3.4-.3 3.1 0 3 .3 3.4.3.3 3.4.4"/><path fill="#373737" d="M440.5 671.1q0-3.2-.3-3.5-.4-.3-3.5-.3h-2q-2-.1-1.9 1.8v3.8q0 1.6 1.5 1.5h3.8q1.7 0 2-.3.3-.3.4-2v-1"/><path fill="#343535" d="M432.9 694.6q0 3.1.3 3.4.3.4 3.3.4h2.3q1.8.1 1.7-1.6v-1.3q0-3.6-.3-3.9-.3-.3-3.8-.3-2.8 0-3.2.3-.3.3-.3 3m7.6 13.6v-1q0-3.5-.3-3.9-.4-.2-4-.3-2.7 0-3 .3-.4.4-.4 3.2 0 3 .4 3.3.3.4 3.4.4h2q1.3-.1 1.6-.4.3-.2.3-1.6"/><path fill="#373737" d="M440.1 733.9q.4-.4.4-3.4 0-2.9-.3-3.1-.4-.4-3.4-.4h-.7q-2.6 0-3 .3-.3.4-.3 3 0 3.2.4 3.6.3.3 3.5.3 3.1 0 3.5-.4"/><path fill="#393939" d="M436.8 751h-1.6q-1.7 0-2 .3-.3.4-.3 2.2v.5q0 3.5.3 3.8.3.3 3.9.4 2.7 0 3.1-.4.3-.3.3-3.1 0-3-.3-3.4-.4-.3-3.5-.3"/><path fill="#3B3C3C" d="M440.5 778.9q0-3.3-.3-3.6-.4-.3-3.5-.3h-1.5q-1.7 0-2 .3-.3.3-.3 2v3q-.2 1.9 1.7 1.9l3.5-.1q1.7 0 2-.3.3-.3.4-2v-1"/><path fill="#3C3D3D" d="M440.1 888.2q-.3-.3-3.8-.3-2.8 0-3.1.4-.3.3-.3 3.2 0 3.4.3 3.8.3.3 3.8.3 2.9 0 3.2-.4.3-.3.3-3.3 0-3.3-.3-3.7"/><path fill="#3A3A3A" d="M436.9 911.9q-3.4 0-3.7.3-.3.3-.3 3.6 0 3 .3 3.4.3.3 3.3.3 3.4 0 3.7-.3.3-.3.3-3.6 0-3-.3-3.4-.3-.3-3.3-.3"/><path fill="#383838" d="M440.5 939.5q0-3-.3-3.3-.4-.3-3.5-.3-3.2 0-3.5.3-.4.3-.4 3.7 0 3 .4 3.4.3.3 3.4.2 3.2 0 3.6-.3.3-.3.3-3.6"/><path fill="#3B3C3C" d="M440.5 904.4q0-3.6-.3-3.9-.4-.3-3.9-.3-2.8 0-3.1.3-.4.3-.4 3.1 0 3 .4 3.4.3.3 3.3.3h2q1.4 0 1.6-.3.3-.3.4-1.6v-1"/><path fill="#393939" d="M436.6 931.3h2q1.3 0 1.5-.3.4-.3.4-1.6v-1q0-3.6-.3-4-.3-.2-3.9-.2-2.8-.1-3.1.3-.3.3-.3 3 0 3.1.3 3.5.3.3 3.4.3"/><path fill="#343535" d="M486.4 637q0-1.3-.3-1.6-.3-.3-1.6-.3h-1q-3.6 0-3.9.3-.3.3-.3 3.9 0 2.7.3 3 .3.4 3.1.4 3 0 3.4-.3.3-.4.3-3.4v-2"/><path fill="#515C4B" d="M484.4 659h-1.2q-3.3 0-3.6.4-.3.3-.3 3.6 0 3 .3 3.4.3.3 3.4.3 2.8 0 3.1-.4.3-.3.3-3.1v-2.3q0-1.3-.3-1.6-.3-.2-1.7-.2"/><path fill="#637656" d="M486.4 685q0-1.3-.3-1.6-.3-.3-1.6-.3h-1q-3.6 0-3.9.3-.3.3-.4 3.9 0 2.7.4 3 .3.4 3.1.4 3.1 0 3.4-.3.3-.3.3-3.4v-2"/><path fill="#749161" d="M486.4 710.9q0-3.2-.2-3.5-.4-.3-3.3-.3-3 0-3.4.3-.3.3-.3 3.6 0 3 .4 3.3.2.3 3.1.3 3.1 0 3.5-.3.2-.3.2-3.5"/><path fill="#86AC6C" d="M486.4 735q0-3.3-.2-3.6-.3-.3-3.4-.3-3 0-3.3.3-.3.3-.3 3.3 0 3.3.3 3.6.3.3 3.4.3 3 0 3.2-.3.3-.3.3-3.3"/><path fill="#97C777" d="M486.5 760.9V758q0-2.4-.4-2.7-.3-.3-2.7-.3-3.6 0-3.9.3-.3.3-.3 3.8 0 2.8.3 3.1.3.3 3.1.3h2.1q2 .1 1.8-1.8"/><path fill="#8FBA72" d="M486.4 782.9v-.5q0-2.8-.2-3.1-.4-.3-3.2-.3-3.2 0-3.5.3-.3.3-.3 3.5 0 3.1.3 3.5.3.3 3.3.3t3.4-.4q.2-.2.3-3.3"/><path fill="#7C9E66" d="M486.4 807q0-3.4-.2-3.6-.3-.4-3.1-.4-3.3 0-3.6.3-.3.3-.3 3.6 0 3 .3 3.3.3.3 3.4.3 3 0 3.2-.3.3-.3.3-3.2"/><path fill="#6C845C" d="M479.3 828.6v4.3q-.1 1.8 1.6 1.7h1.6q3.3 0 3.6-.3.3-.3.3-3.6 0-3.1-.3-3.4-.3-.3-3.4-.3H481q-1.7-.1-1.7 1.6"/><path fill="#5A6A51" d="M482.6 858.6q3.2 0 3.5-.3.3-.3.3-3.5v-2.1q.2-1.9-1.7-1.8h-1.1q-3.7.1-4 .4-.3.3-.3 4 0 2.7.3 3 .3.3 3 .3"/><path fill="#484E46" d="M479.3 878.7v1.5q0 1.8.3 2 .4.3 2.2.4h.5q3.5 0 3.8-.3.3-.3.4-4 0-2.7-.4-3-.3-.3-3.1-.3-3 0-3.4.3-.3.4-.3 3.4"/><path fill="#3B3B3B" d="M482.4 906.5q3.4 0 3.7-.3.3-.3.3-3.6v-2.2q0-1.4-1.3-1.4l-1.3-.1q-3.9.1-4.2.3-.3.3-.3 4.1 0 2.5.4 2.9.4.4 2.7.3m.7-283.2q-3.1 0-3.5.3-.3.4-.3 3.5 0 2.7.3 3 .3.3 3 .3 3.2 0 3.5-.3.3-.3.3-3.5 0-2.6-.3-3-.3-.3-3-.3"/><path fill="#7D9F66" d="M486.4 722.8q0-3-.2-3.3-.4-.3-3.3-.3-3 0-3.4.3-.3.3-.3 3.4 0 3 .3 3.3.3.2 3.2.2 3.1 0 3.4-.3.3-.3.3-3.3"/><path fill="#759261" d="M483 815.1q-3.1.1-3.4.4-.4.3-.4 3.5 0 2.8.4 3 .3.4 3 .4 3.3 0 3.6-.3.3-.3.3-3.5 0-2.8-.4-3.1-.3-.3-3-.3"/><path fill="#515C4B" d="M483 863.2q-3 0-3.4.3-.3.3-.3 3.4 0 2.8.3 3.1.3.3 3.1.3 3.1 0 3.4-.3.3-.3.3-3.4 0-2.7-.3-3-.3-.4-3.1-.4"/><path fill="#87AD6D" d="M482.9 798.4q3 0 3.3-.3.2-.3.2-3.3t-.2-3.3q-.4-.3-3.4-.3t-3.3.3q-.3.3-.3 3.2 0 3 .3 3.4.3.3 3.4.3"/><path fill="#343535" d="M482.9 894.4q2.9-.1 3.2-.4.3-.3.3-3.3t-.3-3.2q-.3-.3-3.3-.3-2.9 0-3.2.3-.3.3-.3 3.3 0 2.9.3 3.2.3.3 3.3.3"/><path fill="#6C845C" d="M482.7 702.5q3.1-.1 3.4-.3.3-.4.3-3.4 0-2.9-.2-3.2-.4-.3-3.3-.3-3 0-3.4.3-.3.3-.3 3.4 0 2.8.4 3.1.3.4 3.1.4"/><path fill="#5A6A51" d="M483 671.3q-3.1 0-3.4.3-.3.3-.3 3.5 0 2.6.3 3 .3.3 3 .3 3.1 0 3.5-.3.3-.3.3-3.4 0-2.8-.2-3-.4-.4-3.1-.5"/><path fill="#90BB73" d="M486.4 746.9q0-3.1-.2-3.3-.3-.3-3.1-.3-3.4 0-3.6.2-.3.3-.3 3.5 0 2.9.3 3.2.3.3 3.3.3t3.3-.3q.3-.3.3-3.3"/><path fill="#99C978" d="M479.5 767.5q-.3.3-.3 3 0 3.4.3 3.7.2.2 3.5.2 2.9 0 3.2-.2.3-.3.3-3.2-.1-3.3-.4-3.5t-3.4-.3h-.3q-2.6 0-2.9.3"/><path fill="#637656" d="M482.8 846.4q3 0 3.3-.3.3-.3.3-3.2 0-3-.2-3.3-.4-.4-3.4-.4-2.9 0-3.2.3-.3.3-.3 3.3 0 2.9.3 3.3.3.2 3.2.2"/><path fill="#484E46" d="M482.9 654.5q2.9-.1 3.2-.4.3-.3.3-3.3t-.3-3.2q-.3-.3-3.3-.3-2.8 0-3.2.4-.3.3-.3 3.2 0 2.9.3 3.2.4.3 3.3.4"/><path fill="#505B4B" d="M514 744.5q-.5-.5-3.5-.5t-3.3.4q-.3.3-.3 3.4 0 3.3.3 3.5.3.3 3.6.4h1q1.9 0 2.3-.5.4-.4.4-2.1v-1q0-3-.5-3.6"/><path fill="#739060" d="M506.9 795.6q0 3.4.3 3.7.3.3 3.5.3 2.8 0 3.3-.4.5-.5.5-3.3 0-3-.5-3.5-.4-.3-3.5-.3-3 0-3.3.2-.3.4-.3 3.3"/><path fill="#97C677" d="M506.9 843.7q0 3.4.2 3.6.3.3 3.4.3t3.5-.3q.4-.3.4-3.4 0-3.2-.4-3.5-.3-.3-3.5-.3-3.1 0-3.3.3-.3.3-.3 3.3"/><path fill="#627555" d="M510.4 768q-2.9 0-3.2.4-.3.3-.3 3.3v2.5q-.1 1.5 1.5 1.4h4q1.3 0 1.7-.4.3-.3.4-1.5v-1.5q0-3.3-.5-3.7-.4-.5-3.7-.5"/><path fill="#85AA6C" d="M510.4 823.6q3.3 0 3.5-.3.5-.3.5-3.6 0-2.9-.5-3.3-.3-.3-3-.3-3.5 0-3.8.3-.3.3-.3 3.7 0 3 .3 3.2.3.3 3.3.4"/><path fill="#596951" d="M514.5 941v-1q0-3.1-.5-3.6-.5-.4-3.5-.4t-3.4.3q-.3.3-.3 3.2v2q.1 1.3.5 1.7.3.4 1.7.4h2.8q1.8 0 2.2-.4.4-.4.5-2.2"/><path fill="#8EB872" d="M510.6 864q-3.2 0-3.5.3-.2.3-.2 3.5 0 3 .2 3.3.4.4 3.5.4 3 0 3.4-.3.4-.4.4-3.6 0-3-.5-3.4-.3-.2-3.3-.2"/><path fill="#7B9C65" d="M514.5 891.6v-.8q-.1-2.1-.4-2.4-.4-.4-2.5-.4-4.2.1-4.4.3-.2.3-.3 4.8 0 1.7.3 2 .4.4 2 .4h1.2q3.2 0 3.6-.3.5-.5.5-3.6"/><path fill="#6B825B" d="M506.9 915.6q0 3 .5 3.5.4.5 3.3.5 2.8 0 3.3-.5t.5-3.3q0-2.9-.5-3.4t-3.4-.5q-3.1.1-3.4.4-.3.3-.3 3.4"/><path fill="#343535" d="M512.4 720h-1.3q-3.6.1-3.9.4-.3.3-.3 3.8 0 2.8.2 3.1.4.4 3.1.4 3.1 0 3.5-.3.3-.3.3-3.4v-2.3q.1-1.7-1.6-1.7"/><path fill="#87AD6D" d="M514.4 880q0-3.3-.3-3.5-.4-.3-3.7-.3-3 0-3.3.3-.3.3-.3 3.2 0 3.1.3 3.4.3.3 3.3.3h.6q2.8 0 3-.2.4-.4.4-3.2"/><path fill="#97C777" d="M514.4 856q0-3.3-.3-3.5-.3-.3-3.5-.3-3.1 0-3.4.3-.3.2-.3 3.3 0 3 .2 3.3t3.4.3h.5q2.8 0 3-.3.4-.3.4-3.1"/><path fill="#759261" d="M514.5 904.3q-.1-3.5-.4-3.8-.3-.3-3.6-.3-3 0-3.3.3-.3.3-.3 3.1 0 3.1.3 3.4.3.3 3.3.4h1q2.3 0 2.6-.3.3-.4.3-2.8"/><path fill="#637656" d="M514.5 928.9v-.5q0-3.5-.3-3.9-.4-.3-4-.3-2.7 0-3 .3-.4.4-.4 3.2 0 3 .4 3.4.3.3 3.4.3h1.5q1.7-.1 2-.4.3-.3.4-2.1"/><path fill="#6B835C" d="M514 780.6q-.4-.4-3.8-.4-2.7 0-3 .4-.4.3-.4 3.1 0 3.1.3 3.4.4.3 3.4.3h2.3q1.8.2 1.7-1.5v-1.3q0-3.5-.5-4"/><path fill="#5A6A51" d="M510.7 763.5q3.1-.1 3.4-.3.4-.4.4-3.3 0-2.7-.5-3.1-.6-.5-3.7-.5-2.8 0-3.1.3-.3.3-.3 3.1 0 3.1.3 3.4.3.3 3.5.3"/><path fill="#8FBA72" d="M513.9 828.5q-.3-.2-3.5-.3-3 0-3.3.3-.3.3-.3 3.3t.3 3.4q.3.2 3.3.2h.6q2.7 0 3-.2.3-.3.4-3.1 0-3.3-.5-3.7"/><path fill="#7C9E66" d="M510.7 811.5q3.1-.1 3.4-.3.3-.3.3-3.4.1-3-.5-3.3-.3-.2-3.4-.2-3 0-3.3.3-.3.2-.3 3.1 0 3.1.2 3.4.3.3 3.6.3"/><path fill="#484E46" d="M510.8 732.3h-2q-1.4.1-1.7.3-.3.3-.3 1.6.1 4.6.4 4.9.3.3 4.8.3h.6q1.9 0 1.9-1.7V736q0-2.8-.5-3.3t-3.3-.5"/><path fill="#3B3B3B" d="M514 712q0-3-.3-3.3-.4-.4-3.3-.4-2.8 0-3.2.4-.3.3-.3 3.2 0 2.9.3 3.2.3.4 3.2.4 3 0 3.3-.3.3-.4.3-3.2"/><path fill="#3C3D3D" d="M525.8 671.1q-.1-1.3-.4-1.5-.3-.3-1.6-.3h-1q-3.6 0-3.9.3-.3.3-.3 3.9 0 2.7.3 3 .4.4 3.1.4 3 0 3.4-.3.3-.3.4-3.4v-2"/><path fill="#3B3C3C" d="M522.2 689.1q2.9 0 3.2-.3.3-.3.4-3.3v-.7q0-2.6-.4-3-.3-.3-3-.3-3.1 0-3.4.3-.4.3-.4 3.5t.3 3.5q.3.3 3.3.3"/><path fill="#3A3A3A" d="M525.8 696.3q0-2.3-.4-2.7-.4-.4-2.7-.3-3.5 0-3.8.3-.3.3-.3 3.8 0 2.8.3 3.1.3.4 3 .4 3.2 0 3.5-.3.3-.4.3-3.6v-.8"/><path fill="#383838" d="M525.8 721v-.8q0-2.3-.4-2.6-.4-.4-2.8-.4-3.4 0-3.7.3-.3.4-.3 3.9 0 2.8.3 3.1.3.4 3 .3 3.2 0 3.5-.3.3-.3.3-3.5"/><path fill="#353636" d="M525.8 745v-2q0-1.9-1.8-1.8h-3.8q-1.6 0-1.6 1.5v3.9q0 1.7.3 2 .3.2 2 .3h1q3.2 0 3.5-.3.3-.4.4-3.5"/><path fill="#343535" d="M525.8 769v-1.5q-.1-1.7-.3-2-.3-.3-2-.3h-3q-2 0-1.9 1.7v3.6q0 1.7.3 2 .3.3 2 .3h1q3.2 0 3.5-.3.3-.3.3-3.5"/><path fill="#373737" d="M525.4 789.5q-.3-.3-3.1-.3-3 0-3.4.3-.3.3-.3 3.3v2.1q0 1.3.3 1.6.3.3 1.6.3h1q3.6 0 3.9-.3.3-.3.3-3.9 0-2.7-.3-3"/><path fill="#393939" d="M525.8 817v-2q.1-1.9-1.8-1.8h-4.1q-1.3 0-1.3 1.3v3.5q0 2.1.3 2.5.4.3 2.5.4h.5q3.2-.1 3.5-.4.3-.3.4-3.5"/><path fill="#3B3C3C" d="M522 844.8q3.1 0 3.5-.3.3-.3.3-3.5 0-3.1-.3-3.5-.4-.3-3.3-.3-3 0-3.2.3-.4.3-.4 3.3v.8q0 2.5.3 2.9.4.3 3 .3"/><path fill="#373737" d="M525.8 732.9q0-2.8-.4-3.1-.3-.3-3.1-.3H520q-.6 0-1 .3-.5.4-.5 3.3t.5 3.3q2.5 1.4 5.9.1.9-.3.9-1.4V733"/><path fill="#343535" d="M518.6 756.9q0 3 .3 3.4.3.3 3.4.3 2.8 0 3.1-.3.3-.4.3-3.1 0-3.1-.3-3.4-.3-.3-3.4-.3-2.7 0-3 .3-.4.3-.4 3.1"/><path fill="#3C3D3D" d="M525.8 853q-.1-3-.4-3.3-.3-.3-3.1-.3-3 0-3.3.3-.4.3-.4 3.2 0 3 .3 3.3.4.3 3.2.3 3 0 3.3-.3.3-.3.3-3.2"/><path fill="#3A3A3A" d="M525.8 829q-.1-3-.4-3.3-.3-.3-3.1-.3-3 0-3.3.4-.4.3-.4 3.2 0 2.9.3 3.2.4.3 3.2.3 3 0 3.3-.2.3-.4.3-3.2"/><path fill="#383838" d="M525.8 805q-.1-2.9-.4-3.3-.3-.3-3.2-.3-3 0-3.3.4-.3.3-.3 3.2 0 2.9.3 3.3.3.3 3.2.3 3 0 3.3-.3.3-.3.3-3.2"/><path fill="#353636" d="M525.8 781.3q-.1-3.2-.4-3.5-.3-.3-3.5-.3-2.6 0-3 .3-.3.3-.3 3 0 3.1.3 3.5.3.3 3.5.3 2.7 0 3-.3.3-.4.3-3"/><path fill="#393939" d="M522.3 705.5q-3 0-3.4.3-.3.4-.3 3.4 0 2.8.3 3.1.4.4 3.2.3 3 0 3.3-.3.3-.3.4-3.4 0-2.8-.4-3.1-.3-.3-3.1-.3"/><path fill="#3B3C3C" d="M540.3 480.3h-3.8q-1.6 0-1.5 1.6l-.1 3q0 2.3.5 2.7.3.3 2.6.4h.3q3.2 0 3.5-.3.3-.4.3-3.6v-2q.1-1.9-1.8-1.8"/><path fill="#393939" d="M539.8 504.3h-3q-2-.1-1.9 1.8v3.5q0 1.7.3 2 .3.3 2 .3h1q3.2 0 3.5-.2.3-.4.3-3.5v-1.5q0-1.7-.3-2-.3-.3-1.9-.4"/><path fill="#353636" d="M542 543.8v-2.3q0-1.4-1.4-1.4h-1.2q-3.9 0-4.2.3-.2.3-.3 4.1 0 2.4.5 2.8.4.4 2.8.4 3.2 0 3.5-.3.3-.3.3-3.6"/><path fill="#343535" d="M542 568v-2q0-1.3-.3-1.6-.3-.3-1.6-.3h-1q-3.6 0-3.9.3-.3.3-.3 3.8 0 2.8.4 3.1.3.4 3 .4 3.1 0 3.4-.3.3-.3.3-3.4"/><path fill="#373737" d="M542 592v-2.1q0-1.3-.3-1.5t-1.6-.4h-1q-3.5 0-3.9.4-.3.3-.3 3.9 0 2.7.4 3 .3.4 3.1.4 3 0 3.4-.4.3-.3.3-3.3"/><path fill="#393939" d="M542 615.8v-1.3q0-1.9-.3-2.1-.3-.4-2.3-.4-3.8 0-4.1.3-.3.3-.3 4.1-.1 2.5.2 2.9.3.4 2.9.3 3.3 0 3.6-.3.3-.2.3-3.5"/><path fill="#3B3C3C" d="M534.9 639.8v2q0 1.9 1.8 1.8h3.8q1.6 0 1.5-1.5v-3.6q0-1.8-.3-2.2-.3-.3-2.2-.3h-.8q-3.1 0-3.5.3-.3.3-.3 3.5"/><path fill="#373737" d="M538.6 528.3q-3 0-3.3.3-.3.3-.4 3.3v2.3q0 .8.6 1.1 2.6 1.4 5.9 0 .7-.4.7-1.4v-2.2q0-2.8-.4-3-.3-.4-3-.4"/><path fill="#383838" d="M538.7 516.5q-3.1.1-3.5.4-.3.3-.3 3.5 0 2.6.4 3 .3.3 3 .3 3.1 0 3.5-.4.3-.3.3-3.5 0-2.6-.4-2.9-.3-.4-3-.4m3 90.5q.3-.3.3-3.2 0-2.9-.3-3.2-.3-.4-3.2-.4-2.9 0-3.3.4-.3.3-.3 3.2t.3 3.3q.4.3 3.3.3t3.2-.4"/><path fill="#3A3A3A" d="M538.5 492.6q-2.9 0-3.3.3-.3.3-.3 3.2 0 3 .4 3.3.3.3 3.2.3 2.9 0 3.3-.3.3-.3.3-3.2 0-3-.4-3.3-.3-.3-3.2-.3M542 628q0-3.1-.3-3.4-.3-.3-3.5-.4-2.6 0-3 .4-.3.3-.3 3 0 3.1.3 3.5.4.3 3.5.3 2.7 0 3-.4.4-.3.3-3"/><path fill="#3C3D3D" d="M538.5 648.3q-2.9 0-3.2.3-.3.3-.3 3.3-.1 2.9.3 3.2.3.3 3.3.3 2.8 0 3.1-.3.3-.4.3-3.4 0-2.8-.3-3.1-.3-.3-3.3-.3"/><path fill="#353636" d="M541.8 583q.3-.3.3-3.3 0-2.8-.4-3.1-.3-.3-3.1-.3-3 0-3.4.3-.3.3-.3 3.4 0 2.8.3 3.1.4.3 3.2.3 3 0 3.4-.3"/><path fill="#343535" d="M542 556q0-3-.3-3.4-.3-.3-3.4-.3-2.8 0-3.1.4-.3.3-.3 3.1 0 3 .4 3.4.3.2 3.4.3 2.7 0 3-.4.3-.3.3-3.1"/><path fill="#3B3C3C" d="M540.3 763.8h-3.8q-1.6 0-1.5 1.6l-.1 3q0 2.3.5 2.7.3.3 2.6.4h.3q3.2 0 3.5-.4.3-.3.3-3.5v-2q.1-1.9-1.8-1.8"/><path fill="#393939" d="M539.8 787.8h-3q-2-.1-1.9 1.8v3.5q0 1.7.3 2 .3.3 2 .3h1q3.2 0 3.5-.3.3-.3.3-3.4v-1.6q0-1.7-.3-2-.3-.3-1.9-.3"/><path fill="#353636" d="M542 827.3V825q0-1.4-1.4-1.4h-1.2q-3.9 0-4.2.3-.2.3-.3 4.1 0 2.4.5 2.8.4.4 2.8.4 3.2 0 3.5-.3.3-.3.3-3.6"/><path fill="#343535" d="M542 851.5v-2q0-1.3-.3-1.6-.3-.3-1.6-.3h-1q-3.6 0-3.9.3-.3.3-.3 3.8 0 2.8.4 3.1.3.4 3 .4 3.1 0 3.4-.3.3-.3.3-3.4"/><path fill="#373737" d="M542 875.5v-2.1q0-1.3-.3-1.5t-1.6-.4h-1q-3.5 0-3.9.4-.3.3-.3 3.9 0 2.7.4 3 .3.4 3.1.4 3 0 3.4-.4.3-.3.3-3.3"/><path fill="#393939" d="M542 899.3V898q0-1.9-.3-2.1-.3-.4-2.3-.4-3.8 0-4.1.3-.3.3-.3 4.1-.1 2.5.2 2.9.3.4 2.9.3 3.3 0 3.6-.3.3-.2.3-3.5"/><path fill="#3B3C3C" d="M534.9 923.3v2q0 1.9 1.8 1.8h3.8q1.6 0 1.5-1.5V922q0-1.8-.3-2.2-.3-.3-2.2-.3h-.8q-3.1 0-3.5.3-.3.3-.3 3.5"/><path fill="#373737" d="M538.6 811.8q-3 0-3.3.3-.3.3-.4 3.3v2.3q0 .8.6 1.1 2.6 1.4 5.9 0 .7-.4.7-1.4v-2.2q0-2.8-.4-3-.3-.4-3-.4"/><path fill="#383838" d="M538.7 800q-3.1.1-3.5.4-.3.3-.3 3.5 0 2.6.4 3 .3.3 3 .3 3.1 0 3.5-.4.3-.3.3-3.5 0-2.6-.4-2.9-.3-.4-3-.4m3 90.5q.3-.3.3-3.2 0-2.9-.3-3.2-.3-.4-3.2-.4-2.9 0-3.3.4-.3.3-.3 3.2t.3 3.3q.4.3 3.3.3t3.2-.4"/><path fill="#3A3A3A" d="M538.5 776q-2.9 0-3.3.4-.3.3-.3 3.2 0 3 .4 3.3.3.3 3.2.3 2.9 0 3.3-.4.3-.3.3-3.2 0-2.9-.4-3.2-.3-.4-3.2-.4m3.5 135.5q0-3.1-.3-3.4-.3-.3-3.5-.4-2.6 0-3 .4-.3.3-.3 3 0 3.1.3 3.5.4.3 3.5.3 2.7 0 3-.4.4-.3.3-3"/><path fill="#3C3D3D" d="M538.5 931.8q-2.9 0-3.2.3-.3.3-.3 3.3-.1 2.9.3 3.2.3.3 3.3.3 2.8 0 3.1-.3.3-.4.3-3.4 0-2.8-.3-3.1-.3-.3-3.3-.3"/><path fill="#353636" d="M541.8 866.5q.3-.3.3-3.3 0-2.8-.4-3.1-.3-.3-3.1-.3-3 0-3.4.3-.3.3-.3 3.4 0 2.8.3 3.1.4.3 3.2.3 3 0 3.4-.3"/><path fill="#343535" d="M542 839.5q0-3-.3-3.4-.3-.3-3.4-.3-2.8 0-3.1.4-.3.3-.3 3.1 0 3 .4 3.4.3.2 3.4.3 2.7 0 3-.4.3-.3.3-3.1"/><path fill="#393939" d="M576.4 773.1q-3.1 0-3.5.3-.3.3-.3 3.5t.3 3.5q.3.3 3.5.3t3.5-.3q.3-.3.3-3.5 0-3.1-.3-3.5-.3-.3-3.5-.3"/><path fill="#373737" d="M576.6 797q-3.4.1-3.7.4-.3.3-.3 3.8 0 2.9.3 3.2.3.3 3.3.3 3.4 0 3.7-.3.3-.3.3-3.8 0-2.9-.3-3.2-.3-.3-3.3-.3"/><path fill="#353636" d="M576.5 845q-3.2.1-3.6.4-.3.3-.3 3.5t.4 3.5q.3.3 3.4.3 3.2 0 3.5-.3.4-.3.4-3.5t-.3-3.5q-.4-.3-3.5-.3"/><path fill="#3B3C3C" d="M576.5 904.8q-3.2 0-3.6.3-.3.3-.3 3.5 0 3.1.4 3.5.3.3 3.4.3 3.2 0 3.5-.3.4-.3.4-3.5t-.3-3.5q-.4-.3-3.5-.3"/><path fill="#343535" d="M580.3 824.9q-.1-3.2-.4-3.5-.3-.3-3.5-.3-3.1 0-3.5.3-.3.3-.3 3.5 0 3.1.3 3.5.3.3 3.5.3t3.5-.3q.3-.3.3-3.5"/><path fill="#3B3C3C" d="M580.3 753q-.1-3.2-.4-3.5-.3-.4-3.5-.4t-3.5.3q-.3.3-.3 3.5t.3 3.5q.3.3 3.4.3 3.2 0 3.6-.3.3-.3.3-3.4"/><path fill="#383838" d="M576.5 869q-3.3 0-3.6.4-.3.3-.3 3.6 0 3 .3 3.4.4.3 3.4.3 3.3 0 3.6-.4.3-.3.4-3.6 0-3-.4-3.4-.3-.3-3.4-.3"/><path fill="#393939" d="M573.1 881.3q-.5.5-.5 3.5t.3 3.4q.4.2 3.4.2 3.3 0 3.6-.3.3-.4.4-3.7v-1.7q0-1.5-1.5-1.8l-2-.1q-3.1 0-3.6.5"/><path fill="#3A3A3A" d="M576.3 768.5h2.3q1.7.1 1.6-1.6v-1.3q0-3.6-.3-3.9-.3-.3-3.9-.3-2.8 0-3 .3-.5.3-.4 3 0 3.1.3 3.4.3.4 3.3.4"/><path fill="#383838" d="M572.6 788.8q0 3 .3 3.4.3.2 3.4.3h2q1.4-.1 1.6-.3.3-.3.3-1.6v-1q0-3.6-.3-4-.3-.2-3.9-.2-2.8-.1-3.1.3-.3.3-.3 3"/><path fill="#353636" d="M579.9 809.6q-.3-.3-3.4-.3h-2q-1.3.1-1.6.3-.3.3-.3 1.6v1q0 3.6.3 4 .4.2 3.9.2 2.8.1 3.1-.3.4-.3.4-3.1 0-3-.4-3.4"/><path fill="#343535" d="M572.6 836.6q0 3.2.3 3.5.4.3 3.5.3h2q1.9.2 1.9-1.7v-3.9q0-1.5-1.5-1.5h-3.9q-1.7 0-2 .3-.2.3-.3 2v1"/><path fill="#373737" d="M576.5 864.5h2.3q1.4 0 1.4-1.4v-1.3q0-3.8-.3-4.1-.3-.3-4.1-.4-2.4 0-2.8.4-.5.4-.4 2.8 0 3.3.3 3.6.3.3 3.6.3"/><path fill="#3A3A3A" d="M576.6 900.1h2.5q1 0 1-.9l.3-3q.1-1.7-.6-2.7-.4-.7-1.7-.6l-2.3.1h-1.3q-1.3.1-1.6.3-.2.3-.3 1.7v1.2q0 3.3.4 3.6.3.3 3.6.3"/><path fill="#3C3D3D" d="M579.9 917.4q-.3-.3-3.5-.4h-2q-1.9-.1-1.8 1.8v4.1q0 1.3 1.3 1.3h3.6q2 0 2.4-.4.3-.3.4-2.5v-.5q-.1-3.2-.4-3.5m26-53q-.3-.4-3.4-.4-3.2 0-3.5.3-.4.3-.4 3.5t.3 3.5q.4.3 3.5.3 3.2 0 3.6-.2.3-.4.3-3.5 0-3.2-.3-3.5"/><path fill="#383838" d="M606.3 915.9q0-3-.5-3.5-.5-.6-3.4-.5-3.2 0-3.5.3-.3.3-.3 3.4 0 3.2.3 3.6.3.3 3.4.3 3.2 0 3.6-.3.3-.3.3-3.4"/><path fill="#353636" d="M602.3 943.5q3.4 0 3.7-.3.3-.3.3-3.8 0-2.6-.5-3.1-.5-.4-3.3-.4-3.3 0-3.6.3-.3.3-.3 3.6 0 3 .3 3.4.3.3 3.3.3"/><path fill="#3A3A3A" d="M602.7 887.9q-3.5 0-3.8.3-.2.3-.3 3.7 0 3 .3 3.3.4.3 3.4.3 3.3 0 3.7-.3.3-.3.3-3.6v-1.5q-.1-1.4-.5-1.8-.4-.4-1.8-.4h-1.3"/><path fill="#3B3C3C" d="M605.6 876.9q-.7-.8-3.5-.8-2.9 0-3.2.4-.3.3-.3 3.2v2q.1 1.3.4 1.7.4.3 1.8.4h2.8q1.4 0 1.9-.5t.7-1.8v-1q.1-2.9-.6-3.6"/><path fill="#393939" d="M606.3 901.6q0-1.5-1.5-1.5h-4.6q-1.6 0-1.6 1.5v3.6q-.1 2 1.7 2.2l1.8.3q2.8.2 3.5-.4.7-.6.7-3.4v-2.3"/><path fill="#373737" d="M602.6 924.1h-2q-1.4.1-1.6.3-.3.3-.4 1.6v1q0 3.6.3 4 .4.2 3.9.2 2.8.1 3.2-.3.3-.3.3-3 0-3.1-.3-3.4-.4-.4-3.4-.4m-4-408.4q0 3.4.3 3.7.4.4 3.9.4 2.9 0 3.2-.3.3-.4.3-3.3 0-3.4-.3-3.7-.3-.3-3.8-.3-2.9 0-3.2.3-.3.3-.4 3.3"/><path fill="#343535" d="M606.3 492q0-3.2-.3-3.5-.3-.3-3.5-.3t-3.5.3q-.4.3-.4 3.5 0 3.1.3 3.5.4.3 3.6.3 3.1 0 3.5-.3.3-.4.3-3.6"/><path fill="#393939" d="M598.6 539.9q0 3.2.3 3.5.4.3 3.5.4 2.9 0 3.4-.5t.5-3.4q0-3.1-.3-3.4-.4-.4-3.5-.4t-3.5.3q-.3.4-.4 3.5"/><path fill="#3B3C3C" d="M605.9 560.5q-.3-.3-3.4-.3H600q-1.4 0-1.4 1.4v1.2q.1 4.4.3 4.7.3.2 5 .3 1.3 0 1.8-.4.4-.5.5-1.8v-1.8q0-3-.3-3.3"/><path fill="#3C3D3D" d="M602.4 579.5q3.2 0 3.5-.3.3-.3.3-3.4.1-3-.4-3.4t-3.4-.5q-2.9 0-3.3.5-.5.4-.5 3.3 0 3.2.3 3.5.4.3 3.5.3"/><path fill="#343535" d="M602.5 476.4h-1.6q-1.6 0-2 .3-.2.3-.3 2v3q-.1 2 1.8 1.9h3.5q1.8-.1 2-.4.3-.2.3-1.9v-1q0-3.2-.3-3.5-.3-.4-3.4-.4"/><path fill="#353636" d="M606.3 505.8v-3.9q0-1.5-1.5-1.5H601q-1.7 0-2 .3-.3.3-.4 2v1q0 3.2.3 3.5.4.3 3.5.3h2q2 .2 1.9-1.7"/><path fill="#383838" d="M606.3 529.8v-3.9q0-1.6-1.6-1.5h-3q-2.3 0-2.7.4-.4.3-.4 2.6v.3q0 3.2.4 3.5.3.3 3.5.3h2q1.9.2 1.8-1.8"/><path fill="#3A3A3A" d="M605.9 548.9q-.5-.5-4.1-.5-2.4 0-2.8.4-.4.4-.4 2.8 0 3.2.4 3.6.3.3 3.5.3h1.3q1.9 0 2.2-.3.3-.4.3-2.3 0-3.6-.4-4"/><path fill="#3C3D3D" d="M353.8 819.4v-2.1q0-1.8-1.8-1.8h-4.1q-1.3 0-1.3 1.3v3.6q0 2 .4 2.4.3.4 2.5.4h.4q3.3 0 3.6-.3.2-.3.3-3.5"/><path fill="#3B3C3C" d="M346.6 831.5v2q.1 1.3.3 1.6.4.3 1.7.3h1q3.5 0 3.9-.3.3-.3.3-3.9 0-2.8-.3-3.1-.4-.4-3.2-.3-3 0-3.3.3-.3.3-.3 3.4"/><path fill="#3A3A3A" d="M353.8 843.4v-1.6q0-1.6-.3-2-.4-.2-2-.3h-2.7q-1.6 0-1.9.3-.2.3-.2 1.7v3.5q0 1.5.2 1.8.3.3 1.7.3h1.3q3.2 0 3.5-.3.4-.3.4-3.4"/><path fill="#383838" d="M353.8 869.6v-3.8q0-1.6-.4-2-.2-.2-1.9-.3h-1q-3.2 0-3.5.3-.4.4-.4 3.5v2q0 2 1.8 1.9h3.8q1.6 0 1.6-1.6"/><path fill="#353636" d="M353.8 891.9v-2.6q0-2-1.9-1.8h-1q-3.6 0-4 .3-.2.3-.2 4-.1 2.7.2 3 .4.4 3 .4 3.3 0 3.6-.3.2-.2.2-3"/><path fill="#343535" d="M353.8 915.4v-1.5q0-1.7-.3-2-.3-.3-2-.4h-2.7q-1.6 0-1.9.3-.2.3-.2 1.6v3.6q0 1.5.2 1.8.3.3 1.7.3h1.3q3.3 0 3.5-.3.4-.3.4-3.5"/><path fill="#373737" d="M353.8 939.5v-2.1q-.1-1.3-.4-1.6-.2-.2-1.5-.3h-1q-3.7 0-4 .3-.2.3-.2 3.9-.1 2.8.2 3.1.4.4 3.2.4 3-.1 3.3-.4.4-.3.4-3.3m0-60.1q0-3-.3-3.3-.4-.3-3.3-.3t-3.3.3q-.2.3-.2 3.2 0 3 .2 3.3.4.3 3.3.3t3.3-.3q.2-.3.3-3.2"/><path fill="#343535" d="M353.8 903.3q0-2.9-.3-3.2-.4-.3-3.4-.3-2.8 0-3.2.3-.2.3-.2 3.3 0 2.9.3 3.2.3.3 3.3.3 2.8 0 3.1-.3.4-.4.4-3.4"/><path fill="#393939" d="M353.8 855.6q0-3.2-.3-3.5-.4-.3-3.6-.3-2.6 0-3 .3-.3.3-.2 3 0 3.1.2 3.5.4.3 3.6.3 2.6 0 3-.3.3-.4.3-3"/><path fill="#353636" d="M353.8 927.3q0-3-.3-3.2-.4-.4-3.4-.4-2.8 0-3.2.4-.2.3-.2 3.3 0 2.8.3 3.2.3.3 3.3.3 2.8 0 3.1-.3.4-.3.4-3.3"/><path fill="#343535" d="M461.8 497.2q-3.3 0-3.6.3-.3.3-.3 3.5 0 3.1.2 3.5.4.3 3.5.3 3.2 0 3.5-.3.4-.3.4-3.4 0-3.3-.3-3.5-.3-.4-3.5-.4"/><path fill="#7C9E64" d="M465.1 660.2q.3-.3.3-3.3 0-3.4-.2-3.7-.4-.3-3.9-.3h-.2q-2.6 0-3 .4-.3.3-.2 3 0 3.6.3 3.9.2.3 3.8.3 2.9 0 3.1-.3"/><path fill="#789863" d="M465.1 684.2q.3-.3.3-3.6 0-3-.2-3.4-.4-.3-3.4-.3-3.4 0-3.6.3-.3.3-.3 3.5 0 3.1.2 3.4.3.4 3.4.4 3.4 0 3.6-.3"/><path fill="#505B4B" d="M465 528.4q.5-.5.5-3.4 0-3.2-.3-3.5-.4-.3-3.5-.3-3.2 0-3.5.3-.3.3-.3 3.4 0 3 .4 3.5.5.5 3.4.5t3.4-.5"/><path fill="#627555" d="M465.5 548.9q0-3.1-.3-3.4-.4-.3-3.4-.3-3.4 0-3.6.3-.4.3-.4 3.6 0 2.8.5 3.3.5.4 3.3.4 3 0 3.4-.5.5-.5.5-3.4"/><path fill="#97C677" d="M465.1 624.3q.3-.3.3-3.4 0-3.2-.2-3.5t-3.6-.3q-3.2.1-3.5.3t-.2 3.5q0 3 .3 3.3.3.5 3.3.5 3.3 0 3.6-.4"/><path fill="#739060" d="M465.1 576.3q.4-.4.3-3.5 0-3-.3-3.3-.3-.3-3.4-.3-3.2 0-3.5.3-.3.3-.4 3.7v.7q.1 2.1.4 2.5.4.4 2.5.4h.7q3.3 0 3.7-.5"/><path fill="#96C576" d="M465.1 636.2q.3-.3.3-3.4t-.2-3.4q-.4-.4-3.6-.4-3 0-3.4.4-.3.3-.3 3.3 0 3.2.3 3.5.3.3 3.4.3 3.2 0 3.5-.3"/><path fill="#718D5F" d="M461.6 700.9q-3.2 0-3.5.3-.2.3-.2 3.3 0 3.4.3 3.6.3.3 3.5.4 2.8 0 3.3-.5t.5-3.3q0-3-.5-3.5-.4-.4-3.4-.4"/><path fill="#86AB6C" d="M465.4 596.8q0-3.1-.2-3.4-.4-.3-3.4-.3-3.4.1-3.6.3-.3.3-.3 3.6 0 2.9.3 3.3.4.4 3.4.5 3.1 0 3.5-.5.3-.4.3-3.5"/><path fill="#3B3B3B" d="M462.2 485.4h-2.6q-1.9-.1-1.8 1.9v1q.1 3.6.4 4 .3.2 4 .3 2.6 0 3-.3.3-.4.3-3 0-3.2-.3-3.5-.3-.3-3-.3"/><path fill="#484E46" d="M464.4 516.5q1 0 1-.9l.3-3q0-1.7-.6-2.7-.5-.7-1.8-.6l-2.3.1h-1.3q-1.3.1-1.6.4-.2.2-.3 1.6v1.3q0 3.2.4 3.6.3.3 3.6.3h2.6"/><path fill="#5A6A51" d="M462.3 880.5q-3.9.1-4.2.4-.2.3-.2 4.1-.1 2.4.4 2.8.3.4 2.7.4 3.4 0 3.7-.4.3-.3.3-3.6v-2.3q0-1.4-1.4-1.3h-1.3m1.3-340q1.3-.1 1.5-.4.4-.2.4-1.5v-1q0-3.6-.3-4-.3-.2-3.9-.3-2.8 0-3.1.3-.3.3-.3 3.1 0 3.2.2 3.5.3.3 3.4.3h2"/><path fill="#484E46" d="M463.4 912.1q1.6.1 1.6-1.5v-3q0-2.3-.4-2.7-.3-.4-2.7-.4h-.2q-3.2 0-3.5.4-.3.3-.3 3.5v2q-.2 1.9 1.8 1.8h3.8"/><path fill="#3B3B3B" d="M465 932.4v-2.1q.1-2-1.8-1.8h-3.8q-1.6-.1-1.6 1.5v3.9q.1 1.7.3 2 .3.2 2 .3h1q3.2-.1 3.5-.4.3-.3.4-3.4"/><path fill="#6C835C" d="M465.1 564.3q.4-.3.3-3.1 0-3.2-.3-3.5-.3-.3-3.7-.3-2.9 0-3.2.3-.3.3-.3 3.2 0 3 .3 3.4.3.3 3.3.3h.5q2.8 0 3.1-.3"/><path fill="#7C9E66" d="M463 588.5q1.8 0 2.1-.3.3-.3.3-2.2v-.5q0-3.6-.3-3.9-.3-.3-3.8-.3-2.8 0-3.1.4-.3.2-.3 3v2.1q-.2 1.9 1.7 1.8h3.3"/><path fill="#8FBA73" d="M465.1 612.3q.3-.3.3-3.5 0-2.9-.3-3.2-.3-.3-3.5-.3-3.1 0-3.4.3-.3.2-.3 3.3 0 3.1.3 3.3.3.3 3.4.3 3.3 0 3.5-.2m0 35.8q.3-.3.3-3.4 0-3-.2-3.4-.4-.2-3.5-.2-3.3 0-3.5.3-.3.3-.3 3.5 0 2.9.3 3.2.3.2 3.3.3 3.4-.1 3.6-.3"/><path fill="#688455" d="M465.1 672q.4-.3.4-3.1 0-3.2-.3-3.5-.4-.3-3.6-.3-3.1 0-3.4.3-.3.3-.3 3.3t.3 3.3q.3.3 3.4.3h.5q2.8 0 3-.3"/><path fill="#749161" d="M465.1 696q.3-.3.3-3.8v-.8q0-1.7-.2-2-.3-.2-2-.3h-2q-2.7 0-3 .3-.3.4-.3 3.2 0 3 .3 3.4.3.3 3.3.3 3.4 0 3.6-.3"/><path fill="#728E60" d="M461.5 720.3h.5q2.8 0 3.1-.3.3-.4.3-3.1 0-3.2-.3-3.5-.3-.3-3.5-.3-3.1 0-3.4.2-.3.3-.3 3.3t.3 3.3q.3.3 3.3.3"/><path fill="#749161" d="M461.4 724.9q-3 0-3.3.3-.3.3-.3 3.4 0 3.2.2 3.5.4.4 3.2.4 3.2 0 3.5-.3.3-.4.3-3.5 0-3.2-.3-3.5-.3-.3-3.3-.3"/><path fill="#799B63" d="M461.4 748.9h-1.7q-1.4 0-1.6.3-.3.2-.3 1.5v4.1q0 1.7 1.6 1.6h1.6q3.4 0 3.7-.3.3-.4.3-3.8 0-2.9-.3-3.2-.3-.2-3.3-.3"/><path fill="#8FBA73" d="M461.6 772.9q-3.3 0-3.6.2-.2.3-.2 3.5 0 3.1.3 3.4.2.3 3.3.3 3 0 3.4-.3.2-.3.3-3.4-.1-3.2-.3-3.5-.3-.3-3.2-.3m-3.8 39.6q0 3.2.3 3.5.3.3 3.5.3 2.9 0 3.2-.4.3-.3.3-3.5 0-3-.3-3.3-.3-.4-3.4-.4t-3.3.4q-.3.2-.3 3.3"/><path fill="#7C9E66" d="M457.8 836.3v.5q0 2.8.3 3 .3.3 3.1.3 3.2 0 3.5-.3.3-.3.3-3.5 0-3-.3-3.4-.3-.3-3.2-.3-3 0-3.4.3-.3.3-.3 3.4"/><path fill="#6C835C" d="M461.6 856.5q-3.1 0-3.5.4-.3.3-.3 3.5 0 3.1.3 3.4.3.4 3.3.4t3.3-.3q.3-.4.3-3.4v-.5q0-2.8-.3-3.1-.3-.3-3.1-.3"/><path fill="#99C978" d="M457.8 788.5q0 3.2.2 3.5.3.2 3.4.2t3.4-.3q.3-.2.3-3.3 0-3-.4-3.4-.2-.3-3.4-.3-3 0-3.3.4-.2.2-.2 3.2"/><path fill="#789763" d="M461.1 737q-2.7 0-3 .4-.3.3-.3 3.1 0 3.1.3 3.4.3.3 3.3.3t3.3-.3q.3-.3.3-3.1 0-3.1-.3-3.4-.3-.3-3.5-.3"/><path fill="#99C978" d="M461.4 796.8q-3 0-3.3.3-.3.2-.3 3.3 0 3.1.3 3.3.3.3 3.4.3 3 0 3.3-.3.2-.2.2-3.2v-.3q0-2.9-.2-3.2t-3.4-.2"/><path fill="#759261" d="M461.2 844.8q-2.8 0-3.1.3-.3.3-.3 3.1 0 3.1.3 3.5.3.3 3.5.3 2.7 0 3.1-.3.3-.3.3-3.2 0-3.1-.3-3.4-.3-.3-3.5-.3"/><path fill="#637656" d="M461.4 868.8q-3 0-3.2.3-.4.3-.4 3.4 0 2.8.3 3.1.4.3 3.1.3 3.2 0 3.5-.2.3-.4.3-3.3 0-3-.3-3.3-.4-.3-3.3-.3"/><path fill="#86AC6C" d="M461.4 761q-3 0-3.3.3-.3.3-.3 3.3t.3 3.3q.3.3 3.4.3 3 0 3.3-.3.2-.3.2-3.3t-.3-3.3q-.3-.3-3.4-.3"/><path fill="#515C4B" d="M461.4 892.8q-2.9 0-3.3.3-.3.3-.3 3.2 0 3 .3 3.3.4.3 3.3.3 3 0 3.3-.3.2-.3.3-3.3 0-2.9-.3-3.2-.4-.3-3.3-.3"/><path fill="#343535" d="M464.6 923.5q.4-.3.4-3 0-3.1-.3-3.4-.4-.4-3.4-.4-2.8 0-3.1.4-.4.3-.4 3.1 0 3 .3 3.3.4.4 3.4.4 2.8 0 3.1-.3"/><path fill="#87AD6D" d="M461.5 820.8q-3.1 0-3.4.3-.3.3-.3 3.3t.3 3.3q.3.3 3.3.3t3.3-.3q.3-.3.4-3.4-.1-3-.4-3.2-.2-.3-3.2-.3"/><path fill="#373737" d="M81.8 743.6q0 3.4.3 3.7.3.3 3.8.4 3 0 3.2-.4.4-.3.3-3.3 0-3.4-.3-3.7-.3-.3-3.8-.3-2.8 0-3.2.4-.3.3-.3 3.2"/><path fill="#3C3D3D" d="M89.2 620.4q-.4-.3-3.5-.3-3.2 0-3.5.3-.4.3-.4 3.5t.4 3.5q.3.3 3.4.3 3.2 0 3.6-.3.3-.3.3-3.5t-.3-3.5"/><path fill="#343535" d="M89.5 719.8q0-3.1-.3-3.5-.3-.3-3.5-.3t-3.5.3q-.4.3-.4 3.5t.4 3.5q.3.3 3.5.3 3.1 0 3.5-.3.3-.3.3-3.5"/><path fill="#383838" d="M89.5 672q0-3-.5-3.5t-3.4-.5q-3.1 0-3.4.3-.4.4-.4 3.5 0 3.2.3 3.5.4.3 3.5.4 3.2 0 3.5-.4.4-.3.4-3.3"/><path fill="#353636" d="M85.5 699.6q3.4 0 3.7-.3.3-.2.3-3.7 0-2.7-.5-3.1-.5-.5-3.3-.5-3.3 0-3.6.3-.3.4-.3 3.7 0 3 .3 3.3.4.4 3.4.4"/><path fill="#3A3A3A" d="M85.9 644q-3.5.1-3.8.4-.2.3-.3 3.6 0 3 .4 3.3.3.3 3.3.4 3.3 0 3.6-.4.4-.3.4-3.6v-1.5q-.1-1.4-.5-1.7-.4-.4-1.8-.5h-1.3"/><path fill="#393939" d="M81.8 767.8q0 3.2.3 3.5.3.3 3.4.3 3 0 3.5-.5.5-.4.5-3.3 0-3.1-.3-3.5-.4-.3-3.5-.3t-3.5.3q-.3.3-.4 3.4"/><path fill="#3B3C3C" d="M89.1 788.3q-.3-.3-3.4-.3h-2.5q-1.4 0-1.4 1.4v1.3q.1 4.3.3 4.6.3.3 5 .3 1.3 0 1.8-.4.4-.5.5-1.8v-1.8q0-3-.3-3.3"/><path fill="#3C3D3D" d="M85.5 807.4q3.3 0 3.6-.3.3-.3.3-3.4.1-3-.4-3.5t-3.4-.5q-2.9 0-3.3.5-.5.5-.5 3.3 0 3.3.3 3.5.3.3 3.4.3"/><path fill="#3B3C3C" d="M88.8 633q-.7-.7-3.5-.7-2.9 0-3.2.3-.3.3-.3 3.2v2.1q.1 1.3.5 1.6.4.4 1.7.4h2.8q1.4 0 1.9-.4t.7-1.8v-1q.1-2.9-.6-3.7"/><path fill="#393939" d="M89.5 657.8q0-1.6-1.5-1.5h-4.6q-1.6 0-1.6 1.5v3.5q-.1 2.1 1.7 2.3l1.8.3q2.8.2 3.5-.5.7-.6.7-3.3v-2.3"/><path fill="#373737" d="M85.8 680.3h-2q-1.4 0-1.6.3-.3.3-.4 1.6v1q0 3.6.4 3.9.3.3 3.8.3 2.8 0 3.1-.3.4-.4.4-3.1 0-3-.3-3.4-.4-.3-3.4-.3"/><path fill="#343535" d="M85.7 704.3h-1.6q-1.6 0-2 .3-.2.2-.3 1.9v3.1q-.1 2 1.8 1.8H87q1.8 0 2-.3.3-.3.4-2v-1q0-3.2-.3-3.5-.4-.3-3.5-.3"/><path fill="#353636" d="M89.5 733.6v-3.8q0-1.6-1.5-1.6h-3.8q-1.7.1-2 .4-.3.3-.4 2v1q0 3.2.4 3.5.3.3 3.4.3h2q2 .2 1.9-1.7"/><path fill="#383838" d="M89.5 757.6v-3.9q0-1.5-1.6-1.5h-3q-2.3 0-2.7.4-.4.4-.4 2.7v.3q0 3.1.3 3.4.3.3 3.5.4h2.1q1.9.1 1.8-1.8"/><path fill="#3A3A3A" d="M89 776.7q-.4-.5-4-.5-2.4 0-2.8.4-.4.4-.4 2.8 0 3.3.3 3.6.3.3 3.6.4h1.2q2 0 2.2-.3.3-.4.3-2.3.1-3.6-.4-4.1"/><path fill="#3C3D3D" d="M89.2 864.3q-.4-.4-3.5-.4-3.2 0-3.5.3-.4.3-.4 3.5t.4 3.5q.3.3 3.4.3 3.2 0 3.6-.2.3-.4.3-3.5 0-3.2-.3-3.5"/><path fill="#383838" d="M89.5 915.9q0-3-.5-3.5-.5-.6-3.4-.5-3.1 0-3.4.3-.4.3-.4 3.4 0 3.2.3 3.6.4.3 3.5.3 3.2 0 3.5-.3.4-.3.4-3.4"/><path fill="#353636" d="M85.5 943.5q3.4 0 3.7-.3.3-.3.3-3.8 0-2.6-.5-3.1-.5-.4-3.3-.4-3.3 0-3.6.3-.3.3-.3 3.6 0 3 .3 3.4.4.3 3.4.3"/><path fill="#3A3A3A" d="M85.9 887.9q-3.5 0-3.8.3-.2.3-.3 3.7 0 3 .4 3.3.3.3 3.3.3 3.3 0 3.6-.3.4-.3.4-3.6v-1.5q-.1-1.4-.5-1.8-.4-.4-1.8-.4h-1.3"/><path fill="#3B3C3C" d="M88.8 876.9q-.7-.8-3.5-.8-2.9 0-3.2.4-.3.3-.3 3.2v2q.1 1.3.5 1.7.4.3 1.7.4h2.8q1.4 0 1.9-.5t.7-1.8v-1q.1-2.9-.6-3.6"/><path fill="#393939" d="M89.5 901.6q0-1.5-1.5-1.5h-4.6q-1.6 0-1.6 1.5v3.6q-.1 2 1.7 2.2l1.8.3q2.8.2 3.5-.4.7-.6.7-3.4v-2.3"/><path fill="#373737" d="M85.8 924.1h-2q-1.4.1-1.6.3-.3.3-.4 1.6v1q0 3.6.4 4 .3.2 3.8.2 2.8.1 3.1-.3.4-.3.4-3 0-3.1-.3-3.4-.4-.4-3.4-.4m-4-408.4q0 3.4.3 3.7.3.4 3.8.4 3 0 3.2-.3.4-.4.3-3.3 0-3.4-.3-3.7-.3-.3-3.8-.3-2.8 0-3.2.3-.3.3-.3 3.3"/><path fill="#343535" d="M89.5 492q0-3.2-.3-3.5-.3-.3-3.5-.3t-3.5.3q-.4.3-.4 3.5 0 3.1.4 3.5.3.3 3.5.3 3.1 0 3.5-.3.3-.4.3-3.6"/><path fill="#393939" d="M81.8 539.9q0 3.2.3 3.5.3.3 3.4.4 3 0 3.5-.5t.5-3.4q0-3.1-.3-3.4-.4-.4-3.5-.4t-3.5.3q-.3.4-.4 3.5"/><path fill="#3B3C3C" d="M89.1 560.5q-.3-.3-3.4-.3h-2.5q-1.4 0-1.4 1.4v1.2q.1 4.4.3 4.7.3.2 5 .3 1.3 0 1.8-.4.4-.5.5-1.8v-1.8q0-3-.3-3.3"/><path fill="#3C3D3D" d="M85.5 579.5q3.3 0 3.6-.3.3-.3.3-3.4.1-3-.4-3.4t-3.4-.5q-2.9 0-3.3.5-.5.4-.5 3.3 0 3.2.3 3.5.3.3 3.4.3"/><path fill="#343535" d="M85.7 476.4h-1.6q-1.6 0-2 .3-.2.3-.3 2v3q-.1 2 1.8 1.9H87q1.8-.1 2-.4.3-.2.4-1.9v-1q0-3.2-.3-3.5-.4-.4-3.5-.4"/><path fill="#353636" d="M89.5 505.8v-3.9q0-1.5-1.5-1.5h-3.8q-1.7 0-2 .3-.3.3-.4 2v1q0 3.2.4 3.5.3.3 3.4.3h2q2 .2 1.9-1.7"/><path fill="#383838" d="M89.5 529.8v-3.9q0-1.6-1.6-1.5h-3q-2.3 0-2.7.4-.4.3-.4 2.6v.3q0 3.2.3 3.5.3.3 3.5.3h2.1q1.9.2 1.8-1.8"/><path fill="#3A3A3A" d="M89 548.9q-.4-.5-4-.5-2.4 0-2.8.4-.4.4-.4 2.8 0 3.2.3 3.6.3.3 3.6.3h1.2q2 0 2.2-.3.3-.4.3-2.3.1-3.6-.4-4"/><path fill="#343535" d="M165.7 637q-.1-1.3-.4-1.6-.3-.3-1.6-.3h-1q-3.6 0-3.9.3-.3.3-.3 3.9 0 2.7.3 3 .3.4 3.1.4 3 0 3.4-.3.3-.4.3-3.4v-2"/><path fill="#515C4B" d="M163.7 659h-1.3q-3.3 0-3.6.4-.3.3-.3 3.6 0 3 .3 3.4.3.3 3.5.3 2.7 0 3-.4.3-.3.3-3.1v-2.3q0-1.3-.3-1.6-.3-.2-1.6-.2"/><path fill="#637656" d="M165.7 685q-.1-1.3-.4-1.6-.3-.3-1.6-.3h-1q-3.6 0-3.9.3-.3.3-.3 3.9 0 2.7.3 3 .3.4 3.1.4 3.1 0 3.4-.3.3-.3.3-3.4v-2"/><path fill="#749161" d="M165.7 710.9q-.1-3.2-.3-3.5-.4-.3-3.3-.3-3 0-3.4.3-.3.3-.3 3.6 0 3 .3 3.3.4.3 3.2.3 3.1 0 3.5-.3.2-.3.2-3.5"/><path fill="#86AC6C" d="M165.7 735q-.1-3.3-.3-3.6-.3-.3-3.4-.3-3 0-3.3.3-.3.3-.3 3.3 0 3.3.3 3.6.3.3 3.5.3 2.9 0 3.2-.3.2-.3.2-3.3"/><path fill="#97C777" d="M165.3 755.4q-.3-.3-2.7-.3-3.6 0-3.9.3-.3.3-.3 3.8 0 2.8.3 3.1.3.3 3.1.3h2.1q2 .1 1.8-1.8v-2.7q0-2.4-.3-2.7"/><path fill="#8FBA72" d="M165.7 782.9v-.5q0-2.8-.3-3.1-.4-.3-3.2-.3-3.2 0-3.5.3-.3.3-.3 3.5 0 3.1.3 3.5.3.3 3.3.3t3.4-.4q.2-.2.2-3.3"/><path fill="#7C9E66" d="M165.7 807q-.1-3.4-.3-3.6-.3-.4-3.1-.4-3.3 0-3.5.3-.4.3-.4 3.6 0 3 .3 3.3.4.3 3.5.3 2.9 0 3.2-.3.2-.3.2-3.2"/><path fill="#6C845C" d="M158.4 828.6v4.3q0 1.8 1.7 1.7h1.5q3.4 0 3.7-.3.3-.3.3-3.6 0-3.1-.3-3.4-.3-.3-3.4-.3h-1.8q-1.7-.1-1.7 1.6"/><path fill="#5A6A51" d="M163.8 851h-1q-3.7 0-4 .3-.3.3-.3 4 0 2.7.3 3 .3.3 3 .3 3.2 0 3.5-.3.3-.3.3-3.5v-2.1q.2-1.9-1.8-1.7"/><path fill="#484E46" d="M158.5 878.7v1.5q0 1.8.3 2 .3.3 2.1.4h.6q3.5 0 3.8-.3.3-.3.3-4 0-2.7-.3-3-.3-.3-3.1-.3-3 0-3.4.3-.3.4-.3 3.4"/><path fill="#3B3B3B" d="M164.3 899l-1.3-.1q-3.9.1-4.2.4-.3.3-.3 4 0 2.5.4 2.9.4.4 2.8.4 3.3 0 3.6-.3.3-.3.3-3.6v-2.3q0-1.4-1.3-1.4m-2-275.7q-3.1 0-3.5.3-.3.4-.3 3.5 0 2.7.3 3 .4.3 3 .3 3.2 0 3.5-.3.3-.3.4-3.5 0-2.6-.4-3-.3-.3-3-.3"/><path fill="#7D9F66" d="M165.7 722.8q-.1-3-.3-3.3-.4-.3-3.3-.3-3 0-3.4.3-.2.3-.2 3.4 0 3 .2 3.3.4.2 3.3.2 3 0 3.3-.3.3-.3.3-3.3"/><path fill="#759261" d="M162.3 815.1q-3.3.1-3.6.4-.2.3-.2 3.5 0 2.8.2 3 .4.4 3.2.4 3.1 0 3.4-.3.3-.3.3-3.5 0-2.8-.3-3.1-.3-.3-3-.3"/><path fill="#515C4B" d="M162.2 863.2q-3 0-3.4.3-.3.3-.3 3.4 0 2.8.3 3.1.3.3 3.1.3 3.1 0 3.4-.3.3-.3.3-3.4 0-2.7-.3-3-.3-.4-3.1-.4"/><path fill="#87AD6D" d="M162.1 798.4q3 0 3.3-.3.2-.3.2-3.3t-.2-3.3q-.4-.3-3.4-.3t-3.3.3q-.3.3-.3 3.2 0 3 .3 3.4.3.3 3.4.3"/><path fill="#343535" d="M162.1 894.4q2.9-.1 3.2-.4.3-.3.3-3.3t-.3-3.2q-.3-.3-3.3-.3-2.9 0-3.2.3-.3.3-.3 3.3 0 2.9.3 3.2.3.3 3.3.3"/><path fill="#6C845C" d="M161.9 702.5q3.1-.1 3.4-.3.3-.4.3-3.4 0-2.9-.2-3.2-.4-.3-3.3-.3-3 0-3.4.3-.2.3-.2 3.4 0 2.8.3 3.1.3.4 3.1.4"/><path fill="#5A6A51" d="M162.3 671.3q-3.2 0-3.5.3-.3.3-.3 3.5 0 2.6.3 3 .3.3 3 .3 3.1 0 3.5-.3.3-.3.3-3.4 0-2.8-.2-3-.4-.4-3.2-.5"/><path fill="#90BB73" d="M165.7 746.9q-.1-3.1-.3-3.3-.3-.3-3.1-.3-3.4 0-3.6.2-.3.3-.3 3.5 0 2.9.3 3.2.3.3 3.3.3t3.3-.3q.3-.3.3-3.3"/><path fill="#99C978" d="M158.4 770.5q0 3.4.3 3.7.2.2 3.6.2 2.8 0 3.1-.2.3-.3.3-3.2-.1-3.3-.3-3.5t-3.5-.3h-.3q-2.6 0-2.9.3-.3.3-.3 3"/><path fill="#637656" d="M162 846.4q3 0 3.3-.3.3-.3.3-3.2 0-3-.2-3.3-.4-.4-3.4-.4-2.9 0-3.2.3-.3.3-.3 3.3 0 2.9.3 3.3.3.2 3.2.2"/><path fill="#484E46" d="M162 654.5q3-.1 3.3-.4.3-.3.3-3.3t-.3-3.2q-.3-.3-3.3-.3-2.8 0-3.2.4-.3.3-.3 3.2 0 2.9.3 3.2.3.3 3.2.4"/><path fill="#3B3B3B" d="M104.5 728h-1q-3.6 0-3.9.3-.3.3-.3 3.9 0 2.8.3 3 .4.4 3.1.4 3 0 3.4-.3.3-.3.3-3.3v-2.1q0-1.3-.4-1.6-.2-.2-1.5-.3"/><path fill="#484E46" d="M104.8 484q1.6 0 1.6-1.6V479q0-1.9-.4-2.3-.3-.3-2.2-.3h-.7q-3.2 0-3.5.3-.3.3-.3 3.5v2.1q-.2 1.9 1.7 1.8h3.9"/><path fill="#596951" d="M104.6 500.3h-3.8q-1.6 0-1.6 1.6v3.5q0 1.9.3 2.3.4.3 2.3.3h.8q3.2 0 3.5-.3.3-.4.3-3.5V502q.1-1.9-1.8-1.8"/><path fill="#6B835C" d="M99.3 528v.5q0 2.8.3 3.1.3.3 3 .3 3.3 0 3.5-.3.3-.3.3-3.7 0-3-.3-3.3-.3-.3-3.2-.3-3 0-3.3.3-.3.3-.3 3.3"/><path fill="#7C9E66" d="M106.5 552.3v-.5q0-2.8-.3-3.1-.4-.4-3.1-.4-3.3 0-3.6.3-.2.3-.2 3.7-.1 3 .2 3.3.4.2 3.3.2 3 0 3.4-.3.3-.3.3-3.3"/><path fill="#8FBA72" d="M106.5 576.3q0-3.4-.3-3.7-.3-.3-3.4-.3-3 0-3.3.3-.2.3-.2 3.4 0 3.2.2 3.5.3.3 3.5.3 2.9 0 3.2-.3.3-.3.3-3.3"/><path fill="#8FB972" d="M102.9 608.1q-3.1 0-3.4.3-.3.3-.3 3.4 0 3.3.3 3.6.3.3 3.4.3 3 0 3.3-.4.3-.2.3-3.4 0-3.1-.3-3.5-.3-.3-3.3-.3"/><path fill="#7C9E65" d="M102.6 639.6h1.6q1.6 0 2-.3.2-.2.2-1.9v-3q0-1.7-.3-2-.3-.3-1.9-.3h-.8q-3.6 0-3.9.3-.3.3-.3 3.8 0 2.8.3 3.1.3.3 3.1.3"/><path fill="#6B835C" d="M106.5 660v-2.1q-.1-1.3-.4-1.5-.2-.3-1.6-.4h-1.2q-3.4 0-3.7.4-.3.3-.3 3.7 0 2.9.3 3.2.3.3 3.2.4 3 0 3.4-.4.2-.3.3-3.3"/><path fill="#596951" d="M106.4 684v-2q0-1.4-.3-1.6t-1.6-.4h-1q-3.6 0-3.9.3-.3.4-.3 3.9 0 2.7.3 3.1.3.3 3 .3 3.2 0 3.5-.3.3-.3.3-3.3"/><path fill="#484E46" d="M104.5 704h-1q-3.6 0-3.9.3-.3.3-.3 3.9 0 2.8.3 3.1.4.4 3.1.3 3 0 3.4-.3.3-.3.3-3.4v-2q0-1.3-.4-1.6-.2-.2-1.6-.3"/><path fill="#87AD6D" d="M102.8 620.3q-3 0-3.3.3-.3.2-.3 3.4 0 2.9.3 3.2.3.3 3.3.3t3.3-.3q.4-.3.3-3.2 0-3.1-.2-3.5-.3-.3-3.4-.3"/><path fill="#637656" d="M103.6 512.5h-.8q-3 0-3.3.4-.3.3-.3 3.4 0 2.8.3 3.1.4.3 3.1.3 3.2 0 3.5-.3.3-.3.3-3.5v-.5q0-2.1-.4-2.5-.3-.3-2.4-.3"/><path fill="#87AD6D" d="M106.2 567.4q.3-.3.3-3.4 0-2.9-.3-3.2-.3-.3-3.3-.3t-3.4.3q-.2.3-.2 3.4 0 2.9.3 3.2.2.3 3.2.3 3.1 0 3.4-.3"/><path fill="#759261" d="M106.1 651.1q.3-.3.3-3 0-3.3-.3-3.6-.3-.3-3.4-.3-2.9 0-3.2.3-.3.3-.3 3.1 0 3.2.3 3.5.3.3 3.5.3 2.8 0 3.1-.3M103 536.5q-3.1 0-3.5.3-.3.4-.3 3.5 0 2.8.3 3.1.4.4 3.1.3 3.2 0 3.5-.3.3-.3.3-3.4 0-2.8-.3-3.1-.3-.4-3.1-.4"/><path fill="#99C978" d="M106.2 591.4q.3-.3.3-3.4v-.2q0-2.8-.3-3.1-.3-.3-3.1-.3-3.3 0-3.6.3-.3.3-.3 3.5 0 3 .3 3.2t3.3.3q3.1 0 3.4-.3"/><path fill="#637656" d="M106.4 672q0-3.1-.3-3.4-.3-.3-3.3-.3h-.2q-2.7 0-3 .3-.3.3-.3 3 0 3.2.3 3.5.3.3 3.4.3 2.8 0 3.1-.4.3-.3.3-3"/><path fill="#99C978" d="M102.8 596.3q-3 0-3.3.3-.3.2-.3 3.2 0 3.1.3 3.5.3.2 3.6.3 2.8 0 3.1-.4.3-.3.3-3.1 0-3.3-.3-3.5-.3-.3-3.5-.3"/><path fill="#515C4B" d="M102.8 692.3h-.3q-2.5-.1-2.9.3-.3.3-.3 3 0 3.1.3 3.4.3.3 3.5.4 2.7 0 3-.4.3-.3.3-3.1 0-3-.3-3.3-.3-.3-3.4-.3"/><path fill="#343535" d="M103 716.2q-3.1 0-3.4.3-.3.4-.3 3.4 0 2.8.3 3.2.3.3 3 .3 3.2 0 3.5-.3.3-.4.3-3.4 0-2.8-.3-3.1-.3-.4-3.1-.4"/><path fill="#515C4B" d="M106.4 492.1q0-2.9-.3-3.2-.3-.3-3.2-.3-3 0-3.3.3-.3.3-.3 3.3t.3 3.2q.3.3 3.2.3 3 0 3.3-.3.3-.3.3-3.3"/><path fill="#3B3B3B" d="M106 926.9q.3-.3.4-3.9 0-2.8-.4-3.1-.3-.3-3-.3-3.1 0-3.4.3-.3.4-.3 3.4v2q0 1.4.3 1.6.3.3 1.6.3h1q3.5 0 3.9-.3"/><path fill="#343535" d="M106.1 938.6q.3-.3.3-3.3 0-2.8-.4-3.1-.3-.4-3.3-.4-2.8 0-3.1.4-.3.3-.3 3.3 0 2.9.3 3.2.3.3 3.3.3 2.8 0 3.2-.3"/><path fill="#7B9C65" d="M557.4 919.7q-3.4 0-3.6.3-.3.3-.3 3.6 0 3 .3 3.4.3.3 3.4.3 3.2 0 3.5-.3.3-.3.3-3.6 0-3.1-.3-3.4-.2-.3-3.3-.3"/><path fill="#3B3B3B" d="M557.5 823.7q-3.4 0-3.8.3-.3.4-.3 3.9 0 2.8.4 3.2.3.3 3.3.3 3.4-.1 3.7-.4.3-.3.3-3.8 0-2.9-.3-3.1-.3-.4-3.3-.4"/><path fill="#484E46" d="M561.1 851.6q0-3.3-.3-3.6-.3-.3-3.6-.3-3.1 0-3.4.3-.3.3-.3 3.3 0 3.3.3 3.7.3.3 3.6.3 3 0 3.4-.3.3-.3.3-3.4"/><path fill="#6C845C" d="M555.5 895.7q-1.5 0-1.7.3t-.3 1.6v2.3q0 2.5.4 3 .5.4 3 .4h.2q3.2 0 3.6-.5.4-.4.4-3.6V898q0-1.7-.3-2-.3-.3-2-.3h-3.2"/><path fill="#343535" d="M559.4 843.1q1.9.1 1.7-1.8v-1q0-3.7-.3-4-.3-.3-4-.3-2.6-.1-3 .3-.3.3-.3 3 0 3.2.3 3.5.3.3 3.5.3h2"/><path fill="#515C4B" d="M559.3 867.1q1.9 0 1.8-1.8v-3.8q0-1.6-1.5-1.5h-3.9q-1.6 0-1.9.3-.3.3-.4 1.9v1q.1 3.3.4 3.6.3.3 3.4.3h2.1"/><path fill="#637656" d="M556.7 883.9q-2.6 0-2.9.3-.3.4-.3 3 0 3.2.3 3.5.3.3 3.5.4h2q1.3-.1 1.5-.3t.3-1.7v-.7q0-3.9-.3-4.1-.3-.3-4.1-.4"/><path fill="#749161" d="M557.1 907.9q-3 0-3.3.3-.3.3-.3 3.4 0 2.8.3 3.2.3.3 3.3.3 3.3 0 3.6-.3.4-.3.3-3 0-3.3-.2-3.6-.3-.3-3.7-.3"/><path fill="#86AC6D" d="M560.8 938.8q.3-.3.3-3.3t-.4-3.4q-.3-.3-3.3-.3h-.5q-2.8 0-3.1.4-.3.2-.3 3 0 3.3.3 3.6.3.3 3.7.3 3 0 3.3-.3"/><path fill="#535E4C" d="M561.1 875.5q0-3.1-.3-3.5-.3-.3-3.5-.3t-3.5.3q-.3.3-.3 3.5t.3 3.5q.3.3 3.5.3t3.5-.3q.3-.3.3-3.5"/><path fill="#5A6A51" d="M560.6 875.6q0-2.7-.3-3-.3-.4-3.1-.4-2.5 0-2.9.4-.3.4-.3 2.7 0 2.8.3 3.1.4.4 3.1.4 2.4 0 2.8-.4.4-.4.4-2.8"/><path fill="#484E46" d="M557.2 603.5q-3.1 0-3.5.3-.3.3-.3 3.5t.4 3.5q.3.3 3.6.3 3 0 3.4-.3.3-.3.3-3.6 0-3.1-.3-3.5-.3-.3-3.6-.3"/><path fill="#3B3B3B" d="M557.3 627.4q-3.2 0-3.5.3-.3.3-.3 3.5t.3 3.5q.3.3 3.5.3 3.1 0 3.5-.3.3-.3.3-3.5t-.4-3.5q-.3-.3-3.5-.3"/><path fill="#8EB872" d="M561 475.6q0-3.3-.3-3.6-.2-.2-3.4-.2-3.3 0-3.5.3-.3.2-.3 3.4t.3 3.5q.3.3 3.5.3t3.5-.3q.2-.3.3-3.5"/><path fill="#596951" d="M560.7 586.9q.4-.4.4-3.1 0-3.5-.5-3.9-.4-.5-4-.5-2.3 0-2.7.5-.5.4-.5 2.7v.5q.1 3.4.3 3.6.4.3 3.6.4 3.1 0 3.4-.3"/><path fill="#6B825B" d="M560.8 562.8q.3-.3.3-3.5 0-2.9-.5-3.3-.5-.5-3.5-.5-2.7 0-3.2.5t-.5 3.3q.1 3.1.4 3.5.3.3 3.5.3t3.5-.3"/><path fill="#8EB972" d="M557.6 507.6q-3.4 0-3.8.3-.3.4-.3 3.7 0 3 .3 3.2.3.3 3.3.3 3.4 0 3.6-.3t.3-3.8q0-2.7-.2-3-.4-.5-3.1-.5"/><path fill="#7B9D65" d="M557.4 531.5q-3.1 0-3.5.5-.4.4-.4 3.4 0 3.1.3 3.4.3.3 3.3.3 3.3 0 3.6-.3.3-.3.3-3.5.1-3-.3-3.3-.4-.5-3.4-.5"/><path fill="#98C877" d="M560.7 490.8q.3-.3.3-2.4v-.5q0-3.4-.2-3.7t-3.8-.3q-2.9 0-3.2.3-.3.3-.3 3.1 0 3.3.3 3.6.3.3 3.5.3h1q2 0 2.4-.4m.3 8.6q0-3.1-.3-3.4t-3.3-.3h-.8q-2.5 0-2.8.3-.3.4-.3 2.9 0 3.5.3 3.8.3.3 3.7.3 3 0 3.3-.3.2-.3.3-3.3"/><path fill="#86AC6D" d="M557.1 527h.5q2.8 0 3.1-.3.3-.4.3-3.2 0-3.2-.3-3.5-.2-.3-3.5-.3-3.2 0-3.4.3-.3.3-.3 3.5 0 2.9.3 3.2.4.3 3.4.3"/><path fill="#749161" d="M557.4 543.7h-.5q-2.8 0-3.1.3-.3.3-.3 3.1 0 3.2.3 3.5.3.3 3.5.3 3.1 0 3.4-.3.3-.3.3-3.3t-.3-3.2q-.3-.3-3.3-.4"/><path fill="#637656" d="M559.3 574.9q1.9 0 1.8-1.8v-3.6q.1-2-1.8-1.8H556q-1.9 0-2.2.3-.3.3-.3 2.3v.7q0 3.3.3 3.5.3.3 3.5.3l2 .1"/><path fill="#515C4B" d="M560.8 598.5q.3-.3.3-3 0-3.2-.3-3.5-.3-.3-3.6-.3-3.1 0-3.4.3-.3.3-.3 3.3 0 2.9.3 3.2.4.3 3.3.3h.8q2.6 0 2.9-.3"/><path fill="#343535" d="M555.8 615.7q-1.7 0-2 .3-.3.3-.3 1.9v1q0 3.3.3 3.6.3.3 3.4.3h1.5q1.7 0 2-.3.3-.3.4-1.9v-2.8q0-1.5-.4-1.8-.2-.3-1.9-.3h-3"/></symbol></defs><g overflow="visible"><path fill="#3F4040" d="M697 0H0v471.9h697V0"/><use xlink:href="#a" transform="translate(0 -471.8)"><animateTransform attributeName="transform" additive="replace" type="translate" dur="2.438s" keyTimes="0;1" values="0,0;0,0" fill="freeze"/><animateTransform attributeName="transform" additive="sum" type="translate" repeatCount="indefinite" dur="2.438s" keyTimes="0;0.026;0.051;0.077;0.103;0.128;0.154;0.179;0.205;0.231;0.256;0.282;0.308;0.333;0.359;0.385;0.41;0.436;0.461;0.487;0.513;0.538;0.564;0.59;0.615;0.641;0.667;0.692;0.718;0.742;0.743;1" values="0,-471.849;0,-459.749;0,-447.649;0,-435.549;0,-423.449;0,-411.349;0,-399.249;0,-387.149;0,-375.049;0,-362.949;0,-350.849;0,-338.749;0,-326.649;0,-314.549;0,-302.449;0,-290.349;0,-278.249;0,-266.149;0,-254.099;0,-241.949;0,-229.899;0,-217.749;0,-205.699;0,-193.599;0,-181.499;0,-169.399;0,-157.299;0,-145.199;0,-133.099;0,-120.999;0;0" calcMode="discrete"/><animateTransform attributeName="transform" additive="sum" type="translate" repeatCount="indefinite" dur="2.438s" keyTimes="0;0.743;0.769;0.795;0.82;0.846;0.872;0.897;0.923;0.949;0.974;0.999;1" values="0;0,-120.999;0,-108.899;0,-96.799;0,-84.699;0,-72.599;0,-60.499;0,-48.399;0,-36.299;0,-24.199;0,-12.099;0,0;0,0" calcMode="discrete"/></use><use xlink:href="#a" transform="translate(0 -943.6)"><animateTransform attributeName="transform" additive="replace" type="translate" dur="2.438s" keyTimes="0;1" values="0,0;0,0" fill="freeze"/><animateTransform attributeName="transform" additive="sum" type="translate" repeatCount="indefinite" dur="2.438s" keyTimes="0;0.026;0.051;0.077;0.103;0.128;0.154;0.179;0.205;0.231;0.256;0.282;0.308;0.333;0.359;0.385;0.41;0.436;0.461;0.487;0.513;0.538;0.564;0.59;0.615;0.641;0.667;0.692;0.718;0.742;0.743;1" values="0,-943.599;0,-931.499;0,-919.399;0,-907.299;0,-895.199;0,-883.099;0,-870.999;0,-858.899;0,-846.799;0,-834.699;0,-822.649;0,-810.499;0,-798.449;0,-786.349;0,-774.249;0,-762.149;0,-750.049;0,-737.949;0,-725.849;0,-713.749;0,-701.649;0,-689.549;0,-677.449;0,-665.349;0,-653.249;0,-641.149;0,-629.049;0,-616.949;0,-604.899;0,-592.749;0;0" calcMode="discrete"/><animateTransform attributeName="transform" additive="sum" type="translate" repeatCount="indefinite" dur="2.438s" keyTimes="0;0.743;0.769;0.795;0.82;0.846;0.872;0.897;0.923;0.949;0.974;0.999;1" values="0;0,-592.749;0,-580.699;0,-568.599;0,-556.499;0,-544.399;0,-532.299;0,-520.199;0,-508.099;0,-495.999;0,-483.899;0,-471.799;0,-471.799" calcMode="discrete"/></use><path fill="#ECD165" stroke="#19344F" stroke-width="2.5" stroke-linecap="round" stroke-linejoin="round" d="M348.6 116.3q-24.4 0-46.7 9.4-21.4 9-38 25.6-16.5 16.6-25.6 38-9.4 22.3-9.4 46.6t9.4 46.6q9.1 21.4 25.6 38 16.6 16.6 38 25.6 22.3 9.4 46.7 9.4t46.5-9.4q21.4-9 38-25.6t25.6-38q9.5-22.3 9.5-46.6t-9.5-46.6q-9-21.4-25.6-38t-38-25.6q-22.2-9.4-46.5-9.4"/><path fill="#C89545" stroke="#19344F" stroke-width="2.5" stroke-linecap="round" stroke-linejoin="round" d="M348.6 135.9q-20.4 0-39 7.8-18 7.7-31.8 21.5T256.5 197q-7.8 18.5-7.8 38.9t7.8 39q7.6 17.9 21.4 31.7 13.8 13.8 31.8 21.4 18.6 7.9 39 7.9t38.8-7.8q18-7.7 31.8-21.5t21.4-31.8q7.9-18.6 7.9-38.9t-7.9-39q-7.6-17.9-21.4-31.7-13.8-13.8-31.8-21.4-18.5-7.9-38.9-7.9"/><path fill="#A37633" d="M352 136l-3.5-.1q-20.3 0-38.9 7.8-18 7.6-31.8 21.5Q264 179 256.5 197q-7.8 18.5-7.8 38.9t7.8 39q7.6 17.9 21.4 31.7 13.8 13.8 31.8 21.4 18.6 7.9 39 7.9h3.3q-19.7-.7-37.7-8.8-17.3-7.9-30.6-21.6-13.4-13.8-20.7-31.4-7.5-18.3-7.5-38.2 0-20 7.5-38.2 7.4-17.6 20.7-31.4 13.3-13.8 30.6-21.6 18-8.1 37.7-8.8"/><path fill="#A37633" d="M360.1 160.7h-11.8V181H332v-20.4h-11.8V181h-20.5v13.1q4.2.1 6 1.8 1.6 1.7 1.6 5.2v65.4q0 3.5-1.7 5.2-1.8 1.7-5.9 1.8v13.2h20.5v20.4H332v-20.4h16.4v20.4h11.8v-20.4q11.7 0 22.4-6.1 14.7-8.4 14.7-24.4 0-12.2-9.1-18.8-8-5.8-20.8-6.3v-.3q9.7-2.4 15.7-8.5 6.6-6.7 6.6-15.8 0-13.3-10.8-20.2-8.3-5.3-18.7-5.3v-20.4m-28.1 34h13.6q9.9 0 15.2 3.7 5.1 3.6 5.1 10.2 0 7-4.5 11.4-5.8 5.5-17.8 5.5H332v-30.8m14.6 78.4H332v-33.9h15.7q13.1 0 19.6 5.3 5.4 4.3 5.4 11.1 0 7.7-4.8 12-6.4 5.5-21.4 5.5"/><path fill="#ECD165" d="M363.1 162.7h-11.8V183H335v-20.4h-11.8V183h-20.5v13.1q4.2.1 6 1.8 1.6 1.7 1.6 5.2v65.4q0 3.5-1.7 5.2-1.8 1.7-5.9 1.8v13.2h20.5v20.4H335v-20.4h16.4v20.4h11.8v-20.4q11.7 0 22.4-6.1 14.7-8.4 14.7-24.4 0-12.2-9.1-18.8-8-5.8-20.8-6.3v-.3q9.7-2.4 15.7-8.5 6.6-6.7 6.6-15.8 0-13.3-10.8-20.2-8.3-5.3-18.7-5.3v-20.4m-28.1 34h13.6q9.8 0 15.2 3.7 5.1 3.6 5.1 10.2 0 7-4.5 11.4-5.8 5.5-17.8 5.5H335v-30.8m14.6 78.4H335v-33.9h15.7q13.1 0 19.6 5.3 5.4 4.3 5.4 11.1 0 7.7-4.8 12-6.4 5.5-21.4 5.5"/><path fill="none" stroke="#19344F" stroke-width="2.5" stroke-linecap="round" stroke-linejoin="round" d="M363.1 162.7h-11.8V183H335v-20.4h-11.8V183h-20.5v13.1q4.2.1 6 1.8 1.6 1.7 1.6 5.2v65.4q0 3.5-1.7 5.2-1.8 1.7-5.9 1.8v13.2h20.5v20.4H335v-20.4h16.4v20.4h11.8v-20.4q11.7 0 22.4-6.1 14.7-8.4 14.7-24.4 0-12.2-9.1-18.8-8-5.8-20.8-6.3v-.3q9.7-2.4 15.7-8.5 6.6-6.7 6.6-15.8 0-13.3-10.8-20.2-8.3-5.3-18.7-5.3v-20.4"/><path fill="none" stroke="#19344F" stroke-width="2.5" stroke-linecap="round" stroke-linejoin="round" d="M335 196.7h13.7q9.8 0 15.2 3.7 5.1 3.6 5.1 10.2 0 7-4.5 11.4-5.8 5.5-17.8 5.5H335v-30.8m14.6 78.4H335v-33.9h15.7q13.1 0 19.6 5.3 5.4 4.3 5.4 11.1 0 7.7-4.8 12-6.4 5.5-21.4 5.5"/><path fill="none" stroke="#19344F" stroke-width="2.5" stroke-linecap="round" stroke-linejoin="round" d="M348.6 135.9q-20.4 0-39 7.8-18 7.7-31.8 21.5T256.5 197q-7.8 18.5-7.8 38.9t7.8 39q7.6 17.9 21.4 31.7 13.8 13.8 31.8 21.4 18.6 7.9 39 7.9t38.8-7.8q18-7.7 31.8-21.5t21.4-31.8q7.9-18.6 7.9-38.9t-7.9-39q-7.6-17.9-21.4-31.7-13.8-13.8-31.8-21.4-18.5-7.9-38.9-7.9"/></g></svg>