<svg id="ani_13_news" image-rendering="optimizeQuality" xmlns="http://www.w3.org/2000/svg" viewBox="0 0 695 544" style="enable-background:new 0 0 695 544"><style>.st0{fill:#eab091}.st1{fill:none;stroke:#19344f;stroke-width:2.5;stroke-linecap:round;stroke-linejoin:round}.st2{fill:#b83436}.st3{opacity:.22;fill:#a1aaaf}.st4{fill:#fff}.st5{fill:none;stroke:#eaeaea;stroke-width:4;stroke-linecap:round;stroke-linejoin:round;stroke-miterlimit:10}.st6{fill:#383838}.st10,.st7,.st8,.st9{fill:none;stroke:#383838;stroke-width:4;stroke-linecap:round;stroke-linejoin:round;stroke-miterlimit:10}.st10,.st8,.st9{stroke:#91ca77}.st10,.st9{stroke:#df6770}.st10{fill:#383838;stroke:#383838;stroke-width:3}</style><symbol id="Symbol_x5F_2_0.0" viewBox="-13.6 -2.5 27.1 5"><path class="st0" d="M-10.3-.5C-8.6.1-6.7.5-4.8.8c6 1 11.8.3 17.1-2h-24.6l2 .7"/><path class="st1" d="M-10.3-.5C-8.6.1-6.7.5-4.8.8c6 1 11.8.3 17.1-2m-22.6.7l-2-.8"/></symbol><symbol id="Symbol_x5F_3_0.0" viewBox="-13.2 -5.7 26.5 11.4"><path class="st2" d="M10.7-5.5c-2.1.5-5 1-8.6 1.5-1.8-.6-3.5-.4-5.3.4-3.5-.5-5.9-1-7.1-1.5-1.9-.7-2.9-.8-3-.2.1 2 1.3 4.2 3.7 6.6C-6.7 4.2-3.5 5.6.1 5.6c3.6 0 6.8-1.5 9.6-4.4 2.4-2.5 3.6-4.7 3.6-6.6-.1-.4-.9-.4-2.6-.1"/></symbol><path class="st3" d="M478.3 175.6l-.2.1-.4.2v.2l-.2.3-.1.3h.1l.2.1.2.1.5-.7-.1-.2v-.4z"/><path id="XMLID_3067_" class="st4" d="M0 0h695v544H0z"/><g id="XMLID_2551_"><g id="XMLID_3185_"><path id="XMLID_3186_" class="st5" d="M481.7 457.6v-4.3"/></g><g id="XMLID_3183_"><path id="XMLID_3184_" class="st5" d="M481.7 440.5v-4.2"/></g><g id="XMLID_3080_"><path id="XMLID_3182_" class="st5" d="M481.7 321.3V317"/></g><g id="XMLID_3077_"><path id="XMLID_3078_" class="st5" d="M481.7 304.3V300"/></g><g id="XMLID_3075_"><path id="XMLID_3076_" class="st5" d="M481.7 287.2V283"/></g><g id="XMLID_3073_"><path id="XMLID_3074_" class="st5" d="M481.7 270.2v-4.3"/></g><g id="XMLID_3071_"><path id="XMLID_3072_" class="st5" d="M481.7 253.2v-4.3"/></g><g id="XMLID_2980_"><path id="XMLID_2981_" class="st5" d="M481.7 236.1v-4.2"/></g><g id="XMLID_2978_"><path id="XMLID_2979_" class="st5" d="M481.7 219.1v-4.3"/></g><g id="XMLID_2976_"><path id="XMLID_2977_" class="st5" d="M481.7 202.1v-4.3"/></g><g id="XMLID_2974_"><path id="XMLID_2975_" class="st5" d="M481.7 185v-4.2"/></g><g id="XMLID_2972_"><path id="XMLID_2973_" class="st5" d="M481.7 168v-4.3"/></g><g id="XMLID_2970_"><path id="XMLID_2971_" class="st5" d="M481.7 151v-4.3"/></g><g id="XMLID_2968_"><path id="XMLID_2969_" class="st5" d="M481.7 133.9v-4.2"/></g><g id="XMLID_2966_"><path id="XMLID_2967_" class="st5" d="M481.7 116.9v-4.3"/></g><g id="XMLID_2964_"><path id="XMLID_2965_" class="st5" d="M481.7 99.9v-4.3"/></g><g id="XMLID_2962_"><path id="XMLID_2963_" class="st5" d="M481.7 82.8v-4.2"/></g><g id="XMLID_2960_"><path id="XMLID_2961_" class="st5" d="M481.7 440.4v-4.3"/></g><g id="XMLID_2958_"><path id="XMLID_2959_" class="st5" d="M481.7 423.3v-4.2"/></g><g id="XMLID_2956_"><path id="XMLID_2957_" class="st5" d="M481.7 406.3V402"/></g><g id="XMLID_2560_"><path id="XMLID_2561_" class="st5" d="M481.7 389.3V385"/></g><g id="XMLID_2558_"><path id="XMLID_2559_" class="st5" d="M481.7 372.2V368"/></g><g id="XMLID_2556_"><path id="XMLID_2557_" class="st5" d="M481.7 355.2v-4.3"/></g><g id="XMLID_2554_"><path id="XMLID_2555_" class="st5" d="M481.7 338.2v-4.3"/></g><g id="XMLID_2552_"><path id="XMLID_2553_" class="st5" d="M481.7 321.1v-4.2"/></g></g><g id="XMLID_1924_"><g id="XMLID_3069_"><path id="XMLID_3070_" class="st5" d="M362.4 457.6v-4.3"/></g><g id="XMLID_3046_"><path id="XMLID_3047_" class="st5" d="M362.4 440.5v-4.2"/></g><g id="XMLID_3044_"><path id="XMLID_3045_" class="st5" d="M362.4 321.3V317"/></g><g id="XMLID_3042_"><path id="XMLID_3043_" class="st5" d="M362.4 304.3V300"/></g><g id="XMLID_3040_"><path id="XMLID_3041_" class="st5" d="M362.4 287.2V283"/></g><g id="XMLID_3038_"><path id="XMLID_3039_" class="st5" d="M362.4 270.2v-4.3"/></g><g id="XMLID_3036_"><path id="XMLID_3037_" class="st5" d="M362.4 253.2v-4.3"/></g><g id="XMLID_3034_"><path id="XMLID_3035_" class="st5" d="M362.4 236.1v-4.2"/></g><g id="XMLID_3032_"><path id="XMLID_3033_" class="st5" d="M362.4 219.1v-4.3"/></g><g id="XMLID_3030_"><path id="XMLID_3031_" class="st5" d="M362.4 202.1v-4.3"/></g><g id="XMLID_3028_"><path id="XMLID_3029_" class="st5" d="M362.4 185v-4.2"/></g><g id="XMLID_3026_"><path id="XMLID_3027_" class="st5" d="M362.4 168v-4.3"/></g><g id="XMLID_3024_"><path id="XMLID_3025_" class="st5" d="M362.4 151v-4.3"/></g><g id="XMLID_3022_"><path id="XMLID_3023_" class="st5" d="M362.4 133.9v-4.2"/></g><g id="XMLID_3020_"><path id="XMLID_3021_" class="st5" d="M362.4 116.9v-4.3"/></g><g id="XMLID_3018_"><path id="XMLID_3019_" class="st5" d="M362.4 99.9v-4.3"/></g><g id="XMLID_2028_"><path id="XMLID_3017_" class="st5" d="M362.4 82.8v-4.2"/></g><g id="XMLID_2023_"><path id="XMLID_2026_" class="st5" d="M362.4 440.4v-4.3"/></g><g id="XMLID_2011_"><path id="XMLID_2020_" class="st5" d="M362.4 423.3v-4.2"/></g><g id="XMLID_1982_"><path id="XMLID_1983_" class="st5" d="M362.4 406.3V402"/></g><g id="XMLID_1980_"><path id="XMLID_1981_" class="st5" d="M362.4 389.3V385"/></g><g id="XMLID_1973_"><path id="XMLID_1977_" class="st5" d="M362.4 372.2V368"/></g><g id="XMLID_1971_"><path id="XMLID_1972_" class="st5" d="M362.4 355.2v-4.3"/></g><g id="XMLID_1927_"><path id="XMLID_1967_" class="st5" d="M362.4 338.2v-4.3"/></g><g id="XMLID_1925_"><path id="XMLID_1926_" class="st5" d="M362.4 321.1v-4.2"/></g></g><path class="st6" d="M110.4 496.5h1c.9 0 1.6-.3 1.6-1.7v-13.6h2.8v13.4c0 3.6-1.9 4.5-4 4.5-.5 0-.9 0-1.4-.1v-2.5zM120.4 481.2V495c0 1.3.6 1.7 1.5 1.7s1.5-.5 1.5-1.7v-13.8h2.7v13.6c0 2.9-1.4 4.5-4.2 4.5-2.8 0-4.2-1.6-4.2-4.5v-13.6h2.7zM130.4 486.1v13h-2.5v-17.9h3.5l2.9 10.7v-10.7h2.5v17.9h-2.9l-3.5-13zM238 499.1h-2.8l-.5-3.2h-3.4l-.5 3.2h-2.6l2.9-17.9h4.1l2.8 17.9zm-6.4-5.7h2.7l-1.4-9-1.3 9zM242 481.2V495c0 1.3.6 1.7 1.5 1.7s1.5-.5 1.5-1.7v-13.8h2.7v13.6c0 2.9-1.4 4.5-4.2 4.5-2.8 0-4.2-1.6-4.2-4.5v-13.6h2.7zM253.7 489.1h3.9v5.7c0 2.9-1.4 4.5-4.2 4.5-2.8 0-4.2-1.6-4.2-4.5v-9.3c0-2.9 1.4-4.5 4.2-4.5 2.8 0 4.2 1.6 4.2 4.5v1.7H255v-1.9c0-1.3-.6-1.8-1.5-1.8s-1.5.5-1.5 1.8v9.7c0 1.3.6 1.7 1.5 1.7s1.5-.5 1.5-1.7v-3.3h-1.3v-2.6zM348.7 485.5c0-2.9 1.5-4.5 4.3-4.5s4.3 1.6 4.3 4.5v9.3c0 2.9-1.5 4.5-4.3 4.5s-4.3-1.6-4.3-4.5v-9.3zm2.8 9.5c0 1.3.6 1.8 1.5 1.8s1.5-.5 1.5-1.8v-9.7c0-1.3-.6-1.8-1.5-1.8s-1.5.5-1.5 1.8v9.7zM367.2 492.4v2.4c0 2.9-1.4 4.5-4.2 4.5-2.8 0-4.2-1.6-4.2-4.5v-9.3c0-2.9 1.4-4.5 4.2-4.5 2.8 0 4.2 1.6 4.2 4.5v1.7h-2.7v-1.9c0-1.3-.6-1.8-1.5-1.8s-1.5.5-1.5 1.8v9.7c0 1.3.6 1.7 1.5 1.7s1.5-.5 1.5-1.7v-2.6h2.7zM368.1 481.2h8.7v2.6h-2.9v15.3H371v-15.3h-2.9v-2.6zM467.8 481.2h4.4c2.8 0 4.2 1.6 4.2 4.4v9c0 2.9-1.4 4.4-4.2 4.4h-4.4v-17.8zm2.8 2.6v12.8h1.6c.9 0 1.4-.5 1.4-1.7v-9.3c0-1.3-.5-1.7-1.4-1.7h-1.6zM481.1 488.7h3.9v2.6h-3.9v5.2h4.9v2.6h-7.7v-17.9h7.7v2.6h-4.9v4.9zM495.8 492.4v2.4c0 2.9-1.4 4.5-4.2 4.5-2.8 0-4.2-1.6-4.2-4.5v-9.3c0-2.9 1.4-4.5 4.2-4.5 2.8 0 4.2 1.6 4.2 4.5v1.7h-2.7v-1.9c0-1.3-.6-1.8-1.5-1.8s-1.5.5-1.5 1.8v9.7c0 1.3.6 1.7 1.5 1.7s1.5-.5 1.5-1.7v-2.6h2.7zM577 430.4c0-2.1 1.1-3.4 3.2-3.4s3.2 1.2 3.2 3.4v7c0 2.1-1.1 3.4-3.2 3.4s-3.2-1.2-3.2-3.4v-7zm2.1 7.1c0 1 .4 1.3 1.1 1.3.7 0 1.1-.4 1.1-1.3v-7.2c0-1-.4-1.3-1.1-1.3-.7 0-1.1.4-1.1 1.3v7.2zM586.8 438.6v2h-2v-2h2zM588.2 430.5c0-2.3 1-3.5 3.2-3.5 2.1 0 3.1 1.2 3.1 3.4v.3h-2v-.5c0-1-.4-1.3-1.1-1.3-.7 0-1.2.4-1.2 1.6v2.5c.4-.8 1-1.2 2-1.2 1.6 0 2.3 1.1 2.3 3.1v2.5c0 2.1-1.1 3.4-3.2 3.4s-3.2-1.2-3.2-3.4v-6.9zm2.1 4.6v2.4c0 1 .4 1.3 1.1 1.3.7 0 1.1-.3 1.1-1.3v-2.4c0-1-.4-1.3-1.1-1.3-.7 0-1.1.3-1.1 1.3zM595.4 436.2l3.8-9.1h2.3v9.1h1v1.9h-1v2.4h-2.1v-2.4h-4.1v-1.9zm4.1 0v-5l-2.1 5h2.1zM603.3 430.4c0-2.1 1.1-3.4 3.2-3.4s3.2 1.2 3.2 3.4v7c0 2.1-1.1 3.4-3.2 3.4s-3.2-1.2-3.2-3.4v-7zm2.1 7.1c0 1 .4 1.3 1.1 1.3.7 0 1.1-.4 1.1-1.3v-7.2c0-1-.4-1.3-1.1-1.3-.7 0-1.1.4-1.1 1.3v7.2zM610.9 430.4c0-2.1 1.1-3.4 3.2-3.4s3.2 1.2 3.2 3.4v7c0 2.1-1.1 3.4-3.2 3.4s-3.2-1.2-3.2-3.4v-7zm2.1 7.1c0 1 .4 1.3 1.1 1.3.7 0 1.1-.4 1.1-1.3v-7.2c0-1-.4-1.3-1.1-1.3-.7 0-1.1.4-1.1 1.3v7.2zM577 326.1c0-2.1 1.1-3.4 3.2-3.4s3.2 1.2 3.2 3.4v7c0 2.1-1.1 3.4-3.2 3.4s-3.2-1.2-3.2-3.4v-7zm2.1 7.1c0 1 .4 1.3 1.1 1.3.7 0 1.1-.4 1.1-1.3V326c0-1-.4-1.3-1.1-1.3-.7 0-1.1.4-1.1 1.3v7.2zM586.8 334.2v2h-2v-2h2zM588.2 326.2c0-2.3 1-3.5 3.2-3.5 2.1 0 3.1 1.2 3.1 3.4v.3h-2v-.5c0-1-.4-1.3-1.1-1.3-.7 0-1.2.4-1.2 1.6v2.5c.4-.8 1-1.2 2-1.2 1.6 0 2.3 1.1 2.3 3.1v2.5c0 2.1-1.1 3.4-3.2 3.4s-3.2-1.2-3.2-3.4v-6.9zm2.1 4.5v2.4c0 1 .4 1.3 1.1 1.3.7 0 1.1-.3 1.1-1.3v-2.4c0-1-.4-1.3-1.1-1.3-.7 0-1.1.4-1.1 1.3zM602.1 322.8v1.8l-3.1 11.6h-2.1l3.1-11.5h-4.2v-1.9h6.3zM603.3 326.1c0-2.1 1.1-3.4 3.2-3.4s3.2 1.2 3.2 3.4v7c0 2.1-1.1 3.4-3.2 3.4s-3.2-1.2-3.2-3.4v-7zm2.1 7.1c0 1 .4 1.3 1.1 1.3.7 0 1.1-.4 1.1-1.3V326c0-1-.4-1.3-1.1-1.3-.7 0-1.1.4-1.1 1.3v7.2zM610.9 326.1c0-2.1 1.1-3.4 3.2-3.4s3.2 1.2 3.2 3.4v7c0 2.1-1.1 3.4-3.2 3.4s-3.2-1.2-3.2-3.4v-7zm2.1 7.1c0 1 .4 1.3 1.1 1.3.7 0 1.1-.4 1.1-1.3V326c0-1-.4-1.3-1.1-1.3-.7 0-1.1.4-1.1 1.3v7.2zM577 223.9c0-2.1 1.1-3.4 3.2-3.4s3.2 1.2 3.2 3.4v7c0 2.1-1.1 3.4-3.2 3.4s-3.2-1.2-3.2-3.4v-7zm2.1 7.1c0 1 .4 1.3 1.1 1.3.7 0 1.1-.4 1.1-1.3v-7.2c0-1-.4-1.3-1.1-1.3-.7 0-1.1.4-1.1 1.3v7.2zM586.8 232v2h-2v-2h2zM594.5 220.6v1.8l-3.1 11.6h-2.1l3.1-11.5h-4.2v-1.9h6.3zM595.7 223.9c0-2.1 1.1-3.4 3.2-3.4s3.2 1.2 3.2 3.4v7c0 2.1-1.1 3.4-3.2 3.4s-3.2-1.2-3.2-3.4v-7zm2.1 7.1c0 1 .4 1.3 1.1 1.3s1.1-.4 1.1-1.3v-7.2c0-1-.4-1.3-1.1-1.3s-1.1.4-1.1 1.3v7.2zM603.3 223.9c0-2.1 1.1-3.4 3.2-3.4s3.2 1.2 3.2 3.4v7c0 2.1-1.1 3.4-3.2 3.4s-3.2-1.2-3.2-3.4v-7zm2.1 7.1c0 1 .4 1.3 1.1 1.3.7 0 1.1-.4 1.1-1.3v-7.2c0-1-.4-1.3-1.1-1.3-.7 0-1.1.4-1.1 1.3v7.2zM610.9 223.9c0-2.1 1.1-3.4 3.2-3.4s3.2 1.2 3.2 3.4v7c0 2.1-1.1 3.4-3.2 3.4s-3.2-1.2-3.2-3.4v-7zm2.1 7.1c0 1 .4 1.3 1.1 1.3.7 0 1.1-.4 1.1-1.3v-7.2c0-1-.4-1.3-1.1-1.3-.7 0-1.1.4-1.1 1.3v7.2zM577 121.7c0-2.1 1.1-3.4 3.2-3.4s3.2 1.2 3.2 3.4v7c0 2.1-1.1 3.4-3.2 3.4s-3.2-1.2-3.2-3.4v-7zm2.1 7.1c0 1 .4 1.3 1.1 1.3.7 0 1.1-.4 1.1-1.3v-7.2c0-1-.4-1.3-1.1-1.3-.7 0-1.1.4-1.1 1.3v7.2zM586.8 129.8v2h-2v-2h2zM594.5 118.4v1.8l-3.1 11.6h-2.1l3.1-11.5h-4.2v-1.9h6.3zM600 121.7c0-1.2-.4-1.5-1.1-1.5-.7 0-1.1.4-1.1 1.3v.9h-2v-.7c0-2.1 1.1-3.4 3.1-3.4 2.1 0 3.1 1.2 3.1 3.4v.3c0 1.4-.5 2.3-1.5 2.8 1.1.5 1.5 1.5 1.5 2.8v1.1c0 2.1-1.1 3.4-3.1 3.4-2.1 0-3.1-1.2-3.1-3.4v-1.1h2v1.2c0 1 .4 1.3 1.1 1.3.7 0 1.1-.3 1.1-1.5v-1.1c0-1.2-.4-1.7-1.4-1.7h-.7v-1.9h.8c.8 0 1.3-.3 1.3-1.4v-.8zM603.3 121.7c0-2.1 1.1-3.4 3.2-3.4s3.2 1.2 3.2 3.4v7c0 2.1-1.1 3.4-3.2 3.4s-3.2-1.2-3.2-3.4v-7zm2.1 7.1c0 1 .4 1.3 1.1 1.3.7 0 1.1-.4 1.1-1.3v-7.2c0-1-.4-1.3-1.1-1.3-.7 0-1.1.4-1.1 1.3v7.2zM610.9 121.7c0-2.1 1.1-3.4 3.2-3.4s3.2 1.2 3.2 3.4v7c0 2.1-1.1 3.4-3.2 3.4s-3.2-1.2-3.2-3.4v-7zm2.1 7.1c0 1 .4 1.3 1.1 1.3.7 0 1.1-.4 1.1-1.3v-7.2c0-1-.4-1.3-1.1-1.3-.7 0-1.1.4-1.1 1.3v7.2z"/><path id="XMLID_229_" class="st7" d="M47.3 470.3h591.9"/><path id="XMLID_3048_" class="st7" d="M47.3 508.7h591.9"/><g id="XMLID_2982_"><g id="XMLID_3015_"><path id="XMLID_3016_" class="st5" d="M243.2 457.6v-4.3"/></g><g id="XMLID_3013_"><path id="XMLID_3014_" class="st5" d="M243.2 440.5v-4.2"/></g><g id="XMLID_3011_"><path id="XMLID_3012_" class="st5" d="M243.2 321.3V317"/></g><g id="XMLID_3009_"><path id="XMLID_3010_" class="st5" d="M243.2 304.3V300"/></g><g id="XMLID_3007_"><path id="XMLID_3008_" class="st5" d="M243.2 287.2V283"/></g><g id="XMLID_3005_"><path id="XMLID_3006_" class="st5" d="M243.2 270.2v-4.3"/></g><g id="XMLID_3003_"><path id="XMLID_3004_" class="st5" d="M243.2 253.2v-4.3"/></g><g id="XMLID_3001_"><path id="XMLID_3002_" class="st5" d="M243.2 236.1v-4.2"/></g><g id="XMLID_2999_"><path id="XMLID_3000_" class="st5" d="M243.2 219.1v-4.3"/></g><g id="XMLID_2997_"><path id="XMLID_2998_" class="st5" d="M243.2 202.1v-4.3"/></g><g id="XMLID_2995_"><path id="XMLID_2996_" class="st5" d="M243.2 185v-4.2"/></g><g id="XMLID_2993_"><path id="XMLID_2994_" class="st5" d="M243.2 168v-4.3"/></g><g id="XMLID_2991_"><path id="XMLID_2992_" class="st5" d="M243.2 151v-4.3"/></g><g id="XMLID_2989_"><path id="XMLID_2990_" class="st5" d="M243.2 133.9v-4.2"/></g><g id="XMLID_2987_"><path id="XMLID_2988_" class="st5" d="M243.2 116.9v-4.3"/></g><g id="XMLID_2985_"><path id="XMLID_2986_" class="st5" d="M243.2 99.9v-4.3"/></g><g id="XMLID_2983_"><path id="XMLID_2984_" class="st5" d="M243.2 82.8v-4.2"/></g><g id="XMLID_1758_"><path id="XMLID_1760_" class="st5" d="M243.2 440.4v-4.3"/></g><g id="XMLID_1756_"><path id="XMLID_1757_" class="st5" d="M243.2 423.3v-4.2"/></g><g id="XMLID_1750_"><path id="XMLID_1753_" class="st5" d="M243.2 406.3V402"/></g><g id="XMLID_1744_"><path id="XMLID_1747_" class="st5" d="M243.2 389.3V385"/></g><g id="XMLID_1738_"><path id="XMLID_1741_" class="st5" d="M243.2 372.2V368"/></g><g id="XMLID_1730_"><path id="XMLID_1733_" class="st5" d="M243.2 355.2v-4.3"/></g><g id="XMLID_1722_"><path id="XMLID_1728_" class="st5" d="M243.2 338.2v-4.3"/></g><g id="XMLID_196_"><path id="XMLID_1056_" class="st5" d="M243.2 321.1v-4.2"/></g></g><g id="XMLID_1761_"><g id="XMLID_1922_"><path id="XMLID_1923_" class="st5" d="M124 457.6v-4.3"/></g><g id="XMLID_1920_"><path id="XMLID_1921_" class="st5" d="M124 440.5v-4.2"/></g><g id="XMLID_1916_"><path id="XMLID_1919_" class="st5" d="M124 321.3V317"/></g><g id="XMLID_1898_"><path id="XMLID_1900_" class="st5" d="M124 304.3V300"/></g><g id="XMLID_1891_"><path id="XMLID_1894_" class="st5" d="M124 287.2V283"/></g><g id="XMLID_1882_"><path id="XMLID_1888_" class="st5" d="M124 270.2v-4.3"/></g><g id="XMLID_1845_"><path id="XMLID_1846_" class="st5" d="M124 253.2v-4.3"/></g><g id="XMLID_1842_"><path id="XMLID_1844_" class="st5" d="M124 236.1v-4.2"/></g><g id="XMLID_1840_"><path id="XMLID_1841_" class="st5" d="M124 219.1v-4.3"/></g><g id="XMLID_1838_"><path id="XMLID_1839_" class="st5" d="M124 202.1v-4.3"/></g><g id="XMLID_1836_"><path id="XMLID_1837_" class="st5" d="M124 185v-4.2"/></g><g id="XMLID_1834_"><path id="XMLID_1835_" class="st5" d="M124 168v-4.3"/></g><g id="XMLID_1831_"><path id="XMLID_1832_" class="st5" d="M124 151v-4.3"/></g><g id="XMLID_1828_"><path id="XMLID_1829_" class="st5" d="M124 133.9v-4.2"/></g><g id="XMLID_1825_"><path id="XMLID_1826_" class="st5" d="M124 116.9v-4.3"/></g><g id="XMLID_1818_"><path id="XMLID_1823_" class="st5" d="M124 99.9v-4.3"/></g><g id="XMLID_1815_"><path id="XMLID_1816_" class="st5" d="M124 82.8v-4.2"/></g><g id="XMLID_1810_"><path id="XMLID_1814_" class="st5" d="M124 440.4v-4.3"/></g><g id="XMLID_1791_"><path id="XMLID_1793_" class="st5" d="M124 423.3v-4.2"/></g><g id="XMLID_1785_"><path id="XMLID_1786_" class="st5" d="M124 406.3V402"/></g><g id="XMLID_1782_"><path id="XMLID_1783_" class="st5" d="M124 389.3V385"/></g><g id="XMLID_1780_"><path id="XMLID_1781_" class="st5" d="M124 372.2V368"/></g><g id="XMLID_1778_"><path id="XMLID_1779_" class="st5" d="M124 355.2v-4.3"/></g><g id="XMLID_1774_"><path id="XMLID_1776_" class="st5" d="M124 338.2v-4.3"/></g><g id="XMLID_1762_"><path id="XMLID_1763_" class="st5" d="M124 321.1v-4.2"/></g></g><path id="XMLID_2035_" class="st7" d="M560.4 470.3V82.8"/><path id="XMLID_2034_" class="st7" d="M560.4 432h8.6"/><path id="XMLID_2032_" class="st7" d="M560.4 329.8h8.6"/><path id="XMLID_2030_" class="st7" d="M560.4 227.6h8.6"/><path id="XMLID_2029_" class="st7" d="M560.4 125.4h8.6"/><g id="XMLID_267_"><path id="XMLID_280_" class="st8" d="M348.1 394.9v31.8"/><path id="XMLID_272_" class="st8" d="M348.1 394.9l7.4 7.4"/><path id="XMLID_268_" class="st8" d="M348.1 394.9l-7.4 7.4"/></g><g id="XMLID_281_"><path id="XMLID_287_" class="st9" d="M162.4 80.8V48"/><path id="XMLID_286_" class="st9" d="M162.4 80.8l-8.1-8.1"/><path id="XMLID_282_" class="st9" d="M162.4 80.8l8.1-8.1"/></g><g id="XMLID_754_"><path id="XMLID_100_" class="st10" d="M159.1 169.4v-48.9"/><path id="XMLID_99_" class="st10" d="M155.9 144.9h6.5v6.5h-6.5z"/></g><g id="XMLID_751_"><path id="XMLID_97_" class="st10" d="M174.9 162v-40.7"/><path id="XMLID_96_" class="st10" d="M171.6 127.8h6.5v16.3h-6.5z"/></g><g id="XMLID_748_"><path id="XMLID_94_" class="st10" d="M190.6 207.6v-94.4"/><path id="XMLID_93_" class="st10" d="M187.4 127.8h6.5v26.1h-6.5z"/></g><g id="XMLID_973_"><path id="XMLID_91_" class="st10" d="M206.4 230.4v-97.7"/><path id="XMLID_90_" class="st10" d="M203.1 150.6h6.5v71.7h-6.5z"/></g><g id="XMLID_722_"><path id="XMLID_88_" class="st10" d="M222.1 253.2v-52.1"/><path id="XMLID_87_" class="st10" d="M218.9 209.3h6.5v13h-6.5z"/></g><g id="XMLID_959_"><path id="XMLID_85_" class="st10" d="M237.9 222.3v-42.4"/><path id="XMLID_84_" class="st10" d="M234.6 201.1h6.5v16.3h-6.5z"/></g><g id="XMLID_956_"><path id="XMLID_82_" class="st10" d="M253.6 236.9V162"/><path id="XMLID_81_" class="st10" d="M250.4 173.4h6.5v42.3h-6.5z"/></g><g id="XMLID_953_"><path id="XMLID_79_" class="st10" d="M269.4 269.5V165.3"/><path id="XMLID_78_" class="st10" d="M266.1 176.7h6.5v87.9h-6.5z"/></g><g id="XMLID_950_"><path id="XMLID_76_" class="st10" d="M285.1 308.6v-52.1"/><path id="XMLID_75_" class="st10" d="M281.9 267.9h6.5v35.8h-6.5z"/></g><g id="XMLID_945_"><path id="XMLID_73_" class="st10" d="M300.9 364v-68.4"/><path id="XMLID_72_" class="st10" d="M297.6 303.7h6.5v22.8h-6.5z"/></g><g id="XMLID_937_"><path id="XMLID_70_" class="st10" d="M316.6 354.2v-68.4"/><path id="XMLID_69_" class="st10" d="M313.4 323.3h6.5v19.5h-6.5z"/></g><g id="XMLID_934_"><path id="XMLID_936_" class="st9" d="M332.4 325.3v101.4"/><path id="XMLID_935_" transform="rotate(-180 332.369 347.692)" class="st9" d="M329.1 342.8h6.5v9.8h-6.5z"/></g><g id="XMLID_265_"><path id="XMLID_270_" class="st8" d="M143.4 143.5V42"/><path id="XMLID_269_" class="st8" d="M140.1 116.2h6.5v9.8h-6.5z"/></g><g id="XMLID_931_"><path id="XMLID_67_" class="st10" d="M348.1 373.8v-75"/><path id="XMLID_66_" class="st10" d="M344.9 316.7h6.5v32.6h-6.5z"/></g><g id="XMLID_910_"><path id="XMLID_64_" class="st10" d="M363.9 344.4v-61.9"/><path id="XMLID_63_" class="st10" d="M360.6 307h6.5v19.5h-6.5z"/></g><g id="XMLID_907_"><path id="XMLID_61_" class="st10" d="M379.6 350.9v-55.3"/><path id="XMLID_60_" class="st10" d="M376.4 307h6.5v39.1h-6.5z"/></g><g id="XMLID_885_"><path id="XMLID_58_" class="st10" d="M395.4 344.4v-48.8"/><path id="XMLID_57_" class="st10" d="M392.1 307h6.5v32.6h-6.5z"/></g><g id="XMLID_882_"><path id="XMLID_55_" class="st10" d="M411.1 337.9v-55.4"/><path id="XMLID_54_" class="st10" d="M407.9 293.9h6.5v13h-6.5z"/></g><g id="XMLID_879_"><path id="XMLID_52_" class="st10" d="M426.9 318.4v-71.7"/><path id="XMLID_51_" class="st10" d="M423.6 251.6h6.5v42.3h-6.5z"/></g><g id="XMLID_876_"><path id="XMLID_49_" class="st10" d="M442.6 292.3v-61.9"/><path id="XMLID_48_" class="st10" d="M439.4 254.9h6.5v32.6h-6.5z"/></g><g id="XMLID_323_"><path id="XMLID_46_" class="st10" d="M537.1 355.8v-74.9"/><path id="XMLID_45_" transform="rotate(-180 537.13 315.12)" class="st10" d="M533.9 298.8h6.5v32.6h-6.5z"/></g><g id="XMLID_317_"><path id="XMLID_43_" class="st10" d="M521.4 326.5v-61.9"/><path id="XMLID_42_" transform="rotate(-180 521.38 298.833)" class="st10" d="M518.1 289.1h6.5v19.5h-6.5z"/></g><g id="XMLID_311_"><path id="XMLID_40_" class="st10" d="M505.6 333v-55.3"/><path id="XMLID_39_" transform="rotate(-180 505.628 308.605)" class="st10" d="M502.4 289.1h6.5v39.1h-6.5z"/></g><g id="XMLID_305_"><path id="XMLID_37_" class="st10" d="M489.9 326.5v-48.8"/><path id="XMLID_36_" transform="rotate(-180 489.877 305.347)" class="st10" d="M486.6 289.1h6.5v32.6h-6.5z"/></g><g id="XMLID_278_"><path id="XMLID_34_" class="st10" d="M474.1 320v-55.4"/><path id="XMLID_33_" transform="rotate(-180 474.127 282.547)" class="st10" d="M470.9 276h6.5v13h-6.5z"/></g><g id="XMLID_271_"><path id="XMLID_31_" class="st10" d="M458.4 300.5v-71.7"/><path id="XMLID_30_" transform="rotate(-180 458.376 254.86)" class="st10" d="M455.1 233.7h6.5V276h-6.5z"/></g><g id="XMLID_491_"><path id="XMLID_28_" class="st10" d="M48.9 243.5v-75"/><path id="XMLID_27_" class="st10" d="M45.6 186.5h6.5v32.6h-6.5z"/></g><g id="XMLID_485_"><path id="XMLID_25_" class="st10" d="M64.6 214.1v-61.8"/><path id="XMLID_24_" class="st10" d="M61.3 176.7h6.5v19.5h-6.5z"/></g><g id="XMLID_300_"><path id="XMLID_22_" class="st10" d="M80.4 220.7v-55.4"/><path id="XMLID_21_" class="st10" d="M77.1 176.7h6.5v39.1h-6.5z"/></g><g id="XMLID_285_"><path id="XMLID_299_" class="st10" d="M96.1 214.1v-48.8"/><path id="XMLID_298_" class="st10" d="M92.8 176.7h6.5v32.6h-6.5z"/></g><g id="XMLID_279_"><path id="XMLID_19_" class="st10" d="M111.9 207.6v-55.3"/><path id="XMLID_18_" class="st10" d="M108.6 163.7h6.5v13h-6.5z"/></g><g id="XMLID_266_"><path id="XMLID_17_" class="st10" d="M127.6 188.1v-71.7"/><path id="XMLID_16_" class="st10" d="M124.4 121.3h6.5v42.3h-6.5z"/></g></svg>