<?xml version="1.0" encoding="utf-8"?><svg id="money-kustas" image-rendering="optimizeSpeed" baseProfile="basic" version="1.1" preserveAspectRatio="xMidYMid meet" x="0px" y="0px" width="500" height="500" xmlns="http://www.w3.org/2000/svg" viewBox="0 0 500 500" xmlns:xlink="http://www.w3.org/1999/xlink"><g id="Scene-1" overflow="visible"><g id="Symbol-1" transform="translate(242.1 256)"><g id="Tween-14" transform="matrix(.6 0 0 .6 13.8 -8.5)"><animateTransform attributeName="transform" additive="replace" type="translate" repeatCount="indefinite" dur="1.3s" keyTimes="0;.26;.45;.61;.77;.93;1" values="13.8,-8.5;13.8,-8.5;14.2,-10.2;13.8,-8.5;14.2,-10.2;13.8,-8.5;13.8,-8.5"/><animateTransform attributeName="transform" additive="sum" type="rotate" repeatCount="indefinite" dur="1.3s" keyTimes="0;.26;.45;.61;.77;.93;1" values="0,0,0;0,0,0;-4,0,0;0,0,0;-4,0,0;0,0,0;0,0,0"/><animateTransform attributeName="transform" additive="sum" type="scale" repeatCount="indefinite" dur="1.3s" keyTimes="0;1" values=".6,.6;.6,.6"/><animateTransform attributeName="transform" additive="sum" type="translate" repeatCount="indefinite" dur="1.3s" keyTimes="0;.26;.45;.61;.77;.93;1" values="-.2,.05;-.2,.05;-.15,-.05;-.2,.05;-.15,-.05;-.2,.05;-.2,.05"/><path fill="#596E41" stroke="none" d="M-205.5 -99L-212.0 85.4 205.5 100 212.1 -85.3 -205.5 -99Z" test="Tween 14"/></g><g id="Tween-13" transform="matrix(.6 0 0 .6 6 -8.3)"><animateTransform attributeName="transform" additive="replace" type="translate" repeatCount="indefinite" dur="1.3s" keyTimes="0;.26;.45;.61;.77;.93;1" values="6,-8.3;6,-8.3;6.4,-10;6,-8.3;6.4,-10;6,-8.3;6,-8.3"/><animateTransform attributeName="transform" additive="sum" type="rotate" repeatCount="indefinite" dur="1.3s" keyTimes="0;.26;.45;.61;.77;.93;1" values="0,0,0;0,0,0;6.5,0,0;0,0,0;6.5,0,0;0,0,0;0,0,0"/><animateTransform attributeName="transform" additive="sum" type="scale" repeatCount="indefinite" dur="1.3s" keyTimes="0;1" values=".6,.6;.6,.6"/><animateTransform attributeName="transform" additive="sum" type="translate" repeatCount="indefinite" dur="1.3s" keyTimes="0;.26;.45;.61;.77;.93;1" values="-.2,.1;-.2,.1;-.15,-.05;-.2,.1;-.15,-.05;-.2,.1;-.2,.1"/><path fill="#759854" stroke="none" d="M-210.4 -89L-207.2 96.3 210.4 89.0 207.2 -96.3 -210.4 -89Z" test="Tween 13"/></g><g id="Tween-12" transform="matrix(.6 0 0 .6 -4.7 2.2)"><animateTransform attributeName="transform" additive="replace" type="translate" repeatCount="indefinite" dur="1.3s" keyTimes="0;.26;.45;.61;.77;.93;1" values="-4.6,2.3;-4.6,2.3;-4.3,.6;-4.6,2.3;-4.3,.6;-4.6,2.3;-4.6,2.3"/><animateTransform attributeName="transform" additive="sum" type="rotate" repeatCount="indefinite" dur="1.3s" keyTimes="0;.26;.45;.61;.77;.93;1" values="0,0,0;0,0,0;3,0,0;0,0,0;3,0,0;0,0,0;0,0,0"/><animateTransform attributeName="transform" additive="sum" type="scale" repeatCount="indefinite" dur="1.3s" keyTimes="0;1" values=".6,.6;.6,.6"/><animateTransform attributeName="transform" additive="sum" type="translate" repeatCount="indefinite" dur="1.3s" keyTimes="0;.26;.45;.61;.77;.93;1" values="0,-.2;0,-.2;.05,-.2;0,-.2;.05,-.2;0,-.2;0,-.2"/><path fill="#B7D986" stroke="none" d="M-208 92.7L208 92.7 208 -92.7 -208 -92.7 -208 92.7M190.8 75.6L-190 75.6 -190 -75.5 190.8 -75.5 190.8 75.6M-167.5 -32Q-174 -29 -183.1 -29L-183.1 30.0Q-174 30.0 -167.4 33.0 -160.2 35 -154.6 41.2 -149.0 46.5 -146 53.4 -142.8 60.5 -142.8 68.3L-25.7 68.3Q-34.2 63.2 -40 55.2 -47.2 47.8 -51.6 38.4 -55.7 29.5 -57.8 19.4 -59.8 9.7 -59.8 0 -59.8 -9.7 -57.8 -19.3 -55.7 -29.4 -51.6 -38.3 -47.2 -47.7 -40 -55.1 -34.2 -63.0 -25.7 -68.2L-142.8 -68.2Q-142.8 -60.4 -146 -53.3 -149.1 -46.4 -154.6 -41.1 -160.2 -35.8 -167.5 -32M-126.8 -8.4Q-125.1 -12.3 -121 -15.4 -118.7 -18.4 -114.6 -20.0 -110.3 -21.7 -105.6 -21.7 -100 -21.7 -96.7 -20.0 -92.5 -18.4 -89.4 -15.4 -86.2 -12.3 -84.4 -8.4 -82.6 -4.4 -82.6 0 -82.6 4.4 -84.4 8.5 -86.2 12.4 -89.4 15.4 -92.5 18.5 -96.7 20.1 -100 21.8 -105.6 21.8 -110.3 21.8 -114.6 20.1 -118.7 18.5 -121 15.4 -125.1 12.4 -126.8 8.5 -128.6 4.4 -128.6 0 -128.6 -4.4 -126.8 -8.4M51.5 -38.3Q55.6 -29.4 57.7 -19.3 59.8 -9.7 59.8 0 59.8 9.7 57.7 19.4 55.6 29.4 51.5 38.3 47.2 47.8 40 55.2 34.2 63.1 25.7 68.3L142.8 68.3Q142.8 60.5 146 53.4 149.0 46.5 154.6 41.2 160.2 35 167.4 33.0 174 30.0 183.1 30.0L183.1 -29Q174 -29 167.4 -32 160.2 -35.8 154.6 -41.1 149.0 -46.4 146 -53.3 142.8 -60.4 142.8 -68.2L25.7 -68.2Q34.2 -63.0 40 -55.1 47.1 -47.7 51.5 -38.3M105.6 -21.7Q110.3 -21.7 114.6 -20.0 118.7 -18.4 121 -15.4 125.0 -12.3 126.8 -8.4 128.6 -4.4 128.6 0 128.6 4.4 126.8 8.5 125.0 12.4 121 15.4 118.7 18.5 114.6 20.1 110.3 21.8 105.6 21.8 100 21.8 96.7 20.1 92.5 18.5 89.3 15.4 86.1 12.4 84.4 8.5 82.6 4.4 82.6 0 82.6 -4.4 84.4 -8.4 86.1 -12.3 89.3 -15.4 92.5 -18.4 96.7 -20.0 100 -21.7 105.6 -21.7M10.0 -35.1Q5.5 -37.5 0 -37.5 -5.5 -37.5 -10.0 -35.1 -14.2 -32 -16 -28 -19.5 -25.0 -20.1 -20.3 -20.7 -15.4 -19.1 -10.7 -19.3 -10.8 -19.7 -10 -20.4 -10 -21.1 -10.6 -22.1 -10.1 -22.3 -9.2 -22.4 -8.3 -21 -7 -21.3 -5.3 -21 -3.3 -20 -2 -20.6 -.1 -20.4 1.5 -20.1 2.3 -19.7 3.4 -18.7 4.0 -18.1 4.4 -17.5 3L-17.0 3.4Q-16 5 -15 7 -14 10.6 -13 12.0 -13.1 13.2 -14.4 14.7 -15.3 15.7 -16.8 16.6 -20.7 18.8 -30.5 22.8 -38.3 26.0 -44.0 28.0 -41.3 36.3 -36.8 43.3 -32.4 50.2 -26.6 55.2 -20.8 60.3 -14.1 63.0 -7.2 65.8 0 65.8 7.3 65.8 14.1 63.0 20.8 60.3 26.6 55.2 32.3 50.2 36.8 43.3 41.2 36.3 44.0 28.0 38.3 26 30.5 22.8 20.7 18.8 16.7 16.6 15.3 15.8 14.4 14.7 13.1 13.2 13 12.0 14 10.6 15 7 16 5 17 3.4L17.5 3Q18.0 4.4 18.7 4.0 19.6 3.4 20.1 2.3 20.4 1.5 20.6 -.1 20 -2 21 -3.3 21.3 -5.3 21 -7 22.4 -8.3 22.2 -9.2 22.0 -10.1 21.1 -10.6 20.4 -10 19.7 -10L19.0 -10.7Q20.6 -15.4 20.0 -20.3 19.4 -25.0 16 -28 14.2 -32 10.0 -35.1Z" test="Tween 12"/><path fill="#668848" stroke="none" d="M-190 75.6L190.8 75.6 190.8 -75.5 -190 -75.5 -190 75.6M0 -37.5Q5.5 -37.5 10.0 -35.1 14.2 -32 16 -28 19.4 -25.0 20.0 -20.3 20.6 -15.4 19.0 -10.7L19.7 -10Q20.4 -10 21.1 -10.6 22.0 -10.1 22.2 -9.2 22.4 -8.3 21 -7 21.3 -5.3 21 -3.3 20 -2 20.6 -.1 20.4 1.5 20.1 2.3 19.6 3.4 18.7 4.0 18.0 4.4 17.5 3L17 3.4Q16 5 15 7 14 10.6 13 12.0 13.1 13.2 14.4 14.7 15.3 15.8 16.7 16.6 20.7 18.8 30.5 22.8 38.3 26 44.0 28.0 41.2 36.3 36.8 43.3 32.3 50.2 26.6 55.2 20.8 60.3 14.1 63.0 7.3 65.8 0 65.8 -7.2 65.8 -14.1 63.0 -20.8 60.3 -26.6 55.2 -32.4 50.2 -36.8 43.3 -41.3 36.3 -44.0 28.0 -38.3 26.0 -30.5 22.8 -20.7 18.8 -16.8 16.6 -15.3 15.7 -14.4 14.7 -13.1 13.2 -13 12.0 -14 10.6 -15 7 -16 5 -17.0 3.4L-17.5 3Q-18.1 4.4 -18.7 4.0 -19.7 3.4 -20.1 2.3 -20.4 1.5 -20.6 -.1 -20 -2 -21 -3.3 -21.3 -5.3 -21 -7 -22.4 -8.3 -22.3 -9.2 -22.1 -10.1 -21.1 -10.6 -20.4 -10 -19.7 -10 -19.3 -10.8 -19.1 -10.7 -20.7 -15.4 -20.1 -20.3 -19.5 -25.0 -16 -28 -14.2 -32 -10.0 -35.1 -5.5 -37.5 0 -37.5M57.7 -19.3Q55.6 -29.4 51.5 -38.3 47.1 -47.7 40 -55.1 34.2 -63.0 25.7 -68.2L142.8 -68.2Q142.8 -60.4 146 -53.3 149.0 -46.4 154.6 -41.1 160.2 -35.8 167.4 -32 174 -29 183.1 -29L183.1 30.0Q174 30.0 167.4 33.0 160.2 35 154.6 41.2 149.0 46.5 146 53.4 142.8 60.5 142.8 68.3L25.7 68.3Q34.2 63.1 40 55.2 47.2 47.8 51.5 38.3 55.6 29.4 57.7 19.4 59.8 9.7 59.8 0 59.8 -9.7 57.7 -19.3M-183.1 -29Q-174 -29 -167.5 -32 -160.2 -35.8 -154.6 -41.1 -149.1 -46.4 -146 -53.3 -142.8 -60.4 -142.8 -68.2L-25.7 -68.2Q-34.2 -63.0 -40 -55.1 -47.2 -47.7 -51.6 -38.3 -55.7 -29.4 -57.8 -19.3 -59.8 -9.7 -59.8 0 -59.8 9.7 -57.8 19.4 -55.7 29.5 -51.6 38.4 -47.2 47.8 -40 55.2 -34.2 63.2 -25.7 68.3L-142.8 68.3Q-142.8 60.5 -146 53.4 -149.0 46.5 -154.6 41.2 -160.2 35 -167.4 33.0 -174 30.0 -183.1 30.0L-183.1 -29M-121 -15.4Q-125.1 -12.3 -126.8 -8.4 -128.6 -4.4 -128.6 0 -128.6 4.4 -126.8 8.5 -125.1 12.4 -121 15.4 -118.7 18.5 -114.6 20.1 -110.3 21.8 -105.6 21.8 -100 21.8 -96.7 20.1 -92.5 18.5 -89.4 15.4 -86.2 12.4 -84.4 8.5 -82.6 4.4 -82.6 0 -82.6 -4.4 -84.4 -8.4 -86.2 -12.3 -89.4 -15.4 -92.5 -18.4 -96.7 -20.0 -100 -21.7 -105.6 -21.7 -110.3 -21.7 -114.6 -20.0 -118.7 -18.4 -121 -15.4M114.6 -20.0Q110.3 -21.7 105.6 -21.7 100 -21.7 96.7 -20.0 92.5 -18.4 89.3 -15.4 86.1 -12.3 84.4 -8.4 82.6 -4.4 82.6 0 82.6 4.4 84.4 8.5 86.1 12.4 89.3 15.4 92.5 18.5 96.7 20.1 100 21.8 105.6 21.8 110.3 21.8 114.6 20.1 118.7 18.5 121 15.4 125.0 12.4 126.8 8.5 128.6 4.4 128.6 0 128.6 -4.4 126.8 -8.4 125.0 -12.3 121 -15.4 118.7 -18.4 114.6 -20.0Z" test="Tween 12"/></g></g></g></svg>