<svg xmlns:xlink="http://www.w3.org/1999/xlink" xmlns="http://www.w3.org/2000/svg" baseProfile="basic" width="695" height="432" viewBox="0 0 695 432" preserveAspectRatio="xMinYMin meet"><defs><symbol id="a" overflow="visible"><path fill="none" stroke="#19344F" stroke-width="2.5" stroke-linecap="round" stroke-linejoin="round" d="M.051.051h191.95"/></symbol><symbol id="s" overflow="visible"><use xlink:href="#a"/></symbol><symbol id="b" overflow="visible"><path fill="none" stroke="#19344F" stroke-width="2.5" stroke-linecap="round" stroke-linejoin="round" d="M.051.051h179.25"/></symbol><symbol id="r" overflow="visible"><use xlink:href="#b"/></symbol><symbol id="c" overflow="visible"><path fill="#FFF" stroke="#19344F" stroke-width="2.5" stroke-linecap="round" stroke-linejoin="round" d="M60.601 28.101l9.45-3.65-12.45-10-24.55 3.3q-2 .3-4.15.75-4.3 1-4.95 2.1-.65 1.05.3 4.7.5 1.85 1.1 3.45l35.25-.65"/><path fill="#FFF" d="M74.901 6.401q-7.7-6.35-17.7-6.35-10.6 0-17.45 4.65-7.3 4.95-9.05 14.35l53.75 3.2q-1.95-9.6-9.55-15.85"/><path fill="none" stroke="#19344F" stroke-width="2.5" stroke-linecap="round" stroke-linejoin="round" d="M57.201.051q10 0 17.7 6.35 7.6 6.25 9.55 15.85M57.201.051q-10.6 0-17.45 4.65-7.3 4.95-9.05 14.35"/><path fill="#FFF" d="M16.151 28.751l27.45-12.1q-4.75-4.25-11.1-4.25-6.8 0-11.55 4.8-4.8 4.75-4.8 11.55"/><path fill="none" stroke="#19344F" stroke-width="2.5" stroke-linecap="round" stroke-linejoin="round" d="M16.151 28.751q0-6.8 4.8-11.55 4.75-4.8 11.55-4.8 6.35 0 11.1 4.25"/><path fill="#FFF" d="M86.851 17.751q-4.7 0-8.55 2.6l-56.45 3.55q-4-3.5-9.25-3.2-5.3.2-8.95 4.15-3.6 3.9-3.6 9.25 0 1.8 1.3 3.1 1.25 1.25 3.05 1.25h94.8q1.25 0 2.1-.9.9-.9.9-2.15v-2.3q0-6.35-4.5-10.85-4.45-4.5-10.85-4.5"/><path fill="none" stroke="#19344F" stroke-width="2.5" stroke-linecap="round" stroke-linejoin="round" d="M78.301 20.351q3.85-2.6 8.55-2.6 6.4 0 10.85 4.5 4.5 4.5 4.5 10.85v2.3q0 1.25-.9 2.15-.85.9-2.1.9h-94.8q-1.8 0-3.05-1.25-1.3-1.3-1.3-3.1 0-5.35 3.6-9.25 3.65-3.95 8.95-4.15 5.25-.3 9.25 3.2M74.351 12.001q.95 1 2.05 2.45"/><path fill="#FFF" d="M56.601 4.351l14.95 5.1q-3-2.3-6.75-3.7-3.95-1.4-8.2-1.4"/><path fill="none" stroke="#19344F" stroke-width="2.5" stroke-linecap="round" stroke-linejoin="round" d="M64.801 5.751q3.75 1.4 6.75 3.7m-6.75-3.7q-3.95-1.4-8.2-1.4"/><path fill="#EBEDF2" d="M17.8 29.45q-5.65-4.45-5.25-8.9-5.3.25-8.95 4.2Q0 28.65 0 34q0 1.75 1.3 3.05 1.25 1.25 3.05 1.25l51.375-.025Q28.394 37.747 17.8 29.45"/><path fill="none" stroke="#19344F" stroke-width="2.5" stroke-linecap="round" stroke-linejoin="round" d="M78.301 20.351q3.85-2.6 8.55-2.6 6.4 0 10.85 4.5 4.5 4.5 4.5 10.85v2.3q0 1.25-.9 2.15-.85.9-2.1.9h-94.8q-1.8 0-3.05-1.25-1.3-1.3-1.3-3.1 0-5.35 3.6-9.25 3.65-3.95 8.95-4.15 5.25-.3 9.25 3.2"/></symbol><symbol id="q" overflow="visible"><use xlink:href="#c"/></symbol><symbol id="d" overflow="visible"><path fill="#99C977" d="M-50.699-49.599l-8.45-.1q10.8 24 27.6 34.25.85.5 4-.35 3.2-.85 4-.4.6.35.25 2.75-.35 2.45.2 2.75Q-11.749-4.749.051.051q-3.55-34.15-31.75-45.35-8.8-3.5-19-4.3"/><path fill="none" stroke="#1A344F" stroke-width="2.5" stroke-linecap="round" stroke-linejoin="round" d="M-50.699-49.599l-8.45-.1q10.8 24 27.6 34.25.85.5 4-.35 3.2-.85 4-.4.6.35.25 2.75-.35 2.45.2 2.75Q-11.749-4.749.051.051q-3.55-34.15-31.75-45.35-8.8-3.5-19-4.3"/></symbol><symbol id="e" overflow="visible"><path fill="#89B854" d="M-19.049-36.799q2.05 3.4 3.65 7.25 5.15 12.25 3.95 24.55.3.75 5.95 3 2.8 1.1 5.55 2.05-.5-6.85-3.35-15.2-5.65-16.75-17.45-24.25l1.7 2.6"/></symbol><symbol id="f" overflow="visible"><path fill="none" stroke="#1A344F" stroke-width="2.5" stroke-linecap="round" stroke-linejoin="round" d="M-50.699-49.599l-8.45-.1q10.8 24 27.6 34.25.85.5 4-.35 3.2-.85 4-.4.6.35.25 2.75-.35 2.45.2 2.75Q-11.749-4.749.051.051q-3.55-34.15-31.75-45.35-8.8-3.5-19-4.3"/></symbol><symbol id="g" overflow="visible"><path fill="none" stroke="#1A344F" stroke-width="2.5" stroke-linecap="round" stroke-linejoin="round" d="M-36.899-35.649q6.15 3.8 11.85 8.05 18.2 13.6 24.95 26.35m-36.8-34.4l-5-3"/></symbol><symbol id="p" overflow="visible"><use xlink:href="#d"/><use xlink:href="#e"/><use xlink:href="#f"/><use xlink:href="#g"/></symbol><symbol id="h" overflow="visible"><path fill="#99C977" d="M46.101-27.699q-1.55-.4-4.6 1.3-3.2 1.8-4.4 1.65-1.35-.15-3.6-2.55-2.2-2.35-3.45-2.3-12.45.3-20 4.9-2.35 1.45-5.2 4-3.1 2.75-4.1 3.45l-.65 1.8q17.15 17.25 51.35 15.3 11.05-.65 22-3.2 8.9-2.1 9.35-2.9-18.25-16.65-36.7-21.45"/><path fill="none" stroke="#1A344F" stroke-width="2.5" stroke-linecap="round" stroke-linejoin="round" d="M46.101-27.699q-1.55-.4-4.6 1.3-3.2 1.8-4.4 1.65-1.35-.15-3.6-2.55-2.2-2.35-3.45-2.3-12.45.3-20 4.9-2.35 1.45-5.2 4-3.1 2.75-4.1 3.45m45.35-10.45q18.45 4.8 36.7 21.45-.45.8-9.35 2.9-10.95 2.55-22 3.2-34.2 1.95-51.35-15.3"/></symbol><symbol id="i" overflow="visible"><path fill="none" stroke="#1A344F" stroke-width="2.5" stroke-linecap="round" stroke-linejoin="round" d="M.051-13.799l22.35-.55q25.05.05 38.65 3.15"/></symbol><symbol id="o" overflow="visible"><use xlink:href="#h"/><use xlink:href="#i"/></symbol><symbol id="j" overflow="visible"><path fill="#99C977" stroke="#1A344F" stroke-width="2.5" stroke-linecap="round" stroke-linejoin="round" d="M-6.899 7.501l-7.35-7.45q-8.25 19.15-6.25 37.1 1.65 14.65 10 28 1 1.55 4.95 2.4 4.1.85 5.1 2.05.95 1.15.85 5.25-.1 3.95.85 4.9 5.3 5.3 11.2 9.6 3 2.15 4.9 3.25 10.65-31.2-9.4-65-6.25-10.55-14.85-20.1"/></symbol><symbol id="k" overflow="visible"><path fill="#89B854" d="M-.499 15.201l-12.8-15.05-2.2 2.9q-8.45 23.95-2.05 45.95 3.25 11 8.15 17.2l5.6 1.75q-3.65-20.8-.55-38.85 1-5.65 2.5-10.35l1.35-3.55"/></symbol><symbol id="l" overflow="visible"><path fill="none" stroke="#1A344F" stroke-width="2.5" stroke-linecap="round" stroke-linejoin="round" d="M-6.899 7.501l-7.35-7.45q-8.25 19.15-6.25 37.1 1.65 14.65 10 28 1 1.55 4.95 2.4 4.1.85 5.1 2.05.95 1.15.85 5.25-.1 3.95.85 4.9 5.3 5.3 11.2 9.6 3 2.15 4.9 3.25 10.65-31.2-9.4-65-6.25-10.55-14.85-20.1"/></symbol><symbol id="m" overflow="visible"><path fill="none" stroke="#1A344F" stroke-width="2.5" stroke-linecap="round" stroke-linejoin="round" d="M-13.299.151l6.35 25.45q8.25 29.3 17.9 48.6"/></symbol><symbol id="n" overflow="visible"><use xlink:href="#j"/><use xlink:href="#k"/><use xlink:href="#l"/><use xlink:href="#m"/></symbol></defs><g overflow="visible"><path fill="#FCFCFC" d="M697.201 432.501V.051H.051v432.45h697.15"/><path fill="#E3F2F3" d="M154.401 283.801q-62.75 5-62.75 14.1 0 9.3 62.75 15.35 61.75 5.95 154.95 5.95 14.05 0 33.2 1.2 10.85.65 31.8 2.15 37 2.3 57.15-1.35 15.75-2.85 55.75-10.1 32.15-6.65 32.15-11.75 0-9.3-58.9-14.85-57.55-5.4-151.15-5.4-96.55 0-154.95 4.7"/><path fill="#F7F2C2" stroke="#19344F" stroke-width="2.5" stroke-linecap="round" stroke-linejoin="round" d="M185.701 284.051l-9.55 7.55h255.35q-1.5-2.55-5.15-6.4-7.3-7.8-18.05-14.45-34.4-21.35-90.45-23.9-56.05-2.55-104.45 20.85-15.15 7.3-27.7 16.35"/><path fill="none" stroke="#19344F" stroke-width="2.5" stroke-linecap="round" stroke-linejoin="round" d="M155.151 291.601h24M469.851 291.601h12M431.501 291.601h28.75"/><path fill="#CABA9E" fill-opacity=".569" d="M247.25 271q-.35-.2-.45-.65l-.55-4.85q-.05-.5-.6-.7-.5-.15-.9.2l-3.5 3.4q-.35.35-.75.2l-4.8-.9q-.5-.1-.85.35-.3.4-.1.9l2.2 4.35q.15.45-.05.8l-2.35 4.25q-.25.5.05.95.3.45.85.35l4.75-.7q.55-.1.8.3l1.4 1.85q.3.4.85.3l1.9-.35q.55-.1.7-.65l.75-2.95q.15-.4.5-.55l4.45-2.1q.5-.2.5-.75.05-.55-.45-.8l-4.35-2.25"/><path fill="#E7A239" d="M251.701 264.601l-5.9 3.9-6.55-2.6 1.9 6.8-4.55 5.45 7.1.3 1.5 2.95h3l1.75-3.6 6.85-1.75-5.55-4.4.45-7.05"/><path fill="none" stroke="#19344F" stroke-width="2.5" stroke-linecap="round" stroke-linejoin="round" d="M249.951 277.801l-1.75 3.6m1.75-3.6l6.85-1.75-5.55-4.4.45-7.05-5.9 3.9-6.55-2.6 1.9 6.8-4.55 5.45 7.1.3 1.5 2.95"/><path fill="#F7F2C2" d="M237.601 283.401l19.75-1.2q-7.9-1.4-14.6-.25l-5.15 1.45"/><path fill="none" stroke="#19344F" stroke-width="2.5" stroke-linecap="round" stroke-linejoin="round" d="M242.751 281.951q6.7-1.15 14.6.25m-14.6-.25l-5.15 1.45M262.551 210.701h41.3M313.051 216.701h4.45M286.001 216.701h20.1M411.851 244.001h43.85M394.951 238.701h36.55M136.851 244.001h50.4M167.151 249.951h31"/><path fill="#E1D7AC" d="M259.751 257.051q19.85-7.2 38.6-10.45-40.95-1.6-84.2 21.25-13.5 7.1-25.6 15.85l-9.4 7.3 35.2.6q5.65-20.05 45.4-34.55"/><path fill="none" stroke="#19344F" stroke-width="2.5" stroke-linecap="round" stroke-linejoin="round" d="M185.701 284.051l-9.55 7.55h255.35q-1.5-2.55-5.15-6.4-7.3-7.8-18.05-14.45-34.4-21.35-90.45-23.9-56.05-2.55-104.45 20.85-15.15 7.3-27.7 16.35"/><path fill="#997D60" d="M379.201 255.401q-3.4-3.45-8.25-3.45t-8.3 3.45q-3.4 3.4-3.4 8.3 0 5.65 4.85 8.2l13 .3q2.6-1.15 4-3.2 1.55-2.25 1.55-5.3 0-4.85-3.45-8.3"/><path fill="none" stroke="#19344F" stroke-width="2.5" stroke-linecap="round" stroke-linejoin="round" d="M370.951 251.951q4.85 0 8.25 3.45 3.45 3.45 3.45 8.3 0 3.05-1.55 5.3-1.4 2.05-4 3.2m-6.15-20.25q-4.85 0-8.3 3.45-3.4 3.4-3.4 8.3 0 5.65 4.85 8.2"/><path fill="#846D53" d="M370.951 251.951q-1.15.15-2.65.5-3 .8-4.7 2.1-5.75 7.75-2.45 13.5 1.6 2.85 4.4 4.15l8.55-1.4q-7.35-2.9-6-11.15.45-2.6 1.7-5.4l1.15-2.3"/><path fill="none" stroke="#19344F" stroke-width="2.5" stroke-linecap="round" stroke-linejoin="round" d="M370.951 251.951q4.85 0 8.25 3.45 3.45 3.45 3.45 8.3 0 3.05-1.55 5.3-1.4 2.05-4 3.2m-6.15-20.25q-4.85 0-8.3 3.45-3.4 3.4-3.4 8.3 0 5.65 4.85 8.2"/><path fill="#BE7D22" d="M249.85 277.1h2.6q-3.95-1.45-5.7-5.2-.9-1.85-1-3.45l-5.7-1.65 1.4 6.15-4.5 5.15 7.25.1 1.55 3.7 2.4-.55 1.7-4.25"/><path fill="none" stroke="#19344F" stroke-width="2.5" stroke-linecap="round" stroke-linejoin="round" d="M249.951 277.801l-1.75 3.6m1.75-3.6l6.85-1.75-5.55-4.4.45-7.05-5.9 3.9-6.55-2.6 1.9 6.8-4.55 5.45 7.1.3 1.5 2.95"/><path fill="#99C977" stroke="#1A344F" stroke-width="2.5" stroke-linecap="round" stroke-linejoin="round" d="M407.651 64.701l-2.8-3-2.95 5.6q-3.4 7.1-5.45 14.85-6.5 24.8 2.85 46.5l2.4.15q3-.2 5.7-1.9 8.65-5.4 11.6-23.6 2.55-15.55-5.55-30.15-2.55-4.55-5.8-8.45"/><path fill="#89B854" d="M400.351 93.101q-1.35-5.45-1.85-11.7l-.25-5.15q-6.3 14.05-3.15 34.2 1.55 10.05 4.35 17.3l15.75-10.7q.55-1 .9-2 .7-2-.35-2.05-11.1-2.55-15.4-19.9"/><path fill="none" stroke="#1A344F" stroke-width="2.5" stroke-linecap="round" stroke-linejoin="round" d="M407.651 64.701l-2.8-3-2.95 5.6q-3.4 7.1-5.45 14.85-6.5 24.8 2.85 46.5l2.4.15q3-.2 5.7-1.9 8.65-5.4 11.6-23.6 2.55-15.55-5.55-30.15-2.55-4.55-5.8-8.45"/><path fill="#997D60" d="M381.551 149.701l13.1.5q2.6-1.1 4.1-3.2 1.55-2.2 1.6-5.3.1-4.85-3.3-8.35t-8.3-3.6q-4.85-.05-8.35 3.35t-3.6 8.25q-.05 5.65 4.75 8.35"/><path fill="none" stroke="#1A344F" stroke-width="2.5" stroke-linecap="round" stroke-linejoin="round" d="M380.401 133.101q3.5-3.4 8.35-3.35 4.9.1 8.3 3.6 3.4 3.5 3.3 8.35-.05 3.1-1.6 5.3-1.5 2.1-4.1 3.2m-14.25-17.1q-3.5 3.4-3.6 8.25-.05 5.65 4.75 8.35"/><path fill="#7E6046" d="M388.751 129.751q-1.15.1-2.65.45-3.05.75-4.75 2.05-5.95 7.7-2.75 13.5 1.6 2.95 4.4 4.3l8.65-1.35q-7.35-3.05-5.85-11.3.45-2.6 1.75-5.35l1.2-2.3"/><path fill="#7FA75B" stroke="#1A344F" stroke-width="2.5" stroke-linecap="round" stroke-linejoin="round" d="M415.051 126.701l-14.45 7.25 2.65 5.25q3.8 6.65 9.3 13.45 17.65 21.85 46.15 37.3-1.15-9.1-7.15-21.55-12.05-24.9-36.5-41.7"/><path fill="#739A43" d="M403.301 133.051l15.75 19.95 7.3 1.15q8.6.85 15.4-.8l-6.1-8.6-32.35-11.7"/><path fill="none" stroke="#1A344F" stroke-width="2.5" stroke-linecap="round" stroke-linejoin="round" d="M415.051 126.701l-14.45 7.25 2.65 5.25q3.8 6.65 9.3 13.45 17.65 21.85 46.15 37.3-1.15-9.1-7.15-21.55-12.05-24.9-36.5-41.7"/><path fill="#BE9A7B" d="M326.151 257.801l19.15 3.65q28.75-56.75 44.05-96.2 4.75-12.4 7.6-21.5l1.9-6.65q-.6-1.55-1.7-2.75-2.2-2.45-4.75-.85-16.45 29.9-41.45 76.9-23.45 44.1-24.8 47.4"/><path fill="none" stroke="#1A344F" stroke-width="2.5" stroke-linecap="round" stroke-linejoin="round" d="M326.151 257.801q1.35-3.3 24.8-47.4 25-47 41.45-76.9 2.55-1.6 4.75.85 1.1 1.2 1.7 2.75l-1.9 6.65q-2.85 9.1-7.6 21.5-15.3 39.45-44.05 96.2"/><path fill="#977C62" d="M394.001 134.201l-6.6 8.45-.9 1.65q-.95 2.15-1.45 4.85-1.55 8.5 2.45 18.75 2.5-6.55 5.2-14.3 5.45-15.5 6.55-21.3 1.1-5.45-5.25 1.9M361.151 199.401l21.85-49.35-56.65 107.2 2.8 2.25q3.5 2.3 6.95 2.75 2.65-11.3 25.05-62.85"/><path fill="none" stroke="#1A344F" stroke-width="2.5" stroke-linecap="round" stroke-linejoin="round" d="M326.151 257.801q1.35-3.3 24.8-47.4 25-47 41.45-76.9 2.55-1.6 4.75.85 1.1 1.2 1.7 2.75l-1.9 6.65q-2.85 9.1-7.6 21.5-15.3 39.45-44.05 96.2"/><path fill="#99C977" d="M336.201 137.001q-6.75 4.75-11.8 10.85l-3.75 5.15q30.05 3.9 57.35-8.8 13.65-6.35 21.3-13.5l-11.5-5.05q-30.05-3.9-51.6 11.35"/><path fill="none" stroke="#1A344F" stroke-width="2.5" stroke-linecap="round" stroke-linejoin="round" d="M324.401 147.851q5.05-6.1 11.8-10.85 21.55-15.25 51.6-11.35m-63.4 22.2l-3.75 5.15q30.05 3.9 57.35-8.8 13.65-6.35 21.3-13.5"/><path fill="#997D60" d="M393.901 136.151q-3.2.8-5.55 2.5-2.9 2.15-3.4 5-.8 4.8 2 8.8 2.85 3.95 7.65 4.75 4.85.8 8.8-2 3.95-2.85 4.8-7.65.95-5.65-3.5-8.95l-10.8-2.45"/><path fill="none" stroke="#1A344F" stroke-width="2.5" stroke-linecap="round" stroke-linejoin="round" d="M388.351 138.651q2.35-1.7 5.55-2.5m-5.55 2.5q-2.9 2.15-3.4 5-.8 4.8 2 8.8 2.85 3.95 7.65 4.75 4.85.8 8.8-2 3.95-2.85 4.8-7.65.95-5.65-3.5-8.95"/><path fill="#89B854" d="M390.801 127.101q-8.45-1.7-17.6-2.15-21.7 1.15-39.15 14.45-5.45 4.2-9.85 9.05l-3.3 4.05 9.35 1.3q12.2-17.35 40.9-22.95 14.4-2.8 26.3-2.15-2.4-.75-6.65-1.6"/><path fill="#689A39" fill-opacity=".651" d="M389.4 126.95q-11.05-2.6-16.25-2.05 4.3 1.2 8.4 3.2 8.25 4.05 7.45 8.2-.85 4.15 4.7-.85 2.75-2.5 5.7-5.85-4.45-1.4-10-2.65"/><path fill="none" stroke="#1A344F" stroke-width="2.5" stroke-linecap="round" stroke-linejoin="round" d="M324.401 147.851q5.05-6.1 11.8-10.85 21.55-15.25 51.6-11.35m-63.4 22.2l-3.75 5.15q30.05 3.9 57.35-8.8 13.65-6.35 21.3-13.5"/><path fill="#F7F2C2" d="M353.101 264.601q-15.4-5.1-33.85-6.15h-15.4l49.25 6.15"/><path fill="none" stroke="#19344F" stroke-width="2.5" stroke-linecap="round" stroke-linejoin="round" d="M319.251 258.451q18.45 1.05 33.85 6.15m-33.85-6.15h-15.4"/><path fill="#F7F2C2" d="M356.051 272.551l28.75.55q-13.5-1.45-28.75-.55"/><path fill="none" stroke="#19344F" stroke-width="2.5" stroke-linecap="round" stroke-linejoin="round" d="M356.051 272.551q15.25-.9 28.75.55"/><use xlink:href="#n" transform="translate(413.35 131)"><animateTransform attributeName="transform" additive="replace" type="translate" dur="3.292s" keyTimes="0;1" values="0,0;0,0" fill="freeze"/><animateTransform attributeName="transform" additive="sum" type="translate" repeatCount="indefinite" dur="3.292s" keyTimes="0;0.063;0.076;0.089;0.101;0.114;0.127;0.139;0.152;0.165;0.177;0.19;0.203;0.215;0.228;0.24;0.253;0.266;0.278;0.291;0.304;0.316;0.329;0.342;0.354;0.367;0.38;0.392;0.405;0.417;0.418;1" values="399.701,132.3;399.701,132.3;399.707,132.311;399.664,132.323;399.728,132.289;399.734,132.3;399.7,132.317;399.71,132.328;399.727,132.345;399.684,132.308;399.702,132.322;399.712,132.332;399.681,132.298;399.692,132.309;399.717,132.325;399.72,132.236;399.681,132.246;399.709,132.256;399.666,132.272;399.702,132.342;399.66,132.303;399.735,132.305;399.693,132.278;399.685,132.342;399.643,132.303;399.729,132.309;399.686,132.311;399.709,132.284;399.725,132.343;399.703,132.304;0;0" calcMode="discrete"/><animateTransform attributeName="transform" additive="sum" type="translate" repeatCount="indefinite" dur="3.292s" keyTimes="0;0.418;0.43;0.443;0.456;0.468;0.481;0.494;0.506;0.519;0.532;0.544;0.557;0.57;0.582;0.595;0.608;0.62;0.633;0.646;0.658;0.671;0.683;0.696;0.709;0.721;0.734;0.747;0.759;0.771;0.772;1" values="0;399.703,132.304;399.634,132.344;399.691,132.331;399.767,132.225;399.71,132.325;399.653,132.374;399.679,132.309;399.664,132.309;399.649,132.344;399.642,132.342;399.663,132.278;399.692,132.22;399.685,132.362;399.623,132.309;399.666,132.306;399.702,132.336;399.645,132.377;399.716,132.265;399.669,132.306;399.643,132.208;399.682,132.199;399.724,132.285;399.668,132.327;399.657,132.368;399.696,132.306;399.685,132.3;399.672,132.291;399.715,132.332;399.655,132.323;0;0" calcMode="discrete"/><animateTransform attributeName="transform" additive="sum" type="translate" repeatCount="indefinite" dur="3.292s" keyTimes="0;0.772;0.785;0.797;0.81;0.823;0.835;0.848;0.861;0.873;0.886;0.899;0.911;0.924;0.937;0.949;1" values="0;399.655,132.323;399.742,132.309;399.636,132.308;399.679,132.345;399.621,132.391;399.713,132.328;399.702,132.269;399.643,132.26;399.635,132.3;399.679,132.292;399.622,132.332;399.665,132.273;399.658,132.313;399.652,132.304;399.701,132.3;399.701,132.3" calcMode="discrete"/><animateTransform attributeName="transform" additive="sum" type="rotate" repeatCount="indefinite" dur="3.292s" keyTimes="0;0.063;0.076;0.089;0.101;0.114;0.127;0.139;0.152;0.165;0.177;0.19;0.203;0.215;0.228;0.24;0.253;0.266;0.278;0.291;0.304;0.316;0.329;0.342;0.354;0.367;0.38;0.392;0.405;0.417;0.418;1" values="0,0,0;0,0,0;-0.279,0,0;-0.558,0,0;-1.025,0,0;-1.302,0,0;-1.77,0,0;-2.048,0,0;-2.515,0,0;-2.794,0,0;-3.26,0,0;-3.54,0,0;-4.006,0,0;-4.285,0,0;-4.752,0,0;-5.031,0,0;-5.31,0,0;-5.777,0,0;-6.056,0,0;-6.523,0,0;-6.801,0,0;-7.269,0,0;-7.547,0,0;-8.015,0,0;-8.294,0,0;-8.76,0,0;-9.039,0,0;-9.507,0,0;-9.786,0,0;-10.24,0,0;0;0" calcMode="discrete"/><animateTransform attributeName="transform" additive="sum" type="rotate" repeatCount="indefinite" dur="3.292s" keyTimes="0;0.418;0.43;0.443;0.456;0.468;0.481;0.494;0.506;0.519;0.532;0.544;0.557;0.57;0.582;0.595;0.608;0.62;0.633;0.646;0.658;0.671;0.683;0.696;0.709;0.721;0.734;0.747;0.759;0.771;0.772;1" values="0;-10.24,0,0;-9.816,0,0;-9.755,0,0;-9.507,0,0;-9.258,0,0;-9.009,0,0;-8.761,0,0;-8.512,0,0;-8.263,0,0;-8.016,0,0;-7.765,0,0;-7.518,0,0;-7.269,0,0;-7.021,0,0;-6.772,0,0;-6.523,0,0;-6.274,0,0;-6.026,0,0;-5.777,0,0;-5.529,0,0;-5.28,0,0;-5.032,0,0;-4.782,0,0;-4.533,0,0;-4.286,0,0;-4.038,0,0;-3.788,0,0;-3.541,0,0;-3.291,0,0;0;0" calcMode="discrete"/><animateTransform attributeName="transform" additive="sum" type="rotate" repeatCount="indefinite" dur="3.292s" keyTimes="0;0.772;0.785;0.797;0.81;0.823;0.835;0.848;0.861;0.873;0.886;0.899;0.911;0.924;0.937;0.949;1" values="0;-3.291,0,0;-3.042,0,0;-2.794,0,0;-2.546,0,0;-2.297,0,0;-2.049,0,0;-1.8,0,0;-1.551,0,0;-1.302,0,0;-1.055,0,0;-0.806,0,0;-0.558,0,0;-0.309,0,0;-0.061,0,0;0,0,0;0,0,0" calcMode="discrete"/><animateTransform attributeName="transform" additive="sum" type="scale" repeatCount="indefinite" dur="3.292s" keyTimes="0;0.215;0.228;0.417;0.418;1" values="1,1;1,1;0.999,0.999;0.999,0.999;1;1" calcMode="discrete"/><animateTransform attributeName="transform" additive="sum" type="scale" repeatCount="indefinite" dur="3.292s" keyTimes="0;0.418;0.709;0.721;0.771;0.772;1" values="1;0.999,0.999;0.999,0.999;1,1;1,1;1;1" calcMode="discrete"/><animateTransform attributeName="transform" additive="sum" type="translate" repeatCount="indefinite" dur="3.292s" keyTimes="0;0.076;0.089;0.101;0.114;0.127;0.139;0.152;0.165;0.177;0.215;0.228;0.24;0.253;0.266;0.278;0.291;0.304;0.316;0.329;0.342;0.354;0.367;0.38;0.392;0.405;0.417;0.418;1" values="13.649,-1.3;13.649,-1.3;13.699,-1.3;13.649,-1.3;13.599,-1.25;13.649,-1.3;13.649,-1.35;13.649,-1.35;13.699,-1.3;13.649,-1.3;13.649,-1.3;13.649,-1.35;13.649,-1.25;13.649,-1.25;13.599,-1.3;13.649,-1.25;13.699,-1.35;13.699,-1.3;13.599,-1.3;13.699,-1.25;13.699,-1.35;13.699,-1.3;13.649,-1.35;13.599,-1.3;13.649,-1.25;13.649,-1.25;13.599,-1.35;0;0" calcMode="discrete"/><animateTransform attributeName="transform" additive="sum" type="translate" repeatCount="indefinite" dur="3.292s" keyTimes="0;0.418;0.43;0.443;0.456;0.468;0.481;0.494;0.506;0.519;0.532;0.544;0.557;0.57;0.582;0.595;0.608;0.62;0.633;0.646;0.658;0.671;0.683;0.696;0.709;0.721;0.734;0.747;0.759;0.771;0.772;1" values="0;13.599,-1.35;13.649,-1.3;13.599,-1.35;13.599,-1.3;13.649,-1.35;13.699,-1.4;13.649,-1.35;13.699,-1.35;13.649,-1.35;13.699,-1.4;13.649,-1.3;13.649,-1.25;13.649,-1.3;13.699,-1.3;13.749,-1.35;13.649,-1.35;13.649,-1.4;13.599,-1.25;13.599,-1.4;13.699,-1.25;13.699,-1.25;13.649,-1.3;13.649,-1.35;13.649,-1.35;13.599,-1.35;13.649,-1.35;13.649,-1.3;13.649,-1.35;13.649,-1.35;0;0" calcMode="discrete"/><animateTransform attributeName="transform" additive="sum" type="translate" repeatCount="indefinite" dur="3.292s" keyTimes="0;0.772;0.785;0.797;0.81;0.823;0.835;0.848;0.861;0.873;0.886;0.911;0.924;0.937;0.949;1" values="0;13.649,-1.35;13.549,-1.3;13.699,-1.35;13.599,-1.4;13.749,-1.4;13.649,-1.45;13.649,-1.35;13.649,-1.3;13.599,-1.3;13.699,-1.35;13.699,-1.35;13.649,-1.4;13.699,-1.35;13.649,-1.3;13.649,-1.3" calcMode="discrete"/></use><use xlink:href="#o" transform="translate(399.05 144.85)"><animateTransform attributeName="transform" additive="replace" type="translate" dur="3.292s" keyTimes="0;1" values="0,0;0,0" fill="freeze"/><animateTransform attributeName="transform" additive="sum" type="translate" repeatCount="indefinite" dur="3.292s" keyTimes="0;0.063;0.076;0.089;0.101;0.114;0.127;0.139;0.152;0.165;0.177;0.19;0.203;0.215;0.228;0.24;0.253;0.266;0.278;0.291;0.304;0.316;0.329;0.342;0.354;0.367;0.38;0.392;0.405;0.417;0.418;1" values="399.55,130.001;399.55,130.001;399.584,129.999;399.569,129.998;399.553,129.997;399.538,129.996;399.572,129.996;399.596,129.995;399.527,129.948;399.567,129.997;399.549,129.998;399.584,129.997;399.519,129.95;399.539,129.955;399.58,130.053;399.614,130.005;399.499,130.016;399.476,129.97;399.51,129.969;399.484,129.977;399.474,130.041;399.508,129.985;399.492,129.985;399.472,129.952;399.517,130.051;399.486,130.019;399.515,129.976;399.492,129.976;399.533,129.97;399.514,129.984;0;0" calcMode="discrete"/><animateTransform attributeName="transform" additive="sum" type="translate" repeatCount="indefinite" dur="3.292s" keyTimes="0;0.418;0.43;0.443;0.456;0.468;0.481;0.494;0.506;0.519;0.532;0.544;0.557;0.57;0.582;0.595;0.608;0.62;0.633;0.646;0.658;0.671;0.683;0.696;0.709;0.721;0.734;0.747;0.759;0.771;0.772;1" values="0;399.514,129.984;399.535,130.089;399.542,130.039;399.506,130.032;399.476,130.031;399.533,130.013;399.486,129.969;399.599,130.001;399.564,130.051;399.478,130.001;399.53,129.996;399.489,129.996;399.558,129.985;399.522,130.031;399.49,130.032;399.539,130.031;399.503,130.027;399.512,129.969;399.53,130.02;399.544,130.012;399.551,130.012;399.561,130.012;399.475,130.01;399.636,129.955;399.539,130.008;399.612,130.102;399.518,130.003;399.581,130.002;399.597,130;0;0" calcMode="discrete"/><animateTransform attributeName="transform" additive="sum" type="translate" repeatCount="indefinite" dur="3.292s" keyTimes="0;0.772;0.785;0.797;0.81;0.823;0.835;0.848;0.861;0.873;0.886;0.899;0.911;0.924;0.937;0.949;1" values="0;399.597,130;399.55,129.998;399.617,130.047;399.63,130.046;399.594,129.998;399.548,129.997;399.611,130.044;399.624,129.996;399.538,129.996;399.601,129.998;399.555,130.048;399.619,129.998;399.533,130;399.597,130.001;399.55,130.001;399.55,130.001" calcMode="discrete"/><animateTransform attributeName="transform" additive="sum" type="rotate" repeatCount="indefinite" dur="3.292s" keyTimes="0;0.063;0.076;0.089;0.101;0.114;0.127;0.139;0.152;0.165;0.177;0.19;0.203;0.215;0.228;0.24;0.253;0.266;0.278;0.291;0.304;0.316;0.329;0.342;0.354;0.367;0.38;0.392;0.405;0.417;0.418;1" values="0,0,0;0,0,0;-0.261,0,0;-0.522,0,0;-0.782,0,0;-1.043,0,0;-1.304,0,0;-1.752,0,0;-2.013,0,0;-2.275,0,0;-2.535,0,0;-2.796,0,0;-3.057,0,0;-3.506,0,0;-3.767,0,0;-4.028,0,0;-4.288,0,0;-4.55,0,0;-4.81,0,0;-5.26,0,0;-5.52,0,0;-5.781,0,0;-6.042,0,0;-6.303,0,0;-6.565,0,0;-7.013,0,0;-7.274,0,0;-7.535,0,0;-7.796,0,0;-8.217,0,0;0;0" calcMode="discrete"/><animateTransform attributeName="transform" additive="sum" type="rotate" repeatCount="indefinite" dur="3.292s" keyTimes="0;0.418;0.43;0.443;0.456;0.468;0.481;0.494;0.506;0.519;0.532;0.544;0.557;0.57;0.582;0.595;0.608;0.62;0.633;0.646;0.658;0.671;0.683;0.696;0.709;0.721;0.734;0.747;0.759;0.771;0.772;1" values="0;-8.217,0,0;-8.008,0,0;-7.772,0,0;-7.535,0,0;-7.3,0,0;-7.062,0,0;-7.013,0,0;-6.778,0,0;-6.54,0,0;-6.302,0,0;-6.255,0,0;-6.019,0,0;-5.782,0,0;-5.545,0,0;-5.308,0,0;-5.26,0,0;-5.023,0,0;-4.786,0,0;-4.55,0,0;-4.313,0,0;-4.263,0,0;-4.028,0,0;-3.792,0,0;-3.555,0,0;-3.505,0,0;-3.269,0,0;-3.033,0,0;-2.797,0,0;-2.56,0,0;0;0" calcMode="discrete"/><animateTransform attributeName="transform" additive="sum" type="rotate" repeatCount="indefinite" dur="3.292s" keyTimes="0;0.772;0.785;0.797;0.81;0.823;0.835;0.848;0.861;0.873;0.886;0.899;0.911;0.924;0.937;0.949;1" values="0;-2.56,0,0;-2.511,0,0;-2.275,0,0;-2.038,0,0;-1.801,0,0;-1.751,0,0;-1.516,0,0;-1.28,0,0;-1.043,0,0;-0.807,0,0;-0.757,0,0;-0.522,0,0;-0.285,0,0;-0.049,0,0;0,0,0;0,0,0" calcMode="discrete"/><animateTransform attributeName="transform" additive="sum" type="scale" repeatCount="indefinite" dur="3.292s" keyTimes="0;0.253;0.266;0.405;0.417;0.418;1" values="1,1;1,1;0.999,0.999;0.999,0.999;1,1;1;1" calcMode="discrete"/><animateTransform attributeName="transform" additive="sum" type="scale" repeatCount="indefinite" dur="3.292s" keyTimes="0;0.418;0.43;0.646;0.658;0.771;0.772;1" values="1;1,1;0.999,0.999;0.999,0.999;1,1;1,1;1;1" calcMode="discrete"/><animateTransform attributeName="transform" additive="sum" type="translate" repeatCount="indefinite" dur="3.292s" keyTimes="0;0.063;0.076;0.089;0.101;0.127;0.139;0.152;0.165;0.177;0.19;0.203;0.215;0.228;0.24;0.253;0.266;0.278;0.291;0.304;0.316;0.329;0.342;0.354;0.367;0.38;0.392;0.405;0.417;0.418;1" values="-0.5,14.849;-0.5,14.849;-0.55,14.849;-0.55,14.849;-0.5,14.849;-0.5,14.849;-0.55,14.849;-0.45,14.949;-0.5,14.799;-0.5,14.849;-0.55,14.849;-0.5,14.849;-0.5,14.899;-0.55,14.799;-0.55,14.799;-0.45,14.799;-0.45,14.899;-0.5,14.899;-0.5,14.899;-0.4,14.849;-0.5,14.849;-0.55,14.849;-0.45,14.899;-0.5,14.799;-0.45,14.849;-0.45,14.899;-0.5,14.949;-0.6,14.899;-0.5,14.849;0;0" calcMode="discrete"/><animateTransform attributeName="transform" additive="sum" type="translate" repeatCount="indefinite" dur="3.292s" keyTimes="0;0.418;0.43;0.443;0.456;0.468;0.481;0.494;0.506;0.519;0.532;0.544;0.557;0.57;0.582;0.595;0.608;0.62;0.633;0.646;0.658;0.671;0.683;0.696;0.709;0.721;0.734;0.747;0.759;0.771;0.772;1" values="0;-0.5,14.849;-0.5,14.799;-0.45,14.849;-0.45,14.849;-0.4,14.799;-0.5,14.849;-0.45,14.849;-0.55,14.849;-0.5,14.849;-0.45,14.849;-0.5,14.849;-0.45,14.899;-0.5,14.849;-0.5,14.849;-0.45,14.799;-0.45,14.849;-0.45,14.849;-0.5,14.899;-0.45,14.849;-0.5,14.849;-0.5,14.799;-0.45,14.849;-0.45,14.849;-0.5,14.899;-0.45,14.899;-0.5,14.749;-0.45,14.899;-0.45,14.899;-0.45,14.849;0;0" calcMode="discrete"/><animateTransform attributeName="transform" additive="sum" type="translate" repeatCount="indefinite" dur="3.292s" keyTimes="0;0.772;0.785;0.797;0.81;0.823;0.835;0.848;0.861;0.873;0.886;0.899;0.911;0.924;0.937;1" values="0;-0.45,14.849;-0.5,14.849;-0.5,14.799;-0.5,14.799;-0.45,14.799;-0.5,14.799;-0.55,14.799;-0.5,14.849;-0.5,14.849;-0.45,14.899;-0.45,14.849;-0.55,14.849;-0.45,14.799;-0.5,14.849;-0.5,14.849" calcMode="discrete"/></use><use xlink:href="#p" transform="translate(399.25 130.65)"><animateTransform attributeName="transform" additive="replace" type="translate" dur="3.292s" keyTimes="0;1" values="0,0;0,0" fill="freeze"/><animateTransform attributeName="transform" additive="sum" type="translate" repeatCount="indefinite" dur="3.292s" keyTimes="0;0.063;0.076;0.089;0.101;0.114;0.127;0.139;0.152;0.165;0.177;0.19;0.203;0.215;0.228;0.24;0.253;0.266;0.278;0.291;0.304;0.316;0.329;0.342;0.354;0.367;0.38;0.392;0.405;0.417;0.418;1" values="399.4,130.201;399.4,130.201;399.402,130.202;399.404,130.202;399.406,130.203;399.41,130.204;399.412,130.205;399.414,130.206;399.368,130.205;399.419,130.208;399.419,130.211;399.425,130.21;399.374,130.211;399.379,130.209;399.387,130.164;399.385,130.21;399.391,130.161;399.445,130.172;399.442,130.218;399.449,130.169;399.398,130.165;399.4,130.221;399.402,130.222;399.354,130.167;399.407,130.225;399.416,130.176;399.461,130.227;399.414,130.186;399.409,130.229;399.419,130.18;0;0" calcMode="discrete"/><animateTransform attributeName="transform" additive="sum" type="translate" repeatCount="indefinite" dur="3.292s" keyTimes="0;0.418;0.43;0.443;0.456;0.468;0.481;0.494;0.506;0.519;0.532;0.544;0.557;0.57;0.582;0.595;0.608;0.62;0.633;0.646;0.658;0.671;0.683;0.696;0.709;0.721;0.734;0.747;0.759;0.771;0.772;1" values="0;399.419,130.18;399.409,130.279;399.409,130.279;399.415,130.271;399.363,130.22;399.355,130.269;399.409,130.176;399.401,130.274;399.405,130.224;399.348,130.267;399.353,130.223;399.445,130.228;399.4,130.221;399.392,130.27;399.391,130.264;399.35,130.214;399.388,130.263;399.336,130.262;399.44,130.221;399.388,130.216;399.387,130.215;399.381,130.264;399.436,130.217;399.431,130.263;399.376,130.259;399.427,130.261;399.374,130.308;399.425,130.21;399.421,130.26;0;0" calcMode="discrete"/><animateTransform attributeName="transform" additive="sum" type="translate" repeatCount="indefinite" dur="3.292s" keyTimes="0;0.772;0.785;0.797;0.81;0.823;0.835;0.848;0.861;0.873;0.886;0.899;0.911;0.924;0.937;0.949;1" values="0;399.421,130.26;399.369,130.256;399.419,130.208;399.466,130.257;399.416,130.207;399.462,130.256;399.364,130.254;399.362,130.204;399.459,130.254;399.407,130.254;399.356,130.252;399.404,130.252;399.352,130.201;399.35,130.251;399.4,130.201;399.4,130.201" calcMode="discrete"/><animateTransform attributeName="transform" additive="sum" type="rotate" repeatCount="indefinite" dur="3.292s" keyTimes="0;0.063;0.076;0.089;0.101;0.114;0.127;0.139;0.152;0.165;0.177;0.19;0.203;0.215;0.228;0.24;0.253;0.266;0.278;0.291;0.304;0.316;0.329;0.342;0.354;0.367;0.38;0.392;0.405;0.417;0.418;1" values="0,0,0;0,0,0;0.27,0,0;0.539,0,0;0.81,0,0;1.266,0,0;1.536,0,0;1.806,0,0;2.263,0,0;2.533,0,0;2.802,0,0;3.26,0,0;3.53,0,0;3.8,0,0;4.257,0,0;4.527,0,0;4.796,0,0;5.254,0,0;5.525,0,0;5.795,0,0;6.252,0,0;6.522,0,0;6.792,0,0;7.061,0,0;7.52,0,0;7.789,0,0;8.059,0,0;8.517,0,0;8.787,0,0;9.211,0,0;0;0" calcMode="discrete"/><animateTransform attributeName="transform" additive="sum" type="rotate" repeatCount="indefinite" dur="3.292s" keyTimes="0;0.418;0.43;0.443;0.456;0.468;0.481;0.494;0.506;0.519;0.532;0.544;0.557;0.57;0.582;0.595;0.608;0.62;0.633;0.646;0.658;0.671;0.683;0.696;0.709;0.721;0.734;0.747;0.759;0.771;0.772;1" values="0;9.211,0,0;8.816,0,0;8.761,0,0;8.517,0,0;8.275,0,0;8.031,0,0;7.789,0,0;7.546,0,0;7.304,0,0;7.061,0,0;7.007,0,0;6.765,0,0;6.523,0,0;6.28,0,0;6.036,0,0;5.795,0,0;5.552,0,0;5.309,0,0;5.254,0,0;5.012,0,0;4.769,0,0;4.527,0,0;4.286,0,0;4.041,0,0;3.8,0,0;3.557,0,0;3.502,0,0;3.261,0,0;3.018,0,0;0;0" calcMode="discrete"/><animateTransform attributeName="transform" additive="sum" type="rotate" repeatCount="indefinite" dur="3.292s" keyTimes="0;0.772;0.785;0.797;0.81;0.823;0.835;0.848;0.861;0.873;0.886;0.899;0.911;0.924;0.937;0.949;1" values="0;3.018,0,0;2.775,0,0;2.533,0,0;2.29,0,0;2.048,0,0;1.805,0,0;1.751,0,0;1.509,0,0;1.266,0,0;1.023,0,0;0.781,0,0;0.539,0,0;0.297,0,0;0.054,0,0;0,0,0;0,0,0" calcMode="discrete"/><animateTransform attributeName="transform" additive="sum" type="scale" repeatCount="indefinite" dur="3.292s" keyTimes="0;0.228;0.24;0.405;0.417;0.418;1" values="1,1;1,1;0.999,0.999;0.999,0.999;1,1;1;1" calcMode="discrete"/><animateTransform attributeName="transform" additive="sum" type="scale" repeatCount="indefinite" dur="3.292s" keyTimes="0;0.418;0.43;0.683;0.696;0.771;0.772;1" values="1;1,1;0.999,0.999;0.999,0.999;1,1;1,1;1;1" calcMode="discrete"/><animateTransform attributeName="transform" additive="sum" type="translate" repeatCount="indefinite" dur="3.292s" keyTimes="0;0.139;0.152;0.165;0.177;0.19;0.203;0.215;0.228;0.24;0.253;0.266;0.278;0.291;0.304;0.316;0.329;0.342;0.354;0.367;0.38;0.392;0.405;0.417;0.418;1" values="-0.15,0.449;-0.15,0.449;-0.1,0.449;-0.15,0.449;-0.2,0.399;-0.15,0.449;-0.15,0.399;-0.1,0.449;-0.15,0.499;-0.1,0.449;-0.1,0.499;-0.2,0.499;-0.15,0.449;-0.15,0.499;-0.1,0.449;-0.15,0.449;-0.15,0.449;-0.1,0.449;-0.15,0.449;-0.15,0.499;-0.15,0.449;-0.2,0.449;-0.15,0.399;-0.15,0.449;0;0" calcMode="discrete"/><animateTransform attributeName="transform" additive="sum" type="translate" repeatCount="indefinite" dur="3.292s" keyTimes="0;0.418;0.43;0.443;0.456;0.468;0.481;0.494;0.506;0.519;0.532;0.544;0.557;0.57;0.582;0.595;0.608;0.62;0.633;0.646;0.658;0.671;0.683;0.696;0.709;0.721;0.734;0.747;0.759;0.771;0.772;1" values="0;-0.15,0.449;-0.15,0.399;-0.15,0.399;-0.1,0.449;-0.1,0.449;-0.1,0.399;-0.15,0.449;-0.15,0.399;-0.15,0.449;-0.1,0.399;-0.15,0.449;-0.2,0.399;-0.15,0.449;-0.15,0.399;-0.1,0.399;-0.1,0.499;-0.1,0.399;-0.1,0.399;-0.2,0.449;-0.15,0.449;-0.15,0.449;-0.15,0.399;-0.2,0.499;-0.15,0.449;-0.1,0.399;-0.15,0.449;-0.1,0.399;-0.15,0.449;-0.15,0.399;0;0" calcMode="discrete"/><animateTransform attributeName="transform" additive="sum" type="translate" repeatCount="indefinite" dur="3.292s" keyTimes="0;0.772;0.785;0.797;0.81;0.823;0.835;0.848;0.861;0.873;0.886;0.899;0.911;0.924;0.937;0.949;1" values="0;-0.15,0.399;-0.1,0.399;-0.15,0.449;-0.15,0.399;-0.15,0.449;-0.15,0.399;-0.1,0.449;-0.1,0.449;-0.15,0.399;-0.15,0.399;-0.1,0.449;-0.1,0.399;-0.1,0.449;-0.1,0.449;-0.15,0.449;-0.15,0.449" calcMode="discrete"/></use><use xlink:href="#q" transform="translate(187.2 143.75)"><animateTransform attributeName="transform" additive="replace" type="translate" dur="3.292s" keyTimes="0;1" values="0,0;0,0" fill="freeze"/><animateTransform attributeName="transform" additive="sum" type="translate" repeatCount="indefinite" dur="3.292s" keyTimes="0;0.013;0.025;0.038;0.051;0.063;0.076;0.089;0.101;0.114;0.127;0.139;0.152;0.165;0.177;0.19;0.203;0.215;0.228;0.24;0.253;0.266;0.278;0.291;0.304;0.316;0.329;0.342;0.354;0.366;0.367;1" values="187.2,143.75;187.7,143.75;188.15,143.75;188.65,143.75;189.15,143.75;189.65,143.75;190.1,143.75;190.6,143.75;191.1,143.75;191.6,143.75;192.05,143.75;192.55,143.75;193.05,143.75;193.55,143.75;194,143.75;194.5,143.75;195,143.75;195.5,143.75;195.95,143.75;196.45,143.75;196.95,143.75;197.45,143.75;197.9,143.75;198.4,143.75;198.9,143.75;199.4,143.75;199.85,143.75;200.35,143.75;200.85,143.75;201.35,143.75;0;0" calcMode="discrete"/><animateTransform attributeName="transform" additive="sum" type="translate" repeatCount="indefinite" dur="3.292s" keyTimes="0;0.367;0.38;0.392;0.405;0.418;0.43;0.443;0.456;0.468;0.481;0.494;0.506;0.519;0.532;0.544;0.557;0.57;0.582;0.595;0.608;0.62;0.633;0.646;0.658;0.671;0.683;0.696;0.709;0.72;0.721;1" values="0;201.35,143.75;201.8,143.75;202.3,143.75;202.8,143.75;203.3,143.75;203.75,143.75;204.25,143.75;204.75,143.75;205.25,143.75;205.7,143.75;206.2,143.75;205.75,143.75;205.25,143.75;204.8,143.75;204.3,143.75;203.85,143.75;203.35,143.75;202.9,143.75;202.4,143.75;201.9,143.75;201.45,143.75;201,143.75;200.5,143.75;200.05,143.75;199.55,143.75;199.1,143.75;198.6,143.75;198.15,143.75;197.65,143.75;0;0" calcMode="discrete"/><animateTransform attributeName="transform" additive="sum" type="translate" repeatCount="indefinite" dur="3.292s" keyTimes="0;0.721;0.734;0.747;0.759;0.772;0.785;0.797;0.81;0.823;0.835;0.848;0.861;0.873;0.886;0.899;0.911;0.924;0.937;0.949;0.962;0.975;0.987;0.999;1" values="0;197.65,143.75;197.2,143.75;196.7,143.75;196.25,143.75;195.75,143.75;195.3,143.75;194.8,143.75;194.35,143.75;193.85,143.75;193.4,143.75;192.9,143.75;192.4,143.75;191.95,143.75;191.5,143.75;191,143.75;190.55,143.75;190.05,143.75;189.6,143.75;189.1,143.75;188.65,143.75;188.15,143.75;187.7,143.75;187.2,143.75;187.2,143.75" calcMode="discrete"/></use><use xlink:href="#r" transform="translate(176.1 305.95)"><animateTransform attributeName="transform" additive="replace" type="translate" dur="3.292s" keyTimes="0;1" values="0,0;0,0" fill="freeze"/><animateTransform attributeName="transform" additive="sum" type="translate" repeatCount="indefinite" dur="3.292s" keyTimes="0;0.013;0.025;0.038;0.051;0.063;0.076;0.089;0.101;0.114;0.127;0.139;0.152;0.165;0.177;0.19;0.203;0.215;0.228;0.24;0.253;0.266;0.278;0.291;0.304;0.316;0.329;0.342;0.354;0.366;0.367;1" values="176.1,305.95;179.8,305.95;183.4,305.95;186.9,305.95;190.3,305.95;193.6,305.95;196.85,305.95;199.95,305.95;203,305.95;205.9,305.95;208.75,305.95;211.45,305.95;214.1,305.95;216.65,305.95;219.1,305.95;221.45,305.95;223.7,305.95;225.85,305.95;227.95,305.95;229.9,305.95;231.75,305.95;233.55,305.95;235.25,305.95;236.8,305.95;238.3,305.95;239.7,305.95;241,305.95;242.2,305.95;243.3,305.95;244.3,305.95;0;0" calcMode="discrete"/><animateTransform attributeName="transform" additive="sum" type="translate" repeatCount="indefinite" dur="3.292s" keyTimes="0;0.367;0.38;0.392;0.405;0.418;0.43;0.443;0.456;0.468;0.481;0.494;0.506;0.519;0.532;0.544;0.557;0.57;0.582;0.595;0.608;0.62;0.633;0.646;0.658;0.671;0.683;0.696;0.709;0.72;0.721;1" values="0;244.3,305.95;245.2,305.95;246.05,305.95;246.75,305.95;247.35,305.95;247.9,305.95;248.35,305.95;248.65,305.95;248.9,305.95;249.05,305.95;249.1,305.95;245.5,305.95;242,305.95;238.55,305.95;235.25,305.95;232,305.95;228.85,305.95;225.8,305.95;222.8,305.95;219.95,305.95;217.15,305.95;214.45,305.95;211.85,305.95;209.35,305.95;206.95,305.95;204.6,305.95;202.4,305.95;200.25,305.95;198.2,305.95;0;0" calcMode="discrete"/><animateTransform attributeName="transform" additive="sum" type="translate" repeatCount="indefinite" dur="3.292s" keyTimes="0;0.721;0.734;0.747;0.759;0.772;0.785;0.797;0.81;0.823;0.835;0.848;0.861;0.873;0.886;0.899;0.911;0.924;0.937;0.949;0.962;0.975;0.987;0.999;1" values="0;198.2,305.95;196.2,305.95;194.35,305.95;192.55,305.95;190.9,305.95;189.3,305.95;187.8,305.95;186.35,305.95;185.05,305.95;183.8,305.95;182.65,305.95;181.6,305.95;180.65,305.95;179.8,305.95;179,305.95;178.35,305.95;177.75,305.95;177.25,305.95;176.85,305.95;176.5,305.95;176.3,305.95;176.15,305.95;176.1,305.95;176.1,305.95" calcMode="discrete"/></use><use xlink:href="#s" transform="translate(217 299.3)"><animateTransform attributeName="transform" additive="replace" type="translate" dur="3.292s" keyTimes="0;1" values="0,0;0,0" fill="freeze"/><animateTransform attributeName="transform" additive="sum" type="translate" repeatCount="indefinite" dur="3.292s" keyTimes="0;0.013;0.025;0.038;0.051;0.063;0.076;0.089;0.101;0.114;0.127;0.139;0.152;0.165;0.177;0.19;0.203;0.215;0.228;0.24;0.253;0.266;0.278;0.291;0.304;0.316;0.329;0.342;0.354;0.366;0.367;1" values="217,299.3;214.65,299.3;212.4,299.3;210.2,299.3;208.05,299.3;205.95,299.3;203.95,299.3;201.95,299.3;200.05,299.3;198.2,299.3;196.45,299.3;194.7,299.3;193.05,299.3;191.45,299.3;189.9,299.3;188.4,299.3;187,299.3;185.65,299.3;184.35,299.3;183.1,299.3;181.9,299.3;180.8,299.3;179.75,299.3;178.75,299.3;177.8,299.3;176.95,299.3;176.1,299.3;175.35,299.3;174.65,299.3;174,299.3;0;0" calcMode="discrete"/><animateTransform attributeName="transform" additive="sum" type="translate" repeatCount="indefinite" dur="3.292s" keyTimes="0;0.367;0.38;0.392;0.405;0.418;0.43;0.443;0.456;0.468;0.481;0.494;0.506;0.519;0.532;0.544;0.557;0.57;0.582;0.595;0.608;0.62;0.633;0.646;0.658;0.671;0.683;0.696;0.709;0.72;0.721;1" values="0;174,299.3;173.45,299.3;172.95,299.3;172.5,299.3;172.1,299.3;171.75,299.3;171.5,299.3;171.25,299.3;171.1,299.3;171.05,299.3;171,299.3;173.25,299.3;175.5,299.3;177.65,299.3;179.75,299.3;181.8,299.3;183.75,299.3;185.7,299.3;187.55,299.3;189.35,299.3;191.15,299.3;192.8,299.3;194.45,299.3;196.05,299.3;197.55,299.3;199.05,299.3;200.45,299.3;201.8,299.3;203.1,299.3;0;0" calcMode="discrete"/><animateTransform attributeName="transform" additive="sum" type="translate" repeatCount="indefinite" dur="3.292s" keyTimes="0;0.721;0.734;0.747;0.759;0.772;0.785;0.797;0.81;0.823;0.835;0.848;0.861;0.873;0.886;0.899;0.911;0.924;0.937;0.949;0.962;0.975;0.987;0.999;1" values="0;203.1,299.3;204.3,299.3;205.5,299.3;206.6,299.3;207.7,299.3;208.7,299.3;209.65,299.3;210.55,299.3;211.35,299.3;212.15,299.3;212.85,299.3;213.5,299.3;214.15,299.3;214.65,299.3;215.15,299.3;215.6,299.3;215.95,299.3;216.3,299.3;216.55,299.3;216.75,299.3;216.9,299.3;216.95,299.3;217,299.3;217,299.3" calcMode="discrete"/></use></g></svg>