<svg xmlns="http://www.w3.org/2000/svg" xmlns:xlink="http://www.w3.org/1999/xlink" image-rendering="optimizeSpeed" preserveAspectRatio="xMinYMin meet" baseProfile="basic" width="695" height="695" viewBox="0 0 695 695"><defs><g id="b" overflow="visible"><path fill="#7BD7A1" d="M210.4 127V2.3L2.3 2.4V127h208.1z"/><path fill="#1A344F" d="M212.8 129.3L212.7 0H0v129.3h212.8M208 4.6l.1 120-203.4.1V4.7H208z"/><path fill="#FFF" d="M186 47.2q-8-1.1-13.4-7.4-5.6-6.3-6.1-14.8H46.2q-.5 8.6-6 14.9-5.5 6.2-13.5 7.4V78q8 1.1 13.5 7.4 5.5 6.2 6 14.8h120.3q.5-8.6 6-14.9 5.6-6.3 13.4-7.4V47.2z"/><path fill="#1A344F" d="M168.8 24.8l-.2-2.2H44.2l-.2 2.2q-.5 7.7-5.4 13.4-5 5.8-12 6.8l-2 .3V80l2 .3q7 1 12 6.6 5 5.8 5.5 13.5v2.2l124.7-.1.1-2.1q.5-7.8 5.4-13.5 5-5.7 12.1-6.7l2-.3V45.3l-2-.3q-7.1-1-12-6.6-5-5.8-5.5-13.5m2 16.6q5.3 6 12.8 7.8V76q-7.4 1.8-12.8 7.8-5.3 6-6.4 14l-116 .1q-1.2-8.1-6.5-14.1t-12.8-7.8v-27q7.5-1.6 12.8-7.7 5.3-6 6.4-14.1h116.1q1.1 8 6.4 14z"/><path fill="#F0CB8F" d="M106.3 42.4q-7.8 0-13.3 5.9-5.5 5.9-5.5 14.3T93 76.9q5.5 6 13.3 6 7.9 0 13.4-6 5.5-5.9 5.5-14.3t-5.5-14.3q-5.5-6-13.4-6z"/><path fill="#1A344F" d="M106.3 40q-8.7 0-14.9 6.7-6.2 6.6-6.2 16 0 9.3 6.2 15.9t15 6.6q8.7 0 15-6.6 6.1-6.6 6.1-16 0-9.3-6.2-15.9-6.2-6.7-15-6.7M89.8 62.6q0-7.4 4.9-12.6 4.8-5.3 11.6-5.3 6.9 0 11.8 5.3 4.8 5.2 4.8 12.6 0 7.4-4.9 12.7-4.8 5.3-11.7 5.3-6.8 0-11.6-5.3-4.9-5.3-4.9-12.6z"/></g><g id="d" overflow="visible"><path fill="#94D15C" d="M-398-159.5q1.3 4.8-1.3 9-1.2 2.1-5.8 6.9-4 4.1-5 6.9-1.3 4.2 1.9 9 3.4 5.4 10.7 6.8 6.8 1.3 13.1-1.7 1.7-.8 5.6-3.2 3.6-2.2 5.8-3.1 7.1-2.9 14.9-.3 7.9 2.7 11.2 9.4 4.8 9.6-2.5 17.8-2 2.2-6.5 6.4-3.8 3.8-5 7.1-2 5.8-1.8 17.6l.4 18.1q-.1 2.3 1.6 3.8l17 15.5q1.1 1.1 1.4 2.6.4 1.5-.2 3l-1.4 3.4q-.9 2 0 3.8 1 1.9 3 2.4l26.3 6.7q1.9.4 2.9 2.3l2.3 4.6q.8 1.4 2.3 2.1 1.5.7 3 .1 1.9-.5 3.6.5 1.6 1 2.1 2.9l1.6 6.4q.4 1.6 1.8 2.6 1.3 1 3 .8l8.3-.5q2-.1 3.6 1.3 1.6 1.3 1.6 3.4v6.9q0 2-1.4 3.4-1.5 1.4-3.5 1.4-1.8 0-3.2 1.3-1.3 1.2-1.5 3l-1.6 14.9q-.3 2.5 1.8 4.3l13.3 10.7q2.1 1.8 1.7 4.4l-2.3 16.7q-.2 1.4.4 2.7.7 1.3 1.9 2l13 8.2q2.1 1.3 2.3 3.7l4.4 61.8q0 1.3.8 2.4.8 1.1 2 1.7l4.6 2q1.5.7 2.3 2.1.8 1.4.4 3.1-3.1 16.8-2.3 17.1.5.1 20.8 10.5 2.2 1 4.3 0 2.2-1.1 2.6-3.4l1.7-9.5q.3-1.4-.3-2.7-.5-1.3-1.7-2l-5.3-3.8q-1-.7-1.6-1.9-.5-1.1-.4-2.3l2.3-34.8q.2-1.8 1.4-3 2.8-2.9 11.2-10.1 8.2-7.2 12.4-11.4 14.2-14.3 14-25.8-.2-7.8 5.9-20.8 6.3-13.1 6.3-21.7 0-1.9-1.5-3.4L-188.6 28q-1.3-1.3-3.3-1.3h-13.3q-2 0-3.4-1.3-1.3-1.3-1.5-3.2l-.1-3.5q-.1-1.8-1.4-3-1.2-1.3-2.9-1.5l-7.9-.8q-1.8-.1-3-1.5l-7.8-8.5q-1.4-1.5-3.5-1.5h-41.7q-1.6 0-2.8-1-1.3-1-1.7-2.5l-2.1-7.2q-.6-2.2-2.7-3l-12-4.8v-5.7q0-1.5-.9-2.8-.9-1.2-2.3-1.7l-9.1-3.3q-1.9-.7-2.8-2.4-.8-1.9-.1-3.8l3-8.8q.8-2.3 3.2-3.1L-289-54q1.5-.4 3 .1t2.4 1.8l3.6 5.3q1.8 2.4 4.8 2 3-.5 3.8-3.5l2-6.6q.5-1.8 2.1-2.7l31-19.7q1.5-1 2-2.6.6-1.6 0-3.3l-2.7-7.1q-1-2.5.6-4.5 1.5-2.2 4.2-2.1 4 .2 17.4 2.5 12.5 1.3 17-2.6 5.5-4.8 5.7-9.3.2-3.5-2.9-7.4l-6-6.5q-3.3-3.8-3.3-6.5l-.3-4.7q-.2-6.5-13.8-4.6-5.1.7-10 2.4-4.7 1.7-6 3.2-.7.6-2.3 2.8-1.3 1.8-2.4 2.6-2.8 2.3-7.3 1.8-3.3-.3-8.1-2.1-3.9-1.4-4.9-3.2-2-3.3 1.9-6.7 2.8-2.5 8.2-4.5 6-2.4 11-7 4.9-4.6 7.6-10.6 5.3-11.5-17.5-13.8-7-.8-18.4-.6l-13.4.1q-2.4-.2-3.9 1.6l-8.3 9.1q-1.7 1.9-4.2 1.6-34.6-5.5-58.7-7.6-46.3-4.1-43 7.4z"/><path stroke="#1A344F" stroke-width="5" stroke-linejoin="round" stroke-linecap="round" fill="none" d="M-278.6 15v6.8q0 2-1.3 3.4-1.5 1.4-3.5 1.4-1.8 0-3.2 1.3-1.3 1.2-1.5 3l-1.6 14.9q-.3 2.5 1.8 4.3l13.3 10.7q2.1 1.8 1.7 4.4l-2.3 16.7q-.2 1.4.4 2.7.7 1.3 1.9 2l13 8.2q2.1 1.3 2.3 3.7l4.4 61.8q0 1.3.8 2.4.8 1.1 2 1.7l4.6 2q1.5.7 2.3 2.1.8 1.4.4 3.1-3.1 16.8-2.3 17.1.5.1 20.8 10.5 2.2 1 4.3 0 2.2-1.1 2.6-3.4l1.7-9.5q.3-1.4-.3-2.7-.5-1.3-1.7-2l-5.3-3.8q-1-.7-1.6-1.9-.5-1.1-.4-2.3l2.3-34.8q.2-1.8 1.4-3 2.8-2.9 11.2-10.1 8.2-7.2 12.4-11.4 14.2-14.3 14-25.8-.2-7.8 5.9-20.8 6.3-13.1 6.3-21.7 0-1.9-1.5-3.4L-188.6 28q-1.3-1.3-3.3-1.3h-13.3q-2 0-3.4-1.3-1.3-1.3-1.5-3.2l-.1-3.5q-.1-1.8-1.4-3-1.2-1.3-2.9-1.5l-7.9-.8q-1.8-.1-3-1.5l-7.8-8.5q-1.4-1.5-3.5-1.5h-41.7q-1.6 0-2.8-1-1.3-1-1.7-2.5l-2.1-7.2q-.6-2.2-2.7-3l-12-4.8v-5.7q0-1.5-.9-2.8-.9-1.2-2.3-1.7l-9.1-3.3q-1.9-.7-2.8-2.4-.8-1.9-.1-3.8l3-8.8q.8-2.3 3.2-3.1L-289-54q1.5-.4 3 .1t2.4 1.8l3.6 5.3q1.8 2.4 4.8 2 3-.5 3.8-3.5l2-6.6q.5-1.8 2.1-2.7l31-19.7q1.5-1 2-2.6.6-1.6 0-3.3l-2.7-7.1q-1-2.5.6-4.5 1.5-2.2 4.2-2.1 4 .2 17.4 2.5 12.5 1.3 17-2.6 5.5-4.8 5.7-9.3.2-3.5-2.9-7.4l-6-6.5q-3.3-3.8-3.3-6.5l-.3-4.7q-.2-6.5-13.8-4.6-5.1.7-10 2.4-4.7 1.7-6 3.2-.7.6-2.3 2.8-1.3 1.8-2.4 2.6-2.8 2.3-7.3 1.8-3.3-.3-8.1-2.1-3.9-1.4-4.9-3.2-2-3.3 1.9-6.7 2.8-2.5 8.2-4.5 6-2.4 11-7 4.9-4.6 7.6-10.6 5.3-11.5-17.5-13.8-7-.8-18.4-.6l-13.4.1q-2.4-.2-3.9 1.6l-8.3 9.1q-1.7 1.9-4.2 1.6-34.6-5.5-58.7-7.6-46.3-4.1-43 7.4 1.4 4.8-1.1 9-1.3 2.1-6 6.9-3.9 4.1-4.9 6.9-1.3 4.2 1.9 9 3.4 5.4 10.7 6.8 6.8 1.3 13.1-1.7 1.7-.8 5.6-3.2 3.6-2.2 5.8-3.1 7.1-2.9 14.9-.3 7.9 2.7 11.2 9.4 4.8 9.6-2.5 17.8-2 2.2-6.5 6.4-3.8 3.8-5 7.1-2 5.8-1.8 17.6l.4 18.1q-.1 2.3 1.6 3.8l17 15.5q1.1 1.1 1.4 2.6.4 1.5-.2 3l-1.4 3.4q-.9 2 0 3.8 1 1.9 3 2.4l26.3 6.7q1.9.4 2.9 2.3l2.3 4.6q.8 1.4 2.3 2.1 1.5.7 3 .1 1.9-.5 3.6.5 1.6 1 2.1 2.9l1.6 6.4q.4 1.6 1.8 2.6 1.3 1 3 .8l8.3-.5q2-.1 3.6 1.3 1.6 1.3 1.6 3.4z"/><path fill="#94D15C" d="M-183.7-184q9.6-3.8 14.1-10.8 1.7-2.6 1-4.4-.5-1.3-22.4 1.5-22.9 3.3-25.3 3.5-1.5.3-2.7 1.3-1.2 1.2-1.5 2.7l-1.3 7.6q-.3 1.6.4 3l7 14.5q.8 1.5.3 3.3l-2.5 10.4q-.5 2 .7 3.8 1.2 1.8 3.3 2 5.3.8 10.4-.1 5.3-.9 8-3.1 6.6-5.6-7-15-2.4-1.4-3.5-2.3-2-1.4-2.6-3-1.1-2.8 1-5.8 2-2.6 5.4-3.8 5.6-1.9 17.2-5.4z"/><path stroke="#1A344F" stroke-width="5" stroke-linejoin="round" stroke-linecap="round" fill="none" d="M-221.4-179.7l7 14.6q.8 1.5.3 3.3l-2.5 10.4q-.5 2 .7 3.8 1.2 1.8 3.3 2 5.3.8 10.4-.1 5.3-.9 8-3.1 6.6-5.6-7-15-2.4-1.4-3.5-2.3-2-1.4-2.6-3-1.1-2.8 1-5.8 2-2.6 5.4-3.8 5.6-1.9 17.2-5.4 9.6-3.8 14.1-10.7 1.7-2.6 1-4.4-.5-1.3-22.4 1.5-22.9 3.3-25.3 3.5-1.5.3-2.7 1.3-1.2 1.2-1.5 2.7l-1.3 7.6q-.3 1.6.4 3z"/><path fill="#94D15C" d="M-162.3-181l-12.3 8q-.3.3-.8.3l-10.3 2.8q-1.4.3-1.8 1.6-.4 1.3.4 2.4.8 1 2.1 1h8.7q1.2 0 1.9 1 .8.8.6 2l-2.8 18.9v.8l2.9 19.2q.1 1 .9 1.5.8.7 1.7.7h6.9q1.3 0 2-1l17.3-22.8q.6-.7 1.3-.8l38.4-14.1q1.5-.5 1.7-2.2l2.3-21.2q.1-1-.5-1.8t-1.6-1l-40.4-7.8q-1-.3-2 .4l-16.6 12z"/><path stroke="#1A344F" stroke-width="5" stroke-linejoin="round" stroke-linecap="round" fill="none" d="M-187.4-168.3q-.5 1.3.3 2.4.8 1 2.1 1h8.7q1.2 0 1.9 1 .8.8.6 2l-2.8 18.9v.8l2.9 19.2q.1 1 .9 1.5.8.7 1.7.7h6.9q1.3 0 2-1l17.3-22.8q.6-.7 1.3-.8l38.4-14.1q1.5-.5 1.7-2.2l2.3-21.2q.1-1-.5-1.8t-1.6-1l-40.4-7.8q-1-.3-2 .4l-16.6 12v.1l-12.3 8q-.3.3-.8.3l-10.3 2.8q-1.4.3-1.8 1.6z"/><path fill="#94D15C" d="M138.3-178.5q-3.9 2.1-5 4.4-3.7 7-5.4 9.3-1.4 2-2.9 2.2-2-.1-3.8.3-3.3.7-7.9 3.8l-3 2-10.5 7.3q-6.3 4.1-11.2 5.8-13.3 4.5-24.1-6l-3.9-4.3q-2.4-2.8-4-4.2-10.4-9-28.2-4.5-15.4 3.8-26.5 14-4.7 4.3-6.2 9.9-1.4 5.2.4 9.6 1.9 4.5 6.4 6 5 1.8 11.8-.8 5.1-2 11.8-8.3 8.8-8.4 10.4-9.7 3 2.1 3.1 4.7l-.9 6q-.2 1 .4 1.9.6.9 1.6 1.2 1.9.5 2 2.5.2 1.9-1.7 2.7l-2.8 1.1q-1.3.5-1.6 1.8l-2.6 9.5q-.3.9-1 1.5-.6.5-1.4.5L5.9-106q-1 .1-1.8-.5-.7-.5-1-1.4l-2.6-8.4q-.3-1-1.1-1.5-.9-.5-1.9-.5l-7.5 1q-1.6.1-2.2 1.5l-6.3 14.3q-.5 1.3-2 1.7l-7.3 1.3q-.8.1-1.4.8l-7.3 7.5q-.5.7-.7 1.5-.1.9.3 1.7l4 7.3q.6 1.4-.1 2.8-.8 1.3-2.4 1.3h-12.1q-1.4 0-2.2 1.1-.8 1.2-.3 2.5l5.5 15.4q.6 1.6 2.2 1.7l14.4 2q1.4.1 2.3-.9 1-.9.9-2.3l-1-6.5q-.2-1 .3-1.7.5-.9 1.3-1.2l13.7-5.5q.6-.3 1.2-.2l8.9.7q1.4.1 2.1 1.3l6.4 10.8q.6.9.5 2 0 1-.7 1.9l-.4.6q-.8 1-.7 2.4.1 1.3 1 2.3L9.3-48q.9.9 2.3 1 1.4 0 2.4-.8l5.2-4.3q1-.8 1.3-1.9.3-1.1-.2-2.3l-4.9-11.9q-.5-1 0-2.1.5-1 1.7-1.5l.7-.2q.8-.3 1.6 0 .8.2 1.3.8l12.4 15q.6.7 1.5.9.9.1 1.8-.3l13.1-6q.9-.4 1.8-.2 1 .3 1.5 1L65.8-44q.9 1.2.5 2.5l-2.6 8.4q-.5 1.7-2.2 1.9-33.1 5.8-34.6 5.4-2.5-.6-18.8-6.2-.8-.4-1.4-1.1L-.8-44.8Q-1.6-45.8-3-46l-25-.4q-1 0-1.9.7l-40.8 34q-.7.5-1 1.5-1 5.4-4.6 15.4-3.7 10.3-4.7 15-3.6 16.8 9.1 28.2 6.5 5.6 15.4 8.5 8.4 2.6 17.6 2.3 4-.1 11.8-.9 6.9-.3 11.5.7 6.4 1.4 9.1 4.5 2 2.4 2.4 6.8l.4 7.9Q-3 82.8-.1 86q1.3 1.5 5.8 5.1 3.8 3.1 5.3 5.5 3.3 4.9 2.8 12.6-.3 3.3-2.5 13.5-1.6 7.6-.5 13.7 1.3 7.5 6.7 10.4 1.6.9 5 2.2 2.9 1.3 3.9 3.3 1.2 2.5-.4 6-1 2.1-3.5 6.1-4.1 8 1.5 16.8 5.5 8.7 14.8 10 8.6 1.2 17.3-3.8 7.9-4.7 13.1-12.8 3.8-5.8 6.7-14.4l4.7-14.8q5.8-18 16.3-26.6 1-.7 1-2l1.1-34q.1-5 3.8-8.1 19.7-17.3 24-29.7 5.9-16.8-28-9.5l-3.2.5q-1.8 0-3-.8-2.1-1.3-1.9-5 .8-4.4.9-6.4.3-4.6-3.3-9.6l-7-8.3q-3.9-4.6-4.7-9.8-1-6 3-9 3.1-2.3 7.6-1 4 1 7.2 4.3 7 7.3 8.9 14.4 1.3 5.1.8 17-.1 1 .5 1.8t1.5 1l9.5 2.1q1.5.4 2.5-.7l20.4-21.2q.9-.8.8-2.1 0-1.2-1-2l-18.5-14.3q-1-.7-1-1.8-.2-1.2.5-2.1l4.8-5.6q.8-1 2.1-1h10.2q1.3 0 3.9 2l5.4 4.4q8 6.3 14 6.7 3.4.2 4.8 1.3 2.3 2 .7 9-1.5 6.8 1.2 8.5l.1.1q7.8 4.6 10 4l.8 2.2q1 3.6 3.3 9 2.8 6.3 6.2 17.4 3.7 9.3 11.8 14.6 3.2 2.2 5.7 2.3 6.3.3 10.6-10.9L227.9 12q1.3-3.3 2.4-5 1.6-2.7 4-3.6 3.3-1.4 7.3.8 3.2 1.7 6.4 5.4 5.8 6.3 7 17.6.7 7.2 1 8.7.9 4.8 3.1 8.2l6.8 10.8q.7 1 1.8 1.4 1.1.4 2.2 0h.1q1.3-.5 1.9-1.7.6-1.1.2-2.4l-4-14.3q-.4-1.2.3-2.3.5-1.1 1.7-1.5l1.4-.5q1-.3 2 .1 1.1.3 1.6 1.3 4.5 7.5 9.3 5.9 2-.6 5-3l6-5q1-.8 1.2-2.2l.9-13.8q.1-2.2-1.6-3.7l-9.3-7.9q-2-1.6-1.7-4l.9-6.3q.1-1.1.9-1.8.8-.8 1.9-.9L304-8.8q1.9-.1 2.6-1.8l7.8-18q.9-1.9-.4-3.4l-11-12.3q-1.1-1.2-.7-2.8l3.9-14.8q.3-1.1 1.3-1.8.9-.6 2-.5 11.3 1.2 11.1-20.1 0-6.6-1.3-17.5l-1.4-13.4q0-1.6 1.4-2.6l11.8-8.3q1-.6 2-.5 3.7.3 15.6.4 10.4 1.1 11.9 7.3.6 2.8.1 7.8-.4 5.5-.1 7.8 2 16.5 12.1 1.7 5.4-8 11.2-21.6.2-.5.8-1.1l14.3-12.8q.4-.4 1.1-.7 11.5-3.4 10.3-6.3-1-2.4-10.4-4.2-7.8-1.3-18.7-2-9.7-.6-14.1-.3-2.3.3-4.4-.6-2.2-.9-3.6-2.6l-7.5-8.8q-2.3-2.7-5.7-3.2-22.1-4-33.1-5.3-18.9-2.1-33.5.7l-12.8 2.6q-7.4 1.4-12.9 1-6.1-.4-12.4-6.3-7.5-7-11-8.4-18.1-7.1-46.4-6.5-29.3.7-45.6 9.5z"/><path stroke="#1A344F" stroke-width="5" stroke-linejoin="round" stroke-linecap="round" fill="none" d="M110.3-156.5l-10.5 7.3q-6.3 4.1-11.2 5.8-13.3 4.5-24.1-6l-3.9-4.3q-2.4-2.8-4-4.2-10.4-9-28.2-4.5-15.4 3.8-26.5 14-4.7 4.3-6.2 9.9-1.4 5.2.4 9.6 1.9 4.5 6.4 6 5 1.8 11.8-.8 5.1-2 11.8-8.3 8.8-8.4 10.4-9.7 3 2.1 3.1 4.7l-.9 6q-.2 1 .4 1.9.6.9 1.6 1.2 1.9.5 2 2.5.2 1.9-1.7 2.7l-2.8 1.1q-1.3.5-1.6 1.8l-2.6 9.5q-.3.9-1 1.5-.6.5-1.4.5L5.9-106q-1 .1-1.8-.5-.7-.5-1-1.4l-2.6-8.4q-.3-1-1.1-1.5-.9-.5-1.9-.5l-7.5 1q-1.6.1-2.2 1.5l-6.3 14.3q-.5 1.3-2 1.7l-7.3 1.3q-.8.1-1.4.8l-7.3 7.5q-.5.7-.7 1.5-.1.9.3 1.7l4 7.3q.6 1.4-.1 2.8-.8 1.3-2.4 1.3h-12.1q-1.4 0-2.2 1.1-.8 1.2-.3 2.5l5.5 15.4q.6 1.6 2.2 1.7l14.4 2q1.4.1 2.3-.9 1-.9.9-2.3l-1-6.5q-.2-1 .3-1.7.5-.9 1.3-1.2l13.7-5.5q.6-.3 1.2-.2l8.9.7q1.4.1 2.1 1.3l6.4 10.8q.6.9.5 2 0 1-.7 1.9l-.4.6q-.8 1-.7 2.4.1 1.3 1 2.3L9.3-48q.9.9 2.3 1 1.4 0 2.4-.8l5.2-4.3q1-.8 1.3-1.9.3-1.1-.2-2.3l-4.9-11.9q-.5-1 0-2.1.5-1 1.7-1.5l.7-.2q.8-.3 1.6 0 .8.2 1.3.8l12.4 15q.6.7 1.5.9.9.1 1.8-.3l13.1-6q.9-.4 1.8-.2 1 .3 1.5 1L65.8-44q.9 1.2.5 2.5l-2.6 8.4q-.5 1.7-2.2 1.9-33.1 5.8-34.6 5.4-2.5-.6-18.8-6.2-.8-.4-1.4-1.1L-.8-44.8Q-1.6-45.8-3-46l-25-.4q-1 0-1.9.7l-40.8 34q-.7.5-1 1.5-1 5.4-4.6 15.4-3.7 10.3-4.7 15-3.6 16.8 9.1 28.2 6.5 5.6 15.4 8.5 8.4 2.6 17.6 2.3 4-.1 11.8-.9 6.9-.3 11.5.7 6.4 1.4 9.1 4.5 2 2.4 2.4 6.8l.4 7.9Q-3 82.8-.1 86q1.3 1.5 5.8 5.1 3.8 3.1 5.3 5.5 3.3 4.9 2.8 12.6-.3 3.3-2.5 13.5-1.6 7.6-.5 13.7 1.3 7.5 6.7 10.4 1.6.9 5 2.2 2.9 1.3 3.9 3.3 1.2 2.5-.4 6-1 2.1-3.5 6.1-4.1 8 1.5 16.8 5.5 8.7 14.8 10 8.6 1.2 17.3-3.8 7.9-4.7 13.1-12.8 3.8-5.8 6.7-14.4l4.7-14.8q5.8-18 16.3-26.6 1-.7 1-2l1.1-34q.1-5 3.8-8.1 19.7-17.3 24-29.7 5.9-16.8-28-9.5l-3.2.5q-1.8 0-3-.8-2.1-1.3-1.9-5 .8-4.4.9-6.4.3-4.6-3.3-9.6l-7-8.3q-3.9-4.6-4.7-9.8-1-6 3-9 3.1-2.3 7.6-1 4 1 7.2 4.3 7 7.3 8.9 14.4 1.3 5.1.8 17-.1 1 .5 1.8t1.5 1l9.5 2.1q1.5.4 2.5-.7l20.4-21.2q.9-.8.8-2.1 0-1.2-1-2l-18.5-14.3q-1-.7-1-1.8-.2-1.2.5-2.1l4.8-5.6q.8-1 2.1-1h10.2q1.3 0 3.9 2l5.4 4.4q8 6.3 14 6.7 3.4.2 4.8 1.3 2.3 2 .7 9-1.5 6.8 1.2 8.5l.1.1q7.8 4.6 10 4l.8 2.2q1 3.6 3.3 9 2.8 6.3 6.2 17.4 3.7 9.3 11.8 14.6 3.2 2.2 5.7 2.3 6.3.3 10.6-10.9L227.9 12q1.3-3.3 2.4-5 1.6-2.7 4-3.6 3.3-1.4 7.3.8 3.2 1.7 6.4 5.4 5.8 6.3 7 17.6.7 7.2 1 8.7.9 4.8 3.1 8.2l6.8 10.8q.7 1 1.8 1.4 1.1.4 2.2 0h.1q1.3-.5 1.9-1.7.6-1.1.2-2.4l-4-14.3q-.4-1.2.3-2.3.5-1.1 1.7-1.5l1.4-.5q1-.3 2 .1 1.1.3 1.6 1.3 4.5 7.5 9.3 5.9 2-.6 5-3l6-5q1-.8 1.2-2.2l.9-13.8q.1-2.2-1.6-3.7l-9.3-7.9q-2-1.6-1.7-4l.9-6.3q.1-1.1.9-1.8.8-.8 1.9-.9L304-8.8q1.9-.1 2.6-1.8l7.8-18q.9-1.9-.4-3.4l-11-12.3q-1.1-1.2-.7-2.8l3.9-14.8q.3-1.1 1.3-1.8.9-.6 2-.5 11.3 1.2 11.1-20.1 0-6.6-1.3-17.5l-1.4-13.4q0-1.6 1.4-2.6l11.8-8.3q1-.6 2-.5 3.7.3 15.6.4 10.4 1.1 11.9 7.3.6 2.8.1 7.8-.4 5.5-.1 7.8 2 16.5 12.1 1.7 5.4-8 11.2-21.6.2-.5.8-1.1l14.3-12.8q.4-.4 1.1-.7 11.5-3.4 10.3-6.3-1-2.4-10.4-4.2-7.8-1.3-18.7-2-9.7-.6-14.1-.3-2.3.3-4.4-.6-2.2-.9-3.6-2.6l-7.5-8.8q-2.3-2.7-5.7-3.2-22.1-4-33.1-5.3-18.9-2.1-33.5.7l-12.8 2.6q-7.4 1.4-12.9 1-6.1-.4-12.4-6.3-7.5-7-11-8.4-18.1-7.1-46.4-6.5-29.3.7-45.6 9.5-3.9 2.1-5 4.4-3.7 7-5.4 9.3-1.4 2-2.9 2.2-2-.1-3.8.3-3.3.7-7.9 3.8l-3 2z"/><path fill="#94D15C" d="M123.3 146.3l4-25.3q.5-2.8-1.5-4.8t-4.8-1.5l-2.2.3q-2.3.3-3.8 2.3l-6.9 10.2q-.5.8-.8 1.7l-3.8 13.6q-.7 2.3.7 4.4l2.7 4.5q1.1 1.9 3.3 2.5 2.1.6 4.1-.5l6.1-3.3q2.4-1.4 2.8-4z"/><path stroke="#1A344F" stroke-width="5" stroke-linejoin="round" stroke-linecap="round" fill="none" d="M115 117.3l-6.9 10.2q-.5.8-.8 1.7l-3.8 13.6q-.7 2.3.7 4.4l2.7 4.5q1.1 1.9 3.3 2.5 2.1.6 4.1-.5l6.1-3.3q2.4-1.4 2.8-4l4.1-25.4q.5-2.8-1.5-4.8t-4.8-1.5l-2.2.3q-2.3.3-3.8 2.3z"/><path fill="#94D15C" d="M271.4 73.6q-.9-1-2.3-1h-.3q-1 0-1.9-.5-.8-.5-1.1-1.5l-2.5-6.3q-.6-1.4-2-2l-7-2.3q-1.8-.5-3.2.7-1.3 1.2-1 3l1.4 8q.2.8.6 1.3l5.9 8.2q.4.5.9.8l9.9 6q.6.5 1.3.5l14.8 2q1.8.3 2.9-1 1.1-1.3.8-3l-1.2-4.8q-.1-1.1-1-1.9-1-.6-2.1-.6h-8.7q-1.3 0-2.3-1-.9-1-.9-2.3 0-1.4-1-2.3z"/><path stroke="#1A344F" stroke-width="5" stroke-linejoin="round" stroke-linecap="round" fill="none" d="M254.3 60l7 2.4q1.4.5 2 1.9l2.4 6.3q.4 1 1.3 1.5.8.6 1.8.6h.3q1.4 0 2.3.9 1 1 1 2.3 0 1.3 1 2.3.9 1 2.3 1h8.6q1.1 0 2 .6 1 .8 1.1 1.9l1.2 4.8q.3 1.7-.8 3-1.2 1.3-2.9 1l-14.8-2q-.7 0-1.3-.5l-9.9-6q-.5-.3-.9-.8l-5.9-8.2q-.4-.5-.6-1.3l-1.4-8q-.3-1.8 1-3 1.5-1.2 3.2-.7z"/><path fill="#94D15C" d="M-187.6 1.3q-7.6 2.9 2.9 12 4.3 3.6 8.3 3.8 3.7 0 5.4-2.7 1.8-2.7.2-6.5-1.7-4.2-7.2-7.8-5.8-.3-9.6 1.2z"/><path stroke="#1A344F" stroke-width="5" stroke-linejoin="round" stroke-linecap="round" fill="none" d="M-178 .1q-5.8-.3-9.6 1.2-7.6 2.9 2.9 12 4.3 3.6 8.3 3.8 3.7 0 5.4-2.7 1.8-2.7.2-6.5-1.7-4.2-7.2-7.8z"/></g></defs><g overflow="visible"><path fill="#FFF" fill-opacity=".3" d="M598.9 164q-6.5 0-11 4.6-4.6 4.6-4.6 11 0 6.5 4.6 11 4.5 4.6 11 4.6H626q6.5 0 11-4.5 4.6-4.6 4.6-11.1 0-6.4-4.6-11-4.5-4.6-11-4.6h-27.1z"/><path fill="#FFF" fill-opacity=".3" d="M563.4 172.4q-4.6-4.6-11.1-4.6h-65.6q-6.6 0-11.1-4.5-4.6-4.6-4.6-11 0-2.8.9-5 1.5-4.7 5.6-7.7 4-3 9.1-3h92.8q6.5 0 11-4.5 4.6-4.6 4.6-11.1t-4.5-11q-4.6-4.6-11.1-4.6H335.8q-13 0-25.6 1.3-44.9 4.8-85 25.5-39 20-68.5 52.7-29.6 32.8-45.8 73.7-16.7 42.4-16.7 88.3 0 44.5 15.8 85.7H82.3q-6.7 0-11.3 4.8-4.6 4.8-4.3 11.5.3 6.3 5 10.6t11 4.3h28.5q6 .6 10 5.1 4.1 4.5 4.1 10.5 0 2.8-1 5.4-1.7 4.6-5.6 7.3-4 2.9-9 2.9h-3.5q-6.4 0-11 4.6-4.5 4.5-4.5 11t4.5 11q4.6 4.6 11 4.6h65.8l2.3.2q5.3 4.8 12.4 10.6.8 2.4.8 4.8 0 2.5-.8 5-1.5 4.7-5.6 7.7-4 3-9.1 3H79.3q-6.5 0-11 4.5-4.6 4.5-4.6 11t4.6 11.1q4.5 4.5 11 4.5h269.4q8.9 0 17.6-2 44-5.5 83.1-26.4 38.3-20.4 67-52.8 29-32.6 44.8-73.1 16.2-42 16.2-87.3 0-40-12.7-77.4-1-3 .8-5.6 1.9-2.5 5-2.5h5.8q6.7 0 11.3-4.8 4.6-4.8 4.3-11.5-.3-6.3-5-10.6t-11-4.3h-27l-1.6-.1q-5.9-.6-10-5-4-4.5-4-10.5 0-2.8 1-5.4 1.7-4.6 5.6-7.4 4-2.8 9-2.8h3.4q6.5 0 11-4.6 4.6-4.6 4.6-11 0-6.6-4.5-11.1z"/><g mask="url(#a)"><g display="none"><use xlink:href="#b" transform="translate(618.9 301.1)"><animateTransform attributeName="transform" additive="replace" type="translate" repeatCount="indefinite" dur="4s" keyTimes="0;.83299;.833;.84399;.844;.85399;.854;.86499;.865;.87499;.875;.88499;.885;.89599;.896;.90599;.906;.91699;.917;.92699;.927;.93799;.938;.94799;.948;1" values="618.9,301.1;618.9,301.1;583.45,301.1;583.45,301.1;548,301.1;548,301.1;512.55,301.1;512.55,301.1;477.05,301.1;477.05,301.1;441.6,301.1;441.6,301.1;406.15,301.1;406.15,301.1;367.7,301.1;367.7,301.1;329.3,301.1;329.3,301.1;290.85,301.1;290.85,301.1;252.4,301.1;252.4,301.1;214,301.1;214,301.1;175.55,301.1;175.55,301.1" calcMode="discrete"/></use><animate attributeName="display" repeatCount="indefinite" dur="4s" keyTimes="0;.823;1" values="none;inline;inline"/></g><g display="none"><use xlink:href="#b" transform="translate(618.9 301.1)"><animateTransform attributeName="transform" additive="replace" type="translate" repeatCount="indefinite" dur="4s" keyTimes="0;.33299;.333;.34399;.344;.35399;.354;.36499;.365;.37499;.375;.38499;.385;.39599;.396;.40599;.406;.41699;.417;.42699;.427;.43799;.438;.44799;.448;.49999;.5;.50999;.51;.52099;.521;.53099;.531;.54199;.542;.55199;.552;.56299;.563;.57299;.573;.58299;.583;.59399;.594;.60399;.604;.61499;.615;1" values="618.9,301.1;618.9,301.1;583.45,301.1;583.45,301.1;548,301.1;548,301.1;512.55,301.1;512.55,301.1;477.05,301.1;477.05,301.1;441.6,301.1;441.6,301.1;406.15,301.1;406.15,301.1;367.7,301.1;367.7,301.1;329.3,301.1;329.3,301.1;290.85,301.1;290.85,301.1;252.4,301.1;252.4,301.1;214,301.1;214,301.1;175.55,301.1;175.55,301.1;227.85,301.1;227.85,301.1;192.5,301.1;192.5,301.1;157.15,301.1;157.15,301.1;121.85,301.1;121.85,301.1;86.5,301.1;86.5,301.1;51.15,301.1;51.15,301.1;15.8,301.1;15.8,301.1;-19.55,301.1;-19.55,301.1;-54.9,301.1;-54.9,301.1;-90.2,301.1;-90.2,301.1;-125.55,301.1;-125.55,301.1;-160.9,301.1;-160.9,301.1" calcMode="discrete"/></use><animate attributeName="display" repeatCount="indefinite" dur="4s" keyTimes="0;.323;.625;1" values="none;inline;none;none"/></g><g><use xlink:href="#b" transform="translate(227.8 301.1)"><animateTransform attributeName="transform" additive="replace" type="translate" repeatCount="indefinite" dur="4s" keyTimes="0;.00999;.01;.02099;.021;.03099;.031;.04199;.042;.05199;.052;.06299;.063;.07299;.073;.08299;.083;.09399;.094;.10399;.104;.11499;.115;1" values="227.85,301.1;227.85,301.1;192.5,301.1;192.5,301.1;157.15,301.1;157.15,301.1;121.85,301.1;121.85,301.1;86.5,301.1;86.5,301.1;51.15,301.1;51.15,301.1;15.8,301.1;15.8,301.1;-19.55,301.1;-19.55,301.1;-54.9,301.1;-54.9,301.1;-90.2,301.1;-90.2,301.1;-125.55,301.1;-125.55,301.1;-160.9,301.1;-160.9,301.1" calcMode="discrete"/></use><animate attributeName="display" repeatCount="indefinite" dur="4s" keyTimes="0;.125;1" values="inline;none;none"/></g></g><mask id="a"><path fill="#FFF" d="M619 261.2H51.9v222h567v-222z"/></mask><path fill="#3AA6FF" d="M416.1 156.3Q377.3 140 335 140q-42.4 0-81.2 16.4-37.5 15.9-66.4 44.8-28.9 28.8-44.7 66.3-16.4 38.8-16.4 81.3 0 42.4 16.4 81.2 15.8 37.5 44.7 66.3 28.9 28.9 66.3 44.8 38.8 16.4 81.3 16.4t81.3-16.4q37.4-15.9 66.3-44.8 28.9-28.8 44.7-66.3 16.4-38.8 16.4-81.3 0-42.4-16.4-81.2-15.9-37.4-44.8-66.3-28.8-28.9-66.3-44.8z"/><path stroke="#3AA6FF" stroke-linejoin="round" stroke-linecap="round" fill="none" d="M543.6 348.6q0 42.5-16.4 81.3-15.9 37.5-44.8 66.3-28.8 28.9-66.3 44.8-38.8 16.4-81.2 16.4-42.4 0-81.2-16.4-37.5-15.9-66.4-44.8-28.9-28.8-44.7-66.3-16.4-38.8-16.4-81.3 0-42.4 16.4-81.2 15.8-37.4 44.7-66.3 28.9-28.9 66.3-44.8Q292.4 140 335 140t81.3 16.4q37.4 15.9 66.3 44.8 28.9 28.8 44.7 66.3 16.4 38.8 16.4 81.3z"/><path fill="#4B4B4B" d="M417 154.2q-39.3-16.6-82.1-16.6t-82 16.6q-37.9 16-67.2 45.3-29.2 29.3-45.3 67.1-16.6 39.2-16.6 82 0 42.9 16.6 82.1 16.1 37.9 45.3 67.1Q215 527 253 543.1q39.2 16.6 82 16.6 42.9 0 82-16.6 37.9-16 67.2-45.3 29.2-29.3 45.3-67.1 16.6-39.2 16.6-82 0-42.9-16.6-82.1-16.1-37.9-45.3-67.1-29.3-29.3-67.2-45.3m-82-12q41.9 0 80.3 16.3 37 15.7 65.6 44.3 28.6 28.5 44.2 65.6 16.3 38.4 16.3 80.3T525 428.8q-15.6 37-44.2 65.7-28.6 28.5-65.7 44.2-38.3 16.3-80.2 16.3-41.9 0-80.2-16.3-37.1-15.7-65.6-44.2-28.7-28.7-44.3-65.7-16.3-38.3-16.3-80.3 0-41.9 16.3-80.2 15.6-37 44.3-65.6 28.5-28.6 65.6-44.3 38.3-16.3 80.2-16.3z"/><g mask="url(#c)"><use xlink:href="#d" transform="translate(439.3 378.4)"><animateTransform attributeName="transform" additive="replace" type="translate" repeatCount="indefinite" dur="4s" keyTimes="0;.00999;.01;.02099;.021;.03099;.031;.04199;.042;.05199;.052;.06299;.063;.07299;.073;.08299;.083;.09399;.094;.10399;.104;.11499;.115;.12499;.125;.13499;.135;.14599;.146;.15599;.156;.16699;.167;.17699;.177;.18799;.188;.19799;.198;.20799;.208;.21899;.219;.22899;.229;.23999;.24;.24999;.25;.25999;.26;.27099;.271;.28099;.281;.29199;.292;.30199;.302;.31299;.313;.32299;.323;.33299;.333;.34399;.344;.35399;.354;.36499;.365;.37499;.375;.38499;.385;.39599;.396;.40599;.406;.41699;.417;.42699;.427;.43799;.438;.44799;.448;.45799;.458;.46899;.469;.47899;.479;.48999;.49;.49999;.5;.50999;.51;.52099;.521;.53099;.531;.54199;.542;.55199;.552;.56299;.563;.57299;.573;.58299;.583;.59399;.594;.60399;.604;.61499;.615;.62499;.625;.63499;.635;.64599;.646;.65599;.656;.66699;.667;.67699;.677;.68799;.688;.69799;.698;.70799;.708;.71899;.719;.72899;.729;.73999;.74;.74999;.75;.75999;.76;.77099;.771;.78099;.781;.79199;.792;.80199;.802;.81299;.813;.82299;.823;.83299;.833;.84399;.844;.85399;.854;.86499;.865;.87499;.875;.88499;.885;.89599;.896;.90599;.906;.91699;.917;.92699;.927;.93799;.938;.94799;.948;.95799;.958;.96899;.969;.97899;.979;.98999;.99;1" values="439.3,378.4;439.3,378.4;430.5,378.4;430.5,378.4;421.75,378.4;421.75,378.4;413,378.4;413,378.4;404.2,378.4;404.2,378.4;395.45,378.4;395.45,378.4;386.65,378.4;386.65,378.4;377.9,378.4;377.9,378.4;369.1,378.4;369.1,378.4;360.35,378.4;360.35,378.4;351.55,378.4;351.55,378.4;342.8,378.4;342.8,378.4;334,378.4;334,378.4;325.25,378.4;325.25,378.4;316.45,378.4;316.45,378.4;307.7,378.4;307.7,378.4;298.9,378.4;298.9,378.4;290.15,378.4;290.15,378.4;281.35,378.4;281.35,378.4;272.6,378.4;272.6,378.4;263.85,378.4;263.85,378.4;255.05,378.4;255.05,378.4;246.3,378.4;246.3,378.4;237.5,378.4;237.5,378.4;228.75,378.4;228.75,378.4;219.95,378.4;219.95,378.4;211.2,378.4;211.2,378.4;202.4,378.4;202.4,378.4;193.65,378.4;193.65,378.4;184.85,378.4;184.85,378.4;176.1,378.4;176.1,378.4;167.35,378.4;167.35,378.4;158.55,378.4;158.55,378.4;149.75,378.4;149.75,378.4;141,378.4;141,378.4;132.2,378.4;132.2,378.4;123.45,378.4;123.45,378.4;114.65,378.4;114.65,378.4;105.9,378.4;105.9,378.4;97.15,378.4;97.15,378.4;88.35,378.4;88.35,378.4;79.6,378.4;79.6,378.4;70.8,378.4;70.8,378.4;62.05,378.4;62.05,378.4;53.25,378.4;53.25,378.4;44.5,378.4;44.5,378.4;35.7,378.4;35.7,378.4;26.95,378.4;26.95,378.4;18.15,378.4;18.15,378.4;9.4,378.4;9.4,378.4;.6,378.4;.6,378.4;-8.15,378.4;-8.15,378.4;-16.9,378.4;-16.9,378.4;-25.7,378.4;-25.7,378.4;-34.5,378.4;-34.5,378.4;-43.25,378.4;-43.25,378.4;-52.05,378.4;-52.05,378.4;-60.8,378.4;-60.8,378.4;-69.55,378.4;-69.55,378.4;-78.35,378.4;-78.35,378.4;-87.1,378.4;-87.1,378.4;-95.9,378.4;-95.9,378.4;-104.65,378.4;-104.65,378.4;-113.45,378.4;-113.45,378.4;-122.2,378.4;-122.2,378.4;-131,378.4;-131,378.4;-139.75,378.4;-139.75,378.4;-148.55,378.4;-148.55,378.4;-157.3,378.4;-157.3,378.4;-166.1,378.4;-166.1,378.4;-174.85,378.4;-174.85,378.4;-183.65,378.4;-183.65,378.4;-192.4,378.4;-192.4,378.4;-201.2,378.4;-201.2,378.4;-209.95,378.4;-209.95,378.4;-218.75,378.4;-218.75,378.4;-227.5,378.4;-227.5,378.4;-236.3,378.4;-236.3,378.4;-245.05,378.4;-245.05,378.4;-253.8,378.4;-253.8,378.4;-262.6,378.4;-262.6,378.4;-271.35,378.4;-271.35,378.4;-280.15,378.4;-280.15,378.4;-288.9,378.4;-288.9,378.4;-297.7,378.4;-297.7,378.4;-306.45,378.4;-306.45,378.4;-315.25,378.4;-315.25,378.4;-324,378.4;-324,378.4;-332.8,378.4;-332.8,378.4;-341.55,378.4;-341.55,378.4;-350.35,378.4;-350.35,378.4;-359.1,378.4;-359.1,378.4;-367.85,378.4;-367.85,378.4;-376.65,378.4;-376.65,378.4;-385.4,378.4;-385.4,378.4;-394.2,378.4;-394.2,378.4" calcMode="discrete"/></use></g><g mask="url(#c)"><use xlink:href="#d" transform="translate(1274.3 378.4)"><animateTransform attributeName="transform" additive="replace" type="translate" repeatCount="indefinite" dur="4s" keyTimes="0;.00999;.01;.02099;.021;.03099;.031;.04199;.042;.05199;.052;.06299;.063;.07299;.073;.08299;.083;.09399;.094;.10399;.104;.11499;.115;.12499;.125;.13499;.135;.14599;.146;.15599;.156;.16699;.167;.17699;.177;.18799;.188;.19799;.198;.20799;.208;.21899;.219;.22899;.229;.23999;.24;.24999;.25;.25999;.26;.27099;.271;.28099;.281;.29199;.292;.30199;.302;.31299;.313;.32299;.323;.33299;.333;.34399;.344;.35399;.354;.36499;.365;.37499;.375;.38499;.385;.39599;.396;.40599;.406;.41699;.417;.42699;.427;.43799;.438;.44799;.448;.45799;.458;.46899;.469;.47899;.479;.48999;.49;.49999;.5;.50999;.51;.52099;.521;.53099;.531;.54199;.542;.55199;.552;.56299;.563;.57299;.573;.58299;.583;.59399;.594;.60399;.604;.61499;.615;.62499;.625;.63499;.635;.64599;.646;.65599;.656;.66699;.667;.67699;.677;.68799;.688;.69799;.698;.70799;.708;.71899;.719;.72899;.729;.73999;.74;.74999;.75;.75999;.76;.77099;.771;.78099;.781;.79199;.792;.80199;.802;.81299;.813;.82299;.823;.83299;.833;.84399;.844;.85399;.854;.86499;.865;.87499;.875;.88499;.885;.89599;.896;.90599;.906;.91699;.917;.92699;.927;.93799;.938;.94799;.948;.95799;.958;.96899;.969;.97899;.979;.98999;.99;1" values="1274.25,378.4;1274.25,378.4;1265.45,378.4;1265.45,378.4;1256.65,378.4;1256.65,378.4;1247.9,378.4;1247.9,378.4;1239.1,378.4;1239.1,378.4;1230.3,378.4;1230.3,378.4;1221.5,378.4;1221.5,378.4;1212.75,378.4;1212.75,378.4;1203.95,378.4;1203.95,378.4;1195.15,378.4;1195.15,378.4;1186.35,378.4;1186.35,378.4;1177.6,378.4;1177.6,378.4;1168.8,378.4;1168.8,378.4;1160,378.4;1160,378.4;1151.2,378.4;1151.2,378.4;1142.4,378.4;1142.4,378.4;1133.6,378.4;1133.6,378.4;1124.85,378.4;1124.85,378.4;1116.05,378.4;1116.05,378.4;1107.25,378.4;1107.25,378.4;1098.5,378.4;1098.5,378.4;1089.7,378.4;1089.7,378.4;1080.9,378.4;1080.9,378.4;1072.1,378.4;1072.1,378.4;1063.3,378.4;1063.3,378.4;1054.55,378.4;1054.55,378.4;1045.75,378.4;1045.75,378.4;1036.95,378.4;1036.95,378.4;1028.15,378.4;1028.15,378.4;1019.35,378.4;1019.35,378.4;1010.6,378.4;1010.6,378.4;1001.8,378.4;1001.8,378.4;993,378.4;993,378.4;984.2,378.4;984.2,378.4;975.45,378.4;975.45,378.4;966.65,378.4;966.65,378.4;957.85,378.4;957.85,378.4;949.05,378.4;949.05,378.4;940.3,378.4;940.3,378.4;931.5,378.4;931.5,378.4;922.7,378.4;922.7,378.4;913.9,378.4;913.9,378.4;905.1,378.4;905.1,378.4;896.3,378.4;896.3,378.4;887.55,378.4;887.55,378.4;878.75,378.4;878.75,378.4;869.95,378.4;869.95,378.4;861.15,378.4;861.15,378.4;852.4,378.4;852.4,378.4;843.6,378.4;843.6,378.4;834.8,378.4;834.8,378.4;826,378.4;826,378.4;817.25,378.4;817.25,378.4;808.45,378.4;808.45,378.4;799.65,378.4;799.65,378.4;790.85,378.4;790.85,378.4;782.05,378.4;782.05,378.4;773.25,378.4;773.25,378.4;764.5,378.4;764.5,378.4;755.7,378.4;755.7,378.4;746.9,378.4;746.9,378.4;738.1,378.4;738.1,378.4;729.35,378.4;729.35,378.4;720.55,378.4;720.55,378.4;711.75,378.4;711.75,378.4;702.95,378.4;702.95,378.4;694.2,378.4;694.2,378.4;685.4,378.4;685.4,378.4;676.6,378.4;676.6,378.4;667.8,378.4;667.8,378.4;659,378.4;659,378.4;650.25,378.4;650.25,378.4;641.45,378.4;641.45,378.4;632.65,378.4;632.65,378.4;623.85,378.4;623.85,378.4;615.1,378.4;615.1,378.4;606.3,378.4;606.3,378.4;597.5,378.4;597.5,378.4;588.7,378.4;588.7,378.4;579.95,378.4;579.95,378.4;571.15,378.4;571.15,378.4;562.35,378.4;562.35,378.4;553.55,378.4;553.55,378.4;544.75,378.4;544.75,378.4;535.95,378.4;535.95,378.4;527.2,378.4;527.2,378.4;518.4,378.4;518.4,378.4;509.6,378.4;509.6,378.4;500.8,378.4;500.8,378.4;492.05,378.4;492.05,378.4;483.25,378.4;483.25,378.4;474.45,378.4;474.45,378.4;465.65,378.4;465.65,378.4;456.9,378.4;456.9,378.4;448.1,378.4;448.1,378.4;439.3,378.4;439.3,378.4" calcMode="discrete"/></use></g><mask id="c"><path fill="#FFF" d="M416.1 156.3Q377.3 140 335 140q-42.4 0-81.2 16.4-37.5 15.9-66.4 44.8-28.9 28.8-44.7 66.3-16.4 38.8-16.4 81.3 0 42.4 16.4 81.2 15.8 37.5 44.7 66.3 28.9 28.9 66.3 44.8 38.8 16.4 81.3 16.4t81.3-16.4q37.4-15.9 66.3-44.8 28.9-28.8 44.7-66.3 16.4-38.8 16.4-81.3 0-42.4-16.4-81.2-15.9-37.4-44.8-66.3-28.8-28.9-66.3-44.8z"/></mask><path fill="#1A344F" d="M417 154.2q-39.3-16.6-82.1-16.6t-82 16.6q-37.9 16-67.2 45.3-29.2 29.3-45.3 67.1-16.6 39.2-16.6 82 0 42.9 16.6 82.1 16.1 37.9 45.3 67.1Q215 527 253 543.1q39.2 16.6 82 16.6 42.9 0 82-16.6 37.9-16 67.2-45.3 29.2-29.3 45.3-67.1 16.6-39.2 16.6-82 0-42.9-16.6-82.1-16.1-37.9-45.3-67.1-29.3-29.3-67.2-45.3m-82-12q41.9 0 80.3 16.3 37 15.7 65.6 44.3 28.6 28.5 44.2 65.6 16.3 38.4 16.3 80.3T525 428.8q-15.6 37-44.2 65.7-28.6 28.5-65.7 44.2-38.3 16.3-80.2 16.3-41.9 0-80.2-16.3-37.1-15.7-65.6-44.2-28.7-28.7-44.3-65.7-16.3-38.3-16.3-80.3 0-41.9 16.3-80.2 15.6-37 44.3-65.6 28.5-28.6 65.6-44.3 38.3-16.3 80.2-16.3z"/><path fill="#063F88" fill-opacity=".1" d="M201.2 188.1h.5q-35.3 29.3-55 70.5-20.4 42.5-20.4 90.1 0 42.4 16.4 81.3 15.8 37.4 44.7 66.3 28.8 28.8 66.3 44.7 38.8 16.4 81.3 16.4 43.1 0 82.5-17 38-16.4 67-46.1-34 21-73.4 28-18.5 3.3-36.8 3.3-33.6 0-65.2-10.4-48-15.7-83.7-51.8-35.7-36.1-50.8-84.3-9.6-30.5-9.6-62.9 0-18.4 3.1-36.1 4.4-25.1 14.7-48.3 10-22.8 25.1-42.6 6-7.9 12.8-15.2l2.3-2.3q-12.3 7.7-21.8 16.4z"/><g mask="url(#e)"><g display="none"><use xlink:href="#b" transform="translate(-160.9 301.1)"><animateTransform attributeName="transform" additive="replace" type="translate" repeatCount="indefinite" dur="4s" keyTimes="0;.56299;.563;.57299;.573;.58299;.583;.59399;.594;.60399;.604;.61499;.615;.62499;.625;.63499;.635;.64599;.646;.65599;.656;.66699;.667;.67699;.677;.68799;.688;.69799;.698;.70799;.708;.71899;.719;.72899;.729;.73999;.74;.74999;.75;.75999;.76;.77099;.771;.78099;.781;.79199;.792;.80199;.802;.81299;.813;.82299;.823;.83299;.833;.84399;.844;.85399;.854;.86499;.865;.87499;.875;.88499;.885;1" values="-160.9,301.1;-160.9,301.1;-125.45,301.1;-125.45,301.1;-90,301.1;-90,301.1;-54.5,301.1;-54.5,301.1;-19.05,301.1;-19.05,301.1;16.4,301.1;16.4,301.1;51.85,301.1;51.85,301.1;85.5,301.1;85.5,301.1;115.6,301.1;115.6,301.1;142.2,301.1;142.2,301.1;165.25,301.1;165.25,301.1;184.7,301.1;184.7,301.1;200.65,301.1;200.65,301.1;213.05,301.1;213.05,301.1;221.9,301.1;221.9,301.1;227.25,301.1;227.25,301.1;229,301.1;229,301.1;230.75,301.1;230.75,301.1;236.1,301.1;236.1,301.1;244.95,301.1;244.95,301.1;257.35,301.1;257.35,301.1;273.3,301.1;273.3,301.1;292.75,301.1;292.75,301.1;315.8,301.1;315.8,301.1;342.4,301.1;342.4,301.1;372.5,301.1;372.5,301.1;406.15,301.1;406.15,301.1;441.6,301.1;441.6,301.1;477.05,301.1;477.05,301.1;512.55,301.1;512.55,301.1;548,301.1;548,301.1;583.45,301.1;583.45,301.1;618.9,301.1;618.9,301.1" calcMode="discrete"/></use><animate attributeName="display" repeatCount="indefinite" dur="4s" keyTimes="0;.552;1" values="none;inline;inline"/></g><g display="none"><use xlink:href="#b" transform="translate(-160.9 301.1)"><animateTransform attributeName="transform" additive="replace" type="translate" repeatCount="indefinite" dur="4s" keyTimes="0;.06299;.063;.07299;.073;.08299;.083;.09399;.094;.10399;.104;.11499;.115;.12499;.125;.13499;.135;.14599;.146;.15599;.156;.16699;.167;.17699;.177;.18799;.188;.19799;.198;.20799;.208;.21899;.219;.22899;.229;.23999;.24;.24999;.25;.25999;.26;.27099;.271;.28099;.281;.29199;.292;.30199;.302;.31299;.313;.32299;.323;.33299;.333;.34399;.344;.35399;.354;.36499;.365;.37499;.375;.38499;.385;1" values="-160.9,301.1;-160.9,301.1;-125.45,301.1;-125.45,301.1;-90,301.1;-90,301.1;-54.5,301.1;-54.5,301.1;-19.05,301.1;-19.05,301.1;16.4,301.1;16.4,301.1;51.85,301.1;51.85,301.1;85.5,301.1;85.5,301.1;115.6,301.1;115.6,301.1;142.2,301.1;142.2,301.1;165.25,301.1;165.25,301.1;184.7,301.1;184.7,301.1;200.65,301.1;200.65,301.1;213.05,301.1;213.05,301.1;221.9,301.1;221.9,301.1;227.25,301.1;227.25,301.1;229,301.1;229,301.1;230.75,301.1;230.75,301.1;236.1,301.1;236.1,301.1;244.95,301.1;244.95,301.1;257.35,301.1;257.35,301.1;273.3,301.1;273.3,301.1;292.75,301.1;292.75,301.1;315.8,301.1;315.8,301.1;342.4,301.1;342.4,301.1;372.5,301.1;372.5,301.1;406.15,301.1;406.15,301.1;441.6,301.1;441.6,301.1;477.05,301.1;477.05,301.1;512.55,301.1;512.55,301.1;548,301.1;548,301.1;583.45,301.1;583.45,301.1;618.9,301.1;618.9,301.1" calcMode="discrete"/></use><animate attributeName="display" repeatCount="indefinite" dur="4s" keyTimes="0;.052;.5;1" values="none;inline;none;none"/></g></g><mask id="e"><path fill="#FFF" d="M619 261.2H51.9v222h567v-222z"/></mask><g display="none"><path fill="#4B4B4B" d="M618.8 301.2h-4.6v129.3h4.6V301.2z"/><animate attributeName="display" repeatCount="indefinite" dur="4s" keyTimes="0;.385;.396;.885;.896;1" values="none;inline;none;inline;none;none"/></g><g display="none"><path fill="#4B4B4B" d="M619.2 301.2h-4.6v129.3h4.7l-.1-129.3z"/><animate attributeName="display" repeatCount="indefinite" dur="4s" keyTimes="0;.323;.385;.823;.885;1" values="none;inline;none;inline;none;none"/></g><g display="none"><path fill="#4B4B4B" d="M56.3 301.2h-4.6v129.3h4.6V301.2z"/><animate attributeName="display" repeatCount="indefinite" dur="4s" keyTimes="0;.115;.125;.552;.625;1" values="none;inline;none;inline;none;none"/></g><g display="none"><path fill="#4B4B4B" d="M56.2 301.1h-4.6v129.3h4.7l-.1-129.3z"/><animate attributeName="display" repeatCount="indefinite" dur="4s" keyTimes="0;.052;.115;1" values="none;inline;none;none"/></g><g transform="translate(364.9 262)"><animateTransform attributeName="transform" additive="replace" type="translate" repeatCount="indefinite" dur="4s" keyTimes="0;.00999;.01;.02099;.021;.03099;.031;.04199;.042;.05199;.052;.06299;.063;.07299;.073;.08299;.083;.09399;.094;.10399;.104;.11499;.115;.12499;.125;.13499;.135;.14599;.146;.15599;.156;.16699;.167;.17699;.177;.18799;.188;.19799;.198;.20799;.208;.21899;.219;.22899;.229;.23999;.24;.24999;.25;.25999;.26;.27099;.271;.28099;.281;.29199;.292;.30199;.302;.31299;.313;.32299;.323;.33299;.333;.34399;.344;.35399;.354;.36499;.365;.37499;.375;.38499;.385;.39599;.396;.40599;.406;.41699;.417;.42699;.427;.43799;.438;.44799;.448;.45799;.458;.46899;.469;.47899;.479;.48999;.49;.49999;.5;.50999;.51;.52099;.521;.53099;.531;.54199;.542;.55199;.552;.56299;.563;.57299;.573;.58299;.583;.59399;.594;.60399;.604;.61499;.615;.62499;.625;.63499;.635;.64599;.646;.65599;.656;.66699;.667;.67699;.677;.68799;.688;.69799;.698;.70799;.708;.71899;.719;.72899;.729;.73999;.74;.74999;.75;.75999;.76;.77099;.771;.78099;.781;.79199;.792;.80199;.802;.81299;.813;.82299;.823;.83299;.833;.84399;.844;.85399;.854;.86499;.865;.87499;.875;.88499;.885;.89599;.896;.90599;.906;.91699;.917;.92699;.927;.93799;.938;.94799;.948;.95799;.958;.96899;.969;.97899;.979;.98999;.99;1" values="364.9,261.95;364.9,261.95;366.45,261.95;366.45,261.95;368.15,261.95;368.15,261.95;370,261.95;370,261.95;372.05,261.95;372.05,261.95;374.25,261.95;374.25,261.95;376.55,261.95;376.55,261.95;379.05,261.95;379.05,261.95;381.65,261.95;381.65,261.95;384.4,261.95;384.4,261.95;387.3,261.95;387.3,261.95;390.3,261.95;390.3,261.95;393.4,261.95;393.4,261.95;396.65,261.95;396.65,261.95;399.95,261.95;399.95,261.95;403.4,261.95;403.4,261.95;406.9,261.95;406.9,261.95;410.5,261.95;410.5,261.95;414.15,261.95;414.15,261.95;417.9,261.95;417.9,261.95;421.7,261.95;421.7,261.95;425.55,261.95;425.55,261.95;429.4,261.95;429.4,261.95;433.3,261.95;433.3,261.95;437.25,261.95;437.25,261.95;441.2,261.95;441.2,261.95;445.15,261.95;445.15,261.95;449.1,261.95;449.1,261.95;453,261.95;453,261.95;456.9,261.95;456.9,261.95;460.75,261.95;460.75,261.95;464.55,261.95;464.55,261.95;468.35,261.95;468.35,261.95;472,261.95;472,261.95;475.65,261.95;475.65,261.95;479.15,261.95;479.15,261.95;482.6,261.95;482.6,261.95;485.9,261.95;485.9,261.95;489.1,261.95;489.1,261.95;492.2,261.95;492.2,261.95;495.15,261.95;495.15,261.95;497.95,261.95;497.95,261.95;500.55,261.95;500.55,261.95;503.05,261.95;503.05,261.95;505.35,261.95;505.35,261.95;507.45,261.95;507.45,261.95;509.4,261.95;509.4,261.95;511.1,261.95;511.1,261.95;509.6,261.95;509.6,261.95;507.95,261.95;507.95,261.95;506.1,261.95;506.1,261.95;504.15,261.95;504.15,261.95;502,261.95;502,261.95;499.75,261.95;499.75,261.95;497.35,261.95;497.35,261.95;494.8,261.95;494.8,261.95;492.1,261.95;492.1,261.95;489.3,261.95;489.3,261.95;486.4,261.95;486.4,261.95;483.4,261.95;483.4,261.95;480.25,261.95;480.25,261.95;477,261.95;477,261.95;473.7,261.95;473.7,261.95;470.3,261.95;470.3,261.95;466.8,261.95;466.8,261.95;463.2,261.95;463.2,261.95;459.6,261.95;459.6,261.95;455.9,261.95;455.9,261.95;452.15,261.95;452.15,261.95;448.35,261.95;448.35,261.95;444.55,261.95;444.55,261.95;440.7,261.95;440.7,261.95;436.85,261.95;436.85,261.95;433,261.95;433,261.95;429.15,261.95;429.15,261.95;425.3,261.95;425.3,261.95;421.45,261.95;421.45,261.95;417.65,261.95;417.65,261.95;413.9,261.95;413.9,261.95;410.15,261.95;410.15,261.95;406.5,261.95;406.5,261.95;402.9,261.95;402.9,261.95;399.4,261.95;399.4,261.95;396,261.95;396,261.95;392.65,261.95;392.65,261.95;389.4,261.95;389.4,261.95;386.3,261.95;386.3,261.95;383.3,261.95;383.3,261.95;380.45,261.95;380.45,261.95;377.75,261.95;377.75,261.95;375.15,261.95;375.15,261.95;372.75,261.95;372.75,261.95;370.5,261.95;370.5,261.95;368.45,261.95;368.45,261.95;366.6,261.95;366.6,261.95;364.9,261.95;364.9,261.95" calcMode="discrete"/><path fill="#FFF" d="M68.5-5.4q2.2-2.9 5.6-4h28.2q4.6 0 7.8-3.2 3.3-3.2 3.3-7.8t-3.3-7.8q-3.2-3.3-7.8-3.3H-12.4q-4.5 0-7.8 3.3-3.2 3.2-3.2 7.8t3.2 7.8q3.3 3.3 7.8 3.3h9q3.4 1 5.6 3.9 2.2 3 2.2 6.6 0 3.6-2.2 6.6-2.2 2.9-5.6 4H-57q-4.5 0-7.8 3.2-3.3 3.3-3.3 7.8 0 4.6 3.3 7.8t7.8 3.2H87.6q4.6 0 7.8-3.2 3.3-3.3 3.3-7.8 0-4.6-3.3-7.8-3.2-3.3-7.8-3.3H74.1q-3.4-1-5.5-3.9-2.3-3-2.3-6.6 0-3.7 2.3-6.6z"/><path stroke="#1A344F" stroke-width="3.6" stroke-miterlimit="10" fill="none" d="M102.3-31.4H-12.4q-4.5 0-7.8 3.2-3.2 3.2-3.2 7.8t3.2 7.8q3.3 3.3 7.8 3.3h9q3.4 1 5.6 3.9 2.2 3 2.2 6.6 0 3.6-2.2 6.6-2.2 2.9-5.6 4H-57q-4.5 0-7.8 3.2-3.3 3.3-3.3 7.8 0 4.6 3.3 7.8t7.8 3.2H87.6q4.6 0 7.8-3.2 3.3-3.3 3.3-7.8 0-4.6-3.3-7.8-3.2-3.3-7.8-3.3H74.1q-3.4-1-5.5-3.9-2.3-3-2.3-6.6 0-3.7 2.3-6.6 2.1-2.9 5.5-4h28.2q4.6 0 7.8-3.2 3.3-3.2 3.3-7.8t-3.3-7.8q-3.2-3.3-7.8-3.3z"/><path fill="#FFF" d="M-98.8 30.6q3.5 3.4 8.3 3.4 4.9 0 8.3-3.4 3.5-3.5 3.5-8.4 0-4.8-3.5-8.3-3.4-3.5-8.3-3.5-4.8 0-8.3 3.5-3.5 3.5-3.5 8.3 0 5 3.5 8.4z"/><path stroke="#1A344F" stroke-width="3.6" stroke-miterlimit="10" fill="none" d="M-78.7 22.3q0 4.8-3.5 8.3-3.4 3.4-8.3 3.4-4.8 0-8.3-3.4-3.5-3.5-3.5-8.4 0-4.8 3.5-8.3 3.5-3.5 8.3-3.5 4.9 0 8.3 3.5 3.5 3.5 3.5 8.3z"/></g><g transform="translate(248.6 470.9)"><animateTransform attributeName="transform" additive="replace" type="translate" repeatCount="indefinite" dur="4s" keyTimes="0;.00999;.01;.02099;.021;.03099;.031;.04199;.042;.05199;.052;.06299;.063;.07299;.073;.08299;.083;.09399;.094;.10399;.104;.11499;.115;.12499;.125;.13499;.135;.14599;.146;.15599;.156;.16699;.167;.17699;.177;.18799;.188;.19799;.198;.20799;.208;.21899;.219;.22899;.229;.23999;.24;.24999;.25;.25999;.26;.27099;.271;.28099;.281;.29199;.292;.30199;.302;.31299;.313;.32299;.323;.33299;.333;.34399;.344;.35399;.354;.36499;.365;.37499;.375;.38499;.385;.39599;.396;.40599;.406;.41699;.417;.42699;.427;.43799;.438;.44799;.448;.45799;.458;.46899;.469;.47899;.479;.48999;.49;.49999;.5;.50999;.51;.52099;.521;.53099;.531;.54199;.542;.55199;.552;.56299;.563;.57299;.573;.58299;.583;.59399;.594;.60399;.604;.61499;.615;.62499;.625;.63499;.635;.64599;.646;.65599;.656;.66699;.667;.67699;.677;.68799;.688;.69799;.698;.70799;.708;.71899;.719;.72899;.729;.73999;.74;.74999;.75;.75999;.76;.77099;.771;.78099;.781;.79199;.792;.80199;.802;.81299;.813;.82299;.823;.83299;.833;.84399;.844;.85399;.854;.86499;.865;.87499;.875;.88499;.885;.89599;.896;.90599;.906;.91699;.917;.92699;.927;.93799;.938;.94799;.948;.95799;.958;.96899;.969;.97899;.979;.98999;.99;1" values="248.55,470.9;248.55,470.9;247.3,470.9;247.3,470.9;245.85,470.95;245.85,470.95;244.35,470.95;244.35,470.95;242.65,471;242.65,471;240.85,471;240.85,471;238.9,471;238.9,471;236.9,471.05;236.9,471.05;234.7,471.1;234.7,471.1;232.45,471.1;232.45,471.1;230.05,471.15;230.05,471.15;227.6,471.15;227.6,471.15;225,471.2;225,471.2;222.35,471.25;222.35,471.25;219.6,471.25;219.6,471.25;216.8,471.3;216.8,471.3;213.9,471.35;213.9,471.35;210.9,471.4;210.9,471.4;207.9,471.4;207.9,471.4;204.8,471.45;204.8,471.45;201.7,471.5;201.7,471.5;198.5,471.55;198.5,471.55;195.3,471.6;195.3,471.6;192.1,471.65;192.1,471.65;188.85,471.65;188.85,471.65;185.6,471.7;185.6,471.7;182.35,471.75;182.35,471.75;179.1,471.8;179.1,471.8;175.85,471.85;175.85,471.85;172.65,471.9;172.65,471.9;169.45,471.9;169.45,471.9;166.3,471.95;166.3,471.95;163.2,472;163.2,472;160.15,472.05;160.15,472.05;157.15,472.05;157.15,472.05;154.25,472.1;154.25,472.1;151.45,472.15;151.45,472.15;148.7,472.2;148.7,472.2;146.05,472.2;146.05,472.2;143.5,472.25;143.5,472.25;141.05,472.3;141.05,472.3;138.75,472.3;138.75,472.3;136.6,472.35;136.6,472.35;134.55,472.35;134.55,472.35;132.65,472.4;132.65,472.4;130.9,472.4;130.9,472.4;129.3,472.45;129.3,472.45;127.9,472.45;127.9,472.45;129.15,472.45;129.15,472.45;130.5,472.4;130.5,472.4;132.05,472.4;132.05,472.4;133.65,472.4;133.65,472.4;135.4,472.35;135.4,472.35;137.3,472.35;137.3,472.35;139.25,472.3;139.25,472.3;141.35,472.3;141.35,472.3;143.55,472.25;143.55,472.25;145.85,472.2;145.85,472.2;148.3,472.2;148.3,472.2;150.75,472.15;150.75,472.15;153.35,472.1;153.35,472.1;156.05,472.1;156.05,472.1;158.75,472.05;158.75,472.05;161.6,472;161.6,472;164.45,472;164.45,472;167.4,471.95;167.4,471.95;170.4,471.9;170.4,471.9;173.45,471.85;173.45,471.85;176.55,471.8;176.55,471.8;179.65,471.8;179.65,471.8;182.8,471.75;182.8,471.75;186,471.7;186,471.7;189.15,471.65;189.15,471.65;192.35,471.6;192.35,471.6;195.55,471.6;195.55,471.6;198.7,471.55;198.7,471.55;201.9,471.5;201.9,471.5;205,471.45;205,471.45;208.1,471.4;208.1,471.4;211.2,471.4;211.2,471.4;214.2,471.35;214.2,471.35;217.15,471.3;217.15,471.3;220.1,471.25;220.1,471.25;222.9,471.25;222.9,471.25;225.65,471.2;225.65,471.2;228.3,471.15;228.3,471.15;230.9,471.15;230.9,471.15;233.35,471.1;233.35,471.1;235.7,471.05;235.7,471.05;237.95,471.05;237.95,471.05;240.1,471;240.1,471;242.05,471;242.05,471;243.9,470.95;243.9,470.95;245.6,470.95;245.6,470.95;247.15,470.9;247.15,470.9;248.55,470.9;248.55,470.9" calcMode="discrete"/><path fill="#FFF" d="M21.1-1.9Q23-4.4 26-5.3h7.9q4 0 6.8-2.9 2.8-2.8 2.8-6.8t-2.8-6.9q-2.9-2.8-6.9-2.8H-66.7q-4 0-6.8 2.8-2.9 2.9-2.9 6.9t2.9 6.8q2.8 2.8 6.8 2.8H-42q3 1 4.9 3.5 2 2.6 2 5.8 0 3.3-2 5.8-1.9 2.6-4.9 3.5h-11.9q-4 0-6.8 2.8-2.8 2.9-2.8 6.9t2.8 6.8q2.9 2.8 6.9 2.8H73q4 0 6.8-2.8 2.9-2.8 2.9-6.8T79.8 16Q77 13.2 73 13.2H26q-3-1-4.9-3.5-2-2.5-2-5.8 0-3.2 2-5.8z"/><path stroke="#1A344F" stroke-width="3.6" stroke-miterlimit="10" fill="none" d="M-66.7-24.7H33.9q4 0 6.8 2.8 2.8 2.9 2.8 6.9t-2.8 6.8q-2.9 2.8-6.9 2.8H26q-3 1-4.9 3.5-2 2.6-2 5.8 0 3.3 2 5.8 1.9 2.6 4.9 3.5h47q4 0 6.8 2.8 2.9 2.9 2.9 6.9t-2.9 6.8Q77 32.5 73 32.5H-53.8q-4 0-6.9-2.8-2.8-2.8-2.8-6.8t2.8-6.9q2.9-2.8 6.9-2.8H-42q3-1 4.9-3.5 2-2.5 2-5.8 0-3.2-2-5.8Q-39-4.4-42-5.3h-24.7q-4 0-6.8-2.9-2.9-2.8-2.9-6.8t2.9-6.9q2.8-2.8 6.8-2.8z"/></g></g></svg>