<svg image-rendering="optimizeSpeed" baseProfile="basic" width="500" height="500" xmlns="http://www.w3.org/2000/svg" viewBox="0 0 500 500"><g overflow="visible"><g display="none" transform="translate(275 200)"><path fill="#414042" d="M-16.1 135.6q4.9-2.3 8.8-5.4l-1.5-1.9q-4.7 3.6-10.4 5.8-9.5 3.8-18.8 2-4-.8-7.8-2.5-3.8-2-7-4.7l-1.6 1.9q3.6 3 7.5 5 4.1 1.8 8.4 2.6l6.6.7q8 0 15.8-3.5m-81.4-18.2l-.8-1-12.8 11.3.7.9 12.9-11.2m-23 0q.8-1.8 1.1-3.4.6-3.1-.8-4.9-1.7-2.2-5.8-2-4.3.4-8.7 3.4-1.6-1.1-3.5-1.4l-3.7-.1q-1.8.3-3.2 1.2-1.5.8-2.4 2.1-1 1.4-1.2 3.3-.3 1.9.3 3.8.5 1.8 1.6 3.4 1.3 1.6 3 2.5-1 2.9-.6 5.6.3 2.8 1.8 4.8 1.8 2.4 4.8 3.3l6.3.2q-1.2 2.2-1.3 4.7-.1 2.1.6 3.9.6 1.8 1.9 3 1 .9 2.5 1.4l3.1.6h.7q2.1-.2 4-1.1 2.2-1 3.8-2.5l3.5.5q2.5 0 4.8-1.3 3.2-1.8 4.4-5.6 1.1-3.6-.5-7-1.7-3.4-5.3-5-3.1-1.4-6.4-.4l-.5.2.7 2.3 5.3.2q2.8 1 3.9 3.7 1.3 2.7.2 5.5-1 2.8-3.2 4-1.9 1.2-4.5 1l-2.4-.7-.8-.3-.5.6q-1.4 1.5-3 2.3-1.8 1-3.8 1l-2.5-.2q-1.1-.3-1.9-1-.8-.9-1.3-2.2-.4-1.3-.3-2.8.1-2 1-3.8 1-2 2.7-3.3l-1.5-1.9q-3.3 2.3-7.2 2-3.5-.4-5.4-2.8-1.3-1.7-1.4-4.1-.2-2.4.9-4.8l.5-1.1-1.2-.4q-1.5-.8-2.7-2.1-1-1.4-1.6-3-.3-1.4 0-2.7 0-1.3.7-2.3.6-.8 1.7-1.5 1-.6 2.4-.8l3.1.2q1.6.4 2.9 1.4l.7.5.8-.5q3.7-2.8 7.4-3.3 3.2-.5 4.3 1 .8.9.4 2.9l-1 3 2 1.1.3-.3m32.3-10.9l-.8-1-17 11.5-7.5 5.5-5 4 .8 1 4.4-3.5q4-3.2 8-6.1 8.5-6 17-11.4m-8.2-2.5l-.7-1q-7.8 5.5-14.8 11.3l-4.8 4-3.4 3 .8 1 3.8-3.3 4.4-3.8q7.2-6 14.8-11.3m-55.1-49.5q1.3-2.6 3-4.9l-2-1.5q-2 2.5-3.2 5.4-1.9 4.3-2 8.9-.1 6.7 3.3 12.5 2.2 3.7 5.1 6.2l1.7-1.8q-2.7-2.4-4.6-5.5-3.2-5.5-3-11.4 0-4 1.7-7.8m42.7-31l.8-.9-8.8-8-.8 1 8.8 8m45.6-41.9q10-2.2 20.4.6 6.8 1.8 12.5 5.3l1.3-2q-6.1-3.7-13.2-5.7-11-3-21.5-.6-9 2-16.5 7.6l1.5 1.9q7.1-5.1 15.5-7.1m-58.7 29l-7.9-6.8-4.6-4-.8.8 4.5 4 8 7 .8-1m7 16.1l.8-.9-19.7-18.5-.6-.6-.8 1 .3.2 20 18.8M-126.5-.7L-128-2l-1-.6-.7 1 2.5 2 10.9 8.8q4.6 4.5 9.1 9.4l.9-.9q-4.4-5-9.2-9.4l-11-9m1.5-28.9q-1.7 1.3-2.8 3.3-3.8-1.8-7.9-1.1-4 .7-6.4 3.8-2.5 3-2 7.6-2.3-1.1-4.9-1.1-2.5 0-4.4 1.2-1.5 1-2.6 2.6-1.2 1.7-1.4 3.8-.5 2.4.2 4.7.4 2.4 2 4.4-.4 4.2 1.8 7.7 2.3 3.5 5.9 4.4l2.2.3q2.5 0 5-1.3l2.4-1.6-.3-.3-1.4-1.6-2.3 1.5q-2.7 1.3-5 .7-2.8-.8-4.6-3.7-1.7-2.9-1.3-6.3l.2-.5-.3-.4q-1.4-1.7-2-3.7-.5-1.9-.2-3.9.3-1.6 1.1-2.8.7-1.3 1.9-1.9 1.8-1.1 4.4-.8 2.5.5 4.6 2.2l3.4 3-1.5-4.4q-.5-1.3-.6-3 0-3.2 1.7-5.4 1.9-2.5 5.5-3 3.5-.3 6.7 1.6l1.2.8.5-1.3q.6-1.3 1.7-2.5 2-2.5 4.5-2.8 1.5-.2 2.8.4 1.4.5 2.6 1.6 1.7 1.3 2.6 3.4 1.1 2.1 1.2 4.6l.1.1.3 3.1q-.1 2.7-1.4 4.7-1.9 2.6-5.3 3.5-3.5 1-6.9-.3l-.8 2.4h.3l8.3.3q4-1.2 6.4-4.6 1.6-2.5 1.8-5.7.2-2-.3-3.9-.3-2.8-1.5-5.3t-3.2-4.3q-1.6-1.3-3.5-1.9-1.8-.6-3.7-.6-2.5.3-4.8 2.3m176.6 155l-.3.4 2.4.9q.9-2.2 3.1-3.1 2.2-1 4.3 0 2.1.8 3 2.9 1 2.1.3 4.3l-.4.8 1 .6q1.8 1 2.9 2.7 1 1.8.8 3.3 0 1.1-.7 2l-1.7 1.9q-1.5.9-3.3 1.3l-3.8-.2-2-.4.5 1.8q.6 2.5 0 4.8-.7 2.3-2.4 3.7-2.4 1.8-5.5 1.3-3.3-.4-5.5-2.8l-2.4-2.8.2 3.6q.3 3-1.5 5.4-1.6 2.4-4.4 2.8l-2.7-.2q-1.4-.5-2.6-1.5-1.4-1.2-2.1-2.7-.7-1.7-.7-3.3v-.6l-.4-.4q-1.6-1.5-2.4-3.5-.8-1.8-.7-4 .1-1.3.6-2.6.6-1.2 1.5-1.9 1.6-1.1 4-.8 2.5.3 4.7 1.9l1.5-1.9-.9-.7q-2.5-1.5-5.4-1.8-3.2-.3-5.5 1.5-1.3.9-2.1 2.6-.9 1.7-1 3.7 0 2.4.9 4.8 1 2.3 2.8 4.2 0 2 1 4 .9 2 2.6 3.3 1.3 1.2 3 1.8l3.1.6 1.3-.1q2.9-.4 5-2.7 2.2-2.2 2.7-5.4 3 2 6.3 2.2 3.5 0 6.1-2 2-1.7 2.9-4.2 1-2.3.8-5l3.8-.4q1.8-.4 3.4-1.4 1.5-1.1 2.4-2.6 1-1.4 1.2-3 .2-2.2-1-4.3-1.1-2.1-3.3-3.6.6-3-.8-5.5-1.5-2.7-4.2-3.8-3.1-1.3-6.1 0-3 1.3-4.3 4M83 6.5l-.7-1.2-13 7.8-9 5.2L58 15l7.5-4.8 3.7-2.5-.8-1L65 9.3 57.4 14l-2.1-2.6L63.9 6 73.3.2 72.6-1l-8.8 5.7-9.3 5.8Q47.4 3 37.6.3q-10.9-3.1-22 .6Q9 3.2 3.4 7.4q-6.5-5.6-14.7-8.9-13.8-5.6-27.2-2-8 2.1-14.8 7.3-5 3.8-8.8 8.8-3.5-4.3-8.1-7Q-75 3-80.3 2.3l-9.6.3q-4.6 1-8.3 3.7-5.2 3.9-7.6 10.4-2.5 6.5-1.5 13.9-4.7-1.4-9.4-1-4.8.4-8.8 2.5-3.4 1.8-5.7 4.4-2.2 2.6-2.9 5.5-1.2 5.4 2.7 11.4 4.1 6.3 11.7 9.3-3.5 9.4-.8 19.1 2.9 9.7 10.9 15.6 7.5 5.5 17 5.6 9.4.1 17.3-5.2 5.1 8.3 13.6 12.7 8.6 4.5 17.9 3.8 9.1-.5 16.7-5.9 5.2-3.6 9-8.8 3.1 9.1 10.5 15.3 4.1 3.7 9.2 5.7 4.9 2 10.3 2.3l2 .1q5.3 0 10.2-1.6l8.4 7.9.9-1-7.9-7.3q2.4-.9 4.7-2.2l.7-.4 2.5 2.5 7.1 8.1 3.1 3.7 1-.8-3-3.7-7.4-8.1-2.2-2.3q3-2 5.5-4.4l2.6 3q3.9 4.4 6.8 9.4l1-.7q-2.9-5.1-6.8-9.6-1.3-1.6-2.8-3 2.4-2.5 4.4-5.5 4.7 1.6 9.6 1.3 5-.2 9.4-2.3 3.8-1.8 6.7-4.7l1.6-1.9.4 1q3.8-1.3 7.5-4.2 7.7-5.8 9.9-14.4 1.7-7.2-.8-14.7-1.2-3.4-3-6.1 1.8-4 2-8.6.1-9-6.3-15.8-6.3-6.8-15.5-7.6-1.2-5-3.5-9.5l9.8-5.7 12.4-7.2m-.2 56.9q1.1 2 2 4.5 2.3 6.6.7 13.2-2 7.8-8.9 13-2.6 2-5.2 3.3l1.2-2.7q1.8-4.9.5-10.4-1.2-5.5-4.8-10.1 7.5-2 12.5-8.1 1.1-1.3 2-2.7M62.9 31.7q8.5.3 14.4 6.3t5.8 14.2q-.1 7.3-5.3 12.9-5 5.6-12.6 6.7l-2.8.4 2 2q4.1 4.3 5.6 9.6t-.2 10q-1.1 3-3.5 5.5-2.5 2.5-5.8 4-4.1 2-8.8 2.1-4.7.1-9.2-1.6l-1.1-.3-.6 1q-4.6 7.7-12.3 11.8-7.8 4.3-16.4 3.7-10-.7-17.9-7.4-7.9-6.8-10.4-16.8l-.9-3.5-1.8 3.1q-2.5 4.3-6.8 8.2-8.1 7.1-18.3 7.8-9 .6-17-3.9-8.1-4.5-12.7-12.5l-.8-1.5-1.3 1-.4.3-.8.5q-6.7 4.6-14.8 4.7-9 .2-16.2-5-7.5-5.5-9.9-14.8-2.4-9.2 1.4-17.9l.6-1.4-1.5-.5q-7.1-2.4-11.2-8-3.7-5.1-2.7-9.9.6-2.3 2.5-4.4 1.8-2.1 4.6-3.6 4-2.1 8.9-2.3 4.7-.1 9.3 1.8l2.5 1-.5-2.6q-1.6-7 .5-13.6t7-10.3q3.2-2.3 7.3-3.3l8.5-.2q5.2.8 9.8 3.6 4.5 2.8 7.8 7.3l1.1 1.6 1.1-1.7q3.5-5 8.2-8.9 6.8-5.5 14.9-7.7 13.8-3.7 28 3.1 7.3 3.5 12.2 8l1 .9.9-.8 2.9-2.2q3.2-2.1 7-3.6Q25.6-.2 36.9 3 46.3 5.7 53 13.2q6.8 7.5 8.6 17.4l.2 1 1.2.1M-19.8 26q-9.6-.6-16.4 5-3.6 3-5.6 7.5-1.6 3.4-2.3 7.4-4.9-4.2-11.1-5.1-6.3-1-12.1 1.5-5.9 2.6-9.5 8-3.6 5.4-3.8 11.9l2.8.1q.3-5.7 3.3-10.4 3.2-4.8 8.3-7 5.7-2.4 11.8-1.1 6.1 1.4 10.4 6l2.4 2.6.1-3.4q.2-3.7 1.4-7.1 1.9-5.4 5.8-8.6 5.9-5 14.5-4.4 8.8.5 16.1 6.3l1.8-2.3q-8.2-6.4-17.9-6.9M6.9 70.1l-1.5 2.5q2.8 1.7 6.1 2.8 5 1.6 10 1.6 3.8 0 7.4-1 9.8-2.5 16.4-11 3.5-4.8 5.1-9.5l-2.7-.9q-1.4 4.1-4.5 8.2-6 8.2-15 10.5-6.6 1.7-13.3 0-4.4-1-8-3.2m50.9-87.5q-.8 1.4-.9 3-.3 3.3 2.7 6.5l-2.1 1.6q-.9 1-1.3 2.1-.4 1.2-.1 2.4 0 1.2.8 2.3.6 1 1.8 1.8 1.1.7 2.5 1l2.7-.2h.1L63.2.6l-1.7.2q-.9-.2-1.6-.7l-1-1q-.4-.5-.5-1.3-.3-1.3.8-2.5l1.3-1 1.8-.3 3.9-.2-3.4-2.1-2-1.8q-1.7-2.2-1.6-4.1.2-2.3 2.3-3.8 1.5-1 3.3-1.6l3.5-.1q2.5.6 4.2 2.8 1 1.2 1.6 2.3l1 2.7 1.3-2.7q1-2.3 3.3-3.6 2-1.3 3.7-.9 1 .4 1.9 1.2 1 .8 1.5 2 .7 1.6.8 3.3 0 1.8-.7 3.6l-1 2 2.1-.3q2.8-.3 5.2 1.1 2.3 1.5 3.1 4.2.7 2.1-.1 4.4-.7 2.3-2.6 3.7l-.8.7.4.9q1.8 3.5 1.3 7.1-.4 3.3-2.2 4.3-.8.5-2 .5l-2.5-.4q-2.2-.7-3.8-2.4-1.8-1.7-2.9-4l-2.3.8.1.3q1.3 2.7 3.3 4.7 2.1 2.1 4.9 3l3 .4q2 0 3.5-.8 2.5-1.4 3.4-5.4.7-4.3-1.2-8.4 2.1-2 3-4.8.7-2.8-.2-5.4-.9-3-3.3-4.9-2.5-1.9-5.6-2 .5-1.9.3-3.8t-1-3.6q-.8-1.6-2.1-2.8-1.4-1.2-2.9-1.5-2.2-.6-4.7.5-2.4 1.1-4 3.4-1.1-1.6-2.5-2.7-1.8-1.4-4-1.9l-4.6.1q-2.3.6-4.2 2-1.5 1-2.3 2.6M15.5-33.4q7.8 4.2 12.9 12l2-1.3q-5.3-8.5-13.8-12.9Q8.2-40-.8-39.2q-6.5.7-12.3 3.9-4.3 2.3-7.5 5.7l1.7 1.8q3.1-3.2 6.9-5.3 5.5-3 11.4-3.5 8.4-.8 16.1 3.3z"/><path fill="#FFF" d="M-120.2 121.3l3.4-3q-1.7-.9-3.8-.9l-.2.3-2-1 1-3.1q.4-2-.4-2.9-1.1-1.5-4.3-1-3.7.5-7.4 3.3l-.8.5-.8-.5q-1.2-1-2.8-1.4l-3.1-.2q-1.4.2-2.4.8-1.1.7-1.7 1.5-.7 1-.8 2.3-.1 1.3.2 2.8.5 1.5 1.5 2.9 1.2 1.3 2.8 2.1l1.1.4-.5 1.1q-1 2.4-.9 4.8.2 2.4 1.4 4 1.9 2.5 5.4 2.9 4 .3 7.2-2l1.4 1.9q-1.6 1.3-2.5 3.3-1 1.8-1.1 3.9-.1 1.4.3 2.8.6 1.2 1.3 2 .8.8 2 1.1l2.5.2q1.9 0 3.7-1 1.6-.8 3-2.3l.5-.7.8.5 2.5.6q2.5.2 4.5-1 2.2-1.3 3.1-4 1-2.8-.2-5.5t-3.9-3.7l-5.3-.2-.8-2.3.6-.2q2.4-3.5 2.4-6.4l-4.5 3.5-.8-1 5.1-4-.5-1.5q-.6-1.2-1.7-2l-3.7 3.3-.8-1M-143-12.5q-2.1-1.6-4.6-2-2.6-.4-4.4.7-1.2.6-1.9 1.9-.8 1.3-1 2.8-.4 2 .2 3.9.5 2 1.9 3.7l.3.4-.2.5q-.3 3.5 1.3 6.3 1.8 3 4.6 3.6 2.3.7 5-.6l2.3-1.4 1.4 1.5q1.6 0 3.3-.8l-.3-.2.8-1 .7.6q1.5-1 3-2.7l-4.6-4 .9-.8 4.6 4 2.7-3.5-2.6-2 .8-1 .9.7 1.5 1.2.6-1.2q1.2-2.4 1.4-4h-.3l.8-2.4q3.5 1.3 6.9.4 3.4-1 5.3-3.6 1.3-2 1.4-4.7l-.3-3-.1-.2q-.1-2.5-1.2-4.6-.9-2-2.6-3.4-1.3-1.1-2.6-1.6-1.3-.6-2.8-.4-2.5.3-4.5 2.8-1.1 1.3-1.7 2.5l-.5 1.3-1.2-.8q-3.2-1.8-6.7-1.5-3.6.4-5.6 2.9-1.7 2.2-1.6 5.4.2 1.8.6 3l1.5 4.4-3.4-3M51.7 125.2l-.6.5q-5.8-.6-9.6 2.3l3.1 3.7-1 .8-3.1-3.7-.1.2q-3.9 3.7-3.6 9.6l-.8-.3.9.7-1.5 1.9q-2.2-1.6-4.8-1.9-2.4-.3-3.9.8-1 .8-1.5 1.9-.5 1.3-.6 2.6-.1 2.2.7 4 .8 2 2.4 3.5l.4.4v.5q0 1.7.7 3.4.7 1.6 2.1 2.7 1.3 1 2.6 1.5l2.7.2q2.8-.4 4.4-2.8 1.8-2.4 1.5-5.4l-.2-3.6 2.4 2.8q2.2 2.4 5.5 2.8 3.1.5 5.5-1.3 1.7-1.4 2.4-3.8.6-2.3 0-4.7l-.5-1.8 2 .4 3.8.2q1.8-.4 3.3-1.3l1.7-1.8q.7-1 .8-2 .2-1.6-.9-3.4-1-1.7-3-2.7l-.9-.5.3-.9q.8-2.2-.2-4.3-.9-2.1-3-2.9-2.1-1-4.3 0-2.2.9-3.1 3.1l-2.4-.9.4-.5M77.3 38q-5.9-6-14.3-6.3h-1.2l-.2-1.1q-1.9-9.9-8.6-17.4Q46.2 5.7 36.9 3 25.7-.2 14 4.6q-3.7 1.5-7 3.7l-2.8 2-1 .9-.9-.9q-5-4.6-12.2-8-14.2-6.8-28-3.1Q-46 1.4-52.7 7q-4.6 3.8-8.1 8.8l-1.2 1.7-1.1-1.7q-3.4-4.4-7.9-7.2T-80.7 5l-8.5.3q-4.1.9-7.3 3.2-4.9 3.7-7 10.3-2.1 6.6-.5 13.6l.5 2.6-2.5-1q-4.6-1.9-9.3-1.8-4.9.2-8.9 2.3-2.8 1.5-4.6 3.6-1.9 2.1-2.4 4.4-1.1 4.8 2.6 10 4 5.5 11.2 7.9l1.5.5-.6 1.5q-3.8 8.6-1.4 17.9 2.5 9.2 10 14.7 7 5.2 16 5 8.3-.1 15-4.7l.6-.6.1.1.5-.3 1.3-1 .8 1.5q4.5 8 12.6 12.5 8 4.5 17 3.9 10.2-.7 18.3-7.8 4.3-3.9 6.8-8.2l1.8-3 .9 3.3q2.5 10.1 10.4 16.9 7.9 6.8 17.9 7.4 8.6.5 16.4-3.7 7.6-4.1 12.3-11.8l.6-1 1.1.3q4.5 1.7 9.2 1.6 4.7-.2 8.8-2 3.3-1.6 5.8-4.1 2.4-2.5 3.5-5.5 1.7-4.7.2-10t-5.6-9.6l-2-2 2.8-.4q7.5-1.1 12.6-6.7 5.2-5.6 5.3-12.9.1-8.2-5.8-14.2m-72 34.6l1.5-2.5q3.6 2.3 8 3.3 6.8 1.6 13.3-.1 9-2.3 15-10.5 3.1-4.1 4.5-8.1l2.7.8q-1.5 4.8-5.1 9.5-6.6 8.5-16.4 11-3.7 1-7.4 1-5 0-10-1.7-3.3-1-6.2-2.7m-41.4-41.5q6.8-5.7 16.5-5.1 9.6.5 17.8 7l-1.8 2.2q-7.4-5.8-16-6.4-8.7-.5-14.7 4.5-3.9 3.3-5.7 8.6-1.2 3.4-1.4 7l-.1 3.5-2.4-2.5q-4.3-4.8-10.4-6.1-6.1-1.3-11.8 1.2-5.1 2.1-8.3 6.9-3 4.7-3.3 10.4l-2.8-.1q.2-6.5 3.8-12 3.6-5.4 9.5-7.9 5.8-2.5 12.1-1.5 6.3.9 11.2 5 .6-3.9 2.1-7.3 2.1-4.5 5.7-7.4M58.4-2.2q0 .8.5 1.3l1 1q.8.6 1.6.7l1.7-.2.7 2.5h-.1v1.6l8.8-5.6.8 1L63.8 6q.3 1.8 1 3.2l3.6-2.4.8.9-3.7 2.5 1.5 1.5 2 1.4 13.2-7.8.6 1.2-12.4 7.2 8.4.2-.1-.3 2.3-.8q1 2.3 2.9 4 1.6 1.7 3.8 2.4l2.5.4q1.2 0 2-.5 1.8-1 2.3-4.3.5-3.7-1.4-7.1l-.5-1 .9-.6q1.9-1.4 2.6-3.7.8-2.3.1-4.5-.8-2.6-3.1-4-2.4-1.5-5.2-1.2L86-7l.9-2q.7-1.8.7-3.6-.1-1.8-.8-3.3-.5-1.2-1.5-2-.8-.9-1.9-1.2-1.8-.3-3.8.9-2.1 1.3-3.2 3.6l-1.3 2.7-1-2.7q-.5-1.1-1.6-2.3-1.8-2.3-4.2-2.8l-3.5.1Q63-19 61.5-18q-2.1 1.6-2.3 3.8-.1 2 1.6 4.1l2 1.8 3.4 2.2h-4l-1.7.3-1.3 1.1q-1 1.2-.9 2.6z"/><animate attributeName="display" fill="freeze" repeatCount="1" begin="click" dur="0.452s" keyTimes="0;.643;.929;1" values="none;inline;none;none"/></g><g display="none" transform="translate(275 200)"><path fill="#414042" d="M-18.4 122.7q4-1.9 7.2-4.5l-1.3-1.5q-3.8 3-8.5 4.8-7.8 3.2-15.5 1.6-3.3-.6-6.4-2-3.1-1.6-5.8-3.8l-1.3 1.5q2.9 2.4 6.2 4 3.4 1.6 7 2.3l5.4.6q6.5 0 13-3m-67.2-15l-.7-.8-10.5 9.3.5.8 10.7-9.3m-9.7 11.1q-2.6-1.1-5.3-.3l-.5.1.6 1.9 4.4.2q2.3.8 3.2 3 1 2.3.2 4.6t-2.6 3.3q-1.7 1-3.8.8l-1.9-.6-.7-.3-.5.7q-1 1.2-2.5 1.9t-3 .7l-2-.2q-1-.2-1.6-.8-.7-.7-1.2-1.8-.3-1.1-.2-2.3.1-1.7.9-3.2.8-1.5 2.1-2.7l-1.2-1.5q-2.6 1.9-5.9 1.6-2.9-.4-4.5-2.4-1-1.3-1.1-3.3-.2-2 .7-3.9l.4-1-1-.3q-1.3-.6-2.2-1.8-.8-1-1.3-2.4-.3-1.2 0-2.2 0-1 .5-1.9.5-.7 1.4-1.3.9-.5 2-.6l2.6.2q1.3.2 2.3 1l.7.5.6-.5q3.1-2.3 6.1-2.7 2.7-.3 3.6.9.7.8.3 2.4l-.8 2.5 1.7.9.1-.3 1-2.8q.5-2.6-.6-4-1.5-1.9-4.9-1.7-3.5.3-7.1 2.8-1.4-.8-2.9-1.2h-3q-1.5.3-2.7 1-1.3.7-2 1.8-.8 1.1-1 2.7-.2 1.5.2 3 .5 1.6 1.4 2.9 1 1.3 2.4 2.1-.8 2.4-.5 4.6.3 2.3 1.6 3.9 1.5 2 4 2.8l5 .1q-.9 1.8-1 3.9 0 1.8.5 3.2.5 1.5 1.6 2.4.9.8 2 1.3l2.7.4h.5q1.7-.1 3.3-.9 1.8-.8 3.1-2l3 .4q2 0 3.8-1 2.7-1.6 3.6-4.7 1-3-.3-5.8t-4.3-4.1M-131.8-2.3q-1.3.7-2.1 2.1-1 1.4-1.3 3.2-.3 2 .3 3.8.4 2 1.6 3.7-.3 3.4 1.6 6.3 1.8 3 4.8 3.6l1.8.3q2.1 0 4.1-1.1 1.2-.7 2-1.4l-.2-.2-1.1-1.2q-.8.7-2 1.2-2.2 1-4.1.6-2.3-.7-3.8-3.1-1.4-2.3-1-5.2v-.5l-.2-.3q-1.2-1.3-1.5-3-.5-1.5-.3-3.2.3-1.3 1-2.3.5-1.1 1.5-1.6 1.5-1 3.6-.6 2.1.3 3.8 1.7l2.9 2.5-1.3-3.6-.5-2.4q0-2.7 1.4-4.5 1.6-2.1 4.5-2.4 3-.3 5.6 1.3l1 .5.4-1q.5-1 1.3-2 1.8-2.2 3.8-2.4l2.3.3q1.2.5 2.2 1.3 1.4 1.2 2.2 2.9.8 1.8.9 3.7v.1l.1.1.3 2.5q-.1 2.3-1.3 3.9-1.5 2.2-4.3 3-2.9.8-5.7-.4l-.7 2 .4.1q3.3 1.1 6.7.2 3.3-1 5.3-3.8 1.3-2 1.5-4.8.1-1.6-.2-3.1-.3-2.3-1.3-4.4-1-2.2-2.6-3.5-1.3-1.2-2.9-1.7-1.5-.5-3-.4-2.2.3-4.1 1.9-1.3 1-2.3 2.7-3-1.5-6.4-1-3.4.7-5.3 3.2-2.1 2.4-1.8 6.3-1.8-1-3.9-1-2.1 0-3.7 1M46.2 111q-2.6-1-5.1 0-2.5 1-3.5 3.4l-.3.4 2 .7q.8-1.8 2.5-2.6 1.8-.8 3.6 0 1.8.7 2.5 2.5.8 1.7.2 3.5l-.3.7.8.4q1.5.9 2.5 2.3.8 1.5.6 2.8 0 .8-.6 1.6l-1.4 1.5q-1.3.8-2.8 1.1l-3-.2-1.7-.3.4 1.5q.5 2 0 3.9t-2 3q-2 1.6-4.5 1.2-2.8-.4-4.6-2.4l-2-2.2.3 3q.2 2.5-1.3 4.5-1.3 1.9-3.6 2.2l-2.3-.2q-1.1-.3-2.1-1.2-1.1-1-1.8-2.3-.5-1.3-.5-2.8v-.3l-.4-.4q-1.3-1.2-1.9-2.8-.7-1.6-.7-3.3.2-1.2.6-2.2.4-1 1.2-1.6 1.3-1 3.3-.6 2 .2 3.9 1.5l1.2-1.5-.7-.6q-2-1.3-4.4-1.5-2.7-.3-4.6 1.2-1 .8-1.8 2.2-.6 1.3-.7 3-.1 2 .7 4 .8 1.8 2.3 3.4 0 1.8.8 3.4.8 1.5 2.2 2.6 1.1 1 2.4 1.5l2.6.5h1q2.4-.3 4.2-2.3 1.8-1.8 2.3-4.4 2.4 1.7 5.1 1.8 3 0 5-1.7 1.7-1.3 2.5-3.4.8-2 .6-4.2l3.2-.3q1.5-.3 2.8-1.2 1.3-.8 2-2.1.8-1.2.9-2.5.1-1.7-.8-3.5-1-1.8-2.8-3 .5-2.4-.6-4.5-1.1-2.3-3.4-3.2M47.9-7.4q-1.9.6-3.4 1.7-1.3.9-2 2-.6 1.3-.8 2.6-.1 1.6.6 3Q40 1 37.8.3q-11-3.1-22 .6Q8.8 3.2 3.3 7.4q-6.5-5.6-14.7-8.9-12.3-5-24.1-2.8-2.3-.9-4.6-1.5-9-2.4-17.8-.5Q-65-4.6-71.3 0l1.2 1.6q5.9-4.3 12.8-5.9 8.3-1.9 16.8.5l1.5.4q-7.8 2.2-14.3 7.2-5 3.8-8.8 8.8-3.5-4.3-8.1-7Q-75 3-80.3 2.3l-9.6.3q-4.6 1-8.3 3.7-4.1 3.1-6.5 8l-4.9-4-2-1.5-.6.8 2.1 1.6 3.8 3 1.1.9-.6 1.6-.8 2.3-5.7-4.8-3.8-3.4-.7.8 3.8 3.2 6.2 5.4q-.6 2.1-.7 4.4l-8-7.6-.6-.4-.7.8.3.1 9 8.4q-.1 2.3.3 4.7-4.8-1.4-9.5-1-4.8.4-8.8 2.5-3.4 1.8-5.7 4.4-2.2 2.6-2.9 5.5-1.2 5.4 2.7 11.4l.1.2-.7 1.4q-1.6 3.6-1.7 7.3 0 5.5 2.8 10.3 1.8 3.1 4.2 5.2l1.4-1.5q-2.2-2-3.8-4.6-2.7-4.5-2.5-9.3 0-3.4 1.4-6.5l.3-.5q3.9 4.8 10.2 7.3-3.5 9.4-.8 19.1 2.9 9.7 10.9 15.6 6.6 4.9 15 5.5l-3 2.3-4 3.4-2.7 2.5.6.8 3.1-2.8 3.6-3.1 3.8-3h.6q4 0 7.6-.9l-7.6 5.3-6.2 4.7-4.2 3.3.7.7 3.6-2.8 6.7-5q5.1-3.8 10.3-7.2 3.4-1.2 6.4-3.3 5.1 8.3 13.6 12.7 8.6 4.5 17.9 3.8 9.1-.5 16.7-5.9 5.2-3.6 9-8.8 3.1 9.1 10.5 15.3 4.1 3.7 9.2 5.7 4.9 2 10.3 2.3l2 .1q6.3 0 12-2.2 2-.8 3.9-1.8l1.1 1.3.8-.7-1-1.1q2.9-1.7 5.4-3.8 3.8-3.3 6.5-7.6 4.8 1.5 9.8 1.3 5-.3 9.3-2.3 3.8-1.8 6.7-4.8 2.8-3 4.1-6.5 1.8-4.9.5-10.4-1.2-5.5-4.8-10.1 7.5-2 12.5-8.1Q85.8 60 86 52.3q.1-9-6.3-15.8-6.3-6.8-15.5-7.6l-.5-1.9q1.4 1.1 3.1 1.6l2.5.4q1.7 0 2.9-.7 2-1.2 2.7-4.5.6-3.4-1-6.9 1.8-1.6 2.5-3.9.6-2.3-.1-4.5-.8-2.5-2.8-4.1-2-1.6-4.5-1.7l.2-3q-.2-1.6-.9-3-.6-1.4-1.7-2.3-1.1-1-2.3-1.3-1.8-.4-4 .5-1.9.9-3.3 2.8Q56.1-5 55-6q-1.5-1.2-3.4-1.5h-3.7M43.8-.8q.1-1.9 1.9-3.1 1.1-1 2.6-1.3l3-.2q2 .5 3.5 2.3.8 1 1.3 2l.8 2.2 1-2.2q.9-2 2.8-3 1.5-1.1 3-.8.9.3 1.6 1 .8.6 1.2 1.6.6 1.3.7 2.9 0 1.4-.6 2.9L65.8 5l1.8-.3q2.3-.2 4.2 1 1.9 1.3 2.6 3.4.5 1.8-.1 3.7-.6 1.8-2.1 3l-.8.6.4.8q1.5 2.8 1.1 5.9-.3 2.6-1.8 3.5l-1.8.4-1.9-.4q-1.9-.6-3.2-1.9-1.5-1.4-2.4-3.4h-.1L60 18l3.3-1.9-.5-1-3.3 2q-2-3.1-4.5-6l.5-.2-.6-.8-.5.3Q51.8 7.7 49 5.7h.5l-2.7-1.8q-.9-.5-1.6-1.4Q43.5.7 43.6-1m17.9 31.6l.2 1 1.2.1q8.4.3 14.3 6.3t5.8 14.2q-.1 7.3-5.3 12.9-5 5.6-12.6 6.7l-2.8.4 2 2q4.1 4.3 5.6 9.6t-.2 10q-1.1 3-3.5 5.5-2.5 2.5-5.8 4-4.1 2-8.8 2.1-4.7.1-9.2-1.6l-1.1-.3-.6 1q-4.6 7.7-12.3 11.8-7.8 4.3-16.4 3.7-10-.7-17.9-7.4-7.9-6.8-10.4-16.8l-.9-3.5-1.8 3.1q-2.5 4.3-6.8 8.2-8.1 7.1-18.3 7.8-9 .6-17-3.9-8.1-4.5-12.7-12.5l-.8-1.5-1.3 1-.4.3-.8.5q-6.7 4.6-14.8 4.7-9 .2-16.2-5-7.5-5.5-9.9-14.8-2.4-9.2 1.4-17.9l.6-1.4-1.5-.5q-7.1-2.4-11.2-8-3.7-5.1-2.7-9.9.6-2.3 2.5-4.4 1.8-2.1 4.6-3.6 4-2.1 8.9-2.3 4.7-.1 9.3 1.8l2.5 1-.5-2.6q-1.6-7 .5-13.6t7-10.3q3.2-2.3 7.3-3.3l8.5-.2q5.2.8 9.8 3.6 4.5 2.8 7.8 7.3l1.1 1.6 1.1-1.7q3.5-5 8.2-8.9 6.8-5.5 14.9-7.7 13.8-3.7 28 3.1 7.3 3.5 12.2 8l1 .9.9-.8 2.9-2.2q3.2-2.1 7-3.6Q25.6-.2 36.9 3 46.3 5.7 53 13.2q6.8 7.5 8.6 17.4M-19.7 26q-9.8-.6-16.5 5-3.6 3-5.6 7.5-1.6 3.4-2.3 7.4-4.9-4.2-11.1-5.1-6.3-1-12.1 1.5-5.9 2.6-9.5 8-3.6 5.4-3.8 11.9l2.8.1q.3-5.7 3.3-10.4 3.2-4.8 8.3-7 5.7-2.4 11.8-1.1 6.1 1.4 10.4 6l2.4 2.6.1-3.4q.2-3.7 1.4-7.1 1.9-5.4 5.8-8.6 5.9-5 14.5-4.4 8.8.5 16.1 6.3l1.8-2.3q-8.2-6.4-17.9-6.9M6.9 70.1l-1.5 2.5q2.8 1.7 6.1 2.8 5 1.6 10 1.6 3.8 0 7.4-1 9.8-2.5 16.4-11 3.5-4.8 5.1-9.5l-2.7-.9q-1.4 4.1-4.5 8.2-6 8.2-15 10.5-6.6 1.7-13.3 0-4.4-1-8-3.2m1-86.8q6.4 3.4 10.5 10L20-7.8Q15.6-15 8.6-18.5q-7-3.8-14.4-3-5.4.4-10.2 3.1-3.4 2-6.1 4.8l1.4 1.4q2.6-2.6 5.6-4.4 4.5-2.4 9.5-2.9 6.9-.6 13.3 2.8z"/><path fill="#FFF" d="M-99.2 110.8q-.5-1.1-1.4-1.8l-3.1 2.8-.6-.8 2.8-2.5q-1.4-.8-3.2-.8l-.1.3-1.8-.9.9-2.5q.4-1.6-.3-2.4-.9-1.3-3.6-.9-3 .5-6 2.8l-.8.4-.5-.5q-1.1-.8-2.4-1l-2.6-.2q-1.1.2-2 .7-.8.5-1.3 1.2-.6.8-.6 1.9-.3 1 0 2.3.5 1.3 1.3 2.3 1 1.2 2.3 1.8l.9.3-.4 1q-.9 1.9-.7 3.9.1 2 1.1 3.3 1.6 2 4.5 2.4 3.3.3 5.9-1.7l1.2 1.6q-1.3 1.2-2.1 2.7-.8 1.5-.9 3.2-.1 1.2.3 2.4.4 1 1.1 1.7.6.6 1.5.8l2.1.2q1.5 0 3-.8 1.5-.7 2.5-1.8l.5-.7.7.3 2 .6q2 .2 3.7-.8 1.8-1 2.6-3.3.9-2.3-.2-4.6-1-2.2-3.2-3l-4.4-.2-.6-1.9.5-.1q1.9-2.9 1.9-5.3l-3.6 2.8-.7-.8 4.3-3.3-.5-1.2M-122.2-3l.5 2.5 1.3 3.6-2.8-2.5q-1.8-1.4-3.9-1.7-2-.4-3.6.6-1 .5-1.6 1.5-.6 1.1-.8 2.4-.3 1.7.2 3.2.3 1.7 1.5 3l.3.3-.2.5q-.3 2.8 1.1 5.2 1.5 2.4 3.8 3 1.9.6 4.1-.5 1.2-.5 2-1.2l1.1 1.2q1.3 0 2.7-.6l-.3-.1.7-.9.5.5q1.3-.8 2.6-2.2l-3.8-3.3.7-.8 3.8 3.5 2.2-3-2.1-1.7.6-.8 2 1.6.5-1q1-1.9 1.1-3.2h.2l-.4-.1.7-2q2.8 1.1 5.7.4 2.8-.8 4.3-3 1.2-1.7 1.3-3.9l-.3-2.5-.1-.1v-.1q-.1-2-1-3.7-.8-1.8-2.1-2.8-1-.9-2.2-1.3l-2.3-.4q-2 .3-3.8 2.3-.8 1-1.3 2.1l-.5 1-.9-.6q-2.6-1.5-5.5-1.3-3 .4-4.6 2.5-1.5 1.8-1.4 4.5M45.3 112.8q-1.8-.8-3.5 0-1.8.8-2.6 2.6l-2-.8.3-.3-.4.4-1-.1q-2.5 2.1-5.4 3.8l1 1.1-.8.8-1.1-1.3q-1.9 1-3.9 1.7-.8 2-.7 4.6l-.6-.2.7.6-1.2 1.5q-1.9-1.3-3.9-1.5-2-.4-3.3.6-.8.7-1.2 1.6-.4 1-.5 2.2-.1 1.7.6 3.3.6 1.6 2 2.8l.3.4v.3q0 1.4.5 2.8.6 1.4 1.8 2.3 1 .8 2.2 1.2l2.2.2q2.3-.3 3.6-2.3 1.5-2 1.3-4.4l-.3-3 2 2.3q1.9 2 4.6 2.3 2.5.4 4.5-1.2 1.5-1.1 2-3t0-3.9l-.4-1.5 1.6.3 3.1.2q1.6-.3 2.9-1.1l1.3-1.5q.5-.8.6-1.6.2-1.3-.6-2.8-1-1.4-2.5-2.3l-.8-.4.3-.7q.6-1.8-.2-3.5-.8-1.8-2.5-2.5m16.5-81.2l-.2-1q-1.9-9.9-8.6-17.4Q46.2 5.7 36.9 3 25.7-.2 14 4.6q-3.7 1.5-7 3.7l-2.8 2-1 .9-.9-.9q-5-4.6-12.2-8-14.2-6.8-28-3.1Q-46 1.4-52.7 7q-4.6 3.8-8.1 8.8l-1.2 1.7-1.1-1.7q-3.4-4.4-7.9-7.2T-80.7 5l-8.5.3q-4.1.9-7.3 3.2-4.9 3.7-7 10.3-2.1 6.6-.5 13.6l.5 2.6-2.5-1q-4.6-1.9-9.3-1.8-4.9.2-8.9 2.3-2.8 1.5-4.6 3.6-1.9 2.1-2.4 4.4-1.1 4.8 2.6 10 4 5.5 11.2 7.9l1.5.5-.6 1.5q-3.8 8.6-1.4 17.9 2.5 9.2 10 14.7 7 5.2 16 5 8.3-.1 15-4.7l.6-.6.1.1.5-.3 1.3-1 .8 1.5q4.5 8 12.6 12.5 8 4.5 17 3.9 10.2-.7 18.3-7.8 4.3-3.9 6.8-8.2l1.8-3 .9 3.3q2.5 10.1 10.4 16.9 7.9 6.8 17.9 7.4 8.6.5 16.4-3.7 7.6-4.1 12.3-11.8l.6-1 1.1.3q4.5 1.7 9.2 1.6 4.7-.2 8.8-2 3.3-1.6 5.8-4.1 2.4-2.5 3.5-5.5 1.7-4.7.2-10t-5.6-9.6l-2-2 2.8-.4q7.5-1.1 12.6-6.7 5.2-5.6 5.3-12.9.1-8.2-5.8-14.2-5.9-6-14.3-6.3h-1.2M5.3 72.5l1.5-2.5q3.6 2.3 8 3.3 6.8 1.6 13.3-.1 9-2.3 15-10.5 3.1-4.1 4.5-8.1l2.7.8q-1.5 4.8-5.1 9.5-6.6 8.5-16.4 11-3.7 1-7.4 1-5 0-10-1.7-3.3-1-6.2-2.7m-41.4-41.5q6.8-5.7 16.5-5.1 9.6.5 17.8 7l-1.8 2.2q-7.4-5.8-16-6.4-8.7-.5-14.7 4.5-3.9 3.3-5.7 8.6-1.2 3.4-1.4 7l-.1 3.5-2.4-2.5q-4.3-4.8-10.4-6.1-6.1-1.3-11.8 1.2-5.1 2.1-8.3 6.9-3 4.7-3.3 10.4l-2.8-.1q.2-6.5 3.8-12 3.6-5.4 9.5-7.9 5.8-2.5 12.1-1.5 6.3.9 11.2 5 .6-3.9 2.1-7.3 2.1-4.5 5.7-7.4M45.6-4.2Q44-2.8 43.7-1q0 1.7 1.4 3.5.8.9 1.7 1.4l2.8 1.8H49q2.8 2 5.4 4.7l.5-.3.6.8-.5.3q2.5 2.8 4.5 6l3.3-2 .5.9-3.3 2q1 1.5 1.7 3.3l.1-.1q.9 2 2.4 3.4 1.3 1.4 3.2 2l2 .3 1.7-.4q1.5-.9 1.8-3.6.4-3-1.1-5.9l-.3-.8.7-.5q1.5-1.2 2.1-3 .6-1.9.1-3.7-.7-2.1-2.6-3.4-1.9-1.2-4.3-1l-1.7.3.8-1.6q.6-1.5.6-3-.1-1.5-.7-2.8-.4-1-1.2-1.6-.7-.7-1.5-1-1.5-.3-3.1.8-1.9 1-2.8 3L57 1 56-1.3q-.4-1-1.3-2-1.5-1.8-3.4-2.3l-3 .2Q47-5 45.8-4z"/><animate attributeName="display" fill="freeze" repeatCount="1" begin="click" dur="0.452s" keyTimes="0;.571;.643;1" values="none;inline;none;none"/></g><g display="none" transform="translate(275 200)"><path fill="#FFF" d="M-86.9 104.6l-.5-.6 2.4-2q-3.7 1-7.6.9-6.7-.1-12.3-2.8l.5.8q.8.8 1.8 1.3l.8.3-.4.7q-.7 1.5-.5 3.1 0 1.5.9 2.7 1.1 1.5 3.5 1.8 2.5.2 4.6-1.3l1 1.3q-1.1.8-1.7 2-.6 1.2-.7 2.5 0 1 .2 1.9l.9 1.4 1.2.7 1.6.1q1.3 0 2.5-.6 1-.5 2-1.5l.3-.5.5.3 1.6.4q1.6.2 2.9-.6 1.5-.9 2-2.6.8-1.8 0-3.6t-2.6-2.5h-3.5l-.5-1.5.5-.2q1.5-2.3 1.5-4.2l-2.9 2.3M14 122.9h-2.2l-3.6-.5.3.9q.4 1 1.3 1.8l1.8 1h1.8q1.7-.2 2.8-1.7.6-.8.8-1.6l-3 .1m11.8-1.7l.7-.7q-2.4 1-4.9 1.5l.5.2q2.1.3 3.6-1M-110.6 13.8q-.4.8-.6 1.8-.3 1.3.1 2.6.3 1.3 1.3 2.4l.1.3v.3q-.3 2.3.8 4.1.6 1 1.4 1.6-.2-5.4 1.7-10.3.7-1.9 1.6-3.6-1-.7-2.3-.9-1.6-.3-2.8.5-.8.4-1.3 1.3m12.4-7.7l1.5-1h-1.2q-2.3.3-3.6 2-1 1.3-1 3.4 1.8-2.5 4.3-4.4m9.9-3.8l-.4.1h.6l-.3-.1m17.5 6.2q-4.6-2.8-9.8-3.6l-8.5.3q-4.1.9-7.3 3.2-4.9 3.7-7 10.3-2.1 6.6-.5 13.6l.5 2.6-2.5-1q-4.6-1.9-9.3-1.8-4.9.2-8.9 2.3-2.8 1.5-4.6 3.6-1.9 2.1-2.4 4.4-1.1 4.8 2.6 10 4 5.5 11.2 7.9l1.5.5-.6 1.5q-3.8 8.6-1.4 17.9 2.5 9.2 10 14.7 7 5.2 16 5 8.3-.1 15-4.7l.6-.6.1.1.5-.3 1.3-1 .8 1.5q4.5 8 12.6 12.5 8 4.5 17 3.9 10.2-.7 18.3-7.8 4.3-3.9 6.8-8.2l1.8-3 .9 3.3q2.5 10.1 10.4 16.9 7.9 6.8 17.9 7.4 8.6.5 16.4-3.7 7.6-4.1 12.3-11.8l.6-1 1.1.3q4.5 1.7 9.2 1.6 4.7-.2 8.8-2 3.3-1.6 5.8-4.1 2.4-2.5 3.5-5.5 1.7-4.7.2-10t-5.6-9.6l-2-2 2.8-.4q7.5-1.1 12.6-6.7 5.2-5.6 5.3-12.9.1-8.2-5.8-14.2-5.9-6-14.3-6.3h-1.2l-.2-1.1q-1.9-9.9-8.6-17.4Q46.2 5.7 36.9 3 25.7-.2 14 4.6q-3.7 1.5-7 3.7l-2.8 2-1 .9-.9-.9q-5-4.6-12.2-8-14.2-6.8-28-3.1Q-46 1.4-52.7 7q-4.6 3.8-8.1 8.8l-1.2 1.7-1.1-1.7q-3.4-4.4-7.9-7.2m34.8 22.5q6.8-5.7 16.5-5.1 9.6.5 17.8 7l-1.8 2.2q-7.4-5.8-16-6.4-8.7-.5-14.7 4.5-3.9 3.3-5.7 8.6-1.2 3.4-1.4 7l-.1 3.5-2.4-2.5q-4.3-4.8-10.4-6.1-6.1-1.3-11.8 1.2-5.1 2.1-8.3 6.9-3 4.7-3.3 10.4l-2.8-.1q.2-6.5 3.8-12 3.6-5.4 9.5-7.9 5.8-2.5 12.1-1.5 6.3.9 11.2 5 .6-3.9 2.1-7.3 2.1-4.5 5.7-7.4M5.3 72.5l1.5-2.5q3.6 2.3 8 3.3 6.8 1.6 13.3-.1 9-2.3 15-10.5 3.1-4.1 4.5-8.1l2.7.8q-1.5 4.8-5.1 9.5-6.6 8.5-16.4 11-3.7 1-7.4 1-5 0-10-1.7-3.3-1-6.2-2.7z"/><path fill="#414042" d="M-15.3-2.9q-11.8-3.7-23.2-.6-8 2.1-14.8 7.3-5 3.8-8.8 8.8-3.5-4.3-8.1-7Q-75 3-80.3 2.3l-3.8.1q-.9-.7-2-1.1l-2.4-.3q-1.7.2-3.2 1.4l-1 1-1.8.8q-2-.7-4.1-.4-2.7.5-4.2 2.5-1.6 2-1.3 5-1.5-.8-3.2-.8-1.6 0-2.9.8-1 .7-1.6 1.8-.8 1-1 2.4-.3 1.5.1 3 .4 1.7 1.4 3-.3 2.7 1.1 4.9 1.2 1.8 2.8 2.5l.2 1.7q-4.8-1.4-9.5-1-4.8.4-8.8 2.5-3.4 1.8-5.7 4.4-2.2 2.6-2.9 5.5-1.2 5.4 2.7 11.4 4.1 6.3 11.7 9.3-3.5 9.4-.8 19.1 2.9 9.7 10.9 15.6 1.3 1 2.6 1.7l.1.3q.3 1.3 1 2.3.9 1 2 1.6-.6 1.8-.4 3.6.2 1.8 1.2 3.1 1.1 1.6 3.1 2.2l4.1.2q-.8 1.4-.8 3-.1 1.4.4 2.5.4 1.2 1.2 2l1.6.9 2.1.3h.4l2.7-.7 2.3-1.6 2.3.3q1.7 0 3.2-.8 2-1.2 2.8-3.6.8-2.3-.3-4.6-1-2.2-3.4-3.3l-4.1-.2-.5.2.5 1.5h3.5q1.8.8 2.5 2.5.8 1.8.2 3.6-.7 1.8-2.1 2.6-1.3.8-2.9.6l-1.6-.4-.5-.3-.3.5q-1 1-2 1.5-1.2.6-2.5.6l-1.6-.2-1.2-.6-.9-1.4q-.3-.9-.2-1.9 0-1.3.7-2.5.6-1.2 1.7-2l-1-1.3q-2.1 1.5-4.6 1.3-2.4-.3-3.5-1.8-.9-1.2-1-2.7-.1-1.6.6-3.1l.4-.8-.8-.2q-1-.5-1.8-1.4l-.5-.7q5.7 2.7 12.3 2.8 4 0 7.6-.9l-2.5 2 .6.6 2.9-2.3 1.2-.8q3.9-1.3 7.5-3.8l.3.4-7.6 6.6.4.6 7.6-6.5q5 7.5 12.9 11.6 8.6 4.5 17.9 3.8 5.3-.3 10.2-2.3l2.6.3q5.2 0 10.3-2.4 3.1-1.4 5.7-3.5l-1-1.1q-3 2.3-6.8 3.8-4 1.5-8 1.6 1.9-1 3.7-2.3 5.2-3.6 9-8.8 3.1 9.1 10.5 15.3 4.1 3.7 9.2 5.7 2.4 1 4.9 1.5.2 1.1.7 2.1.5 1.3 1.6 2.2.9.7 2 1.1l2 .4h.8q2-.3 3.3-1.8 1.4-1.5 1.8-3.4 2 1.2 4 1.3 2.4 0 4-1.4 1.3-1 2-2.6 0-.3.2-.5l1.3-.7q7.6-4.3 12.4-11.8 4.8 1.6 9.8 1.3 5-.2 9.3-2.3 3.8-1.8 6.7-4.7 2.8-3 4.1-6.5 1.8-4.9.5-10.4-1.2-5.5-4.8-10.1 7.5-2 12.5-8.1Q85.8 60 86 52.3q.1-9-6.3-15.8-6.3-6.8-15.5-7.6-2.3-10.3-9.5-18Q47.5 3 37.8.2q-11-3-22 .7-4.2 1.4-7.8 3.6Q4.8.6.4-1.5q-5.4-3-11.3-2.5-2.3.3-4.5 1.1m2.7.9l2-.3Q-5.3-2.8-.2-.1q3.8 2 6.5 5.4l-3 2.1q-6.5-5.6-14.7-8.9l-1.3-.5m-68.1 7q5.2.8 9.8 3.6 4.5 2.8 7.8 7.3l1.1 1.6 1.1-1.7q3.5-5 8.2-8.9 6.8-5.5 14.9-7.7 13.8-3.7 28 3.1 7.3 3.5 12.2 8l1 .9.9-.8 2.9-2.2q3.2-2.1 7-3.6Q25.6-.2 36.9 3 46.3 5.7 53 13.2q6.8 7.5 8.6 17.4l.2 1 1.2.1q8.4.3 14.3 6.3t5.8 14.2q-.1 7.3-5.3 12.9-5 5.6-12.6 6.7l-2.8.4 2 2q4.1 4.3 5.6 9.6t-.2 10q-1.1 3-3.5 5.5-2.5 2.5-5.8 4-4.1 2-8.8 2.1-4.7.1-9.2-1.6l-1.1-.3-.6 1q-4.6 7.7-12.3 11.8-7.8 4.3-16.4 3.7-10-.7-17.9-7.4-7.9-6.8-10.4-16.8l-.9-3.5-1.8 3.1q-2.5 4.3-6.8 8.2-8.1 7.1-18.3 7.8-9 .6-17-3.9-8.1-4.5-12.7-12.5l-.8-1.5-1.3 1-.4.3-.7.5q-6.7 4.6-15 4.7-9 .2-16-5-7.5-5.5-10-14.8-2.4-9.2 1.4-17.9l.6-1.4-1.5-.5q-7.1-2.4-11.2-8-3.7-5.1-2.7-9.9.6-2.3 2.5-4.4 1.8-2.1 4.6-3.6 4-2.1 8.9-2.3 4.7-.1 9.3 1.8l2.5 1-.5-2.6q-1.6-7 .5-13.6t7-10.3q3.2-2.3 7.3-3.3l8.5-.2m-8-2.5l.4-.1h.2l-.6.1m-8 2.7l-1.5 1q-2.5 1.9-4.3 4.4 0-2.1 1-3.4 1.3-1.7 3.6-2h1.3m-14.6 10.4q.2-1 .7-1.8.5-.8 1.2-1.2 1.2-.8 2.8-.5 1.3.2 2.3.9-.9 1.7-1.6 3.6-1.9 4.9-1.8 10.3-.7-.6-1.3-1.6-1.1-1.9-.8-4.1v-.3l-.1-.3q-1-1.1-1.3-2.4-.4-1.3-.1-2.5M26.5 120.5l-.8.8q-1.5 1.2-3.6.9l-.5-.2q2.5-.5 4.9-1.5m-14.7 2.3l2.1.1 3.1-.1-.8 1.6q-1.1 1.5-2.8 1.8l-1.8-.2-1.8-1q-.9-.7-1.3-1.7l-.3-.9q1.8.3 3.7.4M6.6 70.1l-1.5 2.5q2.9 1.7 6.2 2.8 5 1.6 10 1.6 3.8 0 7.4-1 9.8-2.5 16.4-11 3.5-4.8 5.1-9.5l-2.7-.9q-1.4 4.1-4.5 8.2-6 8.2-15 10.5-6.6 1.7-13.3 0-4.4-1-8-3.2M-19.9 26q-9.6-.6-16.4 5-3.6 3-5.6 7.5-1.6 3.4-2.3 7.4-4.9-4.2-11.1-5.1-6.3-1-12.1 1.5-5.9 2.6-9.5 8-3.6 5.4-3.8 11.9l2.8.1q.3-5.7 3.3-10.4 3.2-4.8 8.3-7 5.7-2.4 11.8-1.1 6.1 1.4 10.4 6l2.4 2.6.1-3.4q.2-3.7 1.4-7.1 1.9-5.4 5.8-8.6 5.9-5 14.5-4.4 8.8.5 16.1 6.3l1.8-2.3q-8.2-6.4-17.9-6.9z"/><animate attributeName="display" fill="freeze" repeatCount="1" begin="click" dur="0.452s" keyTimes="0;.5;.571;1" values="none;inline;none;none"/></g><g display="none" transform="translate(275 200)"><path fill="#FFF" d="M-71.3 93l-.2.2-.1-.2h-.6q-6.6 0-11.9-3.9l-1-.8v.7l.8 1.4 1.3 1 .5.2-.2.6q-.5 1-.4 2.2 0 1.1.6 2 1 1.1 2.7 1.3 1.8.1 3.3-1l.8 1q-.8.6-1.3 1.5-.5.8-.5 1.8l.2 1.4q.2.6.6 1l.9.5 1.2.1 1.8-.5 1.4-1 .3-.4.3.2 1.2.3q1.2.1 2.1-.4 1.1-.7 1.5-2 .5-1.3 0-2.6-.6-1.3-1.9-1.8h-2.5l-.4-1.1.3-.2.8-1.5h-1.6m0-74.5l-1.3-.1q-1.2.1-2.2 1.3l-.8 1.2-.2.6-.5-.4q-1.5-.9-3.3-.7-1.7.2-2.6 1.4-.8 1-.8 2.6l.3 1.4.8 2.1-1.7-1.4q-1-.9-2.2-1-1.2-.3-2.1.3-.5.3-.9.9l-.5 1.4q-.2.9.1 1.8.3 1 .9 1.8l.1.2v.2q-.2 1.6.6 3t2.2 1.8q1.1.3 2.4-.4l.6-.4q.3-1.8 1-3.5 1.7-4.6 5.4-7.3 2.5-1.9 5.8-2.6h2q-.1-1-.5-1.8-.5-1-1.3-1.6l-1.3-.8M4 107.8l.4-.7H1l-2.7-.3v.1q.4.8 1 1.4l1.3.6 1.3.2q1.3-.3 2.1-1.3M18.6 23q-7.9-2.3-16 1-2.6 1.1-4.9 2.6l-2 1.5-.7.6-.6-.6q-3.5-3.3-8.5-5.6-10-4.8-19.6-2.2-5.8 1.6-10.5 5.5-3.3 2.7-5.7 6.1l-.8 1.2-.8-1.2q-2.4-3-5.5-5t-6.9-2.6l-5.9.3q-2.9.6-5 2.3-3.5 2.5-5 7.1t-.4 9.5l.5 1.9-1.8-.8q-3.3-1.3-6.6-1.2-3.4.1-6.2 1.6-2 1-3.3 2.5-1.3 1.5-1.6 3.1-.8 3.3 1.9 7 2.8 3.9 7.8 5.6l1 .4-.4 1q-2.6 6-1 12.5 1.8 6.5 7 10.3 5 3.6 11.3 3.5 5.7 0 10.4-3.2l.5-.5v.1l.4-.3.8-.6.6 1q3.2 5.7 8.9 8.8 5.6 3.2 11.9 2.7 7.2-.5 12.8-5.5 3-2.7 4.8-5.7l1.3-2.1.6 2.3q1.7 7.1 7.3 11.8 5.5 4.8 12.5 5.2 6 .4 11.5-2.5 5.4-3 8.6-8.3l.4-.8.8.3q3.1 1.2 6.4 1.1 3.3-.1 6.2-1.5 2.3-1 4-2.8 1.8-1.8 2.5-3.9 1.1-3.3.1-7-1-3.6-3.9-6.6l-1.3-1.5 1.9-.3q5.3-.7 8.9-4.6 3.5-4 3.6-9 .1-5.8-4-10t-10.1-4.5H36l-.1-.8q-1.4-6.8-6-12.1-4.8-5.3-11.3-7.1M22.9 65q2.2-3 3.2-5.8l1.8.7q-1 3.3-3.5 6.6-4.6 6-11.5 7.8l-5.3.6q-3.4 0-6.8-1.2-2.4-.7-4.4-1.9l1-1.7q2.6 1.5 5.7 2.3 4.7 1.1 9.3-.1 6.2-1.6 10.5-7.3m-59.5-17q1.5-3.1 4-5.3 4.7-3.9 11.5-3.6 6.8.4 12.5 5l-1.3 1.5q-5.2-4-11.2-4.5-6.1-.3-10.3 3.1-2.7 2.3-4 6-.9 2.4-1 5v2.4l-1.7-1.7q-3-3.3-7.3-4.3-4.3-.9-8.3.9-3.5 1.5-5.8 4.8-2.1 3.3-2.3 7.3h-2q.2-4.6 2.7-8.4 2.6-3.8 6.6-5.6 4.1-1.8 8.5-1.1 4.5.7 7.9 3.5.4-2.6 1.5-5z"/><path fill="#414042" d="M27 24.3q-.4-.9-1-1.4-.6-.5-1.3-.7l-2 .3q-1.8-.9-3.6-1.4-7.7-2.2-15.4.5-4.8 1.6-8.6 4.5-4.5-3.9-10.3-6.2-3.9-1.6-7.7-2.1.8-.7 1.8-1.2 2.6-1.5 5.5-1.7 4-.3 7.6 1.6 3.8 2 6.1 5.8l1-.7q-2.5-4-6.5-6.2-4-2.1-8.3-1.7-3.2.3-6 1.9-1.5.8-2.8 2-4.9-.5-9.8.8-4.8 1.4-8.9 4.2l-2.5-.1q-4.3 1-7.9 3.6l.7 1q3.4-2.5 7.4-3.5l.8.1q-3.4 2.6-6 6.1-2.5-3-5.8-4.9-3.3-1.8-7-2.4l-3.5.1q-.2-1.2-.7-2.2-.6-1.2-1.5-2l-1.7-1-1.8-.2q-1.2.2-2.3 1.1-.8.6-1.3 1.6-1.8-.9-3.8-.6-1.9.3-3 1.8-1.2 1.4-1 3.6-1.1-.5-2.3-.5-1.2 0-2.1.6-.8.4-1.3 1.3-.5.8-.7 1.8-.2 1.1.2 2.2.2 1.1.9 2.1-.1 2 .9 3.6 1.1 1.8 2.8 2.2l1 .1q1.1 0 2.2-.5-.3 2.3 0 4.7-3.3-1-6.5-.7-3.3.3-6.3 1.8-2.3 1.2-3.9 3-1.5 1.9-2 3.9-.8 3.8 1.9 8 2.8 4.4 8.1 6.5-2.5 6.6-.5 13.4 1.6 5.4 5.5 9.1v.2q-.2.9 0 1.8.3.9.9 1.7.5.7 1.3 1.2-.4 1.3-.3 2.6.2 1.3 1 2.3.8 1.1 2.3 1.6h2.9q-.6 1.1-.6 2.3 0 1 .3 1.8.3.9.9 1.5l1.2.7 1.5.2h.3q1 0 2-.5l1.7-1.2 1.7.3q1.2 0 2.3-.6 1.5-1 2-2.7.6-1.8-.2-3.4-.8-1.6-2.5-2.3l-3-.3-.3.2.3 1 2.6.1q1.3.5 1.9 1.8.5 1.3 0 2.7-.4 1.3-1.5 1.9-.9.5-2.1.4l-1.2-.3-.4-.2-.2.4-1.4 1-1.8.5-1.2-.1-.9-.5q-.4-.4-.6-1l-.2-1.4q0-1 .5-1.8.5-.9 1.3-1.5l-.8-1q-1.5 1.1-3.3 1-1.8-.2-2.7-1.4-.5-.8-.6-1.9-.1-1.2.4-2.3l.3-.5-.6-.2-1.3-1-.8-1.4v-.7l1 .8q5.3 3.9 12 4h.8l1.6-.1 2.1-.4-.8.7.4.4 1.6-1.4q3.4-.9 6.4-2.9 3.5 5.8 9.5 8.9 6 3.2 12.5 2.7 4.6-.3 8.6-2.3 3.3-.3 6.3-1.7 2.4-1 4.3-2.5l-.8-1q-2.2 1.8-5 2.8l-2 .8.4-.3q3.6-2.5 6.2-6.1 2.2 6.3 7.3 10.7 3 2.5 6.5 4 1.5.6 3.2 1l.4 1q.4 1 1.2 1.6l1.4.8 1.5.4.6-.1q1.4-.2 2.4-1.3.8-.8 1.2-2l.9-.1q1 .5 2.2.5 1.7 0 2.9-.9.9-.7 1.4-1.8l.8-.4q5.3-3 8.7-8.3 3.3 1.2 6.8 1 3.5-.2 6.6-1.6 2.6-1.3 4.6-3.4 2-2 2.9-4.5 1.2-3.4.4-7.3-.9-3.8-3.4-7.1 5.3-1.4 8.8-5.7 3.5-4.3 3.6-9.7.1-6.3-4.3-11-4.5-4.8-10.9-5.3Q36.1 34 31 28.6q-1.7-1.9-3.6-3.4l-.3-1m-24.5 0q8.1-3.3 16-1.1 6.5 1.8 11.3 7.1 4.6 5.3 6 12.2l.1.8h.8q6 .2 10 4.4 4.2 4.2 4.1 10-.1 5-3.6 9-3.6 3.9-8.9 4.7l-2 .3 1.4 1.4q2.9 3 4 6.7 1 3.6-.2 6.9-.8 2.2-2.5 3.9-1.7 1.8-4 2.8-2.9 1.4-6.2 1.5-3.3.1-6.4-1.1l-.8-.3-.4.8q-3.3 5.3-8.7 8.3-5.4 2.9-11.4 2.5-7-.5-12.5-5.2-5.6-4.7-7.3-11.8l-.6-2.3-1.3 2.1q-1.8 3-4.8 5.7-5.6 5-12.8 5.5-6.3.5-12-2.7-5.6-3.1-8.8-8.8l-.6-1-.9.7-.3.2-.5.4Q-65.9 91-71.7 91q-6.2.1-11.2-3.5-5.3-3.8-7-10.3-1.6-6.5 1-12.5l.4-1-1-.4q-5-1.7-7.8-5.6-2.7-3.7-1.9-7 .4-1.6 1.7-3 1.3-1.6 3.2-2.6 2.8-1.5 6.2-1.6 3.3 0 6.5 1.3l1.8.7-.4-1.9q-1-4.9.4-9.5 1.5-4.6 5-7.2 2.1-1.6 5-2.3l6-.2q3.6.6 6.8 2.6 3.1 2 5.5 5l.8 1.2.8-1.2q2.4-3.4 5.7-6.1 4.8-4 10.5-5.5 9.6-2.6 19.6 2.2 5 2.3 8.5 5.6l.6.6.8-.6 1.9-1.4Q0 25.1 2.6 24M4.4 107l-.4.7q-.8 1-2.1 1.3l-1.3-.2-1.3-.6q-.6-.6-1-1.4v-.1l2.7.3h3.4m-77-88.7l1.3.3 1.3.7q.8.6 1.3 1.6.4.9.5 1.8h-2q-3.3.8-5.8 2.6-3.8 2.8-5.5 7.3-.6 1.8-.9 3.5l-.6.4q-1.3.6-2.4.4-1.3-.4-2.2-1.8-.8-1.4-.6-3v-.3l-.1-.2q-.7-.8-.9-1.7-.3-.9-.1-1.8l.5-1.4q.3-.6.9-.9.9-.6 2.1-.4 1.2.3 2.2 1L-82 28l-.7-2.1-.3-1.4q0-1.5.8-2.6 1-1.2 2.7-1.4 1.7-.1 3.2.8l.5.3.3-.6.8-1.2q1-1.2 2.2-1.3m39.9 24.4q-2.5 2-4 5.2-1.1 2.4-1.5 5-3.4-2.8-7.9-3.5-4.4-.7-8.5 1.1-4 1.8-6.6 5.5-2.5 3.9-2.6 8.4l2 .1q0-4 2.3-7.3 2.1-3.3 5.8-4.8 3.9-1.8 8.2-.9 4.3 1 7.3 4.3l1.6 1.8.1-2.5q.1-2.6 1-5 1.3-3.7 4-6 4.2-3.4 10.3-3 6 .3 11.2 4.4l1.3-1.6q-5.8-4.5-12.5-4.9-6.8-.3-11.5 3.6M26 59.3Q25 62 22.9 65q-4.3 5.7-10.5 7.3-4.6 1.2-9.3 0-3-.7-5.7-2.2l-1 1.7q2 1.2 4.3 2 3.5 1.1 7 1.1l5.2-.7q6.8-1.8 11.5-7.8 2.5-3.3 3.6-6.5l-2-.6z"/><animate attributeName="display" fill="freeze" repeatCount="1" begin="click" dur="0.452s" keyTimes="0;.429;.5;1" values="none;inline;none;none"/></g><g display="none" transform="translate(275 200)"><path fill="#414042" d="M7.3 41.4Q4.5 38.1.5 37l-3.3.1h-1.4l-4.1.1q-2.8 1-5 2.7-2.5-2.3-5.8-3.6-5.6-2.3-11-.9-3.2.9-5.9 3-2 1.5-3.5 3.5-1.4-1.6-3.3-2.8-1.9-1-4-1.4l-3.9.2q-1.8.4-3.3 1.5-2.1 1.5-3 4.1-1 2.6-.6 5.6l-3.8-.4q-1.9.2-3.6 1-1.3.7-2.2 1.8-.9 1-1.1 2.2-.5 2.2 1 4.6 1.6 2.5 4.7 3.7-1.4 3.7-.3 7.6 1.1 4 4.4 6.3 3 2.2 6.8 2.3 3.8 0 6.9-2.1 2 3.3 5.4 5Q-36 83-32 82.8q3.6-.3 6.7-2.4 2-1.5 3.5-3.6 1.3 3.8 4.3 6.3 1.6 1.4 3.6 2.2 2 .8 4.2 1h.8q3.5 0 6.5-1.7 3-1.8 5-4.8 1.9.7 3.9.6 2-.1 3.8-1 1.5-.7 2.6-1.9 1.1-1.1 1.6-2.5.8-2 .3-4.2t-2-4.1q3.1-.8 5.1-3.2 2-2.5 2-5.5.1-3.7-2.4-6.4t-6.2-3q-1-4.1-3.8-7.3m-.8 1q2.8 3 3.5 6.9l.1.4.5.1q3.4.1 5.7 2.5 2.4 2.4 2.3 5.7 0 3-2.1 5.2-2 2.2-5 2.7l-1.2.2.8.8q1.7 1.7 2.3 3.8.6 2.1-.1 4L12 76.8q-1 1-2.3 1.7-1.7.7-3.5.8-2 0-3.8-.6l-.4-.3-.3.4Q0 82-3.2 83.8q-3.1 1.6-6.5 1.4-4-.3-7.3-3-3.1-2.7-4.1-6.7l-.3-1.4-.8 1.3q-1 1.7-2.7 3.2-3.3 2.9-7.4 3.2-3.6.2-6.8-1.6-3.2-1.8-5-5l-.4-.6-.5.4-.1.1-.4.3q-2.6 1.8-6 1.8-3.5 0-6.4-2-3-2.3-4-6-1-3.6.5-7.1l.3-.6-.6-.2q-2.8-1-4.5-3.2-1.5-2.1-1-4 .2-.9.9-1.8.8-.8 1.8-1.4 1.7-.8 3.6-.9 2 0 3.8.7l1 .4-.3-1q-.6-2.9.3-5.5.8-2.6 2.8-4.1 1.3-1 2.9-1.3l3.4-.1q2.1.3 4 1.5 1.8 1 3 2.9l.5.6.5-.7q1.4-2 3.3-3.5 2.7-2.3 6-3.1 5.4-1.5 11.2 1.2 2.9 1.4 4.8 3.2l.4.4 1.6-1.2 2.8-1.5q4.6-1.9 9-.6 3.9 1 6.6 4m-29.3 5.2q-3.8-.2-6.5 2-1.4 1.3-2.3 3-.6 1.4-.9 3-2-1.7-4.5-2.1-2.5-.3-4.8.7-2.4 1-3.8 3.1-1.5 2.2-1.6 4.9h1.2q.1-2.3 1.3-4.2 1.3-1.9 3.4-2.8 2.2-1 4.7-.5 2.4.6 4.1 2.5l1 1v-1.4q.1-1.5.6-2.9.8-2 2.3-3.4 2.4-2 5.9-1.8 3.4.3 6.4 2.6l.7-.9q-3.2-2.6-7.2-2.8M5.6 59.3l-1.1-.4q-.6 1.6-1.8 3.3-2.5 3.3-6 4.2-2.7.6-5.4 0-1.7-.4-3.2-1.3l-.6 1 2.5 1.1 4 .6 3-.3q3.9-1 6.5-4.5 1.5-1.9 2-3.8z"/><path fill="#FFF" d="M10.1 49.2q-.8-4-3.4-7-2.8-3-6.5-4-4.5-1.3-9.1.6l-2.8 1.5-1.6 1.2-.3-.4q-2-1.8-4.9-3.2-5.8-2.7-11.3-1.3-3.2 1-6 3.1-1.8 1.6-3.2 3.6l-.5.7-.5-.6q-1.3-1.9-3-3-1.9-1.1-4-1.4l-3.4.1q-1.6.4-2.9 1.3-2 1.5-2.8 4.1-.9 2.6-.3 5.5l.3 1-1-.4q-1.9-.8-3.8-.7-1.9 0-3.6.9-1 .6-1.8 1.5-.8.8-1 1.8-.4 1.8 1.1 3.9 1.7 2.3 4.5 3.2l.6.2-.3.6q-1.5 3.5-.5 7.2 1 3.6 4 5.8 2.9 2.2 6.4 2.1 3.4 0 6-1.8l.3-.3.2-.1.5-.4.4.5q1.8 3.3 5 5.1 3.3 1.8 6.9 1.6 4-.3 7.3-3.2 1.8-1.5 2.7-3.3l.8-1.2.3 1.4q1 4 4.2 6.8 3.1 2.6 7.1 2.9 3.5.2 6.6-1.4 3.1-1.7 5-4.9l.2-.3.5.2q1.8.6 3.7.5 1.8 0 3.5-.8 1.3-.6 2.3-1.6l1.4-2.3q.7-1.8 0-3.9-.6-2.1-2.2-3.8l-.8-.8 1.2-.2q3-.5 5-2.7 2-2.3 2.1-5.2 0-3.3-2.3-5.6-2.3-2.5-5.7-2.6h-.5l-.1-.5m-5.6 9.7l1 .4q-.5 1.9-2 3.7Q.9 66.5-3 67.5l-3 .3-4-.6-2.5-1.1.6-1q1.5.9 3.3 1.3 2.6.6 5.3 0 3.5-1 6-4.3 1.2-1.6 1.8-3.2m-33.6-9.4q2.7-2.3 6.6-2.1 3.9.2 7.1 2.8l-.7.9q-3-2.4-6.4-2.6-3.5-.1-5.9 1.9-1.6 1.3-2.3 3.4-.5 1.4-.6 2.8V58l-1-1q-1.7-1.9-4.1-2.5-2.5-.5-4.8.5-2 .9-3.3 2.8-1.2 1.9-1.3 4.2H-47q.1-2.7 1.6-4.9Q-44 55-41.6 54q2.3-1 4.9-.7 2.5.4 4.5 2 .2-1.5.8-2.8.8-1.9 2.3-3z"/><animate attributeName="display" fill="freeze" repeatCount="1" begin="click" dur="0.452s" keyTimes="0;.357;.429;1" values="none;inline;none;none"/></g><g display="none" transform="translate(275 200)"><path fill="#596E41" d="M-33.8 53.5v.6l10.6-.2-10.6-.4m21.2.8h-.8l.1 8.9h-1v.4l1.4.1.3-9.5z"/><path fill="#B7D986" d="M-14.3 64.3v-9.5h-21.2v9.5h21.3m-1-8.6v7.6h-19.4v-7.6h19.4m-10.2 2l-.4.3-.1.5v.5h-.2l.1.1v.4l.1.1v.1h.1l.1.2.1.2v.1l-.1.1-1.4.7.4.7.4.6.7.4.7.1.7-.1.6-.4.6-.6.4-.8-1.4-.5-.1-.1-.1-.2.1-.2v-.2h.2v-.4l.1-.1V59h-.1v-.5l-.2-.5-.3-.3-.5-.1-.5.1m-1.6-1l.8-.7h-6l-.1.8-.5.6-.6.5-.8.1v3l.8.2.6.4.5.6.1.8h6l-.8-.7-.5-.8-.4-1v-2l.4-1 .5-.8m-2.8 1.8l.4.3.2.3.1.4-.1.5-.3.3-.3.3h-.9l-.4-.3-.3-.3V59l.3-.4.4-.2.4-.1.5.1m14.2-.5l-.8-.1-.7-.5-.3-.6-.3-.8h-5.9l.8.7.5.8.4 1v2l-.4 1-.5.8-.8.7h6l.2-.8.3-.6.7-.4.8-.2v-3m-3.9.4l.4.1.4.3.3.3v.9l-.3.3-.4.3h-.9l-.4-.3-.2-.3-.1-.5.1-.4.3-.4.3-.2.5-.1z"/><path fill="#668848" d="M-15.2 63.4v-7.8h-19.4v7.8h19.4m-1.2-5.5l.8.1v3l-.8.2q-.4.1-.7.4l-.3.6-.3.8h-5.9l.8-.7.5-.8.4-1v-2l-.4-1-.5-.8-.8-.7h6l.2.8.3.6.7.5m-9.8-1.9l-.8.7-.5.8-.4 1v2l.4 1 .5.8.8.7h-6l-.1-.8-.5-.6-.6-.4-.8-.2v-3l.8-.1.6-.5.5-.6.1-.8h6m.4 2l.4-.3.5-.1.5.1.3.3.2.5v.5h.1v.7H-24.2v.2l-.1.2v.1l.1.1 1.5.7-.4.7-.6.6-.6.4-.7.1-.7-.1-.6-.4-.6-.6-.3-.8 1.4-.5v-.1l.1-.2-.1-.2v-.2h-.2V59.4l-.1-.3V59h.1v-.5l.1-.5m-3.6.8l-.4-.3-.4-.1-.5.1-.4.3-.3.3v.9l.3.3.4.3h.9l.4-.3.2-.3.1-.5-.1-.4-.3-.4m10.4-.2l-.4-.1-.5.1-.4.3-.2.3-.1.4.1.5.3.3.3.3h.9l.4-.3.3-.3V59l-.3-.4-.4-.2z"/><path fill="#759854" d="M-13.4 54.3v-.5l-9.7.1-10.7.2h-.9v.7h20.5v8.4h.9l-.1-9z"/><animate attributeName="display" fill="freeze" repeatCount="1" begin="click" dur="0.452s" keyTimes="0;.286;.357;1" values="none;inline;none;none"/></g><g display="none" transform="translate(275 200)"><path fill="#596E41" d="M-60.6 38.8l-.1 2 39.9-.6-39.8-1.5M19 41.5h-3.4l.6 33.5h-3.7v1.8l5.3.2L19 41.5z"/><path fill="#B7D986" d="M12.6 76.8V43.5h-79.8V79h79.8v-2.2m-3.4-30v28.9h-73V46.8h73m-29.4 22.8q.8-1.4 1.3-3l-5.2-2.1-.4-.5q-.3-.3-.1-.5l.4-.7.1-.9.2.1h.2l.3-.3v-.5l.1-.6.2-.7v-.4l-.1-.3h-.4q.3-.9.2-1.8l-.7-1.6q-.5-.8-1.3-1.3-.9-.4-1.9-.4l-1.9.4q-.8.5-1.4 1.3-.4.7-.5 1.6-.1.9.2 1.8h-.5l-.2.3.1.4.2.8v.5l.2.5.3.3h.2v-.1l.3.9.4.8q.1.1-.2.4l-.4.5-5.2 2.1q.5 1.6 1.4 3 .8 1.3 1.9 2.2 1.1 1 2.4 1.5l2.7.5q1.4 0 2.7-.5l2.4-1.5 2-2.3M-57 53.4q-1 1-2.4 1.6-1.4.5-3 .5V67q1.6 0 3 .5 1.4.7 2.4 1.7 1.1 1 1.7 2.3.6 1.3.6 2.8h22.4q-1.6-1-2.9-2.5-1.2-1.4-2-3.2-.9-1.7-1.3-3.6-.3-1.9-.3-3.8 0-1.8.4-3.7.3-1.9 1.1-3.5.9-1.9 2.1-3.3 1.3-1.5 2.9-2.5h-22.4q0 1.5-.6 2.9l-1.6 2.3m7.6 4q.8-.3 1.8-.3.8 0 1.6.4l1.4.8 1 1.4q.3.7.3 1.5l-.4 1.7-.9 1.3q-.6.6-1.4.9l-1.7.4-1.7-.4-1.4-.9q-.6-.6-.9-1.3-.4-.8-.4-1.6 0-.9.4-1.6.3-.8.9-1.4.6-.5 1.4-.8M7.7 67V55.5q-1.5 0-3-.5-1.4-.6-2.5-1.6-1-1-1.6-2.3-.6-1.4-.6-2.9h-22.4q1.6 1 2.9 2.5 1.2 1.4 2 3.3.9 1.6 1.3 3.5l.3 3.8-.3 3.7q-.4 1.9-1.3 3.6-.8 1.8-2 3.2-1.3 1.5-2.9 2.5H0q0-1.5.6-2.8.6-1.3 1.6-2.3 1.1-1 2.5-1.7 1.5-.5 3-.5m-14.8-9.9q.8 0 1.7.4.8.3 1.4.8l1 1.4.3 1.5L-3 63l-1 1.3q-.6.6-1.4.9l-1.7.4-1.7-.4q-.8-.3-1.4-.9-.7-.6-1-1.3-.3-.8-.3-1.6 0-.9.3-1.6.3-.8 1-1.4.6-.5 1.4-.8l1.7-.4z"/><path fill="#668848" d="M9.2 75.7V46.8h-73v28.9h73M7.7 55.5V67q-1.5 0-3 .5-1.4.7-2.5 1.7-1 1-1.6 2.3-.6 1.3-.6 2.8h-22.4q1.6-1 2.9-2.5 1.2-1.4 2-3.2.9-1.7 1.3-3.6l.3-3.8-.3-3.7q-.4-1.9-1.3-3.5-.8-1.9-2-3.3-1.3-1.5-2.9-2.5H0q0 1.5.6 2.9.6 1.3 1.6 2.3 1.1 1 2.5 1.6 1.5.5 3 .5m-67-.5q1.4-.6 2.4-1.6l1.7-2.3q.6-1.4.6-2.9h22.4q-1.6 1-2.9 2.5-1.2 1.4-2 3.3-.9 1.6-1.3 3.5-.3 1.9-.3 3.8 0 1.8.4 3.7.3 1.9 1.1 3.6.9 1.8 2.1 3.2 1.3 1.5 2.9 2.5h-22.4q0-1.5-.6-2.8-.5-1.3-1.6-2.3-1.1-1-2.5-1.7-1.4-.5-3-.5V55.5q1.6 0 3-.5m40.4 11.6q-.5 1.6-1.4 3l-1.9 2.2-2.4 1.5q-1.3.5-2.7.5l-2.7-.5q-1.3-.5-2.4-1.5-1.1-1-1.9-2.3-.9-1.3-1.4-2.9l5.2-2.1.4-.5q.3-.3.2-.5l-.5-.7-.2-.9v.1h-.3l-.3-.3v-.5l-.1-.6-.2-.7v-.4l.1-.3h.5q-.4-.9-.3-1.8.1-.9.6-1.6.6-.8 1.4-1.3l1.9-.4q1 0 2 .4.7.5 1.3 1.3l.6 1.6q0 .9-.3 1.8h.5l.1.3v.4l-.2.8v.5l-.1.5-.3.3h-.3v-.1l-.3.9-.3.8q-.2.1 0 .4l.5.5 5.2 2.1m-28.6-9.5q-.9 0-1.7.4-.8.3-1.4.8-.6.6-.9 1.4-.4.7-.4 1.5 0 .9.4 1.7.3.8.9 1.3l1.4.9 1.8.4 1.6-.4q.8-.3 1.4-.9l1-1.3.3-1.6q0-.9-.4-1.6l-.9-1.4-1.4-.8q-.8-.4-1.7-.4m42.1.4q-.8-.4-1.7-.4l-1.7.4q-.8.3-1.4.8-.7.6-1 1.4-.3.7-.3 1.5 0 .9.3 1.7.3.8 1 1.3.6.6 1.4.9l1.7.4 1.7-.4q.8-.3 1.4-.9l1-1.3.3-1.6-.3-1.6-1-1.4q-.6-.5-1.4-.8z"/><path fill="#759854" d="M15.8 41.5l-.1-2-36.5.6-40 .8H-64v2.6h76.7V75h3.7l-.6-33.5z"/><animate attributeName="display" fill="freeze" repeatCount="1" begin="click" dur="0.452s" keyTimes="0;.214;.286;1" values="none;inline;none;none"/></g><g display="none" transform="translate(275 200)"><path fill="#596E41" d="M-87.5 24l-.2 3.6 69.2-1.2-69-2.4m138.3 4.9l-5.8-.3 1 58.1-6.5.1V90l9.1.2 2.2-61.4z"/><path fill="#B7D986" d="M39.5 93.7V32.3H-98.8v61.4H39.5m-6-55.7v50H-92.9V38H33.6m-77.8 34.3q.8 2.8 2.4 5.1 1.3 2.3 3.3 3.9 2 1.8 4.1 2.6l4.7 1q2.4 0 4.7-1l4.1-2.6 3.4-3.9Q-16 75-15 72.3l-9-3.8-.8-.7q-.5-.5-.1-.8l.6-1.3.3-1.5.3.1.4.1.4-.6.3-1.8.3-1.4.1-.6-.3-.5h-.8q.5-1.6.4-3.1l-1-3q-1-1.3-2.3-2-1.6-.8-3.4-.8l-3.3.8q-1.4.8-2.3 2-.9 1.4-1 3-.3 1.5.3 3h-.2l-.5.1-.3.5v.6l.4 1.4v1l.3.8.4.6.4-.1.2-.1.3 1.5.8 1.3q.2.3-.3.8l-.8.8-9 3.7M-78 45.4l-2.8 4q-1.8 1.8-4.3 2.7-2.4 1-5.1 1V73q2.7 0 5.1 1 2.5 1 4.3 2.7 1.9 1.8 2.9 4 1 2.4 1 5h38.8q-2.8-1.7-5-4.4-2.1-2.5-3.5-5.5t-2.1-6.4q-.7-3.2-.7-6.4t.6-6.4q.8-3.3 2.1-6.3 1.5-3 3.6-5.6 2.2-2.6 5-4.3H-77q0 2.6-1 5m20.3 20.4l-1.5 2.3q-1.1 1-2.4 1.6l-3 .6-3-.6-2.5-1.6q-1-1-1.6-2.3-.5-1.3-.5-2.8 0-1.5.5-2.8Q-71 59-70 58q1.1-1 2.4-1.5 1.5-.6 3.1-.6 1.4 0 3 .6l2.4 1.5 1.5 2.4q.6 1.3.6 2.7l-.6 2.8m79.3-16.4q-1.9-1.8-2.9-4-1-2.4-1-5h-38.9q2.9 1.7 5 4.3 2.1 2.5 3.6 5.6 1.4 3 2.1 6.3l.6 6.4-.6 6.4q-.7 3.4-2.1 6.3-1.5 3.1-3.5 5.6-2.2 2.6-5.1 4.4h38.8q0-2.6 1.1-5 1-2.3 2.9-4 1.8-1.8 4.2-2.8 2.6-1 5.2-1V53.2q-2.6 0-5.2-1-2.4-1-4.3-2.7m-10.8 8.5l1.7 2.4.5 2.7-.6 2.8-1.6 2.3q-1 1-2.4 1.6l-3 .6-2.9-.6Q1 69.2 0 68.1q-1.1-1-1.6-2.3-.7-1.3-.7-2.8 0-1.5.6-2.8Q-1 59 0 58q1.1-1 2.5-1.5l3-.6q1.4 0 2.9.6 1.4.6 2.4 1.5z"/><path fill="#668848" d="M33.5 88V38H-92.9v50H33.6M18.6 45.4q1 2.3 2.9 4 1.8 1.8 4.2 2.7 2.6 1 5.2 1V73q-2.6 0-5.2 1-2.4 1-4.3 2.7-1.8 1.8-2.8 4-1 2.4-1 5h-38.9q2.9-1.8 5-4.4 2.1-2.5 3.6-5.5 1.4-3 2.1-6.4l.6-6.4-.6-6.4q-.7-3.3-2.1-6.3-1.5-3-3.5-5.6-2.2-2.6-5.1-4.3h38.8q0 2.6 1.1 5m-99.6 4l2.9-4q1-2.4 1-5h38.8q-2.8 1.7-5 4.3-2.1 2.5-3.5 5.6-1.4 3-2.1 6.3-.7 3.2-.7 6.4t.6 6.4q.8 3.4 2.1 6.3 1.5 3.1 3.6 5.6 2.2 2.7 5 4.4H-77q0-2.6-1-5-1-2.3-2.9-4-1.8-1.8-4.3-2.8-2.4-1-5.1-1V53.2q2.7 0 5.1-1 2.5-1 4.3-2.7m39.1 28q-1.6-2.4-2.5-5.1l9-3.8.8-.7q.5-.5.3-.8l-.8-1.3-.3-1.5-.2.1-.4.1-.5-.6-.1-.8-.1-1-.4-1.4V60l.3-.5h.7q-.5-1.6-.4-3.1.2-1.6 1.1-3 1-1.3 2.3-2l3.3-.8q1.8 0 3.4.8 1.3.8 2.3 2l1 3q.1 1.5-.4 3h.2l.6.1.3.5-.1.6-.4 1.4-.2 1.8-.4.6-.5-.1-.2-.1-.3 1.5-.6 1.3q-.4.3.1.8l.8.8 9 3.7q-.9 2.8-2.3 5.1l-3.5 3.9-4.1 2.6q-2.3 1-4.7 1l-4.7-1q-2.1-.9-4.1-2.6-2-1.6-3.3-3.9m-17.5-9.3l1.6-2.3.6-2.8q0-1.5-.6-2.8l-1.5-2.3-2.4-1.5q-1.5-.6-3-.6-1.7 0-3 .6-1.4.6-2.5 1.5-1 1-1.6 2.4-.5 1.3-.5 2.7 0 1.5.5 2.8.6 1.4 1.6 2.3l2.4 1.6 3.1.6 3-.6q1.3-.5 2.4-1.6m71.5-7.8l-1.6-2.4q-1-1-2.4-1.5-1.5-.6-3-.6l-2.9.6Q1 57 0 57.9q-1.1 1-1.6 2.4-.7 1.3-.7 2.7 0 1.5.6 2.8.6 1.4 1.6 2.3 1.1 1 2.5 1.6l3 .6 2.9-.6q1.4-.5 2.4-1.6l1.7-2.3.5-2.8-.6-2.8z"/><path fill="#759854" d="M45 28.6l-.1-3.3-63.4 1.1-69.2 1.3h-5.8l.1 4.6H39.5v54.5H46l-1-58.1z"/><animate attributeName="display" fill="freeze" repeatCount="1" begin="click" dur="0.452s" keyTimes="0;.143;.214;1" values="none;inline;none;none"/></g><g display="none" transform="translate(275 200)"><path fill="#596E41" d="M-114.3 9.3l-.3 5.1 98.4-1.7-98.1-3.4M75.5 98.5h-9.1v4.5l13 .4 3-87.3-8.2-.3 1.3 82.6z"/><path fill="#B7D986" d="M66.4 98.7V21H-130.5v87.4H66.4v-9.7m-8.5-69.5v71.2H-122V29.2H57.9m-109.2 9.5q3.1-3.7 7.1-6h-55.2q0 3.5-1.5 7l-4 5.7q-2.6 2.5-6.1 3.8-3.5 1.5-7.4 1.5V79q4 0 7.4 1.3 3.5 1.5 6 4 2.8 2.4 4.1 5.6 1.5 3.4 1.5 7h55.3q-4.1-2.3-7.2-6.1-3-3.5-5-7.9-2-4.2-3-9-.9-4.6-.9-9.2 0-4.5.9-9.1 1-4.6 3-8.9 2-4.4 5-8m-20.6 30.1l-2.2 3.3q-1.6 1.4-3.5 2.2l-4.2.8-4.3-.8-3.5-2.3q-1.4-1.3-2.2-3.2-.8-2-.8-4 0-2.1.8-4 .8-1.8 2.3-3.3 1.5-1.4 3.4-2.1 2-.9 4.3-.9 2.1 0 4.3.9l3.4 2 2.2 3.4q.9 1.9.9 4l-.9 4m44.7-20.6q-2.3-1.1-4.8-1.1l-4.8 1.1q-1.9 1.1-3.3 3-1.2 1.8-1.4 4-.3 2.3.5 4.5h-.3l-.8.1-.4.7.1.9.5 1.9.1 1.5.3 1 .7.9.5-.1.3-.3.5 2.3.9 1.8q.4.5-.3 1.3l-1 1-12.9 5.3q1.3 3.9 3.5 7.3 2 3.2 4.6 5.5 2.9 2.5 6 3.7l6.7 1.3q3.4 0 6.6-1.3l6-3.7 4.7-5.5q2.1-3.4 3.4-7.3l-12.8-5.3-1.1-1q-.7-.8-.2-1.3l.9-1.9.4-2.2.3.3.7.1.6-.9.2-1 .1-1.5.5-1.9.1-1-.4-.6-.8-.1h-.3q.8-2.3.6-4.5l-1.6-4q-1.3-1.9-3.1-3m74.1 1q-3.4-1.4-6-3.8-2.6-2.5-4.1-5.7-1.5-3.5-1.5-7H-20q4.1 2.3 7.2 6 3 3.6 5 8 2 4.3 3 8.9l.9 9.1-.9 9.2q-1 4.8-3 9-2 4.4-5 7.9-3.1 3.7-7.1 6.2h55.2q0-3.7 1.5-7.1 1.5-3.2 4-5.7 2.7-2.5 6.1-3.9 3.6-1.3 7.4-1.3V50.7q-3.8 0-7.4-1.5M22 55.3q2 .8 3.4 2.2l2.4 3.3.8 4-.8 4-2.4 3.3Q24 73.5 22 74.3l-4.2.8-4.2-.8q-2-.8-3.4-2.3-1.6-1.3-2.4-3.2-.8-2-.8-4 0-2.1.8-4 .8-1.8 2.4-3.3 1.5-1.4 3.4-2.1l4.2-.9q2.1 0 4.2.9z"/><path fill="#668848" d="M57.9 100.4V29.2H-122v71.2H57.9m-17-55q2.6 2.5 6 3.8 3.6 1.5 7.4 1.5V79q-3.8 0-7.4 1.3-3.4 1.5-6 4-2.6 2.4-4.1 5.6-1.5 3.4-1.5 7H-20q4.1-2.4 7.2-6.1 3-3.5 5-7.9 2-4.2 3-9l.9-9.2-.9-9.1q-1-4.6-3-8.9-2-4.4-5-8-3.1-3.7-7.1-6h55.2q0 3.5 1.5 7 1.5 3.2 4 5.7M-32 47.1q2.6 0 4.8 1.1 1.8 1.1 3.1 3l1.6 4q.2 2.3-.6 4.5h.3l.8.1.4.7-.1.9-.5 1.9-.1 1.5-.3 1-.5.9-.7-.1-.3-.3-.4 2.3-.9 1.8q-.5.5.1 1.3l1.2 1 12.8 5.3q-1.3 3.9-3.3 7.3l-4.8 5.5-6 3.7q-3.2 1.3-6.6 1.3l-6.7-1.3q-3.1-1.3-6-3.7-2.6-2.3-4.6-5.5-2.3-3.4-3.5-7.3l12.8-5.3 1.1-1q.7-.8.3-1.3l-1-1.9-.4-2.2-.3.3-.5.1-.8-.9-.2-1-.1-1.5-.5-1.9-.1-1 .5-.6.7-.1h.3q-.8-2.3-.5-4.5.2-2.2 1.5-4 1.3-1.9 3.3-3l4.7-1.1m-12.1-14.5q-4.1 2.4-7.2 6.1-3 3.6-5 8-2 4.3-3 8.9-.9 4.6-.9 9.1 0 4.6.9 9.2 1 4.8 3 9 2 4.4 5 7.9 3.1 3.8 7.1 6.2h-55.2q0-3.7-1.5-7.1-1.3-3.2-4-5.7-2.6-2.5-6.1-3.9-3.5-1.3-7.4-1.3V50.7q4 0 7.4-1.5 3.5-1.4 6-3.8l4.1-5.7q1.5-3.5 1.5-7h55.3m-30 39.3l2.2-3.2.9-4q0-2.1-.9-4l-2.2-3.3-3.5-2.1q-2-.9-4.2-.9-2.3 0-4.3.9-1.9.7-3.5 2-1.4 1.6-2.2 3.4-.8 1.9-.8 4 0 2 .8 4 .8 1.9 2.3 3.3l3.4 2.2 4.3.8 4.3-.8q1.8-.8 3.4-2.3m99.5-14.5Q24 56 22 55.4q-2.1-.9-4.2-.9l-4.2.9q-2 .7-3.4 2-1.6 1.6-2.4 3.4-.8 1.9-.8 4 0 2 .8 4 .8 1.9 2.4 3.3 1.5 1.4 3.4 2.2l4.2.8 4.2-.8q2-.8 3.4-2.3l2.4-3.2.8-4-.8-4-2.4-3.3z"/><path fill="#759854" d="M74.2 15.9l-.2-4.8-90.1 1.6-98.5 1.7-8.3.2.2 6.5H66.3v77.6l9.1-.2L74.3 16z"/><animate attributeName="display" fill="freeze" repeatCount="1" begin="click" dur="0.452s" keyTimes="0;.071;.143;1" values="none;inline;none;none"/></g><g transform="translate(275 200)"><path fill="#596E41" d="M114.1 3.5l-10.7-.4 1.8 107.3-11.9.2v5.8l16.8.4 4-113.3M-13.8-1l-127.4-4.5-.3 6.8L-13.8-1z"/><path fill="#B7D986" d="M-162.2 9.9v113.3H93.3V10h-255.4m11 102.9V20.5H82.2v92.3h-233.4m91.8-80q4-4.8 9.3-7.8h-71.8q0 4.6-1.8 9l-5.4 7.5q-3.3 3.1-7.8 4.9-4.4 1.9-9.6 1.9V85q5.2 0 9.6 1.8 4.5 1.9 7.8 5 3.6 3.3 5.3 7.4 2 4.5 2 9.1h71.7q-5.3-3-9.3-8-3.9-4.5-6.6-10.2-2.5-5.4-3.8-11.7-1.2-5.9-1.2-11.9 0-5.9 1.2-11.8 1.3-6 3.8-11.5 2.8-5.8 6.6-10.4M-99 53.3q2.8 0 5.5 1.1l4.5 2.7 2.8 4.4q1.2 2.4 1.2 5l-1.2 5.3L-89 76q-2.1 2-4.5 2.9L-99 80l-5.5-1.1-4.5-2.9q-2-1.8-2.9-4.2-1.1-2.5-1.1-5.3 0-2.6 1.1-5 1-2.5 2.9-4.4 2-1.8 4.5-2.7 2.5-1.1 5.5-1.1m75-4.3q-1.8-2.5-4.2-3.9-2.9-1.5-6.3-1.5l-6 1.5q-2.6 1.4-4.4 3.9-1.6 2.4-1.9 5.3-.3 2.8.7 5.7h-.4l-.9.1-.6.9.1 1.3.6 2.4.2 1.8.4 1.5.9 1.1.6-.1.4-.3.6 2.8 1.3 2.5q.4.5-.4 1.5l-1.4 1.3-16.6 6.9q1.6 5.1 4.4 9.5 2.6 4.1 6.1 7.1 3.7 3.3 7.7 4.9l8.6 1.7q4.6 0 8.7-1.8l7.7-4.8 6.3-7.1q2.7-4.4 4.3-9.5l-16.7-6.9-1.4-1.3q-.8-1-.2-1.5l1.2-2.5.6-2.8.3.3.8.1.8-1.1.3-1.5.2-1.8.6-2.5.1-1.3-.6-.8-1-.1h-.3q1-2.9.7-5.8l-2-5.3m5.4-24q5.3 3.1 9.3 7.9 3.8 4.7 6.5 10.4Q-.4 48.6 1 54.7l1 11.8-1 11.9Q-.4 84.7-3 90.1q-2.7 5.8-6.5 10.3-4 4.8-9.3 8H53q0-4.7 1.9-9.2 1.9-4.2 5.3-7.4 3.3-3.1 7.8-5 4.7-1.8 9.6-1.8V48.3q-5 0-9.6-1.9-4.5-1.8-7.9-5-3.3-3.1-5.2-7.4-2-4.4-2-9h-71.7m49 28.3q2.8 0 5.5 1.1 2.5 1 4.4 2.7l3.1 4.4 1 5-1 5.3-3 4.2q-2 2-4.5 2.9L30.2 80l-5.4-1.1q-2.6-1-4.5-2.9-2-1.8-3-4.2-1.2-2.5-1.2-5.3 0-2.6 1.1-5 1-2.5 3.1-4.4 2-1.8 4.5-2.7l5.4-1.1z"/><path fill="#668848" d="M-151.2 20.4v92.4H82.3V20.5h-233.4M-9.3 32.8q-4-4.8-9.3-7.8H53q0 4.6 1.9 9 1.9 4.3 5.3 7.5 3.3 3.1 7.8 4.9 4.7 1.9 9.6 1.9V85q-5 0-9.6 1.8-4.5 1.9-7.9 5-3.3 3.3-5.2 7.4-2 4.5-2 9.1h-71.7q5.4-3.1 9.4-8 3.8-4.5 6.5-10.2Q-.4 84.7 1 78.4l1-11.9-1-11.8q-1.3-6-3.9-11.5-2.7-5.8-6.5-10.4m-18.8 12.3q2.4 1.4 4.1 3.9l2 5.3q.3 2.8-.6 5.7h.3l1 .1.5.9-.1 1.3-.6 2.4-.2 1.8-.3 1.5-.8 1.1-.8-.1-.4-.3-.5 2.8-1.2 2.5q-.6.5.2 1.5l1.4 1.3 16.6 6.9q-1.6 5.1-4.3 9.5l-6.2 7.1-7.7 4.9q-4.1 1.7-8.7 1.7l-8.6-1.8q-4-1.5-7.6-4.8-3.6-3-6.1-7.1-2.9-4.4-4.6-9.5l16.7-6.9 1.5-1.3q.8-1 .3-1.5l-1.3-2.5-.6-2.8-.4.3-.6.1-1-1.1-.3-1.5-.1-1.8-.7-2.5-.1-1.3.6-.8 1-.1h.3q-1-2.9-.6-5.8.3-2.9 1.9-5.3 1.7-2.4 4.3-3.8l6-1.5q3.4 0 6.3 1.5m-21.9-20.2q-5.3 3.1-9.3 7.9-3.9 4.7-6.6 10.4-2.5 5.4-3.8 11.5-1.2 6-1.2 11.8 0 6 1.2 11.9 1.3 6.3 3.8 11.7 2.8 5.8 6.6 10.3 4 4.9 9.3 8h-71.8q0-4.7-1.8-9.2-1.8-4.2-5.4-7.4-3.3-3.1-7.8-5-4.4-1.8-9.6-1.8V48.3q5.2 0 9.6-1.9 4.5-1.8 7.8-5l5.3-7.4q2-4.4 2-9h71.7m-43.4 29.4q-2.7-1.1-5.5-1.1-3 0-5.5 1.1-2.5 1-4.5 2.7-2 2-2.9 4.4-1.1 2.4-1.1 5 0 2.8 1.1 5.3 1 2.5 2.9 4.2l4.5 2.9L-99 80l5.5-1.1q2.4-1 4.5-2.9l2.8-4.2 1.2-5.3q0-2.6-1.2-5L-89 57l-4.5-2.7m129.2 0q-2.8-1.1-5.5-1.1l-5.4 1.1q-2.6 1-4.5 2.7-2 2-3 4.4-1.2 2.4-1.2 5 0 2.8 1.1 5.3 1 2.5 3.1 4.2 2 2 4.5 2.9l5.4 1.1 5.5-1.1q2.5-1 4.4-2.9l3.1-4.2 1-5.3-1-5-3-4.4q-2-1.8-4.5-2.7z"/><path fill="#759854" d="M-141.5 1.3l-10.8.1.2 8.5H93.3v100.7l11.9-.2-1.8-107.3-.2-6.2-117 2.1-127.7 2.3z"/><animate attributeName="display" fill="freeze" repeatCount="1" begin="click" dur="0.452s" keyTimes="0;.071;1" values="inline;none;none"/></g><animate attributeName="display" fill="freeze" repeatCount="1" begin="click" dur="0.452s" keyTimes="0;.929;1" values="inline;none;none"/></g></svg>