<svg xmlns="http://www.w3.org/2000/svg" baseProfile="basic" width="695" height="477" viewBox="0 0 695 477" preserveAspectRatio="xMinYMin meet"><g overflow="visible"><path fill="#FFF" d="M704 483.4V-5.8H-8v489.2h712"/><path fill="#C2E3EA" d="M473.3 107.4q-26.5-26.6-61-41.1-35.6-15.1-74.6-15.1-39 0-74.6 15-34.4 14.6-61 41.2-26.5 26.5-41.1 60.9-15 35.6-15 74.6 0 39 15 74.7 14.6 34.4 41.1 60.9 26.6 26.6 61 41.1 35.6 15 74.6 15 39 0 74.7-15 34.4-14.5 60.9-41.1 26.6-26.5 41.1-61 15-35.6 15-74.6 0-39-15-74.6-14.5-34.4-41.1-61"/><path fill="#E7E7E7" d="M230.7 418.1q23.7 14.4 50.2 22 27.4 7.8 56 7.8 35.7 0 69-12 32.2-11.5 59-33l-234.2 15.2"/><path fill="#1A344F" d="M231.4 417q-.5-.2-1-.1-.5.2-.7.6-.3.4-.2.9.1.5.6.8 24 14.7 51.3 22.3 27.2 7.6 55.6 7.6 35 0 68.2-11.6 33.3-11.7 60.5-33.6.4-.3.5-.8 0-.5-.3-1t-.9-.4q-.5-.1-.9.3-27.3 21.9-59.6 33.3-32.4 11.3-67.5 11.3-28 0-55-7.5-26.8-7.5-50.6-22m267.3-297.6q-.1.5.3.9 3.2 4.3 5.5 7.7.4.6 1 .6.5 0 .8-.2.4-.3.5-.8l-.2-1-5.6-7.8q-.4-.4-.9-.5-.5 0-.9.3t-.5.8"/><path fill="#E7E7E7" d="M423.5 57.9q-7.3-3.4-14.5-6.1l77.9 52.3q-27.3-29.3-63.4-46.2"/><path fill="#1A344F" d="M486.9 105.4q.5 0 .8-.4.4-.3.5-.8 0-.5-.4-1-27.3-29.4-63.8-46.5-7.2-3.3-14.6-6.1-.5-.2-1 0-.4.2-.6.7-.2.5 0 1t.7.6q7.4 2.8 14.4 6.1 36 16.8 63 46 .5.4 1 .4M216 409.5q.6 0 1-.5.3-.4.3-1-.1-.4-.5-.7-4.7-3.4-9.7-7.6-.4-.3-1-.3-.4 0-.8.5t-.3.9q0 .5.5.8 4.4 3.7 9.8 7.7.3.2.7.2"/><path fill="#C2E3EA" d="M473.3 107.4q-26.5-26.6-61-41.1-35.6-15.1-74.6-15.1-39 0-74.6 15-34.4 14.6-61 41.2-26.5 26.5-41.1 60.9-15 35.6-15 74.6 0 39 15 74.7 14.6 34.4 41.1 60.9 26.6 26.6 61 41.1 35.6 15 74.6 15 39 0 74.7-15 34.4-14.5 60.9-41.1 26.6-26.5 41.1-61 15-35.6 15-74.6 0-39-15-74.6-14.5-34.4-41.1-61"/><path fill="#ACD3DE" d="M497.2 134.9l-7.2-8.4H185.4l-5.7 7.9 317.5.5"/><path fill="#1A344F" d="M474.1 106.6q-26.7-26.8-61.3-41.4Q376.9 50 337.7 50q-39.2 0-75 15.2-34.6 14.6-61.4 41.4-26.7 26.7-41.4 61.3-15.2 35.8-15.2 75t15.2 75q14.7 34.7 41.4 61.4 26.8 26.8 61.4 41.4 35.8 15.2 75 15.2t75-15.2q34.7-14.6 61.4-41.4 26.8-26.7 41.4-61.3 15.2-35.9 15.2-75.1 0-39.2-15.2-75-14.6-34.6-41.4-61.3m-62.3-39.1q34.2 14.4 60.6 40.8t40.8 60.6q15 35.3 15 74t-15 74.1q-14.4 34.2-40.8 60.6t-60.6 40.8q-35.4 15-74.1 15-38.7 0-74.1-15-34.1-14.4-60.5-40.8T162.2 317q-15-35.4-15-74.1 0-38.6 15-74 14.5-34.2 40.9-60.6t60.5-40.8q35.4-15 74.1-15 38.7 0 74.1 15"/><path fill="#CABAB2" d="M561.2 380V134.9h-441V380h441"/><path fill="#1A344F" d="M562.4 134.9q0-.5-.3-1-.4-.3-1-.3H120.3q-.5 0-.8.4-.4.4-.4.9V380q0 .5.4.9.3.4.8.4h441q.5 0 .9-.4t.3-.9V134.9m-2.5 243.9H121.5V136h438.4v242.7"/><path fill="#4F5051" d="M551 357V145H130.4v212h420.8"/><path fill="#3D3E3F" d="M172.2 177.7q-.8-12.3 0-23.8l1-9h-42.9v212q65.2.5 137.7.7 145.1.5 182.2-.6-108.1-1-176-34.3-54.3-26.6-80.5-72.7-18.7-33-21.5-72.3"/><path fill="#E4DAD6" d="M578.3 369.9v-13H108.6v13h469.7"/><path fill="#1A344F" d="M578.3 371.2q.6 0 .9-.4t.4-.9v-13q0-.4-.4-.8t-.9-.4H108.6q-.5 0-1 .4-.3.4-.3.9v12.9q0 .6.4.9.4.4.9.4h469.7m-1.2-2.5H109.8v-10.5h467.3v10.5"/><path fill="#7AC7EE" d="M467.6 341.5q-4.3 4.3-4.3 10.4v5h47.2v-5q0-6.1-4.4-10.4-4.3-4.3-10.4-4.3H478q-6.1 0-10.5 4.3"/><path fill="#1A344F" d="M462 351.9v5q0 .6.4 1 .4.3.9.3h47.2q.5 0 .9-.3t.3-1v-5q0-6.6-4.7-11.3-4.7-4.7-11.3-4.7H478q-6.6 0-11.3 4.7-4.7 4.7-4.7 11.3m2.5 0q0-5.6 3.9-9.5 4-4 9.6-4h17.6q5.6 0 9.5 4 4 3.9 4 9.5v3.8h-44.6v-3.8"/><path fill="#E7E7E7" d="M146 351.8v5.2h35.8v-5.2H146"/><path fill="#1A344F" d="M146 350.5q-.5 0-.9.4t-.4.9v5.2q0 .5.4.9.4.3.9.3h35.8q.6 0 .9-.3t.4-1v-5.1q0-.5-.4-1-.3-.3-.9-.3H146m1.2 2.5h33.4v2.7h-33.4V353"/><path fill="#E7E7E7" d="M220 339.5l-1.7 4.9 33.8 11.8 1.7-5-33.8-11.7"/><path fill="#1A344F" d="M220.4 338.3q-.5-.2-1 0-.4.3-.6.8l-1.7 4.9q-.2.5 0 .9.3.5.8.7l33.8 11.8h.4q.8 0 1.2-.8l1.7-5q.2-.3-.1-.9-.2-.4-.7-.6l-33.8-11.8m.4 2.8l31.4 11-.9 2.5-31.4-11 .9-2.5"/><path fill="#E7E7E7" d="M188.4 351.8v5.2h35.8v-5.2h-35.8"/><path fill="#1A344F" d="M188.4 350.5q-.5 0-1 .4-.3.4-.3.9v5.2q0 .5.4.9.4.3.9.3h35.8q.5 0 .9-.3t.3-1v-5.1q0-.5-.3-1-.4-.3-1-.3h-35.7m1.2 2.5h33.3v2.7h-33.3V353"/><path fill="#E7E7E7" d="M188.4 346.8v5.2h35.8v-5.2h-35.8"/><path fill="#1A344F" d="M188.4 345.6q-.5 0-1 .3-.3.4-.3.9v5.2q0 .6.4.9.4.4.9.4h35.8q.5 0 .9-.4t.3-.9v-5.2q0-.5-.3-.9-.4-.3-1-.3h-35.7m1.2 2.5h33.3v2.7h-33.3V348"/><path fill="#1A344F" d="M552.3 145q0-.5-.3-1-.4-.3-1-.3H130.4q-.5 0-.9.4-.3.4-.3.9v212q0 .5.3.9.4.3.9.3h420.8q.5 0 .9-.3t.3-1V145m-2.5 210.8H131.6V146.2h418.2v209.5"/><path fill="#99C977" d="M356.4 33.4v-2.1q0-5-3.5-8.5t-8.5-3.5h-14.8q-5 0-8.5 3.5t-3.5 8.5v2.1h38.8"/><path fill="#FFF" d="M337 60.7q-11.7 0-20 8.3t-8.3 20q0 11.7 8.3 20t20 8.3q11.7 0 20-8.3t8.3-20q0-11.7-8.3-20t-20-8.3"/><path fill="#1A344F" d="M338.2-6h-2.5v25.3q0 .5.4.9.4.3.9.3t.9-.3.3-1V-5.8"/><path fill="#BBB" d="M365 92.2l.3-3.2q-13.5-.8-27.4-1.2-27.6-.9-29.2 1.2-1.5 2-.4 4.9.5 1.4 1.4 2.4l55.4-4.1"/><path fill="#1A344F" d="M337 59.5q-12.2 0-20.9 8.6-8.6 8.7-8.6 20.9t8.6 20.9q8.7 8.6 20.9 8.6t20.9-8.6q8.6-8.7 8.6-21 0-12.1-8.6-20.8-8.7-8.6-21-8.6m19.2 10.4q7.9 7.9 7.9 19 0 11.3-7.9 19.2-8 7.9-19.1 7.9t-19.1-7.9q-8-8-8-19.1 0-11.2 8-19.1 7.9-8 19-8 11.3 0 19.2 8"/><path fill="#99C977" d="M403.2 88v-8.3q0-19.2-13.6-32.7-13.6-13.6-32.7-13.6H317q-19.2 0-32.7 13.6t-13.6 32.7V88h132.4"/><path fill="#8AB860" d="M333.2 19.3q-3.6 0-9.1 1.3-3.4.8-5.5 6.9-1.1 3-1.5 5.9l27.3-.5q-8.9-.3-11-7-.6-2.1-.5-4.6l.3-2"/><path fill="#1A344F" d="M357.3 34.3q.3-.3.3-.9v-2.1q0-5.5-3.9-9.4-3.8-3.9-9.3-3.9h-14.8q-5.5 0-9.4 3.9-3.9 3.9-3.9 9.4v2.1q0 .5.4.9t.9.4h38.8q.5 0 .9-.4m-27.7-13.8h14.8q4.4 0 7.6 3.2 3.1 3.1 3.1 7.6v.9h-36.3v-1q0-4.3 3.2-7.5t7.6-3.2"/><path fill="#8AB860" d="M310.9 42l1-8.6q-29 7.4-38 31.7-4.4 12.2-3.1 22.9h88.3q-36.3-1-45.5-27-3-8.5-2.7-19"/><path fill="#1A344F" d="M403.2 89.2q.5 0 .9-.3t.3-1v-8.2q0-19.6-14-33.6-13.9-14-33.5-14H317q-19.7 0-33.6 14-14 14-14 33.6V88q0 .5.4.9.4.3.9.3h132.4m-1.3-2.5H272.1v-7q0-18.6 13.2-31.8T317 34.7h39.8q18.6 0 31.8 13.2t13.2 31.8v7"/><g mask="url(#a)"><g transform="translate(340.6 231.6)"><animateTransform attributeName="transform" additive="replace" type="translate" repeatCount="indefinite" dur="6.9s" keyTimes="0;0.094;0.095;0.196;0.197;0.297;0.298;0.398;0.399;0.5;0.501;0.601;0.602;0.703;0.704;0.804;0.805;0.906;0.907;1" values="340.65,231.55;340.65,231.55;305.35,231.55;305.35,231.55;270.05,231.55;270.05,231.55;234.7,231.55;234.7,231.55;199.35,231.55;199.35,231.55;163.5,231.55;163.5,231.55;128.15,231.55;128.15,231.55;92.8,231.55;92.8,231.55;56.95,231.55;56.95,231.55;21.65,231.55;21.65,231.55" calcMode="discrete"/><path fill="#E7E7E7" d="M53.1-50.4h-2.5v8.3H39.1v23.6h11.6v12h2.5v-12H66v-23.6H53v-8.3M17.9-15.9v-7.8h-2.4v7.8H3.8V.2h11.6v10.5h2.5V.3h12.8V-16H17.9m103.4-7.7v7.8h-11.6V15h11.6v5.5h2.5V15h12.8V-16h-12.8v-7.7h-2.5m-32.9 7.8v-7.8h-2.5v7.8H74.4V.2h11.5v10.5h2.5V.3h12.9V-16H88.4m70.6 2.2h-2.5V.7H145v9.4h11.5v10.4h2.5V10.1h12.9V.7H159v-14.6M229.6-4v-4.5h-2.5v4.5h-11.5v19.5h11.5v10.4h2.5V15.5h12.9V-4.1h-12.9m35.3-29h-2.4v14.6h-11.6v39h11.6v12.7h2.4V20.6h12.9v-39.1H265v-14.6m35.2 21.9h-2.5V3.3h-11.5v9.4h11.5v10.5h2.5V12.8h12.9V3.3h-12.9v-14.5m70.7-4.8v-7.7h-2.5v7.8h-11.6V.2h11.6v10.5h2.5V.3h12.8V-16h-12.8M392-42v23.6h11.6v12h2.5v-12H419v-23.6h-13v-8.3h-2.4v8.3H392m49.3 26.2v-7.8h-2.5v7.8h-11.5V.2h11.5v10.5h2.5V.3h12.9V-16h-12.9m35.4-7.7h-2.6v7.8h-11.5V15h11.6v5.5h2.4V15h12.9V-16h-12.8v-7.7m35.3 9.8h-2.5V.8h-11.5v9.4h11.5v10.4h2.5V10.1h13V.7h-13v-14.6M335.5 13.4H333v2.5h-11.5v9.4H333v10h2.5v-10h12.9v-9.5h-12.9v-2.5M207.2 40v-9.3h-12.9V16h-2.5v14.6h-11.5V40h11.5v10.4h2.5V40h12.9M-123.4-4.1v-4.5h-2.5v4.5h-11.5v19.5h11.5v10.4h2.5V15.4h12.9V-4.1h-12.9M-88-18.6V-33h-2.5v14.6h-11.6v39h11.6v12.7h2.5V20.6h12.8v-39.1H-88m35.2 7.3h-2.5V3.3h-11.5v9.4h11.5v10.5h2.5V12.8h12.9V3.3h-12.9v-14.5M-20 13.3v2.5h-11.5v9.4H-20v10h2.5v-10h12.9V16h-12.9v-2.6H-20M-158.7 16h-2.5v14.6h-11.5V40h11.5v10.5h2.5V40h12.9v-9.4h-12.9V16"/></g></g><mask id="a"><path fill="#FFF" d="M512.3 344.3V153.7H166.1v190.6h346.2"/></mask><g transform="translate(343.3 270.6)"><animateTransform attributeName="transform" additive="replace" type="translate" dur="6.9s" keyTimes="0;1" values="0,0;0,0" fill="freeze"/><animateTransform attributeName="transform" additive="sum" type="translate" repeatCount="indefinite" dur="6.9s" keyTimes="0;0.384;0.391;0.399;0.406;0.413;0.42;0.435;0.442;0.449;0.457;0.594;0.601;0.609;0.616;0.623;0.63;0.638;0.645;0.652;0.659;0.667;0.674;0.681;0.688;0.696;0.703;0.71;0.855;0.861;0.862;1" values="343.3,270.65;343.3,270.65;343.25,270.7;343.3,270.65;343.35,270.7;343.35,270.65;343.3,270.7;343.3,270.7;343.25,270.7;343.3,270.7;343.3,270.65;343.3,270.65;343.35,270.6;343.3,270.7;343.35,270.65;343.35,270.65;343.3,270.65;343.3,270.6;343.35,270.6;343.3,270.65;343.35,270.65;343.3,270.65;343.35,270.7;343.35,270.65;343.35,270.6;343.3,270.65;343.3,270.7;343.3,270.65;343.3,270.65;343.25,270.65;0;0" calcMode="discrete"/><animateTransform attributeName="transform" additive="sum" type="translate" repeatCount="indefinite" dur="6.9s" keyTimes="0;0.862;0.87;0.877;0.884;0.891;0.899;0.906;0.913;0.92;0.928;0.935;0.942;0.949;0.957;0.964;0.971;0.978;0.986;0.993;1" values="0;343.25,270.65;343.35,270.7;343.35,270.7;343.35,270.75;343.35,270.75;343.35,270.7;343.35,270.7;343.3,270.75;343.3,270.7;343.3,270.65;343.35,270.65;343.35,270.7;343.25,270.7;343.3,270.65;343.25,270.65;343.25,270.7;343.35,270.65;343.3,270.65;343.3,270.6;343.3,270.65" calcMode="discrete"/><animateTransform attributeName="transform" additive="sum" type="rotate" repeatCount="indefinite" dur="6.9s" keyTimes="0;0.138;0.145;0.152;0.159;0.167;0.174;0.181;0.188;0.196;0.203;0.21;0.217;0.225;0.232;0.239;0.246;0.341;0.348;0.355;0.362;0.37;0.377;0.384;0.391;0.399;0.406;0.413;0.42;0.427;0.428;1" values="0,0,0;0,0,0;2.289,0,0;4.535,0,0;6.549,0,0;8.52,0,0;10.258,0,0;11.763,0,0;13.036,0,0;14.266,0,0;15.263,0,0;16.027,0,0;16.56,0,0;17.047,0,0;17.302,0,0;17.481,0,0;17.323,0,0;17.323,0,0;17.481,0,0;14.305,0,0;11.525,0,0;8.801,0,0;6.504,0,0;4.261,0,0;2.261,0,0;0.313,0,0;-1.02,0,0;-2.302,0,0;-3.53,0,0;-4.518,0,0;0;0" calcMode="discrete"/><animateTransform attributeName="transform" additive="sum" type="rotate" repeatCount="indefinite" dur="6.9s" keyTimes="0;0.428;0.435;0.442;0.449;0.457;0.464;0.565;0.572;0.58;0.587;0.594;0.601;0.609;0.616;0.623;0.63;0.638;0.645;0.652;0.659;0.667;0.674;0.681;0.688;0.696;0.703;0.71;0.717;0.724;0.725;1" values="0;-4.518,0,0;-5.265,0,0;-5.772,0,0;-6.039,0,0;-6.254,0,0;-6.253,0,0;-6.253,0,0;-6.254,0,0;-3.798,0,0;-1.56,0,0;0.271,0,0;2.26,0,0;4.033,0,0;5.776,0,0;7.302,0,0;8.8,0,0;10.268,0,0;11.518,0,0;12.551,0,0;13.556,0,0;14.529,0,0;15.286,0,0;15.824,0,0;16.522,0,0;16.813,0,0;17.076,0,0;17.309,0,0;17.481,0,0;17.323,0,0;0;0" calcMode="discrete"/><animateTransform attributeName="transform" additive="sum" type="rotate" repeatCount="indefinite" dur="6.9s" keyTimes="0;0.725;0.841;0.848;0.855;0.861;0.862;1" values="0;17.323,0,0;17.323,0,0;17.481,0,0;14.805,0,0;12.557,0,0;0;0" calcMode="discrete"/><animateTransform attributeName="transform" additive="sum" type="rotate" repeatCount="indefinite" dur="6.9s" keyTimes="0;0.862;0.87;0.877;0.884;0.891;0.899;0.906;0.913;0.92;0.928;0.935;0.942;0.949;0.957;0.964;0.971;0.978;0.986;0.993;1" values="0;12.557,0,0;10.775,0,0;9.263,0,0;8.025,0,0;7.061,0,0;6.558,0,0;6.552,0,0;6.014,0,0;5.513,0,0;5.012,0,0;4.51,0,0;4.01,0,0;3.508,0,0;3.007,0,0;2.505,0,0;2.005,0,0;1.503,0,0;1.003,0,0;0.502,0,0;0,0,0" calcMode="discrete"/><animateTransform attributeName="transform" additive="sum" type="scale" repeatCount="indefinite" dur="6.9s" keyTimes="0;0.145;0.152;0.188;0.196;0.232;0.239;0.246;0.341;0.348;0.355;0.362;0.377;0.384;0.42;0.427;0.428;1" values="1,1;1,1;0.999,0.999;0.999,0.999;0.998,0.998;0.998,0.998;0.999,0.999;0.998,0.998;0.998,0.998;0.999,0.999;0.998,0.998;0.999,0.999;0.999,0.999;1,1;1,1;0.999,0.999;1;1" calcMode="discrete"/><animateTransform attributeName="transform" additive="sum" type="scale" repeatCount="indefinite" dur="6.9s" keyTimes="0;0.428;0.449;0.457;0.464;0.565;0.572;0.609;0.616;0.652;0.659;0.71;0.717;0.724;0.725;1" values="1;0.999,0.999;0.999,0.999;1,1;0.999,0.999;0.999,0.999;1,1;1,1;0.999,0.999;0.999,0.999;0.998,0.998;0.998,0.998;0.999,0.999;0.998,0.998;1;1" calcMode="discrete"/><animateTransform attributeName="transform" additive="sum" type="scale" repeatCount="indefinite" dur="6.9s" keyTimes="0;0.725;0.841;0.848;0.855;0.861;0.862;1" values="1;0.998,0.998;0.998,0.998;0.999,0.999;0.998,0.998;0.998,0.998;1;1" calcMode="discrete"/><animateTransform attributeName="transform" additive="sum" type="scale" repeatCount="indefinite" dur="6.9s" keyTimes="0;0.862;0.87;0.957;0.964;1" values="1;0.998,0.998;0.999,0.999;0.999,0.999;1,1;1,1" calcMode="discrete"/><path fill="#F9D790" d="M197.9-28l-2.3-13.1-393.4 69.3 2.3 13.1L197.9-28"/><path fill="#1A344F" d="M196.8-41.4q0-.5-.5-.8-.4-.2-.9-.2L-198 27q-.5 0-.8.5-.3.4-.2.9l2.3 13.2q.1.5.5.8.3.2.7.2h.2l393.4-69.4q.6-.1.9-.5.3-.5.2-1l-2.4-13.1m-.3 12.4l-391 68.9-1.8-10.7 390.9-68.9 1.9 10.7"/><path fill="#1A344F" d="M142.6-31.8q-.1-.5-.5-.8-.4-.3-1-.2-.5 0-.8.5-.2.4-.2.9l1.2 6.6q.1 1 1.2 1h.2q.6-.1.8-.5.3-.4.2-1l-1.1-6.5m10.2-1.8q-.1-.5-.6-.8-.4-.3-.9-.2-.5 0-.8.5-.3.4-.2.9l1.1 6.6q.3 1 1.3 1h.2q.5-.1.8-.5.3-.4.2-1l-1.1-6.5m10.1-1.8q-.1-.5-.5-.8-.4-.3-1-.2-.4.1-.7.5-.3.5-.2 1l1.1 6.5q.2 1 1.2 1h.3q.5 0 .8-.5.3-.4.2-1l-1.2-6.5m7.9-2.3l-.2 1 1.2 6.5q0 .5.4.8t.8.3l.2-.1q.6 0 .8-.5.3-.4.2-1l-1.1-6.5q-.1-.5-.5-.8-.4-.3-1-.2-.5.1-.8.5m10.2-1.8q-.3.4-.2 1l1.1 6.5q.3 1 1.3 1h.2q.5 0 .8-.5.3-.4.2-1l-1.1-6.5q-.1-.5-.6-.8-.4-.3-.9-.2-.5.1-.8.5m-362.6 71.6l-1.2-6.5q0-.5-.5-.8-.4-.3-1-.2-.4 0-.7.5-.3.4-.2.9l1.1 6.6q0 .4.5.7.3.3.7.3h.3q.5-.1.8-.5.3-.5.2-1m9-8.3q-.1-.5-.5-.8-.4-.3-1-.2-.5 0-.8.5-.2.4-.2.9l1.2 6.6q0 .4.4.7t.8.3h.2q.6-.1.8-.5.3-.4.2-1l-1.1-6.5m9.6-2.6q-.4-.3-.9-.2-.5 0-.8.5-.3.4-.2.9l1.2 6.6q.2 1 1.2 1h.2q.5-.1.8-.5.3-.4.2-1l-1.1-6.5q-.1-.5-.6-.8m10.7-1q0-.5-.5-.8-.4-.3-1-.2-.4 0-.7.5-.3.4-.2.9l1.1 6.6q.1.4.5.7t.8.3h.2q.5-.1.8-.5.3-.4.2-1l-1.2-6.5m10.2-1.8q-.1-.5-.5-.8-.4-.3-1-.2-.5 0-.8.5-.2.4-.2.9l1.2 6.6q.1 1 1.2 1h.2q.5-.1.9-.5.3-.4.2-1l-1.2-6.5m10.2-1.8q-.1-.5-.6-.8-.4-.3-.9-.2-.5 0-.8.5-.3.4-.2.9l1.2 6.6q.1 1 1.2 1h.2q.5-.1.8-.5.3-.4.2-1l-1.1-6.5m10.1-1.8q0-.5-.5-.8-.4-.3-1-.2-.4.1-.7.5-.3.4-.2.9l1.1 6.6q.2 1 1.3 1h.2q.5 0 .8-.5.3-.4.2-1l-1.2-6.5m11.4 4.8l-1.2-6.6q-.1-.5-.5-.8-.4-.3-1-.2-.5.1-.8.5l-.2 1 1.2 6.5q.1 1 1.2 1h.2q.5 0 .9-.5.3-.4.2-1m8.4-9.1q-.4-.3-.9-.2-.5.1-.8.5-.3.5-.2 1l1.2 6.5q.2 1 1.2 1h.2q.5 0 .8-.5.3-.4.2-1l-1.1-6.5q-.1-.5-.6-.8m10.2-1.8q-.4-.2-1-.2-.4.1-.7.5-.3.5-.2 1l1.1 6.5q.1.5.5.8t.8.3l.2-.1q.5 0 .8-.5.3-.4.2-1l-1.2-6.5q0-.5-.5-.8m10.7-1q-.1-.5-.5-.8-.4-.2-1-.2-.5.1-.7.5-.3.5-.3 1l1.2 6.5q.2 1 1.2 1h.2q.5 0 .9-.5.3-.4.2-.9l-1.2-6.6M-71 5.9q-.1-.5-.6-.8-.4-.3-.9-.3-.5.1-.8.6-.3.4-.2.9l1.2 6.5q.1 1 1.2 1h.2q.5 0 .8-.5.3-.4.2-.9l-1.1-6.5M-60.8 4q0-.5-.5-.8-.4-.3-1-.3-.4.1-.7.6-.3.4-.2.9l1.1 6.6q.2 1 1.3 1h.2q.5-.1.8-.6.3-.4.2-.9l-1.2-6.5m10.2-1.8q-.1-.5-.5-.8-.4-.3-1-.2-.4 0-.7.5-.3.4-.3.9l1.2 6.6q.2 1 1.2 1h.2q.5-.1.9-.5.3-.4.2-1l-1.2-6.5M-39.5 8q.3-.4.2-1L-40.4.5q-.1-.6-.5-.8-.5-.3-1-.2-.5 0-.8.5-.3.4-.2.9l1.2 6.6q.2 1 1.2 1h.2q.5-.1.8-.5m8.7-10.1q-.4-.3-1-.2-.4 0-.7.5-.3.4-.2.9l1.1 6.6q.1.4.5.7t.8.3h.2q.5-.1.8-.5.3-.4.2-1l-1.2-6.5q0-.5-.5-.8M-20.6-4q-.4-.3-1-.2-.4 0-.7.5-.3.4-.3.9l1.2 6.6q.2 1 1.2 1h.2q.5-.1.9-.5.3-.4.2-1l-1.2-6.5q-.1-.5-.5-.8m8.4-1.5q-.3.4-.2.9l1.2 6.6q0 .4.4.7t.8.3h.2q.5-.1.8-.5.3-.4.2-1l-1.1-6.5q-.1-.5-.5-.8-.4-.3-1-.2-.5 0-.8.5M-2-7.2q-.3.4-.2.9L-1.1.3q.2 1 1.3 1h.2q.5-.1.8-.5.3-.4.2-1L.2-6.6q0-.5-.5-.8-.4-.3-1-.2-.4 0-.7.5M8.2-9q-.3.4-.3.9l1.2 6.6q.2 1 1.2 1h.2q.5-.1.9-.5.3-.4.2-1l-1.2-6.5q-.1-.5-.5-.8-.4-.3-1-.2-.4 0-.7.5m10.1-1.8q-.3.5-.2 1l1.2 6.5q.1 1 1.2 1h.2q.5 0 .8-.5.3-.4.2-1l-1.1-6.5q-.1-.5-.5-.8-.4-.3-1-.2-.5.1-.8.5m11.1 5.7q.1.5.5.8t.8.3l.2-.1q.5 0 .8-.5.3-.4.2-1L30.7-12q0-.5-.5-.8-.4-.3-1-.2-.4.1-.7.5-.3.5-.2 1l1.1 6.5m10-9.8q-.4.1-.7.5-.3.4-.3 1L39.6-7q.2 1 1.2 1h.3q.5 0 .8-.5.3-.4.2-1l-1.2-6.5q-.1-.5-.5-.8-.4-.3-1-.2m11.7-.8q-.1-.5-.5-.8-.4-.2-1-.2-.5.1-.8.5-.3.5-.2 1l1.2 6.5q0 .5.4.8t.8.3l.2-.1q.5 0 .8-.5.3-.4.2-1l-1.1-6.5m10.1-1.8q0-.5-.5-.8-.4-.2-1-.2-.4.1-.7.5-.3.5-.2 1l1.1 6.5q.1.5.5.8t.8.3h.2q.5-.1.8-.6.3-.4.2-.9l-1.2-6.6m10.2-1.7q-.1-.5-.5-.8-.4-.3-1-.3-.4.1-.7.6-.3.4-.3.9l1.2 6.5q.2 1 1.2 1h.3q.5 0 .8-.5.3-.4.2-.9l-1.2-6.5M81.6-21q-.1-.5-.5-.8-.4-.3-1-.3-.5.1-.8.6-.3.4-.2.9l1.2 6.6q.1 1 1.2 1h.2q.6-.1.8-.5.3-.5.2-1L81.6-21m10.1-1.8q0-.5-.5-.8-.4-.3-1-.2-.4 0-.7.5-.3.4-.2.9l1.1 6.6q.2 1 1.3 1h.2q.5-.1.8-.5.3-.4.2-1l-1.2-6.5m10.4 6.2q.5-.1.8-.5.3-.4.2-1l-1.2-6.5q-.1-.6-.5-.8-.4-.3-1-.2-.4 0-.7.5-.3.4-.2.9l1.1 6.6q.2 1 1.2 1h.3m7.7-10.3q-.2.4-.2.9l1.2 6.6q0 .4.4.7t.8.3h.2q.6-.1.8-.5.3-.4.2-1l-1.1-6.5q-.1-.5-.5-.8-.5-.3-1-.2-.5 0-.8.5m11.9-2.1q-.4-.3-.9-.2-.5 0-.8.5-.3.4-.2.9l1.1 6.6q.1.4.5.7t.8.3h.2q.5-.1.8-.5.3-.4.2-1l-1.1-6.5q-.1-.5-.6-.8m10.7-1q-.1-.5-.5-.8-.4-.3-1-.2-.4 0-.7.5-.3.4-.2.9L131-23q.2 1 1.2 1h.3q.5-.1.8-.5.3-.4.2-1l-1.2-6.5"/></g><g transform="translate(431 300.9)"><animateTransform attributeName="transform" additive="replace" type="translate" dur="6.9s" keyTimes="0;1" values="0,0;0,0" fill="freeze"/><animateTransform attributeName="transform" additive="sum" type="translate" repeatCount="indefinite" dur="6.9s" keyTimes="0;0.138;0.145;0.152;0.159;0.167;0.174;0.181;0.188;0.196;0.203;0.21;0.217;0.225;0.232;0.239;0.246;0.341;0.348;0.355;0.362;0.37;0.377;0.384;0.391;0.399;0.406;0.413;0.42;0.427;0.428;1" values="378.301,355.65;378.301,355.65;376.398,356.462;374.735,357.312;373.073,357.976;371.678,358.637;370.36,359.193;369.165,359.71;368.169,360.281;367.249,360.628;366.537,360.898;365.875,361.292;365.306,361.444;365.031,361.687;364.786,361.682;364.783,361.76;364.772,361.808;364.772,361.808;364.783,361.76;367.181,360.43;369.467,359.079;371.486,358.032;373.433,356.906;375.13,355.925;376.654,355.094;378.173,354.301;379.417,353.6;380.5,352.958;381.392,352.438;382.191,351.959;0;0" calcMode="discrete"/><animateTransform attributeName="transform" additive="sum" type="translate" repeatCount="indefinite" dur="6.9s" keyTimes="0;0.428;0.435;0.442;0.449;0.457;0.464;0.565;0.572;0.58;0.587;0.594;0.601;0.609;0.616;0.623;0.63;0.638;0.645;0.652;0.659;0.667;0.674;0.681;0.688;0.696;0.703;0.71;0.717;0.724;0.725;1" values="0;382.191,351.959;382.732,351.668;383.17,351.511;383.42,351.329;383.504,351.223;383.426,351.235;383.426,351.235;383.504,351.223;381.658,352.205;379.88,353.232;378.389,354.051;376.754,355.059;375.27,355.88;373.98,356.597;372.623,357.274;371.441,357.893;370.357,358.584;369.485,359.085;368.444,359.65;367.694,359.97;367.048,360.445;366.411,360.736;365.893,361.133;365.486,361.369;365.123,361.476;364.937,361.619;364.855,361.688;364.783,361.76;364.772,361.808;0;0" calcMode="discrete"/><animateTransform attributeName="transform" additive="sum" type="translate" repeatCount="indefinite" dur="6.9s" keyTimes="0;0.725;0.841;0.848;0.855;0.862;0.87;0.877;0.884;0.891;0.899;0.906;0.913;0.92;0.928;0.935;0.942;0.949;0.957;0.964;0.971;0.978;0.986;0.993;1" values="0;364.772,361.808;364.772,361.808;364.783,361.76;366.737,360.856;368.307,360.138;369.911,359.432;371.091,358.901;371.944,358.551;372.614,358.247;372.846,358.04;373.124,357.917;373.481,357.714;373.935,357.628;374.319,357.442;374.751,357.292;375.141,357.095;375.585,356.937;375.928,356.731;376.282,356.614;376.738,356.351;377.198,356.232;377.515,355.957;377.932,355.83;378.301,355.65" calcMode="discrete"/><animateTransform attributeName="transform" additive="sum" type="rotate" repeatCount="indefinite" dur="6.9s" keyTimes="0;0.138;0.145;0.152;0.159;0.167;0.174;0.181;0.188;0.196;0.203;0.21;0.217;0.225;0.232;0.239;0.246;0.341;0.348;0.355;0.362;0.37;0.377;0.384;0.391;0.399;0.406;0.413;0.42;0.427;0.428;1" values="0,0,0;0,0,0;2.281,0,0;4.519,0,0;6.526,0,0;8.301,0,0;10.033,0,0;11.534,0,0;12.803,0,0;14.028,0,0;15.022,0,0;15.783,0,0;16.313,0,0;16.799,0,0;17.052,0,0;17.236,0,0;17.075,0,0;17.075,0,0;17.236,0,0;14.766,0,0;12.312,0,0;10.276,0,0;8.283,0,0;6.523,0,0;4.803,0,0;3.502,0,0;2.058,0,0;1.031,0,0;0.045,0,0;-0.521,0,0;0;0" calcMode="discrete"/><animateTransform attributeName="transform" additive="sum" type="rotate" repeatCount="indefinite" dur="6.9s" keyTimes="0;0.428;0.435;0.442;0.449;0.457;0.464;0.565;0.572;0.58;0.587;0.594;0.601;0.609;0.616;0.623;0.63;0.638;0.645;0.652;0.659;0.667;0.674;0.681;0.688;0.696;0.703;0.71;0.717;0.724;0.725;1" values="0;-0.521,0,0;-1.046,0,0;-1.525,0,0;-1.778,0,0;-1.949,0,0;-1.8,0,0;-1.8,0,0;-1.949,0,0;-0.019,0,0;1.549,0,0;3.282,0,0;4.803,0,0;6.302,0,0;7.776,0,0;9.037,0,0;10.276,0,0;11.303,0,0;12.306,0,0;13.285,0,0;14.054,0,0;14.795,0,0;15.516,0,0;16.024,0,0;16.318,0,0;16.779,0,0;17.027,0,0;17.064,0,0;17.236,0,0;17.075,0,0;0;0" calcMode="discrete"/><animateTransform attributeName="transform" additive="sum" type="rotate" repeatCount="indefinite" dur="6.9s" keyTimes="0;0.725;0.841;0.848;0.855;0.862;0.87;0.877;0.884;0.891;0.899;0.906;0.913;0.92;0.928;0.935;0.942;0.949;0.957;0.964;0.971;0.978;0.986;0.993;1" values="0;17.075,0,0;17.075,0,0;17.236,0,0;14.568,0,0;12.522,0,0;10.558,0,0;9.056,0,0;8.012,0,0;7.053,0,0;6.551,0,0;6.529,0,0;6.009,0,0;5.508,0,0;5.007,0,0;4.506,0,0;4.006,0,0;3.504,0,0;3.004,0,0;2.503,0,0;2.003,0,0;1.501,0,0;1.001,0,0;0.501,0,0;0,0,0" calcMode="discrete"/><animateTransform attributeName="transform" additive="sum" type="scale" repeatCount="indefinite" dur="6.9s" keyTimes="0;0.145;0.152;0.188;0.196;0.232;0.239;0.246;0.341;0.348;0.355;0.362;0.391;0.399;0.427;0.428;1" values="1,1;1,1;0.999,0.999;0.999,0.999;0.998,0.998;0.998,0.998;0.999,0.999;0.998,0.998;0.998,0.998;0.999,0.999;0.998,0.998;0.999,0.999;0.999,0.999;1,1;1,1;1;1" calcMode="discrete"/><animateTransform attributeName="transform" additive="sum" type="scale" repeatCount="indefinite" dur="6.9s" keyTimes="0;0.428;0.594;0.601;0.645;0.652;0.71;0.717;0.724;0.725;1" values="1;1,1;1,1;0.999,0.999;0.999,0.999;0.998,0.998;0.998,0.998;0.999,0.999;0.998,0.998;1;1" calcMode="discrete"/><animateTransform attributeName="transform" additive="sum" type="scale" repeatCount="indefinite" dur="6.9s" keyTimes="0;0.725;0.841;0.848;0.855;0.862;0.87;0.957;0.964;1" values="1;0.998,0.998;0.998,0.998;0.999,0.999;0.998,0.998;0.998,0.998;0.999,0.999;0.999,0.999;1,1;1,1" calcMode="discrete"/><animateTransform attributeName="transform" additive="sum" type="translate" repeatCount="indefinite" dur="6.9s" keyTimes="0;0.138;0.145;0.152;0.159;0.167;0.174;0.181;0.188;0.196;0.203;0.21;0.217;0.225;0.232;0.239;0.246;0.341;0.348;0.355;0.362;0.37;0.377;0.384;0.391;0.399;0.406;0.413;0.42;0.427;0.428;1" values="52.749,-54.8;52.749,-54.8;52.799,-54.75;52.699,-54.85;52.799,-54.8;52.849,-54.8;52.749,-54.7;52.749,-54.75;52.699,-54.85;52.749,-54.8;52.749,-54.7;52.699,-54.9;52.749,-54.85;52.699,-54.85;52.749,-54.8;52.749,-54.85;52.799,-54.85;52.799,-54.85;52.749,-54.85;52.749,-54.8;52.749,-54.7;52.699,-54.9;52.749,-54.8;52.799,-54.75;52.849,-54.9;52.799,-54.85;52.749,-54.8;52.699,-54.85;52.849,-54.8;52.749,-54.8;0;0" calcMode="discrete"/><animateTransform attributeName="transform" additive="sum" type="translate" repeatCount="indefinite" dur="6.9s" keyTimes="0;0.428;0.435;0.442;0.449;0.457;0.464;0.565;0.572;0.58;0.587;0.594;0.601;0.609;0.616;0.63;0.638;0.645;0.652;0.659;0.667;0.674;0.681;0.688;0.696;0.703;0.71;0.717;0.724;0.725;1" values="0;52.749,-54.8;52.749,-54.85;52.799,-54.85;52.799,-54.85;52.699,-54.85;52.749,-54.9;52.749,-54.9;52.699,-54.85;52.749,-54.85;52.699,-54.85;52.599,-54.85;52.649,-54.9;52.749,-54.9;52.649,-54.85;52.649,-54.85;52.699,-54.95;52.699,-54.85;52.799,-54.95;52.749,-54.8;52.649,-54.9;52.699,-54.85;52.599,-54.95;52.649,-54.9;52.749,-54.9;52.649,-54.8;52.699,-54.9;52.749,-54.85;52.799,-54.85;0;0" calcMode="discrete"/><animateTransform attributeName="transform" additive="sum" type="translate" repeatCount="indefinite" dur="6.9s" keyTimes="0;0.725;0.841;0.848;0.855;0.862;0.87;0.877;0.884;0.891;0.899;0.906;0.913;0.92;0.928;0.935;0.942;0.949;0.957;0.964;0.971;0.978;0.986;0.993;1" values="0;52.799,-54.85;52.799,-54.85;52.749,-54.85;52.699,-54.85;52.799,-54.9;52.749,-54.85;52.699,-54.8;52.799,-54.9;52.699,-54.85;52.899,-54.75;52.849,-54.8;52.899,-54.7;52.849,-54.9;52.799,-54.85;52.799,-54.9;52.799,-54.85;52.849,-54.85;52.849,-54.9;52.899,-54.85;52.849,-54.9;52.799,-54.85;52.849,-54.75;52.849,-54.8;52.749,-54.8" calcMode="discrete"/><path fill="#EBB192" d="M61-61q-2.4-2.4-5.8-2.3-3.5 0-5.9 2.4l-8.1 8.3 15.4 7.9 4.5-4.6q2.4-2.5 2.4-5.9 0-3.4-2.5-5.8"/><path fill="#1A344F" d="M40-52.4q.1.6.7.9L56-43.6l.6.2q.5 0 .9-.4l4.5-4.7q2.8-2.8 2.7-6.7 0-4-2.8-6.7-2.9-2.7-6.7-2.7-4 0-6.8 2.8l-8 8.3q-.5.4-.4 1M60.1-60q2 2 2.1 4.9 0 2.9-2 5l-3.9 4-13-6.8 6.9-7q2.1-2.1 5-2.1 2.8 0 4.9 2"/><path fill="#E66C6C" d="M-63.5 54.4q6 3.9 13.6 9.7L56.6-44.7l-15.4-8L-63.5 54.5"/><path fill="#19344F" d="M41.8-53.7q-.8-.5-1.4.2l-105 107.2 2.2 1.4L41.5-51.1l13 6.7L-50.9 63.3l2 1.5L57.5-43.8q.4-.4.3-1.1-.1-.6-.6-1l-15.4-7.8"/></g><g transform="translate(257.2 329.9)"><animateTransform attributeName="transform" additive="replace" type="translate" dur="6.9s" keyTimes="0;1" values="0,0;0,0" fill="freeze"/><animateTransform attributeName="transform" additive="sum" type="translate" repeatCount="indefinite" dur="6.9s" keyTimes="0;0.138;0.145;0.152;0.159;0.167;0.174;0.181;0.188;0.196;0.203;0.21;0.217;0.225;0.232;0.239;0.246;0.341;0.348;0.355;0.362;0.37;0.377;0.384;0.391;0.399;0.406;0.413;0.42;0.427;0.428;1" values="325.85,354.45;325.85,354.45;325.317,354.472;324.733,354.61;324.344,354.669;323.902,354.7;323.436,354.739;323.065,354.795;322.852,354.842;322.503,354.849;322.248,354.886;322.155,354.847;321.962,354.939;321.823,354.943;321.726,354.893;321.712,354.948;321.746,354.88;321.746,354.88;321.712,354.948;323.126,354.972;324.318,354.981;325.436,355.017;326.513,354.975;327.441,354.866;328.304,354.977;329.142,354.914;329.821,354.935;330.448,354.954;330.868,354.983;331.306,354.918;0;0" calcMode="discrete"/><animateTransform attributeName="transform" additive="sum" type="translate" repeatCount="indefinite" dur="6.9s" keyTimes="0;0.428;0.435;0.442;0.449;0.457;0.464;0.565;0.572;0.58;0.587;0.594;0.601;0.609;0.616;0.623;0.63;0.638;0.645;0.652;0.659;0.667;0.674;0.681;0.688;0.696;0.703;0.71;0.717;0.724;0.725;1" values="0;331.306,354.918;331.633,354.902;331.891,354.903;331.983,354.989;332.061,354.929;332.081,354.927;332.081,354.927;332.061,354.929;331.112,354.989;330.115,354.898;329.246,354.953;328.305,354.973;327.527,354.957;326.849,354.904;326.125,354.927;325.446,354.968;324.856,354.958;324.32,354.879;323.85,354.926;323.378,354.933;323.014,354.873;322.69,354.897;322.51,354.947;322.228,354.895;322.004,354.906;321.821,354.983;321.756,354.889;321.712,354.948;321.746,354.88;0;0" calcMode="discrete"/><animateTransform attributeName="transform" additive="sum" type="translate" repeatCount="indefinite" dur="6.9s" keyTimes="0;0.725;0.841;0.848;0.855;0.862;0.87;0.877;0.884;0.891;0.899;0.906;0.913;0.92;0.928;0.935;0.942;0.949;0.957;0.964;0.971;0.978;0.986;0.993;1" values="0;321.746,354.88;321.746,354.88;321.712,354.948;322.358,354.801;322.907,354.785;323.325,354.757;323.738,354.675;324.044,354.634;324.264,354.577;324.404,354.604;324.401,354.607;324.469,354.503;324.658,354.575;324.741,354.474;324.87,354.458;324.916,354.59;325.045,354.505;325.13,354.389;325.232,354.55;325.4,354.483;325.591,354.438;325.687,354.408;325.824,354.354;325.85,354.45" calcMode="discrete"/><animateTransform attributeName="transform" additive="sum" type="rotate" repeatCount="indefinite" dur="6.9s" keyTimes="0;0.138;0.145;0.152;0.159;0.167;0.174;0.181;0.188;0.196;0.203;0.21;0.217;0.225;0.232;0.239;0.246;0.341;0.348;0.355;0.362;0.37;0.377;0.384;0.391;0.399;0.406;0.413;0.42;0.427;0.428;1" values="0,0,0;0,0,0;2.794,0,0;5.534,0,0;8.035,0,0;10.293,0,0;12.31,0,0;14.274,0,0;15.807,0,0;17.287,0,0;18.524,0,0;19.332,0,0;20.274,0,0;20.786,0,0;21.055,0,0;21.232,0,0;21.082,0,0;21.082,0,0;21.232,0,0;17.825,0,0;14.814,0,0;12.048,0,0;9.525,0,0;7.059,0,0;5.024,0,0;3.048,0,0;1.502,0,0;0.011,0,0;-1.045,0,0;-2.048,0,0;0;0" calcMode="discrete"/><animateTransform attributeName="transform" additive="sum" type="rotate" repeatCount="indefinite" dur="6.9s" keyTimes="0;0.428;0.435;0.442;0.449;0.457;0.464;0.565;0.572;0.58;0.587;0.594;0.601;0.609;0.616;0.623;0.63;0.638;0.645;0.652;0.659;0.667;0.674;0.681;0.688;0.696;0.703;0.71;0.717;0.724;0.725;1" values="0;-2.048,0,0;-2.806,0,0;-3.508,0,0;-3.78,0,0;-3.98,0,0;-3.809,0,0;-3.809,0,0;-3.98,0,0;-1.506,0,0;0.764,0,0;3.004,0,0;5.023,0,0;7.014,0,0;8.785,0,0;10.526,0,0;12.046,0,0;13.534,0,0;14.805,0,0;16.045,0,0;17.064,0,0;18.053,0,0;18.822,0,0;19.559,0,0;20.077,0,0;20.563,0,0;20.831,0,0;21.065,0,0;21.232,0,0;21.082,0,0;0;0" calcMode="discrete"/><animateTransform attributeName="transform" additive="sum" type="rotate" repeatCount="indefinite" dur="6.9s" keyTimes="0;0.725;0.841;0.848;0.855;0.862;0.87;0.877;0.884;0.891;0.899;0.906;0.913;0.92;0.928;0.935;0.942;0.949;0.957;0.964;0.971;0.978;0.986;0.993;1" values="0;21.082,0,0;21.082,0,0;21.232,0,0;18.051,0,0;15.315,0,0;13.056,0,0;11.279,0,0;9.791,0,0;8.782,0,0;8.064,0,0;8.038,0,0;7.295,0,0;6.767,0,0;6.047,0,0;5.518,0,0;4.801,0,0;4.271,0,0;3.554,0,0;3.024,0,0;2.306,0,0;1.777,0,0;1.059,0,0;0.53,0,0;0,0,0" calcMode="discrete"/><animateTransform attributeName="transform" additive="sum" type="scale" repeatCount="indefinite" dur="6.9s" keyTimes="0;0.145;0.152;0.174;0.181;0.232;0.239;0.246;0.341;0.348;0.355;0.362;0.37;0.391;0.399;0.427;0.428;1" values="1,1;1,1;0.999,0.999;0.999,0.999;0.998,0.998;0.998,0.998;0.999,0.999;0.998,0.998;0.998,0.998;0.999,0.999;0.998,0.998;0.998,0.998;0.999,0.999;0.999,0.999;1,1;1,1;1;1" calcMode="discrete"/><animateTransform attributeName="transform" additive="sum" type="scale" repeatCount="indefinite" dur="6.9s" keyTimes="0;0.428;0.594;0.601;0.638;0.645;0.71;0.717;0.724;0.725;1" values="1;1,1;1,1;0.999,0.999;0.999,0.999;0.998,0.998;0.998,0.998;0.999,0.999;0.998,0.998;1;1" calcMode="discrete"/><animateTransform attributeName="transform" additive="sum" type="scale" repeatCount="indefinite" dur="6.9s" keyTimes="0;0.725;0.841;0.848;0.855;0.884;0.891;0.964;0.971;1" values="1;0.998,0.998;0.998,0.998;0.999,0.999;0.998,0.998;0.998,0.998;0.999,0.999;0.999,0.999;1,1;1,1" calcMode="discrete"/><animateTransform attributeName="transform" additive="sum" type="translate" repeatCount="indefinite" dur="6.9s" keyTimes="0;0.138;0.145;0.152;0.159;0.167;0.174;0.181;0.188;0.196;0.203;0.21;0.217;0.225;0.232;0.239;0.246;0.341;0.348;0.355;0.362;0.37;0.377;0.384;0.391;0.399;0.406;0.413;0.42;0.427;0.428;1" values="-68.65,-24.55;-68.65,-24.55;-68.7,-24.5;-68.65,-24.55;-68.8,-24.55;-68.65,-24.55;-68.7,-24.5;-68.65,-24.65;-68.75,-24.65;-68.65,-24.55;-68.6,-24.5;-68.6,-24.45;-68.7,-24.55;-68.6,-24.5;-68.6,-24.45;-68.65,-24.55;-68.7,-24.5;-68.7,-24.5;-68.65,-24.55;-68.7,-24.65;-68.65,-24.55;-68.7,-24.6;-68.7,-24.65;-68.55,-24.5;-68.6,-24.6;-68.65,-24.55;-68.6,-24.55;-68.7,-24.6;-68.6,-24.65;-68.65,-24.6;0;0" calcMode="discrete"/><animateTransform attributeName="transform" additive="sum" type="translate" repeatCount="indefinite" dur="6.9s" keyTimes="0;0.428;0.435;0.442;0.449;0.457;0.572;0.58;0.587;0.594;0.601;0.609;0.616;0.623;0.63;0.638;0.645;0.652;0.659;0.667;0.674;0.681;0.688;0.696;0.703;0.71;0.717;0.724;0.725;1" values="0;-68.65,-24.6;-68.65,-24.55;-68.65,-24.5;-68.65,-24.55;-68.7,-24.5;-68.7,-24.5;-68.6,-24.7;-68.65,-24.55;-68.7,-24.55;-68.55,-24.6;-68.6,-24.65;-68.75,-24.5;-68.7,-24.65;-68.7,-24.55;-68.65,-24.6;-68.65,-24.55;-68.65,-24.55;-68.6,-24.6;-68.7,-24.55;-68.6,-24.5;-68.8,-24.55;-68.65,-24.5;-68.6,-24.55;-68.7,-24.6;-68.6,-24.5;-68.65,-24.55;-68.7,-24.5;0;0" calcMode="discrete"/><animateTransform attributeName="transform" additive="sum" type="translate" repeatCount="indefinite" dur="6.9s" keyTimes="0;0.725;0.841;0.848;0.855;0.862;0.87;0.877;0.884;0.891;0.899;0.906;0.913;0.92;0.928;0.935;0.942;0.949;0.957;0.964;0.971;0.978;0.986;0.993;1" values="0;-68.7,-24.5;-68.7,-24.5;-68.65,-24.55;-68.65,-24.55;-68.6,-24.5;-68.6,-24.65;-68.65,-24.5;-68.65,-24.55;-68.7,-24.55;-68.75,-24.6;-68.7,-24.5;-68.75,-24.45;-68.7,-24.5;-68.65,-24.45;-68.8,-24.45;-68.65,-24.55;-68.65,-24.45;-68.6,-24.4;-68.6,-24.55;-68.65,-24.5;-68.75,-24.5;-68.75,-24.6;-68.65,-24.45;-68.65,-24.55" calcMode="discrete"/><path fill="#EBB192" d="M-64.7-27.2l-10-2.9q-3.3-1-6.3.7-3 1.6-4 4.9-.9 3.3.8 6.3t4.9 3.9l7.4 2.2 7.2-15.1"/><path fill="#1A344F" d="M-63.6-26.7q.3-.4 0-1-.2-.5-.8-.7l-10-2.9q-1.3-.4-2.6-.4-3.1 0-5.7 1.9-2.5 1.9-3.4 5-1.1 3.7.8 7.2 1.9 3.4 5.6 4.5l7.4 2.2h.4q.8 0 1.1-.7l7.2-15.1M-77-29.2q1 0 2 .3l8.5 2.5-6.1 12.8-6.4-1.9q-2.7-.8-4.1-3.3-1.4-2.5-.6-5.3.7-2.3 2.5-3.7 1.9-1.4 4.2-1.4"/><path fill="#E66C6C" d="M75.1 30.8l.5-.7q6.7-9 10.2-13.4L-64.7-27.2-72-12.1 75 30.8"/><path fill="#19344F" d="M74.3 31.9l1.6-2.2-146.1-42.6 6.1-12.8 149 43.5 1.8-2.1-151.1-44.1h-.9q-.4.3-.6.7l-7.1 15q-.3.6 0 1.1t.7.7L74.3 31.9"/></g><g transform="rotate(-7.5 2274.3 -2435)"><animateTransform attributeName="transform" additive="replace" type="translate" dur="6.9s" keyTimes="0;1" values="0,0;0,0" fill="freeze"/><animateTransform attributeName="transform" additive="sum" type="translate" repeatCount="indefinite" dur="6.9s" keyTimes="0;0.007;0.13;0.138;0.145;0.152;0.159;0.167;0.174;0.181;0.188;0.196;0.203;0.21;0.217;0.225;0.232;0.239;0.246;0.341;0.348;0.355;0.362;0.37;0.377;0.384;0.391;0.399;0.406;0.412;0.413;1" values="350.686,344.323;350.68,344.359;350.68,344.359;350.686,344.323;350.751,344.388;350.661,344.389;350.711,344.414;350.654,344.401;350.74,344.451;350.688,344.411;350.704,344.438;350.657,344.434;350.741,344.365;350.692,344.482;350.679,344.471;350.627,344.39;350.625,344.319;350.661,344.351;350.656,344.424;350.656,344.424;350.661,344.351;350.673,344.355;350.626,344.391;350.638,344.376;350.731,344.415;350.681,344.343;350.623,344.344;350.604,344.416;350.587,344.407;350.554,344.336;0;0" calcMode="discrete"/><animateTransform attributeName="transform" additive="sum" type="translate" repeatCount="indefinite" dur="6.9s" keyTimes="0;0.413;0.42;0.428;0.435;0.442;0.449;0.457;0.464;0.565;0.572;0.58;0.587;0.594;0.601;0.609;0.616;0.623;0.63;0.638;0.645;0.652;0.659;0.667;0.674;0.681;0.688;0.696;0.703;0.709;0.71;1" values="0;350.554,344.336;350.715,344.397;350.673,344.402;350.686,344.245;350.691,344.443;350.649,344.392;350.715,344.35;350.603,344.346;350.603,344.346;350.715,344.35;350.627,344.343;350.585,344.371;350.66,344.363;350.574,344.344;350.578,344.375;350.599,344.348;350.613,344.292;350.585,344.423;350.606,344.445;350.583,344.338;350.564,344.33;350.642,344.371;350.519,344.35;350.667,344.34;350.594,344.319;350.625,344.453;350.577,344.383;350.624,344.373;350.622,344.322;0;0" calcMode="discrete"/><animateTransform attributeName="transform" additive="sum" type="translate" repeatCount="indefinite" dur="6.9s" keyTimes="0;0.71;0.717;0.725;0.841;0.848;0.855;0.862;0.87;0.877;0.884;0.891;0.899;0.906;0.913;0.92;0.928;0.935;0.942;0.949;0.957;0.964;0.971;0.978;0.986;0.993;1" values="0;350.622,344.322;350.661,344.351;350.656,344.424;350.656,344.424;350.661,344.351;350.683,344.419;350.666,344.284;350.621,344.335;350.622,344.357;350.568,344.342;350.59,344.307;350.652,344.391;350.66,344.364;350.628,344.37;350.691,344.448;350.547,344.371;350.606,344.383;350.611,344.349;350.674,344.453;350.593,344.395;350.65,344.345;350.611,344.377;350.613,344.414;350.61,344.4;350.669,344.377;350.686,344.323" calcMode="discrete"/><animateTransform attributeName="transform" additive="sum" type="rotate" repeatCount="indefinite" dur="6.9s" keyTimes="0;0.007;0.13;0.138;0.145;0.152;0.159;0.167;0.174;0.181;0.188;0.196;0.203;0.21;0.217;0.225;0.232;0.239;0.246;0.341;0.348;0.355;0.362;0.37;0.377;0.384;0.391;0.399;0.406;0.412;0.413;1" values="-7.475,0,0;-7.308,0,0;-7.308,0,0;-7.475,0,0;-5.285,0,0;-3.301,0,0;-1.543,0,0;-0.01,0,0;1.293,0,0;2.559,0,0;3.787,0,0;4.791,0,0;5.753,0,0;6.302,0,0;6.815,0,0;7.287,0,0;7.532,0,0;7.693,0,0;7.552,0,0;7.552,0,0;7.693,0,0;6.008,0,0;4.306,0,0;3.009,0,0;1.552,0,0;0.503,0,0;-0.522,0,0;-1.516,0,0;-2.295,0,0;-3.044,0,0;0;0" calcMode="discrete"/><animateTransform attributeName="transform" additive="sum" type="rotate" repeatCount="indefinite" dur="6.9s" keyTimes="0;0.413;0.42;0.428;0.435;0.442;0.449;0.457;0.464;0.565;0.572;0.58;0.587;0.594;0.601;0.609;0.616;0.623;0.63;0.638;0.645;0.652;0.659;0.667;0.674;0.681;0.688;0.696;0.703;0.709;0.71;1" values="0;-3.044,0,0;-3.765,0,0;-4.269,0,0;-4.558,0,0;-5.005,0,0;-5.047,0,0;-5.245,0,0;-5.064,0,0;-5.064,0,0;-5.245,0,0;-3.811,0,0;-2.761,0,0;-1.54,0,0;-0.524,0,0;0.291,0,0;1.274,0,0;2.055,0,0;3.009,0,0;3.757,0,0;4.302,0,0;5.018,0,0;5.531,0,0;6.027,0,0;6.508,0,0;6.786,0,0;7.047,0,0;7.29,0,0;7.516,0,0;7.542,0,0;0;0" calcMode="discrete"/><animateTransform attributeName="transform" additive="sum" type="rotate" repeatCount="indefinite" dur="6.9s" keyTimes="0;0.71;0.717;0.725;0.841;0.848;0.855;0.862;0.87;0.877;0.884;0.891;0.899;0.906;0.913;0.92;0.928;0.935;0.942;0.949;0.957;0.964;0.971;0.978;0.986;0.993;1" values="0;7.542,0,0;7.693,0,0;7.552,0,0;7.552,0,0;7.693,0,0;5.508,0,0;3.54,0,0;2.016,0,0;0.754,0,0;-0.06,0,0;-0.803,0,0;-1.286,0,0;-1.539,0,0;-1.812,0,0;-2.302,0,0;-2.789,0,0;-3.278,0,0;-3.769,0,0;-4.258,0,0;-4.559,0,0;-5.049,0,0;-5.539,0,0;-6.028,0,0;-6.517,0,0;-7.007,0,0;-7.475,0,0" calcMode="discrete"/><animateTransform attributeName="transform" additive="sum" type="scale" repeatCount="indefinite" dur="6.9s" keyTimes="0;0.007;0.13;0.138;0.145;0.152;0.188;0.196;0.232;0.239;0.246;0.341;0.348;0.355;0.362;0.412;0.413;1" values="1,1;0.999,0.999;0.999,0.999;1,1;0.999,0.999;1,1;1,1;0.999,0.999;0.999,0.999;1,1;0.999,0.999;0.999,0.999;1,1;0.999,0.999;1,1;1,1;1;1" calcMode="discrete"/><animateTransform attributeName="transform" additive="sum" type="scale" repeatCount="indefinite" dur="6.9s" keyTimes="0;0.413;0.428;0.435;0.449;0.457;0.464;0.565;0.572;0.645;0.652;0.709;0.71;1" values="1;1,1;1,1;0.999,0.999;0.999,0.999;1,1;0.999,0.999;0.999,0.999;1,1;1,1;0.999,0.999;0.999,0.999;1;1" calcMode="discrete"/><animateTransform attributeName="transform" additive="sum" type="scale" repeatCount="indefinite" dur="6.9s" keyTimes="0;0.71;0.717;0.725;0.841;0.848;0.855;0.862;0.942;0.949;0.993;1" values="1;0.999,0.999;1,1;0.999,0.999;0.999,0.999;1,1;0.999,0.999;1,1;1,1;0.999,0.999;0.999,0.999;1,1" calcMode="discrete"/><animateTransform attributeName="transform" additive="sum" type="translate" repeatCount="indefinite" dur="6.9s" keyTimes="0;0.007;0.13;0.138;0.145;0.152;0.159;0.167;0.174;0.181;0.188;0.196;0.203;0.21;0.217;0.225;0.232;0.239;0.37;0.377;0.384;0.391;0.399;0.406;0.412;0.413;1" values="-5.7,-70.65;-5.65,-70.65;-5.65,-70.65;-5.7,-70.65;-5.7,-70.7;-5.65,-70.7;-5.65,-70.65;-5.65,-70.65;-5.7,-70.75;-5.65,-70.75;-5.65,-70.65;-5.6,-70.75;-5.65,-70.65;-5.55,-70.8;-5.65,-70.7;-5.65,-70.65;-5.6,-70.6;-5.65,-70.7;-5.65,-70.7;-5.7,-70.7;-5.65,-70.7;-5.65,-70.65;-5.65,-70.7;-5.6,-70.75;-5.6,-70.7;0;0" calcMode="discrete"/><animateTransform attributeName="transform" additive="sum" type="translate" repeatCount="indefinite" dur="6.9s" keyTimes="0;0.413;0.42;0.428;0.435;0.442;0.449;0.457;0.464;0.565;0.572;0.594;0.601;0.609;0.616;0.623;0.63;0.638;0.645;0.652;0.659;0.667;0.674;0.681;0.688;0.696;0.703;0.709;0.71;1" values="0;-5.6,-70.7;-5.7,-70.7;-5.65,-70.65;-5.7,-70.6;-5.7,-70.75;-5.7,-70.7;-5.7,-70.7;-5.65,-70.7;-5.65,-70.7;-5.7,-70.7;-5.7,-70.7;-5.65,-70.65;-5.7,-70.7;-5.6,-70.65;-5.7,-70.6;-5.6,-70.75;-5.75,-70.75;-5.6,-70.6;-5.6,-70.65;-5.65,-70.65;-5.6,-70.7;-5.7,-70.6;-5.65,-70.65;-5.65,-70.7;-5.6,-70.65;-5.65,-70.65;-5.65,-70.6;0;0" calcMode="discrete"/><animateTransform attributeName="transform" additive="sum" type="translate" repeatCount="indefinite" dur="6.9s" keyTimes="0;0.71;0.717;0.848;0.855;0.862;0.87;0.877;0.884;0.891;0.899;0.906;0.913;0.92;0.928;0.935;0.942;0.949;0.957;0.964;0.971;0.978;0.986;0.993;1" values="0;-5.65,-70.6;-5.65,-70.7;-5.65,-70.7;-5.65,-70.8;-5.7,-70.6;-5.65,-70.7;-5.6,-70.7;-5.6,-70.75;-5.7,-70.7;-5.7,-70.7;-5.65,-70.7;-5.7,-70.8;-5.7,-70.8;-5.6,-70.75;-5.7,-70.7;-5.6,-70.65;-5.6,-70.7;-5.65,-70.7;-5.65,-70.7;-5.7,-70.75;-5.7,-70.7;-5.65,-70.65;-5.65,-70.7;-5.7,-70.65" calcMode="discrete"/><path fill="#EBB192" d="M56 9.8q-.3-4.6-3.4-7.9-3-3.3-7.4-4.1l-.2-16q-1.5-17.3-14.9-28.5Q16.8-58-.6-56.3l-9.8.9Q-27.8-54-39-40.5-50.1-27.2-48.6-10L-46 5.6q-4.7 1.3-7.5 5.2-2.8 4-2.4 9 .5 5.6 4.8 9.1 4.3 3.6 9.9 3.1l1.3-.2q5.2 10.4 14.9 16.6 9.9 6.4 21.6 6.7h-.2l.9 10.3q.3 3.3 2.9 5.4 2.5 2 5.8 1.8 3.2-.3 5.4-2.8 2-2.6 1.8-5.8l-1-10q12.2-1.6 20.5-9.7 7.5-7.6 11.1-19.9 5.6-.5 9.2-4.7 3.6-4.3 3-10"/><path fill="#1A344F" d="M57.3 9.7q-.4-4.6-3.4-8.2-3-3.6-7.4-4.7l-.2-15.1q-1.5-16.9-13.9-28.1Q20.1-57.7 3.2-57.7l-3.9.1-9.9.9q-8.6.8-16.2 4.7-7.5 4-13.1 10.7-5.6 6.6-8.1 14.8t-1.8 16.9l2.4 14.3q-4.7 1.7-7.4 5.9-2.8 4.3-2.3 9.3.5 6 5.2 10 4.7 3.9 10.8 3.4l.5-.1q5.3 10.1 14.9 16.3 9.6 6.1 21 6.8l.8 9.2q.3 3.6 2.9 6 2.7 2.4 6.2 2.4l.9-.1q3.7-.3 6.2-3.2 2.4-3 2.1-6.7l-.8-8.8Q26.6 53 35 43.7q6.4-7.1 9.8-18.1 5.5-.8 9.2-5.1 3.9-4.8 3.3-10.8m-67.6-63.9l9.8-.9 3.7-.1q15.9 0 27.5 10.6 11.7 10.6 13 26.4l.3 16q0 1 1 1.2 4 .8 6.7 3.8t3.1 7.1q.5 5-2.8 8.9-3.2 3.9-8.2 4.4-1 0-1.2.9-3.2 10.8-9.4 17.8Q25 51.1 12 52.8q-1.2.1-1.1 1.3l.9 10q.3 2.8-1.5 4.9-1.8 2-4.6 2.4-2.8.2-4.9-1.6-2.1-1.7-2.3-4.5l-.9-9.6.2-.6q0-.5-.4-.9t-.8-.4q-11.4-.2-20.9-6.3-9.5-6.1-14.6-16.2-.4-.8-1.3-.7l-1.2.2q-5.1.4-9-2.8-3.9-3.3-4.3-8.3-.4-4.5 2.1-8.1 2.6-3.7 6.8-4.8 1.1-.3.9-1.4L-47.3-10q-.7-8.1 1.7-15.8 2.4-7.7 7.6-14 5.3-6.2 12.4-10t15.3-4.4"/><path fill="#F8D68F" d="M48.1 2v-13.7q0-20.1-14.2-34.4T-.5-60.3q-20.5 0-34.8 14.6t-13.9 35l.3 14.2q3.6 0 6.1 2.5 2.5 2.5 2.5 6v5.9q0 3 2 5 2.2 2.2 5.1 2.2h67q3 0 5.1-2.1 2.1-2.1 2.1-5.1V9.1q0-3 2-5Q45.3 2 48.2 2"/><path fill="#ECB87D" d="M21.9 24.3q-28.1-7.6-45.4-39-5.3-9.8-9-20.8l-2.6-9.1q-9.7 4.8-12.7 26.9-1.5 11-1.1 21.2l6.4 2.8 2.2 5.7.6 8.7 4.6 4q55.4-.2 57-.4"/><path fill="#1A344F" d="M-.5-61.6q-10.2 0-19.4 3.8-9.2 3.9-16.3 11.2-7.1 7.2-10.8 16.5-3.7 9.3-3.5 19.4l.3 14.2q0 .5.4.9t.9.4q3 0 5.2 2.1 2 2.1 2 5.1v5.9q0 3.5 2.6 6 2.4 2.5 5.9 2.5h67q3.6 0 6-2.5 2.5-2.5 2.5-6V9.1q0-2.4 1.7-4.1 1.7-1.7 4.1-1.7.6 0 .9-.4.4-.3.4-.9v-13.7q0-20.6-14.6-35.3Q20-61.6-.5-61.6m0 2.6Q19-59 32.9-45.1q13.9 13.9 13.9 33.4V.8q-3 .5-5.1 2.8-2 2.4-2 5.5v8.8q0 2.4-1.7 4.1-1.7 1.7-4.1 1.7h-67.1q-2.4 0-4.1-1.7-1.7-1.7-1.7-4.1V12q0-3.7-2.5-6.5-2.4-2.8-6.1-3.3l-.2-13q-.2-9.5 3.3-18.3t10.2-15.7q6.7-6.8 15.4-10.5Q-10.1-59-.5-59"/><path fill="#F8D68F" d="M13.7-42.4q5.2-5.1 5.2-12.4t-5.2-12.4q-5.1-5.2-12.4-5.2h-6.2q-7.2 0-12.4 5.2-5.1 5.2-5.1 12.4 0 7.3 5.1 12.4t12.4 5.2h6.2q7.3 0 12.4-5.2"/><path fill="#ECB87D" d="M13.7-43.5q3.4-3.2 4.5-6.5Q.1-49.2-5-60.5q-1.6-3.5-1.8-7.8l.2-3.6q-3.2-.8-7 3.2-4.6 4.7-6.6 5.3-1.9.5-2.3 4.6-.4 4.2 1.1 8.9 4.2 12.5 16.5 12.7 11.7.2 18.6-6.3"/><path fill="#1A344F" d="M14.7-41.4q5.5-5.6 5.5-13.4 0-7.8-5.5-13.3-5.5-5.6-13.4-5.6h-6.2q-7.8 0-13.3 5.6-5.6 5.5-5.6 13.3 0 7.8 5.6 13.4T-5-36h6.2q7.9 0 13.4-5.5m2.9-13.4q0 6.7-4.8 11.5Q8-38.6 1.3-38.6h-6.2q-6.7 0-11.5-4.7-4.7-4.8-4.7-11.5t4.7-11.5Q-11.6-71-4.9-71h6.2q6.7 0 11.5 4.7 4.8 4.8 4.8 11.5"/></g><path fill="#E66C6C" d="M327.5 341q-3.7 1.9-8.3 6-5.3 4.9-7.1 8.9-2.7 6-2.7 12.5v65l4 .8h.2q2.6 0 5 .5 2.4-.3 4.2-.2 4.4.1 10.4 1 2.6-.5 4.6-.5 4.7-.2 8.4.4l3.1-1.3q10.7-3.8 26.3-3.6l5.9.2 5.6-2.4q2.4-1 5.4-1.3v-58.6q0-5.3-1.7-10.1-1.8-4.1-5.3-8.6-3.5-4.4-6.4-6.3h-.1q-7.4-4.8-16.3-4.8h-23.5q-6 0-11.7 2.4"/><path fill="#D05D5D" d="M312.4 360.1q-3 3-3.2 19.9-.2 11.4.2 51.1 1.9 2.1 6.4 3.2 1 0 2.9.4 2.3-.3 4.1-.2 4 .1 9.6.9l2.7-.2 2.7-.2h.5q1.8-.2 7.6-.1 5.1.1 7.4-.2 5.2-1.6 13.8-2l6.3-3.3q-32.8-1-50.2-35.2-5.4-10.7-8.7-23.5l-2.1-10.6"/><path fill="#19344F" d="M363.7 339.9l-.9-.3q-2.1-.8-2.2-2.2h-21.4q-7.1 0-13.4 3-.3-.2-2 1.4l-.4.7q0 .5.4.7l.4.3h.6q.5 0 4-1.8 3.6-1.8 10.4-1.8h24.5m-49 13q-.3-1-1.2-.4l-1.3.8q-1 1.3-1.4 2.5-2.7 5.9-2.7 12.6v64l2.5.6v-64.6q0-6.7 3-12.9l.8-1.2q.5-.6.3-1.5"/><path fill="#19344F" d="M378.4 340.4q-6.3-3-13.3-3h-24.2l-.6 2.5H365q6.7 0 10.2 1.8 3.6 1.8 4.1 1.9l.6-.1.4-.3q.3-.2.4-.7l-.4-.7q-1.7-1.6-2-1.4m9 13.2q-.8.5 0 1.9 3 6.2 3 12.9v59.2q1-.5 2.6-.7v-58.5q0-6.7-2.7-12.6-.4-1.1-1.4-2.3l-.7-.1-.7.1-.1.1"/><path fill="#1A344F" d="M463.4 389.4q.4-.4.4-.9t-.3-.9-.8-.4q-.5-.1-1 .3-25.7 22.2-57.8 34-32 11.9-66.2 11.9-31.8 0-61.3-10-29.6-10.1-54.8-29.4-.4-.4-.9-.3-.5 0-.8.5-.3.4-.3.9.1.5.5.8 25.5 19.7 55.4 29.9 30 10.1 62.2 10.1 34.6 0 67-12 32.5-12 58.7-34.5"/></g></svg>