<svg id="ani_13_news" image-rendering="optimizeQuality" xmlns="http://www.w3.org/2000/svg" viewBox="0 0 695 544" style="enable-background:new 0 0 695 544"><style>.st0{fill:#eab091}.st1{fill:none;stroke:#19344f;stroke-width:2.5;stroke-linecap:round;stroke-linejoin:round}.st2{fill:#b83436}.st3{fill:#fff}.st4{fill:none;stroke:#eaeaea;stroke-width:4;stroke-linecap:round;stroke-linejoin:round;stroke-miterlimit:10}.st5{fill:#383838}.st6{fill:none;stroke:#383838;stroke-width:4;stroke-linecap:round;stroke-linejoin:round;stroke-miterlimit:10}.st7,.st8{stroke:#91ca77}.st7{fill:none;stroke-width:4;stroke-linecap:round;stroke-linejoin:round}.st8{stroke-dasharray:11.7402,11.7402}.st10,.st8,.st9{fill:none;stroke-width:4;stroke-linecap:round;stroke-linejoin:round}.st9{stroke-dasharray:12.2268,12.2268;stroke:#91ca77}.st10{stroke:#df6770}.st11{stroke-dasharray:12.432,12.432}.st11,.st12,.st13,.st14{fill:none;stroke:#df6770;stroke-width:4;stroke-linecap:round;stroke-linejoin:round}.st12{stroke-dasharray:11.5006,11.5006}.st13,.st14{stroke-miterlimit:10}.st14{stroke:#91ca77}</style><symbol id="Symbol_x5F_2_0.0" viewBox="-13.6 -2.5 27.1 5"><path class="st0" d="M-10.3-.5C-8.6.1-6.7.5-4.8.8c6 1 11.8.3 17.1-2h-24.6l2 .7"/><path class="st1" d="M-10.3-.5C-8.6.1-6.7.5-4.8.8c6 1 11.8.3 17.1-2m-22.6.7l-2-.8"/></symbol><symbol id="Symbol_x5F_3_0.0" viewBox="-13.2 -5.7 26.5 11.4"><path class="st2" d="M10.7-5.5c-2.1.5-5 1-8.6 1.5-1.8-.6-3.5-.4-5.3.4-3.5-.5-5.9-1-7.1-1.5-1.9-.7-2.9-.8-3-.2.1 2 1.3 4.2 3.7 6.6C-6.7 4.2-3.5 5.6.1 5.6c3.6 0 6.8-1.5 9.6-4.4 2.4-2.5 3.6-4.7 3.6-6.6-.1-.4-.9-.4-2.6-.1"/></symbol><path id="XMLID_2817_" class="st3" d="M1.9 0h695v544H1.9z"/><g id="XMLID_2766_"><g id="XMLID_2815_"><path id="XMLID_2816_" class="st4" d="M498.1 459v-4.6"/></g><g id="XMLID_2813_"><path id="XMLID_2814_" class="st4" d="M498.1 440.5v-4.7"/></g><g id="XMLID_2811_"><path id="XMLID_2812_" class="st4" d="M498.1 310.7v-4.6"/></g><g id="XMLID_2809_"><path id="XMLID_2810_" class="st4" d="M498.1 292.2v-4.6"/></g><g id="XMLID_2807_"><path id="XMLID_2808_" class="st4" d="M498.1 273.7V269"/></g><g id="XMLID_2805_"><path id="XMLID_2806_" class="st4" d="M498.1 255.1v-4.6"/></g><g id="XMLID_2803_"><path id="XMLID_2804_" class="st4" d="M498.1 236.6V232"/></g><g id="XMLID_2801_"><path id="XMLID_2802_" class="st4" d="M498.1 218.1v-4.7"/></g><g id="XMLID_2799_"><path id="XMLID_2800_" class="st4" d="M498.1 199.5v-4.6"/></g><g id="XMLID_2797_"><path id="XMLID_2798_" class="st4" d="M498.1 181v-4.6"/></g><g id="XMLID_2795_"><path id="XMLID_2796_" class="st4" d="M498.1 162.5v-4.7"/></g><g id="XMLID_2793_"><path id="XMLID_2794_" class="st4" d="M498.1 143.9v-4.6"/></g><g id="XMLID_2791_"><path id="XMLID_2792_" class="st4" d="M498.1 125.4v-4.6"/></g><g id="XMLID_2789_"><path id="XMLID_2790_" class="st4" d="M498.1 106.8v-4.6"/></g><g id="XMLID_2787_"><path id="XMLID_2788_" class="st4" d="M498.1 88.3v-4.6"/></g><g id="XMLID_2785_"><path id="XMLID_2786_" class="st4" d="M498.1 69.8v-4.7"/></g><g id="XMLID_2783_"><path id="XMLID_2784_" class="st4" d="M498.1 51.2v-4.6"/></g><g id="XMLID_2781_"><path id="XMLID_2782_" class="st4" d="M498.1 440.3v-4.7"/></g><g id="XMLID_2779_"><path id="XMLID_2780_" class="st4" d="M498.1 421.7v-4.6"/></g><g id="XMLID_2777_"><path id="XMLID_2778_" class="st4" d="M498.1 403.2v-4.6"/></g><g id="XMLID_2775_"><path id="XMLID_2776_" class="st4" d="M498.1 384.7V380"/></g><g id="XMLID_2773_"><path id="XMLID_2774_" class="st4" d="M498.1 366.1v-4.6"/></g><g id="XMLID_2771_"><path id="XMLID_2772_" class="st4" d="M498.1 347.6V343"/></g><g id="XMLID_2769_"><path id="XMLID_2770_" class="st4" d="M498.1 329.1v-4.7"/></g><g id="XMLID_2767_"><path id="XMLID_2768_" class="st4" d="M498.1 310.5v-4.6"/></g></g><g id="XMLID_2715_"><g id="XMLID_2764_"><path id="XMLID_2765_" class="st4" d="M368.3 459v-4.6"/></g><g id="XMLID_2762_"><path id="XMLID_2763_" class="st4" d="M368.3 440.5v-4.7"/></g><g id="XMLID_2760_"><path id="XMLID_2761_" class="st4" d="M368.3 310.7v-4.6"/></g><g id="XMLID_2758_"><path id="XMLID_2759_" class="st4" d="M368.3 292.2v-4.6"/></g><g id="XMLID_2756_"><path id="XMLID_2757_" class="st4" d="M368.3 273.7V269"/></g><g id="XMLID_2754_"><path id="XMLID_2755_" class="st4" d="M368.3 255.1v-4.6"/></g><g id="XMLID_2752_"><path id="XMLID_2753_" class="st4" d="M368.3 236.6V232"/></g><g id="XMLID_2750_"><path id="XMLID_2751_" class="st4" d="M368.3 218.1v-4.7"/></g><g id="XMLID_2748_"><path id="XMLID_2749_" class="st4" d="M368.3 199.5v-4.6"/></g><g id="XMLID_2746_"><path id="XMLID_2747_" class="st4" d="M368.3 181v-4.6"/></g><g id="XMLID_2744_"><path id="XMLID_2745_" class="st4" d="M368.3 162.5v-4.7"/></g><g id="XMLID_2742_"><path id="XMLID_2743_" class="st4" d="M368.3 143.9v-4.6"/></g><g id="XMLID_2740_"><path id="XMLID_2741_" class="st4" d="M368.3 125.4v-4.6"/></g><g id="XMLID_2738_"><path id="XMLID_2739_" class="st4" d="M368.3 106.8v-4.6"/></g><g id="XMLID_2736_"><path id="XMLID_2737_" class="st4" d="M368.3 88.3v-4.6"/></g><g id="XMLID_2734_"><path id="XMLID_2735_" class="st4" d="M368.3 69.8v-4.7"/></g><g id="XMLID_2732_"><path id="XMLID_2733_" class="st4" d="M368.3 51.2v-4.6"/></g><g id="XMLID_2730_"><path id="XMLID_2731_" class="st4" d="M368.3 440.3v-4.7"/></g><g id="XMLID_2728_"><path id="XMLID_2729_" class="st4" d="M368.3 421.7v-4.6"/></g><g id="XMLID_2726_"><path id="XMLID_2727_" class="st4" d="M368.3 403.2v-4.6"/></g><g id="XMLID_2724_"><path id="XMLID_2725_" class="st4" d="M368.3 384.7V380"/></g><g id="XMLID_2722_"><path id="XMLID_2723_" class="st4" d="M368.3 366.1v-4.6"/></g><g id="XMLID_2720_"><path id="XMLID_2721_" class="st4" d="M368.3 347.6V343"/></g><g id="XMLID_2718_"><path id="XMLID_2719_" class="st4" d="M368.3 329.1v-4.7"/></g><g id="XMLID_2716_"><path id="XMLID_2717_" class="st4" d="M368.3 310.5v-4.6"/></g></g><path class="st5" d="M100.9 499.3c0 3.3-1.5 5.1-4.7 5.1-3 0-4.6-1.8-4.6-4.9v-.5h2.9v.7c0 1.4.6 1.9 1.6 1.9 1.1 0 1.7-.5 1.7-2.4v-3.6c-.5 1.1-1.5 1.7-2.8 1.7-2.3 0-3.4-1.6-3.4-4.4v-3.6c0-3.1 1.6-4.9 4.6-4.9 3 0 4.6 1.8 4.6 4.9v10zm-3-6.6v-3.5c0-1.4-.6-1.9-1.6-1.9s-1.6.5-1.6 1.9v3.5c0 1.4.6 1.9 1.6 1.9s1.6-.5 1.6-1.9zM105.9 490.6v2.9H103v-2.9h2.9zm0 10.6v2.9H103v-2.9h2.9zM107.9 489.4c0-3.1 1.6-4.9 4.6-4.9 3 0 4.6 1.8 4.6 4.9v10.1c0 3.1-1.6 4.9-4.6 4.9-3 0-4.6-1.8-4.6-4.9v-10.1zm3 10.3c0 1.4.6 1.9 1.6 1.9s1.6-.5 1.6-1.9v-10.5c0-1.4-.6-1.9-1.6-1.9s-1.6.5-1.6 1.9v10.5zM118.9 489.4c0-3.1 1.6-4.9 4.6-4.9 3 0 4.6 1.8 4.6 4.9v10.1c0 3.1-1.6 4.9-4.6 4.9-3 0-4.6-1.8-4.6-4.9v-10.1zm3 10.3c0 1.4.6 1.9 1.6 1.9s1.6-.5 1.6-1.9v-10.5c0-1.4-.6-1.9-1.6-1.9s-1.6.5-1.6 1.9v10.5zM217 487.2c2.4 0 2.9-1.1 3.4-2.4h2.1v19.5h-3.1v-14.8H217v-2.3zM225.9 489.4c0-3.1 1.6-4.9 4.6-4.9 3 0 4.6 1.8 4.6 4.9v10.1c0 3.1-1.6 4.9-4.6 4.9-3 0-4.6-1.8-4.6-4.9v-10.1zm3 10.3c0 1.4.6 1.9 1.6 1.9s1.6-.5 1.6-1.9v-10.5c0-1.4-.6-1.9-1.6-1.9s-1.6.5-1.6 1.9v10.5zM240.1 490.6v2.9h-2.9v-2.9h2.9zm0 10.6v2.9h-2.9v-2.9h2.9zM242.1 489.4c0-3.1 1.6-4.9 4.6-4.9 3 0 4.6 1.8 4.6 4.9v10.1c0 3.1-1.6 4.9-4.6 4.9-3 0-4.6-1.8-4.6-4.9v-10.1zm3 10.3c0 1.4.6 1.9 1.6 1.9s1.6-.5 1.6-1.9v-10.5c0-1.4-.6-1.9-1.6-1.9s-1.6.5-1.6 1.9v10.5zM253.1 489.4c0-3.1 1.6-4.9 4.6-4.9 3 0 4.6 1.8 4.6 4.9v10.1c0 3.1-1.6 4.9-4.6 4.9-3 0-4.6-1.8-4.6-4.9v-10.1zm3 10.3c0 1.4.6 1.9 1.6 1.9s1.6-.5 1.6-1.9v-10.5c0-1.4-.6-1.9-1.6-1.9s-1.6.5-1.6 1.9v10.5zM346.7 487.2c2.4 0 2.9-1.1 3.4-2.4h2.1v19.5h-3.1v-14.8h-2.4v-2.3zM357.8 487.2c2.4 0 2.9-1.1 3.4-2.4h2.1v19.5h-3.1v-14.8h-2.4v-2.3zM369.8 490.6v2.9h-2.9v-2.9h2.9zm0 10.6v2.9h-2.9v-2.9h2.9zM371.8 489.4c0-3.1 1.6-4.9 4.6-4.9 3 0 4.6 1.8 4.6 4.9v10.1c0 3.1-1.6 4.9-4.6 4.9-3 0-4.6-1.8-4.6-4.9v-10.1zm3.1 10.3c0 1.4.6 1.9 1.6 1.9s1.6-.5 1.6-1.9v-10.5c0-1.4-.6-1.9-1.6-1.9s-1.6.5-1.6 1.9v10.5zM382.8 489.4c0-3.1 1.6-4.9 4.6-4.9 3 0 4.6 1.8 4.6 4.9v10.1c0 3.1-1.6 4.9-4.6 4.9-3 0-4.6-1.8-4.6-4.9v-10.1zm3.1 10.3c0 1.4.6 1.9 1.6 1.9s1.6-.5 1.6-1.9v-10.5c0-1.4-.6-1.9-1.6-1.9s-1.6.5-1.6 1.9v10.5zM476.5 487.2c2.4 0 2.9-1.1 3.4-2.4h2.1v19.5h-3.1v-14.8h-2.4v-2.3zM490.1 487.3c-1 0-1.6.5-1.6 1.9v2.1h-2.9v-1.9c0-3.1 1.6-4.9 4.6-4.9 3 0 4.6 1.8 4.6 4.9 0 6.1-6.1 8.4-6.1 11.6v.4h5.8v2.8h-8.8v-2.4c0-5.7 6.1-6.7 6.1-12.3-.1-1.8-.7-2.2-1.7-2.2zM499.6 490.6v2.9h-2.9v-2.9h2.9zm0 10.6v2.9h-2.9v-2.9h2.9zM501.5 489.4c0-3.1 1.6-4.9 4.6-4.9s4.6 1.8 4.6 4.9v10.1c0 3.1-1.6 4.9-4.6 4.9s-4.6-1.8-4.6-4.9v-10.1zm3.1 10.3c0 1.4.6 1.9 1.6 1.9s1.6-.5 1.6-1.9v-10.5c0-1.4-.6-1.9-1.6-1.9s-1.6.5-1.6 1.9v10.5zM512.5 489.4c0-3.1 1.6-4.9 4.6-4.9 3 0 4.6 1.8 4.6 4.9v10.1c0 3.1-1.6 4.9-4.6 4.9-3 0-4.6-1.8-4.6-4.9v-10.1zm3.1 10.3c0 1.4.6 1.9 1.6 1.9s1.6-.5 1.6-1.9v-10.5c0-1.4-.6-1.9-1.6-1.9s-1.6.5-1.6 1.9v10.5zM601.8 429.4c0-2.3 1.2-3.7 3.5-3.7s3.5 1.3 3.5 3.7v7.6c0 2.3-1.2 3.7-3.5 3.7-2.2 0-3.5-1.3-3.5-3.7v-7.6zm2.3 7.8c0 1 .5 1.4 1.2 1.4s1.2-.4 1.2-1.4v-7.9c0-1-.5-1.4-1.2-1.4s-1.2.4-1.2 1.4v7.9zM612.5 438.3v2.2h-2.2v-2.2h2.2zM614 429.6c0-2.5 1.1-3.8 3.5-3.8 2.3 0 3.4 1.3 3.4 3.7v.4h-2.2v-.5c0-1-.5-1.4-1.2-1.4-.8 0-1.3.4-1.3 1.8v2.7c.4-.8 1.1-1.3 2.1-1.3 1.7 0 2.5 1.2 2.5 3.3v2.7c0 2.3-1.2 3.7-3.5 3.7s-3.5-1.3-3.5-3.7v-7.6zm2.3 4.9v2.6c0 1 .5 1.4 1.2 1.4s1.2-.4 1.2-1.4v-2.6c0-1-.5-1.4-1.2-1.4s-1.2.4-1.2 1.4zM621.9 435.8l4.2-9.9h2.5v9.9h1.1v2.1h-1.1v2.6h-2.2v-2.6H622v-2.1zm4.4 0v-5.5l-2.3 5.5h2.3zM630.5 429.4c0-2.3 1.2-3.7 3.5-3.7s3.5 1.3 3.5 3.7v7.6c0 2.3-1.2 3.7-3.5 3.7s-3.5-1.3-3.5-3.7v-7.6zm2.3 7.8c0 1 .5 1.4 1.2 1.4s1.2-.4 1.2-1.4v-7.9c0-1-.5-1.4-1.2-1.4s-1.2.4-1.2 1.4v7.9zM638.7 429.4c0-2.3 1.2-3.7 3.5-3.7s3.5 1.3 3.5 3.7v7.6c0 2.3-1.2 3.7-3.5 3.7s-3.5-1.3-3.5-3.7v-7.6zm2.3 7.8c0 1 .5 1.4 1.2 1.4s1.2-.4 1.2-1.4v-7.9c0-1-.5-1.4-1.2-1.4s-1.2.4-1.2 1.4v7.9zM601.8 315.9c0-2.3 1.2-3.7 3.5-3.7s3.5 1.3 3.5 3.7v7.6c0 2.3-1.2 3.7-3.5 3.7-2.2 0-3.5-1.3-3.5-3.7v-7.6zm2.3 7.7c0 1 .5 1.4 1.2 1.4s1.2-.4 1.2-1.4v-7.9c0-1-.5-1.4-1.2-1.4s-1.2.4-1.2 1.4v7.9zM612.5 324.8v2.2h-2.2v-2.2h2.2zM614 316c0-2.5 1.1-3.8 3.5-3.8 2.3 0 3.4 1.3 3.4 3.7v.4h-2.2v-.5c0-1-.5-1.4-1.2-1.4-.8 0-1.3.4-1.3 1.8v2.7c.4-.8 1.1-1.3 2.1-1.3 1.7 0 2.5 1.2 2.5 3.3v2.7c0 2.3-1.2 3.7-3.5 3.7s-3.5-1.3-3.5-3.7V316zm2.3 5v2.6c0 1 .5 1.4 1.2 1.4s1.2-.4 1.2-1.4V321c0-1-.5-1.4-1.2-1.4s-1.2.4-1.2 1.4zM629.1 312.4v2l-3.4 12.6h-2.3l3.4-12.5h-4.6v-2.1h6.9zM630.5 315.9c0-2.3 1.2-3.7 3.5-3.7s3.5 1.3 3.5 3.7v7.6c0 2.3-1.2 3.7-3.5 3.7s-3.5-1.3-3.5-3.7v-7.6zm2.3 7.7c0 1 .5 1.4 1.2 1.4s1.2-.4 1.2-1.4v-7.9c0-1-.5-1.4-1.2-1.4s-1.2.4-1.2 1.4v7.9zM638.7 315.9c0-2.3 1.2-3.7 3.5-3.7s3.5 1.3 3.5 3.7v7.6c0 2.3-1.2 3.7-3.5 3.7s-3.5-1.3-3.5-3.7v-7.6zm2.3 7.7c0 1 .5 1.4 1.2 1.4s1.2-.4 1.2-1.4v-7.9c0-1-.5-1.4-1.2-1.4s-1.2.4-1.2 1.4v7.9z"/><g><path class="st5" d="M601.8 204.7c0-2.3 1.2-3.7 3.5-3.7s3.5 1.3 3.5 3.7v7.6c0 2.3-1.2 3.7-3.5 3.7-2.2 0-3.5-1.3-3.5-3.7v-7.6zm2.3 7.7c0 1 .5 1.4 1.2 1.4s1.2-.4 1.2-1.4v-7.9c0-1-.5-1.4-1.2-1.4s-1.2.4-1.2 1.4v7.9zM612.5 213.6v2.2h-2.2v-2.2h2.2zM620.9 201.2v2l-3.4 12.6h-2.3l3.4-12.5H614v-2.1h6.9zM622.2 204.7c0-2.3 1.2-3.7 3.5-3.7s3.5 1.3 3.5 3.7v7.6c0 2.3-1.2 3.7-3.5 3.7s-3.5-1.3-3.5-3.7v-7.6zm2.3 7.7c0 1 .5 1.4 1.2 1.4s1.2-.4 1.2-1.4v-7.9c0-1-.5-1.4-1.2-1.4s-1.2.4-1.2 1.4v7.9zM630.5 204.7c0-2.3 1.2-3.7 3.5-3.7s3.5 1.3 3.5 3.7v7.6c0 2.3-1.2 3.7-3.5 3.7s-3.5-1.3-3.5-3.7v-7.6zm2.3 7.7c0 1 .5 1.4 1.2 1.4s1.2-.4 1.2-1.4v-7.9c0-1-.5-1.4-1.2-1.4s-1.2.4-1.2 1.4v7.9zM638.7 204.7c0-2.3 1.2-3.7 3.5-3.7s3.5 1.3 3.5 3.7v7.6c0 2.3-1.2 3.7-3.5 3.7s-3.5-1.3-3.5-3.7v-7.6zm2.3 7.7c0 1 .5 1.4 1.2 1.4s1.2-.4 1.2-1.4v-7.9c0-1-.5-1.4-1.2-1.4s-1.2.4-1.2 1.4v7.9z"/></g><g><path class="st5" d="M601.8 93.5c0-2.3 1.2-3.7 3.5-3.7s3.5 1.3 3.5 3.7v7.6c0 2.3-1.2 3.7-3.5 3.7-2.2 0-3.5-1.3-3.5-3.7v-7.6zm2.3 7.7c0 1 .5 1.4 1.2 1.4s1.2-.4 1.2-1.4v-7.9c0-1-.5-1.4-1.2-1.4s-1.2.4-1.2 1.4v7.9zM612.5 102.4v2.2h-2.2v-2.2h2.2zM620.9 90v2l-3.4 12.6h-2.3l3.4-12.5H614V90h6.9zM626.8 93.6c0-1.3-.5-1.7-1.2-1.7s-1.2.4-1.2 1.4v.9h-2.2v-.8c0-2.3 1.2-3.7 3.4-3.7 2.3 0 3.4 1.3 3.4 3.7v.4c0 1.6-.5 2.5-1.6 3 1.1.5 1.6 1.6 1.6 3.1v1.1c0 2.3-1.2 3.7-3.4 3.7-2.3 0-3.4-1.3-3.4-3.7v-1.2h2.2v1.4c0 1 .5 1.4 1.2 1.4s1.2-.4 1.2-1.6v-1.1c0-1.4-.5-1.9-1.5-1.9h-.8v-2.1h.9c.9 0 1.4-.4 1.4-1.5v-.8zM630.5 93.5c0-2.3 1.2-3.7 3.5-3.7s3.5 1.3 3.5 3.7v7.6c0 2.3-1.2 3.7-3.5 3.7s-3.5-1.3-3.5-3.7v-7.6zm2.3 7.7c0 1 .5 1.4 1.2 1.4s1.2-.4 1.2-1.4v-7.9c0-1-.5-1.4-1.2-1.4s-1.2.4-1.2 1.4v7.9zM638.7 93.5c0-2.3 1.2-3.7 3.5-3.7s3.5 1.3 3.5 3.7v7.6c0 2.3-1.2 3.7-3.5 3.7s-3.5-1.3-3.5-3.7v-7.6zm2.3 7.7c0 1 .5 1.4 1.2 1.4s1.2-.4 1.2-1.4v-7.9c0-1-.5-1.4-1.2-1.4s-1.2.4-1.2 1.4v7.9z"/></g><path id="XMLID_2698_" class="st6" d="M25.5 472.9h644"/><path id="XMLID_2697_" class="st6" d="M25.5 514.6h644"/><g id="XMLID_2646_"><g id="XMLID_2695_"><path id="XMLID_2696_" class="st4" d="M238.6 459v-4.6"/></g><g id="XMLID_2693_"><path id="XMLID_2694_" class="st4" d="M238.6 440.5v-4.7"/></g><g id="XMLID_2691_"><path id="XMLID_2692_" class="st4" d="M238.6 310.7v-4.6"/></g><g id="XMLID_2689_"><path id="XMLID_2690_" class="st4" d="M238.6 292.2v-4.6"/></g><g id="XMLID_2687_"><path id="XMLID_2688_" class="st4" d="M238.6 273.7V269"/></g><g id="XMLID_2685_"><path id="XMLID_2686_" class="st4" d="M238.6 255.1v-4.6"/></g><g id="XMLID_2683_"><path id="XMLID_2684_" class="st4" d="M238.6 236.6V232"/></g><g id="XMLID_2681_"><path id="XMLID_2682_" class="st4" d="M238.6 218.1v-4.7"/></g><g id="XMLID_2679_"><path id="XMLID_2680_" class="st4" d="M238.6 199.5v-4.6"/></g><g id="XMLID_2677_"><path id="XMLID_2678_" class="st4" d="M238.6 181v-4.6"/></g><g id="XMLID_2675_"><path id="XMLID_2676_" class="st4" d="M238.6 162.5v-4.7"/></g><g id="XMLID_2673_"><path id="XMLID_2674_" class="st4" d="M238.6 143.9v-4.6"/></g><g id="XMLID_2671_"><path id="XMLID_2672_" class="st4" d="M238.6 125.4v-4.6"/></g><g id="XMLID_2669_"><path id="XMLID_2670_" class="st4" d="M238.6 106.8v-4.6"/></g><g id="XMLID_2667_"><path id="XMLID_2668_" class="st4" d="M238.6 88.3v-4.6"/></g><g id="XMLID_2665_"><path id="XMLID_2666_" class="st4" d="M238.6 69.8v-4.7"/></g><g id="XMLID_2663_"><path id="XMLID_2664_" class="st4" d="M238.6 51.2v-4.6"/></g><g id="XMLID_2661_"><path id="XMLID_2662_" class="st4" d="M238.6 440.3v-4.7"/></g><g id="XMLID_2659_"><path id="XMLID_2660_" class="st4" d="M238.6 421.7v-4.6"/></g><g id="XMLID_2657_"><path id="XMLID_2658_" class="st4" d="M238.6 403.2v-4.6"/></g><g id="XMLID_2655_"><path id="XMLID_2656_" class="st4" d="M238.6 384.7V380"/></g><g id="XMLID_2653_"><path id="XMLID_2654_" class="st4" d="M238.6 366.1v-4.6"/></g><g id="XMLID_2651_"><path id="XMLID_2652_" class="st4" d="M238.6 347.6V343"/></g><g id="XMLID_2649_"><path id="XMLID_2650_" class="st4" d="M238.6 329.1v-4.7"/></g><g id="XMLID_2647_"><path id="XMLID_2648_" class="st4" d="M238.6 310.5v-4.6"/></g></g><g id="XMLID_2595_"><g id="XMLID_2644_"><path id="XMLID_2645_" class="st4" d="M108.9 459v-4.6"/></g><g id="XMLID_2642_"><path id="XMLID_2643_" class="st4" d="M108.9 440.5v-4.7"/></g><g id="XMLID_2640_"><path id="XMLID_2641_" class="st4" d="M108.9 310.7v-4.6"/></g><g id="XMLID_2638_"><path id="XMLID_2639_" class="st4" d="M108.9 292.2v-4.6"/></g><g id="XMLID_2636_"><path id="XMLID_2637_" class="st4" d="M108.9 273.7V269"/></g><g id="XMLID_2634_"><path id="XMLID_2635_" class="st4" d="M108.9 255.1v-4.6"/></g><g id="XMLID_2632_"><path id="XMLID_2633_" class="st4" d="M108.9 236.6V232"/></g><g id="XMLID_2630_"><path id="XMLID_2631_" class="st4" d="M108.9 218.1v-4.7"/></g><g id="XMLID_2628_"><path id="XMLID_2629_" class="st4" d="M108.9 199.5v-4.6"/></g><g id="XMLID_2626_"><path id="XMLID_2627_" class="st4" d="M108.9 181v-4.6"/></g><g id="XMLID_2624_"><path id="XMLID_2625_" class="st4" d="M108.9 162.5v-4.7"/></g><g id="XMLID_2622_"><path id="XMLID_2623_" class="st4" d="M108.9 143.9v-4.6"/></g><g id="XMLID_2620_"><path id="XMLID_2621_" class="st4" d="M108.9 125.4v-4.6"/></g><g id="XMLID_2618_"><path id="XMLID_2619_" class="st4" d="M108.9 106.8v-4.6"/></g><g id="XMLID_2616_"><path id="XMLID_2617_" class="st4" d="M108.9 88.3v-4.6"/></g><g id="XMLID_2614_"><path id="XMLID_2615_" class="st4" d="M108.9 69.8v-4.7"/></g><g id="XMLID_2612_"><path id="XMLID_2613_" class="st4" d="M108.9 51.2v-4.6"/></g><g id="XMLID_2610_"><path id="XMLID_2611_" class="st4" d="M108.9 440.3v-4.7"/></g><g id="XMLID_2608_"><path id="XMLID_2609_" class="st4" d="M108.9 421.7v-4.6"/></g><g id="XMLID_2606_"><path id="XMLID_2607_" class="st4" d="M108.9 403.2v-4.6"/></g><g id="XMLID_2604_"><path id="XMLID_2605_" class="st4" d="M108.9 384.7V380"/></g><g id="XMLID_2602_"><path id="XMLID_2603_" class="st4" d="M108.9 366.1v-4.6"/></g><g id="XMLID_2600_"><path id="XMLID_2601_" class="st4" d="M108.9 347.6V343"/></g><g id="XMLID_2598_"><path id="XMLID_2599_" class="st4" d="M108.9 329.1v-4.7"/></g><g id="XMLID_2596_"><path id="XMLID_2597_" class="st4" d="M108.9 310.5v-4.6"/></g></g><path id="XMLID_2299_" class="st6" d="M583.8 472.9V51.2"/><path id="XMLID_1954_" class="st6" d="M583.8 431.2h9.3"/><path id="XMLID_1787_" class="st6" d="M583.8 320h9.3"/><path id="XMLID_1777_" class="st6" d="M583.8 208.8h9.3"/><path id="XMLID_230_" class="st6" d="M583.8 97.6h9.3"/><g><path class="st5" d="M444 138.6c0-.2-.1-.3-.1-.5-.1-.3-.2-.7-.2-1.3v-5c0-2.3-.7-3.1-2.5-3.1h-1.3v9.9H436v-24.4h5.8c4 0 5.7 1.8 5.7 5.6v1.9c0 2.5-.8 4.2-2.5 5 2 .8 2.5 2.7 2.5 5.2v3.8c0 1.2 0 2 .4 3H444zm-4.1-21v7.5h1.5c1.4 0 2.3-.6 2.3-2.6v-2.4c0-1.8-.6-2.5-2-2.5h-1.8zM454.9 124.4h5.3v3.5h-5.3v7.2h6.6v3.5H451v-24.4h10.5v3.5h-6.6v6.7zM470.1 113.9c3.8 0 5.7 2.2 5.7 6.1v.8h-3.6v-1c0-1.8-.7-2.4-1.9-2.4s-1.9.6-1.9 2.4c0 1.7.8 2.9 2 4 .6.6 1.2 1.2 1.8 1.7 1.3 1.2 2.4 2.5 3.2 4.2.4.9.6 1.9.6 3 0 3.9-2 6.1-5.7 6.1-3.8 0-5.7-2.2-5.7-6.1v-1.5h3.6v1.7c0 1.8.8 2.4 2 2.4s2-.6 2-2.4c0-1.7-.8-2.9-2-4-.6-.6-1.2-1.1-1.8-1.7-1.3-1.1-2.5-2.4-3.2-4.2-.4-.9-.6-1.9-.6-3-.1-3.9 1.8-6.1 5.5-6.1zM479.1 114.2h3.8v24.4h-3.8v-24.4zM491.9 113.9c3.8 0 5.7 2.2 5.7 6.1v.8H494v-1c0-1.8-.7-2.4-1.9-2.4s-1.9.6-1.9 2.4c0 1.7.8 2.9 2 4 .6.6 1.2 1.2 1.8 1.7 1.3 1.2 2.4 2.5 3.2 4.2.4.9.6 1.9.6 3 0 3.9-2 6.1-5.7 6.1-3.8 0-5.7-2.2-5.7-6.1v-1.5h3.6v1.7c0 1.8.8 2.4 2 2.4s2-.6 2-2.4c0-1.7-.8-2.9-2-4-.6-.6-1.2-1.1-1.8-1.7-1.3-1.1-2.5-2.4-3.2-4.2-.4-.9-.6-1.9-.6-3-.1-3.9 1.7-6.1 5.5-6.1zM499.7 114.2h11.9v3.5h-4v20.9h-3.8v-20.9h-4v-3.5zM525.4 138.6h-3.9l-.7-4.4h-4.7l-.7 4.4H512l3.9-24.4h5.6l3.9 24.4zm-8.8-7.8h3.7l-1.8-12.3-1.9 12.3zM531.7 120.9v17.7h-3.5v-24.4h4.8l3.9 14.6v-14.6h3.4v24.4h-3.9l-4.7-17.7zM555.3 129.5v3.2c0 3.9-2 6.1-5.7 6.1s-5.7-2.2-5.7-6.1V120c0-3.9 2-6.1 5.7-6.1s5.7 2.2 5.7 6.1v2.4h-3.6v-2.6c0-1.8-.8-2.4-2-2.4s-2 .6-2 2.4V133c0 1.8.8 2.4 2 2.4s2-.6 2-2.4v-3.5h3.6zM562.5 124.4h5.3v3.5h-5.3v7.2h6.6v3.5h-10.5v-24.4h10.5v3.5h-6.6v6.7z"/></g><g><path class="st5" d="M83.2 359.6c3.8 0 5.7 2.2 5.7 6.1v.8h-3.6v-1c0-1.8-.7-2.4-1.9-2.4s-1.9.6-1.9 2.4c0 1.7.8 2.9 2 4 .6.6 1.2 1.2 1.8 1.7 1.3 1.2 2.4 2.5 3.2 4.2.4.9.6 1.9.6 3 0 3.9-2 6.1-5.7 6.1-3.8 0-5.7-2.2-5.7-6.1v-1.5h3.6v1.7c0 1.8.8 2.4 2 2.4s2-.6 2-2.4c0-1.7-.8-2.9-2-4-.6-.6-1.2-1.1-1.8-1.7-1.3-1.1-2.5-2.4-3.2-4.2-.4-.9-.6-1.9-.6-3-.2-3.9 1.7-6.1 5.5-6.1zM95.8 359.9v18.8c0 1.8.8 2.4 2 2.4s2-.6 2-2.4v-18.8h3.6v18.6c0 3.9-2 6.1-5.7 6.1s-5.7-2.2-5.7-6.1v-18.6h3.8zM112.7 359.9c3.9 0 5.7 2.1 5.7 6v3.2c0 3.9-1.8 6-5.7 6h-1.8v9.2h-3.8v-24.4h5.6zm-1.8 3.4v8.3h1.8c1.2 0 1.9-.5 1.9-2.3v-3.7c0-1.8-.7-2.3-1.9-2.3h-1.8zM126.9 359.9c3.9 0 5.7 2.1 5.7 6v3.2c0 3.9-1.8 6-5.7 6h-1.8v9.2h-3.8v-24.4h5.6zm-1.8 3.4v8.3h1.8c1.2 0 1.9-.5 1.9-2.3v-3.7c0-1.8-.7-2.3-1.9-2.3h-1.8zM135.1 365.7c0-3.9 2.1-6.1 5.8-6.1 3.8 0 5.8 2.2 5.8 6.1v12.7c0 3.9-2.1 6.1-5.8 6.1-3.8 0-5.8-2.2-5.8-6.1v-12.7zm3.9 13c0 1.8.8 2.4 2 2.4s2-.6 2-2.4v-13.2c0-1.8-.8-2.4-2-2.4s-2 .6-2 2.4v13.2zM158.3 384.3c0-.2-.1-.3-.1-.5-.1-.3-.2-.7-.2-1.3v-5c0-2.3-.7-3.1-2.5-3.1h-1.3v9.9h-3.8v-24.4h5.8c4 0 5.7 1.8 5.7 5.6v1.9c0 2.5-.8 4.2-2.5 5 2 .8 2.5 2.7 2.5 5.2v3.8c0 1.2 0 2 .4 3h-4zm-4.2-21v7.5h1.5c1.4 0 2.3-.6 2.3-2.6v-2.4c0-1.8-.6-2.5-2-2.5h-1.8zM164.3 359.9h11.9v3.5h-4v20.9h-3.8v-20.9h-4v-3.5z"/></g><g id="XMLID_3049_"><path class="st7" d="M52.6 345.1h6"/><path class="st8" d="M70.3 345.1h252.4"/><path class="st7" d="M328.6 345.1h6"/></g><g id="XMLID_183_"><path class="st7" d="M346.5 246.6h6"/><path class="st9" d="M364.8 246.6h189.5"/><path class="st7" d="M560.4 246.6h6"/></g><g id="XMLID_181_"><path class="st10" d="M343 150h6"/><path class="st11" d="M361.5 150h192.7"/><path class="st10" d="M560.4 150h6"/></g><g id="XMLID_180_"><path class="st10" d="M58.1 247h6"/><path class="st12" d="M75.6 247h247.3"/><path class="st10" d="M328.6 247h6"/></g><path class="st6" d="M30.3 407l58.9-159 34.6 94.4 19.9-56.3 11.3 29.4 26.8-67.5 30.3 94.4 36.4-94.4 32 94.4 73.6-188.7L387 248l19-58 10.4 31.2 27.7-67.5 32.9 93.5 31.2-61.5"/><g><g id="XMLID_182_"><path id="XMLID_204_" class="st13" d="M420.5 137.6v-21.7"/><path id="XMLID_203_" class="st13" d="M420.5 137.6l-6.6-6.6"/><path id="XMLID_202_" class="st13" d="M420.5 137.6l6.6-6.6"/></g></g><g><path class="st5" d="M86.9 237.3c0-.2-.1-.3-.1-.5-.1-.3-.2-.7-.2-1.3v-5c0-2.3-.7-3.1-2.5-3.1h-1.3v9.9H79v-24.4h5.8c4 0 5.7 1.8 5.7 5.6v1.9c0 2.5-.8 4.2-2.5 5 2 .8 2.5 2.7 2.5 5.2v3.8c0 1.2 0 2 .4 3h-4zm-4.2-20.9v7.5h1.5c1.4 0 2.3-.6 2.3-2.6v-2.4c0-1.8-.6-2.5-2-2.5h-1.8zM97.7 223.2h5.3v3.5h-5.3v7.2h6.6v3.5H93.9V213h10.5v3.5h-6.6v6.7zM112.9 212.6c3.8 0 5.7 2.2 5.7 6.1v.8H115v-1c0-1.8-.7-2.4-1.9-2.4s-1.9.6-1.9 2.4c0 1.7.8 2.9 2 4 .6.6 1.2 1.2 1.8 1.7 1.3 1.2 2.4 2.5 3.2 4.2.4.9.6 1.9.6 3 0 3.9-2 6.1-5.7 6.1-3.8 0-5.7-2.2-5.7-6.1V230h3.6v1.7c0 1.8.8 2.4 2 2.4s2-.6 2-2.4c0-1.7-.8-2.9-2-4-.6-.6-1.2-1.1-1.8-1.7-1.3-1.1-2.5-2.4-3.2-4.2-.4-.9-.6-1.9-.6-3-.1-4 1.8-6.2 5.5-6.2zM121.9 212.9h3.8v24.4h-3.8v-24.4zM134.7 212.6c3.8 0 5.7 2.2 5.7 6.1v.8h-3.6v-1c0-1.8-.7-2.4-1.9-2.4s-1.9.6-1.9 2.4c0 1.7.8 2.9 2 4 .6.6 1.2 1.2 1.8 1.7 1.3 1.2 2.4 2.5 3.2 4.2.4.9.6 1.9.6 3 0 3.9-2 6.1-5.7 6.1-3.8 0-5.7-2.2-5.7-6.1V230h3.6v1.7c0 1.8.8 2.4 2 2.4s2-.6 2-2.4c0-1.7-.8-2.9-2-4-.6-.6-1.2-1.1-1.8-1.7-1.3-1.1-2.5-2.4-3.2-4.2-.4-.9-.6-1.9-.6-3-.1-4 1.7-6.2 5.5-6.2zM142.5 212.9h11.9v3.5h-4v20.9h-3.8v-20.9h-4v-3.5zM168.2 237.3h-3.9l-.7-4.4H159l-.7 4.4h-3.5l3.9-24.4h5.6l3.9 24.4zm-8.7-7.7h3.7l-1.8-12.3-1.9 12.3zM174.5 219.6v17.7H171v-24.4h4.8l3.9 14.6v-14.6h3.4v24.4h-3.9l-4.7-17.7zM198.1 228.2v3.2c0 3.9-2 6.1-5.7 6.1-3.8 0-5.7-2.2-5.7-6.1v-12.7c0-3.9 2-6.1 5.7-6.1 3.8 0 5.7 2.2 5.7 6.1v2.4h-3.6v-2.6c0-1.8-.8-2.4-2-2.4s-2 .6-2 2.4v13.2c0 1.8.8 2.4 2 2.4s2-.6 2-2.4v-3.5h3.6zM205.3 223.2h5.3v3.5h-5.3v7.2h6.6v3.5h-10.5V213H212v3.5h-6.6v6.7z"/></g><g><g id="XMLID_222_"><path id="XMLID_234_" class="st13" d="M63.3 236.4v-21.7"/><path id="XMLID_233_" class="st13" d="M63.3 236.4l-6.6-6.6"/><path id="XMLID_232_" class="st13" d="M63.3 236.4l6.6-6.6"/></g></g><g><g id="XMLID_225_"><path id="XMLID_228_" class="st14" d="M62.9 361.5l-6.6 6.6"/></g><g id="XMLID_197_"><path id="XMLID_224_" class="st14" d="M63.4 361.5v21.7"/><path id="XMLID_223_" class="st14" d="M63.4 361.5l6.6 6.6"/></g></g><g><path class="st5" d="M473.7 258c3.8 0 5.7 2.2 5.7 6.1v.8h-3.6v-1c0-1.8-.7-2.4-1.9-2.4s-1.9.6-1.9 2.4c0 1.7.8 2.9 2 4 .6.6 1.2 1.2 1.8 1.7 1.3 1.2 2.4 2.5 3.2 4.2.4.9.6 1.9.6 3 0 3.9-2 6.1-5.7 6.1-3.8 0-5.7-2.2-5.7-6.1v-1.5h3.6v1.7c0 1.8.8 2.4 2 2.4s2-.6 2-2.4c0-1.7-.8-2.9-2-4-.6-.6-1.2-1.1-1.8-1.7-1.3-1.1-2.5-2.4-3.2-4.2-.4-.9-.6-1.9-.6-3-.2-3.9 1.7-6.1 5.5-6.1zM486.3 258.3v18.8c0 1.8.8 2.4 2 2.4s2-.6 2-2.4v-18.8h3.6v18.6c0 3.9-2 6.1-5.7 6.1s-5.7-2.2-5.7-6.1v-18.6h3.8zM503.2 258.3c3.9 0 5.7 2.1 5.7 6v3.2c0 3.9-1.8 6-5.7 6h-1.8v9.2h-3.8v-24.4h5.6zm-1.8 3.5v8.3h1.8c1.2 0 1.9-.5 1.9-2.3v-3.7c0-1.8-.7-2.3-1.9-2.3h-1.8zM517.4 258.3c3.9 0 5.7 2.1 5.7 6v3.2c0 3.9-1.8 6-5.7 6h-1.8v9.2h-3.8v-24.4h5.6zm-1.8 3.5v8.3h1.8c1.2 0 1.9-.5 1.9-2.3v-3.7c0-1.8-.7-2.3-1.9-2.3h-1.8zM525.6 264.2c0-3.9 2.1-6.1 5.8-6.1 3.8 0 5.8 2.2 5.8 6.1v12.7c0 3.9-2.1 6.1-5.8 6.1-3.8 0-5.8-2.2-5.8-6.1v-12.7zm3.9 12.9c0 1.8.8 2.4 2 2.4s2-.6 2-2.4v-13.2c0-1.8-.8-2.4-2-2.4s-2 .6-2 2.4v13.2zM548.8 282.7c0-.2-.1-.3-.1-.5-.1-.3-.2-.7-.2-1.3v-5c0-2.3-.7-3.1-2.5-3.1h-1.3v9.9h-3.8v-24.4h5.8c4 0 5.7 1.8 5.7 5.6v1.9c0 2.5-.8 4.2-2.5 5 2 .8 2.5 2.7 2.5 5.2v3.8c0 1.2 0 2 .4 3h-4zm-4.1-20.9v7.5h1.5c1.4 0 2.3-.6 2.3-2.6v-2.4c0-1.8-.6-2.5-2-2.5h-1.8zM554.8 258.3h11.9v3.5h-4v20.9h-3.8v-20.9h-4v-3.5z"/></g><g><g id="XMLID_248_"><path id="XMLID_249_" class="st14" d="M453.4 260l-6.6 6.6"/></g><g id="XMLID_245_"><path id="XMLID_247_" class="st14" d="M453.9 260v21.6"/><path id="XMLID_246_" class="st14" d="M453.9 260l6.6 6.6"/></g></g></svg>