<svg xmlns:xlink="http://www.w3.org/1999/xlink" xmlns="http://www.w3.org/2000/svg" baseProfile="basic" width="518" height="341" viewBox="0 0 518 341" image-rendering="optimizeSpeed" preserveAspectRatio="xMinYMin meet"><defs><filter id="q" filterUnits="objectBoundingBox" width="100%" height="100%" x="0%" y="0%"><feColorMatrix in="SourceGraphic" result="colorTrans" values="1 0 0 0 0 0 1 0 0 0 0 0 1 0 0 0 0 0 0 0"/></filter><symbol id="k" overflow="visible"><path fill="#80A8B5" d="M16.3-3.05Q14.9-14.1.1-15.15q-15 1.05-16.35 12.1Q-14.9 8 .1 9.05q1.05 0 2.1-.1l5.45 6.2L5.9 8.3q9.8-3 10.4-11.35"/><path fill="#FFF" d="M9.15-3.3q0-.8-.55-.8H-8.8q-.65.15-.65.8 0 .7.65.85H8.6q.55-.15.55-.85M8.6-7.25q.55-.2.55-.95 0-.8-.55-.8H-8.8q-.65.2-.65.8 0 .75.65.95H8.6m0 9.65q.55-.1.55-.9 0-.75-.55-.75H-8.8q-.65.15-.65.75 0 .8.65.9H8.6"/></symbol><symbol id="l" overflow="visible"><path fill="#FFD433" d="M12.35-5.1Q11.3-16.45.1-17.5q-11.35 1.05-12.4 12.4.45 6.25 3.9 8.95 3.5 2.7 3.95 7L4.5 9.2q.15.15.25.15.95-3.65 3.7-5.6 3.45-2.3 3.9-8.85"/><path fill="#FEE99B" d="M-11.1-2.65q0-6.05 7.9-10.75 2.55-.6 2.55-2-.45-1.35-3.5-.1-7.55 4.2-6.95 12.85"/><path fill="#618892" d="M-4.45 13.55q-2.7 1.4 0 2.75l1.25-.2q.85 1.25 3.3 1.4 3.35-.35 3.8-2.7l.6-.2q2.7-1.3 0-2.7 2.55-1.2.25-2.55-.1 0-.25-.15l-8.95 1.65q-2.7 1.4 0 2.7"/><path fill="#80A8B5" d="M-4.45 11.3q-.45 0-.75.45-.2.15-.2.5 0 .7.95.85l8.95-1.65q.6 0 .7-.45.2-.15.2-.5 0-.7-.75-.9l-9.1 1.7m-.75 3.15q-.2.15-.2.5 0 .7.95.9l8.95-1.7q.6 0 .7-.45.2-.15.2-.4 0-.8-.75-.95L-4.45 14q-.45 0-.75.45m2.25-1.15v.1l3.8-.75-3.8.65M.1 17.05q2.7-.35 3.35-2.1L-2.6 16q.7.9 2.7 1.05"/></symbol><symbol id="p" overflow="visible"><use xlink:href="#a" transform="translate(-98.249 48.2)"/><use xlink:href="#a" transform="translate(97.1 79.25)"/><use xlink:href="#a" transform="matrix(.659 0 0 .659 104.5 -82.299)"/></symbol><symbol id="a" overflow="visible"><path fill="#22A465" d="M-18.05-9V9.05h36.1V-9h-36.1"/><path fill="#83C98D" d="M-14.55-6.45v11.9H15v-11.9h-29.55"/><path fill="#22A465" d="M-14.65-3.6q2.15-.2 2.35-2.35-.2-2.15-2.35-2.35-2.15.2-2.35 2.35.2 2.15 2.35 2.35m0 11.8q2.15-.2 2.35-2.35-.2-2.15-2.35-2.35-2.15.2-2.35 2.35.2 2.15 2.35 2.35M14.9-3.6q2.15-.2 2.35-2.35-.2-2.15-2.35-2.35-2.15.2-2.35 2.35.2 2.15 2.35 2.35m0 11.8q2.15-.2 2.35-2.35-.2-2.15-2.35-2.35-2.15.2-2.35 2.35.2 2.15 2.35 2.35M3.55-.05q-.25-3.3-3.5-3.6-3.3.3-3.6 3.6.3 3.25 3.6 3.5 3.25-.25 3.5-3.5"/></symbol><symbol id="m" overflow="visible"><path fill="#3CAA49" d="M114.65-69.95l-11.8-16.85L92.1-70.2h7.05v9.4h8.5v-9.15h7"/></symbol><symbol id="n" overflow="visible"><path fill="#3CAA49" d="M-92.15 40.1h10.05l-16.95-24.3-15.55 23.9h10.2v13.55h12.25V40.1"/></symbol><symbol id="o" overflow="visible"><path fill="#3CAA49" d="M89.3 71.55V86.8H103V72.05h11.25L95.3 44.85l-17.4 26.7h11.4"/></symbol><symbol id="b" overflow="visible"><path fill="#2DBFEC" d="M75 12.85Q62.6.45 43.95 0q-18.7.45-31.1 12.85Q.45 25.25 0 43.95.45 62.6 12.85 75q12.4 12.4 31.1 12.9Q62.6 87.4 75 75q12.4-12.4 12.9-31.05-.5-18.7-12.9-31.1"/></symbol><symbol id="c" overflow="visible"><path fill="#8FC73F" d="M.9 9.2q2.15 3.5 5.25 5.7 2.75 2.5 5.7 5.7 2.95 3.15 6.55 2.25 3.6-1.6 3.4-6.9-.25-5.25-3.7-9.85Q14.4 1.75 9.3.4 4.25-.9 1.6 1.8-1.25 5.7.9 9.2"/></symbol><symbol id="d" overflow="visible"><path fill="#8FC73F" d="M23.95 37.3q.95-3.85 6.45-6.3 5.45-2.75 3.85-8.3-1.6-5.55-11.55-9.35Q12.55 8.95 11.85 0 .4 12.2 0 30q.2 13.4 7.05 23.85 6.85 10.5 18.2 15.95-.2-6.45 4-10.35 3.4-3.3 3.7-7.3.3-4-4.8-7.5-5.2-3.55-4.2-7.35"/></symbol><symbol id="e" overflow="visible"><path fill="#B0D235" d="M0 23.05q.1 11.7 5.5 21.3Q10.85 53.9 20 59.9q1.2-3.7 0-7.4t-3.2-5.85q-2.85-3.35-3.9-10.2Q11.85 29.6 14.4 25q2.7-4.3 1.85-8.75-.85-4.45-5.2-7.15Q6.1 5 6.55 0 .15 10.2 0 23.05"/></symbol><symbol id="f" overflow="visible"><path fill="#8FC73F" d="M25.1 15.5Q16.1 4.05 1.75 0 .4 6.65 6.7 13.85q5.9 5.55 9.7 14.8 3.85 9.25-3.7 16.75Q3.9 52.65.8 60.05-2.3 67.4 5.55 72.7q6.25 3.65 11.75 4.5 16.3-12.8 17.05-34.75-.3-15.5-9.25-26.95"/></symbol><symbol id="g" overflow="visible"><path fill="#B0D235" d="M6.85 4.8Q3.55-.75.5.35q-1.35 2 1.35 7t5.9 4.8q2.4-1.75-.9-7.35"/></symbol><symbol id="h" overflow="visible"><path fill="#2DBFEC" d="M13.95 0Q.55 12.55 0 32.15.45 50.8 12.85 63.2q12.4 12.4 31.1 12.85 12.65-.15 22.8-6.35 10.1-6.2 15.85-16.65-12.2 11.4-30 11.8Q33.95 64.4 21.55 52 9.15 39.6 8.65 20.95 8.8 9.45 13.95 0"/></symbol><symbol id="i" overflow="visible"><path fill="#B0D235" d="M16.3 15.8Q10.2 5.8 0 0q-.85 2.45 5.15 11.35 5.65 7.6 7.8 17.9 2.1 10.3-4.7 16.8-7.2 6.45-6.7 12.45.5 6 8.65 6.1 2.15-.1 4.3-.95 7.75-10.95 8-25.3-.15-12.5-6.2-22.55"/></symbol><symbol id="j" overflow="visible"><path fill="#2DBFEC" d="M11.9.05Q8.65-.15 5.5 2.4 1.8 5.55.5 9.55q-1.35 4 .9 6.35 2.95 2 8.15-1.1 5.25-3.05 5.8-9Q15.1.25 11.9.05"/></symbol></defs><g overflow="visible"><path fill="#FFD433" d="M19.65 4.6Q19.3.85 15.6.5q-3.75.35-4.1 4.1.15 2.05 1.3 2.95 1.15.9 1.3 2.3v1.05h2.95v-1q.2-1.6 1.3-2.4 1.15-.75 1.3-2.9"/><path fill="#618892" d="M16.85 11.05q-.1-.9-1.25-1-1.2.1-1.3 1 .1.9 1.3 1 1.15-.1 1.25-1"/><path fill="#80A8B5" d="M16.7 11.05q-.1-.8-1.1-.85-1.05.05-1.15.85.1.75 1.15.85 1-.1 1.1-.85"/><path fill="#618892" d="M17.05 10.2q.9-.45 0-.9l-2.95.55q-.9.45 0 .9l2.95-.55"/><path fill="#80A8B5" d="M17.05 10.05q.2 0 .25-.15.05-.05.05-.15 0-.25-.25-.3l-3 .55q-.15 0-.25.15-.05.05-.05.15 0 .25.3.3l2.95-.55"/><path fill="#618892" d="M17.05 11.1q.9-.45 0-.9l-2.95.55q-.9.45 0 .9l2.95-.55"/><path fill="#80A8B5" d="M17.05 10.95q.2 0 .25-.15.05-.05.05-.15 0-.25-.25-.3l-3 .55q-.15 0-.25.15-.05.05-.05.15 0 .25.3.3l2.95-.55"/><path fill="#FEE99B" d="M14.2 1.15q-2.5 1.4-2.3 4.25 0-2 2.6-3.55.85-.2.85-.65-.15-.45-1.15-.05"/><path fill="#80A8B5" d="M7.3 10.8q3.25-1 3.45-3.75-.45-3.65-5.35-4-4.95.35-5.4 4 .45 3.65 5.4 4 .35 0 .7-.05l1.8 2.05-.6-2.25"/><path fill="#FFF" d="M2.45 5.1q-.2.05-.2.25 0 .25.2.3H8.2q.2-.05.2-.3t-.2-.25H2.45m0 1.6q-.2.05-.2.25 0 .25.2.3H8.2q.2-.05.2-.3t-.2-.25H2.45m0 1.6q-.2.05-.2.25 0 .25.2.3H8.2q.2-.05.2-.3t-.2-.25H2.45"/><path fill="#D4EDF8" d="M518.2 341.75V.5H0v341.25h518.2"/><use xlink:href="#b" transform="translate(140.45 57.85) scale(2.655)" opacity=".8"/><use xlink:href="#c" transform="translate(226.7 82.4) scale(2.655)" opacity=".8"/><use xlink:href="#d" transform="translate(140.45 94.75) scale(2.655)" opacity=".8"/><use xlink:href="#e" transform="translate(140.45 113.2) scale(2.655)" opacity=".8"/><use xlink:href="#f" transform="translate(282.6 61.8) scale(2.655)" opacity=".8"/><use xlink:href="#g" transform="translate(245.7 95.55) scale(2.655)" opacity=".8"/><use xlink:href="#h" transform="translate(140.45 89.15) scale(2.655)" opacity=".24"/><use xlink:href="#i" transform="translate(314.05 72.7) scale(2.655)" opacity=".8"/><use xlink:href="#j" transform="translate(240.8 169.35) scale(2.655)" opacity=".16"/><path fill="#FFF" d="M335.15 187.9q.65 1.75 2.35 1.75.55 0 1.1-.15 2.1-1.2 1.45-3.45-3.3-8.5-7.45-15.4-1.45-2-3.7-.9-2 1.45-.95 3.7 4 6.5 7.2 14.45m13.15 30.95q-1.2-8.65-3.2-16.6-.8-2.25-3.2-2-2.25.8-2 3.35 1.85 7.55 3.2 16.05.4 2.1 2.5 2.25h.4q2.4-.55 2.3-3.05m-1.1 14.35q-2.4.4-2.5 2.75.5 7.05.5 13.8v2.7q.15 2.35 2.55 2.75 0-.1.15 0 2.35-.25 2.65-2.65v-2.8q0-6.9-.55-14.05-.4-2.4-2.8-2.5M213.7 92.9q-2.4 0-2.95 2.25-.5 5.95-2 16.6-.1 2.35 2.3 2.9h.35q2.15-.15 2.55-2.25 1.2-8.35 2.1-16.6 0-2.5-2.35-2.9m7.15 0q-1.05 2.25.95 3.55 5.95 3.35 14.45 8.35.65.4 1.3.4 1.5 0 2.3-1.3 1.05-2.25-.95-3.7-8.5-4.95-14.45-8.25-2.25-1.05-3.6.95m-14.75 35.15q-1.6 8.65-3.45 16.2-.4 2.4 2 3.2.25.1.65 0 1.9 0 2.55-2 1.85-7.7 3.45-16.45.25-2.4-2.15-3.05-2.35-.3-3.05 2.1m-14.05 47q-.95 2.25 1.2 3.55.5.4 1.2.3 1.45 0 2.35-1.35 3.35-6.6 6.55-15.8.5-2.35-1.75-3.45-2.4-.5-3.3 1.75-2.95 8.75-6.25 15m-5.85 12.45q-1.85-1.6-3.7-.1-6.1 5.45-12.2 11.55-1.6 1.85 0 3.7.75.8 1.85.8 1.05 0 1.85-.8 6.1-5.85 12.05-11.4 1.6-1.75.15-3.75m122.65-41.25q-2-1.35-3.7.4-1.35 2.1.4 3.7 6.75 5.3 11.8 9.95l.8.65q.8.8 1.85.8t1.85-.9q1.45-1.85-.1-3.75l-.8-.65q-5.2-4.75-12.1-10.2m-16.6-5.7q.8.5 1.6.5 1.35 0 2.15-1.2 1.15-2.1-.7-3.7-6.35-4.5-13.8-9.45-2.1-1.15-3.55.8-1.2 2.15.65 3.6 7.3 4.9 13.65 9.45M266.1 122.5q1.35 0 2.25-1.2 1.1-2.15-.9-3.75-7.3-4.5-14.2-8.75-2.15-1.05-3.6.95-1.05 2.1.95 3.55 6.75 4.25 14.05 8.8.65.4 1.45.4M147.6 227.05q.8.7 1.7.7 1.2 0 2-.95.4-.8 11.15-12.2 1.45-2-.15-3.85-1.85-1.45-3.7.15-10.9 11.65-11.3 12.45-1.45 2 .3 3.7"/><g><path fill="#D4EDF8" d="M401 201.6q-.1-.3-.4-.55l-.65-.65.8-1.6-1.6-.8-.65 1.35q-.8-.3-1.6-.4-.8-.15-1.45 0-.65 0-1.2.4-.65.4-.95 1.15-.5.95-.4 1.75 0 .8.55 1.3.25.7.95 1.2.5.55 1.05.95.5.55.8.95.25.4.1.65-.1.25-.5.25-.3.15-.8-.15-.65-.25-1.05-1.05-.3-.65-.15-1.6l-2.1-1.05-1.75 3.6 2.1 1.05.3-.55q.5.8 1.2 1.35l-.7 1.45 1.6.8.7-1.3q.75.25 1.55.5.7.15 1.5 0 .65-.1 1.15-.4.55-.4.95-1.2.55-.9.4-1.7-.15-.8-.55-1.45-.4-.7-.9-1.2-.65-.55-1.2-.95-.4-.5-.8-.9-.25-.4-.15-.7.15-.25.55-.4.25 0 .8.3.25.1.55.4.25.25.35.65.15.25.3.65 0 .4-.15.8l2.15 1.05 1.7-3.45-2.1-1.2-.3.7M108.2 60.9l-1.75.8.7 1.3q-.8.4-1.35.95-.65.4-1.05 1.05-.25.7-.4 1.35 0 .65.25 1.3.4 1.1 1.1 1.5.65.4 1.45.5.8.15 1.45 0 .8-.1 1.45-.25h1.2q.4 0 .55.4.1.15 0 .5-.15.3-.7.55-.65.25-1.45.15-.8-.3-1.3-.95l-2.15.95 1.6 3.55 2.1-.9-.25-.55q.95 0 1.85-.1l.7 1.55 1.7-.75-.65-1.35q.8-.4 1.3-.95.7-.4.95-1.05.4-.5.55-1.2 0-.8-.3-1.45-.4-1.05-1.2-1.45-.65-.4-1.3-.55-.8-.1-1.6 0-.8.15-1.45.3H109q-.4 0-.65-.4 0-.3.1-.55.15-.25.7-.4.25-.15.65-.25.4 0 .65.1l.8.3q.25.25.4.5l2.25-.9-1.6-3.6-2.1 1.05.25.55h-1.6l-.65-1.6"/><path fill="#80A8B5" d="M404.15 127.4h-1.45v2.65h-2.65v1.45h2.65v2.65h1.45v-2.65h2.65v-1.45h-2.65v-2.65"/><path fill="#80A8B5" d="M399.15 129v3.45h2.65v2.65h3.45v-2.65h2.55V129h-2.55v-2.65h-3.45V129h-2.65"/><path fill="#FFF" d="M347.5 95.1q-.8.4-16.2 3.2-2.25.65-2.1 3.05.5 2.15 2.65 2.25.15 0 .4-.1 15.5-2.8 16.6-3.35 2.25-.8 1.85-3.15-.8-2.3-3.2-1.9m-95.45 2.7q.4-2.55-1.85-3.35-7.8-2.5-15.5-5.55-2.25-.7-3.45 1.6-.7 2.25 1.6 3.45 7.8 3.05 15.9 5.55.25.15.8.15 1.75-.15 2.5-1.85m43.95 6.5q.25 2.35 2.65 2.65h.15q8.1-.3 16.7-1.2 2.4-.4 2.4-2.8-.4-2.5-2.9-2.4-8.5.8-16.35 1.1-2.5.25-2.65 2.65m-14.2 2.1q.15 0 .25.15 2.3-.3 2.7-2.55 0-2.35-2.4-2.75-7.7-.8-16.2-2.7-2.4-.25-3.2 2.15-.25 2.4 2.15 3.05 8.75 2 16.7 2.65"/><path fill="#F3F3F3" d="M351.65 74.3q-6.8.25-11.7 5.2-4.65 4.9-4.65 11.8 1.75 15 16.7 16.45h.3q7.05-.25 11.8-5.2 4.65-5 4.65-11.9Q367 75.75 352 74.3h-.35m9.25 5.95q4.15 7.2 3.85 10.9-1.85 4.5-3.85 8.1.4 3.2 2.95 2.8-1.05 1.05-2.25 2l-.15.1-.15-.1v.1q-1.05.8-2.25 1.35 0 .15-.1.15-.8.35-1.75.65-.15.1-.25.1-2.15.7-4.65.8-2.55 0-4.9-.65-.15-.15-.3-.15-1.05-.4-2.1-.75 0-.15-.15-.15t-.4-.15q-.25-.25-.5-.4-1.5-.8-2.8-2 1.05-.5 1.05-2.35-1.6-4-3.05-9.45-.4-3.2 1.85-9 2.25-5.85 10.25-6.8 6.75.4 9.65 4.9"/><path fill="#F3F3F3" d="M360.25 93.45l-.15-.15q-.1.65-.25 1.35.25-.7.4-1.2"/><path fill="#80A8B5" d="M351.6 73.1q-7.45.25-12.6 5.55-5.05 5.35-5.05 12.75 1.85 16.2 18.05 17.65h.25q7.6-.1 12.75-5.4 5.05-5.45 4.9-12.9-1.85-16.3-18.3-17.65m.4 1.35q15 1.3 16.75 16.3 0 6.9-4.65 11.95-4.95 4.9-11.85 5.2H352q-15-1.5-16.7-16.5-.15-6.9 4.6-11.95 4.8-4.75 11.7-5h.4"/><path fill="#4A3A31" d="M361.35 104.15v-.1q-3.05-1.1-3.35-4.15v-.65q-.5.65-1.05 1.2l.25 3.05.8.15v-.15l.7.4q1.05.15 2.65.25m-16.25.15q.25 0 .55-.15l1.3-.4.25-2.9q-1.05-.8-1.95-2 .1 1.45.1 2.5.15 1.75-.25 2.95m13.7-6.1q-.15 0-.15.15v1.05q.018-.714.15-1.2"/><path fill="#CE96C3" d="M345.1 104.55q-.15.5-.65.85.25.1.4.25l.25-1.1m16.2-.25h-.15q-1.3-.25-2.5-.4l.4 1.75q1.2-.7 2.25-1.35"/><path fill="#FFF" d="M352.3 107.2q2.5 0 4.6-.8.4-1.85.3-2.5.1.9-4.8 1.95h-.25q-4.65-.5-5.05-1.7-.15.25.25 2.4 2.4.65 4.95.65"/><path fill="#BC8A7B" d="M357.15 103.5l-.25-3.05q-2.5 2.1-4.9 2.25-.4.15-.8 0-1.35-.25-2.4-.9-.8-.3-1.6-.95l-.25 3.05.15.25q.4 1.2 5.05 1.75h.25q4.9-1.05 4.75-2.15v-.25m-4.75.15q.4-.8.8-.55.5.65-.8 1.2-1.2 0-1.2-.65.4.25 1.2 0"/><path fill="#FAD4B9" d="M351.75 82.1v-.25h-.1q-.4 0-.8.15-2.25 1.95-4.9 6.1-.15 0-.15.1-.15.3-.25.7.25-.4.65-.8.15-.15.55-.4.1-.15.5-.15h.65q.3 0 .7.15.25.1.5.25.15.15.4.25l.55.55.15.25-.3-.1q-.1-.3-.5-.55-.3-.15-.4-.25-.3 0-.55-.15-.25-.15-.55-.15h-.4v-.1h-.1l-.15.1q-.25 0-.5.15-.3.15-.4.25-.55.4-.8.8v.15q-.55 1.45-.55 2.8.15 2.65.4 6.9.8 1.2 2 2 .65.5 1.45.9 1.05.65 2.4.95h.25q.8-.55 1.2-1.6-.4.25-1.05.15-1.6 0-1.6-1.2.5-.4 1.7-.15.15-.15.4-.15-.1-.1-.25-.4v-.5h-.95q-.88-.391-1.225-.4h.475q-1.9-.55-2-.8 1.3.15 3.15.25.3-.1.55.15-.15-.95 0-1.6h-.25q-.3-.15-.55-.15-.8-.9-.65-1.2-.15-.1-.15-.25.4-.5 1.05-.4.55-.5.8-.5.4.8 0 1.45 1.1-.15 1.2-.3l.15-.1q-1.2-3.6-1.45-6.5-.15-2.8-.3-6.4m-2.35 8.4q-.15-.15-.3-.15-.25-.15-.4-.15-.25 0-.5-.1.25.25.25.5 0 .55-.55.55-.5-.15-.65-.55.15-.25.25-.4h-.25q-.25 0-.4.15-.25 0-.4.15-.25.1-.4.1-.1.15-.25.15-.25 0-.25.15h-.3l.15-.15q.15-.15.25-.15.15-.1.3-.1.25-.15.4-.15.25-.15.4-.15h.25q.1-.1.25-.1.25 0 .4-.15h1.05q.3 0 .4.15.3.1.4.1.3.4.4.55l.15.15q-.15 0-.25-.15-.15-.15-.4-.25"/><path fill="#EFB9A5" d="M360.1 93.3v-.15l.15.15q.15-.8.15-2-.55 2.1-1.1 4.5.3-.8.55-1.3.15-.7.25-1.2m-11.25-10.1q-1.7 2.25-3.05 5.05.15 0 .15-.15 2.65-4.1 4.9-5.95-1.05.25-2 1.05m9.3 3.05q-.4-.7-.95-1.2-1.3-.95-2.1-1.1-1.75-1.3-2.65-1.85-.3-.25-.7-.25v.25q.15 3.45.3 6.25.25 3.05 1.3 6.65v.1q0 .3-.9 1.1-.3.1-.7.1v1.75h.3q.25-.15.65-.15 1.6-.5 3.2-.8-.55.7-3.45 1.6-.15.15-.55.15v.5q.15.3.25.4 1.35-.4 1.2.7-.1.5-.65.65-.4.95-1.2 1.6h.55q2.35-.15 4.9-2.25.5-.55 1.05-1.2 1.05-4.65 1.75-8.5-.15-2.55-1.6-4.5M354 88.9q.15 0 .4-.15.3-.15.55-.15.25-.1.65-.1h.7q.25 0 .5.1.25 0 .55.15.4.25.65.55.55.5.4.5l-.55-.5q-.1-.15-.65-.4-.15-.15-.4-.15-.4-.15-.65-.15h-.55q-.25.15-.5.15-.3 0-.55.15-.25 0-.4.1-.4.15-.55.3l-.25.1.15-.1q.1-.15.5-.4m0 1.3q.15 0 .3-.1.25-.15.5-.15.15-.15.4-.15h.3q.1.15.25.15.25 0 .55.15h-.475q.325.007.325.4 0 .5-.55.5-.5 0-.65-.4 0-.4.4-.5h-.15q-.1 0-.4.1h-.4q-.1.15-.25.3-.4.1-.55.4h-.1l.1-.15q0-.15.4-.55m2.3-.1h.4q.25 0 .35.1.3 0 .4.15.3 0 .4.15l.15.1h-.25q-.15-.1-.3-.1-.25 0-.4-.15-.1 0-.35-.15-.291-.097-.4-.1"/><path fill="#EFB9A5" d="M353.6 90.75l-.1.15h.1q.15-.3.55-.4.15-.15.25-.3h.4q.3-.1.4-.1h.15q-.4.1-.4.5.15.4.65.4.55 0 .55-.5 0-.393-.325-.4h.475q.109.003.4.1.25.15.35.15.15.15.4.15.15 0 .3.1h.25l-.15-.1q-.1-.15-.4-.15-.1-.15-.4-.15-.1-.1-.35-.1h-.4q-.3-.15-.55-.15-.15 0-.25-.15h-.3q-.25 0-.4.15-.25 0-.5.15-.15.1-.3.1-.4.4-.4.55"/><path fill="#BB9888" d="M352.15 95.4h-.1q-.95.15-1.6-.25h-.15q-.15.4.65 1.2.3.15.7.15h.1q.4 0 .65-.15.95-.8.95-1.2-.25.15-1.2.25"/><path fill="#FEECE0" d="M352.05 93.95q-.15.15-.7.55-.8 0-1.05.4 0 .25.15.25.65.4 1.6.4l.1-.15q.4-.5-.1-1.45m-.3 6q-1.2-.3-1.75.25 0 1.05 1.75 1.2.65 0 1.05-.15.4-.1.65-.65 0-1.05-1.2-.8-.4.15-.5.15"/><path fill="#B35354" d="M351.35 97.95q-1.85 0-3.2-.15.15.15 2 .8.8.15 1.3.15.95-.15 1.1 0v.15q2.75-1.1 3.3-1.75-1.6.4-3.2.95-.25-.15-.65.1-.15 0-.25-.1-.15-.15-.4-.15"/><path fill="#FEECE0" d="M349.65 98.45q.4.15 1.35.4.25.15.9 0h.55l.1-.15q-.1-.1-1.05 0-.5 0-1.2-.1l-.65-.15"/><path fill="#272526" d="M349.75 90.75q.132.132.275.15-.125-.019-.125-.15l-.4-.4q-.15-.15-.4-.25-.15-.15-.4-.15h-.8q-.15 0-.25.15h-.4q-.15.1-.25.1h-.3q-.1 0-.4.15-.1 0-.4.15-.1.1-.25.1-.15.15-.25.15l-.15.15h.25q0-.15.3-.15l.25-.15q.15 0 .4-.1.15 0 .4-.15.15-.15.4-.15h.4q-.302.006-.4.4.1.55.65.55t.55-.55q0-.25-.3-.4h.55q.15 0 .4.15.15 0 .25.15.3.1.4.25m4.25-.4q-.3.25-.4.4 0 .15-.15.25h.15q0-.1.1-.1l.4-.4q.15 0 .3-.15.25 0 .4-.15h.5q-.25.006-.25.4 0 .55.5.55.7-.15.7-.55-.15-.4-.4-.5.1 0 .4.1h.4q0-.1-.15-.1h-.25q-.3 0-.55-.15h-.9q-.3.15-.4.15-.3.1-.4.25m3.55 0q-.25 0-.4-.15h-.5q.25.15.4.3.25 0 .4.1h.25l.25.15h.3l-.15-.15q-.15 0-.25-.1-.15 0-.3-.15"/><path fill="#C3A298" d="M353.3 103.1q-.5-.3-.9.5-.8.3-1.2 0 .15.7 1.35.8 1.15-.65.75-1.3"/><path fill="#9F61A1" d="M347.1 106.55l-.75-2.4-1.1.25-.25 1.2q1.05.55 2.1.95m10.9-2.9l-.8 2.8q.95-.3 1.75-.7l-.4-1.7v-.15l-.55-.25"/><path fill="#D3D3D3" d="M346.95 103.9l-.65.25.8 2.4h.25q-.25-2.1-.25-2.4v-.25h-.15m10.25 2.5l.8-2.75-.8-.15v.25q0 .7-.25 2.65h.25"/><path fill="#989899" d="M359.2 105.65l-.4-1.6h-.15l.25 1.75q.15-.15.3-.15m-14.2 0l.1-1.2-.25 1.05q0 .15.15.15"/><path fill="#281912" d="M345.35 98.85q-.25-4.25-.4-6.9 0-1.45.55-2.8-.55.65-.4.8h-.15v.25q-.4 2.65-.25 7.2v.4q0 1.45.15 2.9 0 2.5-.15 3.3-.15.7-.8.95.25.25.55.4.4-.4.65-.95v-.1q.4-1.2.4-2.95-.15-1.05-.15-2.5"/><path fill="#281912" d="M348.8 83.2q-1.7 2.1-3.05 5.05-.1.25-.1.65-.15 0-.15.15l-.4.8q.95-3.6 3.7-6.65"/><path fill="#482C1D" d="M341 82.25q-2.1 5.85-1.85 8.9 1.45 5.6 3.05 9.45 0 2-1.05 2.5 1.3 1.05 2.8 2 .65-.4.75-.95.15-.9.15-3.45-.15-1.3-.15-2.9v-.25q-.1-4.65.3-7.2 0-.25.1-.4h-.1q.1-.003.1-.1.8-3.6 3.75-6.65.9-.8 2-1.05l.8-.3.1.15q.4 0 .65.25 1.1.55 2.7 1.75.75.25 2.1 1.05-1.05-1.2-2.1-2.25 1.7.25 3.85 3.05.25.25.4.65.75-.65 1.3-1.95.65-1.6.55-3.1-.15-.5-.3-1.05-2.9-4.65-9.65-4.9-8 .8-10.25 6.75m-.8 7.05q-.1-1.2 1.05-5.55 1.2-4.55 4.55-6.65 3.05-.55 2.9 2.5-2 2-5.15 7.3-2.8 6.25-3.35 2.65v-.25"/><path fill="#151413" d="M350.2 89q-.148-.003-.3-.1l.15.1h.15m-.3-.1q-.1-.3-.5-.7-.15-.1-.4-.25-.3-.15-.55-.25-.25-.15-.55-.15h-.65q-.4.15-.65.25-.25.15-.55.3l-.5.8-.15.1q-.25.55-.4.8v.15l.4-.8q.15 0 .15-.15.25-.4.65-.8.25-.1.55-.25.25-.15.5-.15h.55q.4 0 .65.15.15.15.4.25.25.15.4.3.4.1.65.4m3.45.55l.25-.15q.15 0 .55-.25.25 0 .4-.15.25 0 .55-.15.25 0 .5-.1h.65q.3 0 .55.1.25 0 .4.15.55.25.8.4-.15-.25-.65-.4-.15-.15-.55-.25-.25-.15-.55-.15h-.65q-.25 0-.65.15-.25 0-.55.1-.1.15-.4.3-.4.1-.5.25l-.15.15M358.4 89.85h.15l-.55-.55.4.55"/><path fill="#5E3F31" d="M340.2 89.7q.55 3.45 3.3-2.8 3.2-5.3 5.2-7.3.15-3.05-2.95-2.55-3.15 2.15-4.35 6.65-1.35 4.4-1.2 5.6v.4"/><path fill="#3A2318" d="M361.15 81.3q0 1.6-.5 3.2-.55 1.2-1.35 2 .55.9.8 2.4.3 1.45.3 2.35 0 1.2-.15 2-.15.65-.4 1.2-.8 1.35-1.2 3.6v1.85q-.15 2 1.35 3.05.65.55 1.55 1.2 1.2-.95 2.3-2.15-2.4.4-2.95-2.65 2-3.7 3.85-8.2.25-3.75-3.85-10.9.25.55.25 1.05"/><path fill="#5E3F31" d="M358.25 86.25q1.45 2 1.6 4.5-.8 3.85-1.9 8.5v.65q.3 3.1 3.35 4.25h.25q-.95-.65-1.45-1.15-1.6-1.1-1.45-3.1v-1.7q1.05-3.7 1.7-6.9 0-.95-.25-2.4t-.8-2.4q-.15-.4-.4-.8-2.1-2.65-3.85-2.9 1.05.95 2.1 2.25.55.55 1.1 1.2"/><path fill="#F3F3F3" d="M336.35 235.2q0-1.35 4.5-4.25 6.75-1.9 12.6 5.4.55 1.1.8 1.9.15 4.1.55 5.95.9 1.05 1.6-.15l.35-.65q0 2-2.75 4v.1q.25-.1.5-.1 1.75.4.55 2.9-.55 2.4-1.6 2.55-.25 0-.25-.15-.4 1.7-1.05 3.7-.8 2.4-2.8 4.15l.4 3.15.8.15.65.25q2.8.4 6.5 1.05 3.7.7 4.4.95.5.95 2.35 7.85 9.05-8.5 9.3-21.65-.25-12.75-8.75-21.25t-21.1-8.75q-12.75.25-21.25 8.75t-8.75 21.25q.4 13.95 10.35 22.55 1.05-7.3 1.35-8.1.65-.4 4.35-1.2 3.85-.65 6.9-1.3l1.1-.15.75-.25.3-3.3q-2-1.6-2.95-4-.65-2.15-1.05-4.1 0 .4-.25.4-1.05-.15-1.75-2.55-.9-2.25.4-2.9-1.7-4.25-1.3-9.05 2.9-3.55 4.25-3.15"/><path fill="#80A8B5" d="M366.45 274.7q9.05-9 9.45-22.55-.4-13.55-9.45-22.55-9-8.9-22.55-9.3-13.55.4-22.55 9.3-8.9 9-9.3 22.55.4 13.55 9.3 22.55 9 9.05 22.55 9.45 13.55-.4 22.55-9.45m-42.05.15q-9.95-8.75-10.35-22.7.25-12.75 8.75-21.1 8.5-8.5 21.1-8.75 12.75.25 21.25 8.75t8.75 21.1q-.4 13.15-9.3 21.8.15.35.3 1.05-7.3 6.6-17.55 7.95h-.25q-.65 0-1.35.15h-3.85l-.1-.15q-10.25-.8-17.55-6.9 0-.65.15-1.2"/><path fill="#2E5972" d="M336.75 264.25q-3.05.55-6.75 1.35-3.75.75-4.25 1.05-.4.9-1.45 8.2 0 .55-.15 1.1 7.45 6.2 17.5 7l-5.15-8.1 1.2-3.05-2.65.3 1.7-7.85m3.75 8.2l2.9 10.65h.25l-3.15-10.65m7.9 0l-2.9 10.65h.25l2.65-10.65m13.7-6.35q-.7-.4-4.4-.95-3.6-.65-6.25-.9l1.6 8.2-2.4-.1 1.2 3.15-4.5 7.45q10.2-1.35 17.4-7.95-.15-.7-.3-1.1-1.85-7-2.35-7.8"/><path fill="#F1AC1F" d="M343.65 269.8q.3.3.7.3.65-.3.75-.15.8-.15 1.35-2.1-.95-1.75-1.85-1.75-1.05-.15-2 1.75.55 1.85 1.05 1.95"/><path fill="#F1AC1F" d="M343.65 269.95l-1.35 6.75v.3l1.6 6.2h1.05l1.6-6.9-1.45-6.2q-.15.25-.7.4-.5-.4-.75-.55"/><path fill="#FFF" d="M343.5 270.75l-3.85-2.1q2 5.55 2.65 8.1l1.2-6m-3.85-2.15q1.3.7 4 1.35-.55-.3-1.1-2.15.8-1.6 1.6-1.7-4.9-.55-5.3-2-.25.65.65 4.4.15 0 .15.1m6.95-.75q-.65 2-1.35 2.25 2.25-.55 3.6-1.2.15-.4.25-.65.95-2.9.7-4.1.1.9-5.2 1.95v.15q.95-.15 2 1.6m-.15 8.45q.55-1.85 2.25-7.3l-3.3 1.85-.15-.25 1.2 5.7"/><path fill="#BC8A7B" d="M349.75 263.85l-.4-3.3q-2.65 2.25-5.15 2.25h-.8q-1.45-.4-2.65-1.05-.95-.55-1.75-1.2l-.25 3.3.15.3q.4 1.45 5.3 2.1h.25q5.6-1.2 5.3-2.25v-.15m-5.05.7q-1.3-.15-1.45-.8.4.25 1.35.1.4-1.05.9-.65.55.8-.8 1.35"/><path fill="#CEA692" d="M336.6 247.1q.4-1.85.4-5.7-1.45 2.8-.65 8.25h-1.1q0 .5-.1 1.45 0 .8-.15 1.3.4 2.15 1.05 4.15.95 2.35 2.95 3.95.8.7 1.7 1.2-.65-.5-1.3-1.7-.55-2.55-1.75-4.25-2.1-4.95-1.05-6.1-.55-1.35 0-2.55"/><path fill="#FAD4B9" d="M338.85 240.25q-.25-.15-.5-.15-.8.25-1.35 1.35 0 3.7-.25 5.7-.65 1.05-.15 2.5-1.05 1.05 1.1 6 1.15 1.7 1.85 4.25.5 1.3 1.2 1.7 1.15.8 2.65 1.05.326.14.7.15-.269-.014-.45-.15.8-.5 1.35-1.6-.4.15-1.1.15-1.85-.15-1.85-1.3.65-.55 1.85-.3.55-.1 1.35-.1-.8-.55-1.35-1.5 0-.25-.1-.65h-.95q-.95-.4-1.45-.55.65.15 2.1.3h.3v-.15q-3.05-.4-3.75-1.2 1.35.3 3.05.4.55 0 .7.3 0-.95.1-1.75-.1.15-.25.15-.25-.15-.65-.3-.8-.9-.7-1.2h.15q-.15-.1-.15-.25.3-.5 1.1-.4.65-.5.8-.65.5.95 0 1.6 1.2-.15 1.3-.3.15 0 .15-.1-1.05-3.2-1.05-5.85-.3-1.75-2.4-3.7-1.85-2.8-3.35-3.45m-1.95 7.15q1.85-1.2 3.7-1.2 1.7.15 1.7.65 0 .55-.5.4-1.45-.4-3.35-.25-1.55.55-1.55.4m5.15 1.35q-.15-.3-.4-.4-.25-.15-.4-.15-.1-.15-.4-.15-.25-.1-.5-.1.25.1.25.5 0 .55-.55.55-.65 0-.65-.65 0-.3.4-.4h-.4q.15-.15.4-.15h.25l.15-.15h.15q.25 0 .5.15.3 0 .55.15.25 0 .4.1.25.4.4.55 0 .15.1.15v.1l-.1-.1h-.15m-3.2-.8h.55q-.25.1-.55.1-.25.15-.4.3-.25 0-.35.1-.3 0-.4.15h-.3l-.1.15h-.15q.15-.15.25-.3.15 0 .3-.1.1 0 .25-.15.25 0 .4-.15.25 0 .5-.1"/><path fill="#FAD4B9" d="M342.2 248.75l.1.1v-.1q-.1 0-.1-.15-.15-.15-.4-.55-.15-.1-.4-.1-.25-.15-.55-.15-.25-.15-.5-.15h-.15l-.15.15h-.25q-.25 0-.4.15h-.55q-.25.1-.5.1-.15.15-.4.15-.15.15-.25.15-.15.1-.3.1-.1.15-.25.3h.15l.1-.15h.3q.1-.15.4-.15.1-.1.35-.1.15-.15.4-.3.3 0 .55-.1h.4q-.4.1-.4.4 0 .65.65.65.55 0 .55-.55 0-.4-.25-.5.25 0 .5.1.3 0 .4.15.15 0 .4.15.25.1.4.4h.15m-.15 0q-.15-.3-.4-.4-.25-.15-.4-.15-.1-.15-.4-.15-.25-.1-.5-.1.25.1.25.5 0 .55-.55.55-.65 0-.65-.65 0-.3.4-.4h-.4q.15-.15.4-.15h.25l.15-.15h.15q.25 0 .5.15.3 0 .55.15.25 0 .4.1.25.4.4.55 0 .15.1.15v.1l-.1-.1h-.15"/><path fill="#EFB9A5" d="M353.2 252.7l.25.25q1.1-.25 1.75-2.65 1.05-2.35-.65-2.9-.3 0-.55.15-.15.1-.15.25-.8 1.45-.65 3.05.15.95 0 1.85m1.45-2.25q-.65 1.45-1.2 1.45.15-.8.3-1.45-.55-.4-.15-1.2.65-.9 1.45-.8.4.7-.4 2"/><path fill="#BB9888" d="M354 247.4h-.25q-.55-.3-1.05-.15-.3 1.45-.15 2.4.65 2.65-1.05 5.15-2 1.75-2.8 5.05-1.45 2.4-3.6 2.65-.65.15-1.45.15.25.15.55.15 2.65-.15 5.15-2.4 2-1.6 2.8-4 .65-2 1.05-3.85v-1.7q-.15-1.6.65-3.2v-.15l.15-.1"/><path fill="#EFB9A5" d="M340.2 240.5q-.9-.7-1.7-.55l-.15.15q.25 0 .65.1 1.45.7 3.2 3.45 2.25 2 2.4 3.6 0 2.65 1.05 5.95v.15q0 .25-1.05 1.2-.3.15-.7.15v1.7q.3-.25.7-.25 1.05.25 2.9-.15-1.3.65-3.6.95v.1q.7 0 .8.15-.1.15-.8.15 0 .4.15.65.4.8 1.2 1.45.8 0 .55.8-.15.65-.7.8-.5.95-1.3 1.6.65 0 1.45-.15 2.15-.25 3.6-2.75.8-3.1 2.75-5.05 1.75-2.4 1.1-5.05-.15-.95.1-2.4-1.55 1.05-5.15-.25-1.05.1-1.35.25-.5.15-.5-.25 0-.3.65-.7-2.8-1.7-4-3.15-.5-.55-.9-1.2-.3-.4-.7-.8-.25-.4-.65-.65m10.5 8.1q-.15 0-.25-.15-.3 0-.4-.15-.3 0-.4-.1-.3-.15-.55-.15h-.4q.253.008.4.4-.15.55-.65.65-.55 0-.7-.5 0-.4.4-.55h-.5q-.25.15-.4.15-.25.1-.4.25-.4.15-.55.25 0-.25.4-.5.15-.15.4-.3.15 0 .4-.1h.8q.15 0 .25.1h.55q.15.15.25.15h.3q.25 0 .4.15.25 0 .4.1.25 0 .4.15.1.15.25.15l.15.1q0 .15-.3 0l-.25-.1"/><path fill="#151413" d="M347.65 247.1q-.5-.25-1.05-.5 0-.15-.15-.15-.65.25-.65.55 0 .5.55.4.25-.15 1.3-.3"/><path fill="#BB9888" d="M353.75 250.3q-.15.65-.25 1.6.5 0 1.2-1.6.65-1.2.4-2-.8-.15-1.5.95-.5.8.15 1.05m-9.2 4.4q.95-.95 1.05-1.35-.25.15-1.45.4h-.25q-.15-.15-.15 0-.9 0-1.3-.4h-.15q-.15.4.8 1.2.25.25.55.25h.25q.4 0 .65-.1"/><path fill="#FAD4B9" d="M334.85 249.15q.3.75-.35 1.05v1.45q-.55-.15-.95-1.75-.4-1.3 0-1.95h.15l-.15-.55q-1.35.65-.4 2.9.65 2.4 1.7 2.55.15 0 .3-.4 0-.65.1-1.45 0-.95.15-1.5l-.4-1.45-.15-.1h-1.15q.65.1 1.15 1.2"/><path fill="#CEA692" d="M334.9 249.1q-.55-1.2-1.35-1.2-.4.65 0 2 .4 1.6.95 1.7v-1.45q.65-.25.4-1.05"/><path fill="#FEECE0" d="M344.15 253.65q.65-.55 0-1.6-.1.15-.8.65-.8-.1-1.05.4 0 .15.15.3.4.4 1.3.25h.4m-.25 5.95q-1.2-.3-1.85.25 0 1.2 1.75 1.35.75 0 1.15-.15.55-.25.7-.65.25-.95-.55-.95-.65 0-1.2.15"/><path fill="#151413" d="M342.35 247q0-.65-1.75-.8-1.95.15-3.7 1.35l1.6-.55q1.85-.15 3.3.25.55.15.55-.25"/><path fill="#BA8886" d="M343.1 256.15q-1.7-.15-3.05-.4.65.8 3.7 1.2 2.25-.25 3.75-.8-2 .25-3.05.15-.4-.15-.7.1-.25-.25-.65-.25"/><path fill="#FEECE0" d="M341.4 256.8q.4.15 1.45.55h.95q.65 0 .8-.15 0-.15-.8-.15h-.4q-1.35-.1-2-.25"/><path fill="#211A16" d="M338.35 240.1q-.7-.95-2.15.4-1.85 4-.5 9.15h.65q-.8-5.45.65-8.2.55-1.1 1.35-1.35m3.95 2.9v.15q.25.25.55.5-.4-.4-.55-.65m11.7 4.4q2.75-2 2.75-4.15l-.4.8q-.5 2.4-4.5 2.55-5.45-.15-7.95-2 1.05.9 2.5 1.85l.15.15q.55.25 1.05.5 3.6 1.2 5.05.3.55-.15 1.05 0h.3"/><path fill="#3B3029" d="M349.9 244.2q-4.8-.65-9.05-2.9.25.4.65.8.4.55.95 1.2l-.15-.25q2.158 3.45 9.55 3.55 4.15-.1 4.55-2.5-.7 1.2-1.6.1-1.35.8-4.9 0"/><path fill="#3B3029" d="M332.1 238.5q-.4 4.65 1.35 8.85l.15.7h1.3l.4 1.6h.25q-1.2-5.05.55-9.2 1.45-1.3 2.25-.4.8-.1 1.75.55 6.1 1.85 11-.15 2-1.7 3.2-2.25-.3-.8-.8-1.7-6-7.45-12.6-5.6-4.55 2.95-4.55 4.25-1.3-.4-4.25 3.35m1.75-1.5q2-1.85 0 2-.65 5.3.5 7.6h-.75q-.8-3.85-1.1-5.35-.4-2.5 1.35-4.25m2.9-1.3q0-1.75 2.65-3.3 3.75-1.35 5.7-.7 0 .3-2.25 1.85-2.25 1.75-2.25 5.75-.65.65-2.4-.4-1.05-.3-1.45-3.2"/><path fill="#231E1A" d="M340.85 241.3q4.25 2.4 9.05 2.9 3.55.8 4.9 0-.4-1.7-.55-5.95-1.05.55-3.05 2.25-4.9 2-11 .15.4.25.65.65"/><path fill="#655348" d="M342.85 233.55q2.25-1.55 2.25-1.85-2-.65-5.7.7-2.5 1.55-2.65 3.15.4 3.05 1.45 3.35 1.85 1.05 2.4.4 0-4.15 2.25-5.75m-9.3 13.05h.8q-1.2-2.25-.5-7.6 1.95-3.85 0-1.95-1.75 1.55-1.35 4.25.25 1.45 1.05 5.3"/><path fill="#272526" d="M342.05 248.75l.15.1v-.1q-.15-.3-.55-.55-.1-.15-.4-.25-.1 0-.4-.15h-.8q-.1 0-.25.15h-.55q-.1.1-.25.1h-.25q-.25 0-.4.15-.25 0-.4.15-.25 0-.4.1-.15.15-.25.15l-.15.15h.25q.15 0 .3-.15.1 0 .25-.15.25 0 .4-.1.25 0 .55-.15.1-.15.35-.15h.4q-.25.15-.25.4 0 .55.55.7.65-.15.65-.55t-.4-.55h.65q.15.15.4.15.15.15.3.15.4.25.5.4m9.2 0l-.55-.3q-.15-.1-.25-.1-.15-.15-.4-.15-.3-.15-.55-.15h-.25q0-.1-.15-.1h-.55q-.1-.15-.25-.15h-.8q-.25.15-.5.15-.15.1-.4.25-.3.25-.4.55l-.15.1h.15l.1-.1q.15-.15.4-.3.3-.1.4-.25.3 0 .4-.15h.55q-.25.15-.4.55.15.4.8.55.5-.15.5-.7 0-.25-.4-.4h.55q.15 0 .4.15t.4.15q.25.1.4.1.25.15.4.15.15.15.25.15h.3"/><path fill="#C3A298" d="M344.75 263.85q-.95.15-1.35-.15.15.7 1.35.8 1.45-.5.9-1.3-.5-.4-.9.65"/><path fill="#386B85" d="M337.9 271.8l-1.15 3.05 5 8.25q.8 0 1.6.1l-5.3-18.95v-.15l-1.2.25-1.45 7.45h2.5m13.45 3.35l-1.05-3.05 2.25-.15-1.35-7.7-.65-.4v.25l-4.9 19H347q3.55-6.65 4.35-7.95"/><path fill="#DB9928" d="M344.45 270.5q.55-.15.65-.4-.25-.15-.8 0-.15.05-.3.05.25.1.45.35m.55 12.55h.55l1.2-5.95-.15-.8-1.6 6.75m-1.45.05h.4l-1.6-6.25-.15.4 1.35 5.85"/><path fill="#D3D3D3" d="M338.9 264.25v-.15l-.15-.25-.8.25 4.25 13.3v-.4l.15-.25q-.8-2.55-2.65-8l3.7 2.15.25-.95q-2.65-.55-3.95-1.3-.15 0-.15-.15-.95-3.6-.65-4.25m10.85-.55v.25q.15 1.35-.8 4.25-.15.4-.25.8-1.85 5.45-2.25 7.3l.25.95 3.85-13.15v-.25l-.8-.15"/><path fill="#D3D3D3" d="M348.7 269q-1.35.55-3.6 1.05l.15.55v.4l3.45-2"/><path fill="#264A5B" d="M352.5 271.95l-2.35.15 1.2 3.05-4.4 7.95q.15 0 .4-.15l4.5-7.3-1.3-3.15 2.35.1-1.55-8.35h-.15l1.3 7.7m-17.1-.1l1.5-7.45-1.75 7.85 2.5-.3-1.15 3.05 5.3 8.1h.1l-5.15-8.1 1.2-3.15h-2.55"/><path fill="#FFF" d="M139.35 195.65q1.05-.55 1.6.5-.25-1.2.8-1.6 1.2-.25 1.6.8-.15-1.05 1.05-1.3 1.05 0 1.35 1.05 0-1.05 1.05-1.35 1.2 0 1.3 1.2 0-1.2 1.1-1.3.5-.15.9.25.4.25.4.8.15-1.05 1.45-.95 1.2.4.95 1.5.4-1.1 1.6-.7.8.55.65 1.35h.15q.65-.55 1.45-.15.55.3.55.95.25.1.4.25.65-.25 1.15.15.4.25.55.65l.15.15q.25.1.4.25.5-.15.9.15.55.4.7.9h.1q0 .15.15.3.5-.4 1.2-.15.4.25.5.8.15.4 0 .8v.1q.3-.5.8-.5.55 0 .95.4.8 1.05 0 1.7.9-.5 1.6.55.5 1.05-.4 1.6.9-.3 1.45.8.25.8-.4 1.3 0 .15.15.15.65.15.9.9.15.7-.25 1.2.15.15.25.4v.15q.4.25.55.8 0 .55-.25.9.25.3.35.7-.1.1-.1.25.25.25.25.65t-.25.8q.25.3.25.8.15.15 0 .4.15.15.15.55t-.3.8q.3.25.15.8.15.5-.4.8-.1.1-.4.25l-.1.15q.75.35.75 1.3-.35 1.05-1.45.95.95.25.8 1.45-.4 1.05-1.45.8.95.5.55 1.6-.55 1.05-1.6.65 1.05.55.5 1.6-.65.9-1.7.4.9.65.25 1.7-.8.8-1.7.15.8.8.1 1.7-.9.8-1.7 0 .65.95-.15 1.75-1.05.65-1.7-.15.5.95-.4 1.6-.7.4-1.35 0-.15.15-.25.4-.15.55-.65.8-.55.55-1.1 1.05l.55 4.4q.4.15 1.7.25l.15-.25.15-.55h3.45q12.6-7.4 13.25-22.8-2.25-24.05-26.25-26.3-24.05 2.25-26.3 26.3 2.25 24 26.3 26.25 4.9-.1 9.15-1.7-4 1.3-8.5 1.3-5.3 0-10.1-2-.5-.1-1.05-.35l.9-.3.15.55v.1q2-.35 2.65-.5l.3-4.8q-.15-.1-.3-.25-.5-.15-.65-.65-.25-.15-.4-.4-.55.4-1.2.1-1.05-.65-.55-1.7-.65.9-1.7.4-.8-.8-.25-1.75-.8.8-1.75.15-.65-.95 0-1.75-.9.7-1.7-.1-.7-.95.1-1.75-.9.7-1.6-.25-.65-1.05.3-1.75-.95.55-1.6-.35-.4-1.2.55-1.75-1.1.4-1.6-.65-.3-1.05.8-1.45-1.2.1-1.5-.95-.1-.4.15-.8-.55-.25-.65-.65-.3-.7 0-1.05 0-.4.1-.7-.5-.1-.8-.9 0-.8.7-1.2v-.3q-.7-.25-.8-1.05.1-.9.9-1.2l.15-.1q-1.05-.15-1.05-1.2.1-1.05 1.3-1.2-1.2-.15-1.2-1.35.3-1.05 1.5-1.05-1.2-.25-.95-1.45.15-.55.65-.8.394-.246.925 0-.527-.259-.625-.8-.15-.4.1-.95.4-.5.95-.65.55 0 .8.4-.25-.5-.25-.9.1-.55.65-.95 1.05-.55 1.6.4-.4-.95.4-1.6.25-.25.8-.15.25 0 .65.3-.15-.15 0-.3-.25-.1-.25-.5-.15-.15-.15-.4.15-.15.25-.4.3-.4.8-.55.541-.098.95.3-.795-.807-.15-1.75 1.05-.8 1.85 0-.65-.95.4-1.7"/><path fill="#80A3AE" d="M149.3 188.85q-11.9.25-20 8.25-8 7.95-8.25 20 .25 11.95 8.25 19.95 7.95 7.95 20 8.2 11.95-.25 19.95-8.2 7.95-8 8.2-19.95-.25-12.05-8.2-20-8-8-19.95-8.25m-26.25 28.25q2.25-24 26.25-26.25 24.05 2.25 26.3 26.25-.8 15.3-13.4 22.85h.15q-.95.55-2 .95-5.05 2.35-11.05 2.5-24-2.4-26.25-26.3"/><path fill="#582F16" d="M148.55 238.9q-2.15-.4-3.85-1.75-.95-.5-1.9-1.45l-.25 4.8q-.65.1-2.65.5 4.65 1.85 10.1 2 4.35-.15 8.5-1.45.1-.55.1-.8-1.45-.25-1.85-.25l-.4-4.55q-3.45 2.95-6.75 3.05-.55 0-1.05-.1m1.7 3.05q-1.7-.15-1.85-.95.55.25 1.7 0 .55-1.2 1.2-.8.7 1.05-1.05 1.75"/><path fill="#3A3B3B" d="M135.25 218.3q.15.4.15.65h.8q0-.1-.3-.1-.25-.15-.5-.55h-.15m1.1.7h-.15v.15h.25q-.1-.002-.1-.15m33.05-1.85q.15-.55-.15-.8l-.1.15q-.394.394-.875.25.477.158.575.65 0 .4-.1.7l-.15.1q.25-.1.4-.25.4-.25.4-.8m-9.45 13.65q-.55 1.55-1.6 3.05.65.4 1.35 0 .75-.7.25-1.6.8.8 1.7.1.95-.8.3-1.7.65.8 1.6 0 .75-.95 0-1.75.9.7 1.7-.1.55-1.1-.25-1.75.9.55 1.6-.4.5-1.05-.4-1.6 1.05.3 1.55-.65.4-1.05-.65-1.6 1.05.3 1.6-.8.15-1.2-.95-1.45 1.2.15 1.5-.9.1-.95-.7-1.35l-.4.4q-.75.25-1.3 0-.4-.25-.4-.8-.15 1.2-1.35 1.2-.65-.15-.9-.65-.65.25-1.2.5 2.1.7.8 3.85-.95 3.05-2.25 3.35-.15 0-.3-.3-.65 2.4-1.3 4.95m-28.9-9.95q-.394-.541 0-.9-.409.348-.95.25-.15-.15-.25-.15-.15.25-.15.8.4 1.05 1.45.8-1.05.5-.65 1.6.4 1.05 1.45.65-.9.55-.5 1.7.65.95 1.7.4-.95.7-.4 1.75.8.95 1.75.25-.95.8-.15 1.75.8.8 1.6.1-.7.8.1 1.75.95.65 1.75-.15-.65.95.25 1.75.95.5 1.6-.4-.4 1.05.55 1.7.65.3 1.3-.1-1.45-1.6-2.4-3.6-.9-2.1-1.05-3.45-.1-.95-.4-1.85 0 .5-.25.65-1.45-.25-2.25-3.3-.55-1.45-.55-2.8-.9.25-1.3-.4.5 1.05-.95 1.75-.8 0-1.3-.55m-1.6-3.2q-.15.25-.15.55.248-.396.65-.4-.254-.002-.5-.15m-.3-2.15q.25-.1.55-.1v-.15q-.3.15-.4 0-.15.15-.15.25m.25-2.6v.15q.148-.148.25-.15h-.25m6.4-12q0-.1-.15-.25v.15l.15.1m19.6-5h-.1q0 .141-.1.25.106-.109.2-.25m2.45 1.05q-.15-.1-.4-.25.097.388-.075.775.184-.38.475-.525m1.7.8h-.1q.098.541-.15.95.256-.402.65-.55-.1-.15-.4-.4m2.25 1.7q0-.1-.15-.1 0-.15-.1-.15 0 .394-.15.65.154-.252.4-.4m5.7 7.45q-.242.145-.4.15h.55q-.15-.005-.15-.15m.8 2.15q-.25.25-.65.4.55-.15.95.15-.15-.4-.3-.55m.8 3.3q.15-.15.15-.3-.15-.4-.4-.65-.246.394-.725.4.58.007.975.55m.4 2.25q0-.55-.4-.8-.25.4-.8.55.8-.15 1.05.65.15-.25.15-.4"/><path fill="#985D25" d="M149.85 212.85q-1.45-.15-1.3-1.2-.3 1.05-1.45.8-1.2-.4-.95-1.45-.4 1.05-1.35.8-.5 0-.65-.4-.25-.25-.25-.8-.15.55-.25.95-.15.25-.4.4-.3.1-.7.1-.492-.098-.8-.4.302.308.4.8.15.25 0 .65-.25.7-1.45.7 1.05.25 1.05 1.3t-1.2 1.2q1.1 0 1.2 1.2 0 .65-.5 1.05-.394.295-.875 0 .477.308.575.8 0 .55-.5 1.2-.55.4-1.35.25-.496-.099-.5-.6-.005.501-.7.6-.5.3-.9-.25.1.25.25.65.4 1.1-.4 1.35v2q-.8-.15-1.2-2.25-.65-1.75 0-2.55.55-.1.95.4-.15-.5-.15-.8v-.25q0-.15-.25-.15h-.8q0 .7-.4.95-.25.1-.4.1.15 1.35.55 2.8.8 3.05 2.25 3.35.25-.15.25-.7.25.95.4 1.85.25 1.35 1.05 3.5.95 1.85 2.4 3.55.15.15.25.4.4.25.8.65 0 .15.3.3.8.8 1.85 1.45 1.7 1.3 3.85 1.7.48.144.875.15-.25-.009-.625-.15 1.05-.75 1.85-2.1-.65.25-1.6.15-2.25 0-2.25-1.75.8-.65 2.4-.25.65-.15 1.6-.15-.8-.8-1.45-1.7-1.1.1-1.6 0-1.45-.7-2.15-.95.95.25 2.95.55h.65q-.15-.15-.15-.3h-.1q-4.15-.8-4.95-1.95 1.6.4 4.15.4.5.1.9.5v-2q-.65.15-1.3 0-1.35-1.2-1.45-1.85h.1q-.1-.15-.1-.25.65-.8 1.85-.95.9-.8 1.2-1.2.9 1.75.1 2.95 1.2-.15 2.25-.3.7-.25.8-.25-1.7-3.85-2.5-8.5-.55-1.6.15-3.95 1.15-1.6 4.5-3.35-.95.15-1.35-.8.15 1.1-.9 1.5-1.1.25-1.45-.8.1 1.05-1.1 1.3m-4.25 4.9h-.65q-.25-.1-.65-.1-.3.1-.55.25-.4 0-.65.15-.25.1-.4.25-.95.55-.95.65 0-.1.8-.8.15-.25.4-.4.3-.1.7-.25.25-.15.65-.15.4-.1.65 0 .4 0 .8.15.25 0 .65.15.55.1 1.1.4.5.1.75.4l.3.1q-.15 0-1.05-.4-.55-.1-1.2-.25-.3 0-.7-.15m-.1 1.75q.25 0 .4.15h.4l.5.35-.65-.1h-.4q.15.25.15.65 0 .65-.8.8-.8-.15-.8-1.05 0-.3.25-.55h-.65q-.4.15-.65.15l-.7.1q0-.1.7-.25.25-.1.65-.1.4-.15.8-.15h.8m10.35-8.5q-.15-.25-.3-.65 0 .8-.65 1.2.55-.25.95-.55"/><path fill="#8C431F" d="M150 215q-.55 2.35-.15 3.95.95 4.65 2.55 8.5-.3.65-1.75 1.85-.8.15-1.6 0-.1.95-.1 2h.1q.4-.4.95-.4 2.1-.4 4.25-.4-.95 1.05-5.2 1.85v.3q1.1-.15 1.1.1-.15.15-.95.3.8.9 1.6 1.7.9 0 .65 1.05-.25.7-.9.95-.7 1.35-1.75 2.1.4.15.65 0l.15.15q3.3-.15 6.65-3.05.5-.55 1.05-1.05.4-.25.65-.8.15-.15.25-.4 1.1-1.35 1.6-3.05.8-2.55 1.35-4.8v-.1q.15.25.25.4 1.45-.3 2.25-3.45 1.5-3.2-.8-3.75h-.4q-.1 0-.25.15-.25 0-.4.15 0 .4-.1.9-.3 1.05-.55 1.05-.25.15-.4-.1-.25-.3-.25-.55v-.15q-.3.3-.7.4-.5.15-.65 0-.15-.1.15-1.05.1-.5.5-1.05v-.25q-.25.25-.4 0 0-.15-.1-.3v-.1q-.15-.15-.15-.3 0-.1-.15-.1v-.15l-.1-.15v-.25q-.15-.25 0-.55v-.1q0-.25-.15-.55-.65-.1-.8-.8-.25-.8.25-1.3v-.15q-.75 0-1.15-.65-.3-.95.4-1.45v-.15q-.95.4-1.35.15l-.25-.4V211q-.55.25-.95.55-.15 0-.25.1-3.45 1.75-4.65 3.35m1.7 3.05q.55-.3 1.2-.4.3-.15.7-.3.25 0 .65-.1h.65q.4.1.8.25.25.15.55.25.25.15.4.3.9.8.8.9 0-.1-.8-.8-.3 0-.55-.1-.25-.15-.55-.3-.4-.1-.65-.1h-.65q-.25 0-.65.1-.3.15-.7.15-.5.15-1.05.25-.55.15-.65.3.1-.3.5-.4m1.6 1.3q.3.15.55 0 .5.15.9.15.55.15.8.25.8.15.8.3l-.8-.15q-.4-.15-.8-.15h-.5q.4.3.5.8-.1.8-.9 1.05-.8-.1-.95-1.05 0-.5.4-.8h-.4q-.25.15-.4.15-.25-.15-.4 0l-.8.15q0-.15.7-.4.25-.15.4-.15.25 0 .5-.15.15.15.4 0m8.5 3.45q-.65-.4-.1-1.45.9-1.3 1.95-1.05.3.8-.5 2.5-.95 2-1.6 2l.25-2"/><path fill="#582F16" d="M161.95 222.95q-.3.8-.4 2 .8 0 1.6-2 .9-1.7.5-2.5-1.05-.3-2 1.05-.5 1.05.3 1.45m-12.5 4.95q-1.75.15-3.05-.4h-.15q.15.55 1.45 1.85.55.15 1.35 0 .8.15 1.6 0 1.45-1.2 1.7-1.7-.15 0-.8.1-.9.15-2.1.15"/><path fill="#6A3917" d="M135.5 222.45q.55 2.15 1.35 2.25-.15-1.2 0-2 .8-.25.4-1.45-.65-1.45-1.75-1.45-.5.8 0 2.65"/><path fill="#B68159" d="M148.1 226.3q-1.3.15-1.85.9 0 .15.15.4 1.3.4 3.05.4.65-1.15-.15-2.9-.25.4-1.2 1.2m1.2 8.75q-1.7-.5-2.5.15 0 1.7 2.25 1.85.95 0 1.6-.25.65-.15.95-.8.25-1.05-.8-1.2-.95 0-1.5.25"/><path fill="#571B14" d="M149.05 231.45v-.1q-.25-.4-.95-.55-2.35 0-4.1-.4.8 1.2 5.05 2h.15q4.2-.65 5-1.75-2.1 0-4.1.3-.55 0-1.05.5"/><path fill="#B68159" d="M145.6 232.1q.65.25 2 .95.65.1 1.6 0 .8 0 .9-.15 0-.25-1.05-.25-.25 0-.55.1-1.95-.4-2.9-.65"/><path fill="#060606" d="M144.55 219.8q-.25.25-.25.65 0 .8.8.95.8 0 .95-.8 0-.4-.3-.65h-.25q-.15-.15-.25 0l-.55-.15h-.15m9.3 0q-.3 0-.55.15-.4.25-.4.8.15.9.95.9.8-.1.9-1.05-.1-.55-.5-.8h-.4"/><path fill="#60301A" d="M150.15 242.1q1.85-.8 1.15-1.85-.65-.4-1.15.8-1.2.25-1.75 0 .15.8 1.75 1.05"/><path fill="#1D1D1B" d="M145.85 219.65q-.1-.15-.4-.15h-.8q-.35 0-.75.15-.4 0-.7.1l-.65.3.65-.15q.3 0 .7-.15h1.15q.3 0 .4.15h.7l.65.15-.55-.4h-.4m7.45-.15h-.4q-.25 0-.55.15h-.25l-.8.4q.15.1.8-.15h1.2q.25-.15.5-.15h.4q.3 0 .55.15h.8l.8.15-.8-.3q-.25 0-.8-.1-.4-.15-.95-.15h-.5"/><path fill="#1C1C1C" d="M138.95 197.2q-.8-.8-1.85 0-.65.95.15 1.75-.4-.25-.95-.25-.5.1-.8.5-.25.25-.25.55 0 .1.15.4 0 .25.25.5 0 .145.15.3-.155-.15-.3-.15-.25-.25-.5-.25-.55 0-.8.25-.8.55-.4 1.6-.55-.95-1.6-.4-.55.25-.65.8 0 .492.25.9-.259-.398-.8-.25-.55 0-.9.55-.3.5-.15 1.05.148.541.5.65-.356-.098-.75 0-.55.3-.7.8-.25 1.2.95 1.6-1.2-.15-1.45 1.05 0 1.05 1.2 1.35-1.2 0-1.35 1.2.15.9.95 1.2-.8.25-.95 1.15.15.95.8 1.2h.4q-.158.005-.4.15-.65.4-.65 1.2.1.8.8 1.05.246.148.5.15-.402.004-.65.4-.25.5 0 1.05.15.55.55.65l.25.15q.5.25.9 0-.25.25 0 .65.55.65 1.5.55 1.45-.65.8-1.6.5.65 1.45.4.1 0 .25-.15.55-.4.55-.9 0-.4-.3-.7h.15q.25.3.65.4l.3.3v-.15l.1.15h.15v.1q-.15 0-.15.15 0 .4.3.8.5.95 1.3.8.541-.148.65-.725-.092.577.4.725.8.15 1.5-.4.5-.55.4-1.05-.148-.541-.5-.8.359.246.9 0 .35-.4.5-1.2-.15-1.05-1.2-1.2 1.05-.15 1.2-1.05 0-1.1-1.05-1.35 1.05 0 1.45-.65.15-.4 0-.8-.145-.387-.475-.575.338.18.725.325.4 0 .7-.15.25-.15.4-.55.246-.394.25-.75.004.356.25.75.3.4.7.4.9.3 1.45-.8-.3 1.1.8 1.5 1.3.25 1.6-.95-.15 1.2 1.15 1.35 1.35-.3 1.2-1.5.3 1.1 1.5.95 1.05-.4.75-1.6.4 1.05 1.35.95h.15q.1-.15.25-.15.55-.4.65-1.2 0 .4.3.65v.15l.25.4q.4.25 1.3-.15v.15q-.65.65-.4 1.45.3.7 1.2.7v.1q-.65.55-.4 1.35.3.65.95.8 0 .25.15.5v.15q-.15.25 0 .55v.4q.1 0 .1.1l.15.15q0 .1.15.25v.25l.1.15q0 .25.4.15v.1q-.4.55-.5 1.1-.3.9-.15 1.05.15.15.65 0 .25-.15.55-.4v.15q.1.25.4.5.1.25.4.15.1 0 .5-1.05.15-.55.15-.95.15-.15.4-.15.15-.1.25-.1.7-.15 1.6-.7.25.55.95.7 1.2 0 1.3-1.2 0 .5.55.8.4.4 1.2 0 .25-.15.4-.4l.1-.15h.15q.15-.4.15-.8-.148-.492-.625-.65.481.144.875-.25l.15-.15q.25-.4.25-.8 0-.25-.15-.55-.395-.641-.975-.65.479-.008.725-.5.25-.3.25-.8 0-.3-.25-.55-.4-.65-1.05-.55.4-.1.8-.5.25-.3.1-.95 0-.4-.4-.8-.4-.25-.9-.1.4-.15.65-.4.4-.4.25-1.1-.25-.8-.9-.9h-.15v-.15q.65-.5.4-1.45-.55-1.05-1.45-.65h-.15q1.05-.55.55-1.75-.65-.9-1.6-.4.8-.8 0-1.85-.4-.4-.95-.4-.5.15-.8.55.15-.4 0-.95-.1-.55-.5-.65-.65-.3-1.2 0-.25.25-.55.5.3-.4.15-.8 0-.5-.55-.9-.4-.25-.9 0-.4.15-.65.4.25-.4.1-.8-.1-.55-.5-.8-.7-.25-1.2 0-.295 0-.55.4.248-.406.15-.8 0-.55-.55-.95-.8-.25-1.45.3-.145.097-.25.25.1-.158.1-.4.15-.8-.65-1.2-1.2-.4-1.6.55.25-1.05-.9-1.45-1.35-.15-1.5.9 0-.4-.4-.8-.4-.25-.9-.25-1.05.25-1.05 1.35-.3-1.1-1.35-1.1-1.05.15-1.05 1.2-.3-1.05-1.35-1.05-1.2.25-1.05 1.45-.4-1.2-1.6-.9-1.05.5-.8 1.55-.5-.9-1.6-.5-1.05.8-.4 1.7m4.65.55q.15-.15.3 0 .65.15.8 1.05 0 .55-.15.95-.15.25-.25.4-.55.25-.9.1 1 .4.6 1.6-.5 1.05-1.6.7 1.1.5.4 1.7-.4.55-1.05.65-.64-.098-.8-.575.148.481 0 .875 0 .4-.1.65-.7.4-1.6 0 .8.65.25 1.6-.65.9-1.6.4.8.8.15 1.7-.4.55-.95.4h-.4v-.1l-.1.1q.25.25.4.25.1.15.1.4.15.15 0 .4-.1.95-1.3 1.1 1.2.1 1.2 1.2-.15 1.05-1.2 1.05 1.05.1.9 1.6-.25.8-.9 1.05-.15 0-.4-.15-.15.3-.55.55v.15q-.4.5-1.3.35-.95-.25-1.1-.9v-.25q-.1-.15-.25-.4-.65.25-1.35-.55-.5-1.2.55-1.75-1.05.3-1.45-.9-.15-.55.15-.95.25-.4.75-.4-.4-.1-.65-.5-.4-.4-.1-1.1.75-1.3 1.7-.65-.4-.4-.4-.8 0-.25.15-.5 0-.15.1-.3v-.1q.4-.3 1.5-.3-1.1-.25-.7-1.55.15-.4.4-.55.3-.25.55-.25.5 0 .8.4-.65-.95 0-1.75.8-.65 1.7 0-.8-.95-.25-1.7.65-.8 1.6-.3-.8-.8-.25-1.7.9-.95 1.7-.3-.65-.9.4-1.7 1.05-.4 1.6.55-.4-1.1.8-1.6.1-.15.4-.15h.5q.3.15.55.25.364.364.225.85.086-.181.325-.3h.1"/><path fill="#1D1D1B" d="M145.6 217.95q.4 0 .65.1.7.15 1.2.3.65.1.95.25l-.15-.15q-.25-.1-.8-.4-.5-.1-1.05-.4-.4 0-.65-.1-.4-.15-.8-.15h-.7q-.4.15-.65.15-.4.25-.5.4-.4.1-.55.25l-.8.8.95-.65q.1-.15.5-.3.15 0 .55-.1.25-.15.5-.15h.7q.4 0 .65.15m5.45.5l-.25.15 1.05-.25q.55-.15 1.2-.3.25-.1.65-.1.3-.15.7-.15h.5q.4 0 .7.15.25 0 .5.1.25.15.55.3l.9.65-.8-.8q-.25-.15-.5-.25-.25-.15-.55-.4-.4 0-.65-.15h-.8q-.25 0-.65.15-.3.1-.7.1-.65.3-1.05.4-.5.3-.8.4"/><path fill="#3A3B3B" d="M143.6 197.75l-.1.15q-.239.119-.325.3.139-.486-.225-.85-.1-.1-.5-.25h-.55q-.15 0-.4.15-1.05.5-.65 1.6-.7-1.1-1.75-.55-1.05.8-.4 1.7-.8-.65-1.7.3-.55.9.4 1.6v.1q-1.1-.65-1.75.3-.5.75.25 1.55-.9-.5-1.55.15-.8.8 0 1.6-.4-.25-.95-.25-.25 0-.55.25-.25.15-.4.55-.25 1.15.7 1.55-1.1 0-1.35.3-.1 0-.1.1 0 .15-.15.3-.15.25-.15.4 0 .5.4.9-.9-.65-1.7.55-.15.8.1 1.2.295.394.775.4-.48.006-.775.4-.4.5-.25 1.05.4 1.2 1.45.9-.9.55-.4 1.75.55.8 1.35.55 0 .25.1.4v.25q.3.5 1.1.8.9.25 1.3-.4v-.15q.55-.1.65-.4.15.15.3 0 .65-.25.9-.9.3-1.5-.9-1.6 1.05 0 1.2-1.2 0-.95-1.1-1.2 1.1 0 1.35-1.05 0-.15-.15-.3 0-.25-.1-.4-.15-.1-.4-.25l.1-.1q.3.1.55.1.4 0 .8-.4.65-1.05-.15-1.7.95.5 1.75-.4.4-.95-.4-1.6.9.4 1.6-.15.1-.1.1-.5.148-.394 0-.875.16.475.8.475.7 0 1.1-.55.65-1.2-.4-1.75.1-.1.1 0 .95.4 1.6-.65.25-1.2-.8-1.6.55.15.95-.1.1-.3.25-.4.15-.4.15-.95 0-1.05-.7-1.2h-.4"/><path fill="#F1F2F0" d="M159.7 241.15h.1q.3-.15.55-.25.9-.4 2-.95h-3.6l-.15.55v.25q-.1.25-.25.95.65-.3 1.35-.55m-21-.65q.55.25 1.05.5v-.25l-.1-.4-.95.15"/><path fill="#FFF" d="M224.3 160.15v-.95q-.1-7.15-6.75-7.3-6.75.15-6.75 7.3.5 5.85 4.5 8.65 3.85 2.75 4.4 6.9 0 2.9-2.3 2.75-2.35.15-2.35-2.75v-2.15h-4.4v1.75q0 7.15 6.75 7.4 6.9-.25 6.9-7.4-.5-5.85-4.5-8.5-3.85-2.8-4.5-6.9.15-2.95 2.4-2.95 2.25-.1 2.25 2.95v1.2h4.35m16.25-.95q-.15-7.15-7.05-7.3-6.75.15-6.9 7.3v15.15q.15 7.15 6.9 7.4 6.9-.25 7.05-7.4V159.2m-4.65-.25v15.8q0 2.9-2.4 2.75-2.25.15-2.25-2.75v-15.8q0-2.95 2.25-2.95 2.4-.1 2.4 2.95m11.8 0q0-2.95 2.25-2.95 2.4-.1 2.4 2.95v3.15h4.35v-2.9q0-7.15-6.9-7.3-6.75.15-6.75 7.3v15.15q0 7.15 6.75 7.4 6.9-.25 6.9-7.4v-3.85h-4.35v4.25q0 2.9-2.4 2.75-2.25.15-2.25-2.75v-15.8m16.45 22.55v-29.2h-4.65v29.2h4.65m13.5-29.2h-6.75l-4.65 29.2h4.25l.8-5.3h5.55l.8 5.3h4.65l-4.65-29.2m-3.55 5.2l2.1 14.7h-4.4l2.3-14.7m14.85 19.75V152.3h-4.65v29.2h12.1v-4.25h-7.45m-89.05 5.85v4.1h4.8v25.1h4.6v-25.1h4.8v-4.1h-14.2m26.95 14.85q2.9-1.45 2.9-5.8v-2.3q.15-6.75-6.75-6.75h-6.9v29.2h4.65v-11.95h1.45q3.05-.15 3.05 3.7v4.65q0 2.95.4 3.6h4.65q-.55-1.6-.4-3.6v-4.5q.15-4.65-3.05-6.25m-6.1-1.7v-9.05h2.1q2.4 0 2.4 3.05v2.95q-.1 3.15-2.8 3.05h-1.7M243 183.1h-6.75l-4.65 29.2h4.25l.8-5.3h5.55l.8 5.3h4.65L243 183.1m-5.85 19.9l2.3-14.7 2.1 14.7h-4.4m26.6-12.75q0-7-6.75-7.15h-7.3v29.2h7.3q6.75-.15 6.75-7.3v-14.75m-6.9-3.05q2.25-.1 2.4 2.95v15.1q-.15 2.95-2.4 2.8h-2.5V187.2h2.5m14.45-4.1h-4.65v29.2h4.65v-29.2m9.05 0h-5.7v29.2h4.1v-21.1l5.7 21.1h4.65v-29.2h-3.95v17.4l-4.8-17.4m20.95 9.95h4.35v-2.9q0-7.15-6.9-7.3-6.75.15-6.75 7.3v15.15q0 7.15 6.75 7.4 6.9-.25 6.9-7.4v-9.2h-6.35v4.15h2v5.45q0 2.9-2.4 2.75-2.25.15-2.25-2.75v-15.8q0-2.95 2.25-2.95 2.4-.1 2.4 2.95v3.15"/><path fill="#0556A3" d="M293.755 262.501q1.726-.132 1.858-1.858v-30.134q-.133-1.726-1.858-1.859h-84.296q-1.726.133-1.859 1.859v30.134q.133 1.726 1.859 1.858h84.296"/><path fill="#FFF" d="M221.8 246.05h5.6v-2.95h-5.6v-3.45h5.95v-2.9h-9.4v15.4h3.45v-6.1m13.25-5.35q-5.7.25-5.95 5.95.4 5.6 5.85 5.75 5.15.1 5.85-6-.3-5.3-5.75-5.7m2.15 5.85q-.15 3.2-2.25 3.3-2.25-.1-2.25-3.3-.15-2.95 2.25-3.35 2.4.4 2.25 3.35m9.15 5.75v-16.35h-3.45v16.35h3.45m6.4-16.35h-3.45v16.35h3.45v-16.35m13.8 10.45q-.3-5.3-5.75-5.7-5.7.25-5.95 5.95.4 5.6 5.85 5.75 5.15.1 5.85-6m-3.6.15q-.15 3.2-2.25 3.3-2.25-.1-2.25-3.3-.15-2.95 2.25-3.35 2.4.4 2.25 3.35m15.5-1.1l-1.05-4.5h-2.8l-1.2 4.65q-.5 1.7-.75 3.6h-.15q-.25-1.9-.55-3.6l-.9-4.65h-3.6l3.3 11.15h3.2l1.2-3.85q.4-1.45.65-3.6h.15q.25 2 .65 3.6l1.05 3.85H281l3.3-11.15H281l-1.05 4.5q-.4 1.85-.55 3.75h-.15q-.25-1.9-.8-3.75"/><animate attributeName="display" repeatCount="indefinite" dur="5.8s" keyTimes="0;0.5;1" values="inline;none;none"/></g><g><path fill="#F3F3F3" d="M248.6 85.05q3.2 3.2 3.7 7.6-.5 9.7-1.95 10.85h-.15q1.2 1.35.15 4.4-1.1 3.6-2.8 4-.15-.15-.3-.4v.1q-.65 2.65-1.55 5.75-1.35 3.8-4.25 6.35l.5 4.9 1.35.25 1.05.55q1.6.25 3.85.55 14.35-8.4 15.15-25.65-.4-12.45-8.65-20.8-8.35-8.4-20.85-8.65-12.45.25-20.8 8.65-8.4 8.35-8.65 20.8.8 17.4 15.25 25.75 1.2-.25 2.15-.4v-.1l1.85-.3 1.2-.4.25-5.15q-2.9-2.55-4.35-6.25-1.1-3.05-1.75-6.25 0 .55-.4.7-1.6-.4-2.65-4-1.6-3.7.95-4.65-.55-.15-1.5-4-2.1-6.1 5.6-16.05 8.6-6.6 14.2-2.5 4.35 2.65 6.25 3.3.25 0 .5-.1 3.45-1.9 6.65 1.15"/><path fill="#80A8B5" d="M233.85 72.95q-13.4.4-22.3 9.15-8.75 8.9-9.15 22.2.4 13.4 9.15 22.3 8.9 8.75 22.3 9.15 13.3-.4 22.2-9.15 8.75-8.9 9.15-22.3-.4-13.3-9.15-22.2-8.9-8.75-22.2-9.15m0 2q12.5.25 20.7 8.6 8.4 8.25 8.65 20.75-.8 17.35-15 25.75.65.1 1.45.25-1.7 1.05-3.45 1.85h-.25q-2 .95-4.15 1.45-.25.15-.5.15-2.25.65-4.65.9-1.45.15-2.8.15-1.6 0-3.05-.15-2.8-.4-5.45-1.15h-.5q-2.15-.8-4.25-1.75 0-.15-.15-.15-1.2-.5-2.4-1.2.8-.25 1.45-.25-14.3-8.5-15.1-25.85.25-12.5 8.6-20.75 8.25-8.35 20.85-8.6"/><path fill="#8A8432" d="M248.2 129.95q-2-.3-3.6-.4l1.6 2.5q1.85-.8 3.6-1.85-.8-.15-1.6-.25m-27.7 1.7l1.2-2q-1.1.15-2.15.4-.65.15-1.45.25 1.2.8 2.4 1.35"/><path fill="#E15F31" d="M236.7 134.55q-1.85-2-2.95-2-1.05-.15-2.9 2 1.45.25 2.9.25 1.5-.15 2.95-.25"/><path fill="#FFF" d="M233.5 132.6h-.15q-7.7-1.1-8.35-3.2-.15.4.25 4.1 2.8.8 5.6 1.1 1.6-1.9 2.65-2m8.5-3.75h-.15l.15.25v-.25m-5.35 5.7q2.4-.25 4.65-.8.55-3.3.7-4.35-.3 1.45-8.25 3.05v.1q1.05-.1 2.9 2"/><path fill="#9D5A46" d="M233.75 132.45q8.6-1.7 8.2-3.3v-.4l-.1-.15-.55-4.9q-3.95 3.45-7.95 3.6h-.15q-.5 0-1.2-.15-.8-.25-1.45-.4-.15-.15-.25-.15-1.2-.25-2.4-1.05-1.45-.8-2.8-1.85l-.25 5.2.15.5q.65 2.15 8.35 3.2.25-.15.4-.15m.25-2.5q-2-.3-2.1-1.2.65.25 2 0 .75-1.45 1.45-.95.8 1.35-1.35 2.15"/><path fill="#AC7456" d="M221.65 102.95v-.25q-.1.4-.25.8.15-.25.25-.55m4.25 19.8q-1.05-3.85-2.8-6.5-2.75-4.35-2.35-6.5l-1.2-.8q0-.25-.15-1.85-.15.8-.25 1.85 0 1.35-.15 2.25.65 3.2 1.75 6.4 1.3 3.55 4.35 6.1 1.35 1.05 2.8 1.85-1.05-.8-2-2.8"/><path fill="#DB9E73" d="M233.35 96.05q-2.9-.5-5.7-2.35-2.8-1.75-5.55 1.55-.95 4.25-.4 7.3v.15q0 .15-.15.25 0 .15-.15.4-.25 5.6.55 7.2L221 110l-.25-.25q-.4 2.1 2.4 6.5 1.7 2.65 2.8 6.65.9 1.95 1.95 2.65 1.2.8 2.4 1.05.15.15.25.15.7.1 1.5.5h.4q1.3-1.05 2.1-2.65-.65.25-1.85.25-2.8-.1-2.65-2.1.9-.8 2.9-.25.7-.3 1.85-.3l-1.7-1.7q-.25 0-.55.15-6.5-2.3-6.75-4.55 2.4.15 5.85.3.65 0 1.05.25v-1.75h-.25q-.8-.1-1.5-.4-1.3-1.3-1.05-1.85h.15q-.25-.1-.15-.4.65-1.05 2.15-1.2.9-.9 1.2-1.3.9 2 0 3.45 2.25-.25 3.05-.55v-.1q-2-5.45-2.55-10 1.35-1.15-.1-3.95-.3-.65.1-2.65-.1.1-.4.1m-3.85 7.85q.4.15.65.4.55.4.8.65 0 .29.15.3-.153-.005-.25-.15-.3-.25-.8-.55-.4-.1-.65-.25-.3-.15-.7-.15-.4-.1-.8-.1.55.25.55.8-.15.8-1.05.9-.95-.1-1.1-.9 0-.55.55-.8-.25.1-.55.1-.5.15-.75.3-.4.1-.8.25-.3.15-.55.25-.4.15-.55.3h-.5q.1-.15.25-.3.25-.25.55-.25.4-.25.65-.25l.8-.3h.4q.25-.1.4-.1.4 0 .9-.15.15-.15.4-.15h.4q.4-.1.95 0 .4 0 .65.15m1.05-1.6q-2.35-.25-5.8.4-2.8.95-2.8.8 3.3-1.85 6.75-2 3.35.15 3.35 1.2-.3.15-1.5-.4"/><path fill="#CE8063" d="M247.95 104.15q-.95 2.4-.8 4.55.15 1.45 0 2.75.15.4.4.4 1.7-.25 2.65-3.95 1.2-3.05 0-4.4-.8-.25-2.25.65m2.1.7q.55 1.15-.5 3.15-1.05 2.25-2 2.25.25-1.3.55-2.25-.95-.65-.4-1.7 1.2-1.75 2.35-1.45"/><path fill="#9C6851" d="M232.4 127.25h.95q3.95-.15 7.95-3.6 3.05-2.5 4.25-6.35 1.05-2.95 1.6-5.7.1-.15 0-.15.25-1.35 0-2.8 0-1.85.8-3.85-1.2 2.8-.95 4.8l-.55.65q-.1 2.95-1.85 4.5-3.05 2.95-4.35 8-2.3 3.85-5.6 4.25-1.05.1-2.25.25"/><path fill="#CE8063" d="M246.6 97.65q.95-1.85-.65-3.55-4.15-1.9-9.55 1.3-1.5.55-2.65.65-.4 1.9-.15 2.55 1.3 2.8.15 4.1.5 4.4 2.5 9.85v.25q0 .55-1.6 1.85-.8.25-2 .25v1.75q.4-.25 1.1-.15.5 0 3.05-.4 2.5-.5 3.15-.25-.1 2.25-6.9 4.65.95.9 1.75 1.85 1.2 0 .8 1.35-.3.8-1.1.9-.75 1.6-2.1 2.65 1.2-.1 2.25-.1 3.3-.55 5.6-4.4 1.3-4.9 4.35-7.85 1.75-1.55 1.85-4.65l-.8 1.1q0-1.6.15-5.2.8-2 .25-4.65-.5-2 .55-3.85m-6.5 6.5q.15.15.4.15.25.15.4.15.4.1.8.25.4 0 .65.25.25.15.55.3.25.1.4.25l.25.25-.4-.1q-.15-.15-.4-.15-.25-.15-.55-.25-.25-.15-.65-.3-.4-.1-.65-.25-.4-.25-.8-.4h-.65q.5.25.5.65-.1.95-1.2.95-.9-.15-1.05-.95.15-.5.65-.8-.5 0-.75.15-.4 0-.8.15-.3 0-.7.1-.5.4-.8.55-.1.15-.25.15l.15-.3q.25-.25.8-.65.25-.15.65-.25l.8-.3q.4 0 .9.15h.4q.3.15.4.15.55.1.95.1m-5.05 1.1l-.15.1v-.1h.15m-.65-2.4q.1-1.05 3.2-1.2 3.3.15 6.35 2 0 .1-2.65-.8-3.2-.55-5.3-.4-1.2.65-1.6.4"/><path fill="#CE8063" d="M239.15 104.05q-.1 0-.4-.15h-.4q-.5-.15-.9-.15l-.8.3q-.4.1-.65.25-.55.4-.8.65l-.15.3h-.15v.1l.15-.1q.15 0 .25-.15.3-.15.8-.55.4-.1.7-.1.4-.15.8-.15.25-.15.75-.15-.5.3-.65.8.15.8 1.05.95 1.1 0 1.2-.95 0-.4-.5-.65h.65q.4.15.8.4.25.15.65.25.4.15.65.3.3.1.55.25.25 0 .4.15l.4.1-.25-.25q-.15-.15-.4-.25-.3-.15-.55-.3-.25-.25-.65-.25-.4-.15-.8-.25-.15 0-.4-.15-.25 0-.4-.15-.4 0-.95-.1"/><path fill="#151413" d="M236 102.45q2.25-.15 5.45.55 2.65.75 2.65.65-3.05-1.85-6.35-2-3.05.25-3.2 1.2.25.25 1.45-.4"/><path fill="#9C6851" d="M249.65 108.05q1.1-2 .55-3.05-1.2-.3-2.4 1.3-.5 1.2.3 1.75-.15 1.05-.4 2.35.9-.1 1.95-2.35m-19.6 4.6h-.15q-.15.55 1.2 2 .65.1 1.45.25h.25q1.1 0 1.9-.25 1.55-1.35 1.7-1.85h-.15q-.8.25-2.9.4h-.15q-1.85.1-3.15-.55"/><path fill="#DB9E73" d="M219 111.3q.15-.9.15-2.25.15-1.05.25-1.85 0-.95-.1-1.6-.15-.8-1.1-1.3-1.15-.95-1.45-.95-2.5.65-.8 4.5.95 3.75 2.65 4.15.3-.3.4-.7m-1.05-3.7v2.4q-.8-.15-1.45-2.65-.65-2.15 0-3.05 1.3-.15 2.1 1.7.3 1.35-.65 1.6"/><path fill="#AC7456" d="M218.1 110v-2.4q.95-.4.55-1.7-.8-1.75-2-1.75-.65.95 0 3.2.55 2.35 1.45 2.65"/><path fill="#EDC1AA" d="M229.9 112.25q0 .3.15.4 1.3.7 3.3.55.95-1.35 0-3.45-.25.4-1.35 1.45-1.45.15-2.1 1.05m.15 10.5q0 1.95 2.8 2.1 1.05 0 1.85-.25.65-.15.9-.95.4-1.3-.75-1.45-1.1 0-1.9.25-1.95-.5-2.9.3"/><path fill="#151413" d="M228.7 101.5q-3.45.15-6.6 2 0 .1 2.75-.65 3.35-.7 5.75-.55 1.15.65 1.55.4-.1-.95-3.45-1.2"/><path fill="#F5F6F7" d="M232.55 116.65q-.25-.3-1.05-.3-3.35-.1-5.85-.25.4 2.25 6.75 4.5.4-.1.7-.1 6.75-2.4 6.75-4.8-.55-.15-3.05.4-2.5.4-3.2.4-.5-.15-1.05.15"/><path fill="#272526" d="M229.4 104.3q.25 0 .65.15.4.4.8.65.15 0 .15.15h.1v-.15q-.1 0-.25-.1-.15-.4-.65-.8-.3-.15-.7-.3-.4-.25-.8-.25h-1.3q-.15.15-.4.15-.4.1-.8.25h.65q-.5.25-.5.65 0 .95 1.05.95.9 0 1.05-.8-.15-.55-.5-.8h.75q.3.15.7.25m-5.45.3q-.25.1-.55.25-.1.15-.4.25l-.25.3.4-.15q.15 0 .4-.15.25-.1.55-.25.4 0 .65-.15.4-.1.65-.4.4-.1.8-.25h-.4q-.25.15-.4.15-.4 0-.8.1-.25.15-.65.3m15.75-.35q.15.05.45.05.35.1.75.25.3.25.7.4.25.15.65.25.25 0 .55.15.25.15.4.25.397 0 .4.15v-.15l-.3-.25q-.1-.15-.4-.15-.25-.25-.5-.4-.3-.1-.7-.25-.4-.15-.8-.15-.1-.1-.4-.1-.25 0-.35-.15-.4-.15-.95-.25h-.4l-.25-.15h-1.1q-.4 0-.75.15-.4.1-.7.4-.65.4-.8.65-.1.15-.1.25.1 0 .25-.1.25-.3.8-.55.4-.15.65-.25.4 0 .8-.15h.8q-.65.15-.65.8.1.8 1.05.8 1.05 0 1.2-.8 0-.5-.3-.7"/><path fill="#A46E5D" d="M231.9 128.7q.15 1.05 2.1 1.2 2.15-.8 1.35-2.1-.65-.4-1.45 1.05-1.35.25-2-.15"/><path fill="#FFF" d="M246.1 132.15l-1.85-2.65h.1l-.1-.1-.95-.55-1.45 4.8q2.1-.55 4.25-1.5m-25.5-.35q2.1.9 4.25 1.7l-1.35-4.1-1.7.25v.15l-1.2 2"/><path fill="#D3D3D3" d="M225 133.35q.1 0 .4.15-.4-3.7-.3-4.1l-.25-.55-1.2.4 1.35 4.1m16.85-4.65v.25q.25.55-.55 4.8.25 0 .55-.15l1.3-4.75-1.3-.15"/><path fill="#264A5B" d="M246.2 132.15l-1.7-2.65h-.15l1.75 2.65h.1m-25.6-.5l1.2-2h-.15l-1.2 2h.15"/><path fill="#40312C" d="M235.2 80.65q-5.6-4.1-14.2 2.55-7.7 9.95-5.7 16.05 1.2 4.35 1.6 4 .1.1 1.45.9-.55-9.7 3.15-13.15 8.5-1.7 9.85-4.75.4-3.05 3.85-5.6m9.7 9.3q2.15-1.7 3.6-4.75-3.05-3.2-6.5-1.2-.3.15-.55.15-.25 4.6-5.15 6.5-3.1.8 1.55.65 4.65 0 7.05-1.35"/><path fill="#2A1C18" d="M248.6 85.15q-1.45 3.05-3.55 4.8-2.4 1.3-7.2 1.3-4.65.15-1.45-.5 4.9-2 5.05-6.65-1.75-.8-6.1-3.45-3.45 2.65-4 5.7-1.2 2.95-9.8 4.8-3.75 3.3-3.2 13.15.95.5 1.05 1.3.15.65.15 1.45v1.85l1.2.8.25.3q-.65-3.45-.4-5.7.55-1.9.55-2.8-.55-4.4.8-7.95 1.3-1.6 3.3-1.5 3.7 2.15 8.25 3.2 1.45-.15 2.9.15 5.6-3.35 9.55-1.5 1.75 1.75.65 3.6-1.05 1.85-.4 4 .4 2.65-.35 4.5-.15 3.7-.15 5.2l1.3-1.6q-.1-2.15 1.1-5.45 1.45-.8 2.1-.65h.15q1.45-1.2 2-10.75-.55-4.55-3.75-7.6"/><path fill="#121010" d="M222.05 95.3q2.8-3.35 5.55-1.6 2.8 1.85 5.85 2.4h.25q1.35-.15 2.7-.7-1.35-.25-2.95-.1-4.5-1.1-8.2-3.05-2-.3-3.35 1.3-1.3 3.75-.8 7.95.15.95-.5 2.8-.3 2.25.4 5.7l.9.7q-.8-1.75-.5-7.3.1-.4.25-.7v-.1q-.4-3.05.4-7.3"/><animate attributeName="display" repeatCount="indefinite" dur="5.8s" keyTimes="0;0.5;1" values="inline;none;none"/></g><g><g transform="translate(215.3 77.95)"><animateTransform attributeName="transform" additive="replace" type="translate" repeatCount="indefinite" dur="5.8s" keyTimes="0;0.052;1" values="215.3,77.95;213.45,59.15;213.45,59.15"/><animate attributeName="opacity" repeatCount="indefinite" dur="5.8s" keyTimes="0;0.052;1" values="0;1;1"/><path fill="#80A8B5" d="M16.3-3.05Q14.9-14.1.1-15.15q-15 1.05-16.35 12.1Q-14.9 8 .1 9.05q1.05 0 2.1-.1l5.45 6.2L5.9 8.3q9.8-3 10.4-11.35"/><path fill="#FFF" d="M8.6-7.25q.55-.2.55-.95 0-.8-.55-.8H-8.8q-.65.2-.65.8 0 .75.65.95H8.6m.55 3.95q0-.8-.55-.8H-8.8q-.65.15-.65.8 0 .7.65.85H8.6q.55-.15.55-.85M8.6 2.4q.55-.1.55-.9 0-.75-.55-.75H-8.8q-.65.15-.65.75 0 .8.65.9H8.6"/></g><animate attributeName="display" repeatCount="indefinite" dur="5.8s" keyTimes="0;0.052;1" values="inline;none;none"/></g><g><path fill="#D3EDF9" d="M189.5-.5H0v73.2h189.5V-.5"/><animate attributeName="display" repeatCount="indefinite" dur="5.8s" keyTimes="0;0.5;1" values="inline;none;none"/></g><g><use xlink:href="#l" transform="translate(244.35 70)"><animateTransform attributeName="transform" additive="replace" type="translate" repeatCount="indefinite" dur="5.8s" keyTimes="0;0.052;0.086;0.121;1" values="244.35,70;244.35,53.75;244.35,45.3;244.35,53.75;244.35,53.75"/><animate attributeName="opacity" repeatCount="indefinite" dur="5.8s" keyTimes="0;0.052;1" values="0;1;1"/></use><animate attributeName="display" repeatCount="indefinite" dur="5.8s" keyTimes="0;0.5;1" values="inline;none;none"/></g></g></svg>