<svg xmlns="http://www.w3.org/2000/svg" baseProfile="basic" width="695" height="260" viewBox="0 0 695 260" preserveAspectRatio="xMinYMin meet"><g overflow="visible"><path fill="#E46B6C" d="M10.241.044q-4.174 0-7.177 3.003Q.06 6.05.06 10.223v239.712q0 4.224 3.004 7.176 3.003 3.003 7.177 3.003h674.632q4.224 0 7.177-3.003 3.003-2.952 3.003-7.176V10.223q0-4.173-3.003-7.176-2.953-3.003-7.177-3.003H10.241"/><path fill="none" stroke="#B26167" stroke-width="2.5" stroke-linecap="round" stroke-linejoin="round" d="M481.272 88.397h105.465M536.498 94.046h63.32M455.312 118.984h40.161M475.571 123.768h37.055M516.596 94.046h12.98"/><path fill="#A85354" d="M476.792 155.322v4.377h5.04v4.784h1.73v-4.784h5.65v-4.377h-5.65v-6.718h-1.73v6.718h-5.04M499.494 137.255h-1.731v2.087h-5.039v9.008h5.039v4.835h1.731v-4.835h5.65v-9.008h-5.65v-2.087M553.397 152.93v-4.376h-5.65v-1.171h-1.73v1.171h-5.039v4.376h5.039v4.581h1.73v-4.581h5.65M561.541 133.896v-3.613h-1.73v3.613h-5.039v7.481h5.039v4.785h1.73v-4.785h5.65v-7.481h-5.65M577.371 121.783v-3.766h-1.73v3.766h-5.039v10.892h5.039v5.547h1.73v-5.547h5.65v-10.892h-5.65M594.779 133.896v-3.613h-1.73v3.613h-5.04v7.481h5.04v4.785h1.73v-4.785h5.65v-7.481h-5.65M531.001 136.084h-1.73v6.719h-5.04v4.326h5.04v4.834h1.73v-4.834h5.65v-4.326h-5.65v-6.719M515.426 132.675v-6.718h-1.731v6.718h-5.039v18.067h5.039v5.802h1.731v-5.802h5.65v-18.067h-5.65"/><path fill="none" stroke="#B26167" stroke-width="2.5" stroke-linecap="round" stroke-linejoin="round" d="M635.601 118.119v132.426M620.84 118.119h29.471l19.495 132.426M620.84 118.119l-15.983 132.426M606.283 238.636l57.517-28.959M668.025 238.636l-57.518-28.959"/><path fill="none" stroke="#19344F" stroke-width="2.5" stroke-linecap="round" stroke-linejoin="round" d="M581.24 250.749v-5.955h-10.893v5.955h10.893"/><path fill="none" stroke="#19344F" stroke-width="2.5" stroke-linecap="round" stroke-linejoin="round" d="M581.24 239.094h-10.893v6.006h10.893v-6.006"/><path fill="none" stroke="#19344F" stroke-width="2.5" stroke-linecap="round" stroke-linejoin="round" d="M581.24 233.445h-10.893v5.955h10.893v-5.955"/><path fill="none" stroke="#19344F" stroke-width="2.5" stroke-linecap="round" stroke-linejoin="round" d="M581.24 233.75v-5.954h-10.893v5.954h10.893"/><path fill="none" stroke="#19344F" stroke-width="2.5" stroke-linecap="round" stroke-linejoin="round" d="M581.24 228.05v-5.954h-10.893v5.954h10.893"/><path fill="none" stroke="#19344F" stroke-width="2.5" stroke-linecap="round" stroke-linejoin="round" d="M581.24 222.401v-5.955h-10.893v5.955h10.893M592.183 250.749v-5.955H581.24v5.955h10.943"/><path fill="none" stroke="#19344F" stroke-width="2.5" stroke-linecap="round" stroke-linejoin="round" d="M592.183 239.094H581.24v5.955h10.943v-5.955M546.526 250.749v-5.955h-10.944v5.955h10.944M523.366 244.794v5.955h10.893v-5.955h-10.893"/><path fill="none" stroke="#19344F" stroke-width="2.5" stroke-linecap="round" stroke-linejoin="round" d="M546.526 239.094h-10.944v5.955h10.944v-5.955"/><path fill="none" stroke="#19344F" stroke-width="2.5" stroke-linecap="round" stroke-linejoin="round" d="M546.526 233.445h-10.944v5.955h10.944v-5.955M558.436 250.749v-5.955h-10.943v5.955h10.943"/><path fill="none" stroke="#19344F" stroke-width="2.5" stroke-linecap="round" stroke-linejoin="round" d="M558.436 239.094h-10.943v6.006h10.943v-6.006"/><path fill="none" stroke="#19344F" stroke-width="2.5" stroke-linecap="round" stroke-linejoin="round" d="M558.436 233.445h-10.943v5.955h10.943v-5.955"/><path fill="none" stroke="#19344F" stroke-width="2.5" stroke-linecap="round" stroke-linejoin="round" d="M558.436 233.75v-5.954h-10.943v5.954h10.943"/><path fill="none" stroke="#19344F" stroke-width="2.5" stroke-linecap="round" stroke-linejoin="round" d="M558.436 228.05v-5.954h-10.943v5.954h10.943M569.329 250.749v-5.955h-10.893v5.955h10.893"/><path fill="none" stroke="#19344F" stroke-width="2.5" stroke-linecap="round" stroke-linejoin="round" d="M569.329 245.049v-5.955h-10.893v5.955h10.893"/><path fill="none" stroke="#19344F" stroke-width="2.5" stroke-linecap="round" stroke-linejoin="round" d="M569.329 239.4v-5.955h-10.893v5.955h10.893M682.022 250.749h5.752M599.818 250.749h75.435"/><path fill="none" stroke="#B26167" stroke-width="2.5" stroke-linecap="round" stroke-linejoin="round" d="M611.933 207.845l46.675-28.959M662.018 207.845l-46.675-28.959M613.969 178.072l41.84-28.908M658.914 178.072l-41.84-28.908"/><path fill="#D18185" d="M604.857 132.878v15.472h61.437v-15.472h-61.437"/><path fill="none" stroke="#B26167" stroke-width="2.5" stroke-linecap="round" stroke-linejoin="round" d="M604.857 132.878v15.472h61.437v-15.472h-61.437"/><path fill="#ADB4BB" d="M388.9 143.15q.1 3.4 2.65 5.75 2.5 2.35 5.95 2.2 3.4-.1 5.75-2.65 2.35-2.5 2.25-5.95l-16.6.65M406.05 198.25q-1.4 1-2.95 2.4-1.35 1.25-2.05 1.7l-.3-.45-.05-.05q-.8-.9-1.95-.9-1.25 0-2.05 1.05h-.05l-.05.05-1.7-1.7q-1.15-1.15-2.45-2.1l-.6-.4h.05l-.6-.35q-3.85-2.3-7.2-3.2-4.25-1.15-4.2 1.25l.05 1.1q0 2.85-.15 7.9v10.4q.05 2 5 .65 4.35-1.15 7.65-3.2 2-1.25 3.15-2.6.45-.65.7-.7.25.85.9 1.35.7.5 1.55.5.95 0 1.65-.55.7-.6.9-1.45.3 0 .65.3.9.6 1 .7 2.4 2 3.15 2.45 2.05 1.3 7.1 4.6 4.2 2.05 5.4-1.35l.1-.7q.1-8.05.1-9.3 0-7.05-.2-10.1.15-2.15-4.95-.7-4.6 1.3-7.6 3.4M390.45 117.1q-1.55-1-2.05-1.2-6.45-2.65-14.7-2.95-6.75-.2-17.8 1.25 0 .2-.5 3.55-.35 2.25-.1 3.3.25.95 1.55 1.85 1.5 1 1.7 1.4.55 1.1.8 3.1.3 2.25.55 2.9.95 2.65 2.45 4.85 4.25 6.1 13.9 5.45 9.5-.65 13.5-6.8 1.35-2 2.05-5 .3-1.2 1.2-6.4 1.75-.8 3.8-.75 2.4 0 3.25 1.3-.7 8.7 5.65 13.8 6 4.8 14.7 3.85 5.65-.6 9.05-5.1 2.5-3.35 4.25-9.85 2.1-.95 2.7-4 .4-2.05.2-6.5-9.7-1.1-14.65-1.2-7.4-.1-13.45 1.4-1.2.3-3.9 1.65-2.45 1.25-3.7 1.35-.45.05-1.9-.35-1.55-.45-2.45-.45-.65 0-2.15.3-1.35.3-1.95.2-.75-.1-2-.95m-2.85 16.45q-2.6 3.8-9.55 4.95-7.15 1.15-11.65-2-2.7-1.9-3.85-7.4-1.1-5.35.2-9.05.55-1.6 3.9-2.8 3.05-1.1 6-1.1 15.1 0 17.1 6.25.9 2.9-.1 6.55-.75 2.65-2.05 4.6m42.55-13.5q2.05 3.2.75 8.6-1.2 4.95-3.7 7.35-4 3.75-10.95 2.95-6.65-.75-10.2-4.85-2.1-2.45-2.4-6.85-.3-4.6 1.85-7 1.45-1.55 3.9-2.35 2.15-.65 5.85-.95 4.8-.35 9.1.45 4.65.85 5.8 2.65"/><path fill="#ADB4BB" fill-opacity=".4" d="M439.9 75.2q-9.2-10.55-21.55-10.55H373q-12.35 0-21.6 10.55-8.95 10.25-8.95 23.2l3.975 22.45q.016.103.025.2l1.15 6.975q-3.178 1.26-5.55 4.075-3.75 4.5-3.25 10.3.55 5.8 5 9.55 3.695 3.12 8.275 3.3 3.124 13.938 14.625 23.55 6.876 5.742 14.75 8.275l1.425 5.425h-.225q-8.351 0-15.425 2.6l-8.725 2.1q-13.824 9.279-18.375 24.95-1.325 11.973-1.325 17.4v19.85h51.125l7.325 13.75-3.35 15.5 5.4-10.85v.05l.025-.075.2-.375 5.975 11.25-3.75-15.775 6.7-13.475h50.25v-19.85q0-16.49-7.925-28.425L441.45 200.2l-11.85-5.65q-6.308-2.05-13.65-2.05h-2.9l1.775-6.175q11.529-3.684 19.825-13.575 7.302-8.775 9.4-19.15 5.161-.773 8.6-4.9 3.8-4.5 3.25-10.3-.5-5.8-5-9.55-2.517-2.098-5.45-2.875l3.4-27.575q0-12.95-8.95-23.2"/><g style="display:none"><g transform="matrix(.125 0 0 .244 636.15 105.65)"><animateTransform attributeName="transform" additive="replace" type="translate" repeatCount="indefinite" dur="4.2s" keyTimes="0;0.571;0.583;0.595;0.607;0.619;0.631;0.643;0.655;0.667;0.679;0.69;0.702;0.714;0.726;0.738;0.75;0.762;0.774;0.786;0.798;0.81;0.821;0.833;0.845;0.857;0.869;0.881;1" values="636.2,105.699;636.2,105.699;636.3,107.192;636.416,108.7;636.542,110.205;636.639,111.691;636.75,113.183;636.755,113.23;636.758,113.217;636.762,113.261;636.766,113.252;636.77,113.194;636.812,113.197;636.905,113.201;636.847,113.205;636.935,113.209;636.893,113.253;636.799,113.247;636.856,113.193;636.811,113.186;636.805,113.189;636.748,113.191;636.841,113.194;636.674,111.449;636.523,109.587;636.46,107.811;636.298,105.948;636.2,104.149;636.2,104.149"/><animateTransform attributeName="transform" additive="sum" type="scale" repeatCount="indefinite" dur="4.2s" keyTimes="0;0.571;0.583;0.595;0.607;0.619;0.631;0.643;0.655;0.667;0.679;0.69;0.702;0.714;0.726;0.738;0.75;0.762;0.774;0.786;0.798;0.81;0.821;0.833;0.845;0.857;0.869;0.881;1" values="0.125,0.244;0.125,0.244;0.3,0.422;0.475,0.6;0.65,0.777;0.825,0.955;1,1.132;1.012,1.101;1.023,1.069;1.035,1.038;1.046,1.006;1.058,0.975;1.035,0.99;1.013,1.005;0.991,1.02;0.969,1.035;0.984,1.012;0.998,0.989;1.013,0.966;1.027,0.943;1.012,0.954;0.996,0.965;0.98,0.977;0.809,0.83;0.638,0.684;0.467,0.537;0.296,0.391;0.125,0.244;0.125,0.244"/><animateTransform attributeName="transform" additive="sum" type="translate" repeatCount="indefinite" dur="4.2s" keyTimes="0;0.571;0.583;0.595;0.607;0.619;0.631;0.643;0.655;0.667;0.679;0.69;0.714;0.726;0.738;0.75;0.762;0.774;0.786;0.81;0.821;0.833;0.845;0.857;0.869;0.881;1" values="-0.4,-0.2;-0.4,-0.2;-0.5,-0.1;-0.35,-0.25;-0.45,-0.2;-0.35,-0.2;-0.35,-0.25;-0.4,-0.3;-0.35,-0.25;-0.35,-0.3;-0.35,-0.3;-0.35,-0.25;-0.35,-0.25;-0.3,-0.25;-0.5,-0.25;-0.45,-0.25;-0.45,-0.25;-0.45,-0.2;-0.4,-0.25;-0.4,-0.25;-0.45,-0.25;-0.4,-0.3;-0.35,-0.2;-0.45,-0.3;-0.5,-0.25;-0.4,-0.2;-0.4,-0.2"/><path fill="#FA3939" fill-opacity=".569" d="M3.1-50.45q-3.25-7.65-.75-14.1Q-17-56.2-16.3-42.85q0 .5 1.5 8.45.7 3.6-1.6 4.15-3.15.5-5-2-1.15-1.6-2-5-5.7 14.55 3.9 26.8 3.85 4.9 9.15 7.8Q-5.25.15-.9 0 18-4.05 21.15-22q1.2-6.95-.3-14.8-1.35-6.95-4.3-12.1-.1 1.35-2.3 3.55-2.55 2.5-4.95 2.2-3.3-.4-6.2-7.3m6 39.85Q5.5-5.7-1.5-6.1q-11.75-1.25-13.45-10.8-1.45-7.8 3.3-14.8 2.45-3.6 7.55-8.55 3.55-4.2 2.45-8.85 6.1 4.5 9.9 12.1 3.55 7.15 3.85 14.45.3 7.5-3 11.95"/><path fill="#F3B94B" fill-opacity=".859" d="M9.1-10.6Q5.5-5.7-1.5-6.1q-11.75-1.25-13.45-10.8-1.45-7.8 3.3-14.8 2.45-3.6 7.55-8.55 3.55-4.2 2.45-8.85 6.1 4.5 9.9 12.1 3.55 7.15 3.85 14.45.3 7.5-3 11.95"/></g><animate attributeName="display" repeatCount="indefinite" dur="4.2s" keyTimes="0;0.571;0.893;1" values="none;inline;none;none"/></g><path fill="#AD6065" d="M642.269 84.58q-3.359-7.176-7.228-7.176-3.817 0-7.177 7.176-3.003 6.412-3.003 11.4 0 4.224 3.003 7.227 2.953 3.003 7.177 3.003 4.225 0 7.228-3.003 2.952-3.003 2.952-7.227 0-4.988-2.952-11.4"/><path fill="#DDB4B9" d="M642.066 97.863q.101-.458-.153-.865-.255-.407-.713-.509-.407-.102-.814.152-.407.255-.509.662-.255 1.12-.865 2.29-.204.408-.051.866.101.407.509.661.305.153.56.153.61 0 .967-.611.712-1.425 1.069-2.799M640.946 87.939l-1.324-2.647q-.203-.356-.661-.458-.458-.153-.866.102-.916.56-.356 1.578.204 0 1.12 2.239 1.171 2.748 1.272 5.344.051.458.357.763.356.306.763.306h.102q.458-.051.763-.357.306-.356.255-.814-.102-2.952-1.425-6.056"/><g transform="translate(405.9 199.55)"><animateTransform attributeName="transform" additive="replace" type="translate" dur="4.2s" keyTimes="0;1" values="0,0;0,0" fill="freeze"/><animateTransform attributeName="transform" additive="sum" type="translate" repeatCount="indefinite" dur="4.2s" keyTimes="0;0.012;0.013000000000000001;0.024;0.025;0.035;0.036;0.047;0.048;0.059;0.06;0.071;0.072;0.083;0.084;0.095;0.096;0.107;0.108;0.119;0.12;0.131;0.132;0.143;0.144;0.155;0.156;0.164;0.166;0.167;1" values="409.5,197.001;409.5,197.001;409.583,197.05;409.583,197.05;409.526,197.164;409.526,197.164;409.567,197.228;409.567,197.228;409.655,197.244;409.655,197.244;409.701,197.31;409.701,197.31;409.73,197.432;409.73,197.432;409.728,197.445;409.728,197.445;409.765,197.506;409.765,197.506;409.834,197.638;409.834,197.638;409.818,197.741;409.818,197.741;409.858,197.72;409.858,197.72;409.839,197.841;409.839,197.841;410.028,197.924;410.028,197.924;409.948,197.921;0;0" calcMode="discrete"/><animateTransform attributeName="transform" additive="sum" type="translate" repeatCount="indefinite" dur="4.2s" keyTimes="0;0.167;0.178;0.179;0.19;0.191;0.202;0.203;0.214;0.215;0.262;0.263;0.274;0.275;0.285;0.286;0.297;0.298;0.309;0.31;0.321;0.322;0.333;0.334;0.345;0.346;0.357;0.358;0.367;0.368;0.369;1" values="0;409.948,197.921;409.948,197.921;410.082,197.977;410.082,197.977;410.081,198.109;410.081,198.109;410.074,198.135;410.074,198.135;410.105,198.131;410.105,198.131;410.074,198.135;410.074,198.135;410.033,198.145;410.033,198.145;410.02,197.926;410.02,197.926;410.009,197.885;410.009,197.885;410.017,197.973;410.017,197.973;409.832,197.809;409.832,197.809;409.859,197.711;409.859,197.711;409.817,197.75;409.817,197.75;409.842,197.639;409.842,197.639;409.764,197.513;0;0" calcMode="discrete"/><animateTransform attributeName="transform" additive="sum" type="translate" repeatCount="indefinite" dur="4.2s" keyTimes="0;0.369;0.381;0.382;0.393;0.394;0.405;0.406;0.416;0.417;0.428;0.429;0.44;0.441;0.452;0.453;0.464;0.465;1" values="0;409.764,197.513;409.764,197.513;409.734,197.395;409.734,197.395;409.78,197.437;409.78,197.437;409.701,197.31;409.701,197.31;409.708,197.247;409.708,197.247;409.615,197.228;409.615,197.228;409.526,197.164;409.526,197.164;409.533,197;409.533,197;409.5,197.001;409.5,197.001" calcMode="discrete"/><animateTransform attributeName="transform" additive="sum" type="rotate" repeatCount="indefinite" dur="4.2s" keyTimes="0;0.012;0.013000000000000001;0.024;0.025;0.035;0.036;0.047;0.048;0.059;0.06;0.071;0.072;0.083;0.084;0.095;0.096;0.107;0.108;0.119;0.12;0.131;0.132;0.143;0.144;0.155;0.156;0.164;0.166;0.167;1" values="0,0,0;0,0,0;0.809,0,0;0.809,0,0;1.804,0,0;1.804,0,0;2.8,0,0;2.8,0,0;3.796,0,0;3.796,0,0;4.792,0,0;4.792,0,0;5.789,0,0;5.789,0,0;6.785,0,0;6.785,0,0;7.782,0,0;7.782,0,0;8.778,0,0;8.778,0,0;9.775,0,0;9.775,0,0;10.772,0,0;10.772,0,0;11.769,0,0;11.769,0,0;12.766,0,0;12.766,0,0;13.764,0,0;0;0" calcMode="discrete"/><animateTransform attributeName="transform" additive="sum" type="rotate" repeatCount="indefinite" dur="4.2s" keyTimes="0;0.167;0.178;0.179;0.19;0.191;0.202;0.203;0.214;0.215;0.262;0.263;0.274;0.275;0.285;0.286;0.297;0.298;0.309;0.31;0.321;0.322;0.333;0.334;0.345;0.346;0.357;0.358;0.367;0.368;0.369;1" values="0;13.764,0,0;13.764,0,0;14.573,0,0;14.573,0,0;15.57,0,0;15.57,0,0;16.714,0,0;16.714,0,0;16.569,0,0;16.569,0,0;16.714,0,0;16.714,0,0;15.57,0,0;15.57,0,0;14.573,0,0;14.573,0,0;13.764,0,0;13.764,0,0;12.766,0,0;12.766,0,0;11.77,0,0;11.77,0,0;10.772,0,0;10.772,0,0;9.775,0,0;9.775,0,0;8.778,0,0;8.778,0,0;7.782,0,0;0;0" calcMode="discrete"/><animateTransform attributeName="transform" additive="sum" type="rotate" repeatCount="indefinite" dur="4.2s" keyTimes="0;0.369;0.381;0.382;0.393;0.394;0.405;0.406;0.416;0.417;0.428;0.429;0.44;0.441;0.452;0.453;0.464;0.465;1" values="0;7.782,0,0;7.782,0,0;6.784,0,0;6.784,0,0;5.789,0,0;5.789,0,0;4.792,0,0;4.792,0,0;3.796,0,0;3.796,0,0;2.801,0,0;2.801,0,0;1.804,0,0;1.804,0,0;0.809,0,0;0.809,0,0;0,0,0;0,0,0" calcMode="discrete"/><animateTransform attributeName="transform" additive="sum" type="scale" repeatCount="indefinite" dur="4.2s" keyTimes="0;0.059;0.06;0.166;0.167;1" values="1,1;1,1;0.999,0.999;0.999,0.999;1;1" calcMode="discrete"/><animateTransform attributeName="transform" additive="sum" type="scale" repeatCount="indefinite" dur="4.2s" keyTimes="0;0.167;0.178;0.179;0.202;0.203;0.214;0.215;0.262;0.263;0.274;0.275;0.297;0.298;0.368;0.369;1" values="1;0.999,0.999;0.999,0.999;0.998,0.998;0.998,0.998;0.999,0.999;0.999,0.999;0.998,0.998;0.998,0.998;0.999,0.999;0.999,0.999;0.998,0.998;0.998,0.998;0.999,0.999;0.999,0.999;1;1" calcMode="discrete"/><animateTransform attributeName="transform" additive="sum" type="scale" repeatCount="indefinite" dur="4.2s" keyTimes="0;0.369;0.416;0.417;1" values="1;0.999,0.999;0.999,0.999;1,1;1,1" calcMode="discrete"/><animateTransform attributeName="transform" additive="sum" type="translate" repeatCount="indefinite" dur="4.2s" keyTimes="0;0.047;0.048;0.059;0.06;0.071;0.072;0.083;0.084;0.095;0.096;0.107;0.108;0.119;0.12;0.131;0.132;0.155;0.156;0.164;0.166;0.167;1" values="-3.6,2.549;-3.6,2.549;-3.6,2.499;-3.6,2.499;-3.6,2.599;-3.6,2.599;-3.65,2.499;-3.65,2.499;-3.6,2.599;-3.6,2.599;-3.55,2.599;-3.55,2.599;-3.65,2.499;-3.65,2.499;-3.55,2.499;-3.55,2.499;-3.6,2.549;-3.6,2.549;-3.65,2.599;-3.65,2.599;-3.55,2.549;0;0" calcMode="discrete"/><animateTransform attributeName="transform" additive="sum" type="translate" repeatCount="indefinite" dur="4.2s" keyTimes="0;0.167;0.178;0.179;0.19;0.191;0.202;0.203;0.214;0.215;0.262;0.263;0.274;0.275;0.285;0.286;0.297;0.298;0.309;0.31;0.321;0.322;0.333;0.334;0.345;0.346;0.357;0.358;0.367;0.368;0.369;1" values="0;-3.55,2.549;-3.55,2.549;-3.55,2.599;-3.55,2.599;-3.6,2.499;-3.6,2.499;-3.6,2.549;-3.6,2.549;-3.6,2.499;-3.6,2.499;-3.6,2.549;-3.6,2.549;-3.55,2.499;-3.55,2.499;-3.55,2.549;-3.55,2.549;-3.6,2.599;-3.6,2.599;-3.65,2.549;-3.65,2.549;-3.45,2.499;-3.45,2.499;-3.55,2.549;-3.55,2.549;-3.6,2.499;-3.6,2.499;-3.65,2.549;-3.65,2.549;-3.6,2.599;0;0" calcMode="discrete"/><animateTransform attributeName="transform" additive="sum" type="translate" repeatCount="indefinite" dur="4.2s" keyTimes="0;0.369;0.381;0.382;0.393;0.394;0.405;0.406;0.416;0.417;0.428;0.429;0.44;0.441;1" values="0;-3.6,2.599;-3.6,2.599;-3.6,2.649;-3.6,2.649;-3.7,2.499;-3.7,2.499;-3.6,2.599;-3.6,2.599;-3.65,2.549;-3.65,2.549;-3.6,2.499;-3.6,2.499;-3.6,2.549;-3.6,2.549" calcMode="discrete"/><path fill="#ADB4BB" fill-opacity=".349" d="M-20.65-7.25q-8.5 0-15.7 2.7l-168.15 27.8q-4 .65-6.4 3.95-2.45 3.3-1.85 7.3.65 4.05 3.9 6.45 3.35 2.45 7.35 1.8l138-19.9 1.45-1.35q-2.65-1.25-5.7-2.75-13.85-14.3 47.35-26h-.25M-41.2 23.95q-3.1-.1-5.7-.2-.45-.4-.9-.85 1.95.7 6.6 1.05"/><path fill="#ADB4BB" fill-opacity=".349" d="M-59.65 22.6q-2.25-.5-2.3-1.05 1.2.55 2.3 1.05"/><path fill="#514760" d="M-189.9 20.45l.85 20 174.7-25.9-15.5-20.65-160.05 26.55"/><path fill="none" stroke="#19344F" stroke-width="2.5" stroke-linecap="round" stroke-linejoin="round" d="M-189.05 40.45l-.85-20L-29.85-6.1m-159.2 46.55l183.4-26.4"/><path fill="#EAB091" stroke="#19344F" stroke-width="2.5" stroke-linecap="round" stroke-linejoin="round" d="M-189.87 20.51l-10.282 1.73q-4.021.611-6.413 3.919-2.443 3.257-1.832 7.278.661 4.071 3.919 6.464 3.308 2.392 7.33 1.781l8.144-1.171-.866-20.001"/><path fill="#514760" d="M196.651-19.999l-5.2-19.35-173.7 27.35-1.25 20.9 180.15-28.9"/><path fill="none" stroke="#19344F" stroke-width="2.5" stroke-linecap="round" stroke-linejoin="round" d="M196.651-19.999l-5.2-19.35-173.2 27.35m178.4-8l-182.65 29.4"/><path fill="#EAB091" stroke="#19344F" stroke-width="2.5" stroke-linecap="round" stroke-linejoin="round" d="M191.214-39.428l5.207 19.332 8.138-1.344q4.012-.574 6.406-3.897 2.441-3.269 1.819-7.334-.625-4.015-3.948-6.408-3.272-2.39-7.284-1.816l-10.338 1.467"/><path fill="none" stroke="#19344F" stroke-width="2.5" stroke-linecap="round" stroke-linejoin="round" d="M156.405-41.377l9.416-1.425M66.973-27.636l76.452-11.706"/></g><path fill="#EAB091" stroke="#19344F" stroke-width="2.5" stroke-linecap="round" stroke-linejoin="round" d="M373.567 137.662q-.509-5.904-5.09-9.721-4.581-3.817-10.486-3.308-5.904.56-9.722 5.09-3.817 4.58-3.308 10.484.56 5.955 5.09 9.772 4.581 3.817 10.485 3.257 5.956-.509 9.773-5.039 3.818-4.58 3.258-10.535M464.169 136.135q-.509-5.903-5.09-9.72-4.581-3.817-10.485-3.309-5.956.56-9.773 5.09-3.818 4.58-3.309 10.535.56 5.904 5.09 9.721 4.581 3.868 10.537 3.308 5.904-.509 9.722-5.09 3.868-4.58 3.308-10.535"/><path fill="#514760" d="M467.02 259.35v-20.205q0-20.307-11.809-33.895-12.267-14.047-31.711-14.047h-33.9q-19.545 0-32.22 14.047-12.419 13.69-12.419 33.895v20.205H467.02"/><path fill="none" stroke="#19344F" stroke-width="2.5" stroke-linecap="round" stroke-linejoin="round" d="M467.02 239.145v20.205H344.961v-20.205q0-20.205 12.419-33.895 12.675-14.047 32.22-14.047m77.42 47.942q0-20.307-11.809-33.895-12.267-14.047-31.711-14.047"/><path fill="#FFF" stroke="#19344F" stroke-width="2.5" stroke-linecap="round" stroke-linejoin="round" d="M408.382 204.639q-1.628-1.781-2.595-1.883-3.055-.306-8.552 4.122l-4.937 4.479 14.252 66.722 12.42-66.722q-3.309 1.781-7.534-3.054-2.137-2.595-3.054-3.664"/><path fill="#817890" stroke="#19344F" stroke-width="2.5" stroke-linecap="round" stroke-linejoin="round" d="M393.061 223.877l-9.671 9.873 29.472 55.373-23.262-97.92-15.932 11.807 3.105 13.182 16.288 7.685"/><path fill="#817890" stroke="#19344F" stroke-width="2.5" stroke-linecap="round" stroke-linejoin="round" d="M428.488 233.75l-9.671-8.804 16.288-8.754 3.105-13.182-15.932-11.807-21.225 97.92 27.435-55.373"/><path fill="#EAB091" stroke="#19344F" stroke-width="2.5" stroke-linecap="round" stroke-linejoin="round" d="M423.703 180.159l-36.291 1.832 6.413 24.429 22.498-.356 7.38-25.905"/><path fill="#EAB091" d="M439.33 78.269q-14.558-14.302-32.78-12.673l-29.115 3.563q-16.746-2.291-22.447 14.199-4.276 12.367-2.24 35.168l4.734 28.399q1.629 18.475 15.881 30.384 14.201 11.858 32.627 10.229l6.159-.559q18.477-1.629 30.388-15.879 11.859-14.2 10.23-32.674l-.407-28.806q.662-8.347-2.952-16.796-3.461-8.092-10.078-14.555"/><path fill="#CD987B" d="M359.976 89.262l-1.985 6.005q-2.239 7.685-3.308 15.828-3.512 26.16 5.446 47.586 9.009 21.427 31.405 27.025 11.198 2.799 20.615 1.273-34.714-10.79-46.93-55.322-3.818-13.945-4.886-29.57l-.357-12.825"/><path fill="none" stroke="#19344F" stroke-width="2.5" stroke-linecap="round" stroke-linejoin="round" d="M439.33 78.269q-14.558-14.302-32.78-12.673l-29.115 3.563q-16.746-2.291-22.447 14.199-4.276 12.367-2.24 35.168l4.734 28.399q1.629 18.475 15.881 30.384 14.201 11.858 32.627 10.229l6.159-.559q18.477-1.629 30.388-15.879 11.859-14.2 10.23-32.674l-.407-28.806q.662-8.347-2.952-16.796-3.461-8.092-10.078-14.555"/><path fill="none" stroke="#19344F" stroke-width="2.5" stroke-linecap="round" stroke-linejoin="round" d="M398.66 146.874q-2.595-2.392-2.748-5.904m2.748 5.904q2.545 2.341 6.058 2.239 3.461-.152 5.853-2.697 2.392-2.596 2.291-6.056"/><path fill="#E66C6C" stroke="#19344F" stroke-width="2.5" stroke-linecap="round" stroke-linejoin="round" d="M426.401 204.588q0-7.125-.203-10.23.152-2.188-5.04-.712-4.682 1.323-7.736 3.461-1.426 1.017-3.004 2.392-1.374 1.272-2.086 1.73l-.306-.407-.051-.102q-.865-.865-1.985-.865-1.323 0-2.087 1.069h-.102l-1.73-1.731q-1.171-1.17-2.494-2.086l-.611-.408.051-.05-.611-.357-.051.051q-3.817-2.341-7.279-3.308-4.326-1.171-4.275 1.323l.051 1.069q0 2.952-.153 8.092v10.535q.051 2.036 5.09.713 4.377-1.222 7.788-3.257 2.239-1.476 3.206-2.698.408-.61.713-.661.254.814.916 1.323.713.56 1.578.56.967 0 1.68-.611.712-.56.916-1.476.458.153.662.305l1.018.713q2.036 1.781 3.206 2.545 2.087 1.323 7.228 4.682 4.276 2.087 5.498-1.425l.101-.713.102-9.466"/><path fill="#D8DAD7" d="M429.811 76.996q5.599 0 10.028 3.41 4.428 3.41 5.853 8.856l6.363 46.314 4.937-40.156q0-13.182-9.111-23.564-9.366-10.739-21.938-10.739h-46.167q-12.623 0-21.988 10.739-9.112 10.382-9.112 23.564l7.126 40.156 4.174-46.314q1.425-5.395 5.854-8.856 4.428-3.41 10.027-3.41 0 3.614 2.545 6.108 2.545 2.544 6.108 2.544h36.648q3.614 0 6.108-2.544 2.545-2.494 2.545-6.108"/><path fill="none" stroke="#19344F" stroke-width="2.5" stroke-linecap="round" stroke-linejoin="round" d="M415.229 85.648h5.929q3.614 0 6.108-2.544 2.545-2.494 2.545-6.108 5.599 0 10.028 3.41 4.428 3.41 5.853 8.856l6.363 46.314 4.937-40.156q0-13.182-9.111-23.564-9.366-10.739-21.938-10.739h-46.167q-12.623 0-21.988 10.739-9.112 10.382-9.112 23.564l7.126 40.156 4.174-46.314q1.425-5.395 5.854-8.856 4.428-3.41 10.027-3.41 0 3.614 2.545 6.108 2.545 2.544 6.108 2.544h30.719"/><path fill="#19344F" d="M363.336 120.358q1.527 1.018 1.73 1.476.56 1.069.815 3.105.305 2.29.56 2.952 1.018 2.85 2.494 4.987 4.326 6.209 14.15 5.548 9.671-.662 13.743-6.922 1.374-2.087 2.087-5.089.305-1.273 1.222-6.515 1.781-.814 3.868-.763 2.443 0 3.309 1.323-.713 8.856 5.751 13.996 6.108 4.886 14.965 3.919 5.752-.611 9.213-5.191 2.545-3.36 4.326-9.976 2.138-1.018 2.749-4.071.407-2.087.204-6.617-9.671-1.17-14.914-1.221-7.483-.153-13.743 1.425-1.171.305-3.92 1.68-2.443 1.221-3.766 1.323-.509.051-1.985-.356-1.578-.408-2.444-.458-.661 0-2.188.356-1.375.305-1.985.203-.815-.101-2.087-.967-1.527-1.018-2.036-1.221-6.566-2.698-14.965-3.003-6.871-.203-18.12 1.272 0 .204-.509 3.563-.357 2.29-.102 3.41.203.916 1.578 1.832m9.976-5.751q3.105-1.12 6.108-1.12 15.321 0 17.408 6.413.916 2.952-.102 6.667-.763 2.698-2.087 4.632-2.646 3.868-9.722 5.038-7.278 1.222-11.859-1.985-2.749-1.934-3.92-7.532-1.119-5.497.204-9.212.56-1.629 3.97-2.901m49.475-.305q4.887-.356 9.264.458 4.734.865 5.904 2.748 2.087 3.257.764 8.754-1.222 5.038-3.767 7.43-4.072 3.818-11.147 3.003-6.77-.763-10.383-4.937-2.138-2.493-2.444-6.972-.305-4.682 1.884-7.125 1.425-1.578 3.97-2.341 2.087-.662 5.955-1.018"/><path fill="none" stroke="#19344F" stroke-width="2.5" stroke-linecap="round" stroke-linejoin="round" d="M400.289 162.957h11.453M392.298 105.701h20.564M381.354 100.001h42.451"/><g transform="translate(409.35 195.25)"><animateTransform attributeName="transform" additive="replace" type="translate" dur="4.2s" keyTimes="0;1" values="0,0;0,0" fill="freeze"/><animateTransform attributeName="transform" additive="sum" type="translate" repeatCount="indefinite" dur="4.2s" keyTimes="0;0.012;0.013000000000000001;0.024;0.025;0.035;0.036;0.047;0.048;0.059;0.06;0.071;0.072;0.083;0.084;0.095;0.096;0.107;0.108;0.119;0.12;0.131;0.132;0.143;0.144;0.155;0.156;0.164;0.166;0.167;1" values="409.35,195.25;409.35,195.25;409.4,195.3;409.4,195.3;409.5,195.4;409.5,195.4;409.55,195.45;409.55,195.45;409.6,195.55;409.6,195.55;409.65,195.6;409.65,195.6;409.75,195.65;409.75,195.65;409.8,195.75;409.8,195.75;409.85,195.8;409.85,195.8;409.95,195.9;409.95,195.9;410,195.95;410,195.95;410.05,196.05;410.05,196.05;410.15,196.1;410.15,196.1;410.2,196.15;410.2,196.15;410.25,196.25;0;0" calcMode="discrete"/><animateTransform attributeName="transform" additive="sum" type="translate" repeatCount="indefinite" dur="4.2s" keyTimes="0;0.167;0.178;0.179;0.19;0.191;0.202;0.203;0.214;0.215;0.262;0.263;0.274;0.275;0.285;0.286;0.297;0.298;0.309;0.31;0.321;0.322;0.333;0.334;0.345;0.346;0.357;0.358;0.367;0.368;0.369;1" values="0;410.25,196.25;410.25,196.25;410.3,196.3;410.3,196.3;410.4,196.45;410.4,196.45;410.45,196.45;410.45,196.45;410.45,196.4;410.45,196.4;410.45,196.45;410.45,196.45;410.35,196.4;410.35,196.4;410.3,196.3;410.3,196.3;410.25,196.25;410.25,196.25;410.25,196.15;410.25,196.15;410.15,196.1;410.15,196.1;410.05,196.1;410.05,196.1;410,195.95;410,195.95;409.95,195.85;409.95,195.85;409.9,195.85;0;0" calcMode="discrete"/><animateTransform attributeName="transform" additive="sum" type="translate" repeatCount="indefinite" dur="4.2s" keyTimes="0;0.369;0.381;0.382;0.393;0.394;0.405;0.406;0.416;0.417;0.428;0.429;0.44;0.441;0.452;0.453;0.464;0.465;1" values="0;409.9,195.85;409.9,195.85;409.8,195.75;409.8,195.75;409.7,195.65;409.7,195.65;409.65,195.6;409.65,195.6;409.65,195.55;409.65,195.55;409.55,195.45;409.55,195.45;409.5,195.4;409.5,195.4;409.4,195.25;409.4,195.25;409.35,195.25;409.35,195.25" calcMode="discrete"/><animateTransform attributeName="transform" additive="sum" type="rotate" repeatCount="indefinite" dur="4.2s" keyTimes="0;0.012;0.013000000000000001;0.024;0.025;0.035;0.036;0.047;0.048;0.059;0.06;0.071;0.072;0.083;0.084;0.095;0.096;0.107;0.108;0.119;0.12;0.131;0.132;0.143;0.144;0.155;0.156;0.164;0.166;0.167;1" values="0,0,0;0,0,0;0.809,0,0;0.809,0,0;1.804,0,0;1.804,0,0;2.8,0,0;2.8,0,0;3.796,0,0;3.796,0,0;4.792,0,0;4.792,0,0;5.789,0,0;5.789,0,0;6.785,0,0;6.785,0,0;7.782,0,0;7.782,0,0;8.778,0,0;8.778,0,0;9.775,0,0;9.775,0,0;10.772,0,0;10.772,0,0;11.769,0,0;11.769,0,0;12.766,0,0;12.766,0,0;13.764,0,0;0;0" calcMode="discrete"/><animateTransform attributeName="transform" additive="sum" type="rotate" repeatCount="indefinite" dur="4.2s" keyTimes="0;0.167;0.178;0.179;0.19;0.191;0.202;0.203;0.214;0.215;0.262;0.263;0.274;0.275;0.285;0.286;0.297;0.298;0.309;0.31;0.321;0.322;0.333;0.334;0.345;0.346;0.357;0.358;0.367;0.368;0.369;1" values="0;13.764,0,0;13.764,0,0;14.573,0,0;14.573,0,0;15.57,0,0;15.57,0,0;16.714,0,0;16.714,0,0;16.569,0,0;16.569,0,0;16.714,0,0;16.714,0,0;15.57,0,0;15.57,0,0;14.573,0,0;14.573,0,0;13.764,0,0;13.764,0,0;12.766,0,0;12.766,0,0;11.77,0,0;11.77,0,0;10.772,0,0;10.772,0,0;9.775,0,0;9.775,0,0;8.778,0,0;8.778,0,0;7.782,0,0;0;0" calcMode="discrete"/><animateTransform attributeName="transform" additive="sum" type="rotate" repeatCount="indefinite" dur="4.2s" keyTimes="0;0.369;0.381;0.382;0.393;0.394;0.405;0.406;0.416;0.417;0.428;0.429;0.44;0.441;0.452;0.453;0.464;0.465;1" values="0;7.782,0,0;7.782,0,0;6.784,0,0;6.784,0,0;5.789,0,0;5.789,0,0;4.792,0,0;4.792,0,0;3.796,0,0;3.796,0,0;2.801,0,0;2.801,0,0;1.804,0,0;1.804,0,0;0.809,0,0;0.809,0,0;0,0,0;0,0,0" calcMode="discrete"/><animateTransform attributeName="transform" additive="sum" type="scale" repeatCount="indefinite" dur="4.2s" keyTimes="0;0.059;0.06;0.166;0.167;1" values="1,1;1,1;0.999,0.999;0.999,0.999;1;1" calcMode="discrete"/><animateTransform attributeName="transform" additive="sum" type="scale" repeatCount="indefinite" dur="4.2s" keyTimes="0;0.167;0.178;0.179;0.202;0.203;0.214;0.215;0.262;0.263;0.274;0.275;0.297;0.298;0.368;0.369;1" values="1;0.999,0.999;0.999,0.999;0.998,0.998;0.998,0.998;0.999,0.999;0.999,0.999;0.998,0.998;0.998,0.998;0.999,0.999;0.999,0.999;0.998,0.998;0.998,0.998;0.999,0.999;0.999,0.999;1;1" calcMode="discrete"/><animateTransform attributeName="transform" additive="sum" type="scale" repeatCount="indefinite" dur="4.2s" keyTimes="0;0.369;0.416;0.417;1" values="1;0.999,0.999;0.999,0.999;1,1;1,1" calcMode="discrete"/><path fill="#F8D68F" d="M30.95-11.875L32.05-5l-1.1-6.875-10.65 1.65 1.1 6.875-1.1-6.875L9.65-8.55l1.1 6.85-1.1-6.85L-.95-6.9.1-.05-.95-6.9-11.6-5.25l1.05 6.9-1.05-6.9-10.7 1.675 1.1 6.875-1.1-6.875L-32.95-1.9l1.1 6.85-1.1-6.85-10.6 1.65 1.05 6.9-1.05-6.9L-54.2 1.4l1.05 6.85-1.05-6.85-10.65 1.65 1.05 6.9-1.05-6.9-10.7 1.675 1.1 6.875-1.1-6.875-10.6 1.65 1.05 6.875-1.05-6.875L-96.8 8.05l1.05 6.9-1.05-6.9-10.65 1.65 1.05 6.85-1.05-6.85-10.65 1.675 1.1 6.875-1.1-6.875-10.7 1.675 1.1 6.85-1.1-6.85-10.6 1.65 1.05 6.85-1.05-6.85-10.65 1.65 1.05 6.9-1.05-6.9-10.65 1.675 1.1 6.875-1.1-6.875-10.65 1.65 1.1 6.875-1.1-6.875-10.65 1.65 1.05 6.875-1.05-6.875L-192.65 23l1.05 6.9-1.05-6.9-8.05 1.25q-2.65.4-4.25 2.6-1.55 2.15-1.15 4.8l.15.95q.4 2.65 2.6 4.2 2.15 1.6 4.8 1.2L200.7-24.3q2.65-.4 4.2-2.6 1.6-2.15 1.2-4.8l-.15-.95q-.4-2.65-2.6-4.2-2.15-1.55-4.8-1.2l-7.85 1.225 1.1 6.875-1.1-6.875-10.65 1.675 1.05 6.9-1.05-6.9-10.65 1.65 1.05 6.9-1.05-6.9-10.65 1.675 1.1 6.875-1.1-6.875-10.65 1.65 1.1 6.875-1.1-6.875-10.6 1.65 1.05 6.925-1.05-6.925-10.7 1.675 1.05 6.85-1.05-6.85-10.65 1.675 1.05 6.875-1.05-6.875-10.65 1.65 1.1 6.925-1.1-6.925-10.6 1.65L95.95-15l-1.05-6.875L84.25-20.2l1.05 6.9-1.05-6.9-10.7 1.675L74.6-11.7l-1.05-6.825-10.65 1.65L64-10l-1.1-6.875L52.25-15.2l1.1 6.9-1.1-6.9-10.6 1.65L42.7-6.7l-1.05-6.85-10.7 1.675"/><path fill="none" stroke="#19344F" stroke-width="2.5" stroke-linecap="round" stroke-linejoin="round" d="M20.3-10.225L9.65-8.55-.95-6.9-11.6-5.25l-10.7 1.675L-32.95-1.9l-10.6 1.65L-54.2 1.4l-10.65 1.65-10.7 1.675-10.6 1.65L-96.8 8.05l-10.65 1.65-10.65 1.675-10.7 1.675-10.6 1.65-10.65 1.65-10.65 1.675-10.65 1.65-10.65 1.65L-192.65 23l-8.05 1.25q-2.65.4-4.25 2.6-1.55 2.15-1.15 4.8l.15.95q.4 2.65 2.6 4.2 2.15 1.6 4.8 1.2L200.7-24.3q2.65-.4 4.2-2.6 1.6-2.15 1.2-4.8l-.15-.95q-.4-2.65-2.6-4.2-2.15-1.55-4.8-1.2l-7.85 1.225-10.65 1.675-10.65 1.65-10.65 1.675-10.65 1.65-10.6 1.65-10.7 1.675-10.65 1.675-10.65 1.65-10.6 1.65L84.25-20.2l-10.7 1.675-10.65 1.65L52.25-15.2l-10.6 1.65-10.7 1.675-10.65 1.65M30.95-11.875L32.05-5M20.3-10.225l1.1 6.875M9.65-8.55l1.1 6.85M-.95-6.9L.1-.05m-11.7-5.2l1.05 6.9M-22.3-3.575l1.1 6.875m-11.75-5.2l1.1 6.85m-11.7-5.2l1.05 6.9M-54.2 1.4l1.05 6.85m-11.7-5.2l1.05 6.9m-11.75-5.225l1.1 6.875m-11.7-5.225l1.05 6.875m-11.7-5.2l1.05 6.9m-11.7-5.25l1.05 6.85m-11.7-5.175l1.1 6.875m-11.8-5.2l1.1 6.85m-11.7-5.2l1.05 6.85m-11.7-5.2l1.05 6.9m-11.7-5.225l1.1 6.875m-11.75-5.225l1.1 6.875M-182 21.325l1.05 6.875m-11.7-5.2l1.05 6.9m382.3-66.725l1.1 6.875m-11.75-5.2l1.05 6.9m-11.7-5.25l1.05 6.9m-11.7-5.225l1.1 6.875m-11.75-5.225l1.1 6.875m-11.7-5.225l1.05 6.925m-11.75-5.25l1.05 6.85m-11.7-5.175l1.05 6.875m-11.7-5.225l1.1 6.925m-11.7-5.275L95.95-15m-11.7-5.2l1.05 6.9m-11.75-5.225L74.6-11.7m-11.7-5.175L64-10m-11.75-5.2l1.1 6.9m-11.7-5.25L42.7-6.7"/></g><g transform="translate(404.5 128.1)"><animateTransform attributeName="transform" additive="replace" type="translate" repeatCount="indefinite" dur="4.2s" keyTimes="0;0.214;0.226;0.262;0.274;1" values="404.5,128.1;404.5,128.1;404.501,128.1;404.501,128.1;404.501,128.101;404.501,128.101"/><animateTransform attributeName="transform" additive="sum" type="scale" repeatCount="indefinite" dur="4.2s" keyTimes="0;0.19;0.202;0.214;0.226;0.238;0.25;0.262;0.274;1" values="1,1;1,1;1,0.687;1,0.374;1,0.062;1,0.062;1,0.374;1,0.687;1,1;1,1"/><animateTransform attributeName="transform" additive="sum" type="translate" repeatCount="indefinite" dur="4.2s" keyTimes="0;0.214;0.226;0.262;0.274;1" values="0,0;0,0;0.049,0;0.049,0;0.049,0.049;0.049,0.049"/><path fill="#1A344F" d="M-21.95-10.95q-.35-.3-.85-.3t-.8.3q-.35.25-.35.65V0q0 .4.35.7.3.25.8.25t.85-.25q.3-.3.3-.7v-10.3q0-.4-.3-.65M22-10.95q-.35-.3-.85-.3t-.8.3q-.35.25-.35.65V0q0 .4.35.7.3.25.8.25T22 .7q.3-.3.3-.7v-10.3q0-.4-.3-.65"/></g></g></svg>