<svg width="24" height="24" viewBox="0 0 24 24" fill="none" xmlns="http://www.w3.org/2000/svg">
<path d="M0.005 0.005H23.995V23.995H0.005V0.005Z" stroke="white" stroke-opacity="0.01" stroke-width="0.01"/>
<path fill-rule="evenodd" clip-rule="evenodd" d="M9.5 2C14.1951 2 18 5.8063 18 10.5C18 15.1937 14.1951 19 9.5 19C4.80486 19 1 15.1937 1 10.5C1 5.8063 4.80486 2 9.5 2ZM9.5 4C5.91087 4 3 6.90943 3 10.5C3 14.0906 5.91087 17 9.5 17C13.0891 17 16 14.0906 16 10.5C16 6.90943 13.0891 4 9.5 4ZM21.7658 21.4138L20.342 22.8183L17.0208 19.4518L17 16.5947L21.7658 21.4138Z" fill="white"/>
</svg>
