<svg width="198" height="189" viewBox="0 0 198 189" fill="none" xmlns="http://www.w3.org/2000/svg">
<path d="M113.547 136.26C95.847 121.39 111.487 99.77 111.487 99.77H86.437C86.437 99.77 102.077 121.39 84.377 136.26H113.547Z" fill="#E18658"/>
<path d="M113.546 136.26H104.466C97.7963 121.39 103.686 99.77 103.686 99.77H111.496C111.496 99.77 95.8563 121.39 113.546 136.26Z" fill="#DE7118"/>
<path d="M122.967 155.63C113.427 151.63 116.047 143 116.047 143H81.8966C81.8966 143 84.5166 151.63 74.9766 155.63H122.977H122.967Z" fill="#E18658"/>
<path d="M122.966 155.63H111.226C106.356 151.63 107.686 143 107.686 143H116.036C116.036 143 113.416 151.63 122.966 155.63Z" fill="#DE7118"/>
<path d="M115.027 136.26H82.8967C81.0741 136.26 79.5967 137.737 79.5967 139.56V140.82C79.5967 142.643 81.0741 144.12 82.8967 144.12H115.027C116.849 144.12 118.327 142.643 118.327 140.82V139.56C118.327 137.737 116.849 136.26 115.027 136.26Z" fill="#E18658"/>
<path d="M123.366 155.63H74.5764C72.7538 155.63 71.2764 157.108 71.2764 158.93V160.19C71.2764 162.013 72.7538 163.49 74.5764 163.49H123.366C125.189 163.49 126.666 162.013 126.666 160.19V158.93C126.666 157.108 125.189 155.63 123.366 155.63Z" fill="#E18658"/>
<path d="M115.907 97C115.907 97 119.797 113.03 98.9669 113.03C78.1369 113.03 82.0269 97 82.0269 97H115.907Z" fill="#E18658"/>
<path d="M115.907 97H113.177C113.397 101.36 112.047 110.91 95.9668 110.91C91.1768 110.91 87.6968 110.05 85.1768 108.75C87.6668 111.19 91.8868 113.04 98.9568 113.04C119.787 113.04 115.897 97.01 115.897 97.01L115.907 97Z" fill="#D06D47"/>
<path d="M49.8566 75.8301C40.5266 70.8301 32.3566 63.7701 25.8966 55.3201C19.3966 46.8901 14.5966 37.1201 11.2366 26.8801C10.1266 23.4801 9.19659 20.0201 8.39659 16.5201C10.3666 18.7501 12.6266 20.7401 15.1366 22.3701C19.6966 25.3501 24.8866 27.1301 30.1066 27.9401C32.7166 28.3501 35.3466 28.5201 37.9666 28.5001C39.2766 28.4901 40.5866 28.4201 41.8966 28.3101C42.5466 28.2501 43.2066 28.1801 43.8666 28.0901C44.5466 28.0001 45.1366 27.9101 45.9366 27.7501L44.5166 21.1701C44.1166 21.2501 43.5066 21.3501 42.9766 21.4201C42.4266 21.4901 41.8666 21.5501 41.3066 21.6001C40.1866 21.7001 39.0466 21.7601 37.9166 21.7601C35.6466 21.7801 33.3766 21.6301 31.1666 21.2801C26.7266 20.5901 22.4866 19.1101 18.8466 16.7301C15.2066 14.3601 12.2066 11.0901 10.0166 7.25011C10.0166 7.25011 10.0166 7.24012 10.0066 7.23012C9.34659 6.09012 8.16659 5.36011 6.84659 5.36011H3.60659C1.42659 5.36011 -0.273407 7.29012 0.0365927 9.45012C0.176593 10.4201 0.326593 11.3901 0.486593 12.3601C1.44659 17.9901 2.76659 23.5701 4.48659 29.0401C7.93659 39.9601 12.9566 50.5301 19.9566 59.8301C26.9066 69.1401 35.8666 77.0701 46.1066 82.7001C56.3266 88.3801 67.6466 91.7901 79.0466 93.4501L80.1766 85.3301C69.5566 83.9001 59.1866 80.8801 49.8666 75.8301H49.8566Z" fill="#D06D47"/>
<path d="M148.077 75.8301C157.407 70.8301 165.577 63.7701 172.037 55.3201C178.537 46.8901 183.337 37.1201 186.697 26.8801C187.807 23.4801 188.737 20.0201 189.537 16.5201C187.567 18.7501 185.307 20.7401 182.797 22.3701C178.237 25.3501 173.047 27.1301 167.827 27.9401C165.217 28.3501 162.587 28.5201 159.967 28.5001C158.657 28.4901 157.347 28.4201 156.037 28.3101C155.387 28.2501 154.727 28.1801 154.067 28.0901C153.387 28.0001 152.797 27.9101 151.997 27.7501L153.417 21.1701C153.817 21.2501 154.427 21.3501 154.957 21.4201C155.507 21.4901 156.067 21.5501 156.627 21.6001C157.747 21.7001 158.887 21.7601 160.017 21.7601C162.287 21.7801 164.557 21.6301 166.767 21.2801C171.207 20.5901 175.447 19.1101 179.087 16.7301C182.727 14.3601 185.727 11.0901 187.917 7.25011C187.917 7.25011 187.917 7.24012 187.927 7.23012C188.587 6.09012 189.767 5.36011 191.077 5.36011H194.317C196.497 5.36011 198.197 7.29012 197.887 9.45012C197.747 10.4201 197.597 11.3901 197.437 12.3601C196.477 17.9901 195.157 23.5701 193.437 29.0401C189.987 39.9601 184.967 50.5301 177.967 59.8301C171.017 69.1401 162.057 77.0701 151.817 82.7001C141.597 88.3801 130.277 91.7901 118.877 93.4501L117.747 85.3301C128.367 83.9001 138.737 80.8801 148.057 75.8301H148.077Z" fill="#D06D47"/>
<path d="M161.087 6.02002C161.087 6.02002 153.817 101.45 98.9667 101.45C44.1167 101.45 36.8467 6.02002 36.8467 6.02002H161.097H161.087Z" fill="#E18658"/>
<path d="M152.687 6.02002H36.8467C36.8467 6.02002 37.1667 10.21 38.1767 16.82C51.1267 13.31 113.667 10.77 151.077 17.95C148.817 34.9 143.397 67.1 126.307 84.67C95.9567 115.87 66.1367 86.55 66.1067 86.53C71.6767 92.47 78.2967 97.09 86.1267 99.53C87.4767 99.95 88.8667 100.31 90.2967 100.59C90.5067 100.63 90.7167 100.68 90.9267 100.72C91.3067 100.79 91.6867 100.86 92.0667 100.92C92.5067 100.99 92.9567 101.05 93.3967 101.11C93.7367 101.15 94.0667 101.19 94.4067 101.23C94.9567 101.29 95.5167 101.33 96.0767 101.37C96.2967 101.38 96.5167 101.4 96.7467 101.41C97.4767 101.45 98.2167 101.47 98.9667 101.47C99.6767 101.47 100.377 101.45 101.067 101.42C101.287 101.41 101.507 101.39 101.737 101.38C102.207 101.35 102.677 101.32 103.137 101.28C103.387 101.26 103.637 101.23 103.887 101.2C104.317 101.15 104.737 101.1 105.167 101.04C105.417 101 105.667 100.97 105.917 100.93C106.337 100.86 106.757 100.79 107.177 100.71C107.407 100.67 107.637 100.62 107.867 100.58C108.317 100.49 108.767 100.38 109.207 100.28C109.397 100.24 109.577 100.19 109.767 100.15C110.367 100 110.957 99.83 111.537 99.66C111.567 99.66 111.587 99.65 111.617 99.64C112.257 99.45 112.877 99.24 113.497 99.01C113.567 98.98 113.637 98.95 113.717 98.93C114.247 98.74 114.767 98.53 115.287 98.32C115.427 98.26 115.567 98.2 115.707 98.14C116.157 97.95 116.607 97.75 117.047 97.54C117.197 97.47 117.337 97.4 117.487 97.33C117.927 97.12 118.357 96.9 118.787 96.67C118.917 96.6 119.047 96.53 119.177 96.46C119.647 96.21 120.107 95.95 120.567 95.68C120.647 95.63 120.737 95.58 120.817 95.54C122.497 94.54 124.107 93.43 125.657 92.22C125.657 92.22 125.677 92.21 125.687 92.2C126.187 91.81 126.667 91.41 127.157 91.01C127.207 90.97 127.257 90.92 127.307 90.88C127.757 90.5 128.197 90.11 128.637 89.71C128.667 89.69 128.697 89.66 128.717 89.64C148.087 71.92 156.157 38.61 159.287 19.84C160.567 12.13 161.027 6.87002 161.077 6.16002C161.077 6.11002 161.077 6.07002 161.077 6.07002H152.677L152.687 6.02002Z" fill="#D06D47"/>
<path d="M161.556 10.7001H36.3763C33.7963 10.7001 31.6963 8.61008 31.6963 6.02008C31.6963 3.44008 33.7863 1.34009 36.3763 1.34009H161.556C164.136 1.34009 166.236 3.43008 166.236 6.02008C166.236 8.60008 164.146 10.7001 161.556 10.7001Z" fill="#E18658"/>
<path d="M36.377 1.35001C44.367 0.790006 52.357 0.490003 60.347 0.300003C68.337 0.0800031 76.327 0.03 84.3169 0L96.307 0.0700073C100.307 0.150007 104.297 0.170003 108.297 0.300003C116.287 0.500003 124.277 0.790001 132.267 1.36C124.277 1.92 116.287 2.22001 108.297 2.42001C104.297 2.55001 100.307 2.57001 96.307 2.65001L84.3169 2.72C76.327 2.69 68.337 2.64001 60.347 2.42001C52.357 2.22001 44.367 1.93001 36.377 1.37001V1.35001Z" fill="#D06D47"/>
<path d="M133.906 163.48H64.0264V188.37H133.906V163.48Z" fill="#263D66"/>
<path d="M133.906 176.19C106.136 179.35 79.0164 181 64.0264 181.75V188.38H133.906V176.19Z" fill="#22365B"/>
<path d="M121.247 168.11H76.6865V183.75H121.247V168.11Z" fill="#E18658"/>
<path d="M121.247 171.54C121.247 171.54 95.7865 178.87 76.6865 179.63V183.75H121.247V171.54Z" fill="#D06D47"/>
<path d="M124.075 51.6133C126.363 37.6276 116.88 24.4353 102.894 22.1475C88.9085 19.8598 75.7162 29.3429 73.4285 43.3287C71.1407 57.3144 80.6238 70.5067 94.6096 72.7944C108.595 75.0822 121.788 65.5991 124.075 51.6133Z" fill="#E18658"/>
<path d="M78.8565 47.4799C78.2965 44.8699 78.5265 42.0699 79.3965 39.4599C80.2465 36.8399 81.7665 34.4199 83.7265 32.4499C85.6965 30.4799 88.1165 28.9699 90.7365 28.1199C93.3465 27.2499 96.1465 27.0199 98.7565 27.5799C96.1565 28.1499 93.7565 28.9499 91.5465 30.0699C89.3565 31.2099 87.3665 32.6499 85.6465 34.3599C83.9265 36.0799 82.4965 38.0699 81.3465 40.2599C80.2165 42.4699 79.4265 44.8699 78.8565 47.4699V47.4799Z" fill="#E18658"/>
<path d="M110.716 24.78C114.396 29.22 116.616 34.92 116.616 41.14C116.616 55.31 105.126 66.8 90.9563 66.8C86.6363 66.8 82.5663 65.72 78.9863 63.83C83.6963 69.51 90.8063 73.13 98.7563 73.13C112.926 73.13 124.416 61.64 124.416 47.46C124.416 37.61 118.866 29.07 110.716 24.77V24.78Z" fill="#E18658"/>
<path d="M98.7459 73.8901C84.1859 73.8901 72.3359 62.0401 72.3359 47.4801C72.3359 32.9201 84.1859 21.0701 98.7459 21.0701C113.306 21.0701 125.156 32.9201 125.156 47.4801C125.156 62.0401 113.306 73.8901 98.7459 73.8901ZM98.7459 22.5601C85.0059 22.5601 73.8259 33.7401 73.8259 47.4801C73.8259 61.2201 85.0059 72.4001 98.7459 72.4001C112.486 72.4001 123.666 61.2201 123.666 47.4801C123.666 33.7401 112.486 22.5601 98.7459 22.5601Z" fill="#D4670F"/>
<path d="M98.0066 65.9301C91.9166 65.9301 87.1466 62.67 85.8566 57.64L85.7266 57.1301L92.5666 53.7901L92.8066 54.5401C93.4366 56.5501 95.5166 58.2701 97.5366 58.4601C97.7166 58.4801 97.8866 58.4901 98.0566 58.4901C100.727 58.4901 102.177 56.5101 102.177 54.6501C102.177 50.8201 98.1166 50.5301 96.8766 50.5301H94.4766V43.6201H96.7266C98.0866 43.5901 101.287 43.2301 101.287 40.4201C101.287 39.1201 100.847 37.87 97.6466 37.58C97.5266 37.57 97.4066 37.5601 97.2966 37.5601C94.4866 37.5601 92.6766 40.6701 92.6566 40.7001L92.2966 41.33L86.6366 37.66L86.8166 37.1801C88.5666 32.5801 92.5466 30.05 98.0266 30.05C98.4866 30.05 98.9666 30.0701 99.4366 30.1001C106.177 30.6001 110.037 33.92 110.037 39.19C110.037 42.8 108.727 45.24 105.957 46.75C109.507 48.06 111.787 51.22 111.787 55.05C111.787 61.56 106.247 65.9301 98.0066 65.9301Z" fill="white"/>
<path d="M91.9767 54.55C92.6767 56.77 94.9367 58.71 97.2967 58.93C100.567 59.24 102.687 56.98 102.687 54.46C102.687 51.17 100.007 49.68 96.7067 49.68H94.9867V44.08H96.5567C99.0667 44.03 101.797 43.05 101.797 40.23C101.797 38.23 100.677 37.02 97.5367 36.74C94.0367 36.42 91.8867 40.21 91.8867 40.21L87.2867 37.23C89.2567 32.05 93.8767 30.18 99.2167 30.58C106.047 31.09 109.187 34.44 109.187 39.02C109.187 42.57 107.937 45.23 103.997 46.67V46.77C107.837 47.49 110.937 50.52 110.937 54.89C110.937 60.8 105.957 65.12 97.8367 65.12C92.3367 65.12 87.6267 62.32 86.3467 57.32L91.9767 54.57V54.55Z" fill="white"/>
</svg>
