<svg width="198" height="189" viewBox="0 0 198 189" fill="none" xmlns="http://www.w3.org/2000/svg">
<path d="M113.536 136.27C95.8363 121.4 111.476 99.78 111.476 99.78H86.4262C86.4262 99.78 102.066 121.4 84.3662 136.27H113.536Z" fill="#C8CAD1"/>
<path d="M113.537 136.27H104.457C97.7865 121.4 103.676 99.78 103.676 99.78H111.486C111.486 99.78 95.8465 121.4 113.537 136.27Z" fill="#B1B4BB"/>
<path d="M122.947 155.64C113.407 151.64 116.027 143.01 116.027 143.01H81.877C81.877 143.01 84.497 151.64 74.957 155.64H122.957H122.947Z" fill="#C8CAD1"/>
<path d="M122.947 155.63H111.207C106.337 151.63 107.667 143 107.667 143H116.017C116.017 143 113.397 151.63 122.947 155.63Z" fill="#B1B4BB"/>
<path d="M115.017 136.27H82.8869C81.0644 136.27 79.5869 137.747 79.5869 139.57V140.83C79.5869 142.653 81.0644 144.13 82.8869 144.13H115.017C116.839 144.13 118.317 142.653 118.317 140.83V139.57C118.317 137.747 116.839 136.27 115.017 136.27Z" fill="#C8CAD1"/>
<path d="M123.347 155.64H74.5569C72.7343 155.64 71.2568 157.117 71.2568 158.94V160.2C71.2568 162.022 72.7343 163.5 74.5569 163.5H123.347C125.169 163.5 126.647 162.022 126.647 160.2V158.94C126.647 157.117 125.169 155.64 123.347 155.64Z" fill="#C8CAD1"/>
<path d="M115.896 97C115.896 97 119.786 113.03 98.9562 113.03C78.1262 113.03 82.0162 97 82.0162 97H115.896Z" fill="#C8CAD1"/>
<path d="M115.897 97H113.167C113.387 101.36 112.037 110.91 95.957 110.91C91.167 110.91 87.687 110.05 85.167 108.75C87.657 111.19 91.877 113.04 98.947 113.04C119.777 113.04 115.887 97.01 115.887 97.01L115.897 97Z" fill="#B1B4BB"/>
<path d="M49.8466 75.8301C40.5166 70.8301 32.3466 63.7701 25.8866 55.3201C19.3866 46.8901 14.5866 37.1201 11.2266 26.8801C10.1166 23.4801 9.1866 20.0201 8.3866 16.5201C10.3566 18.7501 12.6166 20.7401 15.1266 22.3701C19.6866 25.3501 24.8766 27.1301 30.0966 27.9401C32.7066 28.3501 35.3366 28.5201 37.9566 28.5001C39.2666 28.4901 40.5766 28.4201 41.8866 28.3101C42.5366 28.2501 43.1966 28.1801 43.8566 28.0901C44.5366 28.0001 45.1266 27.9101 45.9266 27.7501L44.5066 21.1701C44.1066 21.2501 43.4966 21.3501 42.9666 21.4201C42.4166 21.4901 41.8566 21.5501 41.2966 21.6001C40.1766 21.7001 39.0366 21.7601 37.9066 21.7601C35.6366 21.7801 33.3666 21.6301 31.1566 21.2801C26.7166 20.5901 22.4766 19.1101 18.8366 16.7301C15.1966 14.3601 12.1966 11.0901 10.0066 7.25011C10.0066 7.25011 10.0066 7.2401 9.99661 7.2301C9.33661 6.0901 8.15659 5.36011 6.84659 5.36011H3.6066C1.4266 5.36011 -0.273407 7.2901 0.0365925 9.4501C0.176593 10.4201 0.326605 11.3901 0.486605 12.3601C1.4466 17.9901 2.7666 23.5701 4.4866 29.0501C7.9366 39.9701 12.9566 50.5401 19.9566 59.8401C26.9066 69.1501 35.8666 77.0801 46.1066 82.7101C56.3266 88.3901 67.6466 91.8001 79.0466 93.4601L80.1766 85.3401C69.5566 83.9101 59.1866 80.8901 49.8666 75.8401L49.8466 75.8301Z" fill="#B1B4BB"/>
<path d="M148.057 75.8301C157.387 70.8301 165.557 63.7701 172.017 55.3201C178.517 46.8901 183.317 37.1201 186.677 26.8801C187.787 23.4801 188.717 20.0201 189.517 16.5201C187.547 18.7501 185.287 20.7401 182.777 22.3701C178.217 25.3501 173.027 27.1301 167.807 27.9401C165.197 28.3501 162.567 28.5201 159.947 28.5001C158.637 28.4901 157.327 28.4201 156.017 28.3101C155.367 28.2501 154.707 28.1801 154.047 28.0901C153.367 28.0001 152.777 27.9101 151.977 27.7501L153.397 21.1701C153.797 21.2501 154.407 21.3501 154.937 21.4201C155.487 21.4901 156.047 21.5501 156.607 21.6001C157.727 21.7001 158.867 21.7601 159.997 21.7601C162.267 21.7801 164.537 21.6301 166.747 21.2801C171.187 20.5901 175.427 19.1101 179.067 16.7301C182.707 14.3601 185.707 11.0901 187.897 7.25011C187.897 7.25011 187.897 7.2401 187.907 7.2301C188.567 6.0901 189.747 5.36011 191.057 5.36011H194.297C196.477 5.36011 198.177 7.2901 197.867 9.4501C197.727 10.4201 197.577 11.3901 197.417 12.3601C196.457 17.9901 195.137 23.5701 193.417 29.0501C189.967 39.9701 184.947 50.5401 177.947 59.8401C170.997 69.1501 162.037 77.0801 151.797 82.7101C141.577 88.3901 130.257 91.8001 118.857 93.4601L117.727 85.3401C128.347 83.9101 138.717 80.8901 148.037 75.8401L148.057 75.8301Z" fill="#B1B4BB"/>
<path d="M161.077 6.03003C161.077 6.03003 153.807 101.46 98.9569 101.46C44.1069 101.46 36.8369 6.03003 36.8369 6.03003H161.087H161.077Z" fill="#C8CAD1"/>
<path d="M152.676 6.03003H36.8262C36.8262 6.03003 37.1462 10.22 38.1562 16.83C51.1062 13.32 113.646 10.78 151.056 17.96C148.796 34.91 143.376 67.11 126.286 84.68C95.9362 115.88 66.1162 86.56 66.0862 86.54C71.6562 92.48 78.2762 97.1 86.1062 99.54C87.4562 99.96 88.8462 100.32 90.2762 100.6C90.4862 100.64 90.6962 100.69 90.9062 100.73C91.2862 100.8 91.6661 100.87 92.0461 100.93C92.4861 101 92.9362 101.06 93.3762 101.12C93.7162 101.16 94.0462 101.2 94.3862 101.24C94.9362 101.3 95.4962 101.34 96.0562 101.38C96.2762 101.39 96.4962 101.41 96.7262 101.42C97.4562 101.46 98.1962 101.48 98.9462 101.48C99.6562 101.48 100.356 101.46 101.046 101.43C101.266 101.42 101.486 101.4 101.716 101.39C102.186 101.36 102.656 101.33 103.116 101.29C103.366 101.27 103.616 101.24 103.866 101.21C104.296 101.16 104.716 101.11 105.146 101.05C105.396 101.01 105.646 100.98 105.896 100.94C106.316 100.87 106.736 100.8 107.156 100.72C107.386 100.68 107.616 100.63 107.846 100.59C108.296 100.5 108.746 100.39 109.186 100.29C109.376 100.25 109.556 100.2 109.746 100.16C110.346 100.01 110.936 99.84 111.516 99.67C111.546 99.67 111.566 99.65 111.596 99.65C112.236 99.46 112.856 99.25 113.476 99.02C113.546 98.99 113.616 98.96 113.696 98.94C114.226 98.75 114.746 98.54 115.266 98.33C115.406 98.27 115.546 98.21 115.686 98.15C116.136 97.96 116.586 97.76 117.026 97.55C117.176 97.48 117.316 97.41 117.466 97.34C117.906 97.13 118.336 96.91 118.776 96.68C118.906 96.61 119.036 96.54 119.166 96.47C119.636 96.22 120.096 95.96 120.556 95.69C120.636 95.64 120.726 95.59 120.806 95.55C122.486 94.55 124.096 93.44 125.646 92.23C125.646 92.23 125.666 92.22 125.676 92.21C126.176 91.82 126.656 91.42 127.146 91.02C127.196 90.98 127.246 90.93 127.296 90.89C127.746 90.51 128.186 90.12 128.626 89.72C128.656 89.7 128.686 89.67 128.706 89.65C148.076 71.93 156.146 38.62 159.276 19.85C160.556 12.14 161.016 6.88003 161.066 6.17003C161.066 6.12003 161.066 6.08003 161.066 6.08003H152.666L152.676 6.03003Z" fill="#B1B4BB"/>
<path d="M161.547 10.7101H36.3665C33.7865 10.7101 31.6865 8.62011 31.6865 6.03011C31.6865 3.45011 33.7765 1.3501 36.3665 1.3501H161.547C164.127 1.3501 166.227 3.44011 166.227 6.03011C166.227 8.61011 164.137 10.7101 161.547 10.7101Z" fill="#C8CAD1"/>
<path d="M36.3564 1.34999C44.3464 0.789991 52.3364 0.500003 60.3264 0.300003C68.3164 0.0900031 76.3064 0.03 84.2964 0L96.2865 0.0699921C100.286 0.139992 104.276 0.169993 108.276 0.289993C116.266 0.489993 124.256 0.779996 132.246 1.34C124.256 1.9 116.266 2.19 108.276 2.39C104.276 2.52 100.286 2.54 96.2865 2.61L84.2964 2.67999C76.3064 2.64999 68.3164 2.6 60.3264 2.38C52.3364 2.18 44.3464 1.89 36.3564 1.33V1.34999Z" fill="#F4F4F4"/>
<path d="M133.887 163.49H64.0068V188.38H133.887V163.49Z" fill="#263D66"/>
<path d="M133.897 176.19C106.127 179.35 79.0066 181 64.0166 181.75V188.38H133.897V176.19Z" fill="#22365B"/>
<path d="M121.237 168.11H76.6768V183.75H121.237V168.11Z" fill="#C8CAD1"/>
<path d="M121.227 171.55C121.227 171.55 95.767 178.88 76.667 179.64V183.76H121.227V171.55Z" fill="#B1B4BB"/>
<path d="M113.474 68.618C125.017 60.5982 127.874 44.7393 119.854 33.1962C111.834 21.653 95.9752 18.7967 84.432 26.8164C72.8888 34.8361 70.0325 50.695 78.0523 62.2382C86.072 73.7814 101.931 76.6377 113.474 68.618Z" fill="#C8CAD1"/>
<path d="M79.2174 47.6998C78.6674 45.1098 78.8873 42.3298 79.7573 39.7498C80.5973 37.1498 82.1073 34.7498 84.0473 32.7998C85.9973 30.8498 88.3973 29.3498 90.9973 28.5098C93.5773 27.6498 96.3673 27.4198 98.9473 27.9798C96.3673 28.5498 93.9873 29.3398 91.7973 30.4498C89.6273 31.5798 87.6473 32.9998 85.9473 34.7098C84.2373 36.4098 82.8173 38.3898 81.6873 40.5598C80.5673 42.7498 79.7774 45.1298 79.2174 47.7098V47.6998Z" fill="#C8CAD1"/>
<path d="M110.817 25.2C114.467 29.6 116.667 35.2599 116.667 41.4299C116.667 55.4799 105.277 66.88 91.2167 66.88C86.9267 66.88 82.8967 65.81 79.3467 63.94C84.0167 69.57 91.0667 73.16 98.9467 73.16C112.997 73.16 124.397 61.7699 124.397 47.7099C124.397 37.9399 118.887 29.4699 110.817 25.2099V25.2Z" fill="#C8CAD1"/>
<path d="M98.9468 73.89C84.5068 73.89 72.7568 62.14 72.7568 47.7C72.7568 33.26 84.5068 21.51 98.9468 21.51C113.387 21.51 125.137 33.26 125.137 47.7C125.137 62.14 113.387 73.89 98.9468 73.89ZM98.9468 22.99C85.3268 22.99 74.2368 34.07 74.2368 47.7C74.2368 61.33 85.3168 72.41 98.9468 72.41C112.577 72.41 123.657 61.33 123.657 47.7C123.657 34.07 112.577 22.99 98.9468 22.99Z" fill="#B1B4BB"/>
<path d="M87.5862 63.31V56.61L87.8162 56.4299C88.5862 55.8499 89.5462 55.19 90.5662 54.49C95.1662 51.35 101.456 47.06 101.456 41.95C101.456 38.66 99.9462 38.2 98.8062 38.14C98.7262 38.14 98.6462 38.14 98.5762 38.14C97.6962 38.14 97.0062 38.4099 96.4662 38.9599C95.1962 40.2499 95.2162 42.64 95.2162 42.66V43.2599H87.5762V42.66C87.5762 35.27 91.4562 31.2 98.5062 31.2C105.556 31.2 110.326 35.27 110.326 41.34C110.326 47.87 103.996 53.5799 101.026 55.8999H110.326V63.31H87.5762H87.5862Z" fill="white"/>
<path d="M88.0264 62.5499V56.7399C92.1564 53.5899 101.906 48.4199 101.906 41.7899C101.906 38.7499 100.646 37.4899 98.6964 37.3899C94.3763 37.1599 94.4764 42.5099 94.4764 42.5099H88.0364C88.0364 33.0699 94.2563 31.6399 98.3663 31.6399C105.236 31.6399 109.586 35.6599 109.586 41.1799C109.586 49.3099 99.0663 56.3399 99.0663 56.3399H109.586V62.5499H88.0264Z" fill="white"/>
</svg>
