<svg width="198" height="189" viewBox="0 0 198 189" fill="none" xmlns="http://www.w3.org/2000/svg">
<path d="M113.547 136.04C95.847 121.17 111.487 99.55 111.487 99.55H86.437C86.437 99.55 102.077 121.17 84.377 136.04H113.547Z" fill="#F2AD22"/>
<path d="M113.546 136.03H104.466C97.7963 121.16 103.686 99.54 103.686 99.54H111.496C111.496 99.54 95.8563 121.16 113.546 136.03Z" fill="#E38F0E"/>
<path d="M122.967 155.4C113.427 151.4 116.047 142.77 116.047 142.77H81.8966C81.8966 142.77 84.5166 151.4 74.9766 155.4H122.977H122.967Z" fill="#F2AD22"/>
<path d="M122.966 155.4H111.226C106.356 151.4 107.686 142.77 107.686 142.77H116.036C116.036 142.77 113.416 151.4 122.966 155.4Z" fill="#E38F0E"/>
<path d="M115.027 136.04H82.8967C81.0742 136.04 79.5967 137.518 79.5967 139.34V140.6C79.5967 142.423 81.0742 143.9 82.8967 143.9H115.027C116.849 143.9 118.327 142.423 118.327 140.6V139.34C118.327 137.518 116.849 136.04 115.027 136.04Z" fill="#F7C52F"/>
<path d="M123.366 155.4H74.5764C72.7538 155.4 71.2764 156.877 71.2764 158.7V159.96C71.2764 161.782 72.7538 163.26 74.5764 163.26H123.366C125.189 163.26 126.666 161.782 126.666 159.96V158.7C126.666 156.877 125.189 155.4 123.366 155.4Z" fill="#F7C52F"/>
<path d="M115.907 96.77C115.907 96.77 119.797 112.8 98.9669 112.8C78.1369 112.8 82.0269 96.77 82.0269 96.77H115.907Z" fill="#F7C52F"/>
<path d="M115.907 96.77H113.177C113.397 101.13 112.047 110.68 95.9667 110.68C91.1767 110.68 87.6968 109.82 85.1768 108.52C87.6668 110.96 91.8868 112.81 98.9568 112.81C119.787 112.81 115.897 96.78 115.897 96.78L115.907 96.77Z" fill="#F2AD22"/>
<path d="M49.8566 75.5999C40.5266 70.5999 32.3566 63.5399 25.8966 55.0899C19.3966 46.6599 14.5966 36.8899 11.2366 26.6499C10.1266 23.2499 9.19659 19.7899 8.39659 16.2899C10.3666 18.5199 12.6266 20.5099 15.1366 22.1399C19.6966 25.1199 24.8866 26.8999 30.1066 27.7099C32.7166 28.1199 35.3466 28.2899 37.9666 28.2699C39.2766 28.2599 40.5866 28.1899 41.8966 28.0799C42.5466 28.0199 43.2066 27.9499 43.8666 27.8599C44.5466 27.7699 45.1366 27.6799 45.9366 27.5199L44.5166 20.9399C44.1166 21.0199 43.5066 21.1199 42.9766 21.1899C42.4266 21.2599 41.8666 21.3199 41.3066 21.3699C40.1866 21.4699 39.0466 21.5299 37.9166 21.5299C35.6466 21.5499 33.3766 21.3999 31.1666 21.0499C26.7266 20.3599 22.4866 18.8799 18.8466 16.4999C15.2066 14.1299 12.2066 10.8599 10.0166 7.01988C10.0166 7.01988 10.0166 7.00988 10.0066 6.99988C9.34659 5.85988 8.1666 5.12988 6.84661 5.12988H3.6066C1.4266 5.12988 -0.273407 7.05988 0.0365925 9.21988C0.176593 10.1899 0.326605 11.1599 0.486605 12.1299C1.4466 17.7599 2.7666 23.3399 4.4866 28.8199C7.9366 39.7399 12.9566 50.3099 19.9566 59.6099C26.9066 68.9199 35.8666 76.8499 46.1066 82.4799C56.3266 88.1599 67.6466 91.5699 79.0466 93.2299L80.1766 85.1099C69.5566 83.6799 59.1866 80.6599 49.8666 75.6099L49.8566 75.5999Z" fill="#F2AD22"/>
<path d="M148.077 75.5999C157.407 70.5999 165.577 63.5399 172.037 55.0899C178.537 46.6599 183.337 36.8899 186.697 26.6499C187.807 23.2499 188.737 19.7899 189.537 16.2899C187.567 18.5199 185.307 20.5099 182.797 22.1399C178.237 25.1199 173.047 26.8999 167.827 27.7099C165.217 28.1199 162.587 28.2899 159.967 28.2699C158.657 28.2599 157.347 28.1899 156.037 28.0799C155.387 28.0199 154.727 27.9499 154.067 27.8599C153.387 27.7699 152.797 27.6799 151.997 27.5199L153.417 20.9399C153.817 21.0199 154.427 21.1199 154.957 21.1899C155.507 21.2599 156.067 21.3199 156.627 21.3699C157.747 21.4699 158.887 21.5299 160.017 21.5299C162.287 21.5499 164.557 21.3999 166.767 21.0499C171.207 20.3599 175.447 18.8799 179.087 16.4999C182.727 14.1299 185.727 10.8599 187.917 7.01988C187.917 7.01988 187.917 7.00988 187.927 6.99988C188.587 5.85988 189.767 5.12988 191.077 5.12988H194.317C196.497 5.12988 198.197 7.05988 197.887 9.21988C197.747 10.1899 197.597 11.1599 197.437 12.1299C196.477 17.7599 195.157 23.3399 193.437 28.8199C189.987 39.7399 184.967 50.3099 177.967 59.6099C171.017 68.9199 162.057 76.8499 151.817 82.4799C141.597 88.1599 130.277 91.5699 118.877 93.2299L117.747 85.1099C128.367 83.6799 138.737 80.6599 148.057 75.6099L148.077 75.5999Z" fill="#F2AD22"/>
<path d="M161.087 5.80005C161.087 5.80005 153.817 101.23 98.9667 101.23C44.1167 101.23 36.8467 5.80005 36.8467 5.80005H161.097H161.087Z" fill="#F7C52F"/>
<path d="M152.687 5.80005H36.8369C36.8369 5.80005 37.1569 9.99005 38.1669 16.6001C51.1169 13.0901 113.657 10.55 151.067 17.73C148.807 34.68 143.387 66.88 126.297 84.45C95.9469 115.65 66.1269 86.33 66.0969 86.31C71.6669 92.25 78.2869 96.87 86.1169 99.31C87.4669 99.73 88.8569 100.09 90.2869 100.37C90.4969 100.41 90.7069 100.46 90.9169 100.5C91.2969 100.57 91.6769 100.64 92.0569 100.7C92.4969 100.77 92.9469 100.83 93.3869 100.89C93.7269 100.93 94.0569 100.97 94.3969 101.01C94.9469 101.07 95.5069 101.11 96.0669 101.15C96.2869 101.16 96.5069 101.18 96.7369 101.19C97.4669 101.23 98.2069 101.25 98.9569 101.25C99.6669 101.25 100.367 101.23 101.057 101.2C101.277 101.19 101.497 101.17 101.727 101.16C102.197 101.13 102.667 101.1 103.127 101.06C103.377 101.04 103.627 101.01 103.877 100.98C104.307 100.93 104.727 100.88 105.157 100.82C105.407 100.78 105.657 100.75 105.907 100.71C106.327 100.64 106.747 100.57 107.167 100.49C107.397 100.45 107.627 100.4 107.857 100.36C108.307 100.27 108.757 100.16 109.197 100.06C109.387 100.02 109.567 99.9701 109.757 99.9301C110.357 99.7801 110.947 99.61 111.527 99.44C111.557 99.44 111.577 99.42 111.607 99.42C112.247 99.23 112.867 99.0201 113.487 98.7901C113.557 98.7601 113.627 98.73 113.707 98.7101C114.237 98.5201 114.757 98.3101 115.277 98.1001C115.417 98.0401 115.557 97.98 115.697 97.92C116.147 97.73 116.597 97.5301 117.037 97.3201C117.187 97.2501 117.327 97.18 117.477 97.11C117.917 96.9 118.347 96.68 118.787 96.45C118.917 96.38 119.047 96.3101 119.177 96.2401C119.647 95.9901 120.107 95.73 120.567 95.4601C120.647 95.41 120.737 95.3601 120.817 95.3201C122.497 94.3201 124.107 93.21 125.657 92C125.657 92 125.677 91.99 125.687 91.98C126.187 91.59 126.667 91.1901 127.157 90.7901C127.207 90.7501 127.257 90.7001 127.307 90.66C127.757 90.2801 128.197 89.8901 128.637 89.4901C128.667 89.4701 128.697 89.44 128.717 89.42C148.087 71.7 156.157 38.3901 159.287 19.6201C160.567 11.9101 161.027 6.65005 161.077 5.94005C161.077 5.89005 161.077 5.85005 161.077 5.85005H152.677L152.687 5.80005Z" fill="#F2AD22"/>
<path d="M161.556 10.4801H36.3763C33.7963 10.4801 31.6963 8.39012 31.6963 5.80012C31.6963 3.22012 33.7863 1.12012 36.3763 1.12012H161.556C164.136 1.12012 166.236 3.21012 166.236 5.80012C166.236 8.38012 164.146 10.4801 161.556 10.4801Z" fill="#F7C52F"/>
<path d="M36.377 1.12C44.367 0.690003 52.357 0.39 60.347 0.25C68.337 0.07 76.327 0.02 84.317 0C92.307 0.02 100.297 0.07 108.287 0.25C116.277 0.4 124.267 0.690005 132.257 1.13C124.267 1.57 116.277 1.86 108.287 2.01C100.297 2.19 92.307 2.24 84.317 2.26C76.327 2.24 68.337 2.19 60.347 2.01C52.357 1.86 44.367 1.57 36.377 1.14V1.12Z" fill="#FCEF8B"/>
<path d="M133.906 163.26H64.0264V188.15H133.906V163.26Z" fill="#263D66"/>
<path d="M133.906 175.96C106.136 179.12 79.0164 180.77 64.0264 181.52V188.15H133.906V175.96Z" fill="#22365B"/>
<path d="M121.247 167.88H76.6865V183.52H121.247V167.88Z" fill="#F7C52F"/>
<path d="M121.247 171.32C121.247 171.32 95.7865 178.65 76.6865 179.41V183.53H121.247V171.32Z" fill="#F2AD22"/>
<path d="M98.9666 72.92C113.022 72.92 124.417 61.5257 124.417 47.47C124.417 33.4144 113.022 22.02 98.9666 22.02C84.9109 22.02 73.5166 33.4144 73.5166 47.47C73.5166 61.5257 84.9109 72.92 98.9666 72.92Z" fill="#F7C52F"/>
<path d="M79.2359 47.4701C78.6859 44.8801 78.9059 42.1001 79.7759 39.5201C80.6159 36.9201 82.1259 34.5201 84.0659 32.5701C86.0159 30.6201 88.4159 29.1201 91.0159 28.2801C93.5959 27.4201 96.3859 27.1901 98.9659 27.7501C96.3859 28.3201 94.0059 29.1001 91.8159 30.2201C89.6459 31.3501 87.6659 32.7801 85.9659 34.4801C84.2559 36.1801 82.8359 38.1601 81.7059 40.3301C80.5859 42.5201 79.7959 44.9001 79.2359 47.4801V47.4701Z" fill="#F7C52F"/>
<path d="M110.836 24.96C114.486 29.36 116.686 35.02 116.686 41.19C116.686 55.24 105.296 66.64 91.2362 66.64C86.9462 66.64 82.9162 65.57 79.3662 63.7C84.0362 69.33 91.0862 72.92 98.9662 72.92C113.016 72.92 124.416 61.53 124.416 47.47C124.416 37.7 118.906 29.23 110.836 24.97V24.96Z" fill="#F7C52F"/>
<path d="M98.9663 73.65C84.5263 73.65 72.7764 61.9 72.7764 47.46C72.7764 33.02 84.5263 21.27 98.9663 21.27C113.406 21.27 125.156 33.02 125.156 47.46C125.156 61.9 113.406 73.65 98.9663 73.65ZM98.9663 22.75C85.3463 22.75 74.2563 33.83 74.2563 47.46C74.2563 61.09 85.3363 72.17 98.9663 72.17C112.596 72.17 123.676 61.09 123.676 47.46C123.676 33.83 112.596 22.75 98.9663 22.75Z" fill="#D68400"/>
<path d="M94.4463 64.8499V39.1099L88.7463 41.2199L86.7363 37.3799L96.0363 31.1499H105.116V64.8499H94.4463Z" fill="white"/>
<path d="M94.7763 37.85H94.6663L88.7763 40.03L87.2363 37.29L95.8963 31.47H104.116V63.84H94.7663V37.85H94.7763Z" fill="white"/>
</svg>
