<svg width="17" height="16" viewBox="0 0 17 16" fill="none" xmlns="http://www.w3.org/2000/svg">
<path d="M12.1652 3.96777C12.5137 4.30888 12.5424 4.84457 12.2516 5.21847L12.1643 5.31616L9.48693 7.93539L12.1642 10.5567C12.5444 10.9288 12.544 11.5325 12.1634 11.9051C11.8144 12.2466 11.2671 12.2754 10.8854 11.9912L10.7857 11.906L8.10878 9.28428L5.43144 11.9061C5.05078 12.2787 4.43399 12.279 4.0538 11.9069C3.70529 11.5658 3.67657 11.0301 3.96741 10.6562L4.05465 10.5585L6.73235 7.93707L4.05478 5.31795C3.67459 4.94584 3.67497 4.34215 4.05563 3.96957C4.40457 3.62804 4.95193 3.59926 5.33357 3.88346L5.43327 3.96873L8.1105 6.58818L10.7875 3.96861C11.1682 3.59603 11.785 3.59566 12.1652 3.96777Z" fill="#101522"/>
</svg>
