<svg xmlns:xlink="http://www.w3.org/1999/xlink" xmlns="http://www.w3.org/2000/svg" baseProfile="basic" width="695" height="432" viewBox="0 0 695 432" preserveAspectRatio="xMinYMin meet"><defs><symbol id="a" overflow="visible"><path fill="none" stroke="#19344F" stroke-width="2.5" stroke-linecap="round" stroke-linejoin="round" d="M0 0h192"/></symbol><symbol id="s" overflow="visible"><use xlink:href="#a"/></symbol><symbol id="b" overflow="visible"><path fill="none" stroke="#19344F" stroke-width="2.5" stroke-linecap="round" stroke-linejoin="round" d="M0 0h179.3"/></symbol><symbol id="r" overflow="visible"><use xlink:href="#b"/></symbol><symbol id="c" overflow="visible"><path fill="#FFF" stroke="#19344F" stroke-width="2.5" stroke-linecap="round" stroke-linejoin="round" d="M60.6 28.1l9.5-3.6-12.5-10-24.5 3.3-4.2.7q-4.3 1-5 2.1-.6 1 .4 4.7l1 3.5 35.3-.7"/><path fill="#FFF" d="M74.9 6.4Q67.2.1 57.2.1 46.6 0 39.8 4.7q-7.3 5-9.1 14.4l53.8 3.2q-2-9.6-9.6-15.9"/><path fill="none" stroke="#19344F" stroke-width="2.5" stroke-linecap="round" stroke-linejoin="round" d="M57.2 0q10 0 17.7 6.4 7.6 6.3 9.6 15.9M57.2 0Q46.6 0 39.8 4.7q-7.3 5-9.1 14.4"/><path fill="#FFF" d="M16.2 28.8l27.4-12.1q-4.7-4.3-11.1-4.3-6.8 0-11.5 4.8-4.8 4.8-4.8 11.6"/><path fill="none" stroke="#19344F" stroke-width="2.5" stroke-linecap="round" stroke-linejoin="round" d="M16.2 28.8q0-6.8 4.8-11.6 4.7-4.8 11.5-4.8 6.4 0 11.1 4.3"/><path fill="#FFF" d="M86.9 17.8q-4.7 0-8.6 2.6l-56.4 3.5q-4-3.5-9.3-3.2-5.3.2-9 4.2Q.2 28.8.2 34q0 1.8 1.3 3.1 1.2 1.3 3 1.3h94.8q1.3 0 2.1-1 .9-.8.9-2.1v-2.3q0-6.3-4.5-10.8-4.4-4.5-10.8-4.5"/><path fill="none" stroke="#19344F" stroke-width="2.5" stroke-linecap="round" stroke-linejoin="round" d="M78.3 20.4q3.9-2.6 8.6-2.6 6.4 0 10.8 4.5 4.5 4.5 4.5 10.8v2.3q0 1.3-.9 2.2-.8.9-2.1.9H4.4q-1.8 0-3-1.3Q0 35.9 0 34.1q0-5.3 3.6-9.2 3.6-4 8.9-4.2 5.3-.3 9.3 3.2M74.4 12l2 2.5"/><path fill="#FFF" d="M56.6 4.4l15 5q-3-2.2-6.8-3.6-4-1.4-8.2-1.4"/><path fill="none" stroke="#19344F" stroke-width="2.5" stroke-linecap="round" stroke-linejoin="round" d="M64.8 5.8q3.8 1.4 6.8 3.7m-6.8-3.7q-4-1.4-8.2-1.4"/><path fill="#EBEDF2" d="M17.8 29.4q-5.7-4.4-5.3-8.8-5.3.2-8.9 4.1Q0 28.8 0 34q0 1.8 1.3 3 1.2 1.3 3 1.3h51.4q-27.3-.6-37.9-8.8"/><path fill="none" stroke="#19344F" stroke-width="2.5" stroke-linecap="round" stroke-linejoin="round" d="M78.3 20.4q3.9-2.6 8.6-2.6 6.4 0 10.8 4.5 4.5 4.5 4.5 10.8v2.3q0 1.3-.9 2.2-.8.9-2.1.9H4.4q-1.8 0-3-1.3Q0 35.9 0 34.1q0-5.3 3.6-9.2 3.6-4 8.9-4.2 5.3-.3 9.3 3.2"/></symbol><symbol id="q" overflow="visible"><use xlink:href="#c"/></symbol><symbol id="d" overflow="visible"><path fill="#99C977" d="M-50.7-49.6l-8.4-.1q10.8 24 27.6 34.3.8.5 4-.4 3.2-.8 4-.4.6.4.2 2.8-.3 2.4.2 2.7Q-11.7-4.7.1.1q-3.6-34.2-31.8-45.4-8.8-3.5-19-4.3"/><path fill="none" stroke="#1A344F" stroke-width="2.5" stroke-linecap="round" stroke-linejoin="round" d="M-50.7-49.6l-8.4-.1q10.8 24 27.6 34.3.8.5 4-.4 3.2-.8 4-.4.6.4.2 2.8-.3 2.4.2 2.7Q-11.7-4.7.1.1q-3.6-34.2-31.8-45.4-8.8-3.5-19-4.3"/></symbol><symbol id="e" overflow="visible"><path fill="#89B854" d="M-19-36.8q2 3.4 3.6 7.3 5.2 12.2 4 24.5.3.8 5.9 3L.1 0Q-.4-6.7-3.3-15-8.9-32-20.7-39.4l1.7 2.6"/></symbol><symbol id="f" overflow="visible"><path fill="none" stroke="#1A344F" stroke-width="2.5" stroke-linecap="round" stroke-linejoin="round" d="M-50.7-49.6l-8.4-.1q10.8 24 27.6 34.3.8.5 4-.4 3.2-.8 4-.4.6.4.2 2.8-.3 2.4.2 2.7Q-11.7-4.7.1.1q-3.6-34.2-31.8-45.4-8.8-3.5-19-4.3"/></symbol><symbol id="g" overflow="visible"><path fill="none" stroke="#1A344F" stroke-width="2.5" stroke-linecap="round" stroke-linejoin="round" d="M-36.9-35.6q6.2 3.8 11.9 8Q-6.8-14-.1-1.2m-36.8-34.4l-5-3"/></symbol><symbol id="p" overflow="visible"><use xlink:href="#d"/><use xlink:href="#e"/><use xlink:href="#f"/><use xlink:href="#g"/></symbol><symbol id="h" overflow="visible"><path fill="#99C977" d="M46.1-27.7q-1.5-.4-4.6 1.3-3.2 1.8-4.4 1.7-1.3-.2-3.6-2.6-2.2-2.3-3.4-2.3-12.5.3-20 4.9-2.4 1.5-5.2 4-3.1 2.8-4.1 3.5L0-15.4Q17.3 1.8 51.5-.1q11-.7 22-3.2 8.9-2.1 9.3-3-18.2-16.6-36.7-21.4"/><path fill="none" stroke="#1A344F" stroke-width="2.5" stroke-linecap="round" stroke-linejoin="round" d="M46.1-27.7q-1.5-.4-4.6 1.3-3.2 1.8-4.4 1.7-1.3-.2-3.6-2.6-2.2-2.3-3.4-2.3-12.5.3-20 4.9-2.4 1.5-5.2 4-3.1 2.8-4.1 3.5M46-27.7q18.5 4.8 36.7 21.5-.4.8-9.3 2.9-11 2.5-22 3.2Q17.3 1.8 0-15.4"/></symbol><symbol id="i" overflow="visible"><path fill="none" stroke="#1A344F" stroke-width="2.5" stroke-linecap="round" stroke-linejoin="round" d="M0-13.8l22.4-.5q25 0 38.7 3.1"/></symbol><symbol id="o" overflow="visible"><use xlink:href="#h"/><use xlink:href="#i"/></symbol><symbol id="j" overflow="visible"><path fill="#99C977" stroke="#1A344F" stroke-width="2.5" stroke-linecap="round" stroke-linejoin="round" d="M-6.9 7.5L-14.2.1q-8.3 19.1-6.3 37 1.7 14.7 10 28 1 1.6 5 2.5 4 .8 5 2t.9 5.3q-.1 3.9.9 4.9 5.3 5.3 11.2 9.6 3 2.1 4.9 3.2Q28 61.4 8 27.6 1.7 17.1-7 7.5"/></symbol><symbol id="k" overflow="visible"><path fill="#89B854" d="M-.5 15.2L-13.3.2-15.5 3q-8.4 23.9-2 45.9 3.2 11 8.1 17.2l5.6 1.8Q-7.4 47.2-4.3 29q1-5.6 2.5-10.3l1.3-3.6"/></symbol><symbol id="l" overflow="visible"><path fill="none" stroke="#1A344F" stroke-width="2.5" stroke-linecap="round" stroke-linejoin="round" d="M-6.9 7.5L-14.2.1q-8.3 19.1-6.3 37 1.7 14.7 10 28 1 1.6 5 2.5 4 .8 5 2t.9 5.3q-.1 3.9.9 4.9 5.3 5.3 11.2 9.6 3 2.1 4.9 3.2Q28 61.4 8 27.6 1.7 17.1-7 7.5"/></symbol><symbol id="m" overflow="visible"><path fill="none" stroke="#1A344F" stroke-width="2.5" stroke-linecap="round" stroke-linejoin="round" d="M-13.3.2l6.4 25.4Q1.3 54.9 11 74.2"/></symbol><symbol id="n" overflow="visible"><use xlink:href="#j"/><use xlink:href="#k"/><use xlink:href="#l"/><use xlink:href="#m"/></symbol></defs><g overflow="visible"><path fill="#FFF" d="M697.2 432.5V.1H.1v432.4h697.1"/><path fill="#E3F2F3" d="M154.4 283.8q-62.7 5-62.7 14.1 0 9.3 62.7 15.4 61.8 5.9 155 5.9 14 0 33.2 1.2l31.8 2.2q37 2.3 57.1-1.4l55.8-10.1q32.1-6.6 32.1-11.7 0-9.3-58.9-14.9-57.5-5.4-151.1-5.4-96.6 0-155 4.7"/><path fill="#F7F2C2" stroke="#19344F" stroke-width="2.5" stroke-linecap="round" stroke-linejoin="round" d="M185.7 284l-9.5 7.6h255.3q-1.5-2.5-5.1-6.4-7.3-7.8-18.1-14.4-34.4-21.4-90.4-24-56.1-2.5-104.5 20.9-15.1 7.3-27.7 16.4"/><path fill="none" stroke="#19344F" stroke-width="2.5" stroke-linecap="round" stroke-linejoin="round" d="M155.2 291.6h24M469.9 291.6h12M431.5 291.6h28.8"/><path fill="#CABA9E" fill-opacity=".6" d="M247.3 271q-.4-.2-.5-.6l-.6-4.9q0-.5-.5-.7-.5-.2-1 .2l-3.4 3.4q-.4.4-.8.2l-4.8-.9q-.5-.1-.8.4-.3.3-.2.8l2.3 4.4q.1.4-.1.8l-2.3 4.3q-.3.5 0 .9t.8.3l4.8-.7q.6 0 .8.4l1.4 1.8q.3.4.8.3l2-.3q.5-.2.7-.7l.7-3 .5-.5 4.5-2.1q.5-.2.5-.8 0-.5-.5-.8l-4.3-2.2"/><path fill="#E7A239" d="M251.7 264.6l-5.9 3.9-6.5-2.6 1.9 6.8-4.6 5.5 7.1.3 1.5 2.9h3l1.8-3.6 6.8-1.7-5.5-4.4.4-7.1"/><path fill="none" stroke="#19344F" stroke-width="2.5" stroke-linecap="round" stroke-linejoin="round" d="M250 277.8l-1.8 3.6m1.8-3.6l6.8-1.7-5.5-4.4.4-7.1-5.9 3.9-6.5-2.6 1.9 6.8-4.6 5.5 7.1.3 1.5 2.9"/><path fill="#F7F2C2" d="M237.6 283.4l19.8-1.2q-8-1.4-14.6-.2l-5.2 1.4"/><path fill="none" stroke="#19344F" stroke-width="2.5" stroke-linecap="round" stroke-linejoin="round" d="M242.8 282q6.7-1.2 14.6.2m-14.6-.2l-5.2 1.4M262.6 210.7h41.3M313 216.7h4.5M286 216.7h20.1M411.9 244h43.8M395 238.7h36.5M136.9 244h50.4M167.2 250h31"/><path fill="#E1D7AC" d="M259.8 257q19.8-7.1 38.6-10.4-41-1.6-84.2 21.3-13.5 7-25.6 15.8l-9.4 7.3 35.2.6q5.6-20 45.4-34.5"/><path fill="none" stroke="#19344F" stroke-width="2.5" stroke-linecap="round" stroke-linejoin="round" d="M185.7 284l-9.5 7.6h255.3q-1.5-2.5-5.1-6.4-7.3-7.8-18.1-14.4-34.4-21.4-90.4-24-56.1-2.5-104.5 20.9-15.1 7.3-27.7 16.4"/><path fill="#997D60" d="M379.2 255.4q-3.4-3.4-8.2-3.4-4.9 0-8.3 3.4-3.4 3.4-3.4 8.3 0 5.7 4.8 8.2l13 .3q2.6-1.1 4-3.2 1.6-2.2 1.6-5.3 0-4.8-3.5-8.3"/><path fill="none" stroke="#19344F" stroke-width="2.5" stroke-linecap="round" stroke-linejoin="round" d="M371 252q4.8 0 8.2 3.4 3.5 3.5 3.5 8.3 0 3-1.6 5.3-1.4 2-4 3.2M371 252q-4.9 0-8.3 3.4-3.4 3.4-3.4 8.3 0 5.7 4.8 8.2"/><path fill="#846D53" d="M371 252q-1.2.1-2.7.5-3 .8-4.7 2-5.7 7.8-2.4 13.6 1.6 2.8 4.4 4.1l8.5-1.4q-7.3-2.9-6-11.1.5-2.6 1.7-5.4l1.2-2.3"/><path fill="none" stroke="#19344F" stroke-width="2.5" stroke-linecap="round" stroke-linejoin="round" d="M371 252q4.8 0 8.2 3.4 3.5 3.5 3.5 8.3 0 3-1.6 5.3-1.4 2-4 3.2M371 252q-4.9 0-8.3 3.4-3.4 3.4-3.4 8.3 0 5.7 4.8 8.2"/><path fill="#BE7D22" d="M249.8 277.1h2.6q-3.9-1.5-5.7-5.2-.8-1.8-1-3.4l-5.6-1.7 1.3 6.1-4.5 5.2 7.3.1 1.6 3.7 2.3-.5 1.8-4.3"/><path fill="none" stroke="#19344F" stroke-width="2.5" stroke-linecap="round" stroke-linejoin="round" d="M250 277.8l-1.8 3.6m1.8-3.6l6.8-1.7-5.5-4.4.4-7.1-5.9 3.9-6.5-2.6 1.9 6.8-4.6 5.5 7.1.3 1.5 2.9"/><path fill="#99C977" stroke="#1A344F" stroke-width="2.5" stroke-linecap="round" stroke-linejoin="round" d="M407.7 64.7l-2.8-3-3 5.6q-3.4 7.1-5.4 14.9-6.5 24.8 2.8 46.5l2.4.1q3-.2 5.7-1.9 8.7-5.4 11.6-23.6 2.6-15.5-5.5-30.1-2.6-4.6-5.8-8.5"/><path fill="#89B854" d="M400.4 93.1q-1.4-5.4-1.9-11.7l-.2-5.1q-6.3 14-3.2 34.2 1.6 10 4.4 17.3l15.7-10.7q.6-1 .9-2 .7-2-.3-2.1-11.1-2.5-15.4-19.9"/><path fill="none" stroke="#1A344F" stroke-width="2.5" stroke-linecap="round" stroke-linejoin="round" d="M407.7 64.7l-2.8-3-3 5.6q-3.4 7.1-5.4 14.9-6.5 24.8 2.8 46.5l2.4.1q3-.2 5.7-1.9 8.7-5.4 11.6-23.6 2.6-15.5-5.5-30.1-2.6-4.6-5.8-8.5"/><path fill="#997D60" d="M381.6 149.7l13 .5q2.7-1.1 4.2-3.2 1.5-2.2 1.6-5.3 0-4.8-3.3-8.3-3.4-3.5-8.3-3.6-4.9-.1-8.4 3.3t-3.6 8.3q0 5.6 4.8 8.3"/><path fill="none" stroke="#1A344F" stroke-width="2.5" stroke-linecap="round" stroke-linejoin="round" d="M380.4 133.1q3.5-3.4 8.4-3.3 4.9 0 8.3 3.6 3.4 3.5 3.3 8.3-.1 3.1-1.6 5.3-1.5 2.1-4.1 3.2m-14.3-17.1q-3.5 3.4-3.6 8.3 0 5.6 4.8 8.3"/><path fill="#7E6046" d="M388.8 129.8q-1.2 0-2.7.4-3 .8-4.7 2-6 7.8-2.8 13.6 1.6 2.9 4.4 4.3l8.7-1.4q-7.4-3-5.9-11.3.5-2.6 1.8-5.3l1.2-2.3"/><path fill="#7FA75B" stroke="#1A344F" stroke-width="2.5" stroke-linecap="round" stroke-linejoin="round" d="M415 126.7l-14.4 7.3 2.7 5.2q3.8 6.7 9.3 13.5 17.6 21.8 46.1 37.3-1.1-9.1-7.1-21.6-12.1-24.9-36.5-41.7"/><path fill="#739A43" d="M403.3 133l15.8 20 7.3 1.2q8.6.8 15.4-.8l-6.1-8.6-32.4-11.7"/><path fill="none" stroke="#1A344F" stroke-width="2.5" stroke-linecap="round" stroke-linejoin="round" d="M415 126.7l-14.4 7.3 2.7 5.2q3.8 6.7 9.3 13.5 17.6 21.8 46.1 37.3-1.1-9.1-7.1-21.6-12.1-24.9-36.5-41.7"/><path fill="#BE9A7B" d="M326.2 257.8l19.1 3.7q28.8-56.8 44-96.2 4.8-12.4 7.7-21.5l1.9-6.7q-.6-1.5-1.7-2.7-2.2-2.5-4.8-.9-16.4 29.9-41.4 76.9-23.5 44.1-24.8 47.4"/><path fill="none" stroke="#1A344F" stroke-width="2.5" stroke-linecap="round" stroke-linejoin="round" d="M326.2 257.8q1.3-3.3 24.8-47.4 25-47 41.4-76.9 2.6-1.6 4.8.9 1 1.2 1.7 2.7l-2 6.7q-2.8 9-7.5 21.5-15.3 39.4-44.1 96.2"/><path fill="#977C62" d="M394 134.2l-6.6 8.5-.9 1.6q-1 2.2-1.4 4.9-1.6 8.5 2.4 18.7 2.5-6.5 5.2-14.3 5.5-15.5 6.6-21.3 1-5.4-5.3 1.9M361.2 199.4l21.8-49.3-56.6 107.2 2.8 2.2q3.5 2.3 6.9 2.8 2.7-11.3 25-62.9"/><path fill="none" stroke="#1A344F" stroke-width="2.5" stroke-linecap="round" stroke-linejoin="round" d="M326.2 257.8q1.3-3.3 24.8-47.4 25-47 41.4-76.9 2.6-1.6 4.8.9 1 1.2 1.7 2.7l-2 6.7q-2.8 9-7.5 21.5-15.3 39.4-44.1 96.2"/><path fill="#99C977" d="M336.2 137q-6.7 4.8-11.8 10.9l-3.7 5.1q30 3.9 57.3-8.8 13.7-6.3 21.3-13.5l-11.5-5q-30-4-51.6 11.3"/><path fill="none" stroke="#1A344F" stroke-width="2.5" stroke-linecap="round" stroke-linejoin="round" d="M324.4 147.9q5-6.1 11.8-10.9 21.6-15.2 51.6-11.3m-63.4 22.2l-3.7 5.1q30 3.9 57.3-8.8 13.7-6.3 21.3-13.5"/><path fill="#997D60" d="M393.9 136.2q-3.2.8-5.5 2.5-3 2.1-3.4 5-.8 4.8 2 8.8 2.8 3.9 7.6 4.7 4.9.8 8.8-2 4-2.8 4.8-7.6 1-5.7-3.5-9l-10.8-2.4"/><path fill="none" stroke="#1A344F" stroke-width="2.5" stroke-linecap="round" stroke-linejoin="round" d="M388.4 138.7q2.3-1.7 5.5-2.5m-5.5 2.5q-3 2.1-3.4 5-.8 4.8 2 8.8 2.8 3.9 7.6 4.7 4.9.8 8.8-2 4-2.8 4.8-7.6 1-5.7-3.5-9"/><path fill="#89B854" d="M390.8 127.1q-8.4-1.7-17.6-2.1-21.7 1.1-39.1 14.4-5.5 4.2-9.9 9l-3.3 4.1 9.4 1.3q12.2-17.3 40.9-23 14.4-2.7 26.3-2.1-2.4-.7-6.7-1.6"/><path fill="#689A39" fill-opacity=".7" d="M389.4 127q-11-2.7-16.3-2.1 4.3 1.2 8.4 3.2 8.3 4 7.5 8.2-.9 4.1 4.7-.9 2.8-2.5 5.7-5.8-4.4-1.4-10-2.6"/><path fill="none" stroke="#1A344F" stroke-width="2.5" stroke-linecap="round" stroke-linejoin="round" d="M324.4 147.9q5-6.1 11.8-10.9 21.6-15.2 51.6-11.3m-63.4 22.2l-3.7 5.1q30 3.9 57.3-8.8 13.7-6.3 21.3-13.5"/><path fill="#F7F2C2" d="M353.1 264.6q-15.4-5.1-33.8-6.1h-15.4l49.2 6.1"/><path fill="none" stroke="#19344F" stroke-width="2.5" stroke-linecap="round" stroke-linejoin="round" d="M319.3 258.5q18.4 1 33.8 6.1m-33.8-6.1h-15.4"/><path fill="#F7F2C2" d="M356 272.6l28.8.5q-13.5-1.4-28.7-.5"/><path fill="none" stroke="#19344F" stroke-width="2.5" stroke-linecap="round" stroke-linejoin="round" d="M356 272.6q15.3-1 28.8.5"/><use xlink:href="#n" transform="translate(413.4 131)"><animateTransform attributeName="transform" additive="replace" type="translate" dur="3.292s" keyTimes="0;1" values="0,0;0,0" fill="freeze"/><animateTransform attributeName="transform" additive="sum" type="translate" repeatCount="indefinite" dur="3.292s" keyTimes="0;0.063;0.076;0.089;0.101;0.114;0.127;0.139;0.152;0.165;0.177;0.19;0.203;0.215;0.228;0.24;0.253;0.266;0.278;0.291;0.304;0.316;0.329;0.342;0.354;0.367;0.38;0.392;0.405;0.417;0.418;1" values="399.701,132.3;399.701,132.3;399.707,132.311;399.664,132.323;399.728,132.289;399.734,132.3;399.7,132.317;399.71,132.328;399.727,132.345;399.684,132.308;399.702,132.322;399.712,132.332;399.681,132.298;399.692,132.309;399.717,132.325;399.72,132.236;399.681,132.246;399.709,132.256;399.666,132.272;399.702,132.342;399.66,132.303;399.735,132.305;399.693,132.278;399.685,132.342;399.643,132.303;399.729,132.309;399.686,132.311;399.709,132.284;399.725,132.343;399.703,132.304;0;0" calcMode="discrete"/><animateTransform attributeName="transform" additive="sum" type="translate" repeatCount="indefinite" dur="3.292s" keyTimes="0;0.418;0.43;0.443;0.456;0.468;0.481;0.494;0.506;0.519;0.532;0.544;0.557;0.57;0.582;0.595;0.608;0.62;0.633;0.646;0.658;0.671;0.683;0.696;0.709;0.721;0.734;0.747;0.759;0.771;0.772;1" values="0;399.703,132.304;399.634,132.344;399.691,132.331;399.767,132.225;399.71,132.325;399.653,132.374;399.679,132.309;399.664,132.309;399.649,132.344;399.642,132.342;399.663,132.278;399.692,132.22;399.685,132.362;399.623,132.309;399.666,132.306;399.702,132.336;399.645,132.377;399.716,132.265;399.669,132.306;399.643,132.208;399.682,132.199;399.724,132.285;399.668,132.327;399.657,132.368;399.696,132.306;399.685,132.3;399.672,132.291;399.715,132.332;399.655,132.323;0;0" calcMode="discrete"/><animateTransform attributeName="transform" additive="sum" type="translate" repeatCount="indefinite" dur="3.292s" keyTimes="0;0.772;0.785;0.797;0.81;0.823;0.835;0.848;0.861;0.873;0.886;0.899;0.911;0.924;0.937;0.949;1" values="0;399.655,132.323;399.742,132.309;399.636,132.308;399.679,132.345;399.621,132.391;399.713,132.328;399.702,132.269;399.643,132.26;399.635,132.3;399.679,132.292;399.622,132.332;399.665,132.273;399.658,132.313;399.652,132.304;399.701,132.3;399.701,132.3" calcMode="discrete"/><animateTransform attributeName="transform" additive="sum" type="rotate" repeatCount="indefinite" dur="3.292s" keyTimes="0;0.063;0.076;0.089;0.101;0.114;0.127;0.139;0.152;0.165;0.177;0.19;0.203;0.215;0.228;0.24;0.253;0.266;0.278;0.291;0.304;0.316;0.329;0.342;0.354;0.367;0.38;0.392;0.405;0.417;0.418;1" values="0,0,0;0,0,0;-0.279,0,0;-0.558,0,0;-1.025,0,0;-1.302,0,0;-1.77,0,0;-2.048,0,0;-2.515,0,0;-2.794,0,0;-3.26,0,0;-3.54,0,0;-4.006,0,0;-4.285,0,0;-4.752,0,0;-5.031,0,0;-5.31,0,0;-5.777,0,0;-6.056,0,0;-6.523,0,0;-6.801,0,0;-7.269,0,0;-7.547,0,0;-8.015,0,0;-8.294,0,0;-8.76,0,0;-9.039,0,0;-9.507,0,0;-9.786,0,0;-10.24,0,0;0;0" calcMode="discrete"/><animateTransform attributeName="transform" additive="sum" type="rotate" repeatCount="indefinite" dur="3.292s" keyTimes="0;0.418;0.43;0.443;0.456;0.468;0.481;0.494;0.506;0.519;0.532;0.544;0.557;0.57;0.582;0.595;0.608;0.62;0.633;0.646;0.658;0.671;0.683;0.696;0.709;0.721;0.734;0.747;0.759;0.771;0.772;1" values="0;-10.24,0,0;-9.816,0,0;-9.755,0,0;-9.507,0,0;-9.258,0,0;-9.009,0,0;-8.761,0,0;-8.512,0,0;-8.263,0,0;-8.016,0,0;-7.765,0,0;-7.518,0,0;-7.269,0,0;-7.021,0,0;-6.772,0,0;-6.523,0,0;-6.274,0,0;-6.026,0,0;-5.777,0,0;-5.529,0,0;-5.28,0,0;-5.032,0,0;-4.782,0,0;-4.533,0,0;-4.286,0,0;-4.038,0,0;-3.788,0,0;-3.541,0,0;-3.291,0,0;0;0" calcMode="discrete"/><animateTransform attributeName="transform" additive="sum" type="rotate" repeatCount="indefinite" dur="3.292s" keyTimes="0;0.772;0.785;0.797;0.81;0.823;0.835;0.848;0.861;0.873;0.886;0.899;0.911;0.924;0.937;0.949;1" values="0;-3.291,0,0;-3.042,0,0;-2.794,0,0;-2.546,0,0;-2.297,0,0;-2.049,0,0;-1.8,0,0;-1.551,0,0;-1.302,0,0;-1.055,0,0;-0.806,0,0;-0.558,0,0;-0.309,0,0;-0.061,0,0;0,0,0;0,0,0" calcMode="discrete"/><animateTransform attributeName="transform" additive="sum" type="scale" repeatCount="indefinite" dur="3.292s" keyTimes="0;0.215;0.228;0.417;0.418;1" values="1,1;1,1;0.999,0.999;0.999,0.999;1;1" calcMode="discrete"/><animateTransform attributeName="transform" additive="sum" type="scale" repeatCount="indefinite" dur="3.292s" keyTimes="0;0.418;0.709;0.721;0.771;0.772;1" values="1;0.999,0.999;0.999,0.999;1,1;1,1;1;1" calcMode="discrete"/><animateTransform attributeName="transform" additive="sum" type="translate" repeatCount="indefinite" dur="3.292s" keyTimes="0;0.076;0.089;0.101;0.114;0.127;0.139;0.152;0.165;0.177;0.215;0.228;0.24;0.253;0.266;0.278;0.291;0.304;0.316;0.329;0.342;0.354;0.367;0.38;0.392;0.405;0.417;0.418;1" values="13.649,-1.3;13.649,-1.3;13.699,-1.3;13.649,-1.3;13.599,-1.25;13.649,-1.3;13.649,-1.35;13.649,-1.35;13.699,-1.3;13.649,-1.3;13.649,-1.3;13.649,-1.35;13.649,-1.25;13.649,-1.25;13.599,-1.3;13.649,-1.25;13.699,-1.35;13.699,-1.3;13.599,-1.3;13.699,-1.25;13.699,-1.35;13.699,-1.3;13.649,-1.35;13.599,-1.3;13.649,-1.25;13.649,-1.25;13.599,-1.35;0;0" calcMode="discrete"/><animateTransform attributeName="transform" additive="sum" type="translate" repeatCount="indefinite" dur="3.292s" keyTimes="0;0.418;0.43;0.443;0.456;0.468;0.481;0.494;0.506;0.519;0.532;0.544;0.557;0.57;0.582;0.595;0.608;0.62;0.633;0.646;0.658;0.671;0.683;0.696;0.709;0.721;0.734;0.747;0.759;0.771;0.772;1" values="0;13.599,-1.35;13.649,-1.3;13.599,-1.35;13.599,-1.3;13.649,-1.35;13.699,-1.4;13.649,-1.35;13.699,-1.35;13.649,-1.35;13.699,-1.4;13.649,-1.3;13.649,-1.25;13.649,-1.3;13.699,-1.3;13.749,-1.35;13.649,-1.35;13.649,-1.4;13.599,-1.25;13.599,-1.4;13.699,-1.25;13.699,-1.25;13.649,-1.3;13.649,-1.35;13.649,-1.35;13.599,-1.35;13.649,-1.35;13.649,-1.3;13.649,-1.35;13.649,-1.35;0;0" calcMode="discrete"/><animateTransform attributeName="transform" additive="sum" type="translate" repeatCount="indefinite" dur="3.292s" keyTimes="0;0.772;0.785;0.797;0.81;0.823;0.835;0.848;0.861;0.873;0.886;0.911;0.924;0.937;0.949;1" values="0;13.649,-1.35;13.549,-1.3;13.699,-1.35;13.599,-1.4;13.749,-1.4;13.649,-1.45;13.649,-1.35;13.649,-1.3;13.599,-1.3;13.699,-1.35;13.699,-1.35;13.649,-1.4;13.699,-1.35;13.649,-1.3;13.649,-1.3" calcMode="discrete"/></use><use xlink:href="#o" transform="translate(399 144.8)"><animateTransform attributeName="transform" additive="replace" type="translate" dur="3.292s" keyTimes="0;1" values="0,0;0,0" fill="freeze"/><animateTransform attributeName="transform" additive="sum" type="translate" repeatCount="indefinite" dur="3.292s" keyTimes="0;0.063;0.076;0.089;0.101;0.114;0.127;0.139;0.152;0.165;0.177;0.19;0.203;0.215;0.228;0.24;0.253;0.266;0.278;0.291;0.304;0.316;0.329;0.342;0.354;0.367;0.38;0.392;0.405;0.417;0.418;1" values="399.55,130.001;399.55,130.001;399.584,129.999;399.569,129.998;399.553,129.997;399.538,129.996;399.572,129.996;399.596,129.995;399.527,129.948;399.567,129.997;399.549,129.998;399.584,129.997;399.519,129.95;399.539,129.955;399.58,130.053;399.614,130.005;399.499,130.016;399.476,129.97;399.51,129.969;399.484,129.977;399.474,130.041;399.508,129.985;399.492,129.985;399.472,129.952;399.517,130.051;399.486,130.019;399.515,129.976;399.492,129.976;399.533,129.97;399.514,129.984;0;0" calcMode="discrete"/><animateTransform attributeName="transform" additive="sum" type="translate" repeatCount="indefinite" dur="3.292s" keyTimes="0;0.418;0.43;0.443;0.456;0.468;0.481;0.494;0.506;0.519;0.532;0.544;0.557;0.57;0.582;0.595;0.608;0.62;0.633;0.646;0.658;0.671;0.683;0.696;0.709;0.721;0.734;0.747;0.759;0.771;0.772;1" values="0;399.514,129.984;399.535,130.089;399.542,130.039;399.506,130.032;399.476,130.031;399.533,130.013;399.486,129.969;399.599,130.001;399.564,130.051;399.478,130.001;399.53,129.996;399.489,129.996;399.558,129.985;399.522,130.031;399.49,130.032;399.539,130.031;399.503,130.027;399.512,129.969;399.53,130.02;399.544,130.012;399.551,130.012;399.561,130.012;399.475,130.01;399.636,129.955;399.539,130.008;399.612,130.102;399.518,130.003;399.581,130.002;399.597,130;0;0" calcMode="discrete"/><animateTransform attributeName="transform" additive="sum" type="translate" repeatCount="indefinite" dur="3.292s" keyTimes="0;0.772;0.785;0.797;0.81;0.823;0.835;0.848;0.861;0.873;0.886;0.899;0.911;0.924;0.937;0.949;1" values="0;399.597,130;399.55,129.998;399.617,130.047;399.63,130.046;399.594,129.998;399.548,129.997;399.611,130.044;399.624,129.996;399.538,129.996;399.601,129.998;399.555,130.048;399.619,129.998;399.533,130;399.597,130.001;399.55,130.001;399.55,130.001" calcMode="discrete"/><animateTransform attributeName="transform" additive="sum" type="rotate" repeatCount="indefinite" dur="3.292s" keyTimes="0;0.063;0.076;0.089;0.101;0.114;0.127;0.139;0.152;0.165;0.177;0.19;0.203;0.215;0.228;0.24;0.253;0.266;0.278;0.291;0.304;0.316;0.329;0.342;0.354;0.367;0.38;0.392;0.405;0.417;0.418;1" values="0,0,0;0,0,0;-0.261,0,0;-0.522,0,0;-0.782,0,0;-1.043,0,0;-1.304,0,0;-1.752,0,0;-2.013,0,0;-2.275,0,0;-2.535,0,0;-2.796,0,0;-3.057,0,0;-3.506,0,0;-3.767,0,0;-4.028,0,0;-4.288,0,0;-4.55,0,0;-4.81,0,0;-5.26,0,0;-5.52,0,0;-5.781,0,0;-6.042,0,0;-6.303,0,0;-6.565,0,0;-7.013,0,0;-7.274,0,0;-7.535,0,0;-7.796,0,0;-8.217,0,0;0;0" calcMode="discrete"/><animateTransform attributeName="transform" additive="sum" type="rotate" repeatCount="indefinite" dur="3.292s" keyTimes="0;0.418;0.43;0.443;0.456;0.468;0.481;0.494;0.506;0.519;0.532;0.544;0.557;0.57;0.582;0.595;0.608;0.62;0.633;0.646;0.658;0.671;0.683;0.696;0.709;0.721;0.734;0.747;0.759;0.771;0.772;1" values="0;-8.217,0,0;-8.008,0,0;-7.772,0,0;-7.535,0,0;-7.3,0,0;-7.062,0,0;-7.013,0,0;-6.778,0,0;-6.54,0,0;-6.302,0,0;-6.255,0,0;-6.019,0,0;-5.782,0,0;-5.545,0,0;-5.308,0,0;-5.26,0,0;-5.023,0,0;-4.786,0,0;-4.55,0,0;-4.313,0,0;-4.263,0,0;-4.028,0,0;-3.792,0,0;-3.555,0,0;-3.505,0,0;-3.269,0,0;-3.033,0,0;-2.797,0,0;-2.56,0,0;0;0" calcMode="discrete"/><animateTransform attributeName="transform" additive="sum" type="rotate" repeatCount="indefinite" dur="3.292s" keyTimes="0;0.772;0.785;0.797;0.81;0.823;0.835;0.848;0.861;0.873;0.886;0.899;0.911;0.924;0.937;0.949;1" values="0;-2.56,0,0;-2.511,0,0;-2.275,0,0;-2.038,0,0;-1.801,0,0;-1.751,0,0;-1.516,0,0;-1.28,0,0;-1.043,0,0;-0.807,0,0;-0.757,0,0;-0.522,0,0;-0.285,0,0;-0.049,0,0;0,0,0;0,0,0" calcMode="discrete"/><animateTransform attributeName="transform" additive="sum" type="scale" repeatCount="indefinite" dur="3.292s" keyTimes="0;0.253;0.266;0.405;0.417;0.418;1" values="1,1;1,1;0.999,0.999;0.999,0.999;1,1;1;1" calcMode="discrete"/><animateTransform attributeName="transform" additive="sum" type="scale" repeatCount="indefinite" dur="3.292s" keyTimes="0;0.418;0.43;0.646;0.658;0.771;0.772;1" values="1;1,1;0.999,0.999;0.999,0.999;1,1;1,1;1;1" calcMode="discrete"/><animateTransform attributeName="transform" additive="sum" type="translate" repeatCount="indefinite" dur="3.292s" keyTimes="0;0.063;0.076;0.089;0.101;0.127;0.139;0.152;0.165;0.177;0.19;0.203;0.215;0.228;0.24;0.253;0.266;0.278;0.291;0.304;0.316;0.329;0.342;0.354;0.367;0.38;0.392;0.405;0.417;0.418;1" values="-0.5,14.849;-0.5,14.849;-0.55,14.849;-0.55,14.849;-0.5,14.849;-0.5,14.849;-0.55,14.849;-0.45,14.949;-0.5,14.799;-0.5,14.849;-0.55,14.849;-0.5,14.849;-0.5,14.899;-0.55,14.799;-0.55,14.799;-0.45,14.799;-0.45,14.899;-0.5,14.899;-0.5,14.899;-0.4,14.849;-0.5,14.849;-0.55,14.849;-0.45,14.899;-0.5,14.799;-0.45,14.849;-0.45,14.899;-0.5,14.949;-0.6,14.899;-0.5,14.849;0;0" calcMode="discrete"/><animateTransform attributeName="transform" additive="sum" type="translate" repeatCount="indefinite" dur="3.292s" keyTimes="0;0.418;0.43;0.443;0.456;0.468;0.481;0.494;0.506;0.519;0.532;0.544;0.557;0.57;0.582;0.595;0.608;0.62;0.633;0.646;0.658;0.671;0.683;0.696;0.709;0.721;0.734;0.747;0.759;0.771;0.772;1" values="0;-0.5,14.849;-0.5,14.799;-0.45,14.849;-0.45,14.849;-0.4,14.799;-0.5,14.849;-0.45,14.849;-0.55,14.849;-0.5,14.849;-0.45,14.849;-0.5,14.849;-0.45,14.899;-0.5,14.849;-0.5,14.849;-0.45,14.799;-0.45,14.849;-0.45,14.849;-0.5,14.899;-0.45,14.849;-0.5,14.849;-0.5,14.799;-0.45,14.849;-0.45,14.849;-0.5,14.899;-0.45,14.899;-0.5,14.749;-0.45,14.899;-0.45,14.899;-0.45,14.849;0;0" calcMode="discrete"/><animateTransform attributeName="transform" additive="sum" type="translate" repeatCount="indefinite" dur="3.292s" keyTimes="0;0.772;0.785;0.797;0.81;0.823;0.835;0.848;0.861;0.873;0.886;0.899;0.911;0.924;0.937;1" values="0;-0.45,14.849;-0.5,14.849;-0.5,14.799;-0.5,14.799;-0.45,14.799;-0.5,14.799;-0.55,14.799;-0.5,14.849;-0.5,14.849;-0.45,14.899;-0.45,14.849;-0.55,14.849;-0.45,14.799;-0.5,14.849;-0.5,14.849" calcMode="discrete"/></use><use xlink:href="#p" transform="translate(399.3 130.7)"><animateTransform attributeName="transform" additive="replace" type="translate" dur="3.292s" keyTimes="0;1" values="0,0;0,0" fill="freeze"/><animateTransform attributeName="transform" additive="sum" type="translate" repeatCount="indefinite" dur="3.292s" keyTimes="0;0.063;0.076;0.089;0.101;0.114;0.127;0.139;0.152;0.165;0.177;0.19;0.203;0.215;0.228;0.24;0.253;0.266;0.278;0.291;0.304;0.316;0.329;0.342;0.354;0.367;0.38;0.392;0.405;0.417;0.418;1" values="399.4,130.201;399.4,130.201;399.402,130.202;399.404,130.202;399.406,130.203;399.41,130.204;399.412,130.205;399.414,130.206;399.368,130.205;399.419,130.208;399.419,130.211;399.425,130.21;399.374,130.211;399.379,130.209;399.387,130.164;399.385,130.21;399.391,130.161;399.445,130.172;399.442,130.218;399.449,130.169;399.398,130.165;399.4,130.221;399.402,130.222;399.354,130.167;399.407,130.225;399.416,130.176;399.461,130.227;399.414,130.186;399.409,130.229;399.419,130.18;0;0" calcMode="discrete"/><animateTransform attributeName="transform" additive="sum" type="translate" repeatCount="indefinite" dur="3.292s" keyTimes="0;0.418;0.43;0.443;0.456;0.468;0.481;0.494;0.506;0.519;0.532;0.544;0.557;0.57;0.582;0.595;0.608;0.62;0.633;0.646;0.658;0.671;0.683;0.696;0.709;0.721;0.734;0.747;0.759;0.771;0.772;1" values="0;399.419,130.18;399.409,130.279;399.409,130.279;399.415,130.271;399.363,130.22;399.355,130.269;399.409,130.176;399.401,130.274;399.405,130.224;399.348,130.267;399.353,130.223;399.445,130.228;399.4,130.221;399.392,130.27;399.391,130.264;399.35,130.214;399.388,130.263;399.336,130.262;399.44,130.221;399.388,130.216;399.387,130.215;399.381,130.264;399.436,130.217;399.431,130.263;399.376,130.259;399.427,130.261;399.374,130.308;399.425,130.21;399.421,130.26;0;0" calcMode="discrete"/><animateTransform attributeName="transform" additive="sum" type="translate" repeatCount="indefinite" dur="3.292s" keyTimes="0;0.772;0.785;0.797;0.81;0.823;0.835;0.848;0.861;0.873;0.886;0.899;0.911;0.924;0.937;0.949;1" values="0;399.421,130.26;399.369,130.256;399.419,130.208;399.466,130.257;399.416,130.207;399.462,130.256;399.364,130.254;399.362,130.204;399.459,130.254;399.407,130.254;399.356,130.252;399.404,130.252;399.352,130.201;399.35,130.251;399.4,130.201;399.4,130.201" calcMode="discrete"/><animateTransform attributeName="transform" additive="sum" type="rotate" repeatCount="indefinite" dur="3.292s" keyTimes="0;0.063;0.076;0.089;0.101;0.114;0.127;0.139;0.152;0.165;0.177;0.19;0.203;0.215;0.228;0.24;0.253;0.266;0.278;0.291;0.304;0.316;0.329;0.342;0.354;0.367;0.38;0.392;0.405;0.417;0.418;1" values="0,0,0;0,0,0;0.27,0,0;0.539,0,0;0.81,0,0;1.266,0,0;1.536,0,0;1.806,0,0;2.263,0,0;2.533,0,0;2.802,0,0;3.26,0,0;3.53,0,0;3.8,0,0;4.257,0,0;4.527,0,0;4.796,0,0;5.254,0,0;5.525,0,0;5.795,0,0;6.252,0,0;6.522,0,0;6.792,0,0;7.061,0,0;7.52,0,0;7.789,0,0;8.059,0,0;8.517,0,0;8.787,0,0;9.211,0,0;0;0" calcMode="discrete"/><animateTransform attributeName="transform" additive="sum" type="rotate" repeatCount="indefinite" dur="3.292s" keyTimes="0;0.418;0.43;0.443;0.456;0.468;0.481;0.494;0.506;0.519;0.532;0.544;0.557;0.57;0.582;0.595;0.608;0.62;0.633;0.646;0.658;0.671;0.683;0.696;0.709;0.721;0.734;0.747;0.759;0.771;0.772;1" values="0;9.211,0,0;8.816,0,0;8.761,0,0;8.517,0,0;8.275,0,0;8.031,0,0;7.789,0,0;7.546,0,0;7.304,0,0;7.061,0,0;7.007,0,0;6.765,0,0;6.523,0,0;6.28,0,0;6.036,0,0;5.795,0,0;5.552,0,0;5.309,0,0;5.254,0,0;5.012,0,0;4.769,0,0;4.527,0,0;4.286,0,0;4.041,0,0;3.8,0,0;3.557,0,0;3.502,0,0;3.261,0,0;3.018,0,0;0;0" calcMode="discrete"/><animateTransform attributeName="transform" additive="sum" type="rotate" repeatCount="indefinite" dur="3.292s" keyTimes="0;0.772;0.785;0.797;0.81;0.823;0.835;0.848;0.861;0.873;0.886;0.899;0.911;0.924;0.937;0.949;1" values="0;3.018,0,0;2.775,0,0;2.533,0,0;2.29,0,0;2.048,0,0;1.805,0,0;1.751,0,0;1.509,0,0;1.266,0,0;1.023,0,0;0.781,0,0;0.539,0,0;0.297,0,0;0.054,0,0;0,0,0;0,0,0" calcMode="discrete"/><animateTransform attributeName="transform" additive="sum" type="scale" repeatCount="indefinite" dur="3.292s" keyTimes="0;0.228;0.24;0.405;0.417;0.418;1" values="1,1;1,1;0.999,0.999;0.999,0.999;1,1;1;1" calcMode="discrete"/><animateTransform attributeName="transform" additive="sum" type="scale" repeatCount="indefinite" dur="3.292s" keyTimes="0;0.418;0.43;0.683;0.696;0.771;0.772;1" values="1;1,1;0.999,0.999;0.999,0.999;1,1;1,1;1;1" calcMode="discrete"/><animateTransform attributeName="transform" additive="sum" type="translate" repeatCount="indefinite" dur="3.292s" keyTimes="0;0.139;0.152;0.165;0.177;0.19;0.203;0.215;0.228;0.24;0.253;0.266;0.278;0.291;0.304;0.316;0.329;0.342;0.354;0.367;0.38;0.392;0.405;0.417;0.418;1" values="-0.15,0.449;-0.15,0.449;-0.1,0.449;-0.15,0.449;-0.2,0.399;-0.15,0.449;-0.15,0.399;-0.1,0.449;-0.15,0.499;-0.1,0.449;-0.1,0.499;-0.2,0.499;-0.15,0.449;-0.15,0.499;-0.1,0.449;-0.15,0.449;-0.15,0.449;-0.1,0.449;-0.15,0.449;-0.15,0.499;-0.15,0.449;-0.2,0.449;-0.15,0.399;-0.15,0.449;0;0" calcMode="discrete"/><animateTransform attributeName="transform" additive="sum" type="translate" repeatCount="indefinite" dur="3.292s" keyTimes="0;0.418;0.43;0.443;0.456;0.468;0.481;0.494;0.506;0.519;0.532;0.544;0.557;0.57;0.582;0.595;0.608;0.62;0.633;0.646;0.658;0.671;0.683;0.696;0.709;0.721;0.734;0.747;0.759;0.771;0.772;1" values="0;-0.15,0.449;-0.15,0.399;-0.15,0.399;-0.1,0.449;-0.1,0.449;-0.1,0.399;-0.15,0.449;-0.15,0.399;-0.15,0.449;-0.1,0.399;-0.15,0.449;-0.2,0.399;-0.15,0.449;-0.15,0.399;-0.1,0.399;-0.1,0.499;-0.1,0.399;-0.1,0.399;-0.2,0.449;-0.15,0.449;-0.15,0.449;-0.15,0.399;-0.2,0.499;-0.15,0.449;-0.1,0.399;-0.15,0.449;-0.1,0.399;-0.15,0.449;-0.15,0.399;0;0" calcMode="discrete"/><animateTransform attributeName="transform" additive="sum" type="translate" repeatCount="indefinite" dur="3.292s" keyTimes="0;0.772;0.785;0.797;0.81;0.823;0.835;0.848;0.861;0.873;0.886;0.899;0.911;0.924;0.937;0.949;1" values="0;-0.15,0.399;-0.1,0.399;-0.15,0.449;-0.15,0.399;-0.15,0.449;-0.15,0.399;-0.1,0.449;-0.1,0.449;-0.15,0.399;-0.15,0.399;-0.1,0.449;-0.1,0.399;-0.1,0.449;-0.1,0.449;-0.15,0.449;-0.15,0.449" calcMode="discrete"/></use><use xlink:href="#q" transform="translate(187.2 143.8)"><animateTransform attributeName="transform" additive="replace" type="translate" dur="3.292s" keyTimes="0;1" values="0,0;0,0" fill="freeze"/><animateTransform attributeName="transform" additive="sum" type="translate" repeatCount="indefinite" dur="3.292s" keyTimes="0;0.013;0.025;0.038;0.051;0.063;0.076;0.089;0.101;0.114;0.127;0.139;0.152;0.165;0.177;0.19;0.203;0.215;0.228;0.24;0.253;0.266;0.278;0.291;0.304;0.316;0.329;0.342;0.354;0.366;0.367;1" values="187.2,143.75;187.7,143.75;188.15,143.75;188.65,143.75;189.15,143.75;189.65,143.75;190.1,143.75;190.6,143.75;191.1,143.75;191.6,143.75;192.05,143.75;192.55,143.75;193.05,143.75;193.55,143.75;194,143.75;194.5,143.75;195,143.75;195.5,143.75;195.95,143.75;196.45,143.75;196.95,143.75;197.45,143.75;197.9,143.75;198.4,143.75;198.9,143.75;199.4,143.75;199.85,143.75;200.35,143.75;200.85,143.75;201.35,143.75;0;0" calcMode="discrete"/><animateTransform attributeName="transform" additive="sum" type="translate" repeatCount="indefinite" dur="3.292s" keyTimes="0;0.367;0.38;0.392;0.405;0.418;0.43;0.443;0.456;0.468;0.481;0.494;0.506;0.519;0.532;0.544;0.557;0.57;0.582;0.595;0.608;0.62;0.633;0.646;0.658;0.671;0.683;0.696;0.709;0.72;0.721;1" values="0;201.35,143.75;201.8,143.75;202.3,143.75;202.8,143.75;203.3,143.75;203.75,143.75;204.25,143.75;204.75,143.75;205.25,143.75;205.7,143.75;206.2,143.75;205.75,143.75;205.25,143.75;204.8,143.75;204.3,143.75;203.85,143.75;203.35,143.75;202.9,143.75;202.4,143.75;201.9,143.75;201.45,143.75;201,143.75;200.5,143.75;200.05,143.75;199.55,143.75;199.1,143.75;198.6,143.75;198.15,143.75;197.65,143.75;0;0" calcMode="discrete"/><animateTransform attributeName="transform" additive="sum" type="translate" repeatCount="indefinite" dur="3.292s" keyTimes="0;0.721;0.734;0.747;0.759;0.772;0.785;0.797;0.81;0.823;0.835;0.848;0.861;0.873;0.886;0.899;0.911;0.924;0.937;0.949;0.962;0.975;0.987;0.999;1" values="0;197.65,143.75;197.2,143.75;196.7,143.75;196.25,143.75;195.75,143.75;195.3,143.75;194.8,143.75;194.35,143.75;193.85,143.75;193.4,143.75;192.9,143.75;192.4,143.75;191.95,143.75;191.5,143.75;191,143.75;190.55,143.75;190.05,143.75;189.6,143.75;189.1,143.75;188.65,143.75;188.15,143.75;187.7,143.75;187.2,143.75;187.2,143.75" calcMode="discrete"/></use><use xlink:href="#r" transform="translate(176.1 306)"><animateTransform attributeName="transform" additive="replace" type="translate" dur="3.292s" keyTimes="0;1" values="0,0;0,0" fill="freeze"/><animateTransform attributeName="transform" additive="sum" type="translate" repeatCount="indefinite" dur="3.292s" keyTimes="0;0.013;0.025;0.038;0.051;0.063;0.076;0.089;0.101;0.114;0.127;0.139;0.152;0.165;0.177;0.19;0.203;0.215;0.228;0.24;0.253;0.266;0.278;0.291;0.304;0.316;0.329;0.342;0.354;0.366;0.367;1" values="176.1,305.95;179.8,305.95;183.4,305.95;186.9,305.95;190.3,305.95;193.6,305.95;196.85,305.95;199.95,305.95;203,305.95;205.9,305.95;208.75,305.95;211.45,305.95;214.1,305.95;216.65,305.95;219.1,305.95;221.45,305.95;223.7,305.95;225.85,305.95;227.95,305.95;229.9,305.95;231.75,305.95;233.55,305.95;235.25,305.95;236.8,305.95;238.3,305.95;239.7,305.95;241,305.95;242.2,305.95;243.3,305.95;244.3,305.95;0;0" calcMode="discrete"/><animateTransform attributeName="transform" additive="sum" type="translate" repeatCount="indefinite" dur="3.292s" keyTimes="0;0.367;0.38;0.392;0.405;0.418;0.43;0.443;0.456;0.468;0.481;0.494;0.506;0.519;0.532;0.544;0.557;0.57;0.582;0.595;0.608;0.62;0.633;0.646;0.658;0.671;0.683;0.696;0.709;0.72;0.721;1" values="0;244.3,305.95;245.2,305.95;246.05,305.95;246.75,305.95;247.35,305.95;247.9,305.95;248.35,305.95;248.65,305.95;248.9,305.95;249.05,305.95;249.1,305.95;245.5,305.95;242,305.95;238.55,305.95;235.25,305.95;232,305.95;228.85,305.95;225.8,305.95;222.8,305.95;219.95,305.95;217.15,305.95;214.45,305.95;211.85,305.95;209.35,305.95;206.95,305.95;204.6,305.95;202.4,305.95;200.25,305.95;198.2,305.95;0;0" calcMode="discrete"/><animateTransform attributeName="transform" additive="sum" type="translate" repeatCount="indefinite" dur="3.292s" keyTimes="0;0.721;0.734;0.747;0.759;0.772;0.785;0.797;0.81;0.823;0.835;0.848;0.861;0.873;0.886;0.899;0.911;0.924;0.937;0.949;0.962;0.975;0.987;0.999;1" values="0;198.2,305.95;196.2,305.95;194.35,305.95;192.55,305.95;190.9,305.95;189.3,305.95;187.8,305.95;186.35,305.95;185.05,305.95;183.8,305.95;182.65,305.95;181.6,305.95;180.65,305.95;179.8,305.95;179,305.95;178.35,305.95;177.75,305.95;177.25,305.95;176.85,305.95;176.5,305.95;176.3,305.95;176.15,305.95;176.1,305.95;176.1,305.95" calcMode="discrete"/></use><use xlink:href="#s" transform="translate(217 299.3)"><animateTransform attributeName="transform" additive="replace" type="translate" dur="3.292s" keyTimes="0;1" values="0,0;0,0" fill="freeze"/><animateTransform attributeName="transform" additive="sum" type="translate" repeatCount="indefinite" dur="3.292s" keyTimes="0;0.013;0.025;0.038;0.051;0.063;0.076;0.089;0.101;0.114;0.127;0.139;0.152;0.165;0.177;0.19;0.203;0.215;0.228;0.24;0.253;0.266;0.278;0.291;0.304;0.316;0.329;0.342;0.354;0.366;0.367;1" values="217,299.3;214.65,299.3;212.4,299.3;210.2,299.3;208.05,299.3;205.95,299.3;203.95,299.3;201.95,299.3;200.05,299.3;198.2,299.3;196.45,299.3;194.7,299.3;193.05,299.3;191.45,299.3;189.9,299.3;188.4,299.3;187,299.3;185.65,299.3;184.35,299.3;183.1,299.3;181.9,299.3;180.8,299.3;179.75,299.3;178.75,299.3;177.8,299.3;176.95,299.3;176.1,299.3;175.35,299.3;174.65,299.3;174,299.3;0;0" calcMode="discrete"/><animateTransform attributeName="transform" additive="sum" type="translate" repeatCount="indefinite" dur="3.292s" keyTimes="0;0.367;0.38;0.392;0.405;0.418;0.43;0.443;0.456;0.468;0.481;0.494;0.506;0.519;0.532;0.544;0.557;0.57;0.582;0.595;0.608;0.62;0.633;0.646;0.658;0.671;0.683;0.696;0.709;0.72;0.721;1" values="0;174,299.3;173.45,299.3;172.95,299.3;172.5,299.3;172.1,299.3;171.75,299.3;171.5,299.3;171.25,299.3;171.1,299.3;171.05,299.3;171,299.3;173.25,299.3;175.5,299.3;177.65,299.3;179.75,299.3;181.8,299.3;183.75,299.3;185.7,299.3;187.55,299.3;189.35,299.3;191.15,299.3;192.8,299.3;194.45,299.3;196.05,299.3;197.55,299.3;199.05,299.3;200.45,299.3;201.8,299.3;203.1,299.3;0;0" calcMode="discrete"/><animateTransform attributeName="transform" additive="sum" type="translate" repeatCount="indefinite" dur="3.292s" keyTimes="0;0.721;0.734;0.747;0.759;0.772;0.785;0.797;0.81;0.823;0.835;0.848;0.861;0.873;0.886;0.899;0.911;0.924;0.937;0.949;0.962;0.975;0.987;0.999;1" values="0;203.1,299.3;204.3,299.3;205.5,299.3;206.6,299.3;207.7,299.3;208.7,299.3;209.65,299.3;210.55,299.3;211.35,299.3;212.15,299.3;212.85,299.3;213.5,299.3;214.15,299.3;214.65,299.3;215.15,299.3;215.6,299.3;215.95,299.3;216.3,299.3;216.55,299.3;216.75,299.3;216.9,299.3;216.95,299.3;217,299.3;217,299.3" calcMode="discrete"/></use></g></svg>