<?xml version="1.0" encoding="utf-8"?><svg id="loading-candle" image-rendering="optimizeQuality" baseProfile="basic" version="1.1" x="0px" y="0px" width="56" height="83" xmlns="http://www.w3.org/2000/svg" xmlns:xlink="http://www.w3.org/1999/xlink"><g id="Scene-1" overflow="visible"><path fill="#231F20" stroke="none" d="M26.15 13.85L26.05 13.85 26.05 13.9 26 13.9 26 13.95 25.95 13.95 25.95 14 25.85 14 25.85 14.05 25.8 14.05 25.8 14.1 25.7 14.1 25.7 14.15 25.65 14.15 25.65 14.2 25.6 14.2 25.6 14.25 25.5 14.25 25.5 14.3 25.45 14.3 25.45 14.35 25.4 14.35 25.4 14.4 25.3 14.4 25.3 14.45 25.25 14.45 25.25 14.5 25.2 14.5 25.2 14.55 25.1 14.55 25.1 14.6 25.05 14.6 25.05 14.65 24.95 14.65 24.95 14.7 24.9 14.7 24.9 14.75 24.85 14.75 24.85 14.8 24.75 14.8 24.75 14.85 24.7 14.85 24.7 14.9 24.65 14.9 24.65 14.95 24.55 14.95 24.55 15 24.5 15 24.5 15.05 24.45 15.05 24.45 15.1 24.35 15.1 24.35 15.15 24.3 15.15 24.3 15.2 24.2 15.2 24.2 15.25 24.15 15.25 24.15 15.3 24.1 15.3 24.1 15.35 24 15.35 24 15.4 23.95 15.4 23.95 15.45 23.9 15.45 23.9 15.5 23.8 15.5 23.8 15.55 23.75 15.55 23.75 15.6 23.65 15.6 23.65 15.65 23.6 15.65 23.6 15.7 23.55 15.7 23.55 15.75 23.45 15.75 23.45 15.8 23.4 15.8 23.4 15.85 23.35 15.85 23.35 15.9 23.25 15.9 23.25 15.95 23.2 15.95 23.2 16 23.15 16 23.15 16.05 23.05 16.05 23.05 16.1 23 16.1 23 16.15 22.9 16.15 22.9 16.2 22.85 16.2 22.85 16.25 22.8 16.25 22.8 16.3 22.7 16.3 22.7 16.35 22.65 16.35 22.65 16.4 22.6 16.4 22.6 16.45 22.5 16.45 22.5 16.5 22.45 16.5 22.45 19.8 21.35 19.8 21.35 19.85 21.25 19.85 21.25 19.9 21.2 19.9 21.2 19.95 21.1 19.95 21.1 20 21.05 20 21.05 20.05 21 20.05 21 20.1 20.9 20.1 20.9 20.15 20.85 20.15 20.85 20.2 20.8 20.2 20.8 20.25 20.7 20.25 20.7 20.3 20.65 20.3 20.65 20.35 20.6 20.35 20.6 20.4 20.5 20.4 20.5 20.45 20.45 20.45 20.45 20.5 20.35 20.5 20.35 20.55 20.3 20.55 20.3 20.6 20.25 20.6 20.25 20.65 20.15 20.65 20.15 20.7 20.1 20.7 20.1 20.75 20.05 20.75 20.05 20.8 19.95 20.8 19.95 20.85 19.9 20.85 19.9 20.9 19.85 20.9 19.85 20.95 19.75 20.95 19.75 21 19.7 21 19.7 21.05 19.65 21.05 19.65 21.1 19.55 21.1 19.55 21.15 19.5 21.15 19.5 21.2 19.4 21.2 19.4 21.25 19.35 21.25 19.35 21.3 19.3 21.3 19.3 21.35 19.2 21.35 19.2 21.4 19.15 21.4 19.15 21.45 19.1 21.45 19.1 21.5 19 21.5 19 21.55 18.95 21.55 18.95 21.6 18.85 21.6 18.85 21.65 18.8 21.65 18.8 21.7 18.75 21.7 18.75 21.75 18.65 21.75 18.65 21.8 18.6 21.8 18.6 21.85 18.55 21.85 18.55 21.9 18.45 21.9 18.45 21.95 18.4 21.95 18.4 22 18.3 22 18.3 22.05 18.25 22.05 18.25 22.1 18.2 22.1 18.2 22.15 18.1 22.15 18.1 22.2 18.05 22.2 18.05 22.25 18 22.25 18 22.3 17.9 22.3 17.9 22.35 17.85 22.35 17.85 22.4 17.8 22.4 17.8 22.45 17.7 22.45 17.7 22.5 17.65 22.5 17.65 22.55 17.55 22.55 17.55 22.6 17.5 22.6 17.5 22.65 17.45 22.65 17.45 22.7 17.35 22.7 17.35 58.4 22.45 58.4 22.45 67.8 32.25 67.8 32.25 67.75 32.3 67.75 32.3 67.7 32.35 67.7 32.35 67.65 32.45 67.65 32.45 67.6 32.5 67.6 32.5 67.55 32.55 67.55 32.55 67.5 32.65 67.5 32.65 67.45 32.7 67.45 32.7 67.4 32.8 67.4 32.8 67.35 32.85 67.35 32.85 67.3 32.9 67.3 32.9 67.25 33 67.25 33 67.2 33.05 67.2 33.05 67.15 33.1 67.15 33.1 67.1 33.2 67.1 33.2 67.05 33.25 67.05 33.25 67 33.3 67 33.3 66.95 33.4 66.95 33.4 66.9 33.45 66.9 33.45 66.85 33.55 66.85 33.55 66.8 33.6 66.8 33.6 66.75 33.65 66.75 33.65 66.7 33.75 66.7 33.75 66.65 33.8 66.65 33.8 66.6 33.85 66.6 33.85 66.55 33.95 66.55 33.95 66.5 34 66.5 34 66.45 34.05 66.45 34.05 66.4 34.15 66.4 34.15 66.35 34.2 66.35 34.2 66.3 34.3 66.3 34.3 66.25 34.35 66.25 34.35 66.2 34.4 66.2 34.4 66.15 34.5 66.15 34.5 66.1 34.55 66.1 34.55 66.05 34.6 66.05 34.6 66 34.7 66 34.7 65.95 34.75 65.95 34.75 65.9 34.85 65.9 34.85 65.85 34.9 65.85 34.9 65.8 34.95 65.8 34.95 65.75 35.05 65.75 35.05 65.7 35.1 65.7 35.1 65.65 35.15 65.65 35.15 65.6 35.25 65.6 35.25 65.55 35.3 65.55 35.3 65.5 35.35 65.5 35.35 65.45 35.45 65.45 35.45 65.4 35.5 65.4 35.5 65.35 35.6 65.35 35.6 65.3 35.65 65.3 35.65 65.25 35.7 65.25 35.7 65.2 35.8 65.2 35.8 65.15 35.85 65.15 35.85 65.1 35.9 65.1 35.9 65.05 36 65.05 36 65 36.05 65 36.05 64.95 36.1 64.95 36.1 64.9 36.15 64.9 36.15 58.4 37.3 58.4 37.3 58.35 37.4 58.35 37.4 58.3 37.45 58.3 37.45 58.25 37.5 58.25 37.5 58.2 37.6 58.2 37.6 58.15 37.65 58.15 37.65 58.1 37.7 58.1 37.7 58.05 37.8 58.05 37.8 58 37.85 58 37.85 57.95 37.9 57.95 37.9 57.9 38 57.9 38 57.85 38.05 57.85 38.05 57.8 38.1 57.8 38.1 57.75 38.2 57.75 38.2 57.7 38.25 57.7 38.25 57.65 38.35 57.65 38.35 57.6 38.4 57.6 38.4 57.55 38.45 57.55 38.45 57.5 38.55 57.5 38.55 57.45 38.6 57.45 38.6 57.4 38.65 57.4 38.65 57.35 38.75 57.35 38.75 57.3 38.8 57.3 38.8 57.25 38.9 57.25 38.9 57.2 38.95 57.2 38.95 57.15 39 57.15 39 57.1 39.1 57.1 39.1 57.05 39.15 57.05 39.15 57 39.2 57 39.2 56.95 39.3 56.95 39.3 56.9 39.35 56.9 39.35 56.85 39.45 56.85 39.45 56.8 39.5 56.8 39.5 56.75 39.55 56.75 39.55 56.7 39.65 56.7 39.65 56.65 39.7 56.65 39.7 56.6 39.75 56.6 39.75 56.55 39.85 56.55 39.85 56.5 39.9 56.5 39.9 56.45 40 56.45 40 56.4 40.05 56.4 40.05 56.35 40.1 56.35 40.1 56.3 40.2 56.3 40.2 56.25 40.25 56.25 40.25 56.2 40.3 56.2 40.3 56.15 40.4 56.15 40.4 56.1 40.45 56.1 40.45 56.05 40.5 56.05 40.5 56 40.6 56 40.6 55.95 40.65 55.95 40.65 55.9 40.75 55.9 40.75 55.85 40.8 55.85 40.8 55.8 40.85 55.8 40.85 55.75 40.95 55.75 40.95 55.7 41 55.7 41 55.65 41.05 55.65 41.05 55.6 41.15 55.6 41.15 55.55 41.2 55.55 41.2 55.5 41.25 55.5 41.3 19.8 36.15 19.8 36.15 13.6 26.4 13.6 26.4 13.65 26.35 13.65 26.35 13.7 26.25 13.7 26.25 13.75 26.2 13.75 26.2 13.8 26.15 13.8 26.15 13.85Z"/><path fill="#231F20" stroke="none" d="M21.75 17L21.7 17 21.7 17.05 21.6 17.05 21.6 17.1 21.55 17.1 21.55 17.15 21.5 17.15 21.5 17.2 21.4 17.2 21.4 17.25 21.35 17.25 21.35 17.3 21.3 17.3 21.3 17.35 21.2 17.35 21.2 17.4 21.15 17.4 21.15 17.45 21.1 17.45 21.1 17.5 21 17.5 21 17.55 20.95 17.55 20.95 17.6 20.85 17.6 20.85 17.65 20.8 17.65 20.8 17.7 20.75 17.7 20.75 17.75 20.65 17.75 20.65 17.8 20.6 17.8 20.6 17.85 20.55 17.85 20.55 17.9 20.45 17.9 20.45 17.95 20.4 17.95 20.4 18 20.35 18 20.35 18.05 20.25 18.05 20.25 18.1 20.2 18.1 20.2 18.15 20.1 18.15 20.1 18.2 20.05 18.2 20.05 18.25 20 18.25 20 18.3 19.9 18.3 19.9 18.35 19.85 18.35 19.85 18.4 19.8 18.4 19.8 18.45 19.7 18.45 19.7 18.5 19.65 18.5 19.65 18.55 19.55 18.55 19.55 18.6 19.5 18.6 19.5 18.65 19.45 18.65 19.45 18.7 19.35 18.7 19.35 18.75 19.3 18.75 19.3 18.8 19.25 18.8 19.25 18.85 19.15 18.85 19.15 18.9 19.1 18.9 19.1 18.95 19.05 18.95 19.05 19 18.95 19 18.95 19.05 18.9 19.05 18.9 19.1 18.8 19.1 18.8 19.15 18.75 19.15 18.75 19.2 18.7 19.2 18.7 19.25 18.6 19.25 18.6 22.6 17.45 22.6 17.45 22.65 17.35 22.65 17.35 22.7 17.3 22.7 17.3 22.75 17.25 22.75 17.25 22.8 17.15 22.8 17.15 22.85 17.1 22.85 17.1 22.9 17.05 22.9 17.05 22.95 16.95 22.95 16.95 23 16.9 23 16.9 23.05 16.8 23.05 16.8 23.1 16.75 23.1 16.75 23.15 16.7 23.15 16.7 23.2 16.6 23.2 16.6 23.25 16.55 23.25 16.55 23.3 16.5 23.3 16.5 23.35 16.4 23.35 16.4 23.4 16.35 23.4 16.35 23.45 16.3 23.45 16.3 23.5 16.2 23.5 16.2 23.55 16.15 23.55 16.15 23.6 16.05 23.6 16.05 23.65 16 23.65 16 23.7 15.95 23.7 15.95 23.75 15.85 23.75 15.85 23.8 15.8 23.8 15.8 23.85 15.75 23.85 15.75 23.9 15.65 23.9 15.65 23.95 15.6 23.95 15.6 24 15.5 24 15.5 24.05 15.45 24.05 15.45 24.1 15.4 24.1 15.4 24.15 15.3 24.15 15.3 24.2 15.25 24.2 15.25 24.25 15.2 24.25 15.2 24.3 15.1 24.3 15.1 24.35 15.05 24.35 15.05 24.4 15 24.4 15 24.45 14.9 24.45 14.9 24.5 14.85 24.5 14.85 24.55 14.75 24.55 14.75 24.6 14.7 24.6 14.7 24.65 14.65 24.65 14.65 24.7 14.55 24.7 14.55 24.75 14.5 24.75 14.5 24.8 14.45 24.8 14.45 24.85 14.35 24.85 14.35 24.9 14.3 24.9 14.3 24.95 14.25 24.95 14.25 25 14.15 25 14.15 25.05 14.1 25.05 14.1 25.1 14 25.1 14 25.15 13.95 25.15 13.95 25.2 13.9 25.2 13.9 25.25 13.8 25.25 13.8 25.3 13.75 25.3 13.75 25.35 13.7 25.35 13.7 25.4 13.6 25.4 13.6 25.45 13.55 25.45 13.55 25.5 13.5 25.5 13.45 61.2 18.6 61.2 18.6 70.6 28.35 70.6 28.35 70.55 28.4 70.55 28.4 70.5 28.45 70.5 28.45 70.45 28.55 70.45 28.55 70.4 28.6 70.4 28.6 70.35 28.7 70.35 28.7 70.3 28.75 70.3 28.75 70.25 28.8 70.25 28.8 70.2 28.9 70.2 28.9 70.15 28.95 70.15 28.95 70.1 29 70.1 29 70.05 29.1 70.05 29.1 70 29.15 70 29.15 69.95 29.2 69.95 29.2 69.9 29.3 69.9 29.3 69.85 29.35 69.85 29.35 69.8 29.45 69.8 29.45 69.75 29.5 69.75 29.5 69.7 29.55 69.7 29.55 69.65 29.65 69.65 29.65 69.6 29.7 69.6 29.7 69.55 29.75 69.55 29.75 69.5 29.85 69.5 29.85 69.45 29.9 69.45 29.9 69.4 29.95 69.4 29.95 69.35 30.05 69.35 30.05 69.3 30.1 69.3 30.1 69.25 30.2 69.25 30.2 69.2 30.25 69.2 30.25 69.15 30.3 69.15 30.3 69.1 30.4 69.1 30.4 69.05 30.45 69.05 30.45 69 30.5 69 30.5 68.95 30.6 68.95 30.6 68.9 30.65 68.9 30.65 68.85 30.75 68.85 30.75 68.8 30.8 68.8 30.8 68.75 30.85 68.75 30.85 68.7 30.95 68.7 30.95 68.65 31 68.65 31 68.6 31.05 68.6 31.05 68.55 31.15 68.55 31.15 68.5 31.2 68.5 31.2 68.45 31.25 68.45 31.25 68.4 31.35 68.4 31.35 68.35 31.4 68.35 31.4 68.3 31.5 68.3 31.5 68.25 31.55 68.25 31.55 68.2 31.6 68.2 31.6 68.15 31.7 68.15 31.7 68.1 31.75 68.1 31.75 68.05 31.8 68.05 31.8 68 31.9 68 31.9 67.95 31.95 67.95 31.95 67.9 32 67.9 32 67.85 32.1 67.85 32.1 67.8 32.15 67.8 32.15 67.75 32.25 67.75 32.25 67.7 32.3 67.7 32.3 61.2 33.4 61.2 33.4 61.15 33.5 61.15 33.5 61.1 33.55 61.1 33.55 61.05 33.6 61.05 33.6 61 33.7 61 33.7 60.95 33.75 60.95 33.75 60.9 33.85 60.9 33.85 60.85 33.9 60.85 33.9 60.8 33.95 60.8 33.95 60.75 34.05 60.75 34.05 60.7 34.1 60.7 34.1 60.65 34.15 60.65 34.15 60.6 34.25 60.6 34.25 60.55 34.3 60.55 34.3 60.5 34.35 60.5 34.35 60.45 34.45 60.45 34.45 60.4 34.5 60.4 34.5 60.35 34.55 60.35 34.55 60.3 34.65 60.3 34.65 60.25 34.7 60.25 34.7 60.2 34.8 60.2 34.8 60.15 34.85 60.15 34.85 60.1 34.9 60.1 34.9 60.05 35 60.05 35 60 35.05 60 35.05 59.95 35.1 59.95 35.1 59.9 35.2 59.9 35.2 59.85 35.25 59.85 35.25 59.8 35.35 59.8 35.35 59.75 35.4 59.75 35.4 59.7 35.45 59.7 35.45 59.65 35.55 59.65 35.55 59.6 35.6 59.6 35.6 59.55 35.65 59.55 35.65 59.5 35.75 59.5 35.75 59.45 35.8 59.45 35.8 59.4 35.9 59.4 35.9 59.35 35.95 59.35 35.95 59.3 36 59.3 36 59.25 36.1 59.25 36.1 59.2 36.15 59.2 36.15 59.15 36.2 59.15 36.2 59.1 36.3 59.1 36.3 59.05 36.35 59.05 36.35 59 36.4 59 36.4 58.95 36.5 58.95 36.5 58.9 36.55 58.9 36.55 58.85 36.65 58.85 36.65 58.8 36.7 58.8 36.7 58.75 36.75 58.75 36.75 58.7 36.85 58.7 36.85 58.65 36.9 58.65 36.9 58.6 36.95 58.6 36.95 58.55 37.05 58.55 37.05 58.5 37.1 58.5 37.1 58.45 37.15 58.45 37.15 58.4 37.25 58.4 37.25 58.35 37.3 58.35 37.3 58.3 37.4 58.3 37.4 22.6 32.3 22.6 32.3 16.4 22.5 16.4 22.5 16.45 22.45 16.45 22.45 16.5 22.4 16.5 22.4 16.55 22.3 16.55 22.3 16.6 22.25 16.6 22.25 16.65 22.15 16.65 22.15 16.7 22.1 16.7 22.1 16.75 22.05 16.75 22.05 16.8 21.95 16.8 21.95 16.85 21.9 16.85 21.9 16.9 21.85 16.9 21.85 16.95 21.75 16.95 21.75 17Z"/><path fill="#FFF" stroke="none" d="M27.75 21.05L22.6 21.05 22.6 54.2 27.75 54.2 27.75 63.65 35 63.65 35 54.2 40.1 54.2 40.1 21.05 35 21.05 35 14.8 27.75 14.8 27.75 21.05Z"/><g mask="url(#mask_)"><g display="none" id="Layer32_0_FILL"><path fill="#0F0" stroke="none" d="M22.45 66.8L39.65 66.8 47.65 31.6Q29.1 -23.15 18.6 22.65L22.45 66.8Z"/><animate attributeName="display" repeatCount="indefinite" dur="3s" keyTimes="0;.967;1" values="none;inline;inline"/></g><g display="none" id="Layer31_0_FILL"><path fill="#0F0" stroke="none" d="M22.4 66.6L39.6 66.6 47.05 33.5Q30.7 -20.05 18.75 23.75L22.4 66.6Z"/><animate attributeName="display" repeatCount="indefinite" dur="3s" keyTimes="0;.933;.967;1" values="none;inline;none;none"/></g><g display="none" id="Layer30_0_FILL"><path fill="#0F0" stroke="none" d="M22.25 66.4L39.45 66.4 46.4 35.4Q32.2 -17 18.8 24.8L22.25 66.4Z"/><animate attributeName="display" repeatCount="indefinite" dur="3s" keyTimes="0;.9;.933;1" values="none;inline;none;none"/></g><g display="none" id="Layer29_0_FILL"><path fill="#0F0" stroke="none" d="M22.1 66.15L39.3 66.15 45.7 37.25Q33.7 -13.9 18.8 25.9L22.1 66.15Z"/><animate attributeName="display" repeatCount="indefinite" dur="3s" keyTimes="0;.867;.9;1" values="none;inline;none;none"/></g><g display="none" id="Layer28_0_FILL"><path fill="#0F0" stroke="none" d="M22.05 65.95L39.25 65.95 45.1 39.15Q35.2 -10.85 18.9 27L22.05 65.95Z"/><animate attributeName="display" repeatCount="indefinite" dur="3s" keyTimes="0;.833;.867;1" values="none;inline;none;none"/></g><g display="none" id="Layer27_0_FILL"><path fill="#0F0" stroke="none" d="M22 65.75L39.2 65.75 44.5 41.05Q36.8 -7.75 19.05 28.1L22 65.75Z"/><animate attributeName="display" repeatCount="indefinite" dur="3s" keyTimes="0;.8;.833;1" values="none;inline;none;none"/></g><g display="none" id="Layer26_0_FILL"><path fill="#0F0" stroke="none" d="M21.9 65.55L39.1 65.55 43.9 42.95Q38.35 -4.7 19.15 29.15L21.9 65.55Z"/><animate attributeName="display" repeatCount="indefinite" dur="3s" keyTimes="0;.767;.8;1" values="none;inline;none;none"/></g><g display="none" id="Layer25_0_FILL"><path fill="#0F0" stroke="none" d="M21.8 65.35L39 65.35 43.25 44.85Q39.9 -1.6 19.25 30.25L21.8 65.35Z"/><animate attributeName="display" repeatCount="indefinite" dur="3s" keyTimes="0;.733;.767;1" values="none;inline;none;none"/></g><g display="none" id="Layer24_0_FILL"><path fill="#0F0" stroke="none" d="M21.7 65.1L38.9 65.1 42.65 46.7Q41.45 1.45 19.3 31.35L21.7 65.1Z"/><animate attributeName="display" repeatCount="indefinite" dur="3s" keyTimes="0;.7;.733;1" values="none;inline;none;none"/></g><g display="none" id="Layer23_0_FILL"><path fill="#0F0" stroke="none" d="M21.6 64.9L38.8 64.9 42 48.6Q43 4.55 19.4 32.45L21.6 64.9Z"/><animate attributeName="display" repeatCount="indefinite" dur="3s" keyTimes="0;.667;.7;1" values="none;inline;none;none"/></g><g display="none" id="Layer22_0_FILL"><path fill="#0F0" stroke="none" d="M21.55 64.7L38.75 64.7 41.45 50.5Q44.6 7.6 19.55 33.5L21.55 64.7Z"/><animate attributeName="display" repeatCount="indefinite" dur="3s" keyTimes="0;.633;.667;1" values="none;inline;none;none"/></g><g display="none" id="Layer21_0_FILL"><path fill="#0F0" stroke="none" d="M21.45 64.5L38.65 64.5 40.8 52.4Q46.15 10.7 19.65 34.6L21.45 64.5Z"/><animate attributeName="display" repeatCount="indefinite" dur="3s" keyTimes="0;.6;.633;1" values="none;inline;none;none"/></g><g display="none" id="Layer20_0_FILL"><path fill="#0F0" stroke="none" d="M38.55 64.25L40.15 54.25Q47.6 13.7 19.7 35.65L21.35 64.25 38.55 64.25Z"/><animate attributeName="display" repeatCount="indefinite" dur="3s" keyTimes="0;.567;.6;1" values="none;inline;none;none"/></g><g display="none" id="Layer19_0_FILL"><path fill="#0F0" stroke="none" d="M38.5 64L39.55 56.1Q49.2 16.8 19.8 36.75L21.3 64 38.5 64Z"/><animate attributeName="display" repeatCount="indefinite" dur="3s" keyTimes="0;.533;.567;1" values="none;inline;none;none"/></g><g display="none" id="Layer18_0_FILL"><path fill="#0F0" stroke="none" d="M38.35 63.85L38.9 58.05Q50.7 19.9 19.85 37.85L21.15 63.85 38.35 63.85Z"/><animate attributeName="display" repeatCount="indefinite" dur="3s" keyTimes="0;.5;.533;1" values="none;inline;none;none"/></g><g display="none" id="Layer17_0_FILL"><path fill="#0F0" stroke="none" d="M38.2 63.6L38.2 59.9Q52.2 22.95 19.9 38.9L21 63.6 38.2 63.6Z"/><animate attributeName="display" repeatCount="indefinite" dur="3s" keyTimes="0;.467;.5;1" values="none;inline;none;none"/></g><g display="none" id="Layer16_0_FILL"><path fill="#0F0" stroke="none" d="M38.4 63.95L38.4 60.25Q50.8 25.95 20.2 40.75L21.2 63.95 38.4 63.95Z"/><animate attributeName="display" repeatCount="indefinite" dur="3s" keyTimes="0;.433;.467;1" values="none;inline;none;none"/></g><g display="none" id="Layer15_0_FILL"><path fill="#0F0" stroke="none" d="M38.7 64.35L38.7 60.65Q49.45 29 20.55 42.65L21.5 64.35 38.7 64.35Z"/><animate attributeName="display" repeatCount="indefinite" dur="3s" keyTimes="0;.4;.433;1" values="none;inline;none;none"/></g><g display="none" id="Layer14_0_FILL"><path fill="#0F0" stroke="none" d="M38.9 64.7L38.9 61Q48.05 32 20.85 44.5L21.7 64.7 38.9 64.7Z"/><animate attributeName="display" repeatCount="indefinite" dur="3s" keyTimes="0;.367;.4;1" values="none;inline;none;none"/></g><g display="none" id="Layer13_0_FILL"><path fill="#0F0" stroke="none" d="M39.1 65.05L39.1 61.35Q46.65 34.95 21.1 46.35L21.9 65.05 39.1 65.05Z"/><animate attributeName="display" repeatCount="indefinite" dur="3s" keyTimes="0;.333;.367;1" values="none;inline;none;none"/></g><g display="none" id="Layer12_0_FILL"><path fill="#0F0" stroke="none" d="M39.3 65.4L39.3 61.7Q45.25 37.95 21.4 48.2L22.1 65.4 39.3 65.4Z"/><animate attributeName="display" repeatCount="indefinite" dur="3s" keyTimes="0;.3;.333;1" values="none;inline;none;none"/></g><g display="none" id="Layer11_0_FILL"><path fill="#0F0" stroke="none" d="M39.55 65.75L39.55 62.05Q43.85 40.95 21.7 50.05L22.35 65.75 39.55 65.75Z"/><animate attributeName="display" repeatCount="indefinite" dur="3s" keyTimes="0;.267;.3;1" values="none;inline;none;none"/></g><g display="none" id="Layer10_0_FILL"><path fill="#0F0" stroke="none" d="M39.75 62.45Q42.45 43.95 22 51.95L22.55 66.15 39.75 66.15 39.75 62.45Z"/><animate attributeName="display" repeatCount="indefinite" dur="3s" keyTimes="0;.233;.267;1" values="none;inline;none;none"/></g><g display="none" id="Layer9_0_FILL"><path fill="#0F0" stroke="none" d="M39.9 62.8Q41 46.95 22.25 53.8L22.7 66.5 39.9 66.5 39.9 62.8Z"/><animate attributeName="display" repeatCount="indefinite" dur="3s" keyTimes="0;.2;.233;1" values="none;inline;none;none"/></g><g display="none" id="Layer8_0_FILL"><path fill="#0F0" stroke="none" d="M40.15 63.15Q39.6 49.95 22.55 55.65L22.95 66.85 40.15 66.85 40.15 63.15Z"/><animate attributeName="display" repeatCount="indefinite" dur="3s" keyTimes="0;.167;.2;1" values="none;inline;none;none"/></g><g display="none" id="Layer7_0_FILL"><path fill="#0F0" stroke="none" d="M40.35 63.5Q38.2 52.95 22.85 57.5L23.15 67.2 40.35 67.2 40.35 63.5Z"/><animate attributeName="display" repeatCount="indefinite" dur="3s" keyTimes="0;.133;.167;1" values="none;inline;none;none"/></g><g display="none" id="Layer6_0_FILL"><path fill="#0F0" stroke="none" d="M23.15 59.35L23.4 67.55 40.6 67.55 40.6 63.85Q36.85 55.9 23.15 59.35Z"/><animate attributeName="display" repeatCount="indefinite" dur="3s" keyTimes="0;.1;.133;1" values="none;inline;none;none"/></g><g display="none" id="Layer5_0_FILL"><path fill="#0F0" stroke="none" d="M23.45 61.2L23.6 67.9 40.8 67.9 40.8 64.2Q35.45 58.9 23.45 61.2Z"/><animate attributeName="display" repeatCount="indefinite" dur="3s" keyTimes="0;.067;.1;1" values="none;inline;none;none"/></g><g display="none" id="Layer4_0_FILL"><path fill="#0F0" stroke="none" d="M23.7 63.05L23.8 68.25 41 68.25 41 64.55Q34 61.9 23.7 63.05Z"/><animate attributeName="display" repeatCount="indefinite" dur="3s" keyTimes="0;.033;.067;1" values="none;inline;none;none"/></g><g id="Layer3_0_FILL"><path fill="#0F0" stroke="none" d="M24 64.9L24 68.6 41.2 68.6 41.2 64.9 24 64.9Z"/><animate attributeName="display" repeatCount="indefinite" dur="3s" keyTimes="0;.033;1" values="inline;none;none"/></g></g><mask id="mask_"><g><g><g id="Layer2_0_FILL"><path fill="#FFF" stroke="none" d="M27.7 21.1L22.55 21.1 22.55 54.25 27.7 54.25 27.7 63.7 34.95 63.7 34.95 54.25 40.05 54.25 40.05 21.1 34.95 21.1 34.95 14.85 27.7 14.85 27.7 21.1Z" fill-opacity="1"/></g></g></g></mask><path fill="#231F20" stroke="none" d="M26.45 19.8L21.35 19.8 21.35 55.45 26.45 55.45 26.45 64.9 36.15 64.9 36.15 55.45 41.25 55.45 41.25 19.8 36.15 19.8 36.15 13.55 26.45 13.55 26.45 19.8M23.8 22.3L28.9 22.3 28.9 16.05 33.7 16.05 33.7 22.3 38.8 22.3 38.8 53 33.7 53 33.7 62.4 28.9 62.4 28.9 53 23.8 53 23.8 22.3Z"/></g></svg>