<svg id="Layer_1" xmlns="http://www.w3.org/2000/svg" viewBox="0 0 584 336"><style>.st1,.st2,.st3{fill:none;stroke:#1e232f;stroke-width:1.5;stroke-linecap:round;stroke-linejoin:round;stroke-miterlimit:10}.st2,.st3{fill:#456546}.st3{fill:#617296}</style><path d="M96.4 33.8" fill="none" stroke="#4c4c4c" stroke-width="1.5" stroke-linecap="round" stroke-linejoin="round" stroke-miterlimit="10"/><path class="st1" d="M94.1 210.2a35.4 35.4 0 0 0-28-12.3 36.3 36.3 0 0 0-33.5 50.2M99.7 247.2c1.8-4.3 2.8-6.2 2.8-11.1M18.8 247.8h98.8M412.9 230.8H398l-7.3 7.3h21.7"/><path class="st1" d="M390.7 247.9h45.5l-.5-9.8h-45z"/><path class="st1" d="M414.8 197.9l-2.4 50h23.8l-2.4-50M417.8 179v18.9h13V179M417.8 179a6.5 6.5 0 1 1 13 0M414.8 179h19M424.5 172v-8.6"/><path class="st1" d="M412.8 192v5.9h23v-5.5M412.8 194.2h23M414.8 201.4h19.3M421.7 207.5h4.5v6.5h-4.5zM421.7 224.3h4.5v6.5h-4.5z"/><path class="st2" d="M116 211.7s-12.1 9.8-36.1 9.5c0 0 10.1-13.7 31.9-15.7l4.2 6.2z"/><path class="st1" d="M131.4 294.9c.2-1.9-2.1-66.4-12-81.5-1.1-2-3.4 0-3.4 0s3.7 34.4 1.8 81.5h13.6z"/><path class="st2" d="M117.3 210.6s4.3.9 10.3 1c.6 0 1.3-2.6 2-2.6.9 0 1.6 2.6 2.5 2.6 6.8-.3 14.6-3.4 20.4-7.8 0 .1-20.6-14-35.2 6.8"/><path class="st2" d="M130.7 180.9s1 17.7-12.9 28.3c0 0-6.9-1.9-2.2-14.7a22.9 22.9 0 0 1 15.1-13.6z"/><path class="st2" d="M136.3 234s-16.7-5.9-21.1-22.9c0 0 4.4-5.7 14.4 3.6 8.6 8 6.7 19.3 6.7 19.3z"/><path class="st2" d="M143 204.5s-16.4-.1-25.4 5.7c-17.2 4.9-35.5-14.4-35.5-15a41.3 41.3 0 0 1 19.7-.4c1.3.3 1.8 2.8 3 3.2 1.2.5 3-1 3.9-.4 7.9 4.7 7.7 8.8 9.1 11.6"/><path class="st2" d="M83.6 241.1s4.1 0 9.4-1.6c1.2-.3 1.7-3.2 3-3.7 1.4-.6 3.6 1.3 5.1.5a30.8 30.8 0 0 0 16.2-25.5s-29.3 6.3-33.7 30.3z"/><path class="st1" d="M125.1 221.7"/><path class="st2" d="M117.3 210.8S102 201 92 198.1M116.6 210.4s-13.1 15.7-26.3 24.7"/><path class="st1" d="M130.7 263.2l-11.6-4.9M1 260l6.3 7.6 32.4 5.4h34.9s14.4-4 15.8-4.1c1.4-.1 16.7-5.3 16.7-5.3l3-3.5c-.1 0-60 9.3-109.1-.1z"/><g><path class="st3" d="M110 260.1c-6.4 12.9-28.7 22.4-55.4 22.4-26.6 0-49-9.5-55.4-22.4.1 0 52.5 20.4 110.8 0z"/></g><path class="st1" d="M-20.1 257.3l11.2 1s61.8 13 126.7 0l12.4-1.4M226.8 291.9"/><g><path class="st1" d="M327.7 287.6l4.8-10.8 3.3-.7M324.2 281.8c-1.2-1.3-1.2-3.4.1-4.6s3.4-1.2 4.6.1"/><path class="st3" d="M332.8 282.1h-6.7a8 8 0 0 1-.4 3.6c-1.3 4 1.5 5.9 3.5 5.9h.4c2.1 0 4.9-1.9 3.5-5.9a7.9 7.9 0 0 1-.3-3.6z"/><path class="st1" d="M333.8 279.3h-8.7s.8 1 1 2.8h6.7c.2-1.8 1-2.8 1-2.8z"/></g><circle class="st3" cx="442" cy="282.5" r="9.4"/><path fill="#ee8895" stroke="#1e232f" stroke-width="1.5" stroke-linecap="round" stroke-linejoin="round" stroke-miterlimit="10" d="M428.9 292.1h24.3"/><path class="st1" d="M368.6 123.1c-1.2 0-2.3.1-3.4.4a26 26 0 0 0-24.4-17c-10.3 0-18.7 3.7-22.7 11.6h-.4c-6 0-11.2 3.5-13.7 8.5-1.5-.6-3.2-.9-4.9-.8-6.6.3-11.7 6-11.7 12.6a4 4 0 0 0 4 4h88.7c1.6 0 2.8-1.3 2.8-2.8v-2.2c0-7.8-6.4-14.3-14.3-14.3zM155.4 180.4l3.1 3.2 3.8-2.8M48.9 104.4l3.9 3.9 4.7-3.4M499.9 131.7l3.9 3.9 4.6-3.3M151.9 169.7l3.2 3.1 3.8-2.7M191.9 129.8l3.9 3.9 4.6-3.4M174.9 110.5a7 7 0 0 0 7.4-6.6 7 7 0 0 0-6.6-7.4c-1.3-.1-2.4.2-3.5.7a8.7 8.7 0 0 0-8.3-7.9c-3.8-.2-7.2 2-8.6 5.3a8.3 8.3 0 0 0-4.2-1.3A8.9 8.9 0 1 0 150 111l24.9-.5zM488.4 93.2a7 7 0 0 0 7.4-6.6 7 7 0 0 0-6.6-7.4c-1.3-.1-2.4.2-3.5.7a8.7 8.7 0 0 0-8.3-7.9c-3.8-.2-7.2 2-8.6 5.3a8.3 8.3 0 0 0-4.2-1.3 8.9 8.9 0 1 0-1.1 17.7l24.9-.5zM50.4 162.4a7 7 0 0 1-7.4-6.6 7 7 0 0 1 6.6-7.4c1.3-.1 2.4.2 3.5.7a8.7 8.7 0 0 1 8.3-7.9c3.8-.2 7.2 2 8.6 5.3a8.3 8.3 0 0 1 4.2-1.3 8.9 8.9 0 1 1 1.1 17.7l-24.9-.5zM372.5 248.1h75.9"/><g><path class="st2" d="M367.7 226.8s13.3 8.4 37.5 5.3c0 0-11.7-12.6-34-12l-3.5 6.7z"/><path class="st1" d="M367.9 228.5s-2.8 26.3 4.7 73.5H361c-.5-1.9-4.7-56.6 3.5-73 .8-2.2 3.4-.5 3.4-.5z"/><path class="st2" d="M366.3 225.9s-3.8 19.3-23.7 30.1c0 0-2.8-17.4 17.2-28.3"/><path class="st2" d="M366.3 225.9s-4.2 1.4-10.2 2.3c-.6.1-1.6-2.5-2.3-2.4-.9.1-1.3 2.8-2.2 2.9-6.9.5-15.1-1.7-21.5-5.4 0 0 19-16.6 36.2 2.6"/><path class="st2" d="M349.3 197.6s1.1 17.9 16.3 27c0 0 6.7-2.7.5-15.1-5.3-10.5-16.8-11.9-16.8-11.9z"/><path class="st2" d="M339.7 222.8s16.4-2.1 26.2 2.7c17.9 2.9 34-18.7 33.9-19.2a41 41 0 0 0-19.8 1.9c-1.3.5-1.5 3-2.6 3.6-1.1.6-3.1-.6-4 .1-7.4 5.6-6.7 9.8-7.7 12.8"/><path class="st2" d="M403.8 252.6s-4.1.4-9.7-.4c-1.2-.2-2.1-3-3.4-3.4-1.5-.4-3.5 1.7-5 1.1-8-3.2-16.2-9.9-19.3-23.7-.1-.1 30.1 2.7 37.4 26.4z"/><path class="st1" d="M359.7 238"/><path class="st2" d="M366.3 226.1s14.3-11.7 23.9-15.8M366.9 225.6s15 14.2 29.4 21.7"/><path class="st1" d="M360.2 290.7"/></g><path class="st1" d="M93.7 295.4h55.5M342 302.4h51"/><g><path class="st1" d="M248.9 234.1h61.8M248.9 239.4h61.8M248.9 244.7h61.8M248.9 249.9h61.8M248.9 255.2h61.8M248.9 260.5h61.8M175.1 232.4V289M178.4 232.4V289M167.3 260.5s-1 7.8 7.8 7.2c0 0-.4-7.2-7.8-7.2zM175.1 244.3h3.3M175.1 251.9h3.3M175.1 259.6h3.3M175.1 267.2h3.3M175.1 274.8h3.3M187.4 228.5v56.6M190.7 228.5v56.6M198.1 256.5s-7.8-.7-7 8c.1 0 7.3-.7 7-8zM187.4 240.5h3.3M187.4 248.1h3.3M187.4 255.7h3.3M187.4 263.4h3.3M187.4 271h3.3M181.2 228.5v56.6M184.5 228.5v56.6M181.2 240.5h3.3M181.2 248.1h3.3M181.2 255.7h3.3M181.2 263.4h3.3M181.2 271h3.3M191.8 211.5l68.7-36.4 69.1 36.4"/><path class="st1" d="M193.4 216.1l67.1-35.6 67.2 35"/><path class="st1" d="M260.5 180.5v24.4h-45.1M248.9 186.6v17.7M237.5 193.3v11M226 198.8v5.5M266.3 204.9h41.2M272.8 186.9v17.4M284.3 193.3v11M295 198.8v5.5M198.7 213.2v7.4h37.8M241.6 220.6h81.3v-7.4M202.2 220.6h5.7v46.6h-5.7zM242.9 220.6h5.7v46.6h-5.7zM311.8 220.6h5.7v46.6h-5.7zM200.2 267.2h119.6v2.5H200.2zM200.2 225h9.1M200.2 227.3h9.1M241.2 225h9.1M241.2 227.3h9.1M310.7 225h9.1M310.7 227.3h9.1M202.2 269.7h5.7V287h-5.7zM257.7 269.7h5.7V287h-5.7zM311.8 269.7h5.7V287h-5.7zM222.9 269.7V289M234.7 269.7V289M220.8 274.8h15.7M220.8 279.3h15.7M220.8 283.8h15.7"/><path class="st3" d="M213.8 232.4h23.7v34.8h-23.7z"/><path class="st1" d="M213.8 237.9h23.7M213.8 263.4h23.7M233.1 250.8v3.6M220.2 213.2v7.4M222.9 216.9v3.7M260 213.9v5.7M263.3 217.5v2.1M295 213.2v7.4M296.8 216.9v3.7"/></g><g><path class="st1" d="M503.3 224.8h61.8M503.3 230.1h61.8M503.3 235.4h61.8M503.3 240.6h61.8M503.3 245.9h61.8M503.3 251.2h61.8M446.3 202.2l68.6-36.4 69.1 36.4"/><path class="st1" d="M447.8 206.8l67.1-35.6 67.3 35"/><path class="st1" d="M514.9 171.2v24.4h-45.1M503.3 177.3V195M491.9 184v11M480.4 189.5v5.5M520.7 195.6h41.2M527.2 177.6V195M538.7 184v11M549.4 189.5v5.5M453.1 203.9v7.4h37.8M496.1 211.3h81.2v-7.4"/><path class="st3" d="M456.6 211.3h5.7v46.6h-5.7zM497.3 211.3h5.7v46.6h-5.7z"/><path class="st1" d="M566.3 211.3h5.7v46.6h-5.7z"/><path class="st1" d="M454.6 257.9h119.6v2.5H454.6zM454.6 215.7h9.1M454.6 218h9.1M495.6 215.7h9.1M495.6 218h9.1M565.1 215.7h9.1M565.1 218h9.1M456.6 260.4h5.7v17.3h-5.7zM512.1 260.4h5.7v17.3h-5.7zM566.3 260.4h5.7v17.3h-5.7zM477.3 260.4v19.3M489.1 260.4v19.3M475.2 265.5h15.7M475.2 270h15.7M475.2 274.5h15.7M468.2 223.1h23.7v34.8h-23.7zM468.2 228.6h23.7M468.2 254.1h23.7M487.5 241.5v3.6M474.6 203.9v7.4M477.3 207.6v3.7M514.4 204.6v5.7M517.8 208.2v2.1M549.4 203.9v7.4M551.2 207.6v3.7"/></g><path class="st1" d="M128.5 247.4h30.4M315.3 292.1h27.1"/></svg>