<svg width="155" height="263" viewBox="0 0 155 263" fill="none" xmlns="http://www.w3.org/2000/svg">
<path fill-rule="evenodd" clip-rule="evenodd" d="M134.69 2.26001C120.12 9.03001 105.26 12.92 90.96 13.61L84.75 32.31C101.45 38.12 125.42 35.65 140.2 34.11L150.77 2.26001H134.69Z" fill="#FF3366"/>
<path fill-rule="evenodd" clip-rule="evenodd" d="M71.8604 71.1601C93.9704 71.6501 110.24 65.7401 132.47 57.4201L138.31 39.8101C121.34 45.5501 98.2104 48.0101 80.1904 46.0501L71.8604 71.1501V71.1601Z" fill="#FF3366"/>
<path fill-rule="evenodd" clip-rule="evenodd" d="M56.3203 117.99C60.1203 117.66 82.6503 111.16 84.5503 109.57C79.4203 104.08 78.2703 106.56 73.6303 96.8801C71.9703 93.4101 70.2703 81.0001 72.1003 79.0001L70.0903 76.5801L70.0703 76.5601L56.3203 117.98V117.99Z" fill="#FF3366"/>
<path fill-rule="evenodd" clip-rule="evenodd" d="M71.3704 72.6299C88.5004 77.4799 107.78 75.3499 127.12 73.5099L132.46 57.4099C110.23 65.7299 94.8904 68.9999 71.8504 71.1499L71.3604 72.6299H71.3704Z" fill="#FF3366"/>
<path fill-rule="evenodd" clip-rule="evenodd" d="M50.0498 136.87H85.3298L85.5598 136.24C84.6198 134.62 83.8498 132.68 83.4698 130.29C83.0798 127.89 83.6298 125 83.3698 122.74C77.3298 123.41 61.0398 124.32 54.8498 122.46L50.0698 136.88L50.0498 136.87Z" fill="#00ABE3"/>
<path fill-rule="evenodd" clip-rule="evenodd" d="M80.2004 46.05C97.6604 48.8 121.35 45.5501 138.32 39.8101L139.07 37.5401C121.7 38.5501 104.44 41.17 87.1304 37.03C85.8804 36.73 84.6804 36.41 83.5104 36.05L80.1904 46.05H80.2004Z" fill="#FF3366"/>
<path fill-rule="evenodd" clip-rule="evenodd" d="M121.34 90.95C119.1 92.47 116.8 93.81 114.54 95.03C113.88 95.64 114.29 95.29 113.53 95.82C100.41 104.86 72.4798 114.3 56.3198 117.98L55.2598 121.18C69.3898 117.87 80.1098 114.95 93.6998 109.24C100.29 106.47 107.91 102.41 114.29 98.5L120.04 94.87L121.34 90.95ZM111.16 121.62L112.25 118.33C110.82 119.5 109.49 120.44 107.88 121.86C105.42 124.01 103.16 125.2 100.82 127.11C97.8298 129.56 89.2997 135.02 85.5497 136.25L85.3198 136.88H90.4398C92.3298 135.39 94.6698 133.9 96.7298 132.58C101.35 129.63 106.25 125.77 111.15 121.62H111.16Z" fill="#FF3366"/>
<path fill-rule="evenodd" clip-rule="evenodd" d="M120.04 94.8799L114.29 98.5099C105.51 103.89 96.6004 107.43 87.4404 111.76C92.6304 114.9 104.75 115.6 113.27 115.28L120.04 94.8799Z" fill="#FF3366"/>
<path fill-rule="evenodd" clip-rule="evenodd" d="M83.5098 36.0501C102.25 42.2301 120.79 39.8301 139.06 37.5401L140.2 34.1101C125.42 35.6501 101.45 38.1201 84.7498 32.3101L83.5098 36.0501Z" fill="#FF3366"/>
<path fill-rule="evenodd" clip-rule="evenodd" d="M71.1699 73.2501C72.1799 74.4701 74.3599 76.1501 75.1699 76.9301C79.7699 80.2401 96.6299 90.2001 123.3 85.0401L127.12 73.5201C107.78 75.3501 90.6399 76.3201 71.3699 72.6401L71.1699 73.2501Z" fill="#FF3366"/>
<path fill-rule="evenodd" clip-rule="evenodd" d="M83.3595 122.74C83.3195 128.5 82.0295 131.2 85.3295 136.88C92.5295 134.52 105.53 123.81 112.25 118.34L112.79 116.7C110.95 117.22 108.87 117.99 107.12 118.46C104.5 119.17 102.03 119.72 99.2995 120.29C93.9995 121.39 88.6695 122.19 83.3495 122.75L83.3595 122.74Z" fill="#FF3366"/>
<path fill-rule="evenodd" clip-rule="evenodd" d="M90.4502 136.87H93.2502C98.1702 134.98 103.92 131.63 108.87 128.54L111.16 121.62C106.26 125.76 101.36 129.63 96.7402 132.58C94.6802 133.9 92.3302 135.39 90.4502 136.88V136.87Z" fill="#FF3366"/>
<path fill-rule="evenodd" clip-rule="evenodd" d="M84.1203 109.63C88.0103 109.33 108.79 99.8198 113.52 95.8298C114.29 95.2998 113.87 95.6498 114.53 95.0398C79.7303 98.8598 86.4203 81.4398 70.0803 76.5898C69.0103 79.7198 71.9503 93.4098 73.6203 96.8798C75.7903 101.42 76.7503 103.28 80.4503 106.82C81.3703 107.7 83.1503 108.59 84.1203 109.63Z" fill="#FF3366"/>
<path fill-rule="evenodd" clip-rule="evenodd" d="M91.9202 10.74C93.8202 10.44 95.5601 10.12 97.0201 9.83002C102.09 8.80002 117.94 5.13002 121.2 2.39002L122.37 2.27002H94.7302L94.7002 2.35002L91.9102 10.75L91.9202 10.74Z" fill="#FF3366"/>
<path fill-rule="evenodd" clip-rule="evenodd" d="M54.8398 122.46C67.2398 127.19 100.16 121.61 112.8 116.69L113.27 115.28C104.75 115.59 92.6499 114.89 87.4499 111.75C82.9499 113.4 62.7499 119.43 55.2599 121.18L54.8398 122.45V122.46Z" fill="#FF3366"/>
<path fill-rule="evenodd" clip-rule="evenodd" d="M114.54 95.03C116.8 93.82 119.1 92.47 121.34 90.95L123.3 85.03C94.25 90.13 78.1 77.88 73.54 75.48C79.21 83.41 106.83 95.87 114.54 95.03Z" fill="#FF3366"/>
<path fill-rule="evenodd" clip-rule="evenodd" d="M121.24 2.26001C117.34 5.54001 98.72 9.65001 91.91 10.74L90.96 13.61C105.26 12.92 120.12 9.03001 134.69 2.26001H121.24Z" fill="#FF3366"/>
<path fill-rule="evenodd" clip-rule="evenodd" d="M70.0703 76.56C79.6003 90.78 92.8603 101.49 114.54 95.03C115.75 94.37 116.58 93.9 117.99 93.08C97.6703 89.75 86.0003 87.77 71.1703 73.25L70.0703 76.57V76.56Z" fill="#FF3366"/>
<path fill-rule="evenodd" clip-rule="evenodd" d="M93.25 127.87H106.1L108.87 119.54C108.31 119.89 107.74 120.24 107.15 120.6C102.08 123.67 94.75 126.88 93.26 127.87H93.25Z" fill="#FF3366"/>
<path fill-rule="evenodd" clip-rule="evenodd" d="M71.8604 71.1601C77.7304 71.2901 83.1904 70.9701 88.4604 70.2701L80.4304 46.0801L80.1904 46.0601L71.8604 71.1601Z" fill="#D32953"/>
<path fill-rule="evenodd" clip-rule="evenodd" d="M56.3203 117.99C60.1203 117.66 82.6503 111.16 84.5503 109.57C79.4203 104.08 78.2703 106.56 73.6303 96.8801C71.9703 93.4101 70.2703 81.0001 72.1003 79.0001L70.0903 76.5801L70.0703 76.5601L56.3203 117.98V117.99Z" fill="#FF3366"/>
<path fill-rule="evenodd" clip-rule="evenodd" d="M71.3701 72.63C77.4101 74.34 83.7101 75.18 90.1901 75.47L88.1201 69.24C83.0401 69.99 77.6901 70.61 71.8601 71.15L71.3701 72.63Z" fill="#D32953"/>
<path fill-rule="evenodd" clip-rule="evenodd" d="M54.5198 136.87H85.3298L85.5598 136.24C84.6198 134.62 83.8498 132.68 83.4698 130.29C83.0798 127.89 83.6298 125 83.3698 122.74C77.3298 123.41 61.0398 124.32 54.8498 122.46L52.2998 130.15L54.5298 136.88L54.5198 136.87Z" fill="#008BB8"/>
<path fill-rule="evenodd" clip-rule="evenodd" d="M80.2002 46.05L80.4402 46.09L80.3102 45.71L80.2002 46.05Z" fill="#FF3366"/>
<path fill-rule="evenodd" clip-rule="evenodd" d="M99.4698 103.44C85.5698 109.74 67.9098 115.34 56.3198 117.99L55.2598 121.19C69.3898 117.88 80.1098 114.96 93.6998 109.25C95.8398 108.35 98.0998 107.31 100.39 106.19L99.4798 103.45L99.4698 103.44ZM106.07 123.32L106.72 125.29C103.32 128.02 99.9597 130.52 96.7397 132.58C94.6797 133.9 92.3298 135.39 90.4498 136.88H85.3297L85.5598 136.25C89.3098 135.02 97.8397 129.56 100.83 127.11C102.58 125.68 104.29 124.65 106.07 123.33V123.32Z" fill="#D32953"/>
<path fill-rule="evenodd" clip-rule="evenodd" d="M100.28 105.86C96.0504 107.83 91.7704 109.7 87.4404 111.75C90.8004 113.78 97.0604 114.79 103.37 115.16L100.28 105.85V105.86Z" fill="#D32953"/>
<path fill-rule="evenodd" clip-rule="evenodd" d="M71.1702 73.2501C72.1802 74.4701 74.3602 76.1501 75.1702 76.9301C77.6802 78.7401 83.8402 82.5301 93.2602 84.7601L89.9901 74.9101C83.9101 74.5701 77.7501 73.8601 71.3601 72.6401L71.1602 73.2501H71.1702Z" fill="#D32953"/>
<path fill-rule="evenodd" clip-rule="evenodd" d="M83.3595 122.74C83.3195 128.5 82.0295 131.2 85.3295 136.88C90.6895 135.12 99.2595 128.74 106.07 123.33L104.66 119.09C102.91 119.52 101.17 119.9 99.3095 120.28C94.0095 121.38 88.6795 122.18 83.3595 122.74Z" fill="#D32953"/>
<path fill-rule="evenodd" clip-rule="evenodd" d="M90.4502 136.87H93.2502C97.8802 135.09 103.24 132.02 107.98 129.08L106.72 125.28C103.32 128.01 99.9602 130.51 96.7402 132.57C94.6802 133.89 92.3302 135.38 90.4502 136.87Z" fill="#D32853"/>
<path fill-rule="evenodd" clip-rule="evenodd" d="M84.12 109.63C86.17 109.47 92.92 106.75 99.53 103.63L96.59 94.7601C81.59 91.6301 82.75 80.3401 70.09 76.5801C69.02 79.7101 71.96 93.4001 73.63 96.8701C75.8 101.41 76.76 103.27 80.46 106.81C81.38 107.69 83.16 108.58 84.13 109.62L84.12 109.63Z" fill="#D32953"/>
<path fill-rule="evenodd" clip-rule="evenodd" d="M54.8398 122.46C65.1198 126.38 89.4698 123.22 104.71 119.23L103.36 115.17C97.0598 114.79 90.8099 113.78 87.4499 111.75C82.9499 113.4 62.7499 119.43 55.2599 121.18L54.8398 122.45V122.46Z" fill="#D32953"/>
<path fill-rule="evenodd" clip-rule="evenodd" d="M93.09 84.21C82.59 81.48 76.16 76.87 73.54 75.49C76.54 79.68 85.67 85.14 94.76 89.23L93.09 84.21Z" fill="#D32953"/>
<path fill-rule="evenodd" clip-rule="evenodd" d="M70.0703 76.56C76.7403 86.52 85.2503 94.76 97.2003 96.58L94.3603 88.01C86.3103 85.3 79.2103 81.11 71.1803 73.25L70.0803 76.57L70.0703 76.56Z" fill="#D32953"/>
<path fill-rule="evenodd" clip-rule="evenodd" d="M3.87988 0H22.5599H41.2399H59.9299L105.35 136.87H86.6699H67.9899H49.2999L3.87988 0Z" fill="#FF3366"/>
<path fill-rule="evenodd" clip-rule="evenodd" d="M77.3704 109.41C119.72 109.41 154.05 143.74 154.05 186.09C154.05 228.44 119.72 262.77 77.3704 262.77C35.0204 262.77 0.69043 228.44 0.69043 186.09C0.69043 143.74 35.0204 109.41 77.3704 109.41Z" fill="#E6E6E6"/>
<path fill-rule="evenodd" clip-rule="evenodd" d="M77.3703 111.33C118.66 111.33 152.13 144.8 152.13 186.09C152.13 227.38 118.66 260.85 77.3703 260.85C36.0803 260.85 2.61035 227.38 2.61035 186.09C2.61035 144.8 36.0803 111.33 77.3703 111.33Z" fill="#C8CAD1"/>
<path fill-rule="evenodd" clip-rule="evenodd" d="M77.3702 123.42C111.98 123.42 140.03 151.48 140.03 186.08C140.03 220.68 111.97 248.75 77.3702 248.75C42.7702 248.75 14.7002 220.69 14.7002 186.08C14.7002 151.47 42.7602 123.42 77.3702 123.42Z" fill="#B1B4BB"/>
<path fill-rule="evenodd" clip-rule="evenodd" d="M77.3696 127.27C109.85 127.27 136.18 153.6 136.18 186.08C136.18 218.56 109.85 244.89 77.3696 244.89C44.8896 244.89 18.5596 218.56 18.5596 186.08C18.5596 153.6 44.8896 127.27 77.3696 127.27Z" fill="#C8CAD1"/>
<path fill-rule="evenodd" clip-rule="evenodd" d="M77.3701 109.41C119.72 109.41 154.05 143.74 154.05 186.09C154.05 228.44 119.72 262.77 77.3701 262.77V109.41Z" fill="#D6D6D6"/>
<path fill-rule="evenodd" clip-rule="evenodd" d="M77.3701 111.33C118.66 111.33 152.13 144.8 152.13 186.09C152.13 227.38 118.66 260.85 77.3701 260.85V111.33Z" fill="#B1B4BB"/>
<path fill-rule="evenodd" clip-rule="evenodd" d="M77.3701 123.42C111.98 123.42 140.03 151.48 140.03 186.08C140.03 220.68 111.97 248.75 77.3701 248.75V123.42Z" fill="#C8CAD1"/>
<path fill-rule="evenodd" clip-rule="evenodd" d="M77.3701 127.27C109.85 127.27 136.18 153.6 136.18 186.08C136.18 218.56 109.85 244.89 77.3701 244.89V127.26V127.27Z" fill="#B1B4BB"/>
<path d="M44.0171 214.374C46.9333 212.058 48.2627 210.986 48.0054 211.158C56.4108 204.21 63.0151 198.507 67.8182 194.047C72.7071 189.587 76.824 184.912 80.1691 180.023C83.5141 175.134 85.1866 170.374 85.1866 165.743C85.1866 162.226 84.3718 159.481 82.7422 157.509C81.1125 155.536 78.6681 154.55 75.4088 154.55C72.1496 154.55 69.5765 155.793 67.6896 158.281C65.8884 160.682 64.9878 164.113 64.9878 168.573H43.7598C43.9313 161.283 45.4752 155.193 48.3913 150.304C51.3933 145.415 55.2958 141.813 60.0989 139.497C64.9878 137.181 70.3913 136.023 76.3094 136.023C86.516 136.023 94.1924 138.639 99.3386 143.871C104.571 149.103 107.187 155.922 107.187 164.327C107.187 173.505 104.056 182.039 97.7948 189.93C91.5336 197.735 83.557 205.368 73.865 212.83H108.602V230.713H44.0171V214.374Z" fill="white"/>
</svg>
