<svg width="154" height="263" viewBox="0 0 154 263" fill="none" xmlns="http://www.w3.org/2000/svg">
<path fill-rule="evenodd" clip-rule="evenodd" d="M134.81 2.26001C120.24 9.03001 105.38 12.92 91.0801 13.61L84.8701 32.31C101.57 38.12 125.54 35.65 140.32 34.11L150.89 2.26001H134.81Z" fill="#FF3366"/>
<path fill-rule="evenodd" clip-rule="evenodd" d="M71.9805 71.1601C94.0905 71.6501 110.36 65.7401 132.59 57.4201L138.43 39.8101C121.46 45.5501 98.3305 48.0101 80.3105 46.0501L71.9805 71.1501V71.1601Z" fill="#FF3366"/>
<path fill-rule="evenodd" clip-rule="evenodd" d="M56.4404 117.99C60.2404 117.66 82.7704 111.16 84.6704 109.57C79.5404 104.08 78.3904 106.56 73.7504 96.8801C72.0904 93.4101 70.3904 81.0001 72.2204 79.0001L70.2104 76.5801L70.1904 76.5601L56.4404 117.98V117.99Z" fill="#FF3366"/>
<path fill-rule="evenodd" clip-rule="evenodd" d="M71.4905 72.6299C88.6205 77.4799 107.9 75.3499 127.24 73.5099L132.58 57.4099C110.35 65.7299 95.0105 68.9999 71.9705 71.1499L71.4805 72.6299H71.4905Z" fill="#FF3366"/>
<path fill-rule="evenodd" clip-rule="evenodd" d="M50.1699 136.87H85.4499L85.6799 136.24C84.7399 134.62 83.9699 132.68 83.5899 130.29C83.1999 127.89 83.7499 125 83.4899 122.74C77.4499 123.41 61.1599 124.32 54.9699 122.46L50.1899 136.88L50.1699 136.87Z" fill="#00ABE3"/>
<path fill-rule="evenodd" clip-rule="evenodd" d="M80.3206 46.05C97.7806 48.8 121.471 45.5501 138.441 39.8101L139.191 37.5401C121.821 38.5501 104.561 41.17 87.2505 37.03C86.0005 36.73 84.8006 36.41 83.6306 36.05L80.3105 46.05H80.3206Z" fill="#FF3366"/>
<path fill-rule="evenodd" clip-rule="evenodd" d="M121.46 90.95C119.22 92.47 116.92 93.81 114.66 95.03C114 95.64 114.41 95.29 113.65 95.82C100.53 104.86 72.5999 114.3 56.4399 117.98L55.3799 121.18C69.5099 117.87 80.2299 114.95 93.8199 109.24C100.41 106.47 108.03 102.41 114.41 98.5L120.16 94.87L121.46 90.95ZM111.28 121.62L112.37 118.33C110.94 119.5 109.61 120.44 108 121.86C105.54 124.01 103.28 125.2 100.94 127.11C97.9499 129.56 89.4199 135.02 85.6699 136.25L85.4399 136.88H90.5599C92.4499 135.39 94.7899 133.9 96.8499 132.58C101.47 129.63 106.37 125.77 111.27 121.62H111.28Z" fill="#FF3366"/>
<path fill-rule="evenodd" clip-rule="evenodd" d="M120.161 94.8799L114.411 98.5099C105.631 103.89 96.7205 107.43 87.5605 111.76C92.7505 114.9 104.871 115.6 113.391 115.28L120.161 94.8799Z" fill="#FF3366"/>
<path fill-rule="evenodd" clip-rule="evenodd" d="M83.6299 36.0501C102.37 42.2301 120.91 39.8301 139.18 37.5401L140.32 34.1101C125.54 35.6501 101.57 38.1201 84.8699 32.3101L83.6299 36.0501Z" fill="#FF3366"/>
<path fill-rule="evenodd" clip-rule="evenodd" d="M71.29 73.2501C72.3 74.4701 74.48 76.1501 75.29 76.9301C79.89 80.2401 96.75 90.2001 123.42 85.0401L127.24 73.5201C107.9 75.3501 90.76 76.3201 71.49 72.6401L71.29 73.2501Z" fill="#FF3366"/>
<path fill-rule="evenodd" clip-rule="evenodd" d="M83.4796 122.74C83.4396 128.5 82.1496 131.2 85.4496 136.88C92.6496 134.52 105.65 123.81 112.37 118.34L112.91 116.7C111.07 117.22 108.99 117.99 107.24 118.46C104.62 119.17 102.15 119.72 99.4196 120.29C94.1196 121.39 88.7896 122.19 83.4696 122.75L83.4796 122.74Z" fill="#FF3366"/>
<path fill-rule="evenodd" clip-rule="evenodd" d="M90.5703 136.87H93.3703C98.2903 134.98 104.04 131.63 108.99 128.54L111.28 121.62C106.38 125.76 101.48 129.63 96.8603 132.58C94.8003 133.9 92.4503 135.39 90.5703 136.88V136.87Z" fill="#FF3366"/>
<path fill-rule="evenodd" clip-rule="evenodd" d="M84.2404 109.63C88.1304 109.33 108.91 99.8198 113.64 95.8298C114.41 95.2998 113.99 95.6498 114.65 95.0398C79.8504 98.8598 86.5404 81.4398 70.2004 76.5898C69.1304 79.7198 72.0704 93.4098 73.7404 96.8798C75.9104 101.42 76.8704 103.28 80.5704 106.82C81.4904 107.7 83.2704 108.59 84.2404 109.63Z" fill="#FF3366"/>
<path fill-rule="evenodd" clip-rule="evenodd" d="M92.0403 10.74C93.9403 10.44 95.6803 10.12 97.1403 9.83002C102.21 8.80002 118.06 5.13002 121.32 2.39002L122.49 2.27002H94.8503L94.8203 2.35002L92.0303 10.75L92.0403 10.74Z" fill="#FF3366"/>
<path fill-rule="evenodd" clip-rule="evenodd" d="M54.96 122.46C67.36 127.19 100.28 121.61 112.92 116.69L113.39 115.28C104.87 115.59 92.77 114.89 87.57 111.75C83.07 113.4 62.87 119.43 55.38 121.18L54.96 122.45V122.46Z" fill="#FF3366"/>
<path fill-rule="evenodd" clip-rule="evenodd" d="M114.66 95.03C116.92 93.82 119.22 92.47 121.46 90.95L123.42 85.03C94.3701 90.13 78.2202 77.88 73.6602 75.48C79.3302 83.41 106.95 95.87 114.66 95.03Z" fill="#FF3366"/>
<path fill-rule="evenodd" clip-rule="evenodd" d="M121.36 2.26001C117.46 5.54001 98.8401 9.65001 92.0301 10.74L91.0801 13.61C105.38 12.92 120.24 9.03001 134.81 2.26001H121.36Z" fill="#FF3366"/>
<path fill-rule="evenodd" clip-rule="evenodd" d="M70.1904 76.56C79.7204 90.78 92.9804 101.49 114.66 95.03C115.87 94.37 116.7 93.9 118.11 93.08C97.7904 89.75 86.1204 87.77 71.2904 73.25L70.1904 76.57V76.56Z" fill="#FF3366"/>
<path fill-rule="evenodd" clip-rule="evenodd" d="M93.3701 127.87H106.22L108.99 119.54C108.43 119.89 107.86 120.24 107.27 120.6C102.2 123.67 94.8701 126.88 93.3801 127.87H93.3701Z" fill="#FF3366"/>
<path fill-rule="evenodd" clip-rule="evenodd" d="M71.9805 71.1601C77.8505 71.2901 83.3105 70.9701 88.5805 70.2701L80.5505 46.0801L80.3105 46.0601L71.9805 71.1601Z" fill="#D32953"/>
<path fill-rule="evenodd" clip-rule="evenodd" d="M56.4404 117.99C60.2404 117.66 82.7704 111.16 84.6704 109.57C79.5404 104.08 78.3904 106.56 73.7504 96.8801C72.0904 93.4101 70.3904 81.0001 72.2204 79.0001L70.2104 76.5801L70.1904 76.5601L56.4404 117.98V117.99Z" fill="#FF3366"/>
<path fill-rule="evenodd" clip-rule="evenodd" d="M71.4902 72.63C77.5302 74.34 83.8302 75.18 90.3102 75.47L88.2402 69.24C83.1602 69.99 77.8102 70.61 71.9802 71.15L71.4902 72.63Z" fill="#D32953"/>
<path fill-rule="evenodd" clip-rule="evenodd" d="M54.6399 136.87H85.4499L85.6799 136.24C84.7399 134.62 83.9699 132.68 83.5899 130.29C83.1999 127.89 83.7499 125 83.4899 122.74C77.4499 123.41 61.1599 124.32 54.9699 122.46L52.4199 130.15L54.6499 136.88L54.6399 136.87Z" fill="#008BB8"/>
<path fill-rule="evenodd" clip-rule="evenodd" d="M80.3203 46.05L80.5603 46.09L80.4303 45.71L80.3203 46.05Z" fill="#FF3366"/>
<path fill-rule="evenodd" clip-rule="evenodd" d="M99.5899 103.44C85.6899 109.74 68.0299 115.34 56.4399 117.99L55.3799 121.19C69.5099 117.88 80.2299 114.96 93.8199 109.25C95.9599 108.35 98.2199 107.31 100.51 106.19L99.5999 103.45L99.5899 103.44ZM106.19 123.32L106.84 125.29C103.44 128.02 100.08 130.52 96.8599 132.58C94.7999 133.9 92.4499 135.39 90.5699 136.88H85.4499L85.6799 136.25C89.4299 135.02 97.9599 129.56 100.95 127.11C102.7 125.68 104.41 124.65 106.19 123.33V123.32Z" fill="#D32953"/>
<path fill-rule="evenodd" clip-rule="evenodd" d="M100.401 105.86C96.1705 107.83 91.8905 109.7 87.5605 111.75C90.9205 113.78 97.1805 114.79 103.491 115.16L100.401 105.85V105.86Z" fill="#D32953"/>
<path fill-rule="evenodd" clip-rule="evenodd" d="M71.2903 73.2501C72.3003 74.4701 74.4803 76.1501 75.2903 76.9301C77.8003 78.7401 83.9603 82.5301 93.3803 84.7601L90.1103 74.9101C84.0303 74.5701 77.8703 73.8601 71.4803 72.6401L71.2803 73.2501H71.2903Z" fill="#D32953"/>
<path fill-rule="evenodd" clip-rule="evenodd" d="M83.4796 122.74C83.4396 128.5 82.1496 131.2 85.4496 136.88C90.8096 135.12 99.3796 128.74 106.19 123.33L104.78 119.09C103.03 119.52 101.29 119.9 99.4296 120.28C94.1296 121.38 88.7996 122.18 83.4796 122.74Z" fill="#D32953"/>
<path fill-rule="evenodd" clip-rule="evenodd" d="M90.5703 136.87H93.3703C98.0003 135.09 103.36 132.02 108.1 129.08L106.84 125.28C103.44 128.01 100.08 130.51 96.8603 132.57C94.8003 133.89 92.4503 135.38 90.5703 136.87Z" fill="#D32853"/>
<path fill-rule="evenodd" clip-rule="evenodd" d="M84.2401 109.63C86.2901 109.47 93.0401 106.75 99.6501 103.63L96.7101 94.7601C81.7101 91.6301 82.8701 80.3401 70.2101 76.5801C69.1401 79.7101 72.0801 93.4001 73.7501 96.8701C75.9201 101.41 76.8801 103.27 80.5801 106.81C81.5001 107.69 83.2801 108.58 84.2501 109.62L84.2401 109.63Z" fill="#D32953"/>
<path fill-rule="evenodd" clip-rule="evenodd" d="M54.96 122.46C65.24 126.38 89.59 123.22 104.83 119.23L103.48 115.17C97.18 114.79 90.93 113.78 87.57 111.75C83.07 113.4 62.87 119.43 55.38 121.18L54.96 122.45V122.46Z" fill="#D32953"/>
<path fill-rule="evenodd" clip-rule="evenodd" d="M93.2101 84.21C82.7101 81.48 76.2802 76.87 73.6602 75.49C76.6602 79.68 85.7902 85.14 94.8802 89.23L93.2101 84.21Z" fill="#D32953"/>
<path fill-rule="evenodd" clip-rule="evenodd" d="M70.1904 76.56C76.8604 86.52 85.3704 94.76 97.3204 96.58L94.4804 88.01C86.4304 85.3 79.3304 81.11 71.3004 73.25L70.2004 76.57L70.1904 76.56Z" fill="#D32953"/>
<path fill-rule="evenodd" clip-rule="evenodd" d="M4 0H22.68H41.36H60.05L105.47 136.87H86.79H68.11H49.42L4 0Z" fill="#FF3366"/>
<path fill-rule="evenodd" clip-rule="evenodd" d="M77.0501 109.41C119.4 109.41 153.73 143.74 153.73 186.09C153.73 228.44 119.4 262.77 77.0501 262.77C34.7001 262.77 0.370117 228.44 0.370117 186.09C0.370117 143.74 34.7001 109.41 77.0501 109.41Z" fill="#E9A786"/>
<path fill-rule="evenodd" clip-rule="evenodd" d="M77.0498 109.41C119.4 109.41 153.73 143.74 153.73 186.09C153.73 228.44 119.4 262.77 77.0498 262.77V109.41Z" fill="#E49269"/>
<path fill-rule="evenodd" clip-rule="evenodd" d="M77.05 111.33C118.34 111.33 151.81 144.8 151.81 186.09C151.81 227.38 118.34 260.85 77.05 260.85C35.76 260.85 2.29004 227.38 2.29004 186.09C2.29004 144.8 35.76 111.33 77.05 111.33Z" fill="#E18658"/>
<path fill-rule="evenodd" clip-rule="evenodd" d="M77.0496 123.42C111.66 123.42 139.71 151.48 139.71 186.08C139.71 220.68 111.65 248.75 77.0496 248.75C42.4496 248.75 14.3896 220.69 14.3896 186.08C14.3896 151.47 42.4396 123.42 77.0496 123.42Z" fill="#D06D47"/>
<path fill-rule="evenodd" clip-rule="evenodd" d="M77.0502 127.27C109.53 127.27 135.86 153.6 135.86 186.08C135.86 218.56 109.53 244.89 77.0502 244.89C44.5702 244.89 18.2402 218.56 18.2402 186.08C18.2402 153.6 44.5702 127.27 77.0502 127.27Z" fill="#E18658"/>
<path fill-rule="evenodd" clip-rule="evenodd" d="M77.0498 111.33C118.34 111.33 151.81 144.8 151.81 186.09C151.81 227.38 118.34 260.85 77.0498 260.85V111.33Z" fill="#D06D47"/>
<path fill-rule="evenodd" clip-rule="evenodd" d="M77.0498 123.42C111.66 123.42 139.71 151.48 139.71 186.08C139.71 220.68 111.65 248.75 77.0498 248.75V123.42Z" fill="#E18658"/>
<path fill-rule="evenodd" clip-rule="evenodd" d="M77.0498 127.27C109.53 127.27 135.86 153.6 135.86 186.08C135.86 218.56 109.53 244.89 77.0498 244.89V127.26V127.27Z" fill="#D06D47"/>
<path d="M45.5612 165.585C45.9043 156.407 48.9062 149.331 54.567 144.357C60.2279 139.382 67.9043 136.895 77.5963 136.895C84.029 136.895 89.5183 138.01 94.0641 140.24C98.6956 142.47 102.169 145.515 104.485 149.374C106.887 153.234 108.087 157.565 108.087 162.368C108.087 168.029 106.672 172.661 103.842 176.263C101.011 179.78 97.7093 182.181 93.9354 183.468V183.982C98.8243 185.612 102.684 188.314 105.514 192.088C108.345 195.862 109.76 200.708 109.76 206.626C109.76 211.943 108.516 216.661 106.029 220.778C103.627 224.809 100.068 227.982 95.3506 230.298C90.719 232.614 85.1869 233.772 78.7542 233.772C68.4618 233.772 60.2279 231.242 54.0524 226.181C47.9628 221.121 44.7464 213.487 44.4033 203.281H65.76C65.8458 207.055 66.9179 210.056 68.9764 212.286C71.0349 214.431 74.0368 215.503 77.9822 215.503C81.3272 215.503 83.9003 214.559 85.7015 212.672C87.5884 210.7 88.5319 208.127 88.5319 204.953C88.5319 200.836 87.2025 197.877 84.5436 196.076C81.9705 194.189 77.8107 193.246 72.0641 193.246H67.9471V175.363H72.0641C76.4384 175.363 79.9549 174.634 82.6138 173.175C85.3584 171.632 86.7307 168.93 86.7307 165.07C86.7307 161.982 85.873 159.581 84.1576 157.866C82.4423 156.15 80.0836 155.292 77.0816 155.292C73.8224 155.292 71.3779 156.279 69.7483 158.251C68.2045 160.224 67.3039 162.669 67.0466 165.585H45.5612Z" fill="white"/>
</svg>
