<svg width="28" height="27" viewBox="0 0 28 27" fill="none" xmlns="http://www.w3.org/2000/svg">
<path d="M5.76619 14.42L5.17819 21H3.37219L4.25419 11.676H6.77419L9.15419 18.368L11.4642 11.676H13.9842L14.8382 21H13.0182L12.3742 14.448L9.91019 21.098L8.24419 21.252L5.76619 14.42ZM19.012 11.676H21.448L24.906 21H22.806L22.05 18.872H18.382L17.668 21H15.596L19.012 11.676ZM21.448 17.136L20.188 13.566L18.97 17.136H21.448Z" fill="#686868"/>
<rect x="0.5" y="0.5" width="27" height="24" rx="4.5" stroke="#959595"/>
<rect x="6" y="7" width="1" height="3" fill="#959595"/>
<rect x="3" y="8" width="1" height="2" fill="#959595"/>
<rect x="9" y="7" width="1" height="4" fill="#959595"/>
<rect x="12" y="8" width="1" height="2" fill="#959595"/>
<rect x="15" y="6" width="1" height="3" fill="#959595"/>
<path opacity="0.5" d="M3 9H7.5C8.5 9.16667 10.7 9.5 11.5 9.5C12.5 9.5 15.5 7.5 18 7.5C20 7.5 23.5 6.16667 25 5.5" stroke="#43444B"/>
<rect x="18" y="7" width="1" height="2" fill="#959595"/>
<rect x="21" y="6" width="1" height="2" fill="#959595"/>
<rect x="24" y="5" width="1" height="2" fill="#959595"/>
</svg>
