<svg xmlns="http://www.w3.org/2000/svg" viewBox="0 0 73 42"><path d="M52 42.3H21a21 21 0 0 1-21-21 21 21 0 0 1 21-21h31a21 21 0 1 1 0 42z" fill="#516883"/><circle cx="52.2" cy="21.7" r="13.5" fill="#4b9e6a"/><path d="M48.7 20c0 1.5-.8 2.8-3.1 2.8h-.7v2.8h-1.7v-8h2.7c1.7.1 2.8.7 2.8 2.4zm-3.8-.9v2.3h.6c1.2 0 1.4-.5 1.4-1.1 0-.8-.4-1.1-1.3-1.1h-.7zm7.7-1.4c1.8 0 2.8.7 2.8 2.4 0 1.4-.8 2-1.7 2.2.4.2.7.5 1.1 1.2l1.2 2.2h-2.1l-1.3-2.6c-.1-.3-.4-.4-.7-.4h-.1v3H50v-8h2.6zm-.8 3.6h.7c.9 0 1.2-.4 1.2-1.1 0-.7-.4-1.1-1.2-1.1h-.7v2.2zm8.1 4.5c-2 0-3.3-1.1-3.3-4.1 0-2.9 1.4-4.2 3.4-4.2s3.3 1.1 3.3 4.1c0 3-1.4 4.2-3.4 4.2zm.1-1.5c.9 0 1.5-.7 1.5-2.6 0-2-.6-2.7-1.6-2.7-.9 0-1.5.6-1.5 2.6s.6 2.7 1.6 2.7z" fill="#d3e4d9"/></svg>