<svg xmlns="http://www.w3.org/2000/svg" baseProfile="basic" width="695" height="753" viewBox="0 0 695 753" preserveAspectRatio="xMinYMin meet"><g overflow="visible"><path fill="#9B808A" stroke="#19344F" stroke-width="2.5" stroke-linecap="round" stroke-linejoin="round" d="M232.2 150.7q-55.8 24-98.7 67.6-43 43.5-66.2 99.8-24 58.1-23.5 121.6.5 63.5 25.5 121.4 24.2 55.8 67.7 98.5 43.5 43 99.8 66.1 58.1 24 121.6 23.6 63.5-.5 121.3-25.6 55.9-24.1 98.6-67.6 43-43.5 66.1-99.8 24-58.1 23.6-121.6-.5-63.5-25.6-121.2-24.1-55.8-67.6-98.7-43.5-43-99.7-66.1-58.3-24-121.6-23.6-63.5.5-121.3 25.6"/><path fill="none" stroke="#19344F" stroke-width="2.5" stroke-linecap="round" stroke-linejoin="round" d="M232.2 150.7q-55.8 24-98.7 67.6-43 43.5-66.2 99.8-24 58.1-23.5 121.6.5 63.5 25.5 121.4 24.2 55.8 67.7 98.5 43.5 43 99.8 66.1 58.1 24 121.6 23.6 63.5-.5 121.3-25.6 55.9-24.1 98.6-67.6 43-43.5 66.1-99.8 24-58.1 23.6-121.6-.5-63.5-25.6-121.2-24.1-55.8-67.6-98.7-43.5-43-99.7-66.1-58.3-24-121.6-23.6-63.5.5-121.3 25.6"/><g transform="translate(43.8 124.6) scale(3.075)"><g mask="url(#a)"><path fill="#514760" d="M115.3 90l-32 .3q-21.6.2-31.8 9.7-13.2 12.3-13 43.3l.5 63 122.5-1-.5-63q-.3-31.8-13.6-43.6-10-8.8-32-8.7"/><path fill="none" stroke="#19344F" stroke-width="2.5" stroke-linecap="round" stroke-linejoin="round" d="M115.3 90q22.1-.1 32.1 8.7 13.3 11.8 13.6 43.6l.5 63-122.5 1-.5-63q-.2-31 13-43.4 10.1-9.4 31.8-9.6"/></g><mask id="a"><path fill="#FFF" d="M194.7 61.3q-7.9-18.2-22-32.1-14.2-14-32.4-21.6-19-7.8-39.6-7.6Q80 .1 61.2 8.3q-18.1 7.8-32 22-14 14.2-21.6 32.5Q-.2 81.7 0 102.3q.1 20.7 8.3 39.5 7.8 18.1 22 32 14.2 14 32.5 21.5 18.9 7.8 39.5 7.6 20.7-.1 39.5-8.3 18.1-7.8 32-22 14-14.1 21.5-32.4 7.8-18.9 7.6-39.5-.1-20.7-8.3-39.5"/></mask></g><g transform="translate(39.8 121) scale(3.075)"><g mask="url(#b)"><path fill="none" stroke="#19344F" stroke-width="2.5" stroke-linecap="round" stroke-linejoin="round" d="M39.8 144.5q-.3-31 12.9-43.3 10.2-9.5 31.9-9.7m-44.8 53l.5 63 122.5-1-.6-63q-.2-31.8-13.5-43.5-10-8.8-32.1-8.7"/></g><mask id="b"><path fill="#FFF" d="M195.9 62.5q-7.8-18.1-22-32.1T141.5 8.9q-19-7.8-39.5-7.7-20.7.2-39.5 8.4-18.1 7.8-32.1 22Q16.5 45.6 8.9 64q-7.8 18.9-7.7 39.5.2 20.7 8.4 39.5 7.8 18.2 22 32 14.1 14 32.4 21.6 18.9 7.8 39.5 7.6 20.7-.1 39.5-8.3 18.2-7.8 32-22 14-14.2 21.6-32.5 7.8-18.9 7.6-39.5-.1-20.7-8.3-39.4"/></mask><path fill="none" stroke="#19344F" stroke-width="2.5" stroke-linecap="round" stroke-linejoin="round" d="M195.9 62.5q-7.8-18.1-22-32.1T141.5 8.9q-19-7.8-39.5-7.7-20.7.2-39.5 8.4-18.1 7.8-32.1 22Q16.5 45.6 8.9 64q-7.8 18.9-7.7 39.5.2 20.7 8.4 39.5 7.8 18.2 22 32 14.1 14 32.4 21.6 18.9 7.8 39.5 7.6 20.7-.1 39.5-8.3 18.2-7.8 32-22 14-14.2 21.6-32.5 7.8-18.9 7.6-39.5-.1-20.7-8.3-39.4"/></g><g transform="matrix(1.935 0 0 3.075 347.7 591)"><animateTransform attributeName="transform" additive="replace" type="translate" repeatCount="indefinite" dur="2.95s" keyTimes="0;0.017;0.034;0.051;0.068;0.085;0.102;0.119;0.136;0.508;0.525;0.542;0.559;0.576;0.593;0.61;0.627;0.644;0.661;0.678;1" values="347.7,590.95;347.5,590.95;346.85,590.95;345.65,590.95;344.05,590.95;342,590.95;339.45,590.95;336.4,590.95;336.35,590.95;336.35,590.95;336.4,590.95;337.6,590.95;338.85,590.95;340.1,590.95;341.35,590.95;342.7,590.95;343.9,590.95;345.15,590.95;346.45,590.95;347.7,590.95;347.7,590.95" keySplines=".5 0 .75 .5;0 0 1 1;0 0 1 1;0 0 1 1;0 0 1 1;0 0 1 1;0 0 1 1;0 0 1 1;0 0 1 1;0 0 1 1;0 0 1 1;0 0 1 1;0 0 1 1;0 0 1 1;0 0 1 1;0 0 1 1;0 0 1 1;0 0 1 1;0 0 1 1;.5 0 .75 .5" calcMode="spline"/><animateTransform attributeName="transform" additive="sum" type="scale" repeatCount="indefinite" dur="2.95s" keyTimes="0;0.017;0.034;0.051;0.068;0.085;0.102;0.119;0.525;0.542;0.559;0.576;0.593;0.61;0.627;0.644;0.661;0.678;1" values="1.935,3.075;1.958,3.075;2.028,3.075;2.144,3.075;2.307,3.075;2.517,3.075;2.773,3.075;3.075,3.075;3.075,3.075;2.949,3.075;2.822,3.075;2.695,3.075;2.568,3.075;2.442,3.075;2.315,3.075;2.188,3.075;2.061,3.075;1.935,3.075;1.935,3.075" keySplines=".5 0 .75 .5;0 0 1 1;0 0 1 1;0 0 1 1;0 0 1 1;0 0 1 1;0 0 1 1;0 0 1 1;0 0 1 1;0 0 1 1;0 0 1 1;0 0 1 1;0 0 1 1;0 0 1 1;0 0 1 1;0 0 1 1;0 0 1 1;.5 0 .75 .5" calcMode="spline"/><path fill="#FFF" d="M37.9-46.9l-5.5-15.3-55.7-.3-5.6 3.1q-5.6 3.2-5.2 3.8.4.6-1.9 13.6-1 6.4 3 15.4-1.5 19.7-4 18.8-2.7-1 1.9 3.6 4.5 4.7 3.3 7.9-1.1 3.2 2.9 21 4 17.7 6.6 24 24.1 2.4 43.5.9 4.8-.4 6.7-.8 1.8-.3 3.3-3.8.8-1.5 2-5.8 6.1-19.7 6.5-21.8.7-3.3-1.9-64.3"/><path fill="#E2E2E2" d="M-32.6-23.6l-.2-10.7q-1.2 5.2.4 29.6 1.6 24.3 7.3 52.6 6.6 1.6 25.3 1.6 9.3 0 17.2-1.4Q-16.7 38.3-28.2 1q-3.6-11.7-4.4-24.6"/></g><path fill="#77B078" stroke="#19344F" stroke-width="7" stroke-linecap="round" stroke-linejoin="round" d="M194.5 617l-6.2 12.2 23.7 30.4 19.7-30.7-37.2-11.9"/><path fill="#817890" stroke="#19344F" stroke-width="7" stroke-linecap="round" stroke-linejoin="round" d="M216.2 678.8l-1-15.6-52-4.3v15.3l53 4.6"/><g mask="url(#c)" stroke="#19344F" stroke-width="7" stroke-linecap="round" stroke-linejoin="round"><path fill="#77B078" d="M173.2 609.4l-27.7 21.7 38.7 49.7 27.7-21.5-38.7-49.9"/><path fill="#F5F1A4" d="M173.3 638.2q-2.9 2.3-3.2 6-.5 3.5 1.7 6.3 2.3 3 5.8 3.4 3.6.4 6.5-1.9 3-2.1 3.4-5.8.4-3.6-1.9-6.5-2.1-2.9-5.8-3.2-3.6-.5-6.5 1.7"/></g><mask id="c"><path fill="#FFF" d="M144.4 645.4l15.2 9.7 59 5-12.8-50.5-35.9-13.3q-.9-.4-18.3 7.9-17.6 8.4-17.8 10.1-.1 1.3-3.8 10.2-3.4 8.6-2.2 9.8 1.2 1.3 16.6 11.1"/></mask><path fill="#2C2326" fill-opacity=".5" d="M369.4 122.3l-71 .6L232.9 7.2l-85.5 327 123.4 21.4 11.5 39.3q5.2 17.8 20.4 29 15.3 11.3 33.9 11.1 18.7-.1 33.6-11.5 15-11.4 20-29.5l11-39.5 122.8-23.3L446.4 10l-77 112.4"/><g transform="matrix(2.952 0 0 3.075 346.8 512.3)"><animateTransform attributeName="transform" additive="replace" type="translate" repeatCount="indefinite" dur="2.95s" keyTimes="0;0.017;0.102;0.119;0.136;0.508;0.525;0.542;0.559;0.576;0.593;0.661;0.678;1" values="346.8,513.326;346.85,513.376;346.85,513.376;346.8,513.326;346.85,513.376;346.85,513.376;346.8,513.326;346.85,513.376;346.85,513.376;346.9,513.376;346.85,513.376;346.85,513.376;346.8,513.326;346.8,513.326" keySplines=".5 0 .75 .5;0 0 1 1;0 0 1 1;0 0 1 1;0 0 1 1;0 0 1 1;0 0 1 1;0 0 1 1;0 0 1 1;0 0 1 1;0 0 1 1;0 0 1 1;.5 0 .75 .5" calcMode="spline"/><animateTransform attributeName="transform" additive="sum" type="scale" repeatCount="indefinite" dur="2.95s" keyTimes="0;0.017;0.034;0.051;0.068;0.085;0.102;0.119;0.525;0.542;0.559;0.576;0.593;0.61;0.627;0.644;0.661;0.678;1" values="2.952,3.075;2.955,3.075;2.962,3.075;2.975,3.075;2.993,3.075;3.015,3.075;3.043,3.075;3.075,3.075;3.075,3.075;3.062,3.075;3.048,3.075;3.034,3.075;3.021,3.075;3.007,3.075;2.993,3.075;2.98,3.075;2.966,3.075;2.952,3.075;2.952,3.075" keySplines=".5 0 .75 .5;0 0 1 1;0 0 1 1;0 0 1 1;0 0 1 1;0 0 1 1;0 0 1 1;0 0 1 1;0 0 1 1;0 0 1 1;0 0 1 1;0 0 1 1;0 0 1 1;0 0 1 1;0 0 1 1;0 0 1 1;0 0 1 1;.5 0 .75 .5" calcMode="spline"/><animateTransform attributeName="transform" additive="sum" type="translate" repeatCount="indefinite" dur="2.95s" keyTimes="0;1" values="0,-0.35;0,-0.35" keySplines=".5 0 .75 .5" calcMode="spline"/><path fill="#514760" d="M-109.5-15.2q-1.7 1.9-2.1 4.5-.3 2.7.9 5t3.5 3.5l62.4 34q2 1 4 1 2.4 0 4.3-1.2 2-1.2 3.2-3.2 1.7-3.1.7-6.5t-4.1-5.1L-80.2-6.8l27.2-6.7L-27.8-35l-77.5 17q-2.5.7-4.2 2.7"/><path fill="none" stroke="#19344F" stroke-width="2.5" stroke-linecap="round" stroke-linejoin="round" d="M-111.6-10.7q.4-2.6 2-4.5 1.8-2 4.3-2.7l77.5-16.5m-83.8 23.7q-.3 2.7.9 5t3.5 3.5l62.4 34q2 1 4 1 2.4 0 4.3-1.2 2-1.2 3.2-3.2 1.7-3.1.7-6.5t-4.1-5.1L-80.2-6.8-53-13"/><path fill="#514760" d="M109.6-14q-1.7-1.9-4.3-2.5L41-32l11.4 19.2 28 7.7-43.1 24.3q-3.1 1.8-4 5.2-1 3.4.8 6.4 1.2 2 3.2 3.2 2 1.2 4.3 1.1 2.2 0 4-1.1L107.6-.9q2.3-1.2 3.4-3.6 1.2-2.3.8-5-.3-2.5-2.1-4.4"/><path fill="none" stroke="#19344F" stroke-width="2.5" stroke-linecap="round" stroke-linejoin="round" d="M109.6-14q-1.7-1.9-4.3-2.5L41-32m68.6 18q1.8 2 2.1 4.6.4 2.6-.8 4.9-1.1 2.4-3.4 3.6L45.7 34q-2 1.1-4.1 1.1-2.3 0-4.3-1.1t-3.2-3.2q-1.7-3-.8-6.4.9-3.4 4-5.2L80.4-5.1l-28-7.7"/><path fill="#FFF" stroke="#19344F" stroke-width="2.5" stroke-linecap="round" stroke-linejoin="round" d="M-47.2 11l-8 15.6 10.2 5.2q2 1 4.1 1 2.3 0 4.3-1.2t3.1-3.2q1.7-3.1.7-6.5t-4.1-5.1L-47.2 11M33.3 24.4q-1 3.4.8 6.4 1.2 2 3.2 3.2 2 1.2 4.3 1.1 2.2 0 4-1.1l10.1-5.3-8.1-15.4-10.3 5.9q-3.1 1.8-4 5.2"/></g><g mask="url(#d)"><g transform="matrix(3.073 -.118 .118 3.073 442.3 580.6)"><animateTransform attributeName="transform" additive="replace" type="translate" repeatCount="indefinite" dur="2.95s" keyTimes="0;0.017;0.034;0.051;0.068;0.085;0.102;0.119;0.136;0.508;0.525;0.542;0.559;0.576;0.593;0.61;0.627;0.644;0.661;0.678;1" values="444.292,580.428;445.003,580.233;447.097,578.93;450.748,576.939;455.798,574.256;462.198,570.815;470.147,566.432;479.499,561.6;479.549,561.65;479.549,561.65;479.499,561.6;475.649,563.749;471.749,565.841;467.799,567.932;463.897,569.923;459.998,572.215;456.095,574.155;452.152,576.551;448.252,578.642;444.292,580.428;444.292,580.428" keySplines=".5 0 .75 .5;0 0 1 1;0 0 1 1;0 0 1 1;0 0 1 1;0 0 1 1;0 0 1 1;0 0 1 1;0 0 1 1;0 0 1 1;0 0 1 1;0 0 1 1;0 0 1 1;0 0 1 1;0 0 1 1;0 0 1 1;0 0 1 1;0 0 1 1;0 0 1 1;.5 0 .75 .5" calcMode="spline"/><animateTransform attributeName="transform" additive="sum" type="rotate" repeatCount="indefinite" dur="2.95s" keyTimes="0;0.017;0.034;0.051;0.068;0.085;0.102;0.119;0.525;0.542;0.559;0.576;0.593;0.61;0.627;0.644;0.661;0.678;1" values="-2.192,0,0;-2.037,0,0;-2.004,0,0;-1.76,0,0;-1.307,0,0;-1.019,0,0;-0.52,0,0;0,0,0;0,0,0;-0.06,0,0;-0.309,0,0;-0.558,0,0;-0.805,0,0;-1.054,0,0;-1.302,0,0;-1.551,0,0;-1.8,0,0;-2.192,0,0;-2.192,0,0" keySplines=".5 0 .75 .5;0 0 1 1;0 0 1 1;0 0 1 1;0 0 1 1;0 0 1 1;0 0 1 1;0 0 1 1;0 0 1 1;0 0 1 1;0 0 1 1;0 0 1 1;0 0 1 1;0 0 1 1;0 0 1 1;0 0 1 1;0 0 1 1;.5 0 .75 .5" calcMode="spline"/><animateTransform attributeName="transform" additive="sum" type="scale" repeatCount="indefinite" dur="2.95s" keyTimes="0;1" values="3.075,3.075;3.075,3.075" keySplines=".5 0 .75 .5" calcMode="spline"/><animateTransform attributeName="transform" additive="sum" type="translate" repeatCount="indefinite" dur="2.95s" keyTimes="0;0.017;0.034;0.085;0.102;0.119;0.576;0.593;0.61;0.627;0.644;0.661;0.678;1" values="-0.65,0.049;-0.65,-0.05;-0.65,0;-0.65,0;-0.65,0.049;-0.65,0;-0.65,0;-0.65,0.049;-0.65,0;-0.65,0.049;-0.65,-0.05;-0.65,-0.05;-0.65,0.049;-0.65,0.049" keySplines=".5 0 .75 .5;0 0 1 1;0 0 1 1;0 0 1 1;0 0 1 1;0 0 1 1;0 0 1 1;0 0 1 1;0 0 1 1;0 0 1 1;0 0 1 1;0 0 1 1;.5 0 .75 .5" calcMode="spline"/><path fill="#43343A" fill-opacity=".5" d="M-11.4-52.5q-2.8-1.2-7.2-2.3l-.1-3.2q.1-2.8-6-1.1 7.4 20.4 10.2 30.3 1 3.5 1.3 5.7 1.5 8.8 1.6 19.8 0 1.6 2.8 7.5l-.5.3q-3.1 1.8-4 5.2-1 3.4.8 6.4 1.4 2.6 4.3 3.8-2.3 4.6-2.5 6.3-.8 6.2-2.9 13.3l-1.1 3.5-5.8 16.7 5.8-2.2q3.6-8.5 6.5-18 2.8-9.3 5-19.3h.3q4.4-29.4 4.8-33-4-1.3-9.2-2.4l4.7-9.8 2-3.8 2.3-3.6L-2.9-46l-.3-.1-1-2.3q-3.9-2.6-7.3-4"/><path fill="#514760" d="M28.3-4.7q3-6.8-1.4-9.9l-32 17.7q-3.1 1.7-4 5.2-1 3.3.8 6.4 1.2 2 3.2 3.2 2 1.2 4.3 1.1 2.2 0 4-1.1L36.5-.7q-11 2.9-8-4"/><path fill="none" stroke="#19344F" stroke-width="2.5" stroke-linecap="round" stroke-linejoin="round" d="M-5.1 17.9q2 1.2 4.3 1.1 2.2 0 4-1.1l36-20.3M-5.1 17.9q-2-1.1-3.2-3.2-1.8-3-.8-6.4.9-3.5 4-5.2l33.3-18.8"/><path fill="#817890" d="M1.7-26.3q2.1-4.2 4.2-7.4-1.3-5.1-2.4-8.3-1.2-3.3-3.3-7.7-5.1-3.5-9.8-5.1-2.6-.9-11.5-2.9 7.7 13.9 10.8 26.2 2.9 11.6 3 26.9 0 1.6 3 8t2.9 8.2q-.1 1.8-2.4 6.6-2.3 5-2.5 6.7-1 7.6-4.1 16.8l-5.8 16.7 5.8-2.2Q-3.7 40.2.4 22 4.1 5.8 6.2-14.2 2.6-15.4-3-16.5l4.7-9.8"/><path fill="none" stroke="#19344F" stroke-width="2.5" stroke-linecap="round" stroke-linejoin="round" d="M5.9-33.7q-2.1 3.2-4.2 7.4L-3-16.5q5.6 1.1 9.2 2.3Q4 5.8.4 22q-4.1 18.2-10.8 34.2M5.9-33.7Q4.6-38.8 3.5-42 2.3-45.3.2-49.7q-5.1-3.5-9.8-5.1-2.6-.9-11.5-2.9 7.7 13.9 10.8 26.2 2.9 11.6 3 26.9 0 1.6 3 8t2.9 8.2q-.1 1.8-2.4 6.6-2.3 5-2.5 6.7-1 7.6-4.1 16.8l-5.8 16.7"/><path fill="#FFF" stroke="#19344F" stroke-width="2.5" stroke-linecap="round" stroke-linejoin="round" d="M-9 8.3q-1 3.4.8 6.5 1.1 2 3.2 3.2 1.9 1.1 4.2 1 2.2 0 4.1-1l10-5.4-8-15.4-10.3 6q-3.1 1.7-4 5.1"/></g></g><g mask="url(#d)"><g transform="matrix(3.072 .147 -.147 3.072 242.6 580.6)"><animateTransform attributeName="transform" additive="replace" type="translate" repeatCount="indefinite" dur="2.95s" keyTimes="0;0.017;0.034;0.051;0.068;0.085;0.102;0.119;0.136;0.508;0.525;0.542;0.559;0.576;0.593;0.61;0.627;0.644;0.661;0.678;1" values="242.6,580.65;241.75,580.15;239.6,578.9;235.9,576.9;230.75,574.05;224.15,570.4;215.95,565.9;206.4,560.8;206.45,560.8;206.45,560.8;206.4,560.8;210.45,563;214.5,565.2;218.5,567.4;222.55,569.6;226.55,571.85;230.6,574.05;234.6,576.25;238.65,578.45;242.6,580.65;242.6,580.65" keySplines=".5 0 .75 .5;0 0 1 1;0 0 1 1;0 0 1 1;0 0 1 1;0 0 1 1;0 0 1 1;0 0 1 1;0 0 1 1;0 0 1 1;0 0 1 1;0 0 1 1;0 0 1 1;0 0 1 1;0 0 1 1;0 0 1 1;0 0 1 1;0 0 1 1;0 0 1 1;.5 0 .75 .5" calcMode="spline"/><animateTransform attributeName="transform" additive="sum" type="rotate" repeatCount="indefinite" dur="2.95s" keyTimes="0;0.017;0.034;0.051;0.068;0.085;0.102;0.119;0.525;0.542;0.559;0.576;0.593;0.61;0.627;0.644;0.661;0.678;1" values="2.74,0,0;2.547,0,0;2.504,0,0;2.059,0,0;1.774,0,0;1.273,0,0;0.556,0,0;0,0,0;0,0,0;0.264,0,0;0.526,0,0;0.791,0,0;1.054,0,0;1.505,0,0;1.769,0,0;2.033,0,0;2.296,0,0;2.74,0,0;2.74,0,0" keySplines=".5 0 .75 .5;0 0 1 1;0 0 1 1;0 0 1 1;0 0 1 1;0 0 1 1;0 0 1 1;0 0 1 1;0 0 1 1;0 0 1 1;0 0 1 1;0 0 1 1;0 0 1 1;0 0 1 1;0 0 1 1;0 0 1 1;0 0 1 1;.5 0 .75 .5" calcMode="spline"/><animateTransform attributeName="transform" additive="sum" type="scale" repeatCount="indefinite" dur="2.95s" keyTimes="0;0.017;0.034;0.051;0.068;0.085;1" values="3.075,3.075;3.074,3.074;3.074,3.074;3.075,3.075;3.074,3.074;3.075,3.075;3.075,3.075" keySplines=".5 0 .75 .5;0 0 1 1;0 0 1 1;0 0 1 1;0 0 1 1;0 0 1 1" calcMode="spline"/><path fill="#43343A" fill-opacity=".5" d="M16.3-55.4q-4.3 1.2-7.2 2.5-3.3 1.5-6.8 4l-1.1.3-6.5 18.3Q-3-27.6-.6-24l5.1 8-4.8 2.2q-2 1-4.7 2.8l6.7 33.7.7 3.1v-.1q4.8 16.7 11.9 32.5l5 1.3q-4-11.9-6.2-20.6Q10.6 28.6 9.4 18q0-1-2-3.2l.6-1q1.4-2.6 1-5.5-.6-2.8-2.6-4.8Q8.2 1.2 8.2-.2q.2-22.8 11.4-59.2h-.5q-2.9-.1-2.8 2.2v2"/><path fill="#514760" d="M-14.7-11.9l-2.8 3-8 8.9-.6 1.3L.8 16q2 1 4.1 1 2.3 0 4.3-1.2t3.1-3.2Q14 9.5 13 6T8.9 1l-23.6-12.9"/><path fill="none" stroke="#19344F" stroke-width="2.5" stroke-linecap="round" stroke-linejoin="round" d="M4.9 17q-2.1 0-4.1-1l-27-14.7M5 17q2.3 0 4.3-1.2t3.1-3.2Q14 9.5 13 6T8.9 1l-23.6-12.9"/><path fill="#817890" d="M26.3-58.1q-8.1 2-11.5 3.3-4.8 1.9-10.2 6-2.1 4.7-3.3 8.3Q.2-37.2-1-31.7q2.3 2.8 4.7 6.5l5.1 7.9q-3 1.2-4.8 2.2-2 1-4.7 2.9 2.6 19 7.1 35.4 4.8 17.3 12.2 33.7l5 1.3q-4-11.8-6.2-20.6-2.5-10.3-3.7-20.8-.1-1.1-3.1-4.4-3-3.3-3-4.4-.1-1.6 2.4-4.8 2.6-3.3 2.6-4.8 0-30.5 13.7-56.5"/><path fill="none" stroke="#19344F" stroke-width="2.5" stroke-linecap="round" stroke-linejoin="round" d="M14.8-54.8q3.4-1.3 11.5-3.3-13.6 26-13.7 56.5 0 1.5-2.6 4.8Q7.5 6.4 7.6 8q0 1 3 4.4 3 3.3 3.1 4.4 1.2 10.5 3.7 20.8 2.2 8.8 6.2 20.6m-8.8-113q-4.8 1.9-10.2 6-2.1 4.7-3.3 8.3Q.2-37.2-1-31.7q2.3 2.8 4.7 6.5l5.1 7.9q-3 1.2-4.8 2.2-2 1-4.7 2.9 2.6 19 7.1 35.4 4.8 17.3 12.2 33.7"/><path fill="#FFF" stroke="#19344F" stroke-width="2.5" stroke-linecap="round" stroke-linejoin="round" d="M-1.4-4.8l-8 15.6L.9 16q2 1 4.1 1 2.3 0 4.3-1.2t3.1-3.2Q14 9.5 13 6T8.9 1L-1.4-4.8"/></g></g><mask id="d"><g fill="#FFF"><path d="M696.8 0H0v538h56.2q-16.6-48.4-16.6-103.8 0-130.8 92.5-223.3 92.6-92.6 223.4-92.6 130.9 0 223.4 92.6 92.6 92.5 92.6 223.3 0 55.4-16.6 103.8h41.9V0"/><path d="M654.9 538q16.6-48.4 16.6-103.8 0-130.8-92.6-223.3-92.5-92.6-223.4-92.6-130.8 0-223.3 92.6-92.5 92.5-92.5 223.3 0 55.4 16.5 103.8 22.6 66.2 76 119.6 92.5 92.5 223.3 92.5 130.9 0 223.4-92.5 53.4-53.4 76-119.6"/></g></mask><path fill="#43343A" fill-opacity=".5" d="M419.8 383.2q.6-9-20.9-2.8-19.4 5.9-32 14.8-6 4.3-12.3 10.2-5.7 5.2-8.6 7l-1.2-1.7-.3-.3q-3.3-3.7-8.2-3.7l-2.3.3q.8-1.3-2.5-12.6l-47.5-12q-11-4.6-18.7-4.7-9-.3-8.8 6.9v6l-1.1.3 1.3 75.5q.1 8.6 21.2 2.8 18.3-5.3 32-13.9 8.9-5.7 13.2-11l1.4-1.7.4-.5q.8-.8 1.1-.8 1.2 3.4 4 5.6 3 2.3 6.6 2.1 3.9 0 7-2.4 2.9-2.5 3.6-6.2 1.1 0 2.8 1.2 3.4 2.3 4.2 3 9.2 7.8 13.3 10.3 8.8 5.3 30.2 19 17.8 8.6 22.7-5.8.5-1 .5-3l.6-71.7-1-.3-.7-9.9"/><path fill="#77B078" stroke="#19344F" stroke-width="2.5" stroke-linecap="round" stroke-linejoin="round" d="M434.2 421.6q-.3-31.7-1.2-42.6.5-9-21-2.8-19.3 5.7-31.9 14.6-5.8 4.3-12.3 10.3-5.7 5.3-8.6 7.1l-1.2-1.7-.4-.3q-3.2-3.7-8.1-3.7-5.4 0-8.8 4.6h-.4l-7.1-7q-5-5-10.6-8.8l-2.5-1.5.2-.2-2.5-1.5-.1.1q-16-9.5-30.3-13.4-17.9-4.6-17.7 5.6v4.6q.1 12-.3 33.4l.4 43.8q.2 8.6 21.3 2.8 18.3-5.3 32-13.9 8.9-5.7 13.2-11 2.3-2.8 2.9-3 1 3.4 4 5.6 3 2.1 6.6 2.1 3.8 0 7-2.4 2.8-2.5 3.6-6.2.8 0 2.8 1.2l4.1 3q9.3 7.8 13.4 10.3 8.8 5.3 30.2 19 17.8 8.6 22.7-5.8.5-1.1.5-3 .3-26.7.1-39.3"/><path fill="#5F9053" d="M345.8 410q.8-6.2 1.2-7.2 1-1.4-2.3-12.6l-66.2-16.7-8.7 5 1.1 8.2q2 9.8 7.4 18.4 16.8 27.7 59.2 33.3 1.5.1 7.7-22.2l.6-6.1"/><path fill="none" stroke="#19344F" stroke-width="7" stroke-linecap="round" stroke-linejoin="round" d="M434.2 421.6q-.3-31.7-1.2-42.6.5-9-21-2.8-19.3 5.7-31.9 14.6-5.8 4.3-12.3 10.3-5.7 5.3-8.6 7.1l-1.2-1.7-.4-.3q-3.2-3.7-8.1-3.7-5.4 0-8.8 4.6h-.4l-7.1-7q-5-5-10.6-8.8l-2.5-1.5.2-.2-2.5-1.5-.1.1q-16-9.5-30.3-13.4-17.9-4.6-17.7 5.6v4.6q.1 12-.3 33.4l.4 43.8q.2 8.6 21.3 2.8 18.3-5.3 32-13.9 8.9-5.7 13.2-11 2.3-2.8 2.9-3 1 3.4 4 5.6 3 2.1 6.6 2.1 3.8 0 7-2.4 2.8-2.5 3.6-6.2.8 0 2.8 1.2l4.1 3q9.3 7.8 13.4 10.3 8.8 5.3 30.2 19 17.8 8.6 22.7-5.8.5-1.1.5-3 .3-26.7.1-39.3"/><path fill="#FFF" d="M189.3 198l77-28 80.9 49.3 80.1-50.6 77.5 26.7L458.7 4.6l-77 112.6-70.8.6L232.2 6.5l-43 191.4"/><path fill="#EC9695" d="M379 374.6q-4.3-4.2-10.3-4.2l-39.4.3q-5.9.2-10 4.3-4.4 4.3-4.2 10.1v5.4q0 6 4.3 10.2 4.2 4.3 10.2 4.2l39.4-.3q6-.2 10.2-4.4 4.2-4.1 4.2-10.1l-.2-5.4q0-6-4.1-10.1"/><path fill="#CB6766" d="M339 373.2q-9.8-3-17.1 4.7-2.6 3.1-3.4 4.3-.8 1.4-.6 14.2l5.3 9.2 11 2.8 33-7.2q-18-3.3-24.9-15.9-3.4-6.4-3.2-12.1"/><path fill="#A0A0A0" d="M537 326.9l-31.5-130.7-77.5-26.8-80.1 50.6-81-49.3-77 28-29.5 131.1 123.3 21.4 11.6 39.2q5.2 17.8 20.3 29.2 15.5 11.2 34 11 18.7 0 33.6-11.5 15-11.3 19.9-29.5l12.3-44.6-1.3 5.1L537 327m-157.8 73.3q-4.1 4.2-10.1 4.3l-39.5.3q-6 .2-10.2-4.1-4.3-4.2-4.3-10.2v-5.3q-.2-5.9 4.1-10.2 4.2-4.1 10-4.3l39.6-.3q6 0 10.3 4.2 4.1 4.1 4.1 10.1l.2 5.4q0 6-4.2 10.1"/><path fill="#888" d="M189 199.1l-29.3 130 106 18.3q-30-36.6-46-80-12.8-35-16-72.7-6.8 3.8-14.7 4.4"/><path fill="none" stroke="#19344F" stroke-width="7" stroke-linecap="round" stroke-linejoin="round" d="M232.1 6.4l78.8 111.3M232 6.5L159.7 329 283 350.4M381.8 117.2L458.6 4.5l77.6 321.6-122.8 23.2M484.8 116.3l-277 2.2"/><path fill="none" stroke="#19344F" stroke-width="7" stroke-linecap="round" stroke-linejoin="round" d="M428.1 295.5l-25.8 93.4q-4.9 18.1-19.8 29.5-14.9 11.4-33.7 11.5-18.4.2-34-11-15-11.4-20.3-29.3l-27.4-92.7M427.3 168.7L347 219.3l-80.9-49.5-77 28m238-29.2l77.6 26.8"/><path fill="none" stroke="#19344F" stroke-width="7" stroke-linecap="round" stroke-linejoin="round" d="M368.4 403.8q6-.1 10.2-4.3 4.1-4.1 4.1-10.1l-.1-5.4q0-6-4.2-10.2-4.3-4.1-10.3-4.1l-39.5.3q-5.9.1-10 4.3-4.3 4.3-4.2 10.1v5.4q0 6 4.3 10.2 4.2 4.3 10.2 4.1l39.5-.3M257 211l30.7 18.9M427.6 209.6L397.3 229"/><path fill="#A0A0A0" d="M340.1 565.6l-.1-14.3-41.7.3.8 100.2 15.6-.1-.3-41.4 20.5-.1-.2-14.3-20.3.1-.3-30.3 26-.1M361.5 551.1H345l17 48.6-17.3 51.8 14.8-.1 12.7-39.8 13.3 39.6 16.6-.1-18-51.5 16-48.8h-14.6l-11.9 37-12.1-36.7"/><path fill="none" stroke="#19344F" stroke-width="2.5" stroke-linecap="round" stroke-linejoin="round" d="M236.3 725.7q-39.8-16.5-73.2-42.8m73.2 42.8q58.1 24 121.6 23.5 63.6-.5 121.4-25.5 37.2-16.2 68.7-40.9"/></g></svg>