<svg xmlns="http://www.w3.org/2000/svg" baseProfile="basic" width="695" height="606" viewBox="0 0 695 606" preserveAspectRatio="xMinYMin meet"><g overflow="visible"><path fill="#77B078" stroke="#19344F" stroke-width="2.5" stroke-linecap="round" stroke-linejoin="round" d="M147.6 196.5q-32.8 32.8-50.8 75.3-18.7 44-18.7 92.2t18.7 92.2q18 42.5 50.8 75.3 32.8 32.9 75.3 50.8 44 18.7 92.2 18.7 48.3 0 92.3-18.7 42.5-18 75.3-50.8 32.8-32.6 50.8-75.3 18.5-44 18.5-92.2t-18.5-92.2q-18-42.5-50.8-75.3t-75.3-50.8Q363.4 127 315 127q-48.2 0-92.2 18.7-42.5 18-75.3 50.8"/><path fill="none" stroke="#19344F" stroke-width="6" stroke-linecap="round" stroke-linejoin="round" d="M482.6 196.4q-32.8-32.8-75.3-50.8-44-18.6-92.2-18.6t-92.3 18.7q-42.5 17.9-75.3 50.8-32.8 32.8-50.8 75.3-18.6 44-18.6 92.1 0 48.3 18.7 92.3 18 42.5 50.8 75.3t75.3 50.8q44 18.7 92.2 18.7t92.3-18.7q42.4-18 75.3-50.8 32.8-32.7 50.7-75.3 18.6-44 18.6-92.3 0-48.1-18.6-92.1-18-42.6-50.8-75.4"/><path fill="#9B808A" d="M423.6 445q-30-30-72.4-30H279q-42.4 0-72.3 30-30 30-30 72.3v36l8 7.6q10.8 8.8 24.9 16.3 45 23.8 105.5 23.8 57.7 0 103.8-23.8 23.2-12 34.6-23.8v-36q0-42.5-29.9-72.5"/><path fill="none" stroke="#19344F" stroke-width="6" stroke-linecap="round" stroke-linejoin="round" d="M176.7 553.4l8 7.4q10.8 8.9 24.9 16.4Q254.5 601 315 601q57.6 0 103.8-23.9 23.1-11.9 34.6-23.8v-36q0-42.4-30-72.4-30-30-72.4-30M176.6 553.4v-36.1q0-42.4 30-72.4 29.9-30 72.3-30"/><path fill="#856C76" d="M381.1 381.5q-28.2-6.3-73.3 8-41.3 13-76.5 36.3-36 23.8-42.7 43.4l5.7 9.3q7.8 11.8 18.2 24 33 39 79 67.7 2.5 1 21-8.5Q335 550 354.6 534q60.1-49 59.5-110.8-.3-34.2-33-41.7"/><g transform="translate(515 389.6) scale(2.335)"><animateTransform attributeName="transform" additive="replace" type="translate" dur="4.95s" keyTimes="0;1" values="0,0;0,0" fill="freeze"/><animateTransform attributeName="transform" additive="sum" type="translate" repeatCount="indefinite" dur="4.95s" keyTimes="0;0.01;0.364;0.374;0.384;0.394;0.404;0.414;0.424;0.434;0.444;0.455;0.465;0.737;0.747;0.758;0.768;0.778;0.788;0.798;0.808;0.818;0.828;0.838;0.848;0.859;0.869;0.879;0.889;0.898;0.899;1" values="514.95,389.55;514.95,389.5;514.95,389.5;514.95,389.55;514.95,389.5;514.95,389.55;511.45,389.35;507.95,389.15;504.45,389;500.95,388.8;497.45,388.65;493.95,388.5;493.95,388.45;493.95,388.45;493.95,388.5;495.45,388.55;496.95,388.6;498.45,388.7;499.95,388.75;501.45,388.85;502.95,388.9;504.45,389;505.95,389.05;507.45,389.15;508.95,389.2;510.45,389.3;511.95,389.35;513.45,389.45;514.95,389.55;514.95,389.55;0;0" calcMode="discrete"/><animateTransform attributeName="transform" additive="sum" type="translate" repeatCount="indefinite" dur="4.95s" keyTimes="0;0.899;1" values="0;514.95,389.55;514.95,389.55" calcMode="discrete"/><animateTransform attributeName="transform" additive="sum" type="scale" repeatCount="indefinite" dur="4.95s" keyTimes="0;0.898;0.899;1" values="2.335,2.335;2.335,2.335;1;1" calcMode="discrete"/><animateTransform attributeName="transform" additive="sum" type="scale" repeatCount="indefinite" dur="4.95s" keyTimes="0;0.899;1" values="1;2.335,2.335;2.335,2.335" calcMode="discrete"/><path fill="#7C538B" fill-opacity=".2" d="M39 23.9q9 1.4 16.9-1.3 8.2-2.8 12.6-9.2 4.8-7.2 3.7-17.5-8.8 15.3-20.5 15.2-8.4 0-20.4-8.8L28-.1q-.3-.5-1-1L6.3-15.2l-19.7-15.4q-.5-.4-1.3-.7l-4-3q-11.7-8.4-13.6-16Q-35-60.5-23-73.6q-10.2 2-15.9 8.6-5.1 5.9-5.7 14.3-.5 8 3.2 15.8 3.9 8 10.9 13.2l-.9 3.5-9.4 7.9q-1.1.6-2.6 3.5-1.5 3-2.3 6.6l-7.4 34.4q-2-.1-3.3 3.6-.8 2-1.7 6.2l-1.8 7.9q-.6 2 .3 3.9.9 1.9 2.8 2.7 4.9 2.2 8.2 4.9 2.2 1.8 6.8 6.9l.9.9q1.8 1.3 4.1 1.4 2.3 0 4.2-1.3l8.3-5.6q2.4-1.6 3-4.4.6-2.7-.8-5.1L9.3 38q5.2-3 8-8.2L22.6 17l.3.3q7 5.1 16.2 6.6"/><path fill="#FFF" d="M-37.3-65q-4.9 6.2-5 14.9-.2 8.2 3.9 16.3 4 8.3 11.2 13.4l7.9 5.8L-10-29l-5.5-4q-12-8.8-14.6-16.8-3.6-11.1 8.3-24.1-10.2 2-15.5 8.9"/><path fill="none" stroke="#19344F" stroke-width="2.1" stroke-linecap="round" stroke-linejoin="round" d="M-37.3-65q-4.9 6.2-5 14.9-.2 8.2 3.9 16.3 4 8.3 11.2 13.4l7.9 5.8m-18-50.3q5.3-6.8 15.5-8.9-11.9 13-8.3 24 2.6 8.1 14.6 16.9l5.5 4"/><path fill="#FFF" d="M59.1 24q8.3-2.8 12.6-9.3 4.8-7.2 3.7-17.5Q66.6 12.5 55 12.4q-8.4 0-20.5-8.8L29-.4 18.3 12.8l7.9 5.8q7 5.2 16.2 6.6Q51.3 26.6 59 24"/><path fill="none" stroke="#19344F" stroke-width="2.1" stroke-linecap="round" stroke-linejoin="round" d="M71.7 14.7q-4.3 6.5-12.6 9.3-7.8 2.6-16.7 1.2-9.1-1.4-16.2-6.6l-8-5.8m53.5 1.9q4.8-7.2 3.7-17.5Q66.6 12.5 55 12.4q-8.4 0-20.5-8.8L29-.4"/><path fill="#9B808A" stroke="#19344F" stroke-width="2.5" stroke-linecap="round" stroke-linejoin="round" d="M-3.5 28.2l-.7 4.2q-.7 5.1-.4 9.4Q-3.6 55.5 7 56q15.9.8 17.5-14.5.5-4.8-.5-10.7l-1-4.9-26.6 2.3"/><path fill="#8F897D" d="M30.2 7.7q1.6-2.9 1.7-4.1.3-2-1.7-3.4L9.6-13.9l-19.7-15.4q-2-1.4-3.7-.5-1.2.5-3.5 2.8l-18.2 15.3q-5.3 5.4-7 12.8l-8.7 40.5q-.4 2 .3 4t2.4 3.2l16 11.7Q-30 62.3-26 64q5 2.3 6.5 1.4l32-26.1q5.2-3 8-8.2l9.7-23.5"/><path fill="none" stroke="#19344F" stroke-width="2.1" stroke-linecap="round" stroke-linejoin="round" d="M9.6-13.9l-19.7-15.4q-2-1.4-3.7-.5-1.2.5-3.5 2.8l-18.2 15.3q-5.3 5.4-7 12.8l-8.7 40.5q-.4 2 .3 4t2.4 3.2l16 11.7Q-30 62.3-26 64q5 2.3 6.5 1.4l32-26.1q5.2-3 8-8.2l9.7-23.5q1.6-2.9 1.7-4.1.3-2-1.7-3.4L9.6-13.9"/><path fill="none" stroke="#19344F" stroke-width="2.1" stroke-linecap="round" stroke-linejoin="round" d="M8.5-14.6l1 .7 1 .8-2-1.5"/><path fill="#7A7569" d="M-16.8-9.7q-2.5-4.2-6.6-7.1l-3.6-2L-57.2-5q-1.3.7-2.8 1.8-1.7 1.3-2.3 2.2-9.1 15.2-11.9 16.9-1.7 1.1-1 11.2.3 5 1 9.9l10 12.8Q-53.3 62.5-48.6 62q4.7-.5 10.7-9.7 3-4.6 5-9.1l13.4-19q10.8-20.7 2.7-34"/><path fill="#7B7566" stroke="#19344F" stroke-width="2.1" stroke-linecap="round" stroke-linejoin="round" d="M-20.9 55.2l-1.9-1.7q-10-9.1-21.8-15.8l-1.3-.8q-3.1-2.2-6.6-1-3.6 1.2-4.7 4.8l-3.2 10.9q-.6 2 .3 3.8.9 1.9 2.8 2.8 10.7 4.6 18.8 13.4l.8.9q1.9 1.4 4.2 1.4 2.3 0 4.2-1.3l8.2-5.6q3.1-2.1 3.2-5.8 0-3.8-3-6"/><path fill="#79756B" stroke="#19344F" stroke-width="2.1" stroke-linecap="round" stroke-linejoin="round" d="M-44.9 52.9q1.2-1.6.9-3.5-.3-2-2-3.1-1.5-1.2-3.5-.9-2 .3-3.1 1.9-2 2.8 1.9 5.5 3.8 2.9 5.8.1M-34.8 56.1q-2 .3-3.1 1.9-2 2.8 1.8 5.5 3.9 2.9 5.9.1 1.1-1.6.8-3.5-.3-2-1.9-3.1-1.6-1.2-3.5-.9"/><path fill="none" stroke="#19344F" stroke-width="2.1" stroke-linecap="round" stroke-linejoin="round" d="M-30.1-15.2q9.1 7 10.5 18.5 1.3 11.6-6.1 21.7L-34.6 37m4.5-52.3l-.4-.3-.3-.2"/><path fill="#8F897D" d="M-17.3 31l-8.9 12.2 48.5-20.1q-9.6-6.7-20.8-4.4Q-10 21-17.3 31.1"/><path fill="none" stroke="#19344F" stroke-width="2.1" stroke-linecap="round" stroke-linejoin="round" d="M-17.3 31l-8.9 12.2m8.9-12.1Q-10 21 1.5 18.7q11.2-2.3 20.8 4.4l.7.5"/><path fill="#8F897D" d="M-30.8-7.2l4 12.7Q-25.6.3-28-4l-2.8-3.2"/><path fill="none" stroke="#19344F" stroke-width="2.1" stroke-linecap="round" stroke-linejoin="round" d="M-28-4q2.4 4.3 1.2 9.5M-28-4l-2.8-3.2"/><path fill="#19344F" d="M-26.9 1.4q.6-.7.4-1.6-.1-1-.9-1.5-.7-.5-1.6-.4-1 .2-1.4.9-.6.7-.4 1.6.1 1 .9 1.5.7.5 1.6.4.9-.2 1.4-1"/><path fill="#8F897D" d="M13.7 25.3q-1.5-1.1-3.9-1.6Q5 22.6.4 25.3h13.3"/><path fill="none" stroke="#19344F" stroke-width="2.1" stroke-linecap="round" stroke-linejoin="round" d="M13.7 25.3q-1.5-1.1-3.9-1.6Q5 22.6.4 25.3"/><path fill="#19344F" d="M5.8 23.3q-.9.2-1.4.9-.6.7-.4 1.6.1.9.8 1.5.8.5 1.7.4.9-.2 1.4-1 .6-.6.4-1.5-.1-1-.9-1.5-.7-.5-1.6-.4"/><path fill="#EAB091" stroke="#19344F" stroke-width="2.5" stroke-linecap="round" stroke-linejoin="round" d="M2.9 32q-4.8.7-7.7 4.5-2.9 3.8-2.2 8.6.7 4.8 4.5 7.7 3.7 2.7 7.8 1.5Q9 53.2 12 49.1t3.1-8q0-4.2-3.6-7-3.8-2.8-8.6-2.1"/></g><g transform="translate(143 437.6) scale(2.335)"><animateTransform attributeName="transform" additive="replace" type="translate" dur="4.95s" keyTimes="0;1" values="0,0;0,0" fill="freeze"/><animateTransform attributeName="transform" additive="sum" type="translate" repeatCount="indefinite" dur="4.95s" keyTimes="0;0.01;0.192;0.202;0.212;0.222;0.232;0.242;0.253;0.263;0.273;0.364;0.374;0.384;0.737;0.747;0.758;0.768;0.778;0.788;0.798;0.808;0.818;0.828;0.838;0.848;0.859;0.869;0.879;0.888;0.889;1" values="143,437.65;142.95,437.6;142.95,437.6;143,437.65;145.6,436.75;148.3,435.9;150.95,435.1;153.6,434.25;156.3,433.4;159,432.6;158.95,432.65;158.95,432.65;159,432.6;158.95,432.65;158.95,432.65;159,432.6;157.8,433;156.65,433.35;155.5,433.75;154.4,434.1;153.25,434.45;152.1,434.8;150.95,435.15;149.8,435.55;148.65,435.9;147.5,436.25;146.4,436.6;145.25,437;144.1,437.35;143,437.65;0;0" calcMode="discrete"/><animateTransform attributeName="transform" additive="sum" type="translate" repeatCount="indefinite" dur="4.95s" keyTimes="0;0.889;1" values="0;143,437.65;143,437.65" calcMode="discrete"/><animateTransform attributeName="transform" additive="sum" type="scale" repeatCount="indefinite" dur="4.95s" keyTimes="0;0.888;0.889;1" values="2.335,2.335;2.335,2.335;1;1" calcMode="discrete"/><animateTransform attributeName="transform" additive="sum" type="scale" repeatCount="indefinite" dur="4.95s" keyTimes="0;0.889;1" values="1;2.335,2.335;2.335,2.335" calcMode="discrete"/><path fill="#7C538B" fill-opacity=".2" d="M49.8 24.8Q60.8.1 57-11.6 50.8-31.3 32.4-41q-18.3-9.5-38.1-3.3-19.7 6.3-29.2 24.7-9.5 18.3-3.3 38Q-34.6 30-8.4 43.3q14.3 7.2 39.2 17.7 15.2-27.6 19-36.1"/><path fill="#7C538B" fill-opacity=".2" d="M-37-6.4l8.5-22.6-30.6 6q-2.1 7.5 2.7 13.8 4.7 6.3 12.5 6.3.7 0 1.2-.3l5.7-3.2"/><path fill="#9B808A" stroke="#19344F" stroke-width="2.5" stroke-linecap="round" stroke-linejoin="round" d="M-28.2 20q4.9-5.3 8.3-12.3L-40.5-9.1q-1 1.2-2.3 3.2Q-45.5-2-47.1 2q-5.1 12.6 2 20.6 7 8 16.9-2.6"/><path fill="#9A7254" d="M50.4 21.8q12.4-25.5 8.7-37.1Q52.8-35 34.5-44.5 16-54.1-3.6-47.8-23.3-41.6-33-23.2q-9.5 18.3-3.3 38 3.7 11.7 28.5 25.4Q5.8 47.7 30 58.5 32.5 54 39.6 42q6.8-11.8 10.8-20.2"/><path fill="none" stroke="#19344F" stroke-width="2.5" stroke-linecap="round" stroke-linejoin="round" d="M50.4 21.8q12.4-25.5 8.7-37.1Q52.8-35 34.5-44.5 16-54.1-3.6-47.8-23.3-41.6-33-23.2q-9.5 18.3-3.3 38 3.7 11.7 28.5 25.4Q5.8 47.7 30 58.5 32.5 54 39.6 42q6.8-11.8 10.8-20.2"/><path fill="#835E44" d="M32.9-36.3Q19-49.6 13-48.8l-4 14q-3.4 15.4-.4 21.4 2.7 5.2 1.2 8.3-2 3.9-1.2 7.8 1.2 5.6 4.6 9.8 1.8 2.2 3.7 4 .2.3 2.7 2 2.9 2.3 5 5.7 6.6 11 4.1 32.6 1 0 16.8-25.7l-1.1-17.3q-1.1-17.4-.8-18.1.3-.7-2-8.2-2.3-7.3-2.8-8-.4-.6-3.2-8-2.8-7.3-2.8-7.8"/><path fill="none" stroke="#19344F" stroke-width="2.5" stroke-linecap="round" stroke-linejoin="round" d="M2.2 17.4q.6 2 2.5 2.9 1.8 1 3.8.4l16.7-5.3q2-.7 3-2.5 1-1.9.3-3.9v-.2M2.2 17.4L2 17"/><path fill="#9A7254" d="M-57.1-26.7q-2 7.6 2.7 13.8 4.7 6.3 12.6 6.3.7 0 1.2-.3l5.6-3.2 8.5-22.6-30.6 6"/><path fill="none" stroke="#19344F" stroke-width="2.5" stroke-linecap="round" stroke-linejoin="round" d="M-57.1-26.7q-2 7.6 2.7 13.8 4.7 6.3 12.6 6.3.7 0 1.2-.3l5.6-3.2m-22.1-16.6l30.6-6"/><path fill="#9A7254" d="M48.2-35q.6 0 1.1-.4Q55.7-40 56-47.8q.3-7.9-5.8-12.9L21.8-47.9l19.9 13.5 6.5-.6"/><path fill="none" stroke="#19344F" stroke-width="2.5" stroke-linecap="round" stroke-linejoin="round" d="M49.3-35.4q-.5.4-1.1.4l-6.5.6m7.6-1Q55.7-40 56-47.8q.3-7.9-5.8-12.9L21.8-47.9"/><path fill="#9A7254" d="M-40-21.1q-2.4.2-3.4 2.4-1 2.1.4 4l9.3-6.9-6.3.5"/><path fill="none" stroke="#19344F" stroke-width="2.5" stroke-linecap="round" stroke-linejoin="round" d="M-43.4-18.7q1-2.2 3.4-2.4l6.3-.5m-9.7 2.9q-1 2.1.4 4"/><path fill="#9A7254" d="M34-43l11.6.3q.1-2.4-2-3.6-2.1-1.2-4.1 0L34-43"/><path fill="none" stroke="#19344F" stroke-width="2.5" stroke-linecap="round" stroke-linejoin="round" d="M39.5-46.3L34-43m5.5-3.3q2-1.2 4.1 0 2.1 1.2 2 3.6"/><path fill="#9A7254" d="M-8.9 7.3q1.6 5 6.3 7.4 4.6 2.5 9.7.9l3.1-1-18-17.4Q-10.6 2-9 7.2"/><path fill="none" stroke="#19344F" stroke-width="2.5" stroke-linecap="round" stroke-linejoin="round" d="M-8.9 7.3q1.6 5 6.3 7.4 4.6 2.5 9.7.9l3.1-1M-8.9 7.3q-1.7-5.2 1-10.1"/><path fill="#9A7254" d="M20.8 11.2l3.2-1q5-1.6 7.4-6.3 2.5-4.6.9-9.7-.8-2.5-2.6-4.5-1.7-2-4.1-3.1l-4.8 24.6"/><path fill="none" stroke="#19344F" stroke-width="2.5" stroke-linecap="round" stroke-linejoin="round" d="M24 10.2l-3.2 1m3.2-1q5-1.6 7.4-6.3 2.5-4.6.9-9.7-.8-2.5-2.6-4.5-1.7-2-4.1-3.1"/><path fill="#6C594B" stroke="#19344F" stroke-width="2.5" stroke-linecap="round" stroke-linejoin="round" d="M3.2-.6q-2.3 3-1.6 5.4.7 2.2 4.2 2.8 3.5.6 7.8-.8 4.2-1.3 6.8-3.8 2.5-2.5 1.8-4.7-.7-2.3-4.4-3.5-4-1.4-8-.1Q5.7-4 3.2-.6"/><path fill="none" stroke="#19344F" stroke-width="2.5" stroke-linecap="round" stroke-linejoin="round" d="M-22.8-15.7l14.2-.8M28.8-33L17-24.6"/><path fill="#19344F" d="M-14.7-15.7q-.3-1-1.2-1.4-1-.5-2-.2-.9.3-1.3 1.2-.5.9-.2 1.9.3 1 1.2 1.4.9.5 1.9.2.9-.3 1.4-1.2.5-1 .2-1.9M26.2-28.7q-.3-1-1.2-1.4-1-.5-1.9-.2-1 .4-1.4 1.3-.5.9-.2 1.8.3 1 1.2 1.5.9.4 1.9.1 1-.3 1.4-1.2.5-1 .2-1.9"/><path fill="#EAB091" stroke="#19344F" stroke-width="2.5" stroke-linecap="round" stroke-linejoin="round" d="M-24.1 15.4q0-4.9-3.4-8.3-3.4-3.4-8.3-3.4-4.6 0-7 3.4-2.3 3.1-2.3 8.3 0 5 2.3 8.2 2.4 3.4 7 3.4 4.9 0 8.3-3.4 3.4-3.4 3.4-8.2"/></g><g transform="translate(304.6 295.9) scale(2.335)"><animateTransform attributeName="transform" additive="replace" type="translate" repeatCount="indefinite" dur="4.95s" keyTimes="0;0.01;0.121;0.131;0.141;0.152;0.162;0.172;0.182;0.192;0.293;0.303;0.313;0.323;0.333;0.343;0.354;0.364;0.374;0.384;0.475;0.485;0.495;0.505;0.515;0.525;0.535;0.545;1" values="306.535,368.051;306.485,367.884;306.485,367.884;306.535,368.051;306.593,367.854;306.706,367.768;306.611,367.915;306.551,368.058;306.713,367.949;306.549,367.992;306.549,367.992;306.713,367.949;306.456,368.034;306.438,367.919;306.457,367.889;306.503,367.845;306.466,367.914;306.592,367.98;306.563,368.048;306.597,368.006;306.597,368.006;306.563,368.048;306.617,368.069;306.612,367.87;306.647,368.083;306.47,367.943;306.502,367.947;306.535,368.051;306.535,368.051" calcMode="discrete"/><animateTransform attributeName="transform" additive="sum" type="rotate" repeatCount="indefinite" dur="4.95s" keyTimes="0;0.131;0.141;0.152;0.162;0.172;0.182;0.192;0.293;0.303;0.313;0.323;0.333;0.343;0.354;0.364;0.374;0.384;0.475;0.485;0.495;0.505;0.515;0.525;0.535;0.545;1" values="0,0,0;0,0,0;-2.501,0,0;-4.299,0,0;-5.772,0,0;-6.543,0,0;-6.945,0,0;-6.801,0,0;-6.801,0,0;-6.945,0,0;-3.278,0,0;-0.268,0,0;2.041,0,0;4.025,0,0;5.308,0,0;6.265,0,0;6.58,0,0;6.524,0,0;6.524,0,0;6.58,0,0;4.52,0,0;2.795,0,0;1.537,0,0;0.56,0,0;0.047,0,0;0,0,0;0,0,0" calcMode="discrete"/><animateTransform attributeName="transform" additive="sum" type="scale" repeatCount="indefinite" dur="4.95s" keyTimes="0;0.131;0.141;0.162;0.172;0.182;0.192;0.293;0.303;0.313;0.323;0.333;0.343;0.354;0.364;0.374;0.384;0.475;0.485;0.505;0.515;1" values="2.335,2.335;2.335,2.335;2.334,2.334;2.334,2.334;2.333,2.333;2.334,2.334;2.333,2.333;2.333,2.333;2.334,2.334;2.334,2.334;2.335,2.335;2.334,2.334;2.334,2.334;2.333,2.333;2.333,2.333;2.334,2.334;2.333,2.333;2.333,2.333;2.334,2.334;2.334,2.334;2.335,2.335;2.335,2.335" calcMode="discrete"/><animateTransform attributeName="transform" additive="sum" type="translate" repeatCount="indefinite" dur="4.95s" keyTimes="0;0.01;0.121;0.131;0.141;0.152;0.162;0.172;0.182;0.192;0.293;0.303;0.313;0.323;0.333;0.343;0.354;0.364;0.374;0.384;0.475;0.485;0.495;0.505;0.515;0.525;0.535;0.545;1" values="-0.85,-30.9;-0.85,-30.85;-0.85,-30.85;-0.85,-30.9;-0.9,-30.85;-0.95,-30.8;-0.9,-30.85;-0.85,-30.9;-0.9,-30.85;-0.85,-30.85;-0.85,-30.85;-0.9,-30.85;-0.8,-30.85;-0.8,-30.85;-0.85,-30.85;-0.85,-30.8;-0.85,-30.85;-0.9,-30.85;-0.85,-30.95;-0.85,-30.9;-0.85,-30.9;-0.85,-30.95;-0.9,-30.95;-0.85,-30.85;-0.9,-30.95;-0.8,-30.85;-0.8,-30.9;-0.85,-30.9;-0.85,-30.9" calcMode="discrete"/><path fill="#EAB091" stroke="#19344F" stroke-width="2.5" stroke-linecap="round" stroke-linejoin="round" d="M-7.1 72l17.8 2.3 9.6-33.4-33.2 1.7L-7.1 72"/><path fill="#AECCE1" stroke="#19344F" stroke-width="2.5" stroke-linecap="round" stroke-linejoin="round" d="M-9.7 47q-.9-.5-1.8-.3l-7.2 1.7q-.8.2-1.3.9t-.4 1.6l2.9 21.4q.2 1 1 1.6.9.6 1.9.3l7.5-2.2q.8-.3 1.3-1 .4-.7.3-1.6l-3.3-20.8q-.1-1-1-1.5M27.4 49.3q-.5-.7-1.3-1l-7.2-1.6q-1-.2-1.7.4-.8.5-1 1.5l-3.3 20.8q-.1.9.3 1.6.5.7 1.3 1l7.5 2.2q1 .3 1.9-.3.9-.5 1-1.6l2.9-21.4q.1-.9-.4-1.6"/><path fill="#FFF" stroke="#19344F" stroke-width="2.5" stroke-linecap="round" stroke-linejoin="round" d="M3.7 90l9.2-20.6Q4.6 74-1.3 72.1q-1.8-.5-3.2-1.7l-1-1L3.7 90"/><path fill="#5E9A5F" fill-opacity=".5" d="M29-95l-.4 1.6-9.9-2 .7-6.2q.4-2.9-1.5-5.1-1.9-2.3-4.8-2.5h-.2q-2.8-.2-5 1.7-2.1 1.8-2.3 4.7l-.5 6.7q-5.8-.2-11.6 0l-.5-6.7q-.2-2.9-2.3-4.7-2.2-2-5-1.7h-.1q-3 .2-4.8 2.5-2 2.2-1.6 5.1l.7 6.3q-2.4.3-9.8 1.9l-.4-1.5q-1.7-5.9-4.3-7.7-3-2.1-7.8.4l4.4 29.9q-4 4-6.4 9.1-1.2 2.6-1.6 4.3h-12.8l8.9 7.4q-9.8 14.5-5.4 30.9 2.2 8.2 6.4 13.6h.7l1 6.6q-1.4 6.6-2.9 12 2.7 1.2 4.7 3.8 3.1 4.2 2.6 9.9h.3l1.3-.1q5.5 11 16.4 17.3 11 6.3 23.9 5.2l5.6-.5q10.8-1 19.4-7.1 8.3-6 12.8-15.3 1.9.3 3.4.1 5.4-.4 8.9-4.6 3.5-4.2 3-9.6-.4-4.6-3.6-8Q45.4-.4 40.9-1l.2-9.1h.8q4.4-9 5.4-13.8 2.3-10.1-2.3-19.3l9 3.2q-2-9.6-7.4-17.2 4.2-3.1 6.3-5.6l-4.8-1.8L54-70q-6-7.3-13.7-11.3l5.8-20.9q-5-2.7-10.3-.4-5.2 2.2-6.8 7.7"/><path fill="#B69A8B" d="M-32-73.2q-4.5 4.2-7.2 9.7L-41-59h-12.8l8.9 7.4q-9.8 14.5-5.4 30.9 2.2 8.2 6.4 13.6l90.8-3.2q4.4-9 5.4-13.8 2.3-10.1-2.3-19.3l9 3.2q-4.5-22.6-28.4-34.2-7.4-3.7-15.9-5.8l-7-1.4q-25.6-5-39.7 8.3"/><path fill="none" stroke="#19344F" stroke-width="2.5" stroke-linecap="round" stroke-linejoin="round" d="M-39.2-63.5q2.7-5.5 7.2-9.7 14-13.3 39.7-8.3l7 1.4q8.5 2.1 15.9 5.8Q54.5-62.7 59-40.1l-9-3.2q4.6 9.2 2.3 19.3-1 4.8-5.4 13.8m-86.1-53.3L-41-59h-12.8l8.9 7.4q-9.8 14.5-5.4 30.9 2.2 8.2 6.4 13.6"/><path fill="#CC9680" stroke="#19344F" stroke-width="2.5" stroke-linecap="round" stroke-linejoin="round" d="M-25.6 11q-.5-5.3-4.6-8.8-4.2-3.5-9.6-3-5.5.5-9 4.6-3.4 4.2-3 9.6.6 5.4 4.7 8.9 4.2 3.5 9.6 3 5.4-.5 8.9-4.6 3.5-4.2 3-9.6"/><path fill="#EAB091" stroke="#19344F" stroke-width="2.5" stroke-linecap="round" stroke-linejoin="round" d="M57.2 10.7q-.5-5.4-4.6-9-4.2-3.4-9.6-3-5.5.6-9 4.7-3.4 4.2-3 9.6.6 5.5 4.7 8.9 4.2 3.5 9.6 3 5.4-.4 8.9-4.6 3.5-4.2 3-9.6"/><path fill="#EAB091" stroke="#19344F" stroke-width="2.5" stroke-linecap="round" stroke-linejoin="round" d="M-35.3-44.2q-10.8 11.6-9.3 28.8l4.3 26q1.5 16.8 14.5 27.7 13 10.9 29.9 9.4l5.6-.5q16.8-1.5 27.2-14.5 10.4-13 8.9-30l.6-26.3q-1.4-15.9-14-22.7-11.1-6-29.4-4.4l-10.5-3.1q-16.7-2.2-27.8 9.6"/><path fill="#FBDE7F" stroke="#19344F" stroke-width="2.5" stroke-linecap="round" stroke-linejoin="round" d="M-32.1-102.6q-5.3-2.3-10.3.4l9.4 29.9q13.5-5.7 37.5-4.4 22.8 1.1 37.5 7.4l9-32.9q-5-2.7-10.2-.4-5.2 2.2-6.8 7.7l-.4 1.5-9.9-2 .7-6.2q.4-2.9-1.5-5.1-1.9-2.3-4.8-2.5h-.2q-2.8-.2-5 1.7-2.1 1.8-2.3 4.7l-.5 6.7q-5.8-.2-11.6 0l-.5-6.7q-.2-2.9-2.3-4.7-2.2-2-5-1.7h-.1q-3 .2-4.8 2.5-2 2.2-1.6 5.1l.7 6.3q-2.4.3-9.8 1.9l-.4-1.5q-1.6-5.5-6.8-7.7"/><path fill="#997E6F" d="M-.7-77L-17-75l.7 8.3q1.6 8.8 6.1 11.2 4.6 2.5 8.4-4.8Q0-64 1-68.1L-.7-77"/><path fill="#C8A896" stroke="#19344F" stroke-width="2.5" stroke-linecap="round" stroke-linejoin="round" d="M40.3-51q11.4-4.6 17.6-12l-4.8-1.7L59-70Q45.7-86 26.7-85.8q-6 0-11.8 1.7l-4.6 1.6 4.2-6.8Q-6.1-83.7-9.6-68.4q-1.7 7.7.7 14.2Q17.4-41.4 40.3-51"/><path fill="none" stroke="#19344F" stroke-width="2.5" stroke-linecap="round" stroke-linejoin="round" d="M-22.2-15.8l.1 8M23-16.8l.2 8M1.7 7.2q-3.2.2-5.6-1.8Q-6.4 3.3-6.6 0m8.3 7Q4.9 7 7 4.5 9 2 8.8-1.2"/><path fill="#19344F" d="M-.7 91.5q0-1-.7-1.7t-1.7-.7q-1 0-1.7.7t-.7 1.7q0 1 .7 1.7.8.7 1.7.7 1 0 1.7-.7t.7-1.7"/><path fill="#C8A896" stroke="#19344F" stroke-width="2.5" stroke-linecap="round" stroke-linejoin="round" d="M40.5 18.9q-.2 1.8-.8 2.7-2.3 3.7-7.1 1.3l-6.7-4.7q-3.5-2.5-8.5-3.1-3.7-.4-9 .2-3.1.4-7.1.5H-6q-4.7.1-6.4.4-3.6.5-6.1 2-4.8 3.6-7.5 4.9-5.1 2.5-7.8-1.2-1.1-1.5-1.5-4.4-.2-3.2-.5-4.7-.5-2.4-2.5-6.5-2.5-5-3-6.3 0-.2-.4-.1-.5 0-.5.2v8.2q-.1 4.6-1.7 7.7l-3.8 6q-2.4 3.7-2.9 6.2.3-.6 1.9-1.4 1.9-1 2.2-1.3.7-.6 1.7-1.1l.3-.2-.2.2q-1.3 1.8-2.4 4.3-2 4.3-3.1 10.6-2 11.2-.6 21.6 0 .1.2 0l.2-.1q0-2 1.5-5.4v.2l-.1 2q0 1.6.3 3.6.7 6.5 3.8 12.3 0 .1.2 0 .1 0 0-.1l-.2-4.4v-2 .4q.4 2.9 2.1 6.4 2.5 5.2 9.4 11.9h.3v-.2q-1.5-1.6-2.1-5.2l.5.8 1.4 2.3q2.7 3.9 7.9 7.2 8 5.1 10.3 6.8 5.7 4 9.5 8 0 .1.2 0v-.1q0-1.8.2-2.6 0-1.3.3-1l.6 1.3q2.2 3.6 2.3 6.2l.1.2.2-.2q2.7-6.6 8.5-8.8l4.4-1.4.5-.2-.2.5q-1.3 2.2-4.9 4.8-.1 0 0 .2 0 .1.2 0 11.8-2.5 22-10.4 4.9-4 8.9-8.2 2.1-2.3 3.3-4.6l-.2 1.4q-.4 2.3-1.8 3.9-.1 0 0 .2h.2q6.4-6.2 9.2-11.5 1.7-3.2 2.2-6.8l.1-1.2v2.2q.1 1.3-.2 5-.1.1 0 .2l.3-.1q2.9-5.6 3.7-12.2.4-3.2.2-6l.7 1.6q.7 1.7.9 3.9l.1.2q.2 0 .2-.2 1.3-8.7-.1-18.6-.6-4.4-2.2-7.8-1.2-2.8-4.2-7.1.5.3 3 .8 1.8.3 2.3 1.3-.4-2.4-2.7-5.6l-3.8-5q-2.8-3.7-3.3-9.5-.3-3.4.3-10.3-3.1 5.6-4 10.6 0 .7-1.1 5.6l-.4 2.8"/><path fill="#E77F81" stroke="#19344F" stroke-width="2.5" stroke-linecap="round" stroke-linejoin="round" d="M-23.9-86.9q-1-1-2.3-1-1.4 0-2.3 1-1 1-1 2.4 0 1.3 1 2.3.9 1 2.3 1t2.3-1q1-1 1-2.3 0-1.4-1-2.4M-5.5-86.7q0-1.4-1-2.3-1-1-2.3-1-1.4 0-2.3 1-1 .9-1 2.3t1 2.3q.9 1 2.3 1 1.3 0 2.3-1 1-1 1-2.3"/><path fill="none" stroke="#19344F" stroke-width="2.5" stroke-linecap="round" stroke-linejoin="round" d="M-28.3-26.2H-17M18-23.8L29.6-29"/></g><g display="none"><path fill="none" stroke="#19344F" stroke-width="6" stroke-linecap="round" stroke-linejoin="round" d="M184.7 101v15.2M192.3 108.6h-15M442.3 83.1v15.2M449.8 90.7h-15.1M315.1 4.5v15.1M322.6 12.1h-15"/><animate attributeName="display" repeatCount="indefinite" dur="4.95s" keyTimes="0;0.586;0.626;0.646;0.747;1" values="none;inline;none;inline;none;none"/></g><g display="none"><path fill="none" stroke="#19344F" stroke-width="6" stroke-linecap="round" stroke-linejoin="round" d="M27.4 335.2L9.3 326M53.9 315.8l-14.4-26.2M618.1 335.2l18-9.2M591.5 315.8l14.4-26.2"/><animate attributeName="display" repeatCount="indefinite" dur="4.95s" keyTimes="0;0.02;0.071;1" values="none;inline;none;none"/></g></g></svg>