<svg xmlns:xlink="http://www.w3.org/1999/xlink" xmlns="http://www.w3.org/2000/svg" baseProfile="basic" width="695" height="862" viewBox="0 0 695 862" preserveAspectRatio="xMinYMin meet"><defs><symbol id="a" overflow="visible"><path fill="none" stroke="#19344F" stroke-width="2.5" stroke-linecap="round" stroke-linejoin="round" d="M-.4-11.6v-15.3M-25.4 0l-10.8-10.8M25.5-2.1L36.4-13"/></symbol></defs><g overflow="visible"><path fill="none" stroke="#19344F" stroke-width="7" stroke-linecap="round" stroke-linejoin="round" d="M136.8 838.1H157M6 838.1h112.3M548.1 838.1h142.6"/><path fill="#ACDDF2" stroke="#19344F" stroke-width="8" stroke-linecap="round" stroke-linejoin="round" d="M650.5 614.7q25.9-61.1 25.9-128t-26-128q-24.9-59-70.4-104.4-45.5-45.6-104.5-70.6-61.1-25.8-128-25.8t-128 25.8q-59 25-104.5 70.6-45.5 45.4-70.5 104.4-25.9 61.1-25.9 128t26 128q24.9 59 70.4 104.5 45.6 45.5 104.5 70.4 61.1 25.8 128 25.8t128-25.8q59.1-24.9 104.5-70.4 45.5-45.6 70.5-104.5"/><path fill="#FFF" d="M601.7 330.6h-89V662h89V330.6"/><path fill="none" stroke="#19344F" stroke-width="2.5" stroke-linecap="round" stroke-linejoin="round" d="M512.8 330.6h89V662m-89-331.4V662"/><path fill="#FFF" stroke="#19344F" stroke-width="2.5" stroke-linecap="round" stroke-linejoin="round" d="M601.7 352.8h-88.4v65.6h88.4v-65.6"/><path fill="none" stroke="#19344F" stroke-width="2.5" stroke-linecap="round" stroke-linejoin="round" d="M513.3 432h86.5M513.3 448.9h86.5M513.3 468.8h86.5M513.3 485.6h86.5M513.3 502.6h86.5M513.3 519.6h86.5M513.3 536.5h86.5M513.3 553.5h86.5M513.3 570.5h86.5M513.3 587.4h86.5M513.3 604.4h86.5M513.3 621.4h86.5"/><path fill="#FFF" d="M523.3 365.3v14.5h9v-14.5h-9"/><path fill="none" stroke="#19344F" stroke-width="2.5" stroke-linecap="round" stroke-linejoin="round" d="M523.3 365.3v14.5h9v-14.5h-9"/><path fill="#FFF" d="M552.2 379.8v-14.5H543v14.5h9"/><path fill="none" stroke="#19344F" stroke-width="2.5" stroke-linecap="round" stroke-linejoin="round" d="M552.2 379.8v-14.5H543v14.5h9"/><path fill="#FFF" d="M572 379.8v-14.5h-9.2v14.5h9.1"/><path fill="none" stroke="#19344F" stroke-width="2.5" stroke-linecap="round" stroke-linejoin="round" d="M572 379.8v-14.5h-9.2v14.5h9.1"/><path fill="#FFF" d="M591.7 379.8v-14.5h-9v14.5h9"/><path fill="none" stroke="#19344F" stroke-width="2.5" stroke-linecap="round" stroke-linejoin="round" d="M591.7 379.8v-14.5h-9v14.5h9"/><path fill="#FFF" d="M532.4 405.8v-14.5h-9v14.5h9"/><path fill="none" stroke="#19344F" stroke-width="2.5" stroke-linecap="round" stroke-linejoin="round" d="M532.4 405.8v-14.5h-9v14.5h9"/><path fill="#FFF" d="M552.2 405.8v-14.5H543v14.5h9"/><path fill="none" stroke="#19344F" stroke-width="2.5" stroke-linecap="round" stroke-linejoin="round" d="M552.2 405.8v-14.5H543v14.5h9"/><path fill="#FFF" d="M572 405.8v-14.5h-9.2v14.5h9.1"/><path fill="none" stroke="#19344F" stroke-width="2.5" stroke-linecap="round" stroke-linejoin="round" d="M572 405.8v-14.5h-9.2v14.5h9.1"/><path fill="#FFF" d="M591.7 405.8v-14.5h-9v14.5h9"/><path fill="none" stroke="#19344F" stroke-width="2.5" stroke-linecap="round" stroke-linejoin="round" d="M591.7 405.8v-14.5h-9v14.5h9"/><path fill="#FFF" stroke="#19344F" stroke-width="8" stroke-linecap="round" stroke-linejoin="round" d="M601.7 330.6h-89v327.7h89V330.6"/><path fill="none" stroke="#19344F" stroke-width="8" stroke-linecap="round" stroke-linejoin="round" d="M512.8 330.6h89v327.7m-89-327.7v327.7"/><path fill="#FFF" stroke="#19344F" stroke-width="8" stroke-linecap="round" stroke-linejoin="round" d="M512.8 330.6v41.3h88.6v-41.3h-88.6"/><path fill="#EC9695" d="M27.9 569.6Q57.5 675 145.8 744.3q90.5 71.1 201.7 71.1 114.4 0 203.3-68.9 88.2-68 115.4-175.4l-638.4-1.5"/><path fill="#DC7E7D" d="M297.8 812.2q80 21.3 180.6-24.8 50.2-23.2 84.4-50.6-146.1-72.2-305.4-48-49.7 7.7-94.7 24l-35.2 15 8.6 8.4q11.8 10.5 28.5 21 53.1 33.7 133.2 55"/><path fill="none" stroke="#19344F" stroke-width="8" stroke-linecap="round" stroke-linejoin="round" d="M27.9 569.6Q57.5 675 145.8 744.3q90.5 71.1 201.7 71.1 114.4 0 203.3-68.9 88.2-68 115.4-175.4l-638.4-1.5"/><path fill="#19344F" d="M80 569.7h120.3V456H79.9v113.7"/><path fill="#F4F4F4" d="M82.7 458.7V567h114.8V458.7H82.7"/><path fill="#19344F" d="M187.2 458.2v-54.5H93v54.5h94.2"/><path fill="#FFF" d="M184.4 455.5v-49H95.8v49h88.6"/><path fill="#19344F" d="M174 331.4h-67.8v74.4H174v-74.4"/><path fill="#F4F4F4" d="M171.3 334.2h-62.4V403h62.4v-68.8"/><path fill="#19344F" d="M119.3 318.3v15.4h41.6v-15.4h-41.6"/><path fill="#D9D8D7" d="M122 321v10h36.2v-10H122"/><path fill="#19344F" d="M120.4 315q-1.8 0-3 1.3-1.4 1.3-1.4 3.1v8.8h-8.7q-1.8 0-3 1.3-1.4 1.3-1.4 3v67.8h-8.7q-1.8 0-3.1 1.2-1.3 1.3-1.3 3.1v48.1h-8.7q-1.8 0-3.1 1.3t-1.3 3.1v111.5q0 1.8 1.3 3.2 1.3 1.3 3 1.3h118.2q1.7 0 3-1.3 1.3-1.4 1.3-3.2V457q0-1.8-1.3-3-1.3-1.4-3-1.4h-8.8v-48q0-1.9-1.3-3.2-1.3-1.3-3-1.3h-8.8v-67.7q0-1.7-1.3-3t-3-1.3h-8.8v-8.8q0-1.8-1.3-3-1.3-1.4-3.1-1.4h-15.2v-20.2q0-1.8-1.3-3-1.3-1.4-3.1-1.4t-3.3 1.3q-1.2 1.3-1.2 3V315h-15.3m4.4 8.8h30.6v4.4h-30.6v-4.4m43.7 13.1v63.4h-56.8v-63.4h56.8m13.2 115.8H98.6v-43.5h83v43.5M85.5 564.2V461.5h109.4v102.7H85.4"/><path fill="none" stroke="#19344F" stroke-width="8" stroke-linecap="round" stroke-linejoin="round" d="M181.2 574.2l-88.8 110M506.5 570.8L581 718.1M181.2 767.2h339.7"/><path fill="#EBE6F2" stroke="#19344F" stroke-width="8" stroke-linecap="round" stroke-linejoin="round" d="M308.3 727.8l6.5-98.6h-75.5l-6.4 98.6h75.4M363.7 620.6l1.5 75.6h64.5l-1.6-75.6h-64.4"/><path fill="#EAB091" d="M275.8 555.5q-5.9-1.4-11.1 1.7-5.1 3-6.6 9l-5 35q-3.3 40.4 5 75.7 1.1 5 5.1 8.3 4 3 9 3l3.4-.3q5.8-1.4 9-6.4 3.1-5.3 1.8-11.1-7.1-31-4.3-66.8 4.1-29.9 4.3-30.4 1.5-6-1.6-11-3.3-5.2-9-6.7"/><path fill="#C17E62" d="M278.3 611.3l5.4-22.2-26.8-.5-4 13.8 25.4 8.9"/><path fill="none" stroke="#19344F" stroke-width="8" stroke-linecap="round" stroke-linejoin="round" d="M275.8 555.5q-5.9-1.4-11.1 1.7-5.1 3-6.6 9l-5 35q-3.3 40.4 5 75.7 1.1 5 5.1 8.3 4 3 9 3l3.4-.3q5.8-1.4 9-6.4 3.1-5.3 1.8-11.1-7.1-31-4.3-66.8 4.1-29.9 4.3-30.4 1.5-6-1.6-11-3.3-5.2-9-6.7"/><path fill="#B7DAC0" stroke="#19344F" stroke-width="7" stroke-linecap="round" stroke-linejoin="round" d="M269.5 588.3q19 0 34.6 4.9 7.8 2.4 11.9 4.9l9.7-71.3-86.4-13.8-10.3 78.6 10.2-1.6q13.4-1.7 30.3-1.7"/><path fill="#A3C9A7" d="M325.7 529.7q-19 .3-39.4-1.6-40.7-4-47-15.1l-4 31.3 86.2 11.8q.2-2 4.2-26.4"/><path fill="none" stroke="#19344F" stroke-width="7" stroke-linecap="round" stroke-linejoin="round" d="M228.9 591.5l10.2-1.6q13.5-1.6 30.3-1.6 19 0 34.7 4.9 7.8 2.3 11.8 4.8l9.8-71.3-86.4-13.8-10.4 78.6"/><path fill="#EAB091" d="M403.4 529q-5-3.1-11-1.6-5.8 1.5-9 6.6-3 5-1.5 11l4.2 30.5q2.7 36-4.4 66.8-1.3 5.8 1.9 11 3.1 5 9.1 6.4l3.3.3q5 0 9-3 4-3.3 5.2-8.3 8.1-35.5 5-75.7-4.8-33.8-5.1-35-1.6-6-6.7-9"/><path fill="#C17E62" d="M386 574.2l.9 19.3L416 589l2.3-18.3-32.2 3.4"/><path fill="none" stroke="#19344F" stroke-width="8" stroke-linecap="round" stroke-linejoin="round" d="M403.4 529q-5-3.1-11-1.6-5.8 1.5-9 6.6-3 5-1.5 11l4.2 30.5q2.7 36-4.4 66.8-1.3 5.8 1.9 11 3.1 5 9.1 6.4l3.3.3q5 0 9-3 4-3.3 5.2-8.3 8.1-35.5 5-75.7-4.8-33.8-5.1-35-1.6-6-6.7-9"/><path fill="#FBDE7F" stroke="#19344F" stroke-width="8" stroke-linecap="round" stroke-linejoin="round" d="M381.7 648.8l-10.5 34.1q-3 12 4.5 21.7 7.5 9.8 19.8 9.8 12.6 0 20.2-10 7.5-10.1 4.1-22.1l-9.6-33.5h-28.5"/><path fill="#B7DAC0" stroke="#19344F" stroke-width="7" stroke-linecap="round" stroke-linejoin="round" d="M357 575.4L367 572q14.1-3.2 33.1-3.2 16.8 0 32 3.2 7.5 1.7 11.7 3.3L433.6 513l-86.4 13.8 9.7 48.6"/><path fill="#A3C9A7" d="M434.9 525.5l-1-5.5-82.8 9.2v15l83.8-7.7q.8-4.7 0-11"/><path fill="none" stroke="#19344F" stroke-width="7" stroke-linecap="round" stroke-linejoin="round" d="M367.1 572.1q14.1-3.3 33-3.3 16.9 0 32 3.3 7.5 1.6 11.8 3.2L433.5 513l-86.4 13.7 9.8 48.6 10.2-3.2"/><path fill="#FBDE7F" stroke="#19344F" stroke-width="8" stroke-linecap="round" stroke-linejoin="round" d="M292.6 732.8q7.5-9.8 4.4-21.7L286.5 677H258l-9.5 33.6q-3.6 12 4 22t20.1 10q12.3 0 20-9.7"/><path fill="none" stroke="#19344F" stroke-width="8" stroke-linecap="round" stroke-linejoin="round" d="M257 696.2h16.8M248.6 710.5h28.8M411 664.8h-15.5M419.8 682.3h-24.3"/><path fill="none" stroke="#19344F" stroke-width="7" stroke-linecap="round" stroke-linejoin="round" d="M257.2 522.9l-9.6 66.2M419.3 523.2l5.2 47.6"/><g display="none"><use xlink:href="#a" transform="matrix(3.24 0 0 3.24 339.4 95.5)"/><animate attributeName="display" repeatCount="indefinite" dur="5.2s" keyTimes="0;0.135;0.173;0.192;0.231;0.25;0.288;1" values="none;inline;none;inline;none;inline;none;none"/></g><g transform="matrix(3.24 0 0 3.24 339.7 833.5)"><animateTransform attributeName="transform" additive="replace" type="translate" dur="5.2s" keyTimes="0;1" values="0,0;0,0" fill="freeze"/><animateTransform attributeName="transform" additive="sum" type="translate" repeatCount="indefinite" dur="5.2s" keyTimes="0;0.01;0.288;0.298;0.308;0.317;0.327;0.337;0.346;0.356;0.365;0.692;0.702;0.712;0.721;0.731;0.74;0.75;0.76;0.769;0.779;0.788;0.798;0.808;0.817;0.827;0.837;0.846;0.856;0.864;0.865;1" values="342.292,834.036;342.292,834.136;342.292,834.136;342.292,834.036;342.292,833.968;342.292,834.177;342.292,833.91;342.292,834.06;342.292,834.161;342.292,834.007;342.292,833.957;342.292,833.957;342.292,834.007;342.292,833.909;342.292,833.961;342.292,834.066;342.292,833.964;342.292,833.966;342.292,834.073;342.292,833.919;342.292,833.814;342.292,833.972;342.292,833.974;342.292,834.026;342.292,833.978;342.292,833.979;342.292,834.141;342.292,834.143;342.292,833.984;342.292,834.036;0;0" calcMode="discrete"/><animateTransform attributeName="transform" additive="sum" type="translate" repeatCount="indefinite" dur="5.2s" keyTimes="0;0.865;1" values="0;342.292,834.036;342.292,834.036" calcMode="discrete"/><animateTransform attributeName="transform" additive="sum" type="scale" repeatCount="indefinite" dur="5.2s" keyTimes="0;0.298;0.308;0.317;0.327;0.337;0.346;0.356;0.702;0.712;0.721;0.731;0.74;0.75;0.76;0.769;0.779;0.788;0.798;0.808;0.817;0.827;0.837;0.846;0.856;0.864;0.865;1" values="3.24,3.24;3.24,3.24;3.24,3.181;3.24,3.133;3.24,3.096;3.24,3.07;3.24,3.054;3.24,3.048;3.24,3.048;3.24,3.06;3.24,3.071;3.24,3.082;3.24,3.093;3.24,3.105;3.24,3.116;3.24,3.127;3.24,3.138;3.24,3.15;3.24,3.161;3.24,3.172;3.24,3.184;3.24,3.195;3.24,3.206;3.24,3.217;3.24,3.229;3.24,3.24;1;1" calcMode="discrete"/><animateTransform attributeName="transform" additive="sum" type="scale" repeatCount="indefinite" dur="5.2s" keyTimes="0;0.865;1" values="1;3.24,3.24;3.24,3.24" calcMode="discrete"/><animateTransform attributeName="transform" additive="sum" type="translate" repeatCount="indefinite" dur="5.2s" keyTimes="0;0.298;0.308;0.317;0.327;0.337;0.346;0.356;0.721;0.731;0.74;0.75;0.76;0.769;0.779;0.788;0.827;0.837;0.846;0.856;0.864;0.865;1" values="-0.8,-0.15;-0.8,-0.15;-0.8,-0.1;-0.8,-0.2;-0.8,-0.1;-0.8,-0.15;-0.8,-0.2;-0.8,-0.15;-0.8,-0.15;-0.8,-0.2;-0.8,-0.15;-0.8,-0.15;-0.8,-0.2;-0.8,-0.15;-0.8,-0.1;-0.8,-0.15;-0.8,-0.15;-0.8,-0.2;-0.8,-0.2;-0.8,-0.15;-0.8,-0.15;0;0" calcMode="discrete"/><animateTransform attributeName="transform" additive="sum" type="translate" repeatCount="indefinite" dur="5.2s" keyTimes="0;0.865;1" values="0;-0.8,-0.15;-0.8,-0.15" calcMode="discrete"/><path fill="#EAB091" stroke="#19344F" stroke-width="2.5" stroke-linecap="round" stroke-linejoin="round" d="M-24.4-142.7q-1 0-2 .4-6 2.2-13.9 6.8-15.6 9.2-27.3 22.4Q-83.5-95.2-89.8-72q-8.4 30.6.8 67.8.4 1.9 1.9 3Q-85.5.2-83.6.2q.7 0 1.3-.2 2.3-.5 3.5-2.5 1.2-2 .6-4.2-7.4-30.1-2.7-54.8 4.7-24.7 21.3-43.7 10.4-11.9 24.7-20.3 7.1-4.3 12.3-6.2 2.2-.8 3.2-2.9 1-2.1.2-4.2-.6-1.7-2-2.7-1.5-1.1-3.2-1.1M30.7-140.6q-2.8-1.3-4.2-1.7-.9-.4-1.9-.4-1.7 0-3.2 1-1.4 1-2 2.8-.8 2.1.2 4.2t3.2 2.9l3.4 1.4q4.3 2 8.7 4.6 14 8.3 24.5 20 16.9 19 21.6 43.9 4.8 24.9-2.6 55-.6 2.3.6 4.3t3.5 2.5l1.3.2q1.9 0 3.5-1.2 1.5-1.2 1.9-3.1 9.2-37.2.8-67.8-6.3-23.2-22.2-41.1-11.7-13.2-27.3-22.4-5-3-9.8-5.1"/><path fill="#FBDE7F" stroke="#19344F" stroke-width="2.5" stroke-linecap="round" stroke-linejoin="round" d="M-15.3-144.5q-9.6 1.7-18.6 5.1l-7.2 3.1 6.4 29.8q1.1 5.2 5.3 8.2 3.7 2.7 9.6 3.5Q-9-93.2 5.7-94q13.1-.6 23.4-2.7 4.1-.8 8-20.3l3-19.3q-24.6-13.7-55.4-8.2"/><path fill="#FFF" stroke="#19344F" stroke-width="2.5" stroke-linecap="round" stroke-linejoin="round" d="M-16.3-94.8l4.6.5q5.7.5 11.2.5 11.2 0 16.8-1-.4-2.3-2.6-4.6Q9-104.1-.2-104q-8.3 0-13 4.6-1.5 1.4-2.4 3.1l-.7 1.5"/><path fill="#C17E62" d="M-41.5-133.5l-6.7 4.6 2.2 9.5 6.4-4.7-1.9-9.4M41.2-133.6l-1.8 9 6.4 4.7.3-10.5-4.9-3.2"/></g><g transform="matrix(3.24 0 0 3.24 338.8 466.1)"><animateTransform attributeName="transform" additive="replace" type="translate" dur="5.2s" keyTimes="0;1" values="0,0;0,0" fill="freeze"/><animateTransform attributeName="transform" additive="sum" type="translate" repeatCount="indefinite" dur="5.2s" keyTimes="0;0.01;0.288;0.298;0.308;0.317;0.327;0.337;0.346;0.356;0.365;0.692;0.702;0.712;0.721;0.731;0.74;0.75;0.76;0.769;0.779;0.788;0.798;0.808;0.817;0.827;0.837;0.846;0.856;0.864;0.865;1" values="338.75,466.152;338.75,466.247;338.75,466.247;338.75,466.152;338.75,484.797;338.75,499.997;338.75,511.797;338.75,520.247;338.75,525.297;338.75,526.902;338.75,526.997;338.75,526.997;338.75,526.902;338.75,523.447;338.75,519.847;338.75,516.297;338.75,512.697;338.75,509.147;338.75,505.547;338.75,501.997;338.75,498.397;338.75,494.847;338.75,491.247;338.75,487.697;338.75,484.097;338.75,480.547;338.75,476.947;338.75,473.397;338.75,469.797;338.75,466.152;0;0" calcMode="discrete"/><animateTransform attributeName="transform" additive="sum" type="translate" repeatCount="indefinite" dur="5.2s" keyTimes="0;0.865;1" values="0;338.75,466.152;338.75,466.152" calcMode="discrete"/><animateTransform attributeName="transform" additive="sum" type="scale" repeatCount="indefinite" dur="5.2s" keyTimes="0;0.864;0.865;1" values="3.24,3.24;3.24,3.24;1;1" calcMode="discrete"/><animateTransform attributeName="transform" additive="sum" type="scale" repeatCount="indefinite" dur="5.2s" keyTimes="0;0.865;1" values="1;3.24,3.24;3.24,3.24" calcMode="discrete"/><path fill="#B69A8B" d="M-31.2-99.1l-3 4q-2.2 3-3.3 3h-11.1l7.8 6.5q-8.6 12.4-4.7 26.6 1.9 7.1 5.5 11.7L38.3-50Q42-57.6 43-62q1.9-8.7-2-16.6l7.8 2.7q-2.1-10.4-9.6-18.7-7-7.8-17.4-12.3-10.2-4.5-21-4.8-11.3-.3-20.6 4.1-6.3 3-11.4 8.4"/><path fill="none" stroke="#19344F" stroke-width="2.5" stroke-linecap="round" stroke-linejoin="round" d="M-34.1-95.1l2.9-4q5-5.3 11.4-8.4 9.3-4.4 20.6-4.1 10.8.3 21 4.8 10.4 4.5 17.4 12.3 7.5 8.3 9.6 18.7L41-78.5q3.9 7.9 2 16.6-1 4.3-4.7 11.9m-72.4-45.1q-2.3 3-3.4 3h-11.1l7.8 6.5q-8.6 12.4-4.7 26.6 1.9 7.1 5.5 11.7"/><path fill="#A28677" d="M-44.9-90.7l5.6 5q-6.9 10-6.5 20.4.3 7.2 3.9 13.5l24.8-8.4 28.8-3.3 2-6.6q2.5-6.5 3.9-6.5Q-7-82.2-16.7-94.1q-3.1-3.8-4.3-7.7l-.6-3.1q-6 4.4-7.9 6.4L-33-94q-2.3 2.9-3.4 2.9l-8.5.4"/><path fill="#EAB091" stroke="#19344F" stroke-width="2.5" stroke-linecap="round" stroke-linejoin="round" d="M-24.2-39.6q-.4-4.7-4-7.7t-8.3-2.6q-4.7.4-7.7 4t-2.6 8.3q.5 4.6 4 7.6 3.7 3 8.3 2.6 4.7-.4 7.7-4t2.6-8.2M47.2-39.6q-.4-4.7-4-7.7T34.9-50q-4.6.4-7.6 4t-2.6 8.3q.4 4.6 4 7.6t8.3 2.6q4.6-.4 7.6-4t2.6-8.2"/><path fill="#EAB091" stroke="#19344F" stroke-width="2.5" stroke-linecap="round" stroke-linejoin="round" d="M-33.5-71.9q-8.3 3.9-7.1 17.4l3.7 22.4q1.3 14.6 12.5 23.9Q-13.2 1.2 1.4-.1l4.8-.4q14.6-1.3 24-12.5 9.3-11.2 8-25.8l-.3-22.7Q36.7-75 24.5-76.2q-10.5-1-25 7l-10-3.5q-16.4-2.3-23 .8"/><path fill="#DBA386" d="M-37.4-69.1l-2.7 5.3-.3 3.9q-.2 5 .2 10.3 1.1 17.1 7.6 31.5Q-26.2-3.8-7-1.1 2.7.3 11-1.3l.7-1.8q-27.5-6.4-41.1-36.7-4.4-9.6-6.6-20.3-1.7-8-1.4-9"/><path fill="none" stroke="#19344F" stroke-width="2.5" stroke-linecap="round" stroke-linejoin="round" d="M-33.5-71.9q-8.3 3.9-7.1 17.4l3.7 22.4q1.3 14.6 12.5 23.9Q-13.2 1.2 1.4-.1l4.8-.4q14.6-1.3 24-12.5 9.3-11.2 8-25.8l-.3-22.7Q36.7-75 24.5-76.2q-10.5-1-25 7l-10-3.5q-16.4-2.3-23 .8"/><path fill="none" stroke="#19344F" stroke-width="2.5" stroke-linecap="round" stroke-linejoin="round" d="M6.4-30.3q.3 2.8-1.5 4.9Q3.1-23.3.4-23q-2.8.2-4.9-1.6-2.1-1.7-2.3-4.5M28.1-96.1q2.1 1.9 3.6 3.9M-4-105.2l6.7-.2q8 .3 14.9 2.9M-26.7-56l9.6 3.7M22.4-56l-9.6 3.7"/><path fill="#C17E62" d="M-40.7-47.2q-1.6.9-3 2.8l4.2 15.1 2 .6-3.2-18.5"/></g><g transform="matrix(3.24 0 0 3.24 342.3 355.5)"><animateTransform attributeName="transform" additive="replace" type="translate" dur="5.2s" keyTimes="0;1" values="0,0;0,0" fill="freeze"/><animateTransform attributeName="transform" additive="sum" type="translate" repeatCount="indefinite" dur="5.2s" keyTimes="0;0.01;0.019;0.029;0.058;0.067;0.077;0.288;0.298;0.308;0.317;0.327;0.337;0.346;0.356;0.365;0.692;0.702;0.712;0.721;0.731;0.74;0.75;0.76;0.769;0.779;0.788;0.798;0.808;0.816;0.817;1" values="342.3,355.5;342.3,355.55;342.3,355.55;342.291,355.5;342.291,355.5;342.291,355.65;342.291,355.541;342.291,355.541;342.291,355.65;342.291,374.091;342.291,389.291;342.291,401.091;342.291,409.541;342.291,414.591;342.291,416.4;342.291,416.291;342.291,416.291;342.291,416.4;342.291,412.741;342.291,409.141;342.291,405.591;342.291,401.991;342.291,398.6;342.291,394.841;342.291,391.291;342.291,387.691;342.291,384.141;342.291,380.541;342.291,376.991;342.291,373.391;0;0" calcMode="discrete"/><animateTransform attributeName="transform" additive="sum" type="translate" repeatCount="indefinite" dur="5.2s" keyTimes="0;0.817;0.827;0.837;0.846;0.856;0.865;1" values="0;342.291,373.391;342.291,369.841;342.291,366.241;342.291,362.691;342.291,359.091;342.291,355.65;342.291,355.65" calcMode="discrete"/><animateTransform attributeName="transform" additive="sum" type="scale" repeatCount="indefinite" dur="5.2s" keyTimes="0;0.01;0.019;0.029;0.038;0.048;0.058;0.067;0.816;0.817;1" values="3.24,3.24;3.24,2.227;3.24,1.213;3.24,0.2;3.24,0.2;3.24,1.213;3.24,2.226;3.24,3.24;3.24,3.24;1;1" calcMode="discrete"/><animateTransform attributeName="transform" additive="sum" type="scale" repeatCount="indefinite" dur="5.2s" keyTimes="0;0.817;1" values="1;3.24,3.24;3.24,3.24" calcMode="discrete"/><animateTransform attributeName="transform" additive="sum" type="translate" repeatCount="indefinite" dur="5.2s" keyTimes="0;0.019;0.029;0.067;0.077;0.288;0.298;0.308;0.346;0.356;0.365;0.692;0.702;0.712;0.74;0.75;0.76;0.816;0.817;1" values="0,0;0,0;0.049,0;0.049,0;0.049,0.049;0.049,0.049;0.049,0;0.049,0.049;0.049,0.049;0.049,0;0.049,0.049;0.049,0.049;0.049,0;0.049,0.049;0.049,0.049;0.049,0;0.049,0.049;0.049,0.049;0;0" calcMode="discrete"/><animateTransform attributeName="transform" additive="sum" type="translate" repeatCount="indefinite" dur="5.2s" keyTimes="0;0.817;0.856;0.865;1" values="0;0.049,0.049;0.049,0.049;0.049,0;0.049,0" calcMode="discrete"/><path fill="#1A344F" d="M16.9-10.1q-.4.3-.4.5V-1q0 .4.4.6.3.2.8.2l.8-.2q.3-.3.3-.6v-8.5q0-.3-.3-.5-.4-.2-.9-.2t-.8.2M-22.3-10.1q-.3.3-.3.5V-1q0 .4.4.6.3.2.8.2l.8-.2q.3-.3.3-.6v-8.5q0-.3-.3-.5t-.8-.2q-.6 0-.9.2"/></g></g></svg>