<svg xmlns="http://www.w3.org/2000/svg" baseProfile="basic" width="695" height="651" viewBox="0 0 695 651" preserveAspectRatio="xMinYMin meet"><g overflow="visible"><path fill="#9B808A" stroke="#19344F" stroke-width="2.5" stroke-linecap="round" stroke-linejoin="round" d="M593.8 97q-44.4-44.4-102-68.7Q432.4 3 367.2 3q-65.3 0-124.9 25.2Q184.7 52.6 140.3 97 96 141.4 71.6 199q-25.3 59.5-25.3 124.7 0 65.3 25.3 124.8 24.3 57.6 68.7 102 44.4 44.4 102 68.7 59.5 25.3 124.8 25.3 65.2 0 124.8-25.3 57.5-24.3 101.9-68.7 44.4-44.3 68.7-102 25.1-59.5 25.1-124.8 0-65.2-25-124.8-24.4-57.5-68.8-101.9"/><path fill="#EBE6F2" d="M654 466.9q27.2-54.3 32.5-114.9H47.6Q53 412.6 80 466.9q26.4 52.8 69.8 92.7 43.8 40.3 98.6 62.3 57 22.6 118.7 22.6 61.8 0 118.5-22.6 55-22 98.6-62.3 43.6-40 69.8-92.7"/><path fill="#CFD5E5" d="M562.2 578.3l-33.5-221L512 353l2 254 48.2-28.8"/><path fill="none" stroke="#19344F" stroke-width="7" stroke-linecap="round" stroke-linejoin="round" d="M654 466.9q27.2-54.3 32.5-114.9H47.6Q53 412.6 80 466.9q26.4 52.8 69.8 92.7 43.8 40.3 98.6 62.3 57 22.6 118.7 22.6 61.8 0 118.5-22.6 55-22 98.6-62.3 43.6-40 69.8-92.7"/><path fill="none" stroke="#19344F" stroke-width="7" stroke-linecap="round" stroke-linejoin="round" d="M687.6 323.8q0-65.4-25-124.9-24.4-57.5-68.8-101.9-44.4-44.4-101.9-68.8-59.5-25-124.8-25t-124.9 25Q184.8 52.6 140.4 97q-44.5 44.4-68.8 101.9-25.2 59.5-25.2 124.8t25.3 124.9Q96 506 140.3 550.5q44.4 44.4 102 68.7 59.6 25.3 124.8 25.3 65.3 0 124.8-25.3 57.5-24.4 101.9-68.8 44.4-44.2 68.8-101.8 25-59.6 25-124.9M573 373.7h106.3M543.4 393h97"/><g mask="url(#a)"><path fill="#E4F3FB" d="M466.6 130.7q-45.3-45.4-109.3-45.4-64.2 0-109.3 45.4-45.3 45.2-45.3 109.3v489.5L512 740.9V240q0-64.2-45.4-109.3"/><path fill="#CCE1ED" fill-opacity=".5" d="M213 190.2q-9.7 26-9.7 54.2v435.3q152.3 52 239.6 62.7 49.7 6 48.9-8.8-1-17.2-70-61.5Q255.4 565.6 231 344.4q-7.8-69-.2-141.4 3.8-36.2 9-58.4-17.5 20.5-26.8 45.6"/><path fill="none" stroke="#19344F" stroke-width="7" stroke-linecap="round" stroke-linejoin="round" d="M466.6 130.7Q512 175.8 512 240v500.8m-45.4-610.1q-45.3-45.4-109.3-45.4-64.1 0-109.3 45.4-45.4 45.1-45.4 109.3v489.5"/><path fill="#EAB091" d="M437.8 160.8q-32.3-32.4-78.1-32.4-45.7 0-78 32.4-32.4 32.4-32.4 78.1v56.8q0 45.9 32.3 78.1 32.4 32.4 78.1 32.4 45.8 0 78-32.4 32.4-32.2 32.4-78v-56.9q0-45.7-32.4-78"/><path fill="#D9A184" d="M248.3 228.6v82.2q0 39 32.4 66.5 32.4 27.6 78 27.6 20 0 39.4-6.3-111.4-12.3-136.4-110.1-12.5-49.5-1.9-101.4l-.1.1q-4 10.4-10.3 29-1.1 7.2-1.1 12.4"/><path fill="none" stroke="#19344F" stroke-width="2.3" stroke-linecap="round" stroke-linejoin="round" d="M437.8 160.8q-32.3-32.4-78.1-32.4-45.7 0-78 32.4-32.4 32.4-32.4 78.1v56.8q0 45.9 32.3 78.1 32.4 32.4 78.1 32.4 45.8 0 78-32.4 32.4-32.2 32.4-78v-56.9q0-45.7-32.4-78"/><path fill="#D9A184" d="M347.5 129l-63 25 10.7 13.3q14.7 15.8 33.5 29 60.5 42.4 141.4 42.6 8.2 0-2.7-27.8-10.4-26.3-21.6-40.3-8.4-10.4-54.2-27l-44-14.7"/><path fill="none" stroke="#19344F" stroke-width="7" stroke-linecap="round" stroke-linejoin="round" d="M437.7 160.8q-32.2-32.4-78-32.4-45.7 0-78.1 32.4-32.4 32.4-32.4 78.1v56.8q0 45.9 32.4 78.2 32.4 32.3 78 32.3 45.9 0 78.1-32.3 32.4-32.3 32.4-78.1v-56.9q0-45.7-32.4-78"/><path fill="none" stroke="#19344F" stroke-width="7" stroke-linecap="round" stroke-linejoin="round" d="M321.6 432.6q39.5-10.1 67.1-23.5 37.8-18.5 57.7-45m-124.8 68.5l-15 3.5q-11.2 2.3-24.2 4.4"/><path fill="#CA9D8B" stroke="#19344F" stroke-width="7" stroke-linecap="round" stroke-linejoin="round" d="M492 135.7l-32.6-17.4 35.8-16.4Q454 52.5 395 61.6q-18.5 2.9-36.5 11.2l-14.4 8L357.3 42q-63.8 17.4-74.7 66.5-5.4 24.5 1.9 45.5Q366 193.7 437 168.6q35.5-12.5 54.8-32.9"/><path fill="#E19370" d="M297.7 312.7q-5-5-12.1-5-7 0-12 5-5.1 4.9-5.1 12t5 12.2q5.1 4.9 12 4.9 7.2 0 12.2-5 5-5 5-12.1t-5-12M449.4 312.7q-5-5-12.2-5-7 0-12 5-5 4.9-5 12t5 12.2q5 4.9 12 4.9 7.1 0 12.2-5 5-5 5-12.1t-5-12"/><path fill="none" stroke="#19344F" stroke-width="7" stroke-linecap="round" stroke-linejoin="round" d="M430.8 83q7.4.7 15.6 2.3M363.3 93.2Q384 84 407.9 82.5m-44.6 10.7l-15.8 9M374.4 434.2q59.8-24.2 80-48.4M332.8 448.9l14.7-4.8"/></g><mask id="a"><path fill="#FFF" d="M662.5 195.8q-24.3-57.6-68.7-102Q549.4 49.6 492 25.2 432.3 0 367.1 0q-65.3 0-124.8 25.1-57.5 24.4-102 68.8Q96 138.2 71.7 195.8q-25.2 59.5-25.2 124.8 0 65.2 25.2 124.8 24.4 57.5 68.8 102 44.4 44.3 101.9 68.6 59.5 25.3 124.8 25.3 65.2 0 124.8-25.3 57.5-24.3 102-68.7 44.3-44.2 68.6-101.9 25.2-59.6 25.2-124.8 0-65.3-25.2-124.8"/></mask><g transform="matrix(3.16 0 0 3.16 359.7 348.2)"><animateTransform attributeName="transform" additive="replace" type="translate" repeatCount="indefinite" dur="2.45s" keyTimes="0;0.02;0.041;0.061;0.082;0.102;0.122;0.143;0.163;0.184;0.204;0.224;0.245;0.265;0.286;1" values="359.7,348.2;359.65,348.15;359.65,348.15;359.6,348.15;359.7,348.2;359.7,348.3;359.7,348.25;359.7,348.2;359.65,348.15;359.6,348.15;359.7,348.2;359.7,348.25;359.65,348.25;359.7,348.25;359.7,348.2;359.7,348.2" calcMode="discrete"/><animateTransform attributeName="transform" additive="sum" type="scale" repeatCount="indefinite" dur="2.45s" keyTimes="0;0.02;0.041;0.061;0.082;0.102;0.122;0.143;0.163;0.184;0.204;0.224;0.245;0.265;0.286;1" values="3.16,3.16;3.247,3.247;3.334,3.334;3.421,3.421;3.507,3.507;3.392,3.392;3.276,3.276;3.16,3.16;3.276,3.276;3.392,3.392;3.507,3.507;3.421,3.421;3.334,3.334;3.247,3.247;3.16,3.16;3.16,3.16" calcMode="discrete"/><path fill="#E66C6C" stroke="#19344F" stroke-width="2.2" stroke-linecap="round" stroke-linejoin="round" d="M1.9-11.8h-3.6q-5 0-8.4 3.5-3.5 3.5-3.5 8.4t3.5 8.4Q-6.6 12-1.7 12h3.6q4.9 0 8.4-3.5T13.8 0q0-5-3.5-8.4-3.5-3.5-8.4-3.5"/><path fill="#EEA5A6" stroke="#19344F" stroke-width="2.5" stroke-linecap="round" stroke-linejoin="round" d="M6.8 0q0-2.7-2-4.7t-4.7-2q-2.8 0-4.8 2t-2 4.8q0 2.8 2 4.7 2 2 4.8 2t4.7-2q2-2 2-4.7"/></g><path fill="none" stroke="#19344F" stroke-width="7" stroke-linecap="round" stroke-linejoin="round" d="M311.5 230.2v23.4M407.9 230.2v23.4"/><g transform="matrix(3.16 0 0 3.16 162.7 618.3)"><animateTransform attributeName="transform" additive="replace" type="translate" repeatCount="indefinite" dur="2.45s" keyTimes="0;0.02;0.367;0.388;0.408;0.429;0.449;0.469;0.49;0.51;0.531;0.551;0.571;0.592;0.612;0.633;0.653;0.673;0.694;0.714;0.735;1" values="163.756,422.496;163.806,422.493;163.806,422.493;163.756,422.496;163.641,422.504;163.583,422.569;163.949,422.47;163.816,422.327;163.758,422.585;163.838,422.406;163.703,422.704;163.756,422.727;163.64,422.712;163.631,422.727;163.762,422.62;163.77,422.488;163.811,422.766;163.704,422.781;163.729,422.634;163.576,422.442;163.756,422.496;163.756,422.496" calcMode="discrete"/><animateTransform attributeName="transform" additive="sum" type="rotate" repeatCount="indefinite" dur="2.45s" keyTimes="0;0.388;0.408;0.429;0.449;0.469;0.49;0.51;0.531;0.551;0.571;0.592;0.612;0.633;0.653;0.673;0.694;0.714;0.735;1" values="0,0,0;0,0,0;3.501,0,0;6.308,0,0;8.791,0,0;10.765,0,0;12.042,0,0;12.807,0,0;13.212,0,0;10.556,0,0;8.305,0,0;6.308,0,0;4.753,0,0;3.264,0,0;2.029,0,0;1.047,0,0;0.508,0,0;0.033,0,0;0,0,0;0,0,0" calcMode="discrete"/><animateTransform attributeName="transform" additive="sum" type="scale" repeatCount="indefinite" dur="2.45s" keyTimes="0;0.388;0.408;0.429;0.449;0.469;0.49;0.51;0.531;0.551;0.571;0.592;0.612;0.633;0.673;0.694;1" values="3.16,3.16;3.16,3.16;3.159,3.159;3.158,3.158;3.157,3.157;3.156,3.156;3.156,3.156;3.155,3.155;3.158,3.158;3.156,3.156;3.157,3.157;3.157,3.157;3.158,3.158;3.159,3.159;3.159,3.159;3.16,3.16;3.16,3.16" calcMode="discrete"/><animateTransform attributeName="transform" additive="sum" type="translate" repeatCount="indefinite" dur="2.45s" keyTimes="0;0.388;0.408;0.429;0.449;0.469;0.49;0.51;0.531;0.551;0.571;0.592;0.612;0.633;0.653;0.673;0.694;0.714;0.735;1" values="-0.35,61.949;-0.35,61.949;-0.3,61.949;-0.3,61.899;-0.4,61.949;-0.35,61.999;-0.35,61.899;-0.35,61.999;-0.35,61.899;-0.35,61.899;-0.3,61.899;-0.3,61.899;-0.35,61.949;-0.35,61.999;-0.35,61.899;-0.3,61.899;-0.35,61.949;-0.3,61.999;-0.35,61.949;-0.35,61.949" calcMode="discrete"/><path fill="#FFF" stroke="#19344F" stroke-width="2.5" stroke-linecap="round" stroke-linejoin="round" d="M9.6-117.9q-2-4.2-6.4-5.8-4.4-1.6-8.7.4l-38 17.9q-4.2 2-5.8 6.4-1.5 4.4.5 8.7L-9.4-6.5q2 4.3 6.4 5.9Q1.4.9 5.7-1.1l38-17.8q4.2-2 5.8-6.4Q51-29.7 49-34L9.6-118"/><path fill="#E0E3E5" stroke="#19344F" stroke-width="2.5" stroke-linecap="round" stroke-linejoin="round" d="M3.5-109.8l-42.8 20.2 30.6 65 42.8-20.1-30.6-65.1M21-29q-2.6-.9-5.1.3-2.5 1.2-3.5 3.8-.9 2.6.3 5 1.1 2.6 3.7 3.5 2.6.9 5.1-.2 2.5-1.2 3.5-3.8.9-2.6-.3-5.1Q23.6-28 21-29"/><path fill="none" stroke="#19344F" stroke-width="2.5" stroke-linecap="round" stroke-linejoin="round" d="M-30.6-85.1L.1-99.6M-27-77.3l12.7-6"/><path fill="#B7DAC0" stroke="#19344F" stroke-width="2.5" stroke-linecap="round" stroke-linejoin="round" d="M-13.4-48.5l4 8.4 31.8-15-4-8.4-31.8 15"/><path fill="none" stroke="#19344F" stroke-width="2.5" stroke-linecap="round" stroke-linejoin="round" d="M-24.3-106l7.3-3.4M5.9-76.1l8.1 4.9m-8.1-4.9l-3 8-8.4-10.8-2.2 16.7-6.6-1.2-1 6.2"/></g></g></svg>