<svg width="36" height="24" viewBox="0 0 36 24" fill="none" xmlns="http://www.w3.org/2000/svg">
<path d="M1.79385 18V4.01666H7.82963C8.86745 4.01666 9.77555 4.20556 10.5539 4.58336C11.3323 4.96117 11.9377 5.50512 12.3701 6.21521C12.8025 6.9253 13.0188 7.7765 13.0188 8.76881C13.0188 9.77022 12.7957 10.6146 12.3496 11.3019C11.9081 11.9893 11.2868 12.5082 10.4856 12.8587C9.68907 13.2092 8.75821 13.3844 7.69307 13.3844H4.08799V10.4348H6.92836C7.37444 10.4348 7.75452 10.3802 8.0686 10.2709C8.38723 10.1571 8.63076 9.97733 8.79918 9.73153C8.97215 9.48573 9.05863 9.16482 9.05863 8.76881C9.05863 8.36824 8.97215 8.04279 8.79918 7.79243C8.63076 7.53753 8.38723 7.3509 8.0686 7.23255C7.75452 7.10965 7.37444 7.0482 6.92836 7.0482H5.59011V18H1.79385ZM9.98721 11.5819L13.483 18H9.35906L5.94515 11.5819H9.98721ZM22.1748 8.38645C22.1384 7.93126 21.9677 7.57622 21.6628 7.32131C21.3623 7.06641 20.9049 6.93896 20.2904 6.93896C19.8989 6.93896 19.578 6.98675 19.3276 7.08234C19.0818 7.17338 18.8998 7.29855 18.7814 7.45787C18.6631 7.61719 18.6016 7.79926 18.5971 8.00409C18.588 8.17251 18.6176 8.325 18.6858 8.46156C18.7587 8.59356 18.8725 8.71419 19.0272 8.82343C19.182 8.92812 19.38 9.02371 19.6212 9.1102C19.8625 9.19668 20.1493 9.27407 20.4815 9.34234L21.6286 9.58815C22.4024 9.75201 23.0647 9.96823 23.6155 10.2368C24.1663 10.5053 24.6169 10.8217 24.9674 11.1859C25.3179 11.5454 25.5751 11.9506 25.739 12.4012C25.9074 12.8518 25.9939 13.3434 25.9984 13.876C25.9939 14.7955 25.764 15.5739 25.3088 16.2111C24.8536 16.8484 24.2027 17.3332 23.3561 17.6654C22.514 17.9977 21.5012 18.1639 20.3177 18.1639C19.1023 18.1639 18.0417 17.9841 17.1359 17.6245C16.2347 17.2649 15.5337 16.7118 15.033 15.9653C14.5368 15.2143 14.2865 14.2538 14.2819 13.084H17.887C17.9097 13.5119 18.0167 13.8715 18.2079 14.1628C18.3991 14.4541 18.6676 14.6749 19.0136 14.8251C19.3641 14.9753 19.7806 15.0504 20.2631 15.0504C20.6682 15.0504 21.0073 15.0003 21.2804 14.9002C21.5535 14.8 21.7606 14.6612 21.9017 14.4837C22.0428 14.3062 22.1157 14.1036 22.1202 13.876C22.1157 13.6621 22.0451 13.4754 21.9086 13.3161C21.7766 13.1523 21.5581 13.0066 21.2531 12.8791C20.9481 12.7471 20.5362 12.6242 20.0173 12.5104L18.6244 12.21C17.3863 11.9415 16.4099 11.4931 15.6953 10.8649C14.9852 10.2322 14.6324 9.36966 14.6369 8.27721C14.6324 7.38959 14.8691 6.6135 15.347 5.94893C15.8295 5.2798 16.4964 4.75861 17.3476 4.38536C18.2033 4.0121 19.1843 3.82548 20.2904 3.82548C21.4192 3.82548 22.3956 4.01438 23.2195 4.39219C24.0434 4.76999 24.6784 5.30256 25.1245 5.98989C25.5751 6.67267 25.8027 7.47153 25.8072 8.38645H22.1748ZM31.2388 4.01666V18H27.4425V4.01666H31.2388Z" fill="black"/>
</svg>
