<svg width="42" height="24" viewBox="0 0 42 24" fill="none" xmlns="http://www.w3.org/2000/svg">
<rect x="2" y="5" width="20" height="14" fill="white"/>
<path fill-rule="evenodd" clip-rule="evenodd" d="M4 6C3.44772 6 3 6.44772 3 7V17C3 17.5523 3.44772 18 4 18H20C20.5523 18 21 17.5523 21 17V7C21 6.44772 20.5523 6 20 6H4ZM4 4H20C21.6569 4 23 5.34315 23 7V17C23 18.6569 21.6569 20 20 20H4C2.34315 20 1 18.6569 1 17V7C1 5.34315 2.34315 4 4 4ZM10 9L15 12L10 15V9Z" fill="black"/>
<g opacity="0.3">
<rect x="18" y="5" width="20" height="14" fill="white"/>
<path fill-rule="evenodd" clip-rule="evenodd" d="M20 6C19.4477 6 19 6.44772 19 7V17C19 17.5523 19.4477 18 20 18H36C36.5523 18 37 17.5523 37 17V7C37 6.44772 36.5523 6 36 6H20ZM20 4H36C37.6569 4 39 5.34315 39 7V17C39 18.6569 37.6569 20 36 20H20C18.3431 20 17 18.6569 17 17V7C17 5.34315 18.3431 4 20 4ZM26 9L31 12L26 15V9Z" fill="#4E4E4E"/>
</g>
<rect x="20" y="5" width="20" height="14" fill="white"/>
<path fill-rule="evenodd" clip-rule="evenodd" d="M22 6C21.4477 6 21 6.44772 21 7V17C21 17.5523 21.4477 18 22 18H38C38.5523 18 39 17.5523 39 17V7C39 6.44772 38.5523 6 38 6H22ZM22 4H38C39.6569 4 41 5.34315 41 7V17C41 18.6569 39.6569 20 38 20H22C20.3431 20 19 18.6569 19 17V7C19 5.34315 20.3431 4 22 4ZM28 9L33 12L28 15V9Z" fill="black"/>
</svg>
