<svg width="22" height="9" viewBox="0 0 22 9" fill="none" xmlns="http://www.w3.org/2000/svg">
<rect width="22" height="9" rx="4.18182" fill="black"/>
<path d="M4.55003 7.09106V6.49785L6.90905 3.18783H4.54541V2.36379H8.16473V2.95701L5.8034 6.26702H8.16934V7.09106H4.55003ZM8.83008 7.09106V6.58911L10.8262 3.78833H8.82617V3.09106H11.8887V3.59302L9.89063 6.3938H11.8926V7.09106H8.83008ZM12.4431 7.09106V6.68038L14.0763 4.38883H12.4399V3.81834H14.9456V4.22903L13.3109 6.52057H14.9488V7.09106H12.4431ZM15.9393 7.13723C15.8221 7.13723 15.7215 7.0958 15.6374 7.01294C15.5546 6.9289 15.5131 6.82828 15.5131 6.71109C15.5131 6.59509 15.5546 6.49566 15.6374 6.4128C15.7215 6.32994 15.8221 6.28851 15.9393 6.28851C16.0529 6.28851 16.1523 6.32994 16.2376 6.4128C16.3228 6.49566 16.3654 6.59509 16.3654 6.71109C16.3654 6.78922 16.3453 6.86083 16.305 6.92594C16.266 6.98986 16.2145 7.04135 16.1506 7.08041C16.0866 7.11829 16.0162 7.13723 15.9393 7.13723ZM17.4285 7.13723C17.3113 7.13723 17.2107 7.0958 17.1267 7.01294C17.0438 6.9289 17.0024 6.82828 17.0024 6.71109C17.0024 6.59509 17.0438 6.49566 17.1267 6.4128C17.2107 6.32994 17.3113 6.28851 17.4285 6.28851C17.5422 6.28851 17.6416 6.32994 17.7268 6.4128C17.8121 6.49566 17.8547 6.59509 17.8547 6.71109C17.8547 6.78922 17.8345 6.86083 17.7943 6.92594C17.7552 6.98986 17.7037 7.04135 17.6398 7.08041C17.5759 7.11829 17.5055 7.13723 17.4285 7.13723Z" fill="white"/>
</svg>
